<svg width="80" height="80" viewBox="0 0 80 80" fill="none" xmlns="http://www.w3.org/2000/svg">
<path fill-rule="evenodd" clip-rule="evenodd" d="M48.4749 9.27524C44.2655 8.39901 40.0136 8.13943 37.3712 8.35921C31.9656 8.80882 26.7653 10.6358 22.2663 13.666C17.7674 16.6962 14.1197 20.8285 11.6713 25.6688C9.22294 30.509 8.05545 35.8959 8.2802 41.3155C8.50495 46.7351 10.1145 52.0068 12.9552 56.6277C15.796 61.2487 19.7732 65.0648 24.5076 67.712C29.2421 70.3593 34.5758 71.7495 40.0001 71.7499C41.1046 71.75 42 72.6456 41.9999 73.7501C41.9998 74.8547 41.1043 75.75 39.9997 75.7499C33.892 75.7494 27.8864 74.1841 22.5555 71.2033C17.2246 68.2225 12.7463 63.9257 9.54762 58.7226C6.34898 53.5195 4.53671 47.5837 4.28364 41.4813C4.03057 35.3788 5.34515 29.3133 8.10199 23.8633C10.8588 18.4132 14.966 13.7603 20.0318 10.3484C25.0976 6.93643 30.953 4.87923 37.0397 4.37298C40.1434 4.11482 44.7887 4.42218 49.2901 5.35918C53.7262 6.28262 58.4289 7.89835 61.339 10.5217C61.3941 10.5713 61.4457 10.6233 61.494 10.6774L66.0857 6.08574C66.6577 5.51374 67.5179 5.34263 68.2652 5.65219C69.0126 5.96176 69.4999 6.69103 69.4999 7.49995V20C69.4999 21.1045 68.6044 22 67.4999 22H54.9999C54.191 22 53.4617 21.5127 53.1521 20.7653C52.8426 20.018 53.0137 19.1577 53.5857 18.5857L58.6702 13.5012C58.6671 13.4984 58.6639 13.4956 58.6608 13.4927C56.5709 11.6088 52.7494 10.165 48.4749 9.27524ZM59.8283 18H65.4999V12.3284L59.8283 18ZM72.8314 48.1061C73.8863 48.4335 74.4762 49.554 74.1488 50.609C73.5909 52.4066 72.8911 54.157 72.0559 55.8437C71.5658 56.8335 70.366 57.2387 69.3762 56.7485C68.3863 56.2584 67.9812 55.0586 68.4713 54.0688C69.2124 52.572 69.8335 51.0186 70.3285 49.4234C70.6559 48.3685 71.7765 47.7787 72.8314 48.1061ZM68.4742 58.4679C69.2829 59.1464 69.4249 60.3367 68.7987 61.1865C67.0038 63.622 64.9087 65.8212 62.563 67.7319C61.7445 68.3986 60.5488 68.3143 59.8319 67.5395C59.1149 66.7646 59.1237 65.566 59.8518 64.8017L65.7406 58.6204C66.4687 57.8561 67.6655 57.7893 68.4742 58.4679ZM58.0467 68.7585C58.4873 69.712 58.1152 70.8439 57.1948 71.35C54.2898 72.9473 51.1755 74.1302 47.9426 74.8641C46.9183 75.0966 45.8887 74.4971 45.5852 73.4915C45.2817 72.486 45.8078 71.417 46.7898 71.044L55.521 67.7278C56.5029 67.3548 57.6061 67.805 58.0467 68.7585Z" fill="#A36E4E"/>
<path fill-rule="evenodd" clip-rule="evenodd" d="M40 38.2499C39.0335 38.2499 38.25 39.0334 38.25 39.9999C38.25 40.9664 39.0335 41.7499 40 41.7499C40.9665 41.7499 41.75 40.9664 41.75 39.9999C41.75 39.0334 40.9665 38.2499 40 38.2499ZM34.25 39.9999C34.25 36.8243 36.8244 34.2499 40 34.2499C43.1756 34.2499 45.75 36.8243 45.75 39.9999C45.75 43.1756 43.1756 45.7499 40 45.7499C36.8244 45.7499 34.25 43.1756 34.25 39.9999Z" fill="#A36E4E"/>
<path fill-rule="evenodd" clip-rule="evenodd" d="M40 12.9999C41.1046 12.9999 42 13.8954 42 14.9999V36.2499C42 37.3545 41.1046 38.2499 40 38.2499C38.8954 38.2499 38 37.3545 38 36.2499V14.9999C38 13.8954 38.8954 12.9999 40 12.9999ZM40.8673 41.6051C41.5417 40.7303 42.7975 40.5678 43.6723 41.2422L56.2211 50.916C57.0959 51.5903 57.2584 52.8462 56.584 53.721C55.9096 54.5958 54.6537 54.7583 53.7789 54.0839L41.2302 44.4102C40.3554 43.7358 40.1929 42.4799 40.8673 41.6051Z" fill="#A36E4E"/>
</svg>
