<svg width="80" height="80" viewBox="0 0 80 80" fill="none" xmlns="http://www.w3.org/2000/svg">
<g clip-path="url(#clip0_2_1734)">
<path fill-rule="evenodd" clip-rule="evenodd" d="M-0.00146484 -0.000671387H80.0001V80.001H-0.00146484V-0.000671387Z" fill="white"/>
<path d="M38.0083 4.99982L37.0206 5.08716L13.1804 7.20727L6 31.973L42.0107 74.9998L74 48.0073L38.0083 4.99982ZM36.3731 8.98308L68.6399 47.5402L42.476 69.615L10.2227 31.0798L16.108 10.7835L36.3731 8.98308ZM22.4884 13.8434C21.2748 13.8471 20.1192 14.2857 19.207 15.0373L19.1973 15.0472L19.1826 15.0569C17.0204 16.8941 16.7435 20.192 18.5568 22.3569C18.5575 22.3569 18.5582 22.357 18.5598 22.3607C20.3796 24.5452 23.671 24.8122 25.8353 22.9973L25.8383 22.9935L25.8432 22.9886C28.0039 21.1565 28.2921 17.8596 26.4636 15.6832C25.4765 14.5016 24.0212 13.826 22.4883 13.8444L22.4884 13.8434ZM22.4982 17.6601H22.5129H22.5276C22.9036 17.6552 23.2936 17.8298 23.5506 18.1381L23.5535 18.1419L23.5565 18.1456C24.0386 18.719 23.9618 19.5747 23.3878 20.0662C22.783 20.569 21.971 20.5007 21.4778 19.9077L21.4728 19.9039L21.4698 19.899C20.9793 19.3157 21.0396 18.5018 21.6356 17.9865C21.904 17.7705 22.1992 17.6616 22.4981 17.6616L22.4982 17.6601ZM57.4369 43.9202C57.0086 43.9243 56.5947 44.074 56.2615 44.3435C56.2615 44.3435 52.8319 47.0469 49.2281 49.873C45.6242 52.6992 41.6593 55.7785 41.2015 56.1048C39.131 57.58 41.3349 60.6973 43.4053 59.2221C44.3632 58.5396 47.9625 55.7134 51.5708 52.8838C55.179 50.0542 58.6096 47.3514 58.6096 47.3514C60.0677 46.2372 59.2691 43.9006 57.4369 43.9201V43.9202Z" fill="#A36E4E"/>
</g>
<defs>
<clipPath id="clip0_2_1734">
<rect width="80" height="80" fill="white"/>
</clipPath>
</defs>
</svg>
