<svg width="80" height="80" viewBox="0 0 80 80" fill="none" xmlns="http://www.w3.org/2000/svg">
<path fill-rule="evenodd" clip-rule="evenodd" d="M67 29H30C28.3431 29 27 30.3431 27 32V69C27 70.6569 28.3431 72 30 72H67C68.6569 72 70 70.6569 70 69V32C70 30.3431 68.6569 29 67 29ZM30 25C26.134 25 23 28.134 23 32V69C23 72.866 26.134 76 30 76H67C70.866 76 74 72.866 74 69V32C74 28.134 70.866 25 67 25H30Z" fill="#A36E4E"/>
<path d="M14 8H51C52.6569 8 54 9.34315 54 11V25H58V11C58 7.13401 54.866 4 51 4H14C10.134 4 7 7.13401 7 11V48C7 51.866 10.134 55 14 55H23V51H14C12.3431 51 11 49.6569 11 48V11C11 9.34315 12.3431 8 14 8Z" fill="#A36E4E"/>
</svg>
