<svg width="23" height="22" viewBox="0 0 23 22" fill="none" xmlns="http://www.w3.org/2000/svg">
<path fill-rule="evenodd" clip-rule="evenodd" d="M2.06066 20.1525C1.77936 19.8712 1.65325 19.4577 1.71008 19.003C1.76691 18.5484 2.00203 18.0898 2.36371 17.7281L18.7282 1.36362C19.0899 1.00194 19.5485 0.766822 20.0031 0.70999C20.4578 0.653158 20.8712 0.779266 21.1525 1.06057C21.4338 1.34188 21.56 1.75533 21.5031 2.20999C21.4463 2.66465 21.2112 3.12326 20.8495 3.48494L4.48503 19.8494C4.12335 20.2111 3.66474 20.4462 3.21008 20.503C2.75542 20.5599 2.34196 20.4338 2.06066 20.1525Z" fill="#fff"/>
<path fill-rule="evenodd" clip-rule="evenodd" d="M1.95399 0.953971C2.23529 0.672666 2.64875 0.546559 3.10341 0.603391C3.55807 0.660223 4.01668 0.895339 4.37835 1.25702L20.7428 17.6215C21.1045 17.9832 21.3396 18.4418 21.3965 18.8964C21.4533 19.3511 21.3272 19.7645 21.0459 20.0459C20.7646 20.3272 20.3511 20.4533 19.8965 20.3964C19.4418 20.3396 18.9832 20.1045 18.6215 19.7428L2.25703 3.37834C1.89536 3.01666 1.66024 2.55805 1.60341 2.10339C1.54658 1.64873 1.67268 1.23528 1.95399 0.953971Z" fill="#fff"/>
</svg>
