<svg width="170" height="27" viewBox="0 0 170 27" fill="none" xmlns="http://www.w3.org/2000/svg">
<path d="M74.6895 0.866699C78.0746 0.866699 80.6915 1.8747 82.5402 3.8907C84.3888 5.8827 85.3131 8.7027 85.3131 12.3507C85.3131 16.3827 84.2928 19.5027 82.2521 21.7107C80.2354 23.9187 77.3664 25.0227 73.6451 25.0227C70.26 25.0227 67.6431 24.0147 65.7944 21.9987C63.9458 19.9587 63.0215 17.0787 63.0215 13.3587C63.0215 9.3747 64.0298 6.3027 66.0465 4.1427C68.0872 1.9587 70.9682 0.866699 74.6895 0.866699ZM74.0412 6.6267C73.1049 6.6267 72.3967 6.7947 71.9165 7.1307C71.4364 7.4427 71.0882 8.0067 70.8722 8.8227C70.6801 9.6387 70.5841 10.8267 70.5841 12.3867C70.5841 14.3787 70.6921 15.8907 70.9082 16.9227C71.1243 17.9547 71.4844 18.6747 71.9885 19.0827C72.5167 19.4907 73.285 19.6947 74.2933 19.6947C75.2297 19.6947 75.9379 19.5387 76.4181 19.2267C76.8982 18.8907 77.2343 18.3147 77.4264 17.4987C77.6425 16.6587 77.7505 15.4587 77.7505 13.8987C77.7505 11.9307 77.6425 10.4307 77.4264 9.3987C77.2103 8.3667 76.8382 7.6467 76.31 7.2387C75.8059 6.8307 75.0496 6.6267 74.0412 6.6267Z" fill="#242424"/>
<path d="M98.2263 1.1547C101.659 1.1547 104.288 2.0907 106.113 3.9627C107.962 5.8107 108.886 8.4867 108.886 11.9907C108.886 16.1427 107.818 19.3347 105.681 21.5667C103.544 23.7987 100.483 24.9147 96.4977 24.9147C94.0009 24.9147 91.0719 24.8067 87.7107 24.5907L88.0709 17.7507L87.7107 1.2987L98.2263 1.1547ZM97.8662 19.5507C98.9946 19.5507 99.8469 19.1067 100.423 18.2187C101.023 17.3067 101.323 15.8187 101.323 13.7547C101.323 12.0027 101.203 10.6227 100.963 9.6147C100.723 8.6067 100.339 7.8867 99.8109 7.4547C99.2827 6.9987 98.5504 6.7707 97.6141 6.7707C96.7018 6.7707 95.8015 6.8187 94.9132 6.9147L94.6611 17.0307L94.7331 19.2627C96.1736 19.4547 97.218 19.5507 97.8662 19.5507Z" fill="#242424"/>
<path d="M122.176 0.902699C124.241 0.902699 126.185 1.2267 128.01 1.8747L126.785 7.5987L126.317 7.8867C125.693 7.5507 124.973 7.2867 124.157 7.0947C123.34 6.8787 122.584 6.7707 121.888 6.7707C120.423 6.7707 119.367 7.2027 118.719 8.0667C118.071 8.9067 117.746 10.3227 117.746 12.3147C117.746 14.6427 118.119 16.3467 118.863 17.4267C119.607 18.4827 120.771 19.0107 122.356 19.0107C123.028 19.0107 123.772 18.9507 124.589 18.8307C125.429 18.6867 126.161 18.4947 126.785 18.2547L127.362 18.6147L126.785 24.3027C125.345 24.7587 123.676 24.9867 121.78 24.9867C117.914 24.9867 114.997 23.9787 113.029 21.9627C111.084 19.9467 110.112 17.0067 110.112 13.1427C110.112 9.2547 111.156 6.2427 113.245 4.1067C115.358 1.9707 118.335 0.902699 122.176 0.902699Z" fill="#242424"/>
<path d="M149.605 13.1067L149.569 16.8147C149.545 19.4547 148.657 21.4827 146.905 22.8987C145.152 24.3147 142.643 25.0227 139.378 25.0227C136.233 25.0227 133.82 24.3147 132.139 22.8987C130.483 21.4827 129.691 19.4547 129.763 16.8147L129.871 13.1067L129.655 1.2987H136.893L136.569 15.8427C136.545 17.0667 136.773 17.9547 137.253 18.5067C137.757 19.0587 138.562 19.3347 139.666 19.3347C140.794 19.3347 141.611 19.0587 142.115 18.5067C142.619 17.9547 142.859 17.0667 142.835 15.8427L142.511 1.2987H149.858L149.605 13.1067Z" fill="#242424"/>
<path d="M170 1.8027L169.604 7.0587L164.85 6.8427H164.418L164.238 17.0307L164.526 24.5907H157.324L157.684 17.7507L157.504 6.8427H157.036L152.246 7.0587L151.814 6.5547L152.21 1.2987H169.604L170 1.8027Z" fill="#242424"/>
<path d="M25.4247 24.5906H17.7901L15.5933 16.1666H15.1612L13.1445 24.5906H5.47387L0 1.29858H6.98639L7.34651 4.89858L9.61528 17.3546H10.0474L12.7484 6.73458L11.5239 1.29858H18.7984L19.3026 5.61858L21.7514 17.3546H22.1836L25.0285 5.33058L25.6768 1.29858H32.303L25.4247 24.5906Z" fill="#242424"/>
<path d="M59.8178 13.5C59.8178 20.9558 53.7716 27 46.3132 27C38.8548 27 32.8086 20.9558 32.8086 13.5C32.8086 6.04416 38.8548 0 46.3132 0C53.7716 0 59.8178 6.04416 59.8178 13.5ZM33.889 13.5C33.889 20.3594 39.4515 25.92 46.3132 25.92C53.1749 25.92 58.7374 20.3594 58.7374 13.5C58.7374 6.64062 53.1749 1.08 46.3132 1.08C39.4515 1.08 33.889 6.64062 33.889 13.5Z" fill="#A36E4E"/>
<path d="M58.8175 13.5C58.8175 20.4036 53.2191 26 46.3132 26C39.4073 26 33.8089 20.4036 33.8089 13.5C33.8089 6.59644 39.4073 1 46.3132 1C53.2191 1 58.8175 6.59644 58.8175 13.5ZM34.8093 13.5C34.8093 19.8513 39.9598 25 46.3132 25C52.6667 25 57.8171 19.8513 57.8171 13.5C57.8171 7.14873 52.6667 2 46.3132 2C39.9598 2 34.8093 7.14873 34.8093 13.5Z" fill="white"/>
<path d="M35.6065 9.29379C36.7091 6.48903 38.869 4.229 41.6214 2.99992C44.3739 1.77084 47.499 1.67093 50.3244 2.72169C53.1499 3.77244 55.4498 5.8899 56.7294 8.61849C58.009 11.3471 58.1661 14.4688 57.1668 17.312C56.1676 20.1552 54.0918 22.4926 51.3861 23.8215C48.6805 25.1504 45.5611 25.3645 42.6991 24.4177C39.8372 23.4709 37.4613 21.439 36.0827 18.759C34.7042 16.079 34.433 12.9651 35.3276 10.0873L36.3163 10.3945C35.5022 13.0133 35.749 15.8469 37.0035 18.2857C38.258 20.7245 40.42 22.5736 43.0244 23.4351C45.6288 24.2967 48.4674 24.1019 50.9296 22.8926C53.3917 21.6833 55.2807 19.5562 56.19 16.9689C57.0994 14.3816 56.9564 11.5409 55.792 9.05783C54.6275 6.5748 52.5346 4.64792 49.9634 3.69174C47.3923 2.73555 44.5485 2.82646 42.0437 3.94493C39.539 5.06339 37.5735 7.12002 36.5701 9.67235L35.6065 9.29379Z" fill="#A36E4E"/>
<path d="M56.8168 13.5C56.8168 19.299 52.1142 24 46.3132 24C40.5122 24 35.8096 19.299 35.8096 13.5C35.8096 7.70101 40.5122 3 46.3132 3C52.1142 3 56.8168 7.70101 56.8168 13.5ZM36.86 13.5C36.86 18.7191 41.0923 22.95 46.3132 22.95C51.5341 22.95 55.7664 18.7191 55.7664 13.5C55.7664 8.28091 51.5341 4.05 46.3132 4.05C41.0923 4.05 36.86 8.28091 36.86 13.5Z" fill="white"/>
<path d="M55.2116 10.1647C56.0845 12.4919 56.0103 15.0683 55.0049 17.3415C53.9996 19.6146 52.1432 21.4033 49.8338 22.3241C47.5245 23.2448 44.9462 23.2242 42.6519 22.2666C40.3576 21.309 38.5301 19.4908 37.5612 17.2019C36.5924 14.9129 36.5595 12.3356 37.4695 10.0227C38.3796 7.70982 40.1601 5.84553 42.4292 4.82971C44.6982 3.81389 47.2752 3.72745 49.6073 4.58893C51.9394 5.45041 53.8409 7.1912 54.904 9.43792L53.959 9.88475C53.0129 7.88517 51.3205 6.33587 49.245 5.56915C47.1694 4.80243 44.8759 4.87936 42.8564 5.78344C40.8369 6.68752 39.2523 8.34674 38.4424 10.4052C37.6324 12.4637 37.6617 14.7575 38.524 16.7947C39.3862 18.8318 41.0127 20.45 43.0546 21.3023C45.0966 22.1545 47.3913 22.1729 49.4466 21.3534C51.5019 20.534 53.1541 18.942 54.0489 16.9189C54.9436 14.8958 55.0096 12.6028 54.2328 10.5316L55.2116 10.1647Z" fill="#A36E4E"/>
<path d="M54.8161 13.5C54.8161 18.1944 51.0092 22 46.3132 22C41.6172 22 37.8103 18.1944 37.8103 13.5C37.8103 8.80558 41.6172 5 46.3132 5C51.0092 5 54.8161 8.80558 54.8161 13.5ZM38.8307 13.5C38.8307 17.6311 42.1807 20.98 46.3132 20.98C50.4457 20.98 53.7958 17.6311 53.7958 13.5C53.7958 9.36891 50.4457 6.02 46.3132 6.02C42.1807 6.02 38.8307 9.36891 38.8307 13.5Z" fill="white"/>
<path d="M48.4559 20.6876C50.3287 20.1297 51.9097 18.8634 52.8629 17.1581C53.816 15.4528 54.0659 13.443 53.5595 11.5563C53.053 9.66957 51.8302 8.05484 50.1511 7.05557C48.472 6.05629 46.4692 5.75133 44.5687 6.20557C42.6681 6.6598 41.0198 7.83737 39.9745 9.48779C38.9291 11.1382 38.5691 13.1312 38.9711 15.0429C39.3731 16.9546 40.5054 18.634 42.127 19.724C43.7487 20.8139 45.7317 21.2284 47.6544 20.8792L47.4666 19.8461C45.8131 20.1464 44.1077 19.79 42.7131 18.8526C41.3185 17.9152 40.3448 16.4709 39.999 14.8269C39.6533 13.1829 39.9629 11.4689 40.8619 10.0495C41.7609 8.63014 43.1784 7.61743 44.8129 7.22679C46.4474 6.83615 48.1698 7.09841 49.6138 7.95779C51.0578 8.81716 52.1095 10.2058 52.545 11.8284C52.9805 13.451 52.7656 15.1794 51.9459 16.6459C51.1262 18.1125 49.7665 19.2015 48.156 19.6813L48.4559 20.6876Z" fill="#A36E4E"/>
<path d="M52.8154 13.5C52.8154 17.0899 49.9043 20 46.3132 20C42.7221 20 39.811 17.0899 39.811 13.5C39.811 9.91015 42.7221 7 46.3132 7C49.9043 7 52.8154 9.91015 52.8154 13.5ZM40.8513 13.5C40.8513 16.5155 43.2967 18.96 46.3132 18.96C49.3297 18.96 51.7751 16.5155 51.7751 13.5C51.7751 10.4845 49.3297 8.04 46.3132 8.04C43.2967 8.04 40.8513 10.4845 40.8513 13.5Z" fill="white"/>
<path d="M44.3839 8.34924C45.7146 7.85113 47.1866 7.88703 48.4914 8.44943C49.7963 9.01182 50.8329 10.0571 51.3842 11.3664C51.9354 12.6756 51.9586 14.1473 51.4488 15.4732C50.939 16.7992 49.9357 17.8765 48.6492 18.4796C47.3627 19.0828 45.8926 19.1649 44.5468 18.7089C43.201 18.2528 42.084 17.2939 41.4295 16.0331C40.7751 14.7722 40.634 13.3071 41.0359 11.9446C41.4378 10.5821 42.3514 9.42781 43.5854 8.72355L44.1037 9.63108C43.1041 10.2015 42.3641 11.1365 42.0386 12.2401C41.7131 13.3437 41.8273 14.5305 42.3574 15.5518C42.8875 16.5731 43.7923 17.3498 44.8824 17.7192C45.9725 18.0886 47.1632 18.022 48.2053 17.5335C49.2474 17.045 50.0601 16.1723 50.473 15.0983C50.8859 14.0243 50.8672 12.8322 50.4207 11.7717C49.9742 10.7112 49.1345 9.86458 48.0776 9.40904C47.0206 8.9535 45.8283 8.92442 44.7504 9.32789L44.3839 8.34924Z" fill="#A36E4E"/>
<path d="M50.8147 13.5C50.8147 15.9853 48.7993 18 46.3132 18C43.8271 18 41.8117 15.9853 41.8117 13.5C41.8117 11.0147 43.8271 9 46.3132 9C48.7993 9 50.8147 11.0147 50.8147 13.5ZM42.847 13.5C42.847 15.4137 44.3989 16.965 46.3132 16.965C48.2275 16.965 49.7794 15.4137 49.7794 13.5C49.7794 11.5863 48.2275 10.035 46.3132 10.035C44.3989 10.035 42.847 11.5863 42.847 13.5Z" fill="white"/>
<path d="M43.3378 15.3449C42.8694 14.5899 42.7057 13.6851 42.8799 12.8139C43.0541 11.9427 43.5532 11.1703 44.276 10.6534C44.9988 10.1365 45.8912 9.91372 46.7723 10.0302C47.6533 10.1467 48.4571 10.5938 49.0206 11.2808C49.5841 11.9679 49.8651 12.8434 49.8068 13.7299C49.7484 14.6164 49.355 15.4475 48.7063 16.0548C48.0575 16.662 47.2021 16.9999 46.3134 17C45.4246 17.0001 44.5692 16.6623 43.9204 16.0551L44.5903 15.3397C45.0575 15.7768 45.6734 16.02 46.3133 16.02C46.9532 16.02 47.5691 15.7767 48.0362 15.3394C48.5033 14.9022 48.7865 14.3038 48.8286 13.6655C48.8706 13.0272 48.6682 12.3969 48.2625 11.9022C47.8568 11.4076 47.2781 11.0857 46.6437 11.0018C46.0094 10.9179 45.3668 11.0783 44.8464 11.4505C44.326 11.8226 43.9666 12.3787 43.8412 13.006C43.7157 13.6332 43.8336 14.2847 44.1709 14.8283L43.3378 15.3449Z" fill="#A36E4E"/>
<path d="M48.8141 13.5C48.8141 14.8807 47.6944 16 46.3132 16C44.932 16 43.8124 14.8807 43.8124 13.5C43.8124 12.1193 44.932 11 46.3132 11C47.6944 11 48.8141 12.1193 48.8141 13.5ZM44.8127 13.5C44.8127 14.3284 45.4845 15 46.3132 15C47.1419 15 47.8137 14.3284 47.8137 13.5C47.8137 12.6716 47.1419 12 46.3132 12C45.4845 12 44.8127 12.6716 44.8127 13.5Z" fill="white"/>
<path d="M47.8137 13.5C47.8137 14.3284 47.1419 15 46.3132 15C45.4845 15 44.8127 14.3284 44.8127 13.5C44.8127 12.6716 45.4845 12 46.3132 12C47.1419 12 47.8137 12.6716 47.8137 13.5ZM45.1878 13.5C45.1878 14.1213 45.6917 14.625 46.3132 14.625C46.9347 14.625 47.4386 14.1213 47.4386 13.5C47.4386 12.8787 46.9347 12.375 46.3132 12.375C45.6917 12.375 45.1878 12.8787 45.1878 13.5Z" fill="#A36E4E"/>
</svg>
