<svg width="708" height="115" viewBox="0 0 708 115" fill="none" xmlns="http://www.w3.org/2000/svg">
<g opacity="0.1">
<path d="M318.529 3.69104C332.947 3.69104 344.093 7.98437 351.967 16.571C359.84 25.0555 363.777 37.0666 363.777 52.6044C363.777 69.7777 359.431 83.0666 350.74 92.471C342.15 101.875 329.93 106.578 314.08 106.578C299.662 106.578 288.516 102.284 280.642 93.6977C272.768 85.0088 268.832 72.7422 268.832 56.8977C268.832 39.9288 273.126 26.8444 281.716 17.6444C290.408 8.34215 302.679 3.69104 318.529 3.69104ZM315.768 28.2244C311.78 28.2244 308.763 28.9399 306.718 30.371C304.673 31.6999 303.19 34.1021 302.27 37.5777C301.452 41.0533 301.043 46.1133 301.043 52.7577C301.043 61.2422 301.503 67.6821 302.423 72.0777C303.343 76.4733 304.877 79.5399 307.025 81.2777C309.274 83.0155 312.546 83.8844 316.841 83.8844C320.829 83.8844 323.846 83.2199 325.891 81.891C327.936 80.4599 329.368 78.0066 330.186 74.531C331.106 70.9533 331.566 65.8422 331.566 59.1977C331.566 50.8155 331.106 44.4266 330.186 40.031C329.266 35.6355 327.681 32.5688 325.431 30.831C323.283 29.0933 320.062 28.2244 315.768 28.2244Z" fill="#242424"/>
<path d="M418.778 4.91771C433.401 4.91771 444.598 8.90438 452.37 16.8777C460.243 24.7488 464.18 36.1466 464.18 51.071C464.18 68.7555 459.63 82.351 450.529 91.8577C441.428 101.364 428.39 106.118 411.416 106.118C400.781 106.118 388.305 105.658 373.989 104.738L375.523 75.6044L373.989 5.53104L418.778 4.91771ZM417.244 83.271C422.05 83.271 425.68 81.3799 428.135 77.5977C430.691 73.7133 431.969 67.3755 431.969 58.5844C431.969 51.1222 431.458 45.2444 430.435 40.951C429.413 36.6577 427.777 33.591 425.527 31.751C423.277 29.8088 420.159 28.8377 416.171 28.8377C412.285 28.8377 408.45 29.0422 404.667 29.451L403.593 72.5377L403.9 82.0444C410.035 82.8622 414.483 83.271 417.244 83.271Z" fill="#242424"/>
<path d="M520.786 3.84437C529.58 3.84437 537.863 5.22437 545.634 7.98437L540.419 32.3644L538.425 33.591C535.766 32.1599 532.699 31.0355 529.222 30.2177C525.745 29.2977 522.524 28.8377 519.558 28.8377C513.321 28.8377 508.821 30.6777 506.061 34.3577C503.3 37.9355 501.919 43.9666 501.919 52.451C501.919 62.3666 503.504 69.6244 506.674 74.2244C509.844 78.7222 514.804 80.971 521.553 80.971C524.416 80.971 527.586 80.7155 531.062 80.2044C534.641 79.591 537.76 78.7733 540.419 77.751L542.873 79.2844L540.419 103.511C534.284 105.453 527.177 106.424 519.098 106.424C502.635 106.424 490.211 102.131 481.826 93.5444C473.543 84.9577 469.401 72.4355 469.401 55.9777C469.401 39.4177 473.85 26.5888 482.746 17.491C491.745 8.39326 504.424 3.84437 520.786 3.84437Z" fill="#242424"/>
<path d="M637.615 55.8244L637.462 71.6177C637.36 82.8622 633.576 91.4999 626.111 97.531C618.646 103.562 607.961 106.578 594.054 106.578C580.658 106.578 570.381 103.562 563.223 97.531C556.167 91.4999 552.793 82.8622 553.1 71.6177L553.56 55.8244L552.639 5.53104H583.47L582.09 67.4777C581.987 72.691 582.959 76.4733 585.004 78.8244C587.151 81.1755 590.577 82.351 595.281 82.351C600.087 82.351 603.564 81.1755 605.711 78.8244C607.858 76.4733 608.881 72.691 608.779 67.4777L607.398 5.53104H638.689L637.615 55.8244Z" fill="#242424"/>
<path d="M724.481 7.67771L722.793 30.0644L702.546 29.1444H700.706L699.939 72.5377L701.166 104.738H670.489L672.023 75.6044L671.256 29.1444H669.262L648.861 30.0644L647.021 27.9177L648.708 5.53104H722.793L724.481 7.67771Z" fill="#242424"/>
<path d="M108.698 104.738H76.1798L66.8232 68.8577H64.9826L56.393 104.738H23.7219L0.407227 5.53101H30.1641L31.6979 20.8643L41.3612 73.9177H43.2018L54.7058 28.6843L49.4907 5.53101H80.4746L82.622 23.931L93.0522 73.9177H94.8928L107.01 22.7043L109.771 5.53101H137.994L108.698 104.738Z" fill="#242424"/>
<path d="M255.185 57.5C255.185 89.2564 229.432 115 197.665 115C165.898 115 140.146 89.2564 140.146 57.5C140.146 25.7436 165.898 0 197.665 0C229.432 0 255.185 25.7436 255.185 57.5ZM144.747 57.5C144.747 86.7159 168.439 110.4 197.665 110.4C226.891 110.4 250.583 86.7159 250.583 57.5C250.583 28.2841 226.891 4.6 197.665 4.6C168.439 4.6 144.747 28.2841 144.747 57.5Z" fill="#A36E4E"/>
<path d="M250.924 57.5C250.924 86.904 227.079 110.741 197.665 110.741C168.251 110.741 144.406 86.904 144.406 57.5C144.406 28.096 168.251 4.25926 197.665 4.25926C227.079 4.25926 250.924 28.096 250.924 57.5ZM148.667 57.5C148.667 84.5517 170.604 106.481 197.665 106.481C224.726 106.481 246.663 84.5517 246.663 57.5C246.663 30.4483 224.726 8.51852 197.665 8.51852C170.604 8.51852 148.667 30.4483 148.667 57.5Z" fill="white"/>
<path d="M152.062 39.5847C156.759 27.6385 165.958 18.0124 177.682 12.7774C189.405 7.54247 202.716 7.11693 214.75 11.5924C226.784 16.0678 236.58 25.0866 242.03 36.7084C247.481 48.3302 248.15 61.6263 243.894 73.7362C239.637 85.8461 230.796 95.802 219.272 101.462C207.748 107.122 194.462 108.034 182.272 104.001C170.082 99.9688 159.963 91.3142 154.091 79.8994C148.219 68.4846 147.064 55.2219 150.875 42.9645L155.086 44.2727C151.618 55.4269 152.669 67.496 158.013 77.8835C163.356 88.2709 172.565 96.1467 183.657 99.8162C194.75 103.486 206.841 102.656 217.328 97.5054C227.814 92.3548 235.86 83.2949 239.733 72.2749C243.606 61.2549 242.997 49.1555 238.038 38.5796C233.078 28.0038 224.164 19.7967 213.212 15.7241C202.261 11.6514 190.149 12.0386 179.48 16.8025C168.812 21.5663 160.44 30.326 156.167 41.197L152.062 39.5847Z" fill="#A36E4E"/>
<path d="M242.403 57.5C242.403 82.1994 222.373 102.222 197.665 102.222C172.957 102.222 152.928 82.1994 152.928 57.5C152.928 32.8006 172.957 12.7778 197.665 12.7778C222.373 12.7778 242.403 32.8006 242.403 57.5ZM157.401 57.5C157.401 79.7295 175.428 97.75 197.665 97.75C219.902 97.75 237.929 79.7295 237.929 57.5C237.929 35.2705 219.902 17.25 197.665 17.25C175.428 17.25 157.401 35.2705 157.401 57.5Z" fill="white"/>
<path d="M235.566 43.2941C239.284 53.2062 238.968 64.1799 234.686 73.8618C230.403 83.5436 222.496 91.1624 212.66 95.084C202.824 99.0056 191.843 98.9177 182.071 94.8392C172.299 90.7607 164.515 83.0163 160.388 73.2672C156.262 63.5181 156.122 52.5406 159.998 42.6894C163.874 32.8381 171.457 24.8976 181.122 20.571C190.787 16.2444 201.763 15.8762 211.696 19.5455C221.629 23.2147 229.728 30.6292 234.256 40.1986L230.231 42.1017C226.201 33.585 218.993 26.9861 210.152 23.7205C201.312 20.4548 191.543 20.7825 182.942 24.6332C174.34 28.4839 167.591 35.5509 164.141 44.3185C160.691 53.0862 160.816 62.8561 164.489 71.5328C168.161 80.2095 175.089 87.102 183.786 90.7319C192.483 94.3617 202.257 94.44 211.011 90.9497C219.765 87.4595 226.802 80.6788 230.613 72.062C234.424 63.4451 234.706 53.6785 231.397 44.8568L235.566 43.2941Z" fill="#A36E4E"/>
<path d="M233.881 57.5C233.881 77.4948 217.667 93.7037 197.665 93.7037C177.664 93.7037 161.449 77.4948 161.449 57.5C161.449 37.5052 177.664 21.2963 197.665 21.2963C217.667 21.2963 233.881 37.5052 233.881 57.5ZM165.795 57.5C165.795 75.0954 180.064 89.3593 197.665 89.3593C215.267 89.3593 229.535 75.0954 229.535 57.5C229.535 39.9046 215.267 25.6407 197.665 25.6407C180.064 25.6407 165.795 39.9046 165.795 57.5Z" fill="white"/>
<path d="M206.792 88.1139C214.768 85.7376 221.502 80.3441 225.562 73.0807C229.621 65.8173 230.686 57.2571 228.529 49.2212C226.372 41.1852 221.164 34.3077 214.012 30.0515C206.86 25.7953 198.33 24.4964 190.235 26.4311C182.14 28.3658 175.119 33.3814 170.667 40.411C166.214 47.4405 164.681 55.9293 166.393 64.0716C168.106 72.2139 172.928 79.367 179.835 84.0094C186.742 88.6519 195.189 90.4172 203.378 88.9299L202.578 84.5297C195.535 85.8088 188.271 84.2906 182.331 80.2981C176.391 76.3056 172.244 70.1539 170.771 63.1516C169.299 56.1492 170.617 48.8489 174.447 42.8034C178.276 36.758 184.313 32.4446 191.275 30.7808C198.237 29.1169 205.573 30.234 211.723 33.8943C217.874 37.5546 222.353 43.4693 224.208 50.3802C226.063 57.2911 225.147 64.6529 221.656 70.8994C218.165 77.146 212.374 81.7844 205.514 83.8279L206.792 88.1139Z" fill="#A36E4E"/>
<path d="M225.36 57.5C225.36 72.7901 212.96 85.1852 197.665 85.1852C182.37 85.1852 169.971 72.7901 169.971 57.5C169.971 42.2099 182.37 29.8148 197.665 29.8148C212.96 29.8148 225.36 42.2099 225.36 57.5ZM174.402 57.5C174.402 70.3437 184.817 80.7556 197.665 80.7556C210.513 80.7556 220.929 70.3437 220.929 57.5C220.929 44.6563 210.513 34.2444 197.665 34.2444C184.817 34.2444 174.402 44.6563 174.402 57.5Z" fill="white"/>
<path d="M189.448 35.5616C195.116 33.44 201.385 33.5929 206.943 35.9883C212.501 38.3837 216.916 42.8358 219.264 48.4122C221.612 53.9887 221.71 60.257 219.539 65.9045C217.367 71.552 213.094 76.1407 207.615 78.7095C202.135 81.2784 195.874 81.6283 190.142 79.6859C184.41 77.7434 179.652 73.6594 176.864 68.289C174.077 62.9186 173.476 56.6783 175.188 50.875C176.899 45.0717 180.791 40.1555 186.047 37.1559L188.254 41.0213C183.997 43.451 180.845 47.4331 179.458 52.1338C178.072 56.8344 178.559 61.889 180.816 66.2391C183.074 70.5891 186.928 73.8972 191.571 75.4706C196.214 77.0439 201.286 76.7605 205.724 74.6797C210.163 72.599 213.624 68.8821 215.383 64.3077C217.142 59.7332 217.062 54.6559 215.16 50.1389C213.258 45.622 209.682 42.0158 205.18 40.0755C200.678 38.1353 195.6 38.0114 191.009 39.7299L189.448 35.5616Z" fill="#A36E4E"/>
<path d="M216.838 57.5C216.838 68.0855 208.254 76.6667 197.665 76.6667C187.076 76.6667 178.492 68.0855 178.492 57.5C178.492 46.9145 187.076 38.3333 197.665 38.3333C208.254 38.3333 216.838 46.9145 216.838 57.5ZM182.902 57.5C182.902 65.6508 189.512 72.2583 197.665 72.2583C205.819 72.2583 212.429 65.6508 212.429 57.5C212.429 49.3492 205.819 42.7417 197.665 42.7417C189.512 42.7417 182.902 49.3492 182.902 57.5Z" fill="white"/>
<path d="M184.992 65.3577C182.997 62.142 182.3 58.2882 183.042 54.5776C183.784 50.867 185.91 47.5773 188.988 45.3757C192.067 43.174 195.868 42.2251 199.621 42.7213C203.373 43.2176 206.797 45.1218 209.197 48.048C211.597 50.9742 212.794 54.7033 212.545 58.4791C212.297 62.255 210.621 65.795 207.858 68.3814C205.095 70.9679 201.451 72.4072 197.666 72.4074C193.881 72.4077 190.237 70.9689 187.473 68.3828L190.327 65.3356C192.317 67.1976 194.94 68.2335 197.666 68.2333C200.391 68.2331 203.014 67.1969 205.004 65.3346C206.993 63.4724 208.2 60.9236 208.379 58.205C208.558 55.4863 207.696 52.8014 205.968 50.6946C204.24 48.5877 201.775 47.2167 199.073 46.8594C196.371 46.5021 193.634 47.1853 191.418 48.7705C189.201 50.3557 187.67 52.7242 187.136 55.3959C186.602 58.0675 187.104 60.8423 188.541 63.1575L184.992 65.3577Z" fill="#A36E4E"/>
<path d="M208.317 57.5C208.317 63.3808 203.548 68.1481 197.665 68.1481C191.782 68.1481 187.013 63.3808 187.013 57.5C187.013 51.6192 191.782 46.8519 197.665 46.8519C203.548 46.8519 208.317 51.6192 208.317 57.5ZM191.274 57.5C191.274 61.0285 194.135 63.8889 197.665 63.8889C201.195 63.8889 204.056 61.0285 204.056 57.5C204.056 53.9715 201.195 51.1111 197.665 51.1111C194.135 51.1111 191.274 53.9715 191.274 57.5Z" fill="white"/>
<path d="M204.056 57.5C204.056 61.0285 201.195 63.8889 197.665 63.8889C194.135 63.8889 191.274 61.0285 191.274 57.5C191.274 53.9715 194.135 51.1111 197.665 51.1111C201.195 51.1111 204.056 53.9715 204.056 57.5ZM192.872 57.5C192.872 60.1464 195.018 62.2917 197.665 62.2917C200.312 62.2917 202.458 60.1464 202.458 57.5C202.458 54.8536 200.312 52.7083 197.665 52.7083C195.018 52.7083 192.872 54.8536 192.872 57.5Z" fill="#A36E4E"/>
</g>
</svg>
