<svg width="36" height="36" viewBox="0 0 36 36" fill="none" xmlns="http://www.w3.org/2000/svg">
<path d="M24.4132 31C23.3429 31.0004 22.2911 30.7216 21.362 30.1914L21.231 30.1177C15.1903 26.6686 10.1365 21.731 6.55255 15.7766L5.86933 14.64C5.16956 13.4779 4.87959 12.1156 5.04563 10.77C5.21166 9.42433 5.82416 8.17291 6.78549 7.21511L8.14675 5.85636C9.29066 4.71455 11.1511 4.71455 12.2939 5.85636L15.2931 8.84997C15.7444 9.30262 16.0357 9.88977 16.1228 10.5225C16.2098 11.1552 16.088 11.799 15.7756 12.3564L14.6483 14.3545C14.6246 14.3966 14.6154 14.4452 14.6219 14.493C14.6285 14.5408 14.6506 14.5851 14.6847 14.6192L21.362 21.2842C21.3968 21.3182 21.4416 21.34 21.4898 21.3464C21.538 21.3527 21.5869 21.3433 21.6293 21.3195L23.628 20.1954L23.6291 20.1943C24.1875 19.8829 24.8324 19.7614 25.4662 19.8483C26.1 19.9352 26.6882 20.2257 27.1419 20.676L30.1421 23.6717C31.286 24.8135 31.286 26.6705 30.1421 27.8112L28.7205 29.2291C28.1544 29.7924 27.4825 30.2387 26.7434 30.5426C26.0043 30.8464 25.2125 31.0019 24.4132 31ZM10.2203 7.07601C10.002 7.07601 9.78358 7.15905 9.61719 7.32513L8.25594 8.68285C7.62322 9.31327 7.22009 10.1369 7.11078 11.0226C7.00147 11.9082 7.19228 12.8049 7.65279 13.5698L8.33601 14.7064C11.7357 20.355 16.5294 25.0391 22.2595 28.3115L22.3905 28.3852C23.9774 29.2914 25.9741 29.035 27.249 27.7604L28.6706 26.3425C28.7498 26.2634 28.8127 26.1696 28.8556 26.0663C28.8984 25.9629 28.9205 25.8522 28.9205 25.7404C28.9205 25.6286 28.8984 25.5179 28.8556 25.4146C28.8127 25.3113 28.7498 25.2174 28.6706 25.1384L25.6704 22.1427C25.5384 22.0117 25.3671 21.9272 25.1827 21.9021C24.9982 21.877 24.8105 21.9126 24.6482 22.0036L22.6495 23.1277C22.2112 23.3727 21.7049 23.4684 21.2073 23.4004C20.7097 23.3324 20.2478 23.1044 19.8916 22.7509L13.2143 16.0859C12.8598 15.7308 12.6311 15.2699 12.563 14.7732C12.4949 14.2766 12.591 13.7713 12.8368 13.3342L13.9641 11.337C14.0546 11.1749 14.0899 10.9878 14.0646 10.8039C14.0393 10.6201 13.9547 10.4494 13.8237 10.3177L10.8235 7.32513C10.7443 7.24602 10.6503 7.18328 10.5468 7.14053C10.4433 7.09778 10.3324 7.07585 10.2203 7.07601Z" fill="black"/>
</svg>
