<svg width="212" height="44" viewBox="0 0 212 44" fill="none" xmlns="http://www.w3.org/2000/svg">
<path fill-rule="evenodd" clip-rule="evenodd" d="M4.02893 37.716H211.179V13.7891H4.02893V37.716Z" fill="#0061A9"/>
<path fill-rule="evenodd" clip-rule="evenodd" d="M172.653 33.0312H4.02893V34.4722H171.916L172.653 33.0312Z" fill="#FFE822"/>
<path fill-rule="evenodd" clip-rule="evenodd" d="M66.4478 19.3387L60.8694 25.1035C60.8694 25.1035 61.2903 22.0766 61.2903 21.3561C61.3956 20.7797 61.2903 19.3379 59.2898 19.3379C57.3956 19.3379 50.5534 19.3379 50.5534 19.3379L44.8698 30.0037H51.7121L55.8172 22.2919L54.9754 30.0037H61.0799L68.5535 22.436L64.4484 30.0037H71.2895L77.0795 19.3379H66.4478V19.3387Z" fill="white"/>
<path fill-rule="evenodd" clip-rule="evenodd" d="M103.708 29.7887C103.288 29.8608 100.761 30.2202 97.9197 30.2202C93.0779 30.3651 88.7624 28.9954 88.7624 26.6169C88.6571 22.3644 94.8668 20.0588 99.4981 19.4816C101.497 19.1934 105.497 18.8331 109.392 19.4816L107.076 23.229C106.446 22.2203 104.761 22.2203 104.024 22.2203C102.445 22.1482 100.971 22.5093 100.024 22.7967C97.708 23.5171 95.7087 25.8227 98.972 26.7602C100.761 27.2645 103.077 26.8322 105.499 26.6161L103.708 29.7887Z" fill="white"/>
<path fill-rule="evenodd" clip-rule="evenodd" d="M173.811 30.0046H166.337L172.021 19.3389H179.6L173.811 30.0046Z" fill="white"/>
<path fill-rule="evenodd" clip-rule="evenodd" d="M83.1828 30.0046H75.7104L81.3939 19.3389H88.9728L83.1828 30.0046Z" fill="white"/>
<path fill-rule="evenodd" clip-rule="evenodd" d="M123.919 19.3389L121.919 23.1583H118.023L120.129 19.3389H112.971L107.182 30.0046H114.339L116.34 26.4005H120.129L118.235 30.0046H125.392L131.181 19.3389H123.919Z" fill="white"/>
<path fill-rule="evenodd" clip-rule="evenodd" d="M158.548 26.4726L162.338 19.3389H154.969L149.286 30.0046H164.022L165.917 26.4726H158.548Z" fill="white"/>
<path fill-rule="evenodd" clip-rule="evenodd" d="M198.232 19.3387L194.231 26.6894C194.336 25.9689 194.548 23.0141 194.653 21.3561C194.758 20.6356 194.548 20.1313 194.022 19.7702C193.39 19.3379 192.654 19.3379 192.654 19.3379H183.916L178.127 30.0037H184.549L188.548 22.436L188.128 30.0037H198.758L204.548 19.3379H198.232V19.3387Z" fill="white"/>
<path fill-rule="evenodd" clip-rule="evenodd" d="M138.338 27.1218L138.97 25.969H147.181L148.548 23.3024H140.338L140.97 22.1496H149.602L151.075 19.3389H135.392L129.602 30.0046H145.602L147.076 27.1218H138.338Z" fill="white"/>
<path fill-rule="evenodd" clip-rule="evenodd" d="M45.5012 24.2392C45.9221 23.7348 45.3959 22.7982 44.4477 22.0769C43.6058 21.3564 42.4483 21.1402 42.3431 20.78C43.5006 19.1941 42.2379 17.8251 40.449 17.2487C40.5542 16.5274 40.1333 15.7349 39.1862 15.2305C39.6071 14.5821 40.1333 12.7809 38.1339 11.6993C38.9758 9.46494 35.6084 8.16806 33.8183 8.09601C32.9753 7.66289 31.8178 7.37469 30.2381 7.30264C31.3969 6.14903 31.08 4.63599 29.7108 3.7714C29.816 2.54657 28.5533 1.39295 26.7632 0.960656C26.1318 -0.0480329 22.7633 0.0960655 22.4476 1.0327C20.4482 1.53705 19.2895 2.97886 19.5 4.3478C18.3412 5.21239 18.3412 6.6542 19.5 7.66289C18.4465 7.59084 16.9733 7.80698 16.0262 8.09518H15.921C15.0791 7.80698 14.2361 7.66289 13.289 7.80698C13.0786 7.66289 12.4472 7.51879 12.0263 7.44674C11.713 7.08649 11.2909 6.7983 10.6595 6.58215C10.4491 5.93371 9.71246 5.42936 8.97586 5.21239C9.08108 4.70804 8.7654 4.13165 8.55494 3.84345C8.13402 3.41116 8.23925 2.69066 8.34448 2.54657C8.87063 2.18632 8.44971 1.82607 8.23925 1.68115C7.18575 0.960656 6.13347 1.3209 5.81778 1.68115C4.76549 0.384262 3.60797 0.0960656 2.97539 0.240164C2.02833 -0.26418 0.660354 0.0960656 0.660354 0.672459C0.0289806 0.960656 -0.391935 1.10475 0.555125 2.25837C0.344667 4.63599 0.765583 5.35731 3.08183 6.6542C2.34402 7.15854 2.02833 8.16723 2.6597 8.9606C2.44924 10.1142 3.39631 11.267 4.55503 11.8434C4.87072 13.5005 7.18576 14.438 8.7654 14.6541C9.81769 15.7349 11.2909 16.2392 12.7653 16.3113C12.8705 16.8156 13.081 17.2479 13.5019 17.6802C13.1862 18.6168 13.1862 19.4823 13.6071 20.2748C12.5548 21.0673 12.1339 22.293 12.6601 23.5178C11.3973 24.5265 10.9752 26.1845 11.8182 27.5534C11.8182 27.5534 11.5026 27.9145 11.2921 28.2739C10.4503 28.5629 9.60844 29.2114 9.18752 30.076C8.76661 30.7244 8.97707 31.589 9.18752 32.3103C7.81955 33.1029 6.97651 35.1211 9.39798 36.7062C8.87184 37.8606 7.71432 38.8685 6.34634 40.0941C5.39928 40.9587 5.18762 41.391 6.34634 42.4005C7.18817 43.1931 8.76661 43.8415 10.1358 43.8415C12.6613 43.9136 14.4514 43.5525 14.6618 42.2556C14.8723 41.5351 14.1357 40.0221 14.1357 39.661C14.0305 39.3008 14.2409 38.7244 14.7671 37.7869C17.0833 37.4267 18.2408 36.2739 18.4501 35.1203C20.135 34.4718 21.3977 33.102 20.7663 31.5882C21.082 31.372 21.1872 31.1567 21.3977 30.7956C21.3977 31.4441 22.0291 31.8772 22.3448 32.3095C21.3977 33.9666 22.6604 35.4805 24.1337 36.1289C21.6069 38.6515 24.3441 39.8763 25.0807 40.3807C26.0278 40.9571 26.133 42.0386 27.6062 42.3997C28.869 42.6879 32.8701 42.3997 33.6055 41.2461C33.8159 40.9571 34.0264 40.5976 33.8159 40.3807C33.8159 39.5161 33.0793 38.9397 31.7101 38.3625C30.1305 37.7861 30.1305 37.931 29.3939 36.3443C31.8154 35.5517 32.2363 33.6776 32.1311 32.9571C33.8159 31.5153 33.7107 30.2896 32.7624 29.4971C33.0781 28.8487 32.9729 28.3435 32.7624 27.84C34.2356 26.9746 34.867 25.6777 34.3409 24.3079C35.1827 23.4433 35.3931 22.5067 35.0775 21.4251C35.8141 22.2185 36.9716 22.5067 38.2355 22.5067C38.2355 22.5067 38.3408 22.722 38.446 22.8669C38.0251 23.3704 38.2355 23.9485 39.1826 24.38C39.2878 24.669 39.4983 24.8123 39.7087 24.9563C39.7087 25.1725 40.5506 26.11 41.4976 25.6048C41.6029 25.6048 42.6564 25.1004 42.6564 25.1004C43.6058 25.6081 45.7104 25.1758 45.5012 24.2392Z" fill="#040506"/>
<path fill-rule="evenodd" clip-rule="evenodd" d="M35.7113 19.4827C38.342 19.3386 40.8687 17.3204 38.4484 15.7354C38.1328 16.0956 37.3949 16.4558 36.8688 16.5999C36.7636 17.3925 36.027 18.0409 35.606 18.402C35.606 18.6902 35.7113 19.4107 35.7113 19.4827Z" fill="white"/>
<path fill-rule="evenodd" clip-rule="evenodd" d="M40.0268 17.9688C39.3954 19.1224 37.7106 19.7708 35.7112 19.987C35.3955 20.9236 37.1844 22.3654 39.9216 21.5008C41.9221 20.9236 42.6587 18.7613 40.0268 17.9688Z" fill="white"/>
<path fill-rule="evenodd" clip-rule="evenodd" d="M39.2904 23.0857C39.0799 23.2298 39.0799 23.5901 39.3956 23.807C39.3956 23.7342 39.6061 23.3027 39.7113 23.1586C39.6061 23.0145 39.3956 23.0145 39.2904 23.0857Z" fill="white"/>
<path fill-rule="evenodd" clip-rule="evenodd" d="M40.9741 23.951C40.8688 23.734 40.9741 23.4467 40.4479 23.3738C39.9218 23.2297 39.9218 24.3833 40.2375 24.3113C40.4479 24.1672 40.6584 24.0222 40.9741 23.951Z" fill="white"/>
<path fill-rule="evenodd" clip-rule="evenodd" d="M41.7117 24.0947C40.9751 24.2388 40.449 24.5991 40.7647 24.8873C40.8699 25.0314 40.9751 25.0314 41.3961 24.8152C41.6065 24.7432 42.0274 24.5262 42.1327 24.4541C42.0274 24.2388 41.7117 24.0947 41.7117 24.0947Z" fill="white"/>
<path fill-rule="evenodd" clip-rule="evenodd" d="M42.3431 21.8608C42.1327 21.7887 41.7118 21.5726 41.5013 21.3564C40.9752 21.7167 39.8177 22.1498 39.2903 22.221C39.3955 22.221 39.5008 22.5813 39.606 22.7246C39.8164 22.7246 40.0269 22.8695 40.2374 23.0136C40.4478 22.9415 41.1844 23.0136 41.3961 23.5179C41.7118 23.662 42.3431 23.8782 42.5536 24.0214C43.3954 24.7428 44.028 24.6707 44.2385 24.5258C44.9751 24.1655 43.9228 23.8061 43.3966 23.3009C43.081 23.084 42.2391 22.2914 42.2391 22.0753C42.2391 22.0032 42.4496 22.0753 42.66 22.2194C42.66 22.2914 43.8176 23.2281 44.4489 23.5883C43.9216 22.3651 42.3431 21.8608 42.3431 21.8608Z" fill="white"/>
<path fill-rule="evenodd" clip-rule="evenodd" d="M25.7121 20.2033C35.7124 20.1313 36.9752 16.0957 35.6072 14.5098C32.5543 16.6721 22.3447 17.8969 17.2913 15.1582C16.3443 15.8787 15.0803 16.0948 14.028 16.2389C14.3437 18.2572 19.7116 20.2754 25.7121 20.2033Z" fill="white"/>
<path fill-rule="evenodd" clip-rule="evenodd" d="M18.975 11.627C19.1855 12.996 18.3437 14.2216 17.9215 14.6539C18.8686 15.1583 20.7639 16.0949 25.0795 16.167C31.6061 16.239 38.5524 14.0775 34.6578 10.4014C32.9753 11.9152 24.6598 13.2121 18.975 11.627Z" fill="white"/>
<path fill-rule="evenodd" clip-rule="evenodd" d="M10.3439 11.1945C11.9223 10.1858 12.0288 8.8881 11.291 7.95146C11.0817 7.80654 10.87 7.59122 10.5556 7.44629C10.2399 9.3204 6.3452 10.7614 3.8185 9.53654C4.76556 12.2032 8.66024 12.2752 10.3439 11.1945Z" fill="white"/>
<path fill-rule="evenodd" clip-rule="evenodd" d="M13.502 12.9965C15.8183 11.1953 13.502 8.4566 12.4497 8.3125C13.1863 10.9791 9.29165 13.0694 5.81789 12.0599C6.65972 13.717 10.7649 15.0868 13.502 12.9965Z" fill="white"/>
<path fill-rule="evenodd" clip-rule="evenodd" d="M10.3438 14.6544C12.3432 16.0954 17.7123 16.0233 18.0279 12.6362C18.2384 10.3298 16.7652 9.03288 14.4489 8.60059C17.1861 12.1318 13.9228 14.5815 10.3438 14.6544Z" fill="white"/>
<path fill-rule="evenodd" clip-rule="evenodd" d="M14.5542 18.2578C13.6072 22.1501 21.1849 23.3741 25.7121 23.3029C33.3963 23.0859 35.0799 20.5642 34.659 19.0504C29.8173 21.645 19.5024 21.3568 14.5542 18.2578Z" fill="white"/>
<path fill-rule="evenodd" clip-rule="evenodd" d="M18.449 26.4724C22.5541 27.0488 25.8174 25.752 25.8174 23.8778C23.8181 23.8778 17.3967 23.8066 14.3451 20.9238C12.2393 22.942 14.766 25.752 18.449 26.4724Z" fill="white"/>
<path fill-rule="evenodd" clip-rule="evenodd" d="M24.0272 26.5457C20.3429 27.8425 15.2907 26.9059 13.3966 24.2393C10.6595 27.1941 15.1855 29.8608 18.554 29.7167C22.6592 29.5717 23.8167 27.7705 24.0272 26.5457Z" fill="white"/>
<path fill-rule="evenodd" clip-rule="evenodd" d="M12.6601 28.1309C11.3973 29.7168 12.9757 31.446 14.6594 31.8782C18.2384 32.8149 20.6587 31.2298 20.4494 30.0762C17.607 30.5093 14.6594 29.9329 12.6601 28.1309Z" fill="white"/>
<path fill-rule="evenodd" clip-rule="evenodd" d="M9.81774 32.96C8.13287 33.8966 9.2916 36.4192 11.8171 36.9955C15.3961 37.861 16.9745 36.203 17.185 35.3376C16.2391 35.4825 12.134 36.0589 9.81774 32.96Z" fill="white"/>
<path fill-rule="evenodd" clip-rule="evenodd" d="M14.449 32.3111C12.5548 31.6626 11.3961 30.6531 11.2909 29.2842C8.55372 31.1583 10.87 34.1123 13.3967 34.6887C18.4489 35.9135 20.2378 32.9595 19.8168 32.0941C17.8175 33.0316 15.396 32.6713 14.449 32.3111Z" fill="white"/>
<path fill-rule="evenodd" clip-rule="evenodd" d="M32.5545 40.8877L32.765 40.9597C32.344 41.5361 29.2912 42.0413 28.0272 41.6802C26.554 41.1767 26.8685 40.5995 25.9214 40.0231C23.8169 38.6541 24.1326 38.0769 24.4482 37.3564C24.5535 36.9953 24.7639 36.78 25.1848 36.4189C26.658 36.78 27.2894 36.7071 28.5534 36.491C28.5534 36.563 28.5534 36.78 28.6586 36.8521C27.7115 36.9241 26.8697 37.0682 26.8697 37.0682L27.1854 37.5726C27.1854 37.5726 27.922 37.4285 28.8703 37.3564C28.8703 37.3564 28.9755 37.7167 29.0807 37.8608C28.2389 37.8608 27.5023 38.0769 27.5023 38.0769L27.7128 38.5092C27.7128 38.5092 28.8715 38.2922 29.7121 38.3643C30.5539 38.8686 33.9225 39.4458 32.2388 40.6707C31.6074 41.103 30.0278 41.2471 28.765 41.2471V41.3912C28.9755 41.6081 31.2905 41.6802 32.5545 40.8877Z" fill="white"/>
<path fill-rule="evenodd" clip-rule="evenodd" d="M30.9748 33.4642C30.133 33.8965 28.8702 34.2576 27.397 34.1856C25.6081 34.1856 24.3442 33.6812 23.2919 32.8887C22.6605 35.0501 24.6599 36.0588 26.8697 36.1317C30.8696 36.275 30.9748 33.7524 30.9748 33.4642Z" fill="white"/>
<path fill-rule="evenodd" clip-rule="evenodd" d="M27.2905 33.6799C31.6061 33.7519 32.87 31.3014 32.0282 30.2198C29.6067 32.238 24.0284 31.8058 22.8709 29.2832C21.3964 31.0861 23.8167 33.6799 27.2905 33.6799Z" fill="white"/>
<path fill-rule="evenodd" clip-rule="evenodd" d="M27.9218 31.0145C30.0264 31.0145 32.3427 30.005 31.8165 28.2029C29.395 29.2845 26.3422 29.2124 24.2376 28.1309C24.0272 28.347 23.7115 28.7073 23.501 28.8514C23.8167 30.2211 25.8173 31.0145 27.9218 31.0145Z" fill="white"/>
<path fill-rule="evenodd" clip-rule="evenodd" d="M25.2912 25.9692C25.186 26.0412 25.0807 26.1133 24.9755 26.1133C24.9755 26.6176 24.7651 27.2669 24.5546 27.6984C27.5022 29.4284 33.7131 28.3468 33.2922 24.8164C31.1852 26.2574 27.8167 26.6176 25.2912 25.9692Z" fill="white"/>
<path fill-rule="evenodd" clip-rule="evenodd" d="M26.6593 23.8779C26.6593 24.5264 26.3436 25.1028 25.8174 25.608C29.6069 26.4005 34.3434 25.0316 34.1329 21.9326C32.8702 22.7252 30.554 23.7347 26.6593 23.8779Z" fill="white"/>
<path fill-rule="evenodd" clip-rule="evenodd" d="M7.60789 9.24891C10.4503 8.38432 10.2398 6.36611 8.55495 5.86177C8.13404 6.14996 8.23927 6.79841 8.23927 6.9425C8.23927 7.2307 7.50267 7.44685 7.39744 7.30275C7.18577 7.0866 7.81835 6.87045 7.50267 6.36611C7.29221 5.93382 8.02881 5.71767 8.02881 4.99718C8.02881 4.56488 7.50267 3.91561 7.50267 3.77234C7.18577 3.33922 7.18577 2.54668 7.60789 2.18643C7.29221 1.97028 6.87129 1.75413 6.5556 2.18643C6.02946 2.69077 6.23992 3.33922 6.5556 3.84356C6.5556 3.91561 6.02946 3.84356 5.819 4.41995L5.60734 4.6361H5.39688C5.29165 4.20381 5.50211 3.98766 5.71256 3.69946C5.60734 3.62741 5.39688 3.26717 5.39688 2.61872C4.97596 1.75331 4.0289 0.960765 3.39753 0.888716C3.92367 1.46511 4.87194 2.68995 4.97717 2.83487C5.18642 3.19512 4.7655 3.26717 4.7655 3.26717C4.0289 2.25848 3.2923 1.32101 2.65972 0.888716C2.2388 0.672569 1.81789 0.52847 1.60743 0.744618C1.81789 0.744618 2.02834 0.888716 2.2388 1.03281C2.87017 1.60921 4.23936 3.48331 4.23936 3.48331C4.23936 3.48331 4.13413 3.55536 3.92367 3.55536C3.71322 3.55536 3.50276 3.26717 3.18707 2.76282C2.76495 2.3297 2.13357 1.60921 1.81789 1.39306C1.5022 1.10486 1.29174 1.17691 1.08128 1.32101C1.29174 1.53716 1.5022 1.82536 1.5022 2.0415C2.02834 1.8974 2.65972 2.25765 2.76495 2.6179C2.76495 2.90609 2.9754 3.84273 3.2923 4.13176C3.18707 4.13176 2.87138 4.27586 2.87138 4.27586C2.55449 4.05971 2.34403 3.05102 2.2388 2.69077C2.2388 2.54668 2.13357 2.40258 1.81789 2.33053C1.60743 2.33053 1.60743 2.40258 1.60743 2.47463C1.39697 4.49283 1.60743 4.99718 4.23936 6.36611C4.44982 6.43816 4.66028 6.72636 4.87073 7.01455C5.08119 7.2307 5.39688 7.59095 6.02825 7.5189L6.23871 7.663C5.71256 8.02324 4.87073 7.8071 4.66028 7.663C4.55505 7.5189 4.13413 7.0866 4.13413 7.0866C2.2388 8.38432 4.7655 10.1855 7.60789 9.24891Z" fill="white"/>
<path fill-rule="evenodd" clip-rule="evenodd" d="M10.5556 37.1396C9.50208 38.7256 8.4498 39.446 7.29228 40.5997C6.45045 41.3202 6.76613 41.6804 7.29228 42.1847C8.34457 42.9773 10.1347 43.4096 11.5026 43.1222V43.0502C9.81777 43.1222 8.4498 42.6891 7.71319 41.9686L7.81842 41.8966C9.71254 42.9052 12.2392 42.617 13.1863 42.2568C13.502 42.1847 13.6072 41.9686 13.6072 41.7533C13.502 41.1769 13.0811 40.2394 12.9758 39.7342C12.8706 39.374 13.0811 38.5815 13.6072 37.716C12.7654 37.7881 11.0817 37.6448 10.5556 37.1396Z" fill="white"/>
<path fill-rule="evenodd" clip-rule="evenodd" d="M35.0799 9.75293C36.4478 10.4014 36.6595 11.6991 36.6595 12.2034C38.0275 10.4014 36.0281 9.32064 34.9746 9.10449C35.1851 9.39269 35.1851 9.68089 35.0799 9.75293Z" fill="white"/>
<path fill-rule="evenodd" clip-rule="evenodd" d="M37.0805 15.6627C39.7113 14.6541 38.0276 12.4918 37.6067 12.3477C37.5015 12.5638 37.1858 13.141 36.2387 13.8615C36.7649 14.293 37.0805 14.9414 37.0805 15.6627Z" fill="white"/>
<path fill-rule="evenodd" clip-rule="evenodd" d="M18.7647 10.978C20.6588 11.5544 22.6594 11.7714 24.6599 11.7714C30.133 11.7714 33.9225 10.6898 34.2382 9.60905C34.4486 8.67241 31.9219 8.09519 29.2912 7.95192C28.8703 8.24011 28.3441 8.38421 28.1325 8.38421C28.0272 8.38421 27.8168 8.31216 28.0272 8.24011C28.4482 8.09601 28.8691 7.80782 28.4482 7.30347C28.7638 7.30347 29.7109 7.01528 29.8161 5.86166C29.8161 4.92502 29.1848 4.34863 28.5534 4.06043C28.5534 4.06043 28.3429 3.91633 28.5534 3.91633C28.7638 2.76355 27.6063 1.82691 25.6058 1.53788V1.39296C25.711 1.39296 25.711 1.32091 25.711 1.32091C25.6058 1.03271 24.1326 0.888611 23.5 1.24886C23.3947 1.32091 23.8157 1.465 23.9209 1.465C24.1313 1.465 24.2366 1.6091 24.0261 1.6091C22.7634 1.53705 20.6576 2.25755 20.6576 4.2037C20.7628 4.2037 21.3942 4.13165 21.6046 4.13165C21.8151 4.2037 21.7099 4.3478 21.6046 4.3478C19.6053 4.41985 18.8675 6.79747 21.4994 7.59084C21.4994 7.59084 21.7099 7.66289 21.4994 7.73494C21.1837 7.87904 20.9733 8.16724 21.3942 8.38338C21.6046 8.38338 21.7099 8.52748 21.6046 8.59953C21.6046 8.74363 21.289 8.74363 21.0785 8.59953C19.7105 8.16724 18.1309 8.38338 16.8681 8.67158C17.8176 9.17675 18.449 10.0413 18.7647 10.978Z" fill="white"/>
<path fill-rule="evenodd" clip-rule="evenodd" d="M5.08121 4.92427C4.97598 4.99714 4.66029 4.78017 4.3446 4.63607C4.02892 4.56402 3.608 4.56402 3.608 4.49197C3.608 4.49197 3.92369 4.41992 4.23938 4.41992C4.44983 4.41992 4.66029 4.49197 4.87075 4.49197C4.97598 4.63607 5.18644 4.85222 5.08121 4.92427Z" fill="#040506"/>
<path fill-rule="evenodd" clip-rule="evenodd" d="M12.0289 39.7342C11.3975 39.5901 10.4492 39.518 9.92307 39.518V39.0137C10.5544 39.0857 11.5027 39.1578 12.2393 39.3027L12.0289 39.7342Z" fill="#040506"/>
<path fill-rule="evenodd" clip-rule="evenodd" d="M12.4497 38.7976C11.5026 38.5815 11.2909 38.5815 10.2386 38.5094V38.0771C11.3962 38.0771 11.7119 38.0771 12.6589 38.2933L12.4497 38.7976Z" fill="#040506"/>
<path fill-rule="evenodd" clip-rule="evenodd" d="M27.3958 5.93338C27.2905 5.93338 27.1853 5.93338 27.0801 6.00543C25.186 5.78928 24.6598 6.07748 23.6063 6.07748C23.6063 6.00543 23.6063 5.86133 23.3959 5.86133C23.3959 5.93338 23.2906 6.00543 23.2906 6.00543C22.9749 6.29362 22.8697 6.43772 22.9749 6.50977C23.0802 6.58182 23.2906 6.43772 23.3959 6.36567C23.5011 6.36567 23.922 6.36567 24.3429 6.50977C24.6586 6.65387 25.29 7.23026 25.9214 7.01412C26.4475 6.87002 26.8684 6.29362 27.1841 6.29362C27.3946 6.29362 27.605 6.36567 27.605 6.29362C27.7115 6.29362 27.501 5.86133 27.3958 5.93338ZM25.9226 6.79797C25.2912 6.94207 24.9743 6.43772 24.4481 6.29362C24.9743 6.22157 25.9214 6.14952 26.7644 6.22157C26.5539 6.29362 26.0278 6.72592 25.9226 6.79797Z" fill="#040506"/>
<path fill-rule="evenodd" clip-rule="evenodd" d="M26.6593 2.61816C26.0279 2.69021 25.607 3.26661 25.607 3.9871C25.7122 4.41939 25.9227 4.85169 26.3436 5.06866C26.5541 5.14071 26.7645 5.21276 26.975 5.21276C27.6064 5.14071 28.1325 4.56432 28.0273 3.84383C28.0273 3.41153 27.7116 2.97924 27.3959 2.83514C27.1854 2.69021 26.975 2.61816 26.6593 2.61816Z" fill="#040506"/>
<path fill-rule="evenodd" clip-rule="evenodd" d="M27.5011 4.63641C27.6063 4.49231 27.7115 4.20411 27.7115 3.84387C27.6063 3.48362 27.5011 3.19542 27.1854 2.97928C27.0802 2.90723 26.8697 2.90723 26.7645 2.90723C26.2383 2.90723 25.9226 3.41157 26.0279 3.98796C26.0279 4.06001 26.0279 4.06001 26.0279 4.13206C26.1331 3.77182 26.3436 3.48362 26.7645 3.41157C27.1854 3.41157 27.5011 3.77182 27.5011 4.20411C27.5011 4.34821 27.5011 4.49231 27.5011 4.63641Z" fill="white"/>
<path fill-rule="evenodd" clip-rule="evenodd" d="M23.7115 2.69043C23.0801 2.76248 22.5528 3.33887 22.5528 4.06019C22.5528 4.49249 22.7632 4.85273 23.1842 5.14093C23.3946 5.21298 23.6051 5.28503 23.9208 5.28503C24.5521 5.28503 25.0795 4.63659 25.0795 3.91609C25.0795 3.4838 24.869 3.12355 24.4481 2.90741C24.2389 2.76248 24.0272 2.69043 23.7115 2.69043Z" fill="#040506"/>
<path fill-rule="evenodd" clip-rule="evenodd" d="M24.5535 4.56414C24.6587 4.348 24.7639 4.13185 24.7639 3.9157C24.6599 3.55546 24.5535 3.26726 24.239 3.05111C24.1337 2.97906 23.9233 2.90701 23.7128 2.97906C23.2919 2.97906 22.871 3.48341 22.871 4.06063C22.871 4.27678 22.9762 4.49292 23.1867 4.63702C23.1867 4.70907 23.1867 4.70907 23.1867 4.70907V4.63619C23.0815 4.56414 23.0815 4.4921 23.0815 4.348C23.0815 3.9157 23.3971 3.55463 23.8181 3.55463C24.239 3.55463 24.5535 3.9157 24.5535 4.348C24.5535 4.42005 24.5535 4.4921 24.5535 4.56414Z" fill="white"/>
</svg>
