<svg width="18" height="18" viewBox="0 0 18 18" fill="none" xmlns="http://www.w3.org/2000/svg">
<path d="M16.5656 13.2188L13.6406 11.3063C13.3474 11.1205 12.9938 11.0548 12.6533 11.1229C12.3129 11.191 12.0117 11.3876 11.8125 11.6719C11.1375 12.4876 10.3219 13.8376 7.25625 10.7719C4.19062 7.7063 5.5125 6.86255 6.32812 6.18755C6.61245 5.98831 6.80909 5.68718 6.87718 5.34674C6.94527 5.00629 6.87957 4.6527 6.69375 4.35943L4.78125 1.43443C4.52813 1.0688 4.19063 0.478178 3.40313 0.590678C2.61563 0.703178 0.5625 1.8563 0.5625 4.38755C0.5625 6.9188 2.55937 10.0126 5.2875 12.7407C8.01562 15.4688 11.1094 17.4376 13.6125 17.4376C16.1156 17.4376 17.325 15.1876 17.4094 14.6251C17.4938 14.0626 16.9313 13.4719 16.5656 13.2188Z" stroke="white" stroke-miterlimit="10" stroke-linecap="round" stroke-linejoin="round"/>
</svg>
