<svg width="150" height="150" viewBox="0 0 150 150" fill="none" xmlns="http://www.w3.org/2000/svg">
<path d="M64.321 150L59.3185 149.028C58.3075 148.831 57.5735 148.398 57.1166 147.727C56.648 147.053 56.5078 146.248 56.6959 145.31C56.7854 144.864 56.925 144.499 57.1148 144.215C57.3046 143.931 57.5189 143.705 57.7577 143.538C57.9943 143.382 58.2391 143.275 58.4921 143.217C58.7429 143.171 58.9705 143.15 59.1749 143.154L59.1956 143.051C58.9771 142.996 58.7445 142.892 58.4979 142.737C58.2397 142.58 58.0115 142.363 57.8133 142.087C57.6129 141.822 57.4669 141.497 57.3754 141.111C57.2699 140.734 57.2665 140.299 57.3651 139.808C57.4638 139.316 57.6369 138.874 57.8845 138.483C58.1204 138.089 58.4088 137.765 58.7497 137.51C59.0905 137.255 59.471 137.074 59.8912 136.965C60.3091 136.868 60.7446 136.864 61.1978 136.952L66.7233 138.026L64.321 150ZM65.0044 139.011L61.3963 138.31C60.7688 138.188 60.244 138.246 59.8218 138.485C59.3973 138.735 59.1243 139.163 59.0027 139.769L58.8857 140.353C58.7641 140.959 58.8524 141.451 59.1507 141.83C59.4467 142.22 59.9084 142.476 60.5359 142.598L64.144 143.299L65.0044 139.011ZM63.8962 144.535L60.5321 143.881C59.9511 143.768 59.4693 143.823 59.0865 144.046C58.7038 144.268 58.4585 144.648 58.3507 145.186L58.2337 145.769C58.1258 146.307 58.2059 146.75 58.4739 147.099C58.7419 147.448 59.1664 147.679 59.7475 147.792L63.1115 148.446L63.8962 144.535Z" fill="white"/>
<path d="M48.0581 132.479C48.6414 132.737 49.1192 133.07 49.4914 133.478C49.8636 133.885 50.1268 134.347 50.2808 134.862C50.424 135.373 50.4606 135.932 50.3906 136.541C50.3097 137.144 50.1187 137.775 49.8175 138.434C49.5163 139.093 49.1632 139.653 48.7583 140.113C48.3426 140.568 47.893 140.912 47.4097 141.146C46.9156 141.374 46.3902 141.487 45.8334 141.483C45.2766 141.48 44.7065 141.349 44.1231 141.091C43.2913 140.723 42.7096 140.248 42.3778 139.666C42.0304 139.091 41.8636 138.461 41.8775 137.777L43.2109 137.715C43.1678 138.207 43.2657 138.647 43.5045 139.034C43.7433 139.421 44.122 139.729 44.6405 139.958C45.0294 140.131 45.3988 140.217 45.7488 140.219C46.0939 140.231 46.4147 140.168 46.7112 140.031C47.0028 139.905 47.2676 139.709 47.5057 139.443C47.739 139.189 47.9382 138.881 48.1033 138.519L48.7446 137.116C49.0749 136.393 49.1525 135.711 48.9774 135.071C48.7866 134.437 48.3077 133.951 47.5407 133.611C46.4929 133.147 45.5181 133.291 44.6164 134.042L43.9607 133.004C44.5028 132.529 45.1241 132.235 45.8246 132.123C46.5142 132.006 47.2587 132.125 48.0581 132.479Z" fill="white"/>
<path d="M38.8374 129.343L38.0196 128.756L36.7497 129.488C36.4629 129.658 36.1975 129.748 35.9537 129.761C35.7028 129.783 35.4713 129.739 35.259 129.63L35.2171 129.686C35.8352 130.217 36.1754 130.786 36.2378 131.394C36.3002 132.002 36.1008 132.616 35.6398 133.238C35.1159 133.944 34.492 134.34 33.7682 134.426C33.0373 134.521 32.2941 134.298 31.5384 133.754L28.267 131.403L33.6738 124.116L34.8216 124.941L32.747 127.737L34.6696 129.119L36.7752 127.883C37.2407 127.611 37.6311 127.48 37.9463 127.49C38.245 127.503 38.5235 127.602 38.7817 127.788L39.5709 128.355L38.8374 129.343ZM32.0344 128.698L30.1484 131.24L32.0997 132.642C32.5302 132.951 32.9243 133.112 33.2822 133.124C33.6401 133.136 33.9588 132.953 34.2382 132.577L34.584 132.111C34.8634 131.734 34.9429 131.38 34.8225 131.048C34.6951 130.726 34.4162 130.41 33.9858 130.1L32.0344 128.698Z" fill="white"/>
<path d="M15.061 118.109L11.046 112.274L18.6368 107.215L19.4338 108.373L12.8728 112.746L15.2937 116.264L21.8547 111.891L22.6518 113.049L15.061 118.109Z" fill="white"/>
<path d="M6.60563 104.087L6.08619 102.785L7.47538 102.248L7.44941 102.183C6.82259 102.175 6.30015 102.014 5.88208 101.699C5.44865 101.378 5.11506 100.925 4.88131 100.339C4.67353 99.818 4.58997 99.3055 4.63064 98.8014C4.6713 98.2972 4.82614 97.8241 5.09515 97.382C5.35983 96.9291 5.7375 96.5201 6.22817 96.1552C6.7145 95.7794 7.29946 95.4595 7.98303 95.1953C8.6666 94.9312 9.31648 94.774 9.93268 94.7237C10.5445 94.6626 11.104 94.7094 11.6111 94.8642C12.1139 95.008 12.5544 95.2511 12.9327 95.5933C13.311 95.9356 13.604 96.3671 13.8118 96.888C14.2663 98.0274 14.0639 99.0511 13.2046 99.9593L13.2306 100.024L17.9274 98.2095L18.4468 99.5116L6.60563 104.087ZM12.7639 97.7062C12.4696 96.9683 12.0065 96.4773 11.3746 96.233C10.7317 95.993 10.0298 96.02 9.2691 96.3139L7.81376 96.8763C7.05301 97.1703 6.52551 97.6183 6.23127 98.2204C5.926 98.8268 5.92054 99.499 6.21489 100.237C6.33177 100.53 6.48841 100.795 6.68483 101.032C6.8659 101.263 7.06706 101.448 7.2883 101.588C7.50955 101.728 7.74872 101.817 8.00582 101.855C8.24756 101.887 8.4842 101.858 8.71573 101.769L11.891 100.542C12.1667 100.436 12.3931 100.285 12.5703 100.092C12.7322 99.8914 12.8513 99.6637 12.9278 99.4088C12.9932 99.1581 13.0125 98.8876 12.9858 98.5973C12.9548 98.2962 12.8808 97.9992 12.7639 97.7062Z" fill="white"/>
<path d="M10.2251 83.8045C10.319 84.4036 10.2935 84.9677 10.1487 85.4969C10.0038 86.0261 9.75454 86.5003 9.40077 86.9196C9.03348 87.3292 8.57837 87.6755 8.03544 87.9584C7.4808 88.243 6.84059 88.4404 6.1148 88.5506C5.40071 88.6589 4.73567 88.6596 4.11967 88.5525C3.50367 88.4454 2.96374 88.2502 2.49988 87.9667C2.0225 87.6735 1.63381 87.296 1.33378 86.8344C1.03376 86.3727 0.836824 85.8423 0.742979 85.2432C0.649134 84.6441 0.675522 84.0857 0.822145 83.5681C0.966962 83.0389 1.22211 82.5637 1.58759 82.1426C1.94137 81.7233 2.39558 81.3713 2.95021 81.0866C3.50485 80.802 4.13921 80.6054 4.8533 80.4971C5.57909 80.387 6.24999 80.3854 6.86598 80.4925C7.47027 80.6013 8.01111 80.8023 8.48848 81.0956C8.95415 81.3906 9.337 81.7689 9.63702 82.2306C9.93524 82.6807 10.1313 83.2054 10.2251 83.8045ZM8.97839 83.9936C8.86108 83.2447 8.53131 82.6696 7.98906 82.2683C7.44681 81.867 6.69573 81.7391 5.73581 81.8848L4.4364 82.0819C3.47648 82.2276 2.79939 82.5721 2.40513 83.1155C2.01087 83.659 1.8724 84.3051 1.9897 85.054C2.10701 85.8029 2.43679 86.378 2.97903 86.7794C3.52128 87.1807 4.27237 87.3085 5.23229 87.1629L6.53169 86.9657C7.49161 86.8201 8.1687 86.4755 8.56296 85.9321C8.95722 85.3887 9.0957 84.7425 8.97839 83.9936Z" fill="white"/>
<path d="M7.75066 74.2217L7.8221 73.1924C7.25627 72.7922 6.53788 72.4517 5.66693 72.1712C4.79598 71.8906 3.78738 71.7118 2.64112 71.6348L0 71.4572L0.422557 65.3687L8.3282 65.9002L8.43232 64.3998L12.1547 64.6501L12.0663 65.9236L9.58473 65.7568L9.07985 73.0316L11.5614 73.1984L11.4731 74.472L7.75066 74.2217ZM8.23134 67.2958L1.56649 66.8477L1.33281 70.2148L2.80404 70.3137C4.0212 70.3955 5.05385 70.5701 5.90196 70.8374C6.73907 71.0923 7.41383 71.3772 7.92622 71.6921L8.23134 67.2958Z" fill="white"/>
<path d="M3.6103 50.9193L3.99326 49.5903L13.7445 56.5108C13.9775 56.6849 14.1649 56.8463 14.3068 56.9949C14.46 57.1467 14.5669 57.3099 14.6274 57.4843C14.688 57.6587 14.7087 57.8644 14.6897 58.1015C14.6738 58.3273 14.6207 58.5972 14.5302 58.9112L14.3314 59.601L13.1349 59.267L13.5276 57.9043L11.8365 56.7234L1.73909 57.4129L2.12691 56.0671L8.7276 55.6557L10.2797 55.6528L10.304 55.5686L9.00392 54.6968L3.6103 50.9193Z" fill="white"/>
<path d="M6.87363 42.6346L7.52746 41.3925L10.935 43.1299L11.7768 41.5307L10.1015 38.7072C9.97216 38.4968 9.87687 38.3103 9.81567 38.1479C9.74395 37.98 9.70378 37.8282 9.69516 37.6925C9.68655 37.5569 9.70169 37.4267 9.74059 37.3021C9.76897 37.1722 9.8213 37.0348 9.89758 36.8898L10.2817 36.1601L11.386 36.7232L10.8793 37.6858L12.2366 39.973C12.3297 40.1256 12.402 40.2543 12.4534 40.3593C12.5049 40.4643 12.5458 40.564 12.5762 40.6583C12.5961 40.7472 12.608 40.8386 12.6119 40.9325C12.6054 41.021 12.5906 41.1251 12.5677 41.2447L12.6308 41.2769C12.7767 41.0756 12.9484 40.9268 13.1458 40.8305C13.3382 40.7185 13.6384 40.655 14.0466 40.6399L16.9008 40.5395L17.383 39.6234L18.4873 40.1865L18.0133 41.087C17.8716 41.3561 17.6725 41.5697 17.4159 41.7277C17.1542 41.87 16.7796 41.9481 16.292 41.9621L12.8495 42.0777L12.0077 43.6769L15.6677 45.5431L15.0138 46.7852L6.87363 42.6346Z" fill="white"/>
<path d="M26.6352 29.566L21.9154 35.164L14.8603 29.4021L15.768 28.3256L21.866 33.3058L24.623 30.0359L18.525 25.0556L19.4326 23.9791L25.5306 28.9593L26.5063 27.8021L29.3776 30.147L28.5494 31.1293L26.6352 29.566Z" fill="white"/>
<path d="M26.1813 17.4975L27.2786 16.6645L30.382 20.6246L31.6149 22.427L31.6712 22.3843L31.378 20.1777L31.0209 13.8238L32.062 13.0336L37.661 20.1783L36.5636 21.0113L33.4603 17.0512L32.2273 15.2488L32.1711 15.2916L32.4643 17.4981L32.8214 23.852L31.7803 24.6422L26.1813 17.4975Z" fill="white"/>
<path d="M42.5036 15.7587L43.4188 15.3321L43.3707 13.8841C43.3567 13.5552 43.4023 13.2824 43.5077 13.0656C43.608 12.8383 43.7576 12.6589 43.9565 12.5275L43.926 12.4643C43.157 12.7454 42.4863 12.7678 41.9139 12.5316C41.3415 12.2953 40.888 11.8295 40.5534 11.1342C40.1731 10.344 40.1174 9.61541 40.3862 8.94837C40.6499 8.2708 41.2045 7.73491 42.0502 7.34071L45.7112 5.63417L49.6354 13.7887L48.3508 14.3875L46.845 11.2584L44.6934 12.2614L44.7921 14.6726C44.8124 15.2049 44.7428 15.605 44.5833 15.8728C44.4295 16.1251 44.2081 16.3186 43.9191 16.4533L43.0359 16.865L42.5036 15.7587ZM46.3279 10.1838L44.959 7.33919L42.7752 8.35713C42.2935 8.58167 41.962 8.84587 41.7805 9.14972C41.5991 9.45358 41.6098 9.81622 41.8126 10.2376L42.0636 10.7592C42.2664 11.1806 42.5447 11.4185 42.8985 11.4728C43.2472 11.5166 43.6624 11.4263 44.1441 11.2017L46.3279 10.1838Z" fill="white"/>
<path d="M68.2111 9.42171C67.575 9.4871 66.992 9.43569 66.462 9.26748C65.9321 9.09926 65.4688 8.83041 65.0724 8.46094C64.6877 8.09026 64.3703 7.62474 64.1203 7.0644C63.8821 6.50284 63.7248 5.86264 63.6485 5.14378C63.5722 4.42493 63.5917 3.76655 63.7068 3.16867C63.8338 2.56957 64.0466 2.04955 64.3451 1.60863C64.6555 1.16649 65.0522 0.809236 65.5354 0.536865C66.0186 0.264495 66.5783 0.0956103 67.2144 0.0302121C68.1215 -0.0630409 68.867 0.0595831 69.4507 0.398084C70.045 0.72378 70.5108 1.18575 70.8482 1.784L69.7271 2.49702C69.5129 2.0502 69.2038 1.71863 68.7998 1.50231C68.3957 1.28598 67.9109 1.20689 67.3455 1.26502C66.9214 1.30862 66.5577 1.41633 66.2544 1.58817C65.9498 1.7484 65.7045 1.96116 65.5182 2.22645C65.3308 2.48013 65.2019 2.78055 65.1316 3.12769C65.06 3.46323 65.0451 3.82811 65.087 4.22232L65.2494 5.75278C65.3331 6.54121 65.614 7.1687 66.0923 7.63525C66.5811 8.089 67.2437 8.27288 68.0801 8.1869C69.2228 8.06942 69.9921 7.4629 70.3879 6.36732L71.4848 6.94023C71.2592 7.6198 70.8722 8.18117 70.3237 8.62434C69.7871 9.0663 69.0829 9.33209 68.2111 9.42171Z" fill="white"/>
<path d="M81.8733 9.43256C81.2489 9.36837 80.6952 9.20009 80.212 8.92772C79.7406 8.65656 79.3438 8.29931 79.0217 7.85596C78.7126 7.40223 78.488 6.881 78.3481 6.29229C78.2211 5.69319 78.1957 5.03421 78.272 4.31536C78.3471 3.6081 78.5096 2.97429 78.7597 2.41395C79.0215 1.85482 79.3506 1.39051 79.7471 1.02104C80.1566 0.641184 80.6204 0.366541 81.1386 0.197112C81.6685 0.0288942 82.2457 -0.0231211 82.87 0.041066C83.4826 0.104042 84.0187 0.270504 84.4783 0.540453C84.938 0.810401 85.3177 1.16004 85.6175 1.58937C85.9185 2.00711 86.1291 2.49174 86.2492 3.04325C86.3811 3.59597 86.4132 4.19117 86.3455 4.82887L86.2754 5.48975L79.7195 4.81579L79.6752 5.23319C79.6346 5.6158 79.6553 5.98129 79.7374 6.32964C79.8326 6.6676 79.9791 6.96983 80.1771 7.23633C80.3869 7.50403 80.6493 7.7244 80.9644 7.89745C81.2913 8.0717 81.6668 8.18063 82.0909 8.22423C82.6681 8.28357 83.1829 8.2017 83.6353 7.97863C84.0995 7.75677 84.4759 7.40867 84.7644 6.93433L85.696 7.75093C85.3362 8.33516 84.8239 8.78649 84.1589 9.10492C83.4952 9.41175 82.7333 9.52097 81.8733 9.43256ZM82.7464 1.20631C82.3576 1.16634 81.9968 1.19958 81.664 1.30601C81.3324 1.40085 81.0358 1.5579 80.7744 1.77716C80.5247 1.99763 80.3172 2.26933 80.152 2.59225C79.9879 2.90357 79.885 3.25633 79.8431 3.65055L79.8302 3.77229L84.8664 4.29002L84.8867 4.09871C84.9716 3.2987 84.8155 2.63799 84.4183 2.1166C84.0341 1.58482 83.4768 1.28139 82.7464 1.20631Z" fill="white"/>
<path d="M94.8529 2.38133L96.2027 2.81969L95.735 4.21456L95.8025 4.23648C96.2094 3.76709 96.6692 3.47449 97.182 3.35869C97.7097 3.23547 98.2773 3.27249 98.8847 3.46976C99.4246 3.6451 99.8786 3.90918 100.247 4.26198C100.615 4.61479 100.886 5.03424 101.06 5.52033C101.245 6.01008 101.323 6.55729 101.295 7.16195C101.278 7.77026 101.155 8.4176 100.925 9.10396C100.694 9.79032 100.402 10.3829 100.048 10.8816C99.7049 11.384 99.3109 11.7777 98.8661 12.0629C98.4325 12.3518 97.9611 12.5301 97.4519 12.598C96.9427 12.6658 96.4181 12.6121 95.8782 12.4368C94.6972 12.0532 94.0261 11.246 93.865 10.0152L93.7975 9.99329L92.2164 14.7093L90.8666 14.2709L94.8529 2.38133ZM95.9079 11.1206C96.6728 11.369 97.3525 11.332 97.9471 11.0095C98.5453 10.6759 98.9725 10.1272 99.2286 9.36336L99.7186 7.90208C99.9747 7.13822 99.9613 6.45258 99.6785 5.84516C99.3995 5.22666 98.8775 4.79321 98.1126 4.54481C97.8089 4.44617 97.5016 4.39548 97.1907 4.39271C96.8948 4.38253 96.6215 4.41652 96.3708 4.49468C96.12 4.57284 95.8976 4.697 95.7033 4.86715C95.524 5.02989 95.3954 5.2275 95.3175 5.45997L94.2485 8.64824C94.1557 8.925 94.1284 9.19235 94.1667 9.45028C94.2199 9.7008 94.3217 9.93643 94.4722 10.1572C94.6265 10.3668 94.8256 10.5543 95.0695 10.7194C95.3247 10.8882 95.6042 11.022 95.9079 11.1206Z" fill="white"/>
<path d="M111.23 10.4329L108.527 8.88532L109.153 7.82729L115.787 11.6258L115.162 12.6838L112.459 11.1363L108.474 17.8775L107.246 17.174L111.23 10.4329Z" fill="white"/>
<path d="M122.428 16.3719L123.456 17.2865L120.048 20.9964L118.466 22.511L118.518 22.5579L120.672 21.8816L126.962 20.4058L127.937 21.2736L121.789 27.9668L120.761 27.0522L124.169 23.3423L125.752 21.8277L125.699 21.7808L123.545 22.4571L117.255 23.9329L116.28 23.0651L122.428 16.3719Z" fill="white"/>
<path d="M129.872 36.2137L129.842 36.1703C129.415 36.1733 129.027 36.1081 128.678 35.9747C128.329 35.8413 128.028 35.5912 127.776 35.2244C127.198 34.3845 127.088 33.5495 127.447 32.7193C127.816 31.8825 128.682 31.01 130.045 30.1016C131.408 29.1932 132.548 28.7294 133.465 28.7101C134.391 28.6842 135.143 29.0912 135.721 29.9311C135.973 30.2979 136.097 30.6657 136.093 31.0343C136.089 31.4029 136.007 31.7818 135.845 32.1709L135.875 32.2143L139.524 29.7833L140.32 30.9418L136.672 33.3728L136.702 33.4162C137.129 33.4132 137.517 33.4784 137.866 33.6118C138.215 33.7452 138.516 33.9953 138.768 34.3621C139.346 35.202 139.45 36.0403 139.082 36.877C138.723 37.7073 137.862 38.5765 136.499 39.4849C135.135 40.3933 133.991 40.8604 133.064 40.8862C132.148 40.9056 131.401 40.4953 130.823 39.6554C130.571 39.2886 130.447 38.9208 130.451 38.5522C130.455 38.1836 130.537 37.8047 130.699 37.4156L130.669 37.3722L126.932 39.862L126.135 38.7036L129.872 36.2137ZM129.029 34.8325C129.647 35.7303 130.299 35.9505 130.986 35.493L134.781 32.964C135.468 32.5066 135.503 31.8289 134.885 30.9312C134.513 30.3906 134.068 30.1172 133.549 30.1111C133.039 30.0985 132.373 30.3667 131.549 30.9156L130.254 31.7782C129.43 32.3272 128.925 32.8399 128.738 33.3165C128.56 33.7866 128.658 34.2919 129.029 34.8325ZM131.659 38.6554C132.024 39.1863 132.461 39.4581 132.97 39.4707C133.496 39.4864 134.171 39.2198 134.995 38.6709L136.29 37.8083C137.114 37.2593 137.611 36.745 137.782 36.2653C137.969 35.7887 137.88 35.2849 137.514 34.754C136.897 33.8562 136.245 33.636 135.558 34.0935L131.762 36.6225C131.076 37.08 131.041 37.7576 131.659 38.6554Z" fill="white"/>
<path d="M143.97 44.4937L144.451 45.7728L139.685 47.5084L137.569 48.1297L137.594 48.1953L139.822 48.5773L146.091 50.1351L146.547 51.3487L137.949 54.48L137.468 53.2008L142.234 51.4652L144.349 50.844L144.324 50.7784L142.097 50.3963L135.828 48.8385L135.372 47.6249L143.97 44.4937Z" fill="white"/>
<path d="M140.678 68.5044L139.696 61.2946L148.782 60.0959L148.971 61.4824L141.117 62.5185L141.691 66.73L149.545 65.6939L149.733 67.0804L141.88 68.1165L142.083 69.607L138.385 70.0948L138.212 68.8297L140.678 68.5044Z" fill="white"/>
<path d="M150 76.357L149.878 77.7156L144.817 77.2765L142.634 76.9468L142.628 77.0165L144.475 78.3002L149.463 82.349L149.348 83.638L140.216 82.8458L140.337 81.4871L145.399 81.9262L147.581 82.256L147.587 82.1863L145.74 80.9026L140.752 76.8537L140.868 75.5648L150 76.357Z" fill="white"/>
<path d="M147.564 92.4851L147.132 93.8178L145.71 93.371L145.688 93.4376C146.169 93.8334 146.471 94.2831 146.593 94.7867C146.724 95.3049 146.692 95.8638 146.497 96.4635C146.324 96.9966 146.06 97.446 145.705 97.8117C145.35 98.1774 144.927 98.4481 144.435 98.6239C143.939 98.8107 143.384 98.8932 142.769 98.8714C142.151 98.8607 141.492 98.7454 140.792 98.5255C140.093 98.3057 139.488 98.0238 138.978 97.6799C138.464 97.3472 138.06 96.9633 137.766 96.5282C137.468 96.1043 137.283 95.642 137.209 95.1416C137.135 94.6411 137.185 94.1243 137.357 93.5913C137.736 92.4253 138.549 91.757 139.798 91.5866L139.82 91.52L135.013 90.0094L135.446 88.6768L147.564 92.4851ZM138.695 93.6078C138.45 94.3629 138.494 95.0315 138.828 95.6136C139.172 96.1991 139.734 96.6143 140.512 96.8589L142.002 97.327C142.78 97.5717 143.477 97.5519 144.091 97.2677C144.717 96.9871 145.152 96.4692 145.397 95.7141C145.495 95.4142 145.543 95.1113 145.543 94.8053C145.55 94.514 145.513 94.2453 145.431 93.9993C145.35 93.7533 145.221 93.5356 145.047 93.3461C144.879 93.1712 144.677 93.0465 144.44 92.972L141.191 91.9508C140.909 91.8622 140.637 91.8379 140.375 91.878C140.121 91.9328 139.883 92.0353 139.66 92.1856C139.448 92.3394 139.26 92.5371 139.094 92.7788C138.925 93.0316 138.792 93.3079 138.695 93.6078Z" fill="white"/>
<path d="M131.747 105.967C132.059 105.444 132.441 105.022 132.892 104.702C133.344 104.381 133.842 104.168 134.385 104.063C134.932 103.973 135.507 103.988 136.11 104.106C136.723 104.229 137.346 104.474 137.979 104.84C138.603 105.199 139.119 105.612 139.528 106.078C139.937 106.543 140.231 107.03 140.408 107.538C140.591 108.062 140.65 108.597 140.587 109.141C140.523 109.685 140.336 110.219 140.024 110.742C139.713 111.265 139.334 111.682 138.888 111.992C138.437 112.313 137.934 112.522 137.38 112.622C136.837 112.727 136.259 112.718 135.646 112.594C135.034 112.471 134.415 112.229 133.792 111.869C133.159 111.504 132.637 111.088 132.228 110.622C131.829 110.162 131.539 109.671 131.357 109.147C131.185 108.628 131.131 108.097 131.194 107.553C131.251 107.018 131.436 106.49 131.747 105.967ZM132.836 106.595C132.446 107.248 132.333 107.899 132.496 108.547C132.659 109.195 133.16 109.761 133.998 110.245L135.132 110.899C135.97 111.383 136.716 111.536 137.37 111.36C138.025 111.183 138.547 110.768 138.936 110.114C139.325 109.461 139.438 108.81 139.275 108.161C139.112 107.513 138.612 106.948 137.774 106.464L136.64 105.81C135.802 105.326 135.056 105.173 134.401 105.349C133.747 105.526 133.225 105.941 132.836 106.595Z" fill="white"/>
<path d="M132.376 121.244L129.223 124.566C128.713 125.103 128.157 125.381 127.555 125.402C126.961 125.43 126.404 125.205 125.885 124.727C125.045 123.956 124.982 123.092 125.695 122.136L125.643 122.088C125.114 122.559 124.59 122.787 124.07 122.772C123.55 122.773 123.083 122.582 122.667 122.2C122.399 121.953 122.184 121.676 122.023 121.368C121.853 121.068 121.75 120.758 121.714 120.438C121.678 120.118 121.709 119.795 121.806 119.47C121.913 119.153 122.099 118.854 122.366 118.573L125.677 115.084L132.376 121.244ZM123.514 119.054C123.223 119.361 123.075 119.679 123.069 120.009C123.064 120.339 123.213 120.644 123.516 120.922L123.814 121.197C124.117 121.475 124.436 121.601 124.77 121.573C125.104 121.545 125.417 121.378 125.708 121.071L127.758 118.912L125.564 116.895L123.514 119.054ZM126.673 121.719C126.406 122.001 126.27 122.281 126.262 122.562C126.256 122.859 126.387 123.131 126.655 123.378L126.941 123.641C127.209 123.887 127.489 123.993 127.781 123.959C128.074 123.941 128.354 123.791 128.621 123.51L130.549 121.478L128.602 119.688L126.673 121.719Z" fill="white"/>
<path d="M109.694 128.736C110.133 128.438 110.53 128.338 110.887 128.435C111.233 128.54 111.552 128.748 111.844 129.06L111.917 129.01C111.759 128.437 111.789 127.906 112.008 127.418C112.226 126.929 112.598 126.506 113.125 126.148C113.924 125.604 114.689 125.381 115.42 125.479C116.141 125.584 116.744 125.981 117.229 126.672C117.721 127.372 117.84 128.085 117.586 128.81C117.322 129.542 116.64 130.282 115.539 131.031L114.048 132.045L114.563 132.779C114.934 133.306 115.363 133.61 115.85 133.689C116.338 133.768 116.884 133.602 117.488 133.192C117.946 132.88 118.26 132.518 118.43 132.104C118.591 131.697 118.656 131.256 118.625 130.782L119.781 130.952C119.859 131.494 119.772 132.056 119.519 132.639C119.273 133.232 118.808 133.76 118.126 134.224C117.21 134.847 116.344 135.11 115.528 135.014C114.711 134.917 114.027 134.476 113.475 133.689L110.606 129.604L109.744 130.191L109.036 129.184L109.694 128.736ZM113.622 127.255C113.329 127.454 113.085 127.67 112.888 127.903C112.692 128.136 112.55 128.374 112.462 128.618C112.374 128.862 112.339 129.099 112.356 129.328C112.373 129.557 112.449 129.768 112.583 129.959L113.442 131.182L114.991 130.128C115.664 129.671 116.088 129.24 116.265 128.837C116.433 128.439 116.389 128.058 116.133 127.694L115.92 127.392C115.665 127.028 115.334 126.834 114.93 126.812C114.516 126.796 114.08 126.944 113.622 127.255Z" fill="white"/>
<path d="M107.029 140.432L105.714 140.964L104.262 137.487L100.022 139.203L101.475 142.68L100.16 143.212L96.674 134.867L97.9885 134.335L99.5492 138.071L103.789 136.355L102.228 132.619L103.543 132.087L107.029 140.432Z" fill="white"/>
<path d="M83.2363 137.952C83.7611 137.861 84.165 137.933 84.4479 138.167C84.7191 138.404 84.921 138.724 85.0538 139.127L85.1412 139.112C85.2403 138.526 85.4924 138.056 85.8977 137.701C86.3029 137.346 86.8204 137.114 87.4502 137.004C88.4066 136.837 89.1964 136.948 89.8197 137.337C90.4314 137.727 90.8116 138.336 90.9604 139.162C91.1114 140 90.9181 140.697 90.3805 141.252C89.8314 141.81 88.8978 142.204 87.5799 142.434L85.7955 142.745L85.9537 143.623C86.0674 144.254 86.3291 144.706 86.739 144.978C87.1488 145.25 87.7153 145.322 88.4384 145.196C88.9865 145.101 89.4255 144.9 89.7553 144.594C90.0734 144.289 90.3188 143.915 90.4913 143.471L91.4706 144.099C91.3125 144.624 90.9952 145.099 90.5187 145.526C90.0442 145.964 89.3987 146.254 88.5823 146.397C87.486 146.588 86.5871 146.472 85.8855 146.05C85.184 145.628 84.7484 144.946 84.5789 144.005L83.6983 139.115L82.6661 139.295L82.4491 138.09L83.2363 137.952ZM87.4336 138.215C87.0837 138.276 86.7703 138.372 86.4932 138.503C86.2161 138.634 85.986 138.793 85.8029 138.979C85.6199 139.165 85.4876 139.365 85.4061 139.581C85.3246 139.796 85.3046 140.019 85.3459 140.248L85.6095 141.712L87.4639 141.388C88.2686 141.248 88.8369 141.03 89.1688 140.736C89.489 140.443 89.6098 140.079 89.5312 139.642L89.4661 139.281C89.3876 138.845 89.1691 138.534 88.8108 138.347C88.4408 138.163 87.9818 138.119 87.4336 138.215Z" fill="white"/>
</svg>
