<svg width="120" height="120" viewBox="0 0 120 120" fill="none" xmlns="http://www.w3.org/2000/svg">
<path d="M51.4568 120L47.4548 119.222C46.646 119.065 46.0588 118.718 45.6933 118.181C45.3184 117.643 45.2062 116.998 45.3567 116.248C45.4283 115.891 45.54 115.599 45.6918 115.372C45.8436 115.145 46.0151 114.964 46.2062 114.83C46.3954 114.705 46.5913 114.62 46.7937 114.574C46.9943 114.537 47.1764 114.52 47.3399 114.523L47.3564 114.441C47.1817 114.397 46.9956 114.313 46.7983 114.19C46.5917 114.064 46.4092 113.891 46.2507 113.67C46.0903 113.458 45.9735 113.198 45.9003 112.889C45.8159 112.587 45.8132 112.24 45.8921 111.846C45.971 111.453 46.1095 111.099 46.3076 110.786C46.4964 110.471 46.7271 110.212 46.9997 110.008C47.2724 109.804 47.5768 109.659 47.913 109.572C48.2473 109.495 48.5957 109.491 48.9583 109.562L53.3786 110.421L51.4568 120ZM52.0035 111.209L49.1171 110.648C48.6151 110.55 48.1952 110.597 47.8575 110.788C47.5179 110.988 47.2994 111.331 47.2022 111.815L47.1086 112.282C47.0113 112.767 47.0819 113.161 47.3206 113.464C47.5573 113.776 47.9267 113.981 48.4287 114.079L51.3152 114.64L52.0035 111.209ZM51.117 115.628L48.4257 115.105C47.9609 115.014 47.5754 115.058 47.2692 115.236C46.963 115.415 46.7668 115.719 46.6805 116.149L46.5869 116.615C46.5007 117.045 46.5647 117.4 46.7791 117.679C46.9935 117.959 47.3332 118.143 47.798 118.234L50.4892 118.757L51.117 115.628Z" fill="#595959"/>
<path d="M38.4465 105.983C38.9131 106.19 39.2954 106.456 39.5931 106.782C39.8909 107.108 40.1014 107.477 40.2246 107.89C40.3392 108.298 40.3685 108.746 40.3125 109.232C40.2478 109.715 40.095 110.22 39.854 110.747C39.613 111.275 39.3306 111.722 39.0066 112.09C38.6741 112.454 38.3144 112.73 37.9278 112.917C37.5325 113.1 37.1121 113.19 36.6667 113.187C36.2212 113.184 35.7652 113.079 35.2985 112.873C34.6331 112.578 34.1677 112.198 33.9023 111.733C33.6243 111.273 33.4909 110.769 33.502 110.221L34.5687 110.172C34.5343 110.566 34.6126 110.918 34.8036 111.227C34.9947 111.537 35.2976 111.783 35.7124 111.967C36.0235 112.104 36.3191 112.174 36.599 112.175C36.8751 112.185 37.1318 112.135 37.3689 112.025C37.6022 111.924 37.8141 111.767 38.0046 111.555C38.1912 111.351 38.3505 111.105 38.4827 110.815L38.9957 109.693C39.26 109.114 39.322 108.569 39.1819 108.057C39.0293 107.55 38.6462 107.16 38.0326 106.889C37.1943 106.518 36.4145 106.633 35.6931 107.234L35.1686 106.404C35.6023 106.023 36.0993 105.788 36.6596 105.698C37.2113 105.605 37.807 105.7 38.4465 105.983Z" fill="#595959"/>
<path d="M31.0699 103.475L30.4157 103.004L29.3998 103.591C29.1703 103.726 28.958 103.799 28.7629 103.809C28.5623 103.826 28.377 103.791 28.2072 103.704L28.1737 103.749C28.6682 104.174 28.9404 104.629 28.9902 105.115C29.0401 105.601 28.8807 106.093 28.5118 106.59C28.0927 107.155 27.5936 107.472 27.0145 107.541C26.4299 107.617 25.8353 107.438 25.2307 107.003L22.6136 105.122L26.939 99.2931L27.8573 99.9531L26.1976 102.19L27.7357 103.295L29.4201 102.306C29.7926 102.089 30.1049 101.984 30.3571 101.992C30.596 102.002 30.8188 102.082 31.0254 102.23L31.6567 102.684L31.0699 103.475ZM25.6275 102.958L24.1187 104.992L25.6798 106.114C26.0241 106.361 26.3395 106.49 26.6258 106.499C26.9121 106.509 27.167 106.363 27.3905 106.061L27.6672 105.689C27.8907 105.387 27.9543 105.104 27.858 104.838C27.7561 104.58 27.533 104.328 27.1886 104.08L25.6275 102.958Z" fill="#595959"/>
<path d="M12.0488 94.4871L8.83679 89.8193L14.9094 85.7716L15.547 86.6983L10.2982 90.1968L12.235 93.0114L17.4838 89.5129L18.1214 90.4395L12.0488 94.4871Z" fill="#595959"/>
<path d="M5.2845 83.2698L4.86895 82.2281L5.9803 81.7986L5.95953 81.7465C5.45807 81.7399 5.04012 81.6109 4.70566 81.3594C4.35892 81.1026 4.09205 80.7399 3.90505 80.2711C3.73883 79.8544 3.67198 79.4444 3.70451 79.0411C3.73704 78.6378 3.86091 78.2593 4.07612 77.9056C4.28786 77.5433 4.59 77.2161 4.98253 76.9242C5.3716 76.6235 5.83957 76.3676 6.38642 76.1563C6.93328 75.9449 7.45318 75.8192 7.94614 75.779C8.43564 75.7301 8.88322 75.7676 9.28889 75.8913C9.6911 76.0064 10.0435 76.2009 10.3462 76.4747C10.6488 76.7485 10.8832 77.0937 11.0495 77.5104C11.4131 78.4219 11.2512 79.2409 10.5637 79.9674L10.5845 80.0195L14.3419 78.5676L14.7575 79.6093L5.2845 83.2698ZM10.2111 78.165C9.97567 77.5747 9.60517 77.1818 9.09967 76.9864C8.58534 76.7944 8.02388 76.816 7.41528 77.0511L6.25101 77.501C5.64241 77.7362 5.22041 78.0946 4.98502 78.5763C4.7408 79.0615 4.73643 79.5992 4.97191 80.1895C5.06541 80.4239 5.19073 80.6359 5.34787 80.8257C5.49272 81.0102 5.65365 81.1584 5.83064 81.2703C6.00764 81.3823 6.19898 81.4536 6.40465 81.4844C6.59805 81.5098 6.78736 81.4868 6.97258 81.4152L9.51282 80.4336C9.73332 80.3484 9.91446 80.2283 10.0562 80.0733C10.1857 79.9131 10.2811 79.731 10.3422 79.527C10.3945 79.3264 10.41 79.1101 10.3886 78.8779C10.3638 78.637 10.3046 78.3993 10.2111 78.165Z" fill="#595959"/>
<path d="M8.18009 67.0436C8.25517 67.5229 8.23478 67.9742 8.11893 68.3975C8.00307 68.8208 7.80363 69.2002 7.52061 69.5357C7.22678 69.8634 6.8627 70.1404 6.42835 70.3667C5.98464 70.5944 5.47247 70.7523 4.89184 70.8404C4.32057 70.9271 3.78853 70.9276 3.29574 70.842C2.80294 70.7564 2.37099 70.6002 1.9999 70.3734C1.618 70.1388 1.30704 69.8368 1.06703 69.4675C0.827007 69.0982 0.66946 68.6738 0.594383 68.1945C0.519307 67.7153 0.540418 67.2686 0.657716 66.8544C0.77357 66.4311 0.977689 66.051 1.27007 65.7141C1.5531 65.3786 1.91646 65.097 2.36017 64.8693C2.80388 64.6416 3.31137 64.4844 3.88264 64.3977C4.46327 64.3096 4.99999 64.3083 5.49279 64.394C5.97622 64.4811 6.40889 64.6419 6.79079 64.8764C7.16332 65.1124 7.4696 65.4151 7.70962 65.7845C7.94819 66.1446 8.10502 66.5643 8.18009 67.0436ZM7.18271 67.1949C7.08887 66.5958 6.82504 66.1357 6.39125 65.8146C5.95745 65.4936 5.35658 65.3913 4.58865 65.5078L3.54912 65.6656C2.78119 65.7821 2.23952 66.0577 1.92411 66.4924C1.6087 66.9272 1.49792 67.4441 1.59176 68.0432C1.68561 68.6423 1.94943 69.1024 2.38323 69.4235C2.81703 69.7446 3.41789 69.8468 4.18583 69.7303L5.22535 69.5726C5.99329 69.4561 6.53496 69.1804 6.85037 68.7457C7.16578 68.3109 7.27656 67.794 7.18271 67.1949Z" fill="#595959"/>
<path d="M6.20053 59.3774L6.25768 58.5539C5.80501 58.2337 5.2303 57.9614 4.53354 57.7369C3.83679 57.5125 3.02991 57.3695 2.1129 57.3078L0 57.1658L0.338045 52.2949L6.66256 52.7201L6.74586 51.5199L9.72377 51.7201L9.65306 52.7389L7.66779 52.6054L7.26388 58.4253L9.24915 58.5587L9.17844 59.5776L6.20053 59.3774ZM6.58507 53.8366L1.25319 53.4782L1.06625 56.1718L2.24323 56.2509C3.21696 56.3164 4.04308 56.4561 4.72157 56.6699C5.39126 56.8739 5.93106 57.1018 6.34098 57.3537L6.58507 53.8366Z" fill="#595959"/>
<path d="M2.88824 40.7355L3.19461 39.6723L10.9956 45.2086C11.182 45.3479 11.3319 45.477 11.4454 45.5959C11.568 45.7174 11.6535 45.8479 11.7019 45.9874C11.7504 46.127 11.767 46.2916 11.7517 46.4812C11.7391 46.6618 11.6965 46.8778 11.6242 47.129L11.4652 47.6808L10.508 47.4136L10.8221 46.3235L9.46916 45.3787L1.39128 45.9303L1.70153 44.8537L6.98208 44.5246L8.22379 44.5222L8.24319 44.4549L7.20314 43.7575L2.88824 40.7355Z" fill="#595959"/>
<path d="M5.4989 34.1077L6.02196 33.114L8.74799 34.5039L9.42143 33.2246L8.08122 30.9657C7.97773 30.7974 7.9015 30.6483 7.85253 30.5183C7.79516 30.384 7.76302 30.2626 7.75613 30.154C7.74924 30.0455 7.76135 29.9414 7.79247 29.8417C7.81518 29.7377 7.85704 29.6278 7.91807 29.5119L8.22537 28.9281L9.1088 29.3785L8.70343 30.1486L9.78924 31.9784C9.86375 32.1004 9.92158 32.2035 9.96274 32.2875C10.0039 32.3715 10.0366 32.4512 10.061 32.5266C10.0769 32.5977 10.0864 32.6709 10.0896 32.746C10.0843 32.8168 10.0725 32.9001 10.0541 32.9958L10.1046 33.0215C10.2214 32.8605 10.3587 32.7415 10.5167 32.6644C10.6705 32.5748 10.9107 32.524 11.2373 32.5119L13.5206 32.4316L13.9064 31.6987L14.7898 32.1492L14.4106 32.8696C14.2973 33.0849 14.138 33.2557 13.9327 33.3822C13.7234 33.496 13.4237 33.5585 13.0336 33.5697L10.2796 33.6622L9.60618 34.9415L12.5341 36.4344L12.0111 37.4281L5.4989 34.1077Z" fill="#595959"/>
<path d="M21.3082 23.6528L17.5323 28.1312L11.8883 23.5217L12.6144 22.6605L17.4928 26.6447L19.6984 24.0287L14.82 20.0445L15.5461 19.1833L20.4245 23.1675L21.2051 22.2416L23.5021 24.1176L22.8395 24.9035L21.3082 23.6528Z" fill="#595959"/>
<path d="M20.945 13.998L21.8229 13.3316L24.3056 16.4997L25.2919 17.9416L25.337 17.9074L25.1024 16.1422L24.8167 11.0591L25.6496 10.4269L30.1288 16.1426L29.2509 16.809L26.7682 13.641L25.7819 12.1991L25.7369 12.2332L25.9714 13.9985L26.2571 19.0816L25.4242 19.7138L20.945 13.998Z" fill="#595959"/>
<path d="M34.0029 12.607L34.7351 12.2657L34.6966 11.1072C34.6853 10.8442 34.7219 10.6259 34.8062 10.4525C34.8864 10.2706 35.0061 10.1271 35.1652 10.022L35.1408 9.97145C34.5256 10.1963 33.989 10.2143 33.5311 10.0253C33.0732 9.83627 32.7104 9.46363 32.4427 8.90735C32.1385 8.27521 32.0939 7.69233 32.3089 7.1587C32.5199 6.61664 32.9636 6.18793 33.6402 5.87257L36.569 4.50734L39.7083 11.031L38.6807 11.51L37.476 9.00675L35.7547 9.80912L35.8337 11.7381C35.8499 12.1639 35.7942 12.484 35.6667 12.6982C35.5436 12.9001 35.3665 13.0549 35.1353 13.1627L34.4287 13.492L34.0029 12.607ZM37.0623 8.14704L35.9672 5.87136L34.2202 6.6857C33.8348 6.86534 33.5696 7.0767 33.4244 7.31978C33.2793 7.56286 33.2878 7.85297 33.4501 8.19011L33.6508 8.60732C33.8131 8.94446 34.0357 9.13477 34.3188 9.17826C34.5978 9.21332 34.9299 9.14103 35.3153 8.96139L37.0623 8.14704Z" fill="#595959"/>
<path d="M54.5689 7.53736C54.06 7.58968 53.5936 7.54856 53.1696 7.41398C52.7457 7.27941 52.3751 7.06433 52.0579 6.76875C51.7501 6.4722 51.4962 6.09979 51.2962 5.65152C51.1056 5.20227 50.9798 4.69011 50.9188 4.11502C50.8578 3.53994 50.8733 3.01324 50.9655 2.53493C51.067 2.05565 51.2373 1.63964 51.4761 1.2869C51.7244 0.933192 52.0418 0.647389 52.4283 0.429492C52.8149 0.211596 53.2626 0.0764882 53.7715 0.0241696C54.4972 -0.0504327 55.0936 0.0476665 55.5606 0.318467C56.036 0.579024 56.4087 0.9486 56.6786 1.4272L55.7816 1.99762C55.6103 1.64016 55.363 1.3749 55.0398 1.20184C54.7166 1.02879 54.3288 0.96551 53.8764 1.01202C53.5371 1.04689 53.2461 1.13307 53.0035 1.27053C52.7599 1.39872 52.5636 1.56893 52.4146 1.78116C52.2646 1.98411 52.1615 2.22444 52.1053 2.50215C52.048 2.77058 52.0361 3.06249 52.0696 3.37785L52.1995 4.60223C52.2665 5.23296 52.4912 5.73496 52.8738 6.1082C53.2649 6.4712 53.7949 6.61831 54.4641 6.54952C55.3782 6.45554 55.9937 5.97032 56.3103 5.09386L57.1878 5.55219C57.0073 6.09584 56.6977 6.54493 56.259 6.89947C55.8297 7.25304 55.2663 7.46567 54.5689 7.53736Z" fill="#595959"/>
<path d="M65.4986 7.54605C64.9992 7.4947 64.5561 7.36007 64.1696 7.14218C63.7925 6.92525 63.475 6.63945 63.2173 6.28477C62.9701 5.92178 62.7904 5.5048 62.6784 5.03383C62.5769 4.55455 62.5566 4.02737 62.6176 3.45229C62.6777 2.88648 62.8077 2.37944 63.0077 1.93116C63.2172 1.48385 63.4805 1.11241 63.7977 0.816832C64.1253 0.512947 64.4963 0.293233 64.9109 0.15769C65.3348 0.0231154 65.7965 -0.0184969 66.296 0.0328528C66.7861 0.0832336 67.215 0.216403 67.5827 0.432362C67.9504 0.648321 68.2541 0.928033 68.494 1.2715C68.7348 1.60569 68.9033 1.99339 68.9993 2.4346C69.1049 2.87677 69.1305 3.35294 69.0764 3.86309L69.0203 4.3918L63.7756 3.85263L63.7401 4.18655C63.7077 4.49264 63.7243 4.78503 63.79 5.06371C63.8661 5.33408 63.9833 5.57587 64.1417 5.78906C64.3095 6.00322 64.5195 6.17952 64.7715 6.31796C65.033 6.45736 65.3334 6.5445 65.6727 6.57938C66.1345 6.62686 66.5463 6.56136 66.9083 6.38291C67.2796 6.20542 67.5807 5.92693 67.8115 5.54746L68.5568 6.20075C68.269 6.66813 67.8591 7.02919 67.3271 7.28394C66.7961 7.5294 66.1866 7.61678 65.4986 7.54605ZM66.1971 0.965045C65.8861 0.933073 65.5975 0.95966 65.3312 1.04481C65.0659 1.12068 64.8287 1.24632 64.6195 1.42173C64.4198 1.59811 64.2538 1.81546 64.1216 2.0738C63.9903 2.32285 63.908 2.60507 63.8745 2.92044L63.8642 3.01783L67.8931 3.43202L67.9094 3.27897C67.9773 2.63896 67.8524 2.1104 67.5346 1.69328C67.2272 1.26786 66.7814 1.02511 66.1971 0.965045Z" fill="#595959"/>
<path d="M75.8823 1.90506L76.9622 2.25575L76.588 3.37165L76.642 3.38918C76.9675 3.01367 77.3353 2.77959 77.7456 2.68695C78.1678 2.58838 78.6218 2.61799 79.1077 2.77581C79.5397 2.91608 79.9029 3.12734 80.1974 3.40959C80.4919 3.69183 80.7087 4.02739 80.8477 4.41627C80.9958 4.80806 81.0585 5.24583 81.0361 5.72956C81.0226 6.21621 80.9238 6.73408 80.7397 7.28317C80.5556 7.83226 80.3218 8.30629 80.0384 8.70527C79.7639 9.10717 79.4487 9.42219 79.0929 9.65034C78.746 9.8814 78.3689 10.0241 77.9615 10.0784C77.5541 10.1327 77.1345 10.0897 76.7026 9.9494C75.7577 9.64255 75.2209 8.9968 75.092 8.01217L75.038 7.99463L73.7731 11.7674L72.6933 11.4167L75.8823 1.90506ZM76.7263 8.89648C77.3382 9.09521 77.882 9.06558 78.3576 8.80759C78.8363 8.54074 79.178 8.10177 79.3829 7.49069L79.7748 6.32166C79.9797 5.71058 79.9691 5.16206 79.7428 4.67613C79.5196 4.18133 79.102 3.83457 78.4901 3.63584C78.2471 3.55694 78.0013 3.51638 77.7526 3.51417C77.5158 3.50603 77.2972 3.53322 77.0966 3.59575C76.896 3.65827 76.718 3.7576 76.5626 3.89372C76.4192 4.02391 76.3163 4.182 76.254 4.36798L75.3988 6.91859C75.3246 7.14 75.3027 7.35388 75.3333 7.56023C75.3759 7.76064 75.4574 7.94915 75.5778 8.12574C75.7012 8.29348 75.8604 8.44341 76.0556 8.57554C76.2598 8.7106 76.4834 8.81758 76.7263 8.89648Z" fill="#595959"/>
<path d="M88.9841 8.34629L86.8217 7.10825L87.3221 6.26183L92.6296 9.30064L92.1293 10.1471L89.9669 8.90903L86.7793 14.302L85.7964 13.7392L88.9841 8.34629Z" fill="#595959"/>
<path d="M97.9425 13.0975L98.7649 13.8292L96.0388 16.7971L94.7725 18.0088L94.8147 18.0463L96.538 17.5053L101.57 16.3246L102.35 17.0189L97.4313 22.3735L96.6089 21.6417L99.335 18.6739L100.601 17.4621L100.559 17.4246L98.8358 17.9657L93.8043 19.1463L93.0241 18.4521L97.9425 13.0975Z" fill="#595959"/>
<path d="M103.898 28.971L103.874 28.9362C103.532 28.9386 103.222 28.8865 102.942 28.7798C102.663 28.6731 102.422 28.473 102.22 28.1795C101.758 27.5076 101.671 26.8396 101.958 26.1754C102.252 25.506 102.945 24.808 104.036 24.0813C105.127 23.3546 106.039 22.9835 106.772 22.9681C107.513 22.9474 108.114 23.273 108.576 23.9449C108.778 24.2383 108.878 24.5325 108.874 24.8274C108.871 25.1223 108.805 25.4254 108.676 25.7367L108.7 25.7715L111.619 23.8267L112.256 24.7534L109.337 26.6982L109.361 26.733C109.703 26.7306 110.013 26.7827 110.293 26.8894C110.572 26.9961 110.813 27.1962 111.015 27.4897C111.477 28.1616 111.56 28.8322 111.266 29.5016C110.979 30.1658 110.29 30.8612 109.199 31.5879C108.108 32.3146 107.193 32.6883 106.452 32.709C105.718 32.7244 105.121 32.3962 104.659 31.7243C104.457 31.4309 104.357 31.1367 104.361 30.8418C104.364 30.5469 104.43 30.2438 104.559 29.9325L104.535 29.8977L101.545 31.8896L100.908 30.9628L103.898 28.971ZM103.223 27.866C103.717 28.5842 104.239 28.7604 104.788 28.3944L107.825 26.3712C108.374 26.0052 108.402 25.4632 107.908 24.7449C107.611 24.3124 107.254 24.0938 106.839 24.0889C106.431 24.0788 105.898 24.2933 105.239 24.7325L104.203 25.4226C103.544 25.8617 103.14 26.2719 102.99 26.6532C102.848 27.0293 102.926 27.4335 103.223 27.866ZM105.327 30.9243C105.619 31.349 105.969 31.5665 106.376 31.5766C106.797 31.5891 107.337 31.3759 107.996 30.9367L109.032 30.2466C109.691 29.8075 110.089 29.396 110.225 29.0122C110.375 28.631 110.304 28.2279 110.012 27.8032C109.518 27.085 108.996 26.9088 108.447 27.2748L105.41 29.298C104.861 29.664 104.833 30.2061 105.327 30.9243Z" fill="#595959"/>
<path d="M115.176 35.5949L115.56 36.6183L111.748 38.0067L110.056 38.5037L110.075 38.5562L111.857 38.8619L116.873 40.1081L117.238 41.0789L110.359 43.584L109.974 42.5606L113.787 41.1722L115.479 40.6752L115.46 40.6227L113.677 40.317L108.662 39.0708L108.297 38.1L115.176 35.5949Z" fill="#595959"/>
<path d="M112.542 54.8035L111.757 49.0357L119.026 48.0767L119.177 49.1859L112.894 50.0148L113.353 53.384L119.636 52.5551L119.787 53.6643L113.504 54.4932L113.666 55.6856L110.708 56.0759L110.57 55.0637L112.542 54.8035Z" fill="#595959"/>
<path d="M120 61.0856L119.903 62.1725L115.853 61.8212L114.108 61.5575L114.103 61.6132L115.58 62.6401L119.571 65.8792L119.478 66.9104L112.172 66.2766L112.27 65.1897L116.319 65.541L118.065 65.8048L118.07 65.749L116.592 64.7221L112.602 61.483L112.694 60.4518L120 61.0856Z" fill="#595959"/>
<path d="M118.051 73.9881L117.705 75.0542L116.568 74.6968L116.551 74.7501C116.935 75.0668 117.177 75.4265 117.275 75.8294C117.379 76.2439 117.353 76.6911 117.198 77.1708C117.059 77.5973 116.848 77.9568 116.564 78.2493C116.28 78.5419 115.941 78.7585 115.548 78.8991C115.151 79.0486 114.707 79.1146 114.215 79.0971C113.721 79.0885 113.194 78.9963 112.634 78.8204C112.074 78.6445 111.59 78.419 111.182 78.144C110.771 77.8777 110.448 77.5706 110.213 77.2226C109.975 76.8834 109.826 76.5136 109.767 76.1133C109.708 75.7129 109.748 75.2995 109.886 74.873C110.189 73.9402 110.84 73.4056 111.839 73.2693L111.856 73.216L108.011 72.0075L108.356 70.9414L118.051 73.9881ZM110.956 74.8862C110.76 75.4903 110.795 76.0252 111.062 76.4908C111.338 76.9593 111.787 77.2914 112.41 77.4871L113.601 77.8616C114.224 78.0573 114.781 78.0415 115.273 77.8142C115.774 77.5897 116.122 77.1754 116.318 76.5713C116.396 76.3314 116.434 76.0891 116.434 75.8443C116.44 75.6112 116.411 75.3963 116.345 75.1995C116.28 75.0027 116.177 74.8285 116.037 74.6768C115.904 74.5369 115.742 74.4372 115.552 74.3776L112.953 73.5606C112.727 73.4897 112.51 73.4703 112.3 73.5024C112.097 73.5462 111.906 73.6283 111.728 73.7485C111.559 73.8715 111.408 74.0297 111.276 74.2231C111.14 74.4253 111.034 74.6464 110.956 74.8862Z" fill="#595959"/>
<path d="M105.398 84.7733C105.647 84.3549 105.952 84.0176 106.314 83.7613C106.675 83.5049 107.073 83.3346 107.508 83.2503C107.946 83.1787 108.406 83.1901 108.888 83.2844C109.378 83.3835 109.877 83.5792 110.383 83.8716C110.882 84.1593 111.295 84.4895 111.622 84.8621C111.95 85.2347 112.184 85.6242 112.327 86.0306C112.472 86.4498 112.52 86.8772 112.469 87.3128C112.418 87.7484 112.269 88.1753 112.019 88.5937C111.77 89.012 111.467 89.3454 111.111 89.5937C110.749 89.85 110.347 90.018 109.904 90.0976C109.47 90.1819 109.007 90.1746 108.517 90.0755C108.027 89.9765 107.532 89.7831 107.034 89.4954C106.527 89.2029 106.11 88.8704 105.783 88.4978C105.464 88.13 105.231 87.7364 105.085 87.3172C104.948 86.9027 104.904 86.4777 104.955 86.0421C105.001 85.6146 105.149 85.1917 105.398 84.7733ZM106.269 85.2756C105.957 85.7986 105.867 86.3193 105.997 86.8378C106.128 87.3564 106.528 87.809 107.198 88.1957L108.106 88.7193C108.776 89.106 109.373 89.2288 109.896 89.0876C110.42 88.9464 110.837 88.6143 111.149 88.0914C111.46 87.5684 111.551 87.0477 111.42 86.5292C111.29 86.0106 110.889 85.558 110.219 85.1712L109.312 84.6477C108.641 84.261 108.044 84.1382 107.521 84.2794C106.997 84.4206 106.58 84.7527 106.269 85.2756Z" fill="#595959"/>
<path d="M105.901 96.9952L103.378 99.653C102.971 100.082 102.526 100.305 102.044 100.321C101.569 100.344 101.123 100.164 100.708 99.782C100.036 99.1644 99.9855 98.4733 100.556 97.7086L100.514 97.6704C100.091 98.0475 99.672 98.2298 99.2559 98.2173C98.8403 98.218 98.4663 98.0656 98.1339 97.76C97.9193 97.5626 97.7473 97.3408 97.6181 97.0943C97.4825 96.8548 97.4002 96.6068 97.3712 96.3504C97.3422 96.094 97.3668 95.8359 97.445 95.5759C97.5301 95.3223 97.6794 95.0831 97.8928 94.8582L100.542 92.0675L105.901 96.9952ZM98.8112 95.2432C98.5783 95.4885 98.4597 95.7432 98.4555 96.0073C98.4512 96.2714 98.5702 96.5148 98.8126 96.7376L99.0515 96.9573C99.2938 97.1801 99.5487 97.2804 99.8161 97.2583C100.083 97.2362 100.334 97.1024 100.566 96.8571L102.206 95.1295L100.451 93.5156L98.8112 95.2432ZM101.339 97.3756C101.125 97.6005 101.016 97.8252 101.01 98.0497C101.005 98.2874 101.109 98.505 101.324 98.7023L101.553 98.9124C101.767 99.1098 101.991 99.1947 102.225 99.1671C102.459 99.1526 102.683 99.033 102.897 98.8081L104.439 97.1827L102.881 95.7502L101.339 97.3756Z" fill="#595959"/>
<path d="M87.7554 102.989C88.1061 102.75 88.4241 102.67 88.7093 102.748C88.9867 102.832 89.2419 102.998 89.4748 103.248L89.5333 103.208C89.4072 102.75 89.4315 102.325 89.6063 101.934C89.781 101.543 90.0788 101.205 90.4997 100.918C91.1389 100.483 91.751 100.305 92.3358 100.384C92.9129 100.467 93.3953 100.785 93.7832 101.338C94.1765 101.898 94.2716 102.468 94.0686 103.048C93.8578 103.633 93.3119 104.226 92.4311 104.825L91.2384 105.636L91.6506 106.223C91.9469 106.645 92.2901 106.888 92.6801 106.951C93.0702 107.015 93.5069 106.882 93.9902 106.553C94.3566 106.304 94.608 106.014 94.7443 105.683C94.8728 105.358 94.9246 105.005 94.8997 104.625L95.8246 104.761C95.8872 105.195 95.8173 105.645 95.615 106.111C95.418 106.585 95.0467 107.008 94.5011 107.379C93.7683 107.878 93.0754 108.088 92.4222 108.011C91.769 107.934 91.2215 107.581 90.7798 106.952L88.4847 103.683L87.7949 104.152L87.2292 103.347L87.7554 102.989ZM90.8972 101.804C90.6634 101.963 90.4679 102.136 90.3107 102.322C90.1535 102.508 90.0398 102.699 89.9695 102.894C89.8993 103.089 89.8709 103.279 89.8846 103.462C89.8982 103.646 89.9589 103.814 90.0667 103.968L90.7535 104.946L91.993 104.103C92.5308 103.737 92.8706 103.392 93.0123 103.069C93.1462 102.751 93.1108 102.447 92.9061 102.155L92.7364 101.914C92.5317 101.622 92.2675 101.467 91.9439 101.449C91.6125 101.437 91.2636 101.555 90.8972 101.804Z" fill="#595959"/>
<path d="M85.6231 112.346L84.5714 112.771L83.4093 109.99L80.0177 111.362L81.1798 114.144L80.1281 114.569L77.3392 107.893L78.3908 107.468L79.6394 110.457L83.031 109.084L81.7824 106.095L82.8341 105.67L85.6231 112.346Z" fill="#595959"/>
<path d="M66.589 110.362C67.0089 110.289 67.332 110.346 67.5583 110.534C67.7752 110.723 67.9368 110.979 68.043 111.302L68.113 111.29C68.1922 110.821 68.3939 110.445 68.7181 110.161C69.0423 109.877 69.4563 109.691 69.9602 109.603C70.7252 109.47 71.3571 109.559 71.8558 109.869C72.3451 110.182 72.6493 110.669 72.7684 111.33C72.8891 112 72.7344 112.558 72.3044 113.002C71.8651 113.448 71.1183 113.763 70.0639 113.947L68.6364 114.196L68.7629 114.898C68.8539 115.403 69.0633 115.765 69.3912 115.982C69.719 116.2 70.1722 116.258 70.7507 116.157C71.1892 116.081 71.5404 115.92 71.8042 115.675C72.0587 115.432 72.255 115.132 72.3931 114.777L73.1765 115.279C73.05 115.699 72.7962 116.08 72.4149 116.421C72.0353 116.771 71.519 117.003 70.8659 117.117C69.9888 117.27 69.2697 117.178 68.7084 116.84C68.1472 116.502 67.7988 115.957 67.6631 115.204L66.9586 111.292L66.1329 111.436L65.9592 110.472L66.589 110.362ZM69.9469 110.572C69.667 110.621 69.4162 110.698 69.1945 110.802C68.9728 110.907 68.7888 111.034 68.6423 111.183C68.4959 111.332 68.3901 111.492 68.3249 111.665C68.2597 111.837 68.2436 112.015 68.2767 112.199L68.4876 113.369L69.9711 113.111C70.6149 112.998 71.0695 112.824 71.335 112.589C71.5912 112.354 71.6878 112.063 71.625 111.714L71.5729 111.425C71.51 111.076 71.3353 110.827 71.0487 110.678C70.7527 110.531 70.3854 110.495 69.9469 110.572Z" fill="#595959"/>
</svg>
