<svg width="74" height="74" viewBox="0 0 74 74" fill="none" xmlns="http://www.w3.org/2000/svg">
<path fill-rule="evenodd" clip-rule="evenodd" d="M37 73C56.8823 73 73 56.8823 73 37C73 17.1177 56.8823 1 37 1C17.1177 1 1 17.1177 1 37C1 56.8823 17.1177 73 37 73Z" stroke="#FFC42C" stroke-width="2"/>
<path d="M53.7053 24.4768C53.0228 23.7831 51.9162 23.7831 51.2335 24.4768L30.2935 45.756L22.2445 37.5767C21.562 36.883 20.4554 36.8831 19.7727 37.5767C19.0901 38.2703 19.0901 39.3948 19.7727 40.0884L29.0576 49.5235C29.7399 50.2171 30.8473 50.2166 31.5294 49.5235L53.7053 26.9886C54.3879 26.295 54.3879 25.1704 53.7053 24.4768Z" fill="#FFC42C"/>
</svg>
