<svg width="165" height="60" viewBox="0 0 165 60" fill="none" xmlns="http://www.w3.org/2000/svg">
<path d="M60.72 42.0005V36.4005H63.232C63.8773 36.4005 64.3653 36.5658 64.696 36.8965C64.9466 37.1472 65.072 37.4618 65.072 37.8405C65.072 38.3952 64.8053 38.8112 64.272 39.0885C65.0133 39.3392 65.384 39.7978 65.384 40.4645C65.384 40.9552 65.1973 41.3338 64.824 41.6005C64.4506 41.8672 63.9466 42.0005 63.312 42.0005H60.72ZM61.688 38.7605H63.032C63.3573 38.7605 63.6133 38.6965 63.8 38.5685C63.992 38.4352 64.088 38.2405 64.088 37.9845C64.088 37.7605 64.0026 37.5872 63.832 37.4645C63.6613 37.3365 63.4186 37.2725 63.104 37.2725H61.688V38.7605ZM61.688 41.1285H63.32C63.6613 41.1285 63.9253 41.0618 64.112 40.9285C64.304 40.7952 64.4 40.6005 64.4 40.3445C64.4 39.8432 64.016 39.5925 63.248 39.5925H61.688V41.1285Z" fill="#999999"/>
<path d="M66.4934 42.0005V36.4005H70.6454V37.2805H67.4774V38.7365H70.2854V39.6165H67.4774V41.1205H70.6854V42.0005H66.4934Z" fill="#999999"/>
<path d="M71.8528 42.0005V36.4005H76.0288V37.2885H72.8288V38.5765H74.3888C75.0128 38.5765 75.5061 38.7258 75.8688 39.0245C76.2368 39.3232 76.4208 39.7392 76.4208 40.2725C76.4208 40.8272 76.2368 41.2538 75.8688 41.5525C75.5008 41.8512 74.9914 42.0005 74.3408 42.0005H71.8528ZM72.8288 41.1205H74.1248C74.5728 41.1205 74.9035 41.0565 75.1168 40.9285C75.3301 40.7952 75.4368 40.5632 75.4368 40.2325C75.4368 39.6832 75.0581 39.4085 74.3008 39.4085H72.8288V41.1205Z" fill="#999999"/>
<path d="M77.2605 40.0245V39.0725H79.6285V40.0245H77.2605Z" fill="#999999"/>
<path d="M83.3981 42.0965C82.5874 42.0965 81.9101 41.8192 81.3661 41.2645C80.8221 40.7045 80.5501 40.0165 80.5501 39.2005C80.5501 38.3898 80.8221 37.7045 81.3661 37.1445C81.9101 36.5845 82.6008 36.3045 83.4381 36.3045C83.9234 36.3045 84.3341 36.3792 84.6701 36.5285C85.0114 36.6778 85.3314 36.8938 85.6301 37.1765L84.9981 37.9045C84.4968 37.4405 83.9741 37.2085 83.4301 37.2085C82.8968 37.2085 82.4541 37.4005 82.1021 37.7845C81.7554 38.1685 81.5821 38.6405 81.5821 39.2005C81.5821 39.7552 81.7581 40.2272 82.1101 40.6165C82.4621 41.0005 82.9021 41.1925 83.4301 41.1925C83.7501 41.1925 84.0328 41.1338 84.2781 41.0165C84.5234 40.8938 84.7768 40.7098 85.0381 40.4645L85.6701 41.1045C85.3554 41.4352 85.0221 41.6832 84.6701 41.8485C84.3181 42.0138 83.8941 42.0965 83.3981 42.0965Z" fill="#999999"/>
<path d="M86.2243 42.0005L88.6883 36.3605H89.6003L92.0643 42.0005H91.0243L90.4563 40.6485H87.8083L87.2323 42.0005H86.2243ZM88.1683 39.7765H90.0963L89.1283 37.5365L88.1683 39.7765Z" fill="#999999"/>
<path d="M96.2567 35.6645C96.0327 35.8618 95.7527 35.9605 95.4167 35.9605C95.0807 35.9605 94.8007 35.8618 94.5767 35.6645C94.3527 35.4618 94.2113 35.1872 94.1527 34.8405L94.7527 34.7285C94.854 35.0912 95.0753 35.2725 95.4167 35.2725C95.7473 35.2725 95.9687 35.0912 96.0807 34.7285L96.6727 34.8405C96.6193 35.1872 96.4807 35.4618 96.2567 35.6645ZM93.0247 42.0005V36.4005H93.9927V40.4885L96.8247 36.4005H97.7447V42.0005H96.7767V37.9205L93.9527 42.0005H93.0247Z" fill="#999999"/>
<path d="M100.573 42.0005V37.3125H98.7965V36.4005H103.341V37.3125H101.565V42.0005H100.573Z" fill="#999999"/>
<path d="M106.782 42.0005V36.4005H108.99C109.641 36.4005 110.158 36.5712 110.542 36.9125C110.926 37.2538 111.118 37.7125 111.118 38.2885C111.118 38.8912 110.905 39.3605 110.478 39.6965C110.057 40.0325 109.524 40.2005 108.878 40.2005H107.766V42.0005H106.782ZM107.766 39.3125H108.91C109.278 39.3125 109.572 39.2192 109.79 39.0325C110.009 38.8458 110.118 38.6005 110.118 38.2965C110.118 37.9765 110.009 37.7312 109.79 37.5605C109.577 37.3845 109.284 37.2965 108.91 37.2965H107.766V39.3125Z" fill="#999999"/>
<path d="M111.646 42.0005L114.11 36.3605H115.022L117.486 42.0005H116.446L115.878 40.6485H113.23L112.654 42.0005H111.646ZM113.59 39.7765H115.518L114.55 37.5365L113.59 39.7765Z" fill="#999999"/>
<path d="M120.351 36.3045C120.927 36.3045 121.399 36.4458 121.767 36.7285C122.135 37.0112 122.319 37.3712 122.319 37.8085C122.319 38.4112 122.001 38.8458 121.367 39.1125C121.703 39.2138 121.969 39.3765 122.167 39.6005C122.364 39.8245 122.463 40.1098 122.463 40.4565C122.463 40.9312 122.273 41.3232 121.895 41.6325C121.516 41.9418 121.02 42.0965 120.407 42.0965C119.879 42.0965 119.423 42.0218 119.039 41.8725C118.66 41.7178 118.308 41.4858 117.983 41.1765L118.519 40.4965C119.041 40.9925 119.663 41.2405 120.383 41.2405C120.692 41.2405 120.951 41.1658 121.159 41.0165C121.372 40.8618 121.479 40.6565 121.479 40.4005C121.479 40.1232 121.361 39.9178 121.127 39.7845C120.892 39.6512 120.583 39.5845 120.199 39.5845H119.567V38.7685H120.191C120.553 38.7685 120.836 38.6992 121.039 38.5605C121.241 38.4165 121.343 38.2138 121.343 37.9525C121.343 37.7178 121.244 37.5285 121.047 37.3845C120.855 37.2405 120.601 37.1685 120.287 37.1685C119.673 37.1685 119.151 37.3765 118.719 37.7925L118.191 37.1525C118.783 36.5872 119.503 36.3045 120.351 36.3045Z" fill="#999999"/>
<path d="M123.618 42.0005V36.4005H125.826C126.477 36.4005 126.994 36.5712 127.378 36.9125C127.762 37.2538 127.954 37.7125 127.954 38.2885C127.954 38.8912 127.741 39.3605 127.314 39.6965C126.893 40.0325 126.36 40.2005 125.714 40.2005H124.602V42.0005H123.618ZM124.602 39.3125H125.746C126.114 39.3125 126.408 39.2192 126.626 39.0325C126.845 38.8458 126.954 38.6005 126.954 38.2965C126.954 37.9765 126.845 37.7312 126.626 37.5605C126.413 37.3845 126.12 37.2965 125.746 37.2965H124.602V39.3125Z" fill="#999999"/>
<path d="M128.482 42.0005L130.946 36.3605H131.858L134.322 42.0005H133.282L132.714 40.6485H130.066L129.49 42.0005H128.482ZM130.426 39.7765H132.354L131.386 37.5365L130.426 39.7765Z" fill="#999999"/>
<path d="M135.282 42.0005V36.4005H139.458V37.2885H136.258V38.5765H137.818C138.442 38.5765 138.936 38.7258 139.298 39.0245C139.666 39.3232 139.85 39.7392 139.85 40.2725C139.85 40.8272 139.666 41.2538 139.298 41.5525C138.93 41.8512 138.421 42.0005 137.77 42.0005H135.282ZM136.258 41.1205H137.554C138.002 41.1205 138.333 41.0565 138.546 40.9285C138.76 40.7952 138.866 40.5632 138.866 40.2325C138.866 39.6832 138.488 39.4085 137.73 39.4085H136.258V41.1205Z" fill="#999999"/>
<path d="M145.738 41.2485C145.183 41.8138 144.482 42.0965 143.634 42.0965C142.786 42.0965 142.087 41.8165 141.538 41.2565C140.989 40.6965 140.714 40.0112 140.714 39.2005C140.714 38.4005 140.991 37.7178 141.546 37.1525C142.101 36.5872 142.802 36.3045 143.65 36.3045C144.498 36.3045 145.197 36.5845 145.746 37.1445C146.295 37.7045 146.57 38.3898 146.57 39.2005C146.57 40.0005 146.293 40.6832 145.738 41.2485ZM142.282 40.6165C142.645 41.0005 143.101 41.1925 143.65 41.1925C144.199 41.1925 144.65 41.0005 145.002 40.6165C145.359 40.2325 145.538 39.7605 145.538 39.2005C145.538 38.6458 145.357 38.1765 144.994 37.7925C144.637 37.4032 144.183 37.2085 143.634 37.2085C143.085 37.2085 142.631 37.4005 142.274 37.7845C141.922 38.1685 141.746 38.6405 141.746 39.2005C141.746 39.7552 141.925 40.2272 142.282 40.6165Z" fill="#999999"/>
<path d="M149.135 42.0005V37.3125H147.359V36.4005H151.903V37.3125H150.127V42.0005H149.135Z" fill="#999999"/>
<path d="M152.467 42.0005L154.931 36.3605H155.843L158.307 42.0005H157.267L156.699 40.6485H154.051L153.475 42.0005H152.467ZM154.411 39.7765H156.339L155.371 37.5365L154.411 39.7765Z" fill="#999999"/>
<path d="M159.267 42.0005V36.4005H160.251V38.7285H162.923V36.4005H163.907V42.0005H162.923V39.6405H160.251V42.0005H159.267Z" fill="#999999"/>
<path d="M66.123 31.2383C64.253 31.2383 62.706 30.6603 61.482 29.5043C60.258 28.337 59.646 26.8523 59.646 25.0503C59.646 23.305 60.2523 21.8373 61.465 20.6473C62.689 19.4573 64.219 18.8623 66.055 18.8623C67.9363 18.8623 69.5457 19.4403 70.883 20.5963L68.945 22.9253C68.0497 22.1773 67.092 21.8033 66.072 21.8033C65.2107 21.8033 64.4853 22.1206 63.896 22.7553C63.318 23.39 63.029 24.172 63.029 25.1013C63.029 26.0646 63.3293 26.858 63.93 27.4813C64.542 28.0933 65.3183 28.3993 66.259 28.3993C67.0297 28.3993 67.6643 28.235 68.163 27.9063V26.4613H65.817V24.0473H71.291V29.4023C69.8063 30.6263 68.0837 31.2383 66.123 31.2383Z" fill="white"/>
<path d="M73.1194 31.0003V19.1003H82.6904V21.9053H76.3834V23.7073H82.0954V26.3083H76.3834V28.1953H82.7754V31.0003H73.1194Z" fill="white"/>
<path d="M84.4583 31.0003V19.1003H87.7563V23.9283L91.8533 19.1003H95.7633L91.2583 24.2173L95.9163 31.0003H91.9553L88.9633 26.5803L87.7563 27.9233V31.0003H84.4583Z" fill="white"/>
<path d="M99.6172 31.0003V21.9903H96.0472V19.1003H106.485V21.9903H102.915V31.0003H99.6172Z" fill="white"/>
<path d="M117.975 29.4363C116.751 30.6376 115.227 31.2383 113.402 31.2383C111.578 31.2383 110.053 30.6433 108.829 29.4533C107.617 28.252 107.01 26.7843 107.01 25.0503C107.01 23.3276 107.622 21.8656 108.846 20.6643C110.082 19.463 111.612 18.8623 113.436 18.8623C115.261 18.8623 116.78 19.463 117.992 20.6643C119.216 21.8543 119.828 23.3163 119.828 25.0503C119.828 26.773 119.211 28.235 117.975 29.4363ZM113.436 28.2633C114.332 28.2633 115.057 27.9516 115.612 27.3283C116.179 26.705 116.462 25.9456 116.462 25.0503C116.462 24.1663 116.173 23.4126 115.595 22.7893C115.017 22.1546 114.286 21.8373 113.402 21.8373C112.518 21.8373 111.793 22.149 111.226 22.7723C110.671 23.3956 110.393 24.155 110.393 25.0503C110.393 25.9343 110.677 26.6936 111.243 27.3283C111.821 27.9516 112.552 28.2633 113.436 28.2633Z" fill="white"/>
<path d="M121.546 31.0003V19.1003H127.173C128.907 19.1003 130.199 19.5253 131.049 20.3753C131.752 21.078 132.103 22.0186 132.103 23.1973C132.103 24.9426 131.287 26.161 129.655 26.8523L132.494 31.0003H128.686L126.289 27.3963H124.844V31.0003H121.546ZM124.844 24.8123H127.02C127.576 24.8123 128.006 24.6876 128.312 24.4383C128.63 24.1776 128.788 23.8206 128.788 23.3673C128.788 22.9026 128.63 22.5513 128.312 22.3133C128.006 22.0753 127.57 21.9563 127.003 21.9563H124.844V24.8123Z" fill="white"/>
<path d="M137.987 31.0003V28.5183L142.441 25.1183C142.996 24.699 143.387 24.3306 143.614 24.0133C143.852 23.6846 143.971 23.339 143.971 22.9763C143.971 22.6023 143.846 22.3076 143.597 22.0923C143.359 21.877 143.041 21.7693 142.645 21.7693C142.259 21.7693 141.885 21.8883 141.523 22.1263C141.171 22.353 140.758 22.744 140.282 23.2993L138.055 21.4463C138.735 20.5623 139.437 19.9163 140.163 19.5083C140.888 19.1003 141.8 18.8963 142.9 18.8963C144.203 18.8963 145.257 19.2533 146.062 19.9673C146.878 20.67 147.286 21.588 147.286 22.7213C147.286 23.6166 147.07 24.3646 146.64 24.9653C146.209 25.5546 145.506 26.195 144.532 26.8863L142.492 28.3143H147.405V31.0003H137.987Z" fill="white"/>
<path d="M148.765 31.0003V27.6853H152.131V31.0003H148.765Z" fill="white"/>
<path d="M162.716 29.4533C161.708 30.6433 160.376 31.2383 158.721 31.2383C157.067 31.2383 155.735 30.649 154.726 29.4703C153.729 28.2803 153.23 26.807 153.23 25.0503C153.23 23.3163 153.74 21.8543 154.76 20.6643C155.78 19.463 157.112 18.8623 158.755 18.8623C160.41 18.8623 161.736 19.4573 162.733 20.6473C163.742 21.8373 164.246 23.305 164.246 25.0503C164.246 26.7843 163.736 28.252 162.716 29.4533ZM157.157 27.4133C157.565 28.014 158.098 28.3143 158.755 28.3143C159.413 28.3143 159.94 28.014 160.336 27.4133C160.733 26.8013 160.931 26.0136 160.931 25.0503C160.931 24.0983 160.722 23.3163 160.302 22.7043C159.894 22.0923 159.367 21.7863 158.721 21.7863C158.064 21.7863 157.537 22.0866 157.14 22.6873C156.744 23.288 156.545 24.0756 156.545 25.0503C156.545 26.0136 156.749 26.8013 157.157 27.4133Z" fill="white"/>
<path d="M18 18L19.5 14.5L21.9051 12.5759L22.5 12L25.5 13L28 12L30 14L32 18L29.5 21L30.5 24L25 28.5L20 24V21.5L18 18Z" fill="white"/>
<path d="M37.1965 17.0329C37.2096 16.7723 37.1965 16.5116 37.1703 16.264C37.1049 15.7949 37.0263 15.3257 36.9478 14.8566C36.9347 14.7653 36.8823 14.6871 36.8037 14.648C35.5337 13.8922 34.2506 13.1363 32.9806 12.3804C32.9283 12.3413 32.8366 12.3023 32.8759 12.2371C32.9152 12.1719 32.9937 12.2241 33.0461 12.2371L36.6597 13.0842C36.7121 13.1102 36.7645 13.1102 36.8168 13.0972C36.7906 13.0451 36.7383 13.019 36.6859 12.993C34.7613 11.781 32.8366 10.569 30.912 9.35699C30.8203 9.29183 30.7156 9.27879 30.6108 9.31789C28.791 9.91737 26.9711 10.5168 25.1512 11.1294C25.0202 11.1685 24.8893 11.1685 24.7715 11.1294C22.9516 10.5299 21.1317 9.9304 19.3118 9.31789C19.207 9.27879 19.1023 9.29183 19.0106 9.35699C17.086 10.569 15.1614 11.781 13.2367 12.993C13.1844 13.019 13.132 13.0581 13.0927 13.0972C13.132 13.1102 13.1844 13.0972 13.2236 13.0842L15.8422 12.4717L16.9158 12.211C16.9551 12.198 17.0075 12.185 17.0205 12.2241C17.0336 12.2632 17.0075 12.3153 16.9682 12.3283L16.9027 12.3674C15.672 13.0972 14.4282 13.84 13.1844 14.5698C13.0403 14.635 12.9356 14.7784 12.9094 14.9478C12.8047 15.6385 12.6607 16.3292 12.6737 17.046C12.6868 17.6845 12.6607 18.3231 12.7916 18.9617C12.8701 19.3266 12.8963 19.7045 12.988 20.0824C13.132 20.6168 13.3153 21.125 13.551 21.6202C13.7343 22.0242 13.9307 22.4022 14.1663 22.7801C14.1925 22.8192 14.2056 22.8713 14.2711 22.8974C14.3234 22.8583 14.3627 22.8062 14.3889 22.754L15.6851 20.9295C15.7244 20.8774 15.7505 20.8122 15.8291 20.8253C15.9077 20.8513 15.9077 20.9295 15.9077 20.9947V21.0598C15.8946 21.4769 15.8684 21.8939 15.8553 22.3109C15.8291 23.1711 15.7898 24.0442 15.7636 24.9043C15.7636 24.9825 15.7898 25.0477 15.8422 25.0998C16.8503 26.1163 17.8585 27.1328 18.8797 28.1493C18.9059 28.1754 18.919 28.2145 18.9845 28.2015C19.1023 28.006 19.2201 27.7975 19.3511 27.602C19.4689 27.4065 19.5867 27.198 19.7177 27.0155L19.7569 27.0286V28.9313C19.7438 29.0486 19.7962 29.1658 19.8879 29.244C21.5376 30.7818 23.1742 32.3327 24.8238 33.8704C24.85 33.9095 24.9024 33.9486 24.9417 33.9617L25.0202 33.8965C26.683 32.3327 28.3458 30.7688 30.0217 29.2049C30.0871 29.1398 30.1264 29.0616 30.1264 28.9704V27.1459C30.1264 27.1068 30.1002 27.0546 30.1657 27.0155L30.8989 28.2275C30.9513 28.2015 30.9905 28.1754 31.0167 28.1363C32.0249 27.1328 33.0199 26.1163 34.0281 25.1128C34.0935 25.0607 34.1197 24.9825 34.1066 24.9043C34.0804 24.357 34.0673 23.7966 34.0412 23.2492C34.015 22.5064 33.9888 21.7766 33.9626 21.0338C33.9626 20.9556 33.9495 20.8644 34.0412 20.8253C34.1328 20.7862 34.159 20.8904 34.2114 20.9426C34.6434 21.542 35.0755 22.1415 35.5075 22.754C35.5468 22.8062 35.5861 22.8453 35.6123 22.8974C35.6516 22.8713 35.6908 22.8322 35.7039 22.7801C35.9396 22.4152 36.136 22.0242 36.3193 21.6333C36.555 21.138 36.7383 20.6168 36.8823 20.0824C36.9739 19.7045 37.0132 19.3266 37.0787 18.9486C37.118 18.7271 37.1572 18.4925 37.1703 18.271C37.2096 17.8539 37.1965 17.4499 37.1965 17.0329ZM26.4212 26.6637C26.395 26.6637 26.3819 26.6376 26.3426 26.5985C26.251 26.4812 26.1724 26.3639 26.0807 26.2336C25.9629 26.3379 25.8582 26.4552 25.7534 26.5855C25.5832 26.781 25.413 26.9895 25.2428 27.185C25.2428 27.198 25.2297 27.198 25.2166 27.211C25.2035 27.2241 25.2035 27.2241 25.1904 27.2371C25.1773 27.2501 25.1643 27.2501 25.1512 27.2631C25.1381 27.2631 25.125 27.2762 25.0988 27.2762C25.0857 27.2762 25.0857 27.2762 25.0726 27.2762H25.0595C24.9155 27.2762 24.7715 27.2631 24.6274 27.2762C24.5489 27.2762 24.4703 27.2501 24.418 27.185C24.1823 26.8982 23.9335 26.6115 23.6979 26.3379C23.6717 26.3118 23.6455 26.2727 23.6193 26.2466C23.4753 26.39 23.3836 26.5594 23.2658 26.7158C23.1087 26.5594 22.9385 26.403 22.7945 26.2336C22.7552 26.1945 22.7421 26.1424 22.7421 26.0903V25.4647C22.7421 25.4126 22.7683 25.3605 22.8076 25.3474C22.8076 25.3474 22.8206 25.3474 22.8206 25.3344C23.4491 24.9825 24.0906 24.6437 24.7191 24.2918C24.7453 24.2788 24.7715 24.2658 24.7977 24.2527C24.8238 24.2527 24.8369 24.2527 24.8631 24.2527C24.8893 24.2527 24.9286 24.2658 24.9548 24.2918C25.5832 24.6437 26.1986 24.9825 26.827 25.3214C26.8925 25.3474 26.9318 25.4126 26.9187 25.4777V26.0642C26.9187 26.1424 26.8925 26.2206 26.827 26.2727C26.7092 26.39 26.6045 26.4943 26.4866 26.6115C26.4735 26.6246 26.4473 26.6506 26.4212 26.6637C26.4343 26.6637 26.4212 26.6637 26.4212 26.6637ZM31.0167 18.2449C30.8989 18.4534 30.7941 18.6619 30.6894 18.8705C30.6501 18.9356 30.5978 18.9877 30.5454 19.0399C30.0217 19.4569 29.5111 19.8739 28.9873 20.291C28.9088 20.3431 28.8695 20.4343 28.8695 20.5255C28.8695 20.8644 28.935 21.1902 28.9612 21.529C28.9743 21.7636 29.0397 21.9982 29.1052 22.2197C29.1052 22.2197 29.1052 22.2197 29.1052 22.2327C29.1314 22.324 29.1575 22.4152 29.1837 22.5064C29.1968 22.5585 29.2099 22.6107 29.223 22.6498C29.2492 22.7801 29.2623 22.7801 29.1314 22.8062L27.8614 23.0798C27.7697 23.0929 27.7566 23.132 27.7697 23.2232C27.7697 23.2362 27.7697 23.2492 27.7828 23.2623C27.7959 23.2753 27.809 23.2883 27.8352 23.2883H27.9268L29.0659 23.3014C29.1052 23.3014 29.1314 23.3014 29.1706 23.3144C29.2099 23.3274 29.2492 23.3535 29.2623 23.3926L29.2754 23.4056C29.2754 23.4187 29.2885 23.4187 29.2885 23.4317C29.3016 23.4838 29.3016 23.536 29.2885 23.5751C29.2492 23.7705 29.1575 23.953 29.0266 24.0963C28.9743 24.1485 28.9088 24.1876 28.8302 24.1876C28.4505 24.1876 28.0839 24.1094 27.7435 23.953L27.6912 23.9269C27.6388 23.9009 27.5733 23.8748 27.5602 23.9269C27.534 23.966 27.534 24.0051 27.5471 24.0442C27.5471 24.0442 27.5471 24.0572 27.5602 24.0572C27.5602 24.0703 27.5733 24.0833 27.5864 24.0833C27.6912 24.1745 27.7828 24.2918 27.953 24.2918C27.9792 24.2918 28.0316 24.3309 28.0708 24.37C28.097 24.3961 28.1101 24.4221 28.1363 24.4482C28.1363 24.4482 28.1363 24.4482 28.1363 24.4612C28.1494 24.4743 28.1494 24.5003 28.1494 24.5134C28.1232 24.6176 28.0316 24.7088 27.9268 24.7349H27.1936C27.1282 24.7349 27.0627 24.7088 27.0234 24.6437C26.958 24.5525 26.8532 24.5003 26.7354 24.5134C26.6568 24.5134 26.5914 24.5003 26.5259 24.4482C26.3557 24.3439 26.1855 24.2267 26.0153 24.1224C25.8713 24.0181 25.7272 23.9009 25.5963 23.7705C25.5047 23.6923 25.4261 23.6142 25.3476 23.536C25.3214 23.5229 25.3083 23.4969 25.2952 23.4838C25.269 23.4447 25.269 23.4056 25.2952 23.3535C25.3476 23.2232 25.3999 23.0798 25.4392 22.9495C25.4654 22.8974 25.4916 22.8453 25.5309 22.8062C25.6356 22.6889 25.7272 22.5846 25.8189 22.4673C25.8713 22.4022 25.9367 22.35 26.0022 22.3109C26.4997 22.0373 26.9972 21.7506 27.4948 21.4769C27.521 21.4508 27.5471 21.4378 27.5864 21.4247C27.6388 21.4117 27.665 21.3596 27.6519 21.3075C27.6519 21.2944 27.6519 21.2814 27.6519 21.2814V21.2684C27.6388 21.2423 27.5995 21.2423 27.5733 21.2293C27.4162 21.1771 27.246 21.138 27.0889 21.138C26.8008 21.125 26.4997 21.1771 26.251 21.3205C25.8451 21.529 25.4261 21.7245 25.0071 21.92C24.9155 21.9721 24.8107 21.9721 24.7322 21.92C24.2085 21.6724 23.6979 21.4247 23.1742 21.1771C23.148 21.1511 23.1087 21.1511 23.0825 21.138C22.7814 21.1511 22.4671 21.0859 22.166 21.2162C22.1267 21.2293 22.0744 21.2293 22.0744 21.2944C22.0744 21.3205 22.0744 21.3335 22.0875 21.3596C22.0875 21.3596 22.0875 21.3596 22.0875 21.3726C22.1005 21.3987 22.1267 21.4117 22.1529 21.4247C22.5064 21.6202 22.8468 21.8157 23.2003 22.0112C23.3574 22.1024 23.5146 22.1936 23.6717 22.2718C23.8288 22.35 23.9073 22.4804 24.0252 22.5846C24.0906 22.6498 24.1561 22.728 24.1954 22.7931C24.2609 22.8974 24.3132 23.0147 24.3525 23.132C24.3787 23.1971 24.4049 23.2753 24.4311 23.3405C24.4572 23.3926 24.4442 23.4578 24.3918 23.4969C24.1168 23.7445 23.8681 24.0181 23.5277 24.2136C23.436 24.2658 23.3444 24.3179 23.2658 24.383C23.1611 24.4743 23.0301 24.5134 22.8992 24.5003C22.8206 24.4873 22.7683 24.5394 22.729 24.5916C22.6635 24.6698 22.5588 24.7219 22.454 24.7088H21.7994C21.7078 24.6958 21.6423 24.6437 21.603 24.5655C21.603 24.5525 21.5899 24.5394 21.5899 24.5264C21.5899 24.5134 21.5768 24.5003 21.5768 24.4873C21.603 24.383 21.6816 24.2918 21.7863 24.2658C21.9434 24.2658 22.0351 24.1354 22.1398 24.0442C22.166 24.0181 22.1791 23.979 22.166 23.94C22.166 23.94 22.166 23.9269 22.1529 23.9269V23.9139L22.1398 23.9009C22.1005 23.8618 22.0482 23.8748 22.0089 23.9009C21.7994 24.0312 21.5637 24.0442 21.3412 24.1094C21.171 24.1485 21.0008 24.1615 20.8305 24.1485C20.7913 24.1485 20.752 24.1354 20.7258 24.1094C20.6734 24.0572 20.6211 23.9921 20.5818 23.94C20.5425 23.8878 20.5163 23.8227 20.4901 23.7575C20.4901 23.7445 20.477 23.7184 20.477 23.7054V23.6923C20.4639 23.6663 20.4639 23.6402 20.4509 23.6141C20.4509 23.6141 20.4509 23.6142 20.4509 23.6011C20.4509 23.5881 20.4378 23.5751 20.4378 23.562C20.4247 23.5229 20.4116 23.4838 20.4247 23.4447C20.4378 23.3274 20.5425 23.2492 20.6603 23.2753C21.0531 23.2623 21.4459 23.2623 21.8387 23.2623C21.9172 23.2623 21.9434 23.2362 21.9434 23.158C21.9434 23.145 21.9434 23.1189 21.9303 23.1189V23.1059C21.9172 23.0798 21.8911 23.0668 21.8518 23.0668C21.459 22.9886 21.0793 22.9104 20.6865 22.8192L20.5687 22.7931C20.5032 22.7801 20.477 22.7671 20.477 22.741C20.477 22.728 20.477 22.7019 20.4901 22.6498C20.5294 22.5064 20.5556 22.3631 20.608 22.2327C20.6996 21.92 20.7651 21.5942 20.7913 21.2553C20.8305 21.0077 20.8567 20.7601 20.8567 20.4995C20.8567 20.4734 20.8567 20.4604 20.8567 20.4343C20.8567 20.4213 20.8567 20.4082 20.8436 20.3952C20.8436 20.3822 20.8305 20.3691 20.8175 20.3561C20.8044 20.33 20.7782 20.317 20.752 20.291C20.2283 19.8739 19.7046 19.4569 19.1809 19.0268C19.1285 18.9877 19.0761 18.9356 19.0368 18.8835C19.0368 18.8835 19.0368 18.8835 19.0368 18.8705C18.9845 18.7662 18.9321 18.6619 18.8797 18.5577C18.8273 18.4534 18.775 18.3492 18.7095 18.2319C18.7095 18.2188 18.6964 18.2188 18.6964 18.2058V18.1928C18.6833 18.1406 18.6964 18.0885 18.7488 18.0494C19.0237 17.7627 19.2987 17.476 19.5736 17.2023C19.7177 17.085 19.8748 16.9678 20.0319 16.8765C20.0712 16.8635 20.1104 16.8505 20.1497 16.8505C20.3723 16.8374 20.5949 16.8765 20.8044 16.9678C20.8436 16.9808 20.8829 17.0069 20.9091 17.046C20.9091 17.059 20.9222 17.072 20.9222 17.085C20.9222 17.0981 20.9353 17.1111 20.9353 17.1241C20.9746 17.2936 21.0138 17.463 21.0531 17.6194C21.0531 17.6454 21.0662 17.6585 21.0662 17.6715C21.0662 17.6845 21.0793 17.6976 21.0924 17.7236C21.1186 17.7627 21.1317 17.7888 21.171 17.8148C21.3543 17.9843 21.5245 18.1537 21.6947 18.3361C21.747 18.4013 21.8387 18.4404 21.9172 18.4274H22.4148C22.4802 18.4274 22.5064 18.4274 22.5326 18.4404C22.5588 18.4534 22.5588 18.4925 22.5588 18.5577V19.3526C22.5588 19.4178 22.5719 19.4699 22.5981 19.5221C22.5981 19.5351 22.6112 19.5481 22.6243 19.5612C22.729 19.7436 22.8206 19.9261 22.9123 20.1085C22.9123 20.1085 22.9123 20.1085 22.9123 20.1215C22.9647 20.1997 23.0694 20.2388 23.1611 20.1997C23.2003 20.1737 23.1872 20.1346 23.1872 20.1085V19.7306C23.1872 19.4308 23.2003 19.1311 23.1872 18.8314C23.1742 18.7141 23.2265 18.5968 23.3182 18.5186C23.4884 18.3752 23.6586 18.2188 23.8026 18.0625C23.9859 17.867 24.1299 17.6324 24.1168 17.3457V17.072L24.0776 17.059C23.9728 17.1763 23.8812 17.3066 23.8026 17.4369C23.6979 17.5672 23.5931 17.6845 23.5015 17.8279C23.4491 17.9061 23.3574 17.9452 23.2658 17.9321C23.1087 17.9191 23.0563 17.9061 23.0301 17.8279C23.017 17.7888 23.0039 17.7497 22.9909 17.6845C22.9516 17.5151 22.9123 17.3457 22.873 17.1893C22.873 17.1632 22.8599 17.1372 22.8468 17.1241C22.8337 17.0981 22.8076 17.072 22.7814 17.059C22.2053 16.7592 21.6423 16.4595 21.0662 16.1598C20.8044 16.0294 20.5425 15.8861 20.2806 15.7558C20.2414 15.7427 20.2152 15.7167 20.2021 15.6776C20.189 15.6515 20.189 15.6385 20.189 15.6124V14.3744C20.189 14.3092 20.2152 14.2571 20.2676 14.218C20.9353 13.6967 21.603 13.1884 22.2708 12.6672C22.3362 12.602 22.4279 12.602 22.5064 12.6411C23.017 12.9148 23.5277 13.1884 24.0514 13.4621C24.3001 13.5924 24.5358 13.7228 24.7846 13.8531C24.85 13.8922 24.9548 13.8922 25.0202 13.8531C25.3606 13.6706 25.7141 13.4882 26.0546 13.3057C26.4735 13.0842 26.8925 12.8626 27.2984 12.6411C27.3638 12.602 27.4555 12.602 27.5079 12.6672C28.1756 13.1884 28.8433 13.7097 29.5111 14.218C29.5372 14.231 29.5503 14.2571 29.5634 14.2701C29.5765 14.2831 29.5765 14.2962 29.5896 14.3092C29.6027 14.3483 29.6158 14.3744 29.6027 14.4135C29.6027 14.8044 29.6027 15.1824 29.6027 15.5733C29.6158 15.6645 29.5634 15.7427 29.4718 15.7818C28.66 16.1989 27.8352 16.6289 27.0234 17.059C26.9711 17.085 26.9318 17.1372 26.9187 17.2023C26.8663 17.4108 26.8139 17.6194 26.7747 17.8409C26.7747 17.893 26.7223 17.9321 26.6699 17.9321C26.3688 17.9712 26.3688 17.9712 26.1855 17.7236C26.0415 17.5412 25.8974 17.3457 25.7534 17.1632C25.7403 17.1372 25.7272 17.0981 25.6618 17.1111C25.6618 17.3457 25.6356 17.5672 25.7403 17.7888C25.7534 17.8279 25.7796 17.8539 25.8058 17.893C25.8189 17.9191 25.8451 17.9582 25.8713 17.9843C26.0153 18.1797 26.1986 18.3361 26.3819 18.5055L26.395 18.5186C26.4473 18.5446 26.4866 18.5837 26.5259 18.6359C26.539 18.6489 26.5521 18.675 26.5521 18.688C26.5652 18.701 26.5652 18.7141 26.5783 18.7401C26.6045 18.8183 26.6176 18.8965 26.6176 18.9747C26.6045 19.3657 26.6176 19.7566 26.6176 20.1476C26.6176 20.1737 26.6045 20.2128 26.6176 20.2388C26.6176 20.2519 26.6437 20.2649 26.6699 20.2649C26.7485 20.2649 26.827 20.304 26.8794 20.1997C26.9841 19.9912 27.102 19.7697 27.2198 19.5612C27.246 19.509 27.246 19.4569 27.246 19.4048V18.6098C27.246 18.4665 27.246 18.4665 27.39 18.4665H27.9137C27.9661 18.4665 28.0316 18.4534 28.0708 18.4143C28.2803 18.2058 28.4767 17.9843 28.6993 17.8018C28.7386 17.7758 28.7386 17.7367 28.7386 17.6976C28.7779 17.5151 28.8302 17.3327 28.8695 17.1502C28.8826 17.1111 28.8826 17.059 28.935 17.046C29.0921 16.9808 29.2492 16.9417 29.4063 16.9026C29.7336 16.8505 29.9693 17.0459 30.1919 17.2284C30.493 17.5021 30.768 17.8148 31.056 18.1146C31.056 18.1146 31.0691 18.1276 31.0691 18.1406L31.0822 18.1537C31.0429 18.1667 31.0429 18.2058 31.0167 18.2449Z" fill="#282828"/>
<path d="M23.9598 43.8792L19.7963 51.0599H19.7701H19.757C19.7439 51.0338 19.7178 51.0078 19.7047 50.9817L15.5804 43.9052C15.7114 43.8531 23.5932 43.8401 23.9598 43.8792ZM29.1446 51.6463L25.0072 44.5308C24.9941 44.5178 24.9811 44.4917 24.968 44.4787H24.9549H24.9287L20.7652 51.6594C21.1972 51.6985 29.0136 51.6854 29.1446 51.6463ZM30.1396 51.099L34.3293 43.8661H25.9368L30.1396 51.099ZM29.1446 52.7801H20.7652L24.968 59.9999L29.1446 52.7801Z" fill="#FFAE01"/>
<path d="M36.2801 24.8526L40.4567 17.6328L44.6464 24.8396C44.5154 24.8787 36.699 24.8917 36.2801 24.8526ZM4.20278 42.1854L8.39247 34.9525H0L4.20278 42.1854ZM45.6676 42.1854L49.8573 34.9525H41.4648L45.6676 42.1854ZM13.5641 42.7197L9.37442 35.5129L5.19783 42.7327C5.62989 42.7718 13.4332 42.7588 13.5641 42.7197ZM9.36133 17.6719C9.20422 17.8804 5.23711 24.7484 5.21092 24.8657H13.5379C13.4856 24.7093 9.46607 17.7892 9.36133 17.6719ZM18.7488 34.9525H10.3695L14.5723 42.1854L18.7488 34.9525ZM31.0953 34.9525L35.2981 42.1854L39.4878 34.9525H31.0953ZM36.2932 42.7458H44.6856L40.4828 35.5129L36.2932 42.7458ZM13.5641 25.9864H5.18474L9.38752 33.2062L13.5641 25.9864ZM44.6594 25.9864H36.2801L40.4828 33.2062L44.6594 25.9864ZM4.18969 26.5338L0 33.7666H8.37937L4.18969 26.5338ZM18.7488 33.7536L14.5461 26.5338L10.3695 33.7536H18.7488ZM31.0953 33.7536H39.4747L35.2719 26.5338L31.0953 33.7536ZM49.8442 33.7536L45.6414 26.5338L41.4648 33.7536H49.8442ZM20.752 34.9004L24.9548 42.1202L29.1314 34.9004H20.752ZM23.9336 42.6806C23.855 42.4851 19.8355 35.565 19.7439 35.4869L15.5804 42.6806H23.9336ZM30.1265 35.4608L25.9499 42.6806H34.3292L30.1265 35.4608Z" fill="#282828"/>
<path d="M15.5804 3.41415C15.8815 3.45325 16.1172 3.50538 16.3136 3.53144C16.8635 3.60963 17.2694 3.70086 17.3872 3.72692C17.5836 3.76602 17.7407 3.80512 17.9633 3.85724C18.7488 4.06576 18.9976 4.22214 18.9976 4.22214C19.0369 4.23518 19.0762 4.24821 19.1154 4.28731C19.1416 4.31337 19.1678 4.35247 19.1678 4.39156C19.1678 4.41763 19.1547 4.44369 19.1416 4.46976C19.1023 4.50885 19.0631 4.53492 19.0107 4.53492C18.9452 4.56098 18.8798 4.60008 18.8274 4.63917C18.6441 4.78253 18.5786 5.03014 18.6703 5.23865C18.775 5.43413 18.906 5.62962 19.0631 5.786C19.2333 5.98148 19.4166 6.09877 19.6915 6.04665C19.8093 6.02058 19.9403 6.07271 20.0581 5.98148C20.2414 5.83813 20.4116 5.70781 20.4902 5.48626C20.5556 5.29078 20.5949 5.08227 20.5949 4.86072C20.5818 4.17002 20.5949 3.46628 20.608 2.77558C20.6735 2.99712 20.752 3.20564 20.7913 3.42718C20.8568 3.70086 20.9615 3.9615 21.0924 4.20911C21.1972 4.40459 21.3019 4.60008 21.4329 4.79556C21.5245 4.92588 21.6292 5.04317 21.7471 5.16046C22.0613 5.47323 22.5196 5.59052 22.9516 5.4602C23.0171 5.44717 23.0825 5.40807 23.1349 5.36897C23.3968 5.16046 23.567 4.86072 23.6063 4.52188C23.6455 4.31337 23.5408 4.11789 23.3575 4.01363C23.2658 3.9615 23.1611 3.92241 23.0564 3.89634C22.9909 3.88331 22.9254 3.87028 22.86 3.84421C22.8207 3.83118 22.7683 3.81815 22.7552 3.76602C22.7421 3.71389 22.7945 3.67479 22.8338 3.64873C23.4753 3.25777 23.8943 2.67132 24.274 2.04578C24.4442 1.78513 24.5751 1.49843 24.693 1.21172C24.7846 0.97714 24.8632 0.729529 24.9024 0.49495C24.9024 0.429789 24.9155 0.364629 24.9417 0.3125C24.981 0.3125 24.9941 0.338564 24.9941 0.364629C25.0596 0.781657 25.1905 1.19869 25.3738 1.57662C25.6749 2.18913 26.0677 2.76254 26.539 3.24473C26.67 3.37506 26.8271 3.49234 26.9842 3.5966C27.0104 3.60963 27.0366 3.62267 27.0627 3.64873C27.1151 3.67479 27.1675 3.70086 27.1544 3.76602C27.1413 3.83118 27.0758 3.84421 27.0235 3.85724C26.8794 3.89634 26.7485 3.93544 26.6176 3.98757C26.4212 4.05273 26.2772 4.23518 26.2903 4.44369C26.2903 4.62614 26.3426 4.82162 26.4343 4.97801C26.5259 5.12136 26.6307 5.25168 26.7616 5.35594C26.9187 5.4602 27.102 5.51233 27.2853 5.4993C27.5603 5.51233 27.8221 5.4211 28.0447 5.25168C28.2673 5.06923 28.4637 4.84769 28.5946 4.60008C28.7648 4.3264 28.9088 4.03969 29.0136 3.73996C29.0921 3.49234 29.1576 3.24473 29.2231 2.99712C29.2361 2.94499 29.2623 2.89287 29.2754 2.81467C29.3016 2.89287 29.3016 2.97106 29.2885 3.04925C29.2885 3.72692 29.2754 4.40459 29.3016 5.08227C29.3016 5.4211 29.4718 5.74691 29.7468 5.95542C29.8384 6.03361 29.9563 6.07271 30.061 6.05968C30.205 6.05968 30.3359 6.05968 30.48 6.05968C30.5585 6.05968 30.624 6.03361 30.6764 5.98148C30.8597 5.79903 31.0168 5.61658 31.1739 5.40807C31.3441 5.14743 31.2786 4.79556 31.0299 4.62614C31.0168 4.61311 31.0037 4.61311 30.9906 4.60008C30.9251 4.56098 30.8597 4.53492 30.7942 4.49582C30.6894 4.43066 30.6894 4.3655 30.7811 4.28731C30.8466 4.23518 30.9251 4.19608 31.0168 4.17002C31.5274 3.97453 32.0511 3.81815 32.5879 3.71389C33.1378 3.5966 33.6877 3.53144 34.2376 3.44022C34.2769 3.44022 34.3161 3.44022 34.3554 3.44022C34.2114 3.50538 34.0674 3.58357 33.9365 3.67479C33.5306 3.94847 33.2294 4.31337 32.9283 4.67827C32.5879 5.10833 32.2737 5.55142 32.0118 6.03361C31.7892 6.41155 31.5928 6.80251 31.4095 7.21954C31.2262 7.6496 31.0429 8.09269 30.8335 8.50972C30.7942 8.58791 30.7287 8.64004 30.6502 8.66611C28.8041 9.25255 26.958 9.82597 25.1119 10.4124C25.0072 10.4515 24.8893 10.4385 24.7715 10.3994C22.9385 9.81294 21.1055 9.23952 19.2725 8.66611C19.1809 8.64004 19.1154 8.57488 19.0762 8.49669C18.8667 8.07966 18.6834 7.6496 18.5001 7.20651C18.3168 6.76341 18.1073 6.39851 17.8978 6.00755C17.8192 5.87723 17.7407 5.74691 17.6621 5.60355C17.3348 5.06923 16.9551 4.57401 16.5231 4.11789C16.2481 3.85724 15.947 3.62267 15.6197 3.45325C15.6197 3.45325 15.5411 3.41415 15.5411 3.40112C15.5149 3.40112 15.5542 3.40112 15.5804 3.41415Z" fill="#FEAD00"/>
<path d="M29.5111 3.8707C29.5111 4.26166 29.498 4.6396 29.5111 5.03056C29.5111 5.27817 29.6158 5.51275 29.7991 5.66914C29.8646 5.7343 29.9563 5.77339 30.0479 5.77339C30.1134 5.76036 30.1919 5.76036 30.2574 5.77339C30.3883 5.78642 30.5192 5.7343 30.5847 5.63004C30.6895 5.49972 30.7942 5.3694 30.8858 5.23907C30.9906 5.12179 30.9644 4.93934 30.8466 4.83508C30.8204 4.82205 30.7942 4.79598 30.768 4.79598C30.6894 4.75689 30.624 4.71779 30.5585 4.67869C30.3883 4.57444 30.349 4.36592 30.4407 4.1965C30.4669 4.15741 30.4931 4.13134 30.5192 4.10528C30.624 4.01405 30.7418 3.94889 30.8858 3.9098C31.3703 3.72735 31.8809 3.57096 32.3915 3.4667C33.0069 3.33638 33.6222 3.24516 34.2376 3.16696C34.3031 3.16696 34.3685 3.16696 34.4209 3.18C34.5256 3.20606 34.5911 3.28425 34.6042 3.38851C34.6173 3.49277 34.578 3.58399 34.4864 3.63612C34.4733 3.64915 34.4471 3.66218 34.4209 3.66218C34.0412 3.81857 33.7008 4.07921 33.4258 4.39199C32.9283 4.93934 32.5093 5.53881 32.1427 6.17739C31.8678 6.67261 31.6059 7.1939 31.3965 7.72821C31.2655 8.02795 31.1477 8.34072 30.9906 8.64046C30.9382 8.77079 30.8204 8.86201 30.6894 8.90111C28.8565 9.47452 27.0104 10.061 25.1774 10.6474C25.0072 10.6995 24.8239 10.6995 24.6537 10.6474C22.8207 10.061 20.9877 9.47452 19.1416 8.90111C18.9976 8.86201 18.8929 8.77078 18.8274 8.62743C18.6048 8.19737 18.4215 7.74125 18.2382 7.29815C18.068 6.88112 17.8454 6.50319 17.636 6.12526C17.5705 6.00797 17.505 5.90371 17.4265 5.78643C17.0599 5.17391 16.6147 4.61353 16.1041 4.11831C15.9077 3.93586 15.6851 3.77947 15.4233 3.68825C15.3971 3.67522 15.3709 3.66218 15.3447 3.64915C15.2531 3.59702 15.2007 3.49277 15.2269 3.38851C15.24 3.28425 15.3185 3.20606 15.4102 3.19303C15.5411 3.16696 15.672 3.16696 15.803 3.20606C16.5362 3.32335 17.2694 3.42761 17.9895 3.61006C18.3692 3.71431 18.7488 3.84464 19.1154 4.00102C19.2071 4.02708 19.2987 4.07921 19.3773 4.15741C19.4951 4.28773 19.482 4.48321 19.3642 4.61353C19.2987 4.67869 19.2202 4.73082 19.1416 4.76992C18.8929 4.88721 18.8667 5.0045 18.9976 5.23907C19.1154 5.43456 19.2595 5.60397 19.4297 5.74733C19.4559 5.77339 19.4951 5.78643 19.5344 5.78643C19.5868 5.78643 19.6261 5.78643 19.6784 5.78643C19.7832 5.77339 19.8748 5.81249 19.9796 5.7343C20.1105 5.64307 20.2152 5.51275 20.2807 5.35636C20.3331 5.19998 20.3593 5.01753 20.3724 4.84811C20.3593 4.30076 20.3724 3.75341 20.3724 3.20606C20.3724 3.06271 20.3724 2.93238 20.3593 2.78903C20.3462 2.71084 20.3593 2.63265 20.3854 2.55445C20.4116 2.43716 20.5033 2.34594 20.6211 2.34594C20.7389 2.34594 20.8306 2.42413 20.8568 2.54142C20.9222 2.78903 21.0008 3.02361 21.0532 3.27122C21.1055 3.53186 21.1972 3.77947 21.3281 4.01405C21.4721 4.33986 21.6685 4.65263 21.9173 4.91327C22.1399 5.14785 22.4672 5.25211 22.7814 5.19998C22.8862 5.18695 22.9778 5.14785 23.0564 5.06966C23.2266 4.91327 23.3313 4.71779 23.3575 4.48321C23.3706 4.32682 23.3575 4.26166 23.2135 4.18347C23.0956 4.11831 22.9647 4.07921 22.8338 4.05315C22.7683 4.04012 22.7029 4.01405 22.6374 3.97496C22.4803 3.88373 22.441 3.67522 22.5327 3.53186C22.5458 3.51883 22.5588 3.5058 22.5719 3.47973C22.6112 3.44064 22.6505 3.40154 22.7029 3.37548C22.9385 3.23212 23.148 3.06271 23.3313 2.86722C23.8157 2.33291 24.2085 1.70736 24.4704 1.02969C24.5751 0.795113 24.6406 0.547502 24.6668 0.299892C24.6668 0.208667 24.7061 0.117442 24.7846 0.0653132C24.9024 -0.038944 25.0857 -0.0128797 25.1905 0.10441C25.2167 0.143506 25.2429 0.195635 25.256 0.234731C25.4131 1.25124 25.9237 2.07226 26.5783 2.84116C26.7616 3.06271 26.9842 3.24516 27.233 3.40154C27.2591 3.41457 27.2722 3.42761 27.2853 3.44064C27.3901 3.51883 27.4424 3.64915 27.4294 3.77947C27.4032 3.9098 27.3115 4.00102 27.1937 4.04012C27.1151 4.06618 27.0366 4.07921 26.958 4.10528C26.8795 4.13134 26.7878 4.15741 26.7223 4.1965C26.6045 4.2356 26.5259 4.36592 26.5652 4.48321C26.6045 4.73082 26.7354 4.9654 26.9318 5.12179C26.9842 5.16088 27.0366 5.18695 27.102 5.18695C27.4163 5.25211 27.7436 5.16088 27.9792 4.93934C28.1233 4.80901 28.2411 4.66566 28.3328 4.49624C28.5684 4.11831 28.7517 3.70128 28.8696 3.27122C28.9219 3.03664 29.0005 2.78903 29.0659 2.55445C29.0921 2.42413 29.1969 2.33291 29.3278 2.34594C29.4456 2.35897 29.5373 2.43716 29.5635 2.55445C29.5766 2.60658 29.5766 2.67174 29.5766 2.72387C29.5242 3.11483 29.5242 3.8707 29.5111 3.8707ZM15.5542 3.41457C15.5673 3.42761 16.2612 3.84464 16.51 4.11831C16.942 4.57444 17.3217 5.06966 17.6491 5.60397C17.7276 5.7343 17.8193 5.86462 17.8847 6.00797C18.0942 6.39894 18.3168 6.7899 18.487 7.20693C18.6572 7.62396 18.8536 8.08008 19.0631 8.49711C19.1024 8.5753 19.1678 8.64046 19.2595 8.66653C21.0925 9.23994 22.9123 9.82639 24.7453 10.3998C24.8501 10.4389 24.9679 10.4389 25.0857 10.4128C26.9187 9.82639 28.7648 9.23994 30.5978 8.66653C30.6764 8.64046 30.7549 8.58834 30.7811 8.51014C30.9906 8.09311 31.1739 7.66305 31.3572 7.21996C31.5274 6.81596 31.7369 6.425 31.9594 6.03404C32.2213 5.55185 32.5224 5.09572 32.8628 4.67869C33.164 4.31379 33.4651 3.94889 33.871 3.67522C34.0019 3.58399 34.1459 3.5058 34.29 3.44064C34.2507 3.44064 34.2114 3.44064 34.1721 3.44064C33.6222 3.53186 33.0723 3.59702 32.5224 3.71431C31.9856 3.81857 31.4619 3.97496 30.9513 4.17044C30.8727 4.1965 30.7942 4.2356 30.7156 4.28773C30.624 4.36592 30.624 4.43108 30.7287 4.49624C30.7942 4.53534 30.8597 4.5614 30.9251 4.6005C31.2001 4.75689 31.2917 5.09572 31.1346 5.3694C31.1346 5.38243 31.1215 5.39546 31.1084 5.39546C30.9644 5.60397 30.7942 5.79946 30.624 5.96887C30.5716 6.021 30.5062 6.04707 30.4276 6.04707C30.2836 6.04707 30.1526 6.04707 30.0086 6.04707C29.8908 6.04707 29.773 6.00797 29.6944 5.94281C29.4195 5.7343 29.2623 5.40849 29.2492 5.06966C29.2231 4.39199 29.2492 3.71431 29.2362 3.03664C29.2492 2.95845 29.2492 2.88026 29.2231 2.80206C29.1969 2.88026 29.1838 2.93238 29.1707 2.98451C29.1052 3.23212 29.0529 3.49277 28.9612 3.72735C28.8434 4.02708 28.7124 4.31379 28.5422 4.58747C28.3982 4.83508 28.2149 5.05662 27.9923 5.23907C27.7829 5.40849 27.521 5.49972 27.2461 5.48669C27.0628 5.49972 26.8795 5.44759 26.7223 5.34333C26.5914 5.23907 26.4867 5.10875 26.395 4.9654C26.3034 4.79598 26.251 4.61353 26.251 4.41805C26.2379 4.20954 26.3819 4.02708 26.5783 3.96192C26.7092 3.9098 26.8533 3.8707 26.9842 3.8316C27.0366 3.81857 27.102 3.80554 27.1151 3.74038C27.1282 3.67522 27.0628 3.64915 27.0235 3.62309C26.9973 3.61006 26.9711 3.59702 26.9449 3.57096C26.7878 3.4667 26.6307 3.34941 26.4998 3.21909C26.0284 2.72387 25.6356 2.16349 25.3345 1.55098C25.1381 1.17305 25.0072 0.769049 24.9548 0.338988C24.9548 0.312924 24.9417 0.28686 24.9024 0.28686C24.8763 0.338988 24.8632 0.404149 24.8632 0.46931C24.8108 0.71692 24.7453 0.964531 24.6537 1.19911C24.5489 1.48582 24.4049 1.77252 24.2347 2.03317C23.855 2.64568 23.4361 3.24516 22.7945 3.63612C22.7552 3.66218 22.7029 3.68825 22.716 3.75341C22.729 3.81857 22.7814 3.81857 22.8207 3.8316C22.8862 3.84464 22.9516 3.8707 23.0171 3.88373C23.1218 3.9098 23.2266 3.94889 23.3182 4.00102C23.5015 4.09225 23.6063 4.30076 23.567 4.50927C23.5277 4.84811 23.3575 5.14785 23.0956 5.35636C23.0433 5.39546 22.9778 5.43456 22.9123 5.44759C22.4934 5.57791 22.022 5.46062 21.7209 5.14785C21.6031 5.04359 21.4983 4.91327 21.4067 4.78295C21.2758 4.6005 21.171 4.40502 21.0663 4.1965C20.9353 3.94889 20.8306 3.68825 20.7651 3.41457C20.7259 3.19303 20.6473 2.98451 20.5818 2.76297C20.5687 3.4667 20.5687 4.15741 20.5687 4.84811C20.5687 5.05662 20.5295 5.26514 20.464 5.47365C20.3854 5.6952 20.2152 5.83855 20.0319 5.96887C19.9141 6.0601 19.7963 6.021 19.6653 6.03404C19.4035 6.08616 19.2071 5.96887 19.0369 5.77339C18.8798 5.61701 18.7488 5.43456 18.6441 5.22604C18.5394 5.01753 18.6048 4.76992 18.8012 4.62656C18.8536 4.58747 18.9191 4.54837 18.9845 4.52231C19.0631 4.48321 19.1547 4.45715 19.1547 4.36592C19.1547 4.2747 19.05 4.2356 18.9714 4.1965C18.6048 4.04012 18.2382 3.9098 17.8454 3.81857C17.3348 3.68825 16.8242 3.59702 16.3005 3.51883C16.1172 3.49277 15.5542 3.38851 15.5542 3.41457Z" fill="#282828"/>
</svg>
