<svg width="209" height="48" viewBox="0 0 209 48" fill="none" xmlns="http://www.w3.org/2000/svg">
<path d="M62.2479 45.741H61.2058V41.9254H56.6208V45.741H55.5787V37.3606H56.6208V40.9846H61.2058V37.3606H62.2479V45.741Z" fill="#BFBFBF"/>
<path d="M66.2425 40.4735C65.7755 40.4735 65.3876 40.6361 65.0788 40.9613C64.7739 41.2827 64.606 41.697 64.5752 42.2042H67.8461C67.8345 41.6931 67.682 41.2769 67.3887 40.9555C67.0954 40.6342 66.7133 40.4735 66.2425 40.4735ZM67.8229 44.0103H68.8129C68.7241 44.5446 68.4462 44.9841 67.9792 45.3287C67.5161 45.6733 66.9584 45.8456 66.3061 45.8456C65.4455 45.8456 64.7681 45.5668 64.2741 45.0093C63.7801 44.4517 63.5331 43.6967 63.5331 42.7443C63.5331 41.7996 63.7801 41.0388 64.2741 40.4619C64.772 39.885 65.4339 39.5965 66.2598 39.5965C67.0703 39.5965 67.711 39.8695 68.1818 40.4154C68.6527 40.9613 68.8881 41.6931 68.8881 42.6107V42.994H64.5694V43.0521C64.5694 43.6328 64.7276 44.0975 65.0441 44.4459C65.3606 44.7944 65.789 44.9686 66.3293 44.9686C66.7075 44.9686 67.0298 44.8815 67.2961 44.7073C67.5624 44.533 67.738 44.3007 67.8229 44.0103Z" fill="#BFBFBF"/>
<path d="M72.8306 44.957V40.4851C72.1861 40.5006 71.6747 40.7077 71.2964 41.1065C70.9182 41.5053 70.7291 42.0435 70.7291 42.7211C70.7291 43.3986 70.9182 43.9368 71.2964 44.3356C71.6747 44.7305 72.1861 44.9376 72.8306 44.957ZM75.3315 44.3356C75.7098 43.9368 75.8989 43.3986 75.8989 42.7211C75.8989 42.0435 75.7098 41.5073 75.3315 41.1123C74.9572 40.7135 74.4477 40.5045 73.8032 40.4851V44.957C74.4477 44.9415 74.9572 44.7344 75.3315 44.3356ZM72.8306 45.8165C71.8889 45.7972 71.1343 45.5087 70.567 44.9512C69.9997 44.3936 69.716 43.6503 69.716 42.7211C69.716 41.7918 69.9997 41.0485 70.567 40.4909C71.1343 39.9295 71.8889 39.6411 72.8306 39.6256V37.7149H73.8032V39.6256C74.741 39.6449 75.4936 39.9353 76.061 40.4967C76.6283 41.0543 76.912 41.7957 76.912 42.7211C76.912 43.6503 76.6283 44.3956 76.061 44.957C75.4936 45.5145 74.741 45.801 73.8032 45.8165V47.7563H72.8306V45.8165Z" fill="#BFBFBF"/>
<path d="M82.2149 39.7011V40.5316H80.2697V45.741H79.274V40.5316H77.3288V39.7011H82.2149Z" fill="#BFBFBF"/>
<path d="M85.4511 40.4735C84.9841 40.4735 84.5962 40.6361 84.2874 40.9613C83.9825 41.2827 83.8147 41.697 83.7838 42.2042H87.0547C87.0431 41.6931 86.8907 41.2769 86.5973 40.9555C86.304 40.6342 85.9219 40.4735 85.4511 40.4735ZM87.0315 44.0103H88.0215C87.9327 44.5446 87.6548 44.9841 87.1878 45.3287C86.7247 45.6733 86.167 45.8456 85.5147 45.8456C84.6541 45.8456 83.9767 45.5668 83.4827 45.0093C82.9887 44.4517 82.7417 43.6967 82.7417 42.7443C82.7417 41.7996 82.9887 41.0388 83.4827 40.4619C83.9806 39.885 84.6425 39.5965 85.4684 39.5965C86.2789 39.5965 86.9196 39.8695 87.3905 40.4154C87.8613 40.9613 88.0967 41.6931 88.0967 42.6107V42.994H83.778V43.0521C83.778 43.6328 83.9362 44.0975 84.2527 44.4459C84.5692 44.7944 84.9976 44.9686 85.5379 44.9686C85.9161 44.9686 86.2384 44.8815 86.5047 44.7073C86.771 44.533 86.9466 44.3007 87.0315 44.0103Z" fill="#BFBFBF"/>
<path d="M93.087 40.5316H90.2098V45.741H89.2141V39.7011H93.087V40.5316Z" fill="#BFBFBF"/>
<path d="M95.8832 44.986C96.3579 44.986 96.7555 44.8389 97.0758 44.5446C97.4 44.2465 97.5621 43.8806 97.5621 43.447V42.9534L95.9527 43.0521C95.5475 43.0792 95.2329 43.1779 95.0091 43.3483C94.7891 43.5186 94.6791 43.7471 94.6791 44.0336C94.6791 44.3201 94.7891 44.5505 95.0091 44.7247C95.229 44.8989 95.5204 44.986 95.8832 44.986ZM95.6574 45.8456C95.0592 45.8456 94.5749 45.6791 94.2044 45.3461C93.8377 45.0131 93.6544 44.5756 93.6544 44.0336C93.6544 43.5148 93.8435 43.1005 94.2217 42.7907C94.6038 42.481 95.1422 42.3068 95.8369 42.2681L97.5621 42.1693V41.6641C97.5621 41.2962 97.4463 41.0078 97.2147 40.7987C96.9832 40.5897 96.659 40.4851 96.2422 40.4851C95.8601 40.4851 95.5494 40.5703 95.3101 40.7407C95.0708 40.9071 94.9184 41.1414 94.8527 41.4434H93.8802C93.9149 40.9052 94.1465 40.4638 94.5749 40.1192C95.0071 39.7708 95.5706 39.5965 96.2653 39.5965C96.9716 39.5965 97.5312 39.7746 97.9442 40.1309C98.361 40.4871 98.5694 40.9652 98.5694 41.5653V45.741H97.6142V44.7014H97.591C97.4097 45.046 97.1433 45.3229 96.7921 45.5319C96.4409 45.741 96.0627 45.8456 95.6574 45.8456Z" fill="#BFBFBF"/>
<path d="M101.968 45.8456C101.304 45.8456 100.754 45.6946 100.318 45.3926C99.8816 45.0867 99.6385 44.6802 99.5883 44.173H100.607C100.665 44.4362 100.812 44.6414 101.047 44.7886C101.286 44.9357 101.593 45.0093 101.968 45.0093C102.396 45.0093 102.73 44.9183 102.969 44.7363C103.209 44.5505 103.328 44.3065 103.328 44.0045C103.328 43.6677 103.216 43.4199 102.992 43.2612C102.769 43.0985 102.427 43.0172 101.968 43.0172H101.065V42.1926H101.968C102.74 42.1926 103.126 41.8983 103.126 41.3098C103.126 41.0465 103.029 40.8355 102.836 40.6768C102.647 40.518 102.365 40.4387 101.991 40.4387C101.636 40.4387 101.342 40.5103 101.111 40.6535C100.879 40.7968 100.742 40.9884 100.7 41.2285H99.7215C99.7871 40.729 100.023 40.3322 100.428 40.0379C100.833 39.7437 101.354 39.5965 101.991 39.5965C102.662 39.5965 103.183 39.7456 103.554 40.0437C103.924 40.338 104.11 40.7329 104.11 41.2285C104.11 41.5382 104.017 41.8151 103.832 42.059C103.65 42.3029 103.411 42.4597 103.114 42.5294V42.5759C103.504 42.661 103.801 42.8256 104.005 43.0695C104.214 43.3096 104.318 43.6057 104.318 43.9581C104.318 44.5233 104.102 44.9802 103.67 45.3287C103.241 45.6733 102.674 45.8456 101.968 45.8456Z" fill="#BFBFBF"/>
<path d="M107.971 45.8456C107.13 45.8456 106.454 45.5648 105.945 45.0034C105.435 44.4382 105.181 43.6774 105.181 42.7211C105.181 41.7647 105.435 41.0059 105.945 40.4445C106.454 39.8792 107.13 39.5965 107.971 39.5965C108.809 39.5965 109.482 39.8792 109.992 40.4445C110.501 41.0059 110.756 41.7647 110.756 42.7211C110.756 43.6735 110.501 44.4324 109.992 44.9976C109.482 45.5629 108.809 45.8456 107.971 45.8456ZM106.68 44.3646C107 44.7595 107.431 44.957 107.971 44.957C108.511 44.957 108.94 44.7615 109.256 44.3704C109.573 43.9755 109.731 43.4257 109.731 42.7211C109.731 42.0164 109.573 41.4685 109.256 41.0775C108.94 40.6826 108.511 40.4851 107.971 40.4851C107.431 40.4851 107 40.6826 106.68 41.0775C106.364 41.4724 106.205 42.0203 106.205 42.7211C106.205 43.4218 106.364 43.9697 106.68 44.3646Z" fill="#BFBFBF"/>
<path d="M114.31 40.52H112.869V42.21H114.16C114.909 42.21 115.283 41.9235 115.283 41.3505C115.283 41.0833 115.2 40.8781 115.034 40.7348C114.868 40.5916 114.627 40.52 114.31 40.52ZM114.241 43.023H112.869V44.9221H114.42C114.783 44.9221 115.061 44.8428 115.254 44.684C115.447 44.5214 115.543 44.2872 115.543 43.9813C115.543 43.3425 115.109 43.023 114.241 43.023ZM111.873 45.741V39.7011H114.449C115.013 39.7011 115.457 39.8385 115.781 40.1134C116.105 40.3883 116.267 40.7658 116.267 41.2459C116.267 41.5518 116.171 41.8305 115.978 42.0822C115.788 42.3339 115.555 42.4887 115.277 42.5468V42.5933C115.655 42.6475 115.958 42.8024 116.186 43.0579C116.418 43.3134 116.533 43.629 116.533 44.0045C116.533 44.5388 116.348 44.9628 115.978 45.2764C115.611 45.5861 115.107 45.741 114.467 45.741H111.873Z" fill="#BFBFBF"/>
<path d="M120.186 45.8456C119.345 45.8456 118.67 45.5648 118.16 45.0034C117.651 44.4382 117.396 43.6774 117.396 42.7211C117.396 41.7647 117.651 41.0059 118.16 40.4445C118.67 39.8792 119.345 39.5965 120.186 39.5965C121.024 39.5965 121.697 39.8792 122.207 40.4445C122.716 41.0059 122.971 41.7647 122.971 42.7211C122.971 43.6735 122.716 44.4324 122.207 44.9976C121.697 45.5629 121.024 45.8456 120.186 45.8456ZM118.895 44.3646C119.216 44.7595 119.646 44.957 120.186 44.957C120.727 44.957 121.155 44.7615 121.472 44.3704C121.788 43.9755 121.946 43.4257 121.946 42.7211C121.946 42.0164 121.788 41.4685 121.472 41.0775C121.155 40.6826 120.727 40.4851 120.186 40.4851C119.646 40.4851 119.216 40.6826 118.895 41.0775C118.579 41.4724 118.421 42.0203 118.421 42.7211C118.421 43.4218 118.579 43.9697 118.895 44.3646Z" fill="#BFBFBF"/>
<path d="M126.508 40.4735C126.041 40.4735 125.653 40.6361 125.345 40.9613C125.04 41.2827 124.872 41.697 124.841 42.2042H128.112C128.1 41.6931 127.948 41.2769 127.654 40.9555C127.361 40.6342 126.979 40.4735 126.508 40.4735ZM128.089 44.0103H129.079C128.99 44.5446 128.712 44.9841 128.245 45.3287C127.782 45.6733 127.224 45.8456 126.572 45.8456C125.711 45.8456 125.034 45.5668 124.54 45.0093C124.046 44.4517 123.799 43.6967 123.799 42.7443C123.799 41.7996 124.046 41.0388 124.54 40.4619C125.038 39.885 125.7 39.5965 126.526 39.5965C127.336 39.5965 127.977 39.8695 128.448 40.4154C128.918 40.9613 129.154 41.6931 129.154 42.6107V42.994H124.835V43.0521C124.835 43.6328 124.993 44.0975 125.31 44.4459C125.626 44.7944 126.055 44.9686 126.595 44.9686C126.973 44.9686 127.295 44.8815 127.562 44.7073C127.828 44.533 128.004 44.3007 128.089 44.0103Z" fill="#BFBFBF"/>
<path d="M135.204 45.8456C134.362 45.8456 133.687 45.5648 133.177 45.0034C132.668 44.4382 132.413 43.6774 132.413 42.7211C132.413 41.7647 132.668 41.0059 133.177 40.4445C133.687 39.8792 134.362 39.5965 135.204 39.5965C136.041 39.5965 136.715 39.8792 137.224 40.4445C137.733 41.0059 137.988 41.7647 137.988 42.7211C137.988 43.6735 137.733 44.4324 137.224 44.9976C136.715 45.5629 136.041 45.8456 135.204 45.8456ZM133.913 44.3646C134.233 44.7595 134.663 44.957 135.204 44.957C135.744 44.957 136.172 44.7615 136.489 44.3704C136.805 43.9755 136.963 43.4257 136.963 42.7211C136.963 42.0164 136.805 41.4685 136.489 41.0775C136.172 40.6826 135.744 40.4851 135.204 40.4851C134.663 40.4851 134.233 40.6826 133.913 41.0775C133.596 41.4724 133.438 42.0203 133.438 42.7211C133.438 43.4218 133.596 43.9697 133.913 44.3646Z" fill="#BFBFBF"/>
<path d="M141.687 45.8456C140.761 45.8456 140.059 45.5377 139.58 44.9221C139.105 44.3065 138.868 43.4005 138.868 42.2042C138.868 40.5277 139.113 39.3178 139.603 38.5744C140.097 37.831 140.925 37.438 142.087 37.3955L142.533 37.378C143.235 37.3432 143.758 37.2348 144.102 37.0528V37.9356C144.005 38.0246 143.814 38.1021 143.528 38.1679C143.243 38.2337 142.926 38.2743 142.579 38.2898L142.133 38.3073C141.713 38.3227 141.361 38.3808 141.08 38.4815C140.802 38.5822 140.57 38.7428 140.385 38.9635C140.204 39.1842 140.063 39.4475 139.962 39.7534C139.862 40.0554 139.781 40.4425 139.719 40.9149H139.765C139.958 40.5626 140.234 40.2935 140.593 40.1076C140.956 39.9218 141.371 39.8289 141.838 39.8289C142.652 39.8289 143.299 40.096 143.777 40.6303C144.26 41.1607 144.501 41.877 144.501 42.7791C144.501 43.7277 144.25 44.4769 143.748 45.0267C143.247 45.5726 142.56 45.8456 141.687 45.8456ZM140.368 44.3878C140.68 44.7634 141.12 44.9512 141.687 44.9512C142.255 44.9512 142.693 44.7634 143.002 44.3878C143.314 44.0084 143.471 43.4722 143.471 42.7791C143.471 42.1209 143.314 41.6118 143.002 41.2517C142.693 40.8916 142.255 40.7116 141.687 40.7116C141.12 40.7116 140.68 40.8916 140.368 41.2517C140.055 41.6118 139.899 42.1209 139.899 42.7791C139.899 43.4722 140.055 44.0084 140.368 44.3878Z" fill="#BFBFBF"/>
<path d="M148.125 45.8456C147.284 45.8456 146.608 45.5648 146.099 45.0034C145.589 44.4382 145.335 43.6774 145.335 42.7211C145.335 41.7647 145.589 41.0059 146.099 40.4445C146.608 39.8792 147.284 39.5965 148.125 39.5965C148.963 39.5965 149.636 39.8792 150.146 40.4445C150.655 41.0059 150.91 41.7647 150.91 42.7211C150.91 43.6735 150.655 44.4324 150.146 44.9976C149.636 45.5629 148.963 45.8456 148.125 45.8456ZM146.834 44.3646C147.154 44.7595 147.585 44.957 148.125 44.957C148.665 44.957 149.094 44.7615 149.41 44.3704C149.727 43.9755 149.885 43.4257 149.885 42.7211C149.885 42.0164 149.727 41.4685 149.41 41.0775C149.094 40.6826 148.665 40.4851 148.125 40.4851C147.585 40.4851 147.154 40.6826 146.834 41.0775C146.518 41.4724 146.359 42.0203 146.359 42.7211C146.359 43.4218 146.518 43.9697 146.834 44.3646Z" fill="#BFBFBF"/>
<path d="M154.956 39.5965C155.728 39.5965 156.35 39.8811 156.82 40.4503C157.295 41.0194 157.533 41.7763 157.533 42.7211C157.533 43.6619 157.297 44.4188 156.826 44.9918C156.355 45.561 155.74 45.8456 154.98 45.8456C154.555 45.8456 154.175 45.7488 153.839 45.5552C153.503 45.3616 153.245 45.0964 153.063 44.7595H153.04V47.7563H152.033V39.7011H152.988V40.7232H153.011C153.2 40.3748 153.465 40.0999 153.804 39.8985C154.144 39.6972 154.528 39.5965 154.956 39.5965ZM154.76 44.957C155.296 44.957 155.721 44.7557 156.033 44.353C156.346 43.9503 156.502 43.4064 156.502 42.7211C156.502 42.0358 156.346 41.4918 156.033 41.0891C155.721 40.6864 155.296 40.4851 154.76 40.4851C154.242 40.4851 153.826 40.6903 153.509 41.1007C153.193 41.5111 153.034 42.0512 153.034 42.7211C153.034 43.3947 153.193 43.9368 153.509 44.3472C153.826 44.7537 154.242 44.957 154.76 44.957Z" fill="#BFBFBF"/>
<path d="M158.98 48.0002C158.798 48.0002 158.654 47.9886 158.546 47.9653V47.1174C158.638 47.1368 158.77 47.1465 158.939 47.1465C159.221 47.1465 159.447 47.071 159.617 46.92C159.786 46.7728 159.929 46.5231 160.045 46.1708L160.184 45.7468L157.961 39.7011H159.038L160.705 44.7305H160.722L162.39 39.7011H163.449L161.081 46.165C160.823 46.8696 160.543 47.3517 160.242 47.6111C159.945 47.8705 159.524 48.0002 158.98 48.0002Z" fill="#BFBFBF"/>
<path d="M168.109 44.9105V40.5316H165.852L165.666 43.0753C165.608 43.9039 165.444 44.5001 165.174 44.8641V44.9105H168.109ZM164.456 47.3381H163.519V44.9105H164.022C164.427 44.6434 164.665 44.0239 164.734 43.0521L164.966 39.7011H169.111V44.9105H170.066V47.3381H169.128V45.741H164.456V47.3381Z" fill="#BFBFBF"/>
<path d="M173.47 45.8456C172.629 45.8456 171.953 45.5648 171.444 45.0034C170.935 44.4382 170.68 43.6774 170.68 42.7211C170.68 41.7647 170.935 41.0059 171.444 40.4445C171.953 39.8792 172.629 39.5965 173.47 39.5965C174.308 39.5965 174.981 39.8792 175.491 40.4445C176 41.0059 176.255 41.7647 176.255 42.7211C176.255 43.6735 176 44.4324 175.491 44.9976C174.981 45.5629 174.308 45.8456 173.47 45.8456ZM172.179 44.3646C172.5 44.7595 172.93 44.957 173.47 44.957C174.011 44.957 174.439 44.7615 174.755 44.3704C175.072 43.9755 175.23 43.4257 175.23 42.7211C175.23 42.0164 175.072 41.4685 174.755 41.0775C174.439 40.6826 174.011 40.4851 173.47 40.4851C172.93 40.4851 172.5 40.6826 172.179 41.0775C171.863 41.4724 171.705 42.0203 171.705 42.7211C171.705 43.4218 171.863 43.9697 172.179 44.3646Z" fill="#BFBFBF"/>
<path d="M179.809 40.52H178.368V42.21H179.659C180.408 42.21 180.782 41.9235 180.782 41.3505C180.782 41.0833 180.699 40.8781 180.533 40.7348C180.367 40.5916 180.126 40.52 179.809 40.52ZM179.74 43.023H178.368V44.9221H179.919C180.282 44.9221 180.56 44.8428 180.753 44.684C180.946 44.5214 181.043 44.2872 181.043 43.9813C181.043 43.3425 180.608 43.023 179.74 43.023ZM177.372 45.741V39.7011H179.948C180.512 39.7011 180.956 39.8385 181.28 40.1134C181.604 40.3883 181.766 40.7658 181.766 41.2459C181.766 41.5518 181.67 41.8305 181.477 42.0822C181.288 42.3339 181.054 42.4887 180.776 42.5468V42.5933C181.154 42.6475 181.457 42.8024 181.685 43.0579C181.917 43.3134 182.032 43.629 182.032 44.0045C182.032 44.5388 181.847 44.9628 181.477 45.2764C181.11 45.5861 180.606 45.741 179.966 45.741H177.372Z" fill="#BFBFBF"/>
<path d="M185.176 44.986C185.651 44.986 186.048 44.8389 186.369 44.5446C186.693 44.2465 186.855 43.8806 186.855 43.447V42.9534L185.245 43.0521C184.84 43.0792 184.526 43.1779 184.302 43.3483C184.082 43.5186 183.972 43.7471 183.972 44.0336C183.972 44.3201 184.082 44.5505 184.302 44.7247C184.522 44.8989 184.813 44.986 185.176 44.986ZM184.95 45.8456C184.352 45.8456 183.868 45.6791 183.497 45.3461C183.131 45.0131 182.947 44.5756 182.947 44.0336C182.947 43.5148 183.136 43.1005 183.515 42.7907C183.897 42.481 184.435 42.3068 185.13 42.2681L186.855 42.1693V41.6641C186.855 41.2962 186.739 41.0078 186.508 40.7987C186.276 40.5897 185.952 40.4851 185.535 40.4851C185.153 40.4851 184.842 40.5703 184.603 40.7407C184.364 40.9071 184.211 41.1414 184.146 41.4434H183.173C183.208 40.9052 183.439 40.4638 183.868 40.1192C184.3 39.7708 184.863 39.5965 185.558 39.5965C186.264 39.5965 186.824 39.7746 187.237 40.1309C187.654 40.4871 187.862 40.9652 187.862 41.5653V45.741H186.907V44.7014H186.884C186.702 45.046 186.436 45.3229 186.085 45.5319C185.734 45.741 185.355 45.8456 184.95 45.8456Z" fill="#BFBFBF"/>
<path d="M193.217 45.741V43.023H190.247V45.741H189.252V39.7011H190.247V42.1926H193.217V39.7011H194.213V45.741H193.217Z" fill="#BFBFBF"/>
<path d="M196.627 45.741H195.631V39.7011H196.627V44.1962H196.673L199.684 39.7011H200.68V45.741H199.684V41.2459H199.637L196.627 45.741Z" fill="#BFBFBF"/>
<path d="M204.512 40.4735C204.045 40.4735 203.657 40.6361 203.348 40.9613C203.043 41.2827 202.876 41.697 202.845 42.2042H206.116C206.104 41.6931 205.952 41.2769 205.658 40.9555C205.365 40.6342 204.983 40.4735 204.512 40.4735ZM206.092 44.0103H207.082C206.994 44.5446 206.716 44.9841 206.249 45.3287C205.786 45.6733 205.228 45.8456 204.576 45.8456C203.715 45.8456 203.038 45.5668 202.544 45.0093C202.05 44.4517 201.803 43.6967 201.803 42.7443C201.803 41.7996 202.05 41.0388 202.544 40.4619C203.042 39.885 203.703 39.5965 204.529 39.5965C205.34 39.5965 205.981 39.8695 206.451 40.4154C206.922 40.9613 207.158 41.6931 207.158 42.6107V42.994H202.839V43.0521C202.839 43.6328 202.997 44.0975 203.314 44.4459C203.63 44.7944 204.059 44.9686 204.599 44.9686C204.977 44.9686 205.299 44.8815 205.566 44.7073C205.832 44.533 206.008 44.3007 206.092 44.0103Z" fill="#BFBFBF"/>
<path d="M75.415 7.86199H59.9673V26.8435H62.79V19.9598H75.3124C77.0317 19.9598 78.366 19.4718 79.3411 18.4701C80.3162 17.4683 80.8038 15.9529 80.8038 13.9237C80.8038 11.8946 80.3162 10.3535 79.3668 9.35174C78.4173 8.35001 77.083 7.86199 75.415 7.86199ZM77.2369 16.5693C76.7494 17.1344 76.1079 17.417 75.2867 17.417H62.79V10.4048H75.2867C76.1335 10.4048 76.8007 10.6874 77.2626 11.2525C77.7245 11.8175 77.9811 12.7165 77.9811 13.9237C77.9554 15.131 77.7245 16.0299 77.2369 16.5693Z" fill="white"/>
<path d="M104.873 8.37521C103.308 7.8615 100.562 7.60465 96.6361 7.60465C92.71 7.60465 89.9643 7.8615 88.3733 8.37521C86.7824 8.88892 85.7816 9.86497 85.3454 11.3033C85.0631 12.228 84.9348 14.2572 84.9348 17.3651C84.9348 20.4217 85.0888 22.4508 85.371 23.4268C85.8073 24.8395 86.7824 25.8156 88.3733 26.3293C89.9387 26.843 92.6843 27.0999 96.6361 27.0999C100.588 27.0999 103.334 26.843 104.924 26.3293C106.49 25.8156 107.491 24.8395 107.927 23.4012C108.209 22.4765 108.337 20.473 108.337 17.3651C108.337 14.2829 108.183 12.2537 107.901 11.2777C107.439 9.83928 106.438 8.88892 104.873 8.37521ZM104.334 23.6066C103.564 24.2488 100.998 24.5827 96.6361 24.5827C92.2738 24.5827 89.7077 24.2488 88.9379 23.6066C88.1681 22.9388 87.7832 20.884 87.7832 17.3908C87.7832 13.8719 88.1681 11.7914 88.9379 11.1492C89.7077 10.5071 92.2738 10.1732 96.6361 10.1732C100.998 10.1732 103.59 10.5071 104.334 11.1492C105.104 11.7914 105.489 13.8719 105.489 17.3908C105.515 20.884 105.13 22.9388 104.334 23.6066Z" fill="white"/>
<path d="M123.016 10.1479C126.557 10.1479 128.738 10.3534 129.559 10.7643C130.38 11.1753 130.791 12.4082 130.791 14.4373H133.614C133.614 11.4065 132.998 9.50574 131.766 8.73518C130.534 7.96462 127.609 7.57934 122.99 7.57934C118.294 7.57934 115.318 8.14442 114.112 9.24889C112.906 10.3534 112.29 13.076 112.29 17.3655C112.29 21.6293 112.906 24.3262 114.137 25.4307C115.369 26.5352 118.32 27.1002 122.99 27.1002C127.558 27.1002 130.483 26.715 131.74 25.9187C132.998 25.1225 133.614 23.2474 133.614 20.2166H130.791C130.791 22.2457 130.329 23.5043 129.431 23.9666C128.661 24.3519 126.506 24.5574 122.99 24.5574C119.192 24.5574 116.934 24.2235 116.19 23.5557C115.446 22.8878 115.087 20.833 115.087 17.3655C115.087 13.8723 115.446 11.7917 116.19 11.1239C116.934 10.4818 119.218 10.1479 123.016 10.1479Z" fill="white"/>
<path d="M142.39 26.8435H145.161V10.4048H159.711V7.86199H142.39V26.8435Z" fill="white"/>
<path d="M162.584 26.8435H180.726V24.3006H165.407V18.4957H180.187V15.9529H165.407V10.4048H180.726V7.86199H162.584V26.8435Z" fill="white"/>
<path d="M207.644 11.3033C207.208 9.86497 206.207 8.88892 204.642 8.37521C203.076 7.8615 200.331 7.60465 196.404 7.60465C192.478 7.60465 189.733 7.8615 188.142 8.37521C186.551 8.88892 185.55 9.86497 185.114 11.3033C184.831 12.228 184.703 14.2572 184.703 17.3651C184.703 20.4217 184.857 22.4508 185.139 23.4268C185.576 24.8395 186.551 25.8156 188.142 26.3293C189.707 26.843 192.453 27.0999 196.404 27.0999C200.356 27.0999 203.102 26.843 204.693 26.3293C206.258 25.8156 207.259 24.8395 207.695 23.4012C207.977 22.4765 208.106 20.473 208.106 17.3651C208.08 14.3085 207.926 12.2794 207.644 11.3033ZM204.077 23.6066C203.307 24.2488 200.741 24.5827 196.379 24.5827C192.016 24.5827 189.45 24.2488 188.681 23.6066C187.911 22.9388 187.526 20.884 187.526 17.3908C187.526 13.8719 187.911 11.7914 188.681 11.1492C189.45 10.5071 192.016 10.1732 196.379 10.1732C200.741 10.1732 203.333 10.5071 204.077 11.1492C204.847 11.7914 205.232 13.8719 205.232 17.3908C205.257 20.884 204.872 22.9388 204.077 23.6066Z" fill="white"/>
<path d="M140.799 7.86152H138.002V26.8431H140.799V7.86152Z" fill="#FFC42C"/>
<path d="M58.3764 7.86152H55.5793V26.8431H58.3764V7.86152Z" fill="#FFC42C"/>
<path d="M11.2104 25.4987H22.6994V22.9997H11.2104H8.69067V25.4987V47.1568H11.2104V25.4987Z" fill="#FFC42C"/>
<path d="M12.7139 27.0267V29.5489V47.1577H15.2336V29.5489H22.7234V27.0267H15.2336H12.7139Z" fill="#FFC42C"/>
<path d="M16.7128 31.0528V33.575V47.1576H19.2325V33.575H22.7231V31.0528H19.2325H16.7128Z" fill="#FFC42C"/>
<path d="M25.1975 5.71567C31.2541 5.71567 36.1549 10.598 36.1549 16.6604C36.1549 22.7228 31.2541 27.6283 25.1975 27.6283V28.9704C31.9938 28.9704 37.4956 23.4633 37.4956 16.6604C37.4956 9.85755 31.9938 4.35047 25.1975 4.35047H5.71008H4.80853H4.34619V47.1345H5.68696V5.71567H25.1975Z" fill="white"/>
<path d="M25.196 10.0657C28.756 10.0657 31.6456 12.9812 31.6456 16.5446C31.6456 20.108 28.756 23.0004 25.196 23.0004V24.3656C29.5189 24.3656 33.0095 20.8716 33.0095 16.5446C33.0095 12.2176 29.5189 8.70047 25.196 8.70047H10.0546H9.17613H8.69067V20.5014H10.0315V10.0657H25.196Z" fill="white"/>
<path d="M25.1973 0H0.670385H0V47.1573H1.34077V1.34206H25.1742C33.7042 1.34206 40.6161 8.23749 40.6161 16.7758C40.6161 25.3141 33.7042 32.2326 25.1742 32.2326V33.5747C34.444 33.5747 41.9569 26.0545 41.9569 16.7758C41.9569 7.49704 34.444 0 25.1973 0Z" fill="white"/>
</svg>
