<svg width="183" height="42" viewBox="0 0 183 42" fill="none" xmlns="http://www.w3.org/2000/svg">
<path d="M54.4667 40.0233H53.5549V36.6846H49.543V40.0233H48.6312V32.6905H49.543V35.8614H53.5549V32.6905H54.4667V40.0233Z" fill="#595959"/>
<path d="M57.962 35.4142C57.5533 35.4142 57.2139 35.5565 56.9438 35.8411C56.677 36.1223 56.5301 36.4848 56.5031 36.9286H59.3651C59.355 36.4814 59.2216 36.1172 58.9649 35.836C58.7083 35.5548 58.374 35.4142 57.962 35.4142ZM59.3448 38.509H60.2111C60.1334 38.9765 59.8902 39.361 59.4816 39.6625C59.0764 39.964 58.5884 40.1148 58.0177 40.1148C57.2646 40.1148 56.6719 39.8708 56.2397 39.383C55.8074 38.8952 55.5913 38.2346 55.5913 37.4012C55.5913 36.5745 55.8074 35.9088 56.2397 35.4041C56.6753 34.8993 57.2545 34.6469 57.9771 34.6469C58.6863 34.6469 59.2469 34.8857 59.6589 35.3634C60.0709 35.8411 60.2769 36.4814 60.2769 37.2843V37.6197H56.498V37.6705C56.498 38.1787 56.6365 38.5852 56.9134 38.8901C57.1903 39.195 57.5652 39.3474 58.0379 39.3474C58.3689 39.3474 58.6509 39.2712 58.8839 39.1188C59.1169 38.9663 59.2706 38.763 59.3448 38.509Z" fill="#595959"/>
<path d="M63.7265 39.3373V35.4244C63.1626 35.4379 62.7151 35.6192 62.3842 35.9681C62.0532 36.3171 61.8877 36.788 61.8877 37.3808C61.8877 37.9737 62.0532 38.4446 62.3842 38.7935C62.7151 39.1391 63.1626 39.3203 63.7265 39.3373ZM65.9149 38.7935C66.2458 38.4446 66.4113 37.9737 66.4113 37.3808C66.4113 36.788 66.2458 36.3188 65.9149 35.9732C65.5873 35.6243 65.1415 35.4413 64.5775 35.4244V39.3373C65.1415 39.3237 65.5873 39.1425 65.9149 38.7935ZM63.7265 40.0894C62.9025 40.0724 62.2423 39.82 61.7459 39.3322C61.2495 38.8443 61.0013 38.1939 61.0013 37.3808C61.0013 36.5678 61.2495 35.9173 61.7459 35.4295C62.2423 34.9383 62.9025 34.6859 63.7265 34.6723V33.0005H64.5775V34.6723C65.3982 34.6893 66.0567 34.9433 66.5531 35.4346C67.0495 35.9224 67.2977 36.5712 67.2977 37.3808C67.2977 38.1939 67.0495 38.846 66.5531 39.3373C66.0567 39.8251 65.3982 40.0758 64.5775 40.0894V41.7866H63.7265V40.0894Z" fill="#595959"/>
<path d="M71.9378 34.7384V35.4651H70.2358V40.0233H69.3645V35.4651H67.6625V34.7384H71.9378Z" fill="#595959"/>
<path d="M74.7694 35.4142C74.3608 35.4142 74.0214 35.5565 73.7512 35.8411C73.4845 36.1223 73.3376 36.4848 73.3105 36.9286H76.1726C76.1624 36.4814 76.0291 36.1172 75.7724 35.836C75.5157 35.5548 75.1814 35.4142 74.7694 35.4142ZM76.1523 38.509H77.0185C76.9408 38.9765 76.6977 39.361 76.2891 39.6625C75.8838 39.964 75.3959 40.1148 74.8251 40.1148C74.0721 40.1148 73.4794 39.8708 73.0471 39.383C72.6149 38.8952 72.3987 38.2346 72.3987 37.4012C72.3987 36.5745 72.6149 35.9088 73.0471 35.4041C73.4828 34.8993 74.0619 34.6469 74.7846 34.6469C75.4938 34.6469 76.0544 34.8857 76.4664 35.3634C76.8784 35.8411 77.0844 36.4814 77.0844 37.2843V37.6197H73.3055V37.6705C73.3055 38.1787 73.4439 38.5852 73.7209 38.8901C73.9978 39.195 74.3726 39.3474 74.8454 39.3474C75.1763 39.3474 75.4583 39.2712 75.6913 39.1188C75.9244 38.9663 76.078 38.763 76.1523 38.509Z" fill="#595959"/>
<path d="M81.4509 35.4651H78.9333V40.0233H78.062V34.7384H81.4509V35.4651Z" fill="#595959"/>
<path d="M83.8975 39.3627C84.3129 39.3627 84.6607 39.2339 84.941 38.9765C85.2247 38.7156 85.3665 38.3955 85.3665 38.016V37.5841L83.9583 37.6705C83.6037 37.6942 83.3285 37.7806 83.1326 37.9297C82.9401 38.0787 82.8439 38.2786 82.8439 38.5293C82.8439 38.78 82.9401 38.9816 83.1326 39.134C83.3251 39.2865 83.5801 39.3627 83.8975 39.3627ZM83.7 40.1148C83.1765 40.1148 82.7527 39.9691 82.4285 39.6777C82.1077 39.3864 81.9473 39.0036 81.9473 38.5293C81.9473 38.0753 82.1128 37.7128 82.4437 37.4418C82.778 37.1708 83.2491 37.0183 83.857 36.9845L85.3665 36.8981V36.456C85.3665 36.1341 85.2652 35.8817 85.0626 35.6988C84.86 35.5159 84.5763 35.4244 84.2116 35.4244C83.8773 35.4244 83.6054 35.4989 83.396 35.648C83.1867 35.7937 83.0533 35.9986 82.9959 36.2629H82.1448C82.1752 35.792 82.3779 35.4058 82.7527 35.1043C83.1309 34.7994 83.624 34.6469 84.2318 34.6469C84.8498 34.6469 85.3395 34.8027 85.7009 35.1144C86.0656 35.4261 86.2479 35.8445 86.2479 36.3696V40.0233H85.4121V39.1137H85.3919C85.2331 39.4152 85.0001 39.6574 84.6928 39.8404C84.3855 40.0233 84.0546 40.1148 83.7 40.1148Z" fill="#595959"/>
<path d="M89.2214 40.1148C88.6406 40.1148 88.1593 39.9826 87.7777 39.7184C87.3961 39.4508 87.1834 39.095 87.1395 38.6512H88.031C88.0817 38.8816 88.21 39.0612 88.416 39.1899C88.6254 39.3186 88.8938 39.383 89.2214 39.383C89.5963 39.383 89.8884 39.3034 90.0977 39.1442C90.3071 38.9816 90.4118 38.7681 90.4118 38.5039C90.4118 38.2091 90.3139 37.9923 90.118 37.8534C89.9221 37.7111 89.6233 37.64 89.2214 37.64H88.4312V36.9184H89.2214C89.8968 36.9184 90.2345 36.6609 90.2345 36.146C90.2345 35.9156 90.1501 35.731 89.9812 35.5921C89.8158 35.4532 89.5692 35.3837 89.2417 35.3837C88.931 35.3837 88.6743 35.4464 88.4717 35.5718C88.2691 35.6971 88.1492 35.8648 88.1121 36.0748H87.256C87.3134 35.6378 87.5194 35.2906 87.874 35.0331C88.2286 34.7756 88.6845 34.6469 89.2417 34.6469C89.8293 34.6469 90.2852 34.7773 90.6094 35.0382C90.9336 35.2957 91.0957 35.6412 91.0957 36.0748C91.0957 36.3459 91.0146 36.5881 90.8525 36.8015C90.6938 37.015 90.4844 37.1522 90.2244 37.2131V37.2538C90.5655 37.3283 90.8255 37.4723 91.0045 37.6857C91.1868 37.8958 91.278 38.1549 91.278 38.4632C91.278 38.9578 91.0889 39.3576 90.7107 39.6625C90.3358 39.964 89.8394 40.1148 89.2214 40.1148Z" fill="#595959"/>
<path d="M94.4744 40.1148C93.7382 40.1148 93.1472 39.8691 92.7014 39.3779C92.2557 38.8833 92.0328 38.2176 92.0328 37.3808C92.0328 36.5441 92.2557 35.8801 92.7014 35.3888C93.1472 34.8942 93.7382 34.6469 94.4744 34.6469C95.2072 34.6469 95.7965 34.8942 96.2422 35.3888C96.688 35.8801 96.9109 36.5441 96.9109 37.3808C96.9109 38.2142 96.688 38.8782 96.2422 39.3728C95.7965 39.8675 95.2072 40.1148 94.4744 40.1148ZM93.3448 38.8189C93.6251 39.1645 94.0016 39.3373 94.4744 39.3373C94.9472 39.3373 95.322 39.1662 95.5989 38.824C95.8758 38.4785 96.0143 37.9974 96.0143 37.3808C96.0143 36.7643 95.8758 36.2849 95.5989 35.9427C95.322 35.5972 94.9472 35.4244 94.4744 35.4244C94.0016 35.4244 93.6251 35.5972 93.3448 35.9427C93.0678 36.2883 92.9294 36.7676 92.9294 37.3808C92.9294 37.994 93.0678 38.4734 93.3448 38.8189Z" fill="#595959"/>
<path d="M100.021 35.4549H98.7598V36.9336H99.8894C100.545 36.9336 100.872 36.683 100.872 36.1816C100.872 35.9478 100.8 35.7683 100.654 35.6429C100.509 35.5176 100.298 35.4549 100.021 35.4549ZM99.9604 37.6451H98.7598V39.3068H100.117C100.435 39.3068 100.678 39.2373 100.847 39.0984C101.016 38.9561 101.1 38.7512 101.1 38.4836C101.1 37.9246 100.72 37.6451 99.9604 37.6451ZM97.8885 40.0233V34.7384H100.143C100.636 34.7384 101.024 34.8586 101.308 35.0992C101.591 35.3397 101.733 35.67 101.733 36.0901C101.733 36.3577 101.649 36.6016 101.48 36.8219C101.315 37.0421 101.11 37.1776 100.867 37.2284V37.269C101.198 37.3165 101.463 37.452 101.662 37.6756C101.865 37.8992 101.966 38.1753 101.966 38.5039C101.966 38.9714 101.804 39.3424 101.48 39.6168C101.159 39.8878 100.718 40.0233 100.158 40.0233H97.8885Z" fill="#595959"/>
<path d="M105.163 40.1148C104.426 40.1148 103.835 39.8691 103.39 39.3779C102.944 38.8833 102.721 38.2176 102.721 37.3808C102.721 36.5441 102.944 35.8801 103.39 35.3888C103.835 34.8942 104.426 34.6469 105.163 34.6469C105.895 34.6469 106.485 34.8942 106.931 35.3888C107.376 35.8801 107.599 36.5441 107.599 37.3808C107.599 38.2142 107.376 38.8782 106.931 39.3728C106.485 39.8675 105.895 40.1148 105.163 40.1148ZM104.033 38.8189C104.313 39.1645 104.69 39.3373 105.163 39.3373C105.635 39.3373 106.01 39.1662 106.287 38.824C106.564 38.4785 106.703 37.9974 106.703 37.3808C106.703 36.7643 106.564 36.2849 106.287 35.9427C106.01 35.5972 105.635 35.4244 105.163 35.4244C104.69 35.4244 104.313 35.5972 104.033 35.9427C103.756 36.2883 103.618 36.7676 103.618 37.3808C103.618 37.994 103.756 38.4734 104.033 38.8189Z" fill="#595959"/>
<path d="M110.694 35.4142C110.286 35.4142 109.946 35.5565 109.676 35.8411C109.409 36.1223 109.262 36.4848 109.235 36.9286H112.097C112.087 36.4814 111.954 36.1172 111.697 35.836C111.441 35.5548 111.106 35.4142 110.694 35.4142ZM112.077 38.509H112.943C112.866 38.9765 112.623 39.361 112.214 39.6625C111.809 39.964 111.321 40.1148 110.75 40.1148C109.997 40.1148 109.404 39.8708 108.972 39.383C108.54 38.8952 108.324 38.2346 108.324 37.4012C108.324 36.5745 108.54 35.9088 108.972 35.4041C109.408 34.8993 109.987 34.6469 110.709 34.6469C111.419 34.6469 111.979 34.8857 112.391 35.3634C112.803 35.8411 113.009 36.4814 113.009 37.2843V37.6197H109.23V37.6705C109.23 38.1787 109.369 38.5852 109.646 38.8901C109.923 39.195 110.297 39.3474 110.77 39.3474C111.101 39.3474 111.383 39.2712 111.616 39.1188C111.849 38.9663 112.003 38.763 112.077 38.509Z" fill="#595959"/>
<path d="M118.303 40.1148C117.566 40.1148 116.976 39.8691 116.53 39.3779C116.084 38.8833 115.861 38.2176 115.861 37.3808C115.861 36.5441 116.084 35.8801 116.53 35.3888C116.976 34.8942 117.566 34.6469 118.303 34.6469C119.035 34.6469 119.625 34.8942 120.071 35.3888C120.516 35.8801 120.739 36.5441 120.739 37.3808C120.739 38.2142 120.516 38.8782 120.071 39.3728C119.625 39.8675 119.035 40.1148 118.303 40.1148ZM117.173 38.8189C117.453 39.1645 117.83 39.3373 118.303 39.3373C118.775 39.3373 119.15 39.1662 119.427 38.824C119.704 38.4785 119.843 37.9974 119.843 37.3808C119.843 36.7643 119.704 36.2849 119.427 35.9427C119.15 35.5972 118.775 35.4244 118.303 35.4244C117.83 35.4244 117.453 35.5972 117.173 35.9427C116.896 36.2883 116.758 36.7676 116.758 37.3808C116.758 37.994 116.896 38.4734 117.173 38.8189Z" fill="#595959"/>
<path d="M123.976 40.1148C123.166 40.1148 122.551 39.8454 122.132 39.3068C121.717 38.7681 121.509 37.9754 121.509 36.9286C121.509 35.4617 121.724 34.403 122.152 33.7525C122.585 33.1021 123.309 32.7582 124.326 32.721L124.716 32.7057C125.33 32.6752 125.788 32.5804 126.088 32.4211V33.1936C126.004 33.2715 125.837 33.3392 125.587 33.3968C125.337 33.4544 125.06 33.49 124.756 33.5035L124.366 33.5188C123.998 33.5323 123.691 33.5831 123.444 33.6712C123.201 33.7593 122.998 33.8999 122.836 34.093C122.678 34.2861 122.554 34.5165 122.467 34.7841C122.379 35.0484 122.308 35.3871 122.254 35.8004H122.294C122.463 35.4922 122.705 35.2567 123.019 35.0941C123.336 34.9315 123.699 34.8502 124.108 34.8502C124.82 34.8502 125.386 35.0839 125.805 35.5514C126.227 36.0156 126.438 36.6423 126.438 37.4317C126.438 38.2617 126.218 38.9172 125.779 39.3982C125.34 39.8759 124.739 40.1148 123.976 40.1148ZM122.821 38.8393C123.095 39.1679 123.48 39.3322 123.976 39.3322C124.473 39.3322 124.856 39.1679 125.126 38.8393C125.4 38.5073 125.536 38.0381 125.536 37.4317C125.536 36.8557 125.4 36.4102 125.126 36.0952C124.856 35.7801 124.473 35.6226 123.976 35.6226C123.48 35.6226 123.095 35.7801 122.821 36.0952C122.548 36.4102 122.411 36.8557 122.411 37.4317C122.411 38.0381 122.548 38.5073 122.821 38.8393Z" fill="#595959"/>
<path d="M129.609 40.1148C128.873 40.1148 128.282 39.8691 127.836 39.3779C127.39 38.8833 127.167 38.2176 127.167 37.3808C127.167 36.5441 127.39 35.8801 127.836 35.3888C128.282 34.8942 128.873 34.6469 129.609 34.6469C130.342 34.6469 130.931 34.8942 131.377 35.3888C131.823 35.8801 132.045 36.5441 132.045 37.3808C132.045 38.2142 131.823 38.8782 131.377 39.3728C130.931 39.8675 130.342 40.1148 129.609 40.1148ZM128.479 38.8189C128.76 39.1645 129.136 39.3373 129.609 39.3373C130.082 39.3373 130.457 39.1662 130.734 38.824C131.01 38.4785 131.149 37.9974 131.149 37.3808C131.149 36.7643 131.01 36.2849 130.734 35.9427C130.457 35.5972 130.082 35.4244 129.609 35.4244C129.136 35.4244 128.76 35.5972 128.479 35.9427C128.202 36.2883 128.064 36.7676 128.064 37.3808C128.064 37.994 128.202 38.4734 128.479 38.8189Z" fill="#595959"/>
<path d="M135.586 34.6469C136.262 34.6469 136.805 34.8959 137.217 35.3939C137.633 35.8919 137.84 36.5542 137.84 37.3808C137.84 38.2041 137.634 38.8664 137.222 39.3678C136.81 39.8658 136.272 40.1148 135.607 40.1148C135.235 40.1148 134.902 40.0301 134.609 39.8607C134.315 39.6913 134.089 39.4592 133.93 39.1645H133.91V41.7866H133.028V34.7384H133.864V35.6327H133.884C134.05 35.3278 134.281 35.0873 134.578 34.9112C134.875 34.735 135.211 34.6469 135.586 34.6469ZM135.414 39.3373C135.883 39.3373 136.255 39.1611 136.528 38.8088C136.802 38.4564 136.939 37.9805 136.939 37.3808C136.939 36.7812 136.802 36.3052 136.528 35.9529C136.255 35.6006 135.883 35.4244 135.414 35.4244C134.962 35.4244 134.597 35.6039 134.32 35.9631C134.043 36.3222 133.905 36.7948 133.905 37.3808C133.905 37.9703 134.043 38.4446 134.32 38.8037C134.597 39.1594 134.962 39.3373 135.414 39.3373Z" fill="#595959"/>
<path d="M139.107 42.0001C138.948 42.0001 138.822 41.9899 138.727 41.9696V41.2276C138.808 41.2446 138.923 41.2531 139.071 41.2531C139.318 41.2531 139.515 41.187 139.664 41.0549C139.813 40.9261 139.938 40.7076 140.039 40.3993L140.16 40.0284L138.215 34.7384H139.158L140.616 39.1391H140.632L142.09 34.7384H143.017L140.946 40.3943C140.719 41.0108 140.475 41.4326 140.211 41.6596C139.951 41.8866 139.583 42.0001 139.107 42.0001Z" fill="#595959"/>
<path d="M147.095 39.2966V35.4651H145.12L144.958 37.6908C144.907 38.4158 144.763 38.9375 144.527 39.256V39.2966H147.095ZM143.899 41.4207H143.078V39.2966H143.519C143.874 39.0629 144.081 38.5208 144.142 37.6705L144.345 34.7384H147.972V39.2966H148.807V41.4207H147.987V40.0233H143.899V41.4207Z" fill="#595959"/>
<path d="M151.786 40.1148C151.05 40.1148 150.459 39.8691 150.013 39.3779C149.567 38.8833 149.344 38.2176 149.344 37.3808C149.344 36.5441 149.567 35.8801 150.013 35.3888C150.459 34.8942 151.05 34.6469 151.786 34.6469C152.519 34.6469 153.108 34.8942 153.554 35.3888C154 35.8801 154.222 36.5441 154.222 37.3808C154.222 38.2142 154 38.8782 153.554 39.3728C153.108 39.8675 152.519 40.1148 151.786 40.1148ZM150.656 38.8189C150.937 39.1645 151.313 39.3373 151.786 39.3373C152.259 39.3373 152.634 39.1662 152.91 38.824C153.187 38.4785 153.326 37.9974 153.326 37.3808C153.326 36.7643 153.187 36.2849 152.91 35.9427C152.634 35.5972 152.259 35.4244 151.786 35.4244C151.313 35.4244 150.937 35.5972 150.656 35.9427C150.379 36.2883 150.241 36.7676 150.241 37.3808C150.241 37.994 150.379 38.4734 150.656 38.8189Z" fill="#595959"/>
<path d="M157.333 35.4549H156.071V36.9336H157.201C157.856 36.9336 158.184 36.683 158.184 36.1816C158.184 35.9478 158.111 35.7683 157.966 35.6429C157.821 35.5176 157.61 35.4549 157.333 35.4549ZM157.272 37.6451H156.071V39.3068H157.429C157.746 39.3068 157.99 39.2373 158.158 39.0984C158.327 38.9561 158.412 38.7512 158.412 38.4836C158.412 37.9246 158.032 37.6451 157.272 37.6451ZM155.2 40.0233V34.7384H157.454C157.947 34.7384 158.336 34.8586 158.619 35.0992C158.903 35.3397 159.045 35.67 159.045 36.0901C159.045 36.3577 158.96 36.6016 158.792 36.8219C158.626 37.0421 158.422 37.1776 158.179 37.2284V37.269C158.51 37.3165 158.775 37.452 158.974 37.6756C159.177 37.8992 159.278 38.1753 159.278 38.5039C159.278 38.9714 159.116 39.3424 158.792 39.6168C158.471 39.8878 158.03 40.0233 157.469 40.0233H155.2Z" fill="#595959"/>
<path d="M162.028 39.3627C162.444 39.3627 162.792 39.2339 163.072 38.9765C163.356 38.7156 163.497 38.3955 163.497 38.016V37.5841L162.089 37.6705C161.735 37.6942 161.459 37.7806 161.264 37.9297C161.071 38.0787 160.975 38.2786 160.975 38.5293C160.975 38.78 161.071 38.9816 161.264 39.134C161.456 39.2865 161.711 39.3627 162.028 39.3627ZM161.831 40.1148C161.307 40.1148 160.884 39.9691 160.559 39.6777C160.239 39.3864 160.078 39.0036 160.078 38.5293C160.078 38.0753 160.244 37.7128 160.575 37.4418C160.909 37.1708 161.38 37.0183 161.988 36.9845L163.497 36.8981V36.456C163.497 36.1341 163.396 35.8817 163.194 35.6988C162.991 35.5159 162.707 35.4244 162.342 35.4244C162.008 35.4244 161.736 35.4989 161.527 35.648C161.318 35.7937 161.184 35.9986 161.127 36.2629H160.276C160.306 35.792 160.509 35.4058 160.884 35.1043C161.262 34.7994 161.755 34.6469 162.363 34.6469C162.981 34.6469 163.47 34.8027 163.832 35.1144C164.196 35.4261 164.379 35.8445 164.379 36.3696V40.0233H163.543V39.1137H163.523C163.364 39.4152 163.131 39.6574 162.824 39.8404C162.516 40.0233 162.185 40.1148 161.831 40.1148Z" fill="#595959"/>
<path d="M169.064 40.0233V37.6451H166.466V40.0233H165.595V34.7384H166.466V36.9184H169.064V34.7384H169.936V40.0233H169.064Z" fill="#595959"/>
<path d="M172.048 40.0233H171.177V34.7384H172.048V38.6716H172.089L174.723 34.7384H175.594V40.0233H174.723V36.0901H174.682L172.048 40.0233Z" fill="#595959"/>
<path d="M178.947 35.4142C178.539 35.4142 178.199 35.5565 177.929 35.8411C177.662 36.1223 177.515 36.4848 177.488 36.9286H180.35C180.34 36.4814 180.207 36.1172 179.95 35.836C179.694 35.5548 179.359 35.4142 178.947 35.4142ZM180.33 38.509H181.196C181.119 38.9765 180.876 39.361 180.467 39.6625C180.062 39.964 179.574 40.1148 179.003 40.1148C178.25 40.1148 177.657 39.8708 177.225 39.383C176.793 38.8952 176.577 38.2346 176.577 37.4012C176.577 36.5745 176.793 35.9088 177.225 35.4041C177.661 34.8993 178.24 34.6469 178.963 34.6469C179.672 34.6469 180.232 34.8857 180.644 35.3634C181.056 35.8411 181.262 36.4814 181.262 37.2843V37.6197H177.483V37.6705C177.483 38.1787 177.622 38.5852 177.899 38.8901C178.176 39.195 178.551 39.3474 179.023 39.3474C179.354 39.3474 179.636 39.2712 179.869 39.1188C180.102 38.9663 180.256 38.763 180.33 38.509Z" fill="#595959"/>
<path d="M65.9879 6.87927H52.4712V23.488H54.941V17.4648H65.8981C67.4025 17.4648 68.57 17.0378 69.4232 16.1613C70.2765 15.2848 70.7031 13.9588 70.7031 12.1833C70.7031 10.4078 70.2765 9.05931 69.4457 8.1828C68.6149 7.30629 67.4474 6.87927 65.9879 6.87927ZM67.5821 14.4982C67.1555 14.9926 66.5942 15.2398 65.8757 15.2398H54.941V9.10426H65.8757C66.6166 9.10426 67.2004 9.35148 67.6045 9.84592C68.0087 10.3404 68.2332 11.127 68.2332 12.1833C68.2108 13.2396 68.0087 14.0262 67.5821 14.4982Z" fill="#222328"/>
<path d="M91.7636 7.32829C90.394 6.8788 87.9915 6.65405 84.5562 6.65405C81.1209 6.65405 78.7184 6.8788 77.3263 7.32829C75.9342 7.77778 75.0586 8.63182 74.6769 9.8904C74.4299 10.6995 74.3176 12.475 74.3176 15.1944C74.3176 17.8689 74.4523 19.6444 74.6993 20.4984C75.081 21.7345 75.9342 22.5886 77.3263 23.0381C78.696 23.4876 81.0984 23.7123 84.5562 23.7123C88.014 23.7123 90.4164 23.4876 91.8085 23.0381C93.1782 22.5886 94.0538 21.7345 94.4355 20.476C94.6825 19.6669 94.7948 17.9138 94.7948 15.1944C94.7948 12.4975 94.6601 10.722 94.4131 9.86793C94.0089 8.60935 93.1333 7.77778 91.7636 7.32829ZM91.2921 20.6557C90.6185 21.2176 88.3732 21.5098 84.5562 21.5098C80.7392 21.5098 78.4939 21.2176 77.8203 20.6557C77.1467 20.0714 76.8099 18.2734 76.8099 15.2169C76.8099 12.1379 77.1467 10.3174 77.8203 9.75555C78.4939 9.19369 80.7392 8.90152 84.5562 8.90152C88.3732 8.90152 90.641 9.19369 91.2921 9.75555C91.9657 10.3174 92.3025 12.1379 92.3025 15.2169C92.325 18.2734 91.9882 20.0714 91.2921 20.6557Z" fill="#222328"/>
<path d="M107.638 8.87942C110.737 8.87942 112.645 9.05922 113.364 9.41881C114.082 9.77841 114.442 10.8572 114.442 12.6327H116.912C116.912 9.98068 116.373 8.31756 115.295 7.64332C114.217 6.96908 111.658 6.63196 107.616 6.63196C103.507 6.63196 100.903 7.1264 99.8472 8.09281C98.7919 9.05922 98.2531 11.4415 98.2531 15.1948C98.2531 18.9256 98.7919 21.2854 99.8697 22.2518C100.947 23.2182 103.53 23.7127 107.616 23.7127C111.613 23.7127 114.172 23.3756 115.272 22.6789C116.373 21.9821 116.912 20.3415 116.912 17.6895H114.442C114.442 19.465 114.038 20.5662 113.252 20.9708C112.578 21.3079 110.692 21.4877 107.616 21.4877C104.293 21.4877 102.317 21.1955 101.666 20.6112C101.015 20.0268 100.7 18.2289 100.7 15.1948C100.7 12.1382 101.015 10.3178 101.666 9.73346C102.317 9.17159 104.315 8.87942 107.638 8.87942Z" fill="#222328"/>
<path d="M124.59 23.488H127.015V9.10426H139.746V6.87927H124.59V23.488Z" fill="#222328"/>
<path d="M142.261 23.488H158.135V21.263H144.73V16.1838H157.663V13.9588H144.73V9.10426H158.135V6.87927H142.261V23.488Z" fill="#222328"/>
<path d="M181.688 9.8904C181.306 8.63182 180.43 7.77778 179.061 7.32829C177.691 6.8788 175.289 6.65405 171.853 6.65405C168.418 6.65405 166.015 6.8788 164.623 7.32829C163.231 7.77778 162.356 8.63182 161.974 9.8904C161.727 10.6995 161.615 12.475 161.615 15.1944C161.615 17.8689 161.749 19.6444 161.996 20.4984C162.378 21.7345 163.231 22.5886 164.623 23.0381C165.993 23.4876 168.395 23.7123 171.853 23.7123C175.311 23.7123 177.713 23.4876 179.106 23.0381C180.475 22.5886 181.351 21.7345 181.733 20.476C181.98 19.6669 182.092 17.9138 182.092 15.1944C182.069 12.5199 181.935 10.7444 181.688 9.8904ZM178.567 20.6557C177.893 21.2176 175.648 21.5098 171.831 21.5098C168.014 21.5098 165.768 21.2176 165.095 20.6557C164.421 20.0714 164.084 18.2734 164.084 15.2169C164.084 12.1379 164.421 10.3174 165.095 9.75555C165.768 9.19369 168.014 8.90152 171.831 8.90152C175.648 8.90152 177.916 9.19369 178.567 9.75555C179.24 10.3174 179.577 12.1379 179.577 15.2169C179.6 18.2734 179.263 20.0714 178.567 20.6557Z" fill="#222328"/>
<path d="M123.199 6.87891H120.751V23.4877H123.199V6.87891Z" fill="#FFC42C"/>
<path d="M51.0791 6.87891H48.6317V23.4877H51.0791V6.87891Z" fill="#FFC42C"/>
<path d="M9.80912 22.3113H19.862V20.1246H9.80912H7.60437V22.3113V41.262H9.80912V22.3113Z" fill="#FFC42C"/>
<path d="M11.1246 23.6483V25.8552V41.2628H13.3294V25.8552H19.883V23.6483H13.3294H11.1246Z" fill="#FFC42C"/>
<path d="M14.6237 27.1711V29.378V41.2627H16.8284V29.378H19.8827V27.1711H16.8284H14.6237Z" fill="#FFC42C"/>
<path d="M22.0477 5.00119C27.3472 5.00119 31.6353 9.27321 31.6353 14.5778C31.6353 19.8824 27.3472 24.1747 22.0477 24.1747V25.349C27.9945 25.349 32.8085 20.5303 32.8085 14.5778C32.8085 8.62532 27.9945 3.80664 22.0477 3.80664H4.99625H4.2074H3.80286V41.2425H4.97603V5.00119H22.0477Z" fill="#222328"/>
<path d="M22.0465 8.80746C25.1615 8.80746 27.6899 11.3585 27.6899 14.4765C27.6899 17.5945 25.1615 20.1253 22.0465 20.1253V21.3198C25.829 21.3198 28.8833 18.2626 28.8833 14.4765C28.8833 10.6904 25.829 7.61292 22.0465 7.61292H8.79777H8.02914H7.60437V17.9387H8.77755V8.80746H22.0465Z" fill="#222328"/>
<path d="M22.0475 0H0.586584H0V41.2625H1.17317V1.1743H22.0273C29.4911 1.1743 35.539 7.20778 35.539 14.6788C35.539 22.1497 29.4911 28.2035 22.0273 28.2035V29.3778C30.1384 29.3778 36.7122 22.7976 36.7122 14.6788C36.7122 6.55989 30.1384 0 22.0475 0Z" fill="#222328"/>
</svg>
