<svg width="475" height="540" viewBox="0 0 475 540" fill="none" xmlns="http://www.w3.org/2000/svg">
<g opacity="0.7" clip-path="url(#clip0)">
<mask id="mask0" mask-type="alpha" maskUnits="userSpaceOnUse" x="-274" y="-221" width="991" height="997">
<path d="M94.2763 -221L95.0736 -220.54L-273.203 417.076L-274 416.616L94.2763 -221Z" fill="#FFB900"/>
<path d="M102.25 -216.398L103.047 -215.938L-265.229 421.677L-266.027 421.217L102.25 -216.398Z" fill="#FFB900"/>
<path d="M110.223 -211.797L111.02 -211.337L-257.256 426.279L-258.053 425.819L110.223 -211.797Z" fill="#FFB900"/>
<path d="M118.197 -207.195L118.994 -206.735L-249.282 430.88L-250.08 430.42L118.197 -207.195Z" fill="#FFB900"/>
<path d="M126.17 -202.594L126.967 -202.133L-241.309 435.482L-242.106 435.022L126.17 -202.594Z" fill="#FFB900"/>
<path d="M134.143 -197.992L134.941 -197.532L-233.336 440.084L-234.133 439.623L134.143 -197.992Z" fill="#FFB900"/>
<path d="M142.117 -193.39L142.914 -192.93L-225.362 444.685L-226.16 444.225L142.117 -193.39Z" fill="#FFB900"/>
<path d="M150.09 -188.789L150.888 -188.329L-217.389 449.287L-218.186 448.827L150.09 -188.789Z" fill="#FFB900"/>
<path d="M158.064 -184.187L158.861 -183.727L-209.415 453.888L-210.213 453.428L158.064 -184.187Z" fill="#FFB900"/>
<path d="M166.037 -179.586L166.834 -179.125L-201.442 458.49L-202.239 458.03L166.037 -179.586Z" fill="#FFB900"/>
<path d="M174.01 -174.984L174.808 -174.524L-193.469 463.092L-194.266 462.631L174.01 -174.984Z" fill="#FFB900"/>
<path d="M181.984 -170.382L182.781 -169.922L-185.495 467.693L-186.292 467.233L181.984 -170.382Z" fill="#FFB900"/>
<path d="M189.957 -165.781L190.755 -165.321L-177.522 472.295L-178.319 471.835L189.957 -165.781Z" fill="#FFB900"/>
<path d="M197.931 -161.179L198.728 -160.719L-169.548 476.896L-170.346 476.436L197.931 -161.179Z" fill="#FFB900"/>
<path d="M205.904 -156.578L206.701 -156.118L-161.575 481.498L-162.372 481.038L205.904 -156.578Z" fill="#FFB900"/>
<path d="M213.877 -151.976L214.675 -151.516L-153.601 486.1L-154.399 485.639L213.877 -151.976Z" fill="#FFB900"/>
<path d="M221.851 -147.374L222.648 -146.914L-145.628 490.701L-146.425 490.241L221.851 -147.374Z" fill="#FFB900"/>
<path d="M229.824 -142.773L230.622 -142.313L-137.655 495.303L-138.452 494.843L229.824 -142.773Z" fill="#FFB900"/>
<path d="M237.798 -138.171L238.595 -137.711L-129.681 499.904L-130.479 499.444L237.798 -138.171Z" fill="#FFB900"/>
<path d="M245.771 -133.57L246.568 -133.11L-121.708 504.506L-122.505 504.046L245.771 -133.57Z" fill="#FFB900"/>
<path d="M253.745 -128.968L254.542 -128.508L-113.734 509.108L-114.532 508.647L253.745 -128.968Z" fill="#FFB900"/>
<path d="M261.718 -124.367L262.515 -123.906L-105.761 513.709L-106.558 513.249L261.718 -124.367Z" fill="#FFB900"/>
<path d="M269.691 -119.765L270.489 -119.305L-97.7875 518.311L-98.5849 517.851L269.691 -119.765Z" fill="#FFB900"/>
<path d="M277.665 -115.163L278.462 -114.703L-89.8141 522.912L-90.6115 522.452L277.665 -115.163Z" fill="#FFB900"/>
<path d="M285.638 -110.562L286.436 -110.102L-81.8407 527.514L-82.638 527.054L285.638 -110.562Z" fill="#FFB900"/>
<path d="M293.612 -105.96L294.409 -105.5L-73.8673 532.116L-74.6646 531.655L293.612 -105.96Z" fill="#FFB900"/>
<path d="M301.585 -101.359L302.382 -100.898L-65.8938 536.717L-66.6912 536.257L301.585 -101.359Z" fill="#FFB900"/>
<path d="M309.558 -96.757L310.356 -96.2968L-57.9205 541.319L-58.7178 540.859L309.558 -96.757Z" fill="#FFB900"/>
<path d="M317.532 -92.1554L318.329 -91.6952L-49.947 545.92L-50.7444 545.46L317.532 -92.1554Z" fill="#FFB900"/>
<path d="M325.505 -87.5538L326.303 -87.0936L-41.9736 550.522L-42.771 550.062L325.505 -87.5538Z" fill="#FFB900"/>
<path d="M333.479 -82.9522L334.276 -82.492L-34.0002 555.123L-34.7975 554.663L333.479 -82.9522Z" fill="#FFB900"/>
<path d="M341.452 -78.3506L342.249 -77.8904L-26.0268 559.725L-26.8241 559.265L341.452 -78.3506Z" fill="#FFB900"/>
<path d="M349.426 -73.749L350.223 -73.2888L-18.0534 564.327L-18.8507 563.867L349.426 -73.749Z" fill="#FFB900"/>
<path d="M357.399 -69.1474L358.196 -68.6873L-10.08 568.928L-10.8773 568.468L357.399 -69.1474Z" fill="#FFB900"/>
<path d="M365.372 -64.5458L366.17 -64.0856L-2.10657 573.53L-2.90393 573.07L365.372 -64.5458Z" fill="#FFB900"/>
<path d="M373.346 -59.9442L374.143 -59.4841L5.86688 578.131L5.06955 577.671L373.346 -59.9442Z" fill="#FFB900"/>
<path d="M381.319 -55.3426L382.117 -54.8825L13.8403 582.733L13.043 582.273L381.319 -55.3426Z" fill="#FFB900"/>
<path d="M389.293 -50.741L390.09 -50.2809L21.8137 587.335L21.0164 586.875L389.293 -50.741Z" fill="#FFB900"/>
<path d="M397.266 -46.1394L398.063 -45.6793L29.7871 591.936L28.9898 591.476L397.266 -46.1394Z" fill="#FFB900"/>
<path d="M405.239 -41.5378L406.037 -41.0777L37.7605 596.538L36.9632 596.078L405.239 -41.5378Z" fill="#FFB900"/>
<path d="M413.213 -36.9362L414.01 -36.4761L45.7339 601.139L44.9366 600.679L413.213 -36.9362Z" fill="#FFB900"/>
<path d="M421.186 -32.3347L421.984 -31.8745L53.7074 605.741L52.9101 605.281L421.186 -32.3347Z" fill="#FFB900"/>
<path d="M429.16 -27.7331L429.957 -27.2729L61.6808 610.343L60.8834 609.882L429.16 -27.7331Z" fill="#FFB900"/>
<path d="M437.133 -23.1315L437.93 -22.6713L69.6542 614.944L68.8568 614.484L437.133 -23.1315Z" fill="#FFB900"/>
<path d="M445.107 -18.5299L445.904 -18.0697L77.6276 619.546L76.8302 619.086L445.107 -18.5299Z" fill="#FFB900"/>
<path d="M453.08 -13.9283L453.877 -13.4681L85.601 624.147L84.8037 623.687L453.08 -13.9283Z" fill="#FFB900"/>
<path d="M461.053 -9.32668L461.851 -8.86652L93.5745 628.749L92.7771 628.289L461.053 -9.32668Z" fill="#FFB900"/>
<path d="M469.027 -4.7251L469.824 -4.26495L101.548 633.351L100.75 632.89L469.027 -4.7251Z" fill="#FFB900"/>
<path d="M477 -0.123474L477.798 0.33667L109.521 637.952L108.724 637.492L477 -0.123474Z" fill="#FFB900"/>
<path d="M484.974 4.47809L485.771 4.93826L117.495 642.554L116.697 642.094L484.974 4.47809Z" fill="#FFB900"/>
<path d="M492.947 9.07968L493.744 9.53984L125.468 647.155L124.671 646.695L492.947 9.07968Z" fill="#FFB900"/>
<path d="M500.92 13.6813L501.718 14.1414L133.441 651.757L132.644 651.297L500.92 13.6813Z" fill="#FFB900"/>
<path d="M508.894 18.2829L509.691 18.743L141.415 656.359L140.618 655.898L508.894 18.2829Z" fill="#FFB900"/>
<path d="M516.867 22.8845L517.665 23.3446L149.388 660.96L148.591 660.5L516.867 22.8845Z" fill="#FFB900"/>
<path d="M524.841 27.4861L525.638 27.9462L157.362 665.562L156.564 665.102L524.841 27.4861Z" fill="#FFB900"/>
<path d="M532.814 32.0877L533.611 32.5478L165.335 670.163L164.538 669.703L532.814 32.0877Z" fill="#FFB900"/>
<path d="M540.788 36.6893L541.585 37.1494L173.309 674.765L172.511 674.305L540.788 36.6893Z" fill="#FFB900"/>
<path d="M548.761 41.2908L549.558 41.751L181.282 679.367L180.485 678.906L548.761 41.2908Z" fill="#FFB900"/>
<path d="M556.734 45.8924L557.532 46.3526L189.255 683.968L188.458 683.508L556.734 45.8924Z" fill="#FFB900"/>
<path d="M564.708 50.494L565.505 50.9542L197.229 688.57L196.431 688.11L564.708 50.494Z" fill="#FFB900"/>
<path d="M572.681 55.0956L573.479 55.5558L205.202 693.171L204.405 692.711L572.681 55.0956Z" fill="#FFB900"/>
<path d="M580.655 59.6972L581.452 60.1574L213.176 697.773L212.378 697.313L580.655 59.6972Z" fill="#FFB900"/>
<path d="M588.628 64.2988L589.425 64.759L221.149 702.374L220.352 701.914L588.628 64.2988Z" fill="#FFB900"/>
<path d="M596.601 68.9004L597.399 69.3606L229.123 706.976L228.325 706.516L596.601 68.9004Z" fill="#FFB900"/>
<path d="M604.575 73.502L605.372 73.9622L237.096 711.578L236.299 711.118L604.575 73.502Z" fill="#FFB900"/>
<path d="M612.548 78.1036L613.346 78.5638L245.069 716.179L244.272 715.719L612.548 78.1036Z" fill="#FFB900"/>
<path d="M620.522 82.7052L621.319 83.1653L253.043 720.781L252.245 720.321L620.522 82.7052Z" fill="#FFB900"/>
<path d="M628.495 87.3068L629.292 87.7669L261.016 725.383L260.219 724.922L628.495 87.3068Z" fill="#FFB900"/>
<path d="M636.468 91.9084L637.266 92.3685L268.99 729.984L268.192 729.524L636.468 91.9084Z" fill="#FFB900"/>
<path d="M644.442 96.5099L645.239 96.9701L276.963 734.586L276.166 734.125L644.442 96.5099Z" fill="#FFB900"/>
<path d="M652.415 101.112L653.213 101.572L284.936 739.187L284.139 738.727L652.415 101.112Z" fill="#FFB900"/>
<path d="M660.389 105.713L661.186 106.173L292.91 743.789L292.112 743.329L660.389 105.713Z" fill="#FFB900"/>
<path d="M668.362 110.315L669.159 110.775L300.883 748.39L300.086 747.93L668.362 110.315Z" fill="#FFB900"/>
<path d="M676.336 114.916L677.133 115.376L308.857 752.992L308.059 752.532L676.336 114.916Z" fill="#FFB900"/>
<path d="M684.309 119.518L685.106 119.978L316.83 757.594L316.033 757.134L684.309 119.518Z" fill="#FFB900"/>
<path d="M692.282 124.12L693.08 124.58L324.803 762.195L324.006 761.735L692.282 124.12Z" fill="#FFB900"/>
<path d="M700.256 128.721L701.053 129.181L332.777 766.797L331.98 766.337L700.256 128.721Z" fill="#FFB900"/>
<path d="M708.229 133.323L709.026 133.783L340.75 771.398L339.953 770.938L708.229 133.323Z" fill="#FFB900"/>
<path d="M716.203 137.924L717 138.384L348.724 776L347.926 775.54L716.203 137.924Z" fill="#FFB900"/>
</mask>
<g mask="url(#mask0)">
<path d="M474.87 178.667C474.87 198.667 471.259 218.667 464.036 238.667C456.814 258.111 447.092 276.167 434.87 292.833C417.092 317.278 393.759 336.722 364.87 351.167C336.536 365.611 306.259 372.833 274.036 372.833H113.203V577H-0.130249V-23H274.036C294.592 -23 314.87 -19.9444 334.87 -13.8333C354.87 -7.72222 373.481 1.72223 390.703 14.5C407.925 26.7222 422.648 41.1667 434.87 57.8333C447.648 75.0556 457.37 94.2223 464.036 115.333C471.259 135.889 474.87 157 474.87 178.667ZM341.536 230.333C353.759 213.667 359.87 196.444 359.87 178.667C359.87 153.111 352.648 132.278 338.203 116.167C329.87 106.722 319.592 98.9445 307.37 92.8334C295.703 86.7223 284.314 83.6667 273.203 83.6667H113.203V267H273.203C284.87 267 297.092 263.667 309.87 257C322.648 250.333 333.203 241.444 341.536 230.333Z" fill="url(#paint0_linear)"/>
</g>
</g>
<defs>
<linearGradient id="paint0_linear" x1="-0.130245" y1="216.234" x2="445.752" y2="412.961" gradientUnits="userSpaceOnUse">
<stop stop-color="#5E9EFF"/>
<stop offset="1" stop-color="#FFC42C"/>
</linearGradient>
<clipPath id="clip0">
<rect width="475" height="540" fill="white"/>
</clipPath>
</defs>
</svg>
