<svg width="74" height="84" viewBox="0 0 74 84" fill="none" xmlns="http://www.w3.org/2000/svg">
<path d="M0 0V75.2069C0 80.0644 3.93556 84 8.79313 84H64.7494C69.607 84 73.5425 80.0644 73.5425 75.2069V44.7463L68.7494 48.5464L64.7494 45.3489L60.7525 48.5464L57.555 45.9891V1.52469e-06L52.7588 3.83763L48.7619 0.640126L44.765 3.83763L40.7682 0.640126L36.7713 3.83763L32.7744 0.640126L28.7775 3.83763L24.7806 0.640126L20.7838 3.83763L16.7869 0.640126L12.79 3.83763L8.79313 0.640126L4.79625 3.83763L0 0ZM8.79313 2.68852L12.79 5.88603L16.7869 2.68852L20.7838 5.88603L24.7806 2.68852L28.7775 5.88603L32.7744 2.68852L36.7713 5.88603L40.7682 2.68852L44.765 5.88603L48.7619 2.68852L52.7588 5.88603L55.9563 3.32865V75.2069C55.9563 78.1851 57.4392 80.8107 59.7034 82.4012H8.79313C4.79362 82.4012 1.59875 79.2064 1.59875 75.2069V3.32865L4.79625 5.88603L8.79313 2.68852ZM64.7494 47.3973L68.7432 50.5917L71.9438 48.0531V75.2069C71.9438 79.2064 68.7489 82.4012 64.7494 82.4012C60.7499 82.4012 57.555 79.2064 57.555 75.2069V48.0375L60.7525 50.5948L64.7494 47.3973Z" fill="#818193"/>
<path d="M29.8215 28.8375H26.4218V31.6283H24.4835V28.8375H22.3828V27.234H24.4835V25.8437H22.3828V24.2504H24.4835V16.8523H29.9332C31.5163 16.8523 32.7713 17.2548 33.6982 18.0599C34.6251 18.865 35.0885 19.9543 35.0885 21.3277C35.0885 22.7688 34.642 23.8817 33.7489 24.6665C32.8626 25.4445 31.6009 25.8369 29.9636 25.8437H26.4218V27.234H29.8215V28.8375ZM26.4218 24.2504H29.9332C30.9818 24.2504 31.7802 24.0035 32.3282 23.5096C32.8762 23.0157 33.1502 22.2952 33.1502 21.348C33.1502 20.4888 32.866 19.7953 32.2977 19.2676C31.7294 18.7331 30.9615 18.4625 29.9941 18.4557H26.4218V24.2504Z" fill="#818193"/>
<path d="M11.1904 44.0312H46.363V45.63H11.1904V44.0312Z" fill="#818193"/>
<path d="M11.1904 48.8274H46.363V50.4261H11.1904V48.8274Z" fill="#818193"/>
<path d="M11.1904 53.6238H46.363V55.2225H11.1904V53.6238Z" fill="#818193"/>
<path d="M30.376 64.8149H46.3635V66.4137H30.376V64.8149Z" fill="#818193"/>
</svg>
