<svg width="58" height="80" viewBox="0 0 58 80" fill="none" xmlns="http://www.w3.org/2000/svg">
<path d="M0.75594 0.000237268C0.329522 0.0820976 -0.00751892 0.496422 0.000127572 0.930468V79.0698C0.000174084 79.5568 0.443308 79.9999 0.930358 80H56.7442C57.2312 79.9999 57.6744 79.5568 57.6744 79.0698V19.5351C57.68 19.2894 57.5837 19.0431 57.4128 18.8664L38.8082 0.261808C38.6316 0.0909245 38.3852 -0.00543714 38.1396 0.000237268H0.75594ZM1.86059 1.8607H37.2093V19.5351C37.2094 20.0221 37.6525 20.4652 38.1396 20.4653H55.814V78.1395H1.86059V1.8607ZM39.0698 3.16878L54.5058 18.6048H39.0698V3.16878ZM28.8373 36.2792C28.3235 36.2792 27.907 36.6957 27.907 37.2095V61.0175L20.2036 53.2849C19.8403 52.9217 19.2296 52.9216 18.8664 53.2849C18.5031 53.6481 18.532 54.2844 18.8664 54.6222L28.1105 63.8082C28.3385 64.0138 28.5346 64.1861 28.8373 64.1861C29.1399 64.1861 29.3542 64.0212 29.564 63.8082L38.8082 54.6222C39.1462 54.2773 39.1714 53.6481 38.8082 53.2849C38.4449 52.9216 37.8342 52.9217 37.471 53.2849L29.7675 61.0175V37.2095C29.7675 36.6957 29.351 36.2792 28.8373 36.2792Z" fill="#818193"/>
</svg>
