<svg width="92" height="85" viewBox="0 0 92 85" fill="none" xmlns="http://www.w3.org/2000/svg">
<path d="M87.4902 0H4.5098C3.31373 0 2.16664 0.475139 1.32089 1.32089C0.475139 2.16664 0 3.31373 0 4.5098V67.1961C0 68.3922 0.475139 69.5393 1.32089 70.385C2.16664 71.2308 3.31373 71.7059 4.5098 71.7059H37.5937L33.9859 80.04H26.8424C26.6031 80.04 26.3737 80.135 26.2046 80.3042C26.0354 80.4733 25.9404 80.7028 25.9404 80.942V83.1969C25.9404 83.4361 26.0354 83.6655 26.2046 83.8347C26.3737 84.0038 26.6031 84.0988 26.8424 84.0988H62.9208C63.16 84.0988 63.3894 84.0038 63.5586 83.8347C63.7277 83.6655 63.8227 83.4361 63.8227 83.1969V80.942C63.8181 80.7042 63.7216 80.4775 63.5535 80.3093C63.3853 80.1411 63.1586 80.0446 62.9208 80.04H56.8235L53.2157 71.7059H87.4902C88.0824 71.7059 88.6689 71.5892 89.216 71.3626C89.7632 71.136 90.2603 70.8038 90.6791 70.385C91.0979 69.9662 91.4301 69.4691 91.6567 68.9219C91.8834 68.3748 92 67.7883 92 67.1961V4.5098C92 3.31373 91.5249 2.16664 90.6791 1.32089C89.8334 0.475139 88.6863 0 87.4902 0ZM4.5098 1.80392H87.4902C88.2078 1.80392 88.8961 2.08901 89.4035 2.59646C89.911 3.10391 90.1961 3.79216 90.1961 4.5098V60.0886H70.5875V21.5569L63.6784 14.6478H21.4306V60.0886H1.80392V4.5098C1.80392 3.79216 2.089 3.10391 2.59646 2.59646C3.10391 2.08901 3.79216 1.80392 4.5098 1.80392ZM68.7835 22.549H62.6863V16.4518H62.9208L68.7835 22.2965V22.549ZM68.7835 24.3529V59.7459H23.2345V16.4518H60.8824V24.3529H68.7835ZM62.0188 82.2949H27.7443V81.8439H62.0188V82.2949ZM54.8031 80.04H35.9341L39.542 71.7059H51.2494L54.8031 80.04ZM87.4902 69.902H4.5098C3.79216 69.902 3.10391 69.6169 2.59646 69.1094C2.089 68.602 1.80392 67.9137 1.80392 67.1961V61.8926H90.1961V67.1961C90.1961 67.9137 89.911 68.602 89.4035 69.1094C88.8961 69.6169 88.2078 69.902 87.4902 69.902Z" fill="#818193"/>
<path d="M62.9218 52.9814H29.0982C28.859 52.9814 28.6296 53.0765 28.4605 53.2456C28.2913 53.4148 28.1963 53.6442 28.1963 53.8834C28.1963 54.1226 28.2913 54.352 28.4605 54.5212C28.6296 54.6903 28.859 54.7854 29.0982 54.7854H62.9218C63.161 54.7854 63.3904 54.6903 63.5596 54.5212C63.7287 54.352 63.8237 54.1226 63.8237 53.8834C63.8191 53.6456 63.7226 53.4189 63.5544 53.2507C63.3863 53.0826 63.1595 52.9861 62.9218 52.9814Z" fill="#818193"/>
<path d="M62.9218 46.2166H29.0982C28.859 46.2166 28.6296 46.3116 28.4605 46.4807C28.2913 46.6499 28.1963 46.8793 28.1963 47.1185C28.1963 47.3577 28.2913 47.5871 28.4605 47.7563C28.6296 47.9254 28.859 48.0205 29.0982 48.0205H62.9218C63.161 48.0205 63.3904 47.9254 63.5596 47.7563C63.7287 47.5871 63.8237 47.3577 63.8237 47.1185C63.8191 46.8807 63.7226 46.654 63.5544 46.4858C63.3863 46.3177 63.1595 46.2212 62.9218 46.2166Z" fill="#818193"/>
<path d="M62.9207 39.4519H44.8815C44.6422 39.4519 44.4128 39.5469 44.2437 39.7161C44.0745 39.8852 43.9795 40.1147 43.9795 40.3539C43.9795 40.5931 44.0745 40.8225 44.2437 40.9916C44.4128 41.1608 44.6422 41.2558 44.8815 41.2558H62.9207C63.1599 41.2558 63.3893 41.1608 63.5585 40.9916C63.7276 40.8225 63.8226 40.5931 63.8226 40.3539C63.818 40.1161 63.7215 39.8894 63.5533 39.7212C63.3852 39.553 63.1584 39.4565 62.9207 39.4519Z" fill="#818193"/>
<path d="M62.9207 34.9424H44.8815C44.6422 34.9424 44.4128 35.0374 44.2437 35.2066C44.0745 35.3757 43.9795 35.6051 43.9795 35.8443C43.9795 36.0836 44.0745 36.313 44.2437 36.4821C44.4128 36.6513 44.6422 36.7463 44.8815 36.7463H62.9207C63.1599 36.7463 63.3893 36.6513 63.5585 36.4821C63.7276 36.313 63.8226 36.0836 63.8226 35.8443C63.818 35.6066 63.7215 35.3798 63.5533 35.2117C63.3852 35.0435 63.1584 34.947 62.9207 34.9424Z" fill="#818193"/>
<path d="M43.9795 29.0795C43.9795 29.3187 44.0745 29.5481 44.2437 29.7172C44.4128 29.8864 44.6422 29.9814 44.8815 29.9814H62.9207C63.1599 29.9814 63.3893 29.8864 63.5585 29.7172C63.7276 29.5481 63.8226 29.3187 63.8226 29.0795C63.818 28.8417 63.7215 28.6149 63.5533 28.4468C63.3852 28.2786 63.1584 28.1821 62.9207 28.1775H44.8815C44.6422 28.1775 44.4128 28.2725 44.2437 28.4417C44.0745 28.6108 43.9795 28.8402 43.9795 29.0795Z" fill="#818193"/>
<path d="M30.2168 32.2365C30.6214 32.24 31.018 32.123 31.356 31.9004C31.694 31.6778 31.958 31.3597 32.1145 30.9865C32.271 30.6133 32.3129 30.2019 32.2349 29.8048C32.1568 29.4077 31.9623 29.0429 31.6761 28.7567C31.3899 28.4706 31.0251 28.276 30.628 28.198C30.2309 28.1199 29.8196 28.1618 29.4464 28.3183C29.0732 28.4748 28.755 28.7389 28.5324 29.0768C28.3098 29.4148 28.1928 29.8114 28.1964 30.2161C28.2011 30.7504 28.4155 31.2616 28.7933 31.6395C29.1712 32.0174 29.6824 32.2317 30.2168 32.2365ZM30.2168 29.9815C30.279 29.9815 30.3386 30.0063 30.3826 30.0502C30.4266 30.0942 30.4513 30.1539 30.4513 30.2161C30.4513 30.4686 30.0003 30.4686 30.0003 30.2161C29.9978 30.1862 30.0015 30.1561 30.0113 30.1277C30.021 30.0993 30.0366 30.0732 30.0569 30.0512C30.0773 30.0291 30.102 30.0116 30.1295 29.9996C30.157 29.9876 30.1868 29.9814 30.2168 29.9815Z" fill="#818193"/>
<path d="M36.9798 39.4519C36.5767 39.4519 36.1826 39.5715 35.8473 39.7954C35.5121 40.0194 35.2509 40.3378 35.0966 40.7103C34.9423 41.0827 34.9019 41.4926 34.9806 41.888C35.0592 42.2834 35.2534 42.6466 35.5385 42.9317C35.8235 43.2168 36.1867 43.4109 36.5822 43.4896C36.9776 43.5683 37.3874 43.5279 37.7599 43.3736C38.1324 43.2193 38.4507 42.958 38.6747 42.6228C38.8987 42.2876 39.0183 41.8935 39.0183 41.4903C39.0183 40.9497 38.8035 40.4312 38.4212 40.0489C38.0389 39.6667 37.5205 39.4519 36.9798 39.4519ZM36.7634 41.4903C36.7609 41.4604 36.7646 41.4303 36.7744 41.4019C36.7841 41.3736 36.7997 41.3475 36.82 41.3255C36.8404 41.3034 36.8651 41.2858 36.8926 41.2738C36.9201 41.2619 36.9498 41.2557 36.9798 41.2558C37.042 41.2558 37.1017 41.2805 37.1457 41.3245C37.1896 41.3685 37.2143 41.4281 37.2143 41.4903C37.2143 41.7429 36.7634 41.7429 36.7634 41.4903Z" fill="#818193"/>
<path d="M28.6459 44.4484C28.8551 44.5606 29.0995 44.5875 29.3281 44.5237C29.5567 44.4598 29.7518 44.31 29.8726 44.1057L38.8922 28.4837C39.0118 28.2756 39.0438 28.0285 38.9812 27.7968C38.9186 27.565 38.7666 27.3677 38.5584 27.248C38.3503 27.1284 38.1032 27.0964 37.8715 27.159C37.6397 27.2216 37.4424 27.3737 37.3228 27.5818L28.3032 43.2037C28.1854 43.4147 28.1554 43.6634 28.2195 43.8963C28.2837 44.1292 28.4368 44.3275 28.6459 44.4484Z" fill="#818193"/>
</svg>
