<svg width="570" height="640" viewBox="0 0 570 640" fill="none" xmlns="http://www.w3.org/2000/svg">
<g opacity="0.04">
<path d="M152.307 346.065H308.382V312.149H152.307H118.078V346.065V640H152.307V346.065Z" fill="black"/>
<path d="M172.719 366.791V401.02V640H206.948V401.02H308.695V366.791H206.948H172.719Z" fill="black"/>
<path d="M227.046 421.433V455.662V640H261.276V455.662H308.695V421.433H261.276H227.046Z" fill="black"/>
<path d="M342.297 77.5663C424.574 77.5663 491.149 143.827 491.149 226.104C491.149 308.381 424.574 374.956 342.297 374.956V393.17C434.623 393.17 509.363 318.43 509.363 226.104C509.363 133.778 434.623 59.0383 342.297 59.0383H77.5669H65.3196H59.0389V639.686H77.2528V77.5663H342.297Z" fill="black"/>
<path d="M342.297 136.605C390.658 136.605 429.913 176.173 429.913 224.534C429.913 272.895 390.658 312.149 342.297 312.149V330.677C401.021 330.677 448.441 283.258 448.441 224.534C448.441 165.81 401.021 118.077 342.297 118.077H136.605H124.672H118.078V278.234H136.292V136.605H342.297Z" fill="black"/>
<path d="M342.296 0H9.10695H0V640H18.2139V18.2139H341.982C457.861 18.2139 551.757 111.796 551.757 227.674C551.757 343.553 457.861 437.448 341.982 437.448V455.662C467.91 455.662 569.971 353.602 569.971 227.674C569.971 101.747 467.91 0 342.296 0Z" fill="black"/>
</g>
</svg>
