<?xml version="1.0" encoding="utf-8"?><svg viewBox="0 0 130 130" xmlns="http://www.w3.org/2000/svg" xmlns:xlink="http://www.w3.org/1999/xlink"><style>:root>svg{display:none}:root>svg:target{display:block}</style><svg viewBox="0 0 64 64" id="Overdue-Bill" xmlns="http://www.w3.org/2000/svg"><path fill-rule="evenodd" clip-rule="evenodd" d="M15.925 2.933h40.623a.32.32 0 01.32.32v52.981a.32.32 0 01-.32.32H32.803a.32.32 0 010-.64h23.425V3.572H16.245v30.695a.32.32 0 01-.64 0V3.252a.32.32 0 01.32-.32zm6.505 7.266h27.614a.32.32 0 000-.64H22.43a.32.32 0 000 .64zm16.034 35.6h.8v.919H36.8v2.937h2.464V52h3.642v-2.345h3.86v-2.937h-3.859v-.919h3.168c2.112 0 3.759-.504 4.94-1.511 1.19-1.007 1.785-2.381 1.785-4.122 0-1.128-.28-2.131-.838-3.01-.55-.886-1.327-1.567-2.33-2.043-1.004-.475-2.17-.713-3.497-.713h-6.87v8.462H36.8v2.937h1.664zm-.864-.8h2.464v2.519H37.6v1.337h2.464V51.2h2.042v-2.345h3.86v-1.337h-3.859v-2.519h3.968c1.99 0 3.43-.474 4.421-1.32l.002-.002c.988-.836 1.502-1.975 1.502-3.511 0-.99-.243-1.841-.713-2.58l-.004-.008c-.464-.747-1.12-1.328-1.994-1.742-.878-.416-1.922-.636-3.154-.636h-6.07v8.462H37.6v1.337zm4.506-1.337v-7.113h4.085c1.07.01 2.008.327 2.708 1.034.691.689 1.01 1.586 1.01 2.607 0 1.044-.303 1.965-1.038 2.606-.714.624-1.702.866-2.82.866h-3.946zm4.078-6.313c.914.009 1.63.275 2.149.798.518.516.776 1.197.776 2.043 0 1.781-1.02 2.672-3.059 2.672h-3.144V37.35h3.278zM20.39 35.556c-7.033 0-12.755 5.722-12.755 12.756 0 7.033 5.721 12.755 12.755 12.755 7.034 0 12.757-5.721 12.757-12.755 0-7.034-5.723-12.756-12.757-12.756zm0 24.87c-6.68 0-12.115-5.434-12.115-12.115 0-6.68 5.435-12.115 12.115-12.115 6.681 0 12.117 5.435 12.117 12.115 0 6.68-5.436 12.116-12.117 12.116zm.32-12.435h5.797a.32.32 0 110 .64H20.39a.32.32 0 01-.32-.32v-7.92a.32.32 0 01.64 0v7.6zm27.377-32.825H22.43a.32.32 0 010-.64h25.658a.32.32 0 010 .64zM22.43 20.132h27.614a.32.32 0 000-.64H22.43a.32.32 0 000 .64zm27.614 4.965H22.43a.32.32 0 010-.64h27.614a.32.32 0 010 .64zM22.43 30.066h23.445a.32.32 0 000-.64H22.43a.32.32 0 000 .64z"/></svg><svg viewBox="0 0 20 28" id="address" xmlns="http://www.w3.org/2000/svg"><path d="M10 0C4.84 0 .667 4.382.667 9.8.667 17.15 10 28 10 28s9.333-10.85 9.333-18.2C19.333 4.382 15.16 0 10 0zm0 13.3c-1.84 0-3.333-1.568-3.333-3.5S8.16 6.3 10 6.3s3.333 1.568 3.333 3.5S11.84 13.3 10 13.3z"/></svg><svg viewBox="0 0 5 8" id="arrow-icon" xmlns="http://www.w3.org/2000/svg"><path fill-rule="evenodd" clip-rule="evenodd" d="M5 4.001L2.5 0H.104L2.62 4.001 0 8h2.5L5 4.001z"/></svg><svg viewBox="0 0 32 10" id="arrow-left" xmlns="http://www.w3.org/2000/svg"><path d="M8.757 10L0 5l8.757-5v4H32v2H8.757v4z"/></svg><svg viewBox="0 0 32 10" id="arrow-right" xmlns="http://www.w3.org/2000/svg"><path d="M23.243 10L32 5l-8.757-5v4H0v2h23.243v4z"/></svg><svg viewBox="0 0 11 22" id="attach_file" xmlns="http://www.w3.org/2000/svg"><path d="M9.5 5v11.5c0 2.21-1.79 4-4 4s-4-1.79-4-4V4a2.5 2.5 0 015 0v10.5c0 .55-.45 1-1 1s-1-.45-1-1V5H3v9.5a2.5 2.5 0 005 0V4c0-2.21-1.79-4-4-4S0 1.79 0 4v12.5C0 19.54 2.46 22 5.5 22s5.5-2.46 5.5-5.5V5H9.5z"/></svg><svg viewBox="0 0 80 80" id="bill" xmlns="http://www.w3.org/2000/svg"><g clip-path="url(#agclip0)"><path fill-rule="evenodd" clip-rule="evenodd" d="M17.406 0h55.9c.245 0 .441.197.442.44v72.91a.44.44 0 01-.44.44H40.63a.44.44 0 010-.881h32.235V.88h-55.02v42.24a.44.44 0 01-.88 0V.44a.44.44 0 01.44-.44zm8.954 10h37.999a.44.44 0 000-.881h-38a.44.44 0 000 .88zm22.364 48.989h.8v1.264h-3.391v4.042h3.391v3.227h5.012v-3.227h5.312v-4.042h-5.312V58.99h4.36c2.907 0 5.173-.693 6.799-2.08 1.637-1.386 2.456-3.276 2.456-5.672 0-1.552-.385-2.933-1.153-4.142-.757-1.22-1.826-2.156-3.207-2.81-1.381-.655-2.985-.982-4.811-.982h-9.457v11.643h-3.391v4.042h2.591zm-1.791-.8h3.391v2.864h-3.391v2.442h3.391v3.227h3.412v-3.227h5.312v-2.442h-5.312V58.19h5.16c2.785 0 4.844-.664 6.28-1.888l.002-.002c1.435-1.215 2.173-2.87 2.173-5.062 0-1.413-.348-2.643-1.028-3.712l-.005-.008c-.67-1.08-1.618-1.917-2.87-2.51-1.255-.594-2.738-.904-4.468-.904h-8.656v11.644h-3.391v2.442zm6.803-2.442v-9.185h5.317c1.415.012 2.622.429 3.517 1.333.886.883 1.302 2.036 1.302 3.376 0 1.379-.4 2.55-1.326 3.36-.906.79-2.181 1.116-3.684 1.116h-5.126zm8.267-7.288c.713.71 1.07 1.647 1.07 2.812 0 2.45-1.404 3.676-4.21 3.676h-4.327v-7.585h4.51c1.259.01 2.244.377 2.957 1.097zm-38.45-3.565C13.873 44.894 6 52.767 6 62.447 6 72.126 13.874 80 23.553 80c9.68 0 17.554-7.874 17.554-17.553 0-9.68-7.874-17.553-17.554-17.553zm0 34.224c-9.193 0-16.672-7.479-16.672-16.672 0-9.193 7.479-16.672 16.672-16.672 9.193 0 16.673 7.479 16.673 16.672 0 9.193-7.48 16.672-16.673 16.672zm.439-17.112h7.977a.44.44 0 110 .88h-8.418a.44.44 0 01-.44-.44V51.547a.44.44 0 01.88 0v10.459zm37.676-45.172H26.36a.44.44 0 010-.88h35.308a.44.44 0 010 .88zM26.36 23.668h37.999a.44.44 0 000-.88h-38a.44.44 0 000 .88zm37.999 6.834h-38a.44.44 0 010-.881h38a.44.44 0 010 .88zm-38 6.835h32.264a.44.44 0 000-.88H26.36a.44.44 0 000 .88z"/></g><defs><clipPath id="agclip0"><path d="M0 0h80v80H0z"/></clipPath></defs></svg><svg viewBox="0 0 64 64" id="box" xmlns="http://www.w3.org/2000/svg"><path d="M12.24 59.2H5.264a.465.465 0 01-.465-.465V5.265c0-.257.208-.465.465-.465h6.974c.257 0 .465.208.465.465v53.47a.465.465 0 01-.465.465zm-6.51-.93h6.044V5.73H5.73v52.54zm53.005.93h-6.974a.465.465 0 01-.465-.465V5.265c0-.257.208-.465.465-.465h6.974c.257 0 .465.208.465.465v53.47a.465.465 0 01-.465.465zm-6.51-.93h6.045V5.73h-6.044v52.54z"/><path d="M51.76 54.55H12.24a.465.465 0 01-.466-.464v-4.65c0-.257.209-.465.465-.465h39.522c.256 0 .465.208.465.465v4.65a.465.465 0 01-.465.464zm-39.056-.93h38.592V49.9H12.704v3.72zM51.76 28.978H12.24a.465.465 0 01-.466-.465v-4.65c0-.256.209-.465.465-.465h39.522c.256 0 .465.209.465.465v4.65a.465.465 0 01-.465.465zm-39.056-.93h38.592v-3.72H12.704v3.72z"/><path d="M47.111 49.9H30.838a.465.465 0 01-.465-.464V35.487c0-.257.208-.465.465-.465H47.11c.257 0 .465.208.465.465v13.949a.465.465 0 01-.465.465zm-15.808-.93h15.343V35.953H31.303v13.019z"/><path d="M42.462 40.602h-6.975a.465.465 0 01-.465-.465v-4.65c0-.257.209-.465.465-.465h6.975c.256 0 .465.208.465.465v4.65a.465.465 0 01-.465.465zm-6.51-.93h6.045v-3.72h-6.045v3.72zM26.576 49.9h-9.687a.465.465 0 01-.465-.464v-9.3c0-.256.208-.464.465-.464h9.687c.256 0 .464.208.464.465v9.299a.465.465 0 01-.464.465zm-9.222-.93h8.756v-8.368h-8.756v8.369z"/><path d="M23.808 43.701h-4.151a.465.465 0 01-.465-.465v-3.1c0-.256.208-.464.465-.464h4.15c.258 0 .466.208.466.465v3.1a.465.465 0 01-.465.464zm-3.687-.93h3.222v-2.17H20.12v2.17zm26.99-18.443H30.838a.465.465 0 01-.465-.465V9.915c0-.257.208-.465.465-.465H47.11c.257 0 .465.208.465.465v13.948a.465.465 0 01-.465.465zm-15.808-.93h15.343V10.38H31.303v13.018z"/><path d="M42.462 15.03h-6.975a.465.465 0 01-.465-.466v-4.65c0-.256.209-.464.465-.464h6.975c.256 0 .465.208.465.465v4.65a.465.465 0 01-.465.464zm-6.51-.93h6.045v-3.72h-6.045v3.72zm-9.376 10.228h-9.687a.465.465 0 01-.465-.465v-9.299c0-.257.208-.465.465-.465h9.687c.256 0 .464.208.464.465v9.3a.465.465 0 01-.464.464zm-9.222-.93h8.756V15.03h-8.756v8.37z"/><path d="M23.808 18.129h-4.151a.465.465 0 01-.465-.465v-3.1c0-.257.208-.465.465-.465h4.15c.258 0 .466.208.466.465v3.1a.465.465 0 01-.465.465zm-3.687-.93h3.222v-2.17H20.12v2.17z"/></svg><svg viewBox="0 0 31 9" id="btn-arrow" xmlns="http://www.w3.org/2000/svg"><path fill-rule="evenodd" clip-rule="evenodd" d="M23.5 8.83L31 4.5 23.5.17V3.5H0v2h23.5v3.33z"/></svg><svg viewBox="0 0 80 80" id="case" xmlns="http://www.w3.org/2000/svg"><path d="M72.031 63.828c-.023 3.04-2.156 5.695-5.14 6.344-.735.156-1.477.14-2.22.14H19.556c-1.696 0-3.383.008-5.078 0a6.577 6.577 0 01-5.938-3.789c-.531-1.132-.578-2.328-.578-3.546V30.984c0-1.68.398-3.297 1.516-4.601 1.304-1.516 3.14-2.313 5.125-2.313H65.03c1.242 0 2.446.164 3.563.766 2.133 1.156 3.414 3.383 3.422 5.797.007 2.469 0 4.93 0 7.398v24.164c.015.54.015 1.086.015 1.633 0 1.008 1.563 1.008 1.563 0V32.609c0-.687.008-1.375 0-2.062-.016-3.086-1.82-6.024-4.656-7.305-2.086-.945-4.36-.75-6.586-.75H14.516a8.174 8.174 0 00-6.75 3.578c-1.016 1.492-1.352 3.211-1.352 4.985V63.25c0 1.688.281 3.32 1.188 4.789a8.152 8.152 0 006.898 3.836h47.727c2.086 0 4.382.219 6.351-.586a8.13 8.13 0 005.031-7.46c-.007-1.009-1.57-1.009-1.578 0zM28.28 18.953V16.22c.007-1.547.522-3.078 1.546-4.258 1.07-1.234 2.586-2.078 4.227-2.242.656-.063 1.336-.031 1.992-.031h9.148c1.461.007 2.899.476 4.047 1.382 1.305 1.04 2.195 2.57 2.414 4.227.148 1.07.055 2.203.055 3.281v.375c0 1.008 1.562 1.008 1.562 0 0-.922.008-1.851 0-2.773a8.174 8.174 0 00-1.906-5.203 7.96 7.96 0 00-4.844-2.743c-.812-.125-1.625-.109-2.445-.109h-9.312A8.16 8.16 0 0029.599 10a8 8 0 00-2.773 4.828c-.195 1.227-.117 2.485-.117 3.719v.406c.008 1.008 1.57 1.008 1.57 0z"/><path d="M44.859 45.195a1.854 1.854 0 01-1.469 1.797c-.344.078-.742.04-1.094.04H38.07c-.36 0-.727.007-1.086 0-.79-.016-1.5-.5-1.75-1.266-.125-.375-.094-.782-.094-1.172v-1.938c0-1.187-.008-2.367 0-3.554 0-.657.281-1.274.852-1.625.437-.274.882-.29 1.375-.29h4.062c1.023 0 2.305-.21 3.031.688.344.43.399.922.399 1.438v5.882c0 1.008 1.562 1.008 1.562 0v-5.57c0-.555.016-1.102-.164-1.64-.383-1.141-1.36-2.07-2.554-2.29-.493-.093-.985-.07-1.485-.07h-4.492c-.5 0-.992-.016-1.484.078-1.204.242-2.196 1.211-2.532 2.383-.148.516-.133 1.055-.133 1.586v2.164c0 1.148-.046 2.313 0 3.469.055 1.21.75 2.367 1.844 2.914.625.312 1.282.375 1.961.375h4.406c.407 0 .813.008 1.22 0 1.179-.024 2.28-.617 2.905-1.625.329-.531.485-1.149.5-1.774.024-1.007-1.539-1.007-1.554 0z"/><path d="M45.843 42.906l2.687-.562c2.164-.453 4.336-.907 6.5-1.367 2.61-.547 5.219-1.094 7.836-1.641 2.266-.477 4.54-.953 6.805-1.43 1.094-.226 2.219-.398 3.297-.695.015-.008.03-.008.047-.008.414-.086.656-.57.546-.96-.117-.43-.546-.634-.96-.548-.899.188-1.797.375-2.688.563-2.164.453-4.336.906-6.5 1.367-2.61.547-5.219 1.094-7.836 1.64l-6.805 1.43c-1.093.227-2.218.399-3.297.696-.015.007-.03.007-.046.007-.415.086-.657.57-.547.961.117.422.547.633.96.547zM34.57 41.477c-.9-.188-1.798-.375-2.688-.563-2.164-.453-4.336-.906-6.5-1.367-2.61-.547-5.219-1.094-7.836-1.64l-6.805-1.43c-1.094-.227-2.195-.485-3.297-.696-.015 0-.031-.008-.047-.008-.414-.085-.843.125-.96.547-.11.391.132.875.546.961.899.188 1.797.375 2.688.563 2.164.453 4.336.906 6.5 1.367 2.61.547 5.219 1.094 7.836 1.64l6.804 1.43c1.094.227 2.196.485 3.297.696.016 0 .032.007.047.007.414.086.844-.125.961-.546.102-.391-.133-.875-.547-.961z"/></svg><svg viewBox="0 0 64 64" id="certificate" xmlns="http://www.w3.org/2000/svg"><path d="M52.456 49.617h-8.589V9.822h8.59a.384.384 0 00.379-.38C52.836 6.035 50.8 4 47.394 4H16.6a6.207 6.207 0 00-6.2 6.2v39.047c0 3.423 2.785 6.2 6.2 6.2h13.461v4.165c0 .146.087.276.216.345.13.06.284.043.405-.043l3.406-2.717 3.407 2.717a.373.373 0 00.397.052.384.384 0 00.215-.345v-4.166h9.287c3.406 0 5.442-2.035 5.442-5.44a.387.387 0 00-.38-.398zM47.394 4.75c2.13 0 3.587.828 4.26 2.38H46.3a.383.383 0 00-.38.38c0 .207.173.38.38.38h5.605c.086.361.147.75.164 1.163h-8.2v-.026c0-1.966.922-4.277 3.526-4.277zm-17.47 43.238l-.984-.595.63-.966a.397.397 0 000-.414l-.63-.966.983-.595a.38.38 0 00.181-.37l-.146-1.148 1.147-.112a.393.393 0 00.327-.258l.363-1.096 1.086.397a.376.376 0 00.405-.095l.802-.828.802.828a.376.376 0 00.406.095l1.086-.397.362 1.096a.372.372 0 00.328.258l1.147.112-.147 1.147a.38.38 0 00.181.371l.983.595-.629.966a.397.397 0 000 .414l.63.966-.984.595a.38.38 0 00-.18.37l.146 1.147-1.147.112a.392.392 0 00-.328.26l-.362 1.094-1.086-.396a.376.376 0 00-.406.094l-.802.828-.802-.828a.364.364 0 00-.276-.112.347.347 0 00-.129.026l-1.087.397-.362-1.095a.372.372 0 00-.327-.259l-1.147-.112.146-1.147a.387.387 0 00-.18-.38zm7.424 10.83l-3.027-2.414a.377.377 0 00-.474 0L30.82 58.82v-8.365l.38 1.13a.386.386 0 00.492.242l1.215-.45.905.932a.364.364 0 00.276.112.415.415 0 00.276-.112l.906-.931 1.216.448a.348.348 0 00.293-.017.366.366 0 00.198-.224l.38-1.13v8.365h-.009zm.759-4.13v-4.407l.569-.051a.369.369 0 00.336-.423l-.164-1.285 1.113-.672a.385.385 0 00.12-.535l-.707-1.087.708-1.086a.387.387 0 00-.121-.535l-1.113-.672.164-1.285a.37.37 0 00-.336-.423l-1.294-.13-.413-1.232a.386.386 0 00-.492-.242l-1.216.449-.905-.949a.39.39 0 00-.544 0l-.905.931-1.216-.448a.348.348 0 00-.293.017.367.367 0 00-.198.225l-.414 1.233-1.294.129a.37.37 0 00-.336.423l.164 1.285-1.113.672a.385.385 0 00-.12.535l.707 1.086-.707 1.087a.387.387 0 00.12.535l1.113.672-.164 1.285a.37.37 0 00.336.422l.57.052v4.407H16.6c-3 0-5.441-2.44-5.441-5.442V10.2c0-3 2.44-5.441 5.441-5.441h28.337c-1.147.845-1.82 2.345-1.82 4.277v41.375c0 1.931.673 3.44 1.82 4.277h-6.83zm9.287 0c-2.596 0-3.518-2.302-3.518-4.277v-.026h8.2a6.46 6.46 0 01-.137 1.043h-5.476a.383.383 0 00-.38.38c0 .207.173.38.38.38h5.252c-.656 1.62-2.13 2.5-4.32 2.5z"/><path d="M38.081 12.692H15.928a.383.383 0 00-.38.38c0 .207.173.379.38.379h22.144c.207 0 .38-.173.38-.38a.375.375 0 00-.371-.379zm0 5.468H15.928a.383.383 0 00-.38.379c0 .207.173.38.38.38h22.144c.207 0 .38-.173.38-.38a.375.375 0 00-.371-.38zm0 5.467H15.928a.383.383 0 00-.38.38c0 .206.173.379.38.379h22.144c.207 0 .38-.173.38-.38a.375.375 0 00-.371-.38zm0 5.459H15.928a.383.383 0 00-.38.379c0 .207.173.38.38.38h22.144c.207 0 .38-.173.38-.38a.37.37 0 00-.371-.38zM26.69 34.552H15.928a.383.383 0 00-.38.38c0 .207.173.38.38.38H26.68c.207 0 .38-.173.38-.38a.375.375 0 00-.371-.38zm7.39 15.358c2.035 0 3.7-1.655 3.7-3.699a3.699 3.699 0 10-3.7 3.7zm0-6.63c1.621 0 2.94 1.319 2.94 2.94s-1.319 2.94-2.94 2.94a2.944 2.944 0 01-2.94-2.94c0-1.63 1.319-2.94 2.94-2.94z"/></svg><svg viewBox="0 0 42 42" id="close" xmlns="http://www.w3.org/2000/svg"><path d="M1.313 1.313h39.374v39.374H1.313V1.313z"/><path d="M28.425 28.424L13.576 13.575m14.85 0l-14.85 14.85 14.85-14.85z"/></svg><svg viewBox="0 0 42 42" id="close-icon" xmlns="http://www.w3.org/2000/svg"><path d="M28.425 28.424L13.576 13.575m14.85 0l-14.85 14.85 14.85-14.85z"/></svg><svg viewBox="0 0 48 48" id="cloud-download" xmlns="http://www.w3.org/2000/svg"><path d="M36.332 14.132c-.226 0-.452.008-.674.026a8.91 8.91 0 00-8.916-8.172 8.94 8.94 0 00-8.352 5.73 7.345 7.345 0 00-1.6-.176c-4.042 0-7.33 3.288-7.33 7.328v.076h-.2c-3.628 0-6.58 2.954-6.58 6.582a6.588 6.588 0 006.58 6.58h12.372a.431.431 0 100-.864H9.26a5.719 5.719 0 01-5.714-5.714c0-3.152 2.562-5.716 5.736-5.716h.628c.12 0 .236-.05.318-.138a.436.436 0 00.114-.328 6.472 6.472 0 018.202-6.702.43.43 0 00.528-.28 8.079 8.079 0 017.67-5.516 8.05 8.05 0 018.078 7.796.43.43 0 00.486.414 8.264 8.264 0 011.026-.064c4.478 0 8.122 3.642 8.122 8.12s-3.644 8.122-8.122 8.122h-9.976a.431.431 0 100 .864h9.976c4.956 0 8.988-4.032 8.988-8.988-.002-4.95-4.034-8.98-8.988-8.98z"/><path d="M30.28 34.69l-5.848 5.85-.01-19.816a.431.431 0 10-.864 0l.01 19.814-5.85-5.85a.435.435 0 00-.612 0 .435.435 0 000 .612l6.588 6.588a.432.432 0 00.612-.002l6.588-6.588a.435.435 0 000-.612.437.437 0 00-.614.004z"/></svg><svg viewBox="0 0 56 52" id="contact-delivery" xmlns="http://www.w3.org/2000/svg"><path d="M39.252 18.742a.77.77 0 00-.761.773v6.932H.775a.77.77 0 00-.545 1.306l7.147 7.16L.23 42.06a.77.77 0 00.545 1.319h37.716v6.92a.769.769 0 001.318.545l15.387-15.386a.77.77 0 000-1.091L39.809 18.969a.77.77 0 00-.557-.227zm.773 2.625l13.546 13.546-13.546 13.534v-5.841a.77.77 0 00-.761-.773H2.638l6.376-6.375a.77.77 0 000-1.09L2.639 27.98h36.625a.77.77 0 00.761-.773v-5.84zM19.56.276a.77.77 0 00-.523.273l-7.693 9.239a.769.769 0 00.659 1.261.77.77 0 00.522-.273l7.466-8.965h28.785l-6.648 7.977a.769.769 0 00.659 1.261.77.77 0 00.523-.273l7.704-9.238a.77.77 0 00-.59-1.262H19.627a.77.77 0 00-.068 0z"/><path d="M50.33.265a.77.77 0 00-.681.773v21.318l-2.943 4.432a.77.77 0 101.272.852l3.08-4.625a.769.769 0 00.136-.42V1.038a.77.77 0 00-.863-.773zM11.933 9.504a.77.77 0 00-.773.772v16.932a.773.773 0 101.546 0V11.05h29.25v11.546a.77.77 0 101.534 0V10.275a.77.77 0 00-.773-.772H11.933z"/><path d="M31.864.265a.77.77 0 00-.512.284L23.66 9.788a.77.77 0 00-.181.489v7.693a.77.77 0 001.454.352l.852-1.705.853 1.705a.77.77 0 001.375 0l.852-1.705.852 1.705a.77.77 0 001.455-.352v-7.41l7.523-9.022A.771.771 0 0037.511.55l-7.694 9.238a.77.77 0 00-.181.489v4.432l-.08-.16a.77.77 0 00-1.375 0l-.852 1.705-.852-1.704a.769.769 0 00-1.376 0l-.079.159V10.56l7.511-9.023a.77.77 0 00-.67-1.273z"/></svg><svg viewBox="0 0 64 64" id="delivery" xmlns="http://www.w3.org/2000/svg"><path fill-rule="evenodd" clip-rule="evenodd" d="M37.122 43.513H1.274A.474.474 0 01.8 43.04V24.78a.11.11 0 01.007-.037l.005-.025.001-.006a.434.434 0 01.019-.09c.01-.028.024-.051.038-.076l.003-.004.003-.005c.014-.024.028-.048.047-.07a.436.436 0 01.071-.06l.004-.003a.171.171 0 00.02-.017.104.104 0 01.028-.023l16.869-9.283a2.942 2.942 0 01-.844-2.064 2.958 2.958 0 012.479-2.915V8.344h-3.984a.474.474 0 01-.474-.474V3.674c0-.262.212-.474.474-.474h9.347c.262 0 .474.212.474.474V7.87a.474.474 0 01-.474.474h-4.415v2.193a.474.474 0 01-.474.474c-1.106 0-2.005.9-2.005 2.005a2 2 0 00.78 1.577l.833-.458a.475.475 0 01.47.007l.971.575a2 2 0 00.956-1.7.474.474 0 11.949 0c0 .888-.396 1.684-1.019 2.226l15.405 9.127c.01.006.017.014.025.022a.16.16 0 00.017.016c.026.02.05.04.072.065.02.023.035.048.05.074a.449.449 0 01.038.08.63.63 0 01.02.096.149.149 0 00.005.024c.002.01.005.02.005.031v18.26a.474.474 0 01-.474.475zM16.04 4.148v3.248h8.399V4.148H16.04zM8.78 42.565h6.314V25.252H8.78v17.313zm7.262 0h6.313V25.252h-6.313v17.313zm7.26 0h6.314V25.252h-6.313v17.313zm7.262 0h6.084V25.252h-6.084v17.313zM20.024 15.97a2.93 2.93 0 01-1.25-.281L3.12 24.304h32.273l-14.367-8.513a2.915 2.915 0 01-1 .179zM7.833 25.252H1.748v17.313h6.085V25.252zM1.274 55.374h4.068c.244 3.032 2.785 5.426 5.878 5.426 3.09 0 5.628-2.394 5.872-5.426H43.24c.244 3.032 2.785 5.426 5.878 5.426 3.09 0 5.628-2.394 5.872-5.426h6.972a.474.474 0 00.474-.474v-9.969a.466.466 0 00-.048-.2 4.375 4.375 0 00-1.646-2.854l-2.676-2.092-2.324-9.38a4.392 4.392 0 00-4.26-3.334H40.288v-2.293a.474.474 0 00-.948 0v20.678H1.276a.474.474 0 00-.474.474L.8 54.9a.474.474 0 00.474.474zm47.844 4.478a4.96 4.96 0 01-4.954-4.954 4.957 4.957 0 014.954-4.949 4.953 4.953 0 014.948 4.949 4.957 4.957 0 01-4.948 4.954zm12.37-10.85h-2.682a1.8 1.8 0 01-1.798-1.799 1.8 1.8 0 011.798-1.798h2.682v3.596zM47.597 28.02h3.885a3.444 3.444 0 013.34 2.615l2.3 9.284h-9.525v-11.9zm-7.309 0h6.36v12.373c0 .261.213.474.475.474h10.52c.074 0 .141-.02.203-.05l2.313 1.807a3.435 3.435 0 011.209 1.833h-2.562a2.75 2.75 0 00-2.746 2.746 2.75 2.75 0 002.746 2.746h2.682v4.477h-6.497c-.242-3.031-2.78-5.425-5.873-5.425a5.904 5.904 0 00-5.878 5.425h-2.952V28.02zM11.22 59.852a4.96 4.96 0 01-4.954-4.947v-.002l.001-.003v-.006a4.957 4.957 0 014.953-4.944 4.953 4.953 0 014.948 4.947 4.957 4.957 0 01-4.948 4.955zM1.75 46.404h37.59v8.022H17.092c-.241-3.031-2.78-5.425-5.872-5.425a5.904 5.904 0 00-5.878 5.425H1.748l.002-8.022zm6.374 8.494a3.093 3.093 0 113.096 3.096 3.1 3.1 0 01-3.096-3.096zm.949 0a2.15 2.15 0 002.147 2.147 2.144 2.144 0 10-2.148-2.148zm36.95 0a3.093 3.093 0 113.096 3.096 3.1 3.1 0 01-3.096-3.096zm.948 0a2.15 2.15 0 002.148 2.147 2.144 2.144 0 10-2.148-2.148z"/></svg><svg viewBox="0 0 24 24" id="download" xmlns="http://www.w3.org/2000/svg"><path d="M11.852 15.492a.189.189 0 00.23.053.189.189 0 00.066-.053l2.625-3.32a.187.187 0 00-.148-.303h-1.737V3.938a.188.188 0 00-.187-.188h-1.407a.188.188 0 00-.187.188v7.928H9.375a.187.187 0 00-.148.303l2.625 3.323zm8.726-.82h-1.406a.188.188 0 00-.188.187v3.61H5.016v-3.61a.188.188 0 00-.188-.187H3.422a.188.188 0 00-.188.187V19.5c0 .415.336.75.75.75h16.032a.75.75 0 00.75-.75v-4.64a.188.188 0 00-.188-.188z"/></svg><svg viewBox="0 0 64 64" id="files" xmlns="http://www.w3.org/2000/svg"><path d="M1.602 32.21V11.345c0-1.154.103-1.891.524-2.383.434-.505 1.124-.676 2.282-.676h10.416c1.158 0 1.847.17 2.282.676.421.492.524 1.23.524 2.383v43.03c0 1.215-.101 1.99-.517 2.505-.434.539-1.127.719-2.29.719H4.407c-1.163 0-1.855-.181-2.29-.719-.415-.514-.517-1.29-.517-2.505V32.209h.002zm49.359 8.776a3.92 3.92 0 00-2.388 1.833 3.921 3.921 0 00-.393 2.984 3.92 3.92 0 001.833 2.388 3.921 3.921 0 002.985.393 3.92 3.92 0 002.387-1.833h.001a3.922 3.922 0 00.392-2.984 3.919 3.919 0 00-1.83-2.388h-.003a3.922 3.922 0 00-2.984-.393zm-.157-.81a4.742 4.742 0 013.553.491v.001a4.736 4.736 0 012.216 2.887l.015.053v.001a4.74 4.74 0 01-.49 3.552v.002a4.743 4.743 0 01-2.888 2.216 4.74 4.74 0 01-3.609-.476 4.743 4.743 0 01-2.216-2.887 4.74 4.74 0 01.476-3.609 4.743 4.743 0 012.888-2.216l.053-.014h.002zm-9.367-21.923a.412.412 0 01-.212-.795l6.365-1.706a.412.412 0 01.212.796l-6.365 1.706zm5.377-5.398a.412.412 0 01.213.796l-6.366 1.706a.412.412 0 01-.212-.796l6.365-1.706zm-5.661 11.267l-2.805-10.466c-.17-.639-.207-1.072.017-1.447.216-.363.631-.576 1.36-.772l6.272-1.68c.729-.196 1.195-.219 1.563-.013.382.214.567.607.739 1.246l5.784 21.587c.178.667.222 1.118.008 1.502-.213.381-.629.603-1.363.8l-6.272 1.68c-.734.197-1.204.213-1.58-.01-.377-.227-.565-.638-.744-1.306l-2.98-11.12zm-2.01-10.68l5.784 21.588c.123.458.225.725.37.813.151.09.44.056.946-.08l6.271-1.68c.506-.136.773-.25.857-.403.084-.149.038-.431-.084-.89l-5.785-21.587c-.112-.42-.206-.664-.342-.74-.149-.083-.44-.047-.951.09l-6.272 1.68c-.511.137-.78.25-.868.398-.08.134-.04.391.073.813v-.001zm1.465 19.709l-5.291-19.747v40.972c0 1.215-.102 1.99-.518 2.505-.434.539-1.127.719-2.29.719H22.093c-1.163 0-1.855-.181-2.29-.719-.415-.514-.517-1.29-.517-2.505v-43.03c0-1.154.103-1.891.524-2.383.434-.505 1.124-.676 2.282-.676h10.416c1.158 0 1.847.17 2.282.676.274.32.414.745.478 1.321.337-.435.924-.715 1.858-.965l10.06-2.696c1.119-.3 1.829-.314 2.378.062.533.365.825 1.05 1.124 2.166l11.137 41.564c.315 1.175.417 1.95.15 2.552-.28.632-.902.986-2.026 1.287L49.89 56.95c-1.123.3-1.838.305-2.397-.102-.534-.39-.833-1.113-1.148-2.287L40.606 33.15h.002zm-4.605-20.365L47.14 54.35c.266.993.492 1.585.836 1.836.32.232.835.202 1.701-.03l10.06-2.696c.866-.232 1.327-.463 1.486-.823.174-.39.074-1.017-.192-2.01L49.894 9.065c-.248-.924-.462-1.473-.793-1.7-.316-.216-.831-.179-1.701.055l-10.061 2.696c-.87.234-1.336.459-1.501.803-.173.361-.084.944.165 1.87v-.002zm-8.741 28.847c1.313 0 2.502.533 3.363 1.393a4.741 4.741 0 011.393 3.364 4.745 4.745 0 01-1.393 3.363 4.741 4.741 0 01-3.363 1.393 4.745 4.745 0 01-3.364-1.393 4.74 4.74 0 01-1.393-3.363c0-1.314.533-2.503 1.393-3.364a4.74 4.74 0 013.364-1.393zm2.78 1.976a3.92 3.92 0 00-2.78-1.151 3.92 3.92 0 00-2.78 1.151 3.92 3.92 0 00-1.152 2.78c0 1.086.44 2.07 1.151 2.781a3.919 3.919 0 002.78 1.152 3.92 3.92 0 002.781-1.152 3.92 3.92 0 001.152-2.78 3.92 3.92 0 00-1.152-2.78zm-6.097-25.575a.412.412 0 110-.824h6.59a.412.412 0 110 .824h-6.59zm6.59-3.823a.412.412 0 110 .824h-6.59a.412.412 0 110-.824h6.59zm-8.384 9.418V12.793c0-.662.077-1.09.39-1.394.303-.295.76-.394 1.515-.394h6.493c.754 0 1.211.1 1.514.394.313.305.39.732.39 1.394v22.35c0 .69-.075 1.136-.382 1.453-.303.313-.762.42-1.522.42h-6.493c-.76 0-1.219-.106-1.523-.42-.307-.317-.382-.764-.382-1.454V23.63zm.824-10.836v22.35c0 .474.029.758.147.88.122.126.41.168.934.168h6.493c.524 0 .812-.042.933-.168.119-.123.148-.406.148-.88v-22.35c0-.436-.028-.696-.14-.805-.122-.118-.412-.159-.941-.159h-6.493c-.53 0-.82.04-.942.159-.112.11-.139.369-.139.805zm-2.863-1.447v43.03c0 1.028.066 1.658.333 1.99.248.307.752.41 1.65.41H32.51c.897 0 1.401-.103 1.65-.41.268-.332.332-.962.332-1.99v-43.03c0-.958-.063-1.544-.325-1.848-.248-.29-.755-.386-1.658-.386H22.093c-.901 0-1.409.098-1.657.386-.26.304-.326.891-.326 1.848h.002zM9.577 41.633c1.313 0 2.502.533 3.363 1.393a4.74 4.74 0 011.393 3.364 4.745 4.745 0 01-1.393 3.363 4.74 4.74 0 01-3.363 1.393 4.745 4.745 0 01-3.364-1.393A4.74 4.74 0 014.82 46.39c0-1.314.533-2.503 1.393-3.364a4.74 4.74 0 013.364-1.393zm2.78 1.976a3.92 3.92 0 00-2.78-1.151 3.92 3.92 0 00-2.78 1.151 3.92 3.92 0 00-1.153 2.78 3.92 3.92 0 001.152 2.781 3.919 3.919 0 002.78 1.152 3.92 3.92 0 002.781-1.152 3.92 3.92 0 001.152-2.78 3.92 3.92 0 00-1.152-2.78zM6.26 18.034a.412.412 0 110-.824h6.59a.412.412 0 110 .824H6.26zm6.59-3.823a.412.412 0 110 .824H6.26a.412.412 0 110-.824h6.59zM4.466 23.63V12.793c0-.662.077-1.09.39-1.394.303-.295.76-.394 1.515-.394h6.493c.754 0 1.211.1 1.514.394.313.305.39.732.39 1.394v22.35c0 .69-.075 1.136-.382 1.453-.303.313-.762.42-1.522.42H6.37c-.76 0-1.219-.106-1.523-.42-.307-.317-.382-.764-.382-1.454V23.63zm.824-10.836v22.35c0 .474.029.758.147.88.122.126.41.168.934.168h6.493c.524 0 .812-.042.933-.168.119-.123.148-.406.148-.88v-22.35c0-.436-.028-.696-.14-.805-.122-.118-.412-.159-.941-.159H6.37c-.53 0-.82.04-.942.159-.112.11-.139.369-.139.805zm-2.863-1.447v43.03c0 1.028.066 1.658.333 1.99.248.307.752.41 1.65.41h10.415c.897 0 1.401-.103 1.65-.41.267-.332.332-.962.332-1.99v-43.03c0-.958-.063-1.544-.325-1.848-.248-.29-.755-.386-1.658-.386H4.408c-.901 0-1.41.098-1.657.386-.26.304-.326.891-.326 1.848h.002z"/></svg><svg viewBox="0 0 10 24" id="i" xmlns="http://www.w3.org/2000/svg"><path fill-rule="evenodd" clip-rule="evenodd" d="M9.698 21.41l-.316 1.37a60.32 60.32 0 01-2.27.908c-.565.208-1.221.312-1.969.312-1.149 0-2.042-.297-2.679-.892-.637-.594-.955-1.348-.955-2.262 0-.356.023-.72.071-1.09.048-.37.125-.79.23-1.257l1.178-4.45c.106-.427.194-.83.266-1.212.072-.38.108-.729.108-1.043 0-.57-.11-.966-.33-1.19-.22-.223-.642-.334-1.265-.334-.306 0-.62.05-.94.152-.322.102-.597.198-.827.29L.316 9.34a28.842 28.842 0 012.227-.861c.709-.239 1.38-.358 2.011-.358 1.14 0 2.019.292 2.637.876.618.584.926 1.344.926 2.278 0 .193-.021.534-.064 1.021a7.288 7.288 0 01-.237 1.341l-1.178 4.435c-.096.356-.182.762-.259 1.22-.077.456-.115.802-.115 1.035 0 .59.125.99.374 1.204.249.214.68.32 1.293.32.287 0 .613-.053.977-.16.364-.106.627-.2.79-.282zM10 2.803a2.67 2.67 0 01-.826 1.973 2.73 2.73 0 01-1.99.816 2.754 2.754 0 01-1.997-.816 2.66 2.66 0 01-.833-1.973c0-.772.278-1.432.833-1.981A2.741 2.741 0 017.184 0c.776 0 1.44.274 1.99.823.55.549.826 1.209.826 1.981z"/></svg><svg viewBox="0 0 46 50" id="manager" xmlns="http://www.w3.org/2000/svg"><path d="M.001 42.92l.172 6.34a.76.76 0 00.76.74h43.53a.76.76 0 00.759-.74l.17-6.322c.003-.067.249-6.705-7.602-8.66a57.416 57.416 0 00-10.925-1.181c3.998-2.346 6.797-7.617 6.797-13.74 0-.23-.014-.455-.025-.68.58-.735 2.066-3.294 1.292-9.555-.258-1.463-1.38-4.028-3.842-4.187a4.446 4.446 0 00-1.227-2.183c-.087-.076-8.724-7.561-18.767 2.483a.759.759 0 00.223 1.228l.501.228c-1.224 1.072-2.796 3.329-2.121 7.604l.79 4.352a.752.752 0 00.317.478c-.001.077-.006.154-.006.232 0 6.147 2.82 11.438 6.843 13.77a54.238 54.238 0 00-10.036 1.152C-.246 36.233-.001 42.87 0 42.919zm22.415-8.102l2.372 1.553-.872 2.42h-3l-.87-2.42 2.37-1.553zm-1.335 5.492h2.679l.673 8.17h-4.025l.673-8.17zm22.793 2.569l-.151 5.602H25.958l-.73-8.853 1.192-3.306a.76.76 0 00-.298-.893l-1.301-.852c3.075.037 8.831.237 12.603 1.176 6.607 1.645 6.46 6.888 6.45 7.126zM33.427 9.346c.593 4.797-.265 7.132-.748 8.018-2.414-1.515-2.837-4.956-2.848-7.122l.073-.089c.152-.233.29-.474.415-.723.48-.917.777-1.919.876-2.949 1.732.318 2.216 2.785 2.232 2.865zm-19.77-2.08a.76.76 0 00.028-1.394l-.718-.327c8.64-7.875 15.582-1.924 15.85-1.689.517.505.828 1.185.87 1.906a6.004 6.004 0 01-.72 2.978c-.159.31-.288.512-.284.512V9.25c-.03.037-.063.072-.096.108l-.083.091c-4.496 5.059-13.978 1.581-14.075 1.545a.76.76 0 00-1.024.643c-.328 3.614-1.09 5.097-1.612 5.7l-.6-3.297c-.836-5.299 2.335-6.72 2.465-6.775zm-1.341 12.09c0-.157.008-.311.012-.467.959-.652 2.01-2.282 2.49-6.165 2.44.742 9.097 2.284 13.552-1.111.207 2.487 1.046 5.628 3.751 7.173.01.19.021.378.021.57 0 7.458-4.447 13.526-9.913 13.526s-9.913-6.067-9.913-13.525zM20 34.585l-1.29.844a.758.758 0 00-.297.893l1.198 3.324-.728 8.835H1.672l-.152-5.62c-.003-.055-.2-5.453 6.45-7.108 3.547-.884 8.853-1.114 12.03-1.168z"/></svg><svg viewBox="0 0 50 50" id="manufacturing" xmlns="http://www.w3.org/2000/svg"><path d="M40.072 10.044a3.275 3.275 0 003.271 3.272 3.274 3.274 0 003.271-3.272 3.275 3.275 0 00-3.27-3.27 3.275 3.275 0 00-3.272 3.27zm5.293 0a2.023 2.023 0 01-2.02 2.022 2.024 2.024 0 01-2.022-2.022c0-1.114.907-2.02 2.021-2.02 1.114 0 2.02.906 2.02 2.02zm-23.636 0a3.275 3.275 0 003.27 3.272 3.275 3.275 0 003.272-3.272A3.275 3.275 0 0025 6.774a3.275 3.275 0 00-3.271 3.27zm5.292 0A2.024 2.024 0 0125 12.066a2.024 2.024 0 01-2.021-2.022 2.022 2.022 0 014.042 0z"/><path d="M0 10.146c0 2.605 1.509 4.86 3.695 5.952v5.608a1.92 1.92 0 001.917 1.917h.419v1.41a5.262 5.262 0 00-3.12 1.508c-1.001 1-1.552 2.33-1.552 3.745s.552 2.745 1.552 3.745a.624.624 0 10.883-.883 4.02 4.02 0 01-1.185-2.862c0-1.08.422-2.097 1.185-2.861a4.051 4.051 0 015.723 0 4.02 4.02 0 011.185 2.861c0 1.08-.421 2.097-1.185 2.861a.624.624 0 10.884.884c1-1 1.55-2.33 1.55-3.745a5.263 5.263 0 00-1.55-3.745 5.265 5.265 0 00-3.12-1.507v-1.41h.418a1.92 1.92 0 001.917-1.917v-5.608a6.657 6.657 0 003.695-5.953c0-3.46-2.653-6.308-6.03-6.624V1.25h17.094v2.271c-3.378.317-6.03 3.165-6.03 6.625a6.657 6.657 0 003.694 5.952v5.608a1.92 1.92 0 001.917 1.917h.419v1.41a5.262 5.262 0 00-3.12 1.508c-1 1-1.551 2.33-1.551 3.745s.551 2.745 1.551 3.745a.624.624 0 10.884-.883 4.02 4.02 0 01-1.185-2.862c0-1.08.421-2.097 1.185-2.861a4.051 4.051 0 015.722 0 4.02 4.02 0 011.185 2.861c0 1.08-.421 2.097-1.185 2.861a.624.624 0 10.884.884c1-1 1.551-2.33 1.551-3.745a5.263 5.263 0 00-1.551-3.745 5.265 5.265 0 00-3.12-1.507v-1.41h.419a1.92 1.92 0 001.917-1.917v-5.608c2.186-1.092 3.695-3.347 3.695-5.953 0-3.46-2.653-6.308-6.031-6.624V1.25h17.094v2.271c-3.378.317-6.03 3.165-6.03 6.625a6.656 6.656 0 003.695 5.952v5.608a1.92 1.92 0 001.917 1.917h.418v1.41a5.262 5.262 0 00-3.12 1.508c-1 1-1.55 2.33-1.55 3.745s.55 2.745 1.55 3.745a.624.624 0 10.884-.883 4.02 4.02 0 01-1.185-2.862c0-1.08.421-2.097 1.185-2.861a4.051 4.051 0 015.723 0 4.02 4.02 0 011.185 2.861c0 1.08-.422 2.097-1.185 2.861a.624.624 0 10.883.884 5.258 5.258 0 001.552-3.745 5.263 5.263 0 00-1.552-3.745 5.264 5.264 0 00-3.12-1.507v-1.41h.419a1.92 1.92 0 001.916-1.917v-5.608C48.491 15.006 50 12.751 50 10.146c0-3.46-2.653-6.309-6.03-6.625V1.25h5.405a.625.625 0 100-1.25H.625a.625.625 0 100 1.25h5.406v2.271C2.653 3.838 0 6.686 0 10.146zm26.71 11.56a.667.667 0 01-.666.666h-2.088a.667.667 0 01-.667-.666V16.57a6.634 6.634 0 001.711.231c.592 0 1.164-.085 1.71-.231v5.136zm3.696-11.56A5.411 5.411 0 0125 15.55a5.412 5.412 0 01-5.406-5.405A5.412 5.412 0 0125 4.74a5.411 5.411 0 015.406 5.406zm14.648 11.56a.667.667 0 01-.666.666H42.3a.668.668 0 01-.667-.666V16.57a6.635 6.635 0 001.71.231c.592 0 1.163-.085 1.71-.231v5.136zm3.696-11.56a5.411 5.411 0 01-5.406 5.405 5.412 5.412 0 01-5.405-5.405 5.412 5.412 0 015.405-5.406 5.411 5.411 0 015.406 5.406zM8.367 21.706c0 .367-.3.666-.667.666H5.612a.668.668 0 01-.666-.666V16.57a6.635 6.635 0 001.71.231 6.61 6.61 0 001.71-.231v5.136zm3.695-11.56a5.411 5.411 0 01-5.406 5.405 5.412 5.412 0 01-5.406-5.405A5.412 5.412 0 016.656 4.74a5.412 5.412 0 015.406 5.406z"/><path d="M3.385 10.044a3.275 3.275 0 003.27 3.272 3.275 3.275 0 003.272-3.272 3.275 3.275 0 00-3.272-3.27 3.275 3.275 0 00-3.27 3.27zm5.292 0a2.024 2.024 0 01-2.021 2.022 2.023 2.023 0 01-2.02-2.022c0-1.114.906-2.02 2.02-2.02 1.114 0 2.021.906 2.021 2.02zM.625 50h12.062c.346 0 .625-.28.625-.625V37.313a.625.625 0 00-.625-.625H.625a.625.625 0 00-.625.625v12.062c0 .345.28.625.625.625zm.625-12.062h10.812V48.75H1.25V37.938zm17.719-1.25a.625.625 0 00-.625.625v12.062c0 .345.28.625.625.625H31.03c.345 0 .625-.28.625-.625V37.313a.625.625 0 00-.625-.625H18.969zM30.405 48.75H19.594V37.938h10.812V48.75h-.001zm6.908-12.062a.625.625 0 00-.626.625v12.062c0 .345.28.625.626.625h12.062c.346 0 .625-.28.625-.625V37.313a.625.625 0 00-.625-.625H37.312zM48.75 48.75H37.937V37.938H48.75V48.75z"/></svg><svg viewBox="0 0 13 20" id="next" xmlns="http://www.w3.org/2000/svg"><path fill-rule="evenodd" clip-rule="evenodd" d="M2.84.4L.6 2.64 7.96 10 .6 17.36l2.24 2.24 9.6-9.6L2.84.4z"/></svg><svg viewBox="0 0 36 36" id="noun_dialog" xmlns="http://www.w3.org/2000/svg"><path d="M12.24 2.704v8.16h-9.6v22.432l7.26-4.192h13.86v-8.16h5.081l4.519 4.519V2.704H12.24zm10.56 25.44H9.642L3.6 31.633v-19.81h8.64v9.12H22.8v7.2zm9.6-4.999l-3.161-3.16H13.2V3.664h19.2v19.48z"/></svg><svg viewBox="0 0 24 24" id="pagination-next" xmlns="http://www.w3.org/2000/svg"><path fill-rule="evenodd" clip-rule="evenodd" d="M8 21a.997.997 0 00.707-.293l8-8a.999.999 0 000-1.414l-8-8a.999.999 0 10-1.414 1.414L14.586 12l-7.293 7.293A.999.999 0 008 21z"/></svg><svg viewBox="0 0 24 24" id="pagination-prev" xmlns="http://www.w3.org/2000/svg"><path fill-rule="evenodd" clip-rule="evenodd" d="M16 21a.997.997 0 01-.707-.293l-8-8a.999.999 0 010-1.414l8-8a.999.999 0 111.414 1.414L9.414 12l7.293 7.293A.999.999 0 0116 21z"/></svg><svg viewBox="0 0 13 20" id="prev" xmlns="http://www.w3.org/2000/svg"><path fill-rule="evenodd" clip-rule="evenodd" d="M12.44 2.64L10.2.4.6 10l9.6 9.6 2.24-2.24L5.08 10l7.36-7.36z"/></svg><svg viewBox="0 0 64 64" id="price" xmlns="http://www.w3.org/2000/svg"><path fill-rule="evenodd" clip-rule="evenodd" d="M13.6 19.675L28.293 3.2l1.46 1.638 13.232 14.837v41.361H13.6V19.675zm2.747 40.65h25.926v-40.38L29.224 5.313l-.93-1.043-13.981 15.676v40.38h2.035zm6.689-15.405h-2.258v-2.702h2.258v-7.786h6.295c1.216 0 2.284.219 3.203.656.92.438 1.632 1.064 2.136 1.88.511.808.767 1.731.767 2.77 0 1.6-.545 2.865-1.635 3.792-1.082.927-2.591 1.39-4.526 1.39h-2.903v.846h3.537v2.702h-3.537v2.158h-3.337v-2.158h-2.258v-2.702h2.258v-.846zm0-.8h-1.458v-1.102h2.258v-7.786h5.495c1.12 0 2.067.201 2.86.578.79.376 1.38.902 1.798 1.578l.005.008c.424.669.643 1.441.643 2.341 0 1.399-.464 2.428-1.353 3.183l-.002.002c-.893.765-2.193 1.198-4.006 1.198h-3.703v2.446h3.536v1.102h-3.536v2.158h-1.737v-2.158h-2.258v-1.102h2.258V44.12h-.8zm2.537-1.902v.8h3.68c1.034 0 1.959-.225 2.63-.814.691-.606.973-1.473.973-2.445 0-.953-.297-1.794-.944-2.443-.656-.665-1.534-.962-2.53-.97h-3.809v5.872zm6.483-2.459c0-.778-.237-1.405-.712-1.88-.474-.481-1.13-.726-1.968-.733h-3.003v5.071h2.88c1.869 0 2.803-.819 2.803-2.458zM30.418 3.971l14.247 15.974V60.68h.712V19.674L30.949 3.497l-.53.474zm16.358 15.974L32.53 3.97l.531-.474 14.427 16.177V60.68h-.712V19.945zM35.173 3.497l-.531.474 14.246 15.974V60.68h.712V19.674L35.173 3.497zm-6.88 19.708a3.4 3.4 0 01-3.396-3.395 3.4 3.4 0 013.396-3.396 3.4 3.4 0 013.395 3.396 3.4 3.4 0 01-3.395 3.395zm-.001-.711a2.687 2.687 0 002.684-2.684 2.687 2.687 0 00-2.684-2.684 2.687 2.687 0 00-2.684 2.684 2.687 2.687 0 002.684 2.684z"/></svg><svg viewBox="0 0 130 130" id="step1" xmlns="http://www.w3.org/2000/svg"><path d="M52.876 28.904a1.047 1.047 0 01-.526-1.955l13.262-7.67a1.048 1.048 0 111.05 1.814L53.4 28.763a1.04 1.04 0 01-.524.141zm7.339 1.706a1.048 1.048 0 01-.524-1.957l7.007-4.037a1.048 1.048 0 011.047 1.816l-7.007 4.037a1.05 1.05 0 01-.523.14zm-6.408 10.968a1.048 1.048 0 01-.525-1.957l14.75-8.501a1.049 1.049 0 011.047 1.816l-14.75 8.501c-.165.095-.345.14-.522.14z"/><path d="M63.45 51.671H51.79c-.303 0-.591-.131-.79-.36l-7.21-8.3a1.048 1.048 0 01-.235-.897l4.976-24.315c.1-.487.529-.838 1.026-.838h16.126c.498 0 .927.35 1.027.838l4.984 24.314a1.05 1.05 0 01-.236.898l-7.217 8.3c-.199.229-.487.36-.79.36zm-11.18-2.096h10.704l6.564-7.548-4.709-22.97H50.413l-4.701 22.97 6.557 7.548z"/><path d="M58.103 84.372c-4.145 0-7.548-1.152-10.113-3.425-2.56-2.259-4.116-5.545-4.626-9.765-.07-.574.34-1.096.914-1.166 1.83-.223 3.03-.322 3.897-.322 2.394 0 2.934.881 3.093 2.508.097.987.217 2.214 2.107 3.99 1.307 1.228 2.883 1.825 4.817 1.825 2.021 0 3.681-.666 5.075-2.034 1.387-1.334 2.057-2.84 2.057-4.613a5.1 5.1 0 00-.673-2.579c-.338-.587-1.187-1.685-3.293-3.543-1.797-1.563-3.096-2.817-3.856-3.723-1.044-1.252-1.772-2.46-2.227-3.698-.634-1.587-.947-3.445-.947-5.655 0-.346.015-.843.041-1.585a1.048 1.048 0 011.047-1.011h4.976c.573 0 1.04.46 1.048 1.032.04 2.464.235 3.67.392 4.247.209.79.539 1.495.984 2.102.344.462 1.18 1.391 3.18 3.152 2.656 2.36 4.393 4.313 5.314 5.975.951 1.71 1.434 3.611 1.434 5.646 0 3.496-1.355 6.518-4.028 8.979-2.675 2.432-6.244 3.663-10.613 3.663zm-12.505-12.4c.556 3.191 1.825 5.678 3.78 7.405 2.172 1.924 5.107 2.9 8.725 2.9 3.831 0 6.926-1.048 9.199-3.114 2.25-2.073 3.346-4.505 3.346-7.433 0-1.698-.383-3.212-1.17-4.63-.794-1.432-2.432-3.255-4.87-5.421-1.737-1.529-2.876-2.668-3.479-3.478a8.277 8.277 0 01-1.32-2.804c-.232-.846-.376-2.073-.438-3.726h-2.94c-.005.2-.007.367-.007.5 0 1.939.264 3.544.807 4.905.382 1.034.993 2.041 1.879 3.103.472.563 1.486 1.628 3.629 3.492 1.868 1.648 3.122 3.02 3.732 4.08a7.247 7.247 0 01.949 3.618c0 2.34-.906 4.398-2.693 6.116-1.772 1.74-3.973 2.627-6.535 2.627-2.458 0-4.562-.805-6.252-2.394-2.464-2.315-2.648-4.191-2.758-5.313-.018-.177-.04-.408-.069-.525-.095-.032-.347-.09-.939-.09-.596 0-1.428.058-2.575.183zm12.027-52.915c-.58 0-1.048-.469-1.048-1.047V2.22a1.048 1.048 0 012.096 0v15.79c0 .578-.47 1.047-1.048 1.047zm32.244 87.05H26.814a1.048 1.048 0 01-1.048-1.048v-7.604c0-.579.469-1.047 1.048-1.047h63.055c.579 0 1.048.468 1.048 1.047v7.604c0 .579-.47 1.048-1.048 1.048zm-62.008-2.096h60.96v-5.508H27.86v5.508z"/><path d="M102.362 113.711H39.323a1.048 1.048 0 01-1.048-1.048v-7.604c0-.579.47-1.048 1.048-1.048h63.039c.579 0 1.048.469 1.048 1.048v7.604c0 .579-.469 1.048-1.048 1.048zm-61.99-2.096h60.942v-5.508H40.371v5.508z"/><path d="M89.869 121.315H26.814a1.048 1.048 0 01-1.048-1.048v-7.604c0-.579.469-1.048 1.048-1.048h63.055c.579 0 1.048.469 1.048 1.048v7.604c0 .579-.47 1.048-1.048 1.048zm-62.008-2.096h60.96v-5.508H27.86v5.508zm5.07-20.716a1.047 1.047 0 01-.6-1.908l26.532-18.482a1.048 1.048 0 111.198 1.72L33.529 98.315a1.04 1.04 0 01-.598.188zm53.062 0c-.218 0-.438-.068-.626-.208L64.499 82.729a1.048 1.048 0 111.254-1.68L86.62 96.615a1.048 1.048 0 01-.627 1.888z"/><path d="M102.362 128.918H39.323a1.048 1.048 0 01-1.048-1.047v-7.605c0-.578.47-1.047 1.048-1.047h63.039c.579 0 1.048.469 1.048 1.047v7.605c0 .578-.469 1.047-1.048 1.047zm-61.99-2.095h60.942v-5.509H40.371v5.509z"/></svg><svg viewBox="0 0 130 130" id="step2" xmlns="http://www.w3.org/2000/svg"><path d="M83.164 32.07a1.172 1.172 0 01-1.172-1.172v-6.566C66.34 43.103 48.02 57.258 27.5 66.42a134.636 134.636 0 01-8.959 3.633 1.171 1.171 0 11-.805-2.201 137.688 137.688 0 008.809-3.57c20.405-9.117 38.617-23.26 54.145-42.056h-7.246a1.172 1.172 0 110-2.344h9.877l.059.01.058.013.053.014.059.02.05.017.057.027.047.022.057.033.043.025c.02.014.038.028.056.043l.032.022.05.045.038.033.027.03c.067.07.125.15.172.236l.029.058c.006.016.013.03.022.045v.026c.032.081.055.166.068.253v.172c0 .026 0 0 0 0v9.873a1.172 1.172 0 01-1.135 1.172zM18.125 82.969h20.68V68.8a1.172 1.172 0 011.172-1.172h23.656V51.465a1.172 1.172 0 011.172-1.172h22.851V33.105a1.172 1.172 0 011.172-1.171h22.309a1.171 1.171 0 011.172 1.16l.738 75.84a1.172 1.172 0 01-1.172 1.183h-93.75a1.17 1.17 0 01-1.172-1.172V84.141a1.172 1.172 0 011.172-1.172zm23.023-12.996V84.14l.301 23.632h22.184v-37.8H41.148zm24.828-17.336v55.136h21.68V52.637h-21.68zm44.008-18.36H90v73.496h20.691l-.707-73.496zm-90.687 73.496h19.808l-.277-22.46H19.297v22.46z"/></svg><svg viewBox="0 0 130 130" id="step3" xmlns="http://www.w3.org/2000/svg"><path d="M107 81V34H86v-6L75 17H23v64h-4v32h92V81h-4zm-2-45v45H92.63a5 5 0 00-4.56 3l-1.92 4.28c0 .1-.1.18-.15.27V36h19zM75 20.41L82.59 28H75v-7.59zM25 19h48v11h11v59.94a3.16 3.16 0 01-.59.06H46.58a2.93 2.93 0 01-2.74-1.77L41.92 84a5 5 0 00-4.56-3H25V19zm84 92H21V83h16.36a2.93 2.93 0 012.74 1.77l1.9 4.28A5 5 0 0046.58 92h36.83A5 5 0 0088 89l1.92-4.28A2.93 2.93 0 0192.63 83H109v28z"/><path d="M65 104a4.504 4.504 0 004.157-2.778A4.499 4.499 0 1065 104zm0-7a2.5 2.5 0 110 5 2.5 2.5 0 010-5zm40 10H25v2h80v-2zM76 35H33v2h43v-2zm0 6H33v2h43v-2zm0 6H33v2h43v-2zm0 6H33v2h43v-2zm0 6H33v2h43v-2zm0 6H33v2h43v-2zm0 12H63v2h13v-2z"/></svg><svg viewBox="0 0 39 50" id="warranty" xmlns="http://www.w3.org/2000/svg"><path d="M.472 0A.6.6 0 000 .582v43.626c0 .305.277.582.581.582h14.88a.604.604 0 00.59-.582.605.605 0 00-.59-.581H1.163V1.163h36.046v10.47a.605.605 0 00.581.59.605.605 0 00.582-.59V.583A.604.604 0 0037.79 0H.472zm5.814 5.235a.607.607 0 00-.527.636.607.607 0 00.636.528h25.582a.604.604 0 00.59-.582.605.605 0 00-.59-.582H6.287zm0 5.817a.607.607 0 00-.527.636.607.607 0 00.636.527h20.349a.605.605 0 00.59-.581.605.605 0 00-.59-.582H6.286zm31.432 3.472a.603.603 0 00-.509.6v28.502h-1.145a.604.604 0 00-.59.582c0 .308.283.586.59.582h1.726a.604.604 0 00.582-.582V15.124c.013-.337-.32-.642-.654-.6zM6.286 16.869a.607.607 0 00-.527.636.607.607 0 00.636.527h25.018a.605.605 0 00.59-.581.605.605 0 00-.59-.582H6.286zm0 5.817a.607.607 0 00-.527.636.607.607 0 00.636.527h11.047a.604.604 0 00.59-.582.605.605 0 00-.59-.581H6.286zm19.295 1.163c-4.488 0-8.14 3.653-8.14 8.144 0 4.49 3.652 8.143 8.14 8.143 4.489 0 8.14-3.653 8.14-8.143s-3.651-8.144-8.14-8.144zm0 1.163a6.97 6.97 0 016.977 6.98 6.97 6.97 0 01-6.977 6.981 6.97 6.97 0 01-6.976-6.98 6.97 6.97 0 016.976-6.98zm2.853 4.636a.588.588 0 00-.382.218l-3.652 4.18-1.89-1.89a.607.607 0 00-.828-.011.608.608 0 00-.007.83l2.344 2.326c.222.23.642.221.854-.018l4.051-4.654c.332-.343-.016-1.04-.49-.981zm-8.74 11.634a.603.603 0 00-.508.6v7.561c.006.418.563.708.908.473l5.487-3.817 5.487 3.817c.345.235.902-.055.909-.473v-7.561a.605.605 0 00-.582-.59.605.605 0 00-.581.59v6.434l-4.906-3.38a.596.596 0 00-.654 0l-4.905 3.38v-6.434c.013-.337-.32-.643-.654-.6z"/></svg></svg>