<svg width="36" height="36" viewBox="0 0 36 36" fill="none" xmlns="http://www.w3.org/2000/svg">
<circle cx="18" cy="18" r="18" fill="#2F89CE"/>
<path d="M8.41561 18.3367L12.5539 19.8797L14.1671 25.0701C14.2373 25.4208 14.6581 25.491 14.9387 25.2805L17.2533 23.3868C17.4637 23.1763 17.8144 23.1763 18.095 23.3868L22.2332 26.4028C22.5138 26.6132 22.9346 26.4729 23.0048 26.1222L26.0909 11.3928C26.1611 11.0421 25.8104 10.6914 25.4597 10.8317L8.41561 17.4248C7.99477 17.5651 7.99477 18.1964 8.41561 18.3367ZM13.9567 19.1082L22.0929 14.1282C22.2332 14.0581 22.3735 14.2685 22.2332 14.3387L15.5699 20.5811C15.3595 20.7916 15.1491 21.0721 15.1491 21.4228L14.9387 23.1062C14.9387 23.3166 14.588 23.3868 14.5178 23.1062L13.6761 20.02C13.4657 19.6693 13.606 19.2485 13.9567 19.1082Z" fill="white"/>
</svg>
