<svg width="36" height="36" viewBox="0 0 36 36" fill="none" xmlns="http://www.w3.org/2000/svg">
<circle cx="18" cy="18" r="18" fill="#48C95F"/>
<path d="M25.1341 10.8563C23.3561 9.08441 20.9854 8.10004 18.4829 8.10004C13.2805 8.10004 9.06585 12.3 9.06585 17.4844C9.06585 19.125 9.52683 20.7657 10.3171 22.1438L9 27L14.0049 25.6875C15.3878 26.4094 16.9024 26.8032 18.4829 26.8032C23.6854 26.8032 27.9 22.6032 27.9 17.4188C27.8341 14.9907 26.9122 12.6282 25.1341 10.8563ZM23.0268 20.8313C22.8293 21.3563 21.9073 21.8813 21.4463 21.9469C21.0512 22.0125 20.5244 22.0125 19.9976 21.8813C19.6683 21.75 19.2073 21.6188 18.6805 21.3563C16.3098 20.3719 14.7951 18.0094 14.6634 17.8125C14.5317 17.6813 13.6756 16.5657 13.6756 15.3844C13.6756 14.2032 14.2683 13.6782 14.4659 13.4157C14.6634 13.1532 14.9268 13.1532 15.1244 13.1532C15.2561 13.1532 15.4537 13.1532 15.5854 13.1532C15.7171 13.1532 15.9146 13.0875 16.1122 13.5469C16.3098 14.0063 16.7707 15.1875 16.8366 15.2532C16.9024 15.3844 16.9024 15.5157 16.8366 15.6469C16.7707 15.7782 16.7049 15.9094 16.5732 16.0407C16.4415 16.1719 16.3098 16.3688 16.2439 16.4344C16.1122 16.5657 15.9805 16.6969 16.1122 16.8938C16.2439 17.1563 16.7049 17.8782 17.4293 18.5344C18.3512 19.3219 19.0756 19.5844 19.339 19.7157C19.6024 19.8469 19.7341 19.7813 19.8659 19.65C19.9976 19.5188 20.4585 18.9938 20.5902 18.7313C20.722 18.4688 20.9195 18.5344 21.1171 18.6C21.3146 18.6657 22.5 19.2563 22.6976 19.3875C22.961 19.5188 23.0927 19.5844 23.1585 19.65C23.2244 19.8469 23.2244 20.3063 23.0268 20.8313Z" fill="white"/>
</svg>
