<?xml version="1.0" encoding="utf-8"?>
<!-- Generator: Adobe Illustrator 23.0.3, SVG Export Plug-In . SVG Version: 6.00 Build 0)  -->
<svg version="1.1" id="Capa_1" xmlns="http://www.w3.org/2000/svg" xmlns:xlink="http://www.w3.org/1999/xlink" x="0px" y="0px"
	 viewBox="0 0 512 512" style="enable-background:new 0 0 512 512;" xml:space="preserve">
<style type="text/css">
	.st0{fill:#FFFFFF;}
</style>
<g>
	<g>
		<path class="st0" d="M442,265.8c-4.2,0-8-2.7-9.4-6.6c-1.4-3.9-0.2-8.4,2.9-11c3.3-2.8,8.1-3.1,11.7-0.9c3.5,2.2,5.3,6.4,4.5,10.4
			C450.9,262.4,446.7,265.8,442,265.8z"/>
		<g>
			<g>
				<g>
					<path class="st0" d="M354.7,395h-41.1c-5.5,0-10-4.5-10-10s4.5-10,10-10h41.1c5.5,0,10,4.5,10,10S360.2,395,354.7,395z"/>
				</g>
			</g>
			<g>
				<g>
					<path class="st0" d="M354.7,425.6h-41.1c-5.5,0-10-4.5-10-10s4.5-10,10-10h41.1c5.5,0,10,4.5,10,10S360.2,425.6,354.7,425.6z"
						/>
				</g>
			</g>
		</g>
		<g>
			<g>
				<path class="st0" d="M354.7,264.5h-41.1c-5.5,0-10-4.5-10-10s4.5-10,10-10h41.1c5.5,0,10,4.5,10,10
					C364.7,260,360.2,264.5,354.7,264.5z"/>
			</g>
		</g>
		<path class="st0" d="M198.4,244.5h-10.5V234c0-5.5-4.5-10-10-10s-10,4.5-10,10v10.5h-10.5c-5.5,0-10,4.5-10,10s4.5,10,10,10h10.5
			V275c0,5.5,4.5,10,10,10s10-4.5,10-10v-10.5h10.5c5.5,0,10-4.5,10-10S203.9,244.5,198.4,244.5L198.4,244.5z"/>
		<path class="st0" d="M199.4,379.9c-3.9-3.9-10.2-3.9-14.1,0l-7.4,7.5l-7.4-7.5c-3.9-3.9-10.2-3.9-14.1,0c-3.9,3.9-3.9,10.2,0,14.1
			l7.4,7.5l-7.4,7.5c-3.9,3.9-3.9,10.2,0,14.1c2,2,4.5,2.9,7.1,2.9s5.1-1,7.1-2.9l7.4-7.5l7.4,7.5c2,2,4.5,2.9,7.1,2.9
			s5.1-1,7.1-2.9c3.9-3.9,3.9-10.2,0-14.1l-7.4-7.5l7.4-7.5C203.3,390.1,203.3,383.8,199.4,379.9L199.4,379.9z"/>
		<path class="st0" d="M393.4,465.7H274.9c-5.5,0-10-4.5-10-10V347.3c0-5.5,4.5-10,10-10h118.4c5.5,0,10,4.5,10,10v108.4
			C403.4,461.2,398.9,465.7,393.4,465.7L393.4,465.7z M284.9,445.7h98.4v-88.4h-98.4L284.9,445.7z"/>
		<path class="st0" d="M237.1,465.7H118.6c-5.5,0-10-4.5-10-10V347.3c0-5.5,4.5-10,10-10h118.4c5.5,0,10,4.5,10,10v108.4
			C247.1,461.2,242.6,465.7,237.1,465.7L237.1,465.7z M128.6,445.7h98.4v-88.4h-98.4V445.7z"/>
		<path class="st0" d="M393.4,318.7H274.9c-5.5,0-10-4.5-10-10V200.3c0-5.5,4.5-10,10-10h118.4c5.5,0,10,4.5,10,10v108.4
			C403.4,314.2,398.9,318.7,393.4,318.7L393.4,318.7z M284.9,298.7h98.4v-88.4h-98.4L284.9,298.7z"/>
		<path class="st0" d="M237.1,318.7H118.6c-5.5,0-10-4.5-10-10V200.3c0-5.5,4.5-10,10-10h118.4c5.5,0,10,4.5,10,10v108.4
			C247.1,314.2,242.6,318.7,237.1,318.7z M128.6,298.7h98.4v-88.4h-98.4V298.7z"/>
		<path class="st0" d="M393.4,154.1H118.6c-5.5,0-10-4.5-10-10V56.3c0-5.5,4.5-10,10-10h274.7c5.5,0,10,4.5,10,10v87.8
			C403.4,149.7,398.9,154.1,393.4,154.1z M128.6,134.1h254.7V66.3H128.6V134.1z"/>
		<path class="st0" d="M422.9,512H89.1C73,512,60,499,60,482.9V29.1C60,13,73,0,89.1,0h333.9C439,0,452,13,452,29.1v181.7
			c0,5.5-4.5,10-10,10s-10-4.5-10-10V29.1c0-5-4.1-9.1-9.1-9.1H89.1c-5,0-9.1,4.1-9.1,9.1v453.9c0,5,4.1,9.1,9.1,9.1h333.9
			c5,0,9.1-4.1,9.1-9.1V301.2c0-5.5,4.5-10,10-10s10,4.5,10,10v181.7C452,499,439,512,422.9,512z"/>
	</g>
</g>
</svg>
