<svg id="Ebene_1" data-name="Ebene 1" xmlns="http://www.w3.org/2000/svg" xmlns:xlink="http://www.w3.org/1999/xlink" viewBox="0 0 177.03 48.43"><defs><style>.cls-1{fill:url(#Unbenannter_Verlauf_2);}.cls-2{fill:url(#Unbenannter_Verlauf_2-2);}.cls-3{fill:url(#Unbenannter_Verlauf_2-3);}.cls-4{fill:url(#Unbenannter_Verlauf_2-4);}</style><linearGradient id="Unbenannter_Verlauf_2" x1="143.78" y1="20.49" x2="177.03" y2="20.49" gradientUnits="userSpaceOnUse"><stop offset="0.2" stop-color="#843e27"/><stop offset="0.33" stop-color="#974d30"/><stop offset="0.59" stop-color="#c77449"/><stop offset="0.82" stop-color="#f79a61"/></linearGradient><linearGradient id="Unbenannter_Verlauf_2-2" x1="20.9" y1="48.43" x2="20.9" y2="0.08" xlink:href="#Unbenannter_Verlauf_2"/><linearGradient id="Unbenannter_Verlauf_2-3" x1="65.25" y1="38.55" x2="65.25" y2="0" xlink:href="#Unbenannter_Verlauf_2"/><linearGradient id="Unbenannter_Verlauf_2-4" x1="104.47" y1="48.43" x2="104.47" y2="0.08" xlink:href="#Unbenannter_Verlauf_2"/></defs><title>CED em dash</title><path class="cls-1" d="M177,21.8H143.78V19.18H177Z"/><path class="cls-2" d="M29.87,38.49,0,38.55V.08H12.34V35.21H24.5V.08H36.83V35.21l5-.06L32,48.43ZM11,4.81H6.84V33.05H11Zm24.5,0H31.33V33.05h4.15Z"/><path class="cls-3" d="M60.54,38.55q-7.13.12-11.69-2.46V30.6a32.29,32.29,0,0,0,4.47,3.13,10.46,10.46,0,0,0,5.35,1.37,7.68,7.68,0,0,0,5-1.58,10.54,10.54,0,0,0,3-3.95,18.2,18.2,0,0,0,1.4-5.12,40.87,40.87,0,0,0,.35-5.14V19.2L51,21.42V14l17.3,2.28q-.12-1.05-.23-2.16A17.88,17.88,0,0,0,66.68,9a10.22,10.22,0,0,0-3-3.89A8.11,8.11,0,0,0,58.5,3.53a10.21,10.21,0,0,0-5.23,1.34,35.75,35.75,0,0,0-4.41,3V2.53a39.64,39.64,0,0,1,4.91-2A20.93,20.93,0,0,1,61,.08a24.75,24.75,0,0,1,7.63,1.7,23,23,0,0,1,6.61,3.95,19.24,19.24,0,0,1,4.65,5.93,16.66,16.66,0,0,1,1.75,7.66,16.51,16.51,0,0,1-1.81,7.75A19.28,19.28,0,0,1,75,33a23.53,23.53,0,0,1-6.75,3.92A24.76,24.76,0,0,1,60.54,38.55Zm9.59-5a9.09,9.09,0,0,0,3.77-1.73,13.57,13.57,0,0,0,3-3.22,15.79,15.79,0,0,0,2-4.33,17.83,17.83,0,0,0,.73-5.17A17.63,17.63,0,0,0,78.93,14a16.28,16.28,0,0,0-2-4.35,12.89,12.89,0,0,0-3-3.22,10,10,0,0,0-3.71-1.75,13.28,13.28,0,0,1,2,3.16,23.29,23.29,0,0,1,1.34,3.65,26.21,26.21,0,0,1,.76,3.83A31.3,31.3,0,0,1,74.57,19a32,32,0,0,1-.23,3.77,26,26,0,0,1-.76,3.86,22.59,22.59,0,0,1-1.37,3.68A13.85,13.85,0,0,1,70.13,33.52Z"/><path class="cls-4" d="M86.7,35.1a28.46,28.46,0,0,0,4.41-6.78A50.69,50.69,0,0,0,94,20.45a63.45,63.45,0,0,0,1.73-8.16q.58-4.09.76-7.77l-9.18,2L89.27.08h33.67l-.06,35.13,5.32-.06-9.82,13.27-2.1-9.94H92.66l-2.1,9.88L80.73,35.1ZM110.61,2,99.85,3.76q.12,4-.18,8.48A80.79,80.79,0,0,1,98.62,21a52.41,52.41,0,0,1-2,8,19.41,19.41,0,0,1-3.22,6.05L110.61,35Zm11,2.81h-4.15v29h4.15Z"/></svg>