<svg id="Ebene_1" data-name="Ebene 1" xmlns="http://www.w3.org/2000/svg" xmlns:xlink="http://www.w3.org/1999/xlink" viewBox="0 0 184.26 165.92"><defs><style>.cls-1{fill:#009f4f;}.cls-2{fill:url(#Unbenannter_Verlauf_2);}</style><linearGradient id="Unbenannter_Verlauf_2" y1="83.19" x2="158.11" y2="83.19" gradientUnits="userSpaceOnUse"><stop offset="0.2" stop-color="#843e27"/><stop offset="0.33" stop-color="#974d30"/><stop offset="0.59" stop-color="#c77449"/><stop offset="0.82" stop-color="#f79a61"/></linearGradient></defs><title>Pictogramm color</title><path class="cls-1" d="M93.6,0h8.07l.91.23c9.76,2.81,16.58,9.14,23.51,16.2q24.31,24.37,48.67,48.68c4.65,4.72,9,11,9.41,17.78s-2.34,13.18-6.13,18.67a110.11,110.11,0,0,1-13.35,15.5l-41.44,41.43c-2.33,2.26-4.18,4.7-7.06,6.3-1.56-1.55-3.1-3.12-4.66-4.67,15.5-15.76,31.29-31.25,46.83-47,4.1-4.37,7.33-9.62,6.51-15.87-.84-5.63-4.75-10.85-8.67-14.8q-20.46-20.42-40.86-40.85C111.12,37.55,105.48,33,99.3,33c-5.73-.34-10.54,2.73-14.51,6.55Q70.35,54,55.94,68.41c-4,4-7.09,8.66-7,14.49-.06,6.57,3.75,11.37,7.92,16,8,8.4,16.54,16.36,24.51,24.82l-3.23,3.18c-11.11-11.33-22.31-22.61-33.75-33.61C39.79,88.54,35,84.37,31.15,78.91c-2.62-3.75-4.77-7.56-4.9-12.26C25.87,61.13,28.8,56,32.56,52.22q19.54-19.48,39-39C77.5,7.35,85.29,1.55,93.6,0Z"/><path class="cls-2" d="M67.89.46c1.72,1.66,3.32,3.42,4.87,5.24C57.14,21.34,41.44,37,25.82,52.65c-4.35,4.63-7.53,10.54-6.16,17.09C21.7,77.57,28,83,33.43,88.67c11.91,12.15,24.26,23.79,36.21,35.88,4.22,4.15,9.1,7.8,15.22,8.11,5.6.29,10.57-2.74,14.51-6.45,9.6-9.6,19.2-19.25,28.84-28.84,3.8-3.8,7.22-8.87,7-14.47.36-6.32-3.77-11.67-7.89-16-8.12-8.16-16.39-16.14-24.1-24.7,1.11-.9,2.23-1.79,3.36-2.68,11.2,10.4,21.53,21.79,32.76,32.18,5,4.93,10.42,10,14.36,15.75,2.48,3.76,4.51,7.64,4.42,12.28.19,5.71-3.15,10.61-7,14.47-13,13-26,26.07-39.08,39-7.23,6.82-16.62,13.61-27.11,12.58-8.52-.66-16.54-6.6-22.46-12.41q-27-27-54-54C2.81,93.58-.93,86.31.2,78.08,1.62,68,9.77,58.86,16.48,51.7,33.64,34.65,50.59,17.35,67.89.46Z"/></svg>