<svg id="Ebene_1" data-name="Ebene 1" xmlns="http://www.w3.org/2000/svg" xmlns:xlink="http://www.w3.org/1999/xlink" viewBox="0 0 191.97 36.06"><defs><style>.cls-1{fill:url(#Unbenannter_Verlauf_2);}.cls-2{fill:url(#Unbenannter_Verlauf_2-2);}.cls-3{fill:url(#Unbenannter_Verlauf_2-3);}.cls-4{fill:url(#Unbenannter_Verlauf_2-4);}.cls-5{fill:url(#Unbenannter_Verlauf_2-5);}.cls-6{fill:url(#Unbenannter_Verlauf_2-6);}</style><linearGradient id="Unbenannter_Verlauf_2" x1="15.56" y1="36.06" x2="15.56" y2="0.06" gradientUnits="userSpaceOnUse"><stop offset="0.2" stop-color="#843e27"/><stop offset="0.33" stop-color="#974d30"/><stop offset="0.59" stop-color="#c77449"/><stop offset="0.82" stop-color="#f79a61"/></linearGradient><linearGradient id="Unbenannter_Verlauf_2-2" x1="48.59" y1="28.71" x2="48.59" y2="0" xlink:href="#Unbenannter_Verlauf_2"/><linearGradient id="Unbenannter_Verlauf_2-3" x1="77.8" y1="36.06" x2="77.8" y2="0.06" xlink:href="#Unbenannter_Verlauf_2"/><linearGradient id="Unbenannter_Verlauf_2-4" x1="103.25" y1="29.18" x2="103.25" y2="22.51" xlink:href="#Unbenannter_Verlauf_2"/><linearGradient id="Unbenannter_Verlauf_2-5" x1="127.17" y1="28.71" x2="127.17" y2="0.06" xlink:href="#Unbenannter_Verlauf_2"/><linearGradient id="Unbenannter_Verlauf_2-6" x1="168.26" y1="28.66" x2="168.26" y2="0.02" xlink:href="#Unbenannter_Verlauf_2"/></defs><title>Logo RF</title><path class="cls-1" d="M22.25,28.66,0,28.71V.06H9.19V26.22h9.06V.06h9.19V26.22l3.7,0-7.31,9.88ZM8.19,3.59H5.09v21H8.19Zm18.24,0H23.34v21h3.09Z"/><path class="cls-2" d="M45.09,28.71a17,17,0,0,1-8.71-1.83V22.79a24,24,0,0,0,3.33,2.33,7.79,7.79,0,0,0,4,1A5.72,5.72,0,0,0,47.44,25,7.85,7.85,0,0,0,49.66,22a13.56,13.56,0,0,0,1-3.81A30.44,30.44,0,0,0,51,14.38V14.3L38,15.95V10.42l12.89,1.7q-.09-.78-.17-1.61a13.32,13.32,0,0,0-1-3.83,7.61,7.61,0,0,0-2.24-2.89,6,6,0,0,0-3.85-1.15,7.6,7.6,0,0,0-3.9,1,26.62,26.62,0,0,0-3.29,2.26v-4A29.52,29.52,0,0,1,40,.43a15.59,15.59,0,0,1,5.4-.37,18.43,18.43,0,0,1,5.68,1.26A17.11,17.11,0,0,1,56,4.26,14.33,14.33,0,0,1,59.5,8.68a12.41,12.41,0,0,1,1.31,5.7,12.3,12.3,0,0,1-1.35,5.77,14.36,14.36,0,0,1-3.57,4.44,17.52,17.52,0,0,1-5,2.92A18.44,18.44,0,0,1,45.09,28.71ZM52.23,25A6.77,6.77,0,0,0,55,23.68a10.11,10.11,0,0,0,2.24-2.39,11.76,11.76,0,0,0,1.5-3.22,13.28,13.28,0,0,0,.54-3.85,13.13,13.13,0,0,0-.54-3.81,12.12,12.12,0,0,0-1.5-3.24A9.6,9.6,0,0,0,55,4.76a7.48,7.48,0,0,0-2.76-1.31,9.89,9.89,0,0,1,1.52,2.35,17.35,17.35,0,0,1,1,2.72,19.52,19.52,0,0,1,.57,2.85,23.31,23.31,0,0,1,.17,2.79A23.83,23.83,0,0,1,55.36,17a19.39,19.39,0,0,1-.57,2.87,16.83,16.83,0,0,1-1,2.74A10.32,10.32,0,0,1,52.23,25Z"/><path class="cls-3" d="M64.56,26.14a21.2,21.2,0,0,0,3.29-5.05A37.75,37.75,0,0,0,70,15.23a47.25,47.25,0,0,0,1.28-6.07q.44-3,.57-5.79L65,4.85,66.48.06H91.56l0,26.17,4,0-7.31,9.88-1.57-7.4H69L67.44,36l-7.31-9.88ZM82.37,1.5l-8,1.31q.09,3-.13,6.31a60.17,60.17,0,0,1-.78,6.55,39,39,0,0,1-1.52,6,14.46,14.46,0,0,1-2.39,4.51l12.84,0Zm8.19,2.09H87.46V25.18h3.09Z"/><path class="cls-4" d="M106.59,25.85a3.34,3.34,0,1,1-3.34-3.34A3.34,3.34,0,0,1,106.59,25.85Z"/><path class="cls-5" d="M117,28.71H112.6V.06h13.24l1.92.09a15.57,15.57,0,0,1,4.81.91,19.41,19.41,0,0,1,4.53,2.24,11.9,11.9,0,0,1,3.33,3.37,8.34,8.34,0,0,1,1.31,4.66,8.37,8.37,0,0,1-1.57,5.09A13,13,0,0,1,136.22,20a18.43,18.43,0,0,1-5.16,2,23,23,0,0,1-5.22.65q-1,0-2-.09t-2-.22v6.36Zm3.79-25.12H117.7V25.18h3.13Zm11.54,7.75a8.54,8.54,0,0,0-.81-3.7,9.46,9.46,0,0,0-2.16-2.94,9.89,9.89,0,0,0-3.13-1.94,10.1,10.1,0,0,0-3.7-.7h-.39a1.42,1.42,0,0,0-.35,0V20.56a1.42,1.42,0,0,0,.35,0h.39a10.1,10.1,0,0,0,3.7-.7A9.89,9.89,0,0,0,129.41,18,9.47,9.47,0,0,0,131.56,15,8.54,8.54,0,0,0,132.37,11.33Zm8.36,0a7.68,7.68,0,0,0-1.09-4.11,10.38,10.38,0,0,0-2.87-3h-1.48a11.66,11.66,0,0,1,1.87,3.33,11.12,11.12,0,0,1,.65,3.81,10.93,10.93,0,0,1-.65,3.79,11.72,11.72,0,0,1-1.87,3.31h1.48a10.58,10.58,0,0,0,2.87-3A7.53,7.53,0,0,0,140.73,11.33Z"/><path class="cls-6" d="M163.67,25.35a18.93,18.93,0,0,1-3.85.24A22.13,22.13,0,0,1,155.6,25a22,22,0,0,1-4.11-1.37A14,14,0,0,1,148,21.46a10.65,10.65,0,0,1-2.46-3.11,8.59,8.59,0,0,1-.94-4,8.37,8.37,0,0,1,1.57-5.09,12.72,12.72,0,0,1,3.94-3.5,18.83,18.83,0,0,1,5.16-2A22.94,22.94,0,0,1,160.45,3h3.22V0h9.19V3h3.22a23,23,0,0,1,5.22.65,18.85,18.85,0,0,1,5.16,2,12.72,12.72,0,0,1,3.94,3.5A8.36,8.36,0,0,1,192,14.3a8.59,8.59,0,0,1-.94,4,10.67,10.67,0,0,1-2.46,3.11A14,14,0,0,1,185,23.68,22,22,0,0,1,180.93,25a22.14,22.14,0,0,1-4.22.54,18.92,18.92,0,0,1-3.85-.24v3.31h-9.19Zm-14-11.06a7.67,7.67,0,0,0,1.07,4.09,10,10,0,0,0,2.9,3h1.39a13,13,0,0,1-1.79-3.31,11,11,0,0,1-.65-3.79,11.2,11.2,0,0,1,.65-3.79A11.52,11.52,0,0,1,155.1,7.2h-1.44a9.44,9.44,0,0,0-2.9,3A7.79,7.79,0,0,0,149.7,14.3Zm4.18,0a8.41,8.41,0,0,0,.81,3.66,9.45,9.45,0,0,0,2.15,2.94,10.22,10.22,0,0,0,3.13,2,9.83,9.83,0,0,0,3.7.72V5.07a10.09,10.09,0,0,0-6.84,2.63,9.46,9.46,0,0,0-2.15,2.94A8.41,8.41,0,0,0,153.88,14.3Zm18-10.75h-3.13V25.14h3.13Zm10.8,10.75a8.42,8.42,0,0,0-.81-3.66,9.47,9.47,0,0,0-2.15-2.94,10.08,10.08,0,0,0-6.83-2.63v18.5a9.83,9.83,0,0,0,3.7-.72,10.23,10.23,0,0,0,3.13-2A9.47,9.47,0,0,0,181.85,18,8.43,8.43,0,0,0,182.65,14.3Zm8.31,0a7.79,7.79,0,0,0-1.07-4.11,9.44,9.44,0,0,0-2.9-3h-1.44a11.54,11.54,0,0,1,1.83,3.31,11.18,11.18,0,0,1,.65,3.79,10.93,10.93,0,0,1-.65,3.79,13,13,0,0,1-1.79,3.31H187a10,10,0,0,0,2.9-3A7.68,7.68,0,0,0,191,14.3Z"/></svg>