<svg id="Ebene_1" data-name="Ebene 1" xmlns="http://www.w3.org/2000/svg" xmlns:xlink="http://www.w3.org/1999/xlink" viewBox="0 0 558.51 164.22"><defs><style>.cls-1{fill:#009f4f;}.cls-2{fill:url(#Unbenannter_Verlauf_2);}.cls-3{fill:url(#Unbenannter_Verlauf_2-2);}.cls-4{fill:url(#Unbenannter_Verlauf_2-3);}.cls-5{fill:url(#Unbenannter_Verlauf_2-4);}.cls-6{fill:url(#Unbenannter_Verlauf_2-5);}.cls-7{fill:url(#Unbenannter_Verlauf_2-6);}.cls-8{fill:url(#Unbenannter_Verlauf_2-7);}</style><linearGradient id="Unbenannter_Verlauf_2" x1="233.04" y1="60.22" x2="233.04" y2="11.87" gradientUnits="userSpaceOnUse"><stop offset="0.2" stop-color="#843e27"/><stop offset="0.33" stop-color="#974d30"/><stop offset="0.59" stop-color="#c77449"/><stop offset="0.82" stop-color="#f79a61"/></linearGradient><linearGradient id="Unbenannter_Verlauf_2-2" x1="277.39" y1="50.34" x2="277.39" y2="11.79" xlink:href="#Unbenannter_Verlauf_2"/><linearGradient id="Unbenannter_Verlauf_2-3" x1="316.61" y1="60.22" x2="316.61" y2="11.87" xlink:href="#Unbenannter_Verlauf_2"/><linearGradient id="Unbenannter_Verlauf_2-4" x1="382.9" y1="50.34" x2="382.9" y2="11.87" xlink:href="#Unbenannter_Verlauf_2"/><linearGradient id="Unbenannter_Verlauf_2-5" x1="438.09" y1="50.28" x2="438.09" y2="11.81" xlink:href="#Unbenannter_Verlauf_2"/><linearGradient id="Unbenannter_Verlauf_2-6" x1="350.79" y1="50.98" x2="350.79" y2="42.02" xlink:href="#Unbenannter_Verlauf_2"/><linearGradient id="Unbenannter_Verlauf_2-7" x1="0" y1="82.33" x2="156.48" y2="82.33" xlink:href="#Unbenannter_Verlauf_2"/></defs><title>Logo</title><path class="cls-1" d="M211.66,79.59h4.73v25.82h5.38V79.59h4.82v25.9h2.07v8.26H224v-4H211.66Z"/><path class="cls-1" d="M239.2,92.28h6.5v4.3h-6.5v8.82h8.18v4.3H234.47V79.59h12.91v4.3H239.2Z"/><path class="cls-1" d="M258.27,109.71h-4.73V79.59h4.73V92.5h5.38V79.59h4.82v30.12h-4.82V96.8h-5.38Z"/><path class="cls-1" d="M273.76,79.59h14.63v4.3h-4.95v25.82h-4.73V83.9h-4.95Z"/><path class="cls-1" d="M307.72,87V91c0,4.82-2.32,7.44-7.06,7.44h-2.24v11.32h-4.73V79.59h7C305.39,79.59,307.72,82.22,307.72,87Zm-9.29-3.14v10.2h2.24c1.51,0,2.32-.69,2.32-2.84V86.73c0-2.15-.82-2.84-2.32-2.84Z"/><path class="cls-1" d="M326.92,98.91v3.87c0,2.15.95,2.93,2.45,2.93s2.45-.78,2.45-2.93v-6.5h-4.35V92h4.35V86.52c0-2.15-.95-3-2.45-3s-2.45.82-2.45,3v2.84h-4.39V86.82c0-4.82,2.32-7.57,7-7.57s7.06,2.75,7.06,7.57v15.66c0,4.82-2.41,7.57-7.06,7.57s-7.06-2.75-7.06-7.57V98.91Z"/><path class="cls-1" d="M341.55,105.45c2.15,0,2.84-.3,2.93-3.1l.77-22.76h13.38v30.12h-4.82V83.9h-4.13l-.52,18.2c-.17,5.51-2.15,7.66-6.88,7.66h-.73Z"/><path class="cls-1" d="M370.21,92.28h6.5v4.3h-6.5v8.82h8.18v4.3H365.48V79.59h12.91v4.3h-8.18Z"/><path class="cls-1" d="M390.74,97.71l-1.46,2.75v9.25h-4.73V79.59h4.73V92.72l6.2-13.12h4.73L393.63,93l6.58,16.69h-4.86Z"/><path class="cls-1" d="M404.22,79.59h14.63v4.3H413.9v25.82h-4.73V83.9h-4.95Z"/><path class="cls-1" d="M438.17,87V91c0,4.82-2.32,7.44-7.06,7.44h-2.24v11.32h-4.73V79.59h7C435.85,79.59,438.17,82.22,438.17,87Zm-9.3-3.14v10.2h2.24c1.51,0,2.32-.69,2.32-2.84V86.73c0-2.15-.82-2.84-2.32-2.84Z"/><path class="cls-1" d="M443.21,86.82c0-4.82,2.54-7.57,7.19-7.57s7.19,2.75,7.19,7.57v15.66c0,4.82-2.54,7.57-7.19,7.57s-7.19-2.75-7.19-7.57Zm4.73,16c0,2.15.95,3,2.45,3s2.45-.82,2.45-3V86.52c0-2.15-.95-3-2.45-3s-2.45.82-2.45,3Z"/><path class="cls-1" d="M468.6,109.71h-4.73V79.59h4.73V92.5H474V79.59h4.82v30.12H474V96.8H468.6Z"/><path class="cls-1" d="M490.21,109.71h-4.73V79.59h4.73V92.5h5.38V79.59h4.82v30.12h-4.82V96.8h-5.38Z"/><path class="cls-1" d="M506.69,86.82c0-4.82,2.54-7.57,7.19-7.57s7.19,2.75,7.19,7.57v15.66c0,4.82-2.54,7.57-7.19,7.57s-7.19-2.75-7.19-7.57Zm4.73,16c0,2.15.95,3,2.45,3s2.45-.82,2.45-3V86.52c0-2.15-.95-3-2.45-3s-2.45.82-2.45,3Z"/><path class="cls-1" d="M527.4,109.71V79.59h12.48v4.3h-7.74v25.82Z"/><path class="cls-1" d="M544.13,86.82c0-4.82,2.54-7.57,7.19-7.57s7.19,2.75,7.19,7.57v15.66c0,4.82-2.54,7.57-7.19,7.57s-7.19-2.75-7.19-7.57Zm4.73,16c0,2.15.95,3,2.45,3s2.45-.82,2.45-3V86.52c0-2.15-.95-3-2.45-3s-2.45.82-2.45,3Z"/><path class="cls-1" d="M226.69,154.67v-4H216.58v4H212v-8.26h1.85a6.23,6.23,0,0,0,1.16-3.92l1.08-22h13.25v25.9h2.07v8.26Zm-7.06-12.26c-.13,2.28-.56,3.27-1.33,4h6.2v-21.6h-4Z"/><path class="cls-1" d="M246.45,133.2h6.5v4.3h-6.5v8.82h8.18v4.3H241.72V120.5h12.91v4.3h-8.18Z"/><path class="cls-1" d="M271.46,138.62,270,141.37v9.25h-4.73V120.5H270v13.12l6.2-13.12h4.73l-6.58,13.43,6.58,16.69h-4.86Z"/><path class="cls-1" d="M289.45,146.37c2.15,0,2.84-.3,2.93-3.1l.77-22.76h13.38v30.12h-4.82V124.81h-4.13l-.52,18.2c-.17,5.51-2.15,7.66-6.88,7.66h-.73Z"/><path class="cls-1" d="M333.17,150.62H328.4l-.82-5.47h-5.81l-.82,5.47h-4.35l4.82-30.12h6.93Zm-10.8-9.55h4.56l-2.28-15.23Z"/><path class="cls-1" d="M357.1,127.95v3.92c0,4.82-2.32,7.44-7.06,7.44h-2.24v11.32h-4.73V120.5h7C354.78,120.5,357.1,123.13,357.1,127.95Zm-9.29-3.14V135H350c1.51,0,2.32-.69,2.32-2.84v-4.52c0-2.15-.82-2.84-2.32-2.84Z"/><path class="cls-1" d="M371.87,150.62H367V120.5h4.22v19.06l1.72-6.63,3.87-12.44H382v30.12h-4.26V129.41l-1.94,7.4Z"/><path class="cls-1" d="M407.12,127.95v3.92c0,4.82-2.32,7.44-7.06,7.44h-2.24v11.32h-4.73V120.5h7C404.79,120.5,407.12,123.13,407.12,127.95Zm-9.3-3.14V135h2.24c1.51,0,2.32-.69,2.32-2.84v-4.52c0-2.15-.82-2.84-2.32-2.84Z"/><path class="cls-1" d="M416.63,127.73c0-4.82,2.54-7.57,7.19-7.57s7.19,2.75,7.19,7.57V143.4c0,4.82-2.54,7.57-7.19,7.57s-7.19-2.75-7.19-7.57Zm4.73,16c0,2.15.95,3,2.45,3s2.45-.82,2.45-3V127.43c0-2.15-.95-3-2.45-3s-2.45.82-2.45,3Z"/><path class="cls-1" d="M455.92,127.43v1.08c0,3.1-.95,5.08-3.05,6.07,2.54,1,3.53,3.27,3.53,6.45v2.45c0,4.65-2.45,7.14-7.19,7.14h-7.45V120.5h7.14C453.82,120.5,455.92,122.78,455.92,127.43Zm-9.42-2.62v8h1.85c1.76,0,2.84-.77,2.84-3.18V127.9c0-2.15-.73-3.1-2.41-3.1Zm0,12.26v9.25h2.71c1.59,0,2.45-.73,2.45-3v-2.63c0-2.8-.9-3.66-3.05-3.66Z"/><path class="cls-1" d="M482.26,150.62h-4.78l-.82-5.47h-5.81l-.82,5.47H465.7l4.82-30.12h6.93Zm-10.8-9.55H476l-2.28-15.23Z"/><path class="cls-1" d="M496.9,150.62h-4.73V120.5h4.73v12.91h5.38V120.5h4.82v30.12h-4.82V137.72H496.9Z"/><path class="cls-1" d="M523.11,150.62h-4.86V120.5h4.22v19.06l1.72-6.63,3.87-12.44h5.21v30.12H529V129.41l-1.94,7.4Z"/><path class="cls-1" d="M543.47,150.62A8.87,8.87,0,0,0,544,147v-4.65c0-3.14.77-5.42,3.14-6.41-2.11-1-3.1-3-3.1-6.11v-2.37c0-4.65,2.11-6.93,7-6.93h7.14v30.12h-4.73V138.36h-1.63c-2.15,0-3.1,1-3.1,3.83v4.73a9.27,9.27,0,0,1-.43,3.7Zm7.7-25.82c-1.68,0-2.41.95-2.41,3.1v3c0,2.41,1.07,3.18,2.84,3.18h1.85v-9.25Z"/><path class="cls-2" d="M242,50.28l-29.87.06V11.87h12.34V47h12.16V11.87H249V47l5-.06-9.82,13.27ZM223.13,16.6H219V44.84h4.15Zm24.5,0h-4.15V44.84h4.15Z"/><path class="cls-3" d="M272.69,50.34q-7.13.12-11.69-2.46V42.39a32.29,32.29,0,0,0,4.47,3.13,10.46,10.46,0,0,0,5.35,1.37,7.68,7.68,0,0,0,5-1.58,10.54,10.54,0,0,0,3-3.95,18.2,18.2,0,0,0,1.4-5.12,40.87,40.87,0,0,0,.35-5.14V31l-17.42,2.22V25.78l17.3,2.28q-.12-1.05-.23-2.16a17.88,17.88,0,0,0-1.4-5.14,10.22,10.22,0,0,0-3-3.89,8.11,8.11,0,0,0-5.17-1.55,10.21,10.21,0,0,0-5.23,1.34,35.75,35.75,0,0,0-4.41,3V14.32a39.64,39.64,0,0,1,4.91-2,20.93,20.93,0,0,1,7.25-.5,24.75,24.75,0,0,1,7.63,1.7,23,23,0,0,1,6.61,3.95A19.24,19.24,0,0,1,292,23.44a16.66,16.66,0,0,1,1.75,7.66A16.51,16.51,0,0,1,292,38.85a19.28,19.28,0,0,1-4.79,6,23.53,23.53,0,0,1-6.75,3.92A24.76,24.76,0,0,1,272.69,50.34Zm9.59-5A9.09,9.09,0,0,0,286,43.58a13.57,13.57,0,0,0,3-3.22,15.79,15.79,0,0,0,2-4.33,17.83,17.83,0,0,0,.73-5.17,17.63,17.63,0,0,0-.73-5.12,16.28,16.28,0,0,0-2-4.35,12.89,12.89,0,0,0-3-3.22,10,10,0,0,0-3.71-1.75,13.28,13.28,0,0,1,2,3.16,23.29,23.29,0,0,1,1.34,3.65,26.21,26.21,0,0,1,.76,3.83,31.3,31.3,0,0,1,.23,3.74,32,32,0,0,1-.23,3.77,26,26,0,0,1-.76,3.86,22.59,22.59,0,0,1-1.37,3.68A13.85,13.85,0,0,1,282.27,45.31Z"/><path class="cls-4" d="M298.84,46.89a28.46,28.46,0,0,0,4.41-6.78,50.69,50.69,0,0,0,2.92-7.86,63.45,63.45,0,0,0,1.73-8.16q.58-4.09.76-7.77l-9.18,2,1.93-6.43h33.67L335,47l5.32-.06-9.82,13.27-2.1-9.94H304.8l-2.1,9.88-9.82-13.27ZM322.75,13.8,312,15.55q.12,4-.18,8.48a80.79,80.79,0,0,1-1.05,8.8,52.41,52.41,0,0,1-2,8,19.41,19.41,0,0,1-3.22,6.05l17.25-.06Zm11,2.81h-4.15v29h4.15Z"/><path class="cls-5" d="M369.31,50.34h-6V11.87h17.77l2.57.12a20.91,20.91,0,0,1,6.46,1.23,26.07,26.07,0,0,1,6.08,3,16,16,0,0,1,4.47,4.53A11.19,11.19,0,0,1,402.46,27a11.23,11.23,0,0,1-2.1,6.84,17.4,17.4,0,0,1-5.29,4.73,24.75,24.75,0,0,1-6.93,2.75,30.88,30.88,0,0,1-7,.88q-1.4,0-2.75-.12t-2.63-.29v8.53ZM374.4,16.6h-4.21v29h4.21ZM389.89,27a11.47,11.47,0,0,0-1.08-5,12.7,12.7,0,0,0-2.89-3.95,13.28,13.28,0,0,0-4.21-2.6,13.56,13.56,0,0,0-5-.94h-.53a1.91,1.91,0,0,0-.47.06V39.4a1.91,1.91,0,0,0,.47.06h.53a13.56,13.56,0,0,0,5-.94,13.28,13.28,0,0,0,4.21-2.6A12.72,12.72,0,0,0,388.81,32,11.46,11.46,0,0,0,389.89,27Zm11.22,0a10.31,10.31,0,0,0-1.46-5.53,13.93,13.93,0,0,0-3.86-4.06h-2a15.66,15.66,0,0,1,2.51,4.47A14.94,14.94,0,0,1,397.2,27a14.67,14.67,0,0,1-.88,5.09,15.73,15.73,0,0,1-2.51,4.44h2a14.2,14.2,0,0,0,3.86-4A10.11,10.11,0,0,0,401.11,27Z"/><path class="cls-6" d="M431.92,45.83a25.42,25.42,0,0,1-5.17.32,29.71,29.71,0,0,1-5.67-.73,29.52,29.52,0,0,1-5.52-1.84,18.75,18.75,0,0,1-4.74-3,14.31,14.31,0,0,1-3.3-4.18A11.53,11.53,0,0,1,406.26,31a11.23,11.23,0,0,1,2.1-6.84,17.08,17.08,0,0,1,5.29-4.71,25.28,25.28,0,0,1,6.93-2.72,30.81,30.81,0,0,1,7-.88h4.33v-4h12.34v4h4.33a30.83,30.83,0,0,1,7,.88,25.31,25.31,0,0,1,6.93,2.72,17.08,17.08,0,0,1,5.29,4.71,11.23,11.23,0,0,1,2.1,6.84,11.53,11.53,0,0,1-1.26,5.44,14.33,14.33,0,0,1-3.3,4.18,18.79,18.79,0,0,1-4.73,3,29.81,29.81,0,0,1-11.2,2.57,25.4,25.4,0,0,1-5.17-.32v4.44H431.92ZM413.16,31a10.3,10.3,0,0,0,1.43,5.49,13.39,13.39,0,0,0,3.89,4h1.87a17.48,17.48,0,0,1-2.4-4.44,14.71,14.71,0,0,1-.88-5.09,15,15,0,0,1,.88-5.09,15.47,15.47,0,0,1,2.46-4.44h-1.93a12.68,12.68,0,0,0-3.89,4A10.46,10.46,0,0,0,413.16,31Zm5.61,0a11.3,11.3,0,0,0,1.08,4.91,12.69,12.69,0,0,0,2.89,3.95A13.72,13.72,0,0,0,427,42.47a13.2,13.2,0,0,0,5,1V18.59a13.54,13.54,0,0,0-9.18,3.54,12.7,12.7,0,0,0-2.89,3.95A11.29,11.29,0,0,0,418.77,31Zm24.14-14.44H438.7v29h4.21ZM457.41,31a11.31,11.31,0,0,0-1.08-4.91,12.72,12.72,0,0,0-2.89-3.95,13.54,13.54,0,0,0-9.18-3.54V43.44a13.2,13.2,0,0,0,5-1,13.73,13.73,0,0,0,4.21-2.63,12.71,12.71,0,0,0,2.89-3.95A11.32,11.32,0,0,0,457.41,31Zm11.17,0a10.47,10.47,0,0,0-1.43-5.52,12.68,12.68,0,0,0-3.89-4h-1.93a15.49,15.49,0,0,1,2.46,4.44,15,15,0,0,1,.88,5.09,14.68,14.68,0,0,1-.88,5.09,17.48,17.48,0,0,1-2.4,4.44h1.87a13.39,13.39,0,0,0,3.89-4A10.31,10.31,0,0,0,468.58,31Z"/><path class="cls-7" d="M355.27,46.5A4.48,4.48,0,1,1,350.79,42,4.48,4.48,0,0,1,355.27,46.5Z"/><path class="cls-1" d="M92.64,0h8l.9.23c9.66,2.78,16.41,9,23.27,16Q148.87,40.37,173,64.44c4.6,4.67,8.87,10.87,9.31,17.6s-2.32,13-6.06,18.48A109,109,0,0,1,163,115.86l-41,41c-2.31,2.24-4.14,4.65-7,6.23-1.55-1.53-3.07-3.09-4.61-4.63,15.34-15.6,31-30.93,46.35-46.47,4.05-4.33,7.25-9.53,6.45-15.71-.83-5.58-4.7-10.74-8.59-14.65Q134.36,61.42,114.17,41.2c-4.19-4-9.77-8.53-15.89-8.5-5.67-.33-10.43,2.7-14.36,6.48Q69.63,53.42,55.36,67.71c-3.91,3.92-7,8.57-6.89,14.34-.06,6.5,3.71,11.25,7.84,15.83,8,8.31,16.37,16.2,24.26,24.57l-3.2,3.15c-11-11.21-22.08-22.38-33.4-33.26-4.59-4.71-9.29-8.84-13.14-14.23C28.24,74.39,26.11,70.62,26,66c-.38-5.47,2.52-10.5,6.24-14.29Q51.56,32.4,70.87,13.06C76.71,7.28,84.41,1.53,92.64,0Z"/><path class="cls-8" d="M67.2.45C68.9,2.09,70.48,3.84,72,5.64c-15.46,15.48-31,31-46.46,46.47-4.3,4.58-7.46,10.43-6.1,16.91,2,7.75,8.3,13.15,13.64,18.74,11.78,12,24,23.54,35.84,35.51,4.17,4.1,9,7.72,15.07,8,5.54.29,10.46-2.71,14.36-6.39,9.5-9.5,19-19,28.54-28.54,3.76-3.76,7.15-8.78,6.9-14.32.36-6.25-3.73-11.55-7.81-15.84-8-8.07-16.22-16-23.85-24.45,1.09-.89,2.21-1.77,3.33-2.65,11.08,10.3,21.31,21.57,32.43,31.85,4.91,4.88,10.31,9.89,14.21,15.59,2.45,3.72,4.46,7.56,4.38,12.15.19,5.65-3.12,10.5-7,14.32-12.9,12.87-25.76,25.8-38.68,38.65-7.16,6.75-16.45,13.47-26.83,12.45-8.43-.65-16.37-6.53-22.22-12.28Q35,125.13,8.29,98.34C2.78,92.62-.92,85.43.2,77.28c1.4-9.94,9.47-19,16.11-26.11,17-16.87,33.76-34,50.88-50.72Z"/></svg>