<svg width="60" height="60" viewBox="0 0 60 60" fill="none" xmlns="http://www.w3.org/2000/svg">
<g clip-path="url(#clip0_144_1416)">
<path d="M30.0004 60C28.8439 60 27.7555 59.5578 26.9392 58.7415L1.25891 33.0612C-0.441772 31.3605 -0.441772 28.6054 1.25891 26.9048L26.9052 1.2585C27.7555 0.442177 28.8439 0 30.0004 0C31.1569 0 32.2453 0.442177 33.0616 1.2585L48.4698 16.6667L58.7079 26.9048C60.4086 28.6054 60.4086 31.3605 58.7079 33.0612L33.0616 58.7075C32.2453 59.5238 31.1569 60 30.0004 60ZM30.0004 1.70068C29.2861 1.70068 28.6059 1.97279 28.1297 2.48299L2.4834 28.1293C1.46299 29.1497 1.46299 30.8503 2.4834 31.8708L28.1297 57.517C29.1161 58.5034 30.8848 58.5034 31.8712 57.517L57.5174 31.8708C58.5378 30.8503 58.5378 29.1497 57.5174 28.1293L31.8712 2.48299C31.361 1.97279 30.7147 1.70068 30.0004 1.70068Z" fill="url(#paint0_linear_144_1416)"/>
<path d="M24.8986 35.9524C24.6945 35.9524 24.4564 35.8843 24.2864 35.7143C23.9462 35.3741 23.9462 34.8299 24.2864 34.5238L34.5585 24.2517C34.8986 23.9115 35.4428 23.9115 35.7489 24.2517C36.0891 24.5918 36.0891 25.136 35.7489 25.4422L25.5108 35.6803C25.3408 35.8503 25.1027 35.9524 24.8986 35.9524Z" fill="url(#paint1_linear_144_1416)"/>
<path d="M14.6945 46.1565C14.4904 46.1565 14.2523 46.0884 14.0823 45.9184C13.7421 45.5782 13.7421 45.034 14.0823 44.7279L18.6401 40.1701C18.9802 39.8299 19.5244 39.8299 19.8306 40.1701C20.1707 40.5102 20.1707 41.0544 19.8306 41.3606L15.3067 45.8844C15.1367 46.0544 14.8986 46.1565 14.6945 46.1565Z" fill="url(#paint2_linear_144_1416)"/>
<path d="M40.1369 20.7143C39.9328 20.7143 39.6947 20.6462 39.5246 20.4762C39.1845 20.136 39.1845 19.5918 39.5246 19.2857L44.6947 14.1156C45.0348 13.7755 45.5791 13.7755 45.8852 14.1156C46.2253 14.4558 46.2253 15 45.8852 15.3061L40.7151 20.4762C40.5791 20.6122 40.341 20.7143 40.1369 20.7143Z" fill="url(#paint3_linear_144_1416)"/>
<path d="M34.8301 35.6803C34.626 35.6803 34.3879 35.6122 34.2178 35.4422L23.9797 25.1701C23.6396 24.8299 23.6396 24.2857 23.9797 23.9796C24.3198 23.6395 24.8641 23.6395 25.1702 23.9796L35.4083 34.2177C35.7484 34.5578 35.7484 35.102 35.4083 35.4082C35.2722 35.5782 35.0341 35.6803 34.8301 35.6803Z" fill="url(#paint4_linear_144_1416)"/>
<path d="M45.3067 46.1564C45.1026 46.1564 44.8645 46.0884 44.6944 45.9184L40.0686 41.2925C39.7284 40.9524 39.7284 40.4081 40.0686 40.102C40.4087 39.7619 40.9529 39.7619 41.2591 40.102L45.8849 44.7279C46.225 45.068 46.225 45.6122 45.8849 45.9184C45.7489 46.0544 45.5108 46.1564 45.3067 46.1564Z" fill="url(#paint5_linear_144_1416)"/>
<path d="M19.3884 20.2381C19.1843 20.2381 18.9462 20.1701 18.7761 20L14.0823 15.3061C13.7421 14.966 13.7421 14.4218 14.0823 14.1156C14.4224 13.7755 14.9666 13.7755 15.2727 14.1156L19.9666 18.8095C20.3067 19.1497 20.3067 19.6939 19.9666 20C19.8306 20.1701 19.6265 20.2381 19.3884 20.2381Z" fill="url(#paint6_linear_144_1416)"/>
<path d="M34.0478 25.7823C32.177 25.7823 30.4083 25.068 29.0478 23.7075C26.2927 20.9524 26.2927 16.4966 29.0478 13.7415C31.8029 10.9864 36.2587 10.9864 39.0138 13.7415C40.6464 15.3742 41.3947 17.7211 40.9525 20.034C40.8505 20.5102 40.4083 20.8163 39.9661 20.7143C39.49 20.6122 39.2178 20.1701 39.2859 19.7279C39.626 17.9932 39.0478 16.1905 37.8233 14.966C35.7485 12.8912 32.3471 12.8912 30.2382 14.966C28.1634 17.0068 28.1634 20.4082 30.2382 22.517C31.4968 23.7755 33.2655 24.3197 35.0002 23.9796C35.4763 23.8776 35.9185 24.1837 35.9865 24.6599C36.0886 25.1361 35.7825 25.5782 35.3063 25.6463C34.8981 25.7143 34.4559 25.7823 34.0478 25.7823Z" fill="url(#paint7_linear_144_1416)"/>
<path d="M18.4696 32.5851C16.6669 32.5851 14.8642 31.9048 13.4696 30.5102C10.7145 27.7551 10.7145 23.2993 13.4696 20.5442C15.0343 18.9796 17.3132 18.2313 19.5241 18.5715C20.0003 18.6055 20.3064 19.0476 20.2384 19.5238C20.1703 19.966 19.7281 20.3061 19.252 20.2381C17.5853 19.966 15.8506 20.5442 14.6601 21.7347C12.5853 23.8095 12.5853 27.2109 14.6601 29.3197C16.735 31.3946 20.1363 31.3946 22.2452 29.3197C23.4356 28.1293 24.0139 26.3946 23.7418 24.7279C23.6737 24.2517 24.0139 23.8095 24.456 23.7415C24.9322 23.6735 25.3404 23.9796 25.4084 24.4558C25.7486 26.6667 25.0003 28.9116 23.4356 30.5102C22.0751 31.8708 20.2724 32.5851 18.4696 32.5851Z" fill="url(#paint8_linear_144_1416)"/>
<path d="M25.4425 48.3333C23.5718 48.3333 21.8031 47.585 20.4425 46.2585C18.9799 44.7959 18.2316 42.7551 18.4017 40.6803C18.4357 40.2041 18.8439 39.8639 19.3201 39.898C19.7963 39.932 20.1364 40.3401 20.1024 40.8163C19.9663 42.381 20.5446 43.9456 21.667 45.068C22.6874 46.0884 24.014 46.6327 25.4425 46.6327C26.8711 46.6327 28.2316 46.0884 29.218 45.068C31.2929 42.9932 31.2929 39.5918 29.218 37.483C28.0956 36.3606 26.565 35.8163 24.9663 35.9184C24.4902 35.9524 24.082 35.6123 24.048 35.1361C24.014 34.6599 24.3541 34.2517 24.8303 34.2177C26.9051 34.0476 28.9459 34.7959 30.4085 36.2585C33.1636 39.0136 33.1636 43.4694 30.4085 46.2245C29.082 47.585 27.3133 48.3333 25.4425 48.3333Z" fill="url(#paint9_linear_144_1416)"/>
<path d="M41.0209 41.5306C40.8849 41.5306 40.7488 41.5306 40.6127 41.5306C40.1366 41.4966 39.7964 41.0884 39.8304 40.6463C39.8645 40.1701 40.2386 39.8299 40.7148 39.8639C42.2454 39.966 43.742 39.3878 44.7964 38.2993C46.8713 36.2245 46.8713 32.8231 44.7964 30.7143C43.776 29.6939 42.4495 29.1497 41.0209 29.1497C39.5923 29.1497 38.2318 29.6939 37.2454 30.7143C36.157 31.8027 35.6127 33.2993 35.6808 34.7959C35.7148 35.2721 35.3406 35.6803 34.8985 35.6803C34.4223 35.7143 34.0141 35.3401 34.0141 34.898C33.9121 32.8912 34.6604 30.9184 36.0549 29.5238C37.3815 28.1973 39.1502 27.449 41.0549 27.449C42.9257 27.449 44.6944 28.1973 46.0549 29.5238C48.81 32.2789 48.81 36.7347 46.0549 39.4898C44.6604 40.7823 42.8917 41.5306 41.0209 41.5306Z" fill="url(#paint10_linear_144_1416)"/>
</g>
<defs>
<linearGradient id="paint0_linear_144_1416" x1="30.8886" y1="81.8572" x2="74.8635" y2="51.5494" gradientUnits="userSpaceOnUse">
<stop stop-color="#FC2773"/>
<stop offset="1" stop-color="#E0612B"/>
</linearGradient>
<linearGradient id="paint1_linear_144_1416" x1="30.1983" y1="40.3077" x2="38.9653" y2="34.2568" gradientUnits="userSpaceOnUse">
<stop stop-color="#FC2773"/>
<stop offset="1" stop-color="#E0612B"/>
</linearGradient>
<linearGradient id="paint2_linear_144_1416" x1="17.0508" y1="48.4302" x2="21.6297" y2="45.2658" gradientUnits="userSpaceOnUse">
<stop stop-color="#FC2773"/>
<stop offset="1" stop-color="#E0612B"/>
</linearGradient>
<linearGradient id="paint3_linear_144_1416" x1="42.8086" y1="23.211" x2="47.8362" y2="19.7373" gradientUnits="userSpaceOnUse">
<stop stop-color="#FC2773"/>
<stop offset="1" stop-color="#E0612B"/>
</linearGradient>
<linearGradient id="paint4_linear_144_1416" x1="29.8741" y1="40.0356" x2="38.6322" y2="34.008" gradientUnits="userSpaceOnUse">
<stop stop-color="#FC2773"/>
<stop offset="1" stop-color="#E0612B"/>
</linearGradient>
<linearGradient id="paint5_linear_144_1416" x1="43.0722" y1="48.4549" x2="47.7009" y2="45.2561" gradientUnits="userSpaceOnUse">
<stop stop-color="#FC2773"/>
<stop offset="1" stop-color="#E0612B"/>
</linearGradient>
<linearGradient id="paint6_linear_144_1416" x1="17.1209" y1="22.5613" x2="21.7995" y2="19.3282" gradientUnits="userSpaceOnUse">
<stop stop-color="#FC2773"/>
<stop offset="1" stop-color="#E0612B"/>
</linearGradient>
<linearGradient id="paint7_linear_144_1416" x1="34.2423" y1="30.9213" x2="44.5788" y2="23.8028" gradientUnits="userSpaceOnUse">
<stop stop-color="#FC2773"/>
<stop offset="1" stop-color="#E0612B"/>
</linearGradient>
<linearGradient id="paint8_linear_144_1416" x1="18.6588" y1="37.7194" x2="28.9865" y2="30.6058" gradientUnits="userSpaceOnUse">
<stop stop-color="#FC2773"/>
<stop offset="1" stop-color="#E0612B"/>
</linearGradient>
<linearGradient id="paint9_linear_144_1416" x1="25.6391" y1="53.4841" x2="35.9909" y2="46.371" gradientUnits="userSpaceOnUse">
<stop stop-color="#FC2773"/>
<stop offset="1" stop-color="#E0612B"/>
</linearGradient>
<linearGradient id="paint10_linear_144_1416" x1="41.276" y1="46.6604" x2="51.6057" y2="39.5235" gradientUnits="userSpaceOnUse">
<stop stop-color="#FC2773"/>
<stop offset="1" stop-color="#E0612B"/>
</linearGradient>
<clipPath id="clip0_144_1416">
<rect width="60" height="60" fill="white"/>
</clipPath>
</defs>
</svg>
