<svg width="60" height="60" viewBox="0 0 60 60" fill="none" xmlns="http://www.w3.org/2000/svg">
<path d="M30 59C14.0182 59 1 45.9818 1 30C1 14.0182 14.0182 1 30 1C45.9818 1 59 14.0182 59 30C59 45.9818 45.9818 59 30 59ZM30 2.76399C14.9708 2.76399 2.76399 14.9708 2.76399 30C2.76399 45.0292 14.9708 57.236 30 57.236C45.0292 57.236 57.236 45.0292 57.236 30C57.236 14.9708 44.9939 2.76399 30 2.76399Z" fill="url(#paint0_linear_144_1154)"/>
<path d="M29.9999 46.9696C20.6507 46.9696 13.0303 39.3491 13.0303 30C13.0303 20.6508 20.6507 13.0304 29.9999 13.0304C39.349 13.0304 46.9694 20.6508 46.9694 30C46.9694 39.3491 39.349 46.9696 29.9999 46.9696ZM29.9999 14.7944C21.6033 14.7944 14.7943 21.6034 14.7943 30C14.7943 38.3966 21.6033 45.2056 29.9999 45.2056C38.3965 45.2056 45.2055 38.3966 45.2055 30C45.2055 21.6034 38.3612 14.7944 29.9999 14.7944Z" fill="url(#paint1_linear_144_1154)"/>
<path d="M21.7091 57.7299C21.2152 57.7299 20.8271 57.3419 20.8271 56.8479V43.8297C20.8271 43.3358 21.2152 42.9477 21.7091 42.9477H21.815C22.3089 42.9477 22.697 43.3358 22.697 43.8297C22.697 43.9708 22.6617 44.1472 22.5911 44.253V56.8479C22.5911 57.3419 22.1678 57.7299 21.7091 57.7299Z" fill="url(#paint2_linear_144_1154)"/>
<path d="M21.815 17.017H21.7091C21.2152 17.017 20.8271 16.629 20.8271 16.135V3.1168C20.8271 2.62288 21.2152 2.2348 21.7091 2.2348C22.1678 2.2348 22.5911 2.62288 22.5911 3.1168V15.7117C22.6617 15.8528 22.697 15.9939 22.697 16.135C22.697 16.629 22.3089 17.017 21.815 17.017Z" fill="url(#paint3_linear_144_1154)"/>
<path d="M38.2906 57.7299C37.7967 57.7299 37.4086 57.3419 37.4086 56.8479V44.253C37.338 44.1119 37.3027 43.9708 37.3027 43.8297C37.3027 43.3358 37.6908 42.9477 38.1847 42.9477H38.2906C38.7845 42.9477 39.1726 43.3358 39.1726 43.8297V56.8479C39.1726 57.3419 38.7845 57.7299 38.2906 57.7299Z" fill="url(#paint4_linear_144_1154)"/>
<path d="M38.2906 17.017H38.1847C37.6908 17.017 37.3027 16.629 37.3027 16.135C37.3027 15.9939 37.338 15.8175 37.4086 15.7117V3.1168C37.4086 2.62288 37.7967 2.2348 38.2906 2.2348C38.7845 2.2348 39.1726 2.62288 39.1726 3.1168V16.135C39.1726 16.629 38.7845 17.017 38.2906 17.017Z" fill="url(#paint5_linear_144_1154)"/>
<path d="M16.2757 40.0195H3.3986C2.90468 40.0195 2.5166 39.6314 2.5166 39.1375C2.5166 38.6435 2.90468 38.2555 3.3986 38.2555H15.3937C15.4643 37.8321 15.8171 37.5146 16.2757 37.5146C16.7696 37.5146 17.1577 37.9027 17.1577 38.3966V39.1375C17.1577 39.6314 16.7696 40.0195 16.2757 40.0195Z" fill="url(#paint6_linear_144_1154)"/>
<path d="M16.2757 22.4854C15.8524 22.4854 15.4643 22.1679 15.3937 21.7445H3.3986C2.90468 21.7445 2.5166 21.3564 2.5166 20.8625C2.5166 20.3686 2.90468 19.9805 3.3986 19.9805H16.2757C16.7696 19.9805 17.1577 20.3686 17.1577 20.8625V21.6034C17.1577 22.062 16.7696 22.4854 16.2757 22.4854Z" fill="url(#paint7_linear_144_1154)"/>
<path d="M56.5658 40.0195H43.6886C43.1947 40.0195 42.8066 39.6314 42.8066 39.1375V38.3966C42.8066 37.9027 43.1947 37.5146 43.6886 37.5146C44.112 37.5146 44.5001 37.8321 44.5706 38.2555H56.5658C57.0597 38.2555 57.4478 38.6435 57.4478 39.1375C57.4478 39.6314 57.0597 40.0195 56.5658 40.0195Z" fill="url(#paint8_linear_144_1154)"/>
<path d="M43.6886 22.4854C43.1947 22.4854 42.8066 22.0973 42.8066 21.6034V20.8625C42.8066 20.3686 43.1947 19.9805 43.6886 19.9805H56.5658C57.0597 19.9805 57.4478 20.3686 57.4478 20.8625C57.4478 21.3564 57.0597 21.7445 56.5658 21.7445H44.5706C44.5001 22.1326 44.1473 22.4854 43.6886 22.4854Z" fill="url(#paint9_linear_144_1154)"/>
<path d="M10.1727 56.2835C9.92577 56.2835 9.71409 56.1776 9.53769 56.0365L3.22261 49.7214C2.86981 49.3686 2.86981 48.8042 3.22261 48.4866L6.29195 45.4526C6.64475 45.0998 7.20922 45.0998 7.52674 45.4526C7.87954 45.8054 7.87954 46.3699 7.52674 46.6874L5.09244 49.1217L10.1727 54.202L12.5012 51.8735C12.854 51.5207 13.4185 51.5207 13.736 51.8735C14.0888 52.2263 14.0888 52.7908 13.736 53.1083L10.8078 56.0365C10.6314 56.2129 10.4197 56.2835 10.1727 56.2835Z" fill="url(#paint10_linear_144_1154)"/>
<path d="M6.9268 14.7944C6.71512 14.7944 6.46816 14.7239 6.29176 14.5475L3.2577 11.4781C3.0813 11.337 3.01074 11.09 3.01074 10.8784C3.01074 10.6314 3.11658 10.4197 3.2577 10.2433L9.57279 3.92823C9.74919 3.78711 9.96086 3.68127 10.1725 3.68127C10.4195 3.68127 10.6312 3.78711 10.8076 3.92823L13.7358 6.85646C14.0886 7.20925 14.0886 7.77373 13.7358 8.09125C13.383 8.44405 12.8185 8.44405 12.501 8.09125L10.1725 5.79806L5.12753 10.8784L7.56184 13.3127C7.91464 13.6655 7.91464 14.2299 7.56184 14.5475C7.38544 14.7239 7.13848 14.7944 6.9268 14.7944Z" fill="url(#paint11_linear_144_1154)"/>
<path d="M49.7917 56.2835C49.5448 56.2835 49.3331 56.1776 49.1567 56.0365L46.2285 53.1083C45.8757 52.7555 45.8757 52.191 46.2285 51.8735C46.5813 51.5207 47.1457 51.5207 47.4633 51.8735L49.7917 54.202L54.872 49.1217L52.4377 46.6874C52.0849 46.3346 52.0849 45.7701 52.4377 45.4526C52.7905 45.0998 53.355 45.0998 53.6725 45.4526L56.7066 48.4866C57.0594 48.8394 57.0594 49.4039 56.7066 49.7214L50.3915 56.0365C50.2504 56.2129 50.0387 56.2835 49.7917 56.2835Z" fill="url(#paint12_linear_144_1154)"/>
<path d="M53.0728 14.7944C52.8611 14.7944 52.6141 14.7238 52.4377 14.5474C52.0849 14.1946 52.0849 13.6301 52.4377 13.3126L54.872 10.8783L49.7917 5.79803L47.4633 8.1265C47.1105 8.4793 46.546 8.4793 46.2285 8.1265C45.8757 7.7737 45.8757 7.20922 46.2285 6.8917L49.1567 3.96348C49.4742 3.64596 50.074 3.64596 50.3915 3.96348L56.7066 10.2786C56.883 10.455 56.9535 10.6666 56.9535 10.9136C56.9535 11.1606 56.8477 11.3722 56.7066 11.5486L53.6725 14.5827C53.4961 14.7238 53.2844 14.7944 53.0728 14.7944Z" fill="url(#paint13_linear_144_1154)"/>
<path d="M29.2588 36.0681L22.3086 35.9623C22.0617 35.9623 21.85 35.8565 21.6736 35.6801C21.5325 35.5389 21.4266 35.3273 21.4619 35.0803C21.4972 31.8698 24.3196 30.8467 25.8013 30.7409C26.6128 30.7762 27.2125 30.4939 27.7064 30C28.1651 29.5414 28.4473 28.9063 28.4473 28.2007C28.4473 27.4952 28.2004 26.8601 27.7064 26.3662C27.2478 25.8723 26.5775 25.59 25.9072 25.59C25.2016 25.59 24.5665 25.837 24.0726 26.3309C23.5787 26.7896 23.2965 27.4599 23.2965 28.1302C23.2965 28.6241 22.9084 29.0122 22.4145 29.0122C21.9206 29.0122 21.5325 28.6241 21.5325 28.1302C21.5325 26.966 22.0264 25.8723 22.8378 25.0608C23.6493 24.2494 24.7429 23.826 25.8719 23.826C25.9072 23.826 25.9072 23.826 25.9425 23.826C27.1067 23.826 28.2004 24.32 29.0118 25.1314C29.8232 25.9781 30.2466 27.0718 30.2466 28.236C30.2466 29.4003 29.7527 30.4939 28.9412 31.3054C28.0592 32.0815 26.9656 32.5049 25.8366 32.5049C25.6602 32.5049 23.8962 32.7166 23.367 34.1983L29.294 34.2689C29.788 34.2689 30.176 34.657 30.176 35.1509C30.1407 35.6801 29.7174 36.0681 29.2588 36.0681Z" fill="url(#paint14_linear_144_1154)"/>
<path d="M37.5844 31.3759L32.2218 31.3054C31.9749 31.3054 31.7632 31.1995 31.5868 31.0231C31.4457 30.8467 31.3398 30.635 31.3398 30.3881L31.4104 24.7433C31.4104 24.2494 31.7985 23.8613 32.2924 23.8613C32.7863 23.8613 33.1744 24.2494 33.1744 24.7433L33.1038 29.5414L37.5844 29.6119C38.0783 29.6119 38.4664 30 38.4664 30.4939C38.4664 30.9878 38.0783 31.3759 37.5844 31.3759Z" fill="url(#paint15_linear_144_1154)"/>
<path d="M37.5138 36.1387C37.0199 36.1387 36.6318 35.7506 36.6318 35.2567L36.773 24.8492C36.773 24.3552 37.161 23.9672 37.655 23.9672C38.1489 23.9672 38.5369 24.3552 38.5369 24.8492L38.3958 35.292C38.3958 35.7506 38.0077 36.1387 37.5138 36.1387Z" fill="url(#paint16_linear_144_1154)"/>
<defs>
<linearGradient id="paint0_linear_144_1154" x1="30.875" y1="80.1286" x2="73.3841" y2="50.8311" gradientUnits="userSpaceOnUse">
<stop stop-color="#FC2773"/>
<stop offset="1" stop-color="#E0612B"/>
</linearGradient>
<linearGradient id="paint1_linear_144_1154" x1="30.5119" y1="59.3331" x2="55.3864" y2="42.1894" gradientUnits="userSpaceOnUse">
<stop stop-color="#FC2773"/>
<stop offset="1" stop-color="#E0612B"/>
</linearGradient>
<linearGradient id="paint2_linear_144_1154" x1="21.7903" y1="63.1149" x2="23.7964" y2="62.94" gradientUnits="userSpaceOnUse">
<stop stop-color="#FC2773"/>
<stop offset="1" stop-color="#E0612B"/>
</linearGradient>
<linearGradient id="paint3_linear_144_1154" x1="21.7903" y1="22.402" x2="23.7964" y2="22.2271" gradientUnits="userSpaceOnUse">
<stop stop-color="#FC2773"/>
<stop offset="1" stop-color="#E0612B"/>
</linearGradient>
<linearGradient id="paint4_linear_144_1154" x1="38.2659" y1="63.1149" x2="40.272" y2="62.94" gradientUnits="userSpaceOnUse">
<stop stop-color="#FC2773"/>
<stop offset="1" stop-color="#E0612B"/>
</linearGradient>
<linearGradient id="paint5_linear_144_1154" x1="38.2659" y1="22.402" x2="40.272" y2="22.2271" gradientUnits="userSpaceOnUse">
<stop stop-color="#FC2773"/>
<stop offset="1" stop-color="#E0612B"/>
</linearGradient>
<linearGradient id="paint6_linear_144_1154" x1="10.058" y1="40.9319" x2="10.9767" y2="37.231" gradientUnits="userSpaceOnUse">
<stop stop-color="#FC2773"/>
<stop offset="1" stop-color="#E0612B"/>
</linearGradient>
<linearGradient id="paint7_linear_144_1154" x1="10.058" y1="23.3979" x2="10.9767" y2="19.6969" gradientUnits="userSpaceOnUse">
<stop stop-color="#FC2773"/>
<stop offset="1" stop-color="#E0612B"/>
</linearGradient>
<linearGradient id="paint8_linear_144_1154" x1="50.3481" y1="40.9319" x2="51.2668" y2="37.231" gradientUnits="userSpaceOnUse">
<stop stop-color="#FC2773"/>
<stop offset="1" stop-color="#E0612B"/>
</linearGradient>
<linearGradient id="paint9_linear_144_1154" x1="50.3481" y1="23.3979" x2="51.2668" y2="19.6969" gradientUnits="userSpaceOnUse">
<stop stop-color="#FC2773"/>
<stop offset="1" stop-color="#E0612B"/>
</linearGradient>
<linearGradient id="paint10_linear_144_1154" x1="8.64589" y1="60.3254" x2="16.764" y2="54.757" gradientUnits="userSpaceOnUse">
<stop stop-color="#FC2773"/>
<stop offset="1" stop-color="#E0612B"/>
</linearGradient>
<linearGradient id="paint11_linear_144_1154" x1="8.67136" y1="18.8428" x2="16.7836" y2="13.3139" gradientUnits="userSpaceOnUse">
<stop stop-color="#FC2773"/>
<stop offset="1" stop-color="#E0612B"/>
</linearGradient>
<linearGradient id="paint12_linear_144_1154" x1="51.6336" y1="60.3254" x2="59.7423" y2="54.7812" gradientUnits="userSpaceOnUse">
<stop stop-color="#FC2773"/>
<stop offset="1" stop-color="#E0612B"/>
</linearGradient>
<linearGradient id="paint13_linear_144_1154" x1="51.6245" y1="18.8267" x2="59.7162" y2="13.2898" gradientUnits="userSpaceOnUse">
<stop stop-color="#FC2773"/>
<stop offset="1" stop-color="#E0612B"/>
</linearGradient>
<linearGradient id="paint14_linear_144_1154" x1="25.9835" y1="40.5278" x2="33.6175" y2="36.7494" gradientUnits="userSpaceOnUse">
<stop stop-color="#FC2773"/>
<stop offset="1" stop-color="#E0612B"/>
</linearGradient>
<linearGradient id="paint15_linear_144_1154" x1="35.0106" y1="34.1134" x2="40.4087" y2="30.5851" gradientUnits="userSpaceOnUse">
<stop stop-color="#FC2773"/>
<stop offset="1" stop-color="#E0612B"/>
</linearGradient>
<linearGradient id="paint16_linear_144_1154" x1="37.6131" y1="40.5726" x2="39.649" y2="40.353" gradientUnits="userSpaceOnUse">
<stop stop-color="#FC2773"/>
<stop offset="1" stop-color="#E0612B"/>
</linearGradient>
</defs>
</svg>
