<svg width="60" height="60" viewBox="0 0 60 60" fill="none" xmlns="http://www.w3.org/2000/svg">
<path d="M14.7467 15.616C11.4483 15.616 8.80273 12.9092 8.80273 9.61249V6.00347C8.80273 2.70677 11.4827 0 14.7467 0C18.045 0 20.6906 2.70677 20.6906 6.00347V9.57779C20.725 12.9092 18.045 15.616 14.7467 15.616ZM14.7467 1.73511C12.4103 1.73511 10.4863 3.64372 10.4863 6.03817V9.61249C10.5206 11.9722 12.4103 13.8809 14.7467 13.8809C17.1174 13.8809 19.0071 11.9722 19.0071 9.61249V6.00347C19.0071 3.64372 17.1174 1.73511 14.7467 1.73511Z" fill="url(#paint0_linear_144_1123)"/>
<path d="M21.481 60H8.32188C7.84087 60 7.46293 59.6183 7.46293 59.1324V42.5448C3.40868 42.1631 2.10307 38.9705 2 37.2354V26.8247C2 21.2377 6.5009 16.6917 12.0326 16.6917H37.9042C38.1447 16.6917 38.3852 16.7958 38.557 16.9693C38.7288 17.1428 38.7975 17.3858 38.7631 17.6287C38.4539 20.3007 36.4955 25.3325 31.1013 25.3325H22.3743V59.1324C22.34 59.6183 21.962 60 21.481 60ZM9.18083 58.2649H20.6221V24.465C20.6221 24.2221 20.7251 24.0139 20.8626 23.8404C21.0344 23.6668 21.2749 23.5974 21.481 23.5974H31.0669C35.0524 23.5974 36.4268 20.1619 36.8391 18.4268H12.0326C7.42857 18.4268 3.7179 22.2094 3.7179 26.8247V37.166C3.75226 37.4783 4.06148 40.3933 7.46293 40.8097V27.6229C7.46293 27.1371 7.84087 26.7553 8.32188 26.7553C8.80289 26.7553 9.18083 27.1371 9.18083 27.6229V58.2649Z" fill="url(#paint1_linear_144_1123)"/>
<path d="M14.7466 60C14.2656 60 13.8877 59.6183 13.8877 59.1324V40.6015C13.8877 40.1157 14.2656 39.7339 14.7466 39.7339C15.2277 39.7339 15.6056 40.1157 15.6056 40.6015V59.1324C15.6056 59.6183 15.2277 60 14.7466 60Z" fill="url(#paint2_linear_144_1123)"/>
<path d="M58.1407 37.6171H27.6308C27.1498 37.6171 26.7718 37.2354 26.7718 36.7496C26.7718 36.2637 27.1498 35.882 27.6308 35.882H57.2818V8.67554H23.6109C23.1299 8.67554 22.752 8.29381 22.752 7.80798C22.752 7.32215 23.1642 6.94043 23.6109 6.94043H58.1407C58.6218 6.94043 58.9997 7.32215 58.9997 7.80798V36.7496C58.9997 37.2354 58.6218 37.6171 58.1407 37.6171Z" fill="url(#paint3_linear_144_1123)"/>
<path d="M37.9039 60C37.4229 60 37.0449 59.6182 37.0449 59.1324V36.7842C37.0449 36.2984 37.4229 35.9167 37.9039 35.9167C38.3849 35.9167 38.7628 36.2984 38.7628 36.7842V59.1324C38.7628 59.6182 38.3849 60 37.9039 60Z" fill="url(#paint4_linear_144_1123)"/>
<path d="M46.4253 60C46.0817 60 45.7725 59.7918 45.6351 59.4447L37.9045 39.1787L30.174 59.4447C30.0022 59.8959 29.4868 60.1041 29.0745 59.9306C28.6278 59.7571 28.4217 59.2712 28.5935 58.8201L37.1143 36.4719C37.2517 36.1249 37.5609 35.9167 37.9045 35.9167C38.2481 35.9167 38.5917 36.1249 38.6948 36.4719L47.2156 58.8201C47.3873 59.2712 47.1812 59.7571 46.7345 59.9306C46.6315 59.9653 46.5284 60 46.4253 60Z" fill="url(#paint5_linear_144_1123)"/>
<defs>
<linearGradient id="paint0_linear_144_1123" x1="14.9262" y1="21.3046" x2="25.0037" y2="16.0171" gradientUnits="userSpaceOnUse">
<stop stop-color="#FC2773"/>
<stop offset="1" stop-color="#E0612B"/>
</linearGradient>
<linearGradient id="paint1_linear_144_1123" x1="20.9406" y1="75.7766" x2="50.5525" y2="58.4482" gradientUnits="userSpaceOnUse">
<stop stop-color="#FC2773"/>
<stop offset="1" stop-color="#E0612B"/>
</linearGradient>
<linearGradient id="paint2_linear_144_1123" x1="14.7726" y1="67.3826" x2="16.6234" y2="67.2745" gradientUnits="userSpaceOnUse">
<stop stop-color="#FC2773"/>
<stop offset="1" stop-color="#E0612B"/>
</linearGradient>
<linearGradient id="paint3_linear_144_1123" x1="41.4227" y1="48.7922" x2="64.9831" y2="29.6053" gradientUnits="userSpaceOnUse">
<stop stop-color="#FC2773"/>
<stop offset="1" stop-color="#E0612B"/>
</linearGradient>
<linearGradient id="paint4_linear_144_1123" x1="37.9298" y1="68.7732" x2="39.7825" y2="68.6821" gradientUnits="userSpaceOnUse">
<stop stop-color="#FC2773"/>
<stop offset="1" stop-color="#E0612B"/>
</linearGradient>
<linearGradient id="paint5_linear_144_1123" x1="38.1873" y1="68.7732" x2="53.9222" y2="60.3334" gradientUnits="userSpaceOnUse">
<stop stop-color="#FC2773"/>
<stop offset="1" stop-color="#E0612B"/>
</linearGradient>
</defs>
</svg>
