<svg width="60" height="60" viewBox="0 0 60 60" fill="none" xmlns="http://www.w3.org/2000/svg">
<path d="M14.6404 29.4613C6.56423 29.4613 0 22.8483 0 14.7492C0 6.65016 6.56423 0 14.6404 0C22.7167 0 29.2809 6.613 29.2809 14.7492C29.2809 22.8855 22.6798 29.4613 14.6404 29.4613ZM14.6404 1.85759C7.5968 1.85759 1.84388 7.65325 1.84388 14.7492C1.84388 21.8452 7.55993 27.6037 14.6036 27.6037C21.6472 27.6037 27.3632 21.8452 27.3632 14.7492C27.4001 7.65325 21.6841 1.85759 14.6404 1.85759Z" fill="url(#paint0_linear_144_1288)"/>
<path d="M14.6406 24.9288C9.07209 24.9288 4.53613 20.3591 4.53613 14.7492C4.53613 9.1393 9.07209 4.56964 14.6406 4.56964C20.2091 4.56964 24.7451 9.1393 24.7451 14.7492C24.7451 20.3591 20.2091 24.9288 14.6406 24.9288ZM14.6406 6.42723C10.1047 6.42723 6.38002 10.1424 6.38002 14.7492C6.38002 19.356 10.0678 23.0712 14.6406 23.0712C19.1766 23.0712 22.9012 19.356 22.9012 14.7492C22.9012 10.1424 19.1766 6.42723 14.6406 6.42723Z" fill="url(#paint1_linear_144_1288)"/>
<path d="M14.6409 6.42724C14.1246 6.42724 13.7189 6.01858 13.7189 5.49845V0.928793C13.6821 0.408669 14.1246 0 14.6409 0C15.1572 0 15.5628 0.408669 15.5628 0.928793V5.4613C15.5628 6.01858 15.1572 6.42724 14.6409 6.42724Z" fill="url(#paint2_linear_144_1288)"/>
<path d="M14.6407 29.4613C14.1244 29.4613 13.7188 29.0527 13.7188 28.5325V24C13.7188 23.4799 14.1244 23.0712 14.6407 23.0712C15.157 23.0712 15.5626 23.4799 15.5626 24V28.5325C15.5626 29.0527 15.157 29.4613 14.6407 29.4613Z" fill="url(#paint3_linear_144_1288)"/>
<path d="M10.0306 7.65324C9.69875 7.65324 9.40372 7.46748 9.21934 7.17027L6.9698 3.26934C6.71165 2.78637 6.85916 2.22909 7.3017 1.96903C7.74423 1.70897 8.33427 1.85758 8.59241 2.3034L10.842 6.24148C11.1001 6.6873 10.9526 7.28172 10.5101 7.54179C10.3625 7.61609 10.1782 7.65324 10.0306 7.65324Z" fill="url(#paint4_linear_144_1288)"/>
<path d="M21.4629 27.6037C21.131 27.6037 20.836 27.418 20.6516 27.1208L18.4021 23.2198C18.1439 22.774 18.2914 22.1796 18.7708 21.9195C19.2134 21.6595 19.7665 21.8452 20.0247 22.291L22.2742 26.2291C22.5324 26.6749 22.3848 27.2322 21.9423 27.4923C21.7948 27.5666 21.6473 27.6037 21.4629 27.6037Z" fill="url(#paint5_linear_144_1288)"/>
<path d="M6.67452 11.034C6.52701 11.034 6.34262 10.9969 6.19511 10.9226L2.28607 8.65632C1.84354 8.39626 1.69603 7.80183 1.95417 7.35601C2.21232 6.91019 2.76548 6.76158 3.24489 7.02164L7.15393 9.2879C7.59646 9.54796 7.74397 10.1424 7.48583 10.5882C7.30144 10.8854 7.00641 11.034 6.67452 11.034Z" fill="url(#paint6_linear_144_1288)"/>
<path d="M26.4782 22.5882C26.3307 22.5882 26.1464 22.5511 25.9988 22.4768L22.1267 20.1734C21.6842 19.9133 21.5366 19.356 21.7579 18.9102C22.0161 18.4644 22.5692 18.3158 23.0117 18.5758L26.9208 20.8421C27.4002 21.065 27.5477 21.6594 27.2896 22.1053C27.1052 22.4025 26.8101 22.5882 26.4782 22.5882Z" fill="url(#paint7_linear_144_1288)"/>
<path d="M5.4579 15.678H0.921942C0.405655 15.678 0 15.2694 0 14.7492C0 14.2291 0.405655 13.8204 0.921942 13.8204H5.42102C5.93731 13.8204 6.34296 14.2291 6.34296 14.7492C6.37984 15.2694 5.97419 15.678 5.4579 15.678Z" fill="url(#paint8_linear_144_1288)"/>
<path d="M28.3224 15.678H23.8233C23.307 15.678 22.9014 15.2694 22.9014 14.7492C22.9014 14.2291 23.307 13.8204 23.8233 13.8204H28.3224C28.8387 13.8204 29.2443 14.2291 29.2443 14.7492C29.2443 15.2694 28.8387 15.678 28.3224 15.678Z" fill="url(#paint9_linear_144_1288)"/>
<path d="M2.76548 22.5883C2.43358 22.5883 2.13856 22.4025 1.95417 22.1053C1.69603 21.6595 1.84354 21.065 2.28607 20.8421L6.19511 18.5759C6.63764 18.2787 7.22768 18.4273 7.48583 18.9102C7.74397 19.3561 7.59646 19.9133 7.15393 20.1734L3.24489 22.4396C3.09738 22.5139 2.91299 22.5883 2.76548 22.5883Z" fill="url(#paint10_linear_144_1288)"/>
<path d="M22.5692 11.034C22.2373 11.034 21.9423 10.8483 21.7579 10.5511C21.5366 10.1424 21.6842 9.54796 22.1267 9.2879L26.0357 7.02164C26.4783 6.76158 27.0314 6.91019 27.2896 7.35601C27.5477 7.80183 27.4002 8.39626 26.9577 8.65632L23.0486 10.9226C22.9011 10.9969 22.7536 11.034 22.5692 11.034Z" fill="url(#paint11_linear_144_1288)"/>
<path d="M7.78111 27.6037C7.63359 27.6037 7.44921 27.5665 7.3017 27.4922C6.85916 27.2322 6.71165 26.6749 6.9698 26.2291L9.21934 22.291C9.47748 21.8452 10.0675 21.6966 10.5101 21.9195C10.9526 22.1796 11.1001 22.7368 10.842 23.1826L8.59241 27.1579C8.40803 27.4551 8.113 27.6037 7.78111 27.6037Z" fill="url(#paint12_linear_144_1288)"/>
<path d="M19.2137 7.65324C19.0662 7.65324 18.8818 7.61609 18.7343 7.54179C18.2918 7.28172 18.1443 6.6873 18.4024 6.24148L20.652 2.3034C20.9101 1.85758 21.5001 1.70897 21.9427 1.96903C22.3852 2.22909 22.5327 2.78637 22.2746 3.26934L20.025 7.20742C19.8406 7.50464 19.5456 7.65324 19.2137 7.65324Z" fill="url(#paint13_linear_144_1288)"/>
<path d="M15.7841 19.8018H13.4608C12.0595 19.8018 10.9531 18.6501 10.9531 17.2755C10.9531 16.7554 11.3588 16.3467 11.8751 16.3467C12.3914 16.3467 12.797 16.7554 12.797 17.2755C12.797 17.647 13.092 17.9443 13.4608 17.9443H15.7841C16.1529 17.9443 16.4479 17.647 16.4479 17.2755V16.3467C16.4479 15.9752 16.1529 15.678 15.7841 15.678H13.4608C12.0595 15.678 10.9531 14.5263 10.9531 13.1517V12.1857C10.9531 10.774 12.0963 9.65942 13.4608 9.65942H15.7841C17.1855 9.65942 18.2918 10.8111 18.2918 12.1857C18.2918 12.7059 17.8861 13.1145 17.3698 13.1145C16.8536 13.1145 16.4479 12.7059 16.4479 12.1857C16.4479 11.8142 16.1529 11.517 15.7841 11.517H13.4608C13.092 11.517 12.797 11.8142 12.797 12.1857V13.1145C12.797 13.486 13.092 13.7833 13.4608 13.7833H15.7841C17.1855 13.7833 18.2918 14.935 18.2918 16.3096V17.2384C18.3287 18.6873 17.1855 19.8018 15.7841 19.8018Z" fill="url(#paint14_linear_144_1288)"/>
<path d="M14.6407 11.517C14.1244 11.517 13.7188 11.1083 13.7188 10.5882V8.99068C13.7188 8.47056 14.1244 8.06189 14.6407 8.06189C15.157 8.06189 15.5626 8.47056 15.5626 8.99068V10.6254C15.5626 11.1083 15.157 11.517 14.6407 11.517Z" fill="url(#paint15_linear_144_1288)"/>
<path d="M14.6407 21.4365C14.1244 21.4365 13.7188 21.0278 13.7188 20.5077V18.873C13.7188 18.3529 14.1244 17.9442 14.6407 17.9442C15.157 17.9442 15.5626 18.3529 15.5626 18.873V20.5077C15.5626 21.0278 15.157 21.4365 14.6407 21.4365Z" fill="url(#paint16_linear_144_1288)"/>
<path d="M42.8884 55.7647H40.8233C39.5326 55.7647 38.5 54.7244 38.5 53.4241C38.5 52.904 38.9057 52.4953 39.4219 52.4953C39.9382 52.4953 40.3439 52.904 40.3439 53.4241C40.3439 53.6842 40.5652 53.9071 40.8233 53.9071H42.8884C43.1466 53.9071 43.3679 53.6842 43.3679 53.4241V52.6068C43.3679 52.3467 43.1466 52.1238 42.8884 52.1238H40.8233C39.5326 52.1238 38.5 51.0836 38.5 49.7833V48.9659C38.5 47.6656 39.5326 46.6254 40.8233 46.6254H42.8884C44.1792 46.6254 45.2117 47.6656 45.2117 48.9659C45.2117 49.486 44.8061 49.8947 44.2898 49.8947C43.7735 49.8947 43.3679 49.486 43.3679 48.9659C43.3679 48.7059 43.1466 48.483 42.8884 48.483H40.8233C40.5652 48.483 40.3439 48.7059 40.3439 48.9659V49.7833C40.3439 50.0433 40.5652 50.2662 40.8233 50.2662H42.8884C44.1792 50.2662 45.2117 51.3065 45.2117 52.6068V53.4241C45.2117 54.7244 44.1792 55.7647 42.8884 55.7647Z" fill="url(#paint17_linear_144_1288)"/>
<path d="M41.8555 48.4458C41.3392 48.4458 40.9336 48.0371 40.9336 47.517V46.0681C40.9336 45.548 41.3392 45.1393 41.8555 45.1393C42.3718 45.1393 42.7775 45.548 42.7775 46.0681V47.517C42.7775 48.0371 42.3718 48.4458 41.8555 48.4458Z" fill="url(#paint18_linear_144_1288)"/>
<path d="M41.8555 57.2136C41.3392 57.2136 40.9336 56.8049 40.9336 56.2848V54.8359C40.9336 54.3158 41.3392 53.9071 41.8555 53.9071C42.3718 53.9071 42.7775 54.3158 42.7775 54.8359V56.2848C42.7775 56.8049 42.3718 57.2136 41.8555 57.2136Z" fill="url(#paint19_linear_144_1288)"/>
<path d="M59.0776 60H24.6339C24.1176 60 23.7119 59.5913 23.7119 59.0712V43.3189C23.7119 42.7987 24.1176 42.3901 24.6339 42.3901H59.0776C59.5939 42.3901 59.9996 42.7987 59.9996 43.3189V59.0712C59.9996 59.5542 59.5939 60 59.0776 60ZM25.5558 58.1052H58.1557V44.2477H25.5558V58.1052Z" fill="url(#paint20_linear_144_1288)"/>
<path d="M46.5762 60C46.3918 60 46.1705 59.9257 46.023 59.8143C45.6174 59.517 45.5436 58.9226 45.8386 58.5139C47.24 56.6935 48.0513 54.0186 48.0513 51.1951C48.0513 48.3715 47.24 45.7338 45.8386 43.8762C45.5436 43.4675 45.6174 42.8731 46.023 42.5759C46.4287 42.2786 47.0187 42.353 47.3137 42.7616C48.9732 44.9164 49.8952 48 49.8952 51.1951C49.8952 54.3901 48.9364 57.4737 47.3137 59.6285C47.1293 59.8514 46.8712 60 46.5762 60Z" fill="url(#paint21_linear_144_1288)"/>
<path d="M37.0983 60C36.8033 60 36.5451 59.8886 36.3607 59.6285C34.7012 57.4737 33.7793 54.3901 33.7793 51.1951C33.7793 48 34.7381 44.9164 36.3607 42.7616C36.6558 42.353 37.2458 42.2786 37.6515 42.5759C38.0571 42.8731 38.1309 43.4675 37.8358 43.8762C36.4345 45.6966 35.6232 48.3715 35.6232 51.1951C35.6232 53.9814 36.4345 56.6564 37.8358 58.5139C38.1309 58.9226 38.0571 59.517 37.6515 59.8143C37.5039 59.9257 37.2827 60 37.0983 60Z" fill="url(#paint22_linear_144_1288)"/>
<path d="M24.6339 50.3034C24.1176 50.3034 23.7119 49.8947 23.7119 49.3746C23.7119 48.8545 24.1176 48.4458 24.6339 48.4458C27.4366 48.4458 29.723 46.1424 29.723 43.3189C29.723 42.7987 30.1286 42.3901 30.6449 42.3901C31.1612 42.3901 31.5669 42.7987 31.5669 43.3189C31.5669 47.1826 28.4323 50.3034 24.6339 50.3034Z" fill="url(#paint23_linear_144_1288)"/>
<path d="M59.0775 50.3034C55.2423 50.3034 52.1445 47.1826 52.1445 43.3189C52.1445 42.7987 52.5502 42.3901 53.0665 42.3901C53.5828 42.3901 53.9884 42.7987 53.9884 43.3189C53.9884 46.1424 56.2748 48.4458 59.0775 48.4458C59.5938 48.4458 59.9995 48.8545 59.9995 49.3746C59.9995 49.8947 59.5938 50.3034 59.0775 50.3034Z" fill="url(#paint24_linear_144_1288)"/>
<path d="M30.6449 60C30.1286 60 29.723 59.5913 29.723 59.0712C29.723 56.2477 27.4366 53.9443 24.6339 53.9443C24.1176 53.9443 23.7119 53.5356 23.7119 53.0155C23.7119 52.4953 24.1176 52.0867 24.6339 52.0867C28.4691 52.0867 31.5669 55.2074 31.5669 59.0712C31.5669 59.5542 31.1612 60 30.6449 60Z" fill="url(#paint25_linear_144_1288)"/>
<path d="M53.0665 60C52.5502 60 52.1445 59.5913 52.1445 59.0712C52.1445 55.2074 55.2423 52.0867 59.0775 52.0867C59.5938 52.0867 59.9995 52.4953 59.9995 53.0155C59.9995 53.5356 59.5938 53.9443 59.0775 53.9443C56.2748 53.9443 53.9884 56.2477 53.9884 59.0712C53.9884 59.5542 53.5828 60 53.0665 60Z" fill="url(#paint26_linear_144_1288)"/>
<path d="M51.7766 30.9845C51.2603 30.9845 50.8546 30.5758 50.8546 30.0557V17.2384C50.8546 14.1548 48.347 11.6285 45.2861 11.6285H34.7022C34.1859 11.6285 33.7803 11.2198 33.7803 10.6997C33.7803 10.1795 34.1859 9.77087 34.7022 9.77087H45.2492C49.3427 9.77087 52.6616 13.1145 52.6616 17.2755V30.0929C52.6985 30.5758 52.256 30.9845 51.7766 30.9845Z" fill="url(#paint27_linear_144_1288)"/>
<path d="M51.7762 36.8545C50.5961 33.6594 48.6047 29.7214 46.4658 27.2693L51.7762 29.2012L57.0866 27.2693C54.9477 29.6842 52.9194 33.6594 51.7762 36.8545Z" fill="url(#paint28_linear_144_1288)"/>
<path d="M51.7765 38.192L51.3339 37.0031C50.3014 34.2539 48.3469 30.13 46.1342 27.5666L44.9541 26.192L51.7765 28.6811L58.5988 26.192L57.4188 27.5666C55.2061 30.13 53.2147 34.2539 52.219 37.0031L51.7765 38.192ZM47.8306 28.2353C49.4163 30.4644 50.8177 33.2136 51.7396 35.5542C52.6984 33.2136 54.0629 30.4644 55.6486 28.2353L51.7396 29.6471L47.8306 28.2353Z" fill="url(#paint29_linear_144_1288)"/>
<path d="M19.3241 52.9783H16.3001C12.2067 52.9783 8.8877 49.6347 8.8877 45.4737V40.6068C8.8877 40.0867 9.29335 39.678 9.80964 39.678C10.3259 39.678 10.7316 40.0867 10.7316 40.6068V45.4737C10.7316 48.5573 13.2393 51.0836 16.3001 51.0836H19.361C19.8772 51.0836 20.2829 51.4923 20.2829 52.0124C20.2829 52.5325 19.8404 52.9783 19.3241 52.9783Z" fill="url(#paint30_linear_144_1288)"/>
<path d="M9.77253 33.8452C10.9526 37.0403 12.944 40.9783 15.0829 43.4304L9.77253 41.4985L4.49902 43.4675C6.60105 41.0155 8.59245 37.0403 9.77253 33.8452Z" fill="url(#paint31_linear_144_1288)"/>
<path d="M2.9502 44.5078L4.13028 43.1331C6.34294 40.5697 8.33434 36.4458 9.33004 33.6966L9.77257 32.5078L10.2151 33.6966C11.2477 36.4458 13.2022 40.5697 15.4149 43.1331L16.5949 44.5078L9.77257 42.0186L2.9502 44.5078ZM9.77257 41.0155L13.6816 42.4273C12.0959 40.1982 10.6945 37.4489 9.77257 35.1084C8.81375 37.4489 7.44927 40.1982 5.86353 42.4273L9.77257 41.0155Z" fill="url(#paint32_linear_144_1288)"/>
<defs>
<linearGradient id="paint0_linear_144_1288" x1="15.0822" y1="40.1936" x2="36.6273" y2="25.4355" gradientUnits="userSpaceOnUse">
<stop stop-color="#FC2773"/>
<stop offset="1" stop-color="#E0612B"/>
</linearGradient>
<linearGradient id="paint1_linear_144_1288" x1="14.9455" y1="32.3453" x2="29.8274" y2="22.1643" gradientUnits="userSpaceOnUse">
<stop stop-color="#FC2773"/>
<stop offset="1" stop-color="#E0612B"/>
</linearGradient>
<linearGradient id="paint2_linear_144_1288" x1="14.6677" y1="8.7686" x2="16.5881" y2="8.38845" gradientUnits="userSpaceOnUse">
<stop stop-color="#FC2773"/>
<stop offset="1" stop-color="#E0612B"/>
</linearGradient>
<linearGradient id="paint3_linear_144_1288" x1="14.6685" y1="31.7891" x2="16.586" y2="31.4078" gradientUnits="userSpaceOnUse">
<stop stop-color="#FC2773"/>
<stop offset="1" stop-color="#E0612B"/>
</linearGradient>
<linearGradient id="paint4_linear_144_1288" x1="8.96812" y1="9.77054" x2="12.5672" y2="8.00958" gradientUnits="userSpaceOnUse">
<stop stop-color="#FC2773"/>
<stop offset="1" stop-color="#E0612B"/>
</linearGradient>
<linearGradient id="paint5_linear_144_1288" x1="20.401" y1="29.7177" x2="23.9972" y2="27.956" gradientUnits="userSpaceOnUse">
<stop stop-color="#FC2773"/>
<stop offset="1" stop-color="#E0612B"/>
</linearGradient>
<linearGradient id="paint6_linear_144_1288" x1="4.80728" y1="12.5423" x2="8.05216" y2="9.41718" gradientUnits="userSpaceOnUse">
<stop stop-color="#FC2773"/>
<stop offset="1" stop-color="#E0612B"/>
</linearGradient>
<linearGradient id="paint7_linear_144_1288" x1="24.6226" y1="24.0965" x2="27.8669" y2="20.9864" gradientUnits="userSpaceOnUse">
<stop stop-color="#FC2773"/>
<stop offset="1" stop-color="#E0612B"/>
</linearGradient>
<linearGradient id="paint8_linear_144_1288" x1="3.26837" y1="16.3547" x2="4.31684" y2="13.8864" gradientUnits="userSpaceOnUse">
<stop stop-color="#FC2773"/>
<stop offset="1" stop-color="#E0612B"/>
</linearGradient>
<linearGradient id="paint9_linear_144_1288" x1="26.1685" y1="16.3547" x2="27.2173" y2="13.8866" gradientUnits="userSpaceOnUse">
<stop stop-color="#FC2773"/>
<stop offset="1" stop-color="#E0612B"/>
</linearGradient>
<linearGradient id="paint10_linear_144_1288" x1="4.80728" y1="24.1056" x2="8.07099" y2="20.9813" gradientUnits="userSpaceOnUse">
<stop stop-color="#FC2773"/>
<stop offset="1" stop-color="#E0612B"/>
</linearGradient>
<linearGradient id="paint11_linear_144_1288" x1="24.6233" y1="12.5423" x2="27.8676" y2="9.43143" gradientUnits="userSpaceOnUse">
<stop stop-color="#FC2773"/>
<stop offset="1" stop-color="#E0612B"/>
</linearGradient>
<linearGradient id="paint12_linear_144_1288" x1="8.96812" y1="29.7117" x2="12.561" y2="27.946" gradientUnits="userSpaceOnUse">
<stop stop-color="#FC2773"/>
<stop offset="1" stop-color="#E0612B"/>
</linearGradient>
<linearGradient id="paint13_linear_144_1288" x1="20.4007" y1="9.77054" x2="23.9998" y2="8.00958" gradientUnits="userSpaceOnUse">
<stop stop-color="#FC2773"/>
<stop offset="1" stop-color="#E0612B"/>
</linearGradient>
<linearGradient id="paint14_linear_144_1288" x1="14.7336" y1="23.4966" x2="21.0875" y2="20.3276" gradientUnits="userSpaceOnUse">
<stop stop-color="#FC2773"/>
<stop offset="1" stop-color="#E0612B"/>
</linearGradient>
<linearGradient id="paint15_linear_144_1288" x1="14.6685" y1="12.7756" x2="16.4243" y2="12.1298" gradientUnits="userSpaceOnUse">
<stop stop-color="#FC2773"/>
<stop offset="1" stop-color="#E0612B"/>
</linearGradient>
<linearGradient id="paint16_linear_144_1288" x1="14.6685" y1="22.7087" x2="16.4288" y2="22.0681" gradientUnits="userSpaceOnUse">
<stop stop-color="#FC2773"/>
<stop offset="1" stop-color="#E0612B"/>
</linearGradient>
<linearGradient id="paint17_linear_144_1288" x1="41.9571" y1="59.094" x2="47.7332" y2="56.1705" gradientUnits="userSpaceOnUse">
<stop stop-color="#FC2773"/>
<stop offset="1" stop-color="#E0612B"/>
</linearGradient>
<linearGradient id="paint18_linear_144_1288" x1="41.8834" y1="49.6503" x2="43.6201" y2="48.9828" gradientUnits="userSpaceOnUse">
<stop stop-color="#FC2773"/>
<stop offset="1" stop-color="#E0612B"/>
</linearGradient>
<linearGradient id="paint19_linear_144_1288" x1="41.8834" y1="58.4181" x2="43.6201" y2="57.7506" gradientUnits="userSpaceOnUse">
<stop stop-color="#FC2773"/>
<stop offset="1" stop-color="#E0612B"/>
</linearGradient>
<linearGradient id="paint20_linear_144_1288" x1="42.4032" y1="66.415" x2="55.4059" y2="47.9485" gradientUnits="userSpaceOnUse">
<stop stop-color="#FC2773"/>
<stop offset="1" stop-color="#E0612B"/>
</linearGradient>
<linearGradient id="paint21_linear_144_1288" x1="47.8411" y1="66.4132" x2="52.2979" y2="65.6742" gradientUnits="userSpaceOnUse">
<stop stop-color="#FC2773"/>
<stop offset="1" stop-color="#E0612B"/>
</linearGradient>
<linearGradient id="paint22_linear_144_1288" x1="35.9612" y1="66.4132" x2="40.418" y2="65.6742" gradientUnits="userSpaceOnUse">
<stop stop-color="#FC2773"/>
<stop offset="1" stop-color="#E0612B"/>
</linearGradient>
<linearGradient id="paint23_linear_144_1288" x1="27.7579" y1="53.1861" x2="33.5423" y2="49.2289" gradientUnits="userSpaceOnUse">
<stop stop-color="#FC2773"/>
<stop offset="1" stop-color="#E0612B"/>
</linearGradient>
<linearGradient id="paint24_linear_144_1288" x1="56.1905" y1="53.1861" x2="61.9749" y2="49.2289" gradientUnits="userSpaceOnUse">
<stop stop-color="#FC2773"/>
<stop offset="1" stop-color="#E0612B"/>
</linearGradient>
<linearGradient id="paint25_linear_144_1288" x1="27.7579" y1="62.8827" x2="33.5423" y2="58.9255" gradientUnits="userSpaceOnUse">
<stop stop-color="#FC2773"/>
<stop offset="1" stop-color="#E0612B"/>
</linearGradient>
<linearGradient id="paint26_linear_144_1288" x1="56.1905" y1="62.8827" x2="61.9749" y2="58.9255" gradientUnits="userSpaceOnUse">
<stop stop-color="#FC2773"/>
<stop offset="1" stop-color="#E0612B"/>
</linearGradient>
<linearGradient id="paint27_linear_144_1288" x1="43.5069" y1="38.7123" x2="58.3386" y2="29.613" gradientUnits="userSpaceOnUse">
<stop stop-color="#FC2773"/>
<stop offset="1" stop-color="#E0612B"/>
</linearGradient>
<linearGradient id="paint28_linear_144_1288" x1="51.9364" y1="40.3462" x2="59.1886" y2="34.8079" gradientUnits="userSpaceOnUse">
<stop stop-color="#FC2773"/>
<stop offset="1" stop-color="#E0612B"/>
</linearGradient>
<linearGradient id="paint29_linear_144_1288" x1="51.9823" y1="42.5634" x2="61.1208" y2="35.4019" gradientUnits="userSpaceOnUse">
<stop stop-color="#FC2773"/>
<stop offset="1" stop-color="#E0612B"/>
</linearGradient>
<linearGradient id="paint30_linear_144_1288" x1="14.7572" y1="57.8235" x2="23.8912" y2="52.4299" gradientUnits="userSpaceOnUse">
<stop stop-color="#FC2773"/>
<stop offset="1" stop-color="#E0612B"/>
</linearGradient>
<linearGradient id="paint31_linear_144_1288" x1="9.95064" y1="46.9728" x2="17.2167" y2="41.4645" gradientUnits="userSpaceOnUse">
<stop stop-color="#FC2773"/>
<stop offset="1" stop-color="#E0612B"/>
</linearGradient>
<linearGradient id="paint32_linear_144_1288" x1="9.97842" y1="48.8792" x2="19.1168" y2="41.7177" gradientUnits="userSpaceOnUse">
<stop stop-color="#FC2773"/>
<stop offset="1" stop-color="#E0612B"/>
</linearGradient>
</defs>
</svg>
