<svg width="60" height="60" viewBox="0 0 60 60" fill="none" xmlns="http://www.w3.org/2000/svg">
<path d="M30.174 31.158C25.7684 31.158 22.167 27.5975 22.167 23.242V16.916C22.167 12.5605 25.7684 9 30.174 9C34.5796 9 38.181 12.5605 38.181 16.916V23.242C38.181 27.5975 34.6145 31.158 30.174 31.158ZM30.174 10.7284C26.7124 10.7284 23.9152 13.4938 23.9152 16.916V23.242C23.9152 26.6642 26.7124 29.4296 30.174 29.4296C33.6355 29.4296 36.4327 26.6642 36.4327 23.242V16.916C36.4677 13.4938 33.6355 10.7284 30.174 10.7284Z" fill="url(#paint0_linear_144_1366)"/>
<path d="M38.9856 51H21.0136C17.8667 51 15.2793 48.4765 15.2793 45.3309V38.8321C15.2793 37.5531 16.0835 36.2741 17.6569 35.0296C18.9506 34.0272 20.4891 33.2667 22.2373 32.7827L27.7968 31.2272C28.2863 31.1234 28.7758 31.4 28.9157 31.8494C29.0206 32.3333 28.7758 32.7827 28.2863 32.921L22.7268 34.4765C21.2234 34.8914 19.8947 35.5481 18.7758 36.4123C17.9716 37 17.0625 37.9333 17.0625 38.8321V45.3654C17.0625 47.5432 18.8457 49.3062 21.0485 49.3062H39.0206C41.2234 49.3062 43.0066 47.5432 43.0066 45.3654V38.8321C43.0066 37.9333 42.0625 37 41.2933 36.4123C40.1744 35.5481 38.8457 34.8914 37.3422 34.4765L31.8527 32.9555C31.3982 32.8518 31.1185 32.3679 31.2583 31.9185C31.3982 31.4691 31.8877 31.1926 32.3422 31.3309L37.7618 32.8173C39.5101 33.3012 41.0485 34.0617 42.3422 35.0642C43.9157 36.3086 44.7199 37.5876 44.7199 38.8667V45.4C44.6849 48.4765 42.1324 51 38.9856 51Z" fill="url(#paint1_linear_144_1366)"/>
<path d="M28.0763 32.9556C27.5868 32.9556 27.2021 32.5753 27.2021 32.0914V30.2938C27.2021 29.8099 27.5868 29.4296 28.0763 29.4296C28.5658 29.4296 28.9504 29.8099 28.9504 30.2938V32.0914C28.9504 32.5753 28.5308 32.9556 28.0763 32.9556Z" fill="url(#paint2_linear_144_1366)"/>
<path d="M32.0978 32.9901C31.6082 32.9901 31.2236 32.6099 31.2236 32.1259V30.2938C31.2236 29.8099 31.6082 29.4296 32.0978 29.4296C32.5873 29.4296 32.9719 29.8099 32.9719 30.2938V32.1605C32.9719 32.6099 32.5873 32.9901 32.0978 32.9901Z" fill="url(#paint3_linear_144_1366)"/>
<path d="M29.9996 40.3185C27.2024 40.3185 24.9297 37.3802 24.9297 33.7852C24.9297 33.3704 24.9647 32.9555 24.9996 32.5753C25.1045 32.0913 25.5241 31.7802 26.0136 31.8494C26.5031 31.9185 26.8178 32.3679 26.7479 32.8173C26.7129 33.1284 26.6779 33.4395 26.6779 33.7852C26.6779 36.3778 28.1814 38.5901 29.9996 38.5901C31.7828 38.5901 33.3213 36.3778 33.3213 33.7852C33.3213 33.4741 33.2863 33.1284 33.2514 32.8173C33.1814 32.3333 33.4961 31.9185 33.9856 31.8494C34.4751 31.7802 34.8947 32.0913 34.9647 32.5753C35.0346 32.9555 35.0346 33.3704 35.0346 33.7852C35.0695 37.3802 32.7968 40.3185 29.9996 40.3185Z" fill="url(#paint4_linear_144_1366)"/>
<path d="M32.7972 17.8494C32.028 17.8494 31.3287 17.7111 30.6643 17.4C29.8252 17.0198 29.3007 16.4667 28.8811 16.0173C28.4266 15.5679 28.1469 15.2914 27.6923 15.1877C26.6783 14.9457 25.3147 15.7408 23.7063 17.4691C23.3916 17.8148 22.8322 17.8494 22.4825 17.5037C22.1329 17.1926 22.0979 16.6395 22.4476 16.2938C24.5105 14.0815 26.3986 13.1482 28.0769 13.4938C29.0559 13.7012 29.6154 14.2889 30.1399 14.842C30.5245 15.2222 30.8741 15.6025 31.3986 15.8445C32.3077 16.2593 33.7413 16.5358 36.7483 14.8074C37.1678 14.5654 37.6923 14.7037 37.9371 15.1185C38.1818 15.5333 38.042 16.0519 37.6224 16.2938C35.7692 17.3309 34.1958 17.8494 32.7972 17.8494Z" fill="url(#paint5_linear_144_1366)"/>
<path d="M46.9936 28.9111C43.0076 28.9111 39.7559 25.6963 39.7559 21.7556V16.1556C39.7559 12.2148 43.0076 9 46.9936 9C50.9796 9 54.2314 12.2148 54.2314 16.1556V21.7901C54.1964 25.6963 50.9796 28.9111 46.9936 28.9111ZM46.9936 10.7284C43.9866 10.7284 41.5041 13.1481 41.5041 16.1556V21.7901C41.5041 24.763 43.9517 27.2173 46.9936 27.2173C50.0006 27.2173 52.4831 24.7975 52.4831 21.7901V16.1556C52.4831 13.1481 50.0006 10.7284 46.9936 10.7284Z" fill="url(#paint6_linear_144_1366)"/>
<path d="M35.9445 34.0963C35.6997 34.0963 35.455 33.9926 35.2802 33.8198C34.9655 33.4741 35.0004 32.921 35.3501 32.6099C35.49 32.4716 35.6648 32.3334 35.8046 32.2296C36.9585 31.3309 38.3571 30.6395 39.8955 30.2247L44.8606 28.842C45.3151 28.7037 45.8046 28.9803 45.9445 29.4296C46.0844 29.879 45.8046 30.363 45.3501 30.5013L40.3851 31.884C39.0564 32.2642 37.8676 32.8173 36.8886 33.5778C36.7487 33.6815 36.6438 33.7852 36.5039 33.8889C36.3641 34.0272 36.1543 34.0963 35.9445 34.0963Z" fill="url(#paint7_linear_144_1366)"/>
<path d="M54.8256 46.5753H43.8116C43.3221 46.5753 42.9375 46.1951 42.9375 45.7111C42.9375 45.2272 43.3221 44.8469 43.8116 44.8469H54.8256C56.7137 44.8469 58.2522 43.3259 58.2522 41.4593V35.6519C58.2522 35.0642 57.7277 34.3037 56.7487 33.5432C55.7697 32.7827 54.5809 32.1951 53.2522 31.8494L48.427 30.5013C47.9725 30.363 47.6927 29.9136 47.8326 29.4296C47.9725 28.9803 48.462 28.7037 48.9165 28.842L53.7417 30.1901C55.3151 30.605 56.6788 31.2963 57.8326 32.1951C59.2662 33.3013 60.0004 34.4766 60.0004 35.6519V41.4593C60.0004 44.2938 57.6927 46.5753 54.8256 46.5753Z" fill="url(#paint8_linear_144_1366)"/>
<path d="M45.1056 30.5013C44.6161 30.5013 44.2314 30.121 44.2314 29.6371V28.0469C44.2314 27.563 44.6161 27.1827 45.1056 27.1827C45.5951 27.1827 45.9797 27.563 45.9797 28.0469V29.6716C45.9797 30.121 45.5951 30.5013 45.1056 30.5013Z" fill="url(#paint9_linear_144_1366)"/>
<path d="M48.7071 30.5358C48.2176 30.5358 47.833 30.1556 47.833 29.6716V28.0469C47.833 27.563 48.2176 27.1827 48.7071 27.1827C49.1966 27.1827 49.5813 27.563 49.5813 28.0469V29.7062C49.5813 30.1556 49.1617 30.5358 48.7071 30.5358Z" fill="url(#paint10_linear_144_1366)"/>
<path d="M46.8185 37.0691C44.2661 37.0691 42.2031 34.4074 42.2031 31.158C42.2031 30.7778 42.2381 30.4321 42.2731 30.0519C42.343 29.5679 42.7975 29.2568 43.2521 29.3259C43.7416 29.3951 44.0563 29.8445 43.9863 30.2938C43.9514 30.5704 43.9164 30.8469 43.9164 31.1235C43.9164 33.4049 45.2101 35.3062 46.7835 35.3062C48.322 35.3062 49.6507 33.4049 49.6507 31.1235C49.6507 30.8469 49.6157 30.5358 49.5807 30.2938C49.5108 29.8099 49.8255 29.3951 50.315 29.3259C50.8045 29.2568 51.2241 29.5679 51.294 30.0519C51.329 30.3975 51.364 30.7778 51.364 31.158C51.4339 34.4074 49.371 37.0691 46.8185 37.0691Z" fill="url(#paint11_linear_144_1366)"/>
<path d="M49.336 17.0889C48.6367 17.0889 48.0073 16.9506 47.3779 16.6741C46.6087 16.3284 46.1541 15.8445 45.7695 15.4296C45.3849 15.0148 45.1402 14.8074 44.7555 14.7037C43.8814 14.4963 42.6926 15.1877 41.259 16.7087C40.9444 17.0543 40.3849 17.0889 40.0353 16.7432C39.6856 16.4321 39.6506 15.879 40.0003 15.5334C41.9234 13.4938 43.6017 12.6642 45.1402 13.0445C46.0492 13.2519 46.5737 13.7704 47.0283 14.2543C47.3779 14.6 47.6576 14.9111 48.1122 15.1185C48.9164 15.4642 50.1402 15.7062 52.7975 14.2198C53.2171 13.9778 53.7416 14.1161 53.9863 14.5309C54.2311 14.9457 54.0912 15.4642 53.6716 15.7062C51.9933 16.605 50.5947 17.0889 49.336 17.0889Z" fill="url(#paint12_linear_144_1366)"/>
<path d="M13.3569 28.9111C9.37089 28.9111 6.11914 25.6963 6.11914 21.7556V16.1556C6.11914 12.2148 9.37089 9 13.3569 9C17.3429 9 20.5947 12.2148 20.5947 16.1556V21.7901C20.5597 25.6963 17.3429 28.9111 13.3569 28.9111ZM13.3569 10.7284C10.3499 10.7284 7.86739 13.1481 7.86739 16.1556V21.7901C7.86739 24.763 10.3149 27.2173 13.3569 27.2173C16.3639 27.2173 18.8464 24.7975 18.8464 21.7901V16.1556C18.8114 13.1481 16.3639 10.7284 13.3569 10.7284Z" fill="url(#paint13_linear_144_1366)"/>
<path d="M16.1888 46.5753H5.17483C2.34266 46.5753 0 44.2938 0 41.4592V35.6518C0 34.4765 0.734266 33.3358 2.16783 32.195C3.32168 31.2963 4.72028 30.6049 6.25874 30.1901L11.2238 28.8074C11.6783 28.7037 12.1678 28.9457 12.3077 29.4296C12.4476 29.879 12.1678 30.3629 11.7133 30.5012L6.74825 31.8839C5.41958 32.2642 4.23077 32.8173 3.25175 33.5778C2.27273 34.3037 1.74825 35.0642 1.74825 35.6518V41.4592C1.74825 43.3259 3.28671 44.8469 5.17483 44.8469H16.1538C16.6434 44.8469 17.028 45.2271 17.028 45.7111C17.0629 46.195 16.6434 46.5753 16.1888 46.5753Z" fill="url(#paint14_linear_144_1366)"/>
<path d="M24.021 34.0272C23.8112 34.0272 23.6014 33.958 23.4616 33.8198C23.3217 33.7506 23.2168 33.6469 23.1119 33.5432C22.1329 32.7827 20.9791 32.2296 19.6154 31.8494L14.8252 30.5358C14.3357 30.3976 14.0909 29.9136 14.1958 29.4642C14.3357 28.9803 14.8252 28.7383 15.2798 28.842L20.1049 30.1901C21.6784 30.6395 23.042 31.2963 24.1958 32.1951C24.3357 32.2988 24.4756 32.4025 24.5805 32.5408C24.9301 32.8519 24.9651 33.405 24.6504 33.7506C24.5105 33.9235 24.2658 34.0272 24.021 34.0272Z" fill="url(#paint15_linear_144_1366)"/>
<path d="M11.4689 30.5013C10.9793 30.5013 10.5947 30.121 10.5947 29.6371V28.0469C10.5947 27.563 10.9793 27.1827 11.4689 27.1827C11.9584 27.1827 12.343 27.563 12.343 28.0469V29.6716C12.343 30.121 11.9234 30.5013 11.4689 30.5013Z" fill="url(#paint16_linear_144_1366)"/>
<path d="M15.0353 30.5358C14.5457 30.5358 14.1611 30.1556 14.1611 29.6716V28.0469C14.1611 27.563 14.5457 27.1827 15.0353 27.1827C15.5248 27.1827 15.9094 27.563 15.9094 28.0469V29.7062C15.9094 30.1556 15.5248 30.5358 15.0353 30.5358Z" fill="url(#paint17_linear_144_1366)"/>
<path d="M13.1818 37.0691C10.6293 37.0691 8.56641 34.4074 8.56641 31.158C8.56641 30.7778 8.60137 30.4321 8.63634 30.0519C8.74123 29.6025 9.16081 29.2568 9.65032 29.3259C10.1049 29.3951 10.4545 29.8445 10.3846 30.2938C10.3496 30.5704 10.3147 30.8815 10.3147 31.158C10.3147 33.4395 11.6084 35.3407 13.1818 35.3407C14.7203 35.3407 16.0489 33.4395 16.0489 31.158C16.0489 30.8815 16.014 30.5704 15.979 30.3284C15.9091 29.8445 16.2237 29.3951 16.7133 29.3259C17.2028 29.2568 17.6223 29.5679 17.6923 30.0519C17.7272 30.3975 17.7622 30.7778 17.7622 31.158C17.7972 34.4074 15.7342 37.0691 13.1818 37.0691Z" fill="url(#paint18_linear_144_1366)"/>
<path d="M15.6992 17.0889C14.9999 17.0889 14.3706 16.9506 13.7412 16.6741C12.972 16.3284 12.5174 15.8444 12.1328 15.4296C11.7132 15.0148 11.5034 14.7728 11.1188 14.7037C10.2447 14.4963 9.05588 15.1876 7.62232 16.7086C7.30763 17.0543 6.74819 17.0889 6.39854 16.7432C6.04889 16.4321 6.01392 15.879 6.36357 15.5333C8.25169 13.4938 9.96497 12.6642 11.5034 13.0099C12.4125 13.2173 12.937 13.7704 13.3915 14.2197C13.7412 14.5654 14.0209 14.8765 14.4755 15.0839C15.2797 15.4296 16.5034 15.6716 19.1608 14.1852C19.5804 13.9432 20.1048 14.0815 20.3496 14.4963C20.5943 14.9111 20.4545 15.4296 20.0349 15.6716C18.3566 16.6049 16.923 17.0889 15.6992 17.0889Z" fill="url(#paint19_linear_144_1366)"/>
<defs>
<linearGradient id="paint0_linear_144_1366" x1="30.4156" y1="39.2299" x2="44.2862" y2="32.3209" gradientUnits="userSpaceOnUse">
<stop stop-color="#FC2773"/>
<stop offset="1" stop-color="#E0612B"/>
</linearGradient>
<linearGradient id="paint1_linear_144_1366" x1="30.4437" y1="58.2109" x2="45.9634" y2="42.3023" gradientUnits="userSpaceOnUse">
<stop stop-color="#FC2773"/>
<stop offset="1" stop-color="#E0612B"/>
</linearGradient>
<linearGradient id="paint2_linear_144_1366" x1="28.1026" y1="34.24" x2="29.795" y2="33.6617" gradientUnits="userSpaceOnUse">
<stop stop-color="#FC2773"/>
<stop offset="1" stop-color="#E0612B"/>
</linearGradient>
<linearGradient id="paint3_linear_144_1366" x1="32.1241" y1="34.2872" x2="33.8199" y2="33.7133" gradientUnits="userSpaceOnUse">
<stop stop-color="#FC2773"/>
<stop offset="1" stop-color="#E0612B"/>
</linearGradient>
<linearGradient id="paint4_linear_144_1366" x1="30.1348" y1="43.4072" x2="36.6578" y2="38.049" gradientUnits="userSpaceOnUse">
<stop stop-color="#FC2773"/>
<stop offset="1" stop-color="#E0612B"/>
</linearGradient>
<linearGradient id="paint5_linear_144_1366" x1="30.369" y1="19.4616" x2="32.7843" y2="13.4979" gradientUnits="userSpaceOnUse">
<stop stop-color="#FC2773"/>
<stop offset="1" stop-color="#E0612B"/>
</linearGradient>
<linearGradient id="paint6_linear_144_1366" x1="47.212" y1="36.1645" x2="59.7205" y2="29.897" gradientUnits="userSpaceOnUse">
<stop stop-color="#FC2773"/>
<stop offset="1" stop-color="#E0612B"/>
</linearGradient>
<linearGradient id="paint7_linear_144_1366" x1="40.6873" y1="36.0234" x2="44.5915" y2="30.4709" gradientUnits="userSpaceOnUse">
<stop stop-color="#FC2773"/>
<stop offset="1" stop-color="#E0612B"/>
</linearGradient>
<linearGradient id="paint8_linear_144_1366" x1="51.7264" y1="53.0484" x2="64.5539" y2="44.5589" gradientUnits="userSpaceOnUse">
<stop stop-color="#FC2773"/>
<stop offset="1" stop-color="#E0612B"/>
</linearGradient>
<linearGradient id="paint9_linear_144_1366" x1="45.1319" y1="31.7101" x2="46.8018" y2="31.1039" gradientUnits="userSpaceOnUse">
<stop stop-color="#FC2773"/>
<stop offset="1" stop-color="#E0612B"/>
</linearGradient>
<linearGradient id="paint10_linear_144_1366" x1="48.7335" y1="31.7573" x2="50.4073" y2="31.1558" gradientUnits="userSpaceOnUse">
<stop stop-color="#FC2773"/>
<stop offset="1" stop-color="#E0612B"/>
</linearGradient>
<linearGradient id="paint11_linear_144_1366" x1="46.9226" y1="39.8934" x2="52.8772" y2="35.0432" gradientUnits="userSpaceOnUse">
<stop stop-color="#FC2773"/>
<stop offset="1" stop-color="#E0612B"/>
</linearGradient>
<linearGradient id="paint12_linear_144_1366" x1="47.1473" y1="18.5949" x2="49.4545" y2="13.0747" gradientUnits="userSpaceOnUse">
<stop stop-color="#FC2773"/>
<stop offset="1" stop-color="#E0612B"/>
</linearGradient>
<linearGradient id="paint13_linear_144_1366" x1="13.5753" y1="36.1645" x2="26.0837" y2="29.897" gradientUnits="userSpaceOnUse">
<stop stop-color="#FC2773"/>
<stop offset="1" stop-color="#E0612B"/>
</linearGradient>
<linearGradient id="paint14_linear_144_1366" x1="8.77193" y1="53.0565" x2="21.5996" y2="44.5941" gradientUnits="userSpaceOnUse">
<stop stop-color="#FC2773"/>
<stop offset="1" stop-color="#E0612B"/>
</linearGradient>
<linearGradient id="paint15_linear_144_1366" x1="19.6803" y1="35.9247" x2="23.5312" y2="30.4758" gradientUnits="userSpaceOnUse">
<stop stop-color="#FC2773"/>
<stop offset="1" stop-color="#E0612B"/>
</linearGradient>
<linearGradient id="paint16_linear_144_1366" x1="11.4952" y1="31.7101" x2="13.165" y2="31.1039" gradientUnits="userSpaceOnUse">
<stop stop-color="#FC2773"/>
<stop offset="1" stop-color="#E0612B"/>
</linearGradient>
<linearGradient id="paint17_linear_144_1366" x1="15.0616" y1="31.7573" x2="16.7355" y2="31.1558" gradientUnits="userSpaceOnUse">
<stop stop-color="#FC2773"/>
<stop offset="1" stop-color="#E0612B"/>
</linearGradient>
<linearGradient id="paint18_linear_144_1366" x1="13.3033" y1="39.8934" x2="19.2622" y2="35.0218" gradientUnits="userSpaceOnUse">
<stop stop-color="#FC2773"/>
<stop offset="1" stop-color="#E0612B"/>
</linearGradient>
<linearGradient id="paint19_linear_144_1366" x1="13.5106" y1="18.6025" x2="15.8378" y2="13.0626" gradientUnits="userSpaceOnUse">
<stop stop-color="#FC2773"/>
<stop offset="1" stop-color="#E0612B"/>
</linearGradient>
</defs>
</svg>
