<svg width="60" height="60" viewBox="0 0 60 60" fill="none" xmlns="http://www.w3.org/2000/svg">
<path d="M52.027 48H8.97297C4.57898 48 1 44.4177 1 40.0197C1 36.3665 3.48048 33.2099 6.95315 32.3232C6.77598 31.5783 6.66967 30.8335 6.66967 30.0887C6.66967 24.9103 10.8865 20.6897 16.0601 20.6897C16.1664 20.6897 16.2372 20.6897 16.3435 20.6897C18.2571 15.4759 23.1826 12 28.8168 12C34.1676 12 38.9868 15.2276 41.042 20.1576C41.6444 20.0512 42.2114 19.9803 42.8138 19.9803C48.3772 19.9803 52.9129 24.5202 52.9129 30.0887C52.9129 30.7626 52.842 31.401 52.7003 32.0749C56.7754 32.4296 60 35.87 60 40.0197C60 44.4177 56.421 48 52.027 48ZM16.0601 22.4631C11.8432 22.4631 8.44144 25.868 8.44144 30.0887C8.44144 30.9754 8.58318 31.8266 8.9021 32.6778C9.00841 32.9261 8.97297 33.2099 8.83123 33.4581C8.68949 33.6709 8.44144 33.8483 8.19339 33.8837C5.11051 34.2739 2.77177 36.8985 2.77177 40.0197C2.77177 43.4246 5.53574 46.2266 8.97297 46.2266H52.027C55.4288 46.2266 58.2282 43.4246 58.2282 40.0197C58.2282 36.6148 55.4288 33.8128 52.027 33.8128C51.9207 33.8128 51.8144 33.8128 51.7081 33.8128H51.6018C51.3183 33.8483 51.0348 33.7064 50.8577 33.4581C50.6805 33.2099 50.6096 32.9261 50.7159 32.6424C50.9994 31.7911 51.1411 30.9399 51.1411 30.0532C51.1411 24.7685 46.2156 20.5833 40.7231 22.002C40.2625 22.1084 39.8018 21.8601 39.6601 21.4345C38.03 16.8591 33.6715 13.7734 28.8168 13.7734C23.7495 13.7734 19.3201 17.0365 17.7964 21.8956C17.6901 22.2857 17.3003 22.534 16.8751 22.4985C16.5916 22.4631 16.3435 22.4631 16.0601 22.4631Z" fill="url(#paint0_linear_144_1112)"/>
<path d="M25.7338 19.3773H32.8563C33.3524 19.3773 33.7422 19.7675 33.7422 20.264V31.933H37.8527C38.2071 31.933 38.526 32.1458 38.6677 32.4295C38.8095 32.7487 38.774 33.1034 38.5614 33.3872L29.986 43.7438C29.8089 43.9566 29.5608 44.063 29.3128 44.063C29.0647 44.063 28.7812 43.9566 28.6395 43.7438L20.0641 33.3872C19.8515 33.1389 19.7806 32.7487 19.9224 32.4295C20.0641 32.1103 20.383 31.933 20.7374 31.933H24.8479V20.264C24.8479 19.7675 25.2731 19.3773 25.7338 19.3773ZM31.9704 21.1507H26.6197V32.8197C26.6197 33.3162 26.2299 33.7064 25.7338 33.7064H22.6155L29.3128 41.7931L36.0101 33.7064H32.8563C32.3602 33.7064 31.9704 33.3162 31.9704 32.8197V21.1507Z" fill="url(#paint1_linear_144_1112)"/>
<defs>
<linearGradient id="paint0_linear_144_1112" x1="31.3901" y1="61.1143" x2="59.4158" y2="29.4583" gradientUnits="userSpaceOnUse">
<stop stop-color="#FC2773"/>
<stop offset="1" stop-color="#E0612B"/>
</linearGradient>
<linearGradient id="paint1_linear_144_1112" x1="29.5859" y1="53.0557" x2="45.5698" y2="44.6196" gradientUnits="userSpaceOnUse">
<stop stop-color="#FC2773"/>
<stop offset="1" stop-color="#E0612B"/>
</linearGradient>
</defs>
</svg>
