<svg width="60" height="60" viewBox="0 0 60 60" fill="none" xmlns="http://www.w3.org/2000/svg">
<path d="M30.6355 39.2263C22.0236 39.2263 15.8019 29.9108 15.8019 17.0975C15.7667 8.78139 22.4454 2 30.6355 2C38.8256 2 45.469 8.78139 45.469 17.0618C45.469 29.9108 39.2474 39.2263 30.6355 39.2263ZM30.6355 3.78458C23.4296 3.78458 17.5594 9.74506 17.5594 17.0975C17.5594 28.8757 23.0781 37.4417 30.6355 37.4417C38.0874 37.4417 43.7115 28.6973 43.7115 17.0975C43.7115 9.74506 37.8414 3.78458 30.6355 3.78458Z" fill="url(#paint0_linear_144_1198)"/>
<path d="M33.4128 41.796H28.1051C27.8239 41.796 27.5427 41.6533 27.4021 41.4034C27.2263 41.1536 27.1912 40.8681 27.2966 40.5825L28.2457 38.0127C28.3863 37.6558 28.7026 37.4417 29.0542 37.4417H32.5341C32.8856 37.4417 33.2371 37.6915 33.3425 38.0127L34.2916 40.5825C34.3971 40.8681 34.3619 41.1536 34.1861 41.4034C33.9752 41.6533 33.7292 41.796 33.4128 41.796ZM29.3354 40.0115H32.1474L31.8662 39.2263H29.6517L29.3354 40.0115Z" fill="url(#paint1_linear_144_1198)"/>
<path d="M29.827 58C29.3349 58 28.9482 57.6074 28.9482 57.1077C28.9482 55.5016 29.4404 54.6807 29.8622 53.9669C30.2488 53.3244 30.53 52.8247 30.53 51.7183C30.53 50.6119 30.2488 50.1122 29.8622 49.4697C29.4404 48.7559 28.9482 47.8993 28.9482 46.3289C28.9482 44.7228 29.4404 43.9019 29.8622 43.188C30.2488 42.5456 30.53 42.0459 30.53 40.9395C30.53 40.4398 30.9167 40.0472 31.4088 40.0472C31.9009 40.0472 32.2876 40.4398 32.2876 40.9395C32.2876 42.5456 31.7954 43.3665 31.3736 44.0803C30.987 44.7228 30.7058 45.2225 30.7058 46.3289C30.7058 47.4353 30.987 47.935 31.3736 48.5775C31.7954 49.2913 32.2876 50.1479 32.2876 51.7183C32.2876 53.3244 31.7954 54.1453 31.3736 54.8592C30.987 55.5016 30.7058 56.0013 30.7058 57.1077C30.7058 57.5717 30.3191 58 29.827 58Z" fill="url(#paint2_linear_144_1198)"/>
<path d="M17.454 44.116C16.5752 44.116 15.6965 44.0089 14.8528 43.7948L14.7122 43.7591C7.04941 41.796 3.28829 32.9089 5.74883 22.6297C6.9088 17.5615 11.3026 13.921 16.8564 13.3142C17.3134 13.2428 17.7704 13.5997 17.8055 14.0994C17.8407 14.5991 17.5243 15.0274 17.0322 15.0988C12.2166 15.6342 8.45543 18.7393 7.43606 23.058C5.22157 32.3735 8.45543 40.3327 15.1341 42.0459L15.2747 42.0816C19.317 43.0452 23.6054 41.2607 26.7338 37.2632C27.0501 36.8706 27.5774 36.7992 27.964 37.1205C28.3507 37.4417 28.421 37.9771 28.1046 38.3697C25.1871 42.0816 21.3557 44.116 17.454 44.116Z" fill="url(#paint3_linear_144_1198)"/>
<path d="M16.6453 46.7928C16.575 46.7928 16.5047 46.7928 16.4344 46.7572L11.6539 45.615C11.3727 45.5436 11.1267 45.3295 11.0212 45.044C10.9158 44.7584 10.9861 44.4372 11.1618 44.1874L12.8491 42.0102C13.06 41.7246 13.4115 41.6176 13.763 41.689L16.8562 42.4385C17.2429 42.5456 17.5241 42.9025 17.5241 43.2951V45.8649C17.5241 46.1504 17.3835 46.4002 17.1726 46.5787C17.032 46.7572 16.8211 46.7928 16.6453 46.7928ZM13.4115 44.1874L15.7666 44.7584V44.0089L13.9036 43.5449L13.4115 44.1874Z" fill="url(#paint4_linear_144_1198)"/>
<path d="M7.71716 57.072C7.64686 57.072 7.57656 57.072 7.50626 57.0363C7.0493 56.9292 6.73294 56.4296 6.87355 55.9656C7.22505 54.4308 8.45532 53.9312 9.47469 53.5386C10.3535 53.1816 10.8807 52.9318 11.0213 52.325C11.2322 51.3614 11.2322 51.0045 11.1971 50.5405C11.1619 50.0408 11.1268 49.434 11.4431 48.2562C11.7946 46.7215 12.6734 46.3646 13.2358 46.1504C13.6576 45.972 13.8334 45.9006 13.974 45.2581C14.0794 44.7941 14.5715 44.4729 15.0285 44.6157C15.4855 44.7227 15.8018 45.2224 15.6612 45.6864C15.3097 47.2212 14.4309 47.5781 13.8685 47.7922C13.4467 47.9707 13.271 48.0421 13.1304 48.6845C12.9195 49.6482 12.9195 50.0051 12.9546 50.4691C12.9898 50.9688 13.0249 51.5755 12.7086 52.7533C12.357 54.2881 11.1268 54.7878 10.1074 55.1804C9.22864 55.5373 8.70138 55.7871 8.56078 56.3939C8.49048 56.8222 8.13897 57.072 7.71716 57.072Z" fill="url(#paint5_linear_144_1198)"/>
<path d="M42.7271 38.0127C40.7938 38.0127 38.8956 37.4417 37.2436 36.3352C36.8569 36.0497 36.7163 35.5143 36.9975 35.086C37.2787 34.6934 37.806 34.5864 38.2278 34.8362C39.7041 35.8356 41.3913 36.2995 43.1137 36.2282H43.2543C48.8433 35.8713 52.6044 29.9465 52.2177 22.0943C52.0068 17.9184 48.5269 14.492 43.9573 13.921C43.4652 13.8496 43.1489 13.4213 43.184 12.9216C43.2543 12.4219 43.6761 12.065 44.1682 12.1364C49.5814 12.8145 53.6941 16.9547 53.9753 21.9872C54.4322 30.8387 50.0033 37.5844 43.3598 38.0127H43.2192C43.0434 38.0127 42.8677 38.0127 42.7271 38.0127Z" fill="url(#paint6_linear_144_1198)"/>
<path d="M41.4965 40.297C41.2505 40.297 41.0044 40.1899 40.8287 39.9758C40.6529 39.7616 40.5826 39.4761 40.6529 39.1906L41.1802 36.9777C41.2856 36.5851 41.602 36.2996 41.9886 36.2996L44.6249 36.1568C44.9764 36.1211 45.328 36.3352 45.4686 36.6922L46.3825 38.8337C46.4879 39.1192 46.4879 39.4047 46.3122 39.6546C46.1716 39.9044 45.8904 40.0472 45.6092 40.0829L41.5668 40.297C41.5317 40.297 41.4965 40.297 41.4965 40.297ZM42.6917 38.0484L42.5862 38.441L44.2031 38.334L44.0274 37.9414L42.6917 38.0484Z" fill="url(#paint7_linear_144_1198)"/>
<path d="M45.9256 50.5048C45.4686 50.5048 45.082 50.1479 45.0468 49.6482C44.9765 48.4704 45.3632 47.7922 45.6444 47.2925C45.8904 46.8643 46.0662 46.5787 46.031 45.9363C45.9959 45.2938 45.785 45.0083 45.5038 44.6157C45.1523 44.116 44.6953 43.5093 44.625 42.3314C44.5899 41.7961 44.4844 41.7247 44.1681 41.4748C43.7814 41.1536 43.1487 40.6539 43.0784 39.3333C43.0432 38.8337 43.4299 38.4054 43.922 38.4054C44.379 38.3697 44.8359 38.7623 44.8359 39.262C44.8711 39.7973 44.9765 39.8687 45.2929 40.1186C45.6795 40.4398 46.3123 40.9395 46.3826 42.26C46.4177 42.9025 46.6286 43.188 46.9098 43.5806C47.2613 44.0803 47.7183 44.6871 47.7886 45.8649C47.8589 47.0427 47.4722 47.7208 47.1559 48.2205C46.9098 48.6488 46.7341 48.9344 46.7692 49.5768C46.8044 50.0765 46.4177 50.5048 45.9256 50.5048C45.9607 50.5048 45.9607 50.5048 45.9256 50.5048Z" fill="url(#paint8_linear_144_1198)"/>
<defs>
<linearGradient id="paint0_linear_144_1198" x1="31.083" y1="52.7873" x2="55.7217" y2="39.2542" gradientUnits="userSpaceOnUse">
<stop stop-color="#FC2773"/>
<stop offset="1" stop-color="#E0612B"/>
</linearGradient>
<linearGradient id="paint1_linear_144_1198" x1="30.9014" y1="43.3823" x2="34.2926" y2="39.5641" gradientUnits="userSpaceOnUse">
<stop stop-color="#FC2773"/>
<stop offset="1" stop-color="#E0612B"/>
</linearGradient>
<linearGradient id="paint2_linear_144_1198" x1="30.6683" y1="64.54" x2="34.2199" y2="64.0847" gradientUnits="userSpaceOnUse">
<stop stop-color="#FC2773"/>
<stop offset="1" stop-color="#E0612B"/>
</linearGradient>
<linearGradient id="paint3_linear_144_1198" x1="17.0035" y1="55.34" x2="36.8132" y2="45.0135" gradientUnits="userSpaceOnUse">
<stop stop-color="#FC2773"/>
<stop offset="1" stop-color="#E0612B"/>
</linearGradient>
<linearGradient id="paint4_linear_144_1198" x1="14.3467" y1="48.6599" x2="18.3344" y2="45.1463" gradientUnits="userSpaceOnUse">
<stop stop-color="#FC2773"/>
<stop offset="1" stop-color="#E0612B"/>
</linearGradient>
<linearGradient id="paint5_linear_144_1198" x1="11.401" y1="61.6222" x2="19.1288" y2="57.8463" gradientUnits="userSpaceOnUse">
<stop stop-color="#FC2773"/>
<stop offset="1" stop-color="#E0612B"/>
</linearGradient>
<linearGradient id="paint6_linear_144_1198" x1="45.6875" y1="47.4424" x2="61.0335" y2="40.4318" gradientUnits="userSpaceOnUse">
<stop stop-color="#FC2773"/>
<stop offset="1" stop-color="#E0612B"/>
</linearGradient>
<linearGradient id="paint7_linear_144_1198" x1="43.6281" y1="41.8066" x2="46.8767" y2="38.6577" gradientUnits="userSpaceOnUse">
<stop stop-color="#FC2773"/>
<stop offset="1" stop-color="#E0612B"/>
</linearGradient>
<linearGradient id="paint8_linear_144_1198" x1="45.5078" y1="54.9133" x2="50.2672" y2="53.6337" gradientUnits="userSpaceOnUse">
<stop stop-color="#FC2773"/>
<stop offset="1" stop-color="#E0612B"/>
</linearGradient>
</defs>
</svg>
