<svg width="60" height="60" viewBox="0 0 60 60" fill="none" xmlns="http://www.w3.org/2000/svg">
<path d="M30.5172 60C14.7812 60 2 47.2238 2 31.494C2 15.7642 14.7812 2.98798 30.5172 2.98798C33.0253 2.98798 35.4991 3.29708 37.9042 3.94962C38.3508 4.087 38.6257 4.53348 38.5226 5.01431C38.3852 5.46079 37.9385 5.73554 37.4575 5.63251C35.1899 5.01431 32.8535 4.70521 30.5172 4.70521C15.7432 4.70521 3.7179 16.7258 3.7179 31.494C3.7179 46.2622 15.7432 58.2828 30.5172 58.2828C45.2911 58.2828 57.3165 46.2622 57.3165 31.494C57.3165 28.4717 56.8011 25.4837 55.8047 22.6331C55.6329 22.1866 55.8734 21.7058 56.3201 21.5341C56.7667 21.3623 57.2477 21.6027 57.4195 22.0492C58.4846 25.0716 59 28.2313 59 31.4596C59 47.1895 46.2188 60 30.5172 60Z" fill="url(#paint0_linear_144_1444)"/>
<path d="M9.00878 49.7309C8.97442 49.7309 8.97442 49.7309 8.94006 49.7309C8.45905 49.6966 8.11547 49.2845 8.14983 48.838L8.59648 41.66C8.59648 41.6256 8.59648 41.5913 8.59648 41.5569C8.63084 41.3165 9.86773 35.2719 13.4066 32.1465C16.4988 29.399 16.7393 23.9725 16.5332 22.7704C16.4988 22.53 16.4645 22.324 16.4301 22.1179C16.1896 20.538 15.743 17.8935 13.8876 14.1843C13.0974 12.5701 12.9256 11.0933 13.3722 9.75385C14.0594 7.86489 15.8117 7.04062 15.8804 7.00628C16.327 6.80021 16.8081 7.00628 17.0142 7.45276C17.2204 7.89924 17.0142 8.38006 16.6019 8.58613C16.6019 8.58613 15.4337 9.13564 15.0214 10.3377C14.7122 11.2307 14.8496 12.261 15.4337 13.4287C17.3921 17.3783 17.8388 20.1603 18.1137 21.8431C18.148 22.0492 18.1824 22.2553 18.2167 22.427C18.526 24.1442 18.2167 30.1545 14.5404 33.4173C11.62 35.9931 10.4175 41.2135 10.3144 41.7974L9.86773 48.9067C9.83337 49.3532 9.45543 49.7309 9.00878 49.7309Z" fill="url(#paint1_linear_144_1444)"/>
<path d="M53.3311 47.9451C53.0219 47.9451 52.747 47.7733 52.5752 47.4986C52.1973 46.846 49.002 41.0074 49.002 38.4316C49.002 36.8517 47.6964 34.8254 46.7344 33.3486C46.3908 32.7991 46.0816 32.3183 45.8411 31.9061C45.5318 31.3223 43.2986 30.7384 42.1304 30.4293C40.5843 30.0172 39.7253 29.7768 39.2443 29.3303C38.6602 28.8838 34.7434 28.4717 33.0599 28.4717C32.6132 28.4717 31.2733 28.4717 29.7959 22.8048C29.7271 22.5301 29.7959 22.2553 29.9677 22.0492C30.0707 21.9119 32.4758 18.9582 37.3546 16.7602C37.8013 16.5541 38.2823 16.7602 38.4884 17.1723C38.6946 17.6188 38.4884 18.0996 38.0762 18.3057C34.4686 19.9199 32.304 22.0149 31.5825 22.8048C32.0979 24.6594 32.8194 26.3766 33.1973 26.7544C34.125 26.7888 39.313 26.9605 40.4469 28.0939C40.6874 28.2656 41.7525 28.5404 42.5771 28.7464C44.6042 29.2616 46.7344 29.8111 47.3872 31.0819C47.559 31.4253 47.8682 31.8718 48.2118 32.4213C49.2769 34.0698 50.7543 36.3709 50.7543 38.4316C50.7543 40.2519 53.1593 44.9914 54.1214 46.6743C54.3619 47.0864 54.1901 47.6016 53.7778 47.842C53.6403 47.9107 53.4686 47.9451 53.3311 47.9451Z" fill="url(#paint2_linear_144_1444)"/>
<path d="M32.1665 59.3474C31.6855 59.3474 31.3076 58.9697 31.3076 58.4888V55.9473C30.3799 53.3715 29.1086 50.3835 28.662 49.937C27.8374 49.3875 27.0128 47.2581 25.6385 43.2742L25.5011 42.9307C24.7108 40.561 26.841 37.4699 27.0815 37.1265C27.1159 37.0578 27.1846 37.0235 27.219 36.9548L31.5824 33.2799C31.7199 33.1425 31.926 33.0738 32.1322 33.0738H38.0761C38.5915 32.9708 40.4468 32.6617 41.6837 33.6233C42.1647 34.0011 42.7144 34.688 42.7144 35.9931C42.7144 37.6417 43.2642 40.0801 43.6765 41.866C44.1575 44.0984 44.2949 44.5449 43.8482 44.9914C43.7795 45.0601 43.7108 45.1288 43.6077 45.1975C43.0237 45.644 42.5426 46.1248 42.9893 47.3268C43.8139 49.5249 44.9821 55.0887 45.0508 55.3291C45.1539 55.7756 44.8446 56.2564 44.398 56.3595C43.917 56.4625 43.4703 56.1534 43.3672 55.7069C43.3672 55.6382 42.1647 50.0401 41.3745 47.9794C40.5155 45.747 41.7868 44.5106 42.4052 44.0298C42.3365 43.6176 42.1991 42.9307 42.0273 42.3125C41.615 40.4579 41.0309 37.9164 41.0309 36.0618C41.0309 35.3406 40.756 35.1345 40.653 35.0315C40.1032 34.585 38.9007 34.688 38.3853 34.8254C38.3166 34.8254 38.2479 34.8597 38.1792 34.8597H32.4757L28.4558 38.2255C27.9405 39.0154 26.7379 41.1448 27.1502 42.3812L27.2877 42.7247C27.7343 44.0298 29.1086 48.0481 29.6927 48.5632C30.5517 49.1128 31.9604 52.6502 32.9911 55.5008C33.0255 55.6039 33.0255 55.7069 33.0255 55.7756V58.4888C33.0255 58.9697 32.6475 59.3474 32.1665 59.3474Z" fill="url(#paint3_linear_144_1444)"/>
<path d="M35.1899 12.2954C34.9494 12.2954 34.7433 12.261 34.5371 12.1923C33.1628 11.7802 28.9711 12.0893 27.4937 12.2267C27.2532 12.261 27.047 12.1923 26.8409 12.0206L20.1067 6.3194C19.7288 6.0103 19.6944 5.46079 20.0036 5.11734C20.3129 4.73955 20.8626 4.70521 21.2062 5.01431L27.6999 10.4751C29.0398 10.3721 33.3346 10.0286 35.0525 10.5438C35.1555 10.5781 35.5678 10.6468 36.5642 10.2003C37.0109 9.99427 37.4919 10.2003 37.698 10.6468C37.9042 11.0933 37.698 11.5741 37.2514 11.7802C36.4268 12.1236 35.774 12.2954 35.1899 12.2954Z" fill="url(#paint4_linear_144_1444)"/>
<path d="M48.658 29.1586C48.4518 29.1586 48.2457 29.0899 48.0739 28.9181C47.696 28.5747 39.1064 20.3663 39.1064 10.4408C39.1064 5.3921 41.6146 0 48.658 0C55.7014 0 58.2095 5.3921 58.2095 10.4408C58.2095 20.3663 49.62 28.5747 49.2421 28.9181C49.0703 29.0555 48.8641 29.1586 48.658 29.1586ZM48.658 1.71723C41.5802 1.71723 40.8243 7.79622 40.8243 10.4408C40.8243 18.1683 46.7339 25.0716 48.658 27.0979C50.582 25.0716 56.4916 18.1683 56.4916 10.4408C56.4916 7.79622 55.7357 1.71723 48.658 1.71723Z" fill="url(#paint5_linear_144_1444)"/>
<path d="M48.658 16.2793C45.3596 16.2793 42.6797 13.6005 42.6797 10.3034C42.6797 7.0063 45.3596 4.32742 48.658 4.32742C51.9564 4.32742 54.6363 7.0063 54.6363 10.3034C54.6363 13.6005 51.9564 16.2793 48.658 16.2793ZM48.658 6.04465C46.3216 6.04465 44.3976 7.96795 44.3976 10.3034C44.3976 12.6388 46.3216 14.5621 48.658 14.5621C50.9943 14.5621 52.9184 12.6388 52.9184 10.3034C52.9184 7.96795 50.9943 6.04465 48.658 6.04465Z" fill="url(#paint6_linear_144_1444)"/>
<defs>
<linearGradient id="paint0_linear_144_1444" x1="31.3599" y1="80.7687" x2="73.1417" y2="51.9784" gradientUnits="userSpaceOnUse">
<stop stop-color="#FC2773"/>
<stop offset="1" stop-color="#E0612B"/>
</linearGradient>
<linearGradient id="paint1_linear_144_1444" x1="13.3808" y1="65.3242" x2="24.0781" y2="63.5742" gradientUnits="userSpaceOnUse">
<stop stop-color="#FC2773"/>
<stop offset="1" stop-color="#E0612B"/>
</linearGradient>
<linearGradient id="paint2_linear_144_1444" x1="42.3694" y1="59.3347" x2="62.8569" y2="48.2874" gradientUnits="userSpaceOnUse">
<stop stop-color="#FC2773"/>
<stop offset="1" stop-color="#E0612B"/>
</linearGradient>
<linearGradient id="paint3_linear_144_1444" x1="35.4963" y1="68.9659" x2="52.3614" y2="60.2738" gradientUnits="userSpaceOnUse">
<stop stop-color="#FC2773"/>
<stop offset="1" stop-color="#E0612B"/>
</linearGradient>
<linearGradient id="paint4_linear_144_1444" x1="29.0579" y1="15.0238" x2="34.2581" y2="6.41823" gradientUnits="userSpaceOnUse">
<stop stop-color="#FC2773"/>
<stop offset="1" stop-color="#E0612B"/>
</linearGradient>
<linearGradient id="paint5_linear_144_1444" x1="48.9462" y1="39.7806" x2="66.1003" y2="32.035" gradientUnits="userSpaceOnUse">
<stop stop-color="#FC2773"/>
<stop offset="1" stop-color="#E0612B"/>
</linearGradient>
<linearGradient id="paint6_linear_144_1444" x1="48.8384" y1="20.6333" x2="57.5993" y2="14.5928" gradientUnits="userSpaceOnUse">
<stop stop-color="#FC2773"/>
<stop offset="1" stop-color="#E0612B"/>
</linearGradient>
</defs>
</svg>
