<svg width="60" height="60" viewBox="0 0 60 60" fill="none" xmlns="http://www.w3.org/2000/svg">
<path d="M30.4269 38.2548C28.6258 38.2548 26.8248 37.5874 25.0869 36.2844C20.1577 32.5344 17.0928 24.6213 17.0928 19.4412V19.187C17.0928 18.742 17.4403 18.4242 17.8827 18.4242H17.9143C18.3567 18.4242 18.7042 18.8056 18.6726 19.2505V19.4412C18.6726 24.2717 21.6428 31.6764 26.0348 35.0132C28.8786 37.1743 31.7856 37.206 34.6293 35.1404L34.6609 35.1086C39.1478 31.8035 42.1495 24.3353 42.1495 19.4412V19.2505C42.1495 18.8056 42.4655 18.456 42.9079 18.4242C43.3502 18.3925 43.6978 18.742 43.7294 19.187V19.4412C43.7294 24.6848 40.6329 32.6298 35.6405 36.348L35.6089 36.3798C33.9342 37.6509 32.1963 38.2548 30.4269 38.2548Z" fill="url(#paint0_linear_144_1226)"/>
<path d="M56.2101 59.992H3.78994C3.34757 59.992 3 59.6106 3 59.1975V47.5344C3 47.1848 3.25278 46.867 3.56875 46.7717L24.8022 40.8924V35.617C24.8022 35.1721 25.1498 34.8225 25.5922 34.8225C26.0345 34.8225 26.3821 35.1721 26.3821 35.617L26.4137 41.4962C26.4137 41.8458 26.1925 42.1636 25.8449 42.259L4.57987 48.1382V58.403H55.4201V48.0746L34.9766 42.0683C34.629 41.9729 34.4078 41.6551 34.4078 41.3056L34.3762 35.7759C34.3762 35.331 34.7238 34.9814 35.1662 34.9814C35.6085 34.9814 35.9561 35.331 35.9561 35.7759L35.9877 40.7335L56.4312 46.7399C56.7788 46.8352 57 47.153 57 47.5026V59.2293C57 59.6106 56.6524 59.992 56.2101 59.992Z" fill="url(#paint1_linear_144_1226)"/>
<path d="M30.4268 12.3226C30.3636 12.3226 30.2688 12.3226 30.2056 12.2908L11.2471 6.92002C10.9311 6.82468 10.71 6.50689 10.71 6.15731C10.71 5.80773 10.9311 5.48994 11.2787 5.3946L30.2372 0.0238347C30.3636 -0.00794492 30.49 -0.00794492 30.6479 0.0238347L49.6064 5.3946C49.954 5.48994 50.1751 5.80773 50.1751 6.15731C50.1751 6.50689 49.954 6.82468 49.6064 6.92002L30.6479 12.2908C30.5847 12.3226 30.49 12.3226 30.4268 12.3226ZM14.3753 6.15731L30.4268 10.7018L46.4782 6.15731L30.4268 1.61282L14.3753 6.15731Z" fill="url(#paint2_linear_144_1226)"/>
<path d="M42.9707 20.0133H17.914C17.4716 20.0133 17.124 19.6637 17.124 19.2188V8.00055C17.124 7.55563 17.4716 7.20605 17.914 7.20605C18.3563 7.20605 18.7039 7.55563 18.7039 8.00055V18.4561H42.1808V8.00055C42.1808 7.55563 42.5284 7.20605 42.9707 7.20605C43.4131 7.20605 43.7607 7.55563 43.7607 8.00055V19.2505C43.7607 19.6637 43.3815 20.0133 42.9707 20.0133Z" fill="url(#paint3_linear_144_1226)"/>
<path d="M49.3847 13.4984C48.9423 13.4984 48.5947 13.1488 48.5947 12.7039V6.15728C48.5947 5.71237 48.9423 5.36279 49.3847 5.36279C49.827 5.36279 50.1746 5.71237 50.1746 6.15728V12.7039C50.1746 13.1488 49.7954 13.4984 49.3847 13.4984Z" fill="url(#paint4_linear_144_1226)"/>
<path d="M50.3333 20.0132H48.3427C47.9003 20.0132 47.5527 19.6637 47.5527 19.2187V12.7039C47.5527 12.259 47.9003 11.9094 48.3427 11.9094H50.3333C50.7757 11.9094 51.1232 12.259 51.1232 12.7039V19.2187C51.1232 19.6637 50.7757 20.0132 50.3333 20.0132ZM49.1326 18.4243H49.5434V13.4984H49.1326V18.4243Z" fill="url(#paint5_linear_144_1226)"/>
<defs>
<linearGradient id="paint0_linear_144_1226" x1="30.8129" y1="45.4795" x2="46.3208" y2="31.1245" gradientUnits="userSpaceOnUse">
<stop stop-color="#FC2773"/>
<stop offset="1" stop-color="#E0612B"/>
</linearGradient>
<linearGradient id="paint1_linear_144_1226" x1="30.8147" y1="69.1609" x2="49.1351" y2="42.0712" gradientUnits="userSpaceOnUse">
<stop stop-color="#FC2773"/>
<stop offset="1" stop-color="#E0612B"/>
</linearGradient>
<linearGradient id="paint2_linear_144_1226" x1="31.0379" y1="16.8115" x2="38.3034" y2="0.774497" gradientUnits="userSpaceOnUse">
<stop stop-color="#FC2773"/>
<stop offset="1" stop-color="#E0612B"/>
</linearGradient>
<linearGradient id="paint3_linear_144_1226" x1="30.8442" y1="24.6787" x2="40.2708" y2="11.1664" gradientUnits="userSpaceOnUse">
<stop stop-color="#FC2773"/>
<stop offset="1" stop-color="#E0612B"/>
</linearGradient>
<linearGradient id="paint4_linear_144_1226" x1="49.4085" y1="16.4621" x2="51.0864" y2="16.2375" gradientUnits="userSpaceOnUse">
<stop stop-color="#FC2773"/>
<stop offset="1" stop-color="#E0612B"/>
</linearGradient>
<linearGradient id="paint5_linear_144_1226" x1="49.3919" y1="22.9653" x2="52.9259" y2="21.8922" gradientUnits="userSpaceOnUse">
<stop stop-color="#FC2773"/>
<stop offset="1" stop-color="#E0612B"/>
</linearGradient>
</defs>
</svg>
