<svg width="60" height="60" viewBox="0 0 60 60" fill="none" xmlns="http://www.w3.org/2000/svg">
<g clip-path="url(#clip0_144_1142)">
<path d="M22.8998 60.0381C22.5061 60.0381 22.178 59.775 22.0795 59.3473L20.6359 51.3539L18.8642 44.9394C17.191 43.5907 7.11851 35.0052 6.06861 22.4394C5.18276 11.6829 12.9586 2.37364 24.5731 0.334169C35.6298 -1.60662 46.0959 5.10391 47.9005 15.3342C47.9989 15.8276 48.0317 16.8473 48.0973 17.9329L48.1301 18.525C48.5566 21.1236 49.869 22.7026 53.7733 26.8473C54.0358 27.1434 54.0686 27.571 53.8389 27.9L51.083 31.6171L51.2142 34.1828C51.2142 34.3473 51.1814 34.5118 51.083 34.6434L49.9674 36.4855L50.6564 37.275C50.7877 37.4065 50.8533 37.6039 50.8533 37.8013L50.9517 44.3144C50.9517 44.7092 50.6892 45.0381 50.2955 45.1368L42.6182 46.7486C40.4527 47.5381 40.1903 50.2355 40.1903 50.6631L41.1417 58.821C41.2074 59.2815 40.8793 59.6763 40.4199 59.7421C39.9606 59.8078 39.5669 59.4789 39.5013 59.0184L38.5498 50.7947C38.5498 50.7618 38.5498 50.7289 38.5498 50.6631C38.5498 50.4986 38.7139 46.3868 42.126 45.1697C42.1588 45.1697 42.1916 45.1368 42.2244 45.1368L49.2784 43.6565L49.18 38.1302L48.2942 37.1105C48.0645 36.8473 48.0317 36.4526 48.1957 36.1236L49.5081 33.9855L49.3769 31.3868C49.3769 31.1894 49.4097 31.025 49.5409 30.8605L52.0672 27.4723C48.2942 23.4921 46.9162 21.7157 46.4568 18.7223L46.424 18.0315C46.3912 17.275 46.3256 16.0579 46.26 15.6302C44.6195 6.28812 35.0064 0.169695 24.8355 1.97891C13.91 3.91969 6.85603 12.275 7.70907 22.3407C8.75897 35.0381 19.9797 43.7552 20.0782 43.821C20.2094 43.9197 20.3078 44.0842 20.3735 44.2486L22.2436 50.9921L23.6872 59.0513C23.7528 59.5118 23.4575 59.9394 23.031 60.0052C22.9982 60.0381 22.9654 60.0381 22.8998 60.0381Z" fill="url(#paint0_linear_144_1142)"/>
<path d="M18.6677 28.1302C18.2084 28.1302 17.7491 28.0315 17.3226 27.8342C16.5679 27.4723 15.9774 26.8473 15.7149 26.0579L15.354 25.071C15.2884 24.8736 15.2228 24.6434 15.2228 24.4131C13.4182 23.4921 12.0403 21.9131 11.3513 20.0052C9.87484 15.8605 12.1059 11.2881 16.3055 9.77496C17.3882 9.41312 18.4709 9.24865 19.5864 9.31443C20.6035 7.83417 22.0799 6.68286 23.8188 6.09075C27.0341 4.93943 30.6103 5.7947 32.907 8.22891C36.0567 7.27496 39.4032 8.95259 40.5187 12.0118C40.7156 12.6039 40.8468 13.196 40.8796 13.821C41.5358 14.1829 42.0608 14.775 42.3232 15.4986L42.6513 16.4855C42.9138 17.275 42.881 18.1302 42.5201 18.8868C42.1592 19.6434 41.5358 20.2026 40.7484 20.4986L34.8427 22.571C34.4162 22.7355 33.9569 22.5052 33.7928 22.0776C33.6288 21.65 33.8913 21.1894 34.3178 21.025L40.1906 18.9197C40.5843 18.7881 40.8796 18.525 41.0437 18.1631C41.2077 17.8013 41.2405 17.4065 41.1093 17.0447L40.7484 16.0579C40.5843 15.6302 40.2234 15.3013 39.7969 15.1368C39.436 15.0381 39.2064 14.6763 39.2064 14.3144C39.2392 13.7223 39.1735 13.1302 38.9439 12.571C38.1236 10.2355 35.5317 9.01838 33.1366 9.87365L32.9398 9.93944C32.6117 10.071 32.2508 9.97233 32.0211 9.70917C30.1838 7.47233 27.0997 6.64996 24.3437 7.6368C22.8345 8.19601 21.5221 9.24865 20.7019 10.6302C20.5379 10.8934 20.2098 11.0579 19.8817 10.9921C18.8646 10.8605 17.8475 10.9592 16.8632 11.321C13.5167 12.5381 11.745 16.1894 12.8933 19.4789C13.4839 21.1236 14.6978 22.4394 16.3383 23.1302C16.6664 23.2618 16.8632 23.5908 16.8304 23.9526C16.8304 24.15 16.8304 24.3473 16.896 24.5447L17.2569 25.5315C17.3882 25.8934 17.6506 26.1894 18.0116 26.3539C18.3725 26.5184 18.799 26.5513 19.1927 26.4197L24.8359 24.4131C25.2624 24.2486 25.7217 24.4789 25.8858 24.9065C26.017 25.3342 25.7874 25.7947 25.3608 25.9592L19.7176 27.9657C19.3895 28.0973 19.0286 28.1302 18.6677 28.1302Z" fill="url(#paint1_linear_144_1142)"/>
<path d="M31.5285 42.2421C31.4957 42.2421 31.4957 42.2421 31.5285 42.2421C31.102 42.2421 30.7739 41.9131 30.7083 41.5184L29.3631 29.446L26.4759 31.1894C26.2462 31.3539 25.951 31.3539 25.6885 31.2552C25.4588 31.1236 25.2948 30.9263 25.2292 30.6302L22.7028 16.3539C22.6372 16.0249 22.8013 15.696 23.0965 15.4986L27.9851 12.5381C28.2148 12.4065 28.5101 12.3736 28.7726 12.5052C29.0022 12.6039 29.1663 12.8671 29.1991 13.1302L30.3146 21.8802L34.3829 19.3802C34.6454 19.2157 35.0063 19.2157 35.2688 19.4131C35.5313 19.5776 35.6625 19.9065 35.6297 20.2355L32.316 41.5513C32.2503 41.946 31.9223 42.2421 31.5285 42.2421ZM30.0193 27.2421C30.1505 27.2421 30.2818 27.2749 30.3802 27.3407C30.6427 27.4723 30.8067 27.7026 30.8395 27.9986L31.6598 35.2355L33.7596 21.7157L30.1177 23.9197C29.8881 24.0842 29.5928 24.0842 29.3303 23.9855C29.0678 23.8539 28.9038 23.6236 28.871 23.3276L27.7555 14.5776L24.4089 16.6171L26.64 29.15L29.6256 27.3407C29.724 27.2749 29.8881 27.2421 30.0193 27.2421Z" fill="url(#paint2_linear_144_1142)"/>
</g>
<defs>
<linearGradient id="paint0_linear_144_1142" x1="30.7203" y1="81.9092" x2="70.522" y2="59.9812" gradientUnits="userSpaceOnUse">
<stop stop-color="#FC2773"/>
<stop offset="1" stop-color="#E0612B"/>
</linearGradient>
<linearGradient id="paint1_linear_144_1142" x1="27.3412" y1="36.3432" x2="45.0178" y2="19.0904" gradientUnits="userSpaceOnUse">
<stop stop-color="#FC2773"/>
<stop offset="1" stop-color="#E0612B"/>
</linearGradient>
<linearGradient id="paint2_linear_144_1142" x1="29.3569" y1="53.1053" x2="42.2024" y2="49.2618" gradientUnits="userSpaceOnUse">
<stop stop-color="#FC2773"/>
<stop offset="1" stop-color="#E0612B"/>
</linearGradient>
<clipPath id="clip0_144_1142">
<rect width="60" height="60" fill="white"/>
</clipPath>
</defs>
</svg>
