<svg width="60" height="60" viewBox="0 0 60 60" fill="none" xmlns="http://www.w3.org/2000/svg">
<path d="M32.1165 59C31.6571 59 31.2331 58.9293 30.7737 58.7878L10.7371 52.1391C10.0657 51.9269 9.28823 51.9622 8.65215 52.2805L2.25599 55.4281C1.83194 55.6403 1.30187 55.4634 1.08984 55.0391C0.877816 54.6147 1.05451 54.0842 1.47856 53.872L7.87472 50.7244C8.93485 50.1939 10.1717 50.0878 11.3025 50.4769L31.3391 57.1256C31.7985 57.2671 32.2932 57.3025 32.7879 57.161L33.7421 56.8781C34.3075 56.7366 34.8375 56.4537 35.3323 56.1L55.5455 41.0695C56.0756 40.6805 56.323 39.9732 56.1816 39.3366L55.9696 38.5586C55.8282 38.0634 55.3688 37.6744 54.8741 37.6744C54.7681 37.6744 54.6974 37.7098 54.5914 37.7452L35.4736 49.5927C35.1909 49.7695 34.8729 49.7695 34.5902 49.6281L27.6993 45.8439C27.2752 45.5964 27.0985 45.0659 27.3459 44.6415C27.5933 44.2171 28.1233 44.0403 28.5474 44.2878L35.0142 47.8244L53.708 36.2598C54.0613 36.0476 54.4854 35.9061 54.9094 35.9061C56.2523 35.9061 57.4184 36.8256 57.7365 38.0988L57.9485 38.8769C58.2665 40.2208 57.7718 41.6354 56.6763 42.4842L36.4631 57.5147C35.827 58.0098 35.0849 58.3634 34.3075 58.5756L33.3533 58.8232C32.8939 58.9293 32.5052 59 32.1165 59Z" fill="url(#paint0_linear_144_1086)"/>
<path d="M28.1236 45.9147L23.4236 45.7379C22.9289 45.7379 22.5402 45.3135 22.5755 44.8183C22.5755 44.3232 23.0349 43.9342 23.4943 43.9696L28.1236 44.1464L39.5731 43.9342C40.2091 43.9342 40.7039 43.4391 40.7745 42.8025L40.8806 41.6C40.9159 41.0696 40.5625 40.6098 40.0325 40.5391L17.9463 37.7805C17.5222 37.7098 17.0628 37.7805 16.6741 37.922L3.81112 42.3074C3.35173 42.4488 2.857 42.2013 2.68031 41.7415C2.53896 41.2818 2.78632 40.7866 3.24572 40.6098L16.1087 36.2244C16.7448 36.0122 17.4515 35.9415 18.1583 36.0122L40.2798 38.8061C41.764 38.983 42.7888 40.2915 42.6828 41.7769L42.5768 42.9793C42.4354 44.5 41.1986 45.7025 39.6437 45.7025L28.1236 45.9147Z" fill="url(#paint1_linear_144_1086)"/>
<path d="M39.2195 40.4683C38.8661 40.4683 38.5481 40.2561 38.4067 39.9024C38.23 39.4427 38.4421 38.9476 38.9015 38.7707L47.4886 35.3756C48.16 35.1281 48.9021 35.1281 49.5382 35.3756C50.9517 35.8707 51.9058 37.2146 51.9058 38.7V38.9829C51.9058 39.478 51.5171 39.8671 51.0224 39.8671C50.5276 39.8671 50.1389 39.478 50.1389 38.9829V38.7C50.1389 37.9573 49.6795 37.2854 48.9728 37.0378C48.6901 36.9317 48.4074 36.9317 48.1247 37.0378L39.5729 40.4329C39.4669 40.4329 39.3609 40.4683 39.2195 40.4683Z" fill="url(#paint2_linear_144_1086)"/>
<path d="M27.0279 16.8085C25.2963 16.8085 23.8828 15.3939 23.8828 13.661C23.8828 11.9281 25.2963 10.5134 27.0279 10.5134H30.3143C32.0459 10.5134 33.4594 11.9281 33.4594 13.661C33.4594 14.1561 33.0707 14.5451 32.5759 14.5451C32.0812 14.5451 31.6925 14.1561 31.6925 13.661C31.6925 12.8829 31.0564 12.2817 30.3143 12.2817H27.0279C26.2505 12.2817 25.6497 12.9183 25.6497 13.661C25.6497 14.439 26.2858 15.0403 27.0279 15.0403C27.5226 15.0403 27.9113 15.4293 27.9113 15.9244C27.9113 16.4195 27.4873 16.8085 27.0279 16.8085Z" fill="url(#paint3_linear_144_1086)"/>
<path d="M30.3143 21.3354H27.0279C25.2963 21.3354 23.8828 19.9208 23.8828 18.1878C23.8828 17.6927 24.2715 17.3037 24.7663 17.3037C25.261 17.3037 25.6497 17.6927 25.6497 18.1878C25.6497 18.9659 26.2858 19.5671 27.0279 19.5671H30.3143C31.0917 19.5671 31.6925 18.9305 31.6925 18.1878C31.6925 17.4098 31.0564 16.8086 30.3143 16.8086H27.0279C26.5332 16.8086 26.1444 16.4196 26.1444 15.9244C26.1444 15.4293 26.5332 15.0403 27.0279 15.0403H30.3143C32.0459 15.0403 33.4594 16.4549 33.4594 18.1878C33.4594 19.9208 32.0459 21.3354 30.3143 21.3354Z" fill="url(#paint4_linear_144_1086)"/>
<path d="M28.653 12.2463C28.1582 12.2463 27.7695 11.8573 27.7695 11.3622V9.24023C27.7695 8.7451 28.1582 8.35608 28.653 8.35608C29.1477 8.35608 29.5364 8.78047 29.5364 9.24023V11.3622C29.5364 11.8573 29.1477 12.2463 28.653 12.2463Z" fill="url(#paint5_linear_144_1086)"/>
<path d="M28.653 23.4573C28.1582 23.4573 27.7695 23.0682 27.7695 22.5731V20.4512C27.7695 19.956 28.1582 19.567 28.653 19.567C29.1477 19.567 29.5364 19.956 29.5364 20.4512V22.5731C29.5364 23.0682 29.1477 23.4573 28.653 23.4573Z" fill="url(#paint6_linear_144_1086)"/>
<path d="M28.6538 30.8488C20.4201 30.8488 13.7412 24.1646 13.7412 15.9244C13.7412 7.68415 20.4554 1 28.6538 1C36.8522 1 43.5664 7.68415 43.5664 15.9244C43.5664 24.1646 36.8875 30.8488 28.6538 30.8488ZM28.6538 2.76829C21.4095 2.76829 15.5081 8.67439 15.5081 15.9244C15.5081 23.1744 21.4095 29.0805 28.6538 29.0805C35.8981 29.0805 41.7995 23.1744 41.7995 15.9244C41.7995 8.67439 35.8981 2.76829 28.6538 2.76829Z" fill="url(#paint7_linear_144_1086)"/>
<defs>
<linearGradient id="paint0_linear_144_1086" x1="30.3823" y1="67.4128" x2="46.202" y2="40.4816" gradientUnits="userSpaceOnUse">
<stop stop-color="#FC2773"/>
<stop offset="1" stop-color="#E0612B"/>
</linearGradient>
<linearGradient id="paint1_linear_144_1086" x1="23.2697" y1="49.5317" x2="28.23" y2="35.7419" gradientUnits="userSpaceOnUse">
<stop stop-color="#FC2773"/>
<stop offset="1" stop-color="#E0612B"/>
</linearGradient>
<linearGradient id="paint2_linear_144_1086" x1="45.3299" y1="42.3911" x2="48.8749" y2="36.1138" gradientUnits="userSpaceOnUse">
<stop stop-color="#FC2773"/>
<stop offset="1" stop-color="#E0612B"/>
</linearGradient>
<linearGradient id="paint3_linear_144_1086" x1="28.8156" y1="19.1018" x2="33.7471" y2="13.9312" gradientUnits="userSpaceOnUse">
<stop stop-color="#FC2773"/>
<stop offset="1" stop-color="#E0612B"/>
</linearGradient>
<linearGradient id="paint4_linear_144_1086" x1="28.8156" y1="23.6286" x2="33.7471" y2="18.458" gradientUnits="userSpaceOnUse">
<stop stop-color="#FC2773"/>
<stop offset="1" stop-color="#E0612B"/>
</linearGradient>
<linearGradient id="paint5_linear_144_1086" x1="28.6796" y1="13.6635" x2="30.4193" y2="13.1189" gradientUnits="userSpaceOnUse">
<stop stop-color="#FC2773"/>
<stop offset="1" stop-color="#E0612B"/>
</linearGradient>
<linearGradient id="paint6_linear_144_1086" x1="28.6796" y1="24.8744" x2="30.4193" y2="24.3299" gradientUnits="userSpaceOnUse">
<stop stop-color="#FC2773"/>
<stop offset="1" stop-color="#E0612B"/>
</linearGradient>
<linearGradient id="paint7_linear_144_1086" x1="29.1037" y1="41.7223" x2="50.9742" y2="26.6609" gradientUnits="userSpaceOnUse">
<stop stop-color="#FC2773"/>
<stop offset="1" stop-color="#E0612B"/>
</linearGradient>
</defs>
</svg>
