<svg width="60" height="60" viewBox="0 0 60 60" fill="none" xmlns="http://www.w3.org/2000/svg">
<path d="M48.8746 44.5034H33.113C32.6494 44.5034 32.2852 44.1392 32.2852 43.6756C32.2852 43.212 32.6494 42.8478 33.113 42.8478H48.8746C49.3381 42.8478 49.7024 43.212 49.7024 43.6756C49.7024 44.1392 49.3381 44.5034 48.8746 44.5034Z" fill="url(#paint0_linear_144_1245)"/>
<path d="M30.0003 44.5034H11.2917C10.8281 44.5034 10.4639 44.1392 10.4639 43.6756C10.4639 43.212 10.8281 42.8478 11.2917 42.8478H30.0003C30.4639 42.8478 30.8281 43.212 30.8281 43.6756C30.8281 44.1392 30.4639 44.5034 30.0003 44.5034Z" fill="url(#paint1_linear_144_1245)"/>
<path d="M19.2057 27.6822C18.7421 27.6822 18.3779 27.3179 18.3779 26.8544V24.5365H12.517V26.8544C12.517 27.3179 12.1527 27.6822 11.6891 27.6822C11.2256 27.6822 10.8613 27.3179 10.8613 26.8544V23.7087C10.8613 23.2451 11.2256 22.8809 11.6891 22.8809H19.2057C19.6693 22.8809 20.0335 23.2451 20.0335 23.7087V26.8544C20.0335 27.3179 19.6693 27.6822 19.2057 27.6822Z" fill="url(#paint2_linear_144_1245)"/>
<path d="M19.2057 40.9603H11.6891C11.2256 40.9603 10.8613 40.5961 10.8613 40.1325V30.0001C10.8613 29.5365 11.2256 29.1722 11.6891 29.1722C12.1527 29.1722 12.517 29.5365 12.517 30.0001V39.3047H18.3779V30.0001C18.3779 29.5365 18.7421 29.1722 19.2057 29.1722C19.6693 29.1722 20.0335 29.5365 20.0335 30.0001V40.1325C20.0335 40.5961 19.6693 40.9603 19.2057 40.9603Z" fill="url(#paint3_linear_144_1245)"/>
<path d="M21.4577 27.6822C20.9941 27.6822 20.6299 27.3179 20.6299 26.8544V19.8676C20.6299 19.404 20.9941 19.0398 21.4577 19.0398H27.1862C27.6498 19.0398 28.014 19.404 28.014 19.8676C28.014 20.3312 27.6498 20.6954 27.1862 20.6954H22.2855V26.8544C22.2855 27.3179 21.8882 27.6822 21.4577 27.6822Z" fill="url(#paint4_linear_144_1245)"/>
<path d="M27.0868 40.9603H21.4577C20.9941 40.9603 20.6299 40.5961 20.6299 40.1325V30.0001C20.6299 29.5365 20.9941 29.1722 21.4577 29.1722C21.9213 29.1722 22.2855 29.5365 22.2855 30.0001V39.3047H27.1199C27.5835 39.3047 27.9478 39.6689 27.9478 40.1325C27.9146 40.5961 27.5504 40.9603 27.0868 40.9603Z" fill="url(#paint5_linear_144_1245)"/>
<path d="M38.7086 27.2186C38.2451 27.2186 37.8808 26.8544 37.8808 26.3908V23.9073H31.1921C30.7285 23.9073 30.3643 23.5431 30.3643 23.0795C30.3643 22.6159 30.7285 22.2517 31.1921 22.2517H38.7086C39.1722 22.2517 39.5364 22.6159 39.5364 23.0795V26.3908C39.5364 26.8544 39.1722 27.2186 38.7086 27.2186Z" fill="url(#paint6_linear_144_1245)"/>
<path d="M38.709 40.9603H33.113C32.6494 40.9603 32.2852 40.5961 32.2852 40.1325C32.2852 39.6689 32.6494 39.3047 33.113 39.3047H37.8812V30.0001C37.8812 29.5365 38.2454 29.1722 38.709 29.1722C39.1726 29.1722 39.5368 29.5365 39.5368 30.0001V40.1325C39.5368 40.5961 39.1726 40.9603 38.709 40.9603Z" fill="url(#paint7_linear_144_1245)"/>
<path d="M48.4772 27.2186C48.0136 27.2186 47.6494 26.8543 47.6494 26.3908V17.2517H41.7884V26.3908C41.7884 26.8543 41.4242 27.2186 40.9606 27.2186C40.4971 27.2186 40.1328 26.8543 40.1328 26.3908V16.4239C40.1328 15.9603 40.4971 15.5961 40.9606 15.5961H48.4772C48.9408 15.5961 49.305 15.9603 49.305 16.4239V26.3908C49.305 26.8543 48.9408 27.2186 48.4772 27.2186Z" fill="url(#paint8_linear_144_1245)"/>
<path d="M48.4772 40.9603H40.9606C40.4971 40.9603 40.1328 40.5961 40.1328 40.1325V30.0001C40.1328 29.5365 40.4971 29.1722 40.9606 29.1722C41.4242 29.1722 41.7884 29.5365 41.7884 30.0001V39.3047H47.6494V30.0001C47.6494 29.5365 48.0136 29.1722 48.4772 29.1722C48.9408 29.1722 49.305 29.5365 49.305 30.0001V40.1325C49.305 40.5961 48.9408 40.9603 48.4772 40.9603Z" fill="url(#paint9_linear_144_1245)"/>
<path d="M29.9997 34.404C27.5825 34.404 25.5957 32.4173 25.5957 30C25.5957 27.5828 27.5825 25.5961 29.9997 25.5961C32.4169 25.5961 34.4037 27.5828 34.4037 30C34.4037 32.4173 32.4169 34.404 29.9997 34.404ZM29.9997 27.2517C28.4765 27.2517 27.2513 28.4769 27.2513 30C27.2513 31.5232 28.4765 32.7484 29.9997 32.7484C31.5229 32.7484 32.748 31.5232 32.748 30C32.748 28.4769 31.5229 27.2517 29.9997 27.2517Z" fill="url(#paint10_linear_144_1245)"/>
<path d="M29.9997 34.404C27.5825 34.404 25.5957 32.4173 25.5957 30C25.5957 27.5828 27.5825 25.5961 29.9997 25.5961C32.4169 25.5961 34.4037 27.5828 34.4037 30C34.4037 32.4173 32.4169 34.404 29.9997 34.404ZM29.9997 27.2517C28.4765 27.2517 27.2513 28.4769 27.2513 30C27.2513 31.5232 28.4765 32.7484 29.9997 32.7484C31.5229 32.7484 32.748 31.5232 32.748 30C32.748 28.4769 31.5229 27.2517 29.9997 27.2517Z" fill="url(#paint11_linear_144_1245)"/>
<path d="M29.9998 55.7947C15.7614 55.7947 4.20508 44.2053 4.20508 30C4.20508 15.7616 15.7945 4.20532 29.9998 4.20532C44.2382 4.20532 55.7945 15.7947 55.7945 30C55.7945 44.2384 44.2382 55.7947 29.9998 55.7947ZM29.9998 5.86095C16.6885 5.86095 5.86071 16.6888 5.86071 30C5.86071 43.3113 16.6885 54.1391 29.9998 54.1391C43.311 54.1391 54.1389 43.3113 54.1389 30C54.1389 16.6888 43.311 5.86095 29.9998 5.86095Z" fill="url(#paint12_linear_144_1245)"/>
<path d="M29.9997 60C29.5361 60 29.1719 59.6357 29.1719 59.1721V37.0198C29.1719 36.5563 29.5361 36.192 29.9997 36.192C30.4633 36.192 30.8275 36.5563 30.8275 37.0198V59.1721C30.8275 59.6357 30.4633 60 29.9997 60Z" fill="url(#paint13_linear_144_1245)"/>
<path d="M29.9997 23.9735C29.5361 23.9735 29.1719 23.6093 29.1719 23.1457V0.827815C29.1719 0.364238 29.5361 0 29.9997 0C30.4633 0 30.8275 0.364238 30.8275 0.827815V23.1457C30.8275 23.5762 30.4633 23.9735 29.9997 23.9735Z" fill="url(#paint14_linear_144_1245)"/>
<path d="M22.9801 30.8279H0.827815C0.364238 30.8279 0 30.4636 0 30.0001C0 29.5365 0.364238 29.1722 0.827815 29.1722H22.9801C23.4437 29.1722 23.8079 29.5365 23.8079 30.0001C23.8079 30.4636 23.4437 30.8279 22.9801 30.8279Z" fill="url(#paint15_linear_144_1245)"/>
<path d="M59.1722 30.8279H36.8874C36.4238 30.8279 36.0596 30.4636 36.0596 30.0001C36.0596 29.5365 36.4238 29.1722 36.8874 29.1722H59.1722C59.6357 29.1722 60 29.5365 60 30.0001C60 30.4636 59.6357 30.8279 59.1722 30.8279Z" fill="url(#paint16_linear_144_1245)"/>
<defs>
<linearGradient id="paint0_linear_144_1245" x1="41.2565" y1="45.1065" x2="41.608" y2="42.5581" gradientUnits="userSpaceOnUse">
<stop stop-color="#FC2773"/>
<stop offset="1" stop-color="#E0612B"/>
</linearGradient>
<linearGradient id="paint1_linear_144_1245" x1="20.9532" y1="45.1065" x2="21.2553" y2="42.5452" gradientUnits="userSpaceOnUse">
<stop stop-color="#FC2773"/>
<stop offset="1" stop-color="#E0612B"/>
</linearGradient>
<linearGradient id="paint2_linear_144_1245" x1="15.5858" y1="29.4312" x2="19.2132" y2="24.6552" gradientUnits="userSpaceOnUse">
<stop stop-color="#FC2773"/>
<stop offset="1" stop-color="#E0612B"/>
</linearGradient>
<linearGradient id="paint3_linear_144_1245" x1="15.5858" y1="45.2545" x2="23.2868" y2="41.1248" gradientUnits="userSpaceOnUse">
<stop stop-color="#FC2773"/>
<stop offset="1" stop-color="#E0612B"/>
</linearGradient>
<linearGradient id="paint4_linear_144_1245" x1="24.4333" y1="30.8305" x2="30.3606" y2="27.3401" gradientUnits="userSpaceOnUse">
<stop stop-color="#FC2773"/>
<stop offset="1" stop-color="#E0612B"/>
</linearGradient>
<linearGradient id="paint5_linear_144_1245" x1="24.3992" y1="45.2545" x2="31.0862" y2="42.3935" gradientUnits="userSpaceOnUse">
<stop stop-color="#FC2773"/>
<stop offset="1" stop-color="#E0612B"/>
</linearGradient>
<linearGradient id="paint6_linear_144_1245" x1="35.0887" y1="29.028" x2="38.8735" y2="24.2109" gradientUnits="userSpaceOnUse">
<stop stop-color="#FC2773"/>
<stop offset="1" stop-color="#E0612B"/>
</linearGradient>
<linearGradient id="paint7_linear_144_1245" x1="36.0204" y1="45.2545" x2="42.6653" y2="42.4372" gradientUnits="userSpaceOnUse">
<stop stop-color="#FC2773"/>
<stop offset="1" stop-color="#E0612B"/>
</linearGradient>
<linearGradient id="paint8_linear_144_1245" x1="44.8573" y1="31.4525" x2="52.5092" y2="27.2906" gradientUnits="userSpaceOnUse">
<stop stop-color="#FC2773"/>
<stop offset="1" stop-color="#E0612B"/>
</linearGradient>
<linearGradient id="paint9_linear_144_1245" x1="44.8573" y1="45.2545" x2="52.5583" y2="41.1248" gradientUnits="userSpaceOnUse">
<stop stop-color="#FC2773"/>
<stop offset="1" stop-color="#E0612B"/>
</linearGradient>
<linearGradient id="paint10_linear_144_1245" x1="30.1326" y1="37.6126" x2="36.588" y2="33.1635" gradientUnits="userSpaceOnUse">
<stop stop-color="#FC2773"/>
<stop offset="1" stop-color="#E0612B"/>
</linearGradient>
<linearGradient id="paint11_linear_144_1245" x1="30.1326" y1="37.6126" x2="36.588" y2="33.1635" gradientUnits="userSpaceOnUse">
<stop stop-color="#FC2773"/>
<stop offset="1" stop-color="#E0612B"/>
</linearGradient>
<linearGradient id="paint12_linear_144_1245" x1="30.7781" y1="74.588" x2="68.5887" y2="48.5287" gradientUnits="userSpaceOnUse">
<stop stop-color="#FC2773"/>
<stop offset="1" stop-color="#E0612B"/>
</linearGradient>
<linearGradient id="paint13_linear_144_1245" x1="30.0247" y1="68.6729" x2="31.8104" y2="68.5873" gradientUnits="userSpaceOnUse">
<stop stop-color="#FC2773"/>
<stop offset="1" stop-color="#E0612B"/>
</linearGradient>
<linearGradient id="paint14_linear_144_1245" x1="30.0247" y1="32.7067" x2="31.8104" y2="32.6217" gradientUnits="userSpaceOnUse">
<stop stop-color="#FC2773"/>
<stop offset="1" stop-color="#E0612B"/>
</linearGradient>
<linearGradient id="paint15_linear_144_1245" x1="12.2631" y1="31.431" x2="12.5225" y2="28.8602" gradientUnits="userSpaceOnUse">
<stop stop-color="#FC2773"/>
<stop offset="1" stop-color="#E0612B"/>
</linearGradient>
<linearGradient id="paint16_linear_144_1245" x1="48.3909" y1="31.431" x2="48.6489" y2="28.8599" gradientUnits="userSpaceOnUse">
<stop stop-color="#FC2773"/>
<stop offset="1" stop-color="#E0612B"/>
</linearGradient>
</defs>
</svg>
