<svg width="70" height="70" viewBox="0 0 70 70" fill="none" xmlns="http://www.w3.org/2000/svg">
<path d="M70 35C70 54.33 54.33 70 35 70C15.67 70 0 54.33 0 35C0 15.67 15.67 0 35 0C54.33 0 70 15.67 70 35Z" fill="#7289DA"/>
<path d="M47.06 19.25H22.94C20.906 19.25 19.25 20.86 19.25 22.855V46.515C19.25 48.51 20.906 50.12 22.94 50.12H43.352L42.398 46.8825L44.702 48.965L46.88 50.925L50.75 54.25V22.855C50.75 20.86 49.094 19.25 47.06 19.25ZM40.112 42.105C40.112 42.105 39.464 41.3525 38.924 40.6875C41.282 40.04 42.182 38.605 42.182 38.605C41.444 39.0775 40.742 39.41 40.112 39.6375C39.212 40.005 38.348 40.25 37.502 40.39C35.774 40.705 34.19 40.6175 32.84 40.3725C31.814 40.18 30.932 39.9 30.194 39.62C29.78 39.4625 29.33 39.27 28.88 39.025C28.826 38.99 28.772 38.9725 28.718 38.9375C28.682 38.92 28.664 38.9025 28.646 38.885C28.322 38.71 28.142 38.5875 28.142 38.5875C28.142 38.5875 29.006 39.9875 31.292 40.6525C30.752 41.3175 30.086 42.105 30.086 42.105C26.108 41.9825 24.596 39.445 24.596 39.445C24.596 33.81 27.188 29.2425 27.188 29.2425C29.78 27.3525 32.246 27.405 32.246 27.405L32.426 27.615C29.186 28.525 27.692 29.9075 27.692 29.9075C27.692 29.9075 28.088 29.6975 28.754 29.4C30.68 28.5775 32.21 28.35 32.84 28.2975C32.948 28.28 33.038 28.2625 33.146 28.2625C34.244 28.1225 35.486 28.0875 36.782 28.2275C38.492 28.42 40.328 28.91 42.2 29.9075C42.2 29.9075 40.778 28.595 37.718 27.685L37.97 27.405C37.97 27.405 40.436 27.3525 43.028 29.2425C43.028 29.2425 45.62 33.81 45.62 39.445C45.62 39.445 44.09 41.9825 40.112 42.105ZM31.742 33.9325C30.716 33.9325 29.906 34.8075 29.906 35.875C29.906 36.9425 30.734 37.8175 31.742 37.8175C32.768 37.8175 33.578 36.9425 33.578 35.875C33.596 34.8075 32.768 33.9325 31.742 33.9325ZM38.312 33.9325C37.286 33.9325 36.476 34.8075 36.476 35.875C36.476 36.9425 37.304 37.8175 38.312 37.8175C39.338 37.8175 40.148 36.9425 40.148 35.875C40.148 34.8075 39.338 33.9325 38.312 33.9325Z" fill="white"/>
</svg>
