<svg width="70" height="70" viewBox="0 0 70 70" fill="none" xmlns="http://www.w3.org/2000/svg">
<circle cx="35" cy="35" r="35" fill="url(#paint0_linear_173_1523)"/>
<path d="M46.5164 21H25.2337C22.8308 21 21 22.8308 21 25.2337V46.5163C21 48.9192 22.8308 50.75 25.2337 50.75H46.5164C48.9192 50.75 50.75 48.9192 50.75 46.5163V25.2337C50.75 22.8308 48.9192 21 46.5164 21ZM35.875 44.8C40.7952 44.8 44.8 40.9096 44.8 36.2183C44.8 35.4173 44.6856 34.5019 44.4567 33.8154H46.974V45.9442C46.974 46.5163 46.5163 47.0885 45.8298 47.0885H25.9202C25.3481 47.0885 24.776 46.6308 24.776 45.9442V33.701H27.4077C27.1789 34.5019 27.0644 35.3029 27.0644 36.1038C26.95 40.9096 30.9548 44.8 35.875 44.8ZM35.875 41.3673C32.6712 41.3673 30.1538 38.85 30.1538 35.7606C30.1538 32.6712 32.6712 30.1538 35.875 30.1538C39.0788 30.1538 41.5962 32.6712 41.5962 35.7606C41.5962 38.9644 39.0788 41.3673 35.875 41.3673ZM46.8596 29.124C46.8596 29.8106 46.2875 30.3827 45.601 30.3827H42.3971C41.7106 30.3827 41.1385 29.8106 41.1385 29.124V26.0346C41.1385 25.3481 41.7106 24.776 42.3971 24.776H45.601C46.2875 24.776 46.8596 25.3481 46.8596 26.0346V29.124Z" fill="white"/>
<defs>
<linearGradient id="paint0_linear_173_1523" x1="14.875" y1="62.125" x2="61.25" y2="14" gradientUnits="userSpaceOnUse">
<stop stop-color="#EEA054"/>
<stop offset="0.502762" stop-color="#D64763"/>
<stop offset="1" stop-color="#B62A99"/>
</linearGradient>
</defs>
</svg>
