<svg width="203" height="50" viewBox="0 0 203 50" fill="none" xmlns="http://www.w3.org/2000/svg">
<path d="M41.1647 33.8218C40.9476 34.7866 37.9615 38.1008 34.0588 35.9348C31.7963 34.6757 30.161 30.9033 36.1814 26.1371C47.1514 17.4537 39.2109 7.23633 39.2109 7.23633C33.9913 17.2849 11.0287 15.9197 3.34392 26.7401C-5.37318 39.0366 4.14955 52.8962 18.1297 49.4711C7.48781 44.8207 7.25625 30.5897 19.876 27.6518C22.1627 27.1212 27.4209 26.2914 29.3168 25.0806C29.3168 25.0806 28.9743 29.2196 23.909 32.5048C22.8959 33.1609 19.5962 34.6757 19.5962 37.0009C19.5962 41.2268 26.4078 40.18 28.1156 37.2855C29.0804 41.1206 26.9385 44.8352 21.4197 45.2404C24.565 50.6096 35.1153 52.4138 40.1709 45.4334C42.7856 41.8153 43.157 36.75 41.1647 33.8218Z" fill="url(#paint0_linear_129_600)"/>
<path d="M35.9597 6.31954C37.2284 4.52498 37.4744 2.31556 36.4421 0C33.5862 4.24036 25.3467 5.02669 25.3467 12.0602C29.9778 10.7384 33.9287 9.19469 35.9597 6.31954Z" fill="url(#paint1_linear_129_600)"/>
<path d="M76.5397 21.3757C77.7554 19.6825 77.3742 17.8735 76.2744 16.5034C74.3833 19.1856 68.4594 19.2194 69.4435 24.5548C71.6288 23.7299 75.2227 23.2137 76.5397 21.3757Z" fill="url(#paint2_linear_129_600)"/>
<path d="M97.066 43.6917C91.5665 43.6917 88.2765 40.4644 89.3233 34.1497C90.1241 29.3256 94.2921 25.7075 99.8253 25.7075C105.286 25.7075 107.742 29.041 106.912 34.0435C106.608 35.8863 104.939 36.3108 103.564 36.3108H94.7407C95.0205 38.6505 96.6704 39.8228 99.9556 39.8228C102.647 39.8228 103.583 39.3404 105.228 38.8097C105.209 38.8097 105.523 43.6917 97.066 43.6917ZM94.9385 33.2283H100.698C101.195 33.2283 101.62 32.8664 101.692 32.3744C102.011 30.4448 101.07 29.1809 99.1741 29.1809C96.7958 29.1905 95.5029 30.7101 94.9337 33.2283H94.9385Z" fill="white"/>
<path d="M114.071 43.6917C107.963 43.6917 109.3 38.8097 109.3 38.8097C110.313 39.8228 112.059 40.0109 113.434 40.0109C115.108 40.0109 116.328 39.6153 116.497 38.6891C116.878 36.3832 108.369 38.2067 109.444 31.7038C110.062 27.9797 113.897 25.7075 118.243 25.7075C122.296 25.7075 124.563 27.4828 124.167 29.8562C123.907 31.4144 122.657 32.0174 121.022 32.0174H119.575L119.676 31.4144C119.893 30.1023 119.247 29.287 117.689 29.287C116.241 29.287 115.32 30.136 115.17 31.0237C114.587 34.5356 123.212 32.0512 122.19 38.2212C121.562 41.9888 117.751 43.6917 114.071 43.6917Z" fill="white"/>
<path d="M132.084 30.0011L131.119 35.8913C130.699 38.4095 131.408 39.7506 133.859 39.7506C134.988 39.7506 136.112 39.5383 137.159 39.1138C137.159 39.1138 138.664 43.687 130.825 43.687C127.149 43.687 124.867 41.9841 125.73 36.7693L127.66 25.1915C128.109 22.4948 129.107 20.2468 133.719 20.2468L132.754 26.0598L136.614 25.8621C138.437 25.8621 138.823 26.8269 137.747 29.9963L132.084 30.0011Z" fill="white"/>
<path d="M146.604 43.6917C141.033 43.6917 137.974 39.9337 138.886 34.3619C139.788 28.9348 143.71 25.7075 149.576 25.7075C155.442 25.7075 158.259 28.9348 157.357 34.3619C156.441 39.9337 152.104 43.6917 146.604 43.6917ZM148.91 29.7887C146.088 29.7887 144.815 31.6315 144.361 34.3619C143.908 37.0923 144.733 39.5044 147.299 39.5044C149.865 39.5044 151.457 37.0586 151.906 34.3619C152.355 31.6653 151.699 29.7887 148.91 29.7887Z" fill="white"/>
<path d="M198.313 25.7075C195.824 25.7075 193.634 26.5951 191.444 29.041C191.082 26.9859 189.62 25.7075 187.131 25.7075C184.642 25.7075 182.577 26.735 180.686 28.9348L181.169 25.9198C176.562 25.9198 175.93 25.9198 175.481 28.6164L173.04 43.3347C177.579 43.3347 178.269 43.3347 178.713 40.7297L179.774 34.3281C180.228 31.5977 182.1 30.1794 183.846 30.1794C185.592 30.1794 186.147 31.3131 185.8 33.4067L184.15 43.3395C188.656 43.3395 189.37 43.3395 189.813 40.7828L190.904 34.222C191.386 31.5977 193.287 30.1794 194.956 30.1794C196.702 30.1794 197.257 31.3131 196.885 33.4067L195.236 43.3395C199.804 43.3395 200.475 43.3395 200.918 40.6766L202.467 31.3469C203.084 27.8735 201.806 25.7075 198.313 25.7075Z" fill="white"/>
<path d="M172.075 25.7075C170.291 25.7075 168.279 26.8798 166.412 29.3979L166.991 25.9198C162.384 25.9198 161.752 25.9198 161.303 28.6164L158.862 43.3347C163.402 43.3347 164.092 43.3347 164.535 40.7297L165.254 36.388C166.065 31.4916 168.805 30.0058 172.934 30.6426C173.856 26.7785 173.638 25.7075 172.075 25.7075Z" fill="white"/>
<path d="M88.7395 25.7075C86.9545 25.7075 84.9429 26.8798 83.0712 29.3979L83.65 25.9198C79.0431 25.9198 78.4111 25.9198 77.9625 28.6164L75.5215 43.3347C80.0609 43.3347 80.7508 43.3347 81.1946 40.7297L81.9182 36.388C82.7287 31.4916 85.4687 30.0058 89.5981 30.6426C90.534 26.7785 90.2976 25.7075 88.7395 25.7075Z" fill="white"/>
<path d="M74.2292 25.9248C69.6222 25.9248 68.9902 25.9248 68.5416 28.6215L66.1006 43.3397C70.64 43.3397 71.3299 43.3397 71.7737 40.7347L74.2292 25.9248Z" fill="white"/>
<path d="M64.3495 25.8668L60.4902 26.0598L60.6397 25.1577C61.0208 22.8518 62.3089 21.5975 64.7257 21.5975C65.2274 21.612 65.7291 21.6843 66.2164 21.8098C66.2164 21.8098 68.3727 17.6948 63.4425 17.6948C59.0188 17.6948 56.1582 20.5893 55.4876 24.6463L52.3857 43.33C56.9397 43.33 57.6199 43.33 58.0637 40.696L59.8389 29.9914H65.4831C66.5782 26.8268 66.1923 25.8668 64.3495 25.8668Z" fill="white"/>
<defs>
<linearGradient id="paint0_linear_129_600" x1="13.1427" y1="50.9764" x2="37.842" y2="8.20129" gradientUnits="userSpaceOnUse">
<stop stop-color="#FF0064"/>
<stop offset="1" stop-color="#FF6400"/>
</linearGradient>
<linearGradient id="paint1_linear_129_600" x1="8.90854" y1="45.8613" x2="33.3618" y2="3.51554" gradientUnits="userSpaceOnUse">
<stop stop-color="#FF0064"/>
<stop offset="1" stop-color="#FF6400"/>
</linearGradient>
<linearGradient id="paint2_linear_129_600" x1="70.8931" y1="25.3914" x2="76.0881" y2="16.3954" gradientUnits="userSpaceOnUse">
<stop stop-color="#FF0064"/>
<stop offset="1" stop-color="#FF6400"/>
</linearGradient>
</defs>
</svg>
