<svg width="84" height="46" viewBox="0 0 84 46" fill="none" xmlns="http://www.w3.org/2000/svg">
<path d="M74.1255 0.508718C73.5779 -0.112908 72.6301 -0.172908 72.0084 0.374699L61.8785 9.2985C61.2569 9.8461 61.1969 10.794 61.7445 11.4156C62.2921 12.0372 63.2399 12.0972 63.8615 11.5496L72.8659 3.61733L80.7982 12.6217C81.3458 13.2434 82.2937 13.3034 82.9153 12.7558C83.5369 12.2081 83.5969 11.2603 83.0493 10.6387L74.1255 0.508718ZM0.110903 33.7083C0.973079 34.3425 1.83894 34.9498 2.70781 35.5305L4.37484 33.0363C3.54382 32.4809 2.71479 31.8995 1.88845 31.2917L0.110903 33.7083ZM8.1421 38.8001C10.0519 39.8251 11.9689 40.7264 13.8861 41.5063L15.0166 38.7275C13.2001 37.9885 11.3791 37.1326 9.56079 36.1567L8.1421 38.8001ZM19.909 43.562C22.0033 44.1409 24.0884 44.5765 26.1544 44.8719L26.579 41.9021C24.6422 41.6252 22.6823 41.2161 20.7084 40.6704L19.909 43.562ZM32.5352 45.3415C34.7061 45.3483 36.8424 45.1961 38.9318 44.8886L38.495 41.9205C36.5561 42.2059 34.569 42.3479 32.5447 42.3415L32.5352 45.3415ZM45.1946 43.4581C47.2518 42.8123 49.2431 42.0036 51.1543 41.0371L49.8005 38.3599C48.037 39.2518 46.198 39.9988 44.296 40.5959L45.1946 43.4581ZM56.6373 37.6664C58.352 36.4052 59.9734 34.9962 61.4882 33.4449L59.3418 31.349C57.9404 32.7842 56.4423 34.0858 54.8598 35.2496L56.6373 37.6664ZM65.5986 28.5125C66.8127 26.8028 67.921 24.9739 68.913 23.0305L66.241 21.6665C65.3139 23.4827 64.2808 25.1868 63.1526 26.7756L65.5986 28.5125ZM71.427 17.158C72.116 15.2046 72.7015 13.1618 73.176 11.033L70.2479 10.3802C69.7987 12.3953 69.2459 14.3228 68.5978 16.1601L71.427 17.158ZM74.2191 4.76166C74.3362 3.72301 74.4291 2.66735 74.497 1.59501L71.503 1.40549C71.4381 2.42957 71.3495 3.43631 71.238 4.42546L74.2191 4.76166Z" fill="white"/>
</svg>
