<svg width="116" height="55" viewBox="0 0 116 55" fill="none" xmlns="http://www.w3.org/2000/svg">
<path d="M115.243 1.93502C115.207 1.10737 114.507 0.465526 113.68 0.501416L100.192 1.08628C99.3648 1.12217 98.723 1.82221 98.7589 2.64986C98.7948 3.47751 99.4948 4.11935 100.322 4.08346L112.311 3.56358L112.831 15.5523C112.867 16.38 113.567 17.0218 114.395 16.9859C115.222 16.95 115.864 16.25 115.828 15.4223L115.243 1.93502ZM0.24769 51.0573C1.13619 51.4161 2.09641 51.7545 3.12439 52.0672L3.99742 49.197C3.04785 48.9082 2.17155 48.5988 1.371 48.2755L0.24769 51.0573ZM9.02973 53.4284C10.8861 53.7373 12.8829 53.9702 15.0093 54.1082L15.2037 51.1145C13.1734 50.9827 11.2762 50.7609 9.52218 50.4691L9.02973 53.4284ZM21.0051 54.2378C22.9152 54.2001 24.9055 54.0887 26.9703 53.8931L26.6875 50.9065C24.6963 51.0951 22.7806 51.2022 20.946 51.2383L21.0051 54.2378ZM32.884 53.1268C34.7844 52.8156 36.7367 52.4344 38.7372 51.9765L38.0679 49.0521C36.1281 49.4961 34.2373 49.8653 32.3991 50.1663L32.884 53.1268ZM44.4998 50.4775C46.3523 49.9381 48.2402 49.3335 50.1607 48.6589L49.1666 45.8284C47.2971 46.4851 45.4612 47.073 43.6612 47.5971L44.4998 50.4775ZM55.7133 46.546C57.5073 45.8109 59.3262 45.0148 61.168 44.1542L59.898 41.4363C58.0996 42.2766 56.3249 43.0533 54.5758 43.7701L55.7133 46.546ZM66.4713 41.5273C68.1842 40.6307 69.9146 39.678 71.661 38.6667L70.1578 36.0706C68.4479 37.0606 66.7548 37.9927 65.08 38.8694L66.4713 41.5273ZM76.7305 35.5923C78.3668 34.5548 80.0155 33.4655 81.6756 32.3224L79.9741 29.8515C78.345 30.9733 76.728 32.0417 75.1241 33.0586L76.7305 35.5923ZM86.4941 28.8741C88.0495 27.7188 89.6137 26.5157 91.1858 25.2632L89.3165 22.9168C87.7705 24.1484 86.2332 25.3309 84.7052 26.4658L86.4941 28.8741ZM95.7519 21.5034C97.2269 20.2491 98.7081 18.9509 100.195 17.6073L98.1832 15.3816C96.7188 16.7051 95.2603 17.9835 93.8085 19.218L95.7519 21.5034ZM104.518 13.5854C105.916 12.2469 107.319 10.8678 108.725 9.44699L106.593 7.33668C105.205 8.73845 103.822 10.0986 102.443 11.4181L104.518 13.5854ZM112.821 5.19955C113.497 4.48075 114.173 3.75218 114.85 3.01372L112.639 0.986293C111.97 1.71561 111.303 2.43503 110.635 3.14469L112.821 5.19955Z" fill="white"/>
</svg>
