<svg width="43" height="43" viewBox="0 0 43 43" fill="none" xmlns="http://www.w3.org/2000/svg">
<path d="M41.1647 26.5855C40.9476 27.5503 37.9615 30.8644 34.0588 28.6984C31.7963 27.4394 30.161 23.6669 36.1814 18.9007C47.1514 10.2174 39.2109 0 39.2109 0C33.9913 10.0486 11.0287 8.68334 3.34392 19.5037C-5.37318 31.8003 4.14955 45.6599 18.1297 42.2348C7.48781 37.5844 7.25625 23.3534 19.876 20.4155C22.1627 19.8848 27.4209 19.0551 29.3168 17.8443C29.3168 17.8443 28.9743 21.9833 23.909 25.2685C22.8959 25.9246 19.5962 27.4394 19.5962 29.7646C19.5962 33.9904 26.4078 32.9436 28.1156 30.0492C29.0804 33.8843 26.9385 37.5989 21.4197 38.0041C24.565 43.3733 35.1153 45.1775 40.1709 38.197C42.7856 34.579 43.157 29.5137 41.1647 26.5855Z" fill="url(#paint0_linear_144_1497)"/>
<defs>
<linearGradient id="paint0_linear_144_1497" x1="13.1427" y1="43.7401" x2="37.842" y2="0.964958" gradientUnits="userSpaceOnUse">
<stop stop-color="#FF0064"/>
<stop offset="1" stop-color="#FF6400"/>
</linearGradient>
</defs>
</svg>
