<?xml version="1.0" encoding="utf-8"?><svg viewBox="0 0 13 23" xmlns="http://www.w3.org/2000/svg" xmlns:xlink="http://www.w3.org/1999/xlink"><style>:root>svg{display:none}:root>svg:target{display:block}</style><svg viewBox="0 0 13 23" id="slide-next" xmlns="http://www.w3.org/2000/svg"><path fill-rule="evenodd" clip-rule="evenodd" d="M1.343 22.51a1.205 1.205 0 01-.063-1.755l8.65-8.875-8.65-8.875a1.205 1.205 0 01.063-1.754 1.337 1.337 0 011.832.06l9.476 9.722a1.203 1.203 0 010 1.694L3.175 22.45a1.337 1.337 0 01-1.832.06z"/></svg><svg viewBox="0 0 13 23" id="slide-prev" xmlns="http://www.w3.org/2000/svg"><path fill-rule="evenodd" clip-rule="evenodd" d="M11.656 1.251c.524.468.552 1.253.063 1.755L3.07 11.88l8.65 8.875c.489.502.46 1.287-.063 1.755a1.337 1.337 0 01-1.831-.06L.349 12.728a1.203 1.203 0 010-1.695l9.476-9.722a1.337 1.337 0 011.832-.06z"/></svg></svg>