<svg width="26" height="86" viewBox="0 0 26 86" fill="none" xmlns="http://www.w3.org/2000/svg">
<path d="M0.147666 77.3501C-0.211134 78.0968 0.103313 78.993 0.850007 79.3518L13.0181 85.1988C13.7648 85.5576 14.661 85.2432 15.0198 84.4965C15.3786 83.7498 15.0641 82.8536 14.3174 82.4948L3.50136 77.2974L8.69872 66.4814C9.05752 65.7347 8.74307 64.8385 7.99638 64.4797C7.24969 64.1209 6.3535 64.4353 5.9947 65.182L0.147666 77.3501ZM3.72822 2.78599C4.52246 3.26254 5.29105 3.76831 6.03413 4.30143L7.78295 1.86389C6.97391 1.28344 6.13685 0.732602 5.27173 0.213522L3.72822 2.78599ZM10.2438 7.86922C11.5531 9.17111 12.7577 10.5726 13.8579 12.0579L16.2686 10.2723C15.0822 8.67056 13.7794 7.15416 12.359 5.74186L10.2438 7.86922ZM16.84 16.7401C17.7242 18.3631 18.5056 20.0524 19.1841 21.7922L21.9791 20.7022C21.2562 18.8487 20.4218 17.0437 19.4745 15.3049L16.84 16.7401ZM20.9008 27.1064C21.3693 28.9077 21.7372 30.7414 22.0048 32.5916L24.9739 32.1621C24.6908 30.2045 24.3012 28.2621 23.8042 26.3513L20.9008 27.1064ZM22.5072 38.1698C22.575 40.0425 22.5424 41.9146 22.4099 43.7697L25.4023 43.9834C25.5425 42.0204 25.5769 40.0408 25.5052 38.0611L22.5072 38.1698ZM21.7043 49.3199C21.3629 51.1689 20.9178 52.9815 20.3704 54.7407L23.2348 55.6321C23.8189 53.7555 24.2921 51.8269 24.6545 49.8646L21.7043 49.3199ZM18.3787 59.935C17.5931 61.634 16.6988 63.2547 15.6977 64.7788L18.2051 66.4258C19.2918 64.7714 20.2573 63.0203 21.1017 61.194L18.3787 59.935ZM12.3083 69.1158C11.0585 70.4597 9.6978 71.6825 8.22755 72.7652L10.0065 75.1809C11.6339 73.9824 13.1336 72.6336 14.5051 71.1588L12.3083 69.1158ZM3.53458 75.5531C2.7172 75.9345 1.87338 76.279 1.00305 76.5844L1.99631 79.4152C2.9603 79.0769 3.89591 78.695 4.80289 78.2719L3.53458 75.5531Z" fill="white"/>
</svg>
