<svg width="95" height="94" viewBox="0 0 95 94" fill="none" xmlns="http://www.w3.org/2000/svg">
<path d="M62.8079 53.816H51.8639V41.24H37.1759V53.816H19.1279L48.5039 13.4H32.1839L0.503906 56.024V66.488H36.6959V80.6H51.8639V66.488H62.8079V53.816Z" fill="#FF6400"/>
<path d="M59.0035 36.1C61.0035 34.9 63.1701 34.6 64.0035 34.6H74.5034L85.0034 43.6L87.0034 47.1L89.0034 66.1L91.0034 71.1C91.6701 71.9333 93.1034 73.8 93.5034 74.6C93.9034 75.4 92.3368 76.6 91.5034 77.1C78.1701 77.2666 50.6034 77.6 47.0035 77.6C42.5035 77.6 43.0035 76.1 42.5035 74.6C42.0035 73.1 45.0035 72.6 45.0035 71.1C45.0035 69.9 46.3368 67.2666 47.0035 66.1C47.5035 59.9333 48.6035 47.2 49.0035 45.6C49.5035 43.6 56.5035 37.6 59.0035 36.1Z" fill="#15172A"/>
<path d="M90.9793 78.1441H44.8984C43.4673 78.1441 42.1996 77.2444 41.709 75.8951C41.2183 74.5458 41.6272 73.0742 42.7312 72.1747C43.3445 71.6431 43.9574 71.1931 44.3663 70.9069C44.1619 68.5763 45.5119 66.8184 46.1252 66.1233C46.2888 63.8336 47.2287 51.8123 47.6375 47.4781C48.0873 42.7351 58.0637 35.8659 60.5987 34.1895V29.7738C59.8627 26.8707 54.5474 24.7446 52.5439 24.1722C52.1759 24.0904 51.9309 23.8039 51.8491 23.436C51.1131 20.4511 55.365 18.325 56.4281 17.8343C57.4912 16.8121 58.8412 16.199 60.2723 16.0355C61.6625 15.8719 63.3796 15.5039 65.1787 15.0133C67.0186 14.4817 68.9808 14.4817 70.8207 15.0133C72.6198 15.5448 74.297 15.8719 75.7281 16.0355C77.1592 16.199 78.5082 16.853 79.5713 17.8343C80.6344 18.325 84.8863 20.4102 84.1503 23.436C84.0685 23.8039 83.7826 24.0495 83.4555 24.1722C81.452 24.7446 76.1367 26.8707 75.4007 29.7738V34.1895C77.9357 35.8659 87.9121 42.7351 88.3619 47.4781C88.7707 51.8123 89.7116 63.8336 89.8752 66.1233C90.4885 66.8184 91.8375 68.5763 91.6331 70.9069C92.042 71.1931 92.614 71.6431 93.2682 72.1747C94.3722 73.0742 94.7811 74.5458 94.2904 75.8951C93.6771 77.2853 92.4512 78.1441 90.9793 78.1441ZM53.8526 22.4956C56.0197 23.2316 61.7436 25.4803 62.6431 29.4873C62.6431 29.5691 62.6841 29.6511 62.6841 29.6919V34.762C62.6841 35.0891 62.5211 35.4161 62.2348 35.6205C57.5736 38.6462 50.05 44.5753 49.7229 47.6828C49.2731 52.4258 48.2105 66.5322 48.1696 66.6549C48.1696 66.9002 48.0466 67.1452 47.8422 67.3497C47.7604 67.4314 46.0428 69.0263 46.4926 71.1525C46.5743 71.5613 46.4114 71.9703 46.0843 72.2156C46.0843 72.2156 45.1439 72.8698 44.0808 73.7284C43.4266 74.26 43.6306 74.9959 43.6715 75.2003C43.8351 75.6501 44.2442 76.0998 44.9393 76.0998H91.0202C91.7153 76.0998 92.1234 75.6501 92.2869 75.2003C92.3687 74.9959 92.5329 74.3009 91.8787 73.7284C90.8156 72.8698 89.8752 72.2156 89.8752 72.2156C89.5481 71.9703 89.3841 71.5613 89.4659 71.1525C89.9157 68.9854 88.1572 67.3497 88.1163 67.3497C87.9118 67.1861 87.7899 66.9411 87.7899 66.6549C87.7899 66.5322 86.6854 52.4258 86.2356 47.6828C85.9494 44.5344 78.4267 38.6053 73.7246 35.6205C73.4384 35.4161 73.2744 35.0891 73.2744 34.762V29.6919C73.2744 29.6102 73.2745 29.5282 73.3153 29.4873C74.2149 25.4803 79.9388 23.2316 82.1059 22.4956C81.7788 21.4734 79.9393 20.2874 78.5491 19.715C78.4265 19.6741 78.3035 19.5926 78.2217 19.4699C77.4857 18.734 76.5047 18.2435 75.4416 18.1208C73.9287 17.9573 72.1705 17.5483 70.2487 17.0168C68.7768 16.6079 67.2226 16.6079 65.7507 17.0168C63.8289 17.5892 62.0707 17.9573 60.5578 18.1208C59.5356 18.2435 58.5137 18.734 57.7777 19.4699C57.6959 19.5517 57.5729 19.6332 57.4503 19.715C56.0192 20.2874 54.1797 21.4734 53.8526 22.4956Z" fill="white"/>
<path d="M74.2966 30.7143H61.6618C61.0894 30.7143 60.6396 30.2646 60.6396 29.6921C60.6396 29.1197 61.0894 28.6699 61.6618 28.6699H74.2966C74.869 28.6699 75.3188 29.1197 75.3188 29.6921C75.3188 30.2646 74.869 30.7143 74.2966 30.7143Z" fill="white"/>
<path d="M74.2966 35.7844H61.6618C61.0894 35.7844 60.6396 35.3346 60.6396 34.7622C60.6396 34.1898 61.0894 33.74 61.6618 33.74H74.2966C74.869 33.74 75.3188 34.1898 75.3188 34.7622C75.3188 35.3346 74.869 35.7844 74.2966 35.7844Z" fill="white"/>
<path d="M67.958 66.7363C64.2371 66.7363 61.1709 64.2017 61.1709 61.0533C61.1709 60.4809 61.6207 60.0311 62.1931 60.0311C62.7655 60.0311 63.2153 60.4809 63.2153 61.0533C63.2153 63.0568 65.3411 64.6919 67.958 64.6919C70.5748 64.6919 72.7016 63.0568 72.7016 61.0533C72.7016 59.0498 70.5748 57.4142 67.958 57.4142C64.2371 57.4142 61.1709 54.8791 61.1709 51.7307C61.1709 48.5824 64.1963 46.0472 67.958 46.0472C71.7196 46.0472 74.746 48.5824 74.746 51.7307C74.746 52.3032 74.2962 52.7529 73.7238 52.7529C73.1514 52.7529 72.7016 52.3032 72.7016 51.7307C72.7016 49.7272 70.5748 48.0916 67.958 48.0916C65.3411 48.0916 63.2153 49.7272 63.2153 51.7307C63.2153 53.7342 65.3411 55.3698 67.958 55.3698C71.6788 55.3698 74.746 57.9049 74.746 61.0533C74.746 64.1608 71.6788 66.7363 67.958 66.7363Z" fill="white"/>
<path d="M67.9577 48.1325C67.3853 48.1325 66.9355 47.6828 66.9355 47.1103V44.1256C66.9355 43.5532 67.3853 43.1034 67.9577 43.1034C68.5302 43.1034 68.9799 43.5532 68.9799 44.1256V47.1103C68.9799 47.6828 68.5302 48.1325 67.9577 48.1325Z" fill="white"/>
<path d="M67.9577 69.7215C67.3853 69.7215 66.9355 69.2718 66.9355 68.6993V65.7141C66.9355 65.1417 67.3853 64.6919 67.9577 64.6919C68.5302 64.6919 68.9799 65.1417 68.9799 65.7141V68.6993C68.9799 69.2309 68.5302 69.7215 67.9577 69.7215Z" fill="white"/>
</svg>
