<svg width="22" height="82" viewBox="0 0 22 82" fill="none" xmlns="http://www.w3.org/2000/svg">
<path d="M18.7587 79.4773C19.5747 79.3345 20.1204 78.5572 19.9776 77.7412L17.6505 64.4433C17.5077 63.6272 16.7304 63.0815 15.9144 63.2243C15.0983 63.3671 14.5526 64.1444 14.6954 64.9604L16.764 76.7808L4.94361 78.8493C4.12758 78.9922 3.58183 79.7694 3.72463 80.5855C3.86744 81.4015 4.64472 81.9472 5.46075 81.8044L18.7587 79.4773ZM21.1299 0.0462196C19.9999 0.334264 18.9138 0.70844 17.8721 1.16241L19.0707 3.91258C19.9651 3.52278 20.8983 3.2012 21.8709 2.95325L21.1299 0.0462196ZM12.1098 4.83778C10.4382 6.29743 8.94925 8.00155 7.63899 9.89523L10.106 11.6022C11.2909 9.88973 12.6179 8.37681 14.083 7.09754L12.1098 4.83778ZM4.39429 15.7357C3.52159 17.7048 2.78415 19.7918 2.17984 21.9629L5.06998 22.7673C5.63867 20.7242 6.32838 18.7758 7.137 16.9513L4.39429 15.7357ZM0.808876 28.3969C0.482784 30.5316 0.268659 32.7157 0.165927 34.9239L3.16269 35.0634C3.26071 32.9562 3.46484 30.8769 3.77447 28.8499L0.808876 28.3969ZM0.18479 41.4721C0.29732 43.6491 0.515421 45.828 0.839227 47.9857L3.806 47.5405C3.4968 45.48 3.28835 43.398 3.18079 41.3173L0.18479 41.4721ZM2.13714 54.4081C2.68609 56.548 3.34644 58.6438 4.11899 60.67L6.92215 59.6012C6.19202 57.6862 5.56538 55.6988 5.04304 53.6627L2.13714 54.4081ZM6.85864 66.6718C7.92665 68.6463 9.12427 70.5159 10.4532 72.2481L12.8334 70.4219C11.6088 68.8258 10.4962 67.0912 9.49737 65.2445L6.85864 66.6718ZM14.9976 77.1434C15.8408 77.887 16.7209 78.5834 17.6381 79.2274L19.362 76.7721C18.5385 76.1939 17.7451 75.5665 16.982 74.8934L14.9976 77.1434Z" fill="white"/>
</svg>
