<svg width="95" height="94" viewBox="0 0 95 94" fill="none" xmlns="http://www.w3.org/2000/svg">
<path d="M37.4117 40.184L52.5797 22.904V12.824H5.53969V25.304H34.1477L20.3237 40.952V51.224H27.4277C36.2597 51.224 40.0037 54.392 40.0037 59.48C40.0037 64.952 35.2037 68.12 27.4277 68.12C20.4197 68.12 13.3157 65.912 8.22769 62.072L2.17969 73.976C8.70769 78.584 18.4037 81.176 27.8117 81.176C46.9157 81.176 55.6517 70.808 55.6517 59.48C55.6517 49.592 49.5077 42.104 37.4117 40.184Z" fill="#FF6400"/>
<path d="M30.1797 30.0239V58.0239H26.6797V61.0239L30.1797 64.0239L81.1797 64.5239L83.6797 62.5239L85.1797 58.0239H81.1797L80.6797 30.0239H63.1797H30.1797Z" fill="#15172A"/>
<path d="M80.9911 55.6501C80.4186 55.6501 79.9689 55.2003 79.9689 54.6279V30.7082H31.1079V54.6279C31.1079 55.2003 30.6581 55.6501 30.0857 55.6501C29.5132 55.6501 29.0635 55.2003 29.0635 54.6279V29.686C29.0635 29.1136 29.5132 28.6638 30.0857 28.6638H80.9911C81.5635 28.6638 82.0133 29.1136 82.0133 29.686V54.6279C82.0133 55.2003 81.5635 55.6501 80.9911 55.6501Z" fill="white"/>
<path d="M81.0324 64.9724H30.1679C27.1422 64.9724 25.1797 60.3522 25.1797 57.9398C25.1797 57.3674 25.6295 56.9176 26.2019 56.9176H44.6834C45.2558 56.9176 45.7056 57.3674 45.7056 57.9398C45.7056 58.1851 45.9104 58.3895 46.1558 58.3895H65.0046C65.2499 58.3895 65.4548 58.1851 65.4548 57.9398C65.4548 57.3674 65.9046 56.9176 66.477 56.9176H84.9585C85.5309 56.9176 85.9807 57.3674 85.9807 57.9398C86.0215 60.3931 84.099 64.9724 81.0324 64.9724ZM27.3878 59.0027C27.7967 60.8426 29.1049 62.969 30.2088 62.969H81.0733C82.1773 62.969 83.4864 60.8426 83.8953 59.0027H67.3355C66.9266 59.8613 66.0677 60.4748 65.0864 60.4748H46.2366C45.2144 60.4748 44.3566 59.8613 43.9886 59.0027H27.3878Z" fill="white"/>
<path d="M38.3862 55.2409C36.0147 55.2409 34.0928 53.3192 34.0928 50.9477C34.0928 48.5762 36.0147 46.6545 38.3862 46.6545C40.7577 46.6545 42.6797 48.5762 42.6797 50.9477C42.6797 53.3192 40.7577 55.2409 38.3862 55.2409ZM38.3862 48.6989C37.1596 48.6989 36.1372 49.7211 36.1372 50.9477C36.1372 52.1744 37.1596 53.1965 38.3862 53.1965C39.6129 53.1965 40.6353 52.1744 40.6353 50.9477C40.6353 49.7211 39.6537 48.6989 38.3862 48.6989Z" fill="white"/>
<path d="M54.9048 43.6289C52.5333 43.6289 50.6113 41.7069 50.6113 39.3354C50.6113 36.9639 52.5333 35.0422 54.9048 35.0422C57.2763 35.0422 59.1982 36.9639 59.1982 39.3354C59.1982 41.7069 57.2763 43.6289 54.9048 43.6289ZM54.9048 37.0866C53.6781 37.0866 52.6557 38.1088 52.6557 39.3354C52.6557 40.5621 53.6781 41.5845 54.9048 41.5845C56.1314 41.5845 57.1538 40.5621 57.1538 39.3354C57.1538 38.1088 56.1723 37.0866 54.9048 37.0866Z" fill="white"/>
<path d="M71.4243 49.394C69.0528 49.394 67.1309 47.4723 67.1309 45.1008C67.1309 42.7293 69.0528 40.8076 71.4243 40.8076C73.7958 40.8076 75.7177 42.7293 75.7177 45.1008C75.7177 47.4723 73.7958 49.394 71.4243 49.394ZM71.4243 42.852C70.1977 42.852 69.1753 43.8742 69.1753 45.1008C69.1753 46.3275 70.1977 47.3496 71.4243 47.3496C72.6509 47.3496 73.6733 46.3275 73.6733 45.1008C73.6733 43.8742 72.6918 42.852 71.4243 42.852Z" fill="white"/>
<path d="M73.9176 43.9968C73.6313 43.9968 73.3454 43.8743 73.1409 43.629C72.7729 43.2201 72.8139 42.5657 73.2637 42.1977L91.1323 26.8238C91.5411 26.4558 92.1947 26.4968 92.5627 26.9466C92.9307 27.3554 92.8897 28.0096 92.4399 28.3775L74.5724 43.7515C74.368 43.915 74.122 43.9968 73.9176 43.9968Z" fill="white"/>
<path d="M68.3583 45.0599C68.2357 45.0599 68.1127 45.0599 68.0309 45.019L57.6861 41.3799C57.1546 41.1754 56.8687 40.6032 57.0732 40.0717C57.2776 39.5401 57.8503 39.2538 58.3819 39.4583L68.7257 43.0973C69.2572 43.3018 69.544 43.8743 69.3396 44.4058C69.176 44.7738 68.7672 45.0599 68.3583 45.0599Z" fill="white"/>
<path d="M41.0853 50.0889C40.7582 50.0889 40.4303 49.9254 40.2668 49.6392C39.9397 49.1894 40.0626 48.5353 40.5123 48.2082L51.6747 40.3575C52.1244 40.0304 52.7791 40.1531 53.1062 40.6029C53.4333 41.0526 53.3104 41.707 52.8606 42.0341L41.6982 49.8845C41.4938 50.0072 41.2898 50.0889 41.0853 50.0889Z" fill="white"/>
<path d="M90.9281 33.9386C90.8872 33.9386 90.8053 33.9386 90.7644 33.9386C90.1919 33.8568 89.8241 33.3251 89.9059 32.7527L90.7644 27.4782C90.8461 26.9058 91.3778 26.5377 91.9503 26.6195C92.5227 26.7013 92.8905 27.233 92.8088 27.8054L91.9912 33.0799C91.8685 33.5705 91.4187 33.9386 90.9281 33.9386Z" fill="white"/>
<path d="M91.7452 28.6228H86.4704C85.898 28.6228 85.4482 28.173 85.4482 27.6006C85.4482 27.0281 85.898 26.5784 86.4704 26.5784H91.7452C92.3176 26.5784 92.7674 27.0281 92.7674 27.6006C92.7674 28.173 92.3176 28.6228 91.7452 28.6228Z" fill="white"/>
</svg>
