<svg width="103" height="23" viewBox="0 0 103 23" fill="none" xmlns="http://www.w3.org/2000/svg">
<path d="M101.763 15.2869C102.476 14.8654 102.712 13.9456 102.291 13.2324L95.4217 1.61068C95.0001 0.897513 94.0803 0.661094 93.3671 1.08262C92.654 1.50415 92.4175 2.424 92.8391 3.13717L98.945 13.4676L88.6146 19.5735C87.9014 19.9951 87.665 20.9149 88.0866 21.6281C88.5081 22.3412 89.4279 22.5777 90.1411 22.1561L101.763 15.2869ZM1.50685 15.4073C2.49426 15.0526 3.4826 14.7114 4.47192 14.3834L3.52793 11.5358C2.51512 11.8715 1.50335 12.2208 0.492591 12.584L1.50685 15.4073ZM10.4736 12.558C12.4974 11.9971 14.5258 11.4892 16.5589 11.0325L15.9014 8.10542C13.8205 8.57284 11.7442 9.09273 9.67226 9.66705L10.4736 12.558ZM22.7127 9.80714C24.7763 9.44798 26.8454 9.13908 28.92 8.87849L28.5461 5.90188C26.4253 6.16827 24.3094 6.48415 22.1983 6.85157L22.7127 9.80714ZM35.1663 8.23934C37.2507 8.07367 39.3412 7.95429 41.438 7.87928L41.3308 4.8812C39.1915 4.95773 37.0575 5.07956 34.9286 5.24877L35.1663 8.23934ZM47.7229 7.78534C49.812 7.79672 51.9078 7.84974 54.0103 7.94254L54.1426 4.94546C52.0026 4.851 49.8682 4.79698 47.7392 4.78538L47.7229 7.78534ZM60.2916 8.33466C62.374 8.50188 64.4632 8.70583 66.5596 8.94473L66.8993 5.96402C64.771 5.72148 62.6485 5.51427 60.5318 5.34429L60.2916 8.33466ZM72.809 9.7556C74.8775 10.0559 76.953 10.388 79.0358 10.7503L79.55 7.79469C77.4406 7.42775 75.3373 7.09116 73.2399 6.78672L72.809 9.7556ZM85.2377 11.9124C87.2889 12.3235 89.3473 12.7619 91.4131 13.2261L92.0707 10.299C89.9833 9.83004 87.9022 9.38677 85.8272 8.97088L85.2377 11.9124ZM97.5618 14.6764C98.5814 14.928 99.6029 15.1854 100.626 15.4484L101.373 12.5428C100.341 12.2775 99.3097 12.0177 98.2805 11.7638L97.5618 14.6764Z" fill="white"/>
</svg>
