<svg width="95" height="94" viewBox="0 0 95 94" fill="none" xmlns="http://www.w3.org/2000/svg">
<path d="M0.614258 13.7351V26.2151H14.0543V80.9351H29.6063V13.7351H0.614258Z" fill="#FF6400"/>
<ellipse cx="34.5361" cy="67.4351" rx="16" ry="16.5" fill="#15172A"/>
<path d="M38.4714 48.1246C37.899 48.1246 37.4492 47.6748 37.4492 47.1024V22.4468C37.4492 21.8743 37.899 21.4246 38.4714 21.4246H43.7052C44.2776 21.4246 44.7274 21.8743 44.7274 22.4468C44.7274 23.0192 44.2776 23.469 43.7052 23.469H39.4936V47.1024C39.4936 47.6748 39.0439 48.1246 38.4714 48.1246Z" fill="white"/>
<path d="M77.2327 70.8583H53.5993C53.0269 70.8583 52.5771 70.4085 52.5771 69.8361C52.5771 69.2636 53.0269 68.8139 53.5993 68.8139H76.2105V56.5475C76.2105 55.975 76.6603 55.5253 77.2327 55.5253C77.8052 55.5253 78.2549 55.975 78.2549 56.5475V69.8361C78.2549 70.3676 77.7643 70.8583 77.2327 70.8583Z" fill="white"/>
<path d="M77.233 37.4935C76.6606 37.4935 76.2108 37.0437 76.2108 36.4713V23.5099H71.7536C71.1812 23.5099 70.7314 23.0601 70.7314 22.4877C70.7314 21.9152 71.1812 21.4655 71.7536 21.4655H77.233C77.8054 21.4655 78.2552 21.9152 78.2552 22.4877V36.4713C78.2552 37.0437 77.7645 37.4935 77.233 37.4935Z" fill="white"/>
<path d="M67.0933 29.6431H48.6118C46.7309 29.6431 45.2178 28.1302 45.2178 26.2493V23.1009C45.2178 21.22 46.7309 19.7074 48.6118 19.7074H49.0211C48.9802 19.4211 48.9802 19.1348 48.9802 18.8486C48.9802 13.9421 52.9869 9.93506 57.8935 9.93506C62.8 9.93506 66.8068 13.9421 66.8068 18.8486C66.8068 19.1348 66.8067 19.4211 66.7658 19.7074H67.1751C69.056 19.7074 70.5681 21.22 70.5681 23.1009V26.2493C70.4864 28.1302 68.9332 29.6431 67.0933 29.6431ZM48.5709 21.7518C47.8349 21.7518 47.2212 22.3649 47.2212 23.1009V26.2493C47.2212 26.9853 47.8349 27.5987 48.5709 27.5987H67.0523C67.7883 27.5987 68.402 26.9853 68.402 26.2493V23.1009C68.402 22.3649 67.7883 21.7518 67.0523 21.7518H65.4571C65.13 21.7518 64.844 21.5881 64.6396 21.3427C64.4351 21.0974 64.3941 20.7705 64.4349 20.4842C64.5576 19.9118 64.6396 19.3802 64.6396 18.8486C64.6396 15.0869 61.5733 11.9795 57.7707 11.9795C54.009 11.9795 50.9018 15.046 50.9018 18.8486C50.9018 19.3802 50.9827 19.9527 51.1054 20.4842C51.1872 20.7705 51.1062 21.0974 50.9018 21.3427C50.6973 21.5881 50.4103 21.7518 50.0832 21.7518H48.5709Z" fill="white"/>
<path d="M61.7363 62.6397C61.4501 62.6397 61.2051 62.517 61.0006 62.3535C60.7553 62.1082 60.6732 61.7809 60.7141 61.4538L61.8591 55.6069C61.9 55.4024 61.9821 55.2389 62.1456 55.0753L82.7933 34.4269C83.2021 34.018 83.8567 34.018 84.2247 34.4269L88.9674 39.1701C89.3763 39.5789 89.3763 40.233 88.9674 40.601L68.3197 61.2494C68.1562 61.413 67.9921 61.4948 67.7877 61.5357L61.941 62.6807C61.8592 62.6398 61.7772 62.6397 61.7363 62.6397ZM63.8217 56.2612L63.045 60.3091L67.0929 59.5322L86.8012 39.8241L83.53 36.5532L63.8217 56.2612Z" fill="white"/>
<path d="M90.6034 38.5157C90.3581 38.5157 90.0721 38.4338 89.8677 38.2294L85.124 33.4865C84.7152 33.0776 84.7152 32.4233 85.124 32.0553L87.9041 29.2749C88.313 28.866 88.9676 28.866 89.3356 29.2749L94.0783 34.0181C94.4872 34.427 94.4872 35.0811 94.0783 35.4491L91.2982 38.2294C91.1346 38.393 90.8487 38.5157 90.6034 38.5157ZM87.3322 32.7506L90.6034 36.0215L91.953 34.6722L88.6818 31.4012L87.3322 32.7506Z" fill="white"/>
<path d="M77.3558 47.0204C77.1105 47.0204 76.8246 46.9386 76.6201 46.7342C76.2113 46.3253 76.2113 45.6712 76.6201 45.3032L85.1651 36.7575C85.574 36.3486 86.2286 36.3486 86.5966 36.7575C87.0055 37.1663 87.0055 37.8205 86.5966 38.1884L78.0915 46.7342C77.8871 46.9386 77.6012 47.0204 77.3558 47.0204Z" fill="white"/>
<path d="M67.5829 61.5356C67.3375 61.5356 67.0516 61.4538 66.8472 61.2493L62.1045 56.5064C61.6956 56.0976 61.6956 55.4432 62.1045 55.0752C62.5134 54.6663 63.167 54.6663 63.535 55.0752L68.2786 59.8184C68.6875 60.2272 68.6875 60.8814 68.2786 61.2493C68.1151 61.4129 67.8282 61.5356 67.5829 61.5356Z" fill="white"/>
<path d="M45.4225 41.4188C45.1362 41.4188 44.8912 41.2961 44.6867 41.1326L42.9688 39.4154C42.5599 39.0065 42.5599 38.3521 42.9688 37.9841C43.3776 37.6161 44.0323 37.5752 44.4002 37.9841L45.4225 39.0063L50.2879 34.1406C50.6968 33.7318 51.3514 33.7318 51.7194 34.1406C52.1282 34.5495 52.1282 35.2039 51.7194 35.5719L46.1582 41.1735C45.9537 41.3371 45.7087 41.4188 45.4225 41.4188Z" fill="white"/>
<path d="M45.4224 50.6187C45.1362 50.6187 44.8912 50.496 44.6867 50.3324L42.9688 48.6152C42.5599 48.2063 42.5599 47.552 42.9688 47.184C43.3776 46.816 44.0323 46.7751 44.4002 47.184L45.4224 48.2062L50.2879 43.3405C50.6968 42.9316 51.3514 42.9316 51.7194 43.3405C52.0874 43.7494 52.1282 44.4037 51.7194 44.7717L46.1582 50.3733C45.9537 50.5369 45.7087 50.6187 45.4224 50.6187Z" fill="white"/>
<path d="M34.3415 84.065C25.06 84.065 17.5361 76.5008 17.5361 67.2601C17.5361 57.9785 25.1009 50.455 34.3415 50.455C43.5822 50.455 51.146 58.0194 51.146 67.2601C51.1869 76.5008 43.6231 84.065 34.3415 84.065ZM34.3415 52.4587C26.2048 52.4587 19.5805 59.0825 19.5805 67.2192C19.5805 75.3559 26.2048 81.9797 34.3415 81.9797C42.4783 81.9797 49.1016 75.3559 49.1016 67.2192C49.1425 59.0825 42.5192 52.4587 34.3415 52.4587Z" fill="white"/>
<path d="M41.6198 75.5193C41.3745 75.5193 41.0875 75.4375 40.8831 75.233L33.6468 67.996C33.4424 67.7916 33.3604 67.5463 33.3604 67.2601V58.6734C33.3604 58.101 33.8101 57.6512 34.3826 57.6512C34.955 57.6512 35.4048 58.101 35.4048 58.6734V66.8511L42.3555 73.8021C42.7644 74.2109 42.7644 74.8651 42.3555 75.233C42.1102 75.3966 41.8651 75.5193 41.6198 75.5193Z" fill="white"/>
</svg>
