<svg width="102" height="22" viewBox="0 0 102 22" fill="none" xmlns="http://www.w3.org/2000/svg">
<path d="M101.848 7.68099C102.162 6.91436 101.795 6.03837 101.028 5.72444L88.5348 0.608522C87.7682 0.294584 86.8922 0.66157 86.5782 1.42821C86.2643 2.19485 86.6313 3.07083 87.3979 3.38477L98.5029 7.93225L93.9554 19.0372C93.6415 19.8039 94.0085 20.6798 94.7751 20.9938C95.5417 21.3077 96.4177 20.9407 96.7317 20.1741L101.848 7.68099ZM99.8798 5.72906C98.9121 6.13447 97.9428 6.52646 96.9718 6.90525L98.0621 9.70011C99.0562 9.31233 100.048 8.91105 101.039 8.49605L99.8798 5.72906ZM91.0728 9.03918C89.0807 9.70429 87.0815 10.3166 85.0748 10.878L85.8831 13.7671C87.937 13.1925 89.9835 12.5657 92.0229 11.8848L91.0728 9.03918ZM78.9927 12.4206C76.9504 12.8863 74.9002 13.302 72.8419 13.6697L73.3695 16.623C75.4737 16.247 77.5703 15.8219 79.6596 15.3456L78.9927 12.4206ZM66.6371 14.6317C64.564 14.9052 62.4826 15.1327 60.3925 15.3163L60.6549 18.3048C62.7874 18.1175 64.9122 17.8853 67.0294 17.606L66.6371 14.6317ZM54.1209 15.7358C52.034 15.8327 49.9383 15.8884 47.8337 15.9047L47.857 18.9046C49.999 18.888 52.1333 18.8313 54.2601 18.7326L54.1209 15.7358ZM41.5406 15.8386C39.4524 15.7795 37.3553 15.6841 35.2494 15.5542L35.0646 18.5485C37.2027 18.6804 39.333 18.7773 41.4557 18.8374L41.5406 15.8386ZM28.9664 15.0682C26.8852 14.8756 24.7952 14.6515 22.6964 14.3976L22.3361 17.3759C24.4617 17.633 26.5796 17.8601 28.6899 18.0555L28.9664 15.0682ZM16.4427 13.5585C14.3729 13.2542 12.2945 12.923 10.2074 12.5666L9.7024 15.5237C11.8113 15.8839 13.9126 16.2187 16.0063 16.5265L16.4427 13.5585ZM3.99186 11.4368C2.96055 11.2384 1.92713 11.0343 0.891575 10.8246L0.296374 13.765C1.34115 13.9765 2.38405 14.1825 3.42506 14.3828L3.99186 11.4368Z" fill="white"/>
</svg>
