<svg width="94" height="94" viewBox="0 0 94 94" fill="none" xmlns="http://www.w3.org/2000/svg">
<path d="M30.9952 68.504L46.4512 53.912C55.8592 45.176 57.6832 39.224 57.6832 32.696C57.6832 20.504 47.6992 12.824 32.7232 12.824C20.6272 12.824 11.2192 17.72 6.03516 25.304L17.3632 32.6C20.6272 28.088 25.5232 25.88 31.2832 25.88C38.3872 25.88 42.0352 28.952 42.0352 34.232C42.0352 37.496 40.9792 40.952 35.0272 46.616L9.10716 71.096V81.176H59.8912V68.504H30.9952Z" fill="#FF6400"/>
<path d="M40.0352 33.1759C40.0352 23.1759 52.0352 17.0093 58.0352 15.1759C59.0352 14.8426 62.8352 14.7759 70.0352 17.1759C79.0352 20.1759 81.0352 31.6759 82.0352 36.1759C83.0352 40.6759 76.0352 50.6759 74.0352 52.6759C72.4352 54.2759 64.3685 56.3426 60.5352 57.1759L53.0352 79.1759L46.5352 70.1759L35.0352 72.6759L44.5352 48.6759C43.0352 47.6759 40.0352 43.1759 40.0352 33.1759Z" fill="#15172A"/>
<path d="M60.9958 57.5238C48.9747 57.5238 39.2021 47.7512 39.2021 35.7301C39.2021 23.7091 48.9747 13.937 60.9958 13.937C73.0169 13.937 82.7884 23.7091 82.7884 35.7301C82.8293 47.7512 73.0578 57.5238 60.9958 57.5238ZM60.9958 15.9814C50.1196 15.9814 41.2465 24.8539 41.2465 35.7301C41.2465 46.6064 50.1196 55.4794 60.9958 55.4794C71.872 55.4794 80.744 46.6064 80.744 35.7301C80.7849 24.813 71.9129 15.9814 60.9958 15.9814Z" fill="white"/>
<path d="M68.6826 80.9114C68.6417 80.9114 68.6007 80.9114 68.5598 80.9114C68.1918 80.8705 67.8649 80.5841 67.7422 80.2161L61.037 59.7721L54.3308 80.2161C54.2082 80.5841 53.8813 80.8705 53.5133 80.9114C53.1453 80.9523 52.7364 80.7888 52.532 80.4617L46.276 71.0572L35.3183 73.7969C34.9503 73.8787 34.5414 73.7562 34.2961 73.47C34.0508 73.1838 33.9688 72.7749 34.0915 72.4069L43.5368 47.915C43.7413 47.3834 44.313 47.138 44.8445 47.3425C45.3761 47.5469 45.622 48.1191 45.4175 48.6507L36.6669 71.3028L46.3988 68.8496C46.8077 68.727 47.2575 68.9313 47.5029 69.2584L52.9812 77.5179L60.0148 56.1335C60.1375 55.7246 60.5463 55.4382 60.9961 55.4382C61.4459 55.4382 61.8138 55.7246 61.9774 56.1335L69.01 77.5179L74.4884 69.2584C74.7337 68.8904 75.1835 68.727 75.5924 68.8496L85.3243 71.3028L76.5737 48.6507C76.3692 48.1191 76.6151 47.5469 77.1467 47.3425C77.6782 47.138 78.2499 47.3834 78.4544 47.915L87.8997 72.4069C88.0224 72.7749 87.9813 73.1838 87.6951 73.47C87.4498 73.7562 87.0409 73.8787 86.6729 73.7969L75.7152 71.0572L69.4592 80.4617C69.3365 80.7479 69.0097 80.9114 68.6826 80.9114Z" fill="white"/>
<path d="M65.4522 27.5526H56.5798C56.0074 27.5526 55.5576 27.1028 55.5576 26.5304C55.5576 25.9579 56.0074 25.5082 56.5798 25.5082H65.4522C66.0246 25.5082 66.4744 25.9579 66.4744 26.5304C66.4744 27.1028 66.0246 27.5526 65.4522 27.5526Z" fill="white"/>
<path d="M65.4522 46.893H56.5798C56.0074 46.893 55.5576 46.4433 55.5576 45.8708C55.5576 45.2984 56.0074 44.8486 56.5798 44.8486H65.4522C66.0246 44.8486 66.4744 45.2984 66.4744 45.8708C66.4744 46.4433 66.0246 46.893 65.4522 46.893Z" fill="white"/>
<path d="M60.9958 46.893C60.4234 46.893 59.9736 46.4433 59.9736 45.8708V26.5304C59.9736 25.9579 60.4234 25.5082 60.9958 25.5082C61.5683 25.5082 62.018 25.9579 62.018 26.5304V45.8708C62.018 46.4433 61.5683 46.893 60.9958 46.893Z" fill="white"/>
</svg>
