<svg width="70" height="70" viewBox="0 0 70 70" fill="none" xmlns="http://www.w3.org/2000/svg">
<circle cx="35" cy="35" r="35" fill="#2F89CE"/>
<path d="M16.3637 35.6546L24.4104 38.6551L27.5472 48.7475C27.6836 49.4294 28.5019 49.5658 29.0474 49.1566L33.5481 45.4743C33.9572 45.0651 34.6392 45.0651 35.1847 45.4743L43.2313 51.3388C43.7769 51.7479 44.5952 51.4752 44.7316 50.7932L50.7324 22.1526C50.8688 21.4707 50.1869 20.7888 49.505 21.0616L16.3637 33.8817C15.5454 34.1544 15.5454 35.3819 16.3637 35.6546ZM27.1381 37.1549L42.9586 27.4716C43.2313 27.3352 43.5041 27.7444 43.2313 27.8808L30.2749 40.0189C29.8657 40.4281 29.4566 40.9736 29.4566 41.6555L29.0474 44.9287C29.0474 45.3379 28.3655 45.4743 28.2291 44.9287L26.5925 38.9279C26.1834 38.2459 26.4562 37.4276 27.1381 37.1549Z" fill="white"/>
</svg>
