<svg width="70" height="70" viewBox="0 0 70 70" fill="none" xmlns="http://www.w3.org/2000/svg">
<circle cx="35" cy="35" r="35" fill="#7294C7"/>
<path d="M52.1607 43.9519C52.1607 43.8066 52.0154 43.8067 52.0154 43.6614C51.4342 42.499 50.1266 41.0461 48.3831 39.448C47.5114 38.7215 47.0755 38.1403 46.7849 37.8498C46.349 37.2686 46.3491 36.8327 46.4943 36.2516C46.6396 35.8157 47.2208 35.0892 48.2378 33.7816C48.819 33.0552 49.1095 32.6193 49.5454 32.1835C51.7248 29.2776 52.7418 27.3889 52.4512 26.5171L52.306 26.3718C52.1607 26.2266 52.0153 26.0813 51.7248 26.0813C51.4342 25.936 50.9983 25.936 50.5625 26.0813H45.0414C44.8962 26.0813 44.8961 26.0813 44.6056 26.0813C44.4603 26.0813 44.315 26.0813 44.315 26.0813H44.1697H44.0244L43.8791 26.2265C43.7338 26.3718 43.7338 26.3718 43.7338 26.5171C43.1526 28.1153 42.4262 29.4229 41.6997 30.8758C41.2639 31.6023 40.828 32.3287 40.3921 32.9099C39.9563 33.4911 39.6657 33.9269 39.3751 34.2175C39.0845 34.5081 38.7939 34.6534 38.6486 34.944C38.5034 35.0892 38.2128 35.2345 38.2128 35.0893C38.0675 35.0893 37.9222 35.0892 37.9222 34.944C37.7769 34.7987 37.6316 34.6534 37.4863 34.5081C37.3411 34.3628 37.341 34.0722 37.1957 33.7816C37.1957 33.491 37.1957 33.2005 37.1957 33.0552C37.1957 32.9099 37.1957 32.474 37.1957 32.1835C37.1957 31.7476 37.1957 31.457 37.1957 31.3117C37.1957 30.8758 37.1957 30.2947 37.1957 29.7135C37.1957 29.1324 37.1957 28.6965 37.1957 28.4059C37.1957 28.1153 37.1957 27.6795 37.1957 27.3889C37.1957 26.953 37.1957 26.6624 37.1957 26.5171C37.1957 26.3718 37.0505 26.0813 37.0505 25.936C36.9052 25.7907 36.7599 25.6454 36.6146 25.5001C36.4693 25.3548 36.1787 25.3548 36.0334 25.2095C35.307 25.0642 34.4353 24.9189 33.4182 24.9189C31.0936 24.9189 29.4954 25.0642 28.9142 25.3548C28.6237 25.5001 28.3331 25.6454 28.1878 25.936C27.8972 26.2266 27.8972 26.3718 28.0425 26.3718C28.7689 26.5171 29.3501 26.8077 29.6407 27.2436L29.786 27.5342C29.9313 27.6795 29.9312 27.97 30.0765 28.4059C30.2218 28.8418 30.2218 29.2776 30.2218 29.8588C30.2218 30.7305 30.2218 31.6023 30.2218 32.1835C30.2218 32.9099 30.0765 33.3458 30.0765 33.7816C30.0765 34.2175 29.9313 34.5081 29.786 34.6534C29.6407 34.944 29.6407 35.0893 29.4954 35.0893C29.4954 35.0893 29.4954 35.2345 29.3501 35.2345C29.2048 35.2345 29.0595 35.3798 28.7689 35.3798C28.6236 35.3798 28.3331 35.2345 28.1878 35.0893C27.8972 34.944 27.6066 34.6534 27.4613 34.3628C27.1708 34.0722 26.8802 33.6363 26.5896 33.0552C26.299 32.474 25.8631 31.8929 25.5725 31.0211L25.282 30.44C25.1367 30.1494 24.8461 29.5682 24.5555 28.8418C24.2649 28.1153 23.9744 27.5342 23.6838 26.8077C23.5385 26.5171 23.3932 26.3718 23.2479 26.2265H23.1026C23.1026 26.2265 22.9573 26.0813 22.812 26.0813C22.6667 26.0813 22.5215 25.936 22.3762 25.936H17.1457C16.5646 25.936 16.274 26.0813 16.1287 26.2265L15.9834 26.3718C15.9834 26.3718 15.9834 26.5171 15.9834 26.6624C15.9834 26.8077 15.9834 26.953 16.1287 27.2436C16.8551 28.9871 17.7269 30.7305 18.5986 32.474C19.4704 34.0722 20.3421 35.5251 20.9233 36.5422C21.6497 37.5592 22.2309 38.5762 22.9573 39.448C23.6838 40.3197 24.1196 40.9009 24.2649 41.1914C24.5555 41.482 24.7008 41.6273 24.8461 41.7726L25.282 42.2085C25.5726 42.499 26.0084 42.9349 26.5896 43.3708C27.1707 43.8067 27.8972 44.2425 28.6236 44.6784C29.3501 45.1143 30.2218 45.4049 31.0936 45.6954C32.1106 45.986 32.9823 46.1313 33.8541 45.986H36.0334C36.4693 45.986 36.7599 45.8407 37.0505 45.5501L37.1957 45.4048C37.1957 45.2596 37.341 45.2596 37.341 45.1143C37.341 44.969 37.341 44.8237 37.341 44.5331C37.341 43.952 37.3411 43.5161 37.4863 43.0802C37.6316 42.6443 37.6317 42.3538 37.7769 42.0632C37.9222 41.7726 38.0675 41.6273 38.2128 41.482C38.3581 41.3367 38.5034 41.1914 38.5034 41.1914H38.6486C38.9392 41.0461 39.3751 41.1914 39.6657 41.482C40.1016 41.7726 40.5374 42.2085 40.828 42.6443C41.1186 43.0802 41.5545 43.5161 42.1356 44.0972C42.7168 44.6784 43.1527 45.1143 43.4432 45.2596L43.8791 45.5501C44.1697 45.6954 44.4603 45.8407 44.8961 45.986C45.332 46.1313 45.6226 46.1313 45.9132 46.1313L50.8531 45.986C51.2889 45.986 51.7248 45.8407 52.0154 45.6954C52.3059 45.5501 52.4512 45.4048 52.4512 45.1143C52.4512 44.969 52.4512 44.6784 52.4512 44.5331C52.1606 44.2425 52.1607 44.0972 52.1607 43.9519Z" fill="white"/>
</svg>
