<svg width="70" height="70" viewBox="0 0 70 70" fill="none" xmlns="http://www.w3.org/2000/svg">
<circle cx="35" cy="35" r="35" fill="#F40000"/>
<path d="M50.248 33.098C50.248 32.4192 50.1349 31.6273 50.1349 30.7222C50.0217 29.8172 49.9086 28.9121 49.7955 28.1202C49.5692 27.2151 49.2298 26.5364 48.551 25.9707C47.9854 25.4051 47.1934 25.0656 46.4015 24.9525C43.7995 24.6131 39.953 24.5 34.749 24.5C29.545 24.5 25.5853 24.6131 23.0965 24.9525C22.3045 25.0656 21.5126 25.4051 20.947 25.9707C20.3813 26.5364 19.9288 27.2151 19.7025 28.1202C19.4763 28.9121 19.3631 29.704 19.3631 30.7222C19.25 31.6273 19.25 32.4192 19.25 33.098C19.25 33.7768 19.25 34.5687 19.25 35.7C19.25 36.8313 19.25 37.7364 19.25 38.302C19.25 38.9808 19.3631 39.7727 19.3631 40.6778C19.4763 41.5828 19.5894 42.4879 19.7025 43.2798C19.9288 44.1848 20.2682 44.8636 20.947 45.4293C21.5126 45.995 22.3045 46.3343 23.0965 46.4475C25.6985 46.7869 29.545 46.9 34.749 46.9C39.953 46.9 43.9126 46.7869 46.4015 46.4475C47.1934 46.3343 47.9854 45.995 48.551 45.4293C49.1167 44.8636 49.5692 44.1848 49.7955 43.2798C50.0217 42.4879 50.1349 41.696 50.1349 40.6778C50.248 39.7727 50.248 38.9808 50.248 38.302C50.248 37.6232 50.248 36.8313 50.248 35.7C50.248 34.5687 50.248 33.6636 50.248 33.098ZM40.745 36.605L31.8076 42.1485C31.6945 42.2616 31.4682 42.3748 31.2419 42.3748C31.0157 42.3748 30.9025 42.3747 30.6763 42.2616C30.3369 42.0354 30.1106 41.696 30.1106 41.2434V30.0434C30.1106 29.5909 30.3369 29.2515 30.6763 29.0253C31.0157 28.799 31.4682 28.799 31.8076 29.0253L40.745 34.5687C41.0843 34.7949 41.3106 35.1343 41.3106 35.4737C41.3106 35.8131 41.0843 36.3788 40.745 36.605Z" fill="white"/>
</svg>
