<svg width="135" height="26" fill="none" xmlns="http://www.w3.org/2000/svg"><path d="M1.56.501a.75.75 0 1 0-1.12 1l1.12-1Zm133.009.988a.75.75 0 1 0-1.138-.976l1.138.976ZM3.102 4.056a.75.75 0 1 0 .991-1.126l-.991 1.126Zm6.63 3.279a.75.75 0 1 0-.861 1.229l.86-1.23Zm5.317 5.144a.75.75 0 1 0 .747-1.301l-.747 1.301Zm7.113 2.01a.75.75 0 0 0-.637 1.357l.637-1.358Zm6.076 4.201a.75.75 0 1 0 .532-1.402l-.532 1.402Zm7.338.903a.75.75 0 1 0-.43 1.437l.43-1.437Zm6.616 3.284a.75.75 0 1 0 .33-1.463l-.33 1.462Zm7.39-.108a.75.75 0 0 0-.236 1.482l.236-1.482Zm6.99 2.402a.75.75 0 1 0 .145-1.493l-.144 1.493Zm7.33-1.01a.75.75 0 1 0-.058 1.5l.058-1.5Zm7.25 1.576a.75.75 0 1 0-.028-1.5l.028 1.5Zm7.183-1.853a.75.75 0 1 0 .12 1.495l-.12-1.495Zm7.383.672a.75.75 0 1 0-.218-1.483l.218 1.483Zm6.87-2.776a.75.75 0 1 0 .321 1.465l-.32-1.465Zm7.398-.355a.75.75 0 1 0-.428-1.438l.427 1.438Zm6.397-3.752a.75.75 0 1 0 .536 1.4l-.536-1.4Zm7.253-1.487a.75.75 0 1 0-.648-1.352l.648 1.352Zm5.701-4.733a.75.75 0 0 0 .762 1.292l-.762-1.292Zm6.908-2.724a.75.75 0 0 0-.88-1.215l.88 1.215Zm4.693-5.73a.75.75 0 0 0 1.013 1.106l-1.013-1.107ZM1 1a318.416 318.416 0 0 0-.559.5l.001.001a1.1 1.1 0 0 0 .046.05l.128.138c.112.119.279.292.5.512a43.617 43.617 0 0 0 1.986 1.854l.991-1.126A42.127 42.127 0 0 1 2.176 1.14a23.345 23.345 0 0 1-.61-.632L1.56.502 1.56.501l-.559.5Zm7.87 7.563a81.328 81.328 0 0 0 6.18 3.915l.745-1.301a79.83 79.83 0 0 1-6.064-3.843l-.86 1.229Zm12.655 7.282a95.61 95.61 0 0 0 6.713 2.844l.532-1.402a94.147 94.147 0 0 1-6.608-2.8l-.637 1.358Zm13.621 5.184c2.236.67 4.584 1.29 7.046 1.846l.33-1.463a105.087 105.087 0 0 1-6.946-1.82l-.43 1.437Zm14.2 3.22c2.323.37 4.731.68 7.227.921l.144-1.493a117.424 117.424 0 0 1-7.135-.909l-.236 1.482Zm14.498 1.41c1.198.047 2.414.077 3.648.09l.016-1.499c-1.22-.013-2.421-.043-3.606-.09l-.058 1.5Zm3.648.09c1.238.015 2.458.01 3.66-.012l-.028-1.5a122.69 122.69 0 0 1-3.616.013l-.016 1.5Zm10.963-.37c2.509-.203 4.93-.48 7.263-.823l-.218-1.484c-2.301.338-4.69.612-7.165.81l.12 1.496Zm14.454-2.135a99.747 99.747 0 0 0 7.076-1.82l-.427-1.438a98.34 98.34 0 0 1-6.97 1.793l.321 1.465Zm14.01-4.172a90.27 90.27 0 0 0 6.717-2.887l-.648-1.352a89.088 89.088 0 0 1-6.605 2.839l.536 1.4Zm13.18-6.328a78.228 78.228 0 0 0 6.146-4.016l-.88-1.215a76.64 76.64 0 0 1-6.028 3.939l.762 1.292Zm11.852-8.64a42.87 42.87 0 0 0 1.954-1.897c.218-.226.382-.403.492-.525l.126-.14.033-.039a.217.217 0 0 0 .012-.013l.001-.001L134 1l-.569-.488h-.001a.115.115 0 0 1-.006.007l-.026.03-.112.125c-.101.112-.255.278-.462.493a41.5 41.5 0 0 1-1.886 1.83l1.013 1.107Z" fill="#2795E6"/><path d="M124.05 8.4a.75.75 0 0 0 .901 1.2l-.901-1.2Zm10.7-7.4a.75.75 0 0 0-.75-.75l-6.75.002a.75.75 0 0 0 0 1.5l6-.001.001 6a.75.75 0 1 0 1.5 0L134.75 1Zm-9.799 8.6c1.963-1.474 4.389-3.18 5.988-4.627l-1.006-1.113c-1.531 1.386-3.85 3.015-5.883 4.54l.901 1.2Zm5.988-4.627a95.774 95.774 0 0 0 2.389-2.258c.349-.34.65-.636.863-.847l.249-.247.067-.067.017-.017.005-.005h.001V1.53L134 1l-.53-.53h-.002l-.004.005-.017.016a2.922 2.922 0 0 1-.065.066l-.246.244c-.211.208-.509.501-.855.838a94.021 94.021 0 0 1-2.348 2.22l1.006 1.113Z" fill="#2795E6"/></svg>