<svg width="161" height="51" fill="none" xmlns="http://www.w3.org/2000/svg"><g clip-path="url(#a)"><path d="M71.129 30.724c.958.904 2.007 1.574 3.214 1.972 3.063 1.01 5.861.477 8.307-1.575 4.767-3.997 3.684-11.416-2.017-14.078-5.194-2.426-12.189 1.08-12.103 7.727.054 4.245.014 8.492.03 12.738 0 .295-.105.341-.36.34-1.347-.01-2.695-.015-4.043 0-.328 0-.391-.117-.391-.416.005-4.365-.07-8.732.016-13.096.074-3.76 1.623-6.94 4.443-9.461 2.769-2.474 6.054-3.591 9.799-3.362 5.681.343 10.758 4.53 12.107 10.002a13.118 13.118 0 0 1-1.117 9.287 13.354 13.354 0 0 1-7.041 6.245c-3.561 1.369-7.107 1.191-10.587-.355-.184-.082-.33-.15-.328-.404.01-1.79 0-3.581.006-5.371a.924.924 0 0 1 .065-.193ZM149.45 33.717c0 1.459-.006 2.803 0 4.146 0 .252-.18.276-.337.347-4.238 1.964-9.465.638-12.218-3.097-4.195-5.7-1.36-13.633 5.53-15.473 5.379-1.436 11.18 2.132 12.253 7.535.111.554.157 1.112.217 1.67.028.275-.071.362-.348.362a4532.57 4532.57 0 0 0-12.667 0c-.293 0-.349-.117-.347-.37.01-.933.016-1.866 0-2.797-.007-.317.095-.398.409-.396 2.559.011 5.121.007 7.679 0 .142 0 .339.077.415-.06.09-.156-.111-.255-.202-.356-1.771-1.945-3.953-2.792-6.541-2.083-2.57.704-4.15 2.46-4.665 5.055-.502 2.529.823 5.192 3.144 6.503a6.354 6.354 0 0 0 7.286-.679c.106-.079.208-.158.392-.307ZM133.566 33.657c0 1.48-.006 2.838 0 4.195 0 .242-.169.288-.327.36a9.802 9.802 0 0 1-4.625.872c-4.339-.214-7.978-3.05-9.216-7.167a9.07 9.07 0 0 1-.374-2.623c-.007-5.27-.01-10.537-.01-15.8 0-.313.06-.45.416-.444.957.023 1.916.02 2.874 0 .327-.008.399.11.397.41-.01 2.1 0 4.202-.014 6.306 0 .387.1.504.501.5 1.796-.021 3.593 0 5.39-.017.359 0 .504.07.491.46a48.865 48.865 0 0 0 0 2.706c.006.313-.09.403-.407.4-1.81-.013-3.622 0-5.432-.014-.392 0-.55.07-.539.508.028 1.687-.016 3.375.02 5.062.09 4.166 4.043 7.063 8.102 5.945 1.02-.285 1.913-.814 2.753-1.659ZM117.426 21.142c0 .46-.019.919.006 1.376.016.302-.076.393-.389.423-2.754.26-4.612 1.71-5.643 4.223-.269.665-.359 1.372-.359 2.087-.015 2.418-.815 4.56-2.404 6.388-1.88 2.161-4.293 3.291-7.173 3.454-.284.016-.407-.044-.401-.356.015-.946.013-1.894 0-2.842 0-.266.079-.347.354-.366 3.029-.21 5.398-2.29 5.948-5.25.116-.621.09-1.266.137-1.9.351-4.839 4.55-8.836 9.465-9.033.39-.015.492.096.467.461-.033.446-.009.892-.008 1.335ZM160.998 13.14l-.01 7.9v16.553c0 .191.008.383.012.576-1.119.096-2.24.016-3.361.043-.189.005-.275-.073-.252-.266a2.672 2.672 0 0 0 0-.31c0-8.014-.003-16.028-.01-24.042 0-.42.101-.561.539-.544.866.035 1.735.01 2.605.012.164 0 .334-.04.477.078ZM98.53 29.287c0 2.826-.009 5.652.01 8.478 0 .384-.116.465-.479.456a61.154 61.154 0 0 0-2.739 0c-.288 0-.416-.044-.416-.384.013-5.712.013-11.424 0-17.134 0-.36.112-.459.463-.45.912.02 1.825.02 2.739 0 .338-.009.43.094.429.426-.012 2.867-.007 5.737-.007 8.608ZM98.53 14.823c0 .488-.011.977 0 1.463.009.253-.083.332-.335.329a113.85 113.85 0 0 0-2.917 0c-.309.005-.375-.118-.372-.394.014-.932.016-1.865 0-2.794-.006-.301.11-.377.393-.374.958.012 1.917.012 2.875 0 .27 0 .374.072.36.35-.017.473-.003.947-.003 1.42Z" fill="#2A2B31"/><path d="M51.323 32.165c.69-2.89.45-1.133.094.33-1.313 3.74-3.26 7.095-6.04 9.976a26.161 26.161 0 0 1-7.888 5.6 26.713 26.713 0 0 1-15.73 2.03c-4.082-.734-7.812-2.309-11.155-4.764a26.067 26.067 0 0 1-8.481-10.633A25.749 25.749 0 0 1 .196 21.298c.23-1.753.635-3.478 1.21-5.151A26.271 26.271 0 0 1 3.56 11.4a25.026 25.026 0 0 1 3.626-4.82 27.145 27.145 0 0 1 4.868-4.014c.307-.201.626-.384.955-.547-.326.436-.808.694-1.197 1.06C7.256 7.377 4.61 12.613 3.96 18.8c-.456 4.388.253 8.612 2.084 12.639.905 1.987 2.019 3.846 3.492 5.481.072.094.135.192.19.296.17.204.333.414.514.61 1.677 1.809 3.555 3.38 5.697 4.631 5.05 2.952 10.473 4.206 16.32 3.438 6.084-.8 11.108-3.6 15.225-8.04 1.57-1.695 2.901-3.567 3.841-5.689Z" fill="#1ECDE6"/><path d="M15.513 41.558c-.634-.8-1.288-1.575-1.796-2.464a19.985 19.985 0 0 1-1.707-4.01c-.426-1.361-.684-2.747-.686-4.168.007-1.496.257-2.981.74-4.4a15.916 15.916 0 0 1 2.374-4.514 16.506 16.506 0 0 1 7.085-5.506 13.623 13.623 0 0 1 4.38-.966c.486-.03.98.028 1.47.045.647.099 1.297.186 1.941.303.235.04.478.005.691-.102 1.503-.664 2.464-1.875 3.186-3.256 2.017-3.866-.682-8.881-5.055-9.388-2.438-.283-4.564.365-5.867 2.566-1.01 1.707-1.32 3.496.17 5.174.006.007.529.388.527.403-.051.049-.639-.319-.69-.355-1.407-.934-2.124-2.043-2.057-3.87.137-3.678 4.5-7.732 9.537-6.233 2.637.785 4.205 2.617 5.133 5.054.749 1.963.819 3.98-.049 5.923a8.938 8.938 0 0 1-3.842 4.205c-.09.05-.18.1-.338.193.657.23 1.236.466 1.807.724 2.648 1.195 4.607 3.108 6.036 5.589.857 1.488 1.371 3.094 1.752 4.752s.187 3.265-.213 4.885a8.618 8.618 0 0 1-1.719 3.457c-.791.964-1.83 1.598-3.005 1.99-.934.31-1.902.511-2.9.51-.117 0-.26.02-.354-.089.132-.044.265-.082.4-.114 2.27-.5 3.769-1.893 4.403-4.051 1.543-5.266-.979-9.886-5.84-12.005-3.807-1.65-7.651-1.475-11.338.597-3.101 1.743-4.87 4.43-5.643 7.791-.351 1.53-.184 3.089.133 4.618.523 2.529 1.628 4.77 3.385 6.694.558.61 1.168 1.167 1.765 1.75a20.732 20.732 0 0 1-3.731-1.644" fill="#1ECDE6"/><path d="M15.6 41.647a20.743 20.743 0 0 0 3.73 1.643c-.598-.582-1.206-1.14-1.764-1.75-1.757-1.922-2.862-4.164-3.385-6.693-.317-1.53-.484-3.09-.133-4.618.772-3.362 2.541-6.048 5.642-7.79 3.684-2.072 7.535-2.247 11.34-.589 4.86 2.12 7.383 6.74 5.84 12.005-.63 2.158-2.133 3.553-4.403 4.052-.185.06-.539.156-1.02.26l-.07.009c-.488.089-1.509.262-1.509.262-.239.021-1.326.135-1.563.156.075-.037.73-.168.852-.208 1.94-.525 3.665-1.385 5.009-2.93 1.057-1.215 1.41-2.607 1.32-4.156-.236-3.973-2.994-7.168-6.988-8.094-2.426-.563-4.792-.413-7.03.716-2.8 1.411-4.381 3.763-4.947 6.75-.732 3.864.578 7.135 3.28 9.91 1.395 1.434 2.99 2.63 4.705 3.674.467.285.946.496 1.495.514 1.2.039 2.398.081 3.606.004a30.444 30.444 0 0 0 3.342-.422 22.154 22.154 0 0 0 3.172-.85 23.309 23.309 0 0 0 2.215-.888 28.492 28.492 0 0 0 1.968-1.013 20.082 20.082 0 0 0 3.055-2.063c1.033-.847 2.025-1.73 2.916-2.73A27.218 27.218 0 0 0 48.88 33.4a23.119 23.119 0 0 0 1.597-2.96 26.92 26.92 0 0 0 1.707-5.054 12.7 12.7 0 0 0 .333-2.069h.143c0 .56.057 1.128-.015 1.68-.09.704-.104 1.415-.21 2.117-.188 1.231-.28 1.994-.743 3.676-.166.684-.317 1.172-.317 1.172l-.026.1-.04.122c-.94 2.122-2.26 3.974-3.833 5.67-4.116 4.44-9.14 7.24-15.224 8.04-5.84.768-11.264-.486-16.314-3.438-2.143-1.251-4.02-2.823-5.698-4.632-.18-.195-.343-.406-.513-.609.561.403 1.012.928 1.527 1.38.781.682 1.608 1.296 2.448 1.897.564.417 1.17.774 1.81 1.066M22.97 11.276c.26.114.53.204.808.266 0 0 .906.178.919.173-1.947-.793-2.216-1.414-2.35-2.34-.404-2.789 2.088-5.234 5.037-4.967 2.585.23 4.632 2.08 5.005 4.521.42 2.754-.899 5.133-3.392 6.153-.526.214-1.078.328-1.617.493.648.099 1.297.186 1.942.303.233.039.472.003.683-.102 1.503-.664 2.465-1.875 3.186-3.256 2.018-3.866-.682-8.881-5.054-9.388-2.439-.283-4.565.365-5.868 2.566-1.01 1.707-1.32 3.496.17 5.174.006.007.305.253.305.253" fill="#2A2B31"/></g><defs><clipPath id="a"><path fill="#fff" transform="translate(0 .5)" d="M0 0h161v50H0z"/></clipPath></defs></svg>