<svg width="20" height="20" fill="red" xmlns="http://www.w3.org/2000/svg"><path d="M6.637.813 4.176 3.977c.88.503 1.386 1.313 1.386 2.22 0 .908-.505 1.717-1.386 2.221C2.069 9.621.812 11.634.812 13.803c0 2.169 1.257 4.181 3.364 5.384l2.46-3.163c-.88-.504-1.386-1.313-1.386-2.222 0-.907.506-1.716 1.387-2.22C8.743 10.379 10 8.366 10 6.197 10 4.03 8.743 2.015 6.637.812ZM16.305.813l-2.11 3.164a2.63 2.63 0 0 1 1.189 2.22 2.63 2.63 0 0 1-1.189 2.221 6.459 6.459 0 0 0-2.883 5.385 6.459 6.459 0 0 0 2.883 5.384l2.11-3.163a2.63 2.63 0 0 1-1.189-2.222 2.63 2.63 0 0 1 1.189-2.22 6.459 6.459 0 0 0 2.883-5.385A6.46 6.46 0 0 0 16.305.812Z" fill="#fff"/></svg>