<?xml version="1.0" encoding="utf-8"?><svg viewBox="0 0 492 492" xmlns="http://www.w3.org/2000/svg" xmlns:xlink="http://www.w3.org/1999/xlink"><style>:root>svg{display:none}:root>svg:target{display:block}</style><svg viewBox="0 0 240 305" id="01" xmlns="http://www.w3.org/2000/svg"><path d="M0 16.046c0-8.837 7.163-16 16-16h208c8.837 0 16 7.163 16 16V260.24a16 16 0 01-11.828 15.447l-104 28.093a16 16 0 01-8.344 0l-104-28.093A16.001 16.001 0 010 260.24V16.046z"/></svg><svg viewBox="0 0 260 323" id="02" xmlns="http://www.w3.org/2000/svg"><path d="M0 20C0 8.954 8.954 0 20 0h220c11.046 0 20 8.954 20 20v253.469a19.999 19.999 0 01-14.933 19.347l-110 28.81a19.978 19.978 0 01-10.134 0l-110-28.81A20 20 0 010 273.469V20z"/></svg><svg viewBox="0 0 320 383" id="111" xmlns="http://www.w3.org/2000/svg"><path d="M30 34c0-11.046 8.954-20 20-20h220c11.046 0 20 8.954 20 20v253.469a19.999 19.999 0 01-14.933 19.347l-110 28.81a19.978 19.978 0 01-10.134 0l-110-28.81A20 20 0 0130 287.469V34z"/><path d="M40 39.046c0-8.837 7.163-16 16-16h208c8.837 0 16 7.163 16 16V283.24a16 16 0 01-11.828 15.447l-104 28.093a16 16 0 01-8.344 0l-104-28.093A16.001 16.001 0 0140 283.24V39.046z"/></svg><svg viewBox="0 0 15 20" id="address" xmlns="http://www.w3.org/2000/svg"><path d="M7.5 0C3.365 0 0 3.303 0 7.363c0 1.06.22 2.07.656 3.006 1.875 4.028 5.47 8.281 6.528 9.489a.42.42 0 00.632 0c1.057-1.207 4.652-5.46 6.528-9.49A7.069 7.069 0 0015 7.364C15 3.303 11.635 0 7.5 0zm0 11.188c-2.148 0-3.896-1.716-3.896-3.825S5.352 3.538 7.5 3.538c2.148 0 3.896 1.716 3.896 3.825S9.648 11.188 7.5 11.188z"/><defs><linearGradient id="adpaint0_linear_902:3546" x1="0" y1="0" x2="19.2" y2="14.4" gradientUnits="userSpaceOnUse"><stop stop-color="#55B4F9"/><stop offset="1" stop-color="#2795E6"/></linearGradient></defs></svg><svg viewBox="0 0 320 383" id="bg-photo" xmlns="http://www.w3.org/2000/svg"><g filter="url(#aefilter0_d_367:380)"><path d="M30 34c0-11.046 8.954-20 20-20h220c11.046 0 20 8.954 20 20v253.469a19.999 19.999 0 01-14.933 19.347l-110 28.811a20 20 0 01-10.134 0l-110-28.811A20 20 0 0130 287.469V34z"/></g><g filter="url(#aefilter1_d_367:380)"><path d="M40 39.046c0-8.837 7.163-16 16-16h208c8.837 0 16 7.163 16 16V283.24a16 16 0 01-11.828 15.447l-104 28.093a16 16 0 01-8.344 0l-104-28.093A16.001 16.001 0 0140 283.24V39.046z"/></g><defs><filter id="aefilter0_d_367:380" x="0" y="0" width="320" height="382.279" filterUnits="userSpaceOnUse" color-interpolation-filters="sRGB"><feFlood flood-opacity="0" result="BackgroundImageFix"/><feColorMatrix in="SourceAlpha" values="0 0 0 0 0 0 0 0 0 0 0 0 0 0 0 0 0 0 127 0" result="hardAlpha"/><feOffset dy="16"/><feGaussianBlur stdDeviation="15"/><feColorMatrix values="0 0 0 0 0.235294 0 0 0 0 0.541176 0 0 0 0 1 0 0 0 0.1 0"/><feBlend in2="BackgroundImageFix" result="effect1_dropShadow_367:380"/><feBlend in="SourceGraphic" in2="effect1_dropShadow_367:380" result="shape"/></filter><filter id="aefilter1_d_367:380" x="32" y="18.046" width="256" height="320.287" filterUnits="userSpaceOnUse" color-interpolation-filters="sRGB"><feFlood flood-opacity="0" result="BackgroundImageFix"/><feColorMatrix in="SourceAlpha" values="0 0 0 0 0 0 0 0 0 0 0 0 0 0 0 0 0 0 127 0" result="hardAlpha"/><feOffset dy="3"/><feGaussianBlur stdDeviation="4"/><feColorMatrix values="0 0 0 0 0.235294 0 0 0 0 0.541176 0 0 0 0 1 0 0 0 0.16 0"/><feBlend in2="BackgroundImageFix" result="effect1_dropShadow_367:380"/><feBlend in="SourceGraphic" in2="effect1_dropShadow_367:380" result="shape"/></filter></defs></svg><svg viewBox="0 0 16 16" id="certificate" xmlns="http://www.w3.org/2000/svg"><g clip-path="url(#afclip0_1109:1218)"><path d="M14.11 8.117a2.113 2.113 0 00-2.59-2.054 2.116 2.116 0 00-1.59 1.648A2.112 2.112 0 0012 10.227c1.164 0 2.11-.946 2.11-2.11z"/><path d="M15.531 1.765H.47a.469.469 0 00-.47.469v9.414c0 .258.21.469.469.469h8.478c0-4.33-.004-4.024.007-4.013A3.05 3.05 0 0112 5.07a3.05 3.05 0 013.047 3.034c.01-.01.007-.315.007 4.013h.476a.47.47 0 00.469-.47V2.235a.469.469 0 00-.469-.47zM7.53 8.35H2.351a.469.469 0 010-.938H7.53a.469.469 0 110 .938zm0-1.883H2.351a.469.469 0 110-.938H7.53a.469.469 0 110 .938zm6.12-1.883H2.35a.469.469 0 010-.937h11.297a.469.469 0 110 .937z"/><path d="M9.885 10.308v3.457c0 .38.43.603.741.382l1.375-.982 1.375.982a.47.47 0 00.742-.382v-3.457a3.042 3.042 0 01-4.233 0z"/></g><defs><linearGradient id="afpaint0_linear_1109:1218" x1="9.891" y1="6.007" x2="14.111" y2="10.227" gradientUnits="userSpaceOnUse"><stop stop-color="#55B4F9"/><stop offset="1" stop-color="#2795E6"/></linearGradient><linearGradient id="afpaint1_linear_1109:1218" x1="0" y1="1.765" x2="9.442" y2="16.359" gradientUnits="userSpaceOnUse"><stop stop-color="#55B4F9"/><stop offset="1" stop-color="#2795E6"/></linearGradient><linearGradient id="afpaint2_linear_1109:1218" x1="9.885" y1="10.308" x2="13.801" y2="14.529" gradientUnits="userSpaceOnUse"><stop stop-color="#55B4F9"/><stop offset="1" stop-color="#2795E6"/></linearGradient><clipPath id="afclip0_1109:1218"><path d="M0 0h16v16H0z"/></clipPath></defs></svg><svg viewBox="0 0 9 7" id="check" xmlns="http://www.w3.org/2000/svg"><path d="M8.616.441A1.395 1.395 0 006.6.422L3.82 3.256a.362.362 0 01-.52 0l-.899-.918a1.394 1.394 0 00-2.017.02c-.54.57-.499 1.49.051 2.052l2.126 2.168a1.394 1.394 0 001.999 0l4.004-4.084c.55-.561.592-1.481.052-2.053z"/></svg><svg viewBox="0 0 492 492" id="close" xmlns="http://www.w3.org/2000/svg"><path d="M300.188 246L484.14 62.04c5.06-5.064 7.852-11.82 7.86-19.024 0-7.208-2.792-13.972-7.86-19.028L468.02 7.872C462.952 2.796 456.196.016 448.984.016c-7.2 0-13.956 2.78-19.024 7.856L246.008 191.82 62.048 7.872C56.988 2.796 50.228.016 43.02.016c-7.2 0-13.96 2.78-19.02 7.856L7.872 23.988c-10.496 10.496-10.496 27.568 0 38.052L191.828 246 7.872 429.952C2.808 435.024.02 441.78.02 448.984c0 7.204 2.788 13.96 7.852 19.028l16.124 16.116c5.06 5.072 11.824 7.856 19.02 7.856 7.208 0 13.968-2.784 19.028-7.856l183.96-183.952 183.952 183.952c5.068 5.072 11.824 7.856 19.024 7.856h.008c7.204 0 13.96-2.784 19.028-7.856l16.12-16.116c5.06-5.064 7.852-11.824 7.852-19.028 0-7.204-2.792-13.96-7.852-19.028L300.188 246z"/></svg><svg viewBox="0 0 16 16" id="cogwheel" xmlns="http://www.w3.org/2000/svg"><g clip-path="url(#aiclip0_1109:729)"><path d="M15.309 9.784l-.003-.003-1.025-.942c.035-.284.053-.565.053-.839s-.018-.555-.053-.84l1.028-.944c.34-.32.417-.826.187-1.237l-1.132-1.956a1.004 1.004 0 00-1.17-.454l-1.331.42a6.097 6.097 0 00-1.45-.842L10.106.78A1.005 1.005 0 009.134 0H6.867c-.463 0-.871.329-.972.78l-.307 1.367c-.512.208-1 .49-1.45.842l-1.332-.42a1 1 0 00-1.167.45L.503 4.983c-.228.407-.15.914.192 1.236l1.025.942a6.815 6.815 0 000 1.678l-1.028.945a1.01 1.01 0 00-.187 1.236l1.131 1.956c.227.404.719.595 1.17.455l1.332-.42c.45.352.938.634 1.45.842l.307 1.366c.1.452.51.781.972.781h2.267c.462 0 .87-.329.972-.78l.307-1.367c.512-.208.999-.49 1.45-.842l1.332.42a1 1 0 001.167-.451l1.136-1.964a1.01 1.01 0 00-.19-1.232zM8 11.334A3.337 3.337 0 014.667 8 3.337 3.337 0 018 4.667 3.337 3.337 0 0111.334 8 3.337 3.337 0 018 11.333z"/></g><defs><linearGradient id="aipaint0_linear_1109:729" x1=".373" y1="0" x2="16.355" y2="15.237" gradientUnits="userSpaceOnUse"><stop stop-color="#55B4F9"/><stop offset="1" stop-color="#2795E6"/></linearGradient><clipPath id="aiclip0_1109:729"><path d="M0 0h16v16H0z"/></clipPath></defs></svg><svg viewBox="0 0 16 12" id="email" xmlns="http://www.w3.org/2000/svg"><path d="M14.571 12c.36 0 .672-.113.937-.337l-4.533-4.327c-.11.074-.215.146-.314.215-.34.239-.615.425-.826.558-.212.134-.493.27-.844.41a2.68 2.68 0 01-.982.208H7.99c-.304 0-.63-.07-.982-.209a5.168 5.168 0 01-.844-.409c-.211-.133-.487-.32-.826-.558a39.21 39.21 0 00-.313-.216L.492 11.663c.265.224.577.337.937.337H14.57zM.902 4.61A4.68 4.68 0 010 3.87v6.583l3.995-3.814A298.697 298.697 0 00.902 4.61zm14.205 0a263.16 263.16 0 00-3.1 2.03L16 10.453V3.869a4.87 4.87 0 01-.893.742z"/><path d="M14.571 0H1.43C.97 0 .618.148.37.443.124.738 0 1.108 0 1.551c0 .358.163.746.49 1.163a4.34 4.34 0 001.045.985c.202.136.812.541 1.83 1.214a594.837 594.837 0 012.34 1.556l.133.09.246.17a10.116 10.116 0 00.947.601c.181.102.352.179.513.23.16.05.31.076.446.076h.018c.137 0 .286-.025.447-.076.16-.051.331-.128.513-.23a10.592 10.592 0 00.946-.601 54.907 54.907 0 01.38-.26l.903-.6 3.276-2.17c.434-.29.797-.64 1.089-1.048.291-.41.437-.838.437-1.287A1.28 1.28 0 0015.576.4 1.414 1.414 0 0014.57 0z"/></svg><svg viewBox="0 0 17 12" id="email-mob" xmlns="http://www.w3.org/2000/svg"><path d="M15.482 12c.382 0 .713-.113.995-.337L11.66 7.336a85.53 85.53 0 00-.333.215c-.36.239-.653.425-.878.558-.224.134-.523.27-.896.41a3 3 0 01-1.044.208H8.49c-.322 0-.67-.07-1.043-.209a5.64 5.64 0 01-.897-.409c-.224-.133-.517-.32-.877-.558a23.83 23.83 0 00-.333-.216L.523 11.663c.281.224.613.337.995.337h13.964zM.958 4.61A4.921 4.921 0 010 3.87v6.583l4.245-3.814A321.87 321.87 0 00.958 4.61zm15.093 0c-1.292.787-2.39 1.463-3.294 2.03L17 10.453V3.869c-.272.273-.588.52-.949.742z"/><path d="M15.482 0H1.518C1.03 0 .656.148.394.443.13.738 0 1.108 0 1.551c0 .358.174.746.522 1.163.348.418.718.746 1.11.985.215.136.863.541 1.945 1.214A638.46 638.46 0 016.062 6.47l.142.09.261.17c.206.133.377.241.513.324.135.082.3.174.493.277.193.102.375.179.545.23.171.05.33.076.475.076h.019c.145 0 .303-.025.474-.076a3.03 3.03 0 00.546-.23 11.614 11.614 0 001.005-.601 60.514 60.514 0 01.403-.26l.96-.6 3.48-2.17c.462-.29.848-.64 1.157-1.048.31-.41.465-.838.465-1.287 0-.375-.15-.696-.45-.964a1.56 1.56 0 00-1.068-.4z"/><defs><linearGradient id="akpaint0_linear_902:3543" x1="0" y1="0" x2="11.307" y2="16.018" gradientUnits="userSpaceOnUse"><stop stop-color="#55B4F9"/><stop offset="1" stop-color="#2795E6"/></linearGradient><linearGradient id="akpaint1_linear_902:3543" x1="0" y1="0" x2="11.307" y2="16.018" gradientUnits="userSpaceOnUse"><stop stop-color="#55B4F9"/><stop offset="1" stop-color="#2795E6"/></linearGradient><linearGradient id="akpaint2_linear_902:3543" x1="0" y1="0" x2="11.307" y2="16.018" gradientUnits="userSpaceOnUse"><stop stop-color="#55B4F9"/><stop offset="1" stop-color="#2795E6"/></linearGradient><linearGradient id="akpaint3_linear_902:3543" x1="0" y1="0" x2="11.307" y2="16.018" gradientUnits="userSpaceOnUse"><stop stop-color="#55B4F9"/><stop offset="1" stop-color="#2795E6"/></linearGradient></defs></svg><svg viewBox="0 0 33 28" id="email-s" xmlns="http://www.w3.org/2000/svg"><g filter="url(#alfilter0_d_902:3543)"><path d="M23.482 14c.382 0 .713-.113.995-.337L19.66 9.336a85.53 85.53 0 00-.333.215c-.36.239-.653.425-.878.558-.224.134-.523.27-.896.41a3 3 0 01-1.044.208h-.019c-.322 0-.67-.07-1.043-.209a5.64 5.64 0 01-.897-.409c-.224-.133-.517-.32-.877-.558a41.83 41.83 0 00-.333-.216l-4.817 4.328c.281.224.613.337.995.337h13.964zM8.958 6.61A4.92 4.92 0 018 5.87v6.583l4.245-3.814c-.85-.533-1.943-1.208-3.287-2.028zm15.093 0c-1.292.787-2.39 1.463-3.294 2.03L25 12.453V5.869c-.272.273-.588.52-.949.742z"/><path d="M23.482 2H9.518c-.487 0-.862.148-1.124.443C8.13 2.738 8 3.108 8 3.551c0 .358.174.746.522 1.163.348.418.718.746 1.11.985.215.136.863.541 1.945 1.214a625.86 625.86 0 012.627 1.646l.261.17c.206.133.377.241.513.324.135.082.3.174.493.277.193.102.375.179.546.23.17.05.328.076.474.076h.019c.145 0 .303-.025.474-.076a3.03 3.03 0 00.545-.23 11.114 11.114 0 001.006-.601 60.514 60.514 0 01.403-.26l.96-.6 3.48-2.17c.462-.29.848-.64 1.157-1.048.31-.41.465-.838.465-1.287 0-.375-.15-.696-.45-.964a1.56 1.56 0 00-1.068-.4z"/></g><defs><linearGradient id="alpaint0_linear_902:3543" x1="8" y1="2" x2="19.307" y2="18.018" gradientUnits="userSpaceOnUse"><stop stop-color="#55B4F9"/><stop offset="1" stop-color="#2795E6"/></linearGradient><linearGradient id="alpaint1_linear_902:3543" x1="8" y1="2" x2="19.307" y2="18.018" gradientUnits="userSpaceOnUse"><stop stop-color="#55B4F9"/><stop offset="1" stop-color="#2795E6"/></linearGradient><linearGradient id="alpaint2_linear_902:3543" x1="8" y1="2" x2="19.307" y2="18.018" gradientUnits="userSpaceOnUse"><stop stop-color="#55B4F9"/><stop offset="1" stop-color="#2795E6"/></linearGradient><linearGradient id="alpaint3_linear_902:3543" x1="8" y1="2" x2="19.307" y2="18.018" gradientUnits="userSpaceOnUse"><stop stop-color="#55B4F9"/><stop offset="1" stop-color="#2795E6"/></linearGradient><filter id="alfilter0_d_902:3543" x="0" y="0" width="33" height="28" filterUnits="userSpaceOnUse" color-interpolation-filters="sRGB"><feFlood flood-opacity="0" result="BackgroundImageFix"/><feColorMatrix in="SourceAlpha" values="0 0 0 0 0 0 0 0 0 0 0 0 0 0 0 0 0 0 127 0" result="hardAlpha"/><feOffset dy="6"/><feGaussianBlur stdDeviation="4"/><feColorMatrix values="0 0 0 0 0.333333 0 0 0 0 0.705882 0 0 0 0 0.976471 0 0 0 0.6 0"/><feBlend in2="BackgroundImageFix" result="effect1_dropShadow_902:3543"/><feBlend in="SourceGraphic" in2="effect1_dropShadow_902:3543" result="shape"/></filter></defs></svg><svg viewBox="0 0 16 16" id="file" xmlns="http://www.w3.org/2000/svg"><path d="M13.665 1.81h-.467v11.494c0 .764-.622 1.385-1.386 1.385h-8.51v.427c0 .487.397.883.885.883h9.477a.884.884 0 00.883-.883V2.694a.883.883 0 00-.882-.883z"/><path d="M13.665 1.81h-.467v11.494c0 .764-.622 1.385-1.386 1.385h-8.51v.427c0 .487.397.883.885.883h9.477a.884.884 0 00.883-.883V2.694a.883.883 0 00-.882-.883z"/><path d="M7.072 14.189h4.738a.884.884 0 00.884-.884V.884A.884.884 0 0011.81 0H5.496v.292a.86.86 0 01.005.094v2.421c0 .687-.558 1.245-1.244 1.245H1.835a.967.967 0 01-.076-.004H1.45v9.257c0 .488.396.884.884.884h4.737zm.179-3.004H4.16a.418.418 0 010-.836h3.091a.418.418 0 11-.001.836zm3.09-2.132h-6.18a.418.418 0 010-.836h6.18a.418.418 0 010 .836zm-6.18-3.1h6.18a.418.418 0 010 .836h-6.18a.418.418 0 010-.836z"/><path d="M7.072 14.189h4.738a.884.884 0 00.884-.884V.884A.884.884 0 0011.81 0H5.496v.292a.86.86 0 01.005.094v2.421c0 .687-.558 1.245-1.244 1.245H1.835a.967.967 0 01-.076-.004H1.45v9.257c0 .488.396.884.884.884h4.737zm.179-3.004H4.16a.418.418 0 010-.836h3.091a.418.418 0 11-.001.836zm3.09-2.132h-6.18a.418.418 0 010-.836h6.18a.418.418 0 010 .836zm-6.18-3.1h6.18a.418.418 0 010 .836h-6.18a.418.418 0 010-.836z"/><path d="M1.834 3.55h2.428a.742.742 0 00.735-.735V.385a.372.372 0 00-.635-.262L1.57 2.915a.372.372 0 00.264.635z"/><path d="M1.834 3.55h2.428a.742.742 0 00.735-.735V.385a.372.372 0 00-.635-.262L1.57 2.915a.372.372 0 00.264.635z"/><defs><linearGradient id="ampaint0_linear_331:863" x1="3.303" y1="1.811" x2="17.116" y2="12.758" gradientUnits="userSpaceOnUse"><stop stop-color="#55B4F9"/><stop offset="1" stop-color="#2795E6"/></linearGradient><linearGradient id="ampaint1_linear_331:863" x1="1.451" y1="0" x2="15.264" y2="10.945" gradientUnits="userSpaceOnUse"><stop stop-color="#55B4F9"/><stop offset="1" stop-color="#2795E6"/></linearGradient><linearGradient id="ampaint2_linear_331:863" x1="1.461" y1=".013" x2="4.998" y2="3.549" gradientUnits="userSpaceOnUse"><stop stop-color="#55B4F9"/><stop offset="1" stop-color="#2795E6"/></linearGradient></defs></svg><svg viewBox="0 0 16 16" id="guarantee" xmlns="http://www.w3.org/2000/svg"><g clip-path="url(#anclip0_1109:46)"><path d="M15.133 6.732c-.187-.155-.47-.388-.503-.509-.036-.135.091-.477.184-.727.18-.483.385-1.031.115-1.497-.273-.472-.855-.57-1.368-.655-.245-.04-.614-.102-.709-.196-.094-.095-.156-.464-.197-.709-.085-.513-.182-1.095-.654-1.368-.466-.27-1.014-.065-1.497.115-.25.093-.592.22-.727.184-.121-.032-.354-.316-.509-.503C8.934.46 8.556 0 8 0s-.934.46-1.268.867c-.155.187-.388.47-.509.503-.136.036-.477-.091-.727-.184C5.013 1.006 4.465.8 4 1.07c-.472.273-.57.855-.655 1.368-.04.245-.102.614-.196.709-.095.094-.464.156-.709.196-.513.086-1.095.183-1.368.655-.27.466-.065 1.014.115 1.497.093.25.22.592.184.727-.032.121-.316.354-.503.509C.46 7.066 0 7.444 0 8s.46.934.867 1.268c.187.155.47.388.503.509.036.135-.091.477-.184.727-.18.483-.385 1.031-.115 1.497.273.472.855.57 1.368.655.245.04.614.102.709.196.094.095.156.464.196.709.086.513.183 1.095.655 1.368.466.27 1.014.065 1.497-.115.25-.093.592-.22.727-.184.121.032.354.316.509.503.334.406.712.867 1.268.867s.934-.46 1.268-.867c.155-.187.388-.47.509-.503.136-.036.477.091.727.184.483.18 1.031.385 1.497.115.472-.273.57-.855.655-1.368.04-.245.102-.614.196-.709.095-.094.464-.156.709-.197.513-.085 1.095-.182 1.368-.654.27-.466.065-1.014-.115-1.497-.093-.25-.22-.592-.184-.727.032-.121.316-.354.503-.509C15.54 8.934 16 8.556 16 8s-.46-.934-.867-1.268zm-3.687.16l-2.77 3.693a1.23 1.23 0 01-1.854.131L4.976 8.87a1.231 1.231 0 011.74-1.74l.843.842 1.918-2.557a1.227 1.227 0 011.723-.246 1.227 1.227 0 01.246 1.723z"/><path d="M15.133 6.732c-.187-.155-.47-.388-.503-.509-.036-.135.091-.477.184-.727.18-.483.385-1.031.115-1.497-.273-.472-.855-.57-1.368-.655-.245-.04-.614-.102-.709-.196-.094-.095-.156-.464-.197-.709-.085-.513-.182-1.095-.654-1.368-.466-.27-1.014-.065-1.497.115-.25.093-.592.22-.727.184-.121-.032-.354-.316-.509-.503C8.934.46 8.556 0 8 0s-.934.46-1.268.867c-.155.187-.388.47-.509.503-.136.036-.477-.091-.727-.184C5.013 1.006 4.465.8 4 1.07c-.472.273-.57.855-.655 1.368-.04.245-.102.614-.196.709-.095.094-.464.156-.709.196-.513.086-1.095.183-1.368.655-.27.466-.065 1.014.115 1.497.093.25.22.592.184.727-.032.121-.316.354-.503.509C.46 7.066 0 7.444 0 8s.46.934.867 1.268c.187.155.47.388.503.509.036.135-.091.477-.184.727-.18.483-.385 1.031-.115 1.497.273.472.855.57 1.368.655.245.04.614.102.709.196.094.095.156.464.196.709.086.513.183 1.095.655 1.368.466.27 1.014.065 1.497-.115.25-.093.592-.22.727-.184.121.032.354.316.509.503.334.406.712.867 1.268.867s.934-.46 1.268-.867c.155-.187.388-.47.509-.503.136-.036.477.091.727.184.483.18 1.031.385 1.497.115.472-.273.57-.855.655-1.368.04-.245.102-.614.196-.709.095-.094.464-.156.709-.197.513-.085 1.095-.182 1.368-.654.27-.466.065-1.014-.115-1.497-.093-.25-.22-.592-.184-.727.032-.121.316-.354.503-.509C15.54 8.934 16 8.556 16 8s-.46-.934-.867-1.268zm-3.687.16l-2.77 3.693a1.23 1.23 0 01-1.854.131L4.976 8.87a1.231 1.231 0 011.74-1.74l.843.842 1.918-2.557a1.227 1.227 0 011.723-.246 1.227 1.227 0 01.246 1.723z"/></g><defs><linearGradient id="anpaint0_linear_1109:46" x1="0" y1="0" x2="16" y2="16" gradientUnits="userSpaceOnUse"><stop stop-color="#55B4F9"/><stop offset="1" stop-color="#2795E6"/></linearGradient><clipPath id="anclip0_1109:46"><path d="M0 0h16v16H0z"/></clipPath></defs></svg><svg viewBox="0 0 16 16" id="insta" xmlns="http://www.w3.org/2000/svg"><g filter="url(#aofilter0_i_331:2348)"><path d="M8 10.717A2.715 2.715 0 015.282 8c0-1.5 1.212-2.717 2.718-2.717A2.725 2.725 0 0110.718 8c0 1.5-1.213 2.717-2.718 2.717z"/><path fill-rule="evenodd" clip-rule="evenodd" d="M0 4.613A4.613 4.613 0 014.613 0h6.774A4.613 4.613 0 0116 4.613v6.774A4.613 4.613 0 0111.387 16H4.613A4.613 4.613 0 010 11.387V4.613zm8-.769a4.156 4.156 0 100 8.311 4.156 4.156 0 000-8.311zm3.613-.56c0-.535.424-.96.96-.96.533 0 .96.425.96.96a.953.953 0 01-.96.958.953.953 0 01-.96-.958z"/></g><defs><filter id="aofilter0_i_331:2348" x="0" y="0" width="16" height="17" filterUnits="userSpaceOnUse" color-interpolation-filters="sRGB"><feFlood flood-opacity="0" result="BackgroundImageFix"/><feBlend in="SourceGraphic" in2="BackgroundImageFix" result="shape"/><feColorMatrix in="SourceAlpha" values="0 0 0 0 0 0 0 0 0 0 0 0 0 0 0 0 0 0 127 0" result="hardAlpha"/><feOffset dy="1"/><feGaussianBlur stdDeviation=".5"/><feComposite in2="hardAlpha" operator="arithmetic" k2="-1" k3="1"/><feColorMatrix values="0 0 0 0 0.227451 0 0 0 0 0.227451 0 0 0 0 0.227451 0 0 0 0.2 0"/><feBlend in2="shape" result="effect1_innerShadow_331:2348"/></filter></defs></svg><svg viewBox="0 0 16 16" id="person" xmlns="http://www.w3.org/2000/svg"><path d="M8 0c2.21 0 4 1.79 4 4s-1.79 4-4 4-4-1.79-4-4 1.79-4 4-4zm0 16s8 0 8-2c0-2.4-3.9-5-8-5s-8 2.6-8 5c0 2 8 2 8 2z"/></svg><svg viewBox="0 0 34 34" id="phone" xmlns="http://www.w3.org/2000/svg"><g filter="url(#aqfilter0_d_902:3552)"><path d="M20 14.793l1.55-1.551a1.514 1.514 0 011.62-.332l1.889.754A1.51 1.51 0 0126 15.05v3.46A1.503 1.503 0 0124.422 20C11.185 19.173 8.514 7.96 8.01 3.668A1.503 1.503 0 019.511 2h3.342a1.494 1.494 0 011.384.941l.754 1.89a1.496 1.496 0 01-.325 1.62l-1.55 1.55s.893 6.044 6.885 6.792z"/></g><defs><linearGradient id="aqpaint0_linear_902:3552" x1="8" y1="2" x2="26" y2="20" gradientUnits="userSpaceOnUse"><stop stop-color="#55B4F9"/><stop offset="1" stop-color="#2795E6"/></linearGradient><filter id="aqfilter0_d_902:3552" x="0" y="0" width="34" height="34" filterUnits="userSpaceOnUse" color-interpolation-filters="sRGB"><feFlood flood-opacity="0" result="BackgroundImageFix"/><feColorMatrix in="SourceAlpha" values="0 0 0 0 0 0 0 0 0 0 0 0 0 0 0 0 0 0 127 0" result="hardAlpha"/><feOffset dy="6"/><feGaussianBlur stdDeviation="4"/><feColorMatrix values="0 0 0 0 0.333333 0 0 0 0 0.705882 0 0 0 0 0.976471 0 0 0 0.6 0"/><feBlend in2="BackgroundImageFix" result="effect1_dropShadow_902:3552"/><feBlend in="SourceGraphic" in2="effect1_dropShadow_902:3552" result="shape"/></filter></defs></svg><svg viewBox="0 0 18 24" id="play" xmlns="http://www.w3.org/2000/svg"><path d="M16.442 10.383a2 2 0 010 3.235L3.51 23.023c-1.322.962-3.176.017-3.176-1.617V2.594C.333.96 2.187.015 3.509.977l12.933 9.406z"/></svg><svg viewBox="0 0 24 24" id="press" xmlns="http://www.w3.org/2000/svg"><g clip-path="url(#asclip0)" fill-opacity=".6"><path d="M21.665 11.928a2.305 2.305 0 00-3.325-2.062 2.306 2.306 0 00-2.175-1.549 2.29 2.29 0 00-1.231.358 2.303 2.303 0 00-2.864-.926V4.996c0-1.224-.996-2.22-2.22-2.22-1.224 0-2.22.996-2.22 2.22v7.164a3.103 3.103 0 00-1.937-1.372 3.104 3.104 0 00-2.36.397l-.669.418a.703.703 0 00-.243.935c.03.054 2.99 5.434 4.19 8.007l.062.13c.484 1 1.241 1.84 2.191 2.43A5.96 5.96 0 0012.01 24h3.565a6.007 6.007 0 004.254-1.75 6.007 6.007 0 001.79-4.237l.046-4.898V11.928zm-2.826 9.323a4.61 4.61 0 01-3.264 1.343H12.01c-1.73 0-3.328-.994-4.07-2.531a9.417 9.417 0 01-.054-.113c-.997-2.136-3.106-6.03-3.914-7.507l.107-.067c.39-.244.85-.321 1.298-.218.448.104.829.375 1.072.765l1.287 2.064a.703.703 0 001.3-.372V4.996a.815.815 0 011.628 0v8.113a.703.703 0 001.406 0v-3.24a.897.897 0 011.792 0v3.24a.703.703 0 001.406 0v-2.49a.897.897 0 011.793 0v2.49a.703.703 0 001.406 0v-1.181a.897.897 0 011.792 0v1.177L20.213 18a4.61 4.61 0 01-1.374 3.251z"/><path d="M5.385 5.848a.703.703 0 00.703-.703 3.743 3.743 0 013.738-3.739 3.743 3.743 0 013.74 3.739.703.703 0 001.405 0A5.15 5.15 0 009.826 0a5.15 5.15 0 00-5.144 5.145c0 .388.314.703.703.703z"/></g><defs><clipPath id="asclip0"><path d="M0 0h24v24H0z"/></clipPath></defs></svg><svg viewBox="0 0 20 20" id="problem1" xmlns="http://www.w3.org/2000/svg"><path d="M6.637.813L4.176 3.977c.88.503 1.386 1.313 1.386 2.22 0 .908-.505 1.717-1.386 2.221C2.069 9.621.812 11.634.812 13.803c0 2.169 1.257 4.181 3.364 5.384l2.46-3.163c-.88-.504-1.386-1.313-1.386-2.222 0-.907.506-1.716 1.387-2.22C8.743 10.379 10 8.366 10 6.197 10 4.03 8.743 2.015 6.637.812zm9.668 0l-2.11 3.164a2.63 2.63 0 011.189 2.22 2.63 2.63 0 01-1.189 2.221 6.459 6.459 0 00-2.883 5.385 6.459 6.459 0 002.883 5.384l2.11-3.163a2.63 2.63 0 01-1.189-2.222 2.63 2.63 0 011.189-2.22 6.459 6.459 0 002.883-5.385A6.46 6.46 0 0016.305.812z"/></svg><svg viewBox="0 0 22 22" id="problem2" xmlns="http://www.w3.org/2000/svg"><g clip-path="url(#auclip0_326:252)"><path d="M21.44 9.411L19.247 5a4.962 4.962 0 00-3.074-2.56 4.935 4.935 0 00-3.936.55 2.336 2.336 0 01-2.477 0 4.929 4.929 0 00-3.936-.55A4.955 4.955 0 002.75 5L.56 9.411a.705.705 0 00.083.71c1.759 2.12 3.55 3.712 5.317 4.73a.651.651 0 00.656-.002.655.655 0 00.328-.568v-2.387a.656.656 0 00-.452-.623l-.685-.22c-1.252-.4-2.445-.8-3.635-1.495l1.21-1.32A4.49 4.49 0 018.575 7.19a5.816 5.816 0 004.848 0 4.487 4.487 0 015.192 1.044l1.21 1.321c-1.188.694-2.382 1.095-3.635 1.495l-.684.22a.656.656 0 00-.452.623v2.387a.656.656 0 00.983.57c1.768-1.019 3.559-2.61 5.317-4.73a.7.7 0 00.086-.71z"/><path d="M11 19.75a5.255 5.255 0 01-5.25-5.25V11a2.628 2.628 0 012.625-2.625h.875c.672 0 1.285.254 1.75.67a2.614 2.614 0 011.75-.67h.875A2.628 2.628 0 0116.25 11v3.5A5.255 5.255 0 0111 19.75zm-2.625-9.625A.876.876 0 007.5 11v3.5c0 1.93 1.57 3.5 3.5 3.5s3.5-1.57 3.5-3.5V11a.876.876 0 00-.875-.875h-.875a.876.876 0 00-.875.875v2.625a.875.875 0 11-1.75 0V11a.876.876 0 00-.875-.875h-.875z"/></g><defs><clipPath id="auclip0_326:252"><path transform="translate(.5 .5)" d="M0 0h21v21H0z"/></clipPath></defs></svg><svg viewBox="0 0 16 22" id="problem3" xmlns="http://www.w3.org/2000/svg"><path d="M8 .5S.125 8 .125 14c0 4.142 3.526 7.5 7.875 7.5 4.35 0 7.875-3.358 7.875-7.5C15.875 8 8 .5 8 .5zM2.75 14.046c0-2.791 2.75-6.791 5.25-9.609v14.438c-2.895 0-5.25-2.166-5.25-4.83z"/></svg><svg viewBox="0 0 18 22" id="problem4" xmlns="http://www.w3.org/2000/svg"><path d="M16.882.83A.872.872 0 0016.22.5H1.78a.873.873 0 00-.663.33.842.842 0 00-.21.693l2.557 19.195a.933.933 0 00.903.782h9.266a.933.933 0 00.903-.782l2.557-19.195a.842.842 0 00-.21-.692zm-2.587 8.034l-.752-.301a4.964 4.964 0 00-2.467-.602 4.963 4.963 0 00-2.467.602c-.52.27-1.1.406-1.685.391a3.55 3.55 0 01-1.685-.391 4.422 4.422 0 00-1.655-.542l-.752-5.716h12.335l-.872 6.559z"/></svg><svg viewBox="0 0 22 22" id="problem5" xmlns="http://www.w3.org/2000/svg"><g clip-path="url(#axclip0_326:226)"><path d="M13.625 2.25h-5.25a.875.875 0 010-1.75h5.25a.875.875 0 010 1.75z"/><path d="M15.741 21.5H7.038c-2.736 0-4.658-1.464-4.782-3.643a3.855 3.855 0 01.644-2.378l5.013-7.287c.301-.44.461-.955.461-1.488V1.813a.875.875 0 011.75 0v4.89c0 .89-.266 1.748-.77 2.48L4.349 16.46c-.25.375-.372.827-.346 1.297.07 1.21 1.26 1.993 3.035 1.993h8.704c1.18 0 2.192-.893 2.254-1.992a2.11 2.11 0 00-.353-1.308l-4.998-7.266a4.356 4.356 0 01-.77-2.48V1.813a.875.875 0 011.75 0v4.89c0 .534.16 1.049.461 1.488l5.005 7.277c.477.714.7 1.536.651 2.388-.115 2.044-1.873 3.644-4 3.644z"/><path d="M15.24 18H6.76c-.557 0-1.01-.435-1.01-.969a.935.935 0 01.234-.62l2.474-3.224a.656.656 0 01.487-.256 1.14 1.14 0 00.433-.103l.546-.272a2.532 2.532 0 012.15-.003l.556.277c.115.056.268.092.426.101.192.01.37.103.488.256l2.473 3.224a.947.947 0 01.233.62c0 .534-.453.969-1.01.969z"/></g><defs><clipPath id="axclip0_326:226"><path transform="translate(.5 .5)" d="M0 0h21v21H0z"/></clipPath></defs></svg><svg viewBox="0 0 22 22" id="problem6" xmlns="http://www.w3.org/2000/svg"><g clip-path="url(#ayclip0_326:234)"><path d="M12.313 9.163c0 .398.211.76.544.939l3.937 2.1a.931.931 0 00.817.03 1.03 1.03 0 00.558-.637l1.968-6.3a1.102 1.102 0 00-.238-1.074l-1.969-2.1a.937.937 0 00-1.136-.197l-3.937 2.1a1.062 1.062 0 00-.544.939v4.2zm-3.177 3.599l-2.953 3.062a1.56 1.56 0 00-.433 1.083v3.062c0 .846.66 1.531 1.477 1.531h5.906a1.45 1.45 0 001.044-.449l2.953-3.062a1.557 1.557 0 00.414-1.328 1.535 1.535 0 00-.797-1.124l-5.907-3.062a1.435 1.435 0 00-1.704.287zm-5.873-2.488c.223.445.677.726 1.174.726h2.625c.497 0 .951-.28 1.174-.726l2.625-5.25a1.31 1.31 0 00-.246-1.515L7.99.885a1.312 1.312 0 00-1.856 0l-2.24 2.24H1.812a1.314 1.314 0 00-1.174 1.9l2.625 5.25z"/></g><defs><clipPath id="ayclip0_326:234"><path transform="translate(.5 .5)" d="M0 0h21v21H0z"/></clipPath></defs></svg><svg viewBox="0 0 15 7" id="scroll-top" xmlns="http://www.w3.org/2000/svg"><path d="M14.323 6.86L6.958 1.352 7.42.312l7.366 5.508-.464 1.04z"/><path d="M7.865 1.36L.5 6.87.032 5.82 7.398.312l.467 1.05z"/></svg><svg viewBox="0 0 32 32" id="shot-arrow_top" xmlns="http://www.w3.org/2000/svg"><defs><style>.bacls-1{fill:none;stroke:#000;stroke-linecap:round;stroke-linejoin:round;stroke-width:2px}</style></defs><path class="bacls-1" d="M16 11.5l9 9m-18 0l9-9" id="bachevron-top"/></svg><svg viewBox="0 0 8 18" id="slide-next" xmlns="http://www.w3.org/2000/svg"><path d="M.01.566L6.73 9.55 8 8.986 1.28 0 .01.566z"/><path d="M6.72 8.444L0 17.43l1.28.57L8 9.014l-1.28-.57z"/></svg><svg viewBox="0 0 8 18" id="slide-prev" xmlns="http://www.w3.org/2000/svg"><path d="M7.99.566L1.27 9.55 0 8.986 6.72 0l1.27.566z"/><path d="M1.28 8.444L8 17.43 6.72 18 0 9.014l1.28-.57z"/></svg><svg viewBox="0 0 32 32" id="tap" xmlns="http://www.w3.org/2000/svg"><path class="bdst3" d="M17 2v25.59l-1 1-1-1V2c0-.55.45-1 1-1s1 .45 1 1z"/><path class="bdst2" d="M21.71 25.71l-5 5c-.1.09-.21.16-.32.21-.05.02-.09.04-.14.04-.08.03-.16.04-.25.04s-.17-.01-.25-.04c-.05 0-.09-.02-.14-.04a1.26 1.26 0 01-.32-.21l-5-5c-.39-.39-.39-1.03 0-1.42.39-.39 1.03-.39 1.42 0l3.29 3.3 1 1 1-1 3.29-3.3c.39-.39 1.03-.39 1.42 0 .39.39.39 1.03 0 1.42z"/></svg><svg viewBox="-59 0 475 475.57" id="tap2" xmlns="http://www.w3.org/2000/svg"><path d="M318.918 187.566h-.668a36.676 36.676 0 00-24.719 9.399c-5.492-15.2-19.449-26.125-35.797-26.125a37.139 37.139 0 00-26.53 11.414c-6.384-12.922-19.188-21.688-33.911-21.688h-.711a34.815 34.815 0 00-21.832 7.274V75.719c0-22.262-17.332-40.371-38.414-40.371-21.059 0-38.3 18.097-38.313 40.343l-.175 182.774-10.344-12.563a52.171 52.171 0 00-36.867-19.363 51.334 51.334 0 00-38.457 13.61l-9 7.456a8 8 0 00-1.993 9.852l87.504 168.2c16 30.738 46.442 49.913 79.446 49.913h98.613v-.086c50 0 90.54-43.386 90.59-96.66.02-23.836-.07-41.601-.055-56 .05-38.523.012-52.738-.086-95.18-.05-22.21-17.258-40.078-38.281-40.078zm22.25 135.204c-.016 14.402-.04 32.238-.063 56.074-.042 44.465-33.609 80.722-74.824 80.722h-98.14c-27.016 0-52.02-15.878-65.25-41.3L18.363 255.84l4.172-3.48c.106-.087.207-.188.309-.278a35.512 35.512 0 0126.664-9.578 36.303 36.303 0 0125.61 13.562l24.487 29.797a7.998 7.998 0 0014.18-5.07l.145-205.094c.007-13.43 10.164-24.355 22.414-24.355S158.75 62.28 158.75 75.719v123.66c0 .43-.02.863-.02 1.3 0 .188.02.38.02.563v52.871a8 8 0 0016 0v-54.465c0-12.957 9.898-23.082 21.832-23.082h.711c12.258 0 22.457 10.684 22.457 24.122v48.378a8 8 0 0016 0V211.11c0-13.441 9.71-24.375 22.035-24.375 12.254 0 21.965 10.93 21.965 24.375v35.809a8 8 0 0016 0v-19.39c0-13.442 10.242-23.962 22.5-23.962h.668c12.227 0 22.191 10.7 22.223 24.098.097 42.41.078 56.61.027 95.106zm0 0"/><path d="M72.61 79.172a8 8 0 008-8c.128-30.527 24.913-55.203 55.437-55.203 30.527 0 55.308 24.676 55.437 55.203a8 8 0 0016 0C207.336 31.82 175.398 0 136.047 0c-39.348 0-71.29 31.82-71.438 71.172a8 8 0 008 8zm0 0"/></svg><svg viewBox="0 0 17 14" id="telega" xmlns="http://www.w3.org/2000/svg"><path fill-rule="evenodd" clip-rule="evenodd" d="M1.79 5.842c4.372-1.905 7.288-3.161 8.747-3.768C14.703.34 15.568.04 16.133.03c.124-.002.401.029.58.175.153.123.194.29.214.406.02.117.045.383.025.59-.225 2.372-1.202 8.128-1.699 10.785-.21 1.124-.624 1.5-1.025 1.538-.871.08-1.533-.576-2.376-1.13-1.32-.864-2.066-1.403-3.348-2.248-1.48-.976-.52-1.512.323-2.389.221-.23 4.06-3.72 4.133-4.037.01-.04.018-.187-.07-.265-.087-.078-.217-.051-.31-.03-.132.03-2.241 1.424-6.327 4.182-.599.411-1.14.611-1.627.6-.535-.01-1.566-.302-2.331-.551-.94-.305-1.686-.467-1.621-.985.033-.27.405-.547 1.115-.83z"/></svg><svg viewBox="0 0 18 18" id="tell" xmlns="http://www.w3.org/2000/svg"><path d="M12 12.793l1.55-1.551a1.514 1.514 0 011.62-.332l1.889.754A1.51 1.51 0 0118 13.05v3.46A1.503 1.503 0 0116.422 18C3.185 17.173.514 5.96.01 1.668A1.503 1.503 0 011.511 0h3.342a1.494 1.494 0 011.384.941l.754 1.89a1.496 1.496 0 01-.325 1.62l-1.55 1.55s.892 6.044 6.885 6.792z"/><defs><linearGradient id="bgpaint0_linear_902:3552" x1="0" y1="0" x2="18" y2="18" gradientUnits="userSpaceOnUse"><stop stop-color="#55B4F9"/><stop offset="1" stop-color="#2795E6"/></linearGradient></defs></svg><svg viewBox="0 0 30 30" id="tg" xmlns="http://www.w3.org/2000/svg"><path d="M15 30c8.284 0 15-6.716 15-15 0-8.284-6.716-15-15-15C6.716 0 0 6.716 0 15c0 8.284 6.716 15 15 15z"/><path fill-rule="evenodd" clip-rule="evenodd" d="M6.79 14.842c4.372-1.905 7.288-3.161 8.747-3.768 4.166-1.733 5.031-2.034 5.596-2.044.124-.002.401.029.58.175.153.123.194.29.214.406.02.117.045.383.025.59-.225 2.372-1.202 8.128-1.699 10.785-.21 1.124-.624 1.5-1.025 1.538-.871.08-1.533-.576-2.376-1.13-1.32-.864-2.066-1.403-3.348-2.248-1.48-.976-.52-1.512.323-2.389.221-.23 4.06-3.72 4.133-4.037.01-.04.018-.187-.07-.265-.087-.078-.217-.051-.31-.03-.132.03-2.241 1.424-6.327 4.182-.599.411-1.14.611-1.627.6-.535-.01-1.566-.302-2.331-.551-.94-.305-1.686-.467-1.621-.985.033-.27.405-.547 1.115-.83z"/><defs><linearGradient id="bhpaint0_linear_902:3589" x1="15" y1="0" x2="15" y2="29.777" gradientUnits="userSpaceOnUse"><stop stop-color="#2AABEE"/><stop offset="1" stop-color="#229ED9"/></linearGradient></defs></svg><svg viewBox="0 0 16 16" id="wa" xmlns="http://www.w3.org/2000/svg"><path fill-rule="evenodd" clip-rule="evenodd" d="M13.669 2.325A7.934 7.934 0 008.033 0C3.643 0 .07 3.557.067 7.928c0 1.397.366 2.761 1.063 3.964L0 16l4.223-1.102a7.989 7.989 0 003.807.965h.004c4.39 0 7.964-3.557 7.966-7.929a7.86 7.86 0 00-2.331-5.609zM8.033 14.523h-.002a6.637 6.637 0 01-3.37-.918l-.242-.143-2.506.654.669-2.431-.158-.25a6.55 6.55 0 01-1.012-3.507C1.413 4.295 4.384 1.34 8.036 1.34c1.769 0 3.431.687 4.681 1.933a6.535 6.535 0 011.938 4.662c-.002 3.633-2.972 6.59-6.622 6.59zm3.633-4.935c-.2-.1-1.178-.578-1.36-.644-.183-.067-.316-.1-.448.099-.133.198-.515.644-.63.776-.117.133-.233.15-.432.05-.2-.1-.84-.308-1.6-.983a5.944 5.944 0 01-1.108-1.373c-.116-.198-.001-.295.087-.404.216-.266.431-.545.498-.677.066-.133.033-.248-.017-.348-.05-.099-.448-1.074-.614-1.47-.161-.387-.325-.335-.448-.34a7.996 7.996 0 00-.381-.008.733.733 0 00-.53.248c-.183.199-.698.678-.698 1.653s.714 1.917.813 2.05c.1.132 1.404 2.133 3.4 2.99.476.205.846.327 1.136.418.476.15.91.13 1.253.079.383-.057 1.178-.48 1.344-.943.166-.462.166-.859.116-.942-.05-.082-.183-.132-.382-.23z"/></svg><svg viewBox="0 0 20 14" id="yt" xmlns="http://www.w3.org/2000/svg"><g filter="url(#bjfilter0_i_331:2362)"><path d="M19.588 2.19A2.505 2.505 0 0017.825.429C16.26 0 10 0 10 0S3.74 0 2.175.412C1.335.642.642 1.334.412 2.19 0 3.755 0 7 0 7s0 3.261.412 4.81c.23.856.906 1.531 1.763 1.762C3.756 14 10 14 10 14s6.26 0 7.825-.412a2.505 2.505 0 001.763-1.762C20 10.26 20 7.016 20 7.016s.016-3.26-.412-4.825zM8.007 9.999V4.002L13.212 7 8.007 9.998z"/></g><defs><filter id="bjfilter0_i_331:2362" x="0" y="0" width="20" height="15" filterUnits="userSpaceOnUse" color-interpolation-filters="sRGB"><feFlood flood-opacity="0" result="BackgroundImageFix"/><feBlend in="SourceGraphic" in2="BackgroundImageFix" result="shape"/><feColorMatrix in="SourceAlpha" values="0 0 0 0 0 0 0 0 0 0 0 0 0 0 0 0 0 0 127 0" result="hardAlpha"/><feOffset dy="1"/><feGaussianBlur stdDeviation=".5"/><feComposite in2="hardAlpha" operator="arithmetic" k2="-1" k3="1"/><feColorMatrix values="0 0 0 0 0.227451 0 0 0 0 0.227451 0 0 0 0 0.227451 0 0 0 0.2 0"/><feBlend in2="shape" result="effect1_innerShadow_331:2362"/></filter></defs></svg></svg>