<svg width="282" height="446" fill="none" xmlns="http://www.w3.org/2000/svg"><path fill-rule="evenodd" clip-rule="evenodd" d="M20 0C8.954 0 0 8.954 0 20v406c0 11.046 8.954 20 20 20h82.12c1.617 0 2.88-1.383 2.88-3 0-19.882 16.118-36 36-36s36 16.118 36 36c0 1.617 1.263 3 2.88 3H262c11.046 0 20-8.954 20-20V20c0-11.046-8.954-20-20-20H20Z" fill="#fff"/><mask id="a" fill="#fff"><path fill-rule="evenodd" clip-rule="evenodd" d="M30 10c-11.046 0-20 8.954-20 20v386c0 11.046 8.954 20 20 20h62.437c2.948 0 5.416-2.159 6.218-4.996C103.877 412.534 120.858 399 141 399s37.123 13.534 42.345 32.004c.802 2.837 3.27 4.996 6.218 4.996H252c11.046 0 20-8.954 20-20V30c0-11.046-8.954-20-20-20H30Z"/></mask><path fill-rule="evenodd" clip-rule="evenodd" d="M30 10c-11.046 0-20 8.954-20 20v386c0 11.046 8.954 20 20 20h62.437c2.948 0 5.416-2.159 6.218-4.996C103.877 412.534 120.858 399 141 399s37.123 13.534 42.345 32.004c.802 2.837 3.27 4.996 6.218 4.996H252c11.046 0 20-8.954 20-20V30c0-11.046-8.954-20-20-20H30Z" fill="#fff"/><path d="M11 30c0-10.493 8.507-19 19-19V9C18.402 9 9 18.402 9 30h2Zm0 386V30H9v386h2Zm19 19c-10.493 0-19-8.507-19-19H9c0 11.598 9.402 21 21 21v-2Zm62.437 0H30v2h62.437v-2Zm7.18-3.724C104.721 413.225 121.317 400 141 400v-2c-20.601 0-37.967 13.843-43.307 32.732l1.924.544ZM141 400c19.683 0 36.279 13.225 41.383 31.276l1.924-.544C178.967 411.843 161.601 398 141 398v2Zm111 35h-62.437v2H252v-2Zm19-19c0 10.493-8.507 19-19 19v2c11.598 0 21-9.402 21-21h-2Zm0-386v386h2V30h-2Zm-19-19c10.493 0 19 8.507 19 19h2c0-11.598-9.402-21-21-21v2ZM30 11h222V9H30v2Zm152.383 420.276c.904 3.199 3.717 5.724 7.18 5.724v-2c-2.433 0-4.556-1.793-5.256-4.268l-1.924.544ZM92.437 437c3.463 0 6.276-2.525 7.18-5.724l-1.924-.544c-.7 2.475-2.823 4.268-5.256 4.268v2Z" fill="#EAEEF7" mask="url(#a)"/></svg>