<svg width="996" height="400" viewBox="0 0 996 400" fill="none" xmlns="http://www.w3.org/2000/svg">
<path d="M0 30C0 13.4314 13.4315 0 30 0H966C982.569 0 996 13.4315 996 30V317.361C996 332.636 984.522 345.472 969.341 347.174L501.341 399.626C499.121 399.874 496.879 399.874 494.659 399.626L26.6586 347.174C11.4781 345.472 0 332.636 0 317.361V30Z" fill="white"/>
<path d="M40 20.5H956C966.77 20.5 975.5 29.2304 975.5 40V306.799C975.5 316.7 968.08 325.03 958.244 326.169L500.244 379.237C498.753 379.409 497.247 379.409 495.756 379.237L37.7556 326.169C27.9202 325.03 20.5 316.7 20.5 306.799V40C20.5 29.2305 29.2304 20.5 40 20.5Z" stroke="#EAEEF7"/>
</svg>
