<svg width="110" height="110" viewBox="0 0 110 110" fill="none" xmlns="http://www.w3.org/2000/svg">
<path d="M93.0572 14.418L43.2468 64.2284C41.9042 65.571 39.7274 65.571 38.3848 64.2284L16.9428 42.7864L0 59.7292L32.3441 92.0737C34.5909 94.3205 37.6383 95.5827 40.8156 95.5827C43.9927 95.5827 47.0403 94.3203 49.2869 92.0737L110 31.3605L93.0572 14.418Z" fill="#31A7FB"/>
<path d="M104.398 25.7573L40.3031 89.8521C38.5297 91.6252 36.2999 92.8345 33.8906 93.3736C35.9022 94.7991 38.3181 95.5822 40.8161 95.5822C43.9932 95.5822 47.0408 94.3198 49.2874 92.0732L110.001 31.36L104.398 25.7573Z" fill="#1C96F9"/>
</svg>
