<svg width="110" height="110" viewBox="0 0 110 110" fill="none" xmlns="http://www.w3.org/2000/svg">
<g clip-path="url(#clip0_1200:496)">
<path d="M55.0001 110C24.6247 110 0.000389099 85.3755 0.000389099 54.9997C0.000175476 24.6243 24.6245 0 55.0001 0C85.3757 0 110 24.6243 110 55.0001C110 85.3759 85.3757 110 55.0001 110Z" fill="#EF6B69"/>
<path d="M95.2033 55.0001C95.2033 27.1336 74.4782 4.11103 47.6018 0.496933C50.022 0.171445 52.4907 0 55.0001 0C85.3757 0 110 24.6243 110 55.0001C110 85.376 85.3757 110 55.0003 110C52.4909 110 50.0222 109.829 47.602 109.503C74.4782 105.889 95.2033 82.8662 95.2033 55.0001Z" fill="#E53935"/>
<path d="M42.6705 54.9997L28.1905 40.5196C27.138 39.4671 27.138 37.7606 28.1905 36.7083L36.709 28.1898C37.7615 27.1373 39.468 27.1373 40.5203 28.1898L55.0003 42.6698L69.4804 28.1898C70.5329 27.1373 72.2394 27.1373 73.2917 28.1898L81.8102 36.7083C82.8627 37.7608 82.8627 39.4673 81.8102 40.5196L67.3302 54.9997L81.8102 69.4797C82.8627 70.5322 82.8627 72.2387 81.8102 73.2912L73.2917 81.8097C72.2392 82.8623 70.5327 82.8623 69.4804 81.8097L55.0003 67.3297L40.5201 81.8097C39.4676 82.8623 37.7611 82.8623 36.7088 81.8097L28.1903 73.2912C27.1377 72.2387 27.1377 70.5322 28.1903 69.4797L42.6705 54.9997Z" fill="white"/>
</g>
<defs>
<clipPath id="clip0_1200:496">
<rect width="110" height="110" fill="white"/>
</clipPath>
</defs>
</svg>
