<svg width="64" height="64" viewBox="0 0 64 64" fill="none" xmlns="http://www.w3.org/2000/svg">
<g clip-path="url(#clip0_1109:1096)">
<path d="M14.9584 33.6379V30.1701C14.9584 29.5556 14.4604 29.0576 13.8459 29.0576H9.92717C9.31271 29.0576 8.8147 29.5556 8.8147 30.1701V33.638C8.8147 36.0005 7.57104 38.169 5.57075 39.4258C2.29657 41.4832 0.0963714 45.0919 0.00304109 49.2218C-0.144263 55.7422 5.07849 61.2245 11.5987 61.3787C18.295 61.537 23.773 56.1559 23.773 49.4955C23.773 45.2541 21.5512 41.5329 18.2082 39.4298C16.2065 38.1703 14.9584 36.0029 14.9584 33.6379Z" fill="#D3E1F4"/>
<path d="M18.2084 39.4297C16.2066 38.1703 14.9584 36.0029 14.9584 33.6379V30.1701C14.9584 29.5556 14.4604 29.0576 13.846 29.0576H9.9272C9.84374 29.0576 9.76278 29.0675 9.68457 29.085C10.1821 29.1958 10.5544 29.6391 10.5544 30.1701V33.6379C10.5544 36.0029 11.8026 38.1703 13.8043 39.4297C17.1474 41.5328 19.3692 45.2541 19.3692 49.4953C19.3692 55.3056 15.2002 60.1417 9.69044 61.1767C10.3111 61.2939 10.9485 61.3632 11.5989 61.3785C18.2952 61.5367 23.7732 56.1558 23.7732 49.4953C23.7732 45.2541 21.5514 41.5328 18.2084 39.4297Z" fill="#B3CBEA"/>
<path d="M0.321289 52.2266C1.54345 57.3462 6.11127 61.2495 11.5983 61.3792C17.3499 61.5151 22.2026 57.5644 23.4573 52.2266H0.321289Z" fill="#C0B5B1"/>
<path d="M19.0545 52.2256C17.9864 56.7694 14.3109 60.3076 9.69336 61.1759C10.3133 61.2929 10.9496 61.3628 11.5994 61.3782C17.3511 61.5141 22.2037 57.5634 23.4585 52.2256H19.0545Z" fill="#AB9C97"/>
<path d="M49.6006 50.0481L39.5707 24.3192C39.0743 23.0459 38.8196 21.6913 38.8196 20.3247V3.72966C38.8196 3.1152 38.3216 2.61719 37.7072 2.61719H26.6273C26.0129 2.61719 25.5149 3.1152 25.5149 3.72966V20.3247C25.5149 21.6913 25.2601 23.0459 24.7639 24.3192L14.7339 50.0481C12.6089 55.4991 16.6294 61.3817 22.48 61.3817H41.8546C47.7051 61.3817 51.7256 55.4991 49.6006 50.0481Z" fill="#D3E1F4"/>
<path d="M49.6013 50.0481L39.5714 24.3192C39.075 23.0459 38.8203 21.6913 38.8203 20.3247V3.72966C38.8203 3.1152 38.3223 2.61719 37.7079 2.61719H31.5381C32.1525 2.61719 32.6506 3.11532 32.6506 3.72966V20.3247C32.6506 21.6913 32.9053 23.0459 33.4016 24.3192L43.4315 50.0481C45.5565 55.4991 41.536 61.3817 35.6855 61.3817H41.8553C47.7058 61.3817 51.7263 55.4991 49.6013 50.0481Z" fill="#B3CBEA"/>
<path d="M59.8056 56.1258H56.0279C55.3577 56.1258 54.8145 55.5825 54.8145 54.9123V18.6432C54.8145 18.2291 55.15 17.8936 55.5641 17.8936H60.2695C60.6835 17.8936 61.0191 18.2291 61.0191 18.6432V54.9123C61.019 55.5825 60.4757 56.1258 59.8056 56.1258Z" fill="#D3E1F4"/>
<path d="M60.2445 17.8936H58.1099V51.9626C58.1099 52.6552 57.5485 53.2165 56.856 53.2165H54.8145V54.8719C54.8145 55.5644 55.3758 56.1258 56.0684 56.1258H59.7652C60.4578 56.1258 61.0191 55.5644 61.0191 54.8719V18.6682C61.0191 18.2404 60.6723 17.8936 60.2445 17.8936Z" fill="#B3CBEA"/>
<path d="M57.9165 49.0898L52.0208 59.3016C51.4872 60.2259 52.1542 61.3812 53.2215 61.3812H62.6115C63.6787 61.3812 64.3458 60.2259 63.8122 59.3016L57.9165 49.0898Z" fill="#D3E1F4"/>
<path d="M63.812 59.3016L57.9163 49.0898L56.3467 51.8084L60.6729 59.3016C61.2065 60.2259 60.5394 61.3812 59.4722 61.3812H62.6113C63.6785 61.3813 64.3456 60.2259 63.812 59.3016Z" fill="#B3CBEA"/>
<path d="M54.8145 40.3711V54.8702C54.8145 55.5627 55.3758 56.1241 56.0684 56.1241H59.7652C60.4578 56.1241 61.0191 55.5627 61.0191 54.8702V40.3711H54.8145Z" fill="#4F6D8F"/>
<path d="M14.7339 50.0473C12.6089 55.4983 16.6294 61.3809 22.48 61.3809H41.8546C47.7051 61.3809 51.7256 55.4983 49.6006 50.0473L47.7183 45.2188H16.6163L14.7339 50.0473Z" fill="#AE66D8"/>
<path d="M14.7339 50.0473C12.6089 55.4983 16.6294 61.3809 22.48 61.3809H41.8546C47.7051 61.3809 51.7256 55.4983 49.6006 50.0473L47.7183 45.2188H16.6163L14.7339 50.0473Z" fill="#31A7FB"/>
<path d="M58.1099 40.3711V51.9608C58.1099 52.6533 57.5485 53.2147 56.856 53.2147H54.8145V54.87C54.8145 55.5626 55.3758 56.1239 56.0684 56.1239H59.7652C60.4578 56.1239 61.0191 55.5626 61.0191 54.87V40.3711H58.1099Z" fill="#455E7E"/>
<path d="M49.6016 50.0473L47.7193 45.2188H41.5495L43.4318 50.0473C45.5568 55.4983 41.5364 61.3809 35.6858 61.3809H22.4805H22.481H41.8556C47.7062 61.3809 51.7266 55.4983 49.6016 50.0473Z" fill="#1C96F9"/>
<path d="M32.4561 33.9316H27.9444V31.4878C27.9444 30.9531 27.5108 30.5195 26.9761 30.5195C26.4414 30.5195 26.0078 30.9531 26.0078 31.4878V45.9194H27.9444V42.8975H30.0112C30.5459 42.8975 30.9794 42.4639 30.9794 41.9292C30.9794 41.3945 30.5459 40.9609 30.0112 40.9609H27.9444V35.8682H32.4561C32.9909 35.8682 33.4244 35.4347 33.4244 34.8999C33.4244 34.3652 32.9909 33.9316 32.4561 33.9316Z" fill="#B3CBEA"/>
<path d="M32.4155 47.9118H27.9444V45.2188H26.0078V53.6127C26.0078 54.1475 26.4414 54.581 26.9761 54.581C27.5108 54.581 27.9444 54.1475 27.9444 53.6127V49.8484H32.4561C33.0007 49.8484 33.4404 49.3988 33.4239 48.8504C33.408 48.3204 32.9458 47.9118 32.4155 47.9118Z" fill="#1C96F9"/>
</g>
<defs>
<clipPath id="clip0_1109:1096">
<rect width="64" height="64" fill="white"/>
</clipPath>
</defs>
</svg>
