<svg width="80" height="80" viewBox="0 0 80 80" fill="none" xmlns="http://www.w3.org/2000/svg">
<path d="M27.433 34.0639H52.5664V8.46191C52.5664 7.85785 52.0767 7.36816 51.4727 7.36816H42.6009L39.9997 8.93066L37.3984 7.36816H28.5267C27.9227 7.36816 27.433 7.85785 27.433 8.46191V34.0639Z" fill="#CBC4CC"/>
<path d="M52.5664 30.3389H27.433V34.0642H52.5664V30.3389Z" fill="#B5ADB6"/>
<path d="M52.5664 8.46191V34.0639H49.347V7.36816H51.4727C52.0767 7.36816 52.5664 7.85785 52.5664 8.46191Z" fill="#B5ADB6"/>
<path d="M38.0862 13.9432L39.7362 13.075C39.8706 13.0044 40.0308 13.0032 40.1662 13.0716L41.9211 13.96C42.233 14.1179 42.6016 13.8913 42.6016 13.5418V7.36816H37.3992V13.5283C37.3992 13.8811 37.7741 14.1074 38.0862 13.9432Z" fill="#31A7FB"/>
<path d="M32.4995 28.7093H37.3983C38.065 28.7093 38.6055 28.1688 38.6055 27.5021C38.6055 26.8354 38.065 26.2949 37.3983 26.2949H32.4995C31.8328 26.2949 31.2923 26.8354 31.2923 27.5021C31.2923 28.1688 31.8328 28.7093 32.4995 28.7093Z" fill="#B5ADB6"/>
<path d="M38.4379 59.1969H65.1338V33.5947C65.1338 32.9907 64.6441 32.501 64.04 32.501H55.1683L52.5671 34.0635L49.9658 32.501H40.0004L38.4379 35.9693V59.1969Z" fill="#CBC4CC"/>
<path d="M65.1338 33.5947V59.1969H61.9144V32.501H64.04C64.6441 32.501 65.1338 32.9907 65.1338 33.5947Z" fill="#B5ADB6"/>
<path d="M50.6527 39.0761L52.3027 38.208C52.437 38.1374 52.5972 38.1361 52.7327 38.2046L54.4875 39.093C54.7994 39.2508 55.168 39.0243 55.168 38.6747V32.501H49.9656V38.6611C49.9656 39.0139 50.3405 39.2403 50.6527 39.0761Z" fill="#31A7FB"/>
<path d="M45.0659 53.8421H49.9647C50.6314 53.8421 51.1719 53.3016 51.1719 52.6349C51.1719 51.9682 50.6314 51.4277 49.9647 51.4277H45.0659C44.3992 51.4277 43.8587 51.9682 43.8587 52.6349C43.8586 53.3016 44.3992 53.8421 45.0659 53.8421Z" fill="#B5ADB6"/>
<path d="M14.8666 59.1969H40V32.501H30.0345L27.4333 34.0635L24.832 32.501H15.9603C15.3562 32.501 14.8666 32.9907 14.8666 33.5947V59.1969Z" fill="#CBC4CC"/>
<path d="M40 32.501H36.7806V59.1969H40V32.501Z" fill="#B5ADB6"/>
<path d="M25.5189 39.0761L27.1689 38.208C27.3032 38.1374 27.4634 38.1361 27.5989 38.2046L29.3537 39.093C29.6656 39.2508 30.0342 39.0243 30.0342 38.6747V32.501H24.8318V38.6611C24.832 39.0139 25.2068 39.2403 25.5189 39.0761Z" fill="#31A7FB"/>
<path d="M19.9341 53.8421H24.8328C25.4996 53.8421 26.04 53.3016 26.04 52.6349C26.04 51.9682 25.4996 51.4277 24.8328 51.4277H19.9341C19.2674 51.4277 18.7269 51.9682 18.7269 52.6349C18.7269 53.3016 19.2674 53.8421 19.9341 53.8421Z" fill="#B5ADB6"/>
<path d="M75 61.0723H65V69.1973H75V61.0723Z" fill="#455E7E"/>
<path d="M15 61.0723H5V69.1973H15V61.0723Z" fill="#455E7E"/>
<path d="M1.09375 62.6348H78.9062C79.5103 62.6348 80 62.1451 80 61.541V58.7285C80 58.1245 79.5103 57.6348 78.9062 57.6348H1.09375C0.489685 57.6348 0 58.1245 0 58.7285V61.541C0 62.1451 0.489685 62.6348 1.09375 62.6348Z" fill="#4F6D8F"/>
<path d="M80 58.7285V61.541C80 62.1451 79.5103 62.6348 78.9062 62.6348H76.7806V57.6348H78.9062C79.5103 57.6348 80 58.1245 80 58.7285Z" fill="#455E7E"/>
<path d="M1.09375 72.6318H78.9062C79.5103 72.6318 80 72.1421 80 71.5381V68.7256C80 68.1215 79.5103 67.6318 78.9062 67.6318H1.09375C0.489685 67.6318 0 68.1215 0 68.7256V71.5381C0 72.1421 0.489685 72.6318 1.09375 72.6318Z" fill="#4F6D8F"/>
<path d="M80 68.7256V71.5381C80 72.1421 79.5103 72.6318 78.9062 72.6318H76.7806V67.6318H78.9062C79.5103 67.6318 80 68.1215 80 68.7256Z" fill="#455E7E"/>
</svg>
