<svg width="64" height="64" viewBox="0 0 64 64" fill="none" xmlns="http://www.w3.org/2000/svg">
<g clip-path="url(#clip0_1109:814)">
<rect width="64" height="64" fill="white"/>
<path d="M24.6608 33.6617L30.5426 31.3477H51.4208L57.3026 33.6617C59.558 34.5489 61.0045 36.7665 60.9075 39.1882L60.1934 57.017C60.1526 58.0349 59.3156 58.8391 58.2969 58.8391H23.6664C22.6476 58.8391 21.8106 58.035 21.7699 57.017L21.0558 39.1882C20.9589 36.7665 22.4054 34.5489 24.6608 33.6617Z" fill="#D3E1F4"/>
<path d="M42.366 37.9609L43.5801 58.8392H38.3802L39.5943 37.9609H42.366Z" fill="#4F6D8F"/>
<path d="M40.1152 38.9093H41.8467C42.4168 38.9093 42.8789 38.4472 42.8789 37.877V35.1133H39.0829V37.877C39.0829 38.4472 39.5452 38.9093 40.1152 38.9093Z" fill="#455E7E"/>
<path d="M34.3378 23.7246H47.624V35.1134H34.3378V23.7246Z" fill="#FFCBBE"/>
<path d="M47.624 27.2693C45.742 28.6247 43.4436 29.4196 40.9809 29.4196C38.5181 29.4196 36.2199 28.6247 34.3378 27.2693V23.7256H47.624V27.2693Z" fill="#EAAC9D"/>
<path d="M40.982 0.0298426C45.7201 0.285968 48.4159 2.87684 48.4159 2.87684C48.4159 2.87684 52.3701 2.87684 52.3701 7.62184C52.3701 11.4178 51.4211 15.1841 51.4211 15.1841H29.5939C27.6959 4.74509 32.2037 -0.444657 40.982 0.0298426Z" fill="#4F6D8F"/>
<path d="M46.675 11.2671C50.1613 6.90835 48.4149 2.87598 48.4149 2.87598C48.4149 2.87598 52.3691 2.87598 52.3691 7.62098C52.3691 11.417 51.4201 15.1832 51.4201 15.1832H46.6751L46.675 11.2671Z" fill="#455E7E"/>
<path d="M30.5421 14.2348H31.4911L32.7416 11.9526C32.9391 11.5922 33.3502 11.4076 33.7545 11.4816C40.0046 12.6248 44.1121 11.1721 45.6685 10.4448C46.0762 10.2543 46.5616 10.3796 46.8236 10.7455C47.784 12.0868 48.8437 13.1441 49.4792 13.7291C49.832 14.054 50.29 14.2346 50.7696 14.2346H51.4525C51.453 14.2346 51.4534 14.2348 51.454 14.2348C51.558 14.2367 51.6642 14.2477 51.7724 14.2686C52.696 14.4471 53.3184 15.3301 53.3184 16.2707V16.9585C53.3184 17.8662 52.7371 18.7225 51.8532 18.9288C51.6541 18.9753 51.4604 18.9885 51.2749 18.9737C50.803 18.9361 50.3911 19.2795 50.3061 19.7451C49.4994 24.1668 45.6361 27.5206 40.9812 27.5206C36.3264 27.5206 32.4632 24.1668 31.6564 19.7451C31.5745 19.2966 31.1874 18.97 30.7376 18.9795H30.5421C29.4939 18.9795 28.6441 18.1297 28.6441 17.0815V16.1325C28.644 15.0846 29.4939 14.2348 30.5421 14.2348Z" fill="#FFDDCE"/>
<path d="M46.6752 18.0317V10.6016C46.7269 10.6472 46.782 10.6883 46.8236 10.7464C47.784 12.0878 48.8437 13.1451 49.4792 13.7301C49.832 14.0549 50.29 14.2356 50.7696 14.2356H51.4525C51.453 14.2356 51.4534 14.2358 51.454 14.2358C51.558 14.2377 51.6642 14.2487 51.7724 14.2696C52.696 14.4481 53.3184 15.3311 53.3184 16.2717V16.9594C53.3184 17.8672 52.7371 18.7234 51.8532 18.9298C51.6541 18.9763 51.4604 18.9894 51.2749 18.9747C50.803 18.9371 50.3911 19.2804 50.3061 19.7461C49.4994 24.1678 45.6361 27.5216 40.9812 27.5216C40.336 27.5216 39.7082 27.4512 39.0995 27.3283C43.423 26.4429 46.6752 22.6172 46.6752 18.0317Z" fill="#FFCBBE"/>
<path d="M40.9818 35.1428L47.9056 29.0844C48.2816 28.7554 48.8484 28.7743 49.2016 29.1275L51.4209 31.3468L47.011 37.9615C46.3466 38.9582 44.9366 39.0978 44.0896 38.2508L40.9818 35.1428Z" fill="#EAF6FF"/>
<path d="M40.9805 35.1428L34.0566 29.0844C33.6806 28.7554 33.1138 28.7743 32.7606 29.1275L30.5413 31.3468L34.9512 37.9615C35.6156 38.9582 37.0256 39.0978 37.8726 38.2508L40.9805 35.1428Z" fill="#EAF6FF"/>
<path d="M55.9348 40.118L60.0635 35.9893C60.6395 36.9291 60.9529 38.0325 60.9066 39.1873L60.1925 57.0161C60.1518 58.034 59.3146 58.8383 58.296 58.8383H54.2669V44.1443C54.2669 42.6343 54.8669 41.1859 55.9348 40.118Z" fill="#B3CBEA"/>
<path d="M18.818 50.4273H0.816132C0.365449 50.4273 0 50.062 0 49.6112V25.1071C0 24.6564 0.365371 24.291 0.816132 24.291H18.818C19.2687 24.291 19.6341 24.6564 19.6341 25.1071V49.6113C19.634 50.062 19.2687 50.4273 18.818 50.4273Z" fill="#E4F4FF"/>
<path d="M18.7933 24.291H16.1039V46.1245C16.1039 46.5888 15.7276 46.9652 15.2632 46.9652H0V49.5866C0 50.051 0.376384 50.4273 0.840718 50.4273H18.7934C19.2577 50.4273 19.6341 50.051 19.6341 49.5866V25.1317C19.634 24.6674 19.2576 24.291 18.7933 24.291V24.291Z" fill="#CFECFF"/>
<path d="M11.8928 27.8401C12.2235 27.8401 12.4915 27.5719 12.4915 27.2413C12.4915 26.9107 12.2235 26.6426 11.8928 26.6426H7.74132C7.41062 26.6426 7.14258 26.9107 7.14258 27.2413C7.14258 27.5719 7.41062 27.8401 7.74132 27.8401H11.8928Z" fill="#31A7FB"/>
<path d="M3.04796 35.217H13.2023C13.533 35.217 13.801 34.9489 13.801 34.6183C13.801 34.2876 13.533 34.0195 13.2023 34.0195H3.04796C2.71726 34.0195 2.44922 34.2876 2.44922 34.6183C2.44922 34.949 2.71726 35.217 3.04796 35.217Z" fill="#31A7FB"/>
<path d="M2.44922 32.3292C2.44922 32.6599 2.71726 32.928 3.04796 32.928H16.5854C16.9161 32.928 17.1841 32.6598 17.1841 32.3292C17.1841 31.9986 16.9161 31.7305 16.5854 31.7305H3.04796C2.71726 31.7305 2.44922 31.9985 2.44922 32.3292Z" fill="#31A7FB"/>
<path d="M3.08019 36.3076C2.74948 36.3076 2.48145 36.5757 2.48145 36.9064C2.48145 37.2371 2.74948 37.5051 3.08019 37.5051H8.85391C9.18462 37.5051 9.45265 37.237 9.45265 36.9064C9.45265 36.5757 9.18462 36.3076 8.85391 36.3076H3.08019Z" fill="#31A7FB"/>
<path d="M8.60278 45.2524C8.46636 45.2524 8.329 45.2073 8.21469 45.1145C7.95006 44.8999 7.9095 44.5115 8.1241 44.2469L9.47941 42.5756C9.76823 42.2194 10.2133 42.025 10.6715 42.0544C11.1292 42.0841 11.5458 42.3351 11.7861 42.7258C11.8367 42.8081 11.9432 42.8368 12.0282 42.791L14.1587 41.6459C14.4589 41.4845 14.8328 41.5972 14.9941 41.8972C15.1553 42.1973 15.0429 42.5714 14.7428 42.7326L12.6123 43.8777C11.9524 44.2323 11.128 44.0103 10.7354 43.3721C10.6922 43.302 10.6267 43.2878 10.5914 43.2854C10.5568 43.2831 10.4895 43.2888 10.4376 43.3527L9.08232 45.024C8.96032 45.1743 8.78233 45.2524 8.60278 45.2524Z" fill="#1C96F9"/>
<path d="M32.0201 64.0006H14.0183C13.5676 64.0006 13.2021 63.6353 13.2021 63.1845V38.6804C13.2021 38.2297 13.5675 37.8643 14.0183 37.8643H32.0201C32.4708 37.8643 32.8363 38.2296 32.8363 38.6804V63.1845C32.8363 63.6353 32.4709 64.0006 32.0201 64.0006Z" fill="#EAF6FF"/>
<path d="M31.9955 37.8633H29.3061V59.6968C29.3061 60.1611 28.9297 60.5375 28.4654 60.5375H13.2021V63.1589C13.2021 63.6232 13.5785 63.9996 14.0429 63.9996H31.9955C32.4599 63.9996 32.8363 63.6232 32.8363 63.1589V38.704C32.8362 38.2397 32.4598 37.8633 31.9955 37.8633Z" fill="#E3EEF7"/>
<path d="M27.6087 58.1689L27.6615 58.3198C27.7758 58.6476 28.0111 58.9111 28.3237 59.0621C28.5026 59.1484 28.6946 59.1919 28.8875 59.1919C29.0318 59.1919 29.1766 59.1676 29.3168 59.1186C29.6446 59.0042 29.9082 58.769 30.0591 58.4564C30.21 58.1436 30.2301 57.7909 30.1156 57.4633L30.0629 57.3121C29.9122 56.8809 29.6515 56.5042 29.3043 56.2141C29.3796 56.169 29.4606 56.1308 29.5466 56.1008C29.8589 55.9918 30.0236 55.6503 29.9146 55.3381C29.8056 55.0259 29.464 54.8611 29.152 54.9702C28.7644 55.1055 28.4314 55.3273 28.1658 55.6058C27.4907 55.4012 26.7595 55.4088 26.0758 55.6475C25.4804 55.8553 24.9666 56.2168 24.5777 56.6933C23.9915 56.5662 23.3644 56.594 22.7581 56.8056C22.4458 56.9146 22.2811 57.2561 22.3901 57.5683C22.499 57.8805 22.8404 58.0451 23.1527 57.9363C23.4232 57.8419 23.7001 57.804 23.9704 57.8171C23.7511 58.5073 23.7603 59.2467 24.0033 59.9426L24.0797 60.1618C24.312 60.8271 24.9382 61.2448 25.6061 61.2448C25.7824 61.2448 25.9616 61.2157 26.1371 61.1544C26.5444 61.0122 26.8721 60.7199 27.0595 60.3313C27.247 59.9427 27.2718 59.5044 27.1297 59.0972L27.0532 58.878C26.804 58.164 26.3377 57.5868 25.7537 57.1943C25.9607 57.013 26.2028 56.8715 26.4703 56.7781C26.8238 56.6548 27.197 56.6274 27.5556 56.6891C27.428 57.1606 27.4358 57.6739 27.6087 58.1689ZM25.9225 59.2725L25.999 59.4917C26.0358 59.5971 26.0294 59.7104 25.9809 59.8109C25.9325 59.9113 25.8478 59.9869 25.7425 60.0237C25.6371 60.0605 25.5237 60.0541 25.4232 60.0056C25.3227 59.9571 25.2472 59.8724 25.2104 59.7671L25.134 59.548C24.9801 59.1071 24.9716 58.6393 25.1053 58.201C25.472 58.4536 25.7649 58.8207 25.9225 59.2725ZM28.9804 57.9359C28.972 57.9532 28.9551 57.9764 28.922 57.988C28.8892 57.9995 28.8615 57.9919 28.844 57.9836C28.8267 57.9751 28.8036 57.9582 28.7919 57.925L28.7392 57.7742C28.6798 57.6041 28.6577 57.4297 28.6682 57.2603C28.7842 57.3889 28.8738 57.5399 28.9321 57.7067L28.9848 57.8579C28.9964 57.8909 28.9888 57.9185 28.9804 57.9359Z" fill="#1C96F9"/>
<path d="M25.0959 41.4114C25.4266 41.4114 25.6947 41.1432 25.6947 40.8126C25.6947 40.4819 25.4266 40.2139 25.0959 40.2139H20.9444C20.6137 40.2139 20.3457 40.482 20.3457 40.8126C20.3457 41.1433 20.6137 41.4114 20.9444 41.4114H25.0959Z" fill="#31A7FB"/>
<path d="M30.3872 48.1905C30.3872 47.8598 30.1192 47.5918 29.7885 47.5918H16.2511C15.9204 47.5918 15.6523 47.8599 15.6523 48.1905C15.6523 48.5212 15.9204 48.7893 16.2511 48.7893H29.7885C30.1192 48.7893 30.3872 48.5212 30.3872 48.1905Z" fill="#31A7FB"/>
<path d="M29.7885 45.3037H16.2511C15.9204 45.3037 15.6523 45.5718 15.6523 45.9025C15.6523 46.2332 15.9204 46.5012 16.2511 46.5012H29.7885C30.1192 46.5012 30.3872 46.2331 30.3872 45.9025C30.3872 45.5718 30.1192 45.3037 29.7885 45.3037Z" fill="#31A7FB"/>
<path d="M16.2833 52.542C15.9526 52.542 15.6846 52.8101 15.6846 53.1407C15.6846 53.4714 15.9526 53.7395 16.2833 53.7395H19.6345C19.9652 53.7395 20.2332 53.4714 20.2332 53.1407C20.2332 52.8101 19.9652 52.542 19.6345 52.542H16.2833Z" fill="#31A7FB"/>
</g>
<defs>
<clipPath id="clip0_1109:814">
<rect width="64" height="64" fill="white"/>
</clipPath>
</defs>
</svg>
