<svg width="110" height="110" viewBox="0 0 110 110" fill="none" xmlns="http://www.w3.org/2000/svg">
<g clip-path="url(#clip0_1200:78)">
<path d="M106.84 57.4966C109.221 54.7713 110.351 50.9711 109.905 47.1909L108.418 34.58C106.812 20.9574 97.2747 9.43086 83.8843 4.92773L70.1741 9.5385C65.186 11.216 61.5399 16.0139 60.8578 21.7973L57.8631 47.1909C57.4173 50.9713 58.5476 54.7713 60.9285 57.4966C63.0127 59.8822 65.8671 61.2269 68.847 61.2269H98.9215C101.902 61.2271 104.756 59.8824 106.84 57.4966Z" fill="#BCACA7"/>
<path d="M109.905 47.1909L108.418 34.5803C106.811 20.9577 97.2746 9.43107 83.8842 4.92773L80.8027 5.96393C92.7508 11.0388 101.117 21.9008 102.612 34.58L104.099 47.1907C104.545 50.9711 103.415 54.771 101.034 57.4963C98.9497 59.882 96.0953 61.2267 93.1154 61.2267H98.9216C101.901 61.2267 104.756 59.882 106.84 57.4963C109.221 54.7713 110.351 50.9713 109.905 47.1909Z" fill="#AB9C97"/>
<path d="M107.355 71.3672C107.355 65.7669 102.815 61.2271 97.2149 61.2271C96.3067 61.2271 70.217 61.2271 70.5543 61.2271C64.9539 61.2271 60.4141 65.7669 60.4141 71.3672V89.8288H107.355C107.355 78.696 107.355 81.4507 107.355 71.3672Z" fill="#55B4F9"/>
<path d="M107.355 71.3672C107.355 65.7671 102.815 61.2271 97.2147 61.2271C96.967 61.2271 94.842 61.2271 91.8926 61.2271C97.4929 61.2271 102.033 65.7671 102.033 71.3672V89.8288H107.355L107.355 71.3672Z" fill="#2795E5"/>
<path d="M83.8845 70.4322C79.324 70.4322 75.627 66.7352 75.627 62.1747V42.3027H92.1418V62.1747C92.1418 66.7352 88.4447 70.4322 83.8845 70.4322Z" fill="#FFB09E"/>
<path d="M75.627 58.6414C77.4233 59.4784 79.3698 60.0475 81.4153 60.2959C81.4127 60.2963 81.4103 60.2966 81.4078 60.297C85.2556 60.7677 88.937 60.1025 92.142 58.5834V42.303H75.6272V58.6414H75.627Z" fill="#FFA78F"/>
<path d="M93.793 28.2764H103.197C106.813 28.2764 109.744 31.2075 109.744 34.8231V34.8633C109.744 38.4789 106.813 41.41 103.197 41.41H93.793V28.2764Z" fill="#FFA78F"/>
<path d="M73.8573 41.4097H64.453C60.8374 41.4097 57.9062 38.4786 57.9062 34.863V34.8228C57.9062 31.2072 60.8374 28.2761 64.453 28.2761H73.8573V41.4097Z" fill="#FFB09E"/>
<path d="M83.5846 12.1443C73.0177 12.239 64.4805 20.833 64.4805 31.4224V38.2568C64.4805 48.846 73.0177 57.44 83.5846 57.535C94.1515 57.4402 102.689 48.846 102.689 38.2568V31.4224C102.688 20.833 94.1515 12.239 83.5846 12.1443Z" fill="#FFCEBF"/>
<path d="M83.8545 49.0385C80.8149 49.0385 78.3418 46.5657 78.3418 43.5259C78.3418 42.8188 78.915 42.2456 79.6221 42.2456C80.3291 42.2456 80.9023 42.8188 80.9023 43.5259C80.9023 45.1537 82.2268 46.4782 83.8547 46.4782C85.4826 46.4782 86.8071 45.1537 86.8071 43.5259C86.8071 42.8188 87.3803 42.2456 88.0873 42.2456C88.7944 42.2456 89.3676 42.8188 89.3676 43.5259C89.3672 46.5657 86.8943 49.0385 83.8545 49.0385Z" fill="#FFA799"/>
<path d="M72.8769 41.4492C71.8446 41.4492 71.0791 41.4492 70.0303 41.4492C69.3232 41.4492 68.75 42.0224 68.75 42.7295C68.75 43.4365 69.3232 44.0097 70.0303 44.0097H72.8769C73.584 44.0097 74.1572 43.4365 74.1572 42.7295C74.157 42.0222 73.5838 41.4492 72.8769 41.4492Z" fill="#FE8F83"/>
<path d="M93.6123 40.0278C92.9052 40.0278 92.332 39.4546 92.332 38.7476V35.0776C92.332 34.3706 92.9052 33.7974 93.6123 33.7974H95.1901C95.8972 33.7974 96.4704 34.3706 96.4704 35.0776C96.4704 35.7847 95.8972 36.3579 95.1901 36.3579H94.8923V38.7478C94.8925 39.4548 94.3193 40.0278 93.6123 40.0278Z" fill="#5A5A5A"/>
<path d="M74.1571 40.0276C73.4501 40.0276 72.8769 39.4544 72.8769 38.7473V36.3574H72.5791C71.872 36.3574 71.2988 35.7842 71.2988 35.0771C71.2988 34.3701 71.872 33.7969 72.5791 33.7969H74.1569C74.8639 33.7969 75.4371 34.3701 75.4371 35.0771V38.7471C75.4371 39.4546 74.8642 40.0276 74.1571 40.0276Z" fill="#5A5A5A"/>
<path d="M83.8911 12.1418H83.7599C82.963 12.1418 82.1778 12.1913 81.4062 12.2851C90.9442 13.4462 98.3331 21.5709 98.3331 31.4224V38.2568C98.3331 48.1082 90.9442 56.233 81.4062 57.394C82.1778 57.4879 82.963 57.5373 83.7599 57.5373H83.8911C94.5394 57.5373 103.171 48.9051 103.171 38.257V31.4226C103.171 20.7741 94.5394 12.1418 83.8911 12.1418Z" fill="#FFB09E"/>
<path d="M97.7402 41.4492C96.7079 41.4492 95.9424 41.4492 94.8935 41.4492C94.1865 41.4492 93.6133 42.0224 93.6133 42.7295C93.6133 43.4365 94.1865 44.0097 94.8935 44.0097H97.7402C98.4473 44.0097 99.0205 43.4365 99.0205 42.7295C99.0205 42.0222 98.4473 41.4492 97.7402 41.4492Z" fill="#FE8F83"/>
<path d="M77.8735 29.9764H81.7441L90.0844 16.7627L80.1846 12.4763C73.9303 13.65 68.7405 17.8412 66.1875 23.4825C68.6178 27.3809 72.9415 29.9764 77.8735 29.9764Z" fill="#FFB09E"/>
<path d="M107.597 29.977H81.7423C74.1409 29.977 67.9785 23.8148 67.9785 16.2132V15.3057C67.9785 8.28633 73.6689 2.59619 80.688 2.59619H89.8754C99.6626 2.59619 107.597 10.5304 107.597 20.3176V29.977Z" fill="#C0B5B1"/>
<path d="M89.4573 2.59595H83.4883C93.5069 2.59595 101.629 10.3469 101.629 19.9081V29.9769H107.598V19.9081C107.597 10.3469 99.4759 2.59595 89.4573 2.59595Z" fill="#AB9C97"/>
<path d="M56.5424 71.2549C56.5424 66.0488 52.322 61.8284 47.1157 61.8284C45.7447 61.8284 10.8006 61.8284 9.42648 61.8284C4.22039 61.8284 0 66.0485 0 71.2549V89.8283H56.5424V87.421V71.2549Z" fill="#EF6B69"/>
<path d="M28.2715 71.4949C23.74 71.4949 20.0664 67.8213 20.0664 63.2898V43.5439H36.4766L36.7969 63.2898C36.7972 67.8213 32.8032 71.4949 28.2715 71.4949Z" fill="#FFB09E"/>
<path d="M29.9162 6.69482H13.3505C7.49768 6.69482 2.95503 11.8006 3.63608 17.6136L5.76475 35.7845H29.9162V6.69482Z" fill="#4F6D8F"/>
<path d="M20.0664 59.121C22.5339 60.2332 25.2689 60.8571 28.1512 60.8571H28.3403C31.2426 60.8571 33.9956 60.2246 36.4766 59.0978V43.5439H20.0664V59.121Z" fill="#FFA78F"/>
<path d="M18.6681 27.6294H8.43041C4.72049 27.6294 1.71289 30.637 1.71289 34.3469C1.71289 38.0568 4.72049 41.0644 8.43041 41.0644H18.6681V27.6294Z" fill="#FFB09E"/>
<path d="M48.0503 27.6294H37.9062V41.0642H48.0503C51.7602 41.0642 54.7678 38.0566 54.7678 34.3467C54.7678 30.637 51.7602 27.6294 48.0503 27.6294Z" fill="#FFA78F"/>
<path d="M28.2713 57.2649L27.8462 57.2952C27.1019 57.2952 26.6722 57.5358 25.9495 57.4554C16.1037 56.3608 8.44727 48.0111 8.44727 37.8733V30.82C8.44727 19.9379 17.269 11.1162 28.151 11.1162H28.3401C39.2221 11.1162 48.0438 19.9379 48.0438 30.82V37.8733C48.044 48.7556 39.1536 57.2649 28.2713 57.2649Z" fill="#FFCEBF"/>
<path d="M17.2646 41.1775C16.2082 41.1775 15.4247 41.1775 14.3511 41.1775C13.6275 41.1775 13.041 41.764 13.041 42.4876C13.041 43.2112 13.6275 43.7977 14.3511 43.7977H17.2646C17.9882 43.7977 18.5747 43.2112 18.5747 42.4876C18.5747 41.764 17.9882 41.1775 17.2646 41.1775Z" fill="#FE8F83"/>
<path d="M28.2401 49.7393C24.964 49.7393 22.2988 47.0739 22.2988 43.798C22.2988 42.8393 23.0759 42.0623 24.0346 42.0623C24.9932 42.0623 25.7703 42.8393 25.7703 43.798C25.7703 45.1599 26.8784 46.268 28.2403 46.268C29.6022 46.268 30.7104 45.1601 30.7104 43.798C30.7104 42.8393 31.4875 42.0623 32.4461 42.0623C33.4048 42.0623 34.1818 42.8393 34.1818 43.798C34.1814 47.0739 31.5163 49.7393 28.2401 49.7393Z" fill="#FFA799"/>
<path d="M18.5736 39.3435C17.615 39.3435 16.8379 38.5665 16.8379 37.6078V33.9611C16.8379 33.0024 17.615 32.2253 18.5736 32.2253C19.5322 32.2253 20.3093 33.0024 20.3093 33.9611V37.6078C20.3091 38.5665 19.5322 39.3435 18.5736 39.3435Z" fill="#5A5A5A"/>
<path d="M37.9056 39.3436C36.947 39.3436 36.1699 38.5665 36.1699 37.6078V33.9611C36.1699 33.0024 36.947 32.2253 37.9056 32.2253C38.8643 32.2253 39.6414 33.0024 39.6414 33.9611V37.6078C39.6414 38.5665 38.8645 39.3436 37.9056 39.3436Z" fill="#5A5A5A"/>
<path d="M28.3389 11.1162H28.1498C27.4112 11.1162 26.6839 11.1635 25.9668 11.244C35.8032 12.3477 43.4508 20.6888 43.4508 30.8202V37.8735C43.4508 48.0047 35.8032 56.3462 25.9668 57.4494C26.6839 57.53 27.4112 57.5773 28.15 57.5773H28.3391C39.2214 57.5773 48.0431 48.7556 48.0431 37.8735V30.8202C48.0426 19.9379 39.2209 11.1162 28.3389 11.1162Z" fill="#FFB09E"/>
<path d="M47.7622 27.6291V27.5174C46.1904 18.2084 38.0953 11.116 28.3392 11.116H28.1502C20.175 11.116 13.3116 15.8569 10.2109 22.672C12.6896 25.6976 16.4543 27.6291 20.6708 27.6291H47.7622Z" fill="#FFB09E"/>
<path d="M52.3533 27.6293H25.2619C17.7974 27.6293 11.7461 21.578 11.7461 14.1134V10.4749C11.7461 5.01976 16.1684 0.597412 21.6235 0.597412H39.0005C46.375 0.597412 52.3533 6.57565 52.3533 13.9502V27.6293Z" fill="#4F6D8F"/>
<path d="M39.001 0.597656H33.0586C40.4331 0.597656 46.4114 6.57589 46.4114 13.9504V27.6293H52.3537V13.9504C52.3539 6.57589 46.3757 0.597656 39.001 0.597656Z" fill="#455E7E"/>
<path d="M42.1299 41.1775C41.0735 41.1775 40.2899 41.1775 39.2164 41.1775C38.4928 41.1775 37.9062 41.764 37.9062 42.4876C37.9062 43.2112 38.4928 43.7977 39.2164 43.7977H42.1299C42.8535 43.7977 43.44 43.2112 43.44 42.4876C43.44 41.764 42.8537 41.1775 42.1299 41.1775Z" fill="#FE8F83"/>
<path d="M47.1162 61.8284H41.1738C46.3799 61.8284 50.6003 66.0488 50.6003 71.2549V89.829H56.5427C56.5427 81.9322 56.5427 89.4298 56.5427 71.2549C56.5429 66.0485 52.3225 61.8284 47.1162 61.8284Z" fill="#0078C8"/>
<path d="M36.4297 97.1797V109.402H75.6802V97.1797C75.6802 93.12 72.3892 89.8289 68.3293 89.8289H43.7806C39.7209 89.8289 36.4297 93.1198 36.4297 97.1797Z" fill="#D3E1F4"/>
<path d="M68.3296 89.8289H61.7695C65.8292 89.8289 69.1204 93.12 69.1204 97.1797V109.402H75.6807V97.1797C75.6804 93.12 72.3893 89.8289 68.3296 89.8289Z" fill="#B3CBEA"/>
<path d="M56.0573 96.7721C52.2253 96.7721 49.1191 93.6659 49.1191 89.834V73.137H62.9955V89.834C62.9955 93.6657 59.8892 96.7721 56.0573 96.7721Z" fill="#FFB09E"/>
<path d="M49.1191 89.834C49.1191 89.8991 49.1221 89.9637 49.1241 90.0286C51.2581 91.0246 53.6369 91.5841 56.1473 91.5841C58.5869 91.5841 60.9012 91.0545 62.9884 90.1109C62.992 90.0189 62.9955 89.9268 62.9955 89.834V73.137H49.1191V89.834Z" fill="#FFA78F"/>
<path d="M64.2033 43.7893H49.4568C42.2912 43.7893 36.4824 49.598 36.4824 56.7637V58.8408V72.4448H56.0298V58.8408H64.2033V43.7893Z" fill="#AA6A51"/>
<path d="M72.7827 75.6527H64.2051V64.2922H72.7827C75.9199 64.2922 78.463 66.8353 78.463 69.9725C78.463 73.1096 75.9199 75.6527 72.7827 75.6527Z" fill="#FFA78F"/>
<path d="M47.8575 75.6527H39.2799C36.1427 75.6527 33.5996 73.1096 33.5996 69.9725C33.5996 66.8353 36.1427 64.2922 39.2799 64.2922H47.8575V75.6527Z" fill="#FFB09E"/>
<path d="M56.1473 89.6163C46.963 89.6163 39.5176 82.1709 39.5176 72.9868V66.9589C39.5176 57.7745 46.963 50.3293 56.1471 50.3293C65.3315 50.3293 72.7767 57.7748 72.7767 66.9589V72.9868C72.7769 82.1709 65.3317 89.6163 56.1473 89.6163Z" fill="#FFCEBF"/>
<path d="M46.7512 76.4634C45.8579 76.4634 45.1954 76.4634 44.2876 76.4634C43.6758 76.4634 43.1797 76.9595 43.1797 77.5713C43.1797 78.1832 43.6758 78.6793 44.2876 78.6793H46.7512C47.3631 78.6793 47.8592 78.1832 47.8592 77.5713C47.8592 76.9595 47.3631 76.4634 46.7512 76.4634Z" fill="#FE8F83"/>
<path d="M56.0323 83.9958C53.114 83.9958 50.7402 81.6217 50.7402 78.7037C50.7402 77.7451 51.5173 76.968 52.476 76.968C53.4346 76.968 54.2117 77.7451 54.2117 78.7037C54.2117 79.7077 55.0285 80.5243 56.0323 80.5243C57.036 80.5243 57.8529 79.7077 57.8529 78.7037C57.8529 77.7451 58.63 76.968 59.5886 76.968C60.5472 76.968 61.3243 77.7451 61.3243 78.7037C61.3245 81.6217 58.9505 83.9958 56.0323 83.9958Z" fill="#FFA799"/>
<path d="M47.8568 74.6718C46.8982 74.6718 46.1211 73.8947 46.1211 72.9361V70.9193C46.1211 69.9607 46.8982 69.1836 47.8568 69.1836C48.8154 69.1836 49.5925 69.9607 49.5925 70.9193V72.9361C49.5925 73.8947 48.8154 74.6718 47.8568 74.6718Z" fill="#5A5A5A"/>
<path d="M64.2025 74.6718C63.2439 74.6718 62.4668 73.8947 62.4668 72.9361V70.9193C62.4668 69.9607 63.2439 69.1836 64.2025 69.1836C65.1611 69.1836 65.9382 69.9607 65.9382 70.9193V72.9361C65.9382 73.8947 65.1611 74.6718 64.2025 74.6718Z" fill="#5A5A5A"/>
<path d="M56.1479 50.3293C55.4814 50.3293 54.8257 50.373 54.1797 50.4492C62.4357 51.4233 68.8413 58.441 68.8413 66.9589V72.9868C68.8413 81.5047 62.4357 88.5223 54.1797 89.4964C54.8255 89.5727 55.4814 89.6163 56.1477 89.6163C65.332 89.6163 72.7772 82.1711 72.7772 72.9868V66.9589C72.7774 57.7745 65.3322 50.3293 56.1479 50.3293Z" fill="#FFB09E"/>
<path d="M59.7178 40.6133H56.8255C49.4972 40.6133 43.3733 45.7659 41.8761 52.6454L41.8752 52.6445C41.38 55.3932 41.4485 56.7992 41.4485 58.8411C41.4485 58.8411 46.898 67.0786 51.7728 65.643C51.2482 64.7488 50.5925 63.7805 50.3871 62.1054C52.5536 64.3612 55.4825 66.529 58.4904 65.643C57.9659 64.749 57.31 63.7805 57.1046 62.1054C59.1368 64.2214 62.0439 66.4463 64.7713 65.643C64.7378 65.5859 64.3169 64.8689 64.2841 64.8118C62.7542 62.157 64.6993 58.8411 67.7634 58.8411C69.6476 58.8411 71.343 60.0324 71.934 61.8216C72.1978 62.6204 72.4032 63.4458 72.5448 64.2929C72.6217 64.2899 72.6986 64.2871 72.7762 64.2871C73.8165 64.2871 74.7908 64.5679 75.6295 65.0556C75.6295 64.8943 75.6295 56.4952 75.6295 56.5255C75.6297 47.7373 68.5057 40.6133 59.7178 40.6133Z" fill="#AA6A51"/>
<path d="M59.7165 40.6131C56.5175 40.6131 56.5207 40.602 55.7812 40.6518C64.0545 41.2183 70.5902 48.108 70.5902 56.5251C70.5902 56.512 70.5902 58.0705 70.5902 59.8586C71.1993 60.3637 71.673 61.0345 71.9328 61.8212C72.1966 62.62 72.402 63.4454 72.5436 64.2926C72.6205 64.2896 72.6974 64.2868 72.775 64.2868C73.8152 64.2868 74.7896 64.5676 75.6283 65.0553C75.6283 64.8939 75.6283 56.4948 75.6283 56.5251C75.6285 47.7371 68.5045 40.6131 59.7165 40.6131Z" fill="#935B44"/>
<path d="M67.7766 76.4634C66.8833 76.4634 66.2207 76.4634 65.313 76.4634C64.7011 76.4634 64.2051 76.9595 64.2051 77.5713C64.2051 78.1832 64.7011 78.6793 65.313 78.6793H67.7766C68.3885 78.6793 68.8846 78.1832 68.8846 77.5713C68.8846 76.9595 68.3885 76.4634 67.7766 76.4634Z" fill="#FE8F83"/>
</g>
<defs>
<clipPath id="clip0_1200:78">
<rect width="110" height="110" fill="white"/>
</clipPath>
</defs>
</svg>
