<svg width="110" height="110" viewBox="0 0 110 110" fill="none" xmlns="http://www.w3.org/2000/svg">
<g clip-path="url(#clip0_1200:408)">
<path d="M68.8176 48.168C63.3283 48.168 58.8637 52.5407 58.709 57.9923V66.1398H77.1954V48.168H68.8176Z" fill="#2795E6"/>
<path d="M95.6011 15.4076L98.6383 35.6292C98.9671 37.8171 98.6558 40.0594 97.7463 42.0538C96.0415 45.7928 92.4725 48.1679 88.5592 48.1679H78.0946H78.0559H67.5913C63.6779 48.1679 60.1089 45.7928 58.4041 42.0538C57.4947 40.0594 57.1834 37.8171 57.5121 35.6292L60.5498 15.4051C61.1806 11.2053 64.3128 7.93 68.2784 7.32307C74.7632 6.3307 81.3488 6.32941 87.8341 7.31963L87.8697 7.325C91.8366 7.93086 94.9701 11.2068 95.6011 15.4076Z" fill="#4F6D8F"/>
<path d="M78.0683 48.168C75.7544 48.168 73.5512 47.6958 71.5488 46.8435V50.8181C71.5488 54.4187 74.4677 57.3375 78.0683 57.3375C81.6688 57.3375 84.5877 54.4187 84.5877 50.8181V46.8435C82.5853 47.696 80.3821 48.168 78.0683 48.168Z" fill="#FFA78F"/>
<path d="M106.163 93.9827C108.182 91.5932 109.141 88.2612 108.763 84.9466L107.502 73.8894C106.139 61.945 98.0522 51.8385 86.6973 47.8899L75.0713 51.9326C70.8416 53.4034 67.7496 57.6103 67.1712 62.6812L64.6318 84.9466C64.2537 88.2612 65.2123 91.5932 67.2312 93.9827C68.9985 96.0744 71.4189 97.2535 73.9459 97.2535H99.4487C101.976 97.2535 104.396 96.0744 106.163 93.9827Z" fill="#D2C2BC"/>
<path d="M108.762 84.9466L107.501 73.8894C106.139 61.945 98.0515 51.8383 86.6966 47.8899L82.9316 49.1991C92.5955 53.8028 99.3197 63.095 100.551 73.8894L101.812 84.9466C102.19 88.2612 101.232 91.5932 99.2127 93.9827C97.4454 96.0744 95.025 97.2535 92.498 97.2535H99.4482C101.975 97.2535 104.396 96.0744 106.163 93.9827C108.182 91.5932 109.14 88.2612 108.762 84.9466Z" fill="#AB9C97"/>
<path d="M98.6388 35.6296L95.6016 15.408C94.9706 11.2072 91.8369 7.93125 87.87 7.32561L87.8343 7.32024C83.7938 6.70342 79.7143 6.47161 75.6445 6.62436C78.097 6.71674 80.5458 6.94856 82.9806 7.32024L83.0163 7.32561C86.9831 7.93125 90.1168 11.2072 90.7478 15.408L93.7851 35.6296C94.1138 37.8175 93.8023 40.0599 92.8931 42.0542C91.1883 45.7932 87.6193 48.1683 83.7059 48.1683H88.5597C92.473 48.1683 96.042 45.7932 97.7468 42.0542C98.6562 40.0599 98.9675 37.8175 98.6388 35.6296Z" fill="#455E7E"/>
<path d="M104.502 109.984H68.8379V101.34C68.8379 97.8198 71.6917 94.9661 75.2121 94.9661H98.1273C101.648 94.9661 104.502 97.8198 104.502 101.34L104.502 109.984Z" fill="#EF6B69"/>
<path d="M98.1269 94.9661H91.8086C95.329 94.9661 98.1828 97.8198 98.1828 101.34V109.984H104.501V101.34C104.501 97.8198 101.647 94.9661 98.1269 94.9661Z" fill="#E53935"/>
<path d="M40.3985 48.168C45.9855 48.168 50.5146 52.6971 50.5146 58.2841V69.0308H30.3457V48.1682L40.3985 48.168Z" fill="#E53935"/>
<path d="M39.2537 50.0527V40.8843H26.2148V50.0527C26.2148 53.6533 29.1337 56.5722 32.7343 56.5722C36.3348 56.5722 39.2537 53.6533 39.2537 50.0527Z" fill="#FFCEBF"/>
<path d="M32.7341 11.0598H16.693C14.1237 11.0598 12.041 13.1425 12.041 15.7118V27.8902H32.7341V11.0598Z" fill="#ACACAC"/>
<path d="M32.7341 11.0598H16.693C14.1237 11.0598 12.041 13.1425 12.041 15.7118V27.8902H32.7341V11.0598Z" fill="#4F6D8F"/>
<path d="M49.9099 22.9512C49.8302 22.9512 49.7512 22.954 49.6723 22.9572C48.3111 14.8179 41.2352 8.61426 32.7093 8.61426C24.1835 8.61426 17.1076 14.8179 15.7463 22.9572C15.6675 22.954 15.5884 22.9512 15.5087 22.9512C12.283 22.9512 9.66797 25.5661 9.66797 28.792C9.66797 32.0178 12.283 34.6327 15.5087 34.6327C15.5884 34.6327 15.6675 34.6299 15.7463 34.6267C17.1076 42.766 24.1835 48.9696 32.7093 48.9696C41.2352 48.9696 48.3111 42.766 49.6723 34.6267C49.7512 34.6299 49.8302 34.6327 49.9099 34.6327C53.1356 34.6327 55.7507 32.0176 55.7507 28.792C55.7507 25.5663 53.1358 22.9512 49.9099 22.9512Z" fill="#FFCEBF"/>
<path d="M24.3117 32.7547C23.6876 32.7547 23.1816 32.2488 23.1816 31.6247V28.4572C23.1816 27.8331 23.6876 27.3271 24.3117 27.3271C24.9358 27.3271 25.4418 27.8331 25.4418 28.4572V31.6247C25.4418 32.2488 24.9358 32.7547 24.3117 32.7547Z" fill="#395376"/>
<path d="M41.1027 32.7547C40.4786 32.7547 39.9727 32.2488 39.9727 31.6247V28.4572C39.9727 27.8331 40.4786 27.3271 41.1027 27.3271C41.7269 27.3271 42.2328 27.8331 42.2328 28.4572V31.6247C42.2328 32.2488 41.7269 32.7547 41.1027 32.7547Z" fill="#395376"/>
<path d="M44.7367 33.4194C43.828 33.4194 43.154 33.4194 42.2306 33.4194C41.6082 33.4194 41.1035 33.9241 41.1035 34.5465C41.1035 35.1689 41.6082 35.6736 42.2306 35.6736H44.7367C45.3591 35.6736 45.8638 35.1689 45.8638 34.5465C45.8636 33.9241 45.3591 33.4194 44.7367 33.4194Z" fill="#FE8F83"/>
<path d="M44.7367 33.4194C43.828 33.4194 43.154 33.4194 42.2306 33.4194C41.6082 33.4194 41.1035 33.9241 41.1035 34.5465C41.1035 35.1689 41.6082 35.6736 42.2306 35.6736H44.7367C45.3591 35.6736 45.8638 35.1689 45.8638 34.5465C45.8636 33.9241 45.3591 33.4194 44.7367 33.4194Z" fill="#FE8F83"/>
<path d="M23.1254 33.4194C22.2166 33.4194 21.5427 33.4194 20.6193 33.4194C19.9969 33.4194 19.4922 33.9241 19.4922 34.5465C19.4922 35.1689 19.9969 35.6736 20.6193 35.6736H23.1254C23.7478 35.6736 24.2525 35.1689 24.2525 34.5465C24.2525 33.9241 23.7478 33.4194 23.1254 33.4194Z" fill="#FE8F83"/>
<path d="M49.9079 22.9512C49.8282 22.9512 49.7492 22.954 49.6703 22.9572C48.3091 14.8179 41.2332 8.61426 32.7073 8.61426C32.0628 8.61426 31.4271 8.65143 30.8008 8.72061C38.4668 9.55656 44.6198 15.4263 45.8792 22.9572C45.958 22.954 46.0371 22.9512 46.1168 22.9512C49.3425 22.9512 51.9575 25.5661 51.9575 28.792C51.9575 32.0178 49.3427 34.6327 46.117 34.6327C46.0373 34.6327 45.9582 34.6299 45.8794 34.6267C44.62 42.1576 38.4671 48.0271 30.801 48.8633C31.427 48.9325 32.0628 48.9696 32.7073 48.9696C41.2332 48.9696 48.3091 42.766 49.6703 34.6267C49.7492 34.6299 49.8282 34.6327 49.9079 34.6327C53.1336 34.6327 55.7487 32.0176 55.7487 28.792C55.7487 25.5663 53.1338 22.9512 49.9079 22.9512Z" fill="#FFB09E"/>
<path d="M40.2576 109.984H4.59375V101.34C4.59375 97.8198 7.44752 94.9661 10.9679 94.9661H33.8832C37.4036 94.9661 40.2574 97.8198 40.2574 101.34L40.2576 109.984Z" fill="#D3E1F4"/>
<path d="M33.8828 94.9661H27.5645C31.0849 94.9661 33.9387 97.8198 33.9387 101.34V109.984H40.257V101.34C40.257 97.8198 37.4032 94.9661 33.8828 94.9661Z" fill="#B3CBEA"/>
<path d="M29.1737 93.8458V84.3916H15.7285V93.8458C15.7285 97.5585 18.7383 100.568 22.4512 100.568C26.1639 100.568 29.1737 97.5585 29.1737 93.8458Z" fill="#FFA78F"/>
<path d="M93.6997 92.3027V82.4553H79.6953V92.3027C79.6953 96.1699 82.8303 99.3049 86.6975 99.3049C90.5647 99.3049 93.6997 96.1699 93.6997 92.3027Z" fill="#FFA78F"/>
<path d="M94.7289 22.9667C94.6518 22.9667 94.5751 22.9695 94.4988 22.9725C93.1803 15.0886 86.3266 9.07959 78.0682 9.07959C69.8098 9.07959 62.9561 15.0886 61.6376 22.9725C61.5611 22.9695 61.4846 22.9667 61.4075 22.9667C58.283 22.9667 55.75 25.4995 55.75 28.6241C55.75 31.7488 58.283 34.2816 61.4075 34.2816C61.4846 34.2816 61.5613 34.2788 61.6376 34.2758C62.9561 42.1597 69.8098 48.1687 78.0682 48.1687C86.3266 48.1687 93.1803 42.1597 94.4988 34.2758C94.5753 34.2788 94.6518 34.2816 94.7289 34.2816C97.8534 34.2816 100.386 31.7486 100.386 28.6241C100.386 25.4997 97.8534 22.9667 94.7289 22.9667Z" fill="#FFCEBF"/>
<path d="M94.7295 22.9667C94.6523 22.9667 94.5756 22.9695 94.4994 22.9725C93.1809 15.0886 86.3271 9.07959 78.0687 9.07959C77.4277 9.07959 76.7962 9.11955 76.174 9.19066C83.5647 10.0286 89.4894 15.6985 90.7074 22.9673C90.7424 22.9675 90.777 22.9692 90.8118 22.9699C90.8541 22.9686 90.896 22.9667 90.9385 22.9667C94.063 22.9667 96.596 25.4995 96.596 28.6241C96.596 31.7488 94.063 34.2816 90.9385 34.2816C90.896 34.2816 90.8539 34.2797 90.8118 34.2784C90.777 34.2793 90.7424 34.281 90.7074 34.281C89.4892 41.55 83.5645 47.2197 76.1738 48.0576C76.796 48.1287 77.4274 48.1687 78.0687 48.1687C86.3271 48.1687 93.1809 42.1597 94.4994 34.2758C94.5758 34.2788 94.6523 34.2816 94.7295 34.2816C97.8539 34.2816 100.387 31.7486 100.387 28.6241C100.387 25.4997 97.8539 22.9667 94.7295 22.9667Z" fill="#FFB09E"/>
<path d="M23.7969 50.2761H11.0433C7.10439 50.2761 4.01258 53.6526 4.35847 57.5763L6.19818 78.4413H23.7969V50.2761Z" fill="#AB9C97"/>
<path d="M103.57 66.8162C103.491 66.8162 103.414 66.819 103.336 66.822C101.999 58.8249 95.0465 52.7297 86.6698 52.7297C78.293 52.7297 71.3409 58.8249 70.0035 66.822C69.9259 66.8188 69.8484 66.8162 69.7699 66.8162C66.6006 66.8162 64.0312 69.3853 64.0312 72.5547C64.0312 75.724 66.6006 78.2934 69.7699 78.2934C69.8484 78.2934 69.9259 78.2906 70.0035 78.2876C71.3409 86.2847 78.293 92.3798 86.6698 92.3798C95.0465 92.3798 101.999 86.2847 103.336 78.2876C103.414 78.2908 103.491 78.2934 103.57 78.2934C106.739 78.2934 109.308 75.724 109.308 72.5547C109.308 69.3853 106.739 66.8162 103.57 66.8162Z" fill="#FFCEBF"/>
<path d="M24.3117 32.7547C23.6876 32.7547 23.1816 32.2488 23.1816 31.6247V28.4572C23.1816 27.8331 23.6876 27.3271 24.3117 27.3271C24.9358 27.3271 25.4418 27.8331 25.4418 28.4572V31.6247C25.4418 32.2488 24.9358 32.7547 24.3117 32.7547Z" fill="#5A5A5A"/>
<path d="M41.1047 32.7547C40.4806 32.7547 39.9746 32.2488 39.9746 31.6247V28.4572C39.9746 27.8331 40.4806 27.3271 41.1047 27.3271C41.7288 27.3271 42.2348 27.8331 42.2348 28.4572V31.6247C42.2348 32.2488 41.7288 32.7547 41.1047 32.7547Z" fill="#5A5A5A"/>
<path d="M44.7367 33.4194C43.828 33.4194 43.154 33.4194 42.2306 33.4194C41.6082 33.4194 41.1035 33.9241 41.1035 34.5465C41.1035 35.1689 41.6082 35.6736 42.2306 35.6736H44.7367C45.3591 35.6736 45.8638 35.1689 45.8638 34.5465C45.8636 33.9241 45.3591 33.4194 44.7367 33.4194Z" fill="#FE8F83"/>
<path d="M86.201 32.4372C85.61 32.4372 85.1309 31.9581 85.1309 31.3671V28.2991C85.1309 27.7081 85.61 27.229 86.201 27.229H87.5201C88.1112 27.229 88.5903 27.7081 88.5903 28.2991C88.5903 28.8902 88.1112 29.3693 87.5201 29.3693H87.2714V31.3671C87.2711 31.9581 86.792 32.4372 86.201 32.4372Z" fill="#5A5A5A"/>
<path d="M69.9359 32.4372C69.3449 32.4372 68.8658 31.9581 68.8658 31.3671V29.3693H68.617C68.026 29.3693 67.5469 28.8902 67.5469 28.2991C67.5469 27.7081 68.026 27.229 68.617 27.229H69.9362C70.5272 27.229 71.0063 27.7081 71.0063 28.2991V31.3671C71.0061 31.9581 70.527 32.4372 69.9359 32.4372Z" fill="#5A5A5A"/>
<path d="M58.4319 22.972H80.3139C86.2329 22.972 91.0312 18.1737 91.0312 12.2547C91.0312 6.78909 86.6005 2.35815 81.1346 2.35815H72.2306C64.6097 2.35815 58.4316 8.5362 58.4316 16.1571V22.972H58.4319Z" fill="#4F6D8F"/>
<path d="M81.1354 2.35815H76.2816C81.7473 2.35815 86.1782 6.78888 86.1782 12.2547C86.1782 18.1737 81.3799 22.972 75.4609 22.972H80.3147C86.2336 22.972 91.0319 18.1737 91.0319 12.2547C91.0319 6.78909 86.6012 2.35815 81.1354 2.35815Z" fill="#4D688C"/>
<path d="M38.6509 67.4224C38.5757 67.4224 38.5011 67.425 38.4268 67.428C37.1427 59.7504 30.4683 53.8984 22.4259 53.8984C14.3836 53.8984 7.70906 59.7501 6.42494 67.428C6.35039 67.425 6.27605 67.4224 6.20086 67.4224C3.15803 67.4224 0.691406 69.8891 0.691406 72.9319C0.691406 75.9747 3.15803 78.4413 6.20086 78.4413C6.27605 78.4413 6.35061 78.4388 6.42494 78.4358C7.70906 86.1134 14.3834 91.9651 22.4259 91.9651C30.4681 91.9651 37.1427 86.1134 38.4268 78.4358C38.5013 78.4388 38.5757 78.4413 38.6509 78.4413C41.6937 78.4413 44.1603 75.9747 44.1603 72.9319C44.1603 69.8891 41.6937 67.4224 38.6509 67.4224Z" fill="#FFCEBF"/>
<path d="M14.5057 77.2758C13.5825 77.2758 12.834 76.5275 12.834 75.6041V72.6163C12.834 71.6929 13.5825 70.9446 14.5057 70.9446C15.4289 70.9446 16.1774 71.6929 16.1774 72.6163V75.6041C16.1774 76.5273 15.4289 77.2758 14.5057 77.2758Z" fill="#5A5A5A"/>
<path d="M30.3436 77.2758C29.4204 77.2758 28.6719 76.5275 28.6719 75.6041V72.6163C28.6719 71.6929 29.4204 70.9446 30.3436 70.9446C31.2668 70.9446 32.0153 71.6929 32.0153 72.6163V75.6041C32.0153 76.5273 31.267 77.2758 30.3436 77.2758Z" fill="#5A5A5A"/>
<path d="M94.9217 77.0094C93.9985 77.0094 93.25 76.2611 93.25 75.3377V72.2257C93.25 71.3023 93.9985 70.554 94.9217 70.554H96.2597C97.1829 70.554 97.9314 71.3023 97.9314 72.2257C97.9314 73.0348 97.3567 73.7096 96.5934 73.8641V75.3377C96.5934 76.2611 95.8449 77.0094 94.9217 77.0094Z" fill="#5A5A5A"/>
<path d="M78.4199 77.0094C77.4967 77.0094 76.7482 76.2611 76.7482 75.3377V73.8641C75.9849 73.7096 75.4102 73.0348 75.4102 72.2257C75.4102 71.3023 76.1587 70.554 77.0819 70.554H78.4199C79.3431 70.554 80.0916 71.3023 80.0916 72.2257V75.3377C80.0916 76.2611 79.3431 77.0094 78.4199 77.0094Z" fill="#5A5A5A"/>
<path d="M53.3479 10.4049C53.3479 4.65846 48.6895 0 42.943 0H38.4H31.5952H29.615C23.2778 0 18.1406 5.13713 18.1406 11.4742C18.1406 17.8112 23.2778 22.9483 29.6148 22.9483H49.644H53.3477V10.4049H53.3479Z" fill="#4F6D8F"/>
<path d="M42.9416 0H38.3985H36.623C42.3695 0 47.0279 4.65846 47.0279 10.4049V22.9481H49.6426H53.3463V10.4049C53.3467 4.65846 48.6882 0 42.9416 0Z" fill="#455E7E"/>
<path d="M68.3743 33.3679C67.5137 33.3679 66.8754 33.3679 66.0009 33.3679C65.4114 33.3679 64.9336 33.8457 64.9336 34.4353C64.9336 35.0248 65.4114 35.5026 66.0009 35.5026H68.3743C68.9638 35.5026 69.4417 35.0248 69.4417 34.4353C69.4417 33.8457 68.9638 33.3679 68.3743 33.3679Z" fill="#FE8F83"/>
<path d="M90.138 33.3679C89.2773 33.3679 88.639 33.3679 87.7646 33.3679C87.1751 33.3679 86.6973 33.8457 86.6973 34.4353C86.6973 35.0248 87.1751 35.5026 87.7646 35.5026H90.138C90.7275 35.5026 91.2053 35.0248 91.2053 34.4353C91.2053 33.8457 90.7275 33.3679 90.138 33.3679Z" fill="#FE8F83"/>
<path d="M22.4262 85.7927C19.6044 85.7927 17.3086 83.4969 17.3086 80.6751C17.3086 79.7517 18.0571 79.0034 18.9803 79.0034C19.9035 79.0034 20.652 79.7517 20.652 80.6751C20.652 81.6533 21.4478 82.4491 22.426 82.4491C23.4041 82.4491 24.1999 81.6533 24.1999 80.6751C24.1999 79.7517 24.9484 79.0034 25.8716 79.0034C26.7948 79.0034 27.5433 79.7517 27.5433 80.6751C27.5438 83.4969 25.2479 85.7927 22.4262 85.7927Z" fill="#FFA799"/>
<path d="M86.671 85.8811C83.7702 85.8811 81.4102 83.521 81.4102 80.6202C81.4102 79.6968 82.1587 78.9485 83.0819 78.9485C84.005 78.9485 84.7536 79.6968 84.7536 80.6202C84.7536 81.6774 85.6138 82.5377 86.671 82.5377C87.7283 82.5377 88.5885 81.6774 88.5885 80.6202C88.5885 79.6968 89.337 78.9485 90.2602 78.9485C91.1834 78.9485 91.9319 79.6968 91.9319 80.6202C91.9319 83.5212 89.5719 85.8811 86.671 85.8811Z" fill="#FFA799"/>
<path d="M103.571 66.8162C103.492 66.8162 103.415 66.819 103.337 66.822C102 58.8249 95.0477 52.7297 86.671 52.7297C86.0296 52.7297 85.3982 52.7697 84.7754 52.8393C92.287 53.6783 98.3112 59.4372 99.5463 66.822C99.6239 66.8188 99.7014 66.8162 99.7799 66.8162C102.949 66.8162 105.519 69.3853 105.519 72.5547C105.519 75.724 102.949 78.2933 99.7799 78.2933C99.7017 78.2933 99.6239 78.2905 99.5463 78.2875C98.3112 85.6724 92.287 91.4312 84.7754 92.2702C85.398 92.3398 86.0296 92.3796 86.671 92.3796C95.0477 92.3796 102 86.2844 103.337 78.2873C103.415 78.2905 103.492 78.2931 103.571 78.2931C106.74 78.2931 109.309 75.7238 109.309 72.5544C109.309 69.3853 106.74 66.8162 103.571 66.8162Z" fill="#FFB09E"/>
<path d="M38.6499 67.4224C38.5747 67.4224 38.5001 67.425 38.4258 67.428C37.1417 59.7503 30.4673 53.8984 22.4249 53.8984C21.7833 53.8984 21.1515 53.9397 20.5293 54.0121C27.7055 54.8478 33.453 60.3627 34.6347 67.4278C34.7092 67.4248 34.7835 67.4222 34.8587 67.4222C37.9016 67.4222 40.3682 69.8888 40.3682 72.9317C40.3682 75.9745 37.9016 78.4411 34.8587 78.4411C34.7835 78.4411 34.709 78.4385 34.6347 78.4355C33.453 85.5007 27.7055 91.0157 20.5293 91.8512C21.1515 91.9236 21.7831 91.9649 22.4249 91.9649C30.4671 91.9649 37.1417 86.1132 38.4258 78.4355C38.5003 78.4385 38.5747 78.4411 38.6499 78.4411C41.6927 78.4411 44.1593 75.9745 44.1593 72.9317C44.1593 69.889 41.6927 67.4224 38.6499 67.4224Z" fill="#FFB09E"/>
<path d="M105.898 66.8218H84.4043C78.4005 66.8218 73.5332 61.9547 73.5332 55.9507C73.5332 50.4066 78.0275 45.9121 83.5718 45.9121H91.9011C99.6313 45.9121 105.898 52.1787 105.898 59.909V66.8218H105.898Z" fill="#C0B5B1"/>
<path d="M91.9004 45.9124H85.582C93.3123 45.9124 99.5789 52.1789 99.5789 59.9092V66.8218H105.897V59.9092C105.897 52.1789 99.6307 45.9124 91.9004 45.9124Z" fill="#AB9C97"/>
<path d="M42.1824 67.4281H19.9858C13.8698 67.4281 8.91211 62.4702 8.91211 56.3545V53.3735C8.91211 48.9039 12.5355 45.2808 17.0048 45.2808H31.2421C37.2842 45.2808 42.1824 50.1788 42.1824 56.221V67.4281Z" fill="#C0B5B1"/>
<path d="M31.2402 45.2803H24.9219C30.9639 45.2803 35.8621 50.1783 35.8621 56.2206V67.4279H42.1805V56.2206C42.1805 50.1783 37.2823 45.2803 31.2402 45.2803Z" fill="#AB9C97"/>
<path d="M69.914 78.7374C69.7995 77.921 69.6306 77.1598 69.3605 76.5005C68.8252 74.887 67.2955 73.813 65.5952 73.813C62.8274 73.813 61.0702 76.8081 62.4522 79.2064C62.4819 79.258 62.8622 79.9057 62.8925 79.9573C60.4286 80.683 57.8028 78.6732 55.967 76.7617C56.1526 78.2749 56.7449 79.1497 57.2186 79.9573C54.5015 80.7578 51.8559 78.7995 49.8989 76.7617C50.0845 78.2749 50.6767 79.1495 51.1506 79.9573C46.7472 81.2541 41.8244 73.813 41.8244 73.813C40.9754 75.3139 40.3747 76.9738 40.0797 78.7376C40.0103 78.7348 39.9407 78.7323 39.8707 78.7323C37.0339 78.7323 34.7344 81.0319 34.7344 83.8685C34.7344 86.7053 37.0341 89.0048 39.8707 89.0048C39.9407 89.0048 40.0103 89.0022 40.0797 88.9994C41.2768 96.1572 47.4991 101.612 54.9969 101.612C62.4946 101.612 68.7171 96.1569 69.9142 88.9994C69.9836 89.0022 70.0532 89.0048 70.1232 89.0048C72.96 89.0048 75.2595 86.7051 75.2595 83.8685C75.2595 81.9708 74.23 80.315 72.7001 79.4258C72.4197 79.2627 72.1224 79.1259 71.8117 79.0174C71.1588 78.8042 70.5248 78.7026 69.914 78.7374Z" fill="#FFCEBF"/>
<path d="M54.9956 96.6375C52.3023 96.6375 50.1113 94.4463 50.1113 91.7532C50.1113 90.8298 50.8598 90.0815 51.783 90.0815C52.7062 90.0815 53.4547 90.8298 53.4547 91.7532C53.4547 92.6027 54.1459 93.2939 54.9954 93.2939C55.8449 93.2939 56.536 92.6027 56.536 91.7532C56.536 90.8298 57.2845 90.0815 58.2077 90.0815C59.1309 90.0815 59.8794 90.8298 59.8794 91.7532C59.8796 94.4465 57.6886 96.6375 54.9956 96.6375Z" fill="#FFA799"/>
<path d="M47.6131 88.697C46.6899 88.697 45.9414 87.9487 45.9414 87.0253V84.2398C45.9414 83.3164 46.6899 82.5681 47.6131 82.5681C48.5363 82.5681 49.2848 83.3164 49.2848 84.2398V87.0253C49.2848 87.9487 48.5363 88.697 47.6131 88.697Z" fill="#5A5A5A"/>
<path d="M62.3787 88.697C61.4555 88.697 60.707 87.9487 60.707 87.0253V84.2398C60.707 83.3164 61.4555 82.5681 62.3787 82.5681C63.3019 82.5681 64.0504 83.3164 64.0504 84.2398V87.0253C64.0504 87.9487 63.3019 88.697 62.3787 88.697Z" fill="#5A5A5A"/>
<path d="M69.9142 78.7367C69.7588 77.8853 69.5782 77.126 69.3607 76.4997C68.8253 74.8863 67.2957 73.8123 65.5954 73.8123C64.9047 73.8123 64.2769 73.999 63.7451 74.3161C64.5871 74.7823 65.2531 75.5454 65.5696 76.4997C65.8046 77.1709 65.9888 77.9171 66.123 78.7367C67.0868 78.6909 68.0536 78.9328 68.9091 79.4253C70.4392 80.3147 71.4686 81.9705 71.4686 83.8678C71.4686 86.7046 69.1689 89.0041 66.3323 89.0041C66.2623 89.0041 66.1926 89.0015 66.1232 88.9987C65.0288 95.5433 59.7321 100.662 53.1016 101.491C53.7227 101.569 54.3547 101.612 54.9971 101.612C62.4947 101.612 68.7173 96.1567 69.9144 88.9989C69.9838 89.0017 70.0534 89.0043 70.1234 89.0043C72.9602 89.0043 75.2597 86.7046 75.2597 83.868C75.2597 81.9705 74.2302 80.3147 72.7003 79.4253C72.7003 79.4253 71.5796 78.6832 69.9142 78.7367Z" fill="#FFB09E"/>
<path d="M58.3255 57.3472H55.7128C52.4283 57.3472 49.4123 58.494 47.0411 60.4078C47.0501 60.4005 47.0587 60.3928 47.0677 60.3855C41.543 61.3306 37.3379 66.142 37.3379 71.9363V73.8126V79.3994C38.0851 78.9753 38.9484 78.7318 39.869 78.7318C39.939 78.7318 40.0086 78.7344 40.078 78.7372C40.373 76.9736 40.9737 75.3135 41.8228 73.8126C41.8228 73.8126 46.7455 81.2537 51.1489 79.9569C50.6752 79.1491 50.0828 78.2744 49.8972 76.7613C51.8542 78.7991 54.5 80.7572 57.2169 79.9569C56.7432 79.1495 56.1509 78.2744 55.9653 76.7613C57.8009 78.6728 60.4269 80.6824 62.8908 79.9569C62.8605 79.9053 62.4804 79.2576 62.4505 79.206C61.0684 76.8079 62.8257 73.8126 65.5935 73.8126C67.2955 73.8126 68.8269 74.8887 69.3608 76.5048C69.599 77.2264 69.7847 77.9719 69.9125 78.737C69.9819 78.7342 70.0515 78.7316 70.1215 78.7316C71.0613 78.7316 71.9413 78.9851 72.699 79.4258C72.699 79.2799 72.699 71.6931 72.699 71.7204C72.6988 63.7824 66.2636 57.3472 58.3255 57.3472Z" fill="#C0B5B1"/>
<path d="M58.3249 57.3472H55.7122C55.0851 57.3472 54.4681 57.3897 53.8633 57.4705C60.9237 58.3819 66.3801 64.4121 66.3801 71.7206C66.3801 71.711 66.3801 72.6597 66.3801 73.8934C67.7516 74.1677 68.9105 75.1431 69.3602 76.5048C69.5984 77.2264 69.7841 77.972 69.9119 78.737C69.9813 78.7342 70.0509 78.7316 70.1209 78.7316C71.0607 78.7316 71.9407 78.9852 72.6984 79.4258C72.6984 79.2799 72.6984 71.6931 72.6984 71.7204C72.6982 63.7824 66.263 57.3472 58.3249 57.3472Z" fill="#AB9C97"/>
<path d="M12.7552 77.374C11.8945 77.374 11.2562 77.374 10.3818 77.374C9.79226 77.374 9.31445 77.8518 9.31445 78.4414C9.31445 79.0309 9.79226 79.5087 10.3818 79.5087H12.7552C13.3447 79.5087 13.8225 79.0309 13.8225 78.4414C13.8225 77.8518 13.3447 77.374 12.7552 77.374Z" fill="#FE8F83"/>
<path d="M34.5188 77.374C33.6582 77.374 33.0199 77.374 32.1455 77.374C31.5559 77.374 31.0781 77.8518 31.0781 78.4414C31.0781 79.0309 31.5559 79.5087 32.1455 79.5087H34.5188C35.1084 79.5087 35.5862 79.0309 35.5862 78.4414C35.5862 77.8518 35.1082 77.374 34.5188 77.374Z" fill="#FE8F83"/>
<path d="M76.9759 77.936C76.1152 77.936 75.4769 77.936 74.6025 77.936C74.013 77.936 73.5352 78.4139 73.5352 79.0034C73.5352 79.5929 74.013 80.0707 74.6025 80.0707H76.9759C77.5654 80.0707 78.0432 79.5929 78.0432 79.0034C78.0432 78.4139 77.5652 77.936 76.9759 77.936Z" fill="#FE8F83"/>
<path d="M98.7415 77.936C97.8808 77.936 97.2425 77.936 96.3681 77.936C95.7786 77.936 95.3008 78.4139 95.3008 79.0034C95.3008 79.5929 95.7786 80.0707 96.3681 80.0707H98.7415C99.331 80.0707 99.8089 79.5929 99.8089 79.0034C99.8089 78.4139 99.331 77.936 98.7415 77.936Z" fill="#FE8F83"/>
<path d="M45.3235 89.0142C44.4629 89.0142 43.8246 89.0142 42.9502 89.0142C42.3606 89.0142 41.8828 89.492 41.8828 90.0815C41.8828 90.671 42.3606 91.1488 42.9502 91.1488H45.3235C45.9131 91.1488 46.3909 90.671 46.3909 90.0815C46.3909 89.492 45.9131 89.0142 45.3235 89.0142Z" fill="#FE8F83"/>
<path d="M67.0872 89.0142C66.2265 89.0142 65.5882 89.0142 64.7138 89.0142C64.1243 89.0142 63.6465 89.492 63.6465 90.0815C63.6465 90.671 64.1243 91.1488 64.7138 91.1488H67.0872C67.6767 91.1488 68.1546 90.671 68.1546 90.0815C68.1546 89.492 67.6767 89.0142 67.0872 89.0142Z" fill="#FE8F83"/>
<path d="M40.2929 41.3464C40.0944 41.3464 39.8927 41.3105 39.6963 41.2349C38.8408 40.9053 38.4146 39.9446 38.7444 39.0891C38.9276 38.6132 38.5476 37.8567 38.3349 37.5647C37.7799 36.8349 37.9269 35.7996 38.6567 35.2449C39.3863 34.6897 40.4326 34.8382 40.9873 35.5684C41.1686 35.8071 42.7344 37.9682 41.8422 40.2829C41.5882 40.9419 40.9596 41.3464 40.2929 41.3464Z" fill="#FFB09E"/>
<path d="M25.0702 41.3467C24.4036 41.3467 23.7749 40.9425 23.521 40.2832C22.6287 37.9685 24.1941 35.8076 24.3756 35.5687C24.9297 34.8386 25.9713 34.6966 26.7015 35.2511C27.4279 35.8028 27.5723 36.8371 27.027 37.5667C26.8139 37.8597 26.4356 38.6143 26.6188 39.0893C26.9486 39.9448 26.5224 40.9056 25.6669 41.2352C25.4705 41.3108 25.2687 41.3467 25.0702 41.3467Z" fill="#FFB09E"/>
<path d="M32.6062 41.6152C30.157 41.6152 28.1641 39.6223 28.1641 37.1731C28.1641 36.2561 28.9072 35.5132 29.8239 35.5132C30.7407 35.5132 31.4838 36.2563 31.4838 37.1731C31.4838 37.7918 31.9872 38.2952 32.606 38.2952C33.2247 38.2952 33.7283 37.7918 33.7283 37.1731C33.7283 36.2561 34.4714 35.5132 35.3882 35.5132C36.3049 35.5132 37.0481 36.2563 37.0481 37.1731C37.0485 39.6225 35.0556 41.6152 32.6062 41.6152Z" fill="#FFB09E"/>
<path d="M85.6252 41.4183C85.4267 41.4183 85.225 41.3824 85.0286 41.3067C84.1731 40.9772 83.7468 40.0164 84.0766 39.1609C84.282 38.6279 83.7776 37.7822 83.6762 37.6486C83.1217 36.9188 83.2637 35.8774 83.9937 35.3227C84.7237 34.7682 85.7649 34.91 86.3196 35.6403C86.5012 35.8792 88.0667 38.0403 87.1745 40.355C86.9205 41.0137 86.2919 41.4183 85.6252 41.4183Z" fill="#FFB09E"/>
<path d="M70.4022 41.4178C69.7355 41.4178 69.1069 41.0137 68.8529 40.3544C67.9609 38.0396 69.526 35.8785 69.7074 35.6396C70.2619 34.91 71.3034 34.7676 72.0335 35.3219C72.7599 35.8738 72.9042 36.9078 72.359 37.6374C72.1461 37.9305 71.7675 38.6852 71.9508 39.1605C72.2806 40.016 71.8543 40.9768 70.9988 41.3063C70.8024 41.382 70.6007 41.4178 70.4022 41.4178Z" fill="#FFB09E"/>
<path d="M77.9382 41.6864C75.489 41.6864 73.4961 39.6935 73.4961 37.2441C73.4961 36.3272 74.2392 35.5842 75.156 35.5842C76.0729 35.5842 76.8159 36.3274 76.8159 37.2441C76.8159 37.8629 77.3192 38.3665 77.938 38.3665C78.5567 38.3665 79.0603 37.8629 79.0603 37.2441C79.0603 36.3272 79.8035 35.5842 80.7202 35.5842C81.637 35.5842 82.3801 36.3274 82.3801 37.2441C82.3805 39.6938 80.3876 41.6864 77.9382 41.6864Z" fill="#FFB09E"/>
<path d="M72.826 110H37.1621V107.707C37.1621 105.395 39.0366 103.521 41.349 103.521H68.6391C70.9515 103.521 72.826 105.395 72.826 107.707V110Z" fill="#31A7FB"/>
<path d="M68.6406 103.521H62.3223C64.6346 103.521 66.5091 105.395 66.5091 107.707V110H72.8275V107.707C72.8275 105.395 70.953 103.521 68.6406 103.521Z" fill="#1C96F9"/>
<path d="M54.9942 101.542C52.7676 101.542 50.6535 101.061 48.75 100.197V101.739C48.75 105.2 51.5561 108.006 55.0172 108.006C58.4786 108.006 61.2844 105.201 61.2844 101.739V100.176C59.3691 101.053 57.2389 101.542 54.9942 101.542Z" fill="#FFA78F"/>
</g>
<defs>
<clipPath id="clip0_1200:408">
<rect width="110" height="110" fill="white"/>
</clipPath>
</defs>
</svg>
