<svg width="110" height="110" viewBox="0 0 110 110" fill="none" xmlns="http://www.w3.org/2000/svg">
<g clip-path="url(#clip0_1200:519)">
<path d="M106.952 68.2789C109.247 65.652 110.337 61.9889 109.907 58.3449L108.473 46.1891C106.925 33.058 97.7318 21.9472 84.8246 17.6067L71.6091 22.0509C66.8011 23.6679 63.2865 28.2926 62.6291 33.8676L59.7424 58.3449C59.3128 61.9889 60.4022 65.6518 62.6972 68.2787C64.7062 70.5784 67.4575 71.8745 70.33 71.8745H99.3195C102.192 71.8747 104.943 70.5786 106.952 68.2789Z" fill="#BCACA7"/>
<path d="M109.908 58.3449L108.474 46.1893C106.926 33.0582 97.7326 21.9474 84.8255 17.6067L81.8555 18.6057C93.3724 23.4973 101.437 33.9677 102.878 46.1893L104.312 58.3449C104.741 61.9889 103.652 65.6517 101.357 68.2789C99.3478 70.5785 96.5965 71.8747 93.7241 71.8747H99.3205C102.193 71.8747 104.944 70.5785 106.953 68.2789C109.248 65.652 110.338 61.9889 109.908 58.3449Z" fill="#AB9C97"/>
<path d="M71.9755 71.8745C66.5773 71.8745 62.2012 76.2507 62.2012 81.6488V97.1296H107.449V81.6488C107.449 76.2507 103.072 71.8745 97.6742 71.8745C96.7988 71.8745 71.6504 71.8745 71.9755 71.8745Z" fill="#EF6B69"/>
<path d="M97.6732 71.8745C97.4343 71.8745 95.386 71.8745 92.543 71.8745C97.9411 71.8745 102.317 76.2507 102.317 81.6488V97.1296H107.448V81.6488C107.448 76.2507 103.072 71.8745 97.6732 71.8745Z" fill="#E53935"/>
<path d="M84.8248 80.7477C80.4288 80.7477 76.8652 77.184 76.8652 72.7881V53.6333H92.7843V72.7881C92.7843 77.184 89.2207 80.7477 84.8248 80.7477Z" fill="#FFB09E"/>
<path d="M76.8652 69.3824C78.5969 70.1891 80.4729 70.7379 82.4447 70.9772C82.4424 70.9774 82.4398 70.9778 82.4374 70.9781C86.1465 71.4318 89.6948 70.7905 92.7843 69.3263V53.6333H76.8652V69.3824Z" fill="#FFA78F"/>
<path d="M94.375 40.113H103.44C106.925 40.113 109.75 42.9382 109.75 46.4234V46.4623C109.75 49.9475 106.925 52.7727 103.44 52.7727H94.375V40.113Z" fill="#FFA78F"/>
<path d="M75.1585 52.7725H66.0936C62.6084 52.7725 59.7832 49.9473 59.7832 46.4621V46.4232C59.7832 42.938 62.6084 40.1128 66.0936 40.1128H75.1585V52.7725Z" fill="#FFB09E"/>
<path d="M84.5358 24.563C74.3502 24.6545 66.1211 32.9382 66.1211 43.1455V49.7332C66.1211 59.9405 74.3502 68.2244 84.5358 68.3157C94.7213 68.2242 102.95 59.9405 102.95 49.7332V43.1455C102.95 32.9382 94.7215 24.6545 84.5358 24.563Z" fill="#FFCEBF"/>
<path d="M84.7942 60.1259C81.8642 60.1259 79.4805 57.7422 79.4805 54.8122C79.4805 54.1307 80.033 53.5781 80.7145 53.5781C81.396 53.5781 81.9486 54.1307 81.9486 54.8122C81.9486 56.3814 83.2252 57.658 84.7944 57.658C86.3636 57.658 87.6402 56.3814 87.6402 54.8122C87.6402 54.1307 88.1928 53.5781 88.8743 53.5781C89.5558 53.5781 90.1084 54.1307 90.1084 54.8122C90.1081 57.742 87.7242 60.1259 84.7942 60.1259Z" fill="#FFA799"/>
<path d="M74.2124 52.8108C73.2175 52.8108 72.4795 52.8108 71.4684 52.8108C70.787 52.8108 70.2344 53.3634 70.2344 54.0449C70.2344 54.7263 70.787 55.2789 71.4684 55.2789H74.2124C74.8939 55.2789 75.4465 54.7263 75.4465 54.0449C75.4465 53.3634 74.8939 52.8108 74.2124 52.8108Z" fill="#FE8F83"/>
<path d="M94.2028 51.4406C93.5213 51.4406 92.9688 50.888 92.9688 50.2065V46.6689C92.9688 45.9874 93.5213 45.4348 94.2028 45.4348H95.7237C96.4052 45.4348 96.9577 45.9872 96.9577 46.6689C96.9577 47.3504 96.4052 47.9029 95.7237 47.9029H95.4367V50.2065C95.4367 50.888 94.8843 51.4406 94.2028 51.4406Z" fill="#5A5A5A"/>
<path d="M75.4466 51.4406C74.7651 51.4406 74.2125 50.888 74.2125 50.2065V47.9029H73.9255C73.244 47.9029 72.6914 47.3504 72.6914 46.6689C72.6914 45.9874 73.244 45.4348 73.9255 45.4348H75.4463C76.1278 45.4348 76.6804 45.9872 76.6804 46.6689V50.2065C76.6804 50.888 76.128 51.4406 75.4466 51.4406Z" fill="#5A5A5A"/>
<path d="M84.8328 24.5605H84.7062C83.9382 24.5605 83.1813 24.608 82.4375 24.6987C91.6313 25.8178 98.7536 33.6493 98.7536 43.1454V49.7331C98.7536 59.229 91.6313 67.0607 82.4375 68.1798C83.1811 68.2703 83.938 68.318 84.7062 68.318H84.8328C95.0969 68.318 103.417 59.9973 103.417 49.7334V43.1456C103.417 32.8812 95.0967 24.5605 84.8328 24.5605Z" fill="#FFB09E"/>
<path d="M98.1792 52.8108C97.1843 52.8108 96.4463 52.8108 95.4352 52.8108C94.7538 52.8108 94.2012 53.3634 94.2012 54.0449C94.2012 54.7263 94.7538 55.2789 95.4352 55.2789H98.1792C98.8607 55.2789 99.4133 54.7263 99.4133 54.0449C99.4133 53.3634 98.8607 52.8108 98.1792 52.8108Z" fill="#FE8F83"/>
<path d="M79.0301 41.752H82.7611L90.8003 29.015L81.2576 24.8833C75.2291 26.0147 70.2264 30.0546 67.7656 35.4923C70.1083 39.2499 74.276 41.752 79.0301 41.752Z" fill="#FFB09E"/>
<path d="M107.683 41.752H82.7612C75.4339 41.752 69.4941 35.8123 69.4941 28.485V27.6102C69.4941 20.8441 74.9791 15.3591 81.7452 15.3591H90.601C100.035 15.3591 107.683 23.0069 107.683 32.4409V41.752Z" fill="#C0B5B1"/>
<path d="M90.1971 15.3591H84.4434C94.1004 15.3591 101.929 22.8303 101.929 32.0465V41.752H107.683V32.0465C107.683 22.8303 99.8541 15.3591 90.1971 15.3591Z" fill="#AB9C97"/>
<path d="M45.0263 72.1467H11.9232H10.9564H9.20197C4.11984 72.1467 0 76.2666 0 81.3487V97.1298H54.2283V81.3487C54.2283 76.2666 50.1084 72.1467 45.0263 72.1467Z" fill="#55B4F9"/>
<path d="M45.9941 72.1467H40.1934C45.2755 72.1467 49.3953 76.2666 49.3953 81.3487V97.1298H55.1961V81.3487C55.1961 76.2666 51.0763 72.1467 45.9941 72.1467Z" fill="#2795E5"/>
<path d="M27.5955 81.5833C23.1719 81.5833 19.5859 77.9973 19.5859 73.5737V54.2983H35.6051V73.5737C35.6051 77.9973 32.0192 81.5833 27.5955 81.5833Z" fill="#FFB09E"/>
<path d="M19.5859 69.6814C21.9509 70.7489 24.5695 71.3539 27.327 71.3786C30.2948 71.352 33.1024 70.6542 35.6051 69.43V55.2651H19.5859V69.6814Z" fill="#FFA78F"/>
<path d="M37.5273 38.7622H46.9231C50.5355 38.7622 53.4638 41.6905 53.4638 45.3029V45.3431C53.4638 48.9555 50.5355 51.8838 46.9231 51.8838H37.5273V38.7622Z" fill="#FFA78F"/>
<path d="M29.2045 18.3267H13.0335C7.32011 18.3267 2.88574 23.3108 3.55046 28.9853L5.62843 46.7232H29.2045V18.3267Z" fill="#4F6D8F"/>
<path d="M17.6105 51.8838H8.21453C4.60215 51.8838 1.67383 48.9555 1.67383 45.3431V45.3029C1.67383 41.6905 4.60215 38.7622 8.21453 38.7622H17.6103V51.8838H17.6105Z" fill="#FFB09E"/>
<path d="M27.3291 22.6445C16.7717 22.7393 8.24219 31.3255 8.24219 41.9053V48.7334C8.24219 59.3132 16.7717 67.8994 27.3291 67.9942C37.8865 67.8994 46.4161 59.3132 46.4161 48.7334V41.9053C46.4158 31.3257 37.8863 22.7393 27.3291 22.6445Z" fill="#FFCEBF"/>
<path d="M27.568 59.9302C24.5991 59.9302 22.1836 57.5147 22.1836 54.5458C22.1836 53.8394 22.7562 53.2668 23.4626 53.2668C24.169 53.2668 24.7415 53.8394 24.7415 54.5458C24.7415 56.1043 26.0095 57.3723 27.568 57.3723C29.1265 57.3723 30.3945 56.1043 30.3945 54.5458C30.3945 53.8394 30.9671 53.2668 31.6735 53.2668C32.3799 53.2668 32.9524 53.8394 32.9524 54.5458C32.9524 57.515 30.5369 59.9302 27.568 59.9302Z" fill="#FFA799"/>
<path d="M18.1325 49.782C17.4261 49.782 16.8535 49.2094 16.8535 48.503V44.9433C16.8535 44.2369 17.4261 43.6643 18.1325 43.6643C18.8389 43.6643 19.4114 44.2369 19.4114 44.9433V48.503C19.4114 49.2092 18.8387 49.782 18.1325 49.782Z" fill="#5A5A5A"/>
<path d="M37.0036 49.782C36.2972 49.782 35.7246 49.2094 35.7246 48.503V44.9433C35.7246 44.2369 36.2972 43.6643 37.0036 43.6643C37.71 43.6643 38.2825 44.2369 38.2825 44.9433V48.503C38.2828 49.2092 37.71 49.782 37.0036 49.782Z" fill="#5A5A5A"/>
<path d="M16.8535 51.988C15.8223 51.988 15.0574 51.988 14.0094 51.988C13.303 51.988 12.7305 52.5606 12.7305 53.267C12.7305 53.9734 13.303 54.546 14.0094 54.546H16.8535C17.5599 54.546 18.1325 53.9734 18.1325 53.267C18.1327 52.5606 17.5599 51.988 16.8535 51.988Z" fill="#FE8F83"/>
<path d="M27.6383 22.6428H27.5072C26.6277 22.6428 25.7623 22.703 24.9141 22.8173C34.3261 24.084 41.5838 32.1469 41.5838 41.9059V48.7341C41.5838 58.4931 34.3261 66.556 24.9141 67.8227C25.7623 67.9368 26.6277 67.997 27.5072 67.997H27.6383C38.2769 67.997 46.9014 59.3727 46.9014 48.7341V41.9059C46.9012 31.2671 38.2769 22.6428 27.6383 22.6428Z" fill="#FFB09E"/>
<path d="M41.127 51.988C40.0957 51.988 39.3309 51.988 38.2829 51.988C37.5765 51.988 37.0039 52.5606 37.0039 53.267C37.0039 53.9734 37.5765 54.546 38.2829 54.546H41.127C41.8334 54.546 42.4059 53.9734 42.4059 53.267C42.4059 52.5606 41.8334 51.988 41.127 51.988Z" fill="#FE8F83"/>
<path d="M19.3463 38.7624H23.9616V22.9731C17.4855 24.1786 12.1478 28.621 9.69531 34.5607C12.1037 37.1447 15.5352 38.7624 19.3463 38.7624Z" fill="#FFB09E"/>
<path d="M51.1065 38.7625H24.6606C17.3739 38.7625 11.4668 32.8554 11.4668 25.5687V22.0169C11.4668 16.6918 15.7837 12.3748 21.109 12.3748H38.072C45.2707 12.3748 51.1065 18.2106 51.1065 25.4093V38.7625Z" fill="#4F6D8F"/>
<path d="M38.0723 12.3748H32.2715C39.4703 12.3748 45.3061 18.2106 45.3061 25.4095V38.7625H51.1068V25.4095C51.107 18.2106 45.2712 12.3748 38.0723 12.3748Z" fill="#455E7E"/>
</g>
<defs>
<clipPath id="clip0_1200:519">
<rect width="110" height="110" fill="white"/>
</clipPath>
</defs>
</svg>
