<svg width="64" height="64" viewBox="0 0 64 64" fill="none" xmlns="http://www.w3.org/2000/svg">
<path d="M58.25 9.56359V59.1864C58.25 60.3257 57.3238 61.25 56.1805 61.25H51.375V7.5H56.1805C57.3238 7.5 58.25 8.42302 58.25 9.56359Z" fill="#D3E1F4"/>
<path d="M56.1218 7.5H53.125C54.3004 7.5 55.2532 8.42366 55.2532 9.56307V59.1869C55.2532 60.3263 54.3004 61.25 53.125 61.25H56.1218C57.2972 61.25 58.25 60.3263 58.25 59.1869V9.56307C58.25 8.42366 57.2972 7.5 56.1218 7.5Z" fill="#B3CBEA"/>
<path d="M51.3195 61.25H12.6807C11.5453 61.25 10.625 60.3263 10.625 59.1869V9.56307C10.625 8.42366 11.5453 7.5 12.6807 7.5H51.3193C52.4547 7.5 53.375 8.42366 53.375 9.56307V59.1869C53.3751 60.3263 52.4548 61.25 51.3195 61.25Z" fill="#D3E1F4"/>
<path d="M51.3506 7.5H48.5C49.6181 7.5 50.5244 8.42366 50.5244 9.56307V59.1869C50.5244 60.3263 49.6181 61.25 48.5 61.25H51.3506C52.4686 61.25 53.375 60.3263 53.375 59.1869V9.56307C53.375 8.42366 52.4686 7.5 51.3506 7.5Z" fill="#B3CBEA"/>
<path d="M46.5633 56.375H7.81166C6.67303 56.375 5.75 55.4513 5.75 54.3119V4.68807C5.75 3.54866 6.67303 2.625 7.81166 2.625H11.4966H19.9375H28.3807H46.5633C47.702 2.625 48.625 3.54866 48.625 4.68807V54.3119C48.6251 55.4513 47.7021 56.375 46.5633 56.375Z" fill="#EAF6FF"/>
<path d="M46.5986 2.625H43.5C44.6191 2.625 45.5264 3.54866 45.5264 4.68807V54.3119C45.5264 55.4513 44.6191 56.375 43.5 56.375H46.5986C47.7178 56.375 48.625 55.4513 48.625 54.3119V4.68807C48.6251 3.54866 47.7179 2.625 46.5986 2.625Z" fill="#B3CBEA"/>
<path d="M41.3803 48.25H24.3697C23.6822 48.25 23.125 47.6881 23.125 46.9949V42.755C23.125 42.0618 23.6823 41.5 24.3697 41.5H41.3803C42.0678 41.5 42.625 42.0619 42.625 42.755V46.9949C42.6251 47.6881 42.0678 48.25 41.3803 48.25Z" fill="#D3E1F4"/>
<path d="M41.3491 41.5H38.125C38.8297 41.5 39.4009 42.0619 39.4009 42.7551V46.995C39.4009 47.6882 38.8297 48.25 38.125 48.25H41.3491C42.0537 48.25 42.625 47.6881 42.625 46.995V42.7551C42.625 42.0619 42.0537 41.5 41.3491 41.5Z" fill="#B3CBEA"/>
<path d="M12.754 48.25H16.621C17.3136 48.25 17.875 47.6881 17.875 46.9949V42.755C17.875 42.0618 17.3135 41.5 16.621 41.5H12.754C12.0614 41.5 11.5 42.0619 11.5 42.755V46.9949C11.5 47.6881 12.0614 48.25 12.754 48.25Z" fill="#31A7FB"/>
<path d="M16.6345 41.5H13.5C14.1851 41.5 14.7405 42.0619 14.7405 42.7551V46.995C14.7405 47.6882 14.1851 48.25 13.5 48.25H16.6345C17.3196 48.25 17.875 47.6881 17.875 46.995V42.7551C17.875 42.0619 17.3196 41.5 16.6345 41.5Z" fill="#1C96F9"/>
<path d="M37.3285 7.50092H16.9639C16.4316 7.50092 16 7.93249 16 8.46482C16 8.99714 16.4316 9.42871 16.9639 9.42871H37.3285C37.8609 9.42871 38.2923 8.99714 38.2923 8.46482C38.2923 7.93249 37.8608 7.50092 37.3285 7.50092Z" fill="#31A7FB"/>
<path d="M31.7035 11.8759H22.5889C22.0566 11.8759 21.625 12.3075 21.625 12.8398C21.625 13.3721 22.0566 13.8037 22.5889 13.8037H31.7035C32.2359 13.8037 32.6673 13.3721 32.6673 12.8398C32.6673 12.3075 32.2358 11.8759 31.7035 11.8759Z" fill="#31A7FB"/>
<path d="M41.6322 31.9366H12.5176C11.9853 31.9366 11.5537 31.505 11.5537 30.9727C11.5537 30.4404 11.9853 30.0088 12.5176 30.0088H41.6322C42.1646 30.0088 42.5961 30.4404 42.5961 30.9727C42.5961 31.505 42.1645 31.9366 41.6322 31.9366Z" fill="#D3E1F4"/>
<path d="M41.6322 22.5528H12.5176C11.9853 22.5528 11.5537 22.1212 11.5537 21.5889C11.5537 21.0566 11.9853 20.625 12.5176 20.625H41.6322C42.1646 20.625 42.5961 21.0566 42.5961 21.5889C42.5961 22.1212 42.1645 22.5528 41.6322 22.5528Z" fill="#D3E1F4"/>
<path d="M41.6322 36.6339H12.5176C11.9853 36.6339 11.5537 36.2023 11.5537 35.67C11.5537 35.1376 11.9853 34.7061 12.5176 34.7061H41.6322C42.1646 34.7061 42.5961 35.1376 42.5961 35.67C42.5961 36.2023 42.1645 36.6339 41.6322 36.6339Z" fill="#D3E1F4"/>
<path d="M41.6322 27.25H12.5176C11.9853 27.25 11.5537 26.8185 11.5537 26.2862C11.5537 25.7538 11.9853 25.3223 12.5176 25.3223H41.6322C42.1646 25.3223 42.5961 25.7538 42.5961 26.2862C42.5961 26.8185 42.1645 27.25 41.6322 27.25Z" fill="#D3E1F4"/>
<path d="M41.6322 17.875H12.5176C11.9853 17.875 11.5537 17.4435 11.5537 16.9112C11.5537 16.3788 11.9853 15.9473 12.5176 15.9473H41.6322C42.1646 15.9473 42.5961 16.3788 42.5961 16.9112C42.5961 17.4435 42.1645 17.875 41.6322 17.875Z" fill="#D3E1F4"/>
</svg>
