<svg width="64" height="64" viewBox="0 0 64 64" fill="none" xmlns="http://www.w3.org/2000/svg">
<path d="M46.8169 36.6246H17.1836L23.9121 25.6251C24.0358 25.4228 24.1013 25.1902 24.1013 24.9531V2.04395H39.8992V24.9531C39.8992 25.1902 39.9647 25.4227 40.0885 25.6251L46.8169 36.6246Z" fill="#D3E1F4"/>
<path d="M46.817 36.6247H40.7287L33.811 25.3158V11.5384C33.811 9.66357 32.2916 8.14395 30.4166 8.14395H24.1016V2.04395H39.8994V24.9526C39.8994 25.1908 39.965 25.4226 40.0887 25.6248L46.817 36.6247Z" fill="#B3CBEA"/>
<path d="M46.03 35.3359H17.9707L9.76099 48.7568C5.67837 55.431 10.4814 63.9995 18.3051 63.9995H45.6955C53.5193 63.9995 58.3224 55.431 54.2396 48.7568L46.03 35.3359Z" fill="#31A7FB"/>
<path d="M46.0299 35.3359H39.9415L48.1514 48.7566C52.2348 55.431 47.4317 63.9995 39.6074 63.9995H45.6958C53.52 63.9995 58.3233 55.431 54.2399 48.7566L46.0299 35.3359Z" fill="#1C96F9"/>
<path d="M40.7079 4.15375H23.2956C22.1486 4.15375 21.2188 3.22388 21.2188 2.07687C21.2188 0.929875 22.1485 0 23.2956 0H40.7079C41.8549 0 42.7847 0.929875 42.7847 2.07687C42.7847 3.22388 41.8549 4.15375 40.7079 4.15375Z" fill="#EAF6FF"/>
<path d="M42.7826 2.07713C42.7826 2.65013 42.5509 3.17038 42.1749 3.54638C41.7989 3.92237 41.2786 4.15413 40.7056 4.15413H36.3029C36.8772 4.15413 37.3961 3.92237 37.7722 3.54638C38.147 3.17038 38.38 2.65013 38.38 2.07713C38.3799 0.92975 37.4502 0 36.3027 0H40.7055C41.8529 0 42.7826 0.92975 42.7826 2.07713Z" fill="#D3E1F4"/>
<path d="M34.3984 22.4881H28.7782C28.2449 22.4881 27.8125 22.0558 27.8125 21.5224C27.8125 20.989 28.2449 20.5566 28.7782 20.5566H34.3984C34.9319 20.5566 35.3641 20.989 35.3641 21.5224C35.3641 22.0558 34.9319 22.4881 34.3984 22.4881Z" fill="#84AEE1"/>
<path d="M32.2564 26.7928H28.7782C28.2449 26.7928 27.8125 26.3605 27.8125 25.8271C27.8125 25.2937 28.2449 24.8613 28.7782 24.8613H32.2564C32.7899 24.8613 33.2221 25.2937 33.2221 25.8271C33.2223 26.3605 32.7899 26.7928 32.2564 26.7928Z" fill="#84AEE1"/>
<path d="M32.2564 31.0965H28.7782C28.2449 31.0965 27.8125 30.6642 27.8125 30.1308C27.8125 29.5974 28.2449 29.165 28.7782 29.165H32.2564C32.7899 29.165 33.2221 29.5974 33.2221 30.1308C33.2221 30.6642 32.7899 31.0965 32.2564 31.0965Z" fill="#84AEE1"/>
<path d="M32.2564 35.4012H28.7782C28.2449 35.4012 27.8125 34.9689 27.8125 34.4355C27.8125 33.9021 28.2449 33.4697 28.7782 33.4697H32.2564C32.7899 33.4697 33.2221 33.9021 33.2221 34.4355C33.2223 34.9689 32.7899 35.4012 32.2564 35.4012Z" fill="#84AEE1"/>
<path d="M34.3984 39.7049H28.7782C28.2449 39.7049 27.8125 39.2726 27.8125 38.7392C27.8125 38.2058 28.2449 37.7734 28.7782 37.7734H34.3984C34.9319 37.7734 35.3641 38.2058 35.3641 38.7392C35.3641 39.2726 34.9319 39.7049 34.3984 39.7049Z" fill="#1C96F9"/>
<path d="M34.3984 56.9227H28.7782C28.2449 56.9227 27.8125 56.4903 27.8125 55.957C27.8125 55.4236 28.2449 54.9912 28.7782 54.9912H34.3984C34.9319 54.9912 35.3641 55.4236 35.3641 55.957C35.3641 56.4903 34.9319 56.9227 34.3984 56.9227Z" fill="#1C96F9"/>
<path d="M32.2564 44.0096H28.7782C28.2449 44.0096 27.8125 43.5773 27.8125 43.0439C27.8125 42.5105 28.2449 42.0781 28.7782 42.0781H32.2564C32.7899 42.0781 33.2221 42.5105 33.2221 43.0439C33.2223 43.5773 32.7899 44.0096 32.2564 44.0096Z" fill="#1C96F9"/>
<path d="M32.2564 48.3133H28.7782C28.2449 48.3133 27.8125 47.881 27.8125 47.3476C27.8125 46.8142 28.2449 46.3818 28.7782 46.3818H32.2564C32.7899 46.3818 33.2221 46.8142 33.2221 47.3476C33.2223 47.8808 32.7899 48.3133 32.2564 48.3133Z" fill="#1C96F9"/>
<path d="M32.2564 52.618H28.7782C28.2449 52.618 27.8125 52.1856 27.8125 51.6523C27.8125 51.1189 28.2449 50.6865 28.7782 50.6865H32.2564C32.7899 50.6865 33.2221 51.1189 33.2221 51.6523C33.2223 52.1855 32.7899 52.618 32.2564 52.618Z" fill="#1C96F9"/>
</svg>
