<svg width="80" height="80" viewBox="0 0 80 80" fill="none" xmlns="http://www.w3.org/2000/svg">
<path d="M79.9994 44.3406V59.9625C79.9994 62.3828 78.0369 64.3469 75.615 64.3469H54.3447L54.1104 59.6438L52.001 21.3594H64.465C66.8869 21.3594 68.8494 23.3234 68.8494 25.7437V39.9156H75.576C78.0182 39.9156 79.9994 41.8969 79.9994 44.3406Z" fill="#EBF4FF"/>
<path d="M79.9994 44.34V59.9619C79.9994 62.3822 78.0369 64.3463 75.615 64.3463H54.3447L54.1104 59.6432C55.4197 59.5354 56.6338 58.876 57.4072 57.801C59.4447 54.9666 62.7713 53.1213 66.5275 53.1213C68.0838 53.1213 69.5666 53.4385 70.9135 54.0104C73.001 54.8979 75.3119 53.3229 75.3119 51.0557V44.34C75.3119 41.8963 73.3307 39.915 70.8885 39.915H75.576C78.0182 39.915 79.9994 41.8963 79.9994 44.34Z" fill="#DAE9FD"/>
<path d="M59.7783 21.3594H64.4658C66.8877 21.3594 68.8502 23.3234 68.8502 25.7437V39.9156H64.1627V25.7437C64.1627 23.3234 62.2002 21.3594 59.7783 21.3594Z" fill="#DAE9FD"/>
<path d="M54.3453 21.0025V55.7697L49.6578 55.365L0 51.0822V21.0025C0 18.6541 1.90312 16.751 4.25156 16.751H50.0938C52.4422 16.751 54.3453 18.6541 54.3453 21.0025Z" fill="#D3E1F4"/>
<path d="M54.3453 21.0025V55.7697L49.6578 55.365V21.0025C49.6578 18.6541 47.7547 16.751 45.4062 16.751H50.0937C52.4422 16.751 54.3453 18.6541 54.3453 21.0025Z" fill="#B3CBEA"/>
<path d="M54.3453 51.082V64.3461H4.25156C1.90312 64.3461 0 62.443 0 60.0945V51.082H54.3453Z" fill="#BAD0EE"/>
<path d="M54.3453 51.082V64.3461H4.25156C1.90344 64.3461 0 62.4427 0 60.0945V55.407C0 55.5408 0.00625 55.6733 0.0182812 55.8039C0.250469 58.3144 3.44687 59.1914 5.04391 57.2406C7.10234 54.7261 10.2308 53.1211 13.7344 53.1211C17.7348 53.1211 21.2459 55.2128 23.2344 58.3631C23.7472 59.1755 24.6495 59.6586 25.6102 59.6586H46.4136C48.2053 59.6586 49.6578 58.2061 49.6578 56.4144V51.082H54.3453Z" fill="#9FBADC"/>
<path d="M69 27V40H59.8933C59.4 40 59 39.7276 59 39.3917V27.6083C59 27.2724 59.4 27 59.8933 27H69Z" fill="#31A7FB"/>
<path d="M79.9996 46.0059V50.6934H73.9668C72.673 50.6934 71.623 49.6449 71.623 48.3496C71.623 47.7027 71.8855 47.1168 72.3105 46.6918C72.734 46.2684 73.3199 46.0059 73.9668 46.0059H79.9996Z" fill="#D3E1F4"/>
<path d="M63.3559 46.0059H60.6465C59.9991 46.0059 59.4746 46.5305 59.4746 47.1777C59.4746 47.8249 59.9991 48.3496 60.6465 48.3496H63.3559C64.0032 48.3496 64.5277 47.8249 64.5277 47.1777C64.5277 46.5305 64.003 46.0059 63.3559 46.0059Z" fill="#B9CFDF"/>
<path d="M64 27H69V40H64V27Z" fill="#1C96F9"/>
<path d="M75.3125 46.0059H80V50.6934H75.3125V46.0059Z" fill="#B3CBEA"/>
<path d="M66.5268 57.4443C62.7207 57.4443 59.624 60.5409 59.624 64.3471C59.624 68.1534 62.7206 71.25 66.5268 71.25C70.3331 71.25 73.4298 68.1534 73.4298 64.3471C73.4298 60.5409 70.3331 57.4443 66.5268 57.4443Z" fill="#4F6D8F"/>
<path d="M20.6373 64.3465C20.6373 68.1527 17.5404 71.2496 13.7342 71.2496C12.9123 71.2496 12.1232 71.1043 11.3904 70.8387C8.73418 69.8793 6.83105 67.3309 6.83105 64.3465C6.83105 61.3621 8.73418 58.8137 11.3904 57.8543C12.1232 57.5887 12.9123 57.4434 13.7342 57.4434C17.5404 57.4434 20.6373 60.5402 20.6373 64.3465Z" fill="#4F6D8F"/>
<path d="M20.6375 64.3465C20.6375 68.1527 17.5406 71.2496 13.7344 71.2496C12.9125 71.2496 12.1234 71.1043 11.3906 70.8387C14.0469 69.8793 15.95 67.3309 15.95 64.3465C15.95 61.3621 14.0469 58.8137 11.3906 57.8543C12.1234 57.5887 12.9125 57.4434 13.7344 57.4434C17.5406 57.4434 20.6375 60.5402 20.6375 64.3465Z" fill="#455E7E"/>
<path d="M73.4305 64.3465C73.4305 68.1527 70.3336 71.2496 66.5273 71.2496C65.7055 71.2496 64.9164 71.1043 64.1836 70.8387C66.8398 69.8793 68.743 67.3309 68.743 64.3465C68.743 61.3621 66.8398 58.8137 64.1836 57.8543C64.9164 57.5887 65.7055 57.4434 66.5273 57.4434C70.3336 57.4434 73.4305 60.5402 73.4305 64.3465Z" fill="#455E7E"/>
</svg>
