<svg width="110" height="110" viewBox="0 0 110 110" fill="none" xmlns="http://www.w3.org/2000/svg">
<g clip-path="url(#clip0_1200:1254)">
<path d="M55.6269 24.1109L75.1279 43.6032C75.8407 44.3156 76.8071 44.7159 77.8149 44.7159H105.53V96.5858H4.47266V44.7157H32.1875C33.1953 44.7157 34.1617 44.3154 34.8746 43.603L54.3755 24.1106C54.721 23.7652 55.2813 23.7652 55.6269 24.1109Z" fill="#DACFCB"/>
<path d="M77.8147 44.7152C76.8069 44.7152 75.8405 44.3149 75.1277 43.6025L55.6269 24.1102C55.2813 23.7647 54.721 23.7647 54.3753 24.1102L34.8746 43.6025C34.1617 44.3149 33.1953 44.7152 32.1875 44.7152H4.47266V49.6338H32.1963C34.5254 49.6338 36.7155 48.7268 38.3619 47.08L53.4203 32.0216C54.2934 31.1485 55.709 31.1485 56.5821 32.0216L71.6403 47.0798C73.2871 48.7268 75.477 49.6338 77.8061 49.6338H98.3753C99.61 49.6338 100.611 50.6348 100.611 51.8697V96.5851H105.53V44.7152H77.8147Z" fill="#C0B5B1"/>
<path d="M52.3136 15.4221C53.798 13.9377 56.2044 13.9377 57.6886 15.4221L79.3803 37.1138H105.529L94.9861 8.72756C94.3353 6.97551 92.6634 5.81299 90.7943 5.81299H19.2079C17.3388 5.81299 15.6669 6.97551 15.0161 8.72756L4.47266 37.1138H30.6217L52.3136 15.4221Z" fill="#31A7FB"/>
<path d="M94.9871 8.72756C94.3364 6.97551 92.6645 5.81299 90.7953 5.81299H84.0879C85.957 5.81299 87.6287 6.97551 88.2797 8.72756L98.8232 37.1138H105.531L94.9871 8.72756Z" fill="#1C96F9"/>
<path d="M110 42.48C110 43.7147 108.999 44.7156 107.764 44.7156H77.8048C76.7968 44.7156 75.83 44.3152 75.1173 43.6025L55.6261 24.1113C55.2804 23.7656 54.7198 23.7656 54.3739 24.1113L34.8827 43.6025C34.17 44.3154 33.2032 44.7156 32.1952 44.7156H2.23588C1.00096 44.7156 0 43.7147 0 42.48V39.3499C0 38.1152 1.00096 37.1143 2.23566 37.1143H30.6206L52.3125 15.4223C53.7969 13.938 56.2033 13.938 57.6875 15.4223L79.3792 37.114H107.764C108.999 37.114 110 38.115 110 39.3499V42.48H110Z" fill="#EBF4FF"/>
<path d="M107.766 37.1135H100.164C101.399 37.1135 102.4 38.1145 102.4 39.3492V42.4792C102.4 43.714 101.399 44.7149 100.164 44.7149H107.766C109 44.7149 110.001 43.714 110.001 42.4792V39.3492C110.001 38.1145 109 37.1135 107.766 37.1135Z" fill="#DAE9FD"/>
<path d="M31.7969 60.801H14.8242V82.7151H31.7969V60.801Z" fill="#BDE4FF"/>
<path d="M14.0375 58.4377H28.3564L32.7491 58.5665C33.6686 58.5665 34.4141 59.312 34.4141 60.2315L34.3219 83.3885C34.3219 84.308 33.5765 85.0535 32.657 85.0535L14.5381 84.9401C13.6186 84.9401 12.8731 84.1946 12.8731 83.2751L12.3725 78.967V60.1027C12.3725 59.1832 13.118 58.4377 14.0375 58.4377ZM30.7984 61.7677H25.5814C25.3361 61.7677 25.1374 61.9664 25.1374 62.2117V81.5688C25.1374 81.8141 25.3361 82.0128 25.5814 82.0128H30.7984C31.0437 82.0128 31.2424 81.8141 31.2424 81.5688V62.2117C31.2424 61.9664 31.0437 61.7677 30.7984 61.7677ZM16.1465 82.0128H21.3635C21.6088 82.0128 21.8075 81.8141 21.8075 81.5688V62.2117C21.8075 61.9664 21.6088 61.7677 21.3635 61.7677H16.1465C15.9012 61.7677 15.7025 61.9664 15.7025 62.2117V81.5688C15.7025 81.8139 15.9012 82.0128 16.1465 82.0128Z" fill="#F8F7F7"/>
<path d="M15.7053 78.9778L14.0403 84.7628H32.9102V59.5979L28.3592 61.2629V75.8698C28.3592 77.5859 26.9673 78.9778 25.2512 78.9778H25.1402L23.5296 79.3938L21.8103 78.9778H15.7053Z" fill="#99DBFF"/>
<path d="M12.3764 78.967V83.6778C12.3764 84.5968 13.1223 85.3428 14.0413 85.3428H32.9112C33.8303 85.3428 34.5762 84.5968 34.5762 83.6778V60.1027C34.5762 59.1837 33.8303 58.4377 32.9112 58.4377H28.3602V61.7677H30.8022C31.0464 61.7677 31.2462 61.9675 31.2462 62.2117V81.5688C31.2462 81.813 31.0464 82.0128 30.8022 82.0128H25.5852C25.341 82.0128 25.1412 81.813 25.1412 81.5688V78.967H21.8113V81.5688C21.8113 81.813 21.6115 82.0128 21.3673 82.0128H16.1503C15.9061 82.0128 15.7063 81.813 15.7063 81.5688V78.967H12.3764Z" fill="#E8E8E8"/>
<path d="M93.3301 60.801H76.3574V82.7151H93.3301V60.801Z" fill="#BDE4FF"/>
<path d="M75.5727 58.4377H89.8916L94.2842 58.5665C95.2037 58.5665 95.9492 59.312 95.9492 60.2315L95.8571 83.3885C95.8571 84.308 95.1116 85.0535 94.1921 85.0535L76.0733 84.9401C75.1538 84.9401 74.4083 84.1946 74.4083 83.2751L73.9077 78.967V60.1027C73.9077 59.1832 74.6532 58.4377 75.5727 58.4377ZM92.3335 61.7677H87.1166C86.8713 61.7677 86.6726 61.9664 86.6726 62.2117V81.5688C86.6726 81.8141 86.8713 82.0128 87.1166 82.0128H92.3335C92.5788 82.0128 92.7775 81.8141 92.7775 81.5688V62.2117C92.7775 61.9664 92.5788 61.7677 92.3335 61.7677ZM77.6817 82.0128H82.8986C83.1439 82.0128 83.3426 81.8141 83.3426 81.5688V62.2117C83.3426 61.9664 83.1439 61.7677 82.8986 61.7677H77.6817C77.4364 61.7677 77.2377 61.9664 77.2377 62.2117V81.5688C77.2377 81.8139 77.4364 82.0128 77.6817 82.0128Z" fill="#F8F7F7"/>
<path d="M77.2405 78.9778L75.5755 84.7628H94.4453V59.5979L89.8944 61.2629V75.8698C89.8944 77.5859 88.5024 78.9778 86.7864 78.9778H86.6754L85.0648 79.3938L83.3454 78.9778H77.2405Z" fill="#99DBFF"/>
<path d="M73.9095 78.967V83.6778C73.9095 84.5968 74.6555 85.3428 75.5745 85.3428H94.4444C95.3635 85.3428 96.1094 84.5968 96.1094 83.6778V60.1027C96.1094 59.1837 95.3635 58.4377 94.4444 58.4377H89.8934V61.7677H92.3354C92.5796 61.7677 92.7794 61.9675 92.7794 62.2117V81.5688C92.7794 81.813 92.5796 82.0128 92.3354 82.0128H87.1184C86.8742 82.0128 86.6744 81.813 86.6744 81.5688V78.967H83.3445V81.5688C83.3445 81.813 83.1447 82.0128 82.9005 82.0128H77.6835C77.4393 82.0128 77.2395 81.813 77.2395 81.5688V78.967H73.9095Z" fill="#E8E8E8"/>
<path d="M67.5213 63.4719V96.5847H42.4805V82.8181L43.6181 81.1583L42.4805 79.4984V63.4721C42.4805 62.2496 43.4713 61.2588 44.6938 61.2588H65.3082C66.5305 61.2588 67.5213 62.2496 67.5213 63.4719Z" fill="#867069"/>
<path d="M107.787 104.187H2.21332C0.990859 104.187 0 103.196 0 101.973V98.7985C0 97.5761 0.990859 96.5852 2.21332 96.5852H107.787C109.009 96.5852 110 97.5761 110 98.7985V101.973C110 103.196 109.009 104.187 107.787 104.187Z" fill="#4F6D8F"/>
<path d="M102.4 96.5852V104.187H107.789C109.011 104.187 110.002 103.196 110.002 101.973V98.7985C110.002 97.5761 109.011 96.5852 107.789 96.5852H102.4Z" fill="#455E7E"/>
<path d="M42.4805 79.498H46.5049C47.4219 79.498 48.1648 80.2412 48.1648 81.1579C48.1648 82.0747 47.4217 82.8178 46.5049 82.8178H42.4805V79.498Z" fill="#C0B5B1"/>
</g>
<defs>
<clipPath id="clip0_1200:1254">
<rect width="110" height="110" fill="white"/>
</clipPath>
</defs>
</svg>
