<svg width="110" height="110" viewBox="0 0 110 110" fill="none" xmlns="http://www.w3.org/2000/svg">
<path d="M18.0383 44.8478L54.9995 11.9934L91.9609 44.8478V102.343H18.0383V44.8478Z" fill="#DACFCB"/>
<path d="M49.6275 16.7661L80.7139 44.4002C81.0349 44.6855 81.2186 45.0946 81.2186 45.5243V102.344H91.9609V44.849L54.9986 11.9924L49.6275 16.7661Z" fill="#C0B5B1"/>
<path d="M58.2647 13.2991L94.4263 47.051C95.0054 47.5916 95.0269 48.5193 94.4735 49.0875L88.0033 55.7305L58.2157 28.5459C55.9896 26.5144 52.6354 26.5144 50.4093 28.5459L18.047 57.5782V53.0665L14.1515 49.0875C13.5981 48.5193 13.6196 47.5914 14.1987 47.051L50.3605 13.2991C52.6015 11.2076 56.0237 11.2076 58.2647 13.2991Z" fill="#C0B5B1"/>
<path d="M59.3356 7.7213L99.0078 43.787C99.6431 44.3648 99.6667 45.3561 99.0595 45.9632L91.9612 53.0616L59.2819 24.0134C56.8397 21.8426 53.1598 21.8426 50.7177 24.0134L18.0383 53.0616L10.94 45.9632C10.3328 45.3561 10.3565 44.3645 10.9918 43.787L50.6642 7.7213C53.1227 5.48646 56.8771 5.48646 59.3356 7.7213Z" fill="#31A7FB"/>
<path d="M60.6125 61.2756H78.1386C78.9692 61.2756 79.6426 61.949 79.6426 62.7796V96.2785H59.1086V62.7796C59.1086 61.949 59.7819 61.2756 60.6125 61.2756Z" fill="#9F8881"/>
<path d="M73.1972 61.2759V96.2787H79.6426V62.7798C79.6426 61.9492 78.9692 61.2759 78.1387 61.2759H73.1972Z" fill="#867069"/>
<path d="M31.8619 77.7028H45.2812C46.1118 77.7028 46.7852 77.0295 46.7852 76.1989V62.7796C46.7852 61.949 46.1118 61.2756 45.2812 61.2756H31.8619C31.0313 61.2756 30.3579 61.949 30.3579 62.7796V76.1989C30.3579 77.0295 31.0313 77.7028 31.8619 77.7028Z" fill="#8AC9FE"/>
<path d="M40.3397 61.2759V77.7031H45.2812C46.1118 77.7031 46.7852 77.0298 46.7852 76.1992V62.7798C46.7852 61.9492 46.1118 61.2759 45.2812 61.2759H40.3397Z" fill="#60B7FF"/>
<path d="M54.9993 53.0615C50.463 53.0615 46.7857 49.3841 46.7857 44.8479C46.7857 40.3116 50.463 36.6343 54.9993 36.6343C59.5355 36.6343 63.2129 40.3116 63.2129 44.8479C63.2129 49.3841 59.5355 53.0615 54.9993 53.0615Z" fill="#8AC9FE"/>
<path d="M51.7766 52.4055C52.7649 52.8266 53.8542 53.0608 54.9993 53.0608C59.5347 53.0608 63.2129 49.3847 63.2129 44.8472C63.2129 40.3117 59.5347 36.6335 54.9993 36.6335C53.8542 36.6335 52.7649 36.8677 51.7766 37.291C54.7114 38.5435 56.7675 41.4547 56.7675 44.8472C56.7675 48.2396 54.7114 51.1508 51.7766 52.4055Z" fill="#60B7FF"/>
<path d="M54.9983 102.343H83.7461V95.6336C83.7461 94.803 83.0728 94.1296 82.2422 94.1296H56.5024C55.6718 94.1296 54.9985 94.803 54.9985 95.6336V102.343H54.9983Z" fill="#C0B5B1"/>
<path d="M77.3027 94.1304V102.344H83.748V95.6343C83.748 94.8037 83.0747 94.1304 82.2441 94.1304H77.3027Z" fill="#9D877E"/>
<path d="M1.61135 103.955H108.389C109.279 103.955 110 103.233 110 102.344C110 101.454 109.279 100.732 108.389 100.732H1.61135C0.721245 100.732 0 101.454 0 102.344C0 103.233 0.721458 103.955 1.61135 103.955Z" fill="#4F6D8F"/>
</svg>
