<svg width="110" height="110" viewBox="0 0 110 110" fill="none" xmlns="http://www.w3.org/2000/svg">
<path d="M60.6055 58.4922L81.8063 47.6267L102.785 58.7142V102.879L60.6055 102.539V58.4922Z" fill="#DACFCB"/>
<path d="M63.8252 100.45V103.558H69.5416L82.6406 102.652L95.0714 103.558H100.011L100.523 102.004L100.011 100.45H63.8252Z" fill="#C0B5B1"/>
<path d="M101.342 28.7971L101.551 63.1537H15.5022L15.5588 28.0037L101.342 28.7971Z" fill="#DACFCB"/>
<path d="M91.3516 37.6797H72.4817V51.8876H91.3516V37.6797Z" fill="#BDE4FF"/>
<path d="M98.6792 30.7425V63.1542H102.453V30.7425L100.566 29.4021L98.6792 30.7425Z" fill="#C0B5B1"/>
<path d="M72.4817 44.404V51.8876H91.3516V44.4928L84.4519 40.5257C83.6771 40.0818 82.798 39.8464 81.9055 39.8464C81.0287 39.8464 80.1606 40.0729 79.397 40.5035L72.4817 44.404Z" fill="#99DBFF"/>
<path d="M72.4808 36.0144H91.3506C92.2702 36.0144 93.0156 36.7599 93.0156 37.6794V45.4493L91.8679 51.8873C91.8679 52.8068 92.2702 53.5522 91.3506 53.5522L81.9157 52.0546L72.4808 53.5522C71.5613 53.5522 72.1432 52.8068 72.1432 51.8873L70.8158 45.3428V37.6794C70.8158 36.7599 71.5613 36.0144 72.4808 36.0144ZM89.2417 39.3444H84.0247C83.7794 39.3444 83.5807 39.5431 83.5807 39.7884V49.7783C83.5807 50.0236 83.7794 50.2223 84.0247 50.2223H89.2417C89.487 50.2223 89.6857 50.0236 89.6857 49.7783V39.7884C89.6857 39.5431 89.487 39.3444 89.2417 39.3444ZM74.5898 50.2223H79.8067C80.0521 50.2223 80.2507 50.0236 80.2507 49.7783V39.7884C80.2507 39.5431 80.0521 39.3444 79.8067 39.3444H74.5898C74.3445 39.3444 74.1458 39.5431 74.1458 39.7884V49.7783C74.1458 50.0234 74.3445 50.2223 74.5898 50.2223Z" fill="#F8F7F7"/>
<path d="M70.8158 45.3431V51.8876C70.8158 52.8067 71.5617 53.5526 72.4808 53.5526H80.4217L81.9002 52.7223L83.3476 53.5526H91.3506C92.2697 53.5526 93.0156 52.8067 93.0156 51.8876V45.4497L89.6857 43.536V49.7786C89.6857 50.0228 89.4859 50.2226 89.2417 50.2226H84.0247C83.7805 50.2226 83.5807 50.0228 83.5807 49.7786V40.1306C83.0435 39.9441 82.4774 39.8464 81.9046 39.8464C81.3407 39.8464 80.7813 39.9397 80.2507 40.1217V49.7786C80.2507 50.0228 80.0509 50.2226 79.8067 50.2226H74.5898C74.3456 50.2226 74.1458 50.0228 74.1458 49.7786V43.465L70.8158 45.3431Z" fill="#E8E8E8"/>
<path d="M61.5254 71.1946H5.8654V98.0079H61.5254V71.1946Z" fill="#DACFCB"/>
<path d="M20.0909 96.4382C21.0104 96.4382 21.7559 95.6927 21.7559 94.7732V71.1874C21.7559 70.2679 21.0104 69.5225 20.0909 69.5225C19.1713 69.5225 18.4259 70.2679 18.4259 71.1874V94.7732C18.4259 95.6927 19.1713 96.4382 20.0909 96.4382Z" fill="#F8F7F7"/>
<path d="M13.8741 96.4382C14.7936 96.4382 15.5391 95.6927 15.5391 94.7732V71.1874C15.5391 70.2679 14.7936 69.5225 13.8741 69.5225C12.9546 69.5225 12.2091 70.2679 12.2091 71.1874V94.7732C12.2091 95.6927 12.9546 96.4382 13.8741 96.4382Z" fill="#F8F7F7"/>
<path d="M5.52732 85.4648H26.3076C27.2272 85.4648 27.916 83.7019 27.916 83.7019C27.916 83.7019 27.2272 82.1348 26.3076 82.1348H5.52732C4.6078 82.1348 3.86233 82.8802 3.86233 83.7998C3.86233 84.7193 4.60758 85.4648 5.52732 85.4648Z" fill="#E8E8E8"/>
<path d="M4.42062 93.6966L7.68555 92.4119V72.8384H1.91359V92.4119L4.42062 93.6966Z" fill="#F8F7F7"/>
<path d="M12.7637 25.1922L20.0503 9.99442C20.3458 9.37838 20.9685 8.98633 21.6518 8.98633H96.2349L98.3686 9.53022C99.0887 9.53022 99.7376 9.96512 100.011 10.6311L105.963 25.192L104.423 28.0036H13.3375L12.7637 25.1922Z" fill="#31A7FB"/>
<path d="M100.147 25.1922L98.1226 28.0027H104.425L106.449 25.1922L100.242 10.0874C99.9669 9.42144 99.3186 8.98633 98.5994 8.98633H93.4873L100.147 25.1922Z" fill="#1C96F9"/>
<path d="M61.5254 23.2807L37.9605 9.60181L12.3198 26.0012L22.5292 28.7975L61.5254 28.4197V23.2807Z" fill="#DACFCB"/>
<path d="M0.888294 73.5878H31.857L42.3688 75.2525L52.2808 73.5878H58.0527V61.3779H19.3141L16.4281 61.02L13.7642 61.3779L0.446522 69.0162C0.170578 69.1745 0.000301361 69.4684 0.000301361 69.7865V72.6998C0.000301361 73.1902 0.3979 73.5878 0.888294 73.5878Z" fill="#C0B5B1"/>
<path d="M77.3649 66.9278H85.8008C86.1687 66.9278 86.4668 66.6297 86.4668 66.2619V65.5959C86.4668 62.8986 84.2801 60.7119 81.5828 60.7119C78.8856 60.7119 76.6989 62.8986 76.6989 65.5959V66.2619C76.6989 66.6295 76.997 66.9278 77.3649 66.9278Z" fill="#F8F7F7"/>
<path d="M93.4043 75.2527H71.2045V88.5726H93.4043V75.2527Z" fill="#BDE4FF"/>
<path d="M71.2045 84.0216V88.5726H93.4043V75.2527H89.0776V80.6916C89.0776 82.5298 87.5857 84.0216 85.7476 84.0216H71.2045Z" fill="#99DBFF"/>
<path d="M71.204 73.5879H89.0759L92.9809 73.9127C93.9004 73.9127 94.6459 74.6581 94.6459 75.5777L94.6836 88.2931C94.6836 89.2126 93.9381 89.958 93.0186 89.958L71.7659 89.8424C70.8463 89.8424 70.1009 89.0969 70.1009 88.1774L69.539 84.022V75.2531C69.539 74.3334 70.2845 73.5879 71.204 73.5879ZM80.2688 77.3619V86.4638C80.2688 86.7091 80.4675 86.9078 80.7128 86.9078H83.8947C84.14 86.9078 84.3387 86.7091 84.3387 86.4638V77.3619C84.3387 77.1166 84.14 76.9179 83.8947 76.9179H80.7128C80.4677 76.9179 80.2688 77.1166 80.2688 77.3619ZM91.2948 76.9179H88.1129C87.8676 76.9179 87.6689 77.1166 87.6689 77.3619V86.4638C87.6689 86.7091 87.8676 86.9078 88.1129 86.9078H91.2948C91.5401 86.9078 91.7388 86.7091 91.7388 86.4638V77.3619C91.7388 77.1166 91.5401 76.9179 91.2948 76.9179ZM73.313 86.9078H76.4949C76.7402 86.9078 76.9389 86.7091 76.9389 86.4638V77.3619C76.9389 77.1166 76.7402 76.9179 76.4949 76.9179H73.313C73.0676 76.9179 72.869 77.1166 72.869 77.3619V86.4638C72.869 86.7089 73.0679 86.9078 73.313 86.9078Z" fill="#F8F7F7"/>
<path d="M93.4043 97.4529H71.2045V102.879H93.4043V97.4529Z" fill="#BDE4FF"/>
<path d="M93.4043 100.45H71.2045V102.879H93.4043V100.45Z" fill="#99DBFF"/>
<path d="M52.2808 82.1348H54.9448L57.6348 82.4735L57.3704 102.878H52.2808L51.2677 91.7502L52.2808 82.1348Z" fill="#F8F7F7"/>
<path d="M31.3166 98.0079L41.7989 97.0784L52.2812 98.0079V100.45L41.7989 101.575L31.3166 100.45V98.0079Z" fill="#C0B5B1"/>
<path d="M52.2812 92.4578H31.3166V98.0077H52.2812V92.4578Z" fill="#DACFCB"/>
<path d="M31.8574 73.5879H40.4044L42.5393 74.6517L43.7343 73.5879H52.2812V92.4577H43.7343L42.2181 91.7313L40.4044 92.4577H31.8574L30.8349 87.0931L31.8574 82.1348V73.5879Z" fill="#867069"/>
<path d="M43.7324 73.5879H40.4024V92.4577H43.7324V73.5879Z" fill="#E8E8E8"/>
<path d="M69.5425 84.0218V88.5728C69.5425 89.4918 70.2862 90.2377 71.2075 90.2377H93.4073C94.3264 90.2377 95.0723 89.4918 95.0723 88.5728V75.2529C95.0723 74.3338 94.3264 73.5879 93.4073 73.5879H89.0783V76.9179H91.2983C91.5425 76.9179 91.7423 77.1177 91.7423 77.3619V86.4638C91.7423 86.708 91.5425 86.9078 91.2983 86.9078H88.1149C87.8707 86.9078 87.6709 86.708 87.6709 86.4638V83.4113C87.127 83.7954 86.4632 84.0218 85.7484 84.0218H84.3409V86.4638C84.3409 86.708 84.1433 86.9078 83.8969 86.9078H80.7157C80.4692 86.9078 80.2717 86.708 80.2717 86.4638V84.0218H76.9417V86.4638C76.9417 86.708 76.7419 86.9078 76.4977 86.9078H73.3165C73.0701 86.9078 72.8725 86.708 72.8725 86.4638V84.0218H69.5425Z" fill="#E8E8E8"/>
<path d="M12.3215 26.0006L17.9403 27.5412L37.3054 16.8478C37.6408 16.6627 38.048 16.6635 38.3827 16.85L58.91 28.3005H61.5273V23.2811L37.9623 9.60156L12.3215 26.0006Z" fill="#C0B5B1"/>
<path d="M59.7181 25.1924L61.5556 26.2753L63.3789 25.1924L63.3809 21.0301C63.3811 20.7899 63.2517 20.5681 63.0425 20.45L38.6159 6.64376C38.1415 6.37558 37.5612 6.37558 37.0865 6.64376L12.6597 20.4503C12.4506 20.5684 12.3213 20.7899 12.3213 21.0301V25.1926L14.1422 27.0405L15.7623 25.1926L37.3119 13.293C37.6473 13.1079 38.0545 13.1088 38.3892 13.2953L59.7181 25.1924Z" fill="#F8F7F7"/>
<path d="M61.1602 30.1953H56.9422V57.4589L61.1602 54.2241V30.1953Z" fill="#F8F7F7"/>
<path d="M18.2617 30.314H13.7652V61.3786H16.4291L18.2617 60.8032V30.314Z" fill="#F8F7F7"/>
<path d="M59.6082 30.4224V55.4331L62.4941 53.817V30.4224H59.6082Z" fill="#E8E8E8"/>
<path d="M16.4285 30.7293V61.3786L19.3145 61.3782V30.7293L17.9401 30.314L16.4285 30.7293Z" fill="#E8E8E8"/>
<path d="M47.3965 37.6243H28.5267V51.8321H47.3965V37.6243Z" fill="#BDE4FF"/>
<path d="M22.5521 25.3351L16.4259 25.1921H10.0989C9.48601 25.1921 8.98896 25.6892 8.98896 26.3021V29.6321C8.98896 30.245 9.48601 30.7421 10.0989 30.7421H16.4259L22.5521 30.5307C23.1651 30.5307 23.6621 30.0337 23.6621 29.4208V26.4451C23.6621 25.8322 23.1651 25.3351 22.5521 25.3351Z" fill="#F8F7F7"/>
<path d="M16.427 25.1924V30.7423H22.9759C23.5887 30.7423 24.0859 30.245 24.0859 29.6323V26.3024C24.0859 25.6897 23.5887 25.1924 22.9759 25.1924H16.427Z" fill="#E8E8E8"/>
<path d="M108.671 25.5147L102.897 25.1924H52.0596C51.4466 25.1924 50.9496 25.6894 50.9496 26.3024V29.6323C50.9496 30.2453 51.4466 30.7423 52.0596 30.7423H105.21L108.652 30.4744C109.265 30.4744 109.762 29.9773 109.762 29.3644L109.781 26.6249C109.781 26.0116 109.284 25.5147 108.671 25.5147Z" fill="#F8F7F7"/>
<path d="M102.894 25.1924L105.209 30.7423H108.89C109.503 30.7423 110 30.245 110 29.6323V26.3024C110 25.6897 109.503 25.1924 108.89 25.1924H102.894Z" fill="#E8E8E8"/>
<path d="M33.6324 30.8402H42.0684C42.4362 30.8402 42.7344 30.5421 42.7344 30.1742V29.5082C42.7344 26.8109 40.5477 24.6243 37.8504 24.6243C35.1531 24.6243 32.9665 26.8109 32.9665 29.5082V30.1742C32.9665 30.5421 33.2646 30.8402 33.6324 30.8402Z" fill="#F8F7F7"/>
<path d="M28.4164 35.959H42.7353L47.128 36.0877C48.0475 36.0877 48.793 36.8332 48.793 37.7527L48.7008 51.5426C48.7008 52.4621 47.9554 53.2076 47.0359 53.2076L28.917 53.0941C27.9975 53.0941 27.252 52.3486 27.252 51.4291L26.7514 47.121V37.624C26.7514 36.7045 27.4969 35.959 28.4164 35.959ZM45.1773 39.289H39.9603C39.715 39.289 39.5163 39.4876 39.5163 39.7329V49.7229C39.5163 49.9682 39.715 50.1668 39.9603 50.1668H45.1773C45.4226 50.1668 45.6213 49.9682 45.6213 49.7229V39.7329C45.6213 39.4876 45.4226 39.289 45.1773 39.289ZM30.5254 50.1668H35.7424C35.9877 50.1668 36.1864 49.9682 36.1864 49.7229V39.7329C36.1864 39.4876 35.9877 39.289 35.7424 39.289H30.5254C30.2801 39.289 30.0814 39.4876 30.0814 39.7329V49.7229C30.0814 49.9679 30.2801 50.1668 30.5254 50.1668Z" fill="#F8F7F7"/>
<path d="M30.0823 47.1213L28.4173 51.8321H47.2871V37.6243L42.7362 39.2893V44.0134C42.7362 45.7294 41.3442 47.1213 39.6282 47.1213H39.5172L37.9066 47.5374L36.1872 47.1213H30.0823Z" fill="#99DBFF"/>
<path d="M26.7514 47.121V51.8318C26.7514 52.7509 27.4973 53.4968 28.4163 53.4968H47.2862C48.2053 53.4968 48.9512 52.7509 48.9512 51.8318V37.624C48.9512 36.7049 48.2053 35.959 47.2862 35.959H42.7352V39.289H45.1772C45.4214 39.289 45.6212 39.4888 45.6212 39.7329V49.7229C45.6212 49.9671 45.4214 50.1669 45.1772 50.1669H39.9602C39.716 50.1669 39.5162 49.9671 39.5162 49.7229V47.121H36.1863V49.7229C36.1863 49.9671 35.9865 50.1669 35.7423 50.1669H30.5253C30.2811 50.1669 30.0813 49.9671 30.0813 49.7229V47.121H26.7514Z" fill="#E8E8E8"/>
<path d="M71.2075 96.4541H93.4073C94.3264 96.4541 95.0723 97.2 95.0723 98.1191V100.45L94.5539 103.03L70.0018 103.077L69.5425 100.45V98.1191C69.5425 97.2 70.2862 96.4541 71.2075 96.4541ZM87.6709 101.449C87.6709 101.693 87.8707 101.893 88.1149 101.893H91.2983C91.5425 101.893 91.7423 101.693 91.7423 101.449V99.5621C91.7423 99.3179 91.5425 99.1181 91.2983 99.1181H88.1149C87.8707 99.1181 87.6709 99.3179 87.6709 99.5621V101.449ZM80.2717 101.449C80.2717 101.693 80.4692 101.893 80.7157 101.893H83.8969C84.1433 101.893 84.3409 101.693 84.3409 101.449V99.5621C84.3409 99.3179 84.1433 99.1181 83.8969 99.1181H80.7157C80.4692 99.1181 80.2717 99.3179 80.2717 99.5621V101.449ZM72.8725 101.449C72.8725 101.693 73.0701 101.893 73.3165 101.893H76.4977C76.7419 101.893 76.9417 101.693 76.9417 101.449V99.5621C76.9417 99.3179 76.7419 99.1181 76.4977 99.1181H73.3165C73.0701 99.1181 72.8725 99.3179 72.8725 99.5621V101.449Z" fill="#F8F7F7"/>
<path d="M69.5425 100.45V103.558H95.0723V100.45H91.7423V101.449C91.7423 101.693 91.5425 101.893 91.2983 101.893H88.1149C87.8707 101.893 87.6709 101.693 87.6709 101.449V100.45H84.3409V101.449C84.3409 101.693 84.1433 101.893 83.8969 101.893H80.7157C80.4692 101.893 80.2717 101.693 80.2717 101.449V100.45H76.9417V101.449C76.9417 101.693 76.7419 101.893 76.4977 101.893H73.3165C73.0701 101.893 72.8725 101.693 72.8725 101.449V100.45H69.5425Z" fill="#E8E8E8"/>
<path d="M60.6055 58.492V64.486H61.4181L81.5721 53.1627C81.7766 53.048 82.0263 53.0491 82.2299 53.1656L101.957 64.486H102.785V58.714L81.8063 47.6274L60.6055 58.492Z" fill="#C0B5B1"/>
<path d="M100.664 103.332L104.286 103.403C104.899 103.403 105.396 102.906 105.396 102.293L105.214 66.9276L103.044 66.447L100.009 66.9276V100.449L100.664 103.332Z" fill="#F8F7F7"/>
<path d="M96.4578 61.3782H102.896L108.467 61.54C109.08 61.54 109.577 62.0371 109.577 62.65L109.832 65.7391C109.832 66.352 109.335 66.8491 108.722 66.8491L102.896 66.9281H96.4578C95.8448 66.9281 95.3478 66.4311 95.3478 65.8181V62.4882C95.3478 61.875 95.8448 61.3782 96.4578 61.3782Z" fill="#E8E8E8"/>
<path d="M102.896 61.3782V66.9281H108.89C109.503 66.9281 110 66.4309 110 65.8181V62.4882C110 61.8755 109.503 61.3782 108.89 61.3782H102.896Z" fill="#D8D8D8"/>
<path d="M102.784 61.3778H106.889L106.891 57.2724C106.891 56.9545 106.721 56.6606 106.445 56.5021L83.0121 43.027C82.3328 42.6363 81.4976 42.6327 80.815 43.0177L56.9413 56.481V61.3778L59.0503 62.5788L60.6043 61.3778L81.2567 49.7729C81.6657 49.5431 82.1654 49.5453 82.5723 49.7788L102.784 61.3778Z" fill="#F8F7F7"/>
<path d="M57.8311 103.077L62.5521 103.403C63.1651 103.403 63.6621 102.906 63.6621 102.293L63.4792 66.9276L61.3098 66.447L57.8311 66.9276V82.1345L56.8417 91.7879L57.8311 103.077Z" fill="#F8F7F7"/>
<path d="M54.9461 98.4516V82.1348H57.832V103.558H52.2821L51.2689 102.004L52.2821 100.45H52.9481C54.0516 100.45 54.9461 99.555 54.9461 98.4516Z" fill="#E8E8E8"/>
<path d="M31.3166 100.45L31.8574 103.558H52.2812V100.45H31.3166Z" fill="#455E7E"/>
<path d="M102.897 98.6735V66.9278L104.165 66.3479L105.561 66.9278V102.447C105.561 103.06 105.063 103.557 104.451 103.557H100.011V100.449H101.121C102.101 100.449 102.897 99.6542 102.897 98.6735Z" fill="#E8E8E8"/>
<path d="M61.1602 98.4515V66.9278L62.4285 66.3479L63.8242 66.9278V103.557H57.8303L56.5007 102.003L57.8303 100.449H59.1623C60.2658 100.449 61.1602 99.5548 61.1602 98.4515Z" fill="#E8E8E8"/>
<path d="M54.7234 61.3782H61.1613L66.7326 61.54C67.3455 61.54 67.8426 62.0371 67.8426 62.65L68.0977 65.7391C68.0977 66.352 67.6006 66.8491 66.9877 66.8491L61.1613 66.9281H54.7234C54.1105 66.9281 53.6134 66.4311 53.6134 65.8181V62.4882C53.6134 61.875 54.1105 61.3782 54.7234 61.3782Z" fill="#E8E8E8"/>
<path d="M61.1597 61.3782V66.9281H67.1537C67.7664 66.9281 68.2637 66.4309 68.2637 65.8181V62.4882C68.2637 61.8755 67.7664 61.3782 67.1537 61.3782H61.1597Z" fill="#D8D8D8"/>
<path d="M26.3053 82.1348H28.9693L31.4277 82.7002L31.3334 102.878H26.7988L25.174 98.7786L26.3053 92.4577V82.1348Z" fill="#F8F7F7"/>
<path d="M3.32985 103.247L26.3066 103.077V92.4578H1.88686V100.45L2.21986 102.137C2.21986 102.75 2.71691 103.247 3.32985 103.247Z" fill="#C0B5B1"/>
<path d="M28.9695 98.6736V82.1348H31.8555V103.558H26.3055L24.9098 102.004L26.3055 100.45H27.1935C28.1743 100.45 28.9695 99.6544 28.9695 98.6736Z" fill="#E8E8E8"/>
<path d="M1.88686 100.45V102.448C1.88686 103.06 2.38414 103.558 2.99685 103.558H26.3066V100.45H1.88686Z" fill="#455E7E"/>
</svg>
