<svg width="64" height="64" viewBox="0 0 64 64" fill="none" xmlns="http://www.w3.org/2000/svg">
<g clip-path="url(#clip0_1109:1161)">
<path d="M32 0V64C32.6395 64 33.2047 63.6879 33.5562 63.2092C33.5589 63.2092 51.5904 38.609 51.5904 38.609C54.5333 34.5918 56.2736 29.6362 56.2736 24.2736C56.2736 10.8676 45.406 0 32 0Z" fill="#1C96F9"/>
<path d="M32.0002 0C18.5942 0 7.72656 10.8676 7.72656 24.2736C7.72656 29.6362 9.46693 34.5918 12.4117 38.6089C12.4096 38.6089 30.4413 63.2091 30.4413 63.2091C30.7955 63.6879 31.3607 63.9999 32.0002 63.9999C32.538 63.9999 33.0131 63.6877 33.3088 63.2091C33.311 63.2091 48.4729 38.6089 48.4729 38.6089C50.9473 34.5918 52.4107 29.6362 52.4107 24.2736C52.4107 10.8676 43.2726 0 32.0002 0Z" fill="#31A7FB"/>
<path d="M32.0003 44.6832C43.2727 44.6832 52.4108 35.5452 52.4108 24.2728C52.4108 13.0004 43.2727 3.8623 32.0003 3.8623C20.7279 3.8623 11.5898 13.0004 11.5898 24.2728C11.5898 35.5452 20.7279 44.6832 32.0003 44.6832Z" fill="white"/>
<path d="M17.7993 16.0751C17.7156 16.2193 17.6699 16.385 17.6699 16.5576V31.9897C17.6699 32.3347 17.8539 32.6535 18.1528 32.8261L31.5169 40.5421C31.6662 40.6284 31.833 40.6716 31.9997 40.6716L42.4664 16L17.7993 16.0751Z" fill="#C0B5B1"/>
<path d="M46.201 16.0751L32 16L42.4671 34.7776L45.8474 32.8261C46.1462 32.6535 46.3303 32.3347 46.3303 31.9897V16.5576C46.3305 16.385 46.2847 16.2193 46.201 16.0751Z" fill="#867069"/>
<path d="M42.4666 18.2303L32 16V40.6716C32.1668 40.6716 32.3335 40.6284 32.4829 40.5421L42.4666 34.7776V30.3169L40.535 28.0865L42.4666 25.856V18.2303Z" fill="#AB9C97"/>
<path d="M42.4673 25.8555L35.8633 29.6683V34.1291L42.4673 30.3163V25.8555Z" fill="#DACFCB"/>
<path d="M45.8479 15.7214L32.4837 8.00539C32.185 7.83284 31.8168 7.83284 31.5179 8.00539L24.8359 11.8628L26.7675 20.1377H39.1658L46.2012 16.0753C46.1179 15.931 45.9973 15.8077 45.8479 15.7214Z" fill="#C0B5B1"/>
<path d="M24.8364 11.8623L18.1543 15.721C18.0049 15.8073 17.8842 15.9305 17.8008 16.0748L32.0013 24.2734L39.1662 20.1372L24.8364 11.8623Z" fill="#DACFCB"/>
</g>
<defs>
<clipPath id="clip0_1109:1161">
<rect width="64" height="64" fill="white"/>
</clipPath>
</defs>
</svg>
