<svg width="64" height="64" viewBox="0 0 64 64" fill="none" xmlns="http://www.w3.org/2000/svg">
<g clip-path="url(#clip0_1109:903)">
<path d="M32.6274 25.9701L53.9189 25.2997L56.9238 18.6301L54.1866 9.64198C54.0831 9.30176 53.7233 9.11002 53.3831 9.21368L22.4629 18.6301L22.323 21.5698C21.9828 21.6733 21.791 22.0331 21.8947 22.3733L31.8239 25.5418C31.9275 25.8819 32.2872 26.0738 32.6274 25.9701Z" fill="#D3E1F4"/>
<path d="M63.6047 40.5618C63.7084 40.902 63.5165 41.2617 63.1764 41.3653L27.4689 52.2395H23.0805L13.849 21.9267C13.7455 21.5865 13.9372 21.2268 14.2773 21.1232L22.4645 18.6299H56.9255L63.6047 40.5618Z" fill="#B3CBEA"/>
<path d="M35.6068 21.3714L35.7245 18.631L47.4521 15.0595C47.5902 15.0174 47.7388 15.0574 47.8406 15.1597C49.0664 16.3887 50.6381 17.2266 52.3418 17.5592C52.4834 17.5869 52.5994 17.6879 52.6415 17.8259L52.8867 18.6309L49.8804 24.7724C49.9224 24.9107 35.4688 21.4134 35.6068 21.3714Z" fill="#EAF6FF"/>
<path d="M57.1592 32.6586C57.2014 32.7968 57.1613 32.9453 57.0591 33.0471C55.8301 34.2729 54.9921 35.8446 54.6595 37.5483C54.6318 37.6899 54.5309 37.8059 54.3928 37.848L13.7424 50.2276C13.6044 50.2697 13.4557 50.2297 13.3539 50.1274C12.1281 48.8984 10.5564 48.0605 8.85277 47.7279C8.71112 47.7002 8.5951 47.5992 8.55299 47.4612L4.03551 32.6275C3.9934 32.4894 4.03345 32.3409 4.1357 32.239C5.36471 31.0132 6.20263 29.4415 6.53525 27.7378C6.56293 27.5962 6.66389 27.4802 6.80194 27.4381L35.7248 18.6299H52.887L57.1592 32.6586Z" fill="#D3E1F4"/>
<path d="M-0.00195312 22.875C-0.00195312 21.9775 0.725584 21.25 1.62305 21.25H61.748C62.6455 21.25 63.373 21.9775 63.373 22.875V52.625C63.373 53.5225 62.6455 54.25 61.748 54.25H1.62305C0.725584 54.25 -0.00195312 53.5225 -0.00195312 52.625V22.875Z" fill="#D3E1F4"/>
<path d="M62.1412 21.25C62.1412 21.25 58.5625 21.25 59.4501 21.25C60.3377 21.25 61.057 21.9707 61.057 22.8596C61.057 23.7485 61.057 51.7513 61.057 52.6404C61.057 53.5295 60.4646 54.25 59.5772 54.25C58.6898 54.25 62.1412 54.25 62.1412 54.25C63.0288 54.25 63.7483 53.5293 63.7483 52.6404V22.8596C63.7481 21.9707 63.0286 21.25 62.1412 21.25Z" fill="#B3CBEA"/>
<path d="M8.01945 26.0986H55.9764C56.1208 26.0986 56.2512 26.1801 56.319 26.3076C57.1335 27.8404 58.393 29.0998 59.9258 29.9144C60.0533 29.9822 60.1348 30.1126 60.1348 30.257V45.7632C60.1348 45.9076 60.0533 46.038 59.9258 46.1058C58.393 46.9203 57.1336 48.1798 56.319 49.7126C56.2512 49.8401 56.1208 49.9216 55.9764 49.9216H8.01945C7.8751 49.9216 7.74466 49.8401 7.67692 49.7126C6.86243 48.1798 5.60291 46.9204 4.07013 46.1058C3.94264 46.038 3.86113 45.9076 3.86113 45.7632V30.257C3.86113 30.1126 3.94264 29.9822 4.07013 29.9144C5.60291 29.0999 6.8623 27.8404 7.67692 26.3076C7.74466 26.1803 7.8751 26.0986 8.01945 26.0986Z" fill="#EAF6FF"/>
<path d="M25.5688 42.6276H27.8001V44.554C27.8001 44.6478 27.8299 44.7245 27.8898 44.7845C27.9496 44.8448 28.0259 44.875 28.119 44.875H29.7824C29.8687 44.875 29.9434 44.8448 30.0065 44.7845C30.0696 44.7245 30.101 44.6477 30.101 44.554V42.6276H35.1313C35.2242 42.6276 35.3006 42.5978 35.3605 42.5375C35.4204 42.4772 35.4501 42.4004 35.4501 42.3067V41.0225C35.4501 40.9293 35.4204 40.8521 35.3605 40.7921C35.3007 40.7317 35.2242 40.7015 35.1313 40.7015H30.1009V39.5177H33.4876C34.8157 39.5177 35.8996 39.1102 36.7399 38.2939C37.5798 37.4785 38 36.4251 38 35.1339C38 33.8434 37.5798 32.7901 36.7399 31.9738C35.8998 31.1584 34.8156 30.75 33.4876 30.75H28.1188C28.0257 30.75 27.9495 30.7802 27.8897 30.8402C27.8299 30.9005 27.8 30.9777 27.8 31.0709V37.3812H25.5688C25.4758 37.3812 25.3996 37.4129 25.3397 37.4764C25.28 37.54 25.25 37.6152 25.25 37.7021V39.1967C25.25 39.2905 25.2798 39.3672 25.3397 39.4275C25.3996 39.4879 25.4756 39.5177 25.5688 39.5177H27.8001V40.7015H25.5688C25.4758 40.7015 25.3996 40.7317 25.3397 40.7921C25.28 40.852 25.25 40.9292 25.25 41.0225V42.3066C25.25 42.4004 25.2798 42.4771 25.3397 42.5375C25.3996 42.5978 25.4758 42.6276 25.5688 42.6276ZM30.1009 32.887H33.2884C33.9922 32.887 34.5599 33.0943 34.9917 33.5089C35.4232 33.9236 35.6391 34.4655 35.6391 35.134C35.6391 35.8029 35.4232 36.345 34.9917 36.7591C34.5599 37.1741 33.9922 37.3814 33.2884 37.3814H30.1009V32.887Z" fill="#31A7FB"/>
<path d="M46.1809 30.8066H53.9073C54.4406 30.8066 54.873 30.3742 54.873 29.8408C54.873 29.3074 54.4406 28.875 53.9073 28.875H46.1809C45.6475 28.875 45.2151 29.3074 45.2151 29.8408C45.2151 30.3742 45.6475 30.8066 46.1809 30.8066Z" fill="#D3E1F4"/>
<path d="M48.0559 47.1816H52.0323C52.5656 47.1816 52.998 46.7492 52.998 46.2158C52.998 45.6824 52.5656 45.25 52.0323 45.25H48.0559C47.5225 45.25 47.0901 45.6824 47.0901 46.2158C47.0901 46.7492 47.5225 47.1816 48.0559 47.1816Z" fill="#D3E1F4"/>
<path d="M11.0559 45.25H18.7823C19.3156 45.25 19.748 45.6825 19.748 46.2158C19.748 46.7492 19.3156 47.1816 18.7823 47.1816H11.0559C10.5225 47.1816 10.0901 46.7492 10.0901 46.2158C10.0901 45.6825 10.5225 45.25 11.0559 45.25Z" fill="#D3E1F4"/>
<path d="M12.9309 28.8751H16.9073C17.4406 28.8751 17.873 29.3075 17.873 29.8408C17.873 30.3742 17.4406 30.8066 16.9073 30.8066H12.9309C12.3975 30.8066 11.9651 30.3742 11.9651 29.8408C11.9651 29.3075 12.3975 28.8751 12.9309 28.8751Z" fill="#D3E1F4"/>
</g>
<defs>
<clipPath id="clip0_1109:903">
<rect width="64" height="64" fill="white"/>
</clipPath>
</defs>
</svg>
