<svg width="64" height="64" viewBox="0 0 64 64" fill="none" xmlns="http://www.w3.org/2000/svg">
<path d="M23.125 3.75H41.25V6.375H23.125V3.75Z" fill="#D3E1F4"/>
<path d="M16.1836 5.6084H20.5879V12.0074H16.1836V5.6084Z" fill="#F8F6F6"/>
<path d="M18.8203 5.6084H20.5873V12.0074H18.8203V5.6084Z" fill="#E2E2E2"/>
<path d="M14.5332 16.9311V12.3266C14.5332 11.7185 15.0261 11.2256 15.6342 11.2256H21.1396C21.7478 11.2256 22.2407 11.7186 22.2407 12.3266V16.9313H14.5332V16.9311Z" fill="#31A7FB"/>
<path d="M23.555 10.1354H13.2087C12.3341 10.1354 11.625 9.42629 11.625 8.55172V1.58365C11.625 0.70908 12.3341 0 13.2087 0H23.5552C24.4298 0 25.1389 0.70908 25.1389 1.58365V8.55172C25.1387 9.42629 24.4298 10.1354 23.555 10.1354Z" fill="#4F6D8F"/>
<path d="M21.5702 7.25H14.6797C14.0972 7.25 13.625 6.77776 13.625 6.19531V4.05469C13.625 3.47224 14.0972 3 14.6797 3H21.5703C22.1528 3 22.625 3.47224 22.625 4.05469V6.19531C22.6249 6.77776 22.1528 7.25 21.5702 7.25Z" fill="#F2F9FF"/>
<path d="M21.5124 3C21.5124 3 19.9002 3 20.5147 3C21.1292 3 21.6272 3.48648 21.6272 4.08648C21.6272 4.68648 21.6272 5.56339 21.6272 6.16352C21.6272 6.76365 21.217 7.25 20.6027 7.25C19.9883 7.25 21.5124 7.25 21.5124 7.25C22.1269 7.25 22.625 6.76352 22.625 6.16352V4.08648C22.6249 3.48648 22.1267 3 21.5124 3Z" fill="#D3E1F4"/>
<path d="M23.5076 0C23.5076 0 21.1436 0 22.0447 0C22.9458 0 23.676 0.730459 23.676 1.63136C23.676 2.53226 23.676 7.60272 23.676 8.50381C23.676 9.40491 23.0746 10.1352 22.1737 10.1352C21.2728 10.1352 23.5076 10.1352 23.5076 10.1352C24.4087 10.1352 25.1392 9.40471 25.1392 8.50381V1.63136C25.139 0.730459 24.4085 0 23.5076 0Z" fill="#455E7E"/>
<path d="M21.1393 11.2256H19.332C19.9402 11.2256 20.4331 11.7186 20.4331 12.3266V16.9313H22.2404V12.3267C22.2405 11.7186 21.7475 11.2256 21.1393 11.2256Z" fill="#1C96F9"/>
<path d="M22.23 14.0427L16.8697 13.459C11.4854 14.212 7.375 18.9145 7.375 24.4995V52.9891L18.3857 55.7664L29.3964 52.9891V24.3613C29.3964 19.6328 26.4149 15.6027 22.23 14.0427Z" fill="#31A7FB"/>
<path d="M26.1462 22.298C26.2683 22.9419 25.7465 23.5024 25.0911 23.5024H8.41962C7.85462 23.5024 7.375 23.9343 7.375 24.4993C7.375 25.0499 7.82133 25.4962 8.3719 25.4962H25.2143C25.8356 25.4962 26.3393 25.9999 26.3393 26.6212V52.3164C26.3393 53.0493 27.0288 53.5865 27.7394 53.4073L28.5467 53.2036C29.0464 53.0776 29.3966 52.6282 29.3966 52.1128V24.3613C29.3966 18.2524 24.4217 13.3055 18.3024 13.3509C18.069 13.3526 18.0517 13.6888 18.2766 13.7511C22.278 14.8603 25.3638 18.1713 26.1462 22.298Z" fill="#1C96F9"/>
<path d="M26.3385 24.3613V53.7604L29.3958 52.9893V24.3613C29.3958 18.2524 24.421 13.3055 18.3017 13.3509C17.8153 13.3545 17.3379 13.3935 16.8691 13.459C22.2204 14.2088 26.3385 18.8035 26.3385 24.3613Z" fill="#1C96F9"/>
<path d="M7.375 24.4989V25.4958H29.3965V24.3607C29.3965 24.0714 29.3818 23.7857 29.36 23.502H7.42132C7.39229 23.8309 7.375 24.163 7.375 24.4989Z" fill="#1C96F9"/>
<path d="M11.7793 64H24.9921C27.4245 64 29.3964 62.0281 29.3964 59.5957V52.9893H7.375V59.5957C7.375 62.0281 9.34687 64 11.7793 64Z" fill="#31A7FB"/>
<path d="M25.3393 56.3965C25.8916 56.3965 26.3393 55.9488 26.3393 55.3965V53.9893C26.3393 53.437 26.787 52.9893 27.3393 52.9893H28.3966C28.9489 52.9893 29.3966 53.437 29.3966 53.9893V59.5957C29.3966 62.0281 27.4247 64 24.9923 64H21.9351C24.3674 64 26.3393 62.0281 26.3393 59.5957V59.3904C26.3393 58.8381 25.8916 58.3904 25.3393 58.3904H8.37197C7.82136 58.3904 7.375 57.9441 7.375 57.3934C7.375 56.8428 7.82136 56.3965 8.37197 56.3965H25.3393Z" fill="#1C96F9"/>
<path d="M7.375 58.3904H29.3964V56.3965H7.375V58.3904Z" fill="#1C96F9"/>
<path d="M26.3398 52.9893V59.5957C26.3398 62.0281 24.3679 64 21.9355 64H24.9928C27.4252 64 29.3971 62.0281 29.3971 59.5957V52.9893H26.3398Z" fill="#1C96F9"/>
<path d="M43.4336 5.6084H47.8378V12.0074H43.4336V5.6084Z" fill="#F8F6F6"/>
<path d="M46.0703 5.6084H47.8373V12.0074H46.0703V5.6084Z" fill="#E2E2E2"/>
<path d="M41.7832 16.9311V12.3266C41.7832 11.7185 42.2761 11.2256 42.8842 11.2256H48.3897C48.9978 11.2256 49.4907 11.7186 49.4907 12.3266V16.9313H41.7832V16.9311Z" fill="#31A7FB"/>
<path d="M50.805 10.1354H40.4587C39.5841 10.1354 38.875 9.42629 38.875 8.55172V1.58365C38.875 0.70908 39.5841 0 40.4587 0H50.8052C51.6798 0 52.3889 0.70908 52.3889 1.58365V8.55172C52.3887 9.42629 51.6798 10.1354 50.805 10.1354Z" fill="#4F6D8F"/>
<path d="M48.8202 7.25H41.9297C41.3472 7.25 40.875 6.77776 40.875 6.19531V4.05469C40.875 3.47224 41.3472 3 41.9297 3H48.8203C49.4028 3 49.875 3.47224 49.875 4.05469V6.19531C49.8749 6.77776 49.4028 7.25 48.8202 7.25Z" fill="#F2F9FF"/>
<path d="M48.7624 3C48.7624 3 47.1502 3 47.7647 3C48.3792 3 48.8772 3.48648 48.8772 4.08648C48.8772 4.68648 48.8772 5.56339 48.8772 6.16352C48.8772 6.76365 48.467 7.25 47.8527 7.25C47.2383 7.25 48.7624 7.25 48.7624 7.25C49.3769 7.25 49.875 6.76352 49.875 6.16352V4.08648C49.8749 3.48648 49.3767 3 48.7624 3Z" fill="#D3E1F4"/>
<path d="M50.7576 0C50.7576 0 48.3936 0 49.2947 0C50.1958 0 50.926 0.730459 50.926 1.63136C50.926 2.53226 50.926 7.60272 50.926 8.50381C50.926 9.40491 50.3246 10.1352 49.4237 10.1352C48.5228 10.1352 50.7576 10.1352 50.7576 10.1352C51.6587 10.1352 52.3892 9.40471 52.3892 8.50381V1.63136C52.389 0.730459 51.6585 0 50.7576 0Z" fill="#455E7E"/>
<path d="M48.3893 11.2256H46.582C47.1902 11.2256 47.6831 11.7186 47.6831 12.3266V16.9313H49.4904V12.3267C49.4905 11.7186 48.9975 11.2256 48.3893 11.2256Z" fill="#1C96F9"/>
<path d="M49.48 14.0427L44.1197 13.459C38.7354 14.212 34.625 18.9145 34.625 24.4995V52.9891L45.6357 55.7664L56.6464 52.9891V24.3613C56.6464 19.6328 53.6649 15.6027 49.48 14.0427Z" fill="#31A7FB"/>
<path d="M53.3962 22.298C53.5183 22.9419 52.9965 23.5024 52.3411 23.5024H35.6696C35.1046 23.5024 34.625 23.9343 34.625 24.4993C34.625 25.0499 35.0713 25.4962 35.6219 25.4962H52.4643C53.0856 25.4962 53.5893 25.9999 53.5893 26.6212V52.3164C53.5893 53.0493 54.2788 53.5865 54.9894 53.4073L55.7967 53.2036C56.2964 53.0776 56.6466 52.6282 56.6466 52.1128V24.3613C56.6466 18.2524 51.6717 13.3055 45.5524 13.3509C45.319 13.3526 45.3017 13.6888 45.5266 13.7511C49.528 14.8603 52.6138 18.1713 53.3962 22.298Z" fill="#1C96F9"/>
<path d="M53.5885 24.3613V53.7604L56.6458 52.9893V24.3613C56.6458 18.2524 51.671 13.3055 45.5517 13.3509C45.0653 13.3545 44.5879 13.3935 44.1191 13.459C49.4704 14.2088 53.5885 18.8035 53.5885 24.3613Z" fill="#1C96F9"/>
<path d="M34.625 24.4989V25.4958H56.6465V24.3607C56.6465 24.0714 56.6318 23.7857 56.61 23.502H34.6713C34.6423 23.8309 34.625 24.163 34.625 24.4989Z" fill="#1C96F9"/>
<path d="M39.0293 64H52.2422C54.6745 64 56.6464 62.0281 56.6464 59.5957V52.9893H34.625V59.5957C34.625 62.0281 36.5969 64 39.0293 64Z" fill="#31A7FB"/>
<path d="M52.5893 56.3965C53.1416 56.3965 53.5893 55.9488 53.5893 55.3965V53.9893C53.5893 53.437 54.037 52.9893 54.5893 52.9893H55.6466C56.1989 52.9893 56.6466 53.437 56.6466 53.9893V59.5957C56.6466 62.0281 54.6747 64 52.2423 64H49.1851C51.6174 64 53.5893 62.0281 53.5893 59.5957V59.3904C53.5893 58.8381 53.1416 58.3904 52.5893 58.3904H35.622C35.0714 58.3904 34.625 57.9441 34.625 57.3934C34.625 56.8428 35.0714 56.3965 35.622 56.3965H52.5893Z" fill="#1C96F9"/>
<path d="M34.625 58.3904H56.6464V56.3965H34.625V58.3904Z" fill="#1C96F9"/>
<path d="M53.5898 52.9893V59.5957C53.5898 62.0281 51.6179 64 49.1855 64H52.2428C54.6752 64 56.6471 62.0281 56.6471 59.5957V52.9893H53.5898Z" fill="#1C96F9"/>
</svg>
