<svg width="80" height="80" viewBox="0 0 80 80" fill="none" xmlns="http://www.w3.org/2000/svg">
<g clip-path="url(#clip0_713:1958)">
<path d="M80 20.6836H0V59.2349V60.4422C0 63.8208 2.73803 66.5588 6.1167 66.5588H73.8833C75.5734 66.5588 77.1026 65.8747 78.2084 64.7673C79.3159 63.6615 80 62.1323 80 60.4422C80 60.0478 80 59.2349 80 59.2349V20.6836Z" fill="#ECF5FF"/>
<path d="M13.5211 59.1544H10.9457C10.1996 59.1544 9.48475 59.2879 8.82382 59.5324C6.45264 60.4093 4.93151 62.7372 4.94406 65.2653C4.946 65.659 4.94793 66.0528 4.95002 66.4465C3.72829 66.2108 2.63614 65.6132 1.79155 64.7673C0.684105 63.6615 0 62.1323 0 60.4421C0 60.0478 0 59.2349 0 59.2349V20.6836H14.6479V58.0277C14.6479 58.65 14.1434 59.1544 13.5211 59.1544Z" fill="#DCEAFC"/>
<path d="M9.81892 14.5672V53.199C9.81892 53.8219 9.31509 54.3257 8.69215 54.3257H6.1167C4.42656 54.3257 2.89738 55.0099 1.79155 56.1173C0.94326 56.9656 0.342857 58.0618 0.109457 59.2883L0 60.4424V18.2694C0 15.6022 2.16177 13.4404 4.82897 13.4404H8.69215C9.31509 13.4404 9.81892 13.9443 9.81892 14.5672Z" fill="#ECF5FF"/>
<path d="M66.4783 59.1544H69.0538C69.7999 59.1544 70.5147 59.2879 71.1756 59.5324C73.5468 60.4093 75.0679 62.7372 75.0554 65.2653C75.0535 65.659 75.0515 66.0528 75.0494 66.4465C76.2712 66.2108 77.3633 65.6132 78.2079 64.7673C79.3153 63.6615 79.9995 62.1323 79.9995 60.4421C79.9995 60.0478 79.9995 59.2349 79.9995 59.2349V20.6836H65.3516V58.0277C65.3516 58.65 65.856 59.1544 66.4783 59.1544Z" fill="#DCEAFC"/>
<path d="M80.0006 18.2694V60.4424L79.8911 59.2883C79.3519 56.4618 76.8682 54.3257 73.8839 54.3257H71.3084C70.6855 54.3257 70.1816 53.8219 70.1816 53.199V14.5672C70.1816 13.9443 70.6855 13.4404 71.3084 13.4404H75.1716C77.8388 13.4404 80.0006 15.6022 80.0006 18.2694Z" fill="#ECF5FF"/>
<path d="M21.1415 60.4742C19.5339 60.4742 18.2307 59.171 18.2307 57.5635V39.6087C18.2307 39.3676 18.1098 39.1448 17.9128 39.0118C15.9465 37.684 14.6484 35.4062 14.6484 32.8174C14.6484 30.3697 15.8088 28.1999 17.5973 26.8483C17.8592 26.6503 18.2307 26.8441 18.2307 27.177V31.2154C18.2307 31.919 18.789 32.4893 19.4774 32.4895H22.8057C23.4942 32.4895 24.0524 31.9192 24.0524 31.2156V27.1771C24.0524 26.8442 24.4237 26.6504 24.6858 26.8484C26.4744 28.2001 27.6347 30.3697 27.6347 32.8175C27.6347 35.4063 26.3367 37.6843 24.3703 39.0121C24.1734 39.1451 24.0524 39.3677 24.0524 39.609V57.5638C24.0524 59.171 22.749 60.4742 21.1415 60.4742Z" fill="#4F6D8F"/>
<path d="M62.9382 27.976H33.1701C32.5033 27.976 31.9629 27.4357 31.9629 26.7688C31.9629 26.1019 32.5033 25.5615 33.1701 25.5615H62.9382C63.6051 25.5615 64.1454 26.1019 64.1454 26.7688C64.1454 27.4357 63.6051 27.976 62.9382 27.976Z" fill="#4F6D8F"/>
<path d="M62.9382 35.2192H33.1701C32.5033 35.2192 31.9629 34.6788 31.9629 34.0119C31.9629 33.345 32.5033 32.8047 33.1701 32.8047H62.9382C63.6051 32.8047 64.1454 33.345 64.1454 34.0119C64.1454 34.6788 63.6051 35.2192 62.9382 35.2192Z" fill="#4F6D8F"/>
<path d="M62.9382 42.4633H33.1701C32.5033 42.4633 31.9629 41.9229 31.9629 41.2561C31.9629 40.5892 32.5033 40.0488 33.1701 40.0488H62.9382C63.6051 40.0488 64.1454 40.5892 64.1454 41.2561C64.1454 41.9229 63.6051 42.4633 62.9382 42.4633Z" fill="#4F6D8F"/>
<path d="M62.9382 49.7065H33.1701C32.5033 49.7065 31.9629 49.1661 31.9629 48.4992C31.9629 47.8324 32.5033 47.292 33.1701 47.292H62.9382C63.6051 47.292 64.1454 47.8324 64.1454 48.4992C64.1454 49.1661 63.6051 49.7065 62.9382 49.7065Z" fill="#4F6D8F"/>
<path d="M48.4513 56.9496H33.1701C32.5033 56.9496 31.9629 56.4093 31.9629 55.7424C31.9629 55.0755 32.5033 54.5352 33.1701 54.5352H48.4513C49.1181 54.5352 49.6585 55.0755 49.6585 55.7424C49.6585 56.4093 49.1181 56.9496 48.4513 56.9496Z" fill="#4F6D8F"/>
</g>
<defs>
<clipPath id="clip0_713:1958">
<rect width="80" height="80" fill="white"/>
</clipPath>
</defs>
</svg>
