<svg width="64" height="64" viewBox="0 0 64 64" fill="none" xmlns="http://www.w3.org/2000/svg">
<g clip-path="url(#clip0_1109:948)">
<path d="M18.5909 43.7595L25.4665 41.0967V41.3041C25.4665 41.8018 25.87 42.2053 26.3678 42.2053H28.9444C29.4422 42.2053 29.8457 41.8018 29.8457 41.3041V39.4008L31.7432 38.666C31.7924 38.647 31.8388 38.6233 31.8832 38.597L37.5473 44.4488L43.2202 38.585C43.3874 38.6852 43.5628 38.7411 43.6757 38.7848V38.7847L45.3602 39.4377V41.3016C45.3602 41.8006 45.7647 42.2052 46.2638 42.2052H48.8472C49.3462 42.2052 49.7508 41.8006 49.7508 41.3016V41.1398L56.5073 43.7593C58.6837 44.655 61.5977 47.4731 61.5977 51.655V62.304C61.5977 63.2407 60.8382 64.0002 59.9014 64.0002H15.197C14.2602 64.0002 13.5008 63.2407 13.5008 62.304V51.655C13.5007 48.0537 15.8064 44.9055 18.5909 43.7595Z" fill="#31A7FB"/>
<path d="M56.2798 62.3043V49.3373C56.2798 46.0301 54.457 43.5768 52.6182 42.252L56.5073 43.7597C58.6837 44.6553 61.5977 47.4735 61.5977 51.6553V62.3043C61.5977 63.2411 60.8382 64.0006 59.9014 64.0006H54.5835C55.5203 64.0006 56.2798 63.2411 56.2798 62.3043Z" fill="#1C96F9"/>
<path d="M43.2188 38.5841L37.5459 44.448L31.8818 38.5961C32.1629 38.4295 32.3423 38.1255 32.3433 37.7898L32.3461 34.31C33.8042 35.2641 35.5446 35.8211 37.4135 35.8211C39.4744 35.8211 41.2831 35.2498 42.758 34.2959V37.7841C42.7579 38.2075 42.9801 38.4413 43.2188 38.5841Z" fill="#FFCBBE"/>
<path d="M38.9936 41.1831V35.7036C40.4071 35.491 41.673 34.9975 42.7579 34.2959V37.7841C42.7579 38.2076 42.98 38.4414 43.2188 38.5843L39.5149 42.4128C39.2193 42.1455 38.9936 41.7606 38.9936 41.1831Z" fill="#EAAC9D"/>
<path d="M24.6478 21.043L24.708 20.9727L24.7531 21.0535C25.3958 22.2065 26.6538 22.6802 28.1177 22.3209L28.1975 22.3013V26.9248C28.1975 26.978 28.1992 27.0308 28.2011 27.0835L28.2051 27.2242L28.1467 27.231C27.9785 27.2508 27.8107 27.2604 27.644 27.2604C26.636 27.2604 25.6698 26.9048 24.9355 26.2515C24.1547 25.5569 23.7068 24.5818 23.7068 23.5763C23.7066 22.6537 24.0408 21.754 24.6478 21.043Z" fill="#FFCBBE"/>
<path d="M25.676 22.0342C26.3355 22.4414 27.1835 22.5517 28.1157 22.3229L28.1955 22.3033V26.9268C28.1955 26.9801 28.1972 27.0328 28.1991 27.0856L28.2031 27.2262L28.1447 27.2331C27.9765 27.2528 27.8087 27.2624 27.642 27.2624C26.9459 27.2624 26.2697 27.0927 25.676 26.7724V22.0342Z" fill="#EAAC9D"/>
<path d="M46.8983 27.091C46.9001 27.0362 46.9018 26.9813 46.9018 26.9265V22.303L46.9816 22.3226C48.4348 22.6791 49.6479 22.2407 50.3102 21.1191L50.3552 21.043L50.4138 21.1091C51.0451 21.8205 51.3926 22.6972 51.3926 23.5781C51.3926 24.5838 50.9446 25.5591 50.1637 26.2538C49.4297 26.9068 48.4641 27.2621 47.4559 27.2621C47.2892 27.2621 47.1211 27.2523 46.9528 27.2326L46.8944 27.2257L46.8983 27.091Z" fill="#FFCBBE"/>
<path d="M46.9 26.9263V26.7565C47.1551 26.6162 47.395 26.4486 47.614 26.2538C48.395 25.5591 48.8429 24.5837 48.8429 23.5781C48.8429 23.1677 48.7665 22.7583 48.622 22.3661C49.3331 22.2032 49.9172 21.7813 50.3082 21.1191L50.3532 21.043L50.4119 21.1091C51.0431 21.8205 51.3906 22.6972 51.3906 23.5781C51.3906 24.5838 50.9426 25.5591 50.1617 26.2538C49.4277 26.9068 48.4621 27.2621 47.454 27.2621C47.2872 27.2621 47.1191 27.2523 46.9509 27.2326L46.8925 27.2257L46.8962 27.091C46.8982 27.0362 46.9 26.9813 46.9 26.9263Z" fill="#EAAC9D"/>
<path d="M28.1163 22.3223C28.6048 22.2023 29.1172 21.993 29.6392 21.7C33.5137 19.5259 37.507 19.4169 37.5497 19.416C37.5895 19.4169 41.5829 19.5258 45.4574 21.7C45.9794 21.993 46.4918 22.2023 46.9803 22.3223L47.0293 22.3343V26.9261C47.0293 29.3743 46.0925 31.6845 44.3917 33.4314C42.6077 35.2636 40.1295 36.2726 37.4139 36.2726C32.2602 36.2726 28.0672 32.0798 28.0672 26.9261V22.3343L28.1163 22.3223Z" fill="#FFDDCE"/>
<path d="M40.5731 33.4314C42.274 31.6845 43.2108 29.3743 43.2108 26.9261V20.6504C43.9448 20.9318 44.7041 21.2761 45.4594 21.6999C45.9814 21.9929 46.4938 22.2021 46.9823 22.3221L47.0312 22.3341V26.926C47.0312 29.3741 46.0945 31.6844 44.3936 33.4313C42.6096 35.2635 40.1315 36.2725 37.4159 36.2725C36.7834 36.2725 36.1656 36.2087 35.5681 36.0883C37.4993 35.7204 39.2323 34.8085 40.5731 33.4314Z" fill="#FFCBBE"/>
<path d="M24.5861 17.7666C24.5861 17.7666 28.8503 13.6318 37.5491 13.6318C46.2479 13.6318 50.512 17.7666 50.512 17.7666C51.692 20.7447 49.4501 24.0138 45.4268 21.7562C41.5214 19.5647 37.549 19.4803 37.549 19.4803C37.549 19.4803 33.5766 19.5646 29.6714 21.7561C25.648 24.0138 23.406 20.7447 24.5861 17.7666Z" fill="#DFEBFA"/>
<path d="M44.2851 14.5562C44.2851 14.5562 44.2839 14.5549 44.2836 14.5547C48.4534 15.7733 50.512 17.7663 50.512 17.7663C51.692 20.7444 49.4501 24.0136 45.4268 21.7559C44.9043 21.4627 44.3809 21.2083 43.8658 20.9858C44.9873 19.2948 45.205 16.8774 44.2851 14.5562Z" fill="#B1DBFC"/>
<path d="M24.5858 17.7664V15.0057C24.5858 8.47491 29.8801 3.18066 36.411 3.18066H38.6867C45.2175 3.18066 50.5117 8.47491 50.5117 15.0057V17.7664C50.5117 17.7664 46.2476 13.8893 37.5488 13.8893C28.85 13.8892 24.5858 17.7664 24.5858 17.7664Z" fill="#31A7FB"/>
<path d="M46.713 13.5077C46.713 9.2376 44.4495 5.49659 41.057 3.41797C46.4518 4.51559 50.5117 9.28622 50.5117 15.0052V17.766C50.5117 17.766 49.2526 16.624 46.713 15.5796V13.5077Z" fill="#1C96F9"/>
<path d="M25.31 51.8125L49.8067 51.8135C51.1492 51.8245 52.2344 52.9151 52.2344 54.2603V63.9997H22.8622V54.2604C22.8621 52.9084 23.958 51.8125 25.31 51.8125Z" fill="#EAF6FF"/>
<path d="M49.8067 51.8145C51.1492 51.8255 52.2344 52.9161 52.2344 54.2612V64.0006H44.1216V54.2612C44.1216 52.9161 43.0365 51.8255 41.694 51.8145H49.8067Z" fill="#D3E1F4"/>
<path d="M29.9078 39.3758L31.7427 38.6651C31.8421 38.6268 31.9311 38.5714 32.0097 38.5049L37.4047 44.062C37.5997 44.2629 37.5965 44.5835 37.3972 44.7804L34.8573 47.2896C34.3612 47.7798 33.5457 47.7154 33.1327 47.1534L29.7791 42.6366L29.9078 39.3758Z" fill="#23A8FE"/>
<path d="M43.0945 38.498C43.2935 38.6554 43.5335 38.7292 43.6753 38.7842L45.3029 39.4152L45.4316 42.4828L41.9649 47.1535C41.5519 47.7155 40.7364 47.7799 40.2403 47.2898L37.7004 44.7805C37.5012 44.5838 37.4979 44.2632 37.6929 44.0622L43.0945 38.498Z" fill="#23A8FE"/>
<path d="M28.9811 54.4206H26.3308C25.8188 54.4206 25.4038 54.0056 25.4038 53.4936V41.1203L29.9082 39.376V53.4936C29.9082 54.0055 29.4931 54.4206 28.9811 54.4206Z" fill="#EAF6FF"/>
<path d="M27.6561 53.4947V40.2492L29.9082 39.377V53.4946C29.9082 54.0066 29.4932 54.4216 28.9812 54.4216H26.7291C27.2411 54.4217 27.6561 54.0066 27.6561 53.4947Z" fill="#D3E1F4"/>
<path d="M48.8795 54.4204H46.2293C45.7173 54.4204 45.3023 54.0054 45.3023 53.4934V39.415L49.8066 41.1613V53.4933C49.8065 54.0053 49.3914 54.4204 48.8795 54.4204Z" fill="#EAF6FF"/>
<path d="M47.5545 53.4933V40.2881L49.8066 41.1612V53.4933C49.8066 54.0053 49.3916 54.4203 48.8796 54.4203H46.6274C47.1395 54.4203 47.5545 54.0052 47.5545 53.4933Z" fill="#D3E1F4"/>
<path d="M4.73308 64.8159C4.73308 65.0244 4.62847 65.217 4.45821 65.3319C2.75783 66.4801 1.63552 68.4497 1.63552 70.6883C1.63552 72.8049 2.63885 74.681 4.18541 75.8498C4.41189 76.0209 4.73308 75.8535 4.73308 75.5656L4.73308 69.9858C4.73308 69.3774 5.21567 68.8842 5.81109 68.8842L8.68904 68.8842C9.28437 68.8842 9.76701 69.3774 9.76706 69.9858L9.76697 75.5656C9.76696 75.8535 10.0881 76.0209 10.3146 75.8498C11.8612 74.681 12.8645 72.8049 12.8645 70.6884C12.8645 68.4498 11.7422 66.4802 10.0418 65.332C9.87153 65.217 9.76696 65.0245 9.76696 64.816L9.76696 43.9341C9.76696 43.7256 9.87157 43.533 10.0418 43.4181C11.7422 42.2699 12.8646 40.3002 12.8645 38.0617C12.8645 35.9452 11.8612 34.069 10.3146 32.9003C10.0881 32.7291 9.76696 32.8966 9.76696 33.1845L9.76696 38.7643C9.76696 39.3727 9.28437 39.8659 8.68895 39.8659L5.811 39.8659C5.21567 39.8659 4.73303 39.3727 4.73298 38.7643L4.73308 33.1844C4.73308 32.8965 4.41189 32.7291 4.18541 32.9002C2.63885 34.069 1.63552 35.9451 1.63552 38.0616C1.63552 40.3002 2.75788 42.2698 4.45821 43.418C4.62852 43.533 4.73307 43.7255 4.73308 43.934L4.73308 64.8159Z" fill="#D3E1F4"/>
<path d="M10.0416 65.3319C9.87133 65.217 9.76672 65.0244 9.76672 64.8159L9.76672 43.9341C9.76672 43.7256 9.87133 43.533 10.0416 43.4181C11.742 42.2699 12.8643 40.3002 12.8643 38.0617C12.8643 35.9452 11.8609 34.069 10.3144 32.9003C10.0879 32.7291 9.76667 32.8967 9.76672 33.1845L9.76672 35.5588C10.0862 36.3279 10.2635 37.1735 10.2635 38.0617C10.2634 40.3003 9.14114 42.2699 7.44076 43.4181C7.27045 43.5331 7.1659 43.7256 7.16589 43.9341L7.16589 64.8158C7.16589 65.0243 7.2705 65.2169 7.44076 65.3318C9.14114 66.48 10.2635 68.4496 10.2635 70.6882C10.2635 71.5764 10.0862 72.422 9.76672 73.1911L9.76672 75.5655C9.76672 75.8534 10.0879 76.0209 10.3144 75.8497C11.8609 74.681 12.8643 72.8048 12.8643 70.6883C12.8643 68.4497 11.7419 66.48 10.0416 65.3319Z" fill="#B3CBEA"/>
</g>
<defs>
<clipPath id="clip0_1109:948">
<rect width="64" height="64" fill="white"/>
</clipPath>
</defs>
</svg>
