<svg width="100" height="100" viewBox="0 0 100 100" fill="none" xmlns="http://www.w3.org/2000/svg">
<g clip-path="url(#clip0_387:941)">
<path d="M79.5019 22.272C79.4693 20.1187 77.7316 18.3808 75.5783 18.3483L60.9523 16.1454L50.9642 15.9946L50.0009 13.9526L47.991 15.9499L46.9597 15.9343C45.8824 15.9181 44.8443 16.3388 44.0824 17.1007L5.22163 55.9612C2.10972 59.0731 2.10972 64.1184 5.22163 67.2304L28.6376 90.6464C31.7496 93.7583 36.7949 93.7583 39.9068 90.6464L41.1249 89.4282L78.7673 41.8749C79.5292 41.113 79.9501 40.0749 79.9339 38.9976L79.5019 22.272ZM72.5876 32.906C70.9029 32.906 69.5371 31.5382 69.5371 29.8534C69.5371 28.1687 70.9027 26.8009 72.5876 26.8009C74.2746 26.8009 75.6402 28.1687 75.6402 29.8534C75.6402 31.5382 74.2746 32.906 72.5876 32.906Z" fill="#D3E1F4"/>
<path d="M67.7879 16.2499L72.2031 51.3569C71.4301 52.1081 70.994 53.1389 70.994 54.2173L48.0635 82.4897L41.126 89.4272V37.0745C41.126 35.9961 41.5621 34.9655 42.3352 34.2141L60.9576 16.1467L67.7879 16.2499Z" fill="#B3CBEA"/>
<path d="M93.9217 34.2143L75.3627 15.0766C73.8166 13.578 71.3588 13.578 69.8127 15.0766L68.6234 15.4377L49.2717 34.2145C48.4986 34.9657 48.0625 35.9965 48.0625 37.0749V92.0323C48.0625 96.4326 51.6305 100.001 56.0307 100.001H83.2002C87.6006 100.001 91.1686 96.4326 91.1686 92.0323L95.1328 37.0749C95.1328 35.9963 94.6947 34.9655 93.9217 34.2143ZM72.5877 32.9061C71.9559 32.9061 71.369 32.7137 70.882 32.3844C70.0705 31.8356 70.2938 31.0457 70.2938 29.9928C70.2938 29.9061 69.5406 29.6809 69.5479 29.5959C69.6787 28.0315 70.9897 26.801 72.5877 26.801C74.2746 26.801 75.6402 28.1688 75.6402 29.8536C75.6402 31.5383 74.2746 32.9061 72.5877 32.9061Z" fill="#EB5653"/>
<path d="M61.5246 68.1326H65.6262V71.6753C65.6262 71.8477 65.681 71.9888 65.7911 72.0991C65.9009 72.2101 66.0413 72.2656 66.2123 72.2656H69.27C69.4287 72.2656 69.5661 72.2101 69.682 72.0991C69.798 71.9888 69.8558 71.8477 69.8558 71.6753V68.1326H79.1027C79.2733 68.1326 79.4138 68.0778 79.5239 67.9668C79.634 67.8559 79.6887 67.7147 79.6887 67.5423V65.1807C79.6887 65.0094 79.634 64.8673 79.5239 64.757C79.4141 64.6459 79.2733 64.5904 79.1027 64.5904H69.8555V62.4133H76.0811C78.5224 62.4133 80.5149 61.6638 82.0596 60.1626C83.6036 58.663 84.376 56.7259 84.376 54.3512C84.376 51.978 83.6036 50.0409 82.0596 48.5398C80.5152 47.0401 78.5224 46.2891 76.0811 46.2891H66.212C66.041 46.2891 65.9009 46.3445 65.7908 46.4549C65.681 46.5658 65.6259 46.7079 65.6259 46.8793V58.4842H61.5246C61.3536 58.4842 61.2134 58.5425 61.1033 58.6593C60.9936 58.7761 60.9385 58.9145 60.9385 59.0743V61.823C60.9385 61.9954 60.9932 62.1366 61.1033 62.2475C61.2135 62.3585 61.3533 62.4133 61.5246 62.4133H65.6262V64.5904H61.5246C61.3536 64.5904 61.2134 64.6459 61.1033 64.7569C60.9936 64.8672 60.9385 65.009 60.9385 65.1807V67.5423C60.9385 67.7146 60.9932 67.8559 61.1033 67.9668C61.2134 68.0778 61.3535 68.1326 61.5246 68.1326ZM69.8555 50.2192H75.7149C77.0087 50.2192 78.0523 50.6003 78.846 51.3629C79.6393 52.1255 80.0361 53.122 80.0361 54.3515C80.0361 55.5816 79.6393 56.5785 78.846 57.3402C78.0523 58.1034 77.0087 58.4845 75.7149 58.4845H69.8555V50.2192Z" fill="white"/>
<path d="M95.9035 34.2138L75.3623 14.2832C73.8162 12.7845 71.3584 12.7845 69.8123 14.2832L68.623 15.4367L87.975 34.2136C88.7481 34.9648 89.1861 35.9957 89.1861 37.074V92.0314C89.1861 96.4318 85.6182 99.9997 81.218 99.9997H89.1467C93.5471 99.9997 97.115 96.4318 97.115 92.0314V37.0742C97.1145 35.9958 96.6766 34.965 95.9035 34.2138Z" fill="#E53935"/>
<path d="M84.3713 84.5359H60.8068C59.9857 84.5359 59.3203 83.8703 59.3203 83.0492C59.3203 82.2281 59.9857 81.5625 60.8068 81.5625H84.3713C85.1924 81.5625 85.858 82.2281 85.858 83.0492C85.858 83.8703 85.1924 84.5359 84.3713 84.5359Z" fill="#F2FBFF"/>
<path d="M84.3713 91.192H60.8068C59.9857 91.192 59.3203 90.5263 59.3203 89.7052C59.3203 88.8841 59.9857 88.2185 60.8068 88.2185H84.3713C85.1924 88.2185 85.858 88.8841 85.858 89.7052C85.858 90.5263 85.1924 91.192 84.3713 91.192Z" fill="#F2FBFF"/>
<path d="M39.6393 74.2984C39.259 74.2984 38.8783 74.1533 38.5881 73.863L21.9256 57.2005C21.3451 56.6201 21.3451 55.6787 21.9256 55.0982C22.5063 54.5177 23.4475 54.5177 24.0281 55.0982L40.6906 71.7607C41.2711 72.3412 41.2711 73.2826 40.6906 73.863C40.4004 74.1531 40.0197 74.2984 39.6393 74.2984Z" fill="#F2FBFF"/>
<path d="M34.9312 79.0051C34.551 79.0051 34.1703 78.86 33.8801 78.5696L17.2176 61.9071C16.6371 61.3266 16.6371 60.3852 17.2176 59.8047C17.7982 59.2243 18.7395 59.2243 19.3201 59.8047L35.9826 76.4672C36.5631 77.0477 36.5631 77.9891 35.9826 78.5696C35.6922 78.86 35.3117 79.0051 34.9312 79.0051Z" fill="#F2FBFF"/>
<path d="M50.9635 15.992C51.3441 8.74922 57.358 2.97324 64.6959 2.97324C72.2777 2.97324 78.4461 9.1418 78.4461 16.7254C78.4461 19.8789 77.3539 22.9594 75.3678 25.3994C74.8881 25.99 74.3607 26.5371 73.7939 27.0348C72.5432 28.1389 71.1002 29.009 69.5461 29.5957C69.5402 29.675 69.5361 29.7582 69.5361 29.8395C69.5361 30.8523 70.0297 31.7482 70.7889 32.3014C72.5432 31.6135 74.1744 30.6305 75.6055 29.3955C76.3527 28.7553 77.0465 28.0457 77.6729 27.2746C80.0891 24.3072 81.4191 20.559 81.4191 16.7256C81.4193 7.50254 73.917 0 64.6959 0C55.7346 0 48.3965 7.08223 47.9902 15.9445L50.9635 15.992Z" fill="#4F6D8F"/>
</g>
<defs>
<clipPath id="clip0_387:941">
<rect width="100" height="100" fill="white"/>
</clipPath>
</defs>
</svg>
