<svg width="64" height="64" viewBox="0 0 64 64" fill="none" xmlns="http://www.w3.org/2000/svg">
<g clip-path="url(#clip0_1109:1011)">
<path d="M50.1572 7.28613V60.8767C50.1572 62.602 48.7595 63.9997 47.0354 63.9997H6.44211C4.71806 63.9997 3.32031 62.602 3.32031 60.8767V7.28613C3.32031 5.56083 4.71806 4.16309 6.44211 4.16309H7.48354V5.19327H45.994V4.16309H47.0354C48.7595 4.16309 50.1572 5.56083 50.1572 7.28613Z" fill="#CBC4CC"/>
<path d="M47.0364 4.16309H45.9956V60.8771C45.9956 62.6016 44.5976 63.9996 42.873 63.9996H47.0364C48.7609 63.9996 50.1589 62.6016 50.1589 60.8771V7.28563C50.1588 5.56108 48.7609 4.16309 47.0364 4.16309Z" fill="#B5ADB6"/>
<path d="M45.9948 4.16309V58.535C45.9948 59.2539 45.4122 59.8365 44.6946 59.8365H8.78585C8.06698 59.8365 7.48438 59.2539 7.48438 58.535V4.16309H15.0307V5.19327H38.4485V4.16309H45.9948Z" fill="#EAF6FF"/>
<path d="M28.0393 21.7542H19.9728C19.4549 21.7542 19.0352 21.3344 19.0352 20.8166C19.0352 20.2987 19.4549 19.8789 19.9728 19.8789H28.0393C28.5573 19.8789 28.977 20.2987 28.977 20.8166C28.977 21.3344 28.5573 21.7542 28.0393 21.7542Z" fill="#B3CBEA"/>
<path d="M35.8453 17.5912H28.0392C27.5213 17.5912 27.1016 17.1713 27.1016 16.6535C27.1016 16.1356 27.5213 15.7158 28.0392 15.7158H35.8453C36.3633 15.7158 36.783 16.1356 36.783 16.6535C36.783 17.1713 36.3633 17.5912 35.8453 17.5912Z" fill="#B3CBEA"/>
<path d="M23.876 17.5912H19.9728C19.4549 17.5912 19.0352 17.1713 19.0352 16.6535C19.0352 16.1356 19.4549 15.7158 19.9728 15.7158H23.876C24.394 15.7158 24.8137 16.1356 24.8137 16.6535C24.8137 17.1713 24.394 17.5912 23.876 17.5912Z" fill="#B3CBEA"/>
<path d="M28.0393 30.0814H19.9728C19.4549 30.0814 19.0352 29.6616 19.0352 29.1437C19.0352 28.6259 19.4549 28.2061 19.9728 28.2061H28.0393C28.5573 28.2061 28.977 28.6259 28.977 29.1437C28.977 29.6616 28.5573 30.0814 28.0393 30.0814Z" fill="#B3CBEA"/>
<path d="M35.8453 25.9183H28.0392C27.5213 25.9183 27.1016 25.4985 27.1016 24.9806C27.1016 24.4628 27.5213 24.043 28.0392 24.043H35.8453C36.3633 24.043 36.783 24.4628 36.783 24.9806C36.783 25.4985 36.3633 25.9183 35.8453 25.9183Z" fill="#B3CBEA"/>
<path d="M23.876 25.9183H19.9728C19.4549 25.9183 19.0352 25.4985 19.0352 24.9806C19.0352 24.4628 19.4549 24.043 19.9728 24.043H23.876C24.394 24.043 24.8137 24.4628 24.8137 24.9806C24.8137 25.4985 24.394 25.9183 23.876 25.9183Z" fill="#B3CBEA"/>
<path d="M28.0393 38.4085H19.9728C19.4549 38.4085 19.0352 37.9887 19.0352 37.4709C19.0352 36.953 19.4549 36.5332 19.9728 36.5332H28.0393C28.5573 36.5332 28.977 36.953 28.977 37.4709C28.977 37.9887 28.5573 38.4085 28.0393 38.4085Z" fill="#B3CBEA"/>
<path d="M35.8453 34.2445H28.0392C27.5213 34.2445 27.1016 33.8247 27.1016 33.3068C27.1016 32.789 27.5213 32.3691 28.0392 32.3691H35.8453C36.3633 32.3691 36.783 32.789 36.783 33.3068C36.783 33.8247 36.3633 34.2445 35.8453 34.2445Z" fill="#B3CBEA"/>
<path d="M23.876 34.2445H19.9728C19.4549 34.2445 19.0352 33.8247 19.0352 33.3068C19.0352 32.789 19.4549 32.3691 19.9728 32.3691H23.876C24.394 32.3691 24.8137 32.789 24.8137 33.3068C24.8137 33.8247 24.394 34.2445 23.876 34.2445Z" fill="#B3CBEA"/>
<path d="M27.779 46.7337H19.9728C19.4549 46.7337 19.0352 46.3139 19.0352 45.7961C19.0352 45.2782 19.4549 44.8584 19.9728 44.8584H27.779C28.297 44.8584 28.7167 45.2782 28.7167 45.7961C28.7167 46.3139 28.297 46.7337 27.779 46.7337Z" fill="#B3CBEA"/>
<path d="M33.3499 42.5706H28.0392C27.5213 42.5706 27.1016 42.1508 27.1016 41.633C27.1016 41.1151 27.5213 40.6953 28.0392 40.6953H33.3499C33.8679 40.6953 34.2876 41.1151 34.2876 41.633C34.2876 42.1508 33.8677 42.5706 33.3499 42.5706Z" fill="#B3CBEA"/>
<path d="M23.876 42.5706H19.9728C19.4549 42.5706 19.0352 42.1508 19.0352 41.633C19.0352 41.1151 19.4549 40.6953 19.9728 40.6953H23.876C24.394 40.6953 24.8137 41.1151 24.8137 41.633C24.8137 42.1508 24.394 42.5706 23.876 42.5706Z" fill="#B3CBEA"/>
<path d="M42.3523 4.16309V30.3155C42.3523 30.9079 41.9517 31.4243 41.3785 31.5736C33.4994 33.6255 27.666 40.8008 27.666 49.3134C27.666 53.2264 28.8992 56.8561 30.9962 59.8364H44.6942C45.4127 59.8364 45.9952 59.2539 45.9952 58.5354V4.16309H42.3523Z" fill="#D3E1F4"/>
<path d="M15.809 32.3398H11.6456C11.112 32.3398 10.6797 32.7723 10.6797 33.3058V37.4691C10.6797 38.0026 11.1121 38.435 11.6456 38.435H15.809C16.3425 38.435 16.7749 38.0026 16.7749 37.4691V33.3058C16.7749 32.7723 16.3424 32.3398 15.809 32.3398Z" fill="#31A7FB"/>
<path d="M45.9949 63.9996C54.1059 63.9996 60.6812 57.4243 60.6812 49.3133C60.6812 41.2022 54.1059 34.627 45.9949 34.627C37.8839 34.627 31.3086 41.2022 31.3086 49.3133C31.3086 57.4243 37.8839 63.9996 45.9949 63.9996Z" fill="#EAF6FF"/>
<path d="M54.2315 37.1602C55.8295 39.5106 56.7645 42.3463 56.7645 45.3966C56.7645 53.4946 50.1764 60.0829 42.0782 60.0829C39.0279 60.0829 36.1922 59.1478 33.8418 57.5498C36.4864 61.4395 40.9472 63.9996 45.995 63.9996C54.0931 63.9996 60.6813 57.4114 60.6813 49.3133C60.6812 44.2655 58.1211 39.8046 54.2315 37.1602Z" fill="#D3E1F4"/>
<path d="M45.9935 59.8367C51.8051 59.8367 56.5164 55.1255 56.5164 49.3139C56.5164 43.5022 51.8051 38.791 45.9935 38.791C40.1819 38.791 35.4707 43.5022 35.4707 49.3139C35.4707 55.1255 40.1819 59.8367 45.9935 59.8367Z" fill="#B3CBEA"/>
<path d="M41.5126 53.2754H43.3501V54.8608C43.3501 54.938 43.3746 55.0011 43.424 55.0505C43.4732 55.1002 43.5361 55.125 43.6127 55.125H44.9825C45.0536 55.125 45.1152 55.1002 45.1671 55.0505C45.2191 55.0011 45.245 54.938 45.245 54.8608V53.2754H49.3876C49.464 53.2754 49.5269 53.2509 49.5763 53.2012C49.6256 53.1516 49.6501 53.0884 49.6501 53.0112V51.9544C49.6501 51.8777 49.6256 51.8141 49.5763 51.7647C49.5271 51.7151 49.464 51.6902 49.3876 51.6902H45.2448V50.7159H48.0339C49.1276 50.7159 50.0203 50.3805 50.7122 49.7087C51.404 49.0376 51.75 48.1707 51.75 47.108C51.75 46.0459 51.404 45.179 50.7122 44.5072C50.0204 43.8361 49.1276 43.5 48.0339 43.5H43.6126C43.5359 43.5 43.4731 43.5248 43.4238 43.5742C43.3746 43.6239 43.35 43.6874 43.35 43.7641V48.9575H41.5126C41.436 48.9575 41.3732 48.9836 41.3239 49.0359C41.2747 49.0882 41.25 49.1501 41.25 49.2217V50.4517C41.25 50.5289 41.2745 50.5921 41.3239 50.6417C41.3732 50.6914 41.4358 50.7159 41.5126 50.7159H43.3501V51.6902H41.5126C41.436 51.6902 41.3732 51.715 41.3239 51.7647C41.2747 51.8141 41.25 51.8775 41.25 51.9544V53.0112C41.25 53.0884 41.2745 53.1515 41.3239 53.2012C41.3732 53.2509 41.4359 53.2754 41.5126 53.2754ZM45.2448 45.2588H47.8699C48.4495 45.2588 48.917 45.4294 49.2726 45.7706C49.628 46.1119 49.8058 46.5579 49.8058 47.1081C49.8058 47.6586 49.628 48.1047 49.2726 48.4456C48.917 48.7871 48.4495 48.9577 47.8699 48.9577H45.2448V45.2588Z" fill="#EAF6FF"/>
<path d="M31.1443 4.16347C31.0128 4.16347 30.9028 4.06146 30.8956 3.93006C30.7747 1.7393 28.9598 0 26.7387 0C24.5176 0 22.7028 1.7393 22.5817 3.93006C22.5745 4.06146 22.4646 4.16347 22.3329 4.16347H15.0293V7.02572C15.0293 7.74422 15.6118 8.3267 16.3303 8.3267H18.4323C18.7084 8.3267 18.9323 8.55061 18.9323 8.82678V11.1889C18.9323 11.9074 19.5148 12.4899 20.2333 12.4899H33.2437C33.9622 12.4899 34.5447 11.9074 34.5447 11.1889V8.82691C34.5447 8.55074 34.7686 8.32682 35.0448 8.32682H37.1468C37.8653 8.32682 38.4477 7.74435 38.4477 7.02585V4.16347H31.1443Z" fill="#D3E1F4"/>
<path d="M26.7381 5.20368C27.3129 5.20368 27.7789 4.7377 27.7789 4.16288C27.7789 3.58805 27.3129 3.12207 26.7381 3.12207C26.1632 3.12207 25.6973 3.58805 25.6973 4.16288C25.6973 4.7377 26.1632 5.20368 26.7381 5.20368Z" fill="#B3CBEA"/>
<path d="M15.809 15.6875H11.6456C11.112 15.6875 10.6797 16.12 10.6797 16.6534V20.8168C10.6797 21.3502 11.1121 21.7827 11.6456 21.7827H15.809C16.3425 21.7827 16.7749 21.3502 16.7749 20.8168V16.6534C16.7749 16.12 16.3424 15.6875 15.809 15.6875Z" fill="#31A7FB"/>
<path d="M15.809 24.0137H11.6456C11.112 24.0137 10.6797 24.4461 10.6797 24.9796V29.1429C10.6797 29.6764 11.1121 30.1089 11.6456 30.1089H15.809C16.3425 30.1089 16.7749 29.6764 16.7749 29.1429V24.9796C16.7749 24.4462 16.3424 24.0137 15.809 24.0137Z" fill="#31A7FB"/>
<path d="M15.809 40.668H11.6456C11.112 40.668 10.6797 41.1004 10.6797 41.6339V45.7972C10.6797 46.3307 11.1121 46.7631 11.6456 46.7631H15.809C16.3425 46.7631 16.7749 46.3307 16.7749 45.7972V41.6339C16.7749 41.1004 16.3424 40.668 15.809 40.668Z" fill="#31A7FB"/>
</g>
<defs>
<clipPath id="clip0_1109:1011">
<rect width="64" height="64" fill="white"/>
</clipPath>
</defs>
</svg>
