<svg width="64" height="64" viewBox="0 0 64 64" fill="none" xmlns="http://www.w3.org/2000/svg">
<g clip-path="url(#clip0_1109:53)">
<path d="M14.7596 18.6647H17.4729C17.9114 17.116 18.5302 15.644 19.3066 14.2701L17.4001 12.3769C16.6237 11.6072 16.6237 10.3524 17.3988 9.58135L22.4493 4.56398C23.2177 3.7996 24.4578 3.7996 25.2263 4.56273L27.1512 6.47598C28.5331 5.70485 30.0157 5.0901 31.5724 4.65423V1.9711C31.5724 0.883352 32.4548 0.000976562 33.5426 0.000976562H40.6969C41.7847 0.000976562 42.6671 0.883352 42.6671 1.9711V4.65398C44.2266 5.08985 45.7064 5.7046 47.0908 6.47573L49.0133 4.56398C49.7817 3.80085 51.0218 3.80085 51.7903 4.56398L56.8408 9.58135C57.6159 10.3525 57.6159 11.6071 56.8408 12.3769L54.9343 14.2701C55.7094 15.644 56.3294 17.116 56.7693 18.6647H59.4801C60.5678 18.6647 61.4502 19.5459 61.4502 20.6349V27.7151C61.4502 28.8029 60.5678 29.6852 59.4801 29.6852H56.7693C56.3294 31.2327 55.7093 32.706 54.9343 34.0786L56.8408 35.9719C57.6159 36.743 57.6159 37.9976 56.8408 38.7674L51.7903 43.7847C51.0219 44.5479 49.7818 44.5479 49.0133 43.7835L47.0908 41.873C45.7063 42.6441 44.2263 43.2589 42.6671 43.6974V46.379C42.6671 46.962 42.4141 47.4852 42.0112 47.8444C41.6627 48.1597 41.2017 48.3491 40.6969 48.3491H33.5426C32.4548 48.3491 31.5724 47.4667 31.5724 46.379V43.6974C30.0157 43.2587 28.5331 42.644 27.1512 41.873L25.2354 43.7755L25.2262 43.7847C24.4578 44.5479 23.2177 44.5479 22.4492 43.7847L19.8868 41.2396L17.3999 38.7674C16.6236 37.9975 16.6236 36.7429 17.3999 35.9719L19.3064 34.0786C18.5301 32.706 17.9113 31.2327 17.4728 29.6852H14.7594C13.8851 29.6852 13.1431 29.1155 12.8861 28.3259C12.8237 28.1337 12.7893 27.9284 12.7893 27.7151V20.6349C12.7894 19.5457 13.6718 18.6647 14.7596 18.6647ZM37.1197 33.2174C37.4628 33.2174 37.8021 33.1989 38.1358 33.1605C42.6683 32.657 46.1924 28.8255 46.1924 24.175C46.1924 19.1801 42.1304 15.1314 37.1196 15.1314C32.1087 15.1314 28.0493 19.1802 28.0493 24.175C28.0493 25.7132 28.4348 27.1626 29.1158 28.4319C30.6423 31.2804 33.6538 33.2174 37.1197 33.2174Z" fill="#31A7FB"/>
<path d="M13.7071 28.9485L13.9681 29.2083C14.1364 29.1354 14.306 29.0665 14.4769 28.999V28.6652C14.4769 26.5228 16.219 24.7793 18.3627 24.7793H23.8134C25.9556 24.7793 27.6992 26.5229 27.6992 28.6652V28.999C27.8689 29.0665 28.0397 29.1354 28.208 29.2083L28.469 28.9499C28.6677 28.7525 28.8851 28.5789 29.1156 28.4319C30.6419 31.2804 33.6534 33.2174 37.1192 33.2174C37.4624 33.2174 37.8016 33.1989 38.1354 33.1605C38.6587 33.8362 38.9409 34.6617 38.9409 35.5294C38.9409 36.572 38.5327 37.5512 37.7935 38.2852L37.5602 38.5169C37.6291 38.6773 37.6967 38.8375 37.7616 38.9992H38.1249C40.2671 38.9992 42.0107 40.7428 42.0107 42.885V47.8442C41.6622 48.1595 41.2012 48.3489 40.6965 48.3489H33.5421C32.4544 48.3489 31.572 47.4665 31.572 46.3788V43.6973C30.0152 43.2587 28.5326 42.6439 27.1507 41.8729L25.235 43.7754C24.5341 42.1882 22.939 41.078 21.0881 41.078C20.6721 41.078 20.2694 41.1337 19.8864 41.2397L17.3995 38.7674C16.6231 37.9975 16.6231 36.7429 17.3995 35.9719L19.306 34.0787C18.5296 32.706 17.9109 31.2328 17.4724 29.6853H14.759C13.8846 29.6853 13.1426 29.1155 12.8856 28.3259C13.1825 28.4928 13.4581 28.7022 13.7071 28.9485Z" fill="#1C96F9"/>
<path d="M37.12 10.0674C44.9118 10.0674 51.2275 16.3831 51.2275 24.1749C51.2275 31.7321 45.2842 37.9008 37.8158 38.2625C37.5853 38.2744 37.3534 38.2798 37.1203 38.2798C29.5327 38.2798 23.3428 32.2885 23.0274 24.7791C23.0182 24.579 23.0142 24.3778 23.0142 24.1749C23.0139 16.3831 29.3298 10.0674 37.12 10.0674ZM29.1495 28.49C30.6838 31.3066 33.678 33.2171 37.1202 33.2171C37.4633 33.2171 37.8025 33.1986 38.135 33.1603H38.1363C42.6688 32.6568 46.1929 28.8253 46.1929 24.1748C46.1929 19.1799 42.1309 15.1311 37.12 15.1311C32.1092 15.1311 28.0498 19.18 28.0498 24.1748C28.0498 25.713 28.4353 27.1624 29.1163 28.4316C29.1269 28.4515 29.1389 28.4715 29.1495 28.49Z" fill="#1C96F9"/>
<path d="M23.8148 24.7754C25.957 24.7754 27.7006 26.519 27.7006 28.6613V28.9951C27.8703 29.0626 28.0411 29.1315 28.2094 29.2044L28.4704 28.946C28.6691 28.7486 28.8865 28.575 29.117 28.428C29.1275 28.4479 29.1395 28.4678 29.1501 28.4864C30.6844 31.303 33.6786 33.2135 37.1208 33.2135C37.4639 33.2135 37.8031 33.195 38.1356 33.1566H38.1369C38.6603 33.8323 38.9424 34.6578 38.9424 35.5255C38.9424 36.5576 38.5423 37.5274 37.8163 38.2588C37.5858 38.2706 37.3539 38.276 37.1208 38.276C29.5331 38.276 23.3433 32.2848 23.0279 24.7754H23.8148Z" fill="#1784DC"/>
<path d="M2.55022 48.2805V42.8858C2.55022 42.0568 3.22235 41.3847 4.05135 41.3847H6.11823C6.45235 40.205 6.92422 39.0832 7.51547 38.0372L6.06273 36.5942C5.47173 36.0072 5.47173 35.0514 6.0626 34.4644L9.91047 30.641C10.4958 30.0594 11.441 30.0594 12.0264 30.6409L13.493 32.0978C14.5461 31.5108 15.6751 31.0418 16.8616 30.7105V28.6662C16.8616 27.8372 17.5337 27.165 18.3627 27.165H23.8136C24.6426 27.165 25.3147 27.8372 25.3147 28.6662V30.7105C26.5027 31.0419 27.6302 31.5109 28.6847 32.0978L30.15 30.6415C30.7354 30.0598 31.6807 30.0597 32.2661 30.6414L36.1137 34.4645C36.7046 35.0517 36.7044 36.0074 36.1136 36.5943L34.6609 38.0373C35.2521 39.0833 35.7237 40.2053 36.0594 41.3848H38.1249C38.9539 41.3848 39.626 42.0569 39.626 42.8859V48.2807C39.626 49.1097 38.9539 49.7818 38.1249 49.7818H36.0594C35.7237 50.9614 35.252 52.0833 34.6609 53.1293L36.1135 54.5722C36.7045 55.1592 36.7045 56.115 36.1135 56.702L32.2661 60.524C31.6806 61.1057 30.7354 61.1055 30.1501 60.5238L28.6847 59.0674C27.6302 59.6558 26.5026 60.1234 25.3147 60.4575V62.5005C25.3147 63.3295 24.6426 64.0017 23.8136 64.0017H18.3626C17.5336 64.0017 16.8615 63.3295 16.8615 62.5005V60.4575C15.675 60.1234 14.546 59.6558 13.4928 59.0674L12.0261 60.5244C11.4407 61.1059 10.4957 61.1058 9.91035 60.5244L6.06273 56.7022C5.47173 56.115 5.47173 55.1593 6.06273 54.5723L7.51535 53.1294C6.9241 52.0834 6.45248 50.9614 6.1181 49.7819H4.05122C3.22235 49.7817 2.55022 49.1097 2.55022 48.2805ZM21.088 52.4734C24.9059 52.4734 28.0007 49.3885 28.0007 45.5833C28.0007 41.778 24.9059 38.6932 21.088 38.6932C17.2701 38.6932 14.1767 41.778 14.1767 45.5833C14.1767 49.3885 17.2701 52.4734 21.088 52.4734Z" fill="#D3E1F4"/>
<path d="M21.091 34.8301C27.0277 34.8301 31.8398 39.6421 31.8398 45.5788C31.8398 51.5142 27.0278 56.3263 21.091 56.3263C15.1556 56.3263 10.3435 51.5143 10.3435 45.5788C10.3436 39.6421 15.1556 34.8301 21.091 34.8301ZM21.091 52.469C24.9088 52.469 28.0037 49.3841 28.0037 45.5788C28.0037 41.7736 24.9088 38.6887 21.091 38.6887C17.2731 38.6887 14.1797 41.7736 14.1797 45.5788C14.1797 49.3841 17.2731 52.469 21.091 52.469Z" fill="#EAF6FF"/>
</g>
<defs>
<clipPath id="clip0_1109:53">
<rect width="64" height="64" fill="white"/>
</clipPath>
</defs>
</svg>
