<svg width="64" height="64" viewBox="0 0 64 64" fill="none" xmlns="http://www.w3.org/2000/svg">
<path d="M56.8294 57.214H7.10811C6.49626 57.214 6 56.7177 6 56.1054V15.8818H57.9375V56.1054C57.9375 56.7177 57.4413 57.214 56.8294 57.214Z" fill="#D3E1F4"/>
<path d="M40.7153 27.5638C39.5488 26.3541 37.6214 26.341 36.438 27.5237L30.5477 33.4147C30.244 33.7184 29.7513 33.7184 29.4468 33.4147L27.5394 31.5065C26.356 30.3231 24.4293 30.3362 23.2628 31.5466C22.1179 32.7339 22.2058 34.6475 23.3723 35.8139L27.8786 40.321C29.049 41.4906 30.9463 41.4906 32.1159 40.321L40.6051 31.8319C41.7715 30.6646 41.8602 28.7518 40.7153 27.5638Z" fill="#31A7FB"/>
<path d="M29.4722 35.8142C28.6272 34.9692 28.3512 33.7333 28.6966 32.664L27.5394 31.5068C26.356 30.3233 24.4293 30.3364 23.2628 31.5461C22.1179 32.7342 22.2058 34.6477 23.3723 35.8142L27.8786 40.3205C29.049 41.4908 30.9463 41.4901 32.1159 40.3205L33.0472 39.3899L29.4722 35.8142Z" fill="#1C96F9"/>
<path d="M53.1836 15.8818V57.214H56.8337C57.4456 57.214 57.9418 56.7177 57.9418 56.1054V15.8818H53.1836Z" fill="#B3CBEA"/>
<path d="M28.2263 3H15.4355C14.8303 3 14.3398 3.49046 14.3398 4.09562V8.2652H29.3219V4.09562C29.3219 3.49046 28.8314 3 28.2263 3Z" fill="#455E7E"/>
<path d="M48.5622 3H35.7714C35.1662 3 34.6758 3.49046 34.6758 4.09562V8.2652H49.6578V4.09562C49.6578 3.49046 49.1674 3 48.5622 3Z" fill="#455E7E"/>
<path d="M57.9375 9.28578C57.9375 8.8752 57.6479 8.52264 57.2449 8.44455C53.6903 7.75728 46.615 6.88468 31.7628 6.88477C16.9106 6.88485 10.1361 7.7787 6.69263 8.44455C6.28964 8.52264 6 8.87565 6 9.28578V15.8702H57.9375V9.28578Z" fill="#4F6D8F"/>
<path d="M57.3077 8.4548C53.7531 7.76753 49.3684 7.2186 44.346 7.23779C43.6619 7.24002 42.9911 7.25431 42.3311 7.27662C46.3092 7.4114 49.5992 7.88534 52.5459 8.4548C52.9489 8.5329 53.2386 8.88546 53.2386 9.29603V15.8804H58.0004V9.29603C58.0004 8.88546 57.7107 8.5329 57.3077 8.4548Z" fill="#455E7E"/>
<path d="M55.3889 61.4065H8.62019C8.18239 61.4065 7.82715 61.0513 7.82715 60.613V57.2119H56.1819V60.613C56.1819 61.0513 55.8267 61.4065 55.3889 61.4065Z" fill="#4F6D8F"/>
<path d="M53.064 57.2119V60.613C53.064 61.0513 52.7088 61.4065 52.2705 61.4065H55.3119C55.7497 61.4065 56.1049 61.0513 56.1049 60.613V57.2119H53.064Z" fill="#455E7E"/>
<path d="M12.5113 15.9682C12.5113 17.2615 11.4627 18.3101 10.1694 18.3101C8.87575 18.3101 7.82715 17.2615 7.82715 15.9682C7.82715 14.6746 8.87575 13.626 10.1694 13.626C11.4627 13.626 12.5113 14.6746 12.5113 15.9682Z" fill="#84AEE1"/>
</svg>
