<svg width="68" height="110" viewBox="0 0 68 110" fill="none" xmlns="http://www.w3.org/2000/svg">
<path d="M61.9299 16.0283V7.86957L6.07096 7.86914V16.0278C6.07096 28.9139 12.2754 41.1214 22.9536 48.9589C24.881 50.3736 26.0323 52.6106 26.0323 55.0014C26.0323 57.3874 24.888 59.6244 22.9641 61.0357C12.0571 69.0369 6.07031 81.35 6.07031 93.9721V102.131L61.9293 102.131V93.9727C61.9293 81.37 55.9592 69.0502 45.0348 61.0357C43.1113 59.6246 41.9679 57.3878 41.9679 55.0022V55.002C41.9679 52.6106 43.1199 50.3736 45.0477 48.9587C55.7018 41.1381 61.9299 28.9427 61.9299 16.0283Z" fill="#EBF4FF"/>
<path d="M45.047 48.9582C55.7011 41.1381 61.929 28.9427 61.9293 16.028V7.86936L6.07031 7.86914L52.7943 7.86936V16.028C52.7943 28.9427 46.5662 41.1381 35.9121 48.9582C33.9843 50.3732 32.8323 52.6101 32.8323 55.0016V55.0018C32.8323 57.3874 33.9759 59.6241 35.8992 61.0352C46.8238 69.0498 52.7939 81.3696 52.7937 93.9723V102.131H61.9288V93.9723C61.9288 81.3696 55.9587 69.0498 45.0344 61.0352C43.1109 59.6241 41.9673 57.3874 41.9675 55.0018V55.0016C41.9673 52.6101 43.1193 50.3732 45.047 48.9582Z" fill="#DAE9FD"/>
<path d="M12.5156 95.5739V94.4888C12.5156 89.0934 15.306 83.9872 20.2794 79.8942C24.1529 76.7063 29.0173 75.0273 33.9996 75.0273C38.9818 75.0273 43.8463 76.7066 47.7199 79.8944C52.6936 83.9878 55.4839 89.0938 55.4839 94.489V95.5741L12.5156 95.5739Z" fill="#DACFCB"/>
<path d="M4.56641 7.87033H63.4334C65.5691 7.87033 67.3006 6.10883 67.3006 3.9359C67.3006 1.76297 65.5691 0.00146484 63.4334 0.00146484H4.56641C2.43043 0.00146484 0.699004 1.76318 0.699219 3.93633C0.699434 6.10904 2.43064 7.87033 4.56641 7.87033Z" fill="#31A7FB"/>
<path d="M4.56641 110H63.4334C65.5691 110 67.3006 108.238 67.3006 106.065C67.3006 103.892 65.5691 102.131 63.4334 102.131H4.56641C2.43043 102.131 0.699004 103.893 0.699219 106.066C0.699434 108.238 2.43064 110 4.56641 110Z" fill="#31A7FB"/>
<path d="M33.9978 70.9358C33.081 70.9358 32.3379 70.1927 32.3379 69.2759V67.0626C32.3379 66.1456 33.081 65.4027 33.9978 65.4027C34.9145 65.4027 35.6577 66.1459 35.6577 67.0626V69.2759C35.6577 70.1927 34.9145 70.9358 33.9978 70.9358ZM33.9978 62.304C33.081 62.304 32.3379 61.5609 32.3379 60.6441V58.4308C32.3379 57.5139 33.081 56.7709 33.9978 56.7709C34.9145 56.7709 35.6577 57.5141 35.6577 58.4308V60.6441C35.6577 61.5609 34.9145 62.304 33.9978 62.304ZM33.9978 53.6722C33.081 53.6722 32.3379 52.9291 32.3379 52.0124V49.799C32.3379 48.8821 33.081 48.1392 33.9978 48.1392C34.9145 48.1392 35.6577 48.8823 35.6577 49.799V52.0124C35.6577 52.9291 34.9145 53.6722 33.9978 53.6722Z" fill="#C0B5B1"/>
<path d="M12.8906 21.0454C13.9558 28.1398 17.2616 34.6835 22.3395 39.8515C25.4289 42.996 29.6313 44.7463 34.0012 44.7463C38.3711 44.7463 42.5732 42.996 45.6627 39.8518C50.7403 34.6841 54.0461 28.1402 55.1113 21.0454H12.8906Z" fill="#C0B5B1"/>
<path d="M63.4337 0H52.1406C54.2764 0 56.0078 1.7615 56.0078 3.93443C56.0078 6.10736 54.2764 7.86887 52.1406 7.86887H63.4337C65.5694 7.86887 67.3009 6.10736 67.3009 3.93443C67.3009 1.7615 65.5694 0 63.4337 0Z" fill="#1C96F9"/>
<path d="M63.4337 102.131H52.1406C54.2764 102.131 56.0078 103.892 56.0078 106.065C56.0078 108.238 54.2764 110 52.1406 110H63.4337C65.5694 110 67.3009 108.238 67.3009 106.065C67.3009 103.892 65.5694 102.131 63.4337 102.131Z" fill="#1C96F9"/>
<path d="M51.4375 83.6401C52.3338 87.0055 52.7947 90.4775 52.7947 93.9722V95.5734H55.4845V94.488C55.4843 90.6367 54.0605 86.9335 51.4375 83.6401Z" fill="#BFA9A3"/>
<path d="M52.4753 21.0454C51.527 28.5652 48.4665 35.6621 43.6699 41.5724C44.3727 41.0564 45.0398 40.4834 45.6602 39.852C50.7379 34.6843 54.0437 28.1404 55.1089 21.0456H52.4753V21.0454Z" fill="#867069"/>
</svg>
