<svg width="110" height="110" viewBox="0 0 110 110" fill="none" xmlns="http://www.w3.org/2000/svg">
<g clip-path="url(#clip0_1200:591)">
<path d="M57.7479 19.7298H24.2426C23.3394 19.7298 22.6074 18.9978 22.6074 18.0946C22.6074 17.1914 23.3396 16.4595 24.2426 16.4595H57.7479C58.6511 16.4595 59.3833 17.1914 59.3833 18.0946C59.3833 18.9978 58.6513 19.7298 57.7479 19.7298Z" fill="#1C96F9"/>
<path d="M25.7214 31.7162H8.47502C7.57182 31.7162 6.83984 30.9842 6.83984 30.081C6.83984 29.1778 7.57203 28.4458 8.47502 28.4458H25.7214C26.6246 28.4458 27.3566 29.1778 27.3566 30.081C27.3566 30.9842 26.6246 31.7162 25.7214 31.7162Z" fill="#1C96F9"/>
<path d="M25.1295 42.8592H18.3168C17.4136 42.8592 16.6816 42.1272 16.6816 41.224C16.6816 40.3208 17.4138 39.5889 18.3168 39.5889H25.1297C26.0329 39.5889 26.7649 40.3208 26.7649 41.224C26.7649 42.1272 26.0327 42.8592 25.1295 42.8592Z" fill="#1C96F9"/>
<path d="M18.3178 50.929H1.63518C0.731973 50.929 0 50.1971 0 49.2939C0 48.3907 0.732188 47.6587 1.63518 47.6587H18.3176C19.2208 47.6587 19.9528 48.3907 19.9528 49.2939C19.9528 50.1971 19.2208 50.929 18.3178 50.929Z" fill="#1C96F9"/>
<path d="M59.9284 93.5411H24.2426C23.3394 93.5411 22.6074 92.8091 22.6074 91.9057C22.6074 91.0023 23.3396 90.2705 24.2426 90.2705H59.9284C60.8316 90.2705 61.5635 91.0025 61.5635 91.9057C61.5635 92.8089 60.8316 93.5411 59.9284 93.5411Z" fill="#1C96F9"/>
<path d="M25.7214 81.5547H8.47502C7.57182 81.5547 6.83984 80.8228 6.83984 79.9196C6.83984 79.0164 7.57203 78.2842 8.47502 78.2842H25.7214C26.6246 78.2842 27.3566 79.0162 27.3566 79.9196C27.3566 80.823 26.6246 81.5547 25.7214 81.5547Z" fill="#1C96F9"/>
<path d="M25.1295 70.4122H18.3168C17.4136 70.4122 16.6816 69.6802 16.6816 68.7768C16.6816 67.8734 17.4138 67.1416 18.3168 67.1416H25.1297C26.0329 67.1416 26.7649 67.8736 26.7649 68.7768C26.7649 69.68 26.0327 70.4122 25.1295 70.4122Z" fill="#1C96F9"/>
<path d="M18.3178 62.3424H1.63518C0.731973 62.3424 0 61.6104 0 60.7072C0 59.804 0.732188 59.0718 1.63518 59.0718H18.3176C19.2208 59.0718 19.9528 59.8038 19.9528 60.7072C19.9528 61.6106 19.2208 62.3424 18.3178 62.3424Z" fill="#1C96F9"/>
<path d="M69.6705 95.3308C91.9446 95.3308 110.001 77.2741 110.001 55.0001C110.001 32.7261 91.9446 14.6694 69.6705 14.6694C47.3965 14.6694 29.3398 32.7261 29.3398 55.0001C29.3398 77.2741 47.3965 95.3308 69.6705 95.3308Z" fill="#31A7FB"/>
<path d="M69.6692 14.6694C68.6483 14.6694 67.6366 14.7081 66.6348 14.7827C87.4914 16.3343 103.931 33.7469 103.931 55.0001C103.931 76.2533 87.4914 93.666 66.6348 95.2176C67.6366 95.2921 68.6483 95.3308 69.6692 95.3308C91.9434 95.3308 110 77.2743 110 55.0001C110 32.726 91.9434 14.6694 69.6692 14.6694Z" fill="#1C96F9"/>
<path d="M69.6677 85.9686C86.7711 85.9686 100.636 72.1036 100.636 55.0002C100.636 37.8968 86.7711 24.0317 69.6677 24.0317C52.5643 24.0317 38.6992 37.8968 38.6992 55.0002C38.6992 72.1036 52.5643 85.9686 69.6677 85.9686Z" fill="#EBF4FF"/>
<path d="M69.6697 24.0312C68.7274 24.0312 67.7958 24.0757 66.875 24.1582C82.6686 25.5712 95.0487 38.8387 95.0487 54.9999C95.0487 71.1611 82.6686 84.4283 66.875 85.8414C67.7958 85.9237 68.7274 85.9681 69.6697 85.9681C86.7732 85.9681 100.638 72.1032 100.638 54.9997C100.638 37.8964 86.7732 24.0312 69.6697 24.0312Z" fill="#DAE9FD"/>
<path d="M69.6705 35.3394C68.7673 35.3394 68.0352 34.6074 68.0352 33.7042V31.2079C68.0352 30.3047 68.7671 29.5728 69.6705 29.5728C70.574 29.5728 71.3057 30.3047 71.3057 31.2079V33.704C71.3057 34.6072 70.5737 35.3394 69.6705 35.3394Z" fill="#4F6D8F"/>
<path d="M84.7272 41.5768C84.3089 41.5768 83.8902 41.4172 83.5707 41.098C82.9322 40.4592 82.9322 39.4239 83.5707 38.7852L85.3356 37.0202C85.9744 36.3819 87.0097 36.3819 87.6484 37.0202C88.2869 37.659 88.2869 38.6943 87.6484 39.333L85.8835 41.098C85.5642 41.4172 85.1457 41.5768 84.7272 41.5768Z" fill="#4F6D8F"/>
<path d="M93.4613 56.6348H90.9655C90.0623 56.6348 89.3301 55.9029 89.3301 54.9994C89.3301 54.096 90.0621 53.3643 90.9655 53.3643H93.4613C94.3645 53.3643 95.0967 54.0962 95.0967 54.9994C95.0967 55.9026 94.3645 56.6348 93.4613 56.6348Z" fill="#4F6D8F"/>
<path d="M86.4921 73.4587C86.0738 73.4587 85.6551 73.2991 85.3356 72.9798L83.5707 71.2149C82.9322 70.5761 82.9322 69.5408 83.5707 68.9021C84.2094 68.2638 85.2447 68.2638 85.8835 68.9021L87.6484 70.667C88.2869 71.3057 88.2869 72.3411 87.6484 72.9798C87.3292 73.2991 86.9106 73.4587 86.4921 73.4587Z" fill="#4F6D8F"/>
<path d="M69.6705 80.4271C68.7673 80.4271 68.0352 79.6951 68.0352 78.7917V76.2958C68.0352 75.3926 68.7671 74.6606 69.6705 74.6606C70.574 74.6606 71.3057 75.3926 71.3057 76.2958V78.7917C71.3057 79.6951 70.5737 80.4271 69.6705 80.4271Z" fill="#4F6D8F"/>
<path d="M52.8463 73.4587C52.4278 73.4587 52.0092 73.2991 51.69 72.9798C51.0513 72.3411 51.0513 71.3057 51.69 70.667L53.4549 68.9021C54.0935 68.2638 55.129 68.2638 55.7675 68.9021C56.4063 69.5408 56.4063 70.5761 55.7675 71.2149L54.0026 72.9798C53.6833 73.2991 53.2648 73.4587 52.8463 73.4587Z" fill="#4F6D8F"/>
<path d="M48.3734 56.6348H45.8774C44.9742 56.6348 44.2422 55.9029 44.2422 54.9994C44.2422 54.096 44.9744 53.3643 45.8774 53.3643H48.3734C49.2766 53.3643 50.0086 54.0962 50.0086 54.9994C50.0086 55.9026 49.2764 56.6348 48.3734 56.6348Z" fill="#4F6D8F"/>
<path d="M54.6112 41.5768C54.1927 41.5768 53.7742 41.4172 53.4549 41.098L51.69 39.333C51.0513 38.6943 51.0513 37.659 51.69 37.0202C52.3285 36.3819 53.3641 36.3819 54.0026 37.0202L55.7675 38.7852C56.4063 39.4239 56.4063 40.4592 55.7675 41.098C55.4483 41.4172 55.0297 41.5768 54.6112 41.5768Z" fill="#4F6D8F"/>
<path d="M76.8268 56.6358H69.6686C68.7654 56.6358 68.0332 55.9039 68.0332 55.0005V41.224C68.0332 40.3208 68.7652 39.5889 69.6686 39.5889C70.572 39.5889 71.3038 40.3208 71.3038 41.224V53.3651H76.8268C77.73 53.3651 78.4622 54.097 78.4622 55.0002C78.4622 55.9034 77.73 56.6358 76.8268 56.6358Z" fill="#455E7E"/>
</g>
<defs>
<clipPath id="clip0_1200:591">
<rect width="110" height="110" fill="white"/>
</clipPath>
</defs>
</svg>
