<svg width="100" height="96" viewBox="0 0 100 96" fill="none" xmlns="http://www.w3.org/2000/svg">
<path d="M79.9216 95.7492H8.08969C3.89793 95.7492 0.5 92.351 0.5 88.1595V80.5693H87.212L79.9216 95.7492Z" fill="#DAE9FD"/>
<path d="M99.1771 35.0298V66.9162V88.1594H8.08969C3.89793 88.1594 0.5 84.7613 0.5 80.5695V35.0298L53.6336 16.0547L99.1771 35.0298Z" fill="#EBF4FF"/>
<path d="M13.9028 50.2095H9.8707C8.8883 50.2095 8.0918 49.413 8.0918 48.4306V44.3985C8.0918 43.4161 8.8883 42.6196 9.8707 42.6196H13.9028C14.8852 42.6196 15.6817 43.4161 15.6817 44.3985V48.4306C15.6817 49.413 14.8852 50.2095 13.9028 50.2095Z" fill="#31A7FB"/>
<path d="M29.0864 50.2095H25.0543C24.0719 50.2095 23.2754 49.413 23.2754 48.4306V44.3985C23.2754 43.4161 24.0719 42.6196 25.0543 42.6196H29.0864C30.0688 42.6196 30.8653 43.4161 30.8653 44.3985V48.4306C30.8653 49.413 30.0688 50.2095 29.0864 50.2095Z" fill="#31A7FB"/>
<path d="M44.2641 50.2095H40.232C39.2496 50.2095 38.4531 49.413 38.4531 48.4306V44.3985C38.4531 43.4161 39.2496 42.6196 40.232 42.6196H44.2641C45.2465 42.6196 46.043 43.4161 46.043 44.3985V48.4306C46.043 49.413 45.2468 50.2095 44.2641 50.2095Z" fill="#31A7FB"/>
<path d="M59.4438 50.2095H55.4117C54.4293 50.2095 53.6328 49.413 53.6328 48.4306V44.3985C53.6328 43.4161 54.4293 42.6196 55.4117 42.6196H59.4438C60.4262 42.6196 61.2227 43.4161 61.2227 44.3985V48.4306C61.2227 49.413 60.4262 50.2095 59.4438 50.2095Z" fill="#31A7FB"/>
<path d="M74.6255 50.2095H70.5934C69.611 50.2095 68.8145 49.413 68.8145 48.4306V44.3985C68.8145 43.4161 69.611 42.6196 70.5934 42.6196H74.6255C75.6079 42.6196 76.4044 43.4161 76.4044 44.3985V48.4306C76.4044 49.413 75.6081 50.2095 74.6255 50.2095Z" fill="#31A7FB"/>
<path d="M89.7993 50.2095H85.7672C84.7848 50.2095 83.9883 49.413 83.9883 48.4306V44.3985C83.9883 43.4161 84.7848 42.6196 85.7672 42.6196H89.7993C90.7817 42.6196 91.5782 43.4161 91.5782 44.3985V48.4306C91.5782 49.413 90.7817 50.2095 89.7993 50.2095Z" fill="#31A7FB"/>
<path d="M13.9028 65.3892H9.8707C8.8883 65.3892 8.0918 64.5927 8.0918 63.6103V59.5782C8.0918 58.5958 8.8883 57.7993 9.8707 57.7993H13.9028C14.8852 57.7993 15.6817 58.5958 15.6817 59.5782V63.6103C15.6817 64.5929 14.8852 65.3892 13.9028 65.3892Z" fill="#31A7FB"/>
<path d="M29.0864 65.3892H25.0543C24.0719 65.3892 23.2754 64.5927 23.2754 63.6103V59.5782C23.2754 58.5958 24.0719 57.7993 25.0543 57.7993H29.0864C30.0688 57.7993 30.8653 58.5958 30.8653 59.5782V63.6103C30.8653 64.5929 30.0688 65.3892 29.0864 65.3892Z" fill="#31A7FB"/>
<path d="M44.2641 65.3892H40.232C39.2496 65.3892 38.4531 64.5927 38.4531 63.6103V59.5782C38.4531 58.5958 39.2496 57.7993 40.232 57.7993H44.2641C45.2465 57.7993 46.043 58.5958 46.043 59.5782V63.6103C46.043 64.5929 45.2468 65.3892 44.2641 65.3892Z" fill="#31A7FB"/>
<path d="M61.2227 65.3892V59.6967C61.2227 58.6487 60.3733 57.7993 59.3253 57.7993H55.5302C54.4822 57.7993 53.6328 58.6487 53.6328 59.6967V63.4918C53.6328 64.5398 54.4825 65.3892 55.5302 65.3892H61.2227Z" fill="#31A7FB"/>
<path d="M13.9028 80.5689H9.8707C8.8883 80.5689 8.0918 79.7724 8.0918 78.79V74.7579C8.0918 73.7755 8.8883 72.979 9.8707 72.979H13.9028C14.8852 72.979 15.6817 73.7755 15.6817 74.7579V78.79C15.6817 79.7724 14.8852 80.5689 13.9028 80.5689Z" fill="#31A7FB"/>
<path d="M29.0864 80.5689H25.0543C24.0719 80.5689 23.2754 79.7724 23.2754 78.79V74.7579C23.2754 73.7755 24.0719 72.979 25.0543 72.979H29.0864C30.0688 72.979 30.8653 73.7755 30.8653 74.7579V78.79C30.8653 79.7724 30.0688 80.5689 29.0864 80.5689Z" fill="#31A7FB"/>
<path d="M44.2641 80.5689H40.232C39.2496 80.5689 38.4531 79.7724 38.4531 78.79V74.7579C38.4531 73.7755 39.2496 72.979 40.232 72.979H44.2641C45.2465 72.979 46.043 73.7755 46.043 74.7579V78.79C46.043 79.7724 45.2468 80.5689 44.2641 80.5689Z" fill="#31A7FB"/>
<path d="M89.749 42.6206H85.8243C85.5868 42.6206 85.3607 42.6673 85.1523 42.7494C85.8317 43.0175 86.3129 43.6784 86.3129 44.4531V48.3778C86.3129 49.1525 85.8314 49.8134 85.1523 50.0816C85.3607 50.1638 85.5868 50.2105 85.8243 50.2105H89.749C90.7612 50.2105 91.5817 49.39 91.5817 48.378V44.4533C91.5815 43.4411 90.761 42.6206 89.749 42.6206Z" fill="#1C96F9"/>
<path d="M74.5693 42.6206H70.6446C70.4072 42.6206 70.181 42.6673 69.9727 42.7494C70.652 43.0175 71.1332 43.6784 71.1332 44.4531V48.3778C71.1332 49.1525 70.6518 49.8134 69.9727 50.0816C70.181 50.1638 70.4072 50.2105 70.6446 50.2105H74.5693C75.5815 50.2105 76.4018 49.39 76.4018 48.378V44.4533C76.4018 43.4411 75.5815 42.6206 74.5693 42.6206Z" fill="#1C96F9"/>
<path d="M59.3877 42.6206H55.463C55.2255 42.6206 54.9994 42.6673 54.791 42.7494C55.4703 43.0175 55.9518 43.6784 55.9518 44.4531V48.3778C55.9518 49.1525 55.4703 49.8134 54.791 50.0816C54.9994 50.1638 55.2255 50.2105 55.463 50.2105H59.3877C60.3999 50.2105 61.2204 49.39 61.2204 48.378V44.4533C61.2202 43.4411 60.3997 42.6206 59.3877 42.6206Z" fill="#1C96F9"/>
<path d="M44.21 42.6206H40.2853C40.0478 42.6206 39.8216 42.6673 39.6133 42.7494C40.2926 43.0175 40.774 43.6784 40.774 44.4531V48.3778C40.774 49.1525 40.2926 49.8134 39.6133 50.0816C39.8216 50.1638 40.0478 50.2105 40.2853 50.2105H44.21C45.2222 50.2105 46.0427 49.39 46.0427 48.378V44.4533C46.0425 43.4411 45.2222 42.6206 44.21 42.6206Z" fill="#1C96F9"/>
<path d="M29.0322 42.6206H25.1075C24.87 42.6206 24.6439 42.6673 24.4355 42.7494C25.1149 43.0175 25.5961 43.6784 25.5961 44.4531V48.3778C25.5961 49.1525 25.1146 49.8134 24.4355 50.0816C24.6439 50.1638 24.87 50.2105 25.1075 50.2105H29.0322C30.0444 50.2105 30.8649 49.39 30.8649 48.378V44.4533C30.8649 43.4411 30.0444 42.6206 29.0322 42.6206Z" fill="#1C96F9"/>
<path d="M13.8486 42.6206H9.92393C9.68645 42.6206 9.46031 42.6673 9.25195 42.7494C9.93127 43.0175 10.4127 43.6784 10.4127 44.4531V48.3778C10.4127 49.1525 9.93127 49.8134 9.25195 50.0816C9.46031 50.1638 9.68645 50.2105 9.92393 50.2105H13.8486C14.8608 50.2105 15.6814 49.39 15.6814 48.378V44.4533C15.6811 43.4411 14.8606 42.6206 13.8486 42.6206Z" fill="#1C96F9"/>
<path d="M13.8486 57.8003H9.92393C9.68645 57.8003 9.46031 57.847 9.25195 57.929C9.93127 58.1972 10.4127 58.8581 10.4127 59.6328V63.5577C10.4127 64.3324 9.93127 64.9933 9.25195 65.2615C9.46031 65.3437 9.68645 65.3904 9.92393 65.3904H13.8486C14.8608 65.3904 15.6814 64.5699 15.6814 63.5579V59.633C15.6811 58.6208 14.8606 57.8003 13.8486 57.8003Z" fill="#1C96F9"/>
<path d="M13.8486 72.9795H9.92393C9.68645 72.9795 9.46031 73.0262 9.25195 73.1082C9.93127 73.3764 10.4127 74.0373 10.4127 74.812V78.7369C10.4127 79.5116 9.93127 80.1725 9.25195 80.4407C9.46031 80.5229 9.68645 80.5696 9.92393 80.5696H13.8486C14.8608 80.5696 15.6814 79.7491 15.6814 78.7371V74.8122C15.6811 73.7998 14.8606 72.9795 13.8486 72.9795Z" fill="#1C96F9"/>
<path d="M29.0322 57.8003H25.1075C24.87 57.8003 24.6439 57.847 24.4355 57.929C25.1149 58.1972 25.5961 58.8581 25.5961 59.6328V63.5577C25.5961 64.3324 25.1146 64.9933 24.4355 65.2615C24.6439 65.3437 24.87 65.3904 25.1075 65.3904H29.0322C30.0444 65.3904 30.8649 64.5699 30.8649 63.5579V59.633C30.8649 58.6208 30.0444 57.8003 29.0322 57.8003Z" fill="#1C96F9"/>
<path d="M29.0322 72.9795H25.1075C24.87 72.9795 24.6439 73.0262 24.4355 73.1082C25.1149 73.3764 25.5961 74.0373 25.5961 74.812V78.7369C25.5961 79.5116 25.1146 80.1725 24.4355 80.4407C24.6439 80.5229 24.87 80.5696 25.1075 80.5696H29.0322C30.0444 80.5696 30.8649 79.7491 30.8649 78.7371V74.8122C30.8649 73.7998 30.0444 72.9795 29.0322 72.9795Z" fill="#1C96F9"/>
<path d="M44.21 57.8003H40.2853C40.0478 57.8003 39.8216 57.847 39.6133 57.929C40.2926 58.1972 40.774 58.8581 40.774 59.6328V63.5577C40.774 64.3324 40.2926 64.9933 39.6133 65.2615C39.8216 65.3437 40.0478 65.3904 40.2853 65.3904H44.21C45.2222 65.3904 46.0427 64.5699 46.0427 63.5579V59.633C46.0425 58.6208 45.2222 57.8003 44.21 57.8003Z" fill="#1C96F9"/>
<path d="M61.2204 65.3902V59.6328C61.2204 58.6206 60.3999 57.8003 59.3877 57.8003H55.463C55.2255 57.8003 54.9994 57.847 54.791 57.929C55.4703 58.1972 55.9518 58.8581 55.9518 59.6328V63.5577C55.9518 64.3324 55.4703 64.9933 54.791 65.2615C54.9994 65.3437 55.2255 65.3904 55.463 65.3904H61.2204V65.3902Z" fill="#1C96F9"/>
<path d="M44.21 72.9795H40.2853C40.0478 72.9795 39.8216 73.0262 39.6133 73.1082C40.2926 73.3764 40.774 74.0373 40.774 74.812V78.7369C40.774 79.5116 40.2926 80.1725 39.6133 80.4407C39.8216 80.5229 40.0478 80.5696 40.2853 80.5696H44.21C45.2222 80.5696 46.0427 79.7491 46.0427 78.7371V74.8122C46.0425 73.7998 45.2222 72.9795 44.21 72.9795Z" fill="#1C96F9"/>
<path d="M93.906 22.556C93.906 20.6748 95.8196 19.399 97.5561 20.1225C98.5385 20.5318 99.1784 21.4917 99.1784 22.556V88.1068C99.1784 88.1359 99.1549 88.1595 99.1258 88.1595L99.0732 88.1602C99.0732 92.3518 95.6752 95.7499 91.4835 95.7499H21.4419C20.302 95.7499 19.2154 95.2674 18.4509 94.4218C16.107 91.8291 17.4033 88.3971 20.8985 88.3971L86.6347 88.1595C90.5645 88.1595 93.906 84.4999 93.906 80.5701V22.556Z" fill="#DAE9FD"/>
<path d="M99.1771 35.0301V16.055C99.1771 11.8633 95.7789 8.46533 91.5874 8.46533H8.08969C3.89793 8.46533 0.5 11.8633 0.5 16.055V35.0301H99.1771Z" fill="#4F6D8F"/>
<path d="M24.416 17.7729H19.4758C18.5267 17.7729 17.7578 17.0037 17.7578 16.0549C17.7578 15.1061 18.527 14.3369 19.4758 14.3369H24.416C25.3651 14.3369 26.134 15.1061 26.134 16.0549C26.134 17.0037 25.3648 17.7729 24.416 17.7729Z" fill="#455E7E"/>
<path d="M36.5527 17.7729H31.6125C30.6635 17.7729 29.8945 17.0037 29.8945 16.0549C29.8945 15.1061 30.6637 14.3369 31.6125 14.3369H36.5527C37.5018 14.3369 38.2707 15.1061 38.2707 16.0549C38.2707 17.0037 37.5018 17.7729 36.5527 17.7729Z" fill="#455E7E"/>
<path d="M68.0588 17.7729H63.1184C62.1693 17.7729 61.4004 17.0037 61.4004 16.0549C61.4004 15.1061 62.1695 14.3369 63.1184 14.3369H68.0588C69.0079 14.3369 69.7768 15.1061 69.7768 16.0549C69.7768 17.0037 69.0079 17.7729 68.0588 17.7729Z" fill="#455E7E"/>
<path d="M80.1975 17.7729H75.257C74.308 17.7729 73.5391 17.0037 73.5391 16.0549C73.5391 15.1061 74.3082 14.3369 75.257 14.3369H80.1975C81.1465 14.3369 81.9155 15.1061 81.9155 16.0549C81.9155 17.0037 81.1463 17.7729 80.1975 17.7729Z" fill="#455E7E"/>
<path d="M32.7588 15.1062C32.7588 17.7261 30.635 19.8499 28.0152 19.8499C25.3953 19.8499 23.2715 17.7261 23.2715 15.1062V5.61867C23.2713 2.99879 25.3951 0.875 28.0149 0.875C30.6348 0.875 32.7586 2.99879 32.7586 5.61867V15.1062H32.7588Z" fill="#EBF4FF"/>
<path d="M76.4036 15.1062C76.4036 17.7261 74.2798 19.8499 71.6599 19.8499C69.04 19.8499 66.916 17.7261 66.916 15.1062V5.61867C66.916 2.99879 69.0398 0.875 71.6597 0.875C74.2796 0.875 76.4034 2.99879 76.4034 5.61867V15.1062H76.4036Z" fill="#EBF4FF"/>
<path d="M71.6573 0.875C70.6833 0.875 69.7788 1.16941 69.0254 1.67284C70.2984 2.5236 71.1374 3.97274 71.1374 5.61889V15.1062C71.1374 16.7522 70.2984 18.2015 69.0254 19.0523C69.7785 19.5555 70.6833 19.8501 71.6573 19.8501C74.2772 19.8501 76.4009 17.7263 76.4009 15.1064V5.61867C76.4012 2.99879 74.2774 0.875 71.6573 0.875V0.875Z" fill="#DAE9FD"/>
<path d="M28.0147 0.875C27.0407 0.875 26.1362 1.16941 25.3828 1.67284C26.6558 2.5236 27.4948 3.97274 27.4948 5.61889V15.1062C27.4948 16.7522 26.6558 18.2015 25.3828 19.0523C26.136 19.5555 27.0407 19.8501 28.0147 19.8501C30.6346 19.8501 32.7584 17.7263 32.7584 15.1064V5.61867C32.7586 2.99879 30.6348 0.875 28.0147 0.875V0.875Z" fill="#DAE9FD"/>
<path d="M91.589 8.46533H86.3184C90.5101 8.46533 93.9081 11.8633 93.9081 16.055V35.0304H99.1785V16.0552C99.1787 11.8635 95.7806 8.46533 91.589 8.46533Z" fill="#455E7E"/>
<path d="M0.5 25.7212H99.1773V29.1574H0.5V25.7212Z" fill="#455E7E"/>
</svg>
