<svg width="64" height="64" viewBox="0 0 64 64" fill="none" xmlns="http://www.w3.org/2000/svg">
<g clip-path="url(#clip0_1109:867)">
<path d="M36.4254 35.9208C36.2913 36.1532 36.0483 36.2989 35.7805 36.3151C33.106 36.4766 30.5611 37.9333 29.1213 40.4274C27.7598 42.7856 27.6953 45.5354 28.7044 47.8542C28.8521 48.1938 29.3255 48.2183 29.5108 47.8976L33.1 41.6809C33.4914 41.0031 34.3581 40.7708 35.0359 41.1622L38.3125 43.0539C38.9904 43.4453 39.2226 44.3121 38.8313 44.9898L35.242 51.2064C35.0569 51.5272 35.3148 51.9249 35.6828 51.8831C38.1954 51.5976 40.5445 50.1668 41.906 47.8087C43.346 45.3147 43.3351 42.3823 42.1378 39.9854C42.0179 39.7454 42.0226 39.4622 42.1568 39.2298L55.5891 15.9643C55.7233 15.7319 55.9663 15.5862 56.234 15.5701C58.9085 15.4086 61.4534 13.9518 62.8933 11.4577C64.2548 9.09957 64.3193 6.3497 63.3101 4.03095C63.1624 3.69132 62.689 3.66682 62.5038 3.98757L58.9145 10.2042C58.5231 10.8821 57.6564 11.1143 56.9786 10.7229L53.702 8.8312C53.0241 8.43982 52.7919 7.57307 53.1833 6.89532L56.7725 0.678698C56.9576 0.357948 56.6998 -0.0398018 56.3318 0.00207323C53.8191 0.287573 51.47 1.71832 50.1085 4.07645C48.6685 6.57045 48.6794 9.50282 49.8768 11.8997C49.9966 12.1397 49.9919 12.4229 49.8578 12.6553L36.4254 35.9208Z" fill="#DAEAFF"/>
<path d="M63.3103 4.03268C63.1625 3.69305 62.6891 3.66855 62.5039 3.9893L60.0954 8.16105C59.9824 9.28968 59.6343 10.4132 59.0301 11.4594C57.5903 13.9534 55.0454 15.4103 52.3709 15.5718C52.103 15.5879 51.8601 15.7337 51.726 15.9661L38.2938 39.2314C38.1596 39.4638 38.1549 39.747 38.2748 39.987C39.4721 42.3839 39.483 45.3162 38.043 47.8103C37.4391 48.8562 36.6404 49.7186 35.7199 50.3806L35.2421 51.208C35.057 51.5288 35.3149 51.9265 35.6829 51.8847C38.1955 51.5992 40.5446 50.1684 41.9061 47.8103C43.3461 45.3162 43.3353 42.3839 42.1379 39.987C42.018 39.747 42.0228 39.4638 42.1569 39.2314L55.5891 15.9659C55.7233 15.7336 55.9663 15.5878 56.234 15.5717C58.9085 15.4102 61.4534 13.9534 62.8933 11.4593C64.2549 9.1013 64.3194 6.35143 63.3103 4.03268Z" fill="#C6DBF7"/>
<path d="M31.174 41.1638C30.4961 40.7724 29.6294 41.0046 29.2381 41.6825L28.0575 43.7275C27.9159 45.1426 28.1445 46.5659 28.7057 47.8559C28.8535 48.1955 29.3269 48.22 29.5121 47.8993L32.8441 42.128L31.174 41.1638Z" fill="#DAE9FD"/>
<path d="M27.5744 35.9219C27.7085 36.1543 27.9515 36.3 28.2192 36.3162C30.8937 36.4777 33.4386 37.9344 34.8785 40.4286C36.24 42.7867 36.3045 45.5366 35.2954 47.8553C35.1476 48.1949 34.6742 48.2194 34.489 47.8987L30.8997 41.682C30.5084 41.0042 29.6416 40.7719 28.9639 41.1633L25.6872 43.055C25.0094 43.4464 24.7771 44.3132 25.1685 44.9909L28.7577 51.2076C28.9429 51.5283 28.685 51.926 28.317 51.8842C25.8044 51.5987 23.4552 50.1679 22.0937 47.8098C20.6537 45.3158 20.6646 42.3834 21.862 39.9865C21.9819 39.7465 21.9771 39.4633 21.843 39.2309L8.41074 15.9653C8.27662 15.7329 8.03362 15.5872 7.76586 15.571C5.09136 15.4095 2.54649 13.9528 1.10662 11.4587C-0.254885 9.10067 -0.319385 6.3508 0.68974 4.03205C0.83749 3.69242 1.31087 3.66792 1.49612 3.98867L5.08536 10.2053C5.47674 10.8832 6.34349 11.1154 7.02124 10.724L10.2979 8.8323C10.9757 8.44092 11.208 7.57417 10.8166 6.89642L7.22737 0.679675C7.04224 0.358925 7.30012 -0.0388252 7.66812 0.00304979C10.1807 0.28855 12.5299 1.7193 13.8914 4.07742C15.3314 6.57142 15.3205 9.5038 14.1231 11.9007C14.0032 12.1407 14.008 12.4239 14.1421 12.6563L27.5744 35.9219Z" fill="#DAEAFF"/>
<path d="M34.8796 40.4284C33.4396 37.9343 30.8947 36.4776 28.2204 36.3161C27.9525 36.2999 27.7096 36.1542 27.5755 35.9218L14.1431 12.6564C14.009 12.424 14.0042 12.1408 14.1241 11.9008C15.3215 9.50393 15.3324 6.57155 13.8924 4.07755C12.531 1.71942 10.1817 0.28855 7.66923 0.00304979C7.30123 -0.0388252 7.04335 0.358925 7.22848 0.679675L7.70623 1.50717C8.62673 2.16917 9.42548 3.03155 10.0294 4.07742C11.4694 6.57142 11.4585 9.5038 10.2611 11.9007C10.1412 12.1407 10.146 12.4239 10.2801 12.6563L23.7124 35.9219C23.8465 36.1543 24.0895 36.3 24.3572 36.3162C27.0317 36.4777 29.5766 37.9344 31.0165 40.4286C31.6206 41.4748 31.9687 42.5983 32.0817 43.7269L34.4902 47.8987C34.6754 48.2194 35.1487 48.1949 35.2966 47.8553C36.3056 45.5364 36.2411 42.7865 34.8796 40.4284Z" fill="#C6DBF7"/>
<path d="M25.1695 44.9904C24.7781 44.3125 25.0103 43.4458 25.6882 43.0545L27.2948 42.127L27.0376 41.6815C26.6462 41.0037 25.7795 40.7714 25.1017 41.1628L21.8251 43.0545C21.1472 43.4459 20.915 44.3126 21.3063 44.9904L24.4178 50.3795C25.5728 51.2101 26.9198 51.7248 28.3181 51.8836C28.6861 51.9255 28.944 51.5278 28.7588 51.207L25.1695 44.9904Z" fill="#DAE9FD"/>
<path d="M54.4215 22.4375H9.57845C7.66158 22.4375 6.0042 23.7639 5.56245 25.6276C5.55058 25.6775 6.40395 26.7383 6.39383 26.789L5.17945 27.5408L2.06445 43.2179L5.17945 58.895L5.98433 60.1884C5.99445 60.239 5.55058 60.7583 5.56245 60.8081C6.0042 62.6719 7.66158 63.9983 9.57845 63.9983H54.4213C56.3382 63.9983 57.9956 62.6719 58.4373 60.8081C58.4492 60.7583 57.8697 60.4059 57.8797 60.3553L58.8203 58.895L61.9353 43.2179L58.8203 27.5408L58.0056 26.2993C57.9955 26.2486 58.4491 25.6776 58.4373 25.6278C57.9957 23.764 56.3383 22.4375 54.4215 22.4375Z" fill="#D3E1F4"/>
<path d="M58.0051 26.3001C57.995 26.2495 58.4486 25.6785 58.4369 25.6286C57.9951 23.7649 56.3377 22.4385 54.4209 22.4385H50.5577C52.526 22.4385 54.2206 23.8369 54.6066 25.7795L58.0717 43.2189L54.6066 60.6582C54.2205 62.6007 52.5259 63.9991 50.5576 63.9991H54.4207C56.3376 63.9991 57.995 62.6727 58.4367 60.809C58.4486 60.7591 57.869 60.4067 57.8791 60.3561L58.8197 58.8959L61.9347 43.2187L58.8197 27.5416L58.0051 26.3001Z" fill="#D3E1F4"/>
<path d="M58.8196 27.542L58.4695 25.7798C58.4593 25.7292 58.4478 25.679 58.4361 25.629H53.1801C51.962 25.629 50.7833 25.9878 49.7718 26.6665L46.1825 29.0752C45.4903 29.5395 44.684 29.785 43.8505 29.785H20.1477C19.3142 29.785 18.5078 29.5395 17.8157 29.075L14.2263 26.6664C13.2148 25.9877 12.0363 25.6289 10.8181 25.6289H5.56221C5.55034 25.6788 5.53896 25.7289 5.52884 25.7797L5.17871 27.5419C5.23959 27.5539 5.30246 27.5605 5.36684 27.5605H10.8182C11.6517 27.5605 12.4581 27.806 13.1502 28.2705L16.7396 30.6792C17.7511 31.3579 18.9296 31.7167 20.1478 31.7167H43.8506C45.0687 31.7167 46.2473 31.3579 47.2588 30.6792L50.8482 28.2705C51.5403 27.8062 52.3467 27.5607 53.1802 27.5607H58.6316C58.6958 27.5607 58.7586 27.5542 58.8196 27.542Z" fill="#DAEAFF"/>
<path d="M54.5742 25.6289C54.5861 25.6788 54.5976 25.7289 54.6076 25.7797L54.9615 27.5605H58.6327C58.6971 27.5605 58.76 27.5539 58.8208 27.5419L58.4707 25.7797C58.4607 25.729 58.4491 25.6789 58.4373 25.6289H54.5742Z" fill="#C6DBF6"/>
<path d="M58.6313 58.8768H53.18C52.3465 58.8768 51.5401 58.6313 50.848 58.1668L47.2586 55.7582C46.2471 55.0795 45.0686 54.7207 43.8503 54.7207H20.1477C18.9296 54.7207 17.751 55.0795 16.7395 55.7582L13.1501 58.1668C12.458 58.6312 11.6516 58.8767 10.8181 58.8767H5.36684C5.30246 58.8767 5.23959 58.8833 5.17871 58.8953L5.52884 60.6576C5.53896 60.7083 5.55046 60.7583 5.56221 60.8083H10.8182C12.0363 60.8083 13.215 60.4496 14.2265 59.7708L17.8158 57.3622C18.508 56.8978 19.3143 56.6523 20.1478 56.6523H43.8506C44.6841 56.6523 45.4905 56.8978 46.1826 57.3623L49.772 59.771C50.7835 60.4497 51.962 60.8085 53.1802 60.8085H58.4362C58.4481 60.7585 58.4596 60.7085 58.4696 60.6577L58.8197 58.8955C58.7586 58.8835 58.6958 58.8768 58.6313 58.8768Z" fill="#DAEAFF"/>
<path d="M58.6327 58.8779H54.9615L54.6076 60.6588C54.5976 60.7096 54.586 60.7596 54.5742 60.8096H58.4373C58.4492 60.7596 58.4607 60.7096 58.4707 60.6588L58.8208 58.8966C58.76 58.8846 58.6972 58.8779 58.6327 58.8779Z" fill="#C6DBF6"/>
<path d="M63.0986 45.1493H0.901375C0.4035 45.1493 0 44.7456 0 44.2479V42.1875C0 41.6896 0.403625 41.2861 0.901375 41.2861H63.0985C63.5964 41.2861 63.9999 41.6898 63.9999 42.1875V44.2479C64 44.7456 63.5964 45.1493 63.0986 45.1493Z" fill="#4F6D8F"/>
<path d="M63.0975 41.2861H59.2344C59.7323 41.2861 60.1358 41.6898 60.1358 42.1875V44.2479C60.1358 44.7458 59.7321 45.1493 59.2344 45.1493H63.0975C63.5954 45.1493 63.9989 44.7456 63.9989 44.2479V42.1875C63.9989 41.6896 63.5953 41.2861 63.0975 41.2861Z" fill="#455E7E"/>
<path d="M42.3923 12.5244H21.6073C19.4736 12.5244 17.7441 14.254 17.7441 16.3875V22.4382H21.6074V16.7739C21.6074 16.5605 21.7804 16.3875 21.9938 16.3875H42.0061C42.2195 16.3875 42.3925 16.5605 42.3925 16.7739V22.4382H46.2558V16.3877C46.2555 14.254 44.5259 12.5244 42.3923 12.5244Z" fill="#4F6D8F"/>
<path d="M42.3934 12.5244H38.5303C40.6639 12.5244 42.3934 14.254 42.3934 16.3875V22.4382H46.2565V16.3877C46.2567 14.254 44.527 12.5244 42.3934 12.5244Z" fill="#455E7E"/>
<path d="M31.9995 58.9736C40.701 58.9736 47.7549 51.9197 47.7549 43.2183C47.7549 34.5168 40.701 27.4629 31.9995 27.4629C23.2981 27.4629 16.2441 34.5168 16.2441 43.2183C16.2441 51.9197 23.2981 58.9736 31.9995 58.9736Z" fill="#EBF4FF"/>
<path d="M39.8623 29.5762C39.2959 29.2492 38.7174 28.9621 38.1305 28.7125C44.4007 33.4324 46.3072 42.1974 42.2835 49.1668C38.2597 56.1361 29.7158 58.8674 22.4931 55.7973C23.0027 56.1808 23.5405 56.5383 24.1069 56.8653C31.6425 61.216 41.2784 58.6341 45.6292 51.0984C49.9799 43.5627 47.3979 33.9269 39.8623 29.5762Z" fill="#C6DBF6"/>
<path d="M33.8053 35.9756H30.1956C26.7475 35.9756 23.9521 38.7708 23.9521 42.2191V45.6336H40.0488V42.2191C40.0486 38.7708 37.2534 35.9756 33.8053 35.9756Z" fill="#47AFF9"/>
<path d="M33.8057 35.9756H30.1961C30.1536 35.9756 30.1116 35.978 30.0693 35.9788C33.4587 36.0466 36.1861 38.8135 36.1861 42.2191V45.6336H40.0492V42.2191C40.0491 38.7708 37.2538 35.9756 33.8057 35.9756Z" fill="#2C9FFD"/>
<path d="M29.0391 41.2568V35.6525C29.0391 34.7668 29.6777 34.0302 30.5197 33.8783C30.6242 33.8595 30.7393 33.9087 30.8493 33.9087L33.1484 34.1331C34.1441 34.1331 33.0876 34.6568 33.0876 35.6525V41.2568C33.0876 41.5413 32.8569 41.772 32.5724 41.772H31.4857H29.5541C29.2697 41.772 29.0391 41.5413 29.0391 41.2568Z" fill="#31A7FB"/>
<path d="M33.1602 33.8506H30.8424C30.7323 33.8506 30.6251 33.862 30.5205 33.8808C31.3623 34.0328 32.0014 34.7677 32.0014 35.6533V41.2577C32.0014 41.5422 31.7708 41.7728 31.4863 41.7728H34.448C34.7325 41.7728 34.9631 41.5422 34.9631 41.2577V35.6533C34.963 34.6577 34.1559 33.8506 33.1602 33.8506Z" fill="#1C96F9"/>
<path d="M40.0486 49.4961H23.9521C22.8854 49.4961 22.0205 48.6313 22.0205 47.5644C22.0205 46.4977 22.8853 45.6328 23.9521 45.6328H40.0487C41.1155 45.6328 41.9804 46.4976 41.9804 47.5644C41.9802 48.6312 41.1155 49.4961 40.0486 49.4961Z" fill="#31A7FB"/>
<path d="M40.0487 45.6328H36.1855C37.2523 45.6328 38.1172 46.4976 38.1172 47.5644C38.1172 48.6312 37.2523 49.4961 36.1855 49.4961H40.0487C41.1154 49.4961 41.9803 48.6313 41.9803 47.5644C41.9803 46.4977 41.1155 45.6328 40.0487 45.6328Z" fill="#1C96F9"/>
</g>
<defs>
<clipPath id="clip0_1109:867">
<rect width="64" height="64" fill="white"/>
</clipPath>
</defs>
</svg>
