<svg width="64" height="64" viewBox="0 0 64 64" fill="none" xmlns="http://www.w3.org/2000/svg">
<path d="M53.1252 25.7666H10.748V56.9253H53.1252V25.7666Z" fill="#D3E1F4"/>
<path d="M26.9528 48.8254H22.9113C23.4232 48.8202 23.8364 48.4042 23.8364 47.8912V41.6582C23.8364 41.1418 23.418 40.7234 22.9017 40.7234H18.8722C19.3784 40.7117 19.7853 40.2988 19.7853 39.7898V33.5568C19.7853 33.0404 19.3669 32.6221 18.8505 32.6221H12.6177C12.1013 32.6221 11.6829 33.0404 11.6829 33.5568L11.6828 55.9932C11.6828 55.9934 11.6827 55.9936 11.6827 55.9936C11.6815 56.5092 11.2638 56.9266 10.748 56.9266L26.9528 56.9279C27.4692 56.9279 27.8875 56.5096 27.8875 55.9932V49.7602C27.8875 49.2438 27.469 48.8254 26.9528 48.8254Z" fill="#7F6A64"/>
<path d="M26.9528 56.9277H20.7199C20.2035 56.9277 19.7852 56.5093 19.7852 55.9929V49.7599C19.7852 49.2436 20.2035 48.8252 20.7199 48.8252H26.9528C27.4692 48.8252 27.8875 49.2436 27.8875 49.7599V55.9929C27.8875 56.5092 27.469 56.9277 26.9528 56.9277Z" fill="#AB9C97"/>
<path d="M22.902 48.8252H16.6691C16.1528 48.8252 15.7344 48.4068 15.7344 47.8904V41.6574C15.7344 41.141 16.1528 40.7227 16.6691 40.7227H22.902C23.4184 40.7227 23.8368 41.141 23.8368 41.6574V47.8904C23.8368 48.4067 23.4183 48.8252 22.902 48.8252Z" fill="#867069"/>
<path d="M18.8493 40.7246H12.6164C12.1 40.7246 11.6816 40.3062 11.6816 39.7898V33.5568C11.6816 33.0404 12.1 32.6221 12.6164 32.6221H18.8493C19.3656 32.6221 19.784 33.0404 19.784 33.5568V39.7898C19.784 40.3061 19.3656 40.7246 18.8493 40.7246Z" fill="#C0B5B1"/>
<path d="M18.8493 56.9277H12.6164C12.1 56.9277 11.6816 56.5093 11.6816 55.9929V49.7599C11.6816 49.2436 12.1 48.8252 12.6164 48.8252H18.8493C19.3656 48.8252 19.784 49.2436 19.784 49.7599V55.9929C19.784 56.5092 19.3656 56.9277 18.8493 56.9277Z" fill="#C0B5B1"/>
<path d="M62.9086 17.3403C62.9083 17.3202 62.9071 17.3005 62.9056 17.2805C62.9047 17.2685 62.9037 17.2566 62.9023 17.2446C62.9002 17.2273 62.8976 17.2105 62.8945 17.1935C62.892 17.1791 62.8895 17.165 62.8863 17.1507C62.8832 17.1368 62.8793 17.1231 62.8757 17.1093C62.8712 17.093 62.8667 17.0768 62.8615 17.0608C62.8577 17.0492 62.8532 17.038 62.8488 17.0266C62.8425 17.0095 62.8358 16.9926 62.8287 16.976C62.8238 16.9652 62.8185 16.9546 62.8132 16.9441C62.8053 16.928 62.7975 16.912 62.7888 16.8965C62.7822 16.8847 62.7751 16.8736 62.768 16.8623C62.7596 16.8487 62.7511 16.8351 62.7421 16.822C62.7332 16.809 62.7235 16.7967 62.7138 16.7842C62.7056 16.7735 62.6972 16.7626 62.6886 16.7521C62.6772 16.7387 62.6652 16.7258 62.6531 16.713C62.6448 16.7043 62.6367 16.6953 62.6283 16.6872C62.6153 16.6743 62.6017 16.6625 62.588 16.6505C62.5788 16.6425 62.5697 16.6345 62.5605 16.627C62.5471 16.6163 62.5333 16.6062 62.5195 16.5963C62.5081 16.5883 62.497 16.5801 62.4853 16.5726C62.4727 16.5646 62.4601 16.557 62.447 16.5493C62.4326 16.541 62.4182 16.5326 62.4031 16.525C62.3918 16.5192 62.3805 16.5138 62.3691 16.5086C62.3516 16.5005 62.3341 16.4926 62.3161 16.4856C62.3112 16.4837 62.3067 16.4813 62.3018 16.4795L32.2641 5.26145C32.2601 5.25995 32.256 5.25895 32.2518 5.25758C32.2363 5.25208 32.2206 5.24746 32.2047 5.24271C32.1908 5.23858 32.1768 5.23396 32.1628 5.23046C32.148 5.22671 32.133 5.22396 32.1178 5.22096C32.1026 5.21808 32.0876 5.21458 32.0723 5.21245C32.0585 5.21033 32.0446 5.20945 32.0307 5.20808C32.0141 5.20633 31.9976 5.20433 31.9811 5.20345C31.9681 5.20295 31.9551 5.20333 31.942 5.2032C31.9245 5.2032 31.9072 5.20283 31.8898 5.2037C31.8772 5.20433 31.865 5.20608 31.8523 5.20708C31.8342 5.20883 31.8163 5.2102 31.7985 5.21295C31.7867 5.2147 31.7753 5.21733 31.7636 5.21958C31.7448 5.2232 31.7262 5.22671 31.7078 5.23133C31.6968 5.23408 31.686 5.23783 31.6751 5.24096C31.6561 5.24646 31.6372 5.2522 31.6187 5.25895C31.6155 5.2602 31.6121 5.26095 31.6088 5.26208L1.69634 16.4793C1.69184 16.4811 1.68759 16.4833 1.68309 16.4851C1.66484 16.4925 1.64684 16.5002 1.62909 16.5085C1.61784 16.5138 1.60672 16.519 1.59584 16.5246C1.58072 16.5325 1.56622 16.5408 1.55147 16.5493C1.53847 16.557 1.52597 16.5643 1.51347 16.5723C1.50172 16.5801 1.49059 16.5882 1.47934 16.5962C1.46547 16.6062 1.45159 16.6162 1.43834 16.6267C1.42897 16.6345 1.42009 16.6425 1.41084 16.6503C1.39722 16.6623 1.38359 16.6741 1.37072 16.6868C1.36209 16.6953 1.35384 16.7043 1.34572 16.713C1.33359 16.7258 1.32172 16.7385 1.31034 16.752C1.30147 16.7625 1.29309 16.7736 1.28484 16.7845C1.27534 16.7968 1.26572 16.8088 1.25697 16.8217C1.24759 16.8352 1.23897 16.8491 1.23047 16.863C1.22359 16.8741 1.21659 16.885 1.21022 16.8963C1.20122 16.9123 1.19309 16.9287 1.18522 16.9453C1.18022 16.9556 1.17509 16.9656 1.17047 16.9758C1.16284 16.9931 1.15622 17.0103 1.14959 17.0281C1.14559 17.0388 1.14134 17.0497 1.13759 17.0606C1.13222 17.0772 1.12759 17.0941 1.12297 17.111C1.11947 17.1241 1.11584 17.1368 1.11284 17.1501C1.10959 17.1648 1.10697 17.1797 1.10447 17.1947C1.10159 17.2111 1.09884 17.2273 1.09684 17.2438C1.09534 17.2565 1.09447 17.269 1.09347 17.2817C1.09197 17.301 1.09084 17.3202 1.09059 17.3395C1.09059 17.3445 1.08984 17.3493 1.08984 17.3543V21.0933C1.08984 21.1002 1.09072 21.1067 1.09084 21.1136C1.09134 21.1328 1.09222 21.1521 1.09372 21.1713C1.09484 21.1847 1.09647 21.1981 1.09809 21.2115C1.10022 21.2276 1.10247 21.2437 1.10547 21.26C1.10847 21.2765 1.11209 21.2926 1.11584 21.309C1.11884 21.3217 1.12209 21.3345 1.12572 21.3472C1.13109 21.3661 1.13697 21.3845 1.14347 21.4028C1.14584 21.4092 1.14722 21.4156 1.14959 21.4218C1.15084 21.425 1.15247 21.4277 1.15372 21.4307C1.16972 21.4718 1.18797 21.5117 1.20934 21.5497C1.21272 21.5561 1.21672 21.5618 1.22034 21.5678C1.23934 21.5998 1.25997 21.6306 1.28247 21.66C1.28784 21.667 1.29284 21.6742 1.29834 21.6812C1.32322 21.712 1.35047 21.741 1.37897 21.7683C1.38697 21.776 1.39522 21.7831 1.40322 21.7903C1.43159 21.8157 1.46122 21.8397 1.49247 21.8613C1.49509 21.8631 1.49722 21.8651 1.49972 21.8667C1.53409 21.8901 1.57072 21.9106 1.60834 21.9295C1.61559 21.9331 1.62272 21.9366 1.63009 21.94C1.70484 21.9748 1.78472 22.0001 1.86859 22.0142C1.87922 22.0161 1.88972 22.0176 1.90034 22.0191C1.93809 22.0242 1.97634 22.0275 2.01559 22.0278C2.01859 22.0278 2.02172 22.0286 2.02484 22.0286C2.05509 22.0286 2.08547 22.0267 2.11597 22.0237C2.12397 22.023 2.13197 22.0215 2.13997 22.0206C2.16047 22.018 2.18084 22.0151 2.20147 22.0111C2.21497 22.0085 2.22822 22.0052 2.24147 22.0021C2.25597 21.9986 2.27022 21.9951 2.28484 21.9908C2.30059 21.9863 2.31584 21.9811 2.33122 21.9757C2.33847 21.9732 2.34572 21.9715 2.35284 21.9687L31.9377 10.8741L61.6475 21.9691C61.6547 21.9717 61.662 21.9736 61.6691 21.9761C61.6842 21.9815 61.6993 21.9865 61.7147 21.991C61.7291 21.9951 61.7433 21.9986 61.7578 22.002C61.7712 22.0051 61.7845 22.0086 61.7981 22.0111C61.8185 22.015 61.8386 22.0178 61.859 22.0205C61.8671 22.0215 61.8752 22.023 61.8833 22.0236C61.9137 22.0266 61.9441 22.0285 61.9742 22.0285C61.9772 22.0285 61.9803 22.0277 61.9835 22.0277C62.0226 22.0273 62.0611 22.0241 62.099 22.019C62.1096 22.0175 62.12 22.016 62.1303 22.0141C62.2147 22 62.2948 21.9747 62.3698 21.9395C62.377 21.9362 62.3837 21.9328 62.3907 21.9295C62.4286 21.9106 62.4653 21.89 62.5001 21.8661C62.5023 21.8646 62.5042 21.863 62.5065 21.8613C62.5382 21.8393 62.5682 21.815 62.597 21.7892C62.6048 21.7822 62.6126 21.7753 62.6202 21.7681C62.649 21.7403 62.6763 21.7112 62.7013 21.6801C62.7068 21.6733 62.7117 21.6662 62.717 21.6592C62.7397 21.6296 62.7607 21.5985 62.7797 21.566C62.7831 21.5602 62.787 21.5547 62.7902 21.5488C62.8116 21.5107 62.8297 21.4708 62.8457 21.4296C62.847 21.4265 62.8488 21.4235 62.8501 21.4202C62.8525 21.4138 62.854 21.4073 62.8562 21.401C62.8625 21.383 62.8683 21.3651 62.8735 21.3466C62.8772 21.3333 62.8806 21.3202 62.8837 21.307C62.8873 21.2912 62.8908 21.2757 62.8936 21.2597C62.8966 21.2428 62.8992 21.2262 62.9012 21.2095C62.9028 21.1967 62.9042 21.1842 62.9053 21.1712C62.907 21.1513 62.908 21.1316 62.9082 21.1117C62.9083 21.1055 62.9092 21.0993 62.9092 21.0931V17.3541C62.9093 17.3498 62.9087 17.3452 62.9086 17.3403Z" fill="#31A7FB"/>
<path d="M62.9096 17.3406C62.9094 17.3205 62.9081 17.3008 62.9066 17.2808C62.9057 17.2688 62.9047 17.2569 62.9034 17.2449C62.9012 17.2276 62.8986 17.2108 62.8955 17.1938C62.893 17.1794 62.8905 17.1653 62.8874 17.151C62.8842 17.1371 62.8804 17.1234 62.8768 17.1096C62.8723 17.0933 62.8677 17.0771 62.8625 17.0611C62.8587 17.0495 62.8543 17.0383 62.8499 17.0269C62.8435 17.0098 62.8369 16.9929 62.8298 16.9763C62.8249 16.9655 62.8195 16.9549 62.8143 16.9444C62.8064 16.9283 62.7985 16.9123 62.7899 16.8968C62.7833 16.885 62.7761 16.8739 62.769 16.8626C62.7606 16.849 62.7521 16.8354 62.7431 16.8223C62.7343 16.8093 62.7245 16.797 62.7149 16.7845C62.7066 16.7738 62.6982 16.7629 62.6896 16.7524C62.6782 16.739 62.6663 16.7261 62.6541 16.7133C62.6459 16.7046 62.6378 16.6956 62.6294 16.6875C62.6164 16.6746 62.6028 16.6628 62.589 16.6508C62.5799 16.6428 62.5708 16.6348 62.5615 16.6273C62.5481 16.6166 62.5344 16.6065 62.5205 16.5966C62.5091 16.5886 62.498 16.5804 62.4864 16.5729C62.4737 16.5649 62.4611 16.5573 62.448 16.5496C62.4336 16.5413 62.4193 16.5329 62.4041 16.5253C62.3929 16.5195 62.3815 16.5141 62.3701 16.5089C62.3526 16.5008 62.3351 16.4929 62.3171 16.4859C62.3123 16.484 62.3078 16.4816 62.3029 16.4798L59.0781 15.2754C59.0824 15.3014 59.0866 15.3275 59.0906 15.3539C59.098 15.4039 59.1045 15.4554 59.1109 15.5069C59.1151 15.5414 59.1196 15.5755 59.1235 15.6105C59.1288 15.6588 59.1332 15.7076 59.1377 15.757C59.1414 15.7985 59.1453 15.84 59.1484 15.882C59.1515 15.9246 59.1541 15.9678 59.1565 16.011C59.1595 16.0621 59.1623 16.1136 59.1644 16.1654C59.1659 16.2014 59.1669 16.2378 59.1676 16.2738C59.1693 16.3341 59.1704 16.394 59.1706 16.4546C59.1707 16.4694 59.1714 16.4833 59.1714 16.4981V21.0449L61.649 21.9701C61.6563 21.9728 61.6635 21.9746 61.6706 21.9771C61.6857 21.9825 61.7009 21.9875 61.7163 21.992C61.7306 21.9961 61.7449 21.9996 61.7594 22.003C61.7728 22.0061 61.786 22.0096 61.7996 22.0121C61.82 22.016 61.8401 22.0189 61.8605 22.0215C61.8686 22.0225 61.8768 22.024 61.8849 22.0246C61.9153 22.0276 61.9456 22.0295 61.9757 22.0295C61.9787 22.0295 61.9819 22.0288 61.985 22.0288C62.0241 22.0284 62.0626 22.0251 62.1005 22.02C62.1111 22.0185 62.1215 22.017 62.1319 22.0151C62.2162 22.001 62.2964 21.9758 62.3714 21.9405C62.3785 21.9373 62.3853 21.9339 62.3923 21.9305C62.4301 21.9116 62.4669 21.891 62.5016 21.8671C62.5039 21.8656 62.5057 21.864 62.508 21.8624C62.5397 21.8404 62.5697 21.816 62.5985 21.7903C62.6064 21.7833 62.6141 21.7764 62.6217 21.7691C62.6505 21.7414 62.6779 21.7123 62.7029 21.6811C62.7084 21.6744 62.7133 21.6673 62.7185 21.6603C62.7413 21.6306 62.7622 21.5995 62.7812 21.567C62.7846 21.5613 62.7885 21.5558 62.7918 21.5499C62.8131 21.5118 62.8313 21.4719 62.8473 21.4306C62.8485 21.4275 62.8504 21.4245 62.8516 21.4213C62.854 21.4149 62.8555 21.4084 62.8577 21.402C62.864 21.384 62.8699 21.3661 62.875 21.3476C62.8788 21.3344 62.8821 21.3213 62.8853 21.308C62.8889 21.2923 62.8924 21.2768 62.8951 21.2608C62.8981 21.2439 62.9008 21.2273 62.9028 21.2105C62.9044 21.1978 62.9058 21.1853 62.9069 21.1723C62.9085 21.1524 62.9095 21.1326 62.9098 21.1128C62.9099 21.1065 62.9108 21.1004 62.9108 21.0941V17.3553C62.9104 17.3501 62.9098 17.3455 62.9096 17.3406Z" fill="#1C96F9"/>
<path d="M14.8 40.7227H11.6836V48.8252H14.8C15.3163 48.8252 15.7347 48.4068 15.7347 47.8904V41.6574C15.7347 41.141 15.3163 40.7227 14.8 40.7227Z" fill="#AB9C97"/>
<path d="M36.9211 48.8254H40.9626C40.4507 48.8202 40.0375 48.4042 40.0375 47.8912V41.6582C40.0375 41.1418 40.456 40.7234 40.9722 40.7234H45.0017C44.4956 40.7117 44.0886 40.2988 44.0886 39.7898V33.5568C44.0886 33.0404 44.507 32.6221 45.0233 32.6221H51.2562C51.7726 32.6221 52.191 33.0404 52.191 33.5568L52.1911 55.9932C52.1911 55.9934 52.1912 55.9936 52.1912 55.9936C52.1923 56.5092 52.6101 56.9266 53.1258 56.9266L36.9211 56.9279C36.4047 56.9279 35.9863 56.5096 35.9863 55.9932V49.7602C35.9863 49.2438 36.4048 48.8254 36.9211 48.8254Z" fill="#7F6A64"/>
<path d="M35.9863 55.9929V49.7599C35.9863 49.2436 36.4047 48.8252 36.9211 48.8252H43.154C43.6703 48.8252 44.0887 49.2436 44.0887 49.7599V55.9929C44.0887 56.5093 43.6703 56.9277 43.154 56.9277H36.9211C36.4048 56.9277 35.9863 56.5092 35.9863 55.9929Z" fill="#AB9C97"/>
<path d="M40.0371 47.8904V41.6574C40.0371 41.141 40.4556 40.7227 40.9719 40.7227H47.2047C47.7211 40.7227 48.1395 41.141 48.1395 41.6574V47.8904C48.1395 48.4068 47.7211 48.8252 47.2047 48.8252H40.9719C40.4556 48.8252 40.0371 48.4067 40.0371 47.8904Z" fill="#867069"/>
<path d="M44.0879 39.7898V33.5568C44.0879 33.0404 44.5063 32.6221 45.0226 32.6221H51.2555C51.7719 32.6221 52.1903 33.0404 52.1903 33.5568V39.7898C52.1903 40.3062 51.7719 40.7246 51.2555 40.7246H45.0226C44.5064 40.7246 44.0879 40.3061 44.0879 39.7898Z" fill="#C0B5B1"/>
<path d="M44.0879 55.9929V49.7599C44.0879 49.2436 44.5063 48.8252 45.0226 48.8252H51.2555C51.7719 48.8252 52.1903 49.2436 52.1903 49.7599V55.9929C52.1903 56.5093 51.7719 56.9277 51.2555 56.9277H45.0226C44.5064 56.9277 44.0879 56.5092 44.0879 55.9929Z" fill="#C0B5B1"/>
<path d="M49.0754 40.7227H52.1917V48.8252H49.0754C48.559 48.8252 48.1406 48.4068 48.1406 47.8904V41.6574C48.1406 41.141 48.5591 40.7227 49.0754 40.7227Z" fill="#AB9C97"/>
<path d="M31.9383 10.874L4.83008 21.0399V46.8933V55.0564V55.9911C4.83008 55.9915 4.83008 55.9919 4.83008 55.9919C4.83008 56.5085 5.24845 56.9269 5.76483 56.9269C5.77145 56.9269 5.7777 56.926 5.78408 56.9259H10.7491C11.2655 56.9259 11.6838 56.5075 11.6838 55.9911V25.7669H52.192V55.9911C52.192 56.5075 52.6103 56.9259 53.1267 56.9259H58.0925C58.099 56.926 58.1052 56.9269 58.1117 56.9269C58.628 56.9269 59.0465 56.5085 59.0465 55.9921V46.4363V20.9974L31.9383 10.874Z" fill="#EAF6FF"/>
<path d="M5.76534 56.9268C5.77197 56.9268 5.77822 56.9259 5.78459 56.9258H5.74609C5.75247 56.9259 5.75872 56.9268 5.76534 56.9268Z" fill="#EAF6FF"/>
<path d="M55.3061 19.6113V46.4367V55.9926C55.3061 56.5023 54.8981 56.916 54.3906 56.9263H58.0914C58.0979 56.9265 58.1041 56.9273 58.1106 56.9273C58.6269 56.9273 59.0454 56.509 59.0454 55.9926V46.4367V20.9978L55.3061 19.6113Z" fill="#D3E1F4"/>
<path d="M11.6836 25.7676V28.6338L11.6837 28.634C11.6838 29.1501 12.1022 29.5686 12.6185 29.5686H12.6186H51.2567H51.2568C51.7731 29.5686 52.1916 29.1501 52.1916 28.6338V25.7676H11.6836Z" fill="#31A7FB"/>
<path d="M63.0653 58.7963H0.93475C0.418375 58.7963 0 58.3779 0 57.8615C0 57.3451 0.418375 56.9268 0.93475 56.9268H63.0653C63.5816 56.9268 64 57.3451 64 57.8615C64 58.3779 63.5816 58.7963 63.0653 58.7963Z" fill="#84AEE1"/>
</svg>
