<svg width="110" height="110" viewBox="0 0 110 110" fill="none" xmlns="http://www.w3.org/2000/svg">
<g clip-path="url(#clip0_1200:282)">
<path d="M30.585 104.588H17.5219L17.5156 70.9831C17.5156 61.1185 25.5125 53.1216 35.3771 53.1216H70.6048C71.2064 53.1216 71.6938 53.6093 71.6938 54.2106V65.1017C71.6938 65.7033 71.2062 66.1907 70.6048 66.1907H35.3771C32.7304 66.1907 30.585 68.3362 30.585 70.9828V104.588Z" fill="#D3E1F4"/>
<path d="M70.6037 53.1216H67.2088V60.6177C67.2088 61.2193 66.7211 61.7067 66.1197 61.7067H34.8127C30.0006 61.7067 26.0999 65.6077 26.0999 70.4195L26.0449 104.588L30.5839 99.7076V70.983C30.5839 68.3364 32.7294 66.191 35.376 66.191H70.6037C71.2053 66.191 71.6928 65.7033 71.6928 65.1019V54.2108C71.6928 53.6093 71.2053 53.1216 70.6037 53.1216Z" fill="#B3CBEA"/>
<path d="M51.603 59.6559C47.9941 59.6559 45.0684 56.7301 45.0684 53.1212V1.08904C45.0684 0.48748 45.5561 0 46.1574 0H57.0485C57.65 0 58.1375 0.487695 58.1375 1.08904V53.1212C58.1375 56.7304 55.212 59.6559 51.603 59.6559Z" fill="#D3E1F4"/>
<path d="M57.0479 0H51.902C52.5035 0 52.991 0.487695 52.991 1.08904V53.1212C52.991 55.8164 51.3589 58.1301 49.0293 59.1291C49.8191 59.4677 50.6885 59.6559 51.6023 59.6559C55.2112 59.6559 58.137 56.7301 58.137 53.1212V1.08904C58.137 0.487695 57.6495 0 57.0479 0V0Z" fill="#B3CBEA"/>
<path d="M29.5016 110H18.6105C18.009 110 17.5215 109.512 17.5215 108.911V102.453C17.5215 92.5122 25.5801 84.4536 35.5209 84.4536H74.4791C77.2019 84.4536 79.4092 82.2463 79.4092 79.5236V42.477C79.4092 39.7543 77.2019 37.547 74.4791 37.547H35.5207C25.5801 37.547 17.5215 29.4884 17.5215 19.5478V1.08904C17.5215 0.48748 18.0092 0 18.6105 0H29.5016C30.1032 0 30.5906 0.487695 30.5906 1.08904V19.5478C30.5906 22.2705 32.7979 24.4778 35.5207 24.4778H74.4789C84.4197 24.4778 92.4783 32.5364 92.4783 42.4772V79.5238C92.4783 89.4646 84.4197 97.5232 74.4789 97.5232H35.5207C32.7979 97.5232 30.5906 99.7305 30.5906 102.453V108.911C30.5909 109.512 30.1032 110 29.5016 110Z" fill="#EAF6FF"/>
<path d="M84.7269 27.6831C86.746 30.5921 87.9324 34.1224 87.9324 37.9316V78.8542C87.9324 86.6543 81.6091 92.9776 73.809 92.9776H35.225C30.1549 92.9776 26.0449 97.0875 26.0449 102.158V110H29.5011C30.1027 110 30.5902 109.512 30.5902 108.911V102.453C30.5902 99.7301 32.7975 97.5228 35.5202 97.5228H74.4784C84.4193 97.5228 92.4778 89.4642 92.4778 79.5234V42.4768C92.4776 36.3454 89.4092 30.933 84.7269 27.6831Z" fill="#D3E1F4"/>
<path d="M51.6029 105.629C47.8588 105.629 44.1147 104.204 41.2639 101.354C35.5631 95.6527 35.5631 86.3769 41.2639 80.6758C44.0255 77.9142 47.6974 76.3931 51.6029 76.3931C55.5085 76.3931 59.1802 77.9139 61.942 80.6758C64.7036 83.4374 66.2247 87.109 66.2247 91.0147C66.2247 94.9203 64.7038 98.592 61.9418 101.354H61.942C61.9418 101.354 61.9418 101.354 61.9418 101.354C59.0915 104.204 55.3472 105.629 51.6029 105.629ZM51.6029 79.6604C48.5701 79.6604 45.7189 80.8416 43.5746 82.986C39.1475 87.4128 39.1475 94.6161 43.5746 99.0432C48.0014 103.47 55.2051 103.47 59.6316 99.0432H59.6318C61.7761 96.8986 62.9574 94.0474 62.9574 91.0147C62.9574 87.982 61.7761 85.1305 59.6318 82.9862C57.487 80.8416 54.6358 79.6604 51.6029 79.6604Z" fill="#31A7FB"/>
<path d="M42.8426 101.408C42.4243 101.408 42.0064 101.248 41.6874 100.929C41.0495 100.291 41.0495 99.2568 41.6874 98.6189L59.2068 81.0997C59.8451 80.4616 60.8794 80.4616 61.5172 81.0997C62.1551 81.7375 62.1551 82.772 61.5172 83.4099L43.9978 100.929C43.6788 101.248 43.2605 101.408 42.8426 101.408Z" fill="#31A7FB"/>
<path d="M60.362 101.408C59.944 101.408 59.5259 101.248 59.2068 100.929L41.6874 83.4102C41.0495 82.7723 41.0495 81.7379 41.6874 81.1C42.3255 80.4621 43.3597 80.4621 43.9978 81.1L61.5173 98.6192C62.1551 99.2571 62.1551 100.292 61.5173 100.929C61.1984 101.248 60.7801 101.408 60.362 101.408Z" fill="#31A7FB"/>
<path d="M51.602 96.0443C54.3798 96.0443 56.6317 93.7924 56.6317 91.0146C56.6317 88.2367 54.3798 85.9849 51.602 85.9849C48.8241 85.9849 46.5723 88.2367 46.5723 91.0146C46.5723 93.7924 48.8241 96.0443 51.602 96.0443Z" fill="#4F6D8F"/>
<path d="M53.7166 86.4507C54.0148 87.0935 54.1822 87.8091 54.1822 88.5641C54.1822 91.3418 51.9304 93.5938 49.1525 93.5938C48.3973 93.5938 47.6817 93.4262 47.0391 93.1282C47.8376 94.8498 49.5805 96.0443 51.603 96.0443C54.3807 96.0443 56.6327 93.7925 56.6327 91.0146C56.6327 88.9921 55.4382 87.2493 53.7166 86.4507Z" fill="#455E7E"/>
<path d="M41.0385 22.0378V40.0965C41.0385 40.698 40.5508 41.1855 39.9495 41.1855H35.1574C34.5558 41.1855 34.0684 40.6978 34.0684 40.0965V22.0378C34.0684 21.4362 34.5561 20.9487 35.1574 20.9487H39.9495C40.5511 20.9487 41.0385 21.4364 41.0385 22.0378Z" fill="#D3E1F4"/>
<path d="M94.9719 48.6562H76.9133C76.3117 48.6562 75.8242 48.1685 75.8242 47.5672V42.7751C75.8242 42.1735 76.3119 41.686 76.9133 41.686H94.9719C95.5735 41.686 96.061 42.1737 96.061 42.7751V47.5672C96.0612 48.1687 95.5735 48.6562 94.9719 48.6562Z" fill="#D3E1F4"/>
<path d="M94.9719 80.4892H76.9133C76.3117 80.4892 75.8242 80.0015 75.8242 79.4002V74.6081C75.8242 74.0065 76.3119 73.519 76.9133 73.519H94.9719C95.5735 73.519 96.061 74.0067 96.061 74.6081V79.4002C96.0612 80.0015 95.5735 80.4892 94.9719 80.4892Z" fill="#D3E1F4"/>
<path d="M75.8256 22.0378V40.0965C75.8256 40.698 75.3379 41.1855 74.7366 41.1855H69.9445C69.3429 41.1855 68.8555 40.6978 68.8555 40.0965V22.0378C68.8555 21.4362 69.3432 20.9487 69.9445 20.9487H74.7366C75.3382 20.9487 75.8256 21.4364 75.8256 22.0378Z" fill="#D3E1F4"/>
<path d="M75.8256 81.9855V100.044C75.8256 100.646 75.3379 101.133 74.7366 101.133H69.9445C69.3429 101.133 68.8555 100.646 68.8555 100.044V81.9855C68.8555 81.384 69.3432 80.8965 69.9445 80.8965H74.7366C75.3382 80.8963 75.8256 81.384 75.8256 81.9855Z" fill="#D3E1F4"/>
<path d="M41.1381 50.6857V68.7444C41.1381 69.346 40.6504 69.8335 40.0491 69.8335H35.257C34.6554 69.8335 34.168 69.3458 34.168 68.7444V50.6857C34.168 50.0842 34.6557 49.5967 35.257 49.5967H40.0491C40.6507 49.5967 41.1381 50.0842 41.1381 50.6857Z" fill="#EAF6FF"/>
<path d="M39.9495 20.9487H37.9957V37.0539C37.9957 37.6554 37.508 38.1429 36.9067 38.1429H34.0684V40.0967C34.0684 40.6982 34.5561 41.1857 35.1574 41.1857H39.9495C40.5511 41.1857 41.0385 40.698 41.0385 40.0967V22.038C41.0385 21.4364 40.5511 20.9487 39.9495 20.9487Z" fill="#B3CBEA"/>
<path d="M74.7366 20.9487H72.7828V37.0539C72.7828 37.6554 72.2951 38.1429 71.6938 38.1429H68.8555V40.0967C68.8555 40.6982 69.3432 41.1857 69.9445 41.1857H74.7366C75.3382 41.1857 75.8256 40.698 75.8256 40.0967V22.038C75.8256 21.4364 75.3382 20.9487 74.7366 20.9487Z" fill="#B3CBEA"/>
<path d="M74.7366 80.8965H72.7828V97.0016C72.7828 97.6032 72.2951 98.0906 71.6938 98.0906H68.8555V100.044C68.8555 100.646 69.3432 101.133 69.9445 101.133H74.7366C75.3382 101.133 75.8256 100.646 75.8256 100.044V81.9857C75.8256 81.384 75.3382 80.8965 74.7366 80.8965Z" fill="#B3CBEA"/>
<path d="M40.0491 49.5967H38.0953V65.7018C38.0953 66.3034 37.6076 66.7908 37.0063 66.7908H34.168V68.7446C34.168 69.3462 34.6557 69.8337 35.257 69.8337H40.0491C40.6507 69.8337 41.1381 69.346 41.1381 68.7446V50.6859C41.1381 50.0842 40.6507 49.5967 40.0491 49.5967Z" fill="#DAE4EA"/>
<path d="M33.0833 20.5337H15.0246C14.423 20.5337 13.9355 20.046 13.9355 19.4446V14.6525C13.9355 14.051 14.4232 13.5635 15.0246 13.5635H33.0833C33.6849 13.5635 34.1723 14.0512 34.1723 14.6525V19.4446C34.1725 20.046 33.6849 20.5337 33.0833 20.5337Z" fill="#D3E1F4"/>
<path d="M33.0835 13.5635H30.969V16.2411C30.969 16.8426 30.4813 17.3301 29.88 17.3301H13.9355V19.4446C13.9355 20.0462 14.4232 20.5337 15.0246 20.5337H33.0833C33.6848 20.5337 34.1723 20.046 34.1723 19.4446V14.6527C34.1728 14.0512 33.6851 13.5635 33.0835 13.5635Z" fill="#B3CBEA"/>
<path d="M94.9722 41.686H92.8577V44.3636C92.8577 44.9652 92.37 45.4527 91.7686 45.4527H75.8242V47.5672C75.8242 48.1687 76.3119 48.6562 76.9133 48.6562H94.9719C95.5735 48.6562 96.061 48.1685 96.061 47.5672V42.7751C96.0612 42.1735 95.5737 41.686 94.9722 41.686Z" fill="#B3CBEA"/>
<path d="M94.9722 73.5186H92.8577V76.1961C92.8577 76.7977 92.37 77.2852 91.7686 77.2852H75.8242V79.3997C75.8242 80.0013 76.3119 80.4887 76.9133 80.4887H94.9719C95.5735 80.4887 96.061 80.001 96.061 79.3997V74.6076C96.0612 74.0063 95.5737 73.5186 94.9722 73.5186Z" fill="#B3CBEA"/>
<path d="M33.1809 77.352H15.1222C14.5207 77.352 14.0332 76.8643 14.0332 76.263V71.4709C14.0332 70.8693 14.5209 70.3818 15.1222 70.3818H33.1809C33.7825 70.3818 34.27 70.8695 34.27 71.4709V76.263C34.2702 76.8645 33.7825 77.352 33.1809 77.352Z" fill="#EAF6FF"/>
<path d="M33.1809 70.3818H31.0665V73.0594C31.0665 73.661 30.5788 74.1485 29.9774 74.1485H14.0332V76.263C14.0332 76.8645 14.5209 77.352 15.1222 77.352H33.1809C33.7825 77.352 34.27 76.8643 34.27 76.263V71.4709C34.2702 70.8693 33.7825 70.3818 33.1809 70.3818Z" fill="#DAE4EA"/>
</g>
<defs>
<clipPath id="clip0_1200:282">
<rect width="110" height="110" fill="white"/>
</clipPath>
</defs>
</svg>
