<svg width="110" height="110" viewBox="0 0 110 110" fill="none" xmlns="http://www.w3.org/2000/svg">
<path d="M1.71875 43.8281H6.875C8.76992 43.8281 10.3125 42.2864 10.3125 40.3906V36.9531H106.562C107.513 36.9531 108.281 36.1836 108.281 35.2344C108.281 34.2852 107.513 33.5156 106.562 33.5156H10.3125C8.41758 33.5156 6.875 35.0573 6.875 36.9531V40.3906H1.71875C0.768707 40.3906 0 41.1602 0 42.1094C0 43.0586 0.768707 43.8281 1.71875 43.8281Z" fill="#AFB9D2"/>
<path d="M20.625 33.5156H27.5V36.9531H20.625V33.5156Z" fill="#959CB5"/>
<path d="M80.7812 33.5156H87.6562V36.9531H80.7812V33.5156Z" fill="#959CB5"/>
<path d="M101.406 36.9531H106.562C107.512 36.9531 108.281 36.1836 108.281 35.2344C108.281 34.2852 107.512 33.5156 106.562 33.5156H101.406V36.9531Z" fill="#959CB5"/>
<path d="M96.25 18.0469H103.125V103.984H96.25V18.0469Z" fill="#867069"/>
<path d="M96.25 19.7656H103.125V103.984H99.6875V26.6406C99.6875 25.6914 98.9179 24.9219 97.9688 24.9219H96.25V19.7656Z" fill="#A28A82"/>
<path d="M17.1875 18.0469H24.0625V103.984H17.1875V18.0469Z" fill="#867069"/>
<path d="M17.1875 19.7656H24.0625V103.984H20.625V26.6406C20.625 25.6914 19.8554 24.9219 18.9062 24.9219H17.1875V19.7656Z" fill="#A28A82"/>
<path d="M37.8125 38.6719H82.5C83.4492 38.6719 84.2188 37.9023 84.2188 36.9531V33.5156C84.2188 32.5664 83.4492 31.7969 82.5 31.7969H37.8125C36.8633 31.7969 36.0938 32.5664 36.0938 33.5156V36.9531C36.0938 37.9023 36.8633 38.6719 37.8125 38.6719Z" fill="#867069"/>
<path d="M19.6743 6.19695C20.2565 5.0325 21.4468 4.29688 22.7487 4.29688H97.5625C98.8647 4.29688 100.055 5.0325 100.637 6.19717L107.037 18.9969C107.608 20.1399 106.777 21.4844 105.5 21.4844H14.8115C13.5339 21.4844 12.7029 20.1399 13.2743 18.9969L19.6743 6.19695Z" fill="#A28D86"/>
<path d="M95.6646 18.9969L95.1895 18.0469H13.7494L15.4681 14.6094H93.4708L91.752 11.1719H17.1869L18.9056 7.73438H90.0333L89.2646 6.19717C88.6824 5.0325 87.4919 4.29688 86.1897 4.29688H97.5625C98.8647 4.29688 100.055 5.0325 100.637 6.19717L107.037 18.9969C107.608 20.1397 106.777 21.4844 105.5 21.4844H94.1271C95.4048 21.4844 96.2358 20.1397 95.6646 18.9969Z" fill="#867069"/>
<path d="M37.8125 35.2344H82.5C83.4492 35.2344 84.2188 34.4648 84.2188 33.5156V36.9531C84.2188 37.9023 83.4492 38.6719 82.5 38.6719H37.8125C36.8633 38.6719 36.0938 37.9023 36.0938 36.9531V33.5156C36.0938 34.4648 36.8633 35.2344 37.8125 35.2344Z" fill="#A28A82"/>
<path d="M53.2812 74.7656C54.2313 74.7656 55 73.9961 55 73.0469V31.7969C55 30.8477 54.2313 30.0781 53.2812 30.0781C52.3312 30.0781 51.5625 30.8477 51.5625 31.7969V73.0469C51.5625 73.9961 52.3312 74.7656 53.2812 74.7656Z" fill="#DAE4EA"/>
<path d="M60.1562 40.3906C61.1063 40.3906 61.875 39.6211 61.875 38.6719V31.7969C61.875 30.8477 61.1063 30.0781 60.1562 30.0781C59.2062 30.0781 58.4375 30.8477 58.4375 31.7969V38.6719C58.4375 39.6211 59.2062 40.3906 60.1562 40.3906Z" fill="#DAE4EA"/>
<path d="M56.7188 40.3906C57.6688 40.3906 58.4375 39.6211 58.4375 38.6719V31.7969C58.4375 30.8477 57.6688 30.0781 56.7188 30.0781C55.7687 30.0781 55 30.8477 55 31.7969V38.6719C55 39.6211 55.7687 40.3906 56.7188 40.3906Z" fill="#DAE4EA"/>
<path d="M67.0312 40.3906C67.9813 40.3906 68.75 39.6211 68.75 38.6719V31.7969C68.75 30.8477 67.9813 30.0781 67.0312 30.0781C66.0812 30.0781 65.3125 30.8477 65.3125 31.7969V38.6719C65.3125 39.6211 66.0812 40.3906 67.0312 40.3906Z" fill="#DAE4EA"/>
<path d="M63.5938 40.3906C64.5438 40.3906 65.3125 39.6211 65.3125 38.6719V31.7969C65.3125 30.8477 64.5438 30.0781 63.5938 30.0781C62.6437 30.0781 61.875 30.8477 61.875 31.7969V38.6719C61.875 39.6211 62.6437 40.3906 63.5938 40.3906Z" fill="#DAE4EA"/>
<path d="M63.5938 36.9531C64.5438 36.9531 65.3125 36.1836 65.3125 35.2344V38.6719C65.3125 39.6211 64.5438 40.3906 63.5938 40.3906C62.6437 40.3906 61.875 39.6211 61.875 38.6719V35.2344C61.875 36.1836 62.6437 36.9531 63.5938 36.9531Z" fill="#D3E1F4"/>
<path d="M67.0312 36.9531C67.9813 36.9531 68.75 36.1836 68.75 35.2344V38.6719C68.75 39.6211 67.9813 40.3906 67.0312 40.3906C66.0812 40.3906 65.3125 39.6211 65.3125 38.6719V35.2344C65.3125 36.1836 66.0812 36.9531 67.0312 36.9531Z" fill="#D3E1F4"/>
<path d="M56.7188 36.9531C57.6688 36.9531 58.4375 36.1836 58.4375 35.2344V38.6719C58.4375 39.6211 57.6688 40.3906 56.7188 40.3906C55.7687 40.3906 55 39.6211 55 38.6719V35.2344C55 36.1836 55.7687 36.9531 56.7188 36.9531Z" fill="#D3E1F4"/>
<path d="M60.1562 36.9531C61.1063 36.9531 61.875 36.1836 61.875 35.2344V38.6719C61.875 39.6211 61.1063 40.3906 60.1562 40.3906C59.2062 40.3906 58.4375 39.6211 58.4375 38.6719V35.2344C58.4375 36.1836 59.2062 36.9531 60.1562 36.9531Z" fill="#D3E1F4"/>
<path d="M41.25 78.2031H79.0625V103.984H41.25V78.2031Z" fill="#7F8499"/>
<path d="M65.3125 83.3594H41.25V78.2031H79.0625V103.984H68.75V86.7969C68.75 84.8983 67.2111 83.3594 65.3125 83.3594Z" fill="#707487"/>
<path d="M41.25 73.0469H79.0625C80.0117 73.0469 80.7812 73.8164 80.7812 74.7656V78.2031C80.7812 79.1523 80.0117 79.9219 79.0625 79.9219H41.25C40.3008 79.9219 39.5312 79.1523 39.5312 78.2031V74.7656C39.5312 73.8164 40.3008 73.0469 41.25 73.0469Z" fill="#959CB5"/>
<path d="M68.75 78.2031V74.7656C68.75 73.8164 67.9804 73.0469 67.0312 73.0469H79.0625C80.0117 73.0469 80.7812 73.8164 80.7812 74.7656V78.2031C80.7812 79.1523 80.0117 79.9219 79.0625 79.9219H67.0312C67.9804 79.9219 68.75 79.1523 68.75 78.2031Z" fill="#7F8499"/>
<path d="M12.0312 105.703H108.281C109.231 105.703 110 104.934 110 103.984C110 103.035 109.231 102.266 108.281 102.266H12.0312C11.0812 102.266 10.3125 103.035 10.3125 103.984C10.3125 104.934 11.0812 105.703 12.0312 105.703Z" fill="#455E7E"/>
</svg>
