<svg width="110" height="110" viewBox="0 0 110 110" fill="none" xmlns="http://www.w3.org/2000/svg">
<g clip-path="url(#clip0_1200:1075)">
<path d="M72.8242 14.9312H79.464V28.4053H72.8242V14.9312Z" fill="#4F6D8F"/>
<path d="M110.001 27.6832V39.2362C110.001 39.7106 109.617 40.0949 109.142 40.0949H62.2964C60.5851 40.0949 59.1977 41.4813 59.1977 43.1915V48.561C59.1977 49.0354 58.8129 49.4198 58.3383 49.4198H46.7773C46.3028 49.4198 45.918 49.0352 45.918 48.561V40.0949C45.918 32.7657 51.8636 26.8242 59.1977 26.8242H109.142C109.617 26.8244 110.001 27.2088 110.001 27.6832Z" fill="#4F6D8F"/>
<path d="M52.5566 43.1913V49.4196H58.337C58.8116 49.4196 59.1964 49.035 59.1964 48.5609V43.1913C59.1964 41.4811 60.5836 40.0947 62.2951 40.0947H55.6553C53.9439 40.0947 52.5566 41.4811 52.5566 43.1913Z" fill="#5E7DA0"/>
<path d="M103.359 26.8242V40.0949H109.14C109.614 40.0949 109.999 39.7103 109.999 39.2362V27.6832C109.999 27.2088 109.614 26.8244 109.14 26.8244H103.359V26.8242Z" fill="#455E7E"/>
<path d="M55 103.77C85.3757 103.77 110 97.333 110 89.3931C110 81.4532 85.3757 75.0166 55 75.0166C24.6243 75.0166 0 81.4532 0 89.3931C0 97.333 24.6243 103.77 55 103.77Z" fill="#D3E1F4"/>
<path d="M54.9997 75.0166C53.8846 75.0166 52.7784 75.0263 51.6797 75.0435C80.5089 75.4923 103.36 81.7447 103.36 89.3931C103.36 97.0415 80.5089 103.294 51.6797 103.743C52.7784 103.76 53.8846 103.77 54.9997 103.77C85.3754 103.77 110 97.3331 110 89.3931C110 81.4531 85.3754 75.0166 54.9997 75.0166Z" fill="#EBF4FF"/>
<path d="M81.3741 43.7165H71.1626C68.115 43.7165 65.6445 41.246 65.6445 38.1984V29.3286C65.6445 26.281 68.115 23.8105 71.1626 23.8105H81.3741C84.4217 23.8105 86.8921 26.281 86.8921 29.3286V38.1984C86.8919 41.246 84.4214 43.7165 81.3741 43.7165Z" fill="#5E7DA0"/>
<path d="M81.3722 23.8105H74.7324C77.7811 23.8105 80.2524 26.2802 80.2524 29.3267V38.2004C80.2524 41.2468 77.7811 43.7165 74.7324 43.7165H81.3722C84.4208 43.7165 86.8922 41.2468 86.8922 38.2004V29.3267C86.8919 26.2802 84.4206 23.8105 81.3722 23.8105Z" fill="#455E7E"/>
<path d="M67.6331 16.6595H60.0537C57.624 16.6595 55.6543 14.6899 55.6543 12.2602V12.2119C55.6543 9.78219 57.624 7.8125 60.0537 7.8125H67.6331C70.0628 7.8125 72.0325 9.78219 72.0325 12.2119V12.2602C72.0325 14.6899 70.0628 16.6595 67.6331 16.6595Z" fill="#4F6D8F"/>
<path d="M92.4185 16.6595H84.8388C82.4091 16.6595 80.4395 14.6899 80.4395 12.2602V12.2119C80.4395 9.78219 82.4091 7.8125 84.8388 7.8125H92.4183C94.8479 7.8125 96.8176 9.78219 96.8176 12.2119V12.2602C96.8178 14.6899 94.8482 16.6595 92.4185 16.6595Z" fill="#4F6D8F"/>
<path d="M92.4171 7.8125H85.7773C88.2079 7.8125 90.1782 9.78154 90.1782 12.2103V12.2617C90.1782 14.6905 88.2079 16.6595 85.7773 16.6595H92.4171C94.8476 16.6595 96.818 14.6905 96.818 12.2617V12.2103C96.818 9.78133 94.8476 7.8125 92.4171 7.8125Z" fill="#5E7DA0"/>
<path d="M77.0942 18.1741H75.3155C72.0175 18.1741 69.3438 15.5003 69.3438 12.2023C69.3435 8.9042 72.0173 6.23047 75.3153 6.23047H77.094C80.3921 6.23047 83.0658 8.9042 83.0658 12.2023C83.066 15.5003 80.3923 18.1741 77.0942 18.1741Z" fill="#5E7DA0"/>
<path d="M77.0921 6.23047H75.3213C74.454 6.23047 73.6305 6.41674 72.8867 6.74889C74.9733 7.68045 76.428 9.77109 76.428 12.2023C76.428 14.6337 74.9733 16.7241 72.8867 17.6556C73.6305 17.9878 74.454 18.1741 75.3213 18.1741H77.0921C80.3925 18.1741 83.0679 15.5003 83.0679 12.2023C83.0679 8.9042 80.3925 6.23047 77.0921 6.23047Z" fill="#455E7E"/>
<path d="M61.9659 73.7929C61.9659 80.7556 58.0022 83.1784 53.1128 83.1784C48.2234 83.1784 44.2598 80.7556 44.2598 73.7929C44.2598 67.8944 50.6133 60.6299 52.5557 58.5472C52.8572 58.2239 53.3687 58.2239 53.6701 58.5472C55.6123 60.6299 61.9659 67.8944 61.9659 73.7929Z" fill="#EBF4FF"/>
<path d="M53.672 58.5472C53.3706 58.2239 52.859 58.2239 52.5576 58.5472C51.9545 59.1939 50.9261 60.3405 49.7949 61.79C52.3075 65.0097 55.3282 69.7257 55.3282 73.7929C55.3282 79.0832 53.0391 81.7507 49.7949 82.7279C50.8204 83.0368 51.9404 83.1784 53.1149 83.1784C58.0043 83.1784 61.968 80.7556 61.968 73.7929C61.9678 67.8944 55.6142 60.6299 53.672 58.5472Z" fill="#DAE9FD"/>
</g>
<defs>
<clipPath id="clip0_1200:1075">
<rect width="110" height="110" fill="white"/>
</clipPath>
</defs>
</svg>
