<svg width="64" height="64" viewBox="0 0 64 64" fill="none" xmlns="http://www.w3.org/2000/svg">
<g clip-path="url(#clip0_1109:848)">
<path d="M1.48121 62.2254C3.58664 64.4849 7.1275 64.603 9.3787 62.4888L49.6538 24.6671C49.952 24.3871 50.4205 24.4006 50.7021 24.6974L52.2114 26.2884C52.4931 26.5852 52.9617 26.5987 53.2599 26.3186L55.4171 24.2929C55.7144 24.0136 55.728 23.5458 55.4472 23.2497L49.3173 16.7879C49.0357 16.4911 48.5671 16.4776 48.2688 16.7577L46.1116 18.7835C45.8134 19.0636 45.3449 19.0501 45.0633 18.7533L37.5087 10.7898C37.1673 10.4299 36.5993 10.4136 36.2377 10.7531L32.0899 14.6482C29.5168 17.0647 27.833 20.2857 27.3582 23.7834C27.3545 23.8112 27.3507 23.8391 27.347 23.8671C27.0265 26.2959 27.1497 28.3892 27.3651 29.9512C27.3977 30.1878 27.3139 30.4244 27.1398 30.5878L1.74107 54.4395C-0.47485 56.5205 -0.591002 60.0014 1.48121 62.2254Z" fill="#31A7FB"/>
<path d="M55.4486 23.2498L53.1096 20.7842L51.3298 22.4556C51.0316 22.7356 50.563 22.7221 50.2813 22.4253L48.772 20.8343C48.4904 20.5375 48.0219 20.524 47.7237 20.8041L7.4486 58.6257C5.35424 60.5926 2.14419 60.6262 0.0117188 58.8023C0.0870507 60.0357 0.574713 61.2512 1.48256 62.2255C3.58786 64.4849 7.12885 64.6031 9.38006 62.4889L49.6551 24.6672C49.9534 24.3872 50.422 24.4007 50.7035 24.6975L52.2128 26.2885C52.4944 26.5853 52.9629 26.5988 53.2613 26.3187L55.4185 24.293C55.7159 24.0138 55.7293 23.5459 55.4486 23.2498Z" fill="#1C96F9"/>
<path d="M38.0859 11.3997L48.1262 1.9711C50.9288 -0.660885 55.3196 -0.660241 58.1036 1.99235C58.9119 2.76241 59.7182 3.66098 60.4742 4.70649C62.8842 8.03848 63.6893 11.3463 63.9862 13.2597C64.0381 13.5939 63.9193 13.9316 63.672 14.1637L60.3803 17.2549C59.9634 17.6465 59.3062 17.6275 58.9126 17.2125L51.3267 9.2161C50.9331 8.8012 50.2759 8.78214 49.859 9.17374L42.5158 16.0695L38.0859 11.3997Z" fill="#4F6D8F"/>
<path d="M63.3784 10.5789L60.3827 13.3921C59.9658 13.7837 59.3086 13.7648 58.915 13.3497L51.3291 5.35336C50.9354 4.93845 50.2783 4.91939 49.8614 5.31099L40.5781 14.0248L42.5182 16.0699L49.8614 9.17417C50.2783 8.78257 50.9354 8.8015 51.3291 9.21653L58.915 17.2129C59.3086 17.6278 59.9658 17.6469 60.3827 17.2553L63.6744 14.1641C63.9215 13.9321 64.0404 13.5943 63.9885 13.26C63.8768 12.5396 63.6928 11.6215 63.3784 10.5789Z" fill="#455E7E"/>
<path d="M38.8913 26.26L42.0554 23.2886C42.4724 22.897 42.4913 22.2432 42.0977 21.8281L33.7464 13.0938L32.0911 14.6482C31.0654 15.6114 30.1837 16.7041 29.4609 17.8898L31.4036 19.9215L32.553 20.0901L32.7372 21.3163L34.4703 23.1289L35.5655 23.3929L35.8045 24.5243L37.4236 26.2175C37.8173 26.6325 38.4744 26.6515 38.8913 26.26Z" fill="#4F6D8F"/>
<path d="M33.7666 17.6994L31.4295 19.8939C31.4199 19.9029 31.4116 19.9127 31.4023 19.9221L32.7351 21.3159C32.7406 21.311 32.7463 21.3068 32.7518 21.3018L35.0887 19.1071C35.4776 18.742 35.4968 18.1309 35.1316 17.742C34.7667 17.3533 34.1554 17.3342 33.7666 17.6994Z" fill="#EBF4FF"/>
<path d="M38.1862 20.9629C37.821 20.574 37.2099 20.5549 36.8209 20.9199L34.4838 23.1145C34.4784 23.1196 34.4739 23.1251 34.4688 23.1302L35.8028 24.5255C35.8039 24.5245 35.805 24.5237 35.8061 24.5228L38.1432 22.3281C38.5321 21.9629 38.5512 21.3518 38.1862 20.9629Z" fill="#EBF4FF"/>
<path d="M5.59175 60.3221C6.65853 60.3221 7.52333 59.4577 7.52333 58.3915C7.52333 57.3253 6.65853 56.4609 5.59175 56.4609C4.52496 56.4609 3.66016 57.3253 3.66016 58.3915C3.66016 59.4577 4.52496 60.3221 5.59175 60.3221Z" fill="white"/>
<path d="M48.8386 42.2972C49.1096 42.5682 49.4957 42.6824 49.8663 42.6105C53.568 41.8929 57.586 42.994 60.495 45.903C63.2455 48.6535 64.3797 52.3954 63.8887 55.9239C63.8168 56.4407 63.1818 56.6404 62.8077 56.2663L55.5568 49.0154C54.7662 48.2248 53.4982 48.211 52.7245 48.9848L48.9846 52.7247C48.211 53.4983 48.2247 54.7664 49.0152 55.557L56.2662 62.8078C56.6403 63.1819 56.4406 63.8169 55.9238 63.8888C52.3953 64.3798 48.6535 63.2455 45.9031 60.4952C42.9941 57.5862 41.8931 53.5682 42.6106 49.8665C42.6825 49.4958 42.5682 49.1098 42.2972 48.8388L15.1613 21.7029C14.8903 21.4319 14.5042 21.3177 14.1336 21.3895C10.432 22.1072 6.41385 21.006 3.50497 18.097C0.754597 15.3467 -0.379654 11.6048 0.111343 8.07628C0.18322 7.55953 0.818218 7.35978 1.19234 7.73391L8.44322 14.9848C9.23384 15.7754 10.5018 15.7892 11.2756 15.0154L15.0155 11.2755C15.7891 10.5019 15.7753 9.23378 14.9848 8.44316L7.73372 1.19228C7.35959 0.818158 7.55935 0.183158 8.0761 0.111283C11.6046 -0.379717 15.3465 0.754532 18.0968 3.50491C21.0058 6.41391 22.1068 10.4319 21.3893 14.1335C21.3175 14.5043 21.4317 14.8903 21.7027 15.1613L48.8386 42.2972Z" fill="#EBF4FF"/>
<path d="M42.6104 49.8665C42.6823 49.4959 42.568 49.1097 42.297 48.8387L15.1613 21.703C14.8903 21.432 14.5041 21.3177 14.1335 21.3896C10.4319 22.1072 6.41376 21.0061 3.50489 18.0971C0.754513 15.3467 -0.379738 11.6049 0.111263 8.07636C0.18314 7.55961 0.818264 7.35986 1.19226 7.73398L4.27764 10.8194C4.86189 12.2339 5.73039 13.5631 6.88464 14.7174C9.79364 17.6264 13.8116 18.7275 17.5133 18.0099C17.884 17.938 18.27 18.0522 18.541 18.3232L45.6766 45.4589C45.9476 45.7299 46.0619 46.116 45.99 46.4866C45.2724 50.1882 46.3735 54.2062 49.2825 57.1152C50.4368 58.2695 51.766 59.138 53.1805 59.7222L56.266 62.8077C56.6401 63.1819 56.4404 63.8169 55.9236 63.8887C52.3951 64.3797 48.6533 63.2455 45.9029 60.4951C42.9939 57.5861 41.8928 53.568 42.6104 49.8665Z" fill="#DAE9FD"/>
</g>
<defs>
<clipPath id="clip0_1109:848">
<rect width="64" height="64" fill="white"/>
</clipPath>
</defs>
</svg>
