<svg width="15" height="20" viewBox="0 0 15 20" fill="none" xmlns="http://www.w3.org/2000/svg">
<path d="M7.49969 0C3.36456 0 0 3.30318 0 7.36327C0 8.4223 0.220787 9.43344 0.655899 10.3688C2.53103 14.3972 6.12618 18.6503 7.18362 19.8577C7.26285 19.948 7.37835 20 7.4999 20C7.62144 20 7.73695 19.948 7.81617 19.8577C8.8732 18.6505 12.4683 14.3976 14.3441 10.3688C14.7794 9.43344 15 8.4223 15 7.36327C14.9996 3.30318 11.635 0 7.49969 0ZM7.49969 11.1878C5.35165 11.1878 3.6039 9.47192 3.6039 7.36307C3.6039 5.25401 5.35165 3.53815 7.49969 3.53815C9.64773 3.53815 11.3955 5.25401 11.3955 7.36307C11.3957 9.47192 9.64794 11.1878 7.49969 11.1878Z" fill="url(#paint0_linear_902:3546)"/>
<defs>
<linearGradient id="paint0_linear_902:3546" x1="0" y1="0" x2="19.2" y2="14.4" gradientUnits="userSpaceOnUse">
<stop stop-color="#55B4F9"/>
<stop offset="1" stop-color="#2795E6"/>
</linearGradient>
</defs>
</svg>
