<svg width="320" height="383" viewBox="0 0 320 383" fill="none" xmlns="http://www.w3.org/2000/svg">
<g filter="url(#filter0_d_367:380)">
<path d="M30 34C30 22.9543 38.9543 14 50 14H270C281.046 14 290 22.9543 290 34V287.469C290 296.563 283.865 304.512 275.067 306.816L165.067 335.627C161.745 336.497 158.255 336.497 154.933 335.627L44.9327 306.816C36.1354 304.512 30 296.563 30 287.469V34Z" fill="white"/>
</g>
<g filter="url(#filter1_d_367:380)">
<path d="M40 39.0459C40 30.2094 47.1634 23.0459 56 23.0459H264C272.837 23.0459 280 30.2093 280 39.0459V283.24C280 290.47 275.152 296.801 268.172 298.687L164.172 326.78C161.44 327.518 158.56 327.518 155.828 326.78L51.8275 298.687C44.8481 296.801 40 290.47 40 283.24V39.0459Z" fill="white"/>
</g>
<defs>
<filter id="filter0_d_367:380" x="0" y="0" width="320" height="382.279" filterUnits="userSpaceOnUse" color-interpolation-filters="sRGB">
<feFlood flood-opacity="0" result="BackgroundImageFix"/>
<feColorMatrix in="SourceAlpha" type="matrix" values="0 0 0 0 0 0 0 0 0 0 0 0 0 0 0 0 0 0 127 0" result="hardAlpha"/>
<feOffset dy="16"/>
<feGaussianBlur stdDeviation="15"/>
<feColorMatrix type="matrix" values="0 0 0 0 0.235294 0 0 0 0 0.541176 0 0 0 0 1 0 0 0 0.1 0"/>
<feBlend mode="normal" in2="BackgroundImageFix" result="effect1_dropShadow_367:380"/>
<feBlend mode="normal" in="SourceGraphic" in2="effect1_dropShadow_367:380" result="shape"/>
</filter>
<filter id="filter1_d_367:380" x="32" y="18.0459" width="256" height="320.287" filterUnits="userSpaceOnUse" color-interpolation-filters="sRGB">
<feFlood flood-opacity="0" result="BackgroundImageFix"/>
<feColorMatrix in="SourceAlpha" type="matrix" values="0 0 0 0 0 0 0 0 0 0 0 0 0 0 0 0 0 0 127 0" result="hardAlpha"/>
<feOffset dy="3"/>
<feGaussianBlur stdDeviation="4"/>
<feColorMatrix type="matrix" values="0 0 0 0 0.235294 0 0 0 0 0.541176 0 0 0 0 1 0 0 0 0.16 0"/>
<feBlend mode="normal" in2="BackgroundImageFix" result="effect1_dropShadow_367:380"/>
<feBlend mode="normal" in="SourceGraphic" in2="effect1_dropShadow_367:380" result="shape"/>
</filter>
</defs>
</svg>
