<svg width="16" height="16" viewBox="0 0 16 16" fill="none" xmlns="http://www.w3.org/2000/svg">
<g clip-path="url(#clip0_1109:1218)">
<path d="M14.1107 8.11721C14.1107 6.76918 12.8487 5.75197 11.5196 6.06326C10.7211 6.2504 10.0903 6.89458 9.9306 7.71105C9.67475 9.01861 10.6801 10.2271 12.0009 10.2271C13.1643 10.2271 14.1107 9.28061 14.1107 8.11721Z" fill="url(#paint0_linear_1109:1218)"/>
<path d="M15.5311 1.76465H0.46886C0.210049 1.76465 0 1.9747 0 2.23351V11.6476C0 11.9064 0.210049 12.1165 0.46886 12.1165H8.94678C8.94678 7.78731 8.94303 8.09332 8.95366 8.10363C8.96085 6.42949 10.3252 5.0698 12.0009 5.0698C13.6766 5.0698 15.041 6.42949 15.0482 8.10363C15.0588 8.09332 15.0551 7.78887 15.0551 12.1165H15.5311C15.79 12.1165 16 11.9064 16 11.6476V2.23351C16 1.9747 15.79 1.76465 15.5311 1.76465ZM7.52927 8.35088H2.35149C2.09268 8.35088 1.88263 8.14083 1.88263 7.88202C1.88263 7.6229 2.09268 7.41316 2.35149 7.41316H7.52927C7.78839 7.41316 7.99813 7.6229 7.99813 7.88202C7.99813 8.14083 7.78839 8.35088 7.52927 8.35088ZM7.52927 6.46794H2.35149C2.09268 6.46794 1.88263 6.2582 1.88263 5.99908C1.88263 5.74027 2.09268 5.53022 2.35149 5.53022H7.52927C7.78839 5.53022 7.99813 5.74027 7.99813 5.99908C7.99813 6.2582 7.78839 6.46794 7.52927 6.46794ZM13.6485 4.58531H2.35149C2.09268 4.58531 1.88263 4.37526 1.88263 4.11645C1.88263 3.85733 2.09268 3.64759 2.35149 3.64759H13.6485C13.9073 3.64759 14.1174 3.85733 14.1174 4.11645C14.1174 4.37526 13.9073 4.58531 13.6485 4.58531Z" fill="url(#paint1_linear_1109:1218)"/>
<path d="M9.88477 10.3076V13.765C9.88477 14.145 10.3151 14.3681 10.6262 14.1466L12.0012 13.1645L13.3762 14.1466C13.6858 14.3677 14.1176 14.146 14.1176 13.765C14.1176 13.4276 14.1176 10.6419 14.1176 10.3076C12.9363 11.4499 11.0665 11.4503 9.88477 10.3076Z" fill="url(#paint2_linear_1109:1218)"/>
</g>
<defs>
<linearGradient id="paint0_linear_1109:1218" x1="9.89062" y1="6.00684" x2="14.1109" y2="10.227" gradientUnits="userSpaceOnUse">
<stop stop-color="#55B4F9"/>
<stop offset="1" stop-color="#2795E6"/>
</linearGradient>
<linearGradient id="paint1_linear_1109:1218" x1="0" y1="1.76465" x2="9.44244" y2="16.3591" gradientUnits="userSpaceOnUse">
<stop stop-color="#55B4F9"/>
<stop offset="1" stop-color="#2795E6"/>
</linearGradient>
<linearGradient id="paint2_linear_1109:1218" x1="9.88477" y1="10.3076" x2="13.8006" y2="14.5286" gradientUnits="userSpaceOnUse">
<stop stop-color="#55B4F9"/>
<stop offset="1" stop-color="#2795E6"/>
</linearGradient>
<clipPath id="clip0_1109:1218">
<rect width="16" height="16" fill="white"/>
</clipPath>
</defs>
</svg>
