<svg width="16" height="16" viewBox="0 0 16 16" fill="none" xmlns="http://www.w3.org/2000/svg">
<g clip-path="url(#clip0_1109:729)">
<path d="M15.3089 9.784C15.3082 9.78333 15.3069 9.78267 15.3062 9.78133L14.2809 8.83933C14.3156 8.55533 14.3336 8.274 14.3336 8C14.3336 7.726 14.3156 7.44467 14.2809 7.16067L15.3089 6.216C15.6482 5.89667 15.7256 5.39 15.4956 4.97933L14.3642 3.02333C14.1376 2.62 13.6449 2.428 13.1936 2.56867L11.8629 2.98867C11.4116 2.63733 10.9249 2.35467 10.4129 2.14667L10.1056 0.780667C10.0049 0.328667 9.59623 0 9.13357 0H6.8669C6.40423 0 5.99557 0.328667 5.8949 0.78L5.58757 2.14667C5.07557 2.35467 4.5889 2.63733 4.13757 2.98867L2.80557 2.56867C2.3569 2.42933 1.8629 2.61933 1.6389 3.01933L0.502899 4.98333C0.274899 5.39 0.352232 5.89667 0.694899 6.21867L1.72023 7.16067C1.6849 7.44467 1.6669 7.726 1.6669 8C1.6669 8.274 1.6849 8.55533 1.71957 8.83933L0.691566 9.784C0.352232 10.1033 0.274899 10.61 0.504899 11.02L1.63623 12.976C1.8629 13.38 2.3549 13.5713 2.8069 13.4313L4.13757 13.0113C4.5889 13.3627 5.07557 13.6453 5.58757 13.8533L5.8949 15.2187C5.99557 15.6713 6.40423 16 6.8669 16H9.13357C9.59623 16 10.0049 15.6713 10.1056 15.22L10.4129 13.8533C10.9249 13.6453 11.4116 13.3633 11.8629 13.0113L13.1949 13.4313C13.6449 13.572 14.1376 13.38 14.3622 12.98L15.4982 11.016C15.7256 10.61 15.6482 10.1033 15.3089 9.784ZM8.00023 11.3333C6.16223 11.3333 4.6669 9.838 4.6669 8C4.6669 6.162 6.16223 4.66667 8.00023 4.66667C9.83823 4.66667 11.3336 6.162 11.3336 8C11.3336 9.838 9.83823 11.3333 8.00023 11.3333Z" fill="url(#paint0_linear_1109:729)"/>
</g>
<defs>
<linearGradient id="paint0_linear_1109:729" x1="0.373047" y1="0" x2="16.3549" y2="15.2374" gradientUnits="userSpaceOnUse">
<stop stop-color="#55B4F9"/>
<stop offset="1" stop-color="#2795E6"/>
</linearGradient>
<clipPath id="clip0_1109:729">
<rect width="16" height="16" fill="white"/>
</clipPath>
</defs>
</svg>
