<svg width="17" height="12" viewBox="0 0 17 12" fill="none" xmlns="http://www.w3.org/2000/svg">
<path d="M15.482 12C15.8642 12 16.1953 11.8866 16.4768 11.6628L11.6604 7.33566C11.5448 7.41 11.4328 7.48229 11.327 7.55103C10.9666 7.78961 10.674 7.97577 10.4494 8.10918C10.2248 8.24288 9.92599 8.37917 9.55296 8.51831C9.17968 8.65762 8.83193 8.72705 8.50934 8.72705H8.49045C8.16782 8.72705 7.82007 8.65764 7.44683 8.51831C7.07358 8.37917 6.77475 8.24288 6.55037 8.10918C6.32577 7.97577 6.03339 7.78963 5.67277 7.55103C5.57227 7.48484 5.46082 7.41222 5.34033 7.3345L0.523029 11.6628C0.804483 11.8866 1.13581 12 1.51792 12H15.482Z" fill="url(#paint0_linear_902:3543)"/>
<path d="M0.95825 4.61085C0.597845 4.39498 0.278243 4.14776 0 3.86928V10.4527L4.24513 6.6389C3.39586 6.10624 2.30163 5.431 0.95825 4.61085Z" fill="url(#paint1_linear_902:3543)"/>
<path d="M16.0514 4.61085C14.7592 5.39656 13.661 6.07297 12.7566 6.64043L17 10.4529V3.86928C16.7279 4.14215 16.4118 4.38921 16.0514 4.61085Z" fill="url(#paint2_linear_902:3543)"/>
<path d="M15.482 0H1.51795C1.03078 0 0.656241 0.147792 0.393862 0.443072C0.131267 0.738491 0.000185187 1.10794 0.000185187 1.55102C0.000185187 1.90891 0.174137 2.29669 0.521887 2.71447C0.869638 3.13209 1.23967 3.46012 1.6318 3.69872C1.84678 3.83517 2.49505 4.24006 3.57664 4.91325C4.1605 5.27675 4.66825 5.59357 5.10458 5.86697C5.4765 6.09978 5.79724 6.30139 6.06206 6.46871C6.09246 6.48787 6.14027 6.51859 6.20373 6.55935C6.27209 6.60347 6.35861 6.65945 6.46534 6.72869C6.67086 6.86223 6.84161 6.97018 6.97759 7.05264C7.1134 7.13513 7.27794 7.22727 7.47096 7.32959C7.66384 7.43177 7.84575 7.50861 8.01649 7.55971C8.18727 7.61079 8.34535 7.63641 8.49079 7.63641H8.50968C8.65508 7.63641 8.8132 7.61079 8.984 7.55971C9.15471 7.50861 9.33647 7.43194 9.5295 7.32959C9.72234 7.22727 9.88666 7.13494 10.0229 7.05264C10.1589 6.97018 10.3296 6.86226 10.5352 6.72869C10.6417 6.65945 10.7282 6.60344 10.7966 6.55949C10.8601 6.51856 10.9078 6.48803 10.9384 6.46871C11.1447 6.33974 11.4662 6.13896 11.8984 5.86933C12.6849 5.3784 13.8432 4.65582 15.3782 3.69872C15.8398 3.40904 16.2255 3.05947 16.5355 2.6505C16.8449 2.24154 17 1.81255 17 1.36368C17 0.988657 16.8496 0.667756 16.5494 0.400482C16.2489 0.13354 15.8931 0 15.482 0Z" fill="url(#paint3_linear_902:3543)"/>
<defs>
<linearGradient id="paint0_linear_902:3543" x1="0" y1="0" x2="11.3072" y2="16.0185" gradientUnits="userSpaceOnUse">
<stop stop-color="#55B4F9"/>
<stop offset="1" stop-color="#2795E6"/>
</linearGradient>
<linearGradient id="paint1_linear_902:3543" x1="0" y1="0" x2="11.3072" y2="16.0185" gradientUnits="userSpaceOnUse">
<stop stop-color="#55B4F9"/>
<stop offset="1" stop-color="#2795E6"/>
</linearGradient>
<linearGradient id="paint2_linear_902:3543" x1="0" y1="0" x2="11.3072" y2="16.0185" gradientUnits="userSpaceOnUse">
<stop stop-color="#55B4F9"/>
<stop offset="1" stop-color="#2795E6"/>
</linearGradient>
<linearGradient id="paint3_linear_902:3543" x1="0" y1="0" x2="11.3072" y2="16.0185" gradientUnits="userSpaceOnUse">
<stop stop-color="#55B4F9"/>
<stop offset="1" stop-color="#2795E6"/>
</linearGradient>
</defs>
</svg>
