<svg width="33" height="28" viewBox="0 0 33 28" fill="none" xmlns="http://www.w3.org/2000/svg">
<g filter="url(#filter0_d_902:3543)">
<path d="M23.482 14C23.8642 14 24.1953 13.8866 24.4768 13.6628L19.6604 9.33566C19.5448 9.41 19.4328 9.48229 19.327 9.55103C18.9666 9.78961 18.674 9.97577 18.4494 10.1092C18.2248 10.2429 17.926 10.3792 17.553 10.5183C17.1797 10.6576 16.8319 10.727 16.5093 10.727H16.4904C16.1678 10.727 15.8201 10.6576 15.4468 10.5183C15.0736 10.3792 14.7748 10.2429 14.5504 10.1092C14.3258 9.97577 14.0334 9.78963 13.6728 9.55103C13.5723 9.48484 13.4608 9.41222 13.3403 9.3345L8.52303 13.6628C8.80448 13.8866 9.13581 14 9.51792 14H23.482Z" fill="url(#paint0_linear_902:3543)"/>
<path d="M8.95825 6.61085C8.59784 6.39498 8.27824 6.14776 8 5.86928V12.4527L12.2451 8.6389C11.3959 8.10624 10.3016 7.431 8.95825 6.61085Z" fill="url(#paint1_linear_902:3543)"/>
<path d="M24.0514 6.61085C22.7592 7.39656 21.661 8.07297 20.7566 8.64043L25 12.4529V5.86928C24.7279 6.14215 24.4118 6.38921 24.0514 6.61085Z" fill="url(#paint2_linear_902:3543)"/>
<path d="M23.482 2H9.51795C9.03078 2 8.65624 2.14779 8.39386 2.44307C8.13127 2.73849 8.00019 3.10794 8.00019 3.55102C8.00019 3.90891 8.17414 4.29669 8.52189 4.71447C8.86964 5.13209 9.23967 5.46012 9.6318 5.69872C9.84678 5.83517 10.4951 6.24006 11.5766 6.91325C12.1605 7.27675 12.6683 7.59357 13.1046 7.86697C13.4765 8.09978 13.7972 8.30139 14.0621 8.46871C14.0925 8.48787 14.1403 8.51859 14.2037 8.55935C14.2721 8.60347 14.3586 8.65945 14.4653 8.72869C14.6709 8.86223 14.8416 8.97018 14.9776 9.05264C15.1134 9.13513 15.2779 9.22727 15.471 9.32959C15.6638 9.43177 15.8458 9.50861 16.0165 9.55971C16.1873 9.61079 16.3454 9.63641 16.4908 9.63641H16.5097C16.6551 9.63641 16.8132 9.61079 16.984 9.55971C17.1547 9.50861 17.3365 9.43194 17.5295 9.32959C17.7223 9.22727 17.8867 9.13494 18.0229 9.05264C18.1589 8.97018 18.3296 8.86226 18.5352 8.72869C18.6417 8.65945 18.7282 8.60344 18.7966 8.55949C18.8601 8.51856 18.9078 8.48803 18.9384 8.46871C19.1447 8.33974 19.4662 8.13896 19.8984 7.86933C20.6849 7.3784 21.8432 6.65582 23.3782 5.69872C23.8398 5.40904 24.2255 5.05947 24.5355 4.6505C24.8449 4.24154 25 3.81255 25 3.36368C25 2.98866 24.8496 2.66776 24.5494 2.40048C24.2489 2.13354 23.8931 2 23.482 2Z" fill="url(#paint3_linear_902:3543)"/>
</g>
<defs>
<filter id="filter0_d_902:3543" x="0" y="0" width="33" height="28" filterUnits="userSpaceOnUse" color-interpolation-filters="sRGB">
<feFlood flood-opacity="0" result="BackgroundImageFix"/>
<feColorMatrix in="SourceAlpha" type="matrix" values="0 0 0 0 0 0 0 0 0 0 0 0 0 0 0 0 0 0 127 0" result="hardAlpha"/>
<feOffset dy="6"/>
<feGaussianBlur stdDeviation="4"/>
<feColorMatrix type="matrix" values="0 0 0 0 0.333333 0 0 0 0 0.705882 0 0 0 0 0.976471 0 0 0 0.6 0"/>
<feBlend mode="normal" in2="BackgroundImageFix" result="effect1_dropShadow_902:3543"/>
<feBlend mode="normal" in="SourceGraphic" in2="effect1_dropShadow_902:3543" result="shape"/>
</filter>
<linearGradient id="paint0_linear_902:3543" x1="8" y1="2" x2="19.3072" y2="18.0185" gradientUnits="userSpaceOnUse">
<stop stop-color="#55B4F9"/>
<stop offset="1" stop-color="#2795E6"/>
</linearGradient>
<linearGradient id="paint1_linear_902:3543" x1="8" y1="2" x2="19.3072" y2="18.0185" gradientUnits="userSpaceOnUse">
<stop stop-color="#55B4F9"/>
<stop offset="1" stop-color="#2795E6"/>
</linearGradient>
<linearGradient id="paint2_linear_902:3543" x1="8" y1="2" x2="19.3072" y2="18.0185" gradientUnits="userSpaceOnUse">
<stop stop-color="#55B4F9"/>
<stop offset="1" stop-color="#2795E6"/>
</linearGradient>
<linearGradient id="paint3_linear_902:3543" x1="8" y1="2" x2="19.3072" y2="18.0185" gradientUnits="userSpaceOnUse">
<stop stop-color="#55B4F9"/>
<stop offset="1" stop-color="#2795E6"/>
</linearGradient>
</defs>
</svg>
