<svg width="16" height="12" viewBox="0 0 16 12" fill="none" xmlns="http://www.w3.org/2000/svg">
<path d="M14.5713 12C14.931 12 15.2426 11.8866 15.5075 11.6628L10.9745 7.33566C10.8657 7.41 10.7603 7.48229 10.6607 7.55103C10.3215 7.78961 10.0462 7.97577 9.83474 8.10918C9.62335 8.24288 9.3421 8.37917 8.99102 8.51831C8.6397 8.65762 8.31241 8.72705 8.00879 8.72705H7.99101C7.68736 8.72705 7.36007 8.65764 7.00878 8.51831C6.65749 8.37917 6.37624 8.24288 6.16505 8.10918C5.95366 7.97577 5.67848 7.78963 5.33908 7.55103C5.24449 7.48484 5.1396 7.41222 5.02619 7.3345L0.492263 11.6628C0.75716 11.8866 1.069 12 1.42863 12H14.5713Z" fill="#D9DCE3"/>
<path d="M0.901882 4.61085C0.562678 4.39498 0.261876 4.14776 0 3.86928V10.4527L3.99542 6.6389C3.19611 6.10624 2.16624 5.431 0.901882 4.61085Z" fill="#D9DCE3"/>
<path d="M15.1072 4.61085C13.891 5.39656 12.8574 6.07297 12.0062 6.64043L16 10.4529V3.86928C15.7439 4.14215 15.4464 4.38921 15.1072 4.61085Z" fill="#D9DCE3"/>
<path d="M14.5713 0H1.42866C0.970147 0 0.617638 0.147792 0.370693 0.443072C0.123545 0.738491 0.000174294 1.10794 0.000174294 1.55102C0.000174294 1.90891 0.163894 2.29669 0.491188 2.71447C0.818482 3.13209 1.16675 3.46012 1.53582 3.69872C1.73814 3.83517 2.34829 4.24006 3.36625 4.91325C3.91577 5.27675 4.39365 5.59357 4.80431 5.86697C5.15435 6.09978 5.45623 6.30139 5.70547 6.46871C5.73408 6.48787 5.77908 6.51859 5.8388 6.55935C5.90315 6.60347 5.98457 6.65945 6.08502 6.72869C6.27846 6.86223 6.43916 6.97018 6.56715 7.05264C6.69496 7.13513 6.84982 7.22727 7.0315 7.32959C7.21302 7.43177 7.38424 7.50861 7.54493 7.55971C7.70566 7.61079 7.85445 7.63641 7.99133 7.63641H8.00911C8.14596 7.63641 8.29478 7.61079 8.45553 7.55971C8.6162 7.50861 8.78727 7.43194 8.96894 7.32959C9.15044 7.22727 9.3051 7.13494 9.43332 7.05264C9.56131 6.97018 9.72201 6.86226 9.91547 6.72869C10.0157 6.65945 10.0971 6.60344 10.1615 6.55949C10.2212 6.51856 10.2662 6.48803 10.295 6.46871C10.4892 6.33974 10.7917 6.13896 11.1985 5.86933C11.9388 5.3784 13.0289 4.65582 14.4736 3.69872C14.9081 3.40904 15.271 3.05947 15.5628 2.6505C15.854 2.24154 16 1.81255 16 1.36368C16 0.988657 15.8584 0.667756 15.5759 0.400482C15.2931 0.13354 14.9582 0 14.5713 0Z" fill="#D9DCE3"/>
</svg>
