<svg width="16" height="16" viewBox="0 0 16 16" fill="none" xmlns="http://www.w3.org/2000/svg">
<path d="M13.6653 1.81055H13.1975V13.3043C13.1975 14.0679 12.5759 14.6894 11.8124 14.6894H7.07216H3.30273V15.1155C3.30273 15.6034 3.69872 15.9993 4.18661 15.9993H8.92513H13.6636C14.1515 15.9993 14.5475 15.6034 14.5475 15.1155V2.69442C14.5475 2.20654 14.1532 1.81055 13.6653 1.81055Z" fill="black"/>
<path d="M13.6653 1.81055H13.1975V13.3043C13.1975 14.0679 12.5759 14.6894 11.8124 14.6894H7.07216H3.30273V15.1155C3.30273 15.6034 3.69872 15.9993 4.18661 15.9993H8.92513H13.6636C14.1515 15.9993 14.5475 15.6034 14.5475 15.1155V2.69442C14.5475 2.20654 14.1532 1.81055 13.6653 1.81055Z" fill="url(#paint0_linear_331:863)"/>
<path d="M7.0719 14.1888H11.8104C12.2983 14.1888 12.6943 13.7928 12.6943 13.3049V1.81119V0.883876C12.6943 0.39599 12.2983 0 11.8104 0H7.0719H5.49629V0.292398C5.49961 0.322473 5.5013 0.354219 5.5013 0.385965V2.31245V2.80702C5.5013 3.49373 4.94324 4.0518 4.25652 4.0518H3.76195H1.83547C1.8104 4.0518 1.78367 4.05013 1.75861 4.04845H1.45117V13.3049C1.45117 13.7928 1.84716 14.1888 2.33505 14.1888H3.30414H7.0719ZM7.25068 11.1846H4.16128C3.93071 11.1846 3.74357 10.9975 3.74357 10.7669C3.74357 10.5363 3.93071 10.3492 4.16128 10.3492H7.25235C7.48293 10.3492 7.67006 10.5363 7.67006 10.7669C7.67006 10.9975 7.48125 11.1846 7.25068 11.1846ZM10.3417 9.05265H4.16128C3.93071 9.05265 3.74357 8.8655 3.74357 8.63494C3.74357 8.40434 3.93071 8.21723 4.16128 8.21723H10.3417C10.5723 8.21723 10.7595 8.40434 10.7595 8.63494C10.7595 8.8655 10.5723 9.05265 10.3417 9.05265ZM4.16128 5.95322H10.3417C10.5723 5.95322 10.7595 6.14035 10.7595 6.37093C10.7595 6.6015 10.5723 6.78864 10.3417 6.78864H4.16128C3.93071 6.78864 3.74357 6.6015 3.74357 6.37093C3.74357 6.14035 3.93071 5.95322 4.16128 5.95322Z" fill="black"/>
<path d="M7.0719 14.1888H11.8104C12.2983 14.1888 12.6943 13.7928 12.6943 13.3049V1.81119V0.883876C12.6943 0.39599 12.2983 0 11.8104 0H7.0719H5.49629V0.292398C5.49961 0.322473 5.5013 0.354219 5.5013 0.385965V2.31245V2.80702C5.5013 3.49373 4.94324 4.0518 4.25652 4.0518H3.76195H1.83547C1.8104 4.0518 1.78367 4.05013 1.75861 4.04845H1.45117V13.3049C1.45117 13.7928 1.84716 14.1888 2.33505 14.1888H3.30414H7.0719ZM7.25068 11.1846H4.16128C3.93071 11.1846 3.74357 10.9975 3.74357 10.7669C3.74357 10.5363 3.93071 10.3492 4.16128 10.3492H7.25235C7.48293 10.3492 7.67006 10.5363 7.67006 10.7669C7.67006 10.9975 7.48125 11.1846 7.25068 11.1846ZM10.3417 9.05265H4.16128C3.93071 9.05265 3.74357 8.8655 3.74357 8.63494C3.74357 8.40434 3.93071 8.21723 4.16128 8.21723H10.3417C10.5723 8.21723 10.7595 8.40434 10.7595 8.63494C10.7595 8.8655 10.5723 9.05265 10.3417 9.05265ZM4.16128 5.95322H10.3417C10.5723 5.95322 10.7595 6.14035 10.7595 6.37093C10.7595 6.6015 10.5723 6.78864 10.3417 6.78864H4.16128C3.93071 6.78864 3.74357 6.6015 3.74357 6.37093C3.74357 6.14035 3.93071 5.95322 4.16128 5.95322Z" fill="url(#paint1_linear_331:863)"/>
<path d="M1.83444 3.54987H4.25548C4.25715 3.54987 4.2605 3.54987 4.26217 3.54987C4.66651 3.54653 4.99399 3.21904 4.99734 2.8147C4.99734 2.81303 4.99734 2.80969 4.99734 2.80802V0.385293C4.99734 0.1614 4.81354 0.0126953 4.62308 0.0126953C4.53119 0.0126953 4.43929 0.0461122 4.36243 0.122971L1.57044 2.91495C1.33653 3.14887 1.50194 3.54987 1.83444 3.54987Z" fill="black"/>
<path d="M1.83444 3.54987H4.25548C4.25715 3.54987 4.2605 3.54987 4.26217 3.54987C4.66651 3.54653 4.99399 3.21904 4.99734 2.8147C4.99734 2.81303 4.99734 2.80969 4.99734 2.80802V0.385293C4.99734 0.1614 4.81354 0.0126953 4.62308 0.0126953C4.53119 0.0126953 4.43929 0.0461122 4.36243 0.122971L1.57044 2.91495C1.33653 3.14887 1.50194 3.54987 1.83444 3.54987Z" fill="url(#paint2_linear_331:863)"/>
<defs>
<linearGradient id="paint0_linear_331:863" x1="3.30273" y1="1.81055" x2="17.1163" y2="12.758" gradientUnits="userSpaceOnUse">
<stop stop-color="#55B4F9"/>
<stop offset="1" stop-color="#2795E6"/>
</linearGradient>
<linearGradient id="paint1_linear_331:863" x1="1.45117" y1="0" x2="15.2643" y2="10.9454" gradientUnits="userSpaceOnUse">
<stop stop-color="#55B4F9"/>
<stop offset="1" stop-color="#2795E6"/>
</linearGradient>
<linearGradient id="paint2_linear_331:863" x1="1.46094" y1="0.0126953" x2="4.99811" y2="3.54909" gradientUnits="userSpaceOnUse">
<stop stop-color="#55B4F9"/>
<stop offset="1" stop-color="#2795E6"/>
</linearGradient>
</defs>
</svg>
