<svg width="16" height="16" viewBox="0 0 16 16" fill="none" xmlns="http://www.w3.org/2000/svg">
<g clip-path="url(#clip0_1109:46)">
<path d="M15.1332 6.73157C14.9457 6.57739 14.6622 6.34436 14.6299 6.22339C14.5936 6.08752 14.7211 5.74585 14.8141 5.49634C14.9943 5.01294 15.1986 4.46497 14.9288 3.99866C14.6558 3.52673 14.0741 3.42993 13.5608 3.34448C13.3163 3.30371 12.9468 3.24219 12.8523 3.14771C12.7578 3.05322 12.6963 2.68372 12.6555 2.43921C12.5701 1.9259 12.4731 1.34424 12.0012 1.07117C11.5352 0.801392 10.9871 1.00574 10.5035 1.18591C10.2542 1.27893 9.91235 1.40613 9.77661 1.37C9.65564 1.33765 9.42261 1.0542 9.26831 0.866699C8.93433 0.460571 8.55566 0 8 0C7.44434 0 7.06567 0.460571 6.73157 0.866821C6.57739 1.05432 6.34436 1.33777 6.22339 1.37012C6.0874 1.40625 5.74585 1.27893 5.49634 1.18591C5.01294 1.00574 4.46497 0.801392 3.99866 1.07117C3.52673 1.34424 3.42993 1.9259 3.34448 2.43921C3.30371 2.68372 3.24219 3.05322 3.14771 3.14771C3.05322 3.24219 2.68372 3.30371 2.43921 3.34448C1.9259 3.42993 1.34424 3.52686 1.07117 3.99878C0.801392 4.46497 1.00574 5.01294 1.18591 5.49646C1.27893 5.74585 1.40625 6.08765 1.37 6.22339C1.33765 6.34436 1.0542 6.57739 0.866699 6.73169C0.460571 7.06567 0 7.44434 0 8C0 8.55566 0.460571 8.93433 0.866821 9.26843C1.05432 9.42261 1.33777 9.65564 1.37012 9.77661C1.40637 9.91248 1.27893 10.2542 1.18591 10.5037C1.00574 10.9871 0.801392 11.535 1.07117 12.0013C1.34424 12.4733 1.9259 12.5701 2.43921 12.6555C2.68372 12.6963 3.05322 12.7578 3.14771 12.8523C3.24219 12.9468 3.30371 13.3163 3.34448 13.5608C3.42993 14.0741 3.52686 14.6558 3.99878 14.9288C4.46484 15.1986 5.01294 14.9943 5.49646 14.8141C5.74585 14.7211 6.08777 14.5939 6.22339 14.63C6.34436 14.6624 6.57739 14.9458 6.73169 15.1333C7.06567 15.5394 7.44434 16 8 16C8.55566 16 8.93433 15.5394 9.26843 15.1332C9.42261 14.9457 9.65564 14.6622 9.77661 14.6299C9.9126 14.5939 10.2542 14.7211 10.5037 14.8141C10.9871 14.9941 11.535 15.1986 12.0013 14.9288C12.4733 14.6558 12.5701 14.0741 12.6555 13.5608C12.6963 13.3163 12.7578 12.9468 12.8523 12.8523C12.9468 12.7578 13.3163 12.6963 13.5608 12.6555C14.0741 12.5701 14.6558 12.4731 14.9288 12.0012C15.1986 11.535 14.9943 10.9871 14.8141 10.5035C14.7211 10.2542 14.5938 9.91235 14.63 9.77661C14.6624 9.65564 14.9458 9.42261 15.1333 9.26831C15.5394 8.93433 16 8.55566 16 8C16 7.44434 15.5394 7.06567 15.1332 6.73157ZM11.4462 6.89233L8.67688 10.5846C8.46277 10.8702 8.13562 11.0486 7.77954 11.0739C7.75061 11.0759 7.72131 11.0769 7.69226 11.0769C7.36353 11.0769 7.05444 10.949 6.82202 10.7164L4.97583 8.87036C4.49597 8.39038 4.49597 7.60962 4.97583 7.12976C5.45581 6.6499 6.23657 6.6499 6.71643 7.12976L7.55908 7.97241L9.47693 5.41541C9.67419 5.15247 9.96204 4.98193 10.2875 4.93542C10.6129 4.88892 10.937 4.97205 11.2 5.16931C11.463 5.36646 11.6334 5.65442 11.6799 5.97986C11.7264 6.3053 11.6434 6.62927 11.4462 6.89233Z" fill="black"/>
<path d="M15.1332 6.73157C14.9457 6.57739 14.6622 6.34436 14.6299 6.22339C14.5936 6.08752 14.7211 5.74585 14.8141 5.49634C14.9943 5.01294 15.1986 4.46497 14.9288 3.99866C14.6558 3.52673 14.0741 3.42993 13.5608 3.34448C13.3163 3.30371 12.9468 3.24219 12.8523 3.14771C12.7578 3.05322 12.6963 2.68372 12.6555 2.43921C12.5701 1.9259 12.4731 1.34424 12.0012 1.07117C11.5352 0.801392 10.9871 1.00574 10.5035 1.18591C10.2542 1.27893 9.91235 1.40613 9.77661 1.37C9.65564 1.33765 9.42261 1.0542 9.26831 0.866699C8.93433 0.460571 8.55566 0 8 0C7.44434 0 7.06567 0.460571 6.73157 0.866821C6.57739 1.05432 6.34436 1.33777 6.22339 1.37012C6.0874 1.40625 5.74585 1.27893 5.49634 1.18591C5.01294 1.00574 4.46497 0.801392 3.99866 1.07117C3.52673 1.34424 3.42993 1.9259 3.34448 2.43921C3.30371 2.68372 3.24219 3.05322 3.14771 3.14771C3.05322 3.24219 2.68372 3.30371 2.43921 3.34448C1.9259 3.42993 1.34424 3.52686 1.07117 3.99878C0.801392 4.46497 1.00574 5.01294 1.18591 5.49646C1.27893 5.74585 1.40625 6.08765 1.37 6.22339C1.33765 6.34436 1.0542 6.57739 0.866699 6.73169C0.460571 7.06567 0 7.44434 0 8C0 8.55566 0.460571 8.93433 0.866821 9.26843C1.05432 9.42261 1.33777 9.65564 1.37012 9.77661C1.40637 9.91248 1.27893 10.2542 1.18591 10.5037C1.00574 10.9871 0.801392 11.535 1.07117 12.0013C1.34424 12.4733 1.9259 12.5701 2.43921 12.6555C2.68372 12.6963 3.05322 12.7578 3.14771 12.8523C3.24219 12.9468 3.30371 13.3163 3.34448 13.5608C3.42993 14.0741 3.52686 14.6558 3.99878 14.9288C4.46484 15.1986 5.01294 14.9943 5.49646 14.8141C5.74585 14.7211 6.08777 14.5939 6.22339 14.63C6.34436 14.6624 6.57739 14.9458 6.73169 15.1333C7.06567 15.5394 7.44434 16 8 16C8.55566 16 8.93433 15.5394 9.26843 15.1332C9.42261 14.9457 9.65564 14.6622 9.77661 14.6299C9.9126 14.5939 10.2542 14.7211 10.5037 14.8141C10.9871 14.9941 11.535 15.1986 12.0013 14.9288C12.4733 14.6558 12.5701 14.0741 12.6555 13.5608C12.6963 13.3163 12.7578 12.9468 12.8523 12.8523C12.9468 12.7578 13.3163 12.6963 13.5608 12.6555C14.0741 12.5701 14.6558 12.4731 14.9288 12.0012C15.1986 11.535 14.9943 10.9871 14.8141 10.5035C14.7211 10.2542 14.5938 9.91235 14.63 9.77661C14.6624 9.65564 14.9458 9.42261 15.1333 9.26831C15.5394 8.93433 16 8.55566 16 8C16 7.44434 15.5394 7.06567 15.1332 6.73157ZM11.4462 6.89233L8.67688 10.5846C8.46277 10.8702 8.13562 11.0486 7.77954 11.0739C7.75061 11.0759 7.72131 11.0769 7.69226 11.0769C7.36353 11.0769 7.05444 10.949 6.82202 10.7164L4.97583 8.87036C4.49597 8.39038 4.49597 7.60962 4.97583 7.12976C5.45581 6.6499 6.23657 6.6499 6.71643 7.12976L7.55908 7.97241L9.47693 5.41541C9.67419 5.15247 9.96204 4.98193 10.2875 4.93542C10.6129 4.88892 10.937 4.97205 11.2 5.16931C11.463 5.36646 11.6334 5.65442 11.6799 5.97986C11.7264 6.3053 11.6434 6.62927 11.4462 6.89233Z" fill="url(#paint0_linear_1109:46)"/>
</g>
<defs>
<linearGradient id="paint0_linear_1109:46" x1="0" y1="0" x2="16" y2="16" gradientUnits="userSpaceOnUse">
<stop stop-color="#55B4F9"/>
<stop offset="1" stop-color="#2795E6"/>
</linearGradient>
<clipPath id="clip0_1109:46">
<rect width="16" height="16" fill="white"/>
</clipPath>
</defs>
</svg>
