<svg width="24" height="24" viewBox="0 0 24 24" fill="none" xmlns="http://www.w3.org/2000/svg">
<g clip-path="url(#clip0)">
<path d="M21.6649 11.9277C21.6649 10.6582 20.6322 9.62554 19.3628 9.62554C18.9953 9.62554 18.648 9.71252 18.3395 9.86629C18.0268 8.9657 17.1702 8.31721 16.1645 8.31721C15.7121 8.31721 15.29 8.44895 14.9338 8.67531C14.5294 8.01154 13.7987 7.56734 12.9662 7.56734C12.6485 7.56734 12.3456 7.63206 12.0701 7.74895V4.996C12.0701 3.77184 11.0741 2.77588 9.84989 2.77588C8.62568 2.77588 7.62972 3.77184 7.62972 4.996V12.1599C7.18697 11.4612 6.50019 10.9745 5.69338 10.7884C4.87935 10.6005 4.04086 10.7413 3.33266 11.1846L2.66401 11.6033C2.34789 11.8013 2.24137 12.2116 2.42129 12.5383C2.45105 12.5923 5.41082 17.9716 6.61164 20.5448C6.63216 20.5887 6.65269 20.6319 6.67331 20.6746C7.15688 21.6751 7.91448 22.5154 8.86424 23.1048C9.80818 23.6905 10.8959 24.0001 12.0098 24.0001H15.5748C17.1786 24.0001 18.6893 23.3785 19.8286 22.2498C20.968 21.1211 21.6037 19.6164 21.6188 18.0127L21.6649 13.1155C21.6649 13.1143 21.6647 13.1132 21.6647 13.112C21.6647 13.111 21.6649 13.1099 21.6649 13.1088V11.9277H21.6649ZM18.8391 21.251C17.9649 22.1171 16.8056 22.5941 15.5749 22.5941H12.0098C10.2803 22.5941 8.68249 21.6005 7.93923 20.0627C7.92128 20.0256 7.90338 19.9879 7.88566 19.95C6.88899 17.8144 4.77952 13.9208 3.97239 12.443L4.07882 12.3763C4.46833 12.1324 4.9294 12.055 5.37726 12.1584C5.82503 12.2617 6.20563 12.5333 6.44887 12.9232L7.7363 14.9868C7.90234 15.253 8.22455 15.3768 8.52628 15.2906C8.82787 15.2042 9.03577 14.9285 9.03577 14.6147V4.996C9.03577 4.54711 9.401 4.18188 9.84994 4.18188C10.2989 4.18188 10.6641 4.54711 10.6641 4.996V13.1088C10.6641 13.4971 10.9789 13.8118 11.3671 13.8118C11.7553 13.8118 12.0701 13.4971 12.0701 13.1088V9.86952C12.0701 9.37541 12.4721 8.97339 12.9662 8.97339C13.4604 8.97339 13.8624 9.37541 13.8624 9.86952V13.1088C13.8624 13.4971 14.1772 13.8118 14.5654 13.8118C14.9537 13.8118 15.2684 13.4971 15.2684 13.1088V10.6194C15.2684 10.1253 15.6704 9.72325 16.1646 9.72325C16.6587 9.72325 17.0607 10.1253 17.0607 10.6194V13.1088C17.0607 13.4971 17.3755 13.8118 17.7637 13.8118C18.1519 13.8118 18.4667 13.4971 18.4667 13.1088V11.9277C18.4667 11.4336 18.8687 11.0316 19.3629 11.0316C19.857 11.0316 20.259 11.4336 20.259 11.9277V13.1046L20.213 17.9995C20.2013 19.2301 19.7134 20.3848 18.8391 21.251Z" fill="white" fill-opacity="0.6"/>
<path d="M5.38464 5.8477C5.77289 5.8477 6.08764 5.53294 6.08764 5.1447C6.08764 3.08317 7.76486 1.406 9.82639 1.406C11.8879 1.406 13.5651 3.08317 13.5651 5.1447C13.5651 5.53294 13.8799 5.8477 14.2681 5.8477C14.6564 5.8477 14.9711 5.53294 14.9711 5.1447C14.9711 2.3079 12.6632 0 9.82639 0C6.98955 0 4.68164 2.3079 4.68164 5.1447C4.68164 5.53299 4.9964 5.8477 5.38464 5.8477Z" fill="white" fill-opacity="0.6"/>
</g>
<defs>
<clipPath id="clip0">
<rect width="24" height="24" fill="white"/>
</clipPath>
</defs>
</svg>
