<svg width="22" height="22" viewBox="0 0 22 22" fill="none" xmlns="http://www.w3.org/2000/svg">
<g clip-path="url(#clip0_326:252)">
<path d="M21.4392 9.41108L19.2482 4.99933C18.6279 3.75245 17.5079 2.81883 16.1744 2.43908C14.8496 2.06195 13.4129 2.26145 12.2377 2.98858C11.4747 3.46195 10.5236 3.46195 9.76149 2.98858C8.58811 2.26145 7.15224 2.06108 5.82486 2.43908C4.49049 2.81883 3.37049 3.75158 2.75099 4.99933L0.559986 9.41108C0.465486 9.60095 0.475111 9.92033 0.643111 10.1216C2.40186 12.2417 4.19211 13.8333 5.96049 14.8501C6.06111 14.9087 6.17486 14.9376 6.28774 14.9376C6.40149 14.9376 6.51524 14.9078 6.61586 14.8492C6.81974 14.732 6.94399 14.515 6.94399 14.2813V11.8943C6.94399 11.6108 6.76199 11.3588 6.49161 11.2705L5.80736 11.0508C4.55524 10.651 3.36174 10.2511 2.17174 9.55633L3.38274 8.23508C4.70486 6.79395 6.79174 6.3757 8.57411 7.1912C10.115 7.89733 11.8816 7.89645 13.4225 7.1912C15.2066 6.37395 17.2926 6.79395 18.6139 8.23508L19.8249 9.55633C18.6357 10.2502 17.4422 10.651 16.1892 11.0508L15.505 11.2705C15.2346 11.3588 15.0526 11.6108 15.0526 11.8943V14.2813C15.0526 14.5158 15.1777 14.732 15.3807 14.8492C15.4814 14.9078 15.5951 14.9376 15.7089 14.9376C15.8217 14.9376 15.9355 14.9087 16.0361 14.8501C17.8045 13.8325 19.5947 12.2417 21.3535 10.1216C21.4979 9.95095 21.5521 9.63945 21.4392 9.41108Z" fill="white"/>
<path d="M11 19.75C8.10462 19.75 5.75 17.3954 5.75 14.5V11C5.75 9.55275 6.92775 8.375 8.375 8.375H9.25C9.922 8.375 10.5354 8.62875 11 9.04525C11.4646 8.62875 12.078 8.375 12.75 8.375H13.625C15.0723 8.375 16.25 9.55275 16.25 11V14.5C16.25 17.3954 13.8954 19.75 11 19.75ZM8.375 10.125C7.892 10.125 7.5 10.5179 7.5 11V14.5C7.5 16.4303 9.06975 18 11 18C12.9303 18 14.5 16.4303 14.5 14.5V11C14.5 10.5179 14.108 10.125 13.625 10.125H12.75C12.267 10.125 11.875 10.5179 11.875 11V13.625C11.875 14.108 11.4839 14.5 11 14.5C10.5161 14.5 10.125 14.108 10.125 13.625V11C10.125 10.5179 9.733 10.125 9.25 10.125H8.375Z" fill="white"/>
</g>
<defs>
<clipPath id="clip0_326:252">
<rect width="21" height="21" fill="white" transform="translate(0.5 0.5)"/>
</clipPath>
</defs>
</svg>
