<svg width="22" height="22" viewBox="0 0 22 22" fill="none" xmlns="http://www.w3.org/2000/svg">
<g clip-path="url(#clip0_326:234)">
<path d="M12.3125 9.16269C12.3125 9.56055 12.524 9.92346 12.8566 10.1019L16.7941 12.2018C16.9325 12.2756 17.0824 12.3125 17.2343 12.3125C17.3612 12.3125 17.4901 12.2858 17.6111 12.2325C17.8745 12.1155 18.0784 11.8828 18.1687 11.5947L20.1374 5.29511C20.2547 4.91782 20.1624 4.50146 19.899 4.22053L17.9303 2.12069C17.6324 1.80079 17.1729 1.72076 16.7941 1.92383L12.8566 4.02367C12.524 4.20212 12.3125 4.56504 12.3125 4.9629V9.16269V9.16269Z" fill="white"/>
<path d="M9.13568 12.7618L6.18259 15.824C5.90573 16.1111 5.75 16.4998 5.75 16.9066L5.75 19.9688C5.75 20.8152 6.41044 21.5 7.22662 21.5L13.1328 21.5C13.525 21.5 13.9 21.3385 14.1768 21.0514L17.1299 17.9892C17.4097 17.6991 17.5625 17.3104 17.5625 16.9066C17.5625 16.8258 17.5567 16.7421 17.5438 16.6615C17.4674 16.177 17.1703 15.7583 16.7465 15.5371L10.8401 12.4749C10.2719 12.1788 9.58557 12.2953 9.13568 12.7618Z" fill="white"/>
<path d="M3.26313 10.2745C3.4862 10.7193 3.93985 11 4.43717 11H7.06199C7.55931 11 8.01296 10.7193 8.23603 10.2745L10.8608 5.02447C11.1147 4.51948 11.0146 3.90929 10.6148 3.50939L7.98995 0.884553C7.47724 0.371816 6.64672 0.371816 6.13414 0.884553L3.89383 3.12499H1.81236C1.35859 3.12499 0.935707 3.36087 0.694795 3.74798C0.456344 4.13508 0.435918 4.61829 0.638442 5.02459L3.26313 10.2745Z" fill="white"/>
</g>
<defs>
<clipPath id="clip0_326:234">
<rect width="21" height="21" fill="white" transform="translate(0.5 0.5)"/>
</clipPath>
</defs>
</svg>
