<svg width="22" height="22" viewBox="0 0 22 22" fill="none" xmlns="http://www.w3.org/2000/svg">
<g clip-path="url(#clip0_326:226)">
<path d="M13.625 2.25H8.375C7.892 2.25 7.5 1.858 7.5 1.375C7.5 0.892 7.892 0.5 8.375 0.5H13.625C14.108 0.5 14.5 0.892 14.5 1.375C14.5 1.858 14.108 2.25 13.625 2.25Z" fill="white"/>
<path d="M15.7411 21.5H7.03832C4.30219 21.5 2.37982 20.0361 2.25644 17.8565C2.20832 17.0051 2.43057 16.1826 2.90044 15.4791L7.91332 8.19213C8.21432 7.752 8.37444 7.2375 8.37444 6.70375V1.8125C8.37444 1.3295 8.76644 0.9375 9.24944 0.9375C9.73244 0.9375 10.1244 1.3295 10.1244 1.8125V6.70375C10.1244 7.59363 9.85757 8.45112 9.35357 9.1835L4.34857 16.46C4.09832 16.8354 3.97669 17.2869 4.00294 17.7568C4.07207 18.9678 5.26294 19.75 7.03832 19.75H15.7419C16.9223 19.75 17.9338 18.8566 17.9959 17.7576C18.0231 17.2877 17.9014 16.8363 17.6433 16.4504L12.6453 9.1835C12.1413 8.45112 11.8744 7.59363 11.8744 6.70375V1.8125C11.8744 1.3295 12.2664 0.9375 12.7494 0.9375C13.2324 0.9375 13.6244 1.3295 13.6244 1.8125V6.70375C13.6244 7.2375 13.7846 7.752 14.0864 8.19125L19.0914 15.4678C19.5683 16.1818 19.7906 17.0042 19.7424 17.8556C19.6269 19.8996 17.8691 21.5 15.7411 21.5Z" fill="white"/>
<path d="M15.2403 18H6.75975C6.20325 18 5.75 17.5652 5.75 17.0314C5.75 16.8223 5.81825 16.6237 5.94775 16.4557C5.95912 16.4408 5.97138 16.4259 5.9845 16.4119L8.45813 13.1867C8.57538 13.0344 8.753 12.9408 8.9455 12.9312C9.10388 12.9233 9.257 12.8865 9.37775 12.8279L9.92375 12.5558C10.58 12.2355 11.4218 12.2347 12.0736 12.5532L12.6301 12.8305C12.7447 12.8857 12.8979 12.9224 13.0563 12.9312C13.2479 12.9408 13.4264 13.0344 13.5436 13.1867L16.0172 16.411C16.0304 16.425 16.0426 16.4399 16.054 16.4548C16.1817 16.6228 16.25 16.8223 16.25 17.0314C16.25 17.5652 15.7968 18 15.2403 18V18Z" fill="white"/>
</g>
<defs>
<clipPath id="clip0_326:226">
<rect width="21" height="21" fill="white" transform="translate(0.5 0.5)"/>
</clipPath>
</defs>
</svg>
