<svg width="20" height="20" viewBox="0 0 20 20" fill="#fff" xmlns="http://www.w3.org/2000/svg">
<path d="M6.6369 0.8125L4.1756 3.97686C5.05658 4.48046 5.56214 5.28989 5.56214 6.19746C5.56214 7.10504 5.05658 7.91447 4.1756 8.41807C2.06947 9.62106 0.8125 11.634 0.8125 13.8025C0.8125 15.9716 2.06947 17.9845 4.1756 19.1875L6.6369 16.0236C5.75592 15.52 5.24978 14.7106 5.24978 13.8025C5.24978 12.895 5.75592 12.0855 6.6369 11.5819C8.74303 10.3789 10 8.36602 10 6.19746C10 4.02891 8.74303 2.01549 6.6369 0.8125Z"/>
<path d="M16.305 0.8125L14.195 3.97686C14.9505 4.48046 15.3839 5.28989 15.3839 6.19746C15.3839 7.10504 14.9505 7.91447 14.195 8.41807C12.3903 9.62106 11.3125 11.634 11.3125 13.8025C11.3125 15.9716 12.3903 17.9845 14.195 19.1875L16.305 16.0236C15.5495 15.52 15.1161 14.7106 15.1161 13.8025C15.1161 12.895 15.5495 12.0855 16.305 11.5819C18.1097 10.3789 19.1875 8.36602 19.1875 6.19746C19.1875 4.02891 18.1097 2.01549 16.305 0.8125Z" />
</svg>
