<svg width="18" height="22" viewBox="0 0 18 22" fill="none" xmlns="http://www.w3.org/2000/svg">
<path d="M16.8824 0.830946C16.7218 0.627865 16.4793 0.50664 16.2205 0.5H1.77921C1.52042 0.50664 1.27791 0.627924 1.11731 0.830946C0.946612 1.01822 0.869281 1.2723 0.906712 1.52292L3.46402 20.7178C3.53659 21.1622 3.91637 21.4914 4.3666 21.5H13.6331C14.0833 21.4914 14.4631 21.1622 14.5357 20.7178L17.093 1.52292C17.1304 1.2723 17.0531 1.01822 16.8824 0.830946ZM14.295 8.8639L13.5428 8.56304C12.7866 8.15194 11.9364 7.94463 11.0758 7.96132C10.2151 7.94463 9.36498 8.15194 8.60872 8.56304C8.08927 8.83393 7.50958 8.96855 6.9239 8.95415C6.33864 8.96467 5.75984 8.83028 5.23909 8.56304C4.72886 8.27463 4.1664 8.09059 3.58436 8.02149L2.83221 2.30516H15.1675L14.295 8.8639Z" fill="white"/>
</svg>
