<?xml version="1.0" ?><svg style="enable-background:new 0 0 32 32;" version="1.1" viewBox="0 0 32 32" xml:space="preserve" xmlns="http://www.w3.org/2000/svg" xmlns:xlink="http://www.w3.org/1999/xlink"><g class="st0" id="grid"/><g id="icon"><g><path class="st3" d="M17,2v25.59l-1,1l-1-1V2c0-0.55,0.45-1,1-1S17,1.45,17,2z"/></g><g><g><path class="st2" d="M21.71,25.71l-5,5c-0.1,0.09-0.21,0.16-0.32,0.21c-0.05,0.02-0.09,0.04-0.14,0.04     C16.17,30.99,16.09,31,16,31s-0.17-0.01-0.25-0.04c-0.05,0-0.09-0.02-0.14-0.04c-0.11-0.05-0.22-0.12-0.32-0.21l-5-5     c-0.39-0.39-0.39-1.03,0-1.42c0.39-0.39,1.03-0.39,1.42,0l3.29,3.3l1,1l1-1l3.29-3.3c0.39-0.39,1.03-0.39,1.42,0     C22.1,24.68,22.1,25.32,21.71,25.71z"/></g></g></g></svg>