<svg width="17" height="14" viewBox="0 0 17 14" fill="none" xmlns="http://www.w3.org/2000/svg">
<path fill-rule="evenodd" clip-rule="evenodd" d="M1.7895 5.84193C6.1623 3.93677 9.07819 2.68077 10.5372 2.07394C14.7028 0.341296 15.5684 0.0403179 16.1326 0.0303794C16.2567 0.0281935 16.5341 0.0589456 16.7138 0.204774C16.8656 0.327909 16.9073 0.494247 16.9273 0.610993C16.9473 0.727738 16.9722 0.993688 16.9524 1.20149C16.7267 3.57335 15.7499 9.32921 15.253 11.9857C15.0427 13.1098 14.6287 13.4867 14.2279 13.5236C13.3568 13.6037 12.6953 12.9479 11.8516 12.3949C10.5315 11.5295 9.78563 10.9907 8.50415 10.1463C7.02318 9.17033 7.98323 8.63394 8.82723 7.75732C9.04811 7.52791 12.8861 4.03697 12.9604 3.72028C12.9697 3.68068 12.9783 3.53304 12.8906 3.45508C12.8029 3.37713 12.6734 3.40379 12.58 3.42499C12.4476 3.45504 10.3386 4.84903 6.25293 7.60695C5.65429 8.01803 5.11206 8.21831 4.62624 8.20782C4.09067 8.19625 3.06043 7.90499 2.29456 7.65604C1.35518 7.35069 0.608582 7.18924 0.673594 6.67066C0.707456 6.40055 1.07942 6.1243 1.7895 5.84193Z" fill="white"/>
</svg>
