<svg width="30" height="30" viewBox="0 0 30 30" fill="none" xmlns="http://www.w3.org/2000/svg">
<path d="M15 30C23.2843 30 30 23.2843 30 15C30 6.71573 23.2843 0 15 0C6.71573 0 0 6.71573 0 15C0 23.2843 6.71573 30 15 30Z" fill="url(#paint0_linear_902:3589)"/>
<path fill-rule="evenodd" clip-rule="evenodd" d="M6.7895 14.8419C11.1623 12.9368 14.0782 11.6808 15.5372 11.0739C19.7028 9.3413 20.5684 9.04032 21.1326 9.03038C21.2567 9.02819 21.5341 9.05895 21.7138 9.20477C21.8656 9.32791 21.9073 9.49425 21.9273 9.61099C21.9473 9.72774 21.9722 9.99369 21.9524 10.2015C21.7267 12.5733 20.7499 18.3292 20.253 20.9857C20.0427 22.1098 19.6287 22.4867 19.2279 22.5236C18.3568 22.6037 17.6953 21.9479 16.8516 21.3949C15.5315 20.5295 14.7856 19.9907 13.5041 19.1463C12.0232 18.1703 12.9832 17.6339 13.8272 16.7573C14.0481 16.5279 17.8861 13.037 17.9604 12.7203C17.9697 12.6807 17.9783 12.533 17.8906 12.4551C17.8029 12.3771 17.6734 12.4038 17.58 12.425C17.4476 12.455 15.3386 13.849 11.2529 16.607C10.6543 17.018 10.1121 17.2183 9.62624 17.2078C9.09067 17.1962 8.06043 16.905 7.29456 16.656C6.35518 16.3507 5.60858 16.1892 5.67359 15.6707C5.70746 15.4005 6.07942 15.1243 6.7895 14.8419Z" fill="white"/>
<defs>
<linearGradient id="paint0_linear_902:3589" x1="15" y1="0" x2="15" y2="29.7775" gradientUnits="userSpaceOnUse">
<stop stop-color="#2AABEE"/>
<stop offset="1" stop-color="#229ED9"/>
</linearGradient>
</defs>
</svg>
