<svg width="16" height="16" viewBox="0 0 16 16" fill="none" xmlns="http://www.w3.org/2000/svg">
<path fill-rule="evenodd" clip-rule="evenodd" d="M13.6688 2.3252C12.1648 0.826563 10.1645 0.000878905 8.03346 0C3.64233 0 0.0685899 3.55654 0.0668237 7.92783C0.0662349 9.3252 0.433029 10.6893 1.13021 11.8916L0 16L4.22324 14.8975C5.38691 15.5292 6.69699 15.8621 8.03022 15.8625H8.03356C12.4242 15.8625 15.9983 12.3057 16 7.93418C16.0009 5.81563 15.173 3.82373 13.6688 2.3252ZM8.03346 14.5235H8.03071C6.84261 14.523 5.67736 14.2053 4.66058 13.605L4.4189 13.4621L1.91277 14.1164L2.58169 11.6847L2.4242 11.4354C1.76136 10.3861 1.41134 9.17344 1.41193 7.92832C1.41331 4.29502 4.38377 1.33906 8.03611 1.33906C9.80473 1.33965 11.4673 2.02598 12.7174 3.27158C13.9675 4.51719 14.6556 6.17285 14.655 7.93369C14.6534 11.5673 11.6832 14.5235 8.03346 14.5235V14.5235ZM11.6655 9.58809C11.4665 9.48887 10.4878 9.00977 10.3053 8.94355C10.123 8.87744 9.99009 8.84453 9.85752 9.04277C9.72476 9.24102 9.34334 9.6873 9.22716 9.81943C9.11098 9.95166 8.995 9.96826 8.7959 9.86904C8.5968 9.76992 7.95545 9.56064 7.19507 8.88574C6.60338 8.36045 6.20391 7.71172 6.08772 7.51348C5.97174 7.31504 6.08674 7.21816 6.17506 7.10918C6.39054 6.84287 6.60632 6.56367 6.67265 6.43154C6.73908 6.29932 6.70582 6.18359 6.65597 6.08447C6.60632 5.98535 6.20822 5.01025 6.04239 4.61348C5.88068 4.22734 5.71671 4.27949 5.59445 4.27344C5.47846 4.26768 5.3457 4.2665 5.21293 4.2665C5.08027 4.2665 4.86459 4.31602 4.68207 4.51445C4.49966 4.71279 3.98548 5.19199 3.98548 6.16709C3.98548 7.14219 4.69875 8.08418 4.79825 8.21641C4.89775 8.34863 6.20194 10.3496 8.1987 11.2076C8.67363 11.4119 9.04435 11.5337 9.33353 11.625C9.81042 11.7758 10.2442 11.7545 10.5873 11.7035C10.9698 11.6466 11.7649 11.2242 11.9309 10.7615C12.0968 10.2987 12.0968 9.90215 12.0469 9.81943C11.9973 9.73682 11.8645 9.6873 11.6655 9.58809V9.58809Z" fill="white"/>
</svg>
