<svg width="106" height="282" viewBox="0 0 106 282" fill="none" xmlns="http://www.w3.org/2000/svg">
<path d="M50.9999 116.302L51.4686 116.476L51.4866 116.428L51.4943 116.377L50.9999 116.302ZM78.9999 158.322L79.4901 158.223L78.9999 158.322ZM97.4999 274.241L100.11 269.091L94.3454 269.405L97.4999 274.241ZM0.686645 1.38963C1.32885 1.90612 1.96857 2.41573 2.60559 2.91905L3.22555 2.13442C2.59063 1.63276 1.95317 1.12494 1.31335 0.610374L0.686645 1.38963ZM6.45409 5.91462C7.7613 6.91863 9.0549 7.90039 10.3327 8.86508L10.9353 8.06697C9.65873 7.10328 8.36749 6.1233 7.06321 5.12155L6.45409 5.91462ZM14.2338 11.8011C15.5499 12.791 16.8459 13.7679 18.1201 14.7383L18.726 13.9428C17.4493 12.9704 16.1513 11.9921 14.8349 11.0019L14.2338 11.8011ZM21.966 17.7083C23.2581 18.7234 24.5231 19.7383 25.7584 20.7605L26.3959 19.99C25.1528 18.9614 23.8811 17.9412 22.5837 16.9219L21.966 17.7083ZM29.4435 23.9191C30.6605 25.0038 31.8426 26.1042 32.987 27.2288L33.6879 26.5155C32.5306 25.3783 31.3366 24.2668 30.1089 23.1726L29.4435 23.9191ZM36.3401 30.723C37.4199 31.9209 38.4581 33.1522 39.4518 34.4255L40.2401 33.8103C39.231 32.5172 38.1775 31.2678 37.0829 30.0534L36.3401 30.723ZM42.2739 38.3463C43.1529 39.6759 43.9872 41.0538 44.7739 42.4879L45.6506 42.0069C44.8504 40.5482 44.0019 39.1468 43.1081 37.7948L42.2739 38.3463ZM46.9169 46.8056C47.5594 48.244 48.1588 49.7379 48.7129 51.2936L49.6549 50.9581C49.0922 49.3782 48.4832 47.8602 47.83 46.3978L46.9169 46.8056ZM50.1725 55.9193C50.5906 57.4279 50.9704 58.9916 51.3102 60.6151L52.289 60.4102C51.945 58.7665 51.5601 57.182 51.1361 55.6522L50.1725 55.9193ZM52.1641 65.3752C52.3982 66.9255 52.5993 68.5266 52.7662 70.182L53.7612 70.0817C53.5927 68.4106 53.3896 66.7931 53.1529 65.2259L52.1641 65.3752ZM53.1464 75.0178C53.2367 76.5894 53.2989 78.2066 53.332 79.8718L54.3318 79.8519C54.2985 78.1747 54.2358 76.545 54.1447 74.9604L53.1464 75.0178ZM53.3473 84.739C53.3269 86.3244 53.2822 87.9506 53.2127 89.6193L54.2118 89.661C54.2817 87.9831 54.3267 86.3473 54.3472 84.7519L53.3473 84.739ZM52.9497 94.4445C52.8445 96.0186 52.7187 97.6284 52.5719 99.2751L53.5679 99.3639C53.7154 97.7101 53.8418 96.0929 53.9474 94.5112L52.9497 94.4445ZM52.0903 104.122C51.9165 105.714 51.7243 107.338 51.5132 108.996L52.5052 109.123C52.717 107.459 52.9099 105.828 53.0844 104.23L52.0903 104.122ZM50.8668 113.771C50.7506 114.582 50.6302 115.401 50.5055 116.227L51.4943 116.377C51.6194 115.548 51.7402 114.727 51.8567 113.913L50.8668 113.771ZM50.5313 116.128C50.2546 116.872 49.9689 117.592 49.6747 118.288L50.5957 118.677C50.8959 117.967 51.187 117.234 51.4686 116.476L50.5313 116.128ZM47.6654 122.445C46.8785 123.87 46.051 125.159 45.1918 126.315L45.9945 126.911C46.8824 125.716 47.7339 124.39 48.5408 122.928L47.6654 122.445ZM42.169 129.737C40.9859 130.847 39.7679 131.745 38.5337 132.441L39.0249 133.312C40.3346 132.574 41.6168 131.626 42.8533 130.466L42.169 129.737ZM34.3395 134.036C32.8418 134.341 31.3443 134.374 29.8758 134.145L29.7221 135.133C31.3085 135.38 32.9258 135.345 34.5395 135.015L34.3395 134.036ZM25.6305 132.714C24.3594 132.041 23.1329 131.157 21.9755 130.066L21.2897 130.794C22.5072 131.941 23.8061 132.88 25.1627 133.598L25.6305 132.714ZM19.0216 126.603C18.1951 125.412 17.4304 124.089 16.7413 122.637L15.8379 123.065C16.5488 124.563 17.3404 125.935 18.2 127.174L19.0216 126.603ZM15.0592 118.36C14.609 116.959 14.2201 115.471 13.9004 113.901L12.9205 114.1C13.2472 115.705 13.6452 117.228 14.1071 118.666L15.0592 118.36ZM13.1974 109.333C13.1162 108.577 13.0499 107.807 12.9989 107.021L12.001 107.085C12.0529 107.885 12.1204 108.67 12.2031 109.439L13.1974 109.333ZM12.9989 107.021C12.9446 106.184 12.9317 105.375 12.958 104.596L11.9585 104.562C11.9311 105.376 11.9447 106.217 12.001 107.085L12.9989 107.021ZM13.6823 99.8577C14.1528 98.2401 14.8371 96.8091 15.703 95.5729L14.8839 94.9992C13.9513 96.3306 13.2212 97.8622 12.7221 99.5785L13.6823 99.8577ZM19.0745 92.2776C20.3587 91.4235 21.8151 90.7883 23.413 90.3877L23.1698 89.4177C21.4684 89.8442 19.9058 90.5238 18.5207 91.4449L19.0745 92.2776ZM28.1677 89.8909C29.6867 89.9291 31.2827 90.1392 32.9366 90.5305L33.1669 89.5574C31.451 89.1514 29.7862 88.9313 28.1929 88.8913L28.1677 89.8909ZM37.5314 92.0359C38.9632 92.6322 40.4214 93.3564 41.8951 94.2132L42.3978 93.3487C40.888 92.4709 39.3903 91.7269 37.9159 91.1128L37.5314 92.0359ZM45.9447 96.8826C47.206 97.8138 48.4711 98.8426 49.7331 99.9719L50.3999 99.2267C49.1154 98.0773 47.8261 97.0286 46.5386 96.0781L45.9447 96.8826ZM53.2431 103.388C54.3262 104.53 55.4023 105.749 56.4671 107.047L57.2402 106.412C56.1607 105.096 55.0687 103.859 53.9687 102.699L53.2431 103.388ZM59.4418 110.926C60.3671 112.215 61.2801 113.568 62.1778 114.986L63.0227 114.451C62.1149 113.017 61.191 111.648 60.2542 110.343L59.4418 110.926ZM64.6877 119.195C65.4689 120.587 66.2354 122.032 66.9847 123.532L67.8793 123.086C67.1229 121.571 66.3489 120.112 65.5596 118.706L64.6877 119.195ZM69.0823 127.979C69.733 129.441 70.3678 130.949 70.985 132.504L71.9144 132.135C71.2923 130.568 70.6522 129.047 69.9958 127.573L69.0823 127.979ZM72.7011 137.08C73.2351 138.589 73.7529 140.138 74.2532 141.728L75.2071 141.427C74.7033 139.827 74.1818 138.267 73.6438 136.747L72.7011 137.08ZM75.652 146.445C76.0862 148.002 76.5041 149.594 76.9045 151.223L77.8756 150.984C77.4727 149.346 77.0523 147.743 76.6153 146.176L75.652 146.445ZM78.0003 155.975C78.1743 156.782 78.3442 157.597 78.5098 158.421L79.4901 158.223C79.3236 157.396 79.1528 156.576 78.9778 155.765L78.0003 155.975ZM78.5098 158.421C78.6729 159.232 78.8348 160.038 78.9954 160.84L79.9759 160.643C79.8153 159.842 79.6533 159.035 79.4901 158.223L78.5098 158.421ZM79.9529 165.635C80.2748 167.253 80.5914 168.851 80.9028 170.429L81.8838 170.236C81.5724 168.657 81.2557 167.059 80.9336 165.44L79.9529 165.635ZM81.8449 175.224C82.1624 176.847 82.4742 178.448 82.7802 180.028L83.762 179.838C83.4558 178.258 83.1439 176.656 82.8263 175.032L81.8449 175.224ZM83.7072 184.837C84.0191 186.463 84.3247 188.066 84.624 189.645L85.6065 189.459C85.307 187.879 85.0013 186.275 84.6893 184.648L83.7072 184.837ZM85.5298 194.453C85.8347 196.082 86.1327 197.685 86.4237 199.262L87.4071 199.08C87.1159 197.502 86.8178 195.899 86.5128 194.269L85.5298 194.453ZM87.3045 204.07C87.6017 205.706 87.8912 207.313 88.1731 208.892L89.1575 208.716C88.8755 207.136 88.5858 205.528 88.2883 203.891L87.3045 204.07ZM89.0262 213.716C89.3133 215.356 89.5917 216.964 89.8615 218.541L90.8472 218.372C90.5771 216.794 90.2985 215.185 90.0113 213.544L89.0262 213.716ZM90.6763 223.362C90.9499 225.002 91.2137 226.606 91.4679 228.176L92.455 228.016C92.2006 226.445 91.9365 224.839 91.6627 223.197L90.6763 223.362ZM92.2391 233.021C92.4971 234.671 92.7438 236.28 92.9793 237.851L93.9683 237.702C93.7324 236.13 93.4854 234.518 93.2271 232.866L92.2391 233.021ZM93.6887 242.693C93.9255 244.352 94.1488 245.963 94.3592 247.529L95.3503 247.396C95.1395 245.827 94.9158 244.213 94.6787 242.552L93.6887 242.693ZM94.9884 252.386C95.1966 254.059 95.3885 255.676 95.5649 257.241L96.5586 257.129C96.3818 255.56 96.1894 253.939 95.9807 252.263L94.9884 252.386ZM96.0798 262.1C96.2464 263.788 96.3928 265.408 96.52 266.966L97.5167 266.885C97.389 265.321 97.2421 263.695 97.075 262.002L96.0798 262.1Z" fill="#0095DA"/>
<path d="M98.9666 280.88L91.642 267.857L103.203 265.917L98.9666 280.88Z" fill="#0095DA"/>
</svg>
