<svg width="49" height="172" viewBox="0 0 49 172" fill="none" xmlns="http://www.w3.org/2000/svg">
<path d="M30.3594 68.704L30.8281 68.8782L30.8461 68.8297L30.8538 68.7786L30.3594 68.704ZM46.8007 93.3777L46.3105 93.4763L46.8007 93.3777ZM0.686645 1.38963C1.34805 1.92156 2.0049 2.44103 2.65648 2.94986L3.27196 2.16171C2.62365 1.65543 1.97058 1.13894 1.31335 0.610374L0.686645 1.38963ZM6.64394 6.00047C8.01269 7.03249 9.34568 8.02908 10.6437 9.01521L11.2487 8.21894C9.94906 7.23163 8.61 6.23045 7.24597 5.202L6.64394 6.00047ZM14.5785 12.0849C15.8946 13.1502 17.1555 14.2226 18.3537 15.3272L19.0315 14.592C17.8137 13.4692 16.5357 12.3826 15.2076 11.3076L14.5785 12.0849ZM21.8335 18.8547C22.9228 20.0836 23.937 21.3731 24.8674 22.7499L25.6959 22.19C24.7388 20.7736 23.6973 19.4497 22.5819 18.1913L21.8335 18.8547ZM27.3294 27.0256C28.0184 28.4506 28.6323 29.9705 29.164 31.6055L30.115 31.2962C29.5695 29.6189 28.9388 28.0569 28.2297 26.5904L27.3294 27.0256ZM30.4098 36.3894C30.7203 37.929 30.9701 39.5606 31.1551 41.2955L32.1494 41.1895C31.9614 39.4259 31.707 37.7636 31.3901 36.1917L30.4098 36.3894ZM31.4944 46.2614C31.5468 47.8376 31.5534 49.4894 31.5119 51.2231L32.5116 51.247C32.5535 49.4957 32.5469 47.8247 32.4939 46.2282L31.4944 46.2614ZM31.2735 56.2188C31.1624 57.8095 31.0158 59.4621 30.8322 61.1803L31.8265 61.2865C32.0113 59.557 32.1591 57.8922 32.2711 56.2885L31.2735 56.2188ZM30.226 66.126C30.1133 66.9467 29.993 67.781 29.865 68.6294L30.8538 68.7786C30.9824 67.926 31.1034 67.0873 31.2167 66.2621L30.226 66.126ZM29.8907 68.5298C29.603 69.3038 29.2987 70.0321 28.9798 70.7157L29.886 71.1384C30.2169 70.4292 30.5315 69.676 30.8281 68.8782L29.8907 68.5298ZM26.584 74.7234C25.5194 76.0997 24.3812 77.1273 23.22 77.8355L23.7406 78.6893C25.021 77.9085 26.2474 76.7931 27.375 75.3352L26.584 74.7234ZM18.943 79.0611C17.4905 79.0321 16.0563 78.5583 14.7268 77.6573L14.1658 78.4851C15.6398 79.484 17.2596 80.0277 18.9231 80.0609L18.943 79.0611ZM11.5666 74.3621C10.7827 73.1762 10.0998 71.7741 9.55645 70.1666L8.60911 70.4868C9.17711 72.1673 9.89616 73.6486 10.7324 74.9135L11.5666 74.3621ZM8.4924 65.5958C8.38536 64.8395 8.30436 64.0543 8.25158 63.2408L7.25368 63.3055C7.30804 64.1435 7.39158 64.9539 7.50227 65.7359L8.4924 65.5958ZM8.25158 63.2408C8.19621 62.3873 8.21522 61.5862 8.30111 60.8394L7.30766 60.7251C7.21441 61.5359 7.19475 62.3971 7.25368 63.3055L8.25158 63.2408ZM9.91676 56.4919C10.844 55.2393 12.1173 54.3446 13.6478 53.849L13.3397 52.8976C11.6218 53.4539 10.1709 54.4679 9.11303 55.8969L9.91676 56.4919ZM18.3332 53.5154C19.781 53.7128 21.3282 54.1631 22.9311 54.8891L23.3437 53.9782C21.6629 53.2169 20.0225 52.7365 18.4682 52.5246L18.3332 53.5154ZM27.1053 57.3477C28.3372 58.2435 29.577 59.2996 30.8061 60.5241L31.5118 59.8156C30.2483 58.5569 28.9694 57.4668 27.6934 56.5389L27.1053 57.3477ZM34.0446 64.193C35.0029 65.4194 35.9435 66.7581 36.8568 68.2131L37.7037 67.6815C36.7729 66.1986 35.8128 64.8317 34.8326 63.5773L34.0446 64.193ZM39.289 72.5043C40.0041 73.9014 40.6939 75.3822 41.3529 76.9488L42.2747 76.5611C41.6063 74.9721 40.906 73.4687 40.1792 72.0487L39.289 72.5043ZM43.1141 81.5648C43.6315 83.0645 44.1218 84.6304 44.5813 86.2639L45.544 85.9931C45.0793 84.3415 44.5833 82.7571 44.0594 81.2386L43.1141 81.5648ZM45.7897 91.0375C45.9704 91.8362 46.1441 92.6491 46.3105 93.4763L47.2909 93.2791C47.1229 92.4442 46.9475 91.6234 46.765 90.8168L45.7897 91.0375ZM46.3105 93.4763C46.4712 94.2752 46.6097 95.0692 46.727 95.8583L47.7162 95.7112C47.5964 94.9054 47.4549 94.0947 47.2909 93.2791L46.3105 93.4763ZM47.1872 100.645C47.2583 102.272 47.2416 103.876 47.1447 105.458L48.1429 105.519C48.2418 103.903 48.2589 102.264 48.1862 100.601L47.1872 100.645ZM46.6043 110.239C46.3417 111.834 46.001 113.404 45.5907 114.948L46.5571 115.205C46.9754 113.631 47.323 112.029 47.591 110.402L46.6043 110.239ZM44.1438 119.547C43.5935 121.062 42.9802 122.55 42.3129 124.011L43.2225 124.426C43.9003 122.943 44.5238 121.43 45.0837 119.888L44.1438 119.547ZM40.1475 128.33C39.3737 129.748 38.554 131.138 37.6975 132.499L38.5438 133.031C39.4105 131.655 40.2409 130.247 41.0253 128.809L40.1475 128.33ZM35.0064 136.521C34.067 137.848 33.0991 139.144 32.1125 140.408L32.9007 141.023C33.8961 139.748 34.8734 138.44 35.8225 137.099L35.0064 136.521ZM29.0538 144.165C27.9933 145.417 26.9234 146.634 25.8553 147.814L26.5967 148.485C27.6713 147.298 28.7485 146.073 29.8169 144.811L29.0538 144.165ZM22.5462 151.371C21.3955 152.577 20.261 153.739 19.1572 154.855L19.8682 155.558C20.975 154.439 22.1139 153.273 23.2698 152.061L22.5462 151.371ZM15.7188 158.297C14.4974 159.514 13.3412 160.665 12.278 161.746L12.991 162.447C14.0498 161.37 15.202 160.223 16.4245 159.006L15.7188 158.297ZM8.91733 165.31C8.33126 165.973 7.80664 166.603 7.35467 167.197L8.15059 167.803C8.58371 167.233 9.09177 166.623 9.66691 165.972L8.91733 165.31Z" fill="#0095DA"/>
<path d="M5.28044 168.652L9.30368 160.855L13.9874 165.9L5.28044 168.652Z" fill="#0095DA"/>
</svg>
