<svg width="48" height="48" viewBox="0 0 48 48" fill="none" xmlns="http://www.w3.org/2000/svg">
<circle opacity="0.2" cx="24" cy="24" r="24" fill="white"/>
<path fill-rule="evenodd" clip-rule="evenodd" d="M14.7644 21.9402C13.487 19.6844 13 17.8659 13 16.6376C13 15.4093 13.3098 15.057 13.6242 14.7724C13.9386 14.4878 15.3563 13.6365 15.5978 13.4777C15.8394 13.3189 16.7613 13.0104 17.3395 13.8204C17.9176 14.6305 19.0063 16.257 19.7569 17.3374C20.9348 18.8679 19.9964 19.5397 19.6933 19.9424C19.1356 20.6833 18.8144 20.8661 18.8144 21.7759C18.8144 22.6858 21.425 25.2707 22.0492 25.9076C22.6687 26.5396 25.2699 28.7607 26.0759 28.8795C26.8876 28.9991 27.9742 28.162 28.2053 27.9498C29.3806 27.0709 30.044 27.7372 30.5853 28.0269C31.1267 28.3165 33.5727 29.8011 34.3306 30.3015C35.044 30.8019 34.9995 31.5753 34.9995 31.5753C34.9995 31.5753 33.5281 33.8499 33.3497 34.1228C33.1268 34.4413 32.5918 34.7142 31.3879 34.7142C30.1841 34.7142 28.8978 34.5001 25.841 32.8626C23.3397 31.5227 20.9554 29.4246 19.7069 28.1963C18.4139 26.968 16.2235 24.5169 14.7644 21.9402Z" fill="white"/>
</svg>
