<svg width="44" height="27" viewBox="0 0 44 27" fill="none" xmlns="http://www.w3.org/2000/svg">
<path fill-rule="evenodd" clip-rule="evenodd" d="M0.646851 26.4048H5.45897V25.1158H2.53737V21.6249H0.646851V26.4048ZM9.21831 24.5894C9.21831 26.104 10.1314 26.5658 12.0646 26.5658C14.0087 26.5658 14.9218 26.104 14.9218 24.5894V21.6249H13.042V24.5143C13.042 25.1265 12.6875 25.3199 12.0646 25.3199C11.4524 25.3199 11.0979 25.1263 11.0979 24.5143V21.6249H9.21831V24.5894ZM23.0956 26.4048H24.9752V21.6249H23.0956V23.2897H20.9689V21.6249H19.0891V26.4048H20.9689V24.4931H23.0956V26.4048ZM30.4961 26.4048H32.3864V22.8279H34.1264V21.6249H28.756V22.8279H30.4961V26.4048ZM40.7318 24.6862H39.5937L40.163 23.0749H40.1737L40.7318 24.6862ZM36.9727 26.4048H38.9817L39.1855 25.857H41.1512L41.3555 26.4048H43.3533L41.3228 21.6251H39.0139L36.9727 26.4048ZM13.4287 8.36003C13.4287 3.82731 17.113 0.143066 21.6564 0.143066C26.1996 0.143066 29.8734 3.82731 29.8734 8.36003C29.8734 12.9035 26.1996 16.5875 21.6564 16.5875C17.1127 16.5875 13.4287 12.9035 13.4287 8.36003Z" fill="black"/>
<path fill-rule="evenodd" clip-rule="evenodd" d="M19.8411 6.10442C20.0344 5.56731 20.6037 4.75102 21.3232 4.81562L19.755 9.53072H25.0182C24.9433 9.89595 24.3199 10.4545 23.2247 10.4545H18.2943L19.8411 6.10442Z" fill="white"/>
</svg>
