<svg width="114" height="52" viewBox="0 0 114 52" fill="none" xmlns="http://www.w3.org/2000/svg">
<path d="M35.3861 49.1847L35.8687 50.6325H36.5121L34.9438 46.0479H34.22L32.6517 50.6325H33.2549L33.7374 49.1847H35.3861ZM33.8983 48.7424L34.3406 47.4152C34.421 47.1337 34.5015 46.8522 34.5819 46.5707C34.6623 46.8522 34.7025 47.0935 34.8232 47.4152L35.2655 48.7424H33.8983ZM51.511 48.0185H49.7417V46.5707H51.6316V46.0881H49.1787V50.6728H51.7523V50.1902H49.7819V48.5413H51.5512V48.0185H51.511ZM52.074 50.6325H52.6771V48.6619C52.6771 48.5815 52.6771 48.4608 52.7173 48.3804C52.7978 48.0587 53.1195 47.7772 53.5216 47.7772C54.0845 47.7772 54.2856 48.2195 54.2856 48.7424V50.6325H54.8888V48.6619C54.8888 47.5359 54.165 47.2543 53.7226 47.2543C53.1999 47.2543 52.7978 47.5359 52.6369 47.8576L52.5967 47.3348H52.074C52.1142 47.6163 52.1142 47.8978 52.1142 48.2195V50.6325H52.074ZM55.5322 46.7718V47.375H55.0094V47.8174H55.5322V49.6271C55.5322 50.0293 55.5724 50.3108 55.7734 50.4717C55.9343 50.6325 56.1353 50.713 56.4168 50.713C56.6581 50.713 56.8189 50.6728 56.9396 50.6325L56.8994 50.1902C56.8189 50.2304 56.7385 50.2304 56.5374 50.2304C56.2158 50.2304 56.0951 49.9891 56.0951 49.5869V47.8174H56.9396V47.375H56.0951V46.6109L55.5322 46.7718ZM59.8348 49.1043C59.8348 49.0641 59.875 48.9434 59.875 48.8228C59.875 48.2195 59.5935 47.2543 58.5078 47.2543C57.5427 47.2543 56.9798 48.0185 56.9798 49.0239C56.9798 50.0293 57.5829 50.6728 58.5882 50.6728C59.111 50.6728 59.4729 50.5521 59.674 50.4717L59.5935 50.0293C59.3523 50.1097 59.111 50.1902 58.6687 50.1902C58.0655 50.1902 57.5427 49.8684 57.5427 49.0641L59.8348 49.1043ZM57.5427 48.7021C57.583 48.3 57.8644 47.7369 58.4676 47.7369C59.1512 47.7369 59.312 48.3402 59.312 48.7021H57.5427ZM60.1967 50.6325H60.7999V48.863C60.7999 48.7826 60.7999 48.6619 60.8401 48.5815C60.9205 48.1391 61.2422 47.8174 61.6443 47.8174C61.7247 47.8174 61.8052 47.8174 61.8454 47.8576V47.2946C61.8052 47.2946 61.765 47.2543 61.6845 47.2543C61.2824 47.2543 60.9205 47.5359 60.7597 47.9782H60.7195L60.6792 47.3348H60.1565C60.1967 47.6163 60.1967 47.9782 60.1967 48.3402V50.6325ZM62.1671 51.9999H62.7703V50.2304C62.9713 50.5521 63.3332 50.7532 63.7755 50.7532C64.5396 50.7532 65.2634 50.1499 65.2634 48.9837C65.2634 47.9782 64.6602 47.2946 63.856 47.2946C63.3332 47.2946 62.9311 47.5359 62.6898 47.938L62.6496 47.375H62.1269C62.1269 47.6967 62.1671 48.0185 62.1671 48.4608V51.9999ZM62.73 48.7424C62.73 48.6619 62.7703 48.5815 62.7703 48.5011C62.8909 48.0587 63.2528 47.7369 63.6549 47.7369C64.2983 47.7369 64.62 48.3 64.62 48.9837C64.62 49.7478 64.2581 50.2706 63.6147 50.2706C63.1724 50.2706 62.8507 49.9891 62.73 49.5869C62.73 49.5065 62.6898 49.426 62.6898 49.3456L62.73 48.7424ZM65.6253 50.6325H66.2285V48.863C66.2285 48.7826 66.2285 48.6619 66.2687 48.5815C66.3491 48.1391 66.6708 47.8174 67.0729 47.8174C67.1533 47.8174 67.2337 47.8174 67.274 47.8576V47.2946C67.2337 47.2946 67.1935 47.2543 67.1131 47.2543C66.711 47.2543 66.3491 47.5359 66.1882 47.9782H66.148L66.1078 47.3348H65.5851C65.6253 47.6163 65.6253 47.9782 65.6253 48.3402V50.6325ZM68.038 50.6325V47.3348H67.4348V50.6325H68.038ZM67.7163 46.0881C67.5152 46.0881 67.3544 46.2489 67.3544 46.45C67.3544 46.6511 67.5152 46.812 67.7163 46.812C67.9576 46.812 68.1184 46.6511 68.1184 46.45C68.1184 46.2489 67.9576 46.0881 67.7163 46.0881ZM68.3999 50.4717C68.6412 50.5923 68.9628 50.713 69.3247 50.713C70.0888 50.713 70.5713 50.3108 70.5713 49.7076C70.5713 49.225 70.2898 48.9434 69.6867 48.7021C69.2443 48.5413 69.0433 48.4206 69.0433 48.1391C69.0433 47.8978 69.2443 47.6967 69.6062 47.6967C69.8877 47.6967 70.129 47.8174 70.2898 47.8978L70.4507 47.4554C70.2898 47.3348 69.9681 47.2543 69.6464 47.2543C68.9226 47.2543 68.5205 47.6967 68.5205 48.2195C68.5205 48.6217 68.802 48.9434 69.4052 49.1445C69.8475 49.3054 70.0083 49.4663 70.0083 49.7478C70.0083 50.0293 69.8073 50.2304 69.365 50.2304C69.0835 50.2304 68.7618 50.1097 68.6009 49.9891L68.3999 50.4717ZM73.547 49.1043C73.547 49.0641 73.5872 48.9434 73.5872 48.8228C73.5872 48.2195 73.3057 47.2543 72.22 47.2543C71.2549 47.2543 70.6919 48.0185 70.6919 49.0239C70.6919 50.0293 71.2951 50.6728 72.3004 50.6728C72.8232 50.6728 73.1851 50.5521 73.3861 50.4717L73.3057 50.0293C73.0644 50.1097 72.8232 50.1902 72.3808 50.1902C71.7777 50.1902 71.2549 49.8684 71.2549 49.0641L73.547 49.1043ZM71.2549 48.6619C71.2951 48.2598 71.5766 47.6967 72.1798 47.6967C72.8634 47.6967 73.0242 48.3 73.0242 48.6619H71.2549ZM39.1258 50.6325H40.1713V46.9326H41.4179V46.0479H37.9195V46.9326H39.166L39.1258 50.6325ZM43.348 49.4663L43.7099 50.6325H44.8359L43.3882 46.0479H42.021L40.6136 50.6325H41.6994L42.021 49.4663H43.348ZM42.1819 48.7021L42.4634 47.7369C42.5438 47.4554 42.6242 47.1337 42.6644 46.8522H42.7046C42.7851 47.1337 42.8655 47.4554 42.9459 47.7369L43.2274 48.7021H42.1819ZM46.3639 48.9434C46.3639 49.6673 46.0824 49.8282 45.6401 49.8282C45.439 49.8282 45.238 49.788 45.1173 49.7478L44.9967 50.5923C45.1978 50.6728 45.5195 50.713 45.7607 50.713C46.766 50.713 47.3692 50.2706 47.3692 48.9434V46.0479H46.3237L46.3639 48.9434Z" fill="black"/>
<path d="M84.6455 29.157C84.6455 32.3341 83.9217 34.8677 82.4339 36.7981C80.9461 38.7285 78.7344 40.1763 75.8392 41.1817L74.8339 39.2916C75.6381 38.809 76.2815 38.2459 76.8043 37.6427C77.327 37.0394 77.7291 36.396 77.9704 35.7123C78.2519 34.9884 78.4529 34.2645 78.5334 33.5004C78.654 32.6961 78.6942 31.8515 78.6942 30.9667V0.723898H84.6053V29.157H84.6455ZM64.5799 18.2181L60.1566 4.98685L55.5725 18.2181H64.5799ZM68.9228 31.4091L65.5048 21.0735L54.527 21.2343L50.9884 31.3689H47.2487L58.7894 0.965197L64.5397 0L75.2762 31.4091H68.9228ZM31.8476 31.4091V3.94122L22.9207 3.82057L23.2021 0.764114H46.7662L46.4847 3.74014L37.799 3.94122V31.4091H31.8476Z" fill="black"/>
<path d="M0 23.9288C51.672 17.4941 100.328 14.0757 114 30.7656C86.9778 19.2636 41.8201 22.8831 0 23.9288Z" fill="black"/>
<path d="M22.0762 42.7502V33.7417H25.454C26.0572 33.7417 26.4995 33.7819 26.8212 33.8221C27.2635 33.9026 27.6254 34.0232 27.9471 34.2243C28.2286 34.4254 28.4699 34.7471 28.6709 35.1091C28.872 35.471 28.9524 35.8732 28.9524 36.3558C28.9524 37.1199 28.7112 37.7634 28.2286 38.2862C27.7461 38.809 26.8614 39.0905 25.5746 39.0905H23.2826V42.7502H22.0762ZM23.2424 38.0449H25.5746C26.3387 38.0449 26.9016 37.9242 27.2233 37.6025C27.545 37.321 27.7059 36.9188 27.7059 36.396C27.7059 36.034 27.6254 35.7123 27.4244 35.4308C27.2233 35.1493 26.9821 34.9884 26.6604 34.908C26.4593 34.8678 26.0974 34.8275 25.5344 34.8275H23.2424V38.0449ZM30.4805 42.7502V33.7417H31.6868V37.4416H36.3514V33.7417H37.5577V42.7502H36.3514V38.5275H31.6868V42.7502H30.4805ZM38.5228 42.7502L41.981 33.7417H43.308L46.9672 42.7502H45.6L44.5545 40.0155H40.7746L39.7694 42.7502H38.5228ZM41.1366 39.0503H44.1926L43.2678 36.5569C42.9863 35.7927 42.745 35.1895 42.6244 34.6667C42.5037 35.2699 42.3429 35.833 42.1016 36.396L41.1366 39.0503ZM47.9323 42.7502V33.7417H51.9133C52.7175 33.7417 53.3207 33.8221 53.763 33.983C54.1651 34.1439 54.527 34.4254 54.7683 34.8275C55.0096 35.2297 55.1302 35.7123 55.1302 36.1949C55.1302 36.8384 54.9291 37.3612 54.527 37.8036C54.1249 38.246 53.4815 38.5275 52.5969 38.6481C52.9186 38.809 53.1598 38.9296 53.3207 39.0905C53.6424 39.4122 54.0043 39.8144 54.326 40.297L55.8942 42.7502H54.4064L53.2 40.86C52.8381 40.3372 52.5567 39.8948 52.3556 39.6133C52.1143 39.3318 51.9133 39.1307 51.7524 39.0101C51.5916 38.8894 51.3905 38.809 51.1895 38.7688C51.0688 38.7286 50.8276 38.7286 50.5461 38.7286H49.1789V42.71L47.9323 42.7502ZM49.0985 37.7231H51.6318C52.1947 37.7231 52.5969 37.6829 52.9186 37.5623C53.2 37.4818 53.4413 37.2808 53.6022 37.0395C53.763 36.7982 53.8434 36.5166 53.8434 36.2351C53.8434 35.7927 53.6826 35.471 53.3609 35.1895C53.0794 34.908 52.5567 34.7873 51.9133 34.7873H49.0582V37.7231H49.0985ZM56.9397 42.7502V33.7417H58.709L60.8403 40.1361C61.0413 40.7394 61.1619 41.1818 61.2826 41.4633C61.363 41.1415 61.5641 40.6589 61.7651 40.0155L63.9366 33.7819H65.545V42.7904H64.4191V35.2297L61.8053 42.7502H60.7196L58.1059 35.0688V42.7502H56.9397ZM66.4297 42.7502L69.8879 33.7417H71.2149L74.8741 42.7502H73.5069L72.4614 40.0155H68.6815L67.6762 42.7502H66.4297ZM69.0434 39.0503H72.0995L71.1746 36.5569C70.8932 35.7927 70.6519 35.1895 70.5313 34.6667C70.4106 35.2699 70.2498 35.833 70.0085 36.396L69.0434 39.0503Z" fill="black"/>
</svg>
