<svg width="94" height="31" viewBox="0 0 94 31" fill="none" xmlns="http://www.w3.org/2000/svg">
<g clip-path="url(#clip0)">
<path d="M36.0972 27.037C32.5995 24.7687 27.8526 24.3707 20.1972 26.5088C12.036 28.4395 9.31497 29.6771 5.74144 27.1926C4.36857 25.9722 3.87636 24.0071 4.2439 21.1766C5.09636 16.5623 7.40007 12.1218 11.4921 7.19616C13.7761 4.63389 15.8948 2.43498 18.6924 1.55198C20.8365 0.998057 20.6361 2.69438 20.3767 2.93698C20.1029 2.93698 19.643 2.98039 19.2875 3.21388C18.9991 3.43909 18.2072 4.16631 18.1647 5.14452C18.1034 6.642 19.6427 6.33032 20.3067 5.50813C21.0224 4.5816 22.0802 2.80734 21.2481 1.15372C20.8994 0.565136 20.2969 0.158356 19.5487 0.0198444C16.987 -0.127538 14.6013 1.10179 12.3993 2.46088C7.58396 5.82832 3.73195 10.4944 1.55233 15.6019C0.295783 18.6836 -0.840676 23.098 0.862721 26.6909C2.1806 29.1838 4.91635 30.508 8.18039 30.2311C10.4696 29.989 13.2378 29.2442 15.0996 28.7944C16.9615 28.3439 26.4917 25.0461 29.6231 30.7859C29.6231 30.7859 30.6644 28.751 33.2666 28.7076C35.4061 28.5089 38.4926 29.3311 40.7401 30.9929C39.9913 29.8592 37.8683 28.1885 36.0972 27.037Z" fill="#E61A27"/>
<path d="M21.169 7.77568C19.3865 6.5984 15.804 8.84911 12.9345 12.7098C10.3105 16.1728 9.17743 20.1977 10.4106 22.0589C12.2448 24.2489 15.65 21.0634 17.0981 19.3583L17.2849 19.159C18.2697 18.0942 19.0304 16.813 19.7669 15.5835C19.7669 15.5835 20.4437 14.4582 20.476 14.4061C20.8943 14.3285 21.3981 14.2073 21.9659 14.0427C21.9578 14.0685 19.7937 17.7304 20.0145 19.5479C20.0832 20.1025 20.0308 22.1281 21.9953 22.7426C24.6136 23.1844 26.7044 21.1411 28.549 19.3232C28.549 19.3232 28.8633 19.0205 29.041 18.8477C28.996 19.0289 28.9374 19.2708 28.9374 19.2708C28.1708 21.9544 29.2041 22.5176 29.8505 22.7253C31.8039 23.2971 34.1376 20.4402 34.1452 20.4402C34.0846 21.3401 33.9078 22.0844 34.8501 22.6819C35.7395 23.0024 36.6396 22.5137 37.324 22.0549C39.7885 20.3064 41.774 17.5695 43.3777 15.2039H42.3547C42.3426 15.2039 39.8306 18.8693 38.1993 19.666C38.1968 19.666 37.8998 19.8194 37.7289 19.698C37.517 19.5162 37.6006 19.1381 37.7313 18.8703C37.7396 18.8529 44.0298 7.87031 44.0298 7.87031H41.0599C41.0599 7.87031 40.7355 8.39869 40.709 8.43334C40.6891 8.41607 40.6415 8.32523 40.6086 8.2817C38.7685 5.71943 34.6016 9.66066 31.4645 14.2312C30.2567 15.9886 28.719 17.9674 27.1245 19.3957C27.1245 19.3957 24.7623 21.5755 23.7531 20.0094C23.3841 19.3514 23.4976 18.3893 23.7057 17.7576C24.8808 14.39 26.9057 11.3339 29.21 9.48998C29.8604 8.97958 30.5675 8.83196 30.9182 9.04842C31.2526 9.24785 31.3066 9.74086 31.0951 10.0786C30.5584 10.0613 30.1284 10.2255 29.7789 10.5891C29.0904 11.3163 28.8512 12.0176 29.0701 12.6756C30.1336 14.1991 32.2545 11.1865 32.152 9.35135C32.1153 8.69333 31.7667 8.07021 31.2462 7.76693C30.4705 7.29971 29.2873 7.42071 28.5216 7.79319C27.4964 8.18258 25.8738 9.54155 24.9267 10.5978C23.7343 11.9225 21.6892 13.394 21.0497 13.2292C21.2588 12.6664 22.9861 9.10863 21.169 7.77568ZM35.4877 13.0389C36.0654 12.2339 37.747 10.0783 38.1569 9.71484C39.5357 8.49379 40.0867 9.03104 40.1345 9.41167C38.8477 11.7316 37.329 14.3893 35.9012 16.7787C35.9041 16.7702 35.4543 17.4625 35.4543 17.4625C34.8237 18.4317 34.1887 19.2629 33.153 19.8427C33.0053 19.8864 32.7618 19.9037 32.5998 19.782C32.4047 19.6522 32.3278 19.4357 32.3497 19.2106C32.4119 18.4664 33.1646 16.1901 35.4877 13.0389ZM19.3308 14.4325C19.3308 14.4325 19.3049 14.5107 19.2922 14.5362C19.2889 14.5362 17.9972 16.6568 17.9972 16.6568C17.2177 17.7045 16.2445 19.0206 15.0279 19.6523C14.6673 19.7734 14.1687 19.8516 13.9147 19.5315C13.3762 18.8821 13.6537 17.9817 13.8792 17.2548L13.9591 16.995C14.6056 15.2293 15.6312 13.6707 16.6298 12.2251C16.6422 12.2166 16.6702 12.2079 16.6803 12.2079C16.6827 12.2166 16.6867 12.2166 16.6884 12.2339C17.3149 13.4456 18.4897 14.0081 19.3682 14.2682C19.3735 14.2682 19.3792 14.2768 19.3792 14.2942C19.3794 14.32 19.365 14.3549 19.3308 14.4325ZM20.5545 11.931C20.5487 11.9483 19.9792 13.2641 19.9792 13.2641C19.8968 13.3333 19.7666 13.2987 19.6174 13.2641L19.3617 13.2206C18.5589 12.9697 17.9533 12.4329 17.7666 11.7924C17.5091 10.5458 18.567 9.56757 19.033 9.21284C19.4802 8.90092 20.1754 8.73651 20.5792 9.05694C20.8281 9.35135 20.9225 9.73211 20.9225 10.1479C20.9226 10.7103 20.7501 11.3422 20.5545 11.931ZM58.1004 15.9474C57.814 15.3242 57.1342 14.926 56.4097 14.9692C54.057 15.1857 51.7558 17.1334 50.5474 19.9293C49.9134 21.3665 49.5674 22.5523 49.3405 24.4394C50.0721 23.5913 51.5644 22.1976 53.2578 21.4358C53.2578 21.4358 53.4882 19.6266 54.6632 18.0164C55.1078 17.3496 55.9975 16.2763 56.9966 16.5619C57.8697 16.8563 57.5628 19.2889 56.4026 21.643C55.5441 23.3746 54.2305 25.1064 52.9013 26.3007C51.7262 27.3048 49.9875 28.5167 48.4664 27.5819C47.5083 27.0109 47.0196 25.8158 47.1228 24.2751C47.5805 19.9036 49.5574 16.1812 52.3862 11.9395C55.303 8.00078 58.5183 3.95817 62.8497 1.80232C63.7332 1.35224 64.5513 1.24839 65.2585 1.52541C65.2585 1.52541 61.1926 3.77613 59.2544 7.9401C58.7614 8.99638 58.0756 10.4243 58.7662 11.6883C59.127 12.3461 59.7676 12.3981 60.2836 12.3635C62.6593 11.8093 64.1942 9.57597 65.4483 7.5332C66.1754 5.98367 66.8216 4.44278 66.8216 2.72872C66.8216 2.52101 66.8109 2.24411 66.7936 2.03616C67.9285 1.43043 70.256 2.50362 70.256 2.50362C72.0748 3.10983 75.9475 6.09652 77.2539 6.66759C77.8911 5.92323 78.9382 4.79799 79.528 4.23519L78.6743 3.70705C77.3078 2.86735 75.8634 2.07082 74.4417 1.28316C71.213 -0.491221 68.5847 0.131901 67.2472 0.61675C66.7215 0.807069 66.2412 0.971603 66.2412 0.971603C65.2486 -0.119098 63.6205 -0.015481 62.4209 0.279047C58.107 1.52553 54.1018 4.5639 49.8078 9.83596C46.6508 13.9653 44.6925 17.5319 43.6488 21.055C42.8442 23.4268 42.5997 26.9154 44.5634 28.9844C46.2329 30.7413 48.4468 30.3607 50.01 29.729C53.3971 28.0496 56.4415 24.431 57.9584 20.267C58.3245 19.0293 58.7307 17.2807 58.1004 15.9474ZM65.8892 2.90201C65.4408 8.07873 61.4436 11.1175 60.4544 11.3595C59.8551 11.4805 58.8323 11.2123 59.7454 9.03979C61.0899 6.11355 63.3855 3.62934 65.8483 2.35671C65.9083 2.57318 65.9067 2.71133 65.8892 2.90201ZM89.6004 3.55967C87.4503 4.78912 85.2213 5.58529 82.5233 5.30839C81.7756 6.15696 81.0475 7.0312 80.3764 7.93134C84.1633 8.90092 88.178 6.74542 90.4171 4.69402C92.7857 2.62498 94.0002 0.0195312 94.0002 0.0195312C94.0002 0.0195312 92.2248 2.0623 89.6004 3.55967ZM48.9659 7.87055H46.1454L44.5545 10.4728H47.3743L48.9659 7.87055Z" fill="#E61A27"/>
<path d="M82.512 27.2776C82.2088 27.4854 81.7827 27.3257 81.9419 26.8497C82.3388 25.6378 83.9164 23.168 83.9164 23.168L88.3104 15.3226H85.3007C85.1575 15.5592 84.8517 16.1024 84.8517 16.1024C84.7125 15.8689 84.296 15.3497 84.1246 15.2375C83.3893 14.7697 82.3105 14.9908 81.5663 15.4149C78.3305 17.3196 75.9695 21.0829 74.1075 24.0176C74.1075 24.0176 72.1475 27.2799 71.0596 27.5225C70.2102 27.5918 70.2978 26.44 70.3346 26.1716C70.663 24.2322 71.4257 22.3885 72.194 20.7177C73.757 19.627 75.5405 18.1987 77.1614 16.6319C80.6792 13.2469 83.6447 9.41196 84.0782 8.55499C84.0782 8.55499 83.609 8.65032 83.055 8.66747C80.3488 12.4677 74.8108 17.9909 73.1318 18.8131C73.8756 17.0121 78.6811 8.41636 82.7703 4.30455L83.4139 3.68107C84.409 2.70286 85.4399 1.69874 86.2434 1.53421C86.3282 1.52557 86.4375 1.53421 86.5318 1.73364C86.5677 2.49527 86.286 3.05807 85.9629 3.69858L85.51 4.63362C85.51 4.63362 86.1515 4.51238 86.5728 4.37351C87.0615 3.4477 87.603 2.40857 87.4033 1.17096C87.3368 0.772693 87.0504 0.469766 86.6761 0.400452C85.4562 0.166721 84.1268 1.07538 83.057 1.81147L83.0139 1.83725C77.5147 6.17427 72.8712 12.4244 68.8113 20.96C68.5171 21.1847 67.3803 21.4533 67.1871 21.3233C67.588 20.4925 68.0928 19.3755 68.3453 18.1636C68.389 17.8171 68.4297 17.4625 68.4297 17.1163C68.4297 16.3712 68.252 15.6703 67.5891 15.1858C66.8117 14.7961 65.8509 14.9781 65.203 15.2721C62.3011 16.4841 60.1322 19.4795 58.567 21.9463C57.7252 23.5136 56.8859 25.1922 56.6535 27.1143C56.4898 28.6203 56.8231 29.59 57.6738 30.0748C58.5484 30.5247 59.6494 30.0571 60.0819 29.8322C63.0219 28.274 65.0761 25.1491 66.6953 22.2923C66.7597 22.2838 67.6437 22.258 68.3125 22.0846C68.3214 22.0846 68.3251 22.0846 68.3399 22.0936C68.3016 22.223 67.956 23.2621 67.956 23.2621C66.9298 26.2916 66.4552 28.3521 67.4246 29.5726C68.8098 31.2953 71.1032 29.5123 72.9687 27.1572C72.5683 29.9791 74.021 30.4209 75.1286 30.2047C76.4008 29.8586 77.8184 28.4905 78.4763 27.7896C78.265 28.6118 78.3224 30.0837 79.4797 30.2306C80.2729 30.3782 80.8666 29.9439 81.5534 29.5715C84.0172 28.221 86.9666 23.7206 87.7323 22.4195H86.7283C85.6397 24.0758 84.2544 26.247 82.512 27.2776ZM60.3965 26.9763C60.2402 26.7424 60.1884 26.4869 60.1832 26.2106C60.1532 24.5131 61.9674 21.4734 63.2478 19.8174H63.2505C63.787 21.0003 65.0022 21.7606 65.7358 22.0811C64.8248 24.1242 61.7001 28.4998 60.3965 26.9763ZM66.2501 21.1677C66.1634 21.2287 64.631 20.709 64.3348 19.2807C64.0836 18.051 64.9248 17.0902 65.7386 16.6059C66.0879 16.3286 66.6141 16.2338 67.0001 16.3717C67.3583 16.6145 67.4554 17.0477 67.4554 17.5143C67.4554 17.8006 67.4177 18.0946 67.3844 18.3629L67.3771 18.4237C67.1205 19.3834 66.7417 20.3057 66.2501 21.1677ZM78.5402 26.431C78.5389 26.431 78.2494 26.6906 78.2494 26.6906C77.836 27.0627 77.4107 27.4609 76.8972 27.2617C76.7554 27.2099 76.6556 27.0196 76.6316 26.8719C76.6083 25.8071 77.0845 24.8205 77.5465 23.8597L77.6649 23.6086C78.9936 21.3752 80.538 18.7437 82.8063 16.9173C83.1885 16.6397 83.6033 16.4065 84.0411 16.5884C84.1418 16.6835 84.259 16.848 84.259 17.0123C84.259 17.0645 84.213 17.2029 84.1865 17.2461C83.553 18.2767 82.9497 19.3585 82.3631 20.3973C81.2165 22.4489 80.027 24.5694 78.5402 26.431Z" fill="#E61A27"/>
</g>
<defs>
<clipPath id="clip0">
<rect width="94" height="31" fill="white"/>
</clipPath>
</defs>
</svg>
