<svg width="73" height="45" viewBox="0 0 73 45" fill="none" xmlns="http://www.w3.org/2000/svg">
<g clip-path="url(#clip0)">
<path d="M1.52588e-05 2.26025H21.9377V44.9989H1.52588e-05V2.26025Z" fill="#36388D"/>
<path d="M23.0725 0.000976562H45.0102V42.7396H23.0725V0.000976562Z" fill="#A8312F"/>
<path d="M46.1453 1.88403H73V44.6227H46.1453V1.88403Z" fill="#36388D"/>
<path d="M8.32132 9.43832C8.32132 9.43832 12.8129 9.32047 12.8366 15.0395V14.7099C12.8366 20.5936 8.32132 20.3111 8.32132 20.3111V9.43832ZM1.9056 41.3981H8.32132V26.7127C8.32132 26.7127 19.6683 26.4225 19.6683 15.3769V14.7375C19.6683 3.69197 8.32132 3.40173 8.32132 3.40173L1.8914 3.38994L1.9056 41.3981ZM71.4635 19.9582H59.7617V26.7127H65.4354C65.4354 26.7127 66.1683 36.1501 59.9982 36.1501C59.9982 36.1501 54.0407 36.6208 54.0407 23.5826C54.0407 23.5826 53.5205 9.3208 60.9435 9.3208C60.9435 9.3208 63.0712 9.08544 64.6315 11.6744L65.6008 13.1805L70.5415 9.46222L68.6975 6.87357C68.6975 6.87357 65.246 3.01417 61.0855 3.01417C61.0855 3.01417 47.6582 2.91989 47.6582 23.3951C47.6582 23.3951 47.7055 42.8817 60.5183 42.8817C60.5183 42.8817 71.4402 42.9288 71.4402 27.2548L71.4635 19.9582ZM30.8266 23.1587C36.5002 28.8384 36.1691 31.2546 36.1691 31.2546C36.1691 35.9615 31.11 35.7262 31.11 35.7262C28.3203 35.7262 25.7201 32.7607 25.7201 32.7607V39.8681C29.6445 42.1274 32.1974 41.7506 32.1974 41.7506C43.3083 41.7506 42.6934 30.8307 42.6934 30.8307C42.6934 24.9002 36.3105 19.1579 36.3105 19.1579C36.3105 19.1579 31.7716 14.9217 31.7716 12.3327C31.7716 12.3327 31.3934 8.2376 36.2631 8.2376C36.2631 8.2376 38.2492 7.9551 40.8021 10.8734V4.1425C40.8021 4.1425 38.769 2.58924 34.6559 2.58924C34.6559 2.58924 25.2946 2.21279 25.2946 12.2384C25.295 12.2388 25.0024 17.3285 30.8266 23.1587Z" fill="white"/>
</g>
<defs>
<clipPath id="clip0">
<rect width="73" height="45" fill="white"/>
</clipPath>
</defs>
</svg>
