<svg width="45" height="44" viewBox="0 0 45 44" fill="none" xmlns="http://www.w3.org/2000/svg">
<path d="M22.75 0C10.5997 0 0.75 9.8497 0.75 22C0.75 34.1503 10.5997 44 22.75 44C34.9003 44 44.75 34.1503 44.75 22C44.75 9.8497 34.9003 0 22.75 0ZM31.1431 11.2037L28.1002 11.205C25.7141 11.205 25.2527 12.3389 25.2527 14.0026V17.6711H30.9428L30.9401 23.417H25.2532V38.1623H19.3182V23.417H14.3569V17.6711H19.3182V13.4336C19.3182 8.51597 22.3228 5.83771 26.7093 5.83771L31.1435 5.84446V11.2037H31.1431Z" fill="white"/>
</svg>
