<svg width="194" height="392" viewBox="0 0 194 392" fill="none" xmlns="http://www.w3.org/2000/svg">
<path d="M172 175.5L172.376 175.83L172 175.5ZM102 133L101.521 132.858L102 133ZM185 159.323L184.527 159.485L185 159.323ZM9.00058 383.5L13.9715 386.437L14.0292 380.664L9.00058 383.5ZM16.547 383.398C18.0623 383.127 19.7105 382.772 21.4791 382.336L21.2396 381.365C19.4885 381.797 17.8617 382.147 16.3709 382.414L16.547 383.398ZM26.3053 381.028C27.826 380.583 29.4131 380.089 31.0609 379.547L30.7484 378.597C29.1102 379.136 27.5336 379.626 26.0241 380.069L26.3053 381.028ZM35.8144 377.909C37.362 377.353 38.9528 376.76 40.5831 376.131L40.2229 375.198C38.5997 375.825 37.0162 376.415 35.4763 376.968L35.8144 377.909ZM45.1909 374.296C46.7093 373.674 48.2564 373.022 49.8295 372.342L49.4326 371.424C47.8653 372.102 46.3241 372.751 44.8116 373.371L45.1909 374.296ZM54.4331 370.302C55.9241 369.626 57.4349 368.925 58.9632 368.201L58.5349 367.297C57.0115 368.019 55.5059 368.718 54.02 369.392L54.4331 370.302ZM63.5208 365.994C64.9885 365.269 66.4699 364.522 67.9633 363.755L67.5063 362.865C66.0175 363.63 64.5407 364.375 63.0777 365.098L63.5208 365.994ZM72.4525 361.404C73.9 360.631 75.3568 359.84 76.8214 359.03L76.3373 358.155C74.8772 358.962 73.4248 359.751 71.9817 360.522L72.4525 361.404ZM81.2302 356.547C82.6587 355.728 84.0931 354.892 85.5319 354.038L85.0216 353.178C83.5871 354.029 82.1571 354.863 80.7329 355.679L81.2302 356.547ZM89.8532 351.429C91.2623 350.564 92.6743 349.683 94.0878 348.785L93.5517 347.941C92.1424 348.836 90.7348 349.715 89.3299 350.577L89.8532 351.429ZM98.3169 346.053C99.7045 345.141 101.092 344.214 102.48 343.271L101.917 342.444C100.535 343.384 99.1511 344.308 97.7678 345.217L98.3169 346.053ZM106.612 340.415C107.975 339.457 109.336 338.483 110.694 337.496L110.106 336.687C108.752 337.672 107.396 338.642 106.037 339.597L106.612 340.415ZM114.725 334.512C116.06 333.507 117.39 332.487 118.715 331.454L118.1 330.665C116.779 331.695 115.454 332.711 114.124 333.713L114.725 334.512ZM122.639 328.337C123.94 327.285 125.235 326.219 126.522 325.14L125.88 324.373C124.597 325.449 123.307 326.511 122.01 327.56L122.639 328.337ZM130.331 321.885C131.593 320.787 132.846 319.675 134.089 318.55L133.419 317.809C132.18 318.929 130.931 320.037 129.674 321.131L130.331 321.885ZM137.777 315.148C138.995 314.002 140.202 312.843 141.398 311.671L140.698 310.956C139.507 312.124 138.305 313.278 137.092 314.42L137.777 315.148ZM144.947 308.118C146.117 306.922 147.274 305.713 148.417 304.491L147.687 303.807C146.549 305.024 145.397 306.228 144.232 307.419L144.947 308.118ZM151.807 300.786C152.923 299.538 154.025 298.277 155.111 297.003L154.35 296.355C153.269 297.622 152.173 298.877 151.062 300.12L151.807 300.786ZM158.32 293.144C159.376 291.843 160.415 290.528 161.436 289.201L160.644 288.592C159.628 289.912 158.594 291.219 157.544 292.514L158.32 293.144ZM164.445 285.183C165.432 283.828 166.399 282.46 167.347 281.081L166.523 280.514C165.58 281.887 164.618 283.246 163.637 284.594L164.445 285.183ZM170.131 276.899C171.039 275.492 171.927 274.072 172.792 272.639L171.935 272.122C171.076 273.546 170.194 274.958 169.291 276.357L170.131 276.899ZM175.323 268.297C176.144 266.837 176.941 265.365 177.714 263.881L176.827 263.419C176.059 264.893 175.267 266.356 174.451 267.807L175.323 268.297ZM179.961 259.384C180.685 257.873 181.383 256.35 182.055 254.815L181.139 254.414C180.472 255.939 179.779 257.451 179.06 258.952L179.961 259.384ZM183.987 250.177C184.603 248.62 185.192 247.05 185.752 245.469L184.809 245.135C184.253 246.705 183.669 248.263 183.057 249.809L183.987 250.177ZM187.339 240.702C187.838 239.105 188.307 237.496 188.745 235.876L187.78 235.615C187.345 237.223 186.88 238.819 186.385 240.404L187.339 240.702ZM189.964 230.995C190.337 229.369 190.678 227.731 190.987 226.082L190.004 225.898C189.698 227.533 189.359 229.158 188.99 230.772L189.964 230.995ZM191.817 221.101C192.057 219.458 192.264 217.804 192.439 216.139L191.444 216.035C191.271 217.686 191.065 219.327 190.827 220.957L191.817 221.101ZM192.862 211.113C192.968 209.454 193.041 207.784 193.08 206.105L192.08 206.081C192.041 207.747 191.969 209.403 191.864 211.049L192.862 211.113ZM193.094 201.078C193.065 199.407 193.002 197.726 192.905 196.035L191.907 196.093C192.003 197.77 192.066 199.438 192.094 201.096L193.094 201.078ZM192.521 191.056C192.359 189.388 192.163 187.71 191.933 186.023L190.942 186.159C191.171 187.832 191.365 189.497 191.525 191.153L192.521 191.056ZM191.165 181.095C190.879 179.458 190.56 177.813 190.208 176.161L189.23 176.369C189.58 178.01 189.896 179.643 190.18 181.267L191.165 181.095ZM189.062 171.226C188.662 169.635 188.231 168.037 187.769 166.432L186.808 166.709C187.267 168.303 187.695 169.89 188.092 171.469L189.062 171.226ZM186.287 161.595C186.024 160.785 185.753 159.974 185.473 159.16L184.527 159.485C184.805 160.293 185.074 161.099 185.336 161.904L186.287 161.595ZM185.473 159.16C185.199 158.361 184.923 157.572 184.646 156.792L183.704 157.127C183.98 157.903 184.254 158.689 184.527 159.485L185.473 159.16ZM182.971 152.238C182.373 150.668 181.77 149.142 181.163 147.661L180.238 148.04C180.842 149.514 181.442 151.031 182.037 152.594L182.971 152.238ZM179.269 143.214C178.589 141.676 177.903 140.19 177.213 138.756L176.312 139.189C176.997 140.614 177.678 142.09 178.355 143.618L179.269 143.214ZM175.007 134.373C174.227 132.891 173.442 131.471 172.652 130.111L171.788 130.613C172.57 131.961 173.349 133.369 174.122 134.839L175.007 134.373ZM170.117 125.969C169.197 124.544 168.271 123.196 167.341 121.921L166.533 122.511C167.451 123.769 168.367 125.102 169.278 126.512L170.117 125.969ZM164.316 118.05C163.221 116.744 162.122 115.534 161.02 114.417L160.308 115.119C161.39 116.216 162.471 117.406 163.55 118.692L164.316 118.05ZM157.416 111.094C156.094 109.992 154.769 109.015 153.446 108.156L152.902 108.995C154.19 109.831 155.482 110.784 156.776 111.862L157.416 111.094ZM149.12 105.755C147.57 105.038 146.027 104.474 144.495 104.051L144.229 105.014C145.707 105.423 147.199 105.968 148.7 106.663L149.12 105.755ZM139.615 103.162C137.941 103.012 136.29 103.023 134.668 103.175L134.762 104.171C136.324 104.024 137.915 104.014 139.526 104.158L139.615 103.162ZM129.797 104.069C128.205 104.504 126.653 105.07 125.147 105.745L125.557 106.658C127.018 106.002 128.522 105.455 130.061 105.034L129.797 104.069ZM120.795 108.074C119.402 108.942 118.062 109.9 116.779 110.93L117.405 111.709C118.659 110.703 119.967 109.768 121.324 108.922L120.795 108.074ZM113.113 114.215C111.942 115.381 110.837 116.602 109.805 117.858L110.578 118.493C111.59 117.262 112.672 116.066 113.819 114.924L113.113 114.215ZM106.871 121.811C105.938 123.206 105.095 124.622 104.35 126.035L105.235 126.501C105.963 125.12 106.788 123.734 107.702 122.367L106.871 121.811ZM102.315 130.517C102.015 131.307 101.749 132.088 101.521 132.858L102.479 133.142C102.701 132.398 102.958 131.64 103.249 130.872L102.315 130.517ZM101.521 132.858C101.28 133.668 101.079 134.494 100.917 135.332L101.899 135.521C102.055 134.714 102.248 133.921 102.479 133.142L101.521 132.858ZM100.404 140.381C100.376 142.044 100.477 143.737 100.698 145.445L101.69 145.317C101.475 143.653 101.377 142.009 101.404 140.398L100.404 140.381ZM101.662 150.409C102.075 152.017 102.584 153.627 103.182 155.227L104.119 154.877C103.533 153.308 103.034 151.732 102.63 150.16L101.662 150.409ZM105.176 159.863C105.906 161.363 106.71 162.844 107.583 164.296L108.44 163.781C107.582 162.353 106.792 160.898 106.075 159.425L105.176 159.863ZM110.36 168.503C111.343 169.863 112.385 171.186 113.482 172.463L114.24 171.811C113.162 170.556 112.137 169.255 111.171 167.917L110.36 168.503ZM116.928 176.145C118.133 177.326 119.387 178.45 120.685 179.509L121.317 178.734C120.044 177.695 118.812 176.591 117.628 175.43L116.928 176.145ZM124.747 182.508C126.161 183.446 127.613 184.305 129.099 185.073L129.558 184.185C128.106 183.434 126.685 182.594 125.3 181.675L124.747 182.508ZM133.723 187.123C135.316 187.713 136.937 188.196 138.579 188.559L138.795 187.582C137.2 187.23 135.623 186.761 134.07 186.185L133.723 187.123ZM143.597 189.278C145.278 189.388 146.972 189.365 148.672 189.197L148.574 188.202C146.93 188.364 145.29 188.387 143.662 188.281L143.597 189.278ZM153.66 188.281C155.255 187.849 156.848 187.28 158.432 186.565L158.02 185.653C156.484 186.347 154.942 186.898 153.398 187.316L153.66 188.281ZM162.894 184.138C164.26 183.263 165.615 182.271 166.954 181.154L166.313 180.386C165.005 181.477 163.685 182.444 162.355 183.295L162.894 184.138ZM170.641 177.716C171.223 177.113 171.802 176.485 172.376 175.83L171.624 175.17C171.06 175.814 170.492 176.43 169.921 177.021L170.641 177.716ZM172.376 175.83C172.936 175.192 173.48 174.546 174.01 173.893L173.234 173.263C172.712 173.906 172.175 174.542 171.624 175.17L172.376 175.83ZM177.018 169.885C177.979 168.497 178.88 167.082 179.722 165.641L178.859 165.136C178.029 166.555 177.142 167.949 176.196 169.316L177.018 169.885ZM182.092 161.211C182.827 159.704 183.504 158.173 184.124 156.62L183.196 156.249C182.584 157.779 181.917 159.288 181.194 160.773L182.092 161.211ZM185.821 151.89C186.329 150.299 186.783 148.688 187.185 147.06L186.214 146.821C185.818 148.428 185.37 150.017 184.869 151.585L185.821 151.89ZM188.227 142.153C188.522 140.511 188.767 138.854 188.964 137.185L187.971 137.068C187.777 138.718 187.534 140.355 187.243 141.976L188.227 142.153ZM189.409 132.187C189.51 130.528 189.567 128.859 189.58 127.181L188.58 127.174C188.567 128.834 188.511 130.486 188.411 132.126L189.409 132.187ZM189.494 122.166C189.425 120.502 189.315 118.832 189.166 117.156L188.17 117.245C188.317 118.905 188.426 120.56 188.495 122.208L189.494 122.166ZM188.616 112.186C188.397 110.537 188.142 108.886 187.853 107.233L186.868 107.406C187.155 109.045 187.407 110.683 187.624 112.317L188.616 112.186ZM186.891 102.308C186.541 100.685 186.16 99.0623 185.748 97.4419L184.779 97.6884C185.188 99.2972 185.567 100.908 185.914 102.519L186.891 102.308ZM184.427 92.6111C183.96 91.0115 183.463 89.4155 182.939 87.8247L181.989 88.1376C182.51 89.7178 183.003 91.303 183.467 92.8917L184.427 92.6111ZM181.298 83.1014C180.725 81.5361 180.127 79.9775 179.504 78.427L178.576 78.7998C179.195 80.3407 179.79 81.8896 180.359 83.4448L181.298 83.1014ZM177.566 73.8113C176.897 72.2833 176.205 70.7649 175.49 69.2576L174.587 69.6859C175.297 71.1843 175.985 72.6936 176.65 74.2124L177.566 73.8113ZM173.28 64.7668C172.521 63.28 171.74 61.8059 170.94 60.3459L170.063 60.8265C170.859 62.278 171.634 63.7435 172.389 65.2215L173.28 64.7668ZM168.469 55.989C167.623 54.5464 166.758 53.1197 165.875 51.7105L165.028 52.2415C165.905 53.6424 166.765 55.0608 167.607 56.495L168.469 55.989ZM163.158 47.5131C162.225 46.1177 161.276 44.742 160.31 43.3876L159.496 43.9682C160.455 45.3143 161.4 46.6818 162.327 48.0688L163.158 47.5131ZM157.343 39.359C156.329 38.0252 155.299 36.7151 154.256 35.4306L153.479 36.0611C154.516 37.3372 155.539 38.6389 156.547 39.9644L157.343 39.359ZM151.027 31.5873C149.922 30.317 148.805 29.0758 147.676 27.8655L146.945 28.5477C148.066 29.7492 149.175 30.9817 150.272 32.2433L151.027 31.5873ZM144.204 24.2786C143.005 23.0855 141.795 21.9281 140.575 20.8085L139.899 21.5452C141.108 22.6554 142.309 23.8036 143.499 24.9875L144.204 24.2786ZM136.804 17.4933C135.509 16.4043 134.205 15.3591 132.894 14.3604L132.288 15.1558C133.585 16.1445 134.877 17.1796 136.161 18.2588L136.804 17.4933ZM128.839 11.4337C127.435 10.4766 126.025 9.5749 124.612 8.73148L124.1 9.59008C125.494 10.4228 126.887 11.3137 128.276 12.26L128.839 11.4337ZM120.204 6.29582C118.68 5.52184 117.155 4.81902 115.632 4.19125L115.251 5.11579C116.748 5.733 118.249 6.42473 119.752 7.18748L120.204 6.29582ZM110.896 2.48233C109.261 1.97763 107.631 1.56496 106.011 1.24936L105.82 2.23091C107.403 2.5393 108.998 2.94305 110.601 3.43787L110.896 2.48233ZM101.01 0.586567C100.17 0.529101 99.3327 0.499999 98.5 0.5V1.5C99.3094 1.5 100.124 1.52829 100.942 1.58424L101.01 0.586567Z" fill="#0095DA"/>
<path d="M0.0617989 383.768L14.1635 378.828L14.0564 390.551L0.0617989 383.768Z" fill="#0095DA"/>
</svg>
