<svg width="44" height="44" viewBox="0 0 44 44" fill="none" xmlns="http://www.w3.org/2000/svg">
<circle cx="22" cy="22" r="22" fill="white"/>
<g clip-path="url(#clip0)">
<path d="M26.8125 9.16675H17.1875C12.7584 9.16675 9.16669 12.7585 9.16669 17.1876V26.8126C9.16669 31.2417 12.7584 34.8334 17.1875 34.8334H26.8125C31.2416 34.8334 34.8334 31.2417 34.8334 26.8126V17.1876C34.8334 12.7585 31.2416 9.16675 26.8125 9.16675ZM32.4271 26.8126C32.4271 29.9086 29.9086 32.4272 26.8125 32.4272H17.1875C14.0915 32.4272 11.5729 29.9086 11.5729 26.8126V17.1876C11.5729 14.0915 14.0915 11.573 17.1875 11.573H26.8125C29.9086 11.573 32.4271 14.0915 32.4271 17.1876V26.8126Z" fill="#0095DA"/>
<path d="M22 15.5835C18.4564 15.5835 15.5834 18.4566 15.5834 22.0002C15.5834 25.5438 18.4564 28.4168 22 28.4168C25.5436 28.4168 28.4167 25.5438 28.4167 22.0002C28.4167 18.4566 25.5436 15.5835 22 15.5835ZM22 26.0106C19.7895 26.0106 17.9896 24.2107 17.9896 22.0002C17.9896 19.788 19.7895 17.9897 22 17.9897C24.2106 17.9897 26.0105 19.788 26.0105 22.0002C26.0105 24.2107 24.2106 26.0106 22 26.0106Z" fill="#0095DA"/>
<path d="M28.8978 15.9574C29.37 15.9574 29.7528 15.5745 29.7528 15.1023C29.7528 14.6301 29.37 14.2473 28.8978 14.2473C28.4256 14.2473 28.0428 14.6301 28.0428 15.1023C28.0428 15.5745 28.4256 15.9574 28.8978 15.9574Z" fill="#0095DA"/>
</g>
<defs>
<clipPath id="clip0">
<rect width="25.6667" height="25.6667" fill="white" transform="translate(9.16669 9.16675)"/>
</clipPath>
</defs>
</svg>
