<svg width="218" height="51" viewBox="0 0 218 51" fill="none" xmlns="http://www.w3.org/2000/svg">
<g clip-path="url(#clip0)">
<path fill-rule="evenodd" clip-rule="evenodd" d="M22.3973 42.1925L26.0577 10.5386C26.0776 10.3567 26.0482 10.1939 25.9618 10.0311L21.8202 3.99834C21.6665 3.71106 21.3894 3.54157 21.0648 3.54157H5.20546C4.73284 3.54157 4.34753 3.93035 4.34753 4.40723L4.34848 42.0919C4.34848 42.5679 4.73284 42.9566 5.20546 42.9566H21.545C21.9825 42.9566 22.347 42.6311 22.3973 42.1925ZM33.9347 3.99834L29.7931 10.0311C29.7067 10.1939 29.6764 10.3567 29.6972 10.5386L33.3577 42.1925C33.408 42.6301 33.7724 42.9566 34.208 42.9566H50.5495C51.0221 42.9566 51.4055 42.5679 51.4055 42.0919V4.40723C51.4055 3.93035 51.0221 3.54157 50.5495 3.54157H34.6911C34.3655 3.54157 34.0875 3.71011 33.9347 3.99834ZM0.857929 -0.100117L54.8989 -0.101074C55.3706 -0.101074 55.7559 0.287704 55.7559 0.763623V45.7346C55.7559 46.2115 55.3706 46.5983 54.8989 46.5983H34.1625C33.9622 46.5983 33.7933 46.6577 33.6357 46.7812L28.4037 50.8902C28.0896 51.1363 27.6635 51.1363 27.3503 50.8902L22.1173 46.7812C21.9607 46.6577 21.7908 46.5983 21.5915 46.5983H0.857929C0.383411 46.5983 0 46.2115 0 45.7346V0.763623C0 0.287704 0.38436 -0.100117 0.857929 -0.100117Z" fill="#0095DA"/>
<path fill-rule="evenodd" clip-rule="evenodd" d="M38.0868 19.197C37.6588 19.6088 37.7916 19.9458 38.3838 19.9458H46.3149C46.9071 19.9458 47.041 19.6088 46.612 19.197L43.1271 15.8474C42.6991 15.4356 41.9987 15.4356 41.5698 15.8474L38.0868 19.197Z" fill="#0095DA"/>
<path d="M78.5342 25.8086L75.96 24.8747L77.6665 20.2345H73.2412L71.1877 25.8086L68.6135 24.9039L70.32 20.2345H68.064V17.3161H71.3901L72.8942 13.2304H68.064V10.312H73.9932L76.0468 4.73787L78.621 5.67175L76.9145 10.312H81.2819L83.3355 4.73787L85.9097 5.64257L84.2032 10.312H86.6906V13.2304H83.133L81.629 17.3161H86.6906V20.2345L80.5588 20.2345L78.5342 25.8086ZM80.2118 13.2304H75.8154L74.3114 17.3161H78.7367L80.2118 13.2304Z" fill="#002D6A"/>
<path d="M98.7805 20.0594C98.7805 16.0612 89.6118 16.9951 89.6118 10.3703C89.6118 8.76524 90.1903 7.45196 91.3183 6.37216C92.4752 5.29236 94.0082 4.73787 95.9171 4.73787C98.4624 4.73787 100.4 5.46746 101.702 6.92665L99.7928 9.61157C98.7516 8.59013 97.5657 8.09401 96.2063 8.09401C94.4709 8.09401 93.3719 8.96952 93.3719 10.3412C93.3719 12.5008 95.6568 13.1428 97.9417 14.2226C98.7516 14.602 99.5036 15.0106 100.169 15.4483C101.528 16.2655 102.541 17.8998 102.541 20.0302C102.541 21.7229 101.904 23.1237 100.603 24.2035C99.3011 25.2833 97.7104 25.8086 95.7725 25.8086C94.3842 25.8086 93.0537 25.5168 91.7521 24.9623C90.4795 24.3786 89.6118 23.5906 89.149 22.5984L91.1737 20.1469C92.3017 21.6353 94.1817 22.4525 95.8303 22.4525C97.5657 22.4525 98.7805 21.5769 98.7805 20.0594Z" fill="#002D6A"/>
<path d="M115.903 21.8104L116.858 24.1743C115.585 25.2541 113.936 25.8086 111.883 25.8086C109.772 25.8086 108.094 25.1665 106.792 23.9116C105.52 22.6567 104.883 20.9933 104.883 18.9212C104.883 16.9659 105.52 15.3316 106.764 14.0183C108.007 12.7051 109.685 12.0338 111.767 12.0338C113.474 12.0338 114.949 12.6175 116.135 13.7557C117.321 14.8938 117.928 16.353 117.928 18.1332C117.928 18.8628 117.87 19.4757 117.725 19.9426H108.325C108.586 21.898 110.148 23.0069 112.23 23.0069C113.705 23.0069 114.92 22.5984 115.903 21.8104ZM111.623 14.8355C109.743 14.8355 108.586 15.7985 108.21 17.6955H114.602C114.631 16.0612 113.474 14.8355 111.623 14.8355Z" fill="#002D6A"/>
<path d="M123.944 25.4875H120.618V12.3548H123.944V13.6389C124.667 12.6175 125.679 12.1214 126.923 12.1214C127.82 12.1214 128.514 12.2965 128.948 12.6175L127.762 15.7693C127.212 15.4483 126.634 15.2732 126.084 15.2732C125.13 15.2732 124.407 15.7401 123.944 16.674V25.4875Z" fill="#002D6A"/>
<path d="M139.476 12.3548H142.975L137.364 25.5459H134.906L128.919 12.3548H132.881L135.282 17.9873C135.716 18.9504 136.034 19.9426 136.265 20.964C136.526 19.8842 136.844 18.8628 137.22 17.9289L139.476 12.3548Z" fill="#002D6A"/>
<path d="M148.587 25.4875H145.26V12.3548H148.587V25.4875ZM144.913 7.62704C144.913 6.45969 145.839 5.67173 146.996 5.67173C148.008 5.67173 148.905 6.45969 148.905 7.62704C148.905 8.91113 148.008 9.72828 146.996 9.72828C145.81 9.72828 144.913 8.91113 144.913 7.62704Z" fill="#002D6A"/>
<path d="M162.643 21.0808L164.205 23.5323C163.135 25.0206 161.197 25.8086 159.028 25.8086C156.917 25.8086 155.21 25.1665 153.909 23.9116C152.607 22.6567 151.971 20.9933 151.971 18.9212C151.971 16.9659 152.607 15.3316 153.88 14.0183C155.152 12.7051 156.772 12.0338 158.71 12.0338C161.024 12.0338 162.759 12.6175 163.945 13.814L162.383 16.4698C161.515 15.6234 160.445 15.1857 159.144 15.1857C158.189 15.1857 157.322 15.5359 156.598 16.2363C155.875 16.9075 155.528 17.8122 155.528 18.9212C155.528 20.0594 155.904 20.9641 156.627 21.6645C157.379 22.3357 158.276 22.6859 159.288 22.6859C160.561 22.6859 161.689 22.1606 162.643 21.0808Z" fill="#002D6A"/>
<path d="M177.076 21.8104L178.03 24.1743C176.758 25.2541 175.109 25.8086 173.056 25.8086C170.944 25.8086 169.267 25.1665 167.965 23.9116C166.693 22.6567 166.056 20.9933 166.056 18.9212C166.056 16.9659 166.693 15.3316 167.936 14.0183C169.18 12.7051 170.858 12.0338 172.94 12.0338C174.646 12.0338 176.122 12.6175 177.307 13.7557C178.493 14.8938 179.101 16.353 179.101 18.1332C179.101 18.8628 179.043 19.4757 178.898 19.9426H169.498C169.758 21.898 171.32 23.0069 173.403 23.0069C174.878 23.0069 176.093 22.5984 177.076 21.8104ZM172.795 14.8355C170.915 14.8355 169.758 15.7985 169.382 17.6955H175.774C175.803 16.0612 174.646 14.8355 172.795 14.8355Z" fill="#002D6A"/>
<path d="M195.587 5.05889L199.116 5.05889V17.0243C199.116 19.9718 198.364 22.1606 196.831 23.6198C195.298 25.079 193.389 25.8086 191.075 25.8086C188.472 25.8086 186.389 25.0498 184.799 23.5031C183.237 21.9563 182.456 19.7092 182.456 16.82V5.05889H186.013V16.0612C186.013 20.0302 187.691 22.4525 191.075 22.4525C194.083 22.4525 195.587 20.4096 195.587 16.2947V5.05889Z" fill="#002D6A"/>
<path d="M208.024 18.104V25.4875H204.466V5.05886C204.814 5.05886 205.739 5.05886 207.214 5.02968C208.718 5.0005 209.731 5.0005 210.222 5.0005C216.152 5.0005 218.06 8.18153 218.06 11.5669C218.06 13.4054 217.395 14.9814 216.094 16.2655C214.792 17.5495 212.97 18.1916 210.656 18.1916C209.47 18.1916 208.603 18.1624 208.024 18.104ZM210.569 8.35664C210.135 8.35664 209.297 8.38582 208.024 8.415V14.6895C208.95 14.7771 209.788 14.8354 210.54 14.8354C212.767 14.8354 214.3 13.7265 214.3 11.5377C214.3 9.40726 213.057 8.35664 210.569 8.35664Z" fill="#002D6A"/>
<path d="M75.124 41.6616H74.0577V33.8136H69.2906V41.6616H68.2242V32.801H75.124V41.6616Z" fill="#0095D9"/>
<path d="M77.7961 40.9527C77.2441 40.383 76.9681 39.6742 76.9681 38.8134C76.9681 37.9527 77.2441 37.2438 77.7961 36.6869C78.3606 36.1173 79.0882 35.8388 79.9789 35.8388C80.8696 35.8388 81.5972 36.1173 82.1492 36.6869C82.7137 37.2438 82.9897 37.9527 82.9897 38.8134C82.9897 39.6742 82.7137 40.383 82.1492 40.9527C81.5972 41.5096 80.8696 41.7881 79.9789 41.7881C79.0882 41.7881 78.3606 41.5096 77.7961 40.9527ZM78.0344 38.8134C78.0344 39.4084 78.21 39.8894 78.5738 40.2691C78.9377 40.6489 79.4144 40.8387 79.9789 40.8387C81.1205 40.8387 81.9234 40.016 81.9234 38.8134C81.9234 38.2185 81.7352 37.7375 81.3714 37.3578C81.0076 36.978 80.5434 36.7882 79.9789 36.7882C79.4144 36.7882 78.9502 36.978 78.5864 37.3578C78.2226 37.7249 78.0344 38.2185 78.0344 38.8134Z" fill="#0095D9"/>
<path d="M85.436 41.6616H84.4324V35.9655H85.3482L87.5185 38.7882L89.5759 35.9655H90.4666V41.6616H89.463V37.5098L87.506 40.1553H87.4683L85.436 37.5098V41.6616Z" fill="#0095D9"/>
<path d="M92.7374 40.9527C92.1854 40.383 91.9094 39.6742 91.9094 38.8134C91.9094 37.9527 92.1854 37.2438 92.7374 36.6869C93.3019 36.1173 94.0295 35.8388 94.9202 35.8388C95.8109 35.8388 96.5386 36.1173 97.0905 36.6869C97.6551 37.2438 97.9311 37.9527 97.9311 38.8134C97.9311 39.6742 97.6551 40.383 97.0905 40.9527C96.5386 41.5096 95.8109 41.7881 94.9202 41.7881C94.0295 41.7881 93.3019 41.5096 92.7374 40.9527ZM92.9758 38.8134C92.9758 39.4084 93.1514 39.8894 93.5152 40.2691C93.879 40.6489 94.3557 40.8387 94.9202 40.8387C96.0618 40.8387 96.8647 40.016 96.8647 38.8134C96.8647 38.2185 96.6765 37.7375 96.3127 37.3578C95.9489 36.978 95.4848 36.7882 94.9202 36.7882C94.3557 36.7882 93.8915 36.978 93.5277 37.3578C93.1639 37.7249 92.9758 38.2185 92.9758 38.8134Z" fill="#0095D9"/>
<path d="M100.377 41.6616H99.3737V35.9655H102.949V36.9149H100.377V41.6616Z" fill="#0095D9"/>
<path d="M104.216 37.1678L103.953 36.3577C104.505 36.0159 105.132 35.8387 105.834 35.8387C107.39 35.8387 108.005 36.6108 108.005 38.1678V41.6614H107.051V40.9272C106.612 41.4715 106.01 41.75 105.245 41.75C104.204 41.75 103.514 41.0665 103.514 39.9905C103.514 38.864 104.392 38.1804 105.646 38.1804C106.248 38.1804 106.713 38.307 107.051 38.5475C107.051 37.3323 106.813 36.7501 105.772 36.7501C105.257 36.7501 104.743 36.8893 104.216 37.1678ZM105.596 40.8386C106.161 40.8386 106.637 40.5981 107.051 40.1045V39.3829C106.7 39.1298 106.273 39.0032 105.784 39.0032C105.119 39.0032 104.58 39.3323 104.58 39.9399C104.58 40.4969 104.956 40.8386 105.596 40.8386Z" fill="#0095D9"/>
<path d="M114.139 40.2438L114.453 41.0413C113.913 41.5349 113.198 41.7881 112.333 41.7881C111.417 41.7881 110.689 41.5223 110.137 40.978C109.585 40.4337 109.309 39.7122 109.309 38.8134C109.309 37.9527 109.573 37.2438 110.087 36.6869C110.602 36.1173 111.317 35.8388 112.22 35.8388C112.96 35.8388 113.587 36.0793 114.089 36.573C114.591 37.054 114.842 37.6742 114.842 38.4464C114.842 38.7122 114.817 38.94 114.779 39.1299H110.438C110.526 40.1932 111.292 40.8387 112.408 40.8387C113.148 40.8387 113.725 40.6362 114.139 40.2438ZM112.17 36.7882C111.166 36.7882 110.489 37.4084 110.376 38.3071H113.801C113.75 37.3578 113.136 36.7882 112.17 36.7882Z" fill="#0095D9"/>
<path d="M117.213 41.6616H116.209V35.9655H117.125L119.295 38.7882L121.353 35.9655H122.243V41.6616H121.24V37.5098L119.283 40.1553H119.245L117.213 37.5098V41.6616Z" fill="#0095D9"/>
<path d="M131.966 41.6616H130.962V36.9149H127.889V41.6616H126.885V35.9655H131.966V41.6616Z" fill="#0095D9"/>
<path d="M134.788 44.1931H133.785V35.9654H134.788V36.6363C135.19 36.1679 135.942 35.8388 136.708 35.8388C137.498 35.8388 138.138 36.1046 138.602 36.6489C139.079 37.1806 139.317 37.8767 139.317 38.7248C139.317 39.5982 139.041 40.3324 138.502 40.9147C137.962 41.4969 137.247 41.7881 136.382 41.7881C135.717 41.7881 135.177 41.6615 134.788 41.3957V44.1931ZM136.419 36.7882C135.754 36.7882 135.202 37.054 134.788 37.573V40.3957C135.227 40.6868 135.729 40.8387 136.294 40.8387C137.486 40.8387 138.251 39.978 138.251 38.7628C138.251 37.5856 137.561 36.7882 136.419 36.7882Z" fill="#0095D9"/>
<path d="M141.211 40.9527C140.659 40.383 140.383 39.6742 140.383 38.8134C140.383 37.9527 140.659 37.2438 141.211 36.6869C141.776 36.1173 142.504 35.8388 143.394 35.8388C144.285 35.8388 145.013 36.1173 145.565 36.6869C146.129 37.2438 146.405 37.9527 146.405 38.8134C146.405 39.6742 146.129 40.383 145.565 40.9527C145.013 41.5096 144.285 41.7881 143.394 41.7881C142.504 41.7881 141.776 41.5096 141.211 40.9527ZM141.45 38.8134C141.45 39.4084 141.625 39.8894 141.989 40.2691C142.353 40.6489 142.83 40.8387 143.394 40.8387C144.536 40.8387 145.339 40.016 145.339 38.8134C145.339 38.2185 145.151 37.7375 144.787 37.3578C144.423 36.978 143.959 36.7882 143.394 36.7882C142.83 36.7882 142.366 36.978 142.002 37.3578C141.638 37.7249 141.45 38.2185 141.45 38.8134Z" fill="#0095D9"/>
<path d="M148.011 43.054H147.07V40.7122H147.773C148.174 40.2059 148.538 38.9527 148.638 37.4718L148.726 35.9654H152.577V40.7122H153.518V43.054H152.577V41.6616H148.011V43.054ZM149.667 36.9148L149.604 37.8642C149.491 39.1932 149.14 40.3072 148.839 40.7122H151.574V36.9148H149.667Z" fill="#0095D9"/>
<path d="M154.911 37.1678L154.647 36.3577C155.199 36.0159 155.826 35.8387 156.529 35.8387C158.085 35.8387 158.699 36.6108 158.699 38.1678V41.6614H157.746V40.9272C157.307 41.4715 156.705 41.75 155.939 41.75C154.898 41.75 154.208 41.0665 154.208 39.9905C154.208 38.864 155.086 38.1804 156.341 38.1804C156.943 38.1804 157.407 38.307 157.746 38.5475C157.746 37.3323 157.508 36.7501 156.466 36.7501C155.952 36.7501 155.438 36.8893 154.911 37.1678ZM156.291 40.8386C156.855 40.8386 157.332 40.5981 157.746 40.1045V39.3829C157.395 39.1298 156.968 39.0032 156.479 39.0032C155.814 39.0032 155.274 39.3323 155.274 39.9399C155.274 40.4969 155.651 40.8386 156.291 40.8386Z" fill="#0095D9"/>
<path d="M161.735 36.9781H159.665V35.9655H164.809V36.9781H162.739V41.6616H161.735V36.9781Z" fill="#0095D9"/>
<path d="M167.807 41.6616H165.9V35.9655H166.904V37.6743H167.932C169.538 37.6743 170.165 38.4844 170.165 39.6363C170.165 40.2059 169.977 40.687 169.601 41.0794C169.225 41.4718 168.622 41.6616 167.807 41.6616ZM167.744 38.6237H166.904V40.7123H167.732C168.647 40.7123 169.099 40.3705 169.099 39.6743C169.099 38.9781 168.647 38.6237 167.744 38.6237Z" fill="#0095D9"/>
<path d="M178.696 32.6743L179.235 33.4718C179.035 33.7502 178.796 33.9401 178.508 34.0414C178.219 34.1426 177.868 34.2312 177.454 34.2945C177.04 34.3578 176.676 34.4717 176.363 34.611C175.51 35.0034 175.033 35.9148 174.933 37.3578H174.958C175.321 36.5603 176.237 36.0287 177.191 36.0287C178.796 36.0287 179.813 37.1426 179.813 38.8641C179.813 39.6742 179.537 40.3704 178.997 40.94C178.458 41.5096 177.755 41.7881 176.915 41.7881C175.999 41.7881 175.271 41.4716 174.732 40.8387C174.192 40.2058 173.929 39.3451 173.929 38.2438C173.929 35.7755 174.631 34.2439 176.024 33.649C176.363 33.4971 176.739 33.3958 177.128 33.3325C177.918 33.1933 178.357 33.1173 178.696 32.6743ZM174.995 38.4337C174.995 39.8894 175.773 40.8387 176.89 40.8387C177.429 40.8387 177.881 40.6489 178.219 40.2818C178.571 39.9147 178.746 39.459 178.746 38.9147C178.746 37.7628 178.081 36.978 176.94 36.978C176.438 36.978 176.011 37.1173 175.66 37.4084C175.309 37.6995 175.083 38.0413 174.995 38.4337Z" fill="#0095D9"/>
<path d="M181.707 40.9527C181.155 40.383 180.879 39.6742 180.879 38.8134C180.879 37.9527 181.155 37.2438 181.707 36.6869C182.271 36.1173 182.999 35.8388 183.89 35.8388C184.78 35.8388 185.508 36.1173 186.06 36.6869C186.625 37.2438 186.901 37.9527 186.901 38.8134C186.901 39.6742 186.625 40.383 186.06 40.9527C185.508 41.5096 184.78 41.7881 183.89 41.7881C182.999 41.7881 182.271 41.5096 181.707 40.9527ZM181.945 38.8134C181.945 39.4084 182.121 39.8894 182.485 40.2691C182.849 40.6489 183.325 40.8387 183.89 40.8387C185.031 40.8387 185.834 40.016 185.834 38.8134C185.834 38.2185 185.646 37.7375 185.282 37.3578C184.918 36.978 184.454 36.7882 183.89 36.7882C183.325 36.7882 182.861 36.978 182.497 37.3578C182.133 37.7249 181.945 38.2185 181.945 38.8134Z" fill="#0095D9"/>
<path d="M193.211 41.6616H192.207V36.9781H190.225L190.162 37.9401C189.899 41.1806 189.071 41.7375 187.892 41.7375L187.816 40.7502C188.23 40.7882 189.046 40.3705 189.184 37.7376L189.284 35.9655H193.211V41.6616Z" fill="#0095D9"/>
<path d="M196.924 41.6616H195.017V35.9655H196.021V37.6743H197.049C198.655 37.6743 199.282 38.4844 199.282 39.6363C199.282 40.2059 199.094 40.687 198.718 41.0794C198.342 41.4718 197.739 41.6616 196.924 41.6616ZM196.861 38.6237H196.021V40.7123H196.849C197.765 40.7123 198.216 40.3705 198.216 39.6743C198.216 38.9781 197.765 38.6237 196.861 38.6237Z" fill="#0095D9"/>
<path d="M207.776 41.6616H200.625V35.9655H201.628V40.7123H203.698V35.9655H204.702V40.7123H206.772V35.9655H207.776V41.6616Z" fill="#0095D9"/>
<path d="M214.048 40.2438L214.362 41.0413C213.822 41.5349 213.107 41.7881 212.242 41.7881C211.326 41.7881 210.598 41.5223 210.046 40.978C209.494 40.4337 209.218 39.7122 209.218 38.8134C209.218 37.9527 209.482 37.2438 209.996 36.6869C210.51 36.1173 211.225 35.8388 212.129 35.8388C212.869 35.8388 213.496 36.0793 213.998 36.573C214.5 37.054 214.751 37.6742 214.751 38.4464C214.751 38.7122 214.725 38.94 214.688 39.1299H210.347C210.435 40.1932 211.2 40.8387 212.317 40.8387C213.057 40.8387 213.634 40.6362 214.048 40.2438ZM212.078 36.7882C211.075 36.7882 210.397 37.4084 210.285 38.3071H213.709C213.659 37.3578 213.044 36.7882 212.078 36.7882Z" fill="#0095D9"/>
</g>
<defs>
<clipPath id="clip0">
<rect width="218" height="51" fill="white"/>
</clipPath>
</defs>
</svg>
