<svg width="680" height="453" viewBox="0 0 680 453" fill="none" xmlns="http://www.w3.org/2000/svg">
<ellipse cx="302" cy="425.5" rx="294" ry="17.5" fill="#C5EDFF"/>
<path d="M200.151 54.4724C167.513 91.1984 54.2598 50.3982 55.444 118.112C56.8397 197.398 168.145 220.734 132.11 276.451C96.0737 332.167 135.868 394.64 280.709 393.462C425.551 392.284 658.559 322.355 602.422 246.388C546.286 170.421 583.687 166.531 586.426 132.959C589.166 99.3881 560.76 25.7495 448.588 87.1598C336.417 148.57 282.795 -38.5326 200.151 54.4724Z" fill="#C5EDFF"/>
<path d="M519.116 384.676C519.116 384.676 613.844 359.528 611.107 292.344C608.371 225.16 598.774 198.724 623.787 175.802C648.8 152.88 624.202 115.759 580.885 118.546C537.568 121.332 512.341 178.323 525.059 230.755C537.777 283.188 560.892 321.451 531.161 346.27C501.431 371.089 530.886 332.024 530.474 302.192C530.062 272.36 525.218 229.023 490.779 217.053C456.339 205.083 466.227 248.255 475.165 292.388C484.102 336.521 477.888 367.655 477.888 367.655L519.116 384.676Z" fill="#0095DA"/>
<path d="M588.718 156.719C586.596 158.034 584.596 159.535 582.74 161.205C580.909 162.818 579.182 164.545 577.569 166.374C574.372 169.977 571.573 173.914 569.222 178.117C564.551 186.466 561.581 195.688 560.246 205.25C559.571 210.07 559.265 214.934 559.331 219.801C559.437 224.736 559.804 229.662 560.43 234.558C561.622 244.378 563.293 254.179 564.826 263.934C565.609 268.818 566.334 273.689 566.931 278.551C567.527 283.413 567.997 288.262 568.175 293.074C568.398 297.849 568.324 302.632 567.953 307.397C567.543 312.075 566.715 316.707 565.48 321.237L565.005 322.92L564.768 323.76L564.477 324.584L563.307 327.878L561.933 331.088C561.708 331.625 561.456 332.15 561.177 332.661L560.381 334.218C560.106 334.734 559.859 335.261 559.57 335.769L558.663 337.273L557.759 338.775L557.306 339.527L556.803 340.252L554.789 343.151C554.07 344.088 553.317 345.002 552.591 345.93C552.212 346.388 551.869 346.869 551.462 347.303L550.253 348.626L549.047 349.949C548.646 350.391 548.248 350.836 547.803 351.245L545.215 353.768L544.566 354.4L543.877 354.995L542.503 356.187L541.129 357.381L540.439 357.98L539.711 358.529L536.802 360.788C535.851 361.562 534.815 362.252 533.799 362.963L530.746 365.093C530.723 365.111 530.704 365.133 530.691 365.159C530.678 365.185 530.671 365.214 530.671 365.243C530.671 365.272 530.678 365.301 530.691 365.326C530.704 365.352 530.723 365.375 530.746 365.392C530.79 365.438 530.848 365.468 530.91 365.478C530.973 365.488 531.037 365.477 531.092 365.447C535.368 362.806 539.61 360.105 543.44 356.98L544.893 355.827L545.618 355.251L546.305 354.638L549.053 352.187C549.52 351.786 549.94 351.363 550.366 350.913L551.646 349.612L552.927 348.307C553.358 347.876 553.726 347.399 554.13 346.935C554.916 346.018 555.721 345.109 556.49 344.189L558.661 341.304L559.21 340.582L559.702 339.829L560.677 338.319L561.653 336.807C561.96 336.296 562.235 335.763 562.529 335.245L563.395 333.671C563.696 333.156 563.971 332.625 564.219 332.082L565.733 328.831L567.032 325.495L567.354 324.672L567.628 323.818L568.178 322.108C569.559 317.499 570.513 312.774 571.027 307.99C571.512 303.146 571.684 298.276 571.544 293.409C571.423 288.514 570.994 283.6 570.461 278.694C569.928 273.788 569.252 268.879 568.521 263.981C567.032 254.185 565.411 244.422 564.268 234.698C563.719 229.825 563.235 225.012 563.131 220.221C563.054 215.476 563.291 210.73 563.84 206.016C564.886 196.728 567.509 187.686 571.596 179.278C572.107 178.229 572.665 177.205 573.22 176.176C573.775 175.146 574.374 174.141 575.011 173.156C577.497 169.124 580.398 165.363 583.668 161.935C585.331 160.174 587.134 158.549 589.059 157.078C589.082 157.06 589.1 157.037 589.113 157.011C589.126 156.985 589.132 156.956 589.132 156.927C589.132 156.898 589.126 156.869 589.113 156.843C589.1 156.817 589.082 156.794 589.059 156.776C589.017 156.729 588.961 156.698 588.899 156.687C588.837 156.677 588.773 156.688 588.718 156.719Z" fill="#DCE5FE"/>
<path opacity="0.69" d="M488.149 234.992C491.98 244.907 495.307 255.009 498.117 265.26C500.891 275.247 503.022 285.401 504.497 295.661C505.222 300.726 505.596 305.772 505.895 310.807L506.027 314.577C506.049 315.831 506.027 317.078 506.027 318.327V320.202L505.956 322.069L505.884 323.936C505.862 324.559 505.84 325.182 505.777 325.797C505.434 330.726 504.771 335.626 503.794 340.469C502.758 345.275 501.38 350.001 499.672 354.611C499.67 354.666 499.685 354.721 499.715 354.768C499.745 354.815 499.788 354.852 499.84 354.874C499.891 354.895 499.947 354.901 500.002 354.89C500.056 354.879 500.106 354.851 500.145 354.811C501.263 352.615 502.48 350.419 503.362 348.11L504.076 346.388L504.428 345.526L504.722 344.642L505.904 341.101C506.283 339.914 506.557 338.698 506.882 337.49L507.346 335.675L507.717 333.836L508.088 331.994C508.206 331.379 508.363 330.769 508.423 330.141L508.94 326.401C510.162 316.386 509.846 306.069 508.511 295.762C508.154 293.184 507.808 290.606 507.302 288.028C506.86 285.45 506.288 282.875 505.717 280.3L504.777 276.456L503.739 272.612C503.398 271.33 502.997 270.051 502.64 268.769C502.282 267.487 501.859 266.213 501.444 264.925C501.03 263.638 500.593 262.377 500.156 261.106C499.719 259.835 499.26 258.567 498.799 257.301C497.859 254.767 496.842 252.247 495.809 249.735C493.669 244.719 491.391 239.73 488.649 234.865C488.615 234.809 488.564 234.766 488.503 234.742C488.442 234.718 488.375 234.714 488.311 234.731C488.286 234.737 488.263 234.749 488.242 234.765C488.222 234.781 488.206 234.802 488.194 234.825C488.183 234.848 488.176 234.874 488.176 234.9C488.175 234.925 488.18 234.951 488.191 234.975L488.149 234.992Z" fill="white"/>
<path d="M223.197 260.019C216.526 234.983 202.316 214.587 184.9 202.153C169.346 191.037 158.546 174.388 155.139 155.604C154.782 153.631 154.339 151.649 153.809 149.657C145.784 119.545 120.815 100.047 98.0355 106.109C75.2561 112.171 63.3046 141.492 71.3272 171.605C72.897 177.545 75.2103 183.264 78.2124 188.626C87.4522 205.028 90.4634 224.317 85.9246 242.58C81.8748 258.896 81.8748 277.519 86.8889 296.289C94.3483 324.293 111.254 346.479 131.48 358.23C139.142 362.669 145.925 368.474 151.49 375.358C160.705 386.796 174.176 392.622 186.963 389.22C200.758 385.55 209.896 372.166 211.264 356.091C212.036 346.995 214.592 338.169 218.471 329.896C227.628 310.365 229.944 285.335 223.197 260.019Z" fill="#0095DA"/>
<path d="M114.55 136.021C122.829 155.129 130.486 174.49 137.942 193.928C139.808 198.787 141.594 203.677 143.399 208.558L146.102 215.883L148.746 223.23C150.487 228.134 152.298 233.015 153.985 237.94L159.049 252.714C162.296 262.597 165.643 272.481 168.692 282.419C170.234 287.394 171.868 292.336 173.308 297.341L177.704 312.334C183.347 332.376 188.485 352.577 192.592 372.995L191.716 373.181L188.059 358.021L187.155 354.232L186.155 350.463L184.141 342.932L182.141 335.398C181.479 332.886 180.723 330.396 180.02 327.895C178.578 322.904 177.176 317.899 175.701 312.916C169.676 293.017 163.387 273.2 156.688 253.515C153.265 243.697 149.927 233.852 146.432 224.056L143.833 216.707L141.174 209.374C139.401 204.487 137.632 199.597 135.81 194.727C132.253 184.957 128.622 175.212 124.917 165.493C121.263 155.758 117.512 146.053 113.734 136.364L114.55 136.021Z" fill="#DCE5FE"/>
<path d="M153.339 309.761C142.877 298.719 129.829 292.19 117.386 290.628C106.247 289.276 96.0699 283.652 89.0017 274.943C88.2691 274.028 87.4842 273.131 86.6471 272.253C74.0637 258.973 55.7435 255.893 45.7098 265.373C35.676 274.853 37.7696 293.302 50.353 306.582C52.827 309.203 55.6212 311.503 58.6696 313.426C68.0302 319.302 74.9896 328.395 77.7865 339.08C80.284 348.629 85.5207 358.219 93.3647 366.496C105.063 378.851 119.99 385.561 133.698 385.97C138.891 386.119 144.012 387.218 148.809 389.212C156.776 392.534 165.332 391.779 170.956 386.467C177.023 380.726 177.968 371.276 174.16 362.611C172.038 357.696 170.803 352.445 170.514 347.099C169.75 334.47 163.917 320.922 153.339 309.761Z" fill="#12B4FF"/>
<path d="M62.6177 276.193C72.2339 283.732 81.6165 291.567 90.9167 299.507C93.2411 301.492 95.5325 303.513 97.8321 305.525L101.28 308.545L104.704 311.593C106.976 313.635 109.278 315.645 111.528 317.712L118.282 323.911C122.73 328.104 127.214 332.258 131.585 336.54C133.783 338.674 136.003 340.766 138.149 342.943L144.613 349.444C153.131 358.202 161.458 367.177 169.305 376.553L168.904 376.893L162.763 370.087L161.233 368.385L159.659 366.738L156.51 363.418L153.364 360.094C152.317 358.996 151.232 357.897 150.166 356.818C148.023 354.65 145.896 352.461 143.74 350.303C135.052 341.732 126.232 333.297 117.279 324.999C112.762 320.88 108.281 316.762 103.734 312.68L100.332 309.616L96.9035 306.557C94.6203 304.531 92.3372 302.508 90.0348 300.517C85.4556 296.472 80.8518 292.463 76.2232 288.49C71.5946 284.516 66.9505 280.552 62.2908 276.599L62.6177 276.193Z" fill="#DCE5FE"/>
<path d="M514.38 267.407C515.979 268.643 559.864 265.466 578.302 269.28C578.302 269.28 592.589 206.974 551.561 204.525C510.533 202.076 496.301 227.381 496.301 227.381L514.38 267.407Z" fill="url(#paint0_linear)"/>
<path d="M471.041 201.601L551.561 204.536C551.561 204.536 522.221 204.937 525.46 242.02C528.699 279.103 545.242 387.375 503.252 387.482C461.263 387.589 460.589 368.423 460.589 368.423L471.041 201.601Z" fill="#65CEFF"/>
<path d="M433.436 184.203L464.562 176.964C464.562 176.964 485.372 175.094 488.191 193.576C491.009 212.059 490.191 321.558 489.309 344.143C488.427 366.727 490.548 384.092 503.266 387.482L410.747 389.08L433.436 184.203Z" fill="url(#paint1_linear)"/>
<path d="M370.165 185.705C370.165 185.705 426.837 188.819 464.562 176.964C464.562 176.964 439.483 175.245 439.483 233.105C439.483 277.343 446.047 361.779 440.308 377.807C434.568 393.835 413.141 415.382 382.413 396.866C351.685 378.351 370.165 185.705 370.165 185.705Z" fill="#65CEFF"/>
<path d="M355.097 98.9598C355.097 98.9598 417.624 105.771 425.68 95.1793C425.68 95.1793 419.273 76.1203 400.244 77.3887C381.215 78.6571 355.097 98.9598 355.097 98.9598Z" fill="#65CEFF"/>
<path d="M151.732 120.404C157.186 181.628 168.637 311.153 173.621 374.244C174.157 381.047 177.13 387.43 181.994 392.22C186.859 397.011 193.288 399.889 200.104 400.325C250.295 403.543 363.252 409.789 406.599 403.977C401.734 401.581 397.643 397.863 394.796 393.25C391.95 388.637 390.462 383.315 390.504 377.895L392.806 94.7894C392.889 84.7849 402.859 77.5973 412.234 81.106C418.141 83.3189 422.614 88.0301 425.68 95.1902C421.586 83.2722 415.152 74.5554 400.244 77.3997C400.244 77.3997 254.444 78.8548 183.693 83.2393C179.132 83.5238 174.673 84.7184 170.581 86.7527C166.488 88.787 162.845 91.6198 159.866 95.0838C156.887 98.5478 154.633 102.573 153.235 106.922C151.838 111.271 151.327 115.855 151.732 120.404Z" fill="#002D6A"/>
<path d="M187.798 91.3302L383.71 83.7939C375.629 143.571 379.039 265.301 382.124 385.27C382.213 388.757 383.269 392.15 385.175 395.073C387.08 397.995 389.76 400.332 392.916 401.822C392.916 401.822 262.247 403.326 206.088 399.351C199.671 398.892 193.602 396.261 188.882 391.892C184.161 387.524 181.072 381.679 180.122 375.32C172.412 323.92 153.971 191.138 157.81 120.841C158.229 113.072 161.536 105.74 167.084 100.281C172.631 94.8225 180.018 91.6303 187.798 91.3302Z" fill="#0095DA"/>
<path opacity="0.78" d="M185.644 176.615L187.927 198.543C188.13 200.487 189.028 202.293 190.455 203.63C191.883 204.966 193.745 205.743 195.7 205.818L208.478 206.307C209.571 206.349 210.661 206.17 211.683 205.782C212.705 205.393 213.638 204.802 214.426 204.044C215.214 203.286 215.84 202.377 216.268 201.371C216.696 200.366 216.916 199.284 216.916 198.191V174.537C216.916 173.414 216.683 172.304 216.232 171.276C215.781 170.248 215.122 169.324 214.295 168.563C213.469 167.803 212.494 167.221 211.432 166.856C210.37 166.49 209.244 166.349 208.124 166.44L193.06 167.679C191.981 167.768 190.932 168.071 189.972 168.571C189.013 169.071 188.163 169.757 187.472 170.589C186.781 171.422 186.264 172.383 185.95 173.418C185.636 174.453 185.532 175.54 185.644 176.615Z" fill="url(#paint2_linear)"/>
<path opacity="0.78" d="M230.574 169.856C251.836 169.197 333.467 166.545 354.081 165.875C354.697 165.856 355.31 165.961 355.885 166.184C356.459 166.406 356.983 166.742 357.425 167.171C357.867 167.6 358.218 168.114 358.458 168.681C358.698 169.248 358.821 169.858 358.82 170.473C358.82 171.664 358.359 172.807 357.532 173.665C356.706 174.522 355.579 175.025 354.389 175.069L230.969 179.649C229.822 179.692 228.7 179.305 227.824 178.564C226.947 177.822 226.38 176.781 226.233 175.643L226.153 175.047C226.07 174.411 226.122 173.764 226.304 173.148C226.487 172.532 226.796 171.962 227.212 171.473C227.629 170.984 228.143 170.587 228.722 170.309C229.301 170.03 229.931 169.876 230.574 169.856Z" fill="url(#paint3_linear)"/>
<path opacity="0.78" d="M229.236 198.771C229.414 199.068 229.667 199.312 229.97 199.479C230.273 199.647 230.615 199.731 230.961 199.723L315.712 197.884C316.225 197.875 316.714 197.665 317.074 197.299C317.433 196.934 317.635 196.442 317.636 195.929V190.339C317.635 190.076 317.582 189.816 317.479 189.574C317.376 189.332 317.225 189.113 317.035 188.93C316.845 188.748 316.62 188.605 316.374 188.512C316.128 188.418 315.866 188.375 315.603 188.385L233.208 191.462C232.369 191.493 231.552 191.742 230.838 192.184C230.124 192.627 229.538 193.247 229.137 193.985C228.736 194.722 228.534 195.552 228.551 196.391C228.569 197.23 228.805 198.05 229.236 198.771Z" fill="url(#paint4_linear)"/>
<path opacity="0.78" d="M185.644 237.482L187.927 259.402C188.13 261.346 189.028 263.152 190.455 264.488C191.883 265.824 193.745 266.602 195.7 266.677L208.478 267.166C209.571 267.208 210.661 267.029 211.683 266.64C212.705 266.251 213.638 265.66 214.426 264.902C215.213 264.145 215.84 263.236 216.268 262.23C216.696 261.224 216.916 260.143 216.916 259.05V235.395C216.916 234.273 216.683 233.163 216.232 232.135C215.781 231.107 215.121 230.183 214.295 229.423C213.469 228.662 212.494 228.081 211.432 227.716C210.37 227.351 209.243 227.21 208.124 227.302L193.059 228.537C191.98 228.626 190.93 228.93 189.97 229.43C189.01 229.931 188.16 230.617 187.469 231.451C186.778 232.284 186.261 233.247 185.947 234.282C185.634 235.318 185.531 236.406 185.644 237.482Z" fill="url(#paint5_linear)"/>
<path opacity="0.78" d="M230.574 230.714C251.836 230.055 333.467 227.403 354.081 226.733C354.697 226.715 355.31 226.82 355.885 227.042C356.459 227.265 356.983 227.601 357.425 228.03C357.867 228.459 358.218 228.972 358.458 229.539C358.698 230.107 358.821 230.716 358.82 231.332C358.82 232.522 358.359 233.666 357.532 234.523C356.706 235.38 355.579 235.884 354.389 235.928L230.969 240.502C229.822 240.545 228.7 240.158 227.824 239.417C226.947 238.676 226.38 237.634 226.233 236.496L226.153 235.9C226.071 235.264 226.123 234.618 226.306 234.003C226.489 233.388 226.798 232.818 227.215 232.33C227.631 231.841 228.145 231.445 228.723 231.167C229.302 230.889 229.932 230.735 230.574 230.714Z" fill="url(#paint6_linear)"/>
<path opacity="0.78" d="M229.236 259.624C229.413 259.921 229.667 260.165 229.97 260.332C230.273 260.5 230.615 260.584 230.961 260.576L315.712 258.737C316.225 258.728 316.714 258.518 317.074 258.152C317.433 257.787 317.635 257.295 317.636 256.782V251.209C317.635 250.946 317.582 250.685 317.479 250.443C317.376 250.201 317.225 249.982 317.035 249.8C316.845 249.617 316.62 249.475 316.374 249.381C316.128 249.287 315.866 249.244 315.602 249.254L233.208 252.321C232.37 252.352 231.554 252.601 230.84 253.043C230.127 253.485 229.541 254.105 229.141 254.842C228.74 255.578 228.538 256.407 228.554 257.245C228.571 258.084 228.806 258.903 229.236 259.624Z" fill="url(#paint7_linear)"/>
<path opacity="0.78" d="M185.644 298.332L187.93 320.26C188.133 322.204 189.031 324.01 190.458 325.346C191.886 326.681 193.748 327.458 195.703 327.533L208.481 328.024C209.574 328.066 210.664 327.887 211.686 327.498C212.708 327.108 213.641 326.517 214.429 325.759C215.216 325.001 215.843 324.092 216.271 323.086C216.699 322.08 216.919 320.999 216.919 319.906V296.251C216.919 295.129 216.686 294.018 216.235 292.99C215.784 291.962 215.124 291.039 214.298 290.278C213.472 289.518 212.497 288.937 211.435 288.572C210.373 288.207 209.246 288.066 208.127 288.157L193.062 289.393C191.983 289.482 190.933 289.785 189.973 290.285C189.013 290.785 188.163 291.471 187.472 292.304C186.781 293.136 186.263 294.098 185.95 295.134C185.636 296.169 185.532 297.256 185.644 298.332Z" fill="url(#paint8_linear)"/>
<path opacity="0.78" d="M230.574 291.567C251.836 290.908 333.467 288.256 354.081 287.586C354.697 287.566 355.312 287.671 355.887 287.893C356.463 288.115 356.987 288.451 357.43 288.88C357.873 289.309 358.225 289.823 358.466 290.39C358.706 290.958 358.829 291.569 358.828 292.185C358.829 293.376 358.368 294.52 357.541 295.378C356.715 296.236 355.588 296.74 354.397 296.784L230.969 301.363C229.822 301.406 228.7 301.019 227.824 300.278C226.947 299.537 226.38 298.495 226.233 297.357L226.153 296.762C226.07 296.125 226.121 295.478 226.303 294.862C226.485 294.246 226.795 293.675 227.211 293.185C227.628 292.696 228.142 292.299 228.721 292.021C229.3 291.742 229.931 291.588 230.574 291.567Z" fill="url(#paint9_linear)"/>
<path opacity="0.78" d="M229.236 320.482C229.414 320.779 229.667 321.024 229.97 321.191C230.273 321.359 230.615 321.444 230.961 321.438L315.712 319.596C316.225 319.586 316.714 319.376 317.074 319.011C317.433 318.645 317.635 318.153 317.636 317.641V312.057C317.635 311.793 317.582 311.533 317.479 311.291C317.376 311.049 317.225 310.83 317.035 310.647C316.845 310.465 316.62 310.322 316.374 310.229C316.128 310.135 315.866 310.092 315.602 310.102L233.214 313.179C232.375 313.21 231.558 313.458 230.844 313.9C230.13 314.341 229.544 314.961 229.142 315.698C228.741 316.435 228.538 317.264 228.555 318.103C228.571 318.941 228.806 319.762 229.236 320.482Z" fill="url(#paint10_linear)"/>
<path d="M522.144 283.949C521.902 283.948 521.669 283.856 521.493 283.69C521.317 283.524 521.211 283.298 521.196 283.056C521.179 282.804 519.663 257.702 516.943 236.809C514.121 215.134 525.993 210.562 526.499 210.379C526.616 210.335 526.741 210.316 526.866 210.321C526.992 210.326 527.114 210.356 527.228 210.409C527.342 210.461 527.444 210.536 527.529 210.628C527.614 210.72 527.679 210.828 527.723 210.945C527.766 211.063 527.785 211.188 527.78 211.313C527.775 211.438 527.745 211.561 527.692 211.674C527.64 211.788 527.565 211.89 527.473 211.975C527.381 212.06 527.273 212.125 527.155 212.169C526.707 212.336 516.223 216.495 518.836 236.565C521.564 257.523 523.084 282.688 523.1 282.941C523.107 283.066 523.09 283.191 523.049 283.309C523.008 283.428 522.944 283.537 522.861 283.63C522.778 283.724 522.677 283.8 522.564 283.855C522.452 283.909 522.329 283.941 522.204 283.949H522.144Z" fill="#BDD0FB"/>
<path d="M293.216 389.52C292.315 389.52 291.4 389.083 290.427 388.191C286.581 384.66 285.707 379.131 285.482 373.956C283.619 376.056 281.707 378.093 279.814 380.108L279.212 379.559C281.295 377.341 283.408 375.092 285.443 372.767C285.272 365.818 285.587 358.866 286.386 351.962C286.872 347.775 287.573 343.344 289.383 339.313C289.952 338.045 290.897 336.23 292.504 335.105C294.153 333.951 296.31 333.82 297.747 334.786C299.37 335.884 299.813 337.979 300.002 339.467C301.156 348.426 297.653 356.645 294.507 361.963C292.156 365.947 289.287 369.596 286.265 373.066C286.416 378.307 287.128 384.073 290.966 387.598C291.809 388.369 292.562 388.734 293.268 388.696C294.433 388.655 295.34 387.576 296.073 386.53C299.243 381.999 301.733 377.029 303.464 371.778C303.66 370.224 304.096 368.709 304.755 367.287L305.527 367.561C305.161 369.049 304.743 370.514 304.272 371.954C304.087 373.469 304.146 375.004 304.445 376.501C304.607 377.324 305.299 380.007 307.349 380.396C308.89 380.69 310.404 379.617 312.116 377.017L317.998 368.08L317.476 370.326C317.166 371.669 316.652 374.875 318.619 375.682C319.748 376.149 320.927 375.485 322.174 374.782C323.375 374.107 324.617 373.409 325.988 373.59L326.411 373.645L326.34 374.068C326.018 375.932 326.183 378.23 327.713 378.565C328.716 378.788 329.524 378.038 330.461 377.173C331.241 376.451 332.052 375.702 333.085 375.452L333.28 376.253C332.455 376.454 331.725 377.127 331.019 377.777C330.005 378.716 328.955 379.699 327.535 379.37C325.581 378.939 325.177 376.591 325.463 374.387C324.513 374.417 323.573 374.936 322.584 375.501C321.21 376.267 319.809 377.061 318.311 376.446C316.888 375.861 316.221 374.296 316.388 372.053L312.817 377.475C311.61 379.309 309.717 381.689 307.206 381.212C305.484 380.882 304.154 379.183 303.634 376.668C303.492 375.959 303.4 375.24 303.36 374.518C301.675 378.933 299.453 383.124 296.744 386.996C295.895 388.213 294.821 389.467 293.29 389.517L293.216 389.52ZM295.505 334.948C294.601 334.961 293.722 335.249 292.985 335.772C291.543 336.779 290.672 338.462 290.142 339.643C288.378 343.572 287.691 347.926 287.213 352.047C286.453 358.613 286.134 365.222 286.257 371.831C289.034 368.596 291.642 365.206 293.809 361.535C296.887 356.319 300.318 348.291 299.195 339.571C298.92 337.46 298.318 336.156 297.293 335.47C296.763 335.121 296.14 334.938 295.505 334.945V334.948Z" fill="url(#paint11_linear)"/>
<path d="M340.86 134.022L209.55 138.346C206.662 138.442 203.853 137.398 201.73 135.44C199.606 133.482 198.34 130.767 198.205 127.883L198.17 127.131C198.101 125.69 198.318 124.249 198.807 122.892C199.296 121.534 200.048 120.286 201.02 119.219C201.992 118.152 203.164 117.287 204.471 116.673C205.778 116.059 207.193 115.708 208.635 115.641L339.981 109.464C341.467 109.393 342.953 109.625 344.347 110.145C345.741 110.665 347.015 111.463 348.091 112.49C349.168 113.517 350.024 114.751 350.609 116.119C351.194 117.487 351.494 118.959 351.493 120.446V123.054C351.491 125.903 350.38 128.64 348.396 130.687C346.412 132.733 343.71 133.929 340.86 134.022Z" fill="url(#paint12_linear)"/>
<path d="M423.834 66.396H531.776V153.397C531.776 154.617 531.291 155.787 530.428 156.65C529.564 157.513 528.393 157.998 527.172 157.998H428.439C427.217 157.998 426.046 157.513 425.182 156.65C424.319 155.787 423.834 154.617 423.834 153.397V66.396Z" fill="url(#paint13_linear)"/>
<path d="M423.834 66.1489H531.776V142.074C531.776 143.295 531.291 144.465 530.428 145.328C529.564 146.191 528.393 146.676 527.172 146.676H428.439C427.217 146.676 426.046 146.191 425.182 145.328C424.319 144.465 423.834 143.295 423.834 142.074V66.1489Z" fill="url(#paint14_linear)"/>
<path d="M433.766 69.6714H430.049V75.9832H433.766V69.6714Z" fill="url(#paint15_linear)"/>
<path d="M442.126 69.6714H438.409V75.9832H442.126V69.6714Z" fill="url(#paint16_linear)"/>
<path d="M449.512 69.6714H445.794V75.9832H449.512V69.6714Z" fill="url(#paint17_linear)"/>
<path d="M457.875 69.6714H454.158V75.9832H457.875V69.6714Z" fill="url(#paint18_linear)"/>
<path d="M465.26 69.6714H461.543V75.9832H465.26V69.6714Z" fill="url(#paint19_linear)"/>
<path d="M473.624 69.6714H469.906V75.9832H473.624V69.6714Z" fill="url(#paint20_linear)"/>
<path d="M481.009 69.6714H477.291V75.9832H481.009V69.6714Z" fill="url(#paint21_linear)"/>
<path d="M489.369 69.6714H485.652V75.9832H489.369V69.6714Z" fill="url(#paint22_linear)"/>
<path d="M496.757 69.6714H493.04V75.9832H496.757V69.6714Z" fill="url(#paint23_linear)"/>
<path d="M505.118 69.6714H501.4V75.9832H505.118V69.6714Z" fill="url(#paint24_linear)"/>
<path d="M512.503 69.6714H508.786V75.9832H512.503V69.6714Z" fill="url(#paint25_linear)"/>
<path d="M520.866 69.6714H517.149V75.9832H520.866V69.6714Z" fill="url(#paint26_linear)"/>
<g opacity="0.77">
<path opacity="0.77" d="M483.091 79.25H471.873V90.4597H483.091V79.25Z" fill="white"/>
<path opacity="0.77" d="M496.724 79.25H485.506V90.4597H496.724V79.25Z" fill="white"/>
<path opacity="0.77" d="M510.217 79.25H498.999V90.4597H510.217V79.25Z" fill="white"/>
<path opacity="0.77" d="M523.6 79.25H512.382V90.4597H523.6V79.25Z" fill="white"/>
</g>
<g opacity="0.77">
<path opacity="0.77" d="M442.599 93.3455H431.381V104.555H442.599V93.3455Z" fill="white"/>
<path opacity="0.77" d="M456.092 93.3455H444.874V104.555H456.092V93.3455Z" fill="white"/>
<path opacity="0.77" d="M469.475 93.3455H458.257V104.555H469.475V93.3455Z" fill="white"/>
<path opacity="0.77" d="M483.078 93.3455H471.86V104.555H483.078V93.3455Z" fill="white"/>
<path opacity="0.77" d="M496.711 93.3455H485.493V104.555H496.711V93.3455Z" fill="white"/>
<path opacity="0.77" d="M510.203 93.3455H498.985V104.555H510.203V93.3455Z" fill="white"/>
<path opacity="0.77" d="M523.586 93.3455H512.368V104.555H523.586V93.3455Z" fill="white"/>
</g>
<path opacity="0.77" d="M442.931 106.773H431.714V117.983H442.931V106.773Z" fill="white"/>
<path opacity="0.77" d="M456.424 106.773H445.206V117.983H456.424V106.773Z" fill="white"/>
<path d="M469.807 106.773H458.589V117.983H469.807V106.773Z" fill="url(#paint27_linear)"/>
<path opacity="0.77" d="M483.413 106.773H472.195V117.983H483.413V106.773Z" fill="white"/>
<path opacity="0.77" d="M497.043 106.773H485.825V117.983H497.043V106.773Z" fill="white"/>
<path opacity="0.77" d="M510.538 106.773H499.321V117.983H510.538V106.773Z" fill="white"/>
<path opacity="0.77" d="M523.919 106.773H512.701V117.983H523.919V106.773Z" fill="white"/>
<g opacity="0.77">
<path opacity="0.77" d="M443.264 120.034H432.046V131.244H443.264V120.034Z" fill="white"/>
<path opacity="0.77" d="M456.759 120.034H445.542V131.244H456.759V120.034Z" fill="white"/>
<path opacity="0.77" d="M470.14 120.034H458.922V131.244H470.14V120.034Z" fill="white"/>
<path opacity="0.77" d="M483.745 120.034H472.527V131.244H483.745V120.034Z" fill="white"/>
<path opacity="0.77" d="M497.378 120.034H486.16V131.244H497.378V120.034Z" fill="white"/>
<path opacity="0.77" d="M510.871 120.034H499.653V131.244H510.871V120.034Z" fill="white"/>
<path opacity="0.77" d="M524.254 120.034H513.036V131.244H524.254V120.034Z" fill="white"/>
</g>
<g opacity="0.77">
<path opacity="0.77" d="M443.264 133.267H432.046V144.477H443.264V133.267Z" fill="white"/>
<path opacity="0.77" d="M456.759 133.267H445.542V144.477H456.759V133.267Z" fill="white"/>
<path opacity="0.77" d="M470.14 133.267H458.922V144.477H470.14V133.267Z" fill="white"/>
</g>
<path d="M437.398 64.647H432.628C432.099 64.6484 431.592 64.8592 431.218 65.2332C430.843 65.6072 430.632 66.114 430.631 66.6429V71.0768H432.073V68.1941C432.075 67.6652 432.286 67.1583 432.66 66.7844C433.034 66.4104 433.542 66.1996 434.071 66.1982H438.84C439.016 66.1992 439.19 66.2232 439.36 66.2695C439.272 65.8135 439.029 65.4021 438.671 65.106C438.313 64.8099 437.863 64.6476 437.398 64.647Z" fill="url(#paint28_linear)"/>
<path d="M446.654 64.647H441.885C441.355 64.6484 440.848 64.8592 440.474 65.2332C440.1 65.6072 439.889 66.114 439.887 66.6429V71.0768H441.33V68.1941C441.331 67.6652 441.542 67.1583 441.916 66.7844C442.291 66.4104 442.798 66.1996 443.327 66.1982H448.097C448.272 66.1992 448.447 66.2232 448.616 66.2695C448.528 65.8135 448.285 65.4021 447.927 65.106C447.569 64.8099 447.119 64.6476 446.654 64.647Z" fill="url(#paint29_linear)"/>
<path d="M454.358 64.647H449.589C449.059 64.6484 448.552 64.8592 448.178 65.2332C447.804 65.6072 447.593 66.114 447.591 66.6429V71.0768H449.034V68.1941C449.035 67.6652 449.246 67.1583 449.62 66.7844C449.995 66.4104 450.502 66.1996 451.031 66.1982H455.806C455.981 66.1994 456.154 66.2234 456.323 66.2695C456.235 65.813 455.991 65.4013 455.633 65.1051C455.274 64.809 454.823 64.647 454.358 64.647Z" fill="url(#paint30_linear)"/>
<path d="M462.296 64.647H457.526C456.997 64.6484 456.489 64.8592 456.115 65.2332C455.741 65.6072 455.53 66.114 455.529 66.6429V71.0768H456.971V68.1941C456.972 67.6652 457.183 67.1583 457.558 66.7844C457.932 66.4104 458.439 66.1996 458.968 66.1982H463.738C463.914 66.1992 464.088 66.2232 464.257 66.2695C464.17 65.8135 463.926 65.4021 463.568 65.106C463.21 64.8099 462.76 64.6476 462.296 64.647Z" fill="url(#paint31_linear)"/>
<path d="M469.634 64.647H464.873C464.343 64.6484 463.836 64.8592 463.462 65.2332C463.088 65.6072 462.877 66.114 462.875 66.6429V71.0768H464.318V68.1941C464.319 67.6652 464.53 67.1584 464.904 66.7844C465.279 66.4104 465.786 66.1996 466.315 66.1982H471.088C471.263 66.1996 471.437 66.2236 471.607 66.2695C471.518 65.8119 471.273 65.3993 470.913 65.1031C470.553 64.8069 470.101 64.6456 469.634 64.647Z" fill="url(#paint32_linear)"/>
<path d="M477.572 64.647H472.799C472.27 64.6484 471.763 64.8592 471.388 65.2332C471.014 65.6072 470.803 66.114 470.802 66.6429V71.0768H472.244V68.1941C472.246 67.6652 472.457 67.1583 472.831 66.7844C473.205 66.4104 473.712 66.1996 474.242 66.1982H479.014C479.189 66.1995 479.364 66.2235 479.533 66.2695C479.445 65.8137 479.202 65.4026 478.844 65.1066C478.486 64.8106 478.036 64.6481 477.572 64.647Z" fill="url(#paint33_linear)"/>
<path d="M485.275 64.647H480.503C479.974 64.6491 479.467 64.8601 479.093 65.234C478.719 65.6078 478.508 66.1142 478.506 66.6429V71.0768H479.948V68.1941C479.95 67.6654 480.162 67.159 480.536 66.7851C480.91 66.4113 481.417 66.2003 481.946 66.1982H486.718C486.893 66.1995 487.068 66.2235 487.237 66.2695C487.15 65.8135 486.906 65.4021 486.548 65.106C486.19 64.8099 485.74 64.6476 485.275 64.647Z" fill="url(#paint34_linear)"/>
<path d="M493.878 64.647H489.108C488.579 64.6484 488.072 64.8592 487.697 65.2332C487.323 65.6072 487.112 66.114 487.111 66.6429V71.0768H488.553V68.1941C488.555 67.6652 488.765 67.1583 489.14 66.7844C489.514 66.4104 490.021 66.1996 490.551 66.1982H495.323C495.497 66.1994 495.671 66.2234 495.839 66.2695C495.752 65.8135 495.508 65.4021 495.15 65.106C494.792 64.8099 494.342 64.6476 493.878 64.647Z" fill="url(#paint35_linear)"/>
<path d="M501.299 64.5757H496.526C495.997 64.5771 495.49 64.7879 495.116 65.1619C494.741 65.5359 494.53 66.0427 494.529 66.5716V71.0056H495.971V68.1228C495.973 67.5939 496.184 67.0871 496.558 66.7131C496.932 66.3391 497.439 66.1283 497.969 66.1269H502.741C502.916 66.1281 503.089 66.1521 503.258 66.1982C503.17 65.7429 502.926 65.3321 502.569 65.0362C502.212 64.7403 501.763 64.5775 501.299 64.5757Z" fill="url(#paint36_linear)"/>
<path d="M509.003 64.5757H504.23C503.701 64.5771 503.194 64.7879 502.819 65.1619C502.445 65.5359 502.234 66.0427 502.233 66.5716V71.0056H503.675V68.1228C503.677 67.5939 503.888 67.0871 504.262 66.7131C504.636 66.3391 505.143 66.1283 505.673 66.1269H510.445C510.62 66.1283 510.795 66.1523 510.964 66.1982C510.876 65.7427 510.632 65.3319 510.274 65.036C509.916 64.74 509.467 64.5774 509.003 64.5757Z" fill="url(#paint37_linear)"/>
<path d="M524.262 64.7542H519.49C518.961 64.7563 518.454 64.9673 518.08 65.3411C517.706 65.715 517.494 66.2214 517.492 66.7501V71.1867H518.935V68.304C518.936 67.7751 519.147 67.2683 519.521 66.8943C519.896 66.5203 520.403 66.3095 520.932 66.3081H525.705C525.879 66.3079 526.053 66.3319 526.221 66.3795C526.134 65.9236 525.891 65.5122 525.533 65.2157C525.176 64.9192 524.727 64.7561 524.262 64.7542Z" fill="url(#paint38_linear)"/>
<path d="M517.605 64.5757H512.835C512.306 64.5771 511.799 64.7879 511.425 65.1619C511.05 65.5359 510.84 66.0427 510.838 66.5716V71.0056H512.281V68.1228C512.282 67.5939 512.493 67.0871 512.867 66.7131C513.241 66.3391 513.749 66.1283 514.278 66.1269H519.048C519.223 66.1279 519.398 66.1519 519.567 66.1982C519.479 65.7424 519.235 65.3313 518.877 65.0353C518.519 64.7393 518.07 64.5768 517.605 64.5757Z" fill="url(#paint39_linear)"/>
<path d="M365.689 174.213C365.511 174.213 365.339 174.144 365.211 174.02C365.083 173.896 365.008 173.727 365.002 173.548C364.955 168.219 365.627 162.907 367 157.756C369.959 147.027 375.885 140.672 384.136 139.362C388.163 138.73 391.752 139.678 394.801 142.184C399.024 145.655 402.159 151.991 404.121 161.018C405.008 165.133 405.57 169.31 405.802 173.513C405.809 173.695 405.743 173.872 405.619 174.006C405.558 174.072 405.484 174.125 405.402 174.163C405.32 174.201 405.232 174.222 405.141 174.225C404.959 174.232 404.782 174.166 404.648 174.042C404.514 173.919 404.435 173.747 404.428 173.565C404.428 173.34 403.461 151.102 393.925 143.266C391.177 141.02 387.968 140.169 384.347 140.74C376.558 141.967 371.159 147.818 368.321 158.133C366.17 165.927 366.37 173.441 366.373 173.507C366.376 173.597 366.361 173.687 366.329 173.771C366.298 173.855 366.249 173.932 366.188 173.998C366.126 174.064 366.052 174.116 365.969 174.153C365.887 174.19 365.798 174.21 365.708 174.213H365.689Z" fill="url(#paint40_linear)"/>
<path d="M329.071 269.529L344.011 166.575L400.14 165.633L416.325 275.811L333.931 275.262C333.218 275.255 332.514 275.094 331.869 274.791C331.223 274.488 330.65 274.05 330.189 273.506C329.728 272.962 329.39 272.326 329.197 271.639C329.004 270.953 328.961 270.234 329.071 269.529Z" fill="url(#paint41_linear)"/>
<path d="M411.039 166.572L400.14 165.63L414.264 275.794L426.713 275.336C427.133 275.32 427.544 275.215 427.919 275.027C428.295 274.84 428.625 274.574 428.889 274.247C429.153 273.921 429.344 273.542 429.449 273.136C429.555 272.73 429.572 272.306 429.499 271.893L411.039 166.572Z" fill="url(#paint42_linear)"/>
<path d="M353.636 173.977C353.457 173.977 353.286 173.907 353.159 173.783C353.031 173.659 352.957 173.49 352.952 173.312C352.901 167.983 353.572 162.671 354.946 157.52C357.905 146.794 363.832 140.435 372.085 139.126C376.113 138.494 379.698 139.442 382.748 141.948C386.971 145.421 390.108 151.758 392.067 160.782C392.952 164.89 393.515 169.06 393.752 173.255C393.758 173.437 393.693 173.614 393.569 173.748C393.445 173.881 393.273 173.96 393.091 173.967C392.909 173.974 392.731 173.908 392.597 173.784C392.464 173.661 392.385 173.489 392.378 173.307C392.378 173.084 391.411 150.843 381.874 143.008C379.143 140.762 375.92 139.914 372.299 140.482C364.51 141.709 359.111 147.56 356.27 157.875C354.119 165.672 354.323 173.186 354.323 173.249C354.325 173.339 354.311 173.429 354.279 173.513C354.247 173.597 354.199 173.674 354.137 173.74C354.075 173.806 354.001 173.858 353.919 173.895C353.836 173.932 353.748 173.952 353.658 173.955L353.636 173.977Z" fill="url(#paint43_linear)"/>
<path d="M509.2 414.289C509.2 414.289 510.756 416.738 511.146 423.599C511.155 423.75 511.134 423.901 511.083 424.043C511.032 424.185 510.953 424.316 510.85 424.427C510.747 424.538 510.623 424.627 510.485 424.688C510.347 424.75 510.198 424.783 510.047 424.785H497.878C497.764 424.785 497.652 424.758 497.551 424.706C497.449 424.655 497.361 424.58 497.295 424.487C497.228 424.395 497.185 424.288 497.168 424.176C497.151 424.063 497.16 423.948 497.197 423.84C497.908 421.732 500.065 416.59 504.89 413.652L509.2 414.289Z" fill="url(#paint44_linear)"/>
<path d="M509.728 409.649L509.041 415.415C509.011 415.656 508.901 415.88 508.73 416.053C508.558 416.225 508.334 416.336 508.093 416.367C507.238 416.474 506.372 416.465 505.519 416.343C505.104 416.269 504.729 416.051 504.46 415.728C504.191 415.404 504.045 414.995 504.049 414.574V409.007L509.728 409.649Z" fill="url(#paint45_linear)"/>
<path d="M479.091 413.663C480.599 416.271 481.387 419.233 481.371 422.245C481.359 422.809 481.126 423.346 480.721 423.739C480.317 424.133 479.774 424.351 479.209 424.348H460.309C460.116 424.35 459.927 424.289 459.771 424.175C459.614 424.062 459.498 423.901 459.44 423.717C459.382 423.532 459.385 423.334 459.448 423.151C459.511 422.968 459.631 422.811 459.79 422.701C463.362 420.192 470.395 415.502 475.478 413.66L479.091 413.663Z" fill="url(#paint46_linear)"/>
<path d="M481.039 407.425L479.569 414.547C479.532 414.737 479.457 414.918 479.349 415.079C479.242 415.24 479.103 415.379 478.942 415.486C478.78 415.594 478.599 415.668 478.409 415.705C478.218 415.742 478.023 415.742 477.833 415.703C477.244 415.566 476.682 415.331 476.17 415.008C475.888 414.828 475.666 414.569 475.532 414.262C475.398 413.956 475.358 413.616 475.418 413.287L476.934 404.658L481.039 407.425Z" fill="url(#paint47_linear)"/>
<path d="M507.033 308.411C507.033 308.411 512.135 312.908 513.096 318.319C514.058 323.73 510.374 411.664 510.374 411.664C510.374 411.664 505.272 412.513 502.64 410.92C502.64 410.92 499.518 353.851 497.145 340.664C497.145 340.664 484.704 399.779 481.256 410.462C481.256 410.462 476.341 411.058 474.753 410.124C474.753 410.124 478.011 333.493 482.108 319.867L507.033 308.411Z" fill="url(#paint48_linear)"/>
<path d="M497.293 338.789C497.413 338.788 497.529 338.747 497.624 338.674C497.718 338.601 497.787 338.498 497.818 338.383L499.93 330.275L504.436 327.387C504.51 327.356 504.577 327.31 504.631 327.25C504.685 327.191 504.726 327.121 504.75 327.045C504.774 326.968 504.781 326.887 504.77 326.808C504.76 326.728 504.732 326.652 504.689 326.584C504.645 326.517 504.588 326.459 504.52 326.416C504.453 326.373 504.376 326.346 504.297 326.335C504.217 326.325 504.136 326.332 504.06 326.356C503.983 326.381 503.913 326.421 503.854 326.476L499.169 329.479C499.055 329.553 498.972 329.666 498.936 329.798L496.768 338.111C496.734 338.249 496.756 338.396 496.828 338.519C496.901 338.642 497.018 338.732 497.156 338.77C497.2 338.781 497.247 338.788 497.293 338.789Z" fill="#666694"/>
<path d="M456.661 257.6C478.149 255.819 483.764 260.261 483.764 260.261L473.437 276.552C473.437 276.552 452.325 276.135 437.195 264.472C439.645 261.775 441.682 258.731 443.239 255.437C447.472 257.232 452.078 257.974 456.661 257.6Z" fill="url(#paint49_linear)"/>
<path d="M423.009 226.082C423.016 225.935 423.071 225.794 423.167 225.682C423.263 225.57 423.393 225.493 423.538 225.464C423.683 225.435 423.833 225.455 423.965 225.522C424.097 225.588 424.202 225.696 424.265 225.83L427.013 231.678C427.542 232.808 427.712 234.072 427.499 235.302L426.537 238.703C426.395 239.522 426.428 240.361 426.635 241.165C426.841 241.97 427.216 242.722 427.735 243.371C430.255 246.52 435.62 252.266 443.258 255.451C441.701 258.744 439.664 261.789 437.214 264.486C431.664 260.211 426.916 254.424 424.301 246.588C423.695 246.402 423.168 246.021 422.801 245.505C422.434 244.989 422.249 244.366 422.273 243.733L423.009 226.082Z" fill="url(#paint50_linear)"/>
<path d="M449.586 267.045C457.152 258.899 471.566 255.22 479.901 253.71C481.67 253.384 483.497 253.692 485.061 254.579C486.625 255.465 487.827 256.874 488.454 258.558C492.21 268.642 502.42 294.878 504.39 299.386C506.013 303.087 507.709 306.7 508.786 308.957C509.096 309.604 509.138 310.348 508.9 311.025C508.663 311.702 508.166 312.258 507.519 312.57C500.502 315.952 487.872 319.777 482.751 321.267C482.489 321.344 482.212 321.358 481.944 321.309C481.675 321.26 481.422 321.149 481.204 320.985C480.986 320.822 480.809 320.609 480.687 320.365C480.565 320.121 480.502 319.852 480.503 319.579C480.504 318.584 480.233 317.609 479.72 316.757L460.331 284.467C448.242 297.86 437.659 299.084 429.529 296.152C430.873 292.029 431.775 287.775 432.219 283.462C444.239 281.409 449.586 267.045 449.586 267.045Z" fill="url(#paint51_linear)"/>
<path d="M412.374 281.214L414.542 278.326C421.559 283.141 427.425 284.284 432.227 283.463C431.783 287.776 430.881 292.029 429.538 296.152C418.825 292.292 412.374 281.214 412.374 281.214Z" fill="url(#paint52_linear)"/>
<path d="M413.902 281.266L401.689 281.741L390.447 275.468C392.059 274.455 401.186 276.522 401.186 276.522C401.186 276.522 410.728 275.081 413.311 275.078C415.457 275.078 415.149 278.156 414.984 279.196C414.951 279.407 414.921 279.537 414.921 279.537L413.902 281.266Z" fill="url(#paint53_linear)"/>
<path d="M468.428 238.75L474.871 254.462C474.871 254.462 467.453 259.583 461.51 259.097L458.295 244.969L468.428 238.75Z" fill="url(#paint54_linear)"/>
<path d="M457.542 228.037C457.394 228.246 452.872 244.543 452.872 244.543L462.238 246.921L468.813 232.112C468.813 232.112 460.012 224.54 457.542 228.037Z" fill="url(#paint55_linear)"/>
<path d="M465.296 234.36L462.444 242.424C462.408 242.526 462.358 242.623 462.296 242.712C461.911 243.261 460.441 245.051 458.696 243.439C457.117 241.973 455.652 240.661 454.3 240.419C454.006 240.364 453.701 240.421 453.446 240.58C453.192 240.739 453.006 240.987 452.927 241.276C452.517 242.759 451.655 246.111 451.352 249.139C451.323 249.436 451.407 249.732 451.587 249.97C451.766 250.208 452.029 250.37 452.322 250.424C454.152 250.773 458.029 251.396 461.268 251.168C461.483 251.154 461.69 251.082 461.868 250.959C462.046 250.837 462.187 250.669 462.276 250.473C463.167 248.524 465.903 242.613 466.92 241.084C467.873 239.648 470.217 239.689 471.195 239.774C471.352 239.791 471.512 239.775 471.663 239.728C471.814 239.681 471.954 239.603 472.074 239.5C472.934 238.75 474.569 236.828 472.269 234.53C472.155 234.417 472.065 234.282 472.005 234.133C471.944 233.984 471.915 233.825 471.917 233.664C471.92 233.503 471.955 233.345 472.02 233.198C472.085 233.051 472.179 232.919 472.296 232.809C473.283 231.881 474.341 230.237 472.695 228.197C471.049 226.157 468.818 226.453 467.475 226.948C467.21 227.041 466.921 227.039 466.658 226.942C466.395 226.845 466.174 226.658 466.035 226.415C465.938 226.249 465.792 226.116 465.617 226.034C465.442 225.953 465.247 225.927 465.057 225.959C464.893 225.97 464.729 225.946 464.575 225.89C464.421 225.834 464.28 225.746 464.162 225.632C464.044 225.519 463.951 225.382 463.888 225.23C463.826 225.078 463.797 224.915 463.801 224.751C463.826 223.425 463.351 221.731 461.054 221.028C456.963 219.757 454.413 223.705 454.16 226.654C453.908 229.602 458.422 230.728 461.076 230.53C463.092 230.379 464.592 232.378 465.197 233.344C465.289 233.495 465.345 233.665 465.362 233.841C465.379 234.017 465.357 234.194 465.296 234.36Z" fill="url(#paint56_linear)"/>
<path d="M465.862 244.019C465.862 244.019 466.524 238.901 468.653 238.651C470.783 238.401 472.857 240.15 470.739 243.022C468.107 246.594 465.862 244.019 465.862 244.019Z" fill="url(#paint57_linear)"/>
<path d="M179.171 319.793L199.502 316.048C199.57 316.036 199.64 316.037 199.707 316.051C199.774 316.066 199.838 316.093 199.895 316.133C199.951 316.172 199.999 316.222 200.036 316.28C200.073 316.338 200.098 316.403 200.11 316.471L207.206 347.278C207.223 347.353 207.223 347.431 207.208 347.507C207.192 347.583 207.161 347.654 207.116 347.717C207.071 347.781 207.014 347.835 206.948 347.876C206.882 347.917 206.808 347.944 206.731 347.956L179.212 352.049C179.053 352.071 179.034 352.025 178.91 351.92C178.786 351.816 178.861 351.66 178.861 351.498V320.342C178.861 320.073 178.907 319.845 179.171 319.793Z" fill="url(#paint58_linear)"/>
<path d="M194.142 318.566C194.142 318.71 194.185 318.852 194.265 318.972C194.346 319.092 194.46 319.186 194.594 319.241C194.728 319.296 194.875 319.31 195.016 319.282C195.158 319.254 195.289 319.184 195.391 319.081C195.493 318.979 195.562 318.849 195.59 318.707C195.618 318.565 195.603 318.418 195.547 318.284C195.492 318.151 195.397 318.037 195.277 317.957C195.156 317.877 195.015 317.835 194.87 317.836C194.774 317.836 194.679 317.854 194.591 317.891C194.502 317.928 194.422 317.982 194.354 318.05C194.287 318.117 194.233 318.198 194.197 318.287C194.16 318.375 194.142 318.47 194.142 318.566Z" fill="url(#paint59_linear)"/>
<path d="M184.081 320.721C184.081 320.866 184.124 321.007 184.204 321.127C184.284 321.247 184.398 321.341 184.532 321.396C184.666 321.451 184.812 321.466 184.954 321.437C185.096 321.409 185.226 321.34 185.328 321.238C185.431 321.135 185.5 321.005 185.528 320.864C185.557 320.722 185.542 320.575 185.487 320.442C185.432 320.308 185.338 320.194 185.218 320.114C185.097 320.034 184.956 319.991 184.812 319.991C184.618 319.991 184.432 320.068 184.295 320.205C184.158 320.342 184.081 320.527 184.081 320.721Z" fill="url(#paint60_linear)"/>
<path d="M184.806 320.825C184.793 320.825 184.779 320.823 184.766 320.817C184.754 320.812 184.742 320.805 184.732 320.795C184.723 320.785 184.715 320.774 184.71 320.761C184.705 320.748 184.702 320.735 184.702 320.721C184.702 320.188 184.738 307.623 188.087 307.268C188.636 307.208 189.213 307.45 189.809 307.985C192.543 310.434 194.975 318.313 194.975 318.577C194.971 318.601 194.958 318.623 194.939 318.64C194.92 318.656 194.896 318.664 194.872 318.664C194.847 318.664 194.823 318.656 194.804 318.64C194.785 318.623 194.773 318.601 194.769 318.577C194.18 316.585 193.455 314.635 192.598 312.743C190.95 309.149 189.411 307.321 188.109 307.463C186.806 307.606 185.848 309.934 185.317 314.19C185.063 316.359 184.926 318.54 184.908 320.724C184.907 320.751 184.896 320.776 184.877 320.795C184.858 320.814 184.833 320.825 184.806 320.825Z" fill="white"/>
<path d="M156.991 270.007C156.991 270.007 168.162 295.479 184.045 299.425C187.12 300.02 190.73 299.759 192.345 300.762C194.181 301.901 191.95 304.973 191.057 307.301C190.164 309.629 189.818 308.539 189.408 307.798C188.999 307.057 190.68 304.71 188.499 303.784C186.317 302.859 186.98 304.279 188.004 305.5C189.029 306.722 188.996 308.605 188.93 308.704C188.864 308.803 187.21 307.979 185.658 307.252C184.323 306.629 183.578 304.915 183.391 304.441C180.245 304.073 160.563 300.981 152.196 280.297C152.21 280.311 151.402 259.764 156.991 270.007Z" fill="url(#paint61_linear)"/>
<path d="M110.547 330.193H110.531C110.517 330.191 110.504 330.187 110.492 330.18C110.481 330.173 110.47 330.164 110.462 330.153C110.454 330.141 110.449 330.129 110.446 330.115C110.443 330.102 110.443 330.088 110.446 330.075C110.501 329.729 111.82 321.564 114.507 320.024C114.739 319.883 115.001 319.8 115.272 319.78C115.542 319.76 115.814 319.804 116.064 319.908C117.603 320.521 118.413 322.379 118.405 325.312C118.387 326.735 118.23 328.153 117.935 329.545C117.933 329.558 117.928 329.571 117.92 329.583C117.912 329.594 117.902 329.604 117.891 329.611C117.879 329.619 117.866 329.624 117.853 329.626C117.839 329.628 117.825 329.628 117.812 329.625C117.785 329.618 117.763 329.602 117.748 329.578C117.734 329.555 117.729 329.528 117.735 329.501C117.754 329.421 119.523 321.506 115.987 320.101C115.767 320.007 115.527 319.968 115.288 319.985C115.049 320.003 114.818 320.077 114.614 320.202C112.009 321.685 110.668 330.023 110.655 330.108C110.65 330.133 110.637 330.155 110.617 330.17C110.597 330.186 110.573 330.194 110.547 330.193Z" fill="#002D6A"/>
<path d="M107.025 329.509L120.216 328.29L123.153 329.918L120.636 333.065L108.588 331.837L107.025 329.509Z" fill="#002D6A"/>
<path d="M108.932 409.767L108.712 414.808C108.694 415.273 108.519 415.718 108.216 416.072C107.913 416.425 107.499 416.666 107.042 416.754C104.843 417.197 102.603 417.407 100.36 417.38C100.099 417.369 99.8446 417.301 99.6136 417.18C99.3827 417.059 99.1814 416.888 99.0239 416.681C98.8665 416.473 98.7568 416.233 98.7028 415.978C98.6488 415.723 98.6517 415.46 98.7114 415.206C99.1729 413.229 100.069 410.248 101.555 408.416L107.099 407.985C107.34 407.969 107.582 408.003 107.808 408.086C108.035 408.169 108.242 408.298 108.415 408.467C108.588 408.635 108.723 408.838 108.812 409.062C108.901 409.286 108.942 409.526 108.932 409.767Z" fill="#002D6A"/>
<path d="M147.798 347.865L149.171 353.296C149.171 353.296 148.512 385.264 148.946 397.997C149.018 399.994 149.688 401.923 150.869 403.535L157.01 411.955L142.523 404.867L142.113 403.197L144.138 399.903L138.377 364.596C138.038 362.522 138.305 360.395 139.146 358.468L141.591 352.865L147.798 347.865Z" fill="url(#paint62_linear)"/>
<path d="M158.002 413.163L153.584 413.509C153.175 413.542 152.765 413.48 152.384 413.329C152.003 413.179 151.661 412.942 151.386 412.639C149.869 410.956 146.743 407.697 145.369 407.697C143.523 407.719 144.27 414.229 144.27 414.229L143.24 414.308L141.303 406.297C141.063 405.314 141.14 404.281 141.523 403.344C141.905 402.408 142.573 401.616 143.432 401.081C143.432 401.081 144.094 404.15 146.479 405.347C148.864 406.544 156.241 410.915 156.241 410.915C156.833 410.8 157.439 410.769 158.04 410.824C159.455 410.975 159.42 413.053 158.002 413.163Z" fill="#002D6A"/>
<path d="M129.03 351.967C129.03 351.967 113.383 388.207 111.086 396.375C108.789 404.543 108.281 411.258 108.292 411.889C108.306 412.875 107.16 413.913 103.794 414.174C102.055 414.308 101.151 413.679 100.681 413.04C100.488 412.768 100.366 412.452 100.327 412.121C100.288 411.79 100.333 411.454 100.459 411.145C101.354 408.916 104.19 401.789 105.195 398.577C106.396 394.733 108.286 377.648 109.591 371.655C110.896 365.661 112.383 359.152 119.584 352.711C119.581 352.695 124.436 347.141 129.03 351.967Z" fill="url(#paint63_linear)"/>
<path d="M136.179 294.038C139.352 273.612 126.466 263.204 126.466 263.204C130.313 258.888 136.137 255.624 140.602 253.556C142.577 252.641 144.773 252.313 146.93 252.612C149.086 252.912 151.11 253.826 152.76 255.245C156.458 258.438 160.486 262.962 159.944 267.198C159.373 271.682 152.754 294.343 152.754 294.343C152.754 294.343 145.341 298.59 136.179 294.038Z" fill="url(#paint64_linear)"/>
<path d="M126.453 304.77C127.928 298.818 136.179 294.024 136.179 294.024C145.333 298.59 152.757 294.343 152.757 294.343C152.757 294.343 155.002 300.811 154.287 307.043C153.573 313.275 149.163 353.296 149.163 353.296C137.552 356.604 119.037 353.224 119.037 353.224C125.51 339.308 124.977 310.725 126.453 304.77Z" fill="#002D6A"/>
<path d="M141.283 240.919L138.781 258.504C138.533 260.055 139.901 259.698 141.418 259.289C143.891 258.616 147.081 257.383 148.012 255.338C148.1 255.126 148.149 254.9 148.158 254.671L148.877 242.558C148.904 242.09 148.779 241.626 148.519 241.235C148.259 240.845 147.88 240.549 147.438 240.392L144.141 239.228C143.842 239.122 143.524 239.083 143.209 239.114C142.893 239.144 142.589 239.244 142.316 239.405C142.043 239.567 141.81 239.786 141.631 240.047C141.453 240.309 141.334 240.607 141.283 240.919Z" fill="url(#paint65_linear)"/>
<path d="M100.659 361.03L96.1369 358.433L107.025 329.509L109.638 331.272L100.659 361.03Z" fill="#002D6A"/>
<path d="M112.935 333.339C112.909 333.339 112.884 333.329 112.865 333.311C112.846 333.294 112.835 333.269 112.833 333.243C112.833 333.158 112.196 324.669 114.71 321.795C114.931 321.524 115.205 321.301 115.515 321.141C115.826 320.981 116.166 320.887 116.515 320.864C116.854 320.846 117.193 320.899 117.509 321.02C117.826 321.142 118.114 321.329 118.353 321.569C119.479 322.621 120.301 324.798 120.79 328.043C121.012 329.553 121.144 331.075 121.186 332.601C121.186 332.628 121.175 332.654 121.156 332.674C121.137 332.693 121.111 332.704 121.084 332.705C121.029 332.705 120.982 332.658 120.98 332.603C120.977 332.549 120.826 324.156 118.213 321.72C117.992 321.501 117.729 321.329 117.438 321.217C117.148 321.105 116.837 321.055 116.526 321.07C116.207 321.092 115.896 321.18 115.612 321.328C115.329 321.476 115.078 321.68 114.877 321.929C112.457 324.697 113.042 333.144 113.048 333.229C113.049 333.243 113.047 333.256 113.043 333.269C113.039 333.282 113.032 333.294 113.024 333.304C113.015 333.314 113.004 333.322 112.993 333.328C112.981 333.335 112.968 333.338 112.954 333.339H112.935Z" fill="#002D6A"/>
<path d="M132.774 271.144C132.129 272.003 122.334 283.655 119.521 296.654C116.707 309.654 117.658 318.344 117.658 318.344C117.658 318.344 120.51 320.468 119.485 321.976C118.46 323.483 118.729 324.507 117.419 324.801C116.108 325.095 114.485 325.504 114.671 322.92C114.858 320.337 111.781 319.815 112.295 318.253C112.809 316.691 109.311 274.735 126.216 263.344L126.455 263.185C133.612 265.76 133.816 269.768 132.774 271.144Z" fill="url(#paint66_linear)"/>
<path d="M123.158 330.012L109.638 331.272L100.659 361.03L120.07 361.535L123.158 330.012Z" fill="#0095DA"/>
<path d="M100.387 360.563H100.434C100.457 360.557 100.478 360.546 100.497 360.532C100.515 360.518 100.531 360.5 100.543 360.479C100.555 360.459 100.562 360.437 100.565 360.413C100.568 360.39 100.567 360.366 100.56 360.343L99.6921 357.049L106.542 335.818C106.552 335.774 106.546 335.727 106.523 335.688C106.501 335.648 106.465 335.618 106.422 335.604C106.378 335.59 106.331 335.592 106.29 335.611C106.249 335.63 106.216 335.664 106.198 335.706L99.3294 356.988C99.3199 357.022 99.3199 357.057 99.3294 357.09L100.211 360.445C100.224 360.481 100.248 360.512 100.28 360.533C100.311 360.555 100.349 360.565 100.387 360.563Z" fill="#BDD0FB"/>
<path d="M96.4638 358.49C96.4903 358.49 96.5165 358.485 96.5408 358.474L98.8816 357.354C98.903 357.344 98.9221 357.33 98.938 357.312C98.9538 357.295 98.9661 357.274 98.974 357.252C98.9819 357.23 98.9854 357.206 98.9841 357.183C98.9829 357.159 98.977 357.136 98.9668 357.115C98.9455 357.073 98.9088 357.04 98.8643 357.025C98.8198 357.009 98.7709 357.011 98.7277 357.03L96.3869 358.15C96.3653 358.16 96.3459 358.174 96.3298 358.191C96.3137 358.208 96.3013 358.229 96.2934 358.251C96.2854 358.274 96.282 358.297 96.2835 358.321C96.2849 358.345 96.2911 358.368 96.3017 358.389C96.3166 358.419 96.3396 358.445 96.3683 358.463C96.3969 358.481 96.43 358.49 96.4638 358.49Z" fill="#BDD0FB"/>
<path d="M144.053 226.972C144.053 226.972 149.408 228.422 153.839 235.285C158.271 242.149 156.156 245.861 152.988 246.759C149.82 247.656 144.979 248.238 139.231 244.203C133.483 240.167 137.127 225.328 144.053 226.972Z" fill="url(#paint67_linear)"/>
<path d="M142.138 239.824C142.138 239.824 136.871 229.641 146.347 228.232L148.792 229.492C148.792 229.492 151.474 223.09 145.374 221.028C139.275 218.966 131.088 222.64 129.692 230.665C128.296 238.69 130.392 243.469 134.94 246.605C139.487 249.74 140.588 245.342 140.588 245.342C140.588 245.342 137.923 242.193 138.566 240.227C139.209 238.261 141.588 240.208 141.588 240.208L142.138 239.824Z" fill="url(#paint68_linear)"/>
<path d="M141.234 241.161C141.234 241.161 138.558 235.909 136.289 238.451C134.019 240.993 139.069 243.261 141.025 243.942L141.234 241.161Z" fill="url(#paint69_linear)"/>
<path d="M134.242 229.1C134.242 229.1 115.834 223.442 112.811 242.627C109.789 261.812 107.684 267.956 103.121 264.662C103.121 264.662 103.874 271.827 112.635 268.626C135.379 260.299 121.537 233.677 134.242 229.1Z" fill="url(#paint70_linear)"/>
<path d="M527.803 98.2823L498.215 174.906L533.967 188.692L563.556 112.068L527.803 98.2823Z" fill="#12B4FF"/>
<path opacity="0.5" d="M533.694 105.406L554.166 113.294C553.531 114.941 554.504 116.904 556.325 117.607C556.383 117.629 556.523 117.681 556.526 117.678L532.631 179.525L532.436 179.445C530.612 178.743 528.606 179.5 527.96 181.175C527.951 181.192 527.94 181.209 527.927 181.224L507.928 173.512C509.027 170.69 507.247 169.705 505.423 169.002C505.365 168.98 505.346 169.002 505.343 169.002L529.224 107.152C529.224 107.152 529.224 107.152 529.293 107.182C531.114 107.896 533.06 107.053 533.694 105.406Z" fill="white"/>
<path d="M542.395 146.588C544.162 140.173 540.39 133.541 533.971 131.775C527.551 130.01 520.915 133.778 519.148 140.193C517.381 146.608 521.152 153.24 527.572 155.005C533.991 156.771 540.628 153.002 542.395 146.588Z" fill="url(#paint71_linear)"/>
<path d="M537.956 147.464L536.766 147.005C536.281 148.134 535.6 149.169 534.755 150.061C534.629 150.184 534.463 150.259 534.288 150.271C534.112 150.283 533.937 150.232 533.796 150.127L532.804 149.397C532.719 149.334 532.648 149.253 532.596 149.161C532.545 149.068 532.513 148.966 532.505 148.86C532.496 148.754 532.51 148.648 532.546 148.548C532.582 148.449 532.639 148.358 532.713 148.282C533.505 147.468 534.13 146.508 534.551 145.454C535.013 144.26 534.95 143.214 534.12 142.893C533.373 142.604 532.661 143.12 531.576 144.609C530.015 146.725 528.326 148.027 526.24 147.222C524.358 146.497 523.452 144.567 523.99 142.031L522.8 141.572C522.709 141.537 522.626 141.485 522.555 141.418C522.484 141.351 522.427 141.271 522.388 141.182C522.348 141.093 522.327 140.996 522.324 140.899C522.322 140.802 522.339 140.705 522.375 140.614L522.649 139.914C522.685 139.823 522.737 139.74 522.805 139.669C522.872 139.599 522.953 139.542 523.042 139.503C523.132 139.464 523.228 139.442 523.326 139.44C523.423 139.438 523.52 139.456 523.611 139.491L524.677 139.903C525.047 139.008 525.552 138.174 526.174 137.432C526.296 137.291 526.467 137.202 526.652 137.182C526.837 137.163 527.023 137.213 527.172 137.325L528.089 137.997C528.174 138.058 528.245 138.136 528.298 138.226C528.35 138.317 528.383 138.417 528.394 138.521C528.405 138.624 528.394 138.729 528.361 138.828C528.328 138.928 528.275 139.019 528.205 139.096C527.569 139.801 527.07 140.619 526.732 141.506C526.183 142.923 526.617 143.554 527.142 143.757C527.79 144.007 528.565 143.329 529.842 141.707C531.645 139.381 533.161 138.711 535.123 139.466C536.925 140.161 538.03 142.121 537.434 144.867L538.766 145.38C538.949 145.451 539.097 145.592 539.177 145.771C539.256 145.951 539.262 146.155 539.192 146.338L538.917 147.038C538.845 147.221 538.704 147.369 538.524 147.449C538.344 147.528 538.14 147.534 537.956 147.464Z" fill="white"/>
<path d="M507.915 176.533C507.892 176.536 507.869 176.536 507.846 176.533L501.142 173.946C501.119 173.938 501.098 173.925 501.08 173.908C501.062 173.891 501.048 173.87 501.038 173.848C501.019 173.801 501.019 173.749 501.038 173.702L508.343 154.78C508.362 154.734 508.398 154.696 508.444 154.675C508.49 154.655 508.542 154.654 508.589 154.672C508.636 154.69 508.674 154.726 508.694 154.772C508.715 154.819 508.716 154.871 508.698 154.918L501.458 173.664L507.986 176.179C508.027 176.195 508.061 176.225 508.082 176.263C508.103 176.302 508.11 176.346 508.102 176.389C508.094 176.432 508.071 176.471 508.037 176.499C508.004 176.528 507.961 176.543 507.918 176.544L507.915 176.533Z" fill="#DCE5FE"/>
<path d="M553.468 132.394C553.437 132.393 553.407 132.385 553.38 132.371C553.354 132.356 553.331 132.335 553.314 132.31C553.296 132.285 553.285 132.256 553.282 132.226C553.278 132.195 553.281 132.165 553.292 132.136L560.435 113.626L553.443 110.916C553.417 110.91 553.393 110.898 553.372 110.881C553.351 110.864 553.334 110.844 553.321 110.82C553.309 110.796 553.302 110.77 553.3 110.743C553.299 110.717 553.303 110.69 553.313 110.665C553.322 110.64 553.337 110.617 553.356 110.598C553.375 110.58 553.398 110.565 553.423 110.555C553.448 110.546 553.474 110.542 553.501 110.544C553.528 110.545 553.554 110.552 553.578 110.565L560.76 113.34C560.807 113.36 560.845 113.396 560.867 113.442C560.885 113.488 560.885 113.539 560.867 113.585L553.652 132.273C553.637 132.31 553.612 132.341 553.579 132.362C553.546 132.384 553.507 132.395 553.468 132.394Z" fill="white"/>
<path d="M525.982 94.6067L496.394 171.23L532.382 185.107L561.971 108.483L525.982 94.6067Z" fill="#65CEFF"/>
<path opacity="0.5" d="M531.941 101.76L552.399 109.648C551.764 111.295 552.822 113.28 554.644 113.983C554.737 114.008 554.829 114.038 554.918 114.074L531.037 175.923L530.763 175.811C528.941 175.108 526.889 175.86 526.243 177.535C526.243 177.559 526.166 177.579 526.166 177.579L506.167 169.869C507.266 167.047 505.453 166.026 503.631 165.337C503.596 165.32 503.558 165.311 503.519 165.312L527.4 103.465C527.429 103.489 527.463 103.508 527.499 103.52C529.331 104.223 531.307 103.408 531.941 101.76Z" fill="white"/>
<path d="M534.573 150.41C540.49 147.358 542.809 140.091 539.754 134.179C536.699 128.267 529.427 125.949 523.511 129.002C517.595 132.054 515.275 139.322 518.33 145.233C521.385 151.145 528.657 153.463 534.573 150.41Z" fill="url(#paint72_linear)"/>
<path d="M536.197 143.796L535.008 143.337C534.523 144.467 533.842 145.501 532.996 146.393C532.871 146.518 532.705 146.593 532.528 146.606C532.352 146.618 532.177 146.567 532.035 146.462L531.046 145.731C530.96 145.668 530.889 145.588 530.838 145.495C530.786 145.403 530.755 145.3 530.746 145.195C530.738 145.089 530.752 144.983 530.788 144.883C530.824 144.783 530.881 144.693 530.955 144.617C531.747 143.803 532.371 142.841 532.79 141.786C533.252 140.595 533.191 139.549 532.362 139.227C531.612 138.939 530.903 139.455 529.815 140.943C528.254 143.06 526.567 144.359 524.482 143.557C522.6 142.829 521.693 140.899 522.229 138.365L521.039 137.907C520.856 137.836 520.709 137.695 520.629 137.515C520.549 137.336 520.544 137.132 520.613 136.949L520.888 136.249C520.923 136.158 520.976 136.075 521.043 136.004C521.11 135.933 521.19 135.877 521.279 135.837C521.369 135.798 521.464 135.776 521.562 135.774C521.659 135.771 521.756 135.788 521.847 135.823L522.916 136.235C523.285 135.34 523.789 134.507 524.41 133.764C524.533 133.623 524.703 133.533 524.889 133.513C525.074 133.492 525.261 133.543 525.411 133.654L526.328 134.327C526.413 134.388 526.483 134.466 526.535 134.557C526.587 134.647 526.619 134.747 526.63 134.851C526.641 134.954 526.629 135.059 526.597 135.158C526.564 135.257 526.511 135.348 526.441 135.425C525.807 136.132 525.309 136.949 524.971 137.835C524.421 139.252 524.853 139.881 525.38 140.084C526.029 140.334 526.801 139.656 528.078 138.036C529.883 135.71 531.397 135.038 533.362 135.796C535.164 136.49 536.266 138.45 535.672 141.196L537.002 141.709C537.093 141.744 537.177 141.796 537.248 141.863C537.318 141.93 537.375 142.011 537.415 142.1C537.454 142.189 537.476 142.285 537.478 142.382C537.48 142.48 537.463 142.577 537.428 142.667L537.153 143.368C537.083 143.551 536.943 143.699 536.764 143.779C536.585 143.859 536.381 143.865 536.197 143.796Z" fill="white"/>
<path d="M506.417 172.716C506.394 172.716 506.371 172.711 506.349 172.703L499.411 170.029C499.364 170.01 499.325 169.974 499.304 169.927C499.294 169.904 499.29 169.879 499.29 169.854C499.29 169.829 499.294 169.805 499.304 169.781L506.519 151.096C506.537 151.049 506.573 151.011 506.619 150.991C506.666 150.97 506.718 150.969 506.765 150.987C506.812 151.006 506.85 151.042 506.87 151.088C506.89 151.134 506.892 151.186 506.873 151.233L499.73 169.743L506.494 172.348C506.541 172.367 506.578 172.404 506.598 172.45C506.618 172.496 506.619 172.549 506.601 172.596C506.587 172.633 506.562 172.664 506.529 172.686C506.496 172.708 506.457 172.718 506.417 172.716Z" fill="#DCE5FE"/>
<path d="M551.643 128.72C551.613 128.72 551.583 128.712 551.556 128.697C551.529 128.682 551.507 128.662 551.489 128.637C551.472 128.611 551.461 128.582 551.457 128.552C551.454 128.522 551.457 128.491 551.468 128.462L558.611 109.953L551.85 107.344C551.824 107.337 551.801 107.325 551.781 107.308C551.76 107.291 551.744 107.27 551.732 107.246C551.72 107.223 551.714 107.197 551.713 107.171C551.712 107.144 551.716 107.118 551.726 107.093C551.735 107.069 551.75 107.047 551.768 107.028C551.787 107.009 551.809 106.995 551.834 106.986C551.859 106.976 551.885 106.972 551.911 106.973C551.938 106.974 551.963 106.981 551.987 106.993L558.924 109.667C558.972 109.686 559.01 109.723 559.032 109.769C559.049 109.815 559.049 109.865 559.032 109.911L551.817 128.597C551.803 128.632 551.779 128.663 551.749 128.685C551.718 128.707 551.681 128.719 551.643 128.72Z" fill="white"/>
<path d="M538.339 92.5008L487.006 156.643L517.132 180.717L568.465 116.575L538.339 92.5008Z" fill="#12B4FF"/>
<path opacity="0.5" d="M541.89 101.134L559.015 114.82C557.916 116.193 558.295 118.411 559.823 119.63C559.872 119.669 559.839 119.652 560.04 119.809L518.608 171.591L518.391 171.412C516.866 170.191 514.701 170.284 513.58 171.687C513.564 171.706 513.511 171.687 513.511 171.687L496.774 158.308C498.661 155.947 497.222 154.446 495.694 153.227C495.657 153.199 495.613 153.181 495.568 153.174L537.002 101.398C537.002 101.398 537.057 101.439 537.104 101.477C538.631 102.696 540.788 102.512 541.89 101.134Z" fill="white"/>
<path d="M526.125 148.359C532.717 147.694 537.521 141.815 536.855 135.228C536.189 128.641 530.306 123.841 523.714 124.506C517.122 125.171 512.319 131.05 512.984 137.637C513.65 144.224 519.534 149.024 526.125 148.359Z" fill="#002D6A"/>
<path d="M533.238 142.525L532.244 141.731C531.441 142.662 530.479 143.443 529.403 144.037C529.246 144.118 529.065 144.139 528.894 144.098C528.723 144.057 528.572 143.955 528.469 143.812L527.743 142.818C527.679 142.732 527.635 142.634 527.613 142.529C527.591 142.424 527.592 142.316 527.615 142.212C527.639 142.107 527.685 142.009 527.751 141.925C527.816 141.84 527.899 141.77 527.993 141.72C528.995 141.183 529.88 140.454 530.601 139.576C531.4 138.577 531.656 137.561 530.961 137.006C530.334 136.504 529.502 136.781 528.018 137.874C525.892 139.419 523.897 140.152 522.144 138.758C520.567 137.498 520.284 135.386 521.561 133.13L520.567 132.336C520.49 132.276 520.427 132.2 520.379 132.115C520.332 132.03 520.302 131.936 520.291 131.839C520.281 131.742 520.289 131.643 520.317 131.55C520.344 131.456 520.39 131.369 520.452 131.293L520.919 130.708C520.979 130.632 521.054 130.568 521.14 130.521C521.225 130.473 521.319 130.444 521.416 130.433C521.513 130.422 521.611 130.43 521.705 130.457C521.799 130.484 521.886 130.529 521.963 130.59L522.856 131.307C523.478 130.568 524.209 129.929 525.023 129.409C525.183 129.313 525.372 129.279 525.555 129.316C525.738 129.352 525.9 129.456 526.01 129.607L526.683 130.524C526.744 130.608 526.787 130.703 526.809 130.804C526.831 130.906 526.831 131.01 526.81 131.112C526.789 131.213 526.747 131.309 526.687 131.393C526.627 131.477 526.55 131.548 526.46 131.6C525.642 132.083 524.921 132.712 524.331 133.456C523.383 134.64 523.603 135.378 524.042 135.724C524.592 136.158 525.526 135.743 527.235 134.582C529.656 132.91 531.304 132.726 532.947 134.033C534.455 135.238 534.917 137.44 533.521 139.878L534.634 140.767C534.71 140.828 534.774 140.903 534.821 140.989C534.869 141.074 534.899 141.168 534.91 141.265C534.921 141.362 534.912 141.46 534.885 141.553C534.858 141.647 534.813 141.735 534.752 141.811L534.282 142.396C534.223 142.473 534.148 142.538 534.063 142.586C533.978 142.635 533.884 142.666 533.787 142.678C533.69 142.69 533.592 142.683 533.497 142.656C533.403 142.63 533.315 142.585 533.238 142.525Z" fill="white"/>
<path d="M496.013 161.279C495.97 161.279 495.928 161.264 495.894 161.238L490.086 156.595C490.047 156.564 490.021 156.519 490.015 156.469C490.01 156.419 490.025 156.369 490.056 156.329L502.733 140.49C502.748 140.47 502.768 140.452 502.791 140.439C502.813 140.427 502.838 140.419 502.864 140.416C502.89 140.413 502.916 140.415 502.94 140.423C502.965 140.431 502.988 140.443 503.008 140.46C503.028 140.476 503.045 140.496 503.058 140.518C503.07 140.541 503.078 140.566 503.081 140.591C503.083 140.617 503.081 140.643 503.073 140.668C503.065 140.692 503.052 140.715 503.035 140.735L490.479 156.428L496.139 160.949C496.16 160.965 496.177 160.985 496.19 161.007C496.203 161.029 496.211 161.054 496.214 161.08C496.216 161.106 496.214 161.132 496.206 161.157C496.199 161.181 496.186 161.204 496.169 161.224C496.149 161.244 496.124 161.26 496.097 161.269C496.07 161.279 496.041 161.282 496.013 161.279Z" fill="#DCE5FE"/>
<path d="M552.569 132.762C552.526 132.762 552.485 132.747 552.451 132.721C552.43 132.705 552.413 132.686 552.4 132.663C552.388 132.641 552.379 132.616 552.377 132.59C552.374 132.564 552.376 132.538 552.384 132.513C552.391 132.489 552.404 132.466 552.421 132.446L564.82 116.956L559.161 112.432C559.14 112.416 559.123 112.397 559.11 112.374C559.097 112.352 559.089 112.327 559.086 112.301C559.083 112.275 559.086 112.249 559.093 112.225C559.101 112.2 559.113 112.177 559.13 112.157C559.146 112.137 559.166 112.12 559.189 112.107C559.211 112.095 559.236 112.087 559.262 112.084C559.288 112.082 559.314 112.084 559.338 112.092C559.363 112.1 559.386 112.113 559.405 112.13L565.213 116.77C565.234 116.785 565.251 116.805 565.264 116.827C565.277 116.85 565.285 116.875 565.288 116.9C565.291 116.926 565.288 116.952 565.281 116.977C565.273 117.002 565.26 117.024 565.244 117.044L552.726 132.693C552.707 132.716 552.683 132.734 552.656 132.746C552.629 132.758 552.599 132.763 552.569 132.762Z" fill="#DCE5FE"/>
<path d="M515.275 153.745C515.805 154.165 516.198 154.732 516.404 155.375C516.611 156.017 516.623 156.707 516.437 157.356C516.252 158.006 515.877 158.585 515.362 159.022C514.847 159.459 514.213 159.733 513.542 159.81C512.871 159.887 512.192 159.763 511.591 159.454C510.99 159.145 510.494 158.665 510.167 158.074C509.839 157.484 509.694 156.81 509.75 156.137C509.806 155.464 510.06 154.823 510.481 154.294C511.044 153.587 511.865 153.132 512.764 153.029C513.663 152.926 514.566 153.184 515.275 153.745Z" fill="#002D6A"/>
<path d="M547.363 113.662C547.891 114.083 548.281 114.651 548.486 115.295C548.69 115.938 548.699 116.627 548.512 117.276C548.324 117.924 547.948 118.502 547.432 118.937C546.915 119.372 546.281 119.644 545.61 119.719C544.939 119.794 544.26 119.668 543.66 119.358C543.061 119.047 542.566 118.566 542.24 117.975C541.914 117.384 541.771 116.71 541.828 116.037C541.886 115.365 542.141 114.724 542.563 114.197C543.129 113.49 543.952 113.037 544.852 112.936C545.752 112.836 546.655 113.097 547.363 113.662Z" fill="#002D6A"/>
<path d="M535.693 172.115C538.322 167.091 536.377 160.888 531.349 158.262C526.321 155.635 520.114 157.579 517.486 162.603C514.857 167.627 516.802 173.829 521.83 176.456C526.858 179.083 533.065 177.139 535.693 172.115Z" fill="#002D6A"/>
<path d="M532.438 175.299C536.858 172.054 537.808 165.842 534.56 161.425C531.312 157.008 525.096 156.058 520.675 159.304C516.255 162.55 515.305 168.762 518.553 173.179C521.801 177.596 528.018 178.545 532.438 175.299Z" fill="#004AAD"/>
<path opacity="0.72" d="M517.671 165.825C517.62 165.838 517.568 165.838 517.517 165.825C517.474 165.817 517.434 165.799 517.398 165.775C517.362 165.75 517.331 165.719 517.307 165.683C517.283 165.646 517.266 165.605 517.258 165.562C517.25 165.52 517.25 165.476 517.259 165.433C517.672 163.423 518.725 161.602 520.26 160.239C521.796 158.877 523.73 158.048 525.776 157.875C525.819 157.871 525.863 157.876 525.904 157.889C525.946 157.902 525.984 157.923 526.018 157.951C526.051 157.979 526.078 158.013 526.098 158.051C526.119 158.09 526.131 158.132 526.135 158.175C526.138 158.218 526.134 158.262 526.121 158.303C526.107 158.345 526.086 158.383 526.058 158.417C526.031 158.45 525.996 158.477 525.958 158.497C525.919 158.517 525.877 158.53 525.834 158.533C525.301 158.578 524.773 158.67 524.257 158.808C522.674 159.231 521.241 160.088 520.12 161.281C518.999 162.474 518.233 163.957 517.91 165.562C517.899 165.624 517.871 165.682 517.829 165.728C517.786 165.775 517.732 165.809 517.671 165.825Z" fill="white"/>
<path opacity="0.72" d="M534.204 171.54C536.442 167.474 534.958 162.366 530.889 160.13C526.821 157.894 521.709 159.377 519.471 163.443C517.233 167.508 518.718 172.616 522.786 174.852C526.855 177.088 531.967 175.605 534.204 171.54Z" fill="white"/>
<path d="M527.675 173.729L527.433 172.848C526.574 173.048 525.686 173.094 524.812 172.983C524.687 172.963 524.573 172.899 524.492 172.803C524.41 172.707 524.366 172.584 524.367 172.458V171.574C524.367 171.498 524.383 171.423 524.415 171.354C524.446 171.285 524.493 171.223 524.55 171.173C524.608 171.123 524.675 171.087 524.749 171.065C524.822 171.044 524.898 171.039 524.974 171.05C525.781 171.161 526.603 171.114 527.392 170.91C528.279 170.671 528.856 170.191 528.691 169.576C528.54 169.026 527.938 168.829 526.617 168.832C524.729 168.832 523.259 168.403 522.839 166.858C522.463 165.463 523.193 164.112 524.889 163.354L524.65 162.47C524.613 162.334 524.631 162.189 524.701 162.066C524.771 161.944 524.887 161.854 525.023 161.817L525.542 161.677C525.61 161.659 525.681 161.654 525.75 161.663C525.82 161.672 525.887 161.695 525.948 161.729C526.008 161.764 526.061 161.811 526.104 161.866C526.147 161.922 526.178 161.985 526.196 162.053L526.411 162.844C527.084 162.678 527.779 162.618 528.471 162.665C528.604 162.676 528.729 162.736 528.819 162.834C528.909 162.933 528.959 163.062 528.958 163.195V164.019C528.958 164.093 528.943 164.166 528.913 164.234C528.883 164.302 528.839 164.363 528.784 164.413C528.729 164.463 528.665 164.501 528.594 164.524C528.524 164.548 528.449 164.556 528.375 164.549C527.696 164.482 527.011 164.54 526.353 164.722C525.303 164.996 525.119 165.523 525.227 165.913C525.356 166.394 526.078 166.553 527.559 166.602C529.669 166.657 530.702 167.25 531.098 168.705C531.461 170.042 530.793 171.511 528.952 172.332L529.227 173.32C529.245 173.388 529.25 173.458 529.241 173.528C529.232 173.597 529.209 173.664 529.174 173.725C529.139 173.786 529.093 173.839 529.037 173.882C528.982 173.924 528.918 173.956 528.85 173.974L528.334 174.114C528.265 174.133 528.194 174.138 528.123 174.129C528.053 174.12 527.985 174.096 527.923 174.061C527.862 174.025 527.808 173.977 527.765 173.92C527.723 173.863 527.692 173.798 527.675 173.729Z" fill="#002D6A"/>
<path d="M556.358 165.116C565.881 162.491 571.471 152.65 568.845 143.134C566.218 133.618 556.369 128.032 546.847 130.657C537.324 133.281 531.734 143.123 534.36 152.638C536.987 162.154 546.836 167.74 556.358 165.116Z" fill="#002D6A"/>
<path d="M554.559 164.913C563.967 163.283 570.273 154.341 568.643 144.939C567.013 135.538 558.064 129.236 548.655 130.866C539.246 132.495 532.941 141.437 534.571 150.839C536.201 160.241 545.15 166.542 554.559 164.913Z" fill="url(#paint73_linear)"/>
<path opacity="0.72" d="M536.049 145.059C535.998 145.07 535.946 145.07 535.895 145.059C535.809 145.04 535.734 144.989 535.685 144.915C535.637 144.842 535.62 144.752 535.637 144.666C536.346 141.22 538.152 138.096 540.784 135.759C543.416 133.423 546.734 132 550.242 131.702C550.286 131.697 550.331 131.701 550.374 131.713C550.416 131.726 550.456 131.747 550.49 131.775C550.525 131.803 550.553 131.838 550.574 131.877C550.595 131.916 550.607 131.959 550.611 132.003C550.615 132.048 550.61 132.092 550.596 132.134C550.583 132.176 550.561 132.216 550.532 132.249C550.503 132.283 550.467 132.31 550.427 132.33C550.388 132.35 550.344 132.361 550.3 132.364C549.358 132.444 548.424 132.609 547.511 132.855C544.714 133.605 542.181 135.121 540.199 137.23C538.216 139.34 536.862 141.961 536.288 144.798C536.276 144.859 536.248 144.916 536.206 144.962C536.163 145.009 536.109 145.042 536.049 145.059Z" fill="white"/>
<path opacity="0.72" d="M565.99 152.563C568.414 144.859 564.128 136.651 556.419 134.229C548.709 131.808 540.494 136.09 538.071 143.794C535.648 151.498 539.933 159.706 547.643 162.128C555.352 164.55 563.567 160.267 565.99 152.563Z" fill="white"/>
<path d="M553.528 159.066L553.111 157.531C551.614 157.879 550.068 157.959 548.544 157.767C548.327 157.731 548.13 157.619 547.988 157.451C547.846 157.283 547.768 157.07 547.769 156.85V155.313C547.77 155.181 547.798 155.05 547.853 154.93C547.909 154.81 547.989 154.702 548.089 154.616C548.189 154.529 548.306 154.465 548.433 154.428C548.56 154.39 548.693 154.38 548.824 154.399C550.23 154.596 551.66 154.514 553.034 154.157C554.578 153.74 555.586 152.905 555.295 151.832C555.02 150.865 553.987 150.533 551.687 150.539C548.39 150.539 545.841 149.795 545.11 147.104C544.45 144.672 545.725 142.335 548.682 141.004L548.264 139.466C548.2 139.229 548.233 138.976 548.356 138.763C548.478 138.55 548.68 138.394 548.918 138.33L549.819 138.085C550.057 138.02 550.31 138.053 550.524 138.175C550.738 138.297 550.894 138.499 550.959 138.736L551.333 140.109C552.501 139.825 553.705 139.719 554.905 139.796C555.137 139.815 555.353 139.921 555.51 140.092C555.667 140.264 555.754 140.488 555.754 140.721V142.14C555.754 142.269 555.727 142.397 555.675 142.515C555.623 142.633 555.547 142.739 555.451 142.826C555.356 142.913 555.243 142.979 555.12 143.019C554.998 143.06 554.868 143.075 554.74 143.063C553.559 142.945 552.367 143.047 551.223 143.362C549.393 143.859 549.074 144.759 549.259 145.438C549.487 146.261 550.739 146.552 553.319 146.637C556.995 146.736 558.79 147.763 559.479 150.3C560.108 152.625 558.952 155.184 555.745 156.614L556.212 158.333C556.277 158.57 556.245 158.824 556.123 159.037C556.001 159.251 555.799 159.407 555.561 159.472L554.657 159.717C554.421 159.779 554.17 159.745 553.959 159.623C553.747 159.502 553.593 159.301 553.528 159.066Z" fill="#002D6A"/>
<path d="M592.35 183.635C592.576 173.482 584.521 165.068 574.36 164.843C564.199 164.618 555.78 172.666 555.554 182.82C555.329 192.974 563.384 201.387 573.544 201.612C583.705 201.837 592.125 193.789 592.35 183.635Z" fill="#002D6A"/>
<path d="M576.054 199.445C585.881 198.954 593.449 190.596 592.957 180.777C592.466 170.957 584.102 163.395 574.275 163.886C564.449 164.377 556.881 172.735 557.372 182.555C557.863 192.374 566.228 199.936 576.054 199.445Z" fill="url(#paint74_linear)"/>
<path opacity="0.72" d="M557.96 180.264C557.909 180.276 557.857 180.276 557.806 180.264C557.763 180.255 557.723 180.238 557.687 180.213C557.65 180.189 557.62 180.157 557.596 180.121C557.572 180.084 557.555 180.044 557.547 180.001C557.539 179.958 557.539 179.914 557.548 179.871C558.162 176.83 559.614 174.02 561.74 171.759C563.865 169.497 566.58 167.873 569.579 167.069C570.557 166.803 571.558 166.626 572.568 166.539C572.654 166.535 572.738 166.565 572.803 166.622C572.867 166.678 572.907 166.758 572.915 166.844C572.922 166.929 572.895 167.014 572.841 167.081C572.787 167.148 572.709 167.19 572.623 167.201C571.653 167.284 570.692 167.454 569.752 167.709C566.872 168.481 564.264 170.041 562.223 172.213C560.181 174.386 558.787 177.084 558.196 180.006C558.185 180.067 558.157 180.123 558.116 180.169C558.074 180.215 558.02 180.247 557.96 180.264Z" fill="white"/>
<path opacity="0.72" d="M579.428 197.713C587.276 194.962 591.406 186.375 588.653 178.533C585.9 170.691 577.306 166.563 569.458 169.314C561.61 172.065 557.48 180.653 560.233 188.495C562.986 196.337 571.58 200.464 579.428 197.713Z" fill="white"/>
<path d="M575.948 194.688L575.516 193.107C573.978 193.466 572.388 193.548 570.821 193.349C570.597 193.313 570.393 193.199 570.246 193.026C570.1 192.853 570.02 192.633 570.021 192.407V190.825C570.021 190.688 570.051 190.552 570.109 190.427C570.166 190.302 570.25 190.192 570.354 190.102C570.459 190.013 570.581 189.947 570.713 189.909C570.846 189.871 570.984 189.863 571.12 189.884C572.566 190.087 574.037 190.003 575.45 189.637C577.038 189.206 578.074 188.346 577.775 187.245C577.5 186.249 576.431 185.906 574.063 185.914C570.681 185.914 568.049 185.148 567.296 182.378C566.617 179.877 567.931 177.472 570.967 176.099L570.538 174.52C570.505 174.399 570.496 174.273 570.512 174.149C570.528 174.025 570.568 173.905 570.631 173.797C570.693 173.688 570.776 173.593 570.875 173.516C570.974 173.44 571.087 173.383 571.208 173.351L572.137 173.098C572.381 173.032 572.642 173.066 572.862 173.191C573.081 173.317 573.243 173.524 573.31 173.768L573.695 175.187C574.9 174.893 576.144 174.785 577.382 174.866C577.621 174.885 577.844 174.993 578.006 175.169C578.168 175.346 578.257 175.577 578.256 175.816V177.277C578.256 177.41 578.228 177.541 578.175 177.663C578.121 177.784 578.042 177.893 577.944 177.983C577.846 178.072 577.73 178.14 577.604 178.182C577.478 178.224 577.344 178.239 577.212 178.227C575.997 178.105 574.77 178.21 573.593 178.534C571.708 179.045 571.395 179.97 571.571 180.67C571.805 181.529 573.096 181.815 575.75 181.905C579.53 182.004 581.38 183.064 582.086 185.672C582.737 188.064 581.536 190.696 578.239 192.168L578.717 193.936C578.784 194.18 578.75 194.441 578.625 194.661C578.499 194.881 578.291 195.042 578.047 195.108L577.118 195.358C576.997 195.391 576.871 195.4 576.747 195.385C576.622 195.369 576.502 195.329 576.393 195.267C576.285 195.204 576.189 195.121 576.113 195.022C576.036 194.923 575.98 194.809 575.948 194.688Z" fill="#002D6A"/>
<path d="M603.64 152.975C603.699 145.534 597.709 139.454 590.262 139.395C582.815 139.337 576.73 145.322 576.672 152.764C576.613 160.205 582.603 166.285 590.05 166.344C597.497 166.402 603.582 160.417 603.64 152.975Z" fill="#002D6A"/>
<path d="M603.153 154.038C603.798 146.873 598.507 140.541 591.336 139.896C584.165 139.252 577.829 144.538 577.184 151.704C576.539 158.87 581.829 165.201 589 165.846C596.172 166.491 602.508 161.204 603.153 154.038Z" fill="url(#paint75_linear)"/>
<path opacity="0.72" d="M578.484 150.788C578.433 150.801 578.38 150.801 578.33 150.788C578.287 150.78 578.246 150.763 578.21 150.739C578.173 150.714 578.142 150.683 578.118 150.646C578.094 150.61 578.078 150.569 578.07 150.526C578.062 150.483 578.062 150.439 578.071 150.396C578.612 147.783 579.983 145.414 581.98 143.642C583.977 141.871 586.494 140.792 589.155 140.567C589.199 140.562 589.244 140.566 589.286 140.578C589.329 140.591 589.369 140.612 589.403 140.64C589.437 140.668 589.466 140.703 589.486 140.742C589.507 140.781 589.52 140.824 589.524 140.868C589.528 140.913 589.523 140.957 589.509 140.999C589.495 141.041 589.473 141.081 589.444 141.114C589.415 141.148 589.38 141.175 589.34 141.195C589.3 141.215 589.257 141.226 589.213 141.229C588.507 141.288 587.808 141.412 587.124 141.597C585.03 142.158 583.134 143.293 581.65 144.872C580.165 146.452 579.152 148.415 578.723 150.539C578.709 150.598 578.68 150.653 578.638 150.697C578.596 150.741 578.542 150.772 578.484 150.788Z" fill="white"/>
<path opacity="0.72" d="M601.541 154.027C602.063 147.96 597.564 142.62 591.492 142.098C585.421 141.577 580.076 146.073 579.555 152.14C579.033 158.207 583.532 163.548 589.604 164.069C595.675 164.59 601.02 160.094 601.541 154.027Z" fill="white"/>
<path d="M591.638 161.273L591.325 160.115C590.197 160.378 589.031 160.437 587.883 160.29C587.719 160.265 587.569 160.181 587.462 160.055C587.354 159.928 587.296 159.767 587.297 159.601V158.443C587.298 158.343 587.319 158.244 587.361 158.154C587.402 158.063 587.463 157.982 587.539 157.917C587.614 157.851 587.703 157.803 587.799 157.775C587.895 157.747 587.995 157.739 588.094 157.754C589.154 157.902 590.232 157.839 591.268 157.57C592.43 157.254 593.191 156.625 592.971 155.818C592.773 155.091 591.985 154.838 590.251 154.843C587.778 154.843 585.855 154.294 585.306 152.252C584.805 150.421 585.767 148.658 587.993 147.653L587.679 146.495C587.655 146.406 587.649 146.314 587.66 146.223C587.672 146.132 587.702 146.044 587.747 145.964C587.793 145.885 587.854 145.815 587.927 145.759C587.999 145.703 588.082 145.662 588.171 145.638L588.85 145.454C589.029 145.405 589.22 145.43 589.382 145.522C589.543 145.614 589.661 145.766 589.71 145.945L589.985 146.983C590.869 146.769 591.78 146.689 592.688 146.747C592.863 146.762 593.026 146.841 593.145 146.971C593.263 147.1 593.329 147.269 593.328 147.444V148.529C593.328 148.626 593.308 148.723 593.268 148.812C593.229 148.901 593.171 148.981 593.099 149.046C593.027 149.112 592.942 149.161 592.849 149.192C592.757 149.222 592.659 149.233 592.562 149.224C591.671 149.136 590.773 149.214 589.91 149.451C588.537 149.825 588.292 150.503 588.429 151.016C588.602 151.645 589.548 151.84 591.49 151.92C594.262 151.994 595.611 152.768 596.136 154.679C596.611 156.433 595.738 158.363 593.32 159.439L593.672 160.735C593.696 160.824 593.703 160.916 593.691 161.007C593.68 161.098 593.65 161.186 593.605 161.266C593.559 161.346 593.498 161.416 593.425 161.471C593.352 161.527 593.269 161.568 593.18 161.592L592.501 161.778C592.411 161.802 592.318 161.808 592.226 161.796C592.133 161.783 592.045 161.753 591.964 161.706C591.884 161.659 591.814 161.596 591.758 161.522C591.702 161.448 591.661 161.363 591.638 161.273Z" fill="#002D6A"/>
<defs>
<linearGradient id="paint0_linear" x1="634.628" y1="169.469" x2="512.606" y2="266.778" gradientUnits="userSpaceOnUse">
<stop stop-color="#12B4FF"/>
<stop offset="1" stop-color="#12B4FF"/>
</linearGradient>
<linearGradient id="paint1_linear" x1="274895" y1="31204.6" x2="38915.9" y2="104165" gradientUnits="userSpaceOnUse">
<stop stop-color="#12B4FF"/>
<stop offset="1" stop-color="#12B4FF"/>
</linearGradient>
<linearGradient id="paint2_linear" x1="21340.1" y1="27250.8" x2="24909.7" y2="27250.8" gradientUnits="userSpaceOnUse">
<stop stop-color="#DAE3FE"/>
<stop offset="1" stop-color="#E9EFFD"/>
</linearGradient>
<linearGradient id="paint3_linear" x1="109442" y1="8836.63" x2="173544" y2="8836.63" gradientUnits="userSpaceOnUse">
<stop stop-color="#DAE3FE"/>
<stop offset="1" stop-color="#E9EFFD"/>
</linearGradient>
<linearGradient id="paint4_linear" x1="74334.1" y1="8204.03" x2="103218" y2="8204.03" gradientUnits="userSpaceOnUse">
<stop stop-color="#DAE3FE"/>
<stop offset="1" stop-color="#E9EFFD"/>
</linearGradient>
<linearGradient id="paint5_linear" x1="21340.7" y1="36154" x2="24910.4" y2="36154" gradientUnits="userSpaceOnUse">
<stop stop-color="#DAE3FE"/>
<stop offset="1" stop-color="#E9EFFD"/>
</linearGradient>
<linearGradient id="paint6_linear" x1="109441" y1="11947.4" x2="173543" y2="11947.4" gradientUnits="userSpaceOnUse">
<stop stop-color="#DAE3FE"/>
<stop offset="1" stop-color="#E9EFFD"/>
</linearGradient>
<linearGradient id="paint7_linear" x1="74331.5" y1="10763.5" x2="103215" y2="10763.5" gradientUnits="userSpaceOnUse">
<stop stop-color="#DAE3FE"/>
<stop offset="1" stop-color="#E9EFFD"/>
</linearGradient>
<linearGradient id="paint8_linear" x1="21342.1" y1="45061.9" x2="24912.1" y2="45061.9" gradientUnits="userSpaceOnUse">
<stop stop-color="#DAE3FE"/>
<stop offset="1" stop-color="#E9EFFD"/>
</linearGradient>
<linearGradient id="paint9_linear" x1="109449" y1="15070.7" x2="173555" y2="15070.7" gradientUnits="userSpaceOnUse">
<stop stop-color="#DAE3FE"/>
<stop offset="1" stop-color="#E9EFFD"/>
</linearGradient>
<linearGradient id="paint10_linear" x1="74331.4" y1="13350.3" x2="103214" y2="13350.3" gradientUnits="userSpaceOnUse">
<stop stop-color="#DAE3FE"/>
<stop offset="1" stop-color="#E9EFFD"/>
</linearGradient>
<linearGradient id="paint11_linear" x1="279.22" y1="361.823" x2="333.293" y2="361.823" gradientUnits="userSpaceOnUse">
<stop stop-color="#09005D"/>
<stop offset="1" stop-color="#1A0F91"/>
</linearGradient>
<linearGradient id="paint12_linear" x1="110790" y1="13152.3" x2="196364" y2="13152.3" gradientUnits="userSpaceOnUse">
<stop stop-color="#DAE3FE"/>
<stop offset="1" stop-color="#E9EFFD"/>
</linearGradient>
<linearGradient id="paint13_linear" x1="474.45" y1="40.6793" x2="478.612" y2="126.769" gradientUnits="userSpaceOnUse">
<stop stop-color="#E1473D"/>
<stop offset="1" stop-color="#E9605A"/>
</linearGradient>
<linearGradient id="paint14_linear" x1="521.946" y1="28.7668" x2="470.079" y2="118.162" gradientUnits="userSpaceOnUse">
<stop stop-color="#FE7062"/>
<stop offset="1" stop-color="#FF928E"/>
</linearGradient>
<linearGradient id="paint15_linear" x1="8349.91" y1="653.64" x2="6245.74" y2="1036.97" gradientUnits="userSpaceOnUse">
<stop stop-color="#E1473D"/>
<stop offset="1" stop-color="#E9605A"/>
</linearGradient>
<linearGradient id="paint16_linear" x1="8368.19" y1="707.858" x2="6264.03" y2="1091.2" gradientUnits="userSpaceOnUse">
<stop stop-color="#E1473D"/>
<stop offset="1" stop-color="#E9605A"/>
</linearGradient>
<linearGradient id="paint17_linear" x1="8383.98" y1="755.765" x2="6279.91" y2="1139.08" gradientUnits="userSpaceOnUse">
<stop stop-color="#E1473D"/>
<stop offset="1" stop-color="#E9605A"/>
</linearGradient>
<linearGradient id="paint18_linear" x1="8402.36" y1="810.047" x2="6298.24" y2="1193.34" gradientUnits="userSpaceOnUse">
<stop stop-color="#E1473D"/>
<stop offset="1" stop-color="#E9605A"/>
</linearGradient>
<linearGradient id="paint19_linear" x1="8418.68" y1="857.891" x2="6314.49" y2="1241.23" gradientUnits="userSpaceOnUse">
<stop stop-color="#E1473D"/>
<stop offset="1" stop-color="#E9605A"/>
</linearGradient>
<linearGradient id="paint20_linear" x1="8436.83" y1="912.172" x2="6332.69" y2="1295.51" gradientUnits="userSpaceOnUse">
<stop stop-color="#E1473D"/>
<stop offset="1" stop-color="#E9605A"/>
</linearGradient>
<linearGradient id="paint21_linear" x1="8452.89" y1="960.079" x2="6348.78" y2="1343.38" gradientUnits="userSpaceOnUse">
<stop stop-color="#E1473D"/>
<stop offset="1" stop-color="#E9605A"/>
</linearGradient>
<linearGradient id="paint22_linear" x1="8471.07" y1="1014.3" x2="6366.93" y2="1397.62" gradientUnits="userSpaceOnUse">
<stop stop-color="#E1473D"/>
<stop offset="1" stop-color="#E9605A"/>
</linearGradient>
<linearGradient id="paint23_linear" x1="8487.19" y1="1062.2" x2="6383.05" y2="1445.53" gradientUnits="userSpaceOnUse">
<stop stop-color="#E1473D"/>
<stop offset="1" stop-color="#E9605A"/>
</linearGradient>
<linearGradient id="paint24_linear" x1="8505.6" y1="1116.42" x2="6401.45" y2="1499.76" gradientUnits="userSpaceOnUse">
<stop stop-color="#E1473D"/>
<stop offset="1" stop-color="#E9605A"/>
</linearGradient>
<linearGradient id="paint25_linear" x1="8521.66" y1="1164.33" x2="6417.52" y2="1547.66" gradientUnits="userSpaceOnUse">
<stop stop-color="#E1473D"/>
<stop offset="1" stop-color="#E9605A"/>
</linearGradient>
<linearGradient id="paint26_linear" x1="8539.78" y1="1218.55" x2="6435.63" y2="1601.87" gradientUnits="userSpaceOnUse">
<stop stop-color="#E1473D"/>
<stop offset="1" stop-color="#E9605A"/>
</linearGradient>
<linearGradient id="paint27_linear" x1="13816.5" y1="564.689" x2="19445.9" y2="4726.46" gradientUnits="userSpaceOnUse">
<stop stop-color="#E1473D"/>
<stop offset="1" stop-color="#E9605A"/>
</linearGradient>
<linearGradient id="paint28_linear" x1="17752.9" y1="1442.5" x2="11862.1" y2="2082.26" gradientUnits="userSpaceOnUse">
<stop stop-color="#E1473D"/>
<stop offset="1" stop-color="#E9605A"/>
</linearGradient>
<linearGradient id="paint29_linear" x1="17763.9" y1="1459.73" x2="11873.3" y2="2099.49" gradientUnits="userSpaceOnUse">
<stop stop-color="#E1473D"/>
<stop offset="1" stop-color="#E9605A"/>
</linearGradient>
<linearGradient id="paint30_linear" x1="17778.7" y1="1474.07" x2="11886.2" y2="2114.23" gradientUnits="userSpaceOnUse">
<stop stop-color="#E1473D"/>
<stop offset="1" stop-color="#E9605A"/>
</linearGradient>
<linearGradient id="paint31_linear" x1="17783" y1="1488.86" x2="11892.2" y2="2128.63" gradientUnits="userSpaceOnUse">
<stop stop-color="#E1473D"/>
<stop offset="1" stop-color="#E9605A"/>
</linearGradient>
<linearGradient id="paint32_linear" x1="17797.2" y1="1502.49" x2="11904.6" y2="2142.65" gradientUnits="userSpaceOnUse">
<stop stop-color="#E1473D"/>
<stop offset="1" stop-color="#E9605A"/>
</linearGradient>
<linearGradient id="paint33_linear" x1="17806.8" y1="1517.28" x2="11914.2" y2="2157.45" gradientUnits="userSpaceOnUse">
<stop stop-color="#E1473D"/>
<stop offset="1" stop-color="#E9605A"/>
</linearGradient>
<linearGradient id="paint34_linear" x1="17815.7" y1="1531.62" x2="11923.2" y2="2171.76" gradientUnits="userSpaceOnUse">
<stop stop-color="#E1473D"/>
<stop offset="1" stop-color="#E9605A"/>
</linearGradient>
<linearGradient id="paint35_linear" x1="17821" y1="1547.63" x2="11930.2" y2="2187.4" gradientUnits="userSpaceOnUse">
<stop stop-color="#E1473D"/>
<stop offset="1" stop-color="#E9605A"/>
</linearGradient>
<linearGradient id="paint36_linear" x1="17829.5" y1="1559.71" x2="11938.8" y2="2199.47" gradientUnits="userSpaceOnUse">
<stop stop-color="#E1473D"/>
<stop offset="1" stop-color="#E9605A"/>
</linearGradient>
<linearGradient id="paint37_linear" x1="17844.3" y1="1574.05" x2="11951.7" y2="2214.09" gradientUnits="userSpaceOnUse">
<stop stop-color="#E1473D"/>
<stop offset="1" stop-color="#E9605A"/>
</linearGradient>
<linearGradient id="paint38_linear" x1="17857.7" y1="1607.42" x2="11966.9" y2="2246.92" gradientUnits="userSpaceOnUse">
<stop stop-color="#E1473D"/>
<stop offset="1" stop-color="#E9605A"/>
</linearGradient>
<linearGradient id="paint39_linear" x1="17849.2" y1="1590.06" x2="11958.4" y2="2229.71" gradientUnits="userSpaceOnUse">
<stop stop-color="#E1473D"/>
<stop offset="1" stop-color="#E9605A"/>
</linearGradient>
<linearGradient id="paint40_linear" x1="54571.4" y1="20146.1" x2="60632.3" y2="20146.1" gradientUnits="userSpaceOnUse">
<stop stop-color="#09005D"/>
<stop offset="1" stop-color="#1A0F91"/>
</linearGradient>
<linearGradient id="paint41_linear" x1="132767" y1="72316.7" x2="46519.4" y2="149755" gradientUnits="userSpaceOnUse">
<stop stop-color="#12B4FF"/>
<stop offset="1" stop-color="#12B4FF"/>
</linearGradient>
<linearGradient id="paint42_linear" x1="37470.8" y1="43175.9" x2="76262.8" y2="61001.2" gradientUnits="userSpaceOnUse">
<stop stop-color="#0095DA"/>
<stop offset="1" stop-color="#E9605A"/>
</linearGradient>
<linearGradient id="paint43_linear" x1="52768.6" y1="20108.5" x2="58829.5" y2="20108.5" gradientUnits="userSpaceOnUse">
<stop stop-color="#09005D"/>
<stop offset="1" stop-color="#1A0F91"/>
</linearGradient>
<linearGradient id="paint44_linear" x1="45677.4" y1="6957.93" x2="46801.2" y2="9243.28" gradientUnits="userSpaceOnUse">
<stop stop-color="#09005D"/>
<stop offset="1" stop-color="#1A0F91"/>
</linearGradient>
<linearGradient id="paint45_linear" x1="509.728" y1="412.727" x2="504.049" y2="412.727" gradientUnits="userSpaceOnUse">
<stop stop-color="#FF928E"/>
<stop offset="1" stop-color="#FEB3B1"/>
</linearGradient>
<linearGradient id="paint46_linear" x1="70458.9" y1="7280.26" x2="71209.9" y2="9779.17" gradientUnits="userSpaceOnUse">
<stop stop-color="#09005D"/>
<stop offset="1" stop-color="#1A0F91"/>
</linearGradient>
<linearGradient id="paint47_linear" x1="-21224.6" y1="16951.6" x2="-21108.5" y2="16951.6" gradientUnits="userSpaceOnUse">
<stop stop-color="#FF928E"/>
<stop offset="1" stop-color="#FEB3B1"/>
</linearGradient>
<linearGradient id="paint48_linear" x1="74139.7" y1="112685" x2="47703.7" y2="135325" gradientUnits="userSpaceOnUse">
<stop stop-color="#09005D"/>
<stop offset="1" stop-color="#1A0F91"/>
</linearGradient>
<linearGradient id="paint49_linear" x1="74541.7" y1="20713.4" x2="82435.3" y2="20713.4" gradientUnits="userSpaceOnUse">
<stop stop-color="#DAE3FE"/>
<stop offset="1" stop-color="#E9EFFD"/>
</linearGradient>
<linearGradient id="paint50_linear" x1="-77322.3" y1="35054.9" x2="-75719.1" y2="35054.9" gradientUnits="userSpaceOnUse">
<stop stop-color="#FF928E"/>
<stop offset="1" stop-color="#FEB3B1"/>
</linearGradient>
<linearGradient id="paint51_linear" x1="124756" y1="71195.5" x2="147773" y2="71195.5" gradientUnits="userSpaceOnUse">
<stop stop-color="#DAE3FE"/>
<stop offset="1" stop-color="#E9EFFD"/>
</linearGradient>
<linearGradient id="paint52_linear" x1="-69697.1" y1="16480.9" x2="-72556.5" y2="20442.8" gradientUnits="userSpaceOnUse">
<stop stop-color="#FF928E"/>
<stop offset="1" stop-color="#FEB3B1"/>
</linearGradient>
<linearGradient id="paint53_linear" x1="-85903.6" y1="6499.08" x2="-86370.8" y2="8649.92" gradientUnits="userSpaceOnUse">
<stop stop-color="#FF928E"/>
<stop offset="1" stop-color="#FEB3B1"/>
</linearGradient>
<linearGradient id="paint54_linear" x1="-61154" y1="16232.7" x2="-64740.1" y2="21592.1" gradientUnits="userSpaceOnUse">
<stop stop-color="#FF928E"/>
<stop offset="1" stop-color="#FEB3B1"/>
</linearGradient>
<linearGradient id="paint55_linear" x1="32642" y1="47634.1" x2="32936.2" y2="49742.7" gradientUnits="userSpaceOnUse">
<stop stop-color="#FF928E"/>
<stop offset="1" stop-color="#FEB3B1"/>
</linearGradient>
<linearGradient id="paint56_linear" x1="44640.8" y1="70214.8" x2="43104.9" y2="69127.6" gradientUnits="userSpaceOnUse">
<stop stop-color="#500F01"/>
<stop offset="1" stop-color="#7E0800"/>
</linearGradient>
<linearGradient id="paint57_linear" x1="12098.2" y1="16830.7" x2="12000.4" y2="16350.2" gradientUnits="userSpaceOnUse">
<stop stop-color="#FF928E"/>
<stop offset="1" stop-color="#FEB3B1"/>
</linearGradient>
<linearGradient id="paint58_linear" x1="22010.4" y1="37759.3" x2="16745.1" y2="48734.6" gradientUnits="userSpaceOnUse">
<stop stop-color="#FE7062"/>
<stop offset="1" stop-color="#FF928E"/>
</linearGradient>
<linearGradient id="paint59_linear" x1="194.862" y1="318.475" x2="195.065" y2="321.213" gradientUnits="userSpaceOnUse">
<stop stop-color="#A737D5"/>
<stop offset="1" stop-color="#EF497A"/>
</linearGradient>
<linearGradient id="paint60_linear" x1="8137.93" y1="2025.73" x2="8136.87" y2="2040.3" gradientUnits="userSpaceOnUse">
<stop stop-color="#A737D5"/>
<stop offset="1" stop-color="#EF497A"/>
</linearGradient>
<linearGradient id="paint61_linear" x1="-222825" y1="44463.2" x2="-222293" y2="39088.5" gradientUnits="userSpaceOnUse">
<stop stop-color="#FF928E"/>
<stop offset="1" stop-color="#FEB3B1"/>
</linearGradient>
<linearGradient id="paint62_linear" x1="-95143.6" y1="93915.9" x2="-109671" y2="55779.6" gradientUnits="userSpaceOnUse">
<stop stop-color="#FF928E"/>
<stop offset="1" stop-color="#FEB3B1"/>
</linearGradient>
<linearGradient id="paint63_linear" x1="-153087" y1="99323.9" x2="-164197" y2="58987.4" gradientUnits="userSpaceOnUse">
<stop stop-color="#FF928E"/>
<stop offset="1" stop-color="#FEB3B1"/>
</linearGradient>
<linearGradient id="paint64_linear" x1="-187071" y1="28951.4" x2="-198120" y2="11465.5" gradientUnits="userSpaceOnUse">
<stop stop-color="#FE7062"/>
<stop offset="1" stop-color="#FF928E"/>
</linearGradient>
<linearGradient id="paint65_linear" x1="-53202.3" y1="18159.2" x2="-53133.8" y2="15064" gradientUnits="userSpaceOnUse">
<stop stop-color="#FF928E"/>
<stop offset="1" stop-color="#FEB3B1"/>
</linearGradient>
<linearGradient id="paint66_linear" x1="-112138" y1="57553.6" x2="-109628" y2="45109.7" gradientUnits="userSpaceOnUse">
<stop stop-color="#FF928E"/>
<stop offset="1" stop-color="#FEB3B1"/>
</linearGradient>
<linearGradient id="paint67_linear" x1="-53837.6" y1="-59593.7" x2="-54733.5" y2="-58077.8" gradientUnits="userSpaceOnUse">
<stop stop-color="#FF928E"/>
<stop offset="1" stop-color="#FEB3B1"/>
</linearGradient>
<linearGradient id="paint68_linear" x1="-101052" y1="56866.2" x2="-101658" y2="54342.8" gradientUnits="userSpaceOnUse">
<stop stop-color="#662601"/>
<stop offset="1" stop-color="#643000"/>
</linearGradient>
<linearGradient id="paint69_linear" x1="-14093.9" y1="-18094.1" x2="-14372.6" y2="-17664.6" gradientUnits="userSpaceOnUse">
<stop stop-color="#FF928E"/>
<stop offset="1" stop-color="#FEB3B1"/>
</linearGradient>
<linearGradient id="paint70_linear" x1="-159944" y1="86919.5" x2="-160848" y2="83110.6" gradientUnits="userSpaceOnUse">
<stop stop-color="#5D2100"/>
<stop offset="1" stop-color="#643000"/>
</linearGradient>
<linearGradient id="paint71_linear" x1="523.034" y1="139.808" x2="619.214" y2="185.808" gradientUnits="userSpaceOnUse">
<stop stop-color="#50E7B7"/>
<stop offset="1" stop-color="#323992"/>
</linearGradient>
<linearGradient id="paint72_linear" x1="121601" y1="-34329.9" x2="130017" y2="-30261.2" gradientUnits="userSpaceOnUse">
<stop stop-color="#50E7B7"/>
<stop offset="1" stop-color="#323992"/>
</linearGradient>
<linearGradient id="paint73_linear" x1="102319" y1="16170.9" x2="97241.1" y2="31517.3" gradientUnits="userSpaceOnUse">
<stop stop-color="#004AAD"/>
<stop offset="1" stop-color="#004AAD"/>
</linearGradient>
<linearGradient id="paint74_linear" x1="108439" y1="20857.1" x2="103104" y2="37144.1" gradientUnits="userSpaceOnUse">
<stop stop-color="#004AAD"/>
<stop offset="1" stop-color="#004AAD"/>
</linearGradient>
<linearGradient id="paint75_linear" x1="80754.9" y1="13180" x2="77868.2" y2="21904.3" gradientUnits="userSpaceOnUse">
<stop stop-color="#004AAD"/>
<stop offset="1" stop-color="#004AAD"/>
</linearGradient>
</defs>
</svg>
