<svg width="70" height="70" viewBox="0 0 70 70" fill="none" xmlns="http://www.w3.org/2000/svg">
<path d="M23.584 59.7461C20.7569 59.7461 18.457 62.046 18.457 64.873C18.457 67.7001 20.7569 70 23.584 70C26.4111 70 28.7109 67.7001 28.7109 64.873C28.7109 62.046 26.4111 59.7461 23.584 59.7461ZM23.584 67.9492C21.8879 67.9492 20.5078 66.5692 20.5078 64.873C20.5078 63.1769 21.8879 61.7969 23.584 61.7969C25.2801 61.7969 26.6602 63.1769 26.6602 64.873C26.6602 66.5692 25.2801 67.9492 23.584 67.9492Z" fill="#0095DA"/>
<path d="M23.584 65.8984C24.1503 65.8984 24.6094 65.4394 24.6094 64.873C24.6094 64.3067 24.1503 63.8477 23.584 63.8477C23.0177 63.8477 22.5586 64.3067 22.5586 64.873C22.5586 65.4394 23.0177 65.8984 23.584 65.8984Z" fill="#0095DA"/>
<path d="M58.7207 65.8984C59.287 65.8984 59.7461 65.4394 59.7461 64.873C59.7461 64.3067 59.287 63.8477 58.7207 63.8477C58.1544 63.8477 57.6953 64.3067 57.6953 64.873C57.6953 65.4394 58.1544 65.8984 58.7207 65.8984Z" fill="#0095DA"/>
<path d="M58.7207 59.7461C55.8936 59.7461 53.5938 62.046 53.5938 64.873C53.5938 67.7001 55.8936 70 58.7207 70C61.5478 70 63.8477 67.7001 63.8477 64.873C63.8477 62.046 61.5478 59.7461 58.7207 59.7461ZM58.7207 67.9492C57.0246 67.9492 55.6445 66.5692 55.6445 64.873C55.6445 63.1769 57.0246 61.7969 58.7207 61.7969C60.4168 61.7969 61.7969 63.1769 61.7969 64.873C61.7969 66.5692 60.4168 67.9492 58.7207 67.9492Z" fill="#0095DA"/>
<path d="M16.9321 49.6226L24.3958 45.3906H41.1523C43.6282 45.3906 45.6999 43.6264 46.1763 41.2891H56.8554C60.137 41.2891 62.9964 39.0687 63.8094 35.8896L69.968 11.8069C70.0463 11.5 69.9787 11.1742 69.7844 10.924C69.5901 10.6738 69.2913 10.5273 68.9746 10.5273H18.6296L18.1066 8.48271C16.831 3.48824 12.337 0 7.17773 0H3.07617C1.38004 0 0 1.38004 0 3.07617C0 4.7723 1.38004 6.15234 3.07617 6.15234H7.17773C9.52342 6.15234 11.5663 7.73691 12.1458 10.006L20.0214 40.7985L13.8991 44.2698C11.6508 45.5427 10.2539 47.9367 10.2539 50.5176C10.2539 54.4753 13.4739 57.6953 17.4316 57.6953H62.8223C64.5184 57.6953 65.8984 56.3153 65.8984 54.6191C65.8984 52.923 64.5184 51.543 62.8223 51.543H17.4316C16.8662 51.543 16.4062 51.083 16.4062 50.5176C16.4062 50.1491 16.6075 49.8064 16.9321 49.6226ZM54.9395 29.668H48.6382L49.0227 22.1484H56.0931L54.9395 29.668ZM58.1678 22.1484H65.2066L63.2837 29.668H57.0142L58.1678 22.1484ZM54.6247 31.7188L53.4711 39.2383H48.1489L48.5334 31.7188H54.6247ZM46.5847 29.668H40.2728L39.8881 22.1484H46.9692L46.5847 29.668ZM49.1276 20.0977L49.512 12.5781H57.5613L56.4077 20.0977H49.1276ZM47.074 20.0977H39.7831L39.3984 12.5781H47.4585L47.074 20.0977ZM37.7297 20.0977H33.671C33.1045 20.0977 32.6456 20.5566 32.6456 21.123C32.6456 21.6895 33.1045 22.1484 33.671 22.1484H37.8346L38.2193 29.668H31.9182L29.2955 12.5781H37.3449L37.7297 20.0977ZM29.8435 29.668H23.5249L21.6017 22.1484H28.6895L29.8435 29.668ZM30.1582 31.7188L31.3123 39.2383H25.9727L24.0495 31.7188H30.1582ZM33.387 39.2383L32.2329 31.7188H38.3243L38.709 39.2383H33.387ZM40.7626 39.2383L40.3778 31.7188H46.4799L46.0954 39.2383H40.7626ZM61.8226 35.3816C61.2419 37.6522 59.1994 39.2383 56.8554 39.2383H55.5458L56.6995 31.7188H62.7591L61.8226 35.3816ZM65.7311 20.0977H58.4825L59.6362 12.5781H67.654L65.7311 20.0977ZM27.2208 12.5781L28.3749 20.0977H21.0774L19.1542 12.5781H27.2208ZM7.17773 4.10156H3.07617C2.5107 4.10156 2.05078 3.64164 2.05078 3.07617C2.05078 2.5107 2.5107 2.05078 3.07617 2.05078H7.17773C9.33311 2.05078 11.3455 2.79604 12.9388 4.06793L11.4769 5.53C10.2679 4.6267 8.77324 4.10156 7.17773 4.10156ZM17.4316 53.5938H62.8223C63.3877 53.5938 63.8477 54.0537 63.8477 54.6191C63.8477 55.1846 63.3877 55.6445 62.8223 55.6445H17.4316C14.6046 55.6445 12.3047 53.3447 12.3047 50.5176C12.3047 48.6742 13.3029 46.964 14.9101 46.054L21.7148 42.1958C22.1173 41.9675 22.317 41.498 22.2023 41.0497L14.1326 9.49826C13.8943 8.56502 13.4783 7.71545 12.9277 6.97963L14.3901 5.51728C15.1881 6.51561 15.7877 7.69029 16.1197 8.99049L24.1832 40.5178C24.2993 40.9716 24.7081 41.2892 25.1766 41.2892H44.0528C43.6296 42.4828 42.4892 43.34 41.1523 43.34H24.1254C23.9481 43.34 23.7739 43.3859 23.6197 43.4734L15.9212 47.8384C14.9555 48.3848 14.3555 49.4115 14.3555 50.5176C14.3555 52.2137 15.7355 53.5938 17.4316 53.5938Z" fill="#0095DA"/>
</svg>
