<svg width="66" height="66" viewBox="0 0 66 66" fill="none" xmlns="http://www.w3.org/2000/svg">
<path d="M39.5625 12.2188H36.2812V8.9375C36.2812 8.64742 36.166 8.36922 35.9609 8.1641C35.7558 7.95898 35.4776 7.84375 35.1875 7.84375H30.8125C30.5224 7.84375 30.2442 7.95898 30.0391 8.1641C29.834 8.36922 29.7188 8.64742 29.7188 8.9375V12.2188H26.4375C26.1474 12.2188 25.8692 12.334 25.6641 12.5391C25.459 12.7442 25.3438 13.0224 25.3438 13.3125V17.6875C25.3438 17.9776 25.459 18.2558 25.6641 18.4609C25.8692 18.666 26.1474 18.7812 26.4375 18.7812H29.7188V22.0625C29.7188 22.3526 29.834 22.6308 30.0391 22.8359C30.2442 23.041 30.5224 23.1562 30.8125 23.1562H35.1875C35.4776 23.1562 35.7558 23.041 35.9609 22.8359C36.166 22.6308 36.2812 22.3526 36.2812 22.0625V18.7812H39.5625C39.8526 18.7812 40.1308 18.666 40.3359 18.4609C40.541 18.2558 40.6562 17.9776 40.6562 17.6875V13.3125C40.6562 13.0224 40.541 12.7442 40.3359 12.5391C40.1308 12.334 39.8526 12.2188 39.5625 12.2188ZM38.4688 16.5938H35.1875C34.8974 16.5938 34.6192 16.709 34.4141 16.9141C34.209 17.1192 34.0938 17.3974 34.0938 17.6875V20.9688H31.9062V17.6875C31.9062 17.3974 31.791 17.1192 31.5859 16.9141C31.3808 16.709 31.1026 16.5938 30.8125 16.5938H27.5312V14.4062H30.8125C31.1026 14.4062 31.3808 14.291 31.5859 14.0859C31.791 13.8808 31.9062 13.6026 31.9062 13.3125V10.0312H34.0938V13.3125C34.0938 13.6026 34.209 13.8808 34.4141 14.0859C34.6192 14.291 34.8974 14.4062 35.1875 14.4062H38.4688V16.5938Z" fill="#0095DA"/>
<path d="M63.3297 18.0812C63.3518 17.8887 63.3628 17.6952 63.3625 17.5015C63.3572 16.4989 63.0094 15.5283 62.3768 14.7505C61.7442 13.9727 60.8648 13.4344 59.8844 13.2249C58.7754 13.0138 57.6275 13.2319 56.6732 13.8349C55.7188 14.438 55.0292 15.3811 54.7438 16.4734L49.9313 30.3202C49.8599 30.3485 49.7905 30.3814 49.7234 30.4187L40.0547 36.0843C38.5752 36.9534 37.348 38.1934 36.4944 39.6819C35.6408 41.1704 35.1903 42.8559 35.1875 44.5718V54.8749C34.8974 54.8749 34.6192 54.9902 34.4141 55.1953C34.209 55.4004 34.0938 55.6786 34.0938 55.9687V64.7187C34.0938 65.0087 34.209 65.2869 34.4141 65.4921C34.6192 65.6972 34.8974 65.8124 35.1875 65.8124H50.5C50.7901 65.8124 51.0683 65.6972 51.2734 65.4921C51.4785 65.2869 51.5938 65.0087 51.5938 64.7187V55.9687C51.5938 55.6786 51.4785 55.4004 51.2734 55.1953C51.0683 54.9902 50.7901 54.8749 50.5 54.8749V52.4687C50.502 52.0067 50.6004 51.5502 50.7887 51.1284C50.977 50.7066 51.2512 50.3286 51.5938 50.0187L58.9875 43.4452C59.7963 42.7376 60.3752 41.8045 60.65 40.7655L65.3969 23.014C65.4982 22.6433 65.5497 22.2608 65.55 21.8765C65.5457 21.1046 65.3383 20.3475 64.9485 19.6813C64.5587 19.015 64.0004 18.4632 63.3297 18.0812ZM56.8328 17.1187C56.9671 16.553 57.3096 16.0588 57.792 15.7344C58.2745 15.4101 58.8615 15.2795 59.4359 15.3687C59.9262 15.4713 60.3663 15.7392 60.6829 16.1273C60.9994 16.5155 61.1731 17.0006 61.175 17.5015V17.5234C60.198 17.5415 59.2537 17.8782 58.4857 18.4824C57.7177 19.0865 57.168 19.925 56.9203 20.8702L53.8688 30.2874C53.4067 30.0683 52.9114 29.9278 52.4031 29.8718L56.8328 17.1187ZM49.4063 63.6249H36.2813V57.0624H49.4063V63.6249ZM63.2859 22.4452L58.5281 40.2077C58.3635 40.825 58.0212 41.3802 57.5438 41.8046L50.1391 48.378C49.5661 48.8947 49.1076 49.5256 48.793 50.2301C48.4784 50.9346 48.3148 51.6971 48.3125 52.4687V54.8749H37.375V44.5718C37.3804 43.2373 37.732 41.9271 38.3953 40.7692C39.0586 39.6113 40.011 38.6453 41.1594 37.9655L50.8172 32.3109C51.0662 32.1658 51.3414 32.0713 51.6271 32.0329C51.9127 31.9945 52.2031 32.013 52.4816 32.0872C52.7601 32.1614 53.0211 32.2899 53.2498 32.4653C53.4785 32.6407 53.6702 32.8595 53.8141 33.1093C54.0982 33.6147 54.1765 34.2101 54.0328 34.7718C53.9568 35.0491 53.8269 35.3088 53.6505 35.5359C53.4741 35.763 53.2546 35.953 53.0047 36.0952L46.7375 39.7155C46.4994 39.8669 46.329 40.1044 46.2619 40.3784C46.1948 40.6524 46.2362 40.9417 46.3773 41.1859C46.5185 41.4302 46.7486 41.6104 47.0195 41.689C47.2905 41.7676 47.5813 41.7385 47.8313 41.6077L54.0984 37.9874C54.5994 37.7032 55.0384 37.3216 55.3897 36.8652C55.7409 36.4087 55.9973 35.8866 56.1438 35.3296C56.4415 34.2105 56.2842 33.019 55.7063 32.0155L55.6406 31.9171L59.0203 21.4937C59.1546 20.928 59.4971 20.4338 59.9795 20.1094C60.462 19.7851 61.049 19.6545 61.6234 19.7437C62.1137 19.8463 62.5538 20.1142 62.8704 20.5023C63.1869 20.8905 63.3606 21.3756 63.3625 21.8765C63.3662 22.0689 63.3404 22.2607 63.2859 22.4452Z" fill="#0095DA"/>
<path d="M30.8125 54.8749V44.5718C30.8096 42.8559 30.3592 41.1705 29.5056 39.682C28.652 38.1934 27.4248 36.9534 25.9453 36.0843L16.2765 30.4078C16.2109 30.3749 16.1344 30.3531 16.0687 30.3203L11.289 16.5499C11.0112 15.4417 10.3216 14.481 9.36053 13.8633C8.39943 13.2456 7.23907 13.0173 6.11561 13.2249C5.13516 13.4344 4.25575 13.9727 3.62315 14.7505C2.99056 15.5283 2.64279 16.4989 2.63748 17.5015C2.6372 17.6952 2.64815 17.8888 2.67029 18.0812C1.99957 18.4632 1.44125 19.015 1.05149 19.6813C0.661732 20.3475 0.454274 21.1046 0.449982 21.8765C0.452106 22.26 0.499837 22.6418 0.592169 23.014L5.34998 40.7546C5.62187 41.7979 6.2011 42.7353 7.01248 43.4453L14.3953 50.0187C14.7413 50.3265 15.0185 50.7038 15.2088 51.1259C15.3992 51.5481 15.4984 52.0056 15.5 52.4687V54.8749C15.2099 54.8749 14.9317 54.9902 14.7266 55.1953C14.5215 55.4004 14.4062 55.6786 14.4062 55.9687V64.7187C14.4062 65.0088 14.5215 65.287 14.7266 65.4921C14.9317 65.6972 15.2099 65.8125 15.5 65.8125H30.8125C31.1026 65.8125 31.3808 65.6972 31.5859 65.4921C31.791 65.287 31.9062 65.0088 31.9062 64.7187V55.9687C31.9062 55.6786 31.791 55.4004 31.5859 55.1953C31.3808 54.9902 31.1026 54.8749 30.8125 54.8749ZM4.82498 17.5015C4.82633 17.0021 4.99849 16.5183 5.31286 16.1303C5.62723 15.7423 6.06488 15.4736 6.55311 15.3687C7.14336 15.283 7.74418 15.4237 8.23508 15.7624C8.72598 16.1012 9.07065 16.613 9.19998 17.1953L13.5969 29.8718C13.0886 29.9278 12.5932 30.0683 12.1312 30.2874L9.10154 20.9249C8.85498 19.9704 8.30424 19.122 7.53264 18.5083C6.76105 17.8946 5.81056 17.5488 4.82498 17.5234V17.5015ZM15.85 48.3781L8.45623 41.8046C7.97613 41.378 7.63353 40.8184 7.47186 40.1968L2.70311 22.4453C2.65783 22.2591 2.63579 22.0681 2.63748 21.8765C2.63883 21.3771 2.81099 20.8933 3.12536 20.5053C3.43973 20.1173 3.87738 19.8486 4.36561 19.7437C4.95171 19.6557 5.54938 19.793 6.03841 20.1278C6.52744 20.4626 6.87155 20.9701 7.00154 21.5484L10.3594 31.9171L10.2937 32.0156C9.71579 33.0191 9.5585 34.2105 9.85623 35.3296C10.0027 35.8867 10.2591 36.4088 10.6103 36.8652C10.9616 37.3217 11.4006 37.7032 11.9015 37.9874L18.1687 41.6078C18.4187 41.7385 18.7095 41.7676 18.9805 41.689C19.2514 41.6104 19.4815 41.4302 19.6226 41.186C19.7638 40.9417 19.8052 40.6524 19.7381 40.3784C19.6709 40.1044 19.5006 39.8669 19.2625 39.7156L12.9953 36.0953C12.7453 35.9531 12.5259 35.763 12.3495 35.5359C12.1731 35.3088 12.0431 35.0492 11.9672 34.7718C11.8235 34.2101 11.9018 33.6147 12.1859 33.1093C12.3288 32.8601 12.5194 32.6415 12.7468 32.4659C12.9742 32.2904 13.234 32.1614 13.5113 32.0862C13.7885 32.011 14.0779 31.9912 14.3628 32.0279C14.6477 32.0646 14.9227 32.157 15.1719 32.2999L24.8406 37.9656C25.989 38.6453 26.9414 39.6113 27.6047 40.7692C28.268 41.9272 28.6196 43.2374 28.625 44.5718V54.8749H17.6875V52.4687C17.6856 51.6961 17.521 50.9325 17.2044 50.2277C16.8878 49.5229 16.4263 48.8927 15.85 48.3781ZM29.7187 63.6249H16.5937V57.0624H29.7187V63.6249Z" fill="#0095DA"/>
<path d="M48.4733 3.61302C47.4579 2.59587 46.2519 1.78894 44.9243 1.23841C43.5967 0.687883 42.1736 0.404562 40.7364 0.404663C39.2992 0.404765 37.8761 0.688287 36.5486 1.23901C35.2211 1.78972 34.0152 2.59682 33 3.61412C31.9849 2.5968 30.779 1.78969 29.4516 1.239C28.1241 0.688309 26.7011 0.404849 25.2639 0.404849C23.8267 0.404849 22.4037 0.688309 21.0762 1.239C19.7488 1.78969 18.5429 2.5968 17.5278 3.61412C15.4807 5.66564 14.331 8.44547 14.331 11.3436C14.331 14.2418 15.4807 17.0217 17.5278 19.0732L32.2278 33.7732C32.4329 33.9782 32.7111 34.0934 33.0011 34.0934C33.2911 34.0934 33.5693 33.9782 33.7744 33.7732L48.4744 19.0732C50.5214 17.0213 51.6709 14.2412 51.6707 11.3429C51.6705 8.44451 50.5206 5.66459 48.4733 3.61302ZM33 31.4533L19.0733 17.5266C17.8506 16.3023 17.0184 14.7429 16.6818 13.0457C16.3452 11.3484 16.5194 9.58952 17.1823 7.99126C17.8453 6.39299 18.9672 5.02716 20.4062 4.06641C21.8453 3.10567 23.5369 2.59315 25.2672 2.59365C26.4166 2.5897 27.5553 2.81465 28.6168 3.25539C29.6784 3.69612 30.6415 4.34381 31.4502 5.16068L32.2267 5.93724C32.4318 6.14229 32.71 6.25748 33 6.25748C33.29 6.25748 33.5682 6.14229 33.7733 5.93724L34.552 5.15849C35.364 4.34502 36.3285 3.69965 37.3902 3.25932C38.4519 2.81899 39.59 2.59234 40.7394 2.59234C41.8888 2.59234 43.0269 2.81899 44.0886 3.25932C45.1503 3.69965 46.1147 4.34502 46.9267 5.15849C48.5651 6.79909 49.4853 9.02288 49.4853 11.3415C49.4853 13.66 48.5651 15.8838 46.9267 17.5244L33 31.4533Z" fill="#0095DA"/>
</svg>
