<svg width="70" height="70" viewBox="0 0 70 70" fill="none" xmlns="http://www.w3.org/2000/svg">
<g clip-path="url(#clip0)">
<path d="M53.958 27.7074H13.1237C10.7115 27.7074 8.74857 29.6703 8.74857 32.0825V34.9992C8.74857 45.4061 14.4975 54.8447 23.7493 59.631C24.4639 59.9985 25.3447 59.7214 25.7152 59.0039C26.0827 58.2892 25.8056 57.4085 25.0881 57.038C16.8104 52.7562 11.6653 44.3123 11.6653 34.9991V32.0824C11.6653 31.2773 12.3186 30.6239 13.1237 30.6239H53.958C54.763 30.6239 55.4164 31.2773 55.4164 32.0824V34.9991C55.4164 44.3121 50.2713 52.7561 41.9907 57.035C41.2732 57.4053 40.9961 58.2862 41.3636 59.0009C41.6232 59.5025 42.1336 59.7913 42.6615 59.7913C42.889 59.7913 43.1165 59.7388 43.3294 59.6279C52.5842 54.8444 58.3331 45.4088 58.3331 34.9989V32.0822C58.3331 29.6703 56.3701 27.7074 53.958 27.7074Z" fill="#0095DA"/>
<path d="M66.9753 57.773C66.7478 57.2276 66.2169 56.8717 65.6278 56.8717H1.45965C0.87051 56.8717 0.339619 57.2276 0.112114 57.773C-0.115391 58.3184 0.00998264 58.9455 0.427121 59.3626L3.69683 62.6352C5.62775 64.5631 8.18855 65.6249 10.9157 65.6249H56.1659C58.8931 65.6249 61.4569 64.5633 63.3907 62.6352L66.6604 59.3626C67.0774 58.9455 67.2028 58.3184 66.9753 57.773ZM61.3257 60.573C59.949 61.9497 58.1143 62.7081 56.1689 62.7081H10.9157C8.97033 62.7081 7.13566 61.9497 5.759 60.573L4.97736 59.7914H62.1073L61.3257 60.573Z" fill="#0095DA"/>
<path d="M67.1796 34.5938C63.2507 32.0678 56.974 34.8096 56.2709 35.1275C55.5388 35.4629 55.2122 36.3263 55.5475 37.0613C55.8829 37.7963 56.7434 38.1201 57.4813 37.7847C58.8872 37.1459 63.3965 35.6322 65.6015 37.0526C66.5962 37.6913 67.0832 38.931 67.0832 40.8326C67.0832 46.6719 55.3054 50.2012 50.7582 51.0704L49.7256 51.2745C48.9353 51.4291 48.4219 52.1961 48.5765 52.9867C48.7136 53.6808 49.3231 54.1621 50.0057 54.1621C50.099 54.1621 50.1923 54.1533 50.2885 54.1329L51.3123 53.9317C52.0764 53.7858 69.9999 50.2712 69.9999 40.8326C70 37.8985 69.0492 35.8013 67.1796 34.5938Z" fill="#0095DA"/>
<path d="M44.8957 15.4919C47.267 12.5285 47.267 7.88797 44.8957 4.92453C44.391 4.29451 43.4781 4.18951 42.8452 4.69702C42.2152 5.20166 42.1131 6.11742 42.6177 6.74744C44.1199 8.62285 44.1199 11.7934 42.6149 13.6747C40.2407 16.6382 40.2407 21.2787 42.6149 24.2421C42.9036 24.6037 43.3265 24.7905 43.7553 24.7905C44.0731 24.7905 44.3969 24.6855 44.6653 24.4696C45.2953 23.965 45.3974 23.0462 44.8928 22.4192C43.3878 20.5436 43.3878 17.3732 44.8957 15.4919Z" fill="#0095DA"/>
<path d="M36.1338 15.4922C38.508 12.5287 38.508 7.88823 36.1338 4.92478C35.6322 4.29477 34.7134 4.19264 34.0834 4.69728C33.4534 5.20192 33.3513 6.12069 33.8559 6.7477C35.3609 8.62311 35.3609 11.7937 33.853 13.675C31.4817 16.6384 31.4817 21.2789 33.853 24.2424C34.1418 24.604 34.5647 24.7908 34.9934 24.7908C35.3113 24.7908 35.6322 24.6857 35.9035 24.4699C36.5335 23.9652 36.6356 23.0495 36.131 22.4194C34.6288 20.5439 34.6288 17.3735 36.1338 15.4922Z" fill="#0095DA"/>
<path d="M27.3953 15.495C29.7666 12.5315 29.7666 7.89103 27.3953 4.92758C26.8936 4.29756 25.9777 4.19256 25.3448 4.70007C24.7177 5.2017 24.6157 6.12048 25.1173 6.74762C26.6195 8.62304 26.6195 11.7936 25.1145 13.6749C22.7403 16.6384 22.7403 21.2788 25.1145 24.2423C25.4032 24.6039 25.8261 24.7907 26.2549 24.7907C26.5727 24.7907 26.8965 24.6857 27.1649 24.4728C27.7949 23.9682 27.897 23.0494 27.3924 22.4224C25.8874 20.5438 25.8874 17.3762 27.3953 15.495Z" fill="#0095DA"/>
</g>
<defs>
<clipPath id="clip0">
<rect width="70" height="70" fill="white"/>
</clipPath>
</defs>
</svg>
