<svg width="70" height="70" viewBox="0 0 70 70" fill="none" xmlns="http://www.w3.org/2000/svg">
<path d="M19.194 32.2593C18.6602 31.7256 17.7948 31.7256 17.261 32.2593C16.1279 33.3926 14.284 33.3926 13.1507 32.2593C12.617 31.7256 11.7515 31.7256 11.2178 32.2593C10.684 32.7931 10.684 33.6585 11.2178 34.1922C12.3173 35.2916 13.7616 35.8415 15.2059 35.8415C16.6502 35.8415 18.0943 35.2917 19.1938 34.1922C19.7276 33.6586 19.7276 32.7932 19.194 32.2593Z" fill="#0095DA"/>
<path d="M65.2667 3.6312C60.4513 -1.18404 52.6265 -1.19798 47.7919 3.58635C46.2828 2.83714 44.6806 2.19442 42.9913 1.66532C37.4494 -0.0705982 32.9156 -0.00620369 32.5224 0.00240959C25.108 0.00733146 18.6406 3.11837 15.6406 8.12405C15.2447 8.78468 14.9148 9.46936 14.6501 10.1739C13.2371 11.5193 6.86054 18.1093 6.86054 27.4535C6.86054 33.6772 3.86694 36.9266 2.08263 38.3096C1.41585 38.8264 1.05477 39.638 1.11698 40.4805C1.17919 41.3233 1.65565 42.0734 2.39161 42.4869C3.06399 42.8648 3.82018 43.2275 4.55136 43.5784C5.1979 43.8886 6.11665 44.3294 6.56468 44.6162V47.0506C6.56468 47.3837 6.5011 47.7089 6.37573 48.0178L6.03681 48.852C5.57265 49.9942 5.74354 51.3019 6.48018 52.286V52.5858C6.48018 53.4727 6.87065 54.2936 7.52102 54.8504V56.4552C7.52102 59.8944 10.3188 62.6922 13.758 62.6922H17.7937C18.5485 62.6922 19.1604 62.0802 19.1604 61.3254C19.1604 60.5706 18.5485 59.9586 17.7937 59.9586H13.758C11.8263 59.9586 10.2544 58.3869 10.2544 56.4551V54.097C10.2544 53.5493 9.92755 53.0548 9.42388 52.8398L9.36481 52.8147C9.27294 52.7754 9.2136 52.6856 9.2136 52.5858V51.8143C9.2136 51.5078 9.11052 51.21 8.92102 50.9691L8.67985 50.6626C8.50567 50.4414 8.46343 50.1417 8.56938 49.8808L8.90831 49.0464C9.16698 48.4095 9.29823 47.738 9.29823 47.0506V44.1408C9.29823 42.8238 7.95661 42.1801 5.73384 41.1137C5.15018 40.8337 4.54999 40.5457 4.01911 40.2617C6.21727 38.4677 9.59423 34.5542 9.59423 27.4533C9.59423 22.3152 11.8814 18.0337 13.8656 15.2854C13.974 17.6669 14.6944 20.1573 16.0275 22.651C19.5353 29.2117 25.6439 31.9616 30.5523 34.171C35.2223 36.2732 37.8655 37.5965 37.8867 40.3473C37.9021 42.3673 37.4376 43.8536 36.5058 44.7645C35.4301 45.8165 34.0022 45.7895 33.9936 45.7894C33.5349 45.7573 33.1049 45.9575 32.8256 46.3223C32.5462 46.6871 32.4826 47.1687 32.6331 47.6028C32.6732 47.7185 33.6414 50.4638 35.858 53.139C38.6285 56.4824 42.1256 58.2466 46.025 58.2862L49.6975 69.0536C49.8913 69.6219 50.4223 69.9796 50.9909 69.9796C51.1372 69.9796 51.2861 69.9559 51.4322 69.9059C52.1467 69.6623 52.5283 68.8856 52.2845 68.1712L48.6678 57.5672C55.4863 53.9132 60.2804 48.245 62.5658 41.1064C64.3876 35.416 64.4746 29.0309 62.9353 22.9836C63.7787 22.4709 64.5604 21.8588 65.2665 21.1527C70.0973 16.3221 70.0973 8.46202 65.2667 3.6312ZM59.9627 40.2733C57.8178 46.9732 53.213 52.2483 46.6369 55.544C43.3118 55.6933 40.4116 54.3193 38.014 51.4562C37.0472 50.3021 36.3475 49.114 35.8893 48.2146C36.6692 47.9707 37.5648 47.5361 38.3712 46.7638C39.8851 45.3137 40.6418 43.148 40.6202 40.3266C40.5847 35.6894 36.2566 33.7413 31.6744 31.6786C26.9084 29.5332 21.5065 27.1017 18.4382 21.3624C16.532 17.7969 16.0833 14.4067 17.0993 11.4343C17.1035 11.4229 17.1075 11.4115 17.1114 11.4001C17.3342 10.7562 17.6247 10.1314 17.9856 9.52911C20.4967 5.33882 26.0739 2.73569 32.5404 2.73569C32.5535 2.73569 32.5665 2.73555 32.5798 2.73514C32.6223 2.73378 36.9301 2.63083 42.1744 4.2735C49.1535 6.45977 54.2946 10.5333 57.4545 16.381C61.4481 23.7722 62.3859 32.7038 59.9627 40.2733ZM62.1184 20.2517C61.5087 18.4748 60.7562 16.7416 59.8592 15.0817C57.6155 10.9298 54.374 7.52085 50.3087 4.98923C54.0985 1.81202 59.7721 2.00206 63.3339 5.56399C67.0988 9.32895 67.0988 15.455 63.3339 19.22C62.9549 19.5991 62.5487 19.9435 62.1184 20.2517Z" fill="#0095DA"/>
<path d="M36.172 64.0265L31.8899 56.6095L31.7451 51.5451C31.6239 47.3038 28.3434 43.846 24.1143 43.5019C21.0044 43.2484 18.0186 44.973 16.683 47.7925L16.6155 47.935C14.845 51.6722 16.1224 56.1932 19.5867 58.4516L23.8494 61.2302L28.5063 69.2961C28.7594 69.7346 29.2188 69.9797 29.6911 69.9796C29.9229 69.9796 30.158 69.9205 30.3732 69.7962C31.0269 69.4189 31.251 68.583 30.8735 67.9292L26.7365 60.7637L28.3848 59.812L30.0331 58.8603L33.8046 65.3928C34.1818 66.0464 35.0177 66.2704 35.6716 65.893C36.3256 65.5161 36.5495 64.6802 36.172 64.0265ZM24.9132 58.6607L21.0796 56.1618C18.7551 54.6465 17.8981 51.6129 19.086 49.1052L19.1535 48.9627C19.9501 47.2815 21.667 46.211 23.5079 46.211C23.6357 46.211 23.7641 46.2162 23.8928 46.2267C26.7304 46.4575 28.9315 48.7777 29.0127 51.6234L29.1441 56.218L24.9132 58.6607Z" fill="#0095DA"/>
<path d="M27.0198 8.01206C26.723 7.31821 25.9199 6.99583 25.2256 7.29264C22.8151 8.32309 21.0766 10.0601 20.3303 12.1839C19.5824 14.3119 19.8632 16.7015 21.1424 19.0939C21.3886 19.5545 21.8607 19.8165 22.3489 19.8165C22.5664 19.8165 22.787 19.7644 22.992 19.6548C23.6577 19.2989 23.9089 18.4708 23.553 17.8049C22.6318 16.0819 22.4152 14.4955 22.9092 13.0898C23.3985 11.6976 24.6027 10.5312 26.3002 9.80581C26.9942 9.5094 27.3163 8.70632 27.0198 8.01206Z" fill="#0095DA"/>
</svg>
