<svg width="66" height="70" viewBox="0 0 66 70" fill="none" xmlns="http://www.w3.org/2000/svg">
<path d="M64.3876 44.0213C61.3654 38.7868 54.6831 36.9954 49.4478 40.0183L43.8945 43.2243V31.3522C43.8945 29.8845 43.4092 28.4281 42.5275 27.2509L35.6919 18.1371V14.2562C37.2831 13.6918 38.4262 12.1723 38.4262 10.3899V4.10129C38.4259 1.83982 36.5861 0 34.3246 0H9.71648C7.45501 0 5.61505 1.83982 5.61505 4.10129V10.3901C5.61505 12.1722 6.75816 13.692 8.34929 14.2563V18.1372L1.51322 27.2516C0.631927 28.4282 0.146576 29.8845 0.146576 31.3522V57.8292C0.146576 61.5984 3.21304 64.6647 6.9821 64.6647H28.9531C32.0184 69.803 38.6283 71.5226 43.8095 68.531L60.3847 58.9611C65.5739 55.9645 67.4249 49.2842 64.3876 44.0213ZM8.34929 4.10129C8.34929 3.34742 8.96261 2.7341 9.71634 2.7341H34.3245C35.0783 2.7341 35.6917 3.34742 35.6917 4.10129V10.3901C35.6917 11.1439 35.0783 11.7571 34.3245 11.7571H9.71648C8.96261 11.7571 8.34943 11.1438 8.34943 10.3901V4.10129H8.34929ZM3.70126 28.8913L10.8101 19.4131C10.9876 19.1766 11.0835 18.8887 11.0835 18.5928V14.4915H32.9574V17.2257H20.6534C19.8985 17.2257 19.2862 17.838 19.2862 18.5929C19.2862 19.3479 19.8985 19.9601 20.6534 19.9601H33.641L40.3393 28.8909C40.7771 29.4753 41.049 30.1746 41.1312 30.8971H2.90993C2.99197 30.1745 3.2639 29.4752 3.70126 28.8913ZM6.98224 61.9304C4.72077 61.9304 2.88095 60.0906 2.88095 57.8292V56.4484H27.7193C27.2858 58.221 27.2887 60.1143 27.7851 61.9306H6.98224V61.9304ZM28.7916 53.7277H2.88081V33.631H41.1601V44.8027L32.8724 49.5882C31.1444 50.5863 29.7477 52.0073 28.7916 53.7277ZM42.4426 66.163C38.5192 68.4286 33.5057 67.0887 31.2386 63.1626C28.9607 59.1985 30.3412 54.2078 34.2399 51.9559L41.6605 47.6714L49.8633 61.8785L42.4426 66.163ZM59.0175 56.5932L52.2312 60.5114L44.0284 46.304L50.8148 42.3862C54.7408 40.1197 59.7525 41.4619 62.0196 45.3882C64.2966 49.3341 62.912 54.3443 59.0175 56.5932Z" fill="#0095DA"/>
</svg>
