<svg width="70" height="70" viewBox="0 0 70 70" fill="none" xmlns="http://www.w3.org/2000/svg">
<g clip-path="url(#clip0)">
<path d="M29.0471 31.5229H33.7139V33.8568H29.0471V31.5229Z" fill="#0095DA"/>
<path d="M68.882 28.0346L60.9565 26.9027C59.5114 26.015 58.0117 25.2202 56.4654 24.5228C51.359 22.2098 45.8167 21.0163 40.2104 21.0225H38.8336C32.2175 21.0272 25.7072 22.6874 19.8963 25.8516L15.8965 28.0336C11.2145 28.0863 6.62274 29.3316 2.55508 31.6503C0.901996 32.5983 -0.118718 34.3573 -0.121567 36.2625V43.1905C-0.121567 43.8352 0.400659 44.3574 1.04537 44.3574H4.96301C6.23724 47.9926 10.2171 49.9068 13.8522 48.6326C15.8533 47.9314 17.4262 46.358 18.1274 44.3574H49.2995C50.5737 47.9926 54.5536 49.9068 58.1887 48.6326C60.1893 47.9314 61.7627 46.358 62.4639 44.3574H62.8826C63.0312 44.3574 63.1784 44.3294 63.3165 44.2743L67.0955 42.758C68.7837 42.0895 69.8894 40.4555 69.8833 38.6405V29.1896C69.8833 28.6095 69.4565 28.1172 68.882 28.0346ZM16.1182 42.9574C15.6022 45.4826 13.1368 47.1115 10.6116 46.5954C8.08592 46.0793 6.45705 43.614 6.97311 41.0883C7.48964 38.5631 9.95502 36.9342 12.4802 37.4503C14.6531 37.8942 16.2132 39.806 16.2127 42.024C16.2127 42.3374 16.1809 42.6502 16.1182 42.9574ZM37.2142 42.024H18.5461C18.5461 38.1577 15.4123 35.0234 11.5459 35.0234C7.67954 35.0234 4.54523 38.1577 4.54523 42.024H2.21183V36.2625C2.21326 35.1938 2.78581 34.2068 3.71347 33.676C7.52097 31.5021 11.8289 30.358 16.2127 30.3566H37.2142V42.024ZM37.2142 28.0232H20.7888L21.0139 27.9002C26.0021 25.1894 31.5429 23.6526 37.2142 23.4072V28.0232ZM39.5476 23.3559H40.208C44.91 23.3507 49.5692 24.2432 53.9364 25.986L51.8992 28.0232H39.5476V23.3559ZM60.4547 42.9574C59.9387 45.4826 57.4733 47.1115 54.9476 46.5954C52.4224 46.0793 50.7935 43.614 51.3096 41.0883C51.8256 38.5631 54.2915 36.9342 56.8167 37.4503C58.9896 37.8942 60.5497 39.806 60.5492 42.024C60.5492 42.3374 60.5174 42.6502 60.4547 42.9574ZM67.5499 31.523H64.0495V33.8569H67.5499V38.6405C67.5527 39.5003 67.0286 40.2741 66.2291 40.5898L62.8826 41.9338C62.8826 41.8265 62.8688 41.7202 62.8617 41.6129C62.8546 41.5056 62.8522 41.3798 62.8408 41.263C62.8289 41.1462 62.8057 41.0294 62.7872 40.9131C62.7682 40.7963 62.7544 40.6795 62.7311 40.5737C62.7079 40.4673 62.6737 40.3496 62.6433 40.2385C62.6129 40.1279 62.5897 40.0158 62.5545 39.9071C62.5199 39.7989 62.4776 39.6949 62.4382 39.5886C62.3983 39.4827 62.3623 39.373 62.3214 39.2676C62.2806 39.1627 62.2255 39.0673 62.1766 38.9681C62.1277 38.8688 62.0798 38.7601 62.0252 38.6599C61.9701 38.5598 61.9084 38.4743 61.8557 38.3813C61.8035 38.2877 61.7394 38.1814 61.6729 38.086C61.606 37.9901 61.5443 37.9146 61.4802 37.8282C61.4161 37.7418 61.3434 37.6402 61.2689 37.5505C61.1944 37.4607 61.1246 37.3905 61.052 37.3169C60.9798 37.2438 60.8991 37.1445 60.8189 37.0629C60.7381 36.9812 60.6589 36.9167 60.5786 36.8445C60.4979 36.7723 60.4115 36.6869 60.3227 36.6109C60.2344 36.5354 60.1442 36.477 60.0559 36.4106C59.9671 36.3441 59.8784 36.2729 59.7853 36.2107C59.6918 36.149 59.5869 36.0944 59.4867 36.0289C59.3861 35.9634 59.3044 35.9121 59.2099 35.8622C59.1154 35.8119 58.9977 35.7592 58.8904 35.7079C58.7831 35.6567 58.6991 35.6111 58.5999 35.5693C58.5006 35.5271 58.3663 35.4829 58.25 35.4411C58.1332 35.3989 58.0572 35.3661 57.958 35.3348C57.8251 35.294 57.6888 35.2645 57.553 35.2308C57.4643 35.2099 57.3793 35.1819 57.2896 35.1634C57.1462 35.134 56.999 35.1178 56.8533 35.0965C56.7669 35.0851 56.6842 35.0661 56.5978 35.058C56.3643 35.0347 56.1312 35.0219 55.8862 35.0219C52.0212 35.0257 48.8893 38.1577 48.8855 42.0226H39.5481V30.3561H52.3821C52.6916 30.3561 52.9883 30.2331 53.2067 30.0143L56.2323 26.9887C57.5022 27.593 58.7371 28.2686 59.9311 29.0121C60.0687 29.098 60.2226 29.1545 60.3835 29.1778L67.5499 30.2008V31.523Z" fill="#0095DA"/>
</g>
<defs>
<clipPath id="clip0">
<rect width="70" height="70" fill="white"/>
</clipPath>
</defs>
</svg>
