<svg width="45" height="44" viewBox="0 0 45 44" fill="none" xmlns="http://www.w3.org/2000/svg">
<path d="M22.1667 44C34.3199 44 44.1667 34.1532 44.1667 22C44.1667 9.84683 34.3199 0 22.1667 0C10.0135 0 0.166687 9.84683 0.166687 22C0.166687 34.1532 10.0135 44 22.1667 44ZM10.2335 21.5233L31.4452 13.3448C32.4297 12.9892 33.2895 13.585 32.9705 15.0737L32.9724 15.0718L29.3607 32.087C29.093 33.2933 28.3762 33.5867 27.3734 33.0183L21.8734 28.9648L19.2205 31.5205C18.9272 31.8138 18.6797 32.0613 18.1114 32.0613L18.5019 26.4642L28.6952 17.2553C29.1389 16.8648 28.5962 16.6448 28.0114 17.0335L15.4145 24.9645L9.98419 23.2705C8.80535 22.8965 8.77969 22.0917 10.2335 21.5233Z" fill="white"/>
</svg>
