<svg width="44" height="44" viewBox="0 0 44 44" fill="none" xmlns="http://www.w3.org/2000/svg">
<path d="M22 0C9.85159 0 0 9.85159 0 22C0 34.1484 9.85159 44 22 44C34.1484 44 44 34.1484 44 22C44 9.85159 34.1484 0 22 0ZM32.045 17.1533C32.0547 17.3698 32.0594 17.5873 32.0594 17.8058C32.0594 24.4784 26.9803 32.1729 17.692 32.1732H17.6924H17.692C14.8403 32.1732 12.1867 31.3373 9.95197 29.9049C10.3471 29.9516 10.7492 29.9747 11.1564 29.9747C13.5224 29.9747 15.6997 29.1677 17.4282 27.8132C15.2177 27.7722 13.3539 26.3123 12.7107 24.3059C13.0185 24.365 13.3351 24.3972 13.6597 24.3972C14.1206 24.3972 14.5671 24.3351 14.9914 24.2193C12.6808 23.7567 10.9402 21.7147 10.9402 19.2695C10.9402 19.2466 10.9402 19.2262 10.9409 19.205C11.6214 19.5833 12.3995 19.8109 13.228 19.8365C11.8721 18.9318 10.9809 17.3852 10.9809 15.6332C10.9809 14.7081 11.231 13.8413 11.6647 13.0951C14.1548 16.1505 17.8763 18.16 22.0732 18.3712C21.9866 18.0012 21.9419 17.6158 21.9419 17.2197C21.9419 14.4321 24.2035 12.1706 26.9921 12.1706C28.4446 12.1706 29.7565 12.7845 30.678 13.7661C31.8284 13.5392 32.9087 13.1189 33.8846 12.5405C33.5069 13.7191 32.7066 14.7081 31.6639 15.3335C32.6855 15.2113 33.659 14.9404 34.5637 14.5382C33.8879 15.551 33.0309 16.4406 32.045 17.1533Z" fill="white"/>
</svg>
