<svg width="44" height="44" viewBox="0 0 44 44" fill="none" xmlns="http://www.w3.org/2000/svg">
<path d="M22 0C9.85015 0 0 9.8497 0 22C0 34.1503 9.85015 44 22 44C34.1499 44 44 34.1503 44 22C44 9.8497 34.1499 0 22 0ZM33.1596 24.3794C34.185 25.3809 35.2698 26.3235 36.1903 27.4285C36.5981 27.9174 36.9825 28.4229 37.2751 28.9914C37.6928 29.8021 37.3156 30.6911 36.59 30.7392L32.0829 30.7383C30.9188 30.8347 29.9925 30.3652 29.2115 29.5694C28.5881 28.9351 28.0097 28.2577 27.4092 27.6018C27.1639 27.3327 26.9055 27.0792 26.5976 26.8798C25.9832 26.4801 25.4493 26.6026 25.0973 27.2444C24.7386 27.8976 24.6567 28.6214 24.6224 29.3483C24.5734 30.4111 24.2529 30.6888 23.1865 30.7388C20.908 30.8455 18.746 30.4998 16.7367 29.351C14.9641 28.3378 13.5921 26.9077 12.3965 25.2886C10.0685 22.1323 8.2855 18.6682 6.6835 15.1045C6.32295 14.3019 6.58672 13.8725 7.47212 13.8558C8.94314 13.8275 10.4142 13.8311 11.8852 13.8545C12.4838 13.8639 12.88 14.2065 13.11 14.7714C13.9049 16.7272 14.8794 18.588 16.1006 20.3138C16.4261 20.7734 16.7583 21.2316 17.2313 21.5562C17.7535 21.9145 18.1514 21.7961 18.3976 21.2132C18.5552 20.8427 18.6231 20.4466 18.6574 20.0496C18.7744 18.6898 18.7883 17.3304 18.5858 15.9759C18.4597 15.1283 17.9831 14.581 17.1382 14.4207C16.7078 14.3393 16.7709 14.1799 16.9802 13.9342C17.3434 13.5092 17.6837 13.2464 18.3639 13.2464L23.4562 13.2455C24.2587 13.403 24.4388 13.7631 24.5477 14.5715L24.5522 20.2305C24.5428 20.5434 24.7093 21.4706 25.2711 21.6755C25.7212 21.824 26.0183 21.463 26.2875 21.1781C27.5087 19.8821 28.3788 18.3526 29.1579 16.7695C29.5018 16.0714 29.7985 15.3489 30.0865 14.6251C30.3008 14.0899 30.6339 13.8266 31.238 13.8356L36.1417 13.8414C36.2862 13.8414 36.4329 13.8428 36.576 13.8675C37.4025 14.0089 37.6289 14.3645 37.3732 15.1707C36.9708 16.4373 36.1889 17.4924 35.4246 18.5502C34.6054 19.6827 33.7317 20.7757 32.9206 21.9131C32.1751 22.9529 32.2341 23.4764 33.1596 24.3794Z" fill="white"/>
</svg>
