<svg width="45" height="44" viewBox="0 0 45 44" fill="none" xmlns="http://www.w3.org/2000/svg">
<path d="M22.3333 0C10.1849 0 0.333344 9.85159 0.333344 22C0.333344 34.1484 10.1849 44 22.3333 44C34.4818 44 44.3333 34.1484 44.3333 22C44.3333 9.85159 34.4818 0 22.3333 0ZM22.7996 34.8091C22.7993 34.8091 22.8 34.8091 22.7996 34.8091H22.7943C20.5904 34.808 18.4249 34.2555 16.5017 33.2068L9.52161 35.0373L11.3897 28.216C10.2373 26.22 9.63104 23.9554 9.63205 21.6354C9.63507 14.3777 15.5419 8.47324 22.7996 8.47324C26.3217 8.47458 29.628 9.84555 32.1138 12.3334C34.5999 14.8215 35.9682 18.1288 35.9669 21.6458C35.9638 28.9039 30.0563 34.8091 22.7996 34.8091Z" fill="white"/>
<path d="M22.8041 11C16.7673 11 11.8578 15.9075 11.8551 21.9399C11.8544 24.0071 12.4331 26.0203 13.5285 27.7622L13.7887 28.1761L12.6829 32.2135L16.825 31.1272L17.2248 31.3642C18.905 32.3612 20.8312 32.8885 22.795 32.8892H22.7994C28.8314 32.8892 33.7409 27.9814 33.7436 21.9486C33.7446 19.0251 32.6073 16.2764 30.5411 14.2086C28.4749 12.1407 25.7269 11.001 22.8041 11ZM29.2413 26.6436C28.967 27.4117 27.6528 28.113 27.0207 28.2076C26.4537 28.2922 25.7367 28.3275 24.9485 28.0774C24.4704 27.9257 23.8578 27.7232 23.0726 27.3845C19.7724 25.9598 17.6169 22.6378 17.4524 22.4183C17.2879 22.1987 16.109 20.6347 16.109 19.0157C16.109 17.397 16.959 16.601 17.2604 16.2721C17.5622 15.9427 17.9187 15.8605 18.1379 15.8605C18.3571 15.8605 18.5767 15.8625 18.7683 15.8719C18.9704 15.882 19.2417 15.795 19.5085 16.4366C19.7828 17.0952 20.4408 18.7139 20.523 18.8784C20.6053 19.0432 20.66 19.2352 20.5505 19.4548C20.4408 19.6743 20.0762 20.148 19.7281 20.5797C19.5821 20.7606 19.3917 20.9218 19.5837 21.2511C19.7754 21.58 20.4361 22.6573 21.4139 23.5294C22.6708 24.65 23.7309 24.9971 24.0599 25.1619C24.3885 25.3264 24.5805 25.2989 24.7726 25.0797C24.9642 24.8601 25.595 24.1192 25.8142 23.7899C26.0334 23.4606 26.253 23.5157 26.5544 23.6254C26.8562 23.7349 28.4736 24.5308 28.8026 24.6953C29.1315 24.8601 29.3507 24.9424 29.433 25.0797C29.5156 25.2169 29.5156 25.8752 29.2413 26.6436Z" fill="white"/>
</svg>
