<svg width="127" height="32" viewBox="0 0 127 32" fill="none" xmlns="http://www.w3.org/2000/svg">
<path d="M52.1843 26.2363C46.4088 26.2363 41.7261 21.655 41.7261 16.0043C41.7261 10.3537 46.4088 5.77234 52.1843 5.77234C55.3742 5.77234 58.2264 7.17196 60.1457 9.38006L63.6466 4.60744C60.6966 1.75604 56.6537 0 52.1843 0C43.1478 0 35.8262 7.16327 35.8262 16.0043C35.8262 24.8454 43.1478 32.0087 52.1843 32.0087C56.6537 32.0087 60.6966 30.2526 63.6466 27.4099L60.1457 22.6373C58.2264 24.8367 55.3742 26.2363 52.1843 26.2363Z" fill="#7BB862"/>
<path d="M85.3093 13.1356H72.4076V0.643303H66.561V31.3567H72.4076V18.8644H85.3093V31.3567H91.156V0.643303H85.3093V13.1356Z" fill="#7BB862"/>
<path d="M110.429 26.2363C104.662 26.2363 99.9704 21.6463 99.9704 16.0043C99.9704 10.3624 104.662 5.77234 110.429 5.77234C116.195 5.77234 120.887 10.3624 120.887 16.0043C120.887 21.6463 116.195 26.2363 110.429 26.2363ZM121.153 0.643303V3.94675C118.283 1.49525 114.534 0 110.429 0C101.392 0 94.0705 7.16327 94.0705 15.9957C94.0705 24.8367 101.392 32 110.429 32C114.543 32 118.283 30.5048 121.153 28.0532V31.3567H127V0.643303H121.153Z" fill="#7BB862"/>
<path d="M16.3581 26.2363C10.5915 26.2363 5.89995 21.6463 5.89995 16.0043C5.89995 10.3624 10.5915 5.77234 16.3581 5.77234C22.1248 5.77234 26.8163 10.3624 26.8163 16.0043C26.8163 21.6463 22.1248 26.2363 16.3581 26.2363ZM27.0829 3.94675C24.2129 1.49525 20.4632 0 16.3581 0C7.32163 0 0 7.16327 0 16.0043C0 24.8454 7.32163 32.0087 16.3581 32.0087C20.4721 32.0087 24.2129 30.5134 27.0829 28.0619V31.3654H32.9295V0.643303H27.0829V3.94675Z" fill="#7BB862"/>
</svg>
