<svg width="42" height="42" viewBox="0 0 42 42" fill="none" xmlns="http://www.w3.org/2000/svg">
<circle opacity="0.8" cx="21" cy="21" r="21" fill="#F5F5F5"/>
<path fill-rule="evenodd" clip-rule="evenodd" d="M22.0141 20.6L26.3071 16.307C26.6981 15.916 26.6981 15.284 26.3071 14.893C25.9161 14.502 25.2841 14.502 24.8931 14.893L20.6001 19.186L16.3071 14.893C15.9161 14.502 15.2841 14.502 14.8931 14.893C14.5021 15.284 14.5021 15.916 14.8931 16.307L19.1861 20.6L14.8931 24.893C14.5021 25.284 14.5021 25.916 14.8931 26.307C15.0881 26.502 15.3441 26.6 15.6001 26.6C15.8561 26.6 16.1121 26.502 16.3071 26.307L20.6001 22.014L24.8931 26.307C25.0881 26.502 25.3441 26.6 25.6001 26.6C25.8561 26.6 26.1121 26.502 26.3071 26.307C26.6981 25.916 26.6981 25.284 26.3071 24.893L22.0141 20.6Z" fill="#8C8C8C"/>
</svg>
