<svg width="144" height="32" viewBox="0 0 144 32" fill="none" xmlns="http://www.w3.org/2000/svg">
<path d="M44.125 6.5169L43.1812 9.37494H41.9657L45.055 0.285343H46.473L49.5761 9.37494H48.3239L47.3524 6.5169H44.125ZM47.1038 5.59643L46.2152 2.98231C46.0126 2.38861 45.8791 1.85014 45.741 1.32547H45.718C45.5845 1.86394 45.4325 2.41622 45.2576 2.9685L44.369 5.59643H47.1038Z" fill="#E31019"/>
<path d="M56.4684 0.391197C57.0347 0.294548 57.7759 0.216309 58.7198 0.216309C59.88 0.216309 60.7317 0.487846 61.2704 0.971091C61.7676 1.40371 62.0669 2.06184 62.0669 2.87185C62.0669 3.69567 61.8229 4.34 61.3671 4.81404C60.7455 5.47677 59.7372 5.81274 58.5862 5.81274C58.2363 5.81274 57.914 5.79893 57.6424 5.7299V9.37034H56.4684V0.391197ZM57.6424 4.77722C57.9002 4.84625 58.2225 4.87387 58.6139 4.87387C60.0319 4.87387 60.8928 4.18812 60.8928 2.93168C60.8928 1.73048 60.0411 1.15058 58.7474 1.15058C58.2363 1.15058 57.845 1.192 57.6424 1.24723V4.77722Z" fill="#E31019"/>
<path d="M65.3035 0.405004C65.8974 0.285344 66.7446 0.216309 67.5549 0.216309C68.8072 0.216309 69.6175 0.446425 70.1838 0.957284C70.6442 1.36229 70.8974 1.9836 70.8974 2.68316C70.8974 3.88437 70.1423 4.68057 69.1847 5.00273V5.04415C69.8845 5.28808 70.3035 5.9324 70.5199 6.87588C70.8145 8.14152 71.0309 9.02057 71.2197 9.37034H70.0042C69.8569 9.11261 69.6543 8.33022 69.3965 7.19804C69.1248 5.94621 68.6414 5.47217 67.5733 5.43075H66.4683V9.36574H65.2943V0.405004H65.3035ZM66.4775 4.5471H67.6792C68.9315 4.5471 69.728 3.86135 69.728 2.82123C69.728 1.64763 68.8762 1.13677 67.6378 1.12297C67.0715 1.12297 66.6663 1.1782 66.4775 1.22882V4.5471Z" fill="#E31019"/>
<path d="M81.8826 4.7358C81.8826 7.86538 79.9811 9.52222 77.6607 9.52222C75.262 9.52222 73.5723 7.66288 73.5723 4.91069C73.5723 2.02502 75.3679 0.138069 77.7942 0.138069C80.2758 0.138069 81.8826 2.03883 81.8826 4.7358ZM74.8246 4.88307C74.8246 6.82525 75.8789 8.56494 77.7252 8.56494C79.5852 8.56494 80.6395 6.85287 80.6395 4.79102C80.6395 2.98231 79.6957 1.09535 77.739 1.09535C75.7961 1.09535 74.8246 2.88566 74.8246 4.88307Z" fill="#E31019"/>
<path d="M85.1883 0.405004C85.9019 0.299151 86.7537 0.216309 87.6837 0.216309C89.3687 0.216309 90.5704 0.607507 91.3669 1.34848C92.1772 2.08946 92.6468 3.14339 92.6468 4.61153C92.6468 6.09348 92.1864 7.3085 91.3393 8.14612C90.4875 8.99756 89.0879 9.45319 87.32 9.45319C86.482 9.45319 85.7822 9.41177 85.1883 9.34733V0.405004ZM86.3623 8.44528C86.657 8.5005 87.0898 8.51431 87.5502 8.51431C90.0593 8.51431 91.4221 7.1106 91.4221 4.65756C91.436 2.51287 90.2205 1.15058 87.7389 1.15058C87.1312 1.15058 86.6754 1.20581 86.3623 1.27024V8.44528Z" fill="#E31019"/>
<path d="M96.9884 0.285343V5.66547C96.9884 7.6997 97.8908 8.56493 99.1062 8.56493C100.455 8.56493 101.316 7.67668 101.316 5.66547V0.285343H102.504V5.58262C102.504 8.37164 101.035 9.51762 99.0648 9.51762C97.2048 9.51762 95.8005 8.45448 95.8005 5.63325V0.285343H96.9884Z" fill="#E31019"/>
<path d="M112.596 9.07579C112.163 9.2921 111.302 9.50841 110.197 9.50841C107.633 9.50841 105.704 7.88839 105.704 4.91069C105.704 2.06645 107.633 0.138069 110.451 0.138069C111.583 0.138069 112.297 0.381993 112.61 0.543074L112.324 1.50036C111.878 1.28405 111.247 1.12297 110.492 1.12297C108.36 1.12297 106.942 2.48526 106.942 4.86926C106.942 7.09219 108.222 8.52351 110.437 8.52351C111.15 8.52351 111.878 8.37624 112.352 8.14612L112.596 9.07579Z" fill="#E31019"/>
<path d="M117.495 1.28405H114.728V0.285343H121.459V1.28405H118.678V9.37494H117.49V1.28405H117.495Z" fill="#E31019"/>
<path d="M135.782 4.7358C135.782 7.86538 133.88 9.52222 131.56 9.52222C129.161 9.52222 127.472 7.66288 127.472 4.91069C127.472 2.02502 129.267 0.138069 131.694 0.138069C134.18 0.138069 135.782 2.03883 135.782 4.7358ZM128.729 4.88307C128.729 6.82525 129.783 8.56494 131.629 8.56494C133.489 8.56494 134.543 6.85287 134.543 4.79102C134.543 2.98231 133.6 1.09535 131.643 1.09535C129.7 1.09535 128.729 2.88566 128.729 4.88307Z" fill="#E31019"/>
<path d="M139.101 0.285343H143.995V1.27024H140.271V4.28937H143.71V5.26046H140.271V9.37494H139.097V0.285343H139.101Z" fill="#E31019"/>
<path d="M43.9171 15.7262V31.7607H41.846V15.7262H43.9171Z" fill="#173F75"/>
<path d="M58.2456 31.2406C57.4859 31.6226 55.962 32 54.0099 32C49.4887 32 46.0863 29.1466 46.0863 23.8861C46.0863 18.865 49.4887 15.4638 54.4657 15.4638C56.4638 15.4638 57.7253 15.8918 58.2732 16.1772L57.7713 17.8662C56.9841 17.4843 55.8653 17.1989 54.5347 17.1989C50.7732 17.1989 48.2732 19.6013 48.2732 23.8125C48.2732 27.7382 50.5338 30.2603 54.438 30.2603C55.6995 30.2603 56.9841 29.998 57.8174 29.593L58.2456 31.2406Z" fill="#173F75"/>
<path d="M69.1571 24.2451H62.9232V30.0256H69.8753V31.7607H60.856V15.7262H69.5208V17.4612H62.9278V22.5284H69.1617V24.2451H69.1571Z" fill="#173F75"/>
<path d="M72.3063 15.7262H74.3781V30.0256H81.2335V31.7607H72.3063V15.7262Z" fill="#173F75"/>
<path d="M86.3853 26.7165L84.7187 31.7607H82.5778L88.029 15.7262H90.529L96.0031 31.7607H93.7886L92.0759 26.7165H86.3853ZM91.6431 25.1011L90.0732 20.485C89.714 19.4402 89.4792 18.4876 89.2398 17.5579H89.1938C88.9544 18.5106 88.692 19.4863 88.3835 20.462L86.8135 25.1011H91.6431Z" fill="#173F75"/>
<path d="M97.9829 31.7607V15.7262H100.243L105.386 23.8401C106.574 25.7178 107.504 27.4069 108.264 29.0499L108.31 29.0269C108.121 26.8868 108.07 24.9354 108.07 22.4364V15.7262H110.022V31.7607H107.928L102.836 23.6238C101.717 21.8381 100.644 20.0063 99.8383 18.2713L99.7693 18.2943C99.889 20.3147 99.935 22.2431 99.935 24.9078V31.7607H97.9829Z" fill="#173F75"/>
<path d="M113.406 15.9425C114.668 15.7538 116.169 15.6111 117.808 15.6111C120.782 15.6111 122.9 16.3015 124.304 17.6085C125.731 18.9156 126.565 20.7749 126.565 23.366C126.565 25.9848 125.754 28.1248 124.258 29.5976C122.757 31.0979 120.285 31.9034 117.163 31.9034C115.685 31.9034 114.451 31.8343 113.402 31.7147V15.9425H113.406ZM115.478 30.1222C116.003 30.2189 116.763 30.2419 117.573 30.2419C122.002 30.2419 124.405 27.7659 124.405 23.4351C124.428 19.6519 122.288 17.2495 117.909 17.2495C116.836 17.2495 116.031 17.3462 115.483 17.4658V30.1222H115.478Z" fill="#173F75"/>
<path d="M31.8 0H0V31.7883H31.8V0Z" fill="white"/>
<path d="M12.1638 0H0V12.1594H12.1638V0Z" fill="#173F75"/>
<path d="M12.1638 19.6289H0V31.7883H12.1638V19.6289Z" fill="#173F75"/>
<path d="M31.8 0H19.6362V12.1594H31.8V0Z" fill="#173F75"/>
<path d="M31.8 19.6289H19.6362V31.7883H31.8V19.6289Z" fill="#173F75"/>
<path d="M31.8 14.3178H17.4861V0H14.3139V14.3178H0V17.4704H14.3139V31.7883H17.4861V17.4704H31.8V14.3178Z" fill="#E31019"/>
</svg>
