<svg width="70" height="40" viewBox="0 0 70 40" fill="none" xmlns="http://www.w3.org/2000/svg">
<path d="M28.5993 34.1391C27.1355 37.941 24.8201 39.5 20.1893 39.5C18.8187 39.5 17.4481 39.4097 16.0801 39.2703V33.9094C17.3549 34.0023 18.6776 34.183 20.0003 34.1391C22.3157 33.9094 23.0716 31.5735 22.3157 29.6945L13.7168 7.47406H20.8972L26.4249 23.6935H26.5207L31.8595 7.47406H38.803L28.5993 34.1391Z" fill="#0081C6"/>
<path d="M44.4343 23.4638C44.4822 26.3056 46.9387 27.449 49.5841 27.449C51.5216 27.449 53.978 26.716 53.978 24.424C53.978 22.4546 51.1916 21.768 46.3718 20.7588C42.4968 19.9329 38.6245 18.6062 38.6245 14.4352C38.6245 8.38776 44.0112 6.82879 49.2541 6.82879C54.5928 6.82879 59.5057 8.57102 60.0247 14.3888H53.648C53.4591 11.8696 51.4737 11.1805 49.0651 11.1805C47.5535 11.1805 45.3339 11.4541 45.3339 13.3796C45.3339 15.7154 49.113 16.0381 52.9401 16.9079C56.8603 17.7777 60.6874 19.1534 60.6874 23.5516C60.6874 29.7823 55.1118 31.7981 49.5389 31.7981C43.8701 31.7981 38.3424 29.7358 38.0603 23.4586H44.4343V23.4638Z" fill="#0081C6"/>
<path d="M69.9999 7.47406H63.2905V31.1606H69.9999V7.47406Z" fill="#0081C6"/>
<path d="M0 0.5H7.41728V25.1131H17.5066V31.1606H0V0.5Z" fill="#0081C6"/>
<path d="M27.3403 5.01171H23.4201L26.5632 0.5H32.3836L27.3403 5.01171Z" fill="#0081C6"/>
</svg>
