<svg width="399" height="595" viewBox="0 0 399 595" fill="none" xmlns="http://www.w3.org/2000/svg">
<g clip-path="url(#clip0)">
<path fill-rule="evenodd" clip-rule="evenodd" d="M396.852 190.072C381.906 356.905 262.299 426.678 203.242 442.999C21.5282 493.217 97.3079 613.922 -54.3717 595.025C-92.3695 590.291 -145.058 516.171 -153.373 510.803C-167.122 501.925 -153.262 472.324 -164.831 422.301C-176.401 372.278 -182.555 374.577 -220.715 367.858C-220.715 367.858 -254.972 347.284 -249.743 317.669C-244.513 288.052 -301.871 -1.23944 -140.177 -3.30427C11.7445 -5.24398 42.2319 10.5965 253.522 10.6258C314.75 10.6343 411.799 23.2385 396.852 190.072Z" fill="#87E6FF"/>
</g>
<defs>
<clipPath id="clip0">
<rect width="399" height="595" fill="white"/>
</clipPath>
</defs>
</svg>
