<svg width="1789" height="680" viewBox="0 0 1789 680" fill="none" xmlns="http://www.w3.org/2000/svg">
<g clip-path="url(#clip0_116_427)">
<g opacity="0.1">
<path d="M1373.87 55.0605C1373.87 55.0605 1154.87 83.7164 1031.81 276.769C908.746 469.822 717.268 507.358 624.925 500.94C532.582 494.521 176.939 531.466 50.3419 638.325C-76.2552 745.183 -131.308 811.592 -131.308 811.592" stroke="url(#paint0_linear_116_427)" stroke-width="2"/>
<path d="M1390.1 52.9985C1390.1 52.9985 1171.1 81.6544 1048.04 274.707C924.975 467.76 733.497 505.296 641.154 498.878C548.811 492.459 193.168 529.404 66.5713 636.262C-60.0259 743.121 -115.078 809.53 -115.078 809.53" stroke="url(#paint1_linear_116_427)" stroke-width="2"/>
<path d="M1406.33 50.936C1406.33 50.936 1187.33 79.5919 1064.27 272.644C941.204 465.697 749.727 503.234 657.384 496.815C565.04 490.397 209.398 527.342 82.8005 634.2C-43.7966 741.058 -98.8491 807.467 -98.8491 807.467" stroke="url(#paint2_linear_116_427)" stroke-width="2"/>
<path d="M1422.55 48.873C1422.55 48.873 1203.56 77.5289 1080.5 270.581C957.434 463.634 765.956 501.171 673.613 494.752C581.27 488.334 225.627 525.279 99.0299 632.137C-27.5673 738.995 -82.6197 805.404 -82.6197 805.404" stroke="url(#paint3_linear_116_427)" stroke-width="2"/>
<path d="M1438.78 46.811C1438.78 46.811 1219.79 75.4669 1096.73 268.519C973.663 461.572 782.185 499.109 689.842 492.69C597.499 486.272 241.856 523.217 115.259 630.075C-11.3379 736.933 -66.3903 803.342 -66.3903 803.342" stroke="url(#paint4_linear_116_427)" stroke-width="2"/>
<path d="M1455.01 44.7485C1455.01 44.7485 1236.02 73.4044 1112.96 266.457C989.892 459.51 798.415 497.046 706.072 490.628C613.728 484.209 258.086 521.154 131.489 628.012C4.89136 734.871 -50.1611 801.28 -50.1611 801.28" stroke="url(#paint5_linear_116_427)" stroke-width="2"/>
<path d="M1471.24 42.6855C1471.24 42.6855 1252.25 71.3414 1129.19 264.394C1006.12 457.447 814.644 494.983 722.301 488.565C629.958 482.146 274.315 519.091 147.718 625.95C21.1207 732.808 -33.9317 799.217 -33.9317 799.217" stroke="url(#paint6_linear_116_427)" stroke-width="2"/>
<path d="M1487.47 40.6235C1487.47 40.6235 1268.48 69.2794 1145.42 262.332C1022.35 455.385 830.873 492.921 738.53 486.503C646.187 480.084 290.544 517.029 163.947 623.887C37.3501 730.746 -17.7023 797.155 -17.7023 797.155" stroke="url(#paint7_linear_116_427)" stroke-width="2"/>
<path d="M1503.7 38.561C1503.7 38.561 1284.71 67.2169 1161.64 260.269C1038.58 453.322 847.103 490.859 754.759 484.44C662.416 478.022 306.774 514.967 180.176 621.825C53.5793 728.683 -1.47309 795.092 -1.47309 795.092" stroke="url(#paint8_linear_116_427)" stroke-width="2"/>
<path d="M1519.93 36.498C1519.93 36.498 1300.94 65.1539 1177.87 258.206C1054.81 451.259 863.332 488.796 770.989 482.377C678.646 475.959 323.003 512.904 196.406 619.762C69.8087 726.62 14.7563 793.029 14.7563 793.029" stroke="url(#paint9_linear_116_427)" stroke-width="2"/>
<path d="M1536.16 34.436C1536.16 34.436 1317.17 63.0919 1194.1 256.144C1071.04 449.197 879.561 486.734 787.218 480.315C694.875 473.897 339.232 510.842 212.635 617.7C86.0381 724.558 30.9857 790.967 30.9857 790.967" stroke="url(#paint10_linear_116_427)" stroke-width="2"/>
<path d="M1552.39 32.3735C1552.39 32.3735 1333.4 61.0294 1210.33 254.082C1087.27 447.135 895.791 484.671 803.447 478.253C711.104 471.834 355.462 508.779 228.864 615.637C102.267 722.496 47.2148 788.905 47.2148 788.905" stroke="url(#paint11_linear_116_427)" stroke-width="2"/>
<path d="M1568.62 30.3105C1568.62 30.3105 1349.63 58.9664 1226.56 252.019C1103.5 445.072 912.02 482.608 819.677 476.19C727.334 469.771 371.691 506.716 245.094 613.575C118.497 720.433 63.4441 786.842 63.4441 786.842" stroke="url(#paint12_linear_116_427)" stroke-width="2"/>
<path d="M1584.85 28.2485C1584.85 28.2485 1365.86 56.9044 1242.79 249.957C1119.73 443.01 928.249 480.546 835.906 474.128C743.563 467.709 387.92 504.654 261.323 611.512C134.726 718.371 79.6735 784.78 79.6735 784.78" stroke="url(#paint13_linear_116_427)" stroke-width="2"/>
<path d="M1601.08 26.1855C1601.08 26.1855 1382.08 54.8414 1259.02 247.894C1135.96 440.947 944.479 478.483 852.135 472.065C759.792 465.646 404.15 502.591 277.552 609.45C150.955 716.308 95.9029 782.717 95.9029 782.717" stroke="url(#paint14_linear_116_427)" stroke-width="2"/>
<path d="M1617.31 24.123C1617.31 24.123 1398.31 52.7789 1275.25 245.831C1152.19 438.884 960.708 476.421 868.365 470.002C776.022 463.584 420.379 500.529 293.782 607.387C167.185 714.245 112.132 780.654 112.132 780.654" stroke="url(#paint15_linear_116_427)" stroke-width="2"/>
<path d="M1633.54 22.061C1633.54 22.061 1414.54 50.7169 1291.48 243.769C1168.41 436.822 976.937 474.359 884.594 467.94C792.251 461.522 436.608 498.467 310.011 605.325C183.414 712.183 128.362 778.592 128.362 778.592" stroke="url(#paint16_linear_116_427)" stroke-width="2"/>
<path d="M1649.77 19.9985C1649.77 19.9985 1430.77 48.6544 1307.71 241.707C1184.64 434.76 993.166 472.296 900.823 465.878C808.48 459.459 452.837 496.404 326.24 603.262C199.643 710.121 144.591 776.53 144.591 776.53" stroke="url(#paint17_linear_116_427)" stroke-width="2"/>
<path d="M1665.99 17.9355C1665.99 17.9355 1447 46.5914 1323.94 239.644C1200.87 432.697 1009.4 470.233 917.053 463.815C824.71 457.396 469.067 494.341 342.47 601.2C215.873 708.058 160.82 774.467 160.82 774.467" stroke="url(#paint18_linear_116_427)" stroke-width="2"/>
<path d="M1682.22 15.8735C1682.22 15.8735 1463.23 44.5294 1340.17 237.582C1217.1 430.635 1025.63 468.171 933.282 461.753C840.939 455.334 485.296 492.279 358.699 599.137C232.102 705.996 177.049 772.405 177.049 772.405" stroke="url(#paint19_linear_116_427)" stroke-width="2"/>
<path d="M1698.45 13.8105C1698.45 13.8105 1479.46 42.4664 1356.4 235.519C1233.33 428.572 1041.85 466.108 949.511 459.69C857.168 453.271 501.525 490.216 374.928 597.075C248.331 703.933 193.279 770.342 193.279 770.342" stroke="url(#paint20_linear_116_427)" stroke-width="2"/>
<path d="M1714.68 11.748C1714.68 11.748 1495.69 40.4039 1372.63 233.456C1249.56 426.509 1058.08 464.046 965.741 457.627C873.398 451.209 517.755 488.154 391.158 595.012C264.561 701.87 209.508 768.279 209.508 768.279" stroke="url(#paint21_linear_116_427)" stroke-width="2"/>
<path d="M1730.91 9.68604C1730.91 9.68604 1511.92 38.3419 1388.86 231.394C1265.79 424.447 1074.31 461.984 981.97 455.565C889.627 449.147 533.984 486.092 407.387 592.95C280.79 699.808 225.737 766.217 225.737 766.217" stroke="url(#paint22_linear_116_427)" stroke-width="2"/>
<path d="M1747.14 7.62305C1747.14 7.62305 1528.15 36.2789 1405.08 229.331C1282.02 422.384 1090.54 459.921 998.199 453.502C905.856 447.084 550.213 484.029 423.616 590.887C297.019 697.745 241.967 764.154 241.967 764.154" stroke="url(#paint23_linear_116_427)" stroke-width="2"/>
<path d="M1763.37 5.56055C1763.37 5.56055 1544.38 34.2164 1421.31 227.269C1298.25 420.322 1106.77 457.858 1014.43 451.44C922.086 445.021 566.443 481.966 439.846 588.825C313.249 695.683 258.196 762.092 258.196 762.092" stroke="url(#paint24_linear_116_427)" stroke-width="2"/>
<path d="M1779.6 3.49854C1779.6 3.49854 1560.61 32.1544 1437.54 225.207C1314.48 418.26 1123 455.796 1030.66 449.378C938.315 442.959 582.672 479.904 456.075 586.762C329.478 693.621 274.425 760.03 274.425 760.03" stroke="url(#paint25_linear_116_427)" stroke-width="2"/>
<path d="M1795.83 1.43555C1795.83 1.43555 1576.84 30.0914 1453.77 223.144C1330.71 416.197 1139.23 453.733 1046.89 447.315C954.544 440.896 598.901 477.841 472.304 584.7C345.707 691.558 290.655 757.967 290.655 757.967" stroke="url(#paint26_linear_116_427)" stroke-width="2"/>
<path d="M1812.06 -0.626953C1812.06 -0.626953 1593.07 28.0289 1470 221.081C1346.94 414.134 1155.46 451.671 1063.12 445.252C970.774 438.834 615.131 475.779 488.534 582.637C361.937 689.495 306.884 755.904 306.884 755.904" stroke="url(#paint27_linear_116_427)" stroke-width="2"/>
<path d="M1828.29 -2.68896C1828.29 -2.68896 1609.3 25.9669 1486.23 219.019C1363.17 412.072 1171.69 449.609 1079.35 443.19C987.003 436.772 631.36 473.717 504.763 580.575C378.166 687.433 323.113 753.842 323.113 753.842" stroke="url(#paint28_linear_116_427)" stroke-width="2"/>
<path d="M1844.52 -4.75195C1844.52 -4.75195 1625.52 23.9039 1502.46 216.956C1379.4 410.009 1187.92 447.546 1095.58 441.127C1003.23 434.709 647.589 471.654 520.992 578.512C394.395 685.37 339.343 751.779 339.343 751.779" stroke="url(#paint29_linear_116_427)" stroke-width="2"/>
<path d="M1860.75 -6.81445C1860.75 -6.81445 1641.75 21.8414 1518.69 214.894C1395.63 407.947 1204.15 445.483 1111.8 439.065C1019.46 432.646 663.819 469.591 537.222 576.45C410.625 683.308 355.572 749.717 355.572 749.717" stroke="url(#paint30_linear_116_427)" stroke-width="2"/>
<path d="M1876.98 -8.87646C1876.98 -8.87646 1657.98 19.7794 1534.92 212.832C1411.85 405.885 1220.38 443.421 1128.03 437.003C1035.69 430.584 680.048 467.529 553.451 574.387C426.854 681.246 371.801 747.655 371.801 747.655" stroke="url(#paint31_linear_116_427)" stroke-width="2"/>
<path d="M1893.21 -10.9395C1893.21 -10.9395 1674.21 17.7164 1551.15 210.769C1428.08 403.822 1236.61 441.358 1144.26 434.94C1051.92 428.521 696.277 465.466 569.68 572.325C443.083 679.183 388.031 745.592 388.031 745.592" stroke="url(#paint32_linear_116_427)" stroke-width="2"/>
<path d="M1909.43 -13.0015C1909.43 -13.0015 1690.44 15.6544 1567.38 208.707C1444.31 401.76 1252.84 439.296 1160.49 432.878C1068.15 426.459 712.507 463.404 585.91 570.262C459.312 677.121 404.26 743.53 404.26 743.53" stroke="url(#paint33_linear_116_427)" stroke-width="2"/>
<path d="M1925.66 -15.064C1925.66 -15.064 1706.67 13.5919 1583.61 206.644C1460.54 399.697 1269.06 437.234 1176.72 430.815C1084.38 424.397 728.736 461.342 602.139 568.2C475.542 675.058 420.489 741.467 420.489 741.467" stroke="url(#paint34_linear_116_427)" stroke-width="2"/>
<path d="M1941.89 -17.127C1941.89 -17.127 1722.9 11.5289 1599.84 204.581C1476.77 397.634 1285.29 435.171 1192.95 428.752C1100.61 422.334 744.965 459.279 618.368 566.137C491.771 672.995 436.719 739.404 436.719 739.404" stroke="url(#paint35_linear_116_427)" stroke-width="2"/>
<path d="M1958.12 -19.189C1958.12 -19.189 1739.13 9.46687 1616.07 202.519C1493 395.572 1301.52 433.109 1209.18 426.69C1116.84 420.272 761.195 457.217 634.598 564.075C508 670.933 452.948 737.342 452.948 737.342" stroke="url(#paint36_linear_116_427)" stroke-width="2"/>
<path d="M1974.35 -21.2515C1974.35 -21.2515 1755.36 7.40437 1632.29 200.457C1509.23 393.51 1317.75 431.046 1225.41 424.628C1133.07 418.209 777.424 455.154 650.827 562.012C524.23 668.871 469.177 735.28 469.177 735.28" stroke="url(#paint37_linear_116_427)" stroke-width="2"/>
<path d="M1990.58 -23.3145C1990.58 -23.3145 1771.59 5.34138 1648.52 198.394C1525.46 391.447 1333.98 428.983 1241.64 422.565C1149.3 416.146 793.653 453.091 667.056 559.95C540.459 666.808 485.407 733.217 485.407 733.217" stroke="url(#paint38_linear_116_427)" stroke-width="2"/>
<path d="M2006.81 -25.3765C2006.81 -25.3765 1787.82 3.27937 1664.75 196.332C1541.69 389.385 1350.21 426.921 1257.87 420.503C1165.53 414.084 809.883 451.029 683.286 557.887C556.688 664.746 501.636 731.155 501.636 731.155" stroke="url(#paint39_linear_116_427)" stroke-width="2"/>
<path d="M2023.04 -27.439C2023.04 -27.439 1804.05 1.21687 1680.98 194.269C1557.92 387.322 1366.44 424.859 1274.1 418.44C1181.75 412.022 826.112 448.967 699.515 555.825C572.918 662.683 517.865 729.092 517.865 729.092" stroke="url(#paint40_linear_116_427)" stroke-width="2"/>
<path d="M2039.27 -29.502C2039.27 -29.502 1820.28 -0.846116 1697.21 192.206C1574.15 385.259 1382.67 422.796 1290.33 416.377C1197.98 409.959 842.341 446.904 715.744 553.762C589.147 660.62 534.095 727.029 534.095 727.029" stroke="url(#paint41_linear_116_427)" stroke-width="2"/>
<path d="M2055.5 -31.564C2055.5 -31.564 1836.51 -2.90813 1713.44 190.144C1590.38 383.197 1398.9 420.734 1306.56 414.315C1214.21 407.897 858.571 444.842 731.973 551.7C605.376 658.558 550.324 724.967 550.324 724.967" stroke="url(#paint42_linear_116_427)" stroke-width="2"/>
<path d="M2071.73 -33.627C2071.73 -33.627 1852.74 -4.97112 1729.67 188.081C1606.61 381.134 1415.13 418.671 1322.79 412.252C1230.44 405.834 874.8 442.779 748.203 549.637C621.606 656.495 566.553 722.904 566.553 722.904" stroke="url(#paint43_linear_116_427)" stroke-width="2"/>
<path d="M2087.96 -35.6895C2087.96 -35.6895 1868.96 -7.03362 1745.9 186.019C1622.84 379.072 1431.36 416.608 1339.01 410.19C1246.67 403.771 891.029 440.716 764.432 547.575C637.835 654.433 582.782 720.842 582.782 720.842" stroke="url(#paint44_linear_116_427)" stroke-width="2"/>
<path d="M2104.19 -37.7515C2104.19 -37.7515 1885.19 -9.09563 1762.13 183.957C1639.07 377.01 1447.59 414.546 1355.24 408.128C1262.9 401.709 907.258 438.654 780.661 545.512C654.064 652.371 599.012 718.78 599.012 718.78" stroke="url(#paint45_linear_116_427)" stroke-width="2"/>
<path d="M2120.42 -39.814C2120.42 -39.814 1901.42 -11.1581 1778.36 181.894C1655.29 374.947 1463.82 412.484 1371.47 406.065C1279.13 399.647 923.488 436.592 796.891 543.45C670.294 650.308 615.241 716.717 615.241 716.717" stroke="url(#paint46_linear_116_427)" stroke-width="2"/>
<path d="M2136.65 -41.877C2136.65 -41.877 1917.65 -13.2211 1794.59 179.831C1671.52 372.884 1480.05 410.421 1387.7 404.002C1295.36 397.584 939.717 434.529 813.12 541.387C686.523 648.245 631.47 714.654 631.47 714.654" stroke="url(#paint47_linear_116_427)" stroke-width="2"/>
<path d="M2152.87 -43.939C2152.87 -43.939 1933.88 -15.2831 1810.82 177.769C1687.75 370.822 1496.28 408.359 1403.93 401.94C1311.59 395.522 955.947 432.467 829.349 539.325C702.752 646.183 647.7 712.592 647.7 712.592" stroke="url(#paint48_linear_116_427)" stroke-width="2"/>
<path d="M2169.1 -46.002C2169.1 -46.002 1950.11 -17.3461 1827.05 175.706C1703.98 368.759 1512.5 406.296 1420.16 399.877C1327.82 393.459 972.176 430.404 845.579 537.262C718.982 644.12 663.929 710.529 663.929 710.529" stroke="url(#paint49_linear_116_427)" stroke-width="2"/>
</g>
</g>
<defs>
<linearGradient id="paint0_linear_116_427" x1="585.933" y1="155.195" x2="656.626" y2="711.457" gradientUnits="userSpaceOnUse">
<stop stop-color="#979797"/>
<stop offset="1" stop-color="#979797" stop-opacity="0"/>
</linearGradient>
<linearGradient id="paint1_linear_116_427" x1="602.163" y1="153.133" x2="672.855" y2="709.395" gradientUnits="userSpaceOnUse">
<stop stop-color="#979797"/>
<stop offset="1" stop-color="#979797" stop-opacity="0"/>
</linearGradient>
<linearGradient id="paint2_linear_116_427" x1="618.392" y1="151.071" x2="689.085" y2="707.333" gradientUnits="userSpaceOnUse">
<stop stop-color="#979797"/>
<stop offset="1" stop-color="#979797" stop-opacity="0"/>
</linearGradient>
<linearGradient id="paint3_linear_116_427" x1="634.621" y1="149.008" x2="705.314" y2="705.27" gradientUnits="userSpaceOnUse">
<stop stop-color="#979797"/>
<stop offset="1" stop-color="#979797" stop-opacity="0"/>
</linearGradient>
<linearGradient id="paint4_linear_116_427" x1="650.851" y1="146.946" x2="721.543" y2="703.208" gradientUnits="userSpaceOnUse">
<stop stop-color="#979797"/>
<stop offset="1" stop-color="#979797" stop-opacity="0"/>
</linearGradient>
<linearGradient id="paint5_linear_116_427" x1="667.08" y1="144.883" x2="737.773" y2="701.145" gradientUnits="userSpaceOnUse">
<stop stop-color="#979797"/>
<stop offset="1" stop-color="#979797" stop-opacity="0"/>
</linearGradient>
<linearGradient id="paint6_linear_116_427" x1="683.309" y1="142.82" x2="754.002" y2="699.082" gradientUnits="userSpaceOnUse">
<stop stop-color="#979797"/>
<stop offset="1" stop-color="#979797" stop-opacity="0"/>
</linearGradient>
<linearGradient id="paint7_linear_116_427" x1="699.539" y1="140.758" x2="770.231" y2="697.02" gradientUnits="userSpaceOnUse">
<stop stop-color="#979797"/>
<stop offset="1" stop-color="#979797" stop-opacity="0"/>
</linearGradient>
<linearGradient id="paint8_linear_116_427" x1="715.768" y1="138.696" x2="786.461" y2="694.958" gradientUnits="userSpaceOnUse">
<stop stop-color="#979797"/>
<stop offset="1" stop-color="#979797" stop-opacity="0"/>
</linearGradient>
<linearGradient id="paint9_linear_116_427" x1="731.997" y1="136.633" x2="802.69" y2="692.895" gradientUnits="userSpaceOnUse">
<stop stop-color="#979797"/>
<stop offset="1" stop-color="#979797" stop-opacity="0"/>
</linearGradient>
<linearGradient id="paint10_linear_116_427" x1="748.227" y1="134.571" x2="818.919" y2="690.833" gradientUnits="userSpaceOnUse">
<stop stop-color="#979797"/>
<stop offset="1" stop-color="#979797" stop-opacity="0"/>
</linearGradient>
<linearGradient id="paint11_linear_116_427" x1="764.456" y1="132.508" x2="835.148" y2="688.77" gradientUnits="userSpaceOnUse">
<stop stop-color="#979797"/>
<stop offset="1" stop-color="#979797" stop-opacity="0"/>
</linearGradient>
<linearGradient id="paint12_linear_116_427" x1="780.685" y1="130.445" x2="851.378" y2="686.707" gradientUnits="userSpaceOnUse">
<stop stop-color="#979797"/>
<stop offset="1" stop-color="#979797" stop-opacity="0"/>
</linearGradient>
<linearGradient id="paint13_linear_116_427" x1="796.915" y1="128.383" x2="867.607" y2="684.645" gradientUnits="userSpaceOnUse">
<stop stop-color="#979797"/>
<stop offset="1" stop-color="#979797" stop-opacity="0"/>
</linearGradient>
<linearGradient id="paint14_linear_116_427" x1="813.144" y1="126.32" x2="883.836" y2="682.582" gradientUnits="userSpaceOnUse">
<stop stop-color="#979797"/>
<stop offset="1" stop-color="#979797" stop-opacity="0"/>
</linearGradient>
<linearGradient id="paint15_linear_116_427" x1="829.373" y1="124.258" x2="900.066" y2="680.52" gradientUnits="userSpaceOnUse">
<stop stop-color="#979797"/>
<stop offset="1" stop-color="#979797" stop-opacity="0"/>
</linearGradient>
<linearGradient id="paint16_linear_116_427" x1="845.603" y1="122.196" x2="916.295" y2="678.458" gradientUnits="userSpaceOnUse">
<stop stop-color="#979797"/>
<stop offset="1" stop-color="#979797" stop-opacity="0"/>
</linearGradient>
<linearGradient id="paint17_linear_116_427" x1="861.832" y1="120.133" x2="932.524" y2="676.395" gradientUnits="userSpaceOnUse">
<stop stop-color="#979797"/>
<stop offset="1" stop-color="#979797" stop-opacity="0"/>
</linearGradient>
<linearGradient id="paint18_linear_116_427" x1="878.061" y1="118.07" x2="948.754" y2="674.332" gradientUnits="userSpaceOnUse">
<stop stop-color="#979797"/>
<stop offset="1" stop-color="#979797" stop-opacity="0"/>
</linearGradient>
<linearGradient id="paint19_linear_116_427" x1="894.291" y1="116.008" x2="964.983" y2="672.27" gradientUnits="userSpaceOnUse">
<stop stop-color="#979797"/>
<stop offset="1" stop-color="#979797" stop-opacity="0"/>
</linearGradient>
<linearGradient id="paint20_linear_116_427" x1="910.52" y1="113.945" x2="981.212" y2="670.207" gradientUnits="userSpaceOnUse">
<stop stop-color="#979797"/>
<stop offset="1" stop-color="#979797" stop-opacity="0"/>
</linearGradient>
<linearGradient id="paint21_linear_116_427" x1="926.749" y1="111.883" x2="997.442" y2="668.145" gradientUnits="userSpaceOnUse">
<stop stop-color="#979797"/>
<stop offset="1" stop-color="#979797" stop-opacity="0"/>
</linearGradient>
<linearGradient id="paint22_linear_116_427" x1="942.979" y1="109.821" x2="1013.67" y2="666.083" gradientUnits="userSpaceOnUse">
<stop stop-color="#979797"/>
<stop offset="1" stop-color="#979797" stop-opacity="0"/>
</linearGradient>
<linearGradient id="paint23_linear_116_427" x1="959.208" y1="107.758" x2="1029.9" y2="664.02" gradientUnits="userSpaceOnUse">
<stop stop-color="#979797"/>
<stop offset="1" stop-color="#979797" stop-opacity="0"/>
</linearGradient>
<linearGradient id="paint24_linear_116_427" x1="975.437" y1="105.695" x2="1046.13" y2="661.957" gradientUnits="userSpaceOnUse">
<stop stop-color="#979797"/>
<stop offset="1" stop-color="#979797" stop-opacity="0"/>
</linearGradient>
<linearGradient id="paint25_linear_116_427" x1="991.666" y1="103.633" x2="1062.36" y2="659.895" gradientUnits="userSpaceOnUse">
<stop stop-color="#979797"/>
<stop offset="1" stop-color="#979797" stop-opacity="0"/>
</linearGradient>
<linearGradient id="paint26_linear_116_427" x1="1007.9" y1="101.57" x2="1078.59" y2="657.832" gradientUnits="userSpaceOnUse">
<stop stop-color="#979797"/>
<stop offset="1" stop-color="#979797" stop-opacity="0"/>
</linearGradient>
<linearGradient id="paint27_linear_116_427" x1="1024.13" y1="99.5075" x2="1094.82" y2="655.77" gradientUnits="userSpaceOnUse">
<stop stop-color="#979797"/>
<stop offset="1" stop-color="#979797" stop-opacity="0"/>
</linearGradient>
<linearGradient id="paint28_linear_116_427" x1="1040.35" y1="97.4455" x2="1111.05" y2="653.708" gradientUnits="userSpaceOnUse">
<stop stop-color="#979797"/>
<stop offset="1" stop-color="#979797" stop-opacity="0"/>
</linearGradient>
<linearGradient id="paint29_linear_116_427" x1="1056.58" y1="95.3825" x2="1127.28" y2="651.645" gradientUnits="userSpaceOnUse">
<stop stop-color="#979797"/>
<stop offset="1" stop-color="#979797" stop-opacity="0"/>
</linearGradient>
<linearGradient id="paint30_linear_116_427" x1="1072.81" y1="93.32" x2="1143.51" y2="649.582" gradientUnits="userSpaceOnUse">
<stop stop-color="#979797"/>
<stop offset="1" stop-color="#979797" stop-opacity="0"/>
</linearGradient>
<linearGradient id="paint31_linear_116_427" x1="1089.04" y1="91.258" x2="1159.74" y2="647.52" gradientUnits="userSpaceOnUse">
<stop stop-color="#979797"/>
<stop offset="1" stop-color="#979797" stop-opacity="0"/>
</linearGradient>
<linearGradient id="paint32_linear_116_427" x1="1105.27" y1="89.195" x2="1175.96" y2="645.457" gradientUnits="userSpaceOnUse">
<stop stop-color="#979797"/>
<stop offset="1" stop-color="#979797" stop-opacity="0"/>
</linearGradient>
<linearGradient id="paint33_linear_116_427" x1="1121.5" y1="87.133" x2="1192.19" y2="643.395" gradientUnits="userSpaceOnUse">
<stop stop-color="#979797"/>
<stop offset="1" stop-color="#979797" stop-opacity="0"/>
</linearGradient>
<linearGradient id="paint34_linear_116_427" x1="1137.73" y1="85.0705" x2="1208.42" y2="641.333" gradientUnits="userSpaceOnUse">
<stop stop-color="#979797"/>
<stop offset="1" stop-color="#979797" stop-opacity="0"/>
</linearGradient>
<linearGradient id="paint35_linear_116_427" x1="1153.96" y1="83.0075" x2="1224.65" y2="639.27" gradientUnits="userSpaceOnUse">
<stop stop-color="#979797"/>
<stop offset="1" stop-color="#979797" stop-opacity="0"/>
</linearGradient>
<linearGradient id="paint36_linear_116_427" x1="1170.19" y1="80.9455" x2="1240.88" y2="637.208" gradientUnits="userSpaceOnUse">
<stop stop-color="#979797"/>
<stop offset="1" stop-color="#979797" stop-opacity="0"/>
</linearGradient>
<linearGradient id="paint37_linear_116_427" x1="1186.42" y1="78.883" x2="1257.11" y2="635.145" gradientUnits="userSpaceOnUse">
<stop stop-color="#979797"/>
<stop offset="1" stop-color="#979797" stop-opacity="0"/>
</linearGradient>
<linearGradient id="paint38_linear_116_427" x1="1202.65" y1="76.82" x2="1273.34" y2="633.082" gradientUnits="userSpaceOnUse">
<stop stop-color="#979797"/>
<stop offset="1" stop-color="#979797" stop-opacity="0"/>
</linearGradient>
<linearGradient id="paint39_linear_116_427" x1="1218.88" y1="74.758" x2="1289.57" y2="631.02" gradientUnits="userSpaceOnUse">
<stop stop-color="#979797"/>
<stop offset="1" stop-color="#979797" stop-opacity="0"/>
</linearGradient>
<linearGradient id="paint40_linear_116_427" x1="1235.11" y1="72.6955" x2="1305.8" y2="628.958" gradientUnits="userSpaceOnUse">
<stop stop-color="#979797"/>
<stop offset="1" stop-color="#979797" stop-opacity="0"/>
</linearGradient>
<linearGradient id="paint41_linear_116_427" x1="1251.34" y1="70.6325" x2="1322.03" y2="626.895" gradientUnits="userSpaceOnUse">
<stop stop-color="#979797"/>
<stop offset="1" stop-color="#979797" stop-opacity="0"/>
</linearGradient>
<linearGradient id="paint42_linear_116_427" x1="1267.56" y1="68.5705" x2="1338.26" y2="624.833" gradientUnits="userSpaceOnUse">
<stop stop-color="#979797"/>
<stop offset="1" stop-color="#979797" stop-opacity="0"/>
</linearGradient>
<linearGradient id="paint43_linear_116_427" x1="1283.79" y1="66.5075" x2="1354.49" y2="622.77" gradientUnits="userSpaceOnUse">
<stop stop-color="#979797"/>
<stop offset="1" stop-color="#979797" stop-opacity="0"/>
</linearGradient>
<linearGradient id="paint44_linear_116_427" x1="1300.02" y1="64.445" x2="1370.72" y2="620.707" gradientUnits="userSpaceOnUse">
<stop stop-color="#979797"/>
<stop offset="1" stop-color="#979797" stop-opacity="0"/>
</linearGradient>
<linearGradient id="paint45_linear_116_427" x1="1316.25" y1="62.383" x2="1386.95" y2="618.645" gradientUnits="userSpaceOnUse">
<stop stop-color="#979797"/>
<stop offset="1" stop-color="#979797" stop-opacity="0"/>
</linearGradient>
<linearGradient id="paint46_linear_116_427" x1="1332.48" y1="60.3205" x2="1403.17" y2="616.583" gradientUnits="userSpaceOnUse">
<stop stop-color="#979797"/>
<stop offset="1" stop-color="#979797" stop-opacity="0"/>
</linearGradient>
<linearGradient id="paint47_linear_116_427" x1="1348.71" y1="58.2575" x2="1419.4" y2="614.52" gradientUnits="userSpaceOnUse">
<stop stop-color="#979797"/>
<stop offset="1" stop-color="#979797" stop-opacity="0"/>
</linearGradient>
<linearGradient id="paint48_linear_116_427" x1="1364.94" y1="56.1955" x2="1435.63" y2="612.458" gradientUnits="userSpaceOnUse">
<stop stop-color="#979797"/>
<stop offset="1" stop-color="#979797" stop-opacity="0"/>
</linearGradient>
<linearGradient id="paint49_linear_116_427" x1="1381.17" y1="54.1325" x2="1451.86" y2="610.395" gradientUnits="userSpaceOnUse">
<stop stop-color="#979797"/>
<stop offset="1" stop-color="#979797" stop-opacity="0"/>
</linearGradient>
<clipPath id="clip0_116_427">
<rect width="1789" height="679" fill="white" transform="translate(0 0.998047)"/>
</clipPath>
</defs>
</svg>
