<svg width="1920" height="751" viewBox="0 0 1920 751" fill="none" xmlns="http://www.w3.org/2000/svg">
<g clip-path="url(#clip0_158_269)">
<path d="M596.289 748.363C596.289 748.363 943.922 783.65 1203.42 531.186C1462.93 278.722 1771.41 290.368 1911.29 333.719C2051.17 377.069 2612.24 449.135 2845.94 330.59C3079.63 212.045 3188.49 129.809 3188.49 129.809" stroke="url(#paint0_linear_158_269)" stroke-width="2"/>
<path d="M570.548 745.654C570.548 745.654 918.181 780.941 1177.68 528.477C1437.19 276.012 1745.67 287.659 1885.55 331.01C2025.43 374.36 2586.5 446.426 2820.2 327.881C3053.89 209.336 3162.75 127.1 3162.75 127.1" stroke="url(#paint1_linear_158_269)" stroke-width="2"/>
<path d="M544.807 742.945C544.807 742.945 892.441 778.232 1151.94 525.768C1411.44 273.303 1719.92 284.95 1859.8 328.301C1999.69 371.651 2560.76 443.717 2794.46 325.172C3028.15 206.627 3137.01 124.391 3137.01 124.391" stroke="url(#paint2_linear_158_269)" stroke-width="2"/>
<path d="M519.067 740.236C519.067 740.236 866.7 775.522 1126.2 523.058C1385.7 270.594 1694.18 282.241 1834.06 325.591C1973.94 368.942 2535.02 441.008 2768.72 322.463C3002.41 203.917 3111.27 121.682 3111.27 121.682" stroke="url(#paint3_linear_158_269)" stroke-width="2"/>
<path d="M493.326 737.526C493.326 737.526 840.96 772.813 1100.46 520.349C1359.96 267.885 1668.44 279.531 1808.32 322.882C1948.2 366.233 2509.28 438.298 2742.98 319.753C2976.67 201.208 3085.53 118.972 3085.53 118.972" stroke="url(#paint4_linear_158_269)" stroke-width="2"/>
<path d="M467.586 734.817C467.586 734.817 815.219 770.104 1074.72 517.64C1334.22 265.176 1642.7 276.822 1782.58 320.173C1922.46 363.524 2483.54 435.589 2717.24 317.044C2950.93 198.499 3059.79 116.263 3059.79 116.263" stroke="url(#paint5_linear_158_269)" stroke-width="2"/>
<path d="M441.845 732.108C441.845 732.108 789.479 767.395 1048.98 514.931C1308.48 262.466 1616.96 274.113 1756.84 317.464C1896.72 360.814 2457.8 432.88 2691.5 314.335C2925.19 195.79 3034.05 113.554 3034.05 113.554" stroke="url(#paint6_linear_158_269)" stroke-width="2"/>
<path d="M416.104 729.399C416.104 729.399 763.738 764.686 1023.24 512.221C1282.74 259.757 1591.22 271.404 1731.1 314.755C1870.98 358.105 2432.06 430.171 2665.75 311.626C2899.45 193.08 3008.3 110.845 3008.3 110.845" stroke="url(#paint7_linear_158_269)" stroke-width="2"/>
<path d="M390.364 726.69C390.364 726.69 737.997 761.977 997.499 509.512C1257 257.048 1565.48 268.695 1705.36 312.046C1845.24 355.396 2406.32 427.462 2640.01 308.917C2873.71 190.371 2982.56 108.136 2982.56 108.136" stroke="url(#paint8_linear_158_269)" stroke-width="2"/>
<path d="M364.623 723.98C364.623 723.98 712.257 759.267 971.759 506.803C1231.26 254.339 1539.74 265.986 1679.62 309.336C1819.5 352.687 2380.58 424.753 2614.27 306.207C2847.97 187.662 2956.82 105.426 2956.82 105.426" stroke="url(#paint9_linear_158_269)" stroke-width="2"/>
<path d="M338.883 721.271C338.883 721.271 686.516 756.558 946.018 504.094C1205.52 251.63 1514 263.277 1653.88 306.627C1793.76 349.978 2354.84 422.044 2588.53 303.498C2822.23 184.953 2931.08 102.717 2931.08 102.717" stroke="url(#paint10_linear_158_269)" stroke-width="2"/>
<path d="M313.142 718.562C313.142 718.562 660.776 753.849 920.278 501.385C1179.78 248.921 1488.26 260.568 1628.14 303.918C1768.02 347.269 2329.1 419.334 2562.79 300.789C2796.49 182.244 2905.34 100.008 2905.34 100.008" stroke="url(#paint11_linear_158_269)" stroke-width="2"/>
<path d="M287.402 715.853C287.402 715.853 635.035 751.14 894.537 498.675C1154.04 246.211 1462.52 257.858 1602.4 301.209C1742.28 344.559 2303.36 416.625 2537.05 298.08C2770.75 179.535 2879.6 97.2988 2879.6 97.2988" stroke="url(#paint12_linear_158_269)" stroke-width="2"/>
<path d="M261.661 713.144C261.661 713.144 609.294 748.431 868.796 495.966C1128.3 243.502 1436.78 255.149 1576.66 298.5C1716.54 341.85 2277.62 413.916 2511.31 295.371C2745.01 176.826 2853.86 94.5898 2853.86 94.5898" stroke="url(#paint13_linear_158_269)" stroke-width="2"/>
<path d="M235.92 710.435C235.92 710.435 583.554 745.721 843.056 493.257C1102.56 240.793 1411.04 252.44 1550.92 295.79C1690.8 339.141 2251.88 411.207 2485.57 292.662C2719.27 174.116 2828.12 91.8806 2828.12 91.8806" stroke="url(#paint14_linear_158_269)" stroke-width="2"/>
<path d="M210.18 707.725C210.18 707.725 557.813 743.012 817.315 490.548C1076.82 238.084 1385.3 249.731 1525.18 293.081C1665.06 336.432 2226.13 408.498 2459.83 289.952C2693.53 171.407 2802.38 89.1714 2802.38 89.1714" stroke="url(#paint15_linear_158_269)" stroke-width="2"/>
<path d="M184.439 705.016C184.439 705.016 532.073 740.303 791.574 487.839C1051.08 235.375 1359.56 247.022 1499.44 290.372C1639.32 333.723 2200.39 405.789 2434.09 287.243C2667.78 168.698 2776.64 86.4624 2776.64 86.4624" stroke="url(#paint16_linear_158_269)" stroke-width="2"/>
<path d="M158.699 702.307C158.699 702.307 506.332 737.594 765.834 485.13C1025.34 232.666 1333.82 244.312 1473.7 287.663C1613.58 331.014 2174.65 403.079 2408.35 284.534C2642.04 165.989 2750.9 83.7531 2750.9 83.7531" stroke="url(#paint17_linear_158_269)" stroke-width="2"/>
<path d="M132.958 699.598C132.958 699.598 480.592 734.885 740.093 482.421C999.595 229.956 1308.08 241.603 1447.96 284.954C1587.84 328.304 2148.91 400.37 2382.61 281.825C2616.3 163.28 2725.16 81.0439 2725.16 81.0439" stroke="url(#paint18_linear_158_269)" stroke-width="2"/>
<path d="M107.218 696.889C107.218 696.889 454.851 732.176 714.353 479.712C973.855 227.247 1282.33 238.894 1422.22 282.245C1562.1 325.595 2123.17 397.661 2356.87 279.116C2590.56 160.571 2699.42 78.3349 2699.42 78.3349" stroke="url(#paint19_linear_158_269)" stroke-width="2"/>
<path d="M81.4771 694.179C81.4771 694.179 429.11 729.466 688.612 477.002C948.114 224.538 1256.59 236.185 1396.47 279.535C1536.35 322.886 2097.43 394.952 2331.13 276.406C2564.82 157.861 2673.68 75.6255 2673.68 75.6255" stroke="url(#paint20_linear_158_269)" stroke-width="2"/>
<path d="M55.7363 691.47C55.7363 691.47 403.37 726.757 662.872 474.293C922.373 221.829 1230.85 233.475 1370.73 276.826C1510.61 320.177 2071.69 392.242 2305.39 273.697C2539.08 155.152 2647.94 72.9162 2647.94 72.9162" stroke="url(#paint21_linear_158_269)" stroke-width="2"/>
<path d="M29.9958 688.761C29.9958 688.761 377.629 724.048 637.131 471.584C896.633 219.12 1205.11 230.767 1344.99 274.117C1484.87 317.468 2045.95 389.533 2279.65 270.988C2513.34 152.443 2622.2 70.2072 2622.2 70.2072" stroke="url(#paint22_linear_158_269)" stroke-width="2"/>
<path d="M4.25513 686.052C4.25513 686.052 351.888 721.339 611.39 468.875C870.892 216.411 1179.37 228.057 1319.25 271.408C1459.13 314.758 2020.21 386.824 2253.91 268.279C2487.6 149.734 2596.46 67.498 2596.46 67.498" stroke="url(#paint23_linear_158_269)" stroke-width="2"/>
<path d="M-21.4854 683.343C-21.4854 683.343 326.148 718.63 585.65 466.165C845.152 213.701 1153.63 225.348 1293.51 268.699C1433.39 312.049 1994.47 384.115 2228.16 265.57C2461.86 147.025 2570.71 64.7888 2570.71 64.7888" stroke="url(#paint24_linear_158_269)" stroke-width="2"/>
<path d="M-47.2261 680.634C-47.2261 680.634 300.407 715.921 559.909 463.456C819.411 210.992 1127.89 222.639 1267.77 265.99C1407.65 309.34 1968.73 381.406 2202.42 262.861C2436.12 144.316 2544.97 62.0798 2544.97 62.0798" stroke="url(#paint25_linear_158_269)" stroke-width="2"/>
<path d="M-72.9666 677.925C-72.9666 677.925 274.667 713.211 534.169 460.747C793.671 208.283 1102.15 219.93 1242.03 263.28C1381.91 306.631 1942.99 378.697 2176.68 260.152C2410.38 141.606 2519.23 59.3706 2519.23 59.3706" stroke="url(#paint26_linear_158_269)" stroke-width="2"/>
<path d="M-98.707 675.215C-98.707 675.215 248.926 710.502 508.428 458.038C767.93 205.574 1076.41 217.22 1216.29 260.571C1356.17 303.922 1917.25 375.987 2150.94 257.442C2384.64 138.897 2493.49 56.6611 2493.49 56.6611" stroke="url(#paint27_linear_158_269)" stroke-width="2"/>
<path d="M-124.448 672.506C-124.448 672.506 223.186 707.793 482.687 455.329C742.189 202.865 1050.67 214.511 1190.55 257.862C1330.43 301.213 1891.51 373.278 2125.2 254.733C2358.9 136.188 2467.75 53.9521 2467.75 53.9521" stroke="url(#paint28_linear_158_269)" stroke-width="2"/>
<path d="M-150.188 669.797C-150.188 669.797 197.445 705.084 456.947 452.62C716.449 200.155 1024.93 211.802 1164.81 255.153C1304.69 298.503 1865.77 370.569 2099.46 252.024C2333.16 133.479 2442.01 51.2429 2442.01 51.2429" stroke="url(#paint29_linear_158_269)" stroke-width="2"/>
<path d="M-175.929 667.088C-175.929 667.088 171.704 702.374 431.206 449.91C690.708 197.446 999.188 209.093 1139.07 252.443C1278.95 295.794 1840.03 367.86 2073.72 249.315C2307.42 130.769 2416.27 48.5337 2416.27 48.5337" stroke="url(#paint30_linear_158_269)" stroke-width="2"/>
<path d="M-201.669 664.379C-201.669 664.379 145.964 699.666 405.466 447.201C664.968 194.737 973.448 206.384 1113.33 249.735C1253.21 293.085 1814.29 365.151 2047.98 246.606C2281.68 128.06 2390.53 45.8247 2390.53 45.8247" stroke="url(#paint31_linear_158_269)" stroke-width="2"/>
<path d="M-227.41 661.669C-227.41 661.669 120.223 696.956 379.725 444.492C639.227 192.028 947.707 203.675 1087.59 247.025C1227.47 290.376 1788.54 362.442 2022.24 243.896C2255.94 125.351 2364.79 43.1154 2364.79 43.1154" stroke="url(#paint32_linear_158_269)" stroke-width="2"/>
<path d="M-253.151 658.96C-253.151 658.96 94.4827 694.247 353.985 441.783C613.486 189.319 921.967 200.965 1061.85 244.316C1201.73 287.667 1762.8 359.732 1996.5 241.187C2230.2 122.642 2339.05 40.4062 2339.05 40.4062" stroke="url(#paint33_linear_158_269)" stroke-width="2"/>
<path d="M-278.891 656.251C-278.891 656.251 68.7421 691.538 328.244 439.074C587.746 186.61 896.226 198.256 1036.11 241.607C1175.99 284.958 1737.06 357.023 1970.76 238.478C2204.45 119.933 2313.31 37.6972 2313.31 37.6972" stroke="url(#paint34_linear_158_269)" stroke-width="2"/>
<path d="M-304.632 653.542C-304.632 653.542 43.0015 688.829 302.503 436.364C562.005 183.9 870.486 195.547 1010.37 238.898C1150.25 282.248 1711.32 354.314 1945.02 235.769C2178.71 117.224 2287.57 34.9878 2287.57 34.9878" stroke="url(#paint35_linear_158_269)" stroke-width="2"/>
<path d="M-330.372 650.833C-330.372 650.833 17.2609 686.12 276.763 433.655C536.265 181.191 844.745 192.838 984.625 236.189C1124.51 279.539 1685.58 351.605 1919.28 233.06C2152.97 114.515 2261.83 32.2788 2261.83 32.2788" stroke="url(#paint36_linear_158_269)" stroke-width="2"/>
<path d="M-356.113 648.124C-356.113 648.124 -8.47968 683.41 251.022 430.946C510.524 178.482 819.004 190.129 958.885 233.479C1098.76 276.83 1659.84 348.896 1893.54 230.351C2127.23 111.805 2236.09 29.5695 2236.09 29.5695" stroke="url(#paint37_linear_158_269)" stroke-width="2"/>
<path d="M-381.854 645.414C-381.854 645.414 -34.2203 680.701 225.282 428.237C484.783 175.773 793.264 187.42 933.144 230.77C1073.02 274.121 1634.1 346.187 1867.8 227.641C2101.49 109.096 2210.35 26.8603 2210.35 26.8603" stroke="url(#paint38_linear_158_269)" stroke-width="2"/>
<path d="M-407.594 642.705C-407.594 642.705 -59.9608 677.992 199.541 425.528C459.043 173.064 767.523 184.711 907.403 228.061C1047.28 271.412 1608.36 343.478 1842.06 224.932C2075.75 106.387 2184.61 24.1513 2184.61 24.1513" stroke="url(#paint39_linear_158_269)" stroke-width="2"/>
<path d="M-433.335 639.996C-433.335 639.996 -85.7014 675.283 173.801 422.819C433.302 170.355 741.783 182.001 881.663 225.352C1021.54 268.703 1582.62 340.768 1816.32 222.223C2050.01 103.678 2158.87 21.4421 2158.87 21.4421" stroke="url(#paint40_linear_158_269)" stroke-width="2"/>
<path d="M-459.075 637.287C-459.075 637.287 -111.442 672.574 148.06 420.11C407.562 167.645 716.042 179.292 855.922 222.643C995.802 265.993 1556.88 338.059 1790.58 219.514C2024.27 100.969 2133.12 18.7329 2133.12 18.7329" stroke="url(#paint41_linear_158_269)" stroke-width="2"/>
<path d="M-484.816 634.578C-484.816 634.578 -137.183 669.865 122.319 417.401C381.821 164.936 690.301 176.583 830.182 219.934C970.062 263.284 1531.14 335.35 1764.83 216.805C1998.53 98.2597 2107.38 16.0239 2107.38 16.0239" stroke="url(#paint42_linear_158_269)" stroke-width="2"/>
<path d="M-510.557 631.868C-510.557 631.868 -162.923 667.155 96.5787 414.691C356.081 162.227 664.561 173.874 804.441 217.224C944.321 260.575 1505.4 332.641 1739.09 214.095C1972.79 95.5502 2081.64 13.3144 2081.64 13.3144" stroke="url(#paint43_linear_158_269)" stroke-width="2"/>
<path d="M-536.297 629.159C-536.297 629.159 -188.664 664.446 70.8381 411.982C330.34 159.518 638.82 171.164 778.7 214.515C918.581 257.866 1479.66 329.931 1713.35 211.386C1947.05 92.841 2055.9 10.6052 2055.9 10.6052" stroke="url(#paint44_linear_158_269)" stroke-width="2"/>
<path d="M-562.038 626.45C-562.038 626.45 -214.404 661.737 45.0975 409.273C304.599 156.809 613.08 168.455 752.96 211.806C892.84 255.157 1453.92 327.222 1687.61 208.677C1921.31 90.132 2030.16 7.8962 2030.16 7.8962" stroke="url(#paint45_linear_158_269)" stroke-width="2"/>
<path d="M-587.778 623.741C-587.778 623.741 -240.145 659.028 19.357 406.564C278.859 154.1 587.339 165.746 727.219 209.097C867.1 252.447 1428.18 324.513 1661.87 205.968C1895.57 87.4228 2004.42 5.18698 2004.42 5.18698" stroke="url(#paint46_linear_158_269)" stroke-width="2"/>
<path d="M-613.519 621.032C-613.519 621.032 -265.885 656.319 -6.38356 403.854C253.118 151.39 561.599 163.037 701.479 206.388C841.359 249.738 1402.44 321.804 1636.13 203.259C1869.83 84.7135 1978.68 2.47775 1978.68 2.47775" stroke="url(#paint47_linear_158_269)" stroke-width="2"/>
<path d="M-639.259 618.323C-639.259 618.323 -291.626 653.61 -32.1242 401.145C227.378 148.681 535.858 160.328 675.738 203.679C815.618 247.029 1376.7 319.095 1610.39 200.55C1844.09 82.0045 1952.94 -0.231237 1952.94 -0.231237" stroke="url(#paint48_linear_158_269)" stroke-width="2"/>
<path d="M-665 615.613C-665 615.613 -317.367 650.9 -57.8648 398.436C201.637 145.972 510.117 157.619 649.998 200.969C789.878 244.32 1350.95 316.385 1584.65 197.84C1818.35 79.2951 1927.2 -2.94071 1927.2 -2.94071" stroke="url(#paint49_linear_158_269)" stroke-width="2"/>
</g>
<defs>
<linearGradient id="paint0_linear_158_269" x1="1845.99" y1="879.894" x2="1938.78" y2="-1.72151" gradientUnits="userSpaceOnUse">
<stop stop-color="#060606"/>
<stop offset="1" stop-color="#343434"/>
</linearGradient>
<linearGradient id="paint1_linear_158_269" x1="1820.25" y1="877.184" x2="1913.04" y2="-4.43074" gradientUnits="userSpaceOnUse">
<stop stop-color="#060606"/>
<stop offset="1" stop-color="#343434"/>
</linearGradient>
<linearGradient id="paint2_linear_158_269" x1="1794.51" y1="874.475" x2="1887.3" y2="-7.13973" gradientUnits="userSpaceOnUse">
<stop stop-color="#060606"/>
<stop offset="1" stop-color="#343434"/>
</linearGradient>
<linearGradient id="paint3_linear_158_269" x1="1768.77" y1="871.766" x2="1861.56" y2="-9.84896" gradientUnits="userSpaceOnUse">
<stop stop-color="#060606"/>
<stop offset="1" stop-color="#343434"/>
</linearGradient>
<linearGradient id="paint4_linear_158_269" x1="1743.03" y1="869.057" x2="1835.82" y2="-12.5584" gradientUnits="userSpaceOnUse">
<stop stop-color="#060606"/>
<stop offset="1" stop-color="#343434"/>
</linearGradient>
<linearGradient id="paint5_linear_158_269" x1="1717.29" y1="866.348" x2="1810.08" y2="-15.2674" gradientUnits="userSpaceOnUse">
<stop stop-color="#060606"/>
<stop offset="1" stop-color="#343434"/>
</linearGradient>
<linearGradient id="paint6_linear_158_269" x1="1691.55" y1="863.638" x2="1784.34" y2="-17.9766" gradientUnits="userSpaceOnUse">
<stop stop-color="#060606"/>
<stop offset="1" stop-color="#343434"/>
</linearGradient>
<linearGradient id="paint7_linear_158_269" x1="1665.81" y1="860.929" x2="1758.6" y2="-20.6859" gradientUnits="userSpaceOnUse">
<stop stop-color="#060606"/>
<stop offset="1" stop-color="#343434"/>
</linearGradient>
<linearGradient id="paint8_linear_158_269" x1="1640.07" y1="858.22" x2="1732.86" y2="-23.3949" gradientUnits="userSpaceOnUse">
<stop stop-color="#060606"/>
<stop offset="1" stop-color="#343434"/>
</linearGradient>
<linearGradient id="paint9_linear_158_269" x1="1614.33" y1="855.511" x2="1707.12" y2="-26.1041" gradientUnits="userSpaceOnUse">
<stop stop-color="#060606"/>
<stop offset="1" stop-color="#343434"/>
</linearGradient>
<linearGradient id="paint10_linear_158_269" x1="1588.59" y1="852.802" x2="1681.38" y2="-28.8131" gradientUnits="userSpaceOnUse">
<stop stop-color="#060606"/>
<stop offset="1" stop-color="#343434"/>
</linearGradient>
<linearGradient id="paint11_linear_158_269" x1="1562.85" y1="850.093" x2="1655.64" y2="-31.5223" gradientUnits="userSpaceOnUse">
<stop stop-color="#060606"/>
<stop offset="1" stop-color="#343434"/>
</linearGradient>
<linearGradient id="paint12_linear_158_269" x1="1537.11" y1="847.383" x2="1629.9" y2="-34.2318" gradientUnits="userSpaceOnUse">
<stop stop-color="#060606"/>
<stop offset="1" stop-color="#343434"/>
</linearGradient>
<linearGradient id="paint13_linear_158_269" x1="1511.37" y1="844.674" x2="1604.16" y2="-36.9408" gradientUnits="userSpaceOnUse">
<stop stop-color="#060606"/>
<stop offset="1" stop-color="#343434"/>
</linearGradient>
<linearGradient id="paint14_linear_158_269" x1="1485.63" y1="841.965" x2="1578.42" y2="-39.65" gradientUnits="userSpaceOnUse">
<stop stop-color="#060606"/>
<stop offset="1" stop-color="#343434"/>
</linearGradient>
<linearGradient id="paint15_linear_158_269" x1="1459.89" y1="839.256" x2="1552.67" y2="-42.3592" gradientUnits="userSpaceOnUse">
<stop stop-color="#060606"/>
<stop offset="1" stop-color="#343434"/>
</linearGradient>
<linearGradient id="paint16_linear_158_269" x1="1434.14" y1="836.547" x2="1526.93" y2="-45.0682" gradientUnits="userSpaceOnUse">
<stop stop-color="#060606"/>
<stop offset="1" stop-color="#343434"/>
</linearGradient>
<linearGradient id="paint17_linear_158_269" x1="1408.4" y1="833.838" x2="1501.19" y2="-47.7774" gradientUnits="userSpaceOnUse">
<stop stop-color="#060606"/>
<stop offset="1" stop-color="#343434"/>
</linearGradient>
<linearGradient id="paint18_linear_158_269" x1="1382.66" y1="831.128" x2="1475.45" y2="-50.4867" gradientUnits="userSpaceOnUse">
<stop stop-color="#060606"/>
<stop offset="1" stop-color="#343434"/>
</linearGradient>
<linearGradient id="paint19_linear_158_269" x1="1356.92" y1="828.419" x2="1449.71" y2="-53.1956" gradientUnits="userSpaceOnUse">
<stop stop-color="#060606"/>
<stop offset="1" stop-color="#343434"/>
</linearGradient>
<linearGradient id="paint20_linear_158_269" x1="1331.18" y1="825.71" x2="1423.97" y2="-55.9051" gradientUnits="userSpaceOnUse">
<stop stop-color="#060606"/>
<stop offset="1" stop-color="#343434"/>
</linearGradient>
<linearGradient id="paint21_linear_158_269" x1="1305.44" y1="823.001" x2="1398.23" y2="-58.6143" gradientUnits="userSpaceOnUse">
<stop stop-color="#060606"/>
<stop offset="1" stop-color="#343434"/>
</linearGradient>
<linearGradient id="paint22_linear_158_269" x1="1279.7" y1="820.292" x2="1372.49" y2="-61.3233" gradientUnits="userSpaceOnUse">
<stop stop-color="#060606"/>
<stop offset="1" stop-color="#343434"/>
</linearGradient>
<linearGradient id="paint23_linear_158_269" x1="1253.96" y1="817.583" x2="1346.75" y2="-64.0325" gradientUnits="userSpaceOnUse">
<stop stop-color="#060606"/>
<stop offset="1" stop-color="#343434"/>
</linearGradient>
<linearGradient id="paint24_linear_158_269" x1="1228.22" y1="814.873" x2="1321.01" y2="-66.7418" gradientUnits="userSpaceOnUse">
<stop stop-color="#060606"/>
<stop offset="1" stop-color="#343434"/>
</linearGradient>
<linearGradient id="paint25_linear_158_269" x1="1202.48" y1="812.164" x2="1295.27" y2="-69.4508" gradientUnits="userSpaceOnUse">
<stop stop-color="#060606"/>
<stop offset="1" stop-color="#343434"/>
</linearGradient>
<linearGradient id="paint26_linear_158_269" x1="1176.74" y1="809.455" x2="1269.53" y2="-72.16" gradientUnits="userSpaceOnUse">
<stop stop-color="#060606"/>
<stop offset="1" stop-color="#343434"/>
</linearGradient>
<linearGradient id="paint27_linear_158_269" x1="1151" y1="806.746" x2="1243.79" y2="-74.8695" gradientUnits="userSpaceOnUse">
<stop stop-color="#060606"/>
<stop offset="1" stop-color="#343434"/>
</linearGradient>
<linearGradient id="paint28_linear_158_269" x1="1125.26" y1="804.037" x2="1218.05" y2="-77.5784" gradientUnits="userSpaceOnUse">
<stop stop-color="#060606"/>
<stop offset="1" stop-color="#343434"/>
</linearGradient>
<linearGradient id="paint29_linear_158_269" x1="1099.52" y1="801.327" x2="1192.31" y2="-80.2877" gradientUnits="userSpaceOnUse">
<stop stop-color="#060606"/>
<stop offset="1" stop-color="#343434"/>
</linearGradient>
<linearGradient id="paint30_linear_158_269" x1="1073.78" y1="798.618" x2="1166.57" y2="-82.9969" gradientUnits="userSpaceOnUse">
<stop stop-color="#060606"/>
<stop offset="1" stop-color="#343434"/>
</linearGradient>
<linearGradient id="paint31_linear_158_269" x1="1048.04" y1="795.909" x2="1140.83" y2="-85.7059" gradientUnits="userSpaceOnUse">
<stop stop-color="#060606"/>
<stop offset="1" stop-color="#343434"/>
</linearGradient>
<linearGradient id="paint32_linear_158_269" x1="1022.3" y1="793.2" x2="1115.08" y2="-88.4151" gradientUnits="userSpaceOnUse">
<stop stop-color="#060606"/>
<stop offset="1" stop-color="#343434"/>
</linearGradient>
<linearGradient id="paint33_linear_158_269" x1="996.555" y1="790.491" x2="1089.34" y2="-91.1243" gradientUnits="userSpaceOnUse">
<stop stop-color="#060606"/>
<stop offset="1" stop-color="#343434"/>
</linearGradient>
<linearGradient id="paint34_linear_158_269" x1="970.814" y1="787.782" x2="1063.6" y2="-93.8333" gradientUnits="userSpaceOnUse">
<stop stop-color="#060606"/>
<stop offset="1" stop-color="#343434"/>
</linearGradient>
<linearGradient id="paint35_linear_158_269" x1="945.074" y1="785.072" x2="1037.86" y2="-96.5428" gradientUnits="userSpaceOnUse">
<stop stop-color="#060606"/>
<stop offset="1" stop-color="#343434"/>
</linearGradient>
<linearGradient id="paint36_linear_158_269" x1="919.333" y1="782.363" x2="1012.12" y2="-99.2518" gradientUnits="userSpaceOnUse">
<stop stop-color="#060606"/>
<stop offset="1" stop-color="#343434"/>
</linearGradient>
<linearGradient id="paint37_linear_158_269" x1="893.592" y1="779.654" x2="986.382" y2="-101.961" gradientUnits="userSpaceOnUse">
<stop stop-color="#060606"/>
<stop offset="1" stop-color="#343434"/>
</linearGradient>
<linearGradient id="paint38_linear_158_269" x1="867.852" y1="776.945" x2="960.641" y2="-104.67" gradientUnits="userSpaceOnUse">
<stop stop-color="#060606"/>
<stop offset="1" stop-color="#343434"/>
</linearGradient>
<linearGradient id="paint39_linear_158_269" x1="842.111" y1="774.236" x2="934.901" y2="-107.379" gradientUnits="userSpaceOnUse">
<stop stop-color="#060606"/>
<stop offset="1" stop-color="#343434"/>
</linearGradient>
<linearGradient id="paint40_linear_158_269" x1="816.371" y1="771.527" x2="909.16" y2="-110.088" gradientUnits="userSpaceOnUse">
<stop stop-color="#060606"/>
<stop offset="1" stop-color="#343434"/>
</linearGradient>
<linearGradient id="paint41_linear_158_269" x1="790.63" y1="768.817" x2="883.419" y2="-112.798" gradientUnits="userSpaceOnUse">
<stop stop-color="#060606"/>
<stop offset="1" stop-color="#343434"/>
</linearGradient>
<linearGradient id="paint42_linear_158_269" x1="764.889" y1="766.108" x2="857.679" y2="-115.507" gradientUnits="userSpaceOnUse">
<stop stop-color="#060606"/>
<stop offset="1" stop-color="#343434"/>
</linearGradient>
<linearGradient id="paint43_linear_158_269" x1="739.149" y1="763.399" x2="831.938" y2="-118.216" gradientUnits="userSpaceOnUse">
<stop stop-color="#060606"/>
<stop offset="1" stop-color="#343434"/>
</linearGradient>
<linearGradient id="paint44_linear_158_269" x1="713.408" y1="760.69" x2="806.198" y2="-120.925" gradientUnits="userSpaceOnUse">
<stop stop-color="#060606"/>
<stop offset="1" stop-color="#343434"/>
</linearGradient>
<linearGradient id="paint45_linear_158_269" x1="687.668" y1="757.981" x2="780.457" y2="-123.634" gradientUnits="userSpaceOnUse">
<stop stop-color="#060606"/>
<stop offset="1" stop-color="#343434"/>
</linearGradient>
<linearGradient id="paint46_linear_158_269" x1="661.927" y1="755.271" x2="754.716" y2="-126.344" gradientUnits="userSpaceOnUse">
<stop stop-color="#060606"/>
<stop offset="1" stop-color="#343434"/>
</linearGradient>
<linearGradient id="paint47_linear_158_269" x1="636.187" y1="752.562" x2="728.976" y2="-129.053" gradientUnits="userSpaceOnUse">
<stop stop-color="#060606"/>
<stop offset="1" stop-color="#343434"/>
</linearGradient>
<linearGradient id="paint48_linear_158_269" x1="610.446" y1="749.853" x2="703.235" y2="-131.762" gradientUnits="userSpaceOnUse">
<stop stop-color="#060606"/>
<stop offset="1" stop-color="#343434"/>
</linearGradient>
<linearGradient id="paint49_linear_158_269" x1="584.705" y1="747.144" x2="677.495" y2="-134.471" gradientUnits="userSpaceOnUse">
<stop stop-color="#060606"/>
<stop offset="1" stop-color="#343434"/>
</linearGradient>
<clipPath id="clip0_158_269">
<rect width="1920" height="750" fill="white" transform="translate(0 0.998291)"/>
</clipPath>
</defs>
</svg>
