<?xml version="1.0" encoding="utf-8"?><svg viewBox="0 0 24 24" xmlns="http://www.w3.org/2000/svg" xmlns:xlink="http://www.w3.org/1999/xlink"><style>:root>svg{display:none}:root>svg:target{display:block}</style><svg fill="none" viewBox="0 0 24 24" id="call" xmlns="http://www.w3.org/2000/svg"><path d="M21.712 18l-3.9-2.55a1.8 1.8 0 00-2.437.488c-.863 1.087-1.988 2.887-6.075-1.2-4.088-4.088-2.325-5.213-1.238-6.113a1.8 1.8 0 00.488-2.438L6 2.288c-.338-.487-.787-1.274-1.838-1.124C3.112 1.313.375 2.85.375 6.225s2.663 7.5 6.3 11.138c3.638 3.637 7.763 6.262 11.1 6.262 3.338 0 4.95-3 5.063-3.75.112-.75-.638-1.538-1.126-1.875z" fill="#8C8C8C"/><path d="M23.4.6a.75.75 0 00-1.05 0l-7.725 7.725v-5.7a.75.75 0 10-1.5 0v8.25h8.25a.75.75 0 100-1.5h-5.7L23.4 1.65a.75.75 0 000-1.05z" fill="#8C8C8C"/></svg><svg fill="none" viewBox="0 0 24 24" id="call2" xmlns="http://www.w3.org/2000/svg"><path d="M18.622 15.273a1.923 1.923 0 00-2.603.52c-.961 1.161-2.123 3.083-6.488-1.28-4.365-4.365-2.483-5.566-1.321-6.526a1.922 1.922 0 00.52-2.603L6.007 1.221C5.647.701 5.166-.14 4.045.02 2.923.18 0 1.821 0 5.424c0 3.603 2.843 8.007 6.728 11.89C10.612 21.198 15.018 24 18.582 24s5.286-3.203 5.406-4.003c.12-.801-.68-1.602-1.201-1.962l-4.165-2.762z" fill="#8C8C8C"/></svg><svg fill="none" viewBox="0 0 24 10" id="nav-arrow" xmlns="http://www.w3.org/2000/svg"><path d="M16.759 10L24 5l-7.241-5v3.845H0V6l16.759.155V10z" fill="#AD9279"/></svg><svg fill="none" viewBox="0 0 24 24" id="telegram" xmlns="http://www.w3.org/2000/svg"><g clip-path="url(#dclip0_257_1865)"><path d="M9.417 15.181l-.397 5.584c.568 0 .814-.244 1.109-.537l2.663-2.545 5.518 4.041c1.012.564 1.725.267 1.998-.931L23.93 3.821l.001-.001c.321-1.496-.541-2.081-1.527-1.714l-21.29 8.151c-1.453.564-1.431 1.374-.247 1.741l5.443 1.693L18.953 5.78c.595-.394 1.136-.176.691.218L9.417 15.181z" fill="#8C8C8C"/></g><defs><clipPath id="dclip0_257_1865"><path fill="#fff" d="M0 0h24v24H0z"/></clipPath></defs></svg><svg fill="none" viewBox="0 0 24 24" id="viber" xmlns="http://www.w3.org/2000/svg"><g clip-path="url(#eclip0_257_1856)" fill="#8C8C8C"><path d="M23.155 13.893c.716-6.027-.344-9.832-2.256-11.553l.001-.001C17.814-.6 7.392-1.035 3.7 2.471 2.042 4.186 1.458 6.703 1.394 9.819c-.064 3.117-.14 8.956 5.301 10.54H6.7l-.005 2.419s-.037.98.589 1.177c.716.232 1.04-.223 3.267-2.883 3.724.323 6.584-.417 6.909-.525.752-.252 5.007-.815 5.695-6.654zM10.918 19.37s-2.357 2.939-3.09 3.702c-.24.248-.503.225-.499-.267 0-.323.018-4.016.018-4.016-4.613-1.322-4.341-6.294-4.291-8.895.05-2.602.526-4.733 1.93-6.168C8.225.689 17.362 1.368 19.69 3.556c2.846 2.523 1.833 9.651 1.839 9.894-.585 4.874-4.033 5.183-4.667 5.394-.271.09-2.786.737-5.944.526z"/><path d="M12.222 4.297c-.385 0-.385.6 0 .605 2.987.023 5.447 2.105 5.474 5.924 0 .403.59.398.585-.005h-.001c-.032-4.115-2.718-6.501-6.058-6.524z"/><path d="M16.151 10.193c-.009.398.58.417.585.014.049-2.269-1.35-4.138-3.979-4.335-.385-.028-.425.577-.041.605 2.28.173 3.481 1.729 3.435 3.716zM15.521 12.774c-.494-.286-.997-.108-1.205.173l-.435.563c-.221.286-.634.248-.634.248-3.014-.797-3.82-3.951-3.82-3.951s-.037-.427.239-.656l.544-.45c.272-.216.444-.736.167-1.247-.74-1.337-1.237-1.798-1.49-2.152-.266-.333-.666-.408-1.082-.183h-.009c-.865.506-1.812 1.453-1.509 2.428.517 1.028 1.467 4.305 4.495 6.781 1.423 1.171 3.675 2.371 4.631 2.648l.009.014c.942.314 1.858-.67 2.347-1.561v-.007c.217-.431.145-.839-.172-1.106-.562-.548-1.41-1.153-2.076-1.542z"/><path d="M13.169 8.104c.961.056 1.427.558 1.477 1.589.018.403.603.375.585-.028-.064-1.346-.766-2.096-2.03-2.166-.385-.023-.421.582-.032.605z"/></g><defs><clipPath id="eclip0_257_1856"><path fill="#fff" d="M0 0h24v24H0z"/></clipPath></defs></svg><svg fill="none" viewBox="0 0 24 24" id="whatsapp" xmlns="http://www.w3.org/2000/svg"><path d="M0 24l2.064-6.192a11.73 11.73 0 01-1.65-6.015C.414 5.28 5.694 0 12.207 0 18.72 0 24 5.28 24 11.793c0 6.513-5.28 11.793-11.793 11.793-1.982 0-3.848-.491-5.487-1.354L0 24z" fill="#8C8C8C"/><path d="M19.73 15.718c-.544-1.03-2.552-2.206-2.552-2.206-.454-.259-1.002-.288-1.262.174 0 0-.652.782-.818.895-.758.513-1.46.494-2.169-.215l-1.647-1.648-1.648-1.647c-.708-.709-.728-1.411-.215-2.169.113-.166.895-.819.895-.819.462-.259.433-.807.174-1.261 0 0-1.177-2.008-2.206-2.553a1.128 1.128 0 00-1.325.2l-.728.727c-2.307 2.308-1.171 4.913 1.137 7.22l2.109 2.11 2.109 2.109c2.307 2.308 4.913 3.444 7.22 1.136l.728-.727c.35-.351.43-.889.199-1.326z" fill="#262626"/></svg></svg>