<svg width="165" height="60" viewBox="0 0 165 60" fill="none" xmlns="http://www.w3.org/2000/svg">
<path d="M60.72 42.0005V36.4005H63.232C63.8773 36.4005 64.3653 36.5658 64.696 36.8965C64.9466 37.1472 65.072 37.4618 65.072 37.8405C65.072 38.3952 64.8053 38.8112 64.272 39.0885C65.0133 39.3392 65.384 39.7978 65.384 40.4645C65.384 40.9552 65.1973 41.3338 64.824 41.6005C64.4506 41.8672 63.9466 42.0005 63.312 42.0005H60.72ZM61.688 38.7605H63.032C63.3573 38.7605 63.6133 38.6965 63.8 38.5685C63.992 38.4352 64.088 38.2405 64.088 37.9845C64.088 37.7605 64.0026 37.5872 63.832 37.4645C63.6613 37.3365 63.4186 37.2725 63.104 37.2725H61.688V38.7605ZM61.688 41.1285H63.32C63.6613 41.1285 63.9253 41.0618 64.112 40.9285C64.304 40.7952 64.4 40.6005 64.4 40.3445C64.4 39.8432 64.016 39.5925 63.248 39.5925H61.688V41.1285Z" fill="#999999"/>
<path d="M66.4934 42.0005V36.4005H70.6454V37.2805H67.4774V38.7365H70.2854V39.6165H67.4774V41.1205H70.6854V42.0005H66.4934Z" fill="#999999"/>
<path d="M71.8528 42.0005V36.4005H76.0288V37.2885H72.8288V38.5765H74.3888C75.0128 38.5765 75.5061 38.7258 75.8688 39.0245C76.2368 39.3232 76.4208 39.7392 76.4208 40.2725C76.4208 40.8272 76.2368 41.2538 75.8688 41.5525C75.5008 41.8512 74.9914 42.0005 74.3408 42.0005H71.8528ZM72.8288 41.1205H74.1248C74.5728 41.1205 74.9035 41.0565 75.1168 40.9285C75.3301 40.7952 75.4368 40.5632 75.4368 40.2325C75.4368 39.6832 75.0581 39.4085 74.3008 39.4085H72.8288V41.1205Z" fill="#999999"/>
<path d="M77.2605 40.0245V39.0725H79.6285V40.0245H77.2605Z" fill="#999999"/>
<path d="M83.3981 42.0965C82.5874 42.0965 81.9101 41.8192 81.3661 41.2645C80.8221 40.7045 80.5501 40.0165 80.5501 39.2005C80.5501 38.3898 80.8221 37.7045 81.3661 37.1445C81.9101 36.5845 82.6008 36.3045 83.4381 36.3045C83.9234 36.3045 84.3341 36.3792 84.6701 36.5285C85.0114 36.6778 85.3314 36.8938 85.6301 37.1765L84.9981 37.9045C84.4968 37.4405 83.9741 37.2085 83.4301 37.2085C82.8968 37.2085 82.4541 37.4005 82.1021 37.7845C81.7554 38.1685 81.5821 38.6405 81.5821 39.2005C81.5821 39.7552 81.7581 40.2272 82.1101 40.6165C82.4621 41.0005 82.9021 41.1925 83.4301 41.1925C83.7501 41.1925 84.0328 41.1338 84.2781 41.0165C84.5234 40.8938 84.7768 40.7098 85.0381 40.4645L85.6701 41.1045C85.3554 41.4352 85.0221 41.6832 84.6701 41.8485C84.3181 42.0138 83.8941 42.0965 83.3981 42.0965Z" fill="#999999"/>
<path d="M86.2243 42.0005L88.6883 36.3605H89.6003L92.0643 42.0005H91.0243L90.4563 40.6485H87.8083L87.2323 42.0005H86.2243ZM88.1683 39.7765H90.0963L89.1283 37.5365L88.1683 39.7765Z" fill="#999999"/>
<path d="M96.2567 35.6645C96.0327 35.8618 95.7527 35.9605 95.4167 35.9605C95.0807 35.9605 94.8007 35.8618 94.5767 35.6645C94.3527 35.4618 94.2113 35.1872 94.1527 34.8405L94.7527 34.7285C94.854 35.0912 95.0753 35.2725 95.4167 35.2725C95.7473 35.2725 95.9687 35.0912 96.0807 34.7285L96.6727 34.8405C96.6193 35.1872 96.4807 35.4618 96.2567 35.6645ZM93.0247 42.0005V36.4005H93.9927V40.4885L96.8247 36.4005H97.7447V42.0005H96.7767V37.9205L93.9527 42.0005H93.0247Z" fill="#999999"/>
<path d="M100.573 42.0005V37.3125H98.7965V36.4005H103.341V37.3125H101.565V42.0005H100.573Z" fill="#999999"/>
<path d="M106.782 42.0005V36.4005H108.99C109.641 36.4005 110.158 36.5712 110.542 36.9125C110.926 37.2538 111.118 37.7125 111.118 38.2885C111.118 38.8912 110.905 39.3605 110.478 39.6965C110.057 40.0325 109.524 40.2005 108.878 40.2005H107.766V42.0005H106.782ZM107.766 39.3125H108.91C109.278 39.3125 109.572 39.2192 109.79 39.0325C110.009 38.8458 110.118 38.6005 110.118 38.2965C110.118 37.9765 110.009 37.7312 109.79 37.5605C109.577 37.3845 109.284 37.2965 108.91 37.2965H107.766V39.3125Z" fill="#999999"/>
<path d="M111.646 42.0005L114.11 36.3605H115.022L117.486 42.0005H116.446L115.878 40.6485H113.23L112.654 42.0005H111.646ZM113.59 39.7765H115.518L114.55 37.5365L113.59 39.7765Z" fill="#999999"/>
<path d="M120.351 36.3045C120.927 36.3045 121.399 36.4458 121.767 36.7285C122.135 37.0112 122.319 37.3712 122.319 37.8085C122.319 38.4112 122.001 38.8458 121.367 39.1125C121.703 39.2138 121.969 39.3765 122.167 39.6005C122.364 39.8245 122.463 40.1098 122.463 40.4565C122.463 40.9312 122.273 41.3232 121.895 41.6325C121.516 41.9418 121.02 42.0965 120.407 42.0965C119.879 42.0965 119.423 42.0218 119.039 41.8725C118.66 41.7178 118.308 41.4858 117.983 41.1765L118.519 40.4965C119.041 40.9925 119.663 41.2405 120.383 41.2405C120.692 41.2405 120.951 41.1658 121.159 41.0165C121.372 40.8618 121.479 40.6565 121.479 40.4005C121.479 40.1232 121.361 39.9178 121.127 39.7845C120.892 39.6512 120.583 39.5845 120.199 39.5845H119.567V38.7685H120.191C120.553 38.7685 120.836 38.6992 121.039 38.5605C121.241 38.4165 121.343 38.2138 121.343 37.9525C121.343 37.7178 121.244 37.5285 121.047 37.3845C120.855 37.2405 120.601 37.1685 120.287 37.1685C119.673 37.1685 119.151 37.3765 118.719 37.7925L118.191 37.1525C118.783 36.5872 119.503 36.3045 120.351 36.3045Z" fill="#999999"/>
<path d="M123.618 42.0005V36.4005H125.826C126.477 36.4005 126.994 36.5712 127.378 36.9125C127.762 37.2538 127.954 37.7125 127.954 38.2885C127.954 38.8912 127.741 39.3605 127.314 39.6965C126.893 40.0325 126.36 40.2005 125.714 40.2005H124.602V42.0005H123.618ZM124.602 39.3125H125.746C126.114 39.3125 126.408 39.2192 126.626 39.0325C126.845 38.8458 126.954 38.6005 126.954 38.2965C126.954 37.9765 126.845 37.7312 126.626 37.5605C126.413 37.3845 126.12 37.2965 125.746 37.2965H124.602V39.3125Z" fill="#999999"/>
<path d="M128.482 42.0005L130.946 36.3605H131.858L134.322 42.0005H133.282L132.714 40.6485H130.066L129.49 42.0005H128.482ZM130.426 39.7765H132.354L131.386 37.5365L130.426 39.7765Z" fill="#999999"/>
<path d="M135.282 42.0005V36.4005H139.458V37.2885H136.258V38.5765H137.818C138.442 38.5765 138.936 38.7258 139.298 39.0245C139.666 39.3232 139.85 39.7392 139.85 40.2725C139.85 40.8272 139.666 41.2538 139.298 41.5525C138.93 41.8512 138.421 42.0005 137.77 42.0005H135.282ZM136.258 41.1205H137.554C138.002 41.1205 138.333 41.0565 138.546 40.9285C138.76 40.7952 138.866 40.5632 138.866 40.2325C138.866 39.6832 138.488 39.4085 137.73 39.4085H136.258V41.1205Z" fill="#999999"/>
<path d="M145.738 41.2485C145.183 41.8138 144.482 42.0965 143.634 42.0965C142.786 42.0965 142.087 41.8165 141.538 41.2565C140.989 40.6965 140.714 40.0112 140.714 39.2005C140.714 38.4005 140.991 37.7178 141.546 37.1525C142.101 36.5872 142.802 36.3045 143.65 36.3045C144.498 36.3045 145.197 36.5845 145.746 37.1445C146.295 37.7045 146.57 38.3898 146.57 39.2005C146.57 40.0005 146.293 40.6832 145.738 41.2485ZM142.282 40.6165C142.645 41.0005 143.101 41.1925 143.65 41.1925C144.199 41.1925 144.65 41.0005 145.002 40.6165C145.359 40.2325 145.538 39.7605 145.538 39.2005C145.538 38.6458 145.357 38.1765 144.994 37.7925C144.637 37.4032 144.183 37.2085 143.634 37.2085C143.085 37.2085 142.631 37.4005 142.274 37.7845C141.922 38.1685 141.746 38.6405 141.746 39.2005C141.746 39.7552 141.925 40.2272 142.282 40.6165Z" fill="#999999"/>
<path d="M149.135 42.0005V37.3125H147.359V36.4005H151.903V37.3125H150.127V42.0005H149.135Z" fill="#999999"/>
<path d="M152.467 42.0005L154.931 36.3605H155.843L158.307 42.0005H157.267L156.699 40.6485H154.051L153.475 42.0005H152.467ZM154.411 39.7765H156.339L155.371 37.5365L154.411 39.7765Z" fill="#999999"/>
<path d="M159.267 42.0005V36.4005H160.251V38.7285H162.923V36.4005H163.907V42.0005H162.923V39.6405H160.251V42.0005H159.267Z" fill="#999999"/>
<path d="M66.123 31.2383C64.253 31.2383 62.706 30.6603 61.482 29.5043C60.258 28.337 59.646 26.8523 59.646 25.0503C59.646 23.305 60.2523 21.8373 61.465 20.6473C62.689 19.4573 64.219 18.8623 66.055 18.8623C67.9363 18.8623 69.5457 19.4403 70.883 20.5963L68.945 22.9253C68.0497 22.1773 67.092 21.8033 66.072 21.8033C65.2107 21.8033 64.4853 22.1206 63.896 22.7553C63.318 23.39 63.029 24.172 63.029 25.1013C63.029 26.0646 63.3293 26.858 63.93 27.4813C64.542 28.0933 65.3183 28.3993 66.259 28.3993C67.0297 28.3993 67.6643 28.235 68.163 27.9063V26.4613H65.817V24.0473H71.291V29.4023C69.8063 30.6263 68.0837 31.2383 66.123 31.2383Z" fill="white"/>
<path d="M73.1194 31.0003V19.1003H82.6904V21.9053H76.3834V23.7073H82.0954V26.3083H76.3834V28.1953H82.7754V31.0003H73.1194Z" fill="white"/>
<path d="M84.4583 31.0003V19.1003H87.7563V23.9283L91.8533 19.1003H95.7633L91.2583 24.2173L95.9163 31.0003H91.9553L88.9633 26.5803L87.7563 27.9233V31.0003H84.4583Z" fill="white"/>
<path d="M99.6172 31.0003V21.9903H96.0472V19.1003H106.485V21.9903H102.915V31.0003H99.6172Z" fill="white"/>
<path d="M117.975 29.4363C116.751 30.6376 115.227 31.2383 113.402 31.2383C111.578 31.2383 110.053 30.6433 108.829 29.4533C107.617 28.252 107.01 26.7843 107.01 25.0503C107.01 23.3276 107.622 21.8656 108.846 20.6643C110.082 19.463 111.612 18.8623 113.436 18.8623C115.261 18.8623 116.78 19.463 117.992 20.6643C119.216 21.8543 119.828 23.3163 119.828 25.0503C119.828 26.773 119.211 28.235 117.975 29.4363ZM113.436 28.2633C114.332 28.2633 115.057 27.9516 115.612 27.3283C116.179 26.705 116.462 25.9456 116.462 25.0503C116.462 24.1663 116.173 23.4126 115.595 22.7893C115.017 22.1546 114.286 21.8373 113.402 21.8373C112.518 21.8373 111.793 22.149 111.226 22.7723C110.671 23.3956 110.393 24.155 110.393 25.0503C110.393 25.9343 110.677 26.6936 111.243 27.3283C111.821 27.9516 112.552 28.2633 113.436 28.2633Z" fill="white"/>
<path d="M121.546 31.0003V19.1003H127.173C128.907 19.1003 130.199 19.5253 131.049 20.3753C131.752 21.078 132.103 22.0186 132.103 23.1973C132.103 24.9426 131.287 26.161 129.655 26.8523L132.494 31.0003H128.686L126.289 27.3963H124.844V31.0003H121.546ZM124.844 24.8123H127.02C127.576 24.8123 128.006 24.6876 128.312 24.4383C128.63 24.1776 128.788 23.8206 128.788 23.3673C128.788 22.9026 128.63 22.5513 128.312 22.3133C128.006 22.0753 127.57 21.9563 127.003 21.9563H124.844V24.8123Z" fill="white"/>
<path d="M137.987 31.0003V28.5183L142.441 25.1183C142.996 24.699 143.387 24.3306 143.614 24.0133C143.852 23.6846 143.971 23.339 143.971 22.9763C143.971 22.6023 143.846 22.3076 143.597 22.0923C143.359 21.877 143.041 21.7693 142.645 21.7693C142.259 21.7693 141.885 21.8883 141.523 22.1263C141.171 22.353 140.758 22.744 140.282 23.2993L138.055 21.4463C138.735 20.5623 139.437 19.9163 140.163 19.5083C140.888 19.1003 141.8 18.8963 142.9 18.8963C144.203 18.8963 145.257 19.2533 146.062 19.9673C146.878 20.67 147.286 21.588 147.286 22.7213C147.286 23.6166 147.07 24.3646 146.64 24.9653C146.209 25.5546 145.506 26.195 144.532 26.8863L142.492 28.3143H147.405V31.0003H137.987Z" fill="white"/>
<path d="M148.765 31.0003V27.6853H152.131V31.0003H148.765Z" fill="white"/>
<path d="M162.716 29.4533C161.708 30.6433 160.376 31.2383 158.721 31.2383C157.067 31.2383 155.735 30.649 154.726 29.4703C153.729 28.2803 153.23 26.807 153.23 25.0503C153.23 23.3163 153.74 21.8543 154.76 20.6643C155.78 19.463 157.112 18.8623 158.755 18.8623C160.41 18.8623 161.736 19.4573 162.733 20.6473C163.742 21.8373 164.246 23.305 164.246 25.0503C164.246 26.7843 163.736 28.252 162.716 29.4533ZM157.157 27.4133C157.565 28.014 158.098 28.3143 158.755 28.3143C159.413 28.3143 159.94 28.014 160.336 27.4133C160.733 26.8013 160.931 26.0136 160.931 25.0503C160.931 24.0983 160.722 23.3163 160.302 22.7043C159.894 22.0923 159.367 21.7863 158.721 21.7863C158.064 21.7863 157.537 22.0866 157.14 22.6873C156.744 23.288 156.545 24.0756 156.545 25.0503C156.545 26.0136 156.749 26.8013 157.157 27.4133Z" fill="white"/>
<path d="M37.1966 17.0334C37.2097 16.7728 37.1966 16.5121 37.1704 16.2645C37.1049 15.7954 37.0264 15.3262 36.9478 14.857C36.9347 14.7658 36.8823 14.6876 36.8038 14.6485C35.5338 13.8927 34.2507 13.1368 32.9807 12.3809C32.9283 12.3418 32.8367 12.3027 32.876 12.2376C32.9152 12.1724 32.9938 12.2245 33.0462 12.2376L36.6598 13.0847C36.7121 13.1107 36.7645 13.1107 36.8169 13.0977C36.7907 13.0456 36.7383 13.0195 36.686 12.9934C34.7613 11.7815 32.8367 10.5695 30.912 9.35748C30.8204 9.29231 30.7157 9.27928 30.6109 9.31838C28.791 9.91786 26.9711 10.5173 25.1512 11.1298C25.0203 11.1689 24.8894 11.1689 24.7715 11.1298C22.9516 10.5304 21.1317 9.93089 19.3118 9.31838C19.2071 9.27928 19.1024 9.29231 19.0107 9.35748C17.0861 10.5695 15.1614 11.7815 13.2368 12.9934C13.1844 13.0195 13.1321 13.0586 13.0928 13.0977C13.1321 13.1107 13.1844 13.0977 13.2237 13.0847L15.8423 12.4722L16.9159 12.2115C16.9551 12.1985 17.0075 12.1854 17.0206 12.2245C17.0337 12.2636 17.0075 12.3158 16.9682 12.3288L16.9028 12.3679C15.6721 13.0977 14.4282 13.8405 13.1844 14.5703C13.0404 14.6355 12.9357 14.7788 12.9095 14.9483C12.8047 15.639 12.6607 16.3297 12.6738 17.0464C12.6869 17.685 12.6607 18.3236 12.7916 18.9622C12.8702 19.3271 12.8964 19.705 12.988 20.0829C13.1321 20.6172 13.3154 21.1255 13.551 21.6207C13.7343 22.0247 13.9307 22.4026 14.1664 22.7806C14.1926 22.8197 14.2057 22.8718 14.2711 22.8979C14.3235 22.8588 14.3628 22.8066 14.389 22.7545L15.6851 20.93C15.7244 20.8779 15.7506 20.8127 15.8292 20.8258C15.9077 20.8518 15.9077 20.93 15.9077 20.9952V21.0603C15.8946 21.4774 15.8684 21.8944 15.8554 22.3114C15.8292 23.1715 15.7899 24.0447 15.7637 24.9048C15.7637 24.983 15.7899 25.0482 15.8423 25.1003C16.8504 26.1168 17.8585 27.1333 18.8798 28.1498C18.906 28.1759 18.9191 28.215 18.9845 28.202C19.1024 28.0065 19.2202 27.798 19.3511 27.6025C19.469 27.407 19.5868 27.1985 19.7177 27.016L19.757 27.0291V28.9318C19.7439 29.049 19.7963 29.1663 19.8879 29.2445C21.5376 30.7823 23.1742 32.3331 24.8239 33.8709C24.8501 33.91 24.9025 33.9491 24.9417 33.9622L25.0203 33.897C26.6831 32.3331 28.3459 30.7693 30.0217 29.2054C30.0872 29.1403 30.1265 29.0621 30.1265 28.9708V27.1463C30.1265 27.1073 30.1003 27.0551 30.1658 27.016L30.899 28.228C30.9513 28.202 30.9906 28.1759 31.0168 28.1368C32.0249 27.1333 33.02 26.1168 34.0281 25.1133C34.0936 25.0612 34.1198 24.983 34.1067 24.9048C34.0805 24.3575 34.0674 23.7971 34.0412 23.2497C34.015 22.5069 33.9888 21.7771 33.9627 21.0343C33.9627 20.9561 33.9496 20.8649 34.0412 20.8258C34.1329 20.7867 34.159 20.8909 34.2114 20.943C34.6435 21.5425 35.0755 22.142 35.5076 22.7545C35.5469 22.8066 35.5862 22.8457 35.6123 22.8979C35.6516 22.8718 35.6909 22.8327 35.704 22.7806C35.9397 22.4157 36.1361 22.0247 36.3194 21.6338C36.555 21.1385 36.7383 20.6172 36.8824 20.0829C36.974 19.705 37.0133 19.3271 37.0787 18.9491C37.118 18.7276 37.1573 18.493 37.1704 18.2715C37.2097 17.8544 37.1966 17.4504 37.1966 17.0334ZM26.4212 26.6642C26.395 26.6642 26.3819 26.6381 26.3427 26.599C26.251 26.4817 26.1725 26.3644 26.0808 26.2341C25.963 26.3384 25.8582 26.4556 25.7535 26.586C25.5833 26.7814 25.4131 26.99 25.2429 27.1854C25.2429 27.1985 25.2298 27.1985 25.2167 27.2115C25.2036 27.2245 25.2036 27.2245 25.1905 27.2376C25.1774 27.2506 25.1643 27.2506 25.1512 27.2636C25.1381 27.2636 25.125 27.2767 25.0989 27.2767C25.0858 27.2767 25.0858 27.2767 25.0727 27.2767H25.0596C24.9156 27.2767 24.7715 27.2636 24.6275 27.2767C24.549 27.2767 24.4704 27.2506 24.418 27.1854C24.1824 26.8987 23.9336 26.612 23.6979 26.3384C23.6717 26.3123 23.6456 26.2732 23.6194 26.2471C23.4753 26.3905 23.3837 26.5599 23.2659 26.7163C23.1087 26.5599 22.9385 26.4035 22.7945 26.2341C22.7552 26.195 22.7422 26.1429 22.7422 26.0907V25.4652C22.7422 25.4131 22.7683 25.3609 22.8076 25.3479C22.8076 25.3479 22.8207 25.3479 22.8207 25.3349C23.4492 24.983 24.0907 24.6442 24.7192 24.2923C24.7453 24.2793 24.7715 24.2662 24.7977 24.2532C24.8239 24.2532 24.837 24.2532 24.8632 24.2532C24.8894 24.2532 24.9286 24.2662 24.9548 24.2923C25.5833 24.6442 26.1986 24.983 26.8271 25.3218C26.8926 25.3479 26.9318 25.4131 26.9187 25.4782V26.0647C26.9187 26.1429 26.8926 26.2211 26.8271 26.2732C26.7093 26.3905 26.6045 26.4947 26.4867 26.612C26.4736 26.6251 26.4474 26.6511 26.4212 26.6642C26.4343 26.6642 26.4212 26.6642 26.4212 26.6642ZM31.0168 18.2454C30.8989 18.4539 30.7942 18.6624 30.6895 18.8709C30.6502 18.9361 30.5978 18.9882 30.5454 19.0404C30.0217 19.4574 29.5111 19.8744 28.9874 20.2914C28.9088 20.3436 28.8696 20.4348 28.8696 20.526C28.8696 20.8649 28.935 21.1907 28.9612 21.5295C28.9743 21.7641 29.0398 21.9987 29.1052 22.2202C29.1052 22.2202 29.1052 22.2202 29.1052 22.2332C29.1314 22.3245 29.1576 22.4157 29.1838 22.5069C29.1969 22.559 29.21 22.6112 29.2231 22.6503C29.2493 22.7806 29.2624 22.7806 29.1314 22.8066L27.8614 23.0803C27.7698 23.0934 27.7567 23.1324 27.7698 23.2237C27.7698 23.2367 27.7698 23.2497 27.7829 23.2628C27.796 23.2758 27.8091 23.2888 27.8352 23.2888H27.9269L29.066 23.3019C29.1052 23.3019 29.1314 23.3019 29.1707 23.3149C29.21 23.3279 29.2493 23.354 29.2624 23.3931L29.2754 23.4061C29.2754 23.4192 29.2885 23.4192 29.2885 23.4322C29.3016 23.4843 29.3016 23.5364 29.2885 23.5755C29.2493 23.771 29.1576 23.9535 29.0267 24.0968C28.9743 24.149 28.9088 24.1881 28.8303 24.1881C28.4506 24.1881 28.084 24.1099 27.7436 23.9535L27.6912 23.9274C27.6388 23.9013 27.5734 23.8753 27.5603 23.9274C27.5341 23.9665 27.5341 24.0056 27.5472 24.0447C27.5472 24.0447 27.5472 24.0577 27.5603 24.0577C27.5603 24.0708 27.5734 24.0838 27.5865 24.0838C27.6912 24.175 27.7829 24.2923 27.9531 24.2923C27.9793 24.2923 28.0316 24.3314 28.0709 24.3705C28.0971 24.3966 28.1102 24.4226 28.1364 24.4487C28.1364 24.4487 28.1364 24.4487 28.1364 24.4617C28.1495 24.4748 28.1495 24.5008 28.1495 24.5139C28.1233 24.6181 28.0316 24.7093 27.9269 24.7354H27.1937C27.1282 24.7354 27.0628 24.7093 27.0235 24.6442C26.958 24.553 26.8533 24.5008 26.7354 24.5139C26.6569 24.5139 26.5914 24.5008 26.526 24.4487C26.3558 24.3444 26.1856 24.2271 26.0153 24.1229C25.8713 24.0186 25.7273 23.9013 25.5964 23.771C25.5047 23.6928 25.4262 23.6146 25.3476 23.5364C25.3214 23.5234 25.3083 23.4973 25.2952 23.4843C25.2691 23.4452 25.2691 23.4061 25.2952 23.354C25.3476 23.2237 25.4 23.0803 25.4393 22.95C25.4654 22.8979 25.4916 22.8457 25.5309 22.8066C25.6357 22.6894 25.7273 22.5851 25.819 22.4678C25.8713 22.4026 25.9368 22.3505 26.0023 22.3114C26.4998 22.0377 26.9973 21.751 27.4948 21.4774C27.521 21.4513 27.5472 21.4383 27.5865 21.4252C27.6388 21.4122 27.665 21.3601 27.6519 21.3079C27.6519 21.2949 27.6519 21.2819 27.6519 21.2819V21.2689C27.6388 21.2428 27.5996 21.2428 27.5734 21.2298C27.4163 21.1776 27.2461 21.1385 27.089 21.1385C26.8009 21.1255 26.4998 21.1776 26.251 21.321C25.8451 21.5295 25.4262 21.725 25.0072 21.9205C24.9156 21.9726 24.8108 21.9726 24.7323 21.9205C24.2085 21.6728 23.6979 21.4252 23.1742 21.1776C23.148 21.1516 23.1087 21.1516 23.0826 21.1385C22.7814 21.1516 22.4672 21.0864 22.1661 21.2167C22.1268 21.2298 22.0744 21.2298 22.0744 21.2949C22.0744 21.321 22.0744 21.334 22.0875 21.3601C22.0875 21.3601 22.0875 21.3601 22.0875 21.3731C22.1006 21.3992 22.1268 21.4122 22.153 21.4252C22.5065 21.6207 22.8469 21.8162 23.2004 22.0117C23.3575 22.1029 23.5146 22.1941 23.6717 22.2723C23.8289 22.3505 23.9074 22.4808 24.0252 22.5851C24.0907 22.6503 24.1562 22.7285 24.1954 22.7936C24.2609 22.8979 24.3133 23.0152 24.3526 23.1324C24.3787 23.1976 24.4049 23.2758 24.4311 23.341C24.4573 23.3931 24.4442 23.4583 24.3918 23.4973C24.1169 23.745 23.8681 24.0186 23.5277 24.2141C23.4361 24.2662 23.3444 24.3184 23.2659 24.3835C23.1611 24.4748 23.0302 24.5139 22.8993 24.5008C22.8207 24.4878 22.7683 24.5399 22.7291 24.592C22.6636 24.6702 22.5589 24.7224 22.4541 24.7093H21.7995C21.7078 24.6963 21.6424 24.6442 21.6031 24.566C21.6031 24.553 21.59 24.5399 21.59 24.5269C21.59 24.5139 21.5769 24.5008 21.5769 24.4878C21.6031 24.3835 21.6816 24.2923 21.7864 24.2662C21.9435 24.2662 22.0351 24.1359 22.1399 24.0447C22.1661 24.0186 22.1792 23.9795 22.1661 23.9404C22.1661 23.9404 22.1661 23.9274 22.153 23.9274V23.9144L22.1399 23.9013C22.1006 23.8622 22.0482 23.8753 22.009 23.9013C21.7995 24.0317 21.5638 24.0447 21.3412 24.1099C21.171 24.149 21.0008 24.162 20.8306 24.149C20.7913 24.149 20.752 24.1359 20.7259 24.1099C20.6735 24.0577 20.6211 23.9926 20.5818 23.9404C20.5426 23.8883 20.5164 23.8232 20.4902 23.758C20.4902 23.745 20.4771 23.7189 20.4771 23.7059V23.6928C20.464 23.6668 20.464 23.6407 20.4509 23.6146C20.4509 23.6146 20.4509 23.6146 20.4509 23.6016C20.4509 23.5886 20.4378 23.5755 20.4378 23.5625C20.4247 23.5234 20.4116 23.4843 20.4247 23.4452C20.4378 23.3279 20.5426 23.2497 20.6604 23.2758C21.0532 23.2628 21.446 23.2628 21.8387 23.2628C21.9173 23.2628 21.9435 23.2367 21.9435 23.1585C21.9435 23.1455 21.9435 23.1194 21.9304 23.1194V23.1064C21.9173 23.0803 21.8911 23.0673 21.8518 23.0673C21.4591 22.9891 21.0794 22.9109 20.6866 22.8197L20.5688 22.7936C20.5033 22.7806 20.4771 22.7675 20.4771 22.7415C20.4771 22.7285 20.4771 22.7024 20.4902 22.6503C20.5295 22.5069 20.5557 22.3636 20.608 22.2332C20.6997 21.9205 20.7651 21.5947 20.7913 21.2558C20.8306 21.0082 20.8568 20.7606 20.8568 20.5C20.8568 20.4739 20.8568 20.4609 20.8568 20.4348C20.8568 20.4218 20.8568 20.4087 20.8437 20.3957C20.8437 20.3827 20.8306 20.3696 20.8175 20.3566C20.8044 20.3305 20.7782 20.3175 20.752 20.2914C20.2283 19.8744 19.7046 19.4574 19.1809 19.0273C19.1285 18.9882 19.0762 18.9361 19.0369 18.884C19.0369 18.884 19.0369 18.884 19.0369 18.8709C18.9845 18.7667 18.9322 18.6624 18.8798 18.5582C18.8274 18.4539 18.775 18.3497 18.7096 18.2324C18.7096 18.2193 18.6965 18.2193 18.6965 18.2063V18.1933C18.6834 18.1411 18.6965 18.089 18.7489 18.0499C19.0238 17.7632 19.2988 17.4765 19.5737 17.2028C19.7177 17.0855 19.8748 16.9682 20.0319 16.877C20.0712 16.864 20.1105 16.851 20.1498 16.851C20.3724 16.8379 20.5949 16.877 20.8044 16.9682C20.8437 16.9813 20.883 17.0073 20.9092 17.0464C20.9092 17.0595 20.9223 17.0725 20.9223 17.0855C20.9223 17.0986 20.9353 17.1116 20.9353 17.1246C20.9746 17.294 21.0139 17.4635 21.0532 17.6199C21.0532 17.6459 21.0663 17.6589 21.0663 17.672C21.0663 17.685 21.0794 17.698 21.0925 17.7241C21.1186 17.7632 21.1317 17.7893 21.171 17.8153C21.3543 17.9848 21.5245 18.1542 21.6947 18.3366C21.7471 18.4018 21.8387 18.4409 21.9173 18.4278H22.4148C22.4803 18.4278 22.5065 18.4278 22.5327 18.4409C22.5589 18.4539 22.5589 18.493 22.5589 18.5582V19.3531C22.5589 19.4183 22.5719 19.4704 22.5981 19.5225C22.5981 19.5356 22.6112 19.5486 22.6243 19.5616C22.7291 19.7441 22.8207 19.9265 22.9124 20.109C22.9124 20.109 22.9124 20.109 22.9124 20.122C22.9647 20.2002 23.0695 20.2393 23.1611 20.2002C23.2004 20.1742 23.1873 20.1351 23.1873 20.109V19.7311C23.1873 19.4313 23.2004 19.1316 23.1873 18.8318C23.1742 18.7146 23.2266 18.5973 23.3182 18.5191C23.4884 18.3757 23.6586 18.2193 23.8027 18.0629C23.986 17.8675 24.13 17.6329 24.1169 17.3462V17.0725L24.0776 17.0595C23.9729 17.1768 23.8812 17.3071 23.8027 17.4374C23.6979 17.5677 23.5932 17.685 23.5015 17.8284C23.4492 17.9066 23.3575 17.9457 23.2659 17.9326C23.1087 17.9196 23.0564 17.9066 23.0302 17.8284C23.0171 17.7893 23.004 17.7502 22.9909 17.685C22.9516 17.5156 22.9124 17.3462 22.8731 17.1898C22.8731 17.1637 22.86 17.1377 22.8469 17.1246C22.8338 17.0986 22.8076 17.0725 22.7814 17.0595C22.2053 16.7597 21.6424 16.46 21.0663 16.1603C20.8044 16.0299 20.5426 15.8866 20.2807 15.7563C20.2414 15.7432 20.2152 15.7172 20.2022 15.6781C20.1891 15.652 20.1891 15.639 20.1891 15.6129V14.3748C20.1891 14.3097 20.2152 14.2576 20.2676 14.2185C20.9353 13.6972 21.6031 13.1889 22.2708 12.6676C22.3363 12.6025 22.4279 12.6025 22.5065 12.6416C23.0171 12.9152 23.5277 13.1889 24.0514 13.4626C24.3002 13.5929 24.5359 13.7232 24.7846 13.8536C24.8501 13.8927 24.9548 13.8927 25.0203 13.8536C25.3607 13.6711 25.7142 13.4887 26.0546 13.3062C26.4736 13.0847 26.8926 12.8631 27.2984 12.6416C27.3639 12.6025 27.4556 12.6025 27.5079 12.6676C28.1757 13.1889 28.8434 13.7102 29.5111 14.2185C29.5373 14.2315 29.5504 14.2576 29.5635 14.2706C29.5766 14.2836 29.5766 14.2967 29.5897 14.3097C29.6028 14.3488 29.6159 14.3748 29.6028 14.4139C29.6028 14.8049 29.6028 15.1828 29.6028 15.5738C29.6159 15.665 29.5635 15.7432 29.4718 15.7823C28.6601 16.1993 27.8352 16.6294 27.0235 17.0595C26.9711 17.0855 26.9318 17.1377 26.9187 17.2028C26.8664 17.4113 26.814 17.6199 26.7747 17.8414C26.7747 17.8935 26.7224 17.9326 26.67 17.9326C26.3688 17.9717 26.3688 17.9717 26.1856 17.7241C26.0415 17.5417 25.8975 17.3462 25.7535 17.1637C25.7404 17.1377 25.7273 17.0986 25.6618 17.1116C25.6618 17.3462 25.6357 17.5677 25.7404 17.7893C25.7535 17.8284 25.7797 17.8544 25.8059 17.8935C25.819 17.9196 25.8451 17.9587 25.8713 17.9848C26.0153 18.1802 26.1986 18.3366 26.3819 18.506L26.395 18.5191C26.4474 18.5451 26.4867 18.5842 26.526 18.6364C26.5391 18.6494 26.5521 18.6755 26.5521 18.6885C26.5652 18.7015 26.5652 18.7146 26.5783 18.7406C26.6045 18.8188 26.6176 18.897 26.6176 18.9752C26.6045 19.3662 26.6176 19.7571 26.6176 20.1481C26.6176 20.1742 26.6045 20.2132 26.6176 20.2393C26.6176 20.2523 26.6438 20.2654 26.67 20.2654C26.7485 20.2654 26.8271 20.3045 26.8795 20.2002C26.9842 19.9917 27.102 19.7702 27.2199 19.5616C27.2461 19.5095 27.2461 19.4574 27.2461 19.4053V18.6103C27.2461 18.4669 27.2461 18.4669 27.3901 18.4669H27.9138C27.9662 18.4669 28.0316 18.4539 28.0709 18.4148C28.2804 18.2063 28.4768 17.9848 28.6994 17.8023C28.7386 17.7762 28.7386 17.7371 28.7386 17.698C28.7779 17.5156 28.8303 17.3331 28.8696 17.1507C28.8827 17.1116 28.8827 17.0595 28.935 17.0464C29.0921 16.9813 29.2493 16.9422 29.4064 16.9031C29.7337 16.851 29.9694 17.0464 30.1919 17.2289C30.4931 17.5026 30.768 17.8153 31.0561 18.1151C31.0561 18.1151 31.0692 18.1281 31.0692 18.1411L31.0822 18.1542C31.043 18.1672 31.043 18.2063 31.0168 18.2454Z" fill="white"/>
<path d="M23.9598 43.8797L19.7963 51.0604H19.7701H19.757C19.7439 51.0343 19.7178 51.0082 19.7047 50.9822L15.5804 43.9057C15.7114 43.8536 23.5932 43.8406 23.9598 43.8797ZM29.1446 51.6468L25.0072 44.5313C24.9941 44.5182 24.9811 44.4922 24.968 44.4791H24.9549H24.9287L20.7652 51.6599C21.1972 51.699 29.0136 51.6859 29.1446 51.6468ZM30.1396 51.0995L34.3293 43.8666H25.9368L30.1396 51.0995ZM29.1446 52.7806H20.7652L24.968 60.0004L29.1446 52.7806Z" fill="#FFAE01"/>
<path d="M36.2801 24.8526L40.4567 17.6328L44.6464 24.8396C44.5154 24.8787 36.699 24.8917 36.2801 24.8526ZM4.20278 42.1854L8.39247 34.9525H0L4.20278 42.1854ZM45.6676 42.1854L49.8573 34.9525H41.4648L45.6676 42.1854ZM13.5641 42.7197L9.37442 35.5129L5.19783 42.7327C5.62989 42.7718 13.4332 42.7588 13.5641 42.7197ZM9.36133 17.6719C9.20422 17.8804 5.23711 24.7484 5.21092 24.8657H13.5379C13.4856 24.7093 9.46607 17.7892 9.36133 17.6719ZM18.7488 34.9525H10.3695L14.5723 42.1854L18.7488 34.9525ZM31.0953 34.9525L35.2981 42.1854L39.4878 34.9525H31.0953ZM36.2932 42.7458H44.6856L40.4828 35.5129L36.2932 42.7458ZM13.5641 25.9864H5.18474L9.38752 33.2062L13.5641 25.9864ZM44.6594 25.9864H36.2801L40.4828 33.2062L44.6594 25.9864ZM4.18969 26.5338L0 33.7666H8.37937L4.18969 26.5338ZM18.7488 33.7536L14.5461 26.5338L10.3695 33.7536H18.7488ZM31.0953 33.7536H39.4747L35.2719 26.5338L31.0953 33.7536ZM49.8442 33.7536L45.6414 26.5338L41.4648 33.7536H49.8442ZM20.752 34.9004L24.9548 42.1202L29.1314 34.9004H20.752ZM23.9336 42.6806C23.855 42.4851 19.8355 35.565 19.7439 35.4869L15.5804 42.6806H23.9336ZM30.1265 35.4608L25.9499 42.6806H34.3292L30.1265 35.4608Z" fill="white"/>
<path d="M15.5804 3.41464C15.8815 3.45374 16.1172 3.50586 16.3136 3.53193C16.8635 3.61012 17.2694 3.70135 17.3872 3.72741C17.5836 3.76651 17.7407 3.8056 17.9633 3.85773C18.7488 4.06625 18.9976 4.22263 18.9976 4.22263C19.0369 4.23567 19.0762 4.2487 19.1154 4.28779C19.1416 4.31386 19.1678 4.35295 19.1678 4.39205C19.1678 4.41812 19.1547 4.44418 19.1416 4.47024C19.1023 4.50934 19.0631 4.5354 19.0107 4.5354C18.9452 4.56147 18.8798 4.60056 18.8274 4.63966C18.6441 4.78301 18.5786 5.03063 18.6703 5.23914C18.775 5.43462 18.906 5.63011 19.0631 5.78649C19.2333 5.98197 19.4166 6.09926 19.6915 6.04713C19.8093 6.02107 19.9403 6.0732 20.0581 5.98197C20.2414 5.83862 20.4116 5.7083 20.4902 5.48675C20.5556 5.29127 20.5949 5.08275 20.5949 4.86121C20.5818 4.1705 20.5949 3.46677 20.608 2.77606C20.6735 2.99761 20.752 3.20613 20.7913 3.42767C20.8568 3.70135 20.9615 3.96199 21.0924 4.2096C21.1972 4.40508 21.3019 4.60056 21.4329 4.79605C21.5245 4.92637 21.6292 5.04366 21.7471 5.16095C22.0613 5.47372 22.5196 5.59101 22.9516 5.46069C23.0171 5.44765 23.0825 5.40856 23.1349 5.36946C23.3968 5.16095 23.567 4.86121 23.6063 4.52237C23.6455 4.31386 23.5408 4.11838 23.3575 4.01412C23.2658 3.96199 23.1611 3.92289 23.0564 3.89683C22.9909 3.8838 22.9254 3.87076 22.86 3.8447C22.8207 3.83167 22.7683 3.81864 22.7552 3.76651C22.7421 3.71438 22.7945 3.67528 22.8338 3.64922C23.4753 3.25825 23.8943 2.67181 24.274 2.04626C24.4442 1.78562 24.5751 1.49891 24.693 1.21221C24.7846 0.977628 24.8632 0.730017 24.9024 0.495438C24.9024 0.430278 24.9155 0.365117 24.9417 0.312988C24.981 0.312988 24.9941 0.339053 24.9941 0.365117C25.0596 0.782146 25.1905 1.19917 25.3738 1.57711C25.6749 2.18962 26.0677 2.76303 26.539 3.24522C26.67 3.37554 26.8271 3.49283 26.9842 3.59709C27.0104 3.61012 27.0366 3.62315 27.0627 3.64922C27.1151 3.67528 27.1675 3.70135 27.1544 3.76651C27.1413 3.83167 27.0758 3.8447 27.0235 3.85773C26.8794 3.89683 26.7485 3.93593 26.6176 3.98805C26.4212 4.05322 26.2772 4.23566 26.2903 4.44418C26.2903 4.62663 26.3426 4.82211 26.4343 4.9785C26.5259 5.12185 26.6307 5.25217 26.7616 5.35643C26.9187 5.46069 27.102 5.51282 27.2853 5.49978C27.5603 5.51282 27.8221 5.42159 28.0447 5.25217C28.2673 5.06972 28.4637 4.84818 28.5946 4.60056C28.7648 4.32689 28.9088 4.04018 29.0136 3.74044C29.0921 3.49283 29.1576 3.24522 29.2231 2.99761C29.2361 2.94548 29.2623 2.89335 29.2754 2.81516C29.3016 2.89335 29.3016 2.97155 29.2885 3.04974C29.2885 3.72741 29.2754 4.40508 29.3016 5.08275C29.3016 5.42159 29.4718 5.74739 29.7468 5.95591C29.8384 6.0341 29.9563 6.0732 30.061 6.06017C30.205 6.06017 30.3359 6.06017 30.48 6.06017C30.5585 6.06017 30.624 6.0341 30.6764 5.98197C30.8597 5.79952 31.0168 5.61707 31.1739 5.40856C31.3441 5.14792 31.2786 4.79605 31.0299 4.62663C31.0168 4.6136 31.0037 4.6136 30.9906 4.60056C30.9251 4.56147 30.8597 4.5354 30.7942 4.49631C30.6894 4.43115 30.6894 4.36599 30.7811 4.28779C30.8466 4.23567 30.9251 4.19657 31.0168 4.1705C31.5274 3.97502 32.0511 3.81864 32.5879 3.71438C33.1378 3.59709 33.6877 3.53193 34.2376 3.4407C34.2769 3.4407 34.3161 3.4407 34.3554 3.4407C34.2114 3.50586 34.0674 3.58406 33.9365 3.67528C33.5306 3.94896 33.2294 4.31386 32.9283 4.67876C32.5879 5.10882 32.2737 5.55191 32.0118 6.0341C31.7892 6.41203 31.5928 6.803 31.4095 7.22003C31.2262 7.65009 31.0429 8.09318 30.8335 8.51021C30.7942 8.5884 30.7287 8.64053 30.6502 8.6666C28.8041 9.25304 26.958 9.82646 25.1119 10.4129C25.0072 10.452 24.8893 10.439 24.7715 10.3999C22.9385 9.81343 21.1055 9.24001 19.2725 8.6666C19.1809 8.64053 19.1154 8.57537 19.0762 8.49718C18.8667 8.08015 18.6834 7.65009 18.5001 7.20699C18.3168 6.7639 18.1073 6.399 17.8978 6.00804C17.8192 5.87772 17.7407 5.74739 17.6621 5.60404C17.3348 5.06972 16.9551 4.5745 16.5231 4.11838C16.2481 3.85773 15.947 3.62315 15.6197 3.45374C15.6197 3.45374 15.5411 3.41464 15.5411 3.40161C15.5149 3.40161 15.5542 3.40161 15.5804 3.41464Z" fill="#FEAD00"/>
<path d="M29.5112 3.8707C29.5112 4.26166 29.4981 4.6396 29.5112 5.03056C29.5112 5.27817 29.6159 5.51275 29.7992 5.66914C29.8647 5.7343 29.9563 5.77339 30.048 5.77339C30.1134 5.76036 30.192 5.76036 30.2575 5.77339C30.3884 5.78642 30.5193 5.7343 30.5848 5.63004C30.6895 5.49972 30.7943 5.3694 30.8859 5.23907C30.9906 5.12179 30.9645 4.93934 30.8466 4.83508C30.8204 4.82205 30.7943 4.79598 30.7681 4.79598C30.6895 4.75689 30.624 4.71779 30.5586 4.67869C30.3884 4.57444 30.3491 4.36592 30.4407 4.1965C30.4669 4.15741 30.4931 4.13134 30.5193 4.10528C30.624 4.01405 30.7419 3.94889 30.8859 3.9098C31.3703 3.72735 31.881 3.57096 32.3916 3.4667C33.0069 3.33638 33.6223 3.24516 34.2376 3.16696C34.3031 3.16696 34.3686 3.16696 34.4209 3.18C34.5257 3.20606 34.5912 3.28425 34.6042 3.38851C34.6173 3.49277 34.5781 3.58399 34.4864 3.63612C34.4733 3.64915 34.4471 3.66218 34.4209 3.66218C34.0413 3.81857 33.7008 4.07921 33.4259 4.39199C32.9284 4.93934 32.5094 5.53881 32.1428 6.17739C31.8679 6.67261 31.606 7.1939 31.3965 7.72821C31.2656 8.02795 31.1478 8.34072 30.9906 8.64046C30.9383 8.77079 30.8204 8.86201 30.6895 8.90111C28.8565 9.47452 27.0104 10.061 25.1775 10.6474C25.0073 10.6995 24.824 10.6995 24.6537 10.6474C22.8208 10.061 20.9878 9.47452 19.1417 8.90111C18.9977 8.86201 18.8929 8.77078 18.8275 8.62743C18.6049 8.19737 18.4216 7.74125 18.2383 7.29815C18.0681 6.88112 17.8455 6.50319 17.636 6.12526C17.5706 6.00797 17.5051 5.90371 17.4265 5.78643C17.0599 5.17391 16.6148 4.61353 16.1042 4.11831C15.9078 3.93586 15.6852 3.77947 15.4233 3.68825C15.3972 3.67522 15.371 3.66218 15.3448 3.64915C15.2531 3.59702 15.2008 3.49277 15.227 3.38851C15.24 3.28425 15.3186 3.20606 15.4103 3.19303C15.5412 3.16696 15.6721 3.16696 15.803 3.20606C16.5362 3.32335 17.2694 3.42761 17.9895 3.61006C18.3692 3.71431 18.7489 3.84464 19.1155 4.00102C19.2072 4.02708 19.2988 4.07921 19.3774 4.15741C19.4952 4.28773 19.4821 4.48321 19.3643 4.61353C19.2988 4.67869 19.2202 4.73082 19.1417 4.76992C18.8929 4.88721 18.8667 5.0045 18.9977 5.23907C19.1155 5.43456 19.2595 5.60397 19.4297 5.74733C19.4559 5.77339 19.4952 5.78643 19.5345 5.78643C19.5868 5.78643 19.6261 5.78643 19.6785 5.78643C19.7832 5.77339 19.8749 5.81249 19.9796 5.7343C20.1106 5.64307 20.2153 5.51275 20.2808 5.35636C20.3331 5.19998 20.3593 5.01753 20.3724 4.84811C20.3593 4.30076 20.3724 3.75341 20.3724 3.20606C20.3724 3.06271 20.3724 2.93238 20.3593 2.78903C20.3462 2.71084 20.3593 2.63265 20.3855 2.55445C20.4117 2.43716 20.5033 2.34594 20.6212 2.34594C20.739 2.34594 20.8307 2.42413 20.8568 2.54142C20.9223 2.78903 21.0009 3.02361 21.0532 3.27122C21.1056 3.53186 21.1973 3.77947 21.3282 4.01405C21.4722 4.33986 21.6686 4.65263 21.9174 4.91327C22.1399 5.14785 22.4673 5.25211 22.7815 5.19998C22.8862 5.18695 22.9779 5.14785 23.0564 5.06966C23.2266 4.91327 23.3314 4.71779 23.3576 4.48321C23.3707 4.32682 23.3576 4.26166 23.2135 4.18347C23.0957 4.11831 22.9648 4.07921 22.8339 4.05315C22.7684 4.04012 22.7029 4.01405 22.6375 3.97496C22.4803 3.88373 22.4411 3.67522 22.5327 3.53186C22.5458 3.51883 22.5589 3.5058 22.572 3.47973C22.6113 3.44064 22.6506 3.40154 22.7029 3.37548C22.9386 3.23212 23.1481 3.06271 23.3314 2.86722C23.8158 2.33291 24.2086 1.70736 24.4704 1.02969C24.5752 0.795113 24.6407 0.547502 24.6668 0.299892C24.6668 0.208667 24.7061 0.117442 24.7847 0.0653132C24.9025 -0.038944 25.0858 -0.0128797 25.1905 0.10441C25.2167 0.143506 25.2429 0.195635 25.256 0.234731C25.4131 1.25124 25.9237 2.07226 26.5784 2.84116C26.7617 3.06271 26.9843 3.24516 27.233 3.40154C27.2592 3.41457 27.2723 3.42761 27.2854 3.44064C27.3901 3.51883 27.4425 3.64915 27.4294 3.77947C27.4032 3.9098 27.3116 4.00102 27.1937 4.04012C27.1152 4.06618 27.0366 4.07921 26.9581 4.10528C26.8795 4.13134 26.7879 4.15741 26.7224 4.1965C26.6046 4.2356 26.526 4.36592 26.5653 4.48321C26.6046 4.73082 26.7355 4.9654 26.9319 5.12179C26.9843 5.16088 27.0366 5.18695 27.1021 5.18695C27.4163 5.25211 27.7436 5.16088 27.9793 4.93934C28.1233 4.80901 28.2412 4.66566 28.3328 4.49624C28.5685 4.11831 28.7518 3.70128 28.8696 3.27122C28.922 3.03664 29.0005 2.78903 29.066 2.55445C29.0922 2.42413 29.1969 2.33291 29.3279 2.34594C29.4457 2.35897 29.5373 2.43716 29.5635 2.55445C29.5766 2.60658 29.5766 2.67174 29.5766 2.72387C29.5243 3.11483 29.5243 3.8707 29.5112 3.8707ZM15.5543 3.41457C15.5674 3.42761 16.2613 3.84464 16.51 4.11831C16.9421 4.57444 17.3218 5.06966 17.6491 5.60397C17.7277 5.7343 17.8193 5.86462 17.8848 6.00797C18.0943 6.39894 18.3168 6.7899 18.4871 7.20693C18.6573 7.62396 18.8537 8.08008 19.0631 8.49711C19.1024 8.5753 19.1679 8.64046 19.2595 8.66653C21.0925 9.23994 22.9124 9.82639 24.7454 10.3998C24.8501 10.4389 24.968 10.4389 25.0858 10.4128C26.9188 9.82639 28.7649 9.23994 30.5979 8.66653C30.6764 8.64046 30.755 8.58834 30.7812 8.51014C30.9906 8.09311 31.1739 7.66305 31.3572 7.21996C31.5274 6.81596 31.7369 6.425 31.9595 6.03404C32.2214 5.55185 32.5225 5.09572 32.8629 4.67869C33.164 4.31379 33.4652 3.94889 33.8711 3.67522C34.002 3.58399 34.146 3.5058 34.29 3.44064C34.2507 3.44064 34.2115 3.44064 34.1722 3.44064C33.6223 3.53186 33.0724 3.59702 32.5225 3.71431C31.9857 3.81857 31.462 3.97496 30.9514 4.17044C30.8728 4.1965 30.7943 4.2356 30.7157 4.28773C30.624 4.36592 30.624 4.43108 30.7288 4.49624C30.7943 4.53534 30.8597 4.5614 30.9252 4.6005C31.2001 4.75689 31.2918 5.09572 31.1347 5.3694C31.1347 5.38243 31.1216 5.39546 31.1085 5.39546C30.9645 5.60397 30.7943 5.79946 30.624 5.96887C30.5717 6.021 30.5062 6.04707 30.4277 6.04707C30.2836 6.04707 30.1527 6.04707 30.0087 6.04707C29.8909 6.04707 29.773 6.00797 29.6945 5.94281C29.4195 5.7343 29.2624 5.40849 29.2493 5.06966C29.2231 4.39199 29.2493 3.71431 29.2362 3.03664C29.2493 2.95845 29.2493 2.88026 29.2231 2.80206C29.1969 2.88026 29.1838 2.93238 29.1708 2.98451C29.1053 3.23212 29.0529 3.49277 28.9613 3.72735C28.8434 4.02708 28.7125 4.31379 28.5423 4.58747C28.3983 4.83508 28.215 5.05662 27.9924 5.23907C27.7829 5.40849 27.5211 5.49972 27.2461 5.48669C27.0628 5.49972 26.8795 5.44759 26.7224 5.34333C26.5915 5.23907 26.4867 5.10875 26.3951 4.9654C26.3034 4.79598 26.2511 4.61353 26.2511 4.41805C26.238 4.20954 26.382 4.02708 26.5784 3.96192C26.7093 3.9098 26.8533 3.8707 26.9843 3.8316C27.0366 3.81857 27.1021 3.80554 27.1152 3.74038C27.1283 3.67522 27.0628 3.64915 27.0235 3.62309C26.9973 3.61006 26.9712 3.59702 26.945 3.57096C26.7879 3.4667 26.6308 3.34941 26.4998 3.21909C26.0285 2.72387 25.6357 2.16349 25.3346 1.55098C25.1382 1.17305 25.0073 0.769049 24.9549 0.338988C24.9549 0.312924 24.9418 0.28686 24.9025 0.28686C24.8763 0.338988 24.8632 0.404149 24.8632 0.46931C24.8109 0.71692 24.7454 0.964531 24.6537 1.19911C24.549 1.48582 24.405 1.77252 24.2348 2.03317C23.8551 2.64568 23.4361 3.24516 22.7946 3.63612C22.7553 3.66218 22.7029 3.68825 22.716 3.75341C22.7291 3.81857 22.7815 3.81857 22.8208 3.8316C22.8862 3.84464 22.9517 3.8707 23.0172 3.88373C23.1219 3.9098 23.2266 3.94889 23.3183 4.00102C23.5016 4.09225 23.6063 4.30076 23.567 4.50927C23.5278 4.84811 23.3576 5.14785 23.0957 5.35636C23.0433 5.39546 22.9779 5.43456 22.9124 5.44759C22.4934 5.57791 22.0221 5.46062 21.721 5.14785C21.6031 5.04359 21.4984 4.91327 21.4067 4.78295C21.2758 4.6005 21.1711 4.40502 21.0663 4.1965C20.9354 3.94889 20.8307 3.68825 20.7652 3.41457C20.7259 3.19303 20.6474 2.98451 20.5819 2.76297C20.5688 3.4667 20.5688 4.15741 20.5688 4.84811C20.5688 5.05662 20.5295 5.26514 20.4641 5.47365C20.3855 5.6952 20.2153 5.83855 20.032 5.96887C19.9142 6.0601 19.7963 6.021 19.6654 6.03404C19.4035 6.08616 19.2072 5.96887 19.0369 5.77339C18.8798 5.61701 18.7489 5.43456 18.6442 5.22604C18.5394 5.01753 18.6049 4.76992 18.8013 4.62656C18.8537 4.58747 18.9191 4.54837 18.9846 4.52231C19.0631 4.48321 19.1548 4.45715 19.1548 4.36592C19.1548 4.2747 19.05 4.2356 18.9715 4.1965C18.6049 4.04012 18.2383 3.9098 17.8455 3.81857C17.3349 3.68825 16.8243 3.59702 16.3006 3.51883C16.1173 3.49277 15.5543 3.38851 15.5543 3.41457Z" fill="#262626"/>
</svg>
