<svg width="532" height="406" viewBox="0 0 532 406" fill="none" xmlns="http://www.w3.org/2000/svg">
<g opacity="0.3" clip-path="url(#clip0_139_300)">
<path opacity="0.2" d="M149.648 185.606C175.666 250.026 248.96 281.149 313.355 255.122C377.75 229.094 408.862 155.773 382.845 91.3531C356.827 26.9335 283.533 -4.18972 219.138 21.8375" stroke="white" stroke-width="2"/>
<path opacity="0.1" d="M139.092 265.681C209.317 335.932 323.175 335.932 393.4 265.681C463.625 195.43 463.625 81.5294 393.4 11.278C323.175 -58.9734 209.317 -58.9734 139.092 11.278" stroke="white" stroke-width="2"/>
<path opacity="0.25" fill-rule="evenodd" clip-rule="evenodd" d="M266.515 243.729C324.472 243.729 371.456 196.727 371.456 138.748C371.456 80.7688 324.472 33.7674 266.515 33.7674C208.557 33.7674 161.574 80.7688 161.574 138.748C161.574 196.727 208.557 243.729 266.515 243.729Z" stroke="white" stroke-width="2"/>
<path opacity="0.05" d="M38.032 6.2469C-34.8223 132.482 8.41266 293.898 134.6 366.78C260.788 439.661 422.143 396.41 494.997 270.175C567.852 143.94 524.617 -17.4758 398.429 -90.3575" stroke="white" stroke-width="2"/>
<path opacity="0.07" d="M323.526 349.595C439.93 318.393 509.009 198.699 477.819 82.2519C446.628 -34.1955 326.98 -103.301 210.576 -72.0986C94.1728 -40.8966 25.0938 78.7968 56.284 195.244" stroke="white" stroke-width="2"/>
<path opacity="0.14" d="M391.797 211.107C431.744 141.889 408.038 53.3816 338.846 13.4189C269.655 -26.5437 181.181 -2.8281 141.233 66.3892C101.285 135.607 124.992 224.114 194.183 264.077" stroke="white" stroke-width="2"/>
<path opacity="0.12" d="M430.502 142.238C430.502 51.6366 357.082 -21.8106 266.515 -21.8106C175.947 -21.8106 102.527 51.6366 102.527 142.238" stroke="white" stroke-width="2"/>
</g>
<g clip-path="url(#clip1_139_300)">
<path d="M315.718 188.718C343.177 161.26 343.177 116.74 315.718 89.2816C288.26 61.8228 243.74 61.8228 216.281 89.2816C188.823 116.74 188.823 161.26 216.281 188.718C243.74 216.177 288.26 216.177 315.718 188.718Z" stroke="#AD9279" stroke-width="2" stroke-miterlimit="10" stroke-linecap="round" stroke-linejoin="round"/>
<path d="M240.214 139.035L261.289 160.11L298.815 122.584" stroke="#AD9279" stroke-width="2" stroke-miterlimit="10" stroke-linecap="round" stroke-linejoin="round"/>
</g>
<defs>
<clipPath id="clip0_139_300">
<rect width="532" height="406" fill="white"/>
</clipPath>
<clipPath id="clip1_139_300">
<rect width="150" height="150" fill="white" transform="translate(191 64)"/>
</clipPath>
</defs>
</svg>
