<svg width="142" height="143" viewBox="0 0 142 143" fill="none" xmlns="http://www.w3.org/2000/svg">
<path d="M92.5889 131.768C92.8873 130.869 93.5105 130.033 94.677 129.541C96.637 128.714 98.5053 129.473 99.352 131.465C100.178 133.408 99.5778 135.265 97.6177 136.092C96.5114 136.559 95.6006 136.485 94.6725 136.103L94.2573 137.094C95.1477 137.621 96.5757 137.778 98.0909 137.139C100.7 136.038 101.532 133.424 100.494 130.983C99.3689 128.335 96.9575 127.333 94.3 128.454C92.9291 129.032 91.9195 130.16 91.6642 131.327L92.5889 131.768Z" fill="white"/>
<path d="M85.3569 131.578L84.1854 131.781L85.4634 138.824L81.5388 135.198L81.2556 135.247L78.9367 139.959L77.6588 132.916L76.4874 133.12L78.1348 142.199L79.1903 142.015L81.6703 136.874L85.923 140.844L87.0043 140.656L85.3569 131.578Z" fill="white"/>
<path d="M72.0691 137.816C72.1686 135.068 70.1738 133 67.5844 132.879C65.0081 132.759 62.8689 134.674 62.7709 137.383C62.6713 140.13 64.6662 142.199 67.2425 142.319C69.858 142.441 71.9725 140.485 72.0691 137.816ZM70.8267 137.758C70.7505 139.862 69.154 141.262 67.2839 141.175C65.453 141.09 63.937 139.544 64.0132 137.441C64.0889 135.35 65.6205 133.933 67.543 134.023C69.4 134.109 70.9025 135.668 70.8267 137.758Z" fill="white"/>
<path d="M58.0338 139.966L54.9384 139.203L56.7821 131.342L55.6229 131.056L53.7792 138.917L50.671 138.15L50.4162 139.236L57.779 141.053L58.0338 139.966Z" fill="white"/>
<path d="M47.3526 128.233L45.9578 131.311L43.8126 130.311C41.2623 129.122 39.7911 130.011 39.1802 131.359C38.6017 132.636 38.6224 134.279 41.4111 135.579L44.6527 137.09L48.4371 128.738L47.3526 128.233ZM41.823 134.542C40.1665 133.77 39.8733 132.824 40.295 131.894C40.7438 130.903 41.7496 130.563 43.3823 131.324L45.5036 132.313L44.0277 135.57L41.823 134.542Z" fill="white"/>
<path d="M37.0702 122.678L31.6382 118.657L30.9846 119.555L35.453 122.864L33.692 125.285L29.6154 122.266L28.9771 123.144L33.0538 126.162L31.3774 128.467L27.0043 125.229L26.3506 126.128L31.6873 130.079L37.0702 122.678Z" fill="white"/>
<path d="M22.6113 121.223L20.4311 118.873L26.29 113.382L25.4735 112.502L19.6146 117.993L17.4255 115.633L16.6157 116.392L21.8015 121.981L22.6113 121.223Z" fill="white"/>
<path d="M14.9013 106.024C14.0422 104.662 14.0377 103.603 14.9863 103.003C16.0342 102.341 17.0275 102.791 17.9006 104.175L19.147 106.151L16.1688 108.033L14.9013 106.024ZM12.3633 110.438L13.0041 111.454L20.7254 106.574L18.8593 103.616C17.5707 101.573 15.9609 100.904 14.3173 101.943C12.8172 102.891 12.6117 104.473 13.9426 106.583L15.2312 108.626L12.3633 110.438Z" fill="white"/>
<path d="M11.7722 87.4188L10.9654 83.8431C10.4807 81.6951 9.4214 80.4421 7.6094 80.8385C6.43543 81.0953 5.83462 81.8746 5.85101 82.8967C5.32654 82.1746 4.50458 81.855 3.52201 82.07C2.2332 82.3519 1.46709 83.2888 2.01848 85.7326L2.83976 89.3726L11.7722 87.4188ZM6.90693 84.6093C6.55578 83.053 6.87411 82.268 7.81839 82.0615C8.87752 81.8298 9.51508 82.4597 9.88364 84.0932L10.4234 86.4856L7.47573 87.1303L6.90693 84.6093ZM3.12635 85.5983C2.7723 84.0291 3.11559 83.4141 4.03435 83.2131C4.90207 83.0233 5.58081 83.6577 5.8391 84.8024L6.4166 87.362L3.66032 87.9649L3.12635 85.5983Z" fill="white"/>
<path d="M9.69828 74.6129L2.48815 69.1013L9.57936 69.0196L9.55389 67.822L0.395508 67.9276L0.417336 68.9541L7.62719 74.4525L0.535986 74.5342L0.56145 75.7319L9.71983 75.6263L9.69828 74.6129Z" fill="white"/>
<path d="M11.5748 64.0435L11.788 62.9209L10.1425 62.5891L11.4999 55.4404L13.1454 55.7722L13.3585 54.6496L10.6204 54.0974L10.4048 55.2329L2.49898 53.6386L1.34006 59.7421L2.43274 59.9624C6.66203 60.8153 8.49774 62.043 9.01801 62.5365L8.8367 63.4913L11.5748 64.0435ZM2.6459 58.8398L3.36869 55.0332L10.1818 56.4072L9.25813 61.2719C8.26041 60.4812 5.69253 59.4542 3.48147 59.0083L2.6459 58.8398Z" fill="white"/>
<path d="M13.1825 50.2777L15.7384 44.0601L14.7098 43.6239L12.6073 48.7386L9.83622 47.5635L11.7544 42.8972L10.75 42.4713L8.83184 47.1375L6.19386 46.0189L8.25152 41.0133L7.22295 40.5771L4.7119 46.6856L13.1825 50.2777Z" fill="white"/>
<path d="M14.1745 37.3188C16.4429 38.8782 19.2261 38.2843 20.6737 36.1375C22.114 34.0016 21.6086 31.1469 19.3728 29.6099C17.1044 28.0505 14.3212 28.6444 12.8809 30.7803C11.4186 32.9488 11.9712 35.8042 14.1745 37.3188ZM14.8691 36.2888C13.1325 35.095 12.7796 32.9799 13.8251 31.4295C14.8487 29.9115 16.9417 29.4461 18.6782 30.6399C20.4039 31.8263 20.8042 33.8946 19.7295 35.4884C18.6912 37.028 16.5948 37.4751 14.8691 36.2888Z" fill="white"/>
<path d="M29.5624 19.5946C29.8657 19.994 30.4633 20.0688 30.8885 19.744C31.293 19.435 31.3798 18.8372 31.0765 18.4379C30.7653 18.028 30.1756 17.9636 29.7712 18.2726C29.3459 18.5975 29.2511 19.1848 29.5624 19.5946Z" fill="white"/>
<path d="M53.6091 10.0094C53.2538 10.887 52.5781 11.6803 51.382 12.0957C49.3719 12.7937 47.5547 11.9163 46.8363 9.87527C46.1354 7.88399 46.8533 6.07043 48.8634 5.37242C49.9979 4.97845 50.9026 5.1112 51.805 5.55201L52.2829 4.58997C51.4273 4.00717 50.0114 3.75866 48.4576 4.29823C45.7817 5.22749 44.7844 7.78055 45.6648 10.2821C46.6198 12.9952 48.9638 14.1505 51.6891 13.2041C53.0949 12.7159 54.175 11.6565 54.5044 10.5085L53.6091 10.0094Z" fill="white"/>
<path d="M59.0367 11.1322L60.2173 10.9868L59.2848 3.89289L63.0292 7.70663L63.3146 7.67149L65.8623 3.083L66.7947 10.1769L67.9753 10.0316L66.7732 0.886536L65.7094 1.01752L62.9798 6.0267L58.9244 1.85298L57.8347 1.98716L59.0367 11.1322Z" fill="white"/>
<path d="M72.62 5.56196C72.3862 8.30019 74.2784 10.4638 76.86 10.7124C79.4286 10.9598 81.6599 9.15363 81.8904 6.4547C82.1243 3.71647 80.2321 1.55285 77.6635 1.30549C75.0558 1.05437 72.8472 2.90234 72.62 5.56196ZM73.8587 5.68125C74.0378 3.58499 75.7016 2.26578 77.5661 2.44533C79.3915 2.62112 80.8308 4.23917 80.6517 6.33542C80.4738 8.41857 78.874 9.75716 76.9574 9.57259C75.1059 9.39429 73.6808 7.7644 73.8587 5.68125Z" fill="white"/>
<path d="M86.7504 4.11003L89.8063 5.02547L87.5793 12.7812L88.7237 13.124L90.9506 5.36829L94.019 6.28749L94.3268 5.21556L87.0582 3.0381L86.7504 4.11003Z" fill="white"/>
<path d="M96.8499 16.3523L98.3943 13.3483L100.489 14.4529C102.979 15.7661 104.493 14.951 105.169 13.6353C105.81 12.3894 105.87 10.7485 103.146 9.31255L99.9812 7.64343L95.7909 15.7939L96.8499 16.3523ZM102.684 10.3268C104.302 11.1798 104.548 12.1386 104.081 13.0468C103.585 14.0132 102.563 14.3032 100.969 13.4625L98.8971 12.3702L100.531 9.19155L102.684 10.3268Z" fill="white"/>
<path d="M106.853 22.4059L112.084 26.6895L112.781 25.8248L108.478 22.301L110.356 19.9712L114.282 23.186L114.963 22.3416L111.037 19.1268L112.825 16.909L117.037 20.3575L117.734 19.4928L112.594 15.2843L106.853 22.4059Z" fill="white"/>
<path d="M121.23 24.5748L123.294 27.0286L117.171 32.22L117.944 33.139L124.067 27.9475L126.139 30.4114L126.985 29.6939L122.077 23.8572L121.23 24.5748Z" fill="white"/>
<path d="M128.191 40.1292C128.983 41.5314 128.936 42.5887 127.958 43.1403C126.879 43.7496 125.908 43.2517 125.103 41.8265L123.955 39.7923L127.023 38.0605L128.191 40.1292ZM130.943 35.8477L130.353 34.8018L122.398 39.2916L124.118 42.3372C125.306 44.4405 126.882 45.1878 128.575 44.2322C130.12 43.3599 130.403 41.7907 129.176 39.6185L127.989 37.5153L130.943 35.8477Z" fill="white"/>
<path d="M130.408 58.8574L131.039 62.467C131.418 64.6353 132.415 65.9386 134.246 65.6326C135.431 65.4343 136.07 64.6861 136.103 63.6648C136.592 64.4117 137.398 64.7714 138.39 64.6055C139.692 64.3878 140.503 63.4904 140.072 61.0234L139.429 57.349L130.408 58.8574ZM135.132 61.9029C135.407 63.4739 135.05 64.2418 134.097 64.4013C133.027 64.5802 132.421 63.9198 132.132 62.2708L131.71 59.8558L134.687 59.358L135.132 61.9029ZM138.958 61.1027C139.235 62.6868 138.862 63.2837 137.934 63.4389C137.058 63.5854 136.411 62.9185 136.209 61.763L135.757 59.1792L138.54 58.7137L138.958 61.1027Z" fill="white"/>
<path d="M131.854 71.7442L138.789 77.6032L131.699 77.3339L131.666 78.5307L140.822 78.8786L140.851 77.8527L133.915 72.0068L141.005 72.2762L141.038 71.0793L131.882 70.7315L131.854 71.7442Z" fill="white"/>
<path d="M129.461 82.2028L129.193 83.313L130.821 83.7256L129.115 90.795L127.487 90.3823L127.219 91.4925L129.928 92.1792L130.199 91.0563L138.022 93.0392L139.478 87.0034L138.397 86.7294C134.213 85.6686 132.438 84.3522 131.943 83.8338L132.17 82.8895L129.461 82.2028ZM138.129 87.8396L137.221 91.6039L130.48 89.8951L131.641 85.0844C132.599 85.9231 135.115 87.0754 137.302 87.63L138.129 87.8396Z" fill="white"/>
<path d="M127.181 95.8658L124.323 101.946L125.33 102.433L127.681 97.4307L130.392 98.741L128.247 103.304L129.23 103.779L131.375 99.2159L133.957 100.463L131.656 105.358L132.662 105.845L135.47 99.8709L127.181 95.8658Z" fill="white"/>
<path d="M125.556 108.753C123.366 107.084 120.555 107.54 119.004 109.611C117.46 111.672 117.825 114.547 119.984 116.192C122.175 117.861 124.985 117.406 126.529 115.345C128.096 113.252 127.684 110.375 125.556 108.753ZM124.812 109.747C126.488 111.025 126.738 113.154 125.617 114.65C124.52 116.115 122.406 116.476 120.729 115.198C119.062 113.928 118.764 111.844 119.916 110.306C121.028 108.82 123.145 108.478 124.812 109.747Z" fill="white"/>
<path d="M109.312 125.686C109.029 125.272 108.435 125.168 107.994 125.471C107.575 125.76 107.459 126.352 107.742 126.766C108.033 127.19 108.62 127.284 109.039 126.995C109.48 126.692 109.603 126.111 109.312 125.686Z" fill="white"/>
</svg>
