<?xml version="1.0" encoding="utf-8"?><svg viewBox="0 0 56 34" xmlns="http://www.w3.org/2000/svg" xmlns:xlink="http://www.w3.org/1999/xlink"><style>:root>svg{display:none}:root>svg:target{display:block}</style><svg viewBox="0 0 32 32" id="arr-top" xmlns="http://www.w3.org/2000/svg"><path d="M0 0h31.926v.074H32V32h-5.805V9.925L5.717 30.403l-4.104-4.105L22.106 5.805H0V0z"/></svg><svg viewBox="0 0 42 10" id="btn-arrow" xmlns="http://www.w3.org/2000/svg"><path d="M34.759 10L42 5l-7.241-5v3.845H0v2.31h34.759V10z"/></svg><svg viewBox="0 0 20 14" id="burger" xmlns="http://www.w3.org/2000/svg"><path d="M0 0h20v1H0zm6 6.5h14v1H6zM0 13h20v1H0z"/></svg><svg viewBox="0 0 24 24" id="call" xmlns="http://www.w3.org/2000/svg"><path d="M22.087 17.625l-3.9-2.55a1.8 1.8 0 00-2.437.488c-.863 1.087-1.988 2.887-6.075-1.2C5.587 10.274 7.35 9.15 8.437 8.25a1.8 1.8 0 00.488-2.438l-2.55-3.9C6.037 1.425 5.588.637 4.537.787 3.487.937.75 2.475.75 5.85s2.663 7.5 6.3 11.138c3.638 3.637 7.763 6.262 11.1 6.262 3.338 0 4.95-3 5.063-3.75.112-.75-.638-1.538-1.126-1.875z"/><path d="M13.5 3.375v7.5H21m1.5-9l-9 9 9-9z"/></svg><svg viewBox="0 0 24 24" id="call2" xmlns="http://www.w3.org/2000/svg"><path d="M18.622 15.273a1.923 1.923 0 00-2.603.52c-.961 1.161-2.123 3.083-6.488-1.28-4.365-4.365-2.483-5.566-1.321-6.526a1.922 1.922 0 00.52-2.603L6.007 1.221C5.647.701 5.166-.14 4.045.02 2.923.18 0 1.821 0 5.424c0 3.603 2.843 8.007 6.728 11.89C10.612 21.198 15.018 24 18.582 24s5.286-3.203 5.406-4.003c.12-.801-.68-1.602-1.201-1.962l-4.165-2.762z"/></svg><svg viewBox="0 0 16 16" id="clip" xmlns="http://www.w3.org/2000/svg"><path fill-rule="evenodd" clip-rule="evenodd" d="M1.81 10.954a2.303 2.303 0 00-.58 1.53c0 .558.196 1.115.58 1.536a1.9 1.9 0 001.4.63c.51 0 1.02-.21 1.404-.63l3.5-3.83 3.778-4.126a.974.974 0 00.245-.675.97.97 0 00-.245-.67.857.857 0 00-.622-.279.826.826 0 00-.617.279L5.24 10.636a.565.565 0 01-.871 0 .722.722 0 010-.949L9.78 3.765a2.01 2.01 0 011.49-.67c.536 0 1.077.22 1.483.67a2.4 2.4 0 01.617 1.624c0 .591-.205 1.183-.617 1.633l-3.76 4.117-3.509 3.834C4.855 15.658 4.037 16 3.21 16c-.8 0-1.61-.332-2.231-.993l-.036-.034A3.685 3.685 0 010 12.484c0-.89.317-1.794.943-2.474L4.44 6.176l4.422-4.831C9.674.45 10.747 0 11.82 0c1.068 0 2.14.45 2.954 1.345C15.59 2.23 16 3.408 16 4.577c0 1.174-.411 2.347-1.225 3.237l-6.057 6.621a.574.574 0 01-.868 0 .702.702 0 010-.948l6.053-6.626c.577-.621.863-1.453.863-2.284 0-.826-.286-1.658-.863-2.284a2.806 2.806 0 00-2.083-.938 2.83 2.83 0 00-2.092.938L4.927 7.55 1.81 10.954z"/></svg><svg viewBox="0 0 17 17" id="close" xmlns="http://www.w3.org/2000/svg"><path d="M15.562 15.564L1.125 1.125m14.437.001L1.124 15.564 15.562 1.126z"/></svg><svg viewBox="0 0 18 18" id="download" xmlns="http://www.w3.org/2000/svg"><path d="M8.852 12.492a.188.188 0 00.296 0l2.625-3.32a.187.187 0 00-.148-.303H9.888V.938A.188.188 0 009.701.75H8.295a.188.188 0 00-.188.188v7.928H6.375a.187.187 0 00-.148.303l2.625 3.323zm8.726-.82h-1.406a.188.188 0 00-.188.187v3.61H2.016v-3.61a.188.188 0 00-.188-.187H.422a.188.188 0 00-.188.187V16.5c0 .415.336.75.75.75h16.032a.75.75 0 00.75-.75v-4.64a.188.188 0 00-.188-.188z"/></svg><svg viewBox="0 0 8 18" id="fb" xmlns="http://www.w3.org/2000/svg"><path fill-rule="evenodd" clip-rule="evenodd" d="M1.73 3.486v2.479H0v3.03h1.73V18h3.55V8.995h2.384s.223-1.453.331-3.042h-2.7V3.881c0-.31.387-.726.77-.726H8V0H5.369c-3.728 0-3.64 3.033-3.64 3.486z"/></svg><svg viewBox="0 0 18 18" id="insta" xmlns="http://www.w3.org/2000/svg"><path fill-rule="evenodd" clip-rule="evenodd" d="M4.967 0h8.066A4.973 4.973 0 0118 4.967v8.065A4.973 4.973 0 0113.033 18H4.966A4.973 4.973 0 010 13.032V4.967A4.973 4.973 0 014.967 0zm8.066 16.403a3.374 3.374 0 003.37-3.37V4.966a3.374 3.374 0 00-3.37-3.37H4.966a3.374 3.374 0 00-3.37 3.37v8.065a3.374 3.374 0 003.37 3.371h8.066zM4.362 9A4.643 4.643 0 019 4.362 4.643 4.643 0 0113.638 9 4.643 4.643 0 019 13.638 4.643 4.643 0 014.362 9zm1.597 0A3.044 3.044 0 009 12.04 3.044 3.044 0 0012.041 9 3.044 3.044 0 009 5.96 3.044 3.044 0 005.959 9zm7.046-5.65a1.175 1.175 0 011.656 0c.218.218.343.52.343.829 0 .308-.125.61-.343.828a1.18 1.18 0 01-.828.343 1.18 1.18 0 01-.828-.343 1.181 1.181 0 01-.344-.828c0-.309.126-.611.344-.828z"/></svg><svg viewBox="0 0 23 34" id="play" xmlns="http://www.w3.org/2000/svg"><path fill-rule="evenodd" clip-rule="evenodd" d="M0 .784L22.054 17 0 33.216V.784z"/></svg><svg viewBox="0 0 56 16" id="slider-left" xmlns="http://www.w3.org/2000/svg"><path fill-rule="evenodd" clip-rule="evenodd" d="M14.651 16L0 8l14.651-8v6.46H56v3.08H14.651V16z"/></svg><svg viewBox="0 0 56 16" id="slider-right" xmlns="http://www.w3.org/2000/svg"><path fill-rule="evenodd" clip-rule="evenodd" d="M41.349 16L56 8 41.349 0v6.46H0v3.08h41.349V16z"/></svg><svg viewBox="0 0 24 24" id="whatsapp" xmlns="http://www.w3.org/2000/svg"><path d="M0 24l2.064-6.192a11.73 11.73 0 01-1.65-6.015C.414 5.28 5.694 0 12.207 0 18.72 0 24 5.28 24 11.793c0 6.513-5.28 11.793-11.793 11.793-1.982 0-3.848-.491-5.487-1.354L0 24z"/><path d="M19.73 15.718c-.544-1.03-2.552-2.206-2.552-2.206-.454-.259-1.002-.288-1.262.174 0 0-.652.782-.818.895-.758.513-1.46.494-2.169-.215l-1.647-1.648-1.648-1.647c-.708-.709-.728-1.411-.215-2.169.113-.166.895-.819.895-.819.462-.259.433-.807.174-1.261 0 0-1.177-2.008-2.206-2.553a1.128 1.128 0 00-1.325.2l-.728.727c-2.307 2.308-1.171 4.913 1.137 7.22l2.109 2.11 2.109 2.109c2.307 2.308 4.913 3.444 7.22 1.136l.728-.727c.35-.351.43-.889.199-1.326z"/></svg></svg>