<svg width="32" height="32" viewBox="0 0 32 32" fill="none" xmlns="http://www.w3.org/2000/svg">
<path d="M16 1C13.3478 1 10.8043 2.05357 8.92893 3.92893C7.05357 5.8043 6 8.34784 6 11C6 20 16 31 16 31C16 31 26 20 26 11C26 8.34784 24.9464 5.8043 23.0711 3.92893C21.1957 2.05357 18.6522 1 16 1ZM16 15C15.2089 15 14.4355 14.7654 13.7777 14.3259C13.1199 13.8864 12.6072 13.2616 12.3045 12.5307C12.0017 11.7998 11.9225 10.9956 12.0769 10.2196C12.2312 9.44372 12.6122 8.73098 13.1716 8.17157C13.731 7.61216 14.4437 7.2312 15.2196 7.07686C15.9956 6.92252 16.7998 7.00173 17.5307 7.30448C18.2616 7.60723 18.8864 8.11992 19.3259 8.77772C19.7654 9.43552 20 10.2089 20 11C20 12.0609 19.5786 13.0783 18.8284 13.8284C18.0783 14.5786 17.0609 15 16 15Z" fill="#E4BFA2"/>
</svg>
