<svg width="48" height="48" viewBox="0 0 48 48" fill="none" xmlns="http://www.w3.org/2000/svg">
<path d="M41.0964 14.3C40.423 10.8204 37.3747 8.26696 33.7696 8.26696C33.389 8.26696 33.0011 8.29856 32.611 8.36118C30.3043 4.58175 26.1876 2.25488 21.7456 2.25488C15.4982 2.25488 10.2313 6.75366 9.20304 12.8365C8.87398 12.7963 8.54473 12.776 8.2183 12.776C3.68671 12.776 0 16.4627 0 20.9943C0 25.5257 3.68671 29.2125 8.2182 29.2125H14.2303C14.6186 29.2125 14.9334 28.8976 14.9334 28.5093C14.9334 28.121 14.6186 27.8062 14.2303 27.8062H8.2182C4.46212 27.8062 1.40625 24.7503 1.40625 20.9943C1.40625 17.2381 4.46212 14.1823 8.2182 14.1823C8.6922 14.1823 9.17455 14.2341 9.65183 14.3364C9.84617 14.378 10.0492 14.3355 10.2104 14.2191C10.3716 14.1029 10.4762 13.9237 10.4979 13.726C11.1316 7.98806 15.9669 3.66104 21.7453 3.66104C25.8486 3.66104 29.6402 5.89388 31.6405 9.48824C31.7925 9.76162 32.1073 9.90149 32.4119 9.83174C32.8711 9.72646 33.3279 9.67312 33.7694 9.67312C36.863 9.67312 39.4514 11.9896 39.7905 15.0614C39.8298 15.4179 40.1311 15.6874 40.4893 15.6874C40.4908 15.6874 40.4923 15.6874 40.4937 15.6874C40.5123 15.6873 40.5308 15.6865 40.5503 15.6852C43.8844 15.6946 46.5937 18.4097 46.5937 21.7458C46.5937 25.0875 43.8749 27.8062 40.5332 27.8062H28.4607V24.5879C29.3333 24.2936 29.9637 23.4679 29.9637 22.4973V13.4791C29.9637 12.2626 28.9739 11.273 27.7575 11.273H18.7395C17.523 11.273 16.5333 12.2626 16.5333 13.4791V22.4973C16.5333 23.4679 17.1637 24.2935 18.0363 24.5879V27.8062H17.2366C16.8482 27.8062 16.5334 28.121 16.5334 28.5093C16.5334 28.8976 16.8482 29.2125 17.2366 29.2125H18.0363V32.3153H13.3149C13.0206 31.4427 12.195 30.8123 11.2243 30.8123C10.0078 30.8123 9.01817 31.802 9.01817 33.0184C9.01817 34.2348 10.0079 35.2245 11.2243 35.2245C12.195 35.2245 13.0206 34.5942 13.3149 33.7215H18.0363V36.9399C17.1637 37.2342 16.5333 38.0598 16.5333 39.0305C16.5333 40.247 17.5231 41.2366 18.7395 41.2366C19.9559 41.2366 20.9456 40.2469 20.9456 39.0305C20.9456 38.0598 20.3152 37.2342 19.4426 36.9399V29.2125H22.5454V41.449C21.6728 41.7432 21.0424 42.5689 21.0424 43.5396C21.0424 44.7561 22.0321 45.7457 23.2486 45.7457C24.465 45.7457 25.4547 44.756 25.4547 43.5396C25.4547 42.5689 24.8243 41.7433 23.9517 41.449V29.2125H27.0545V36.9399C26.1819 37.2342 25.5515 38.0598 25.5515 39.0305C25.5515 40.247 26.5412 41.2366 27.7576 41.2366C28.974 41.2366 29.9638 40.2469 29.9638 39.0305C29.9638 38.0598 29.3334 37.2342 28.4608 36.9399V33.7215H33.1822C33.4765 34.5942 34.3021 35.2245 35.2728 35.2245C36.4893 35.2245 37.479 34.2348 37.479 33.0184C37.479 31.802 36.4893 30.8123 35.2728 30.8123C34.3021 30.8123 33.4766 31.4427 33.1822 32.3153H28.4608V29.2125H40.5333C44.6505 29.2125 48 25.8629 48 21.7458C47.9999 17.818 44.9514 14.5889 41.0964 14.3ZM11.2243 33.8183C10.7832 33.8183 10.4244 33.4594 10.4244 33.0184C10.4244 32.5774 10.7833 32.2185 11.2243 32.2185C11.6654 32.2185 12.0243 32.5774 12.0243 33.0184C12.0243 33.4594 11.6654 33.8183 11.2243 33.8183ZM19.5392 39.0305C19.5392 39.4715 19.1805 39.8304 18.7394 39.8304C18.2983 39.8304 17.9395 39.4715 17.9395 39.0305C17.9395 38.5894 18.2984 38.2306 18.7394 38.2306C19.1804 38.2306 19.5392 38.5895 19.5392 39.0305ZM22.5453 27.8062H19.4425V24.7034H22.5453V27.8062ZM24.0483 43.5396C24.0483 43.9806 23.6895 44.3395 23.2485 44.3395C22.8074 44.3395 22.4486 43.9806 22.4486 43.5396C22.4486 43.0986 22.8075 42.7397 23.2485 42.7397C23.6895 42.7397 24.0483 43.0986 24.0483 43.5396ZM27.0544 27.8062H23.9516V24.7034H27.0544V27.8062ZM23.9515 23.2971V21.6974H26.2544C26.6427 21.6974 26.9575 21.3826 26.9575 20.9943V17.9882C26.9575 17.5999 26.6427 17.285 26.2544 17.285C25.866 17.285 25.5512 17.5999 25.5512 17.9882V20.2911H20.9454V15.6853H26.2544C26.6427 15.6853 26.9575 15.3705 26.9575 14.9822C26.9575 14.5939 26.6427 14.279 26.2544 14.279H20.2423C19.854 14.279 19.5392 14.5939 19.5392 14.9822V20.9943C19.5392 21.3826 19.854 21.6974 20.2423 21.6974H22.5451V23.2971H18.7392C18.2981 23.2971 17.9393 22.9382 17.9393 22.4973V13.4791H17.9395C17.9395 13.038 18.2984 12.6792 18.7394 12.6792H27.7574C28.1985 12.6792 28.5573 13.0381 28.5573 13.4791V22.4973C28.5573 22.9383 28.1984 23.2971 27.7574 23.2971H23.9515ZM28.5574 39.0305C28.5574 39.4715 28.1985 39.8304 27.7575 39.8304C27.3164 39.8304 26.9577 39.4715 26.9577 39.0305C26.9577 38.5894 27.3165 38.2306 27.7575 38.2306C28.1985 38.2306 28.5574 38.5895 28.5574 39.0305ZM35.2726 32.2185C35.7137 32.2185 36.0726 32.5773 36.0726 33.0183C36.0726 33.4593 35.7137 33.8182 35.2726 33.8182C34.8315 33.8182 34.4727 33.4593 34.4727 33.0183C34.4727 32.5773 34.8315 32.2185 35.2726 32.2185Z" fill="black"/>
</svg>
