<svg width="516" height="500" viewBox="0 0 516 500" fill="none" xmlns="http://www.w3.org/2000/svg">
<g opacity="0.2">
<g clip-path="url(#clip0)">
<path d="M-10.6627 162.299C-8.33807 159.975 -4.53418 159.975 -2.20958 162.299C0.115025 164.624 0.115025 168.428 -2.20958 170.752C-4.53418 173.077 -8.33807 173.077 -10.6627 170.752C-12.9873 168.428 -12.9873 164.624 -10.6627 162.299Z" fill="#BABBCD"/>
<path d="M166.852 411.454H-322.793L-426.977 307.27H-506.225L-531.795 333.052L-534.12 330.727L-507.493 304.1H-425.709L-321.525 408.284H165.373L261.527 312.13H420.445V315.3H262.795L166.852 411.454Z" fill="#BABBCD"/>
<path d="M420.022 319.738C423.29 319.738 425.939 317.089 425.939 313.821C425.939 310.553 423.29 307.904 420.022 307.904C416.754 307.904 414.105 310.553 414.105 313.821C414.105 317.089 416.754 319.738 420.022 319.738Z" fill="#BABBCD"/>
<path d="M-221.567 411.031L-223.892 408.707L-166.834 351.648H97.5367L166.641 282.756H375.221V285.926H167.909L99.016 354.818H-165.566L-221.567 411.031Z" fill="#BABBCD"/>
<path d="M374.798 290.364C378.179 290.364 380.715 287.616 380.715 284.446C380.715 281.065 377.968 278.529 374.798 278.529C371.417 278.529 368.881 281.277 368.881 284.446C368.881 287.616 371.628 290.364 374.798 290.364Z" fill="#BABBCD"/>
<path d="M-242.489 352.705H-380.908V349.535H-243.757L-181.626 287.405H54.6373L144.451 197.38H481.518V200.55H145.931L55.9053 290.575H-180.147L-242.489 352.705Z" fill="#BABBCD"/>
<path d="M481.095 204.987C484.477 204.987 487.013 202.24 487.013 199.07C487.013 195.689 484.265 193.153 481.095 193.153C477.714 193.153 475.178 195.9 475.178 199.07C475.178 202.24 477.926 204.987 481.095 204.987Z" fill="#BABBCD"/>
<path d="M-261.719 325.444H-408.169V322.274H-262.987L-208.042 267.54H4.55292V270.71H-206.774L-261.719 325.444Z" fill="#BABBCD"/>
<path d="M4.13025 275.148C7.51147 275.148 10.0474 272.401 10.0474 269.231C10.0474 266.061 7.30015 263.314 4.13025 263.314C0.960353 263.314 -1.78687 266.061 -1.78687 269.231C-1.78687 272.401 0.960353 275.148 4.13025 275.148Z" fill="#BABBCD"/>
<path d="M-232.345 228.445L-234.458 226.12L-167.467 159.13H-50.3923L-10.0288 118.555H321.966V121.725H-8.76082L-49.1243 162.299H-166.2L-232.345 228.445Z" fill="#BABBCD"/>
<path d="M321.755 126.162C325.023 126.162 327.672 123.513 327.672 120.245C327.672 116.977 325.023 114.328 321.755 114.328C318.487 114.328 315.838 116.977 315.838 120.245C315.838 123.513 318.487 126.162 321.755 126.162Z" fill="#BABBCD"/>
<path d="M97.3254 248.732H30.9687L3.28479 221.048L5.6094 218.935L32.2366 245.562H97.3254V248.732Z" fill="#BABBCD"/>
<path d="M8.99062 215.976C6.66602 213.652 2.86212 213.652 0.537519 215.976C-1.78708 218.301 -1.78708 222.105 0.537519 224.429C2.86212 226.754 6.66602 226.754 8.99062 224.429C11.3152 222.105 11.3152 218.301 8.99062 215.976Z" fill="#BABBCD"/>
<path d="M89.929 316.568H-48.2789L-74.2722 290.575L-71.9475 288.25L-46.7996 313.398H88.6611L174.46 227.388H299.354V230.558H175.728L89.929 316.568Z" fill="#BABBCD"/>
<path d="M299.143 234.996C302.524 234.996 305.06 232.249 305.06 229.079C305.06 225.698 302.313 223.162 299.143 223.162C295.762 223.162 293.226 225.909 293.226 229.079C293.226 232.249 295.973 234.996 299.143 234.996Z" fill="#BABBCD"/>
<path d="M151.003 388.842H-81.0347L-115.27 354.396L-113.156 352.283L-79.5554 385.672H149.523L208.906 326.289L211.231 328.403L151.003 388.842Z" fill="#BABBCD"/>
<path d="M214.189 331.784C216.514 329.459 216.514 325.655 214.189 323.331C211.865 321.006 208.061 321.006 205.736 323.331C203.412 325.655 203.412 329.459 205.736 331.784C208.061 334.108 211.865 334.108 214.189 331.784Z" fill="#BABBCD"/>
<path d="M245.254 158.284H68.1622L31.6027 121.724L33.9273 119.4L69.6416 155.114H245.254V158.284Z" fill="#BABBCD"/>
<path d="M244.832 162.511C248.1 162.511 250.749 159.861 250.749 156.593C250.749 153.325 248.1 150.676 244.832 150.676C241.564 150.676 238.915 153.325 238.915 156.593C238.915 159.861 241.564 162.511 244.832 162.511Z" fill="#BABBCD"/>
<path d="M264.485 199.704L262.161 197.38L287.52 172.021H423.826V175.19H288.788L264.485 199.704Z" fill="#BABBCD"/>
<path d="M423.403 179.628C426.784 179.628 429.32 176.881 429.32 173.711C429.32 170.541 426.573 167.794 423.403 167.794C420.022 167.794 417.486 170.541 417.486 173.711C417.486 176.881 420.233 179.628 423.403 179.628Z" fill="#BABBCD"/>
<path d="M466.937 292.054L436.717 261.623H237.224L205.736 230.135L207.85 227.811L238.492 258.453H437.985L469.261 289.73L466.937 292.054Z" fill="#BABBCD"/>
<path d="M463.767 294.802C466.091 297.126 469.895 297.126 472.22 294.802C474.544 292.477 474.544 288.673 472.22 286.348C469.895 284.024 466.091 284.024 463.767 286.348C461.442 288.673 461.442 292.477 463.767 294.802Z" fill="#BABBCD"/>
<path d="M365.922 112.638L346.269 92.9842H127.757L97.5368 62.7644H-31.5841L-81.4573 112.638L-83.7819 110.313L-32.852 59.5945H99.0161L129.236 89.8143H347.537L368.247 110.524L365.922 112.638Z" fill="#BABBCD"/>
<path d="M362.752 115.596C365.077 117.921 368.881 117.921 371.205 115.596C373.53 113.272 373.53 109.468 371.205 107.143C368.881 104.819 365.077 104.819 362.752 107.143C360.428 109.468 360.428 113.272 362.752 115.596Z" fill="#BABBCD"/>
<path d="M89.295 205.199L77.2494 193.364H-31.7955V190.194H78.5173L91.4083 202.874L89.295 205.199Z" fill="#BABBCD"/>
<path d="M85.9138 208.157C88.2384 210.482 92.0423 210.482 94.3668 208.157C96.6914 205.833 96.6914 202.029 94.3668 199.704C92.0423 197.38 88.2384 197.38 85.9138 199.704C83.5892 202.029 83.5892 205.833 85.9138 208.157Z" fill="#BABBCD"/>
<path d="M80.8418 334.742H-8.9722L-28.2029 315.723L-25.8783 313.398L-7.70422 331.572H80.8418V334.742Z" fill="#BABBCD"/>
<path d="M80.6305 339.18C84.0117 339.18 86.5476 336.433 86.5476 333.263C86.5476 330.093 83.8004 327.346 80.6305 327.346C77.2492 327.346 74.7133 330.093 74.7133 333.263C74.7133 336.433 77.2492 339.18 80.6305 339.18Z" fill="#BABBCD"/>
<path d="M94.7896 92.1387H31.814L1.80554 62.3415L4.13016 60.2283L33.082 88.9688H94.7896V92.1387Z" fill="#BABBCD"/>
<path d="M94.3669 96.5768C97.7482 96.5768 100.284 93.8295 100.284 90.6596C100.284 87.4897 97.5368 84.7424 94.3669 84.7424C90.9857 84.7424 88.4497 87.4897 88.4497 90.6596C88.4497 93.8295 91.197 96.5768 94.3669 96.5768Z" fill="#BABBCD"/>
<path d="M154.806 336.222H117.824V333.052H153.539L185.026 301.564H239.549V304.734H186.294L154.806 336.222Z" fill="#BABBCD"/>
<path d="M239.337 308.96C242.605 308.96 245.254 306.311 245.254 303.043C245.254 299.775 242.605 297.126 239.337 297.126C236.069 297.126 233.42 299.775 233.42 303.043C233.42 306.311 236.069 308.96 239.337 308.96Z" fill="#BABBCD"/>
<path d="M222.22 177.515H143.183L123.953 158.284L126.066 155.959L144.663 174.345H222.22V177.515Z" fill="#BABBCD"/>
<path d="M222.008 181.953C225.39 181.953 227.925 179.205 227.925 176.036C227.925 172.654 225.178 170.118 222.008 170.118C218.627 170.118 216.091 172.866 216.091 176.036C216.091 179.417 218.627 181.953 222.008 181.953Z" fill="#BABBCD"/>
<path d="M220.529 500H-178.034L-266.369 411.665L-264.044 409.341L-176.555 496.83H219.261L280.757 435.334H488.915L511.527 457.946L509.413 460.059L487.647 438.504H282.025L220.529 500Z" fill="#BABBCD"/>
<path d="M506.032 463.018C508.357 465.342 512.161 465.342 514.485 463.018C516.81 460.693 516.81 456.889 514.485 454.565C512.161 452.24 508.357 452.24 506.032 454.565C503.707 456.889 503.707 460.693 506.032 463.018Z" fill="#BABBCD"/>
<path d="M236.167 444.844H51.6788L17.8665 411.243L20.1911 408.918L52.9468 441.674H234.899L301.89 374.683L304.215 377.008L236.167 444.844Z" fill="#BABBCD"/>
<path d="M307.173 380.178C309.498 377.853 309.498 374.049 307.173 371.725C304.849 369.4 301.045 369.4 298.72 371.725C296.396 374.049 296.396 377.853 298.72 380.178C301.045 382.502 304.849 382.502 307.173 380.178Z" fill="#BABBCD"/>
<path d="M259.202 381.657H196.015V378.487H257.934L292.169 344.252H359.794V347.422H293.437L259.202 381.657Z" fill="#BABBCD"/>
<path d="M359.371 351.648C362.639 351.648 365.288 348.999 365.288 345.731C365.288 342.463 362.639 339.814 359.371 339.814C356.103 339.814 353.454 342.463 353.454 345.731C353.454 348.999 356.103 351.648 359.371 351.648Z" fill="#BABBCD"/>
<path d="M343.733 438.293L341.408 435.968L382.406 394.971H424.248V398.141H383.885L343.733 438.293Z" fill="#BABBCD"/>
<path d="M424.037 402.367C427.418 402.367 429.954 399.62 429.954 396.45C429.954 393.069 427.207 390.533 424.037 390.533C420.656 390.533 418.12 393.28 418.12 396.45C418.12 399.831 420.656 402.367 424.037 402.367Z" fill="#BABBCD"/>
<path d="M138.957 469.992H12.7946L-45.9543 411.031L-43.8411 408.918L14.0626 466.822H138.957V469.992Z" fill="#BABBCD"/>
<path d="M138.746 474.218C142.127 474.218 144.663 471.471 144.663 468.301C144.663 465.131 141.916 462.384 138.746 462.384C135.364 462.384 132.828 465.131 132.828 468.301C132.828 471.471 135.364 474.218 138.746 474.218Z" fill="#BABBCD"/>
<path d="M179.32 92.3502L176.996 90.0256L225.601 41.4203H430.166L466.937 4.64941L469.261 6.97401L431.645 44.5902H227.08L179.32 92.3502Z" fill="#BABBCD"/>
<path d="M472.22 10.1438C474.544 7.8192 474.544 4.01531 472.22 1.69071C469.895 -0.633884 466.091 -0.633884 463.767 1.69071C461.442 4.01531 461.442 7.8192 463.767 10.1438C466.091 12.4684 469.895 12.4684 472.22 10.1438Z" fill="#BABBCD"/>
</g>
</g>
<defs>
<clipPath id="clip0">
<rect width="516" height="500" fill="white"/>
</clipPath>
</defs>
</svg>
