<svg width="516" height="500" viewBox="0 0 516 500" fill="none" xmlns="http://www.w3.org/2000/svg">
<g opacity="0.2">
<g clip-path="url(#clip0)">
<path d="M526.663 162.299C524.338 159.975 520.534 159.975 518.209 162.299C515.885 164.624 515.885 168.428 518.209 170.752C520.534 173.077 524.338 173.077 526.663 170.752C528.987 168.428 528.987 164.624 526.663 162.299Z" fill="#BABBCD"/>
<path d="M349.148 411.454H838.793L942.977 307.27H1022.22L1047.8 333.052L1050.12 330.727L1023.49 304.1H941.709L837.525 408.284H350.627L254.473 312.13H95.5554V315.3H253.205L349.148 411.454Z" fill="#BABBCD"/>
<path d="M95.9781 319.738C92.7102 319.738 90.0609 317.089 90.0609 313.821C90.0609 310.553 92.7102 307.904 95.9781 307.904C99.2461 307.904 101.895 310.553 101.895 313.821C101.895 317.089 99.2461 319.738 95.9781 319.738Z" fill="#BABBCD"/>
<path d="M737.567 411.031L739.892 408.707L682.834 351.648H418.463L349.359 282.756H140.779V285.926H348.091L416.984 354.818H681.566L737.567 411.031Z" fill="#BABBCD"/>
<path d="M141.202 290.364C137.821 290.364 135.285 287.616 135.285 284.446C135.285 281.065 138.032 278.529 141.202 278.529C144.583 278.529 147.119 281.277 147.119 284.446C147.119 287.616 144.372 290.364 141.202 290.364Z" fill="#BABBCD"/>
<path d="M758.489 352.705H896.908V349.535H759.757L697.626 287.405H461.363L371.549 197.38H34.482V200.55H370.069L460.095 290.575H696.147L758.489 352.705Z" fill="#BABBCD"/>
<path d="M34.9046 204.987C31.5234 204.987 28.9875 202.24 28.9875 199.07C28.9875 195.689 31.7348 193.153 34.9046 193.153C38.2858 193.153 40.8218 195.9 40.8218 199.07C40.8218 202.24 38.0745 204.987 34.9046 204.987Z" fill="#BABBCD"/>
<path d="M777.719 325.444H924.169V322.274H778.987L724.042 267.54H511.447V270.71H722.774L777.719 325.444Z" fill="#BABBCD"/>
<path d="M511.87 275.148C508.488 275.148 505.953 272.401 505.953 269.231C505.953 266.061 508.7 263.314 511.87 263.314C515.04 263.314 517.787 266.061 517.787 269.231C517.787 272.401 515.04 275.148 511.87 275.148Z" fill="#BABBCD"/>
<path d="M748.345 228.445L750.458 226.12L683.468 159.13H566.392L526.029 118.555H194.034V121.725H524.761L565.124 162.299H682.2L748.345 228.445Z" fill="#BABBCD"/>
<path d="M194.245 126.162C190.977 126.162 188.328 123.513 188.328 120.245C188.328 116.977 190.977 114.328 194.245 114.328C197.513 114.328 200.162 116.977 200.162 120.245C200.162 123.513 197.513 126.162 194.245 126.162Z" fill="#BABBCD"/>
<path d="M418.675 248.732H485.031L512.715 221.048L510.391 218.935L483.763 245.562H418.675V248.732Z" fill="#BABBCD"/>
<path d="M507.009 215.976C509.334 213.652 513.138 213.652 515.462 215.976C517.787 218.301 517.787 222.105 515.462 224.429C513.138 226.754 509.334 226.754 507.009 224.429C504.685 222.105 504.685 218.301 507.009 215.976Z" fill="#BABBCD"/>
<path d="M426.071 316.568H564.279L590.272 290.575L587.948 288.25L562.8 313.398H427.339L341.54 227.388H216.646V230.558H340.272L426.071 316.568Z" fill="#BABBCD"/>
<path d="M216.857 234.996C213.476 234.996 210.94 232.249 210.94 229.079C210.94 225.698 213.687 223.162 216.857 223.162C220.238 223.162 222.774 225.909 222.774 229.079C222.774 232.249 220.027 234.996 216.857 234.996Z" fill="#BABBCD"/>
<path d="M364.997 388.842H597.035L631.27 354.396L629.156 352.283L595.555 385.672H366.477L307.094 326.289L304.769 328.403L364.997 388.842Z" fill="#BABBCD"/>
<path d="M301.811 331.784C299.486 329.459 299.486 325.655 301.811 323.331C304.135 321.006 307.939 321.006 310.264 323.331C312.588 325.655 312.588 329.459 310.264 331.784C307.939 334.108 304.135 334.108 301.811 331.784Z" fill="#BABBCD"/>
<path d="M270.746 158.284H447.838L484.397 121.724L482.073 119.4L446.358 155.114H270.746V158.284Z" fill="#BABBCD"/>
<path d="M271.168 162.511C267.9 162.511 265.251 159.861 265.251 156.593C265.251 153.325 267.9 150.676 271.168 150.676C274.436 150.676 277.085 153.325 277.085 156.593C277.085 159.861 274.436 162.511 271.168 162.511Z" fill="#BABBCD"/>
<path d="M251.515 199.704L253.839 197.38L228.48 172.021H92.1742V175.19H227.212L251.515 199.704Z" fill="#BABBCD"/>
<path d="M92.5969 179.628C89.2157 179.628 86.6797 176.881 86.6797 173.711C86.6797 170.541 89.427 167.794 92.5969 167.794C95.9781 167.794 98.514 170.541 98.514 173.711C98.514 176.881 95.7668 179.628 92.5969 179.628Z" fill="#BABBCD"/>
<path d="M49.0634 292.054L79.2831 261.623H278.776L310.264 230.135L308.15 227.811L277.508 258.453H78.0152L46.7388 289.73L49.0634 292.054Z" fill="#BABBCD"/>
<path d="M52.2334 294.802C49.9088 297.126 46.1049 297.126 43.7803 294.802C41.4557 292.477 41.4557 288.673 43.7803 286.348C46.1049 284.024 49.9088 284.024 52.2334 286.348C54.558 288.673 54.558 292.477 52.2334 294.802Z" fill="#BABBCD"/>
<path d="M150.078 112.638L169.731 92.9842H388.243L418.463 62.7644H547.584L597.457 112.638L599.782 110.313L548.852 59.5945H416.984L386.764 89.8143H168.463L147.753 110.524L150.078 112.638Z" fill="#BABBCD"/>
<path d="M153.248 115.596C150.923 117.921 147.119 117.921 144.795 115.596C142.47 113.272 142.47 109.468 144.795 107.143C147.119 104.819 150.923 104.819 153.248 107.143C155.572 109.468 155.572 113.272 153.248 115.596Z" fill="#BABBCD"/>
<path d="M426.705 205.199L438.751 193.364H547.795V190.194H437.483L424.592 202.874L426.705 205.199Z" fill="#BABBCD"/>
<path d="M430.086 208.157C427.762 210.482 423.958 210.482 421.633 208.157C419.309 205.833 419.309 202.029 421.633 199.704C423.958 197.38 427.762 197.38 430.086 199.704C432.411 202.029 432.411 205.833 430.086 208.157Z" fill="#BABBCD"/>
<path d="M435.158 334.742H524.972L544.203 315.723L541.878 313.398L523.704 331.572H435.158V334.742Z" fill="#BABBCD"/>
<path d="M435.369 339.18C431.988 339.18 429.452 336.433 429.452 333.263C429.452 330.093 432.2 327.346 435.369 327.346C438.751 327.346 441.287 330.093 441.287 333.263C441.287 336.433 438.751 339.18 435.369 339.18Z" fill="#BABBCD"/>
<path d="M421.21 92.1387H484.186L514.194 62.3415L511.87 60.2283L482.918 88.9688H421.21V92.1387Z" fill="#BABBCD"/>
<path d="M421.633 96.5768C418.252 96.5768 415.716 93.8295 415.716 90.6596C415.716 87.4897 418.463 84.7424 421.633 84.7424C425.014 84.7424 427.55 87.4897 427.55 90.6596C427.55 93.8295 424.803 96.5768 421.633 96.5768Z" fill="#BABBCD"/>
<path d="M361.194 336.222H398.176V333.052H362.461L330.974 301.564H276.451V304.734H329.706L361.194 336.222Z" fill="#BABBCD"/>
<path d="M276.663 308.96C273.395 308.96 270.745 306.311 270.745 303.043C270.745 299.775 273.395 297.126 276.663 297.126C279.931 297.126 282.58 299.775 282.58 303.043C282.58 306.311 279.931 308.96 276.663 308.96Z" fill="#BABBCD"/>
<path d="M293.78 177.515H372.817L392.047 158.284L389.934 155.959L371.337 174.345H293.78V177.515Z" fill="#BABBCD"/>
<path d="M293.992 181.953C290.61 181.953 288.074 179.205 288.074 176.036C288.074 172.654 290.822 170.118 293.992 170.118C297.373 170.118 299.909 172.866 299.909 176.036C299.909 179.417 297.373 181.953 293.992 181.953Z" fill="#BABBCD"/>
<path d="M295.471 500H694.034L782.369 411.665L780.044 409.341L692.555 496.83H296.739L235.243 435.334H27.0855L4.47351 457.946L6.58679 460.059L28.3535 438.504H233.975L295.471 500Z" fill="#BABBCD"/>
<path d="M9.96797 463.018C7.64335 465.342 3.83944 465.342 1.51482 463.018C-0.809791 460.693 -0.809791 456.889 1.51482 454.565C3.83944 452.24 7.64335 452.24 9.96797 454.565C12.2926 456.889 12.2926 460.693 9.96797 463.018Z" fill="#BABBCD"/>
<path d="M279.833 444.844H464.321L498.134 411.243L495.809 408.918L463.053 441.674H281.101L214.11 374.683L211.785 377.008L279.833 444.844Z" fill="#BABBCD"/>
<path d="M208.827 380.178C206.502 377.853 206.502 374.049 208.827 371.725C211.151 369.4 214.955 369.4 217.28 371.725C219.604 374.049 219.604 377.853 217.28 380.178C214.955 382.502 211.151 382.502 208.827 380.178Z" fill="#BABBCD"/>
<path d="M256.798 381.657H319.985V378.487H258.066L223.831 344.252H156.206V347.422H222.563L256.798 381.657Z" fill="#BABBCD"/>
<path d="M156.629 351.648C153.361 351.648 150.712 348.999 150.712 345.731C150.712 342.463 153.361 339.814 156.629 339.814C159.897 339.814 162.546 342.463 162.546 345.731C162.546 348.999 159.897 351.648 156.629 351.648Z" fill="#BABBCD"/>
<path d="M172.267 438.293L174.592 435.968L133.594 394.971H91.7516V398.141H132.115L172.267 438.293Z" fill="#BABBCD"/>
<path d="M91.9629 402.367C88.5817 402.367 86.0458 399.62 86.0458 396.45C86.0458 393.069 88.793 390.533 91.9629 390.533C95.3442 390.533 97.8801 393.28 97.8801 396.45C97.8801 399.831 95.3442 402.367 91.9629 402.367Z" fill="#BABBCD"/>
<path d="M377.043 469.992H503.205L561.954 411.031L559.841 408.918L501.937 466.822H377.043V469.992Z" fill="#BABBCD"/>
<path d="M377.254 474.218C373.873 474.218 371.337 471.471 371.337 468.301C371.337 465.131 374.084 462.384 377.254 462.384C380.636 462.384 383.172 465.131 383.172 468.301C383.172 471.471 380.636 474.218 377.254 474.218Z" fill="#BABBCD"/>
<path d="M336.68 92.3502L339.004 90.0256L290.399 41.4203H85.8342L49.0633 4.64941L46.7387 6.97401L84.355 44.5902H288.92L336.68 92.3502Z" fill="#BABBCD"/>
<path d="M43.7801 10.1438C41.4555 7.8192 41.4555 4.01531 43.7801 1.69071C46.1047 -0.633884 49.9086 -0.633884 52.2332 1.69071C54.5578 4.01531 54.5578 7.8192 52.2332 10.1438C49.9086 12.4684 46.1047 12.4684 43.7801 10.1438Z" fill="#BABBCD"/>
</g>
</g>
<defs>
<clipPath id="clip0">
<rect width="516" height="500" transform="matrix(-1 0 0 1 516 0)" fill="white"/>
</clipPath>
</defs>
</svg>
