<svg width="80" height="80" viewBox="0 0 80 80" fill="none" xmlns="http://www.w3.org/2000/svg">
<path d="M42.764 18.6011H40.5667V16.4038H42.764V18.6011ZM39.1019 18.6011H36.9046V16.4038H39.1019V18.6011Z" fill="#4A321F"/>
<path d="M71.6521 75.2639H8.01746V27.4038H5.82019V77.4612H73.8494V27.4038H71.6521V75.2639Z" fill="#4A321F"/>
<path d="M25.2407 18.6012L27.0279 16.8137V4.24805L25.2407 2.46094H20.3601L18.5725 4.24805V16.8137L20.3601 18.6012H25.2407ZM20.7698 5.15808L21.2697 4.6582H24.3307L24.8306 5.15808V15.9036L24.3307 16.404H21.2697L20.7698 15.9036V5.15808Z" fill="#4A321F"/>
<path d="M59.3094 18.6012L61.0969 16.8137V4.24805L59.3094 2.46094H54.4287L52.6416 4.24805V16.8137L54.4287 18.6012H59.3094ZM54.8389 5.15808L55.3387 4.6582H58.3998L58.8997 5.15808V15.9036L58.3998 16.404H55.3387L54.8389 15.9036V5.15808Z" fill="#4A321F"/>
<path d="M62.928 9.43213V11.6294H71.6521V23.3751H8.01746V11.6294H16.7415V9.43213H5.82019V25.5724H73.8494V9.43213H62.928Z" fill="#4A321F"/>
<path d="M28.8589 9.43213H50.8105V11.6294H28.8589V9.43213Z" fill="#4A321F"/>
<path d="M52.767 31.4775L34.5192 49.7249L26.9024 42.1082L18.0717 50.9389L34.5187 67.3859L61.5973 40.3083L52.767 31.4775ZM21.1795 50.9389L26.9024 45.2159L34.5192 52.8327L52.767 34.5848L58.49 40.3083L34.5192 64.2791L21.1795 50.9389Z" fill="#4A321F"/>
</svg>
