<svg width="34" height="36" viewBox="0 0 34 36" fill="none" xmlns="http://www.w3.org/2000/svg">
<path fill-rule="evenodd" clip-rule="evenodd" d="M7.49834 7.93934C6.9451 8.52513 6.9451 9.47487 7.49834 10.0607L24.4983 28.0607C25.0516 28.6464 25.9486 28.6464 26.5018 28.0607C27.0551 27.4749 27.0551 26.5251 26.5018 25.9393L9.50181 7.93934C8.94857 7.35355 8.05159 7.35355 7.49834 7.93934Z" fill="#4A321F"/>
<path fill-rule="evenodd" clip-rule="evenodd" d="M26.5018 7.93934C25.9486 7.35355 25.0516 7.35355 24.4983 7.93934L7.49834 25.9393C6.9451 26.5251 6.9451 27.4749 7.49834 28.0607C8.05159 28.6464 8.94857 28.6464 9.50181 28.0607L26.5018 10.0607C27.0551 9.47487 27.0551 8.52513 26.5018 7.93934Z" fill="#4A321F"/>
</svg>
