<svg width="598" height="530" viewBox="0 0 598 530" fill="none" xmlns="http://www.w3.org/2000/svg">
<g opacity="0.25">
<path d="M148.542 186.887C148.542 185.661 147.469 184.588 146.243 184.588C145.016 184.588 143.943 185.661 143.943 186.887C143.943 187.961 144.556 188.727 145.476 189.034V206.818L176.441 239.78H352.576L374.344 218.01V173.703C375.264 173.396 375.877 172.476 375.877 171.556C375.877 170.33 374.804 169.257 373.578 169.257C372.351 169.257 371.278 170.33 371.278 171.556C371.278 172.629 371.891 173.396 372.811 173.703V217.397L351.963 238.247H177.055L147.009 206.205V189.034C147.929 188.727 148.542 187.807 148.542 186.887Z" fill="white"/>
<path d="M284.207 265.996H200.815C200.509 265.077 199.589 264.463 198.669 264.463C197.443 264.463 196.37 265.537 196.37 266.763C196.37 267.99 197.443 269.063 198.669 269.063C199.742 269.063 200.509 268.449 200.815 267.53H284.207V265.996Z" fill="white"/>
<path d="M334.641 166.65C336.327 166.65 337.707 165.27 337.707 163.584C337.707 161.898 336.327 160.518 334.641 160.518C333.261 160.518 332.035 161.438 331.728 162.818H247.263C246.957 161.438 245.73 160.518 244.351 160.518C242.664 160.518 241.285 161.898 241.285 163.584C241.285 165.27 242.664 166.65 244.351 166.65C245.73 166.65 246.957 165.73 247.263 164.351H331.728C332.035 165.73 333.261 166.65 334.641 166.65ZM334.641 162.051C335.561 162.051 336.174 162.664 336.174 163.584C336.174 164.504 335.561 165.117 334.641 165.117C333.721 165.117 333.108 164.504 333.108 163.584C333.108 162.818 333.874 162.051 334.641 162.051ZM244.197 165.117C243.278 165.117 242.664 164.504 242.664 163.584C242.664 162.664 243.278 162.051 244.197 162.051C245.117 162.051 245.73 162.664 245.73 163.584C245.73 164.504 245.117 165.117 244.197 165.117Z" fill="white"/>
<path d="M331.882 265.996V267.53H361.007L378.636 249.899C378.943 250.052 379.249 250.052 379.556 250.052C380.782 250.052 381.855 248.979 381.855 247.752C381.855 246.526 380.782 245.453 379.556 245.453C378.33 245.453 377.257 246.526 377.257 247.752C377.257 248.059 377.41 248.366 377.563 248.672L360.394 265.843H331.882V265.996Z" fill="white"/>
<path d="M390.747 203.752C390.747 204.978 391.82 206.051 393.046 206.051C394.272 206.051 395.345 204.978 395.345 203.752C395.345 202.679 394.732 201.912 393.812 201.605V148.866H222.43C222.123 147.946 221.203 147.333 220.284 147.333C219.057 147.333 217.984 148.406 217.984 149.633C217.984 150.859 219.057 151.932 220.284 151.932C221.357 151.932 222.123 151.319 222.43 150.399H392.279V201.452C391.36 201.912 390.747 202.679 390.747 203.752Z" fill="white"/>
<path d="M173.835 245.913H355.182L380.476 220.616V189.034C381.396 188.727 382.009 187.807 382.009 186.887C382.009 185.661 380.936 184.588 379.709 184.588C378.483 184.588 377.41 185.661 377.41 186.887C377.41 187.961 378.023 188.727 378.943 189.034V219.85L354.569 244.226H174.449L140.877 208.504V173.549C141.797 173.243 142.41 172.323 142.41 171.403C142.41 170.176 141.337 169.103 140.111 169.103C138.884 169.103 137.811 170.176 137.811 171.403C137.811 172.476 138.425 173.243 139.344 173.549V209.118L173.835 245.913Z" fill="white"/>
<path d="M310.727 192.56C311.953 192.56 313.026 191.487 313.026 190.26C313.026 189.034 311.953 187.961 310.727 187.961C309.654 187.961 308.887 188.574 308.581 189.494H228.255L217.064 178.302H210.319C210.013 177.382 209.093 176.769 208.173 176.769C206.947 176.769 205.874 177.842 205.874 179.069C205.874 180.295 206.947 181.368 208.173 181.368C209.246 181.368 210.013 180.755 210.319 179.835H216.451L227.642 191.027H308.581C308.887 191.947 309.654 192.56 310.727 192.56Z" fill="white"/>
<path d="M190.238 185.661C189.012 185.661 187.938 186.734 187.938 187.961C187.938 189.187 189.012 190.26 190.238 190.26C190.544 190.26 190.851 190.107 191.158 190.107L207.1 206.051H286.047C286.353 206.971 287.273 207.585 288.193 207.585C289.419 207.585 290.492 206.511 290.492 205.285C290.492 204.058 289.419 202.985 288.193 202.985C287.12 202.985 286.353 203.598 286.047 204.518H207.713L192.231 189.034C192.384 188.727 192.384 188.421 192.384 188.114C192.537 186.581 191.464 185.661 190.238 185.661Z" fill="white"/>
<path d="M326.056 186.427C327.283 186.427 328.356 185.354 328.356 184.128C328.356 182.901 327.283 181.828 326.056 181.828C324.983 181.828 324.217 182.441 323.91 183.361H230.708L219.517 172.169H187.632C187.325 171.25 186.406 170.636 185.486 170.636C184.259 170.636 183.186 171.71 183.186 172.936C183.186 174.163 184.259 175.236 185.486 175.236C186.559 175.236 187.325 174.622 187.632 173.703H218.904L230.094 184.894H323.91C324.217 185.814 324.983 186.427 326.056 186.427Z" fill="white"/>
<path d="M210.166 167.417H221.356L232.547 178.609H308.427C308.734 179.529 309.654 180.142 310.574 180.142C311.8 180.142 312.873 179.069 312.873 177.842C312.873 176.616 311.8 175.542 310.574 175.542C309.501 175.542 308.734 176.156 308.427 177.076H233.16L221.97 165.884H210.166C209.859 164.964 208.94 164.351 208.02 164.351C206.794 164.351 205.72 165.424 205.72 166.65C205.72 167.877 206.794 168.95 208.02 168.95C209.093 168.95 209.859 168.337 210.166 167.417Z" fill="white"/>
<path d="M154.674 171.556C154.674 170.33 153.601 169.257 152.374 169.257C151.148 169.257 150.075 170.33 150.075 171.556C150.075 172.629 150.688 173.396 151.608 173.703V204.365L179.047 233.648H349.97L368.059 215.557V189.034C368.979 188.727 369.592 187.807 369.592 186.887C369.592 185.661 368.519 184.588 367.293 184.588C366.066 184.588 364.993 185.661 364.993 186.887C364.993 187.961 365.606 188.727 366.526 189.034V214.79L349.51 232.115H179.814L153.294 203.752V173.703C154.06 173.396 154.674 172.476 154.674 171.556Z" fill="white"/>
<path d="M386.607 223.069V173.703C387.527 173.396 388.14 172.476 388.14 171.556C388.14 170.33 387.067 169.257 385.841 169.257C384.615 169.257 383.542 170.33 383.542 171.556C383.542 172.629 384.155 173.396 385.075 173.703V222.456L357.022 250.512H171.843L134.745 211.111V189.034C135.665 188.727 136.278 187.807 136.278 186.887C136.278 185.661 135.205 184.588 133.979 184.588C132.753 184.588 131.68 185.661 131.68 186.887C131.68 187.961 132.293 188.727 133.213 189.034V211.724L171.076 252.045H357.635L386.607 223.069Z" fill="white"/>
<path d="M134.899 232.881C134.899 231.195 133.519 229.815 131.833 229.815C130.147 229.815 128.767 231.195 128.767 232.881C128.767 234.261 129.687 235.487 131.066 235.794V252.045H149.462C149.768 253.425 150.995 254.345 152.374 254.345C154.06 254.345 155.44 252.965 155.44 251.279C155.44 249.592 154.06 248.212 152.374 248.212C150.995 248.212 149.768 249.132 149.462 250.512H132.599V235.794C133.979 235.487 134.899 234.261 134.899 232.881ZM152.374 249.745C153.294 249.745 153.907 250.359 153.907 251.279C153.907 252.198 153.294 252.812 152.374 252.812C151.454 252.812 150.841 252.198 150.841 251.279C150.841 250.359 151.608 249.745 152.374 249.745ZM131.833 234.414C130.913 234.414 130.3 233.801 130.3 232.881C130.3 231.961 130.913 231.348 131.833 231.348C132.753 231.348 133.366 231.961 133.366 232.881C133.366 233.801 132.753 234.414 131.833 234.414Z" fill="white"/>
<path d="M434.129 239.014C434.129 237.787 433.056 236.714 431.829 236.714C430.603 236.714 429.53 237.787 429.53 239.014C429.53 239.32 429.683 239.627 429.836 239.933L373.118 296.659H331.882V298.192H373.731L430.756 241.16C431.063 241.313 431.369 241.313 431.676 241.313C433.056 241.313 434.129 240.24 434.129 239.014Z" fill="white"/>
<path d="M81.859 78.8024L81.5524 79.109C81.2458 78.9557 80.9392 78.9557 80.6327 78.9557C79.4063 78.9557 78.3333 80.0289 78.3333 81.2554C78.3333 82.4819 79.4063 83.5551 80.6327 83.5551C81.859 83.5551 82.9321 82.4819 82.9321 81.2554C82.9321 80.9488 82.7788 80.6422 82.7788 80.3355L83.0854 80.0289L81.859 78.8024Z" fill="white"/>
<path d="M77.5668 74.5097L73.7345 78.3425V87.5412L61.0111 100.266V110.385C60.0913 110.691 59.4781 111.611 59.4781 112.531C59.4781 113.758 60.5512 114.831 61.7776 114.831C63.0039 114.831 64.077 113.758 64.077 112.531C64.077 111.458 63.4638 110.691 62.544 110.385V101.033L75.2674 88.3078V79.109L78.6399 75.7362L77.5668 74.5097Z" fill="white"/>
<path d="M331.882 302.791V304.324H376.337L428.917 251.738C429.223 251.892 429.53 251.892 429.836 251.892C431.063 251.892 432.136 250.819 432.136 249.592C432.136 248.366 431.063 247.292 429.836 247.292C428.61 247.292 427.537 248.366 427.537 249.592C427.537 249.899 427.69 250.205 427.844 250.512L375.724 302.638H331.882V302.791Z" fill="white"/>
<path d="M437.501 251.738C437.808 251.892 438.114 251.892 438.421 251.892C439.647 251.892 440.72 250.819 440.72 249.592C440.72 248.366 439.647 247.292 438.421 247.292C437.195 247.292 436.121 248.366 436.121 249.592C436.121 249.899 436.275 250.205 436.428 250.512L378.176 308.771H331.882V310.304H378.79L437.501 251.738Z" fill="white"/>
<path d="M213.539 82.4819C214.765 82.4819 215.838 81.4087 215.838 80.1822C215.838 78.9557 214.765 77.8826 213.539 77.8826C213.232 77.8826 212.925 78.0359 212.619 78.0359L198.976 64.3911H144.71L138.884 58.5652C139.038 58.2586 139.191 57.952 139.191 57.6454C139.191 56.4189 138.118 55.3457 136.892 55.3457C135.665 55.3457 134.592 56.4189 134.592 57.6454C134.592 58.8719 135.665 59.945 136.892 59.945C137.198 59.945 137.505 59.7917 137.811 59.7917L144.096 66.0775H198.362L211.546 79.2624C211.392 79.569 211.392 79.8756 211.392 80.1822C211.239 81.4087 212.312 82.4819 213.539 82.4819Z" fill="white"/>
<path d="M73.1213 70.2169L67.4494 75.8895V85.0882L50.2805 102.413V110.231C49.3607 110.538 48.7476 111.458 48.7476 112.378C48.7476 113.604 49.8206 114.677 51.047 114.677C52.2733 114.677 53.3464 113.604 53.3464 112.378C53.3464 111.305 52.7332 110.538 51.8134 110.231V103.026L69.289 85.5482V76.3494L74.501 71.1368L73.1213 70.2169Z" fill="white"/>
<path d="M115.124 39.0946H189.625C189.931 40.0145 190.851 40.6277 191.771 40.6277C192.997 40.6277 194.07 39.5545 194.07 38.328C194.07 37.1015 192.997 36.0284 191.771 36.0284C190.698 36.0284 189.931 36.6416 189.625 37.5615H114.511L111.292 40.781L112.365 41.8542L115.124 39.0946Z" fill="white"/>
<path d="M185.486 42.1608C184.259 42.1608 183.186 43.234 183.186 44.4605C183.186 45.687 184.259 46.7602 185.486 46.7602C186.559 46.7602 187.325 46.1469 187.632 45.2271H210.626L241.285 75.8895H320.078L356.409 39.5545H402.857C403.317 40.0144 403.93 40.3211 404.543 40.3211C405.769 40.3211 406.842 39.2479 406.842 38.0214C406.842 36.7949 405.769 35.7217 404.543 35.7217C403.317 35.7217 402.244 36.7949 402.244 38.0214H355.642L319.312 74.3564H241.898L211.239 43.6939H187.632C187.325 42.7741 186.559 42.1608 185.486 42.1608Z" fill="white"/>
<path d="M35.411 125.409H57.7919C58.0985 126.329 59.0183 126.942 59.938 126.942C61.1644 126.942 62.2374 125.869 62.2374 124.643C62.2374 123.416 61.1644 122.343 59.938 122.343C58.865 122.343 58.0985 122.956 57.7919 123.876H36.9439V109.158L63.0039 83.0951V73.8964L70.0554 66.8441L68.8291 65.9242L61.3177 73.4365V82.6352L35.2577 108.698V125.409H35.411Z" fill="white"/>
<path d="M203.115 39.0946H213.385L244.044 69.757H317.779L354.109 33.422H393.046C393.506 33.882 394.119 34.1886 394.732 34.1886C395.958 34.1886 397.031 33.1154 397.031 31.8889C397.031 30.6624 395.958 29.5892 394.732 29.5892C393.506 29.5892 392.433 30.6624 392.433 31.8889H353.496L317.165 68.2239H244.811L214.152 37.5615H203.268C202.961 36.6416 202.042 36.0283 201.122 36.0283C199.895 36.0283 198.822 37.1015 198.822 38.328C198.822 39.5545 199.895 40.6277 201.122 40.6277C201.888 40.6277 202.655 39.8611 203.115 39.0946Z" fill="white"/>
<path d="M95.6555 200.072V127.709C96.5752 127.402 97.1884 126.482 97.1884 125.563C97.1884 124.336 96.1154 123.263 94.889 123.263C93.6627 123.263 92.5896 124.336 92.5896 125.563C92.5896 126.636 93.2028 127.402 94.1225 127.709V198.539L95.6555 200.072Z" fill="white"/>
<path d="M159.273 189.034C160.192 188.727 160.805 187.807 160.805 186.887C160.805 185.661 159.732 184.588 158.506 184.588C157.28 184.588 156.207 185.661 156.207 186.887C156.207 187.961 156.82 188.727 157.74 189.034V202.065L181.653 227.515H347.518L362.081 212.951V173.703C363 173.396 363.613 172.476 363.613 171.556C363.613 170.33 362.54 169.257 361.314 169.257C360.088 169.257 359.015 170.33 359.015 171.556C359.015 172.629 359.628 173.396 360.548 173.703V212.337L346.904 225.982H182.42L159.273 201.452V189.034Z" fill="white"/>
<path d="M284.207 272.129H190.085C189.778 271.209 188.858 270.596 187.938 270.596C186.712 270.596 185.639 271.669 185.639 272.896C185.639 274.122 186.712 275.195 187.938 275.195C189.012 275.195 189.778 274.582 190.085 273.662H284.207V272.129Z" fill="white"/>
<path d="M331.882 273.662H363.613L398.258 239.014C398.564 239.167 398.871 239.167 399.178 239.167C400.404 239.167 401.477 238.094 401.477 236.867C401.477 235.641 400.404 234.568 399.178 234.568C397.951 234.568 396.878 235.641 396.878 236.867C396.878 237.174 397.032 237.48 397.185 237.787L363 271.976H331.882V273.662Z" fill="white"/>
<path d="M331.882 292.06H371.278L413.434 249.899C413.741 250.052 414.047 250.052 414.354 250.052C415.58 250.052 416.653 248.979 416.653 247.752C416.653 246.526 415.58 245.453 414.354 245.453C413.127 245.453 412.054 246.526 412.054 247.752C412.054 248.059 412.208 248.366 412.361 248.672L370.665 290.373H331.882V292.06Z" fill="white"/>
<path d="M331.882 279.795H366.219L395.345 250.665C395.652 250.819 395.958 250.819 396.265 250.819C397.491 250.819 398.564 249.745 398.564 248.519C398.564 247.292 397.491 246.219 396.265 246.219C395.039 246.219 393.966 247.292 393.966 248.519C393.966 248.826 394.119 249.132 394.119 249.439L365.453 278.108H331.882V279.795Z" fill="white"/>
<path d="M284.207 278.262H200.815C200.509 277.342 199.589 276.728 198.669 276.728C197.443 276.728 196.37 277.802 196.37 279.028C196.37 280.255 197.443 281.328 198.669 281.328C199.742 281.328 200.509 280.715 200.815 279.795H284.207V278.262Z" fill="white"/>
<path d="M46.2948 220.463C46.2948 221.689 47.3679 222.762 48.5942 222.762C49.514 222.762 50.4337 222.149 50.7403 221.383H71.435L70.5152 220.463L71.1284 219.85H50.7403C50.4337 218.93 49.514 218.163 48.5942 218.163C47.2146 218.163 46.2948 219.236 46.2948 220.463Z" fill="white"/>
<path d="M331.882 285.927H368.672L414.2 240.393C414.507 240.547 414.814 240.547 415.12 240.547C416.347 240.547 417.42 239.474 417.42 238.247C417.42 237.021 416.347 235.947 415.12 235.947C413.894 235.947 412.821 237.021 412.821 238.247C412.821 238.554 412.974 238.86 412.974 239.167L367.906 284.394H331.728V285.927H331.882Z" fill="white"/>
<path d="M112.518 32.9621H189.625C189.931 33.882 190.851 34.4952 191.771 34.4952C192.997 34.4952 194.07 33.4221 194.07 32.1956C194.07 30.9691 192.997 29.8959 191.771 29.8959C190.698 29.8959 189.931 30.5091 189.625 31.429H111.905L106.846 36.4883L107.919 37.5615L112.518 32.9621Z" fill="white"/>
<path d="M211.699 304.478C212.925 304.478 213.999 303.405 213.999 302.178C213.999 300.952 212.925 299.878 211.699 299.878C210.626 299.878 209.86 300.492 209.553 301.412H184.413V304.171C183.493 304.478 182.88 305.398 182.88 306.318C182.88 307.544 183.953 308.617 185.179 308.617C186.406 308.617 187.479 307.544 187.479 306.318C187.479 305.398 186.866 304.478 185.946 304.171V302.945H209.553C209.706 303.865 210.626 304.478 211.699 304.478Z" fill="white"/>
<path d="M211.699 293.746C210.626 293.746 209.86 294.359 209.553 295.279H178.281V304.171C177.361 304.478 176.748 305.398 176.748 306.318C176.748 307.544 177.821 308.617 179.047 308.617C180.274 308.617 181.347 307.544 181.347 306.318C181.347 305.398 180.734 304.478 179.814 304.171V296.812H209.553C209.86 297.732 210.779 298.345 211.699 298.345C212.925 298.345 213.999 297.272 213.999 296.046C213.999 294.819 212.925 293.746 211.699 293.746Z" fill="white"/>
<path d="M284.207 284.394H190.085C189.778 283.474 188.858 282.861 187.938 282.861C186.712 282.861 185.639 283.934 185.639 285.161C185.639 286.387 186.712 287.46 187.938 287.46C189.012 287.46 189.778 286.847 190.085 285.927H284.207V284.394Z" fill="white"/>
<path d="M30.0456 221.383C30.0456 220.156 28.9725 219.083 27.7462 219.083C26.5198 219.083 25.4468 220.156 25.4468 221.383C25.4468 222.456 26.06 223.222 26.9797 223.529V271.516L72.3547 316.896H135.359C135.665 317.816 136.585 318.429 137.505 318.429C138.731 318.429 139.804 317.356 139.804 316.13C139.804 314.903 138.731 313.83 137.505 313.83C136.432 313.83 135.665 314.443 135.359 315.363H72.9679L28.5127 270.902V223.529C29.4324 223.222 30.0456 222.303 30.0456 221.383Z" fill="white"/>
<path d="M36.1774 221.383C36.1774 220.156 35.1044 219.083 33.878 219.083C32.6517 219.083 31.5786 220.156 31.5786 221.383C31.5786 222.456 32.1918 223.222 33.1116 223.529V268.909L74.9608 310.764H132.906C133.213 311.684 134.132 312.297 135.052 312.297C136.278 312.297 137.352 311.224 137.352 309.997C137.352 308.771 136.278 307.697 135.052 307.697C133.979 307.697 133.213 308.311 132.906 309.231H75.574L34.6445 268.296V223.529C35.5643 223.222 36.1774 222.303 36.1774 221.383Z" fill="white"/>
<path d="M199.129 334.374C200.355 334.374 201.428 333.301 201.428 332.074C201.428 330.848 200.355 329.774 199.129 329.774C198.822 329.774 198.516 329.928 198.209 330.081L187.172 319.043H159.426L144.71 333.76H65.4565L10.1174 278.415V223.376C11.0372 223.069 11.6503 222.149 11.6503 221.229C11.6503 220.003 10.5773 218.93 9.35092 218.93C8.12457 218.93 7.05151 220.003 7.05151 221.229C7.05151 222.303 7.66469 223.069 8.58445 223.376V279.028L64.8434 335.294H145.629L160.346 320.576H186.712L197.289 331.154C197.136 331.461 197.136 331.767 197.136 332.074C196.83 333.454 197.903 334.374 199.129 334.374Z" fill="white"/>
<path d="M23.9139 221.383C23.9139 220.156 22.8408 219.083 21.6145 219.083C20.3881 219.083 19.3151 220.156 19.3151 221.383C19.3151 222.456 19.9282 223.222 20.848 223.529V274.122L69.9021 323.182H137.965C138.271 324.102 139.191 324.715 140.111 324.715C141.337 324.715 142.41 323.642 142.41 322.415C142.41 321.189 141.337 320.116 140.111 320.116C139.038 320.116 138.271 320.729 137.965 321.649H70.5153L22.3809 273.509V223.682C23.3007 223.222 23.9139 222.303 23.9139 221.383Z" fill="white"/>
<path d="M113.131 217.55L114.204 218.623L120.183 212.644V127.709C121.102 127.402 121.716 126.482 121.716 125.563C121.716 124.336 120.643 123.263 119.416 123.263C118.19 123.263 117.117 124.336 117.117 125.563C117.117 126.636 117.73 127.402 118.65 127.709V212.031L113.131 217.55Z" fill="white"/>
<path d="M42.3091 221.383C42.3091 220.156 41.2361 219.083 40.0097 219.083C38.7834 219.083 37.7103 220.156 37.7103 221.383C37.7103 222.456 38.3235 223.222 39.2433 223.529V266.456L77.4135 304.631H130.3C130.607 305.551 131.526 306.164 132.446 306.164C133.672 306.164 134.745 305.091 134.745 303.865C134.745 302.638 133.672 301.565 132.446 301.565C131.373 301.565 130.607 302.178 130.3 303.098H78.0267L40.6229 265.69V223.376C41.696 223.222 42.3091 222.303 42.3091 221.383Z" fill="white"/>
<path d="M51.047 210.038C49.8206 210.038 48.7476 211.111 48.7476 212.337C48.7476 213.564 49.8206 214.637 51.047 214.637C52.2733 214.637 53.3464 213.564 53.3464 212.337C53.3464 212.031 53.1931 211.724 53.1931 211.417L74.6543 189.954C74.9608 190.107 75.2674 190.107 75.574 190.107C76.8004 190.107 77.8734 189.034 77.8734 187.807C77.8734 186.581 76.8004 185.508 75.574 185.508C74.3477 185.508 73.2746 186.581 73.2746 187.807C73.2746 188.114 73.4279 188.421 73.4279 188.727L51.9667 210.191C51.6601 210.191 51.3536 210.038 51.047 210.038Z" fill="white"/>
<path d="M104.547 208.811L105.62 209.884L107.919 207.585V127.709C108.839 127.402 109.452 126.482 109.452 125.563C109.452 124.336 108.379 123.263 107.153 123.263C105.926 123.263 104.853 124.336 104.853 125.563C104.853 126.636 105.466 127.402 106.386 127.709V206.971L104.547 208.811Z" fill="white"/>
<path d="M108.839 213.257L109.912 214.33L114.051 210.191V158.371C114.971 158.065 115.584 157.145 115.584 156.225C115.584 154.999 114.511 153.925 113.284 153.925C112.058 153.925 110.985 154.999 110.985 156.225C110.985 157.298 111.598 158.065 112.518 158.371V209.578L108.839 213.257Z" fill="white"/>
<path d="M59.6314 210.038C58.4051 210.038 57.332 211.111 57.332 212.337C57.332 213.564 58.4051 214.637 59.6314 214.637C60.8578 214.637 61.9309 213.564 61.9309 212.337C61.9309 212.031 61.7776 211.724 61.7776 211.417L82.319 190.874C82.6255 191.027 82.9321 191.027 83.2387 191.027C84.4651 191.027 85.5381 189.954 85.5381 188.727C85.5381 187.501 84.4651 186.428 83.2387 186.428C82.0124 186.428 80.9393 187.501 80.9393 188.727C80.9393 189.034 81.0926 189.34 81.0926 189.647L60.5512 210.191C60.3979 210.191 60.0913 210.038 59.6314 210.038Z" fill="white"/>
<path d="M100.254 204.518L101.327 205.592L101.941 204.978V158.218C102.86 157.911 103.473 156.992 103.473 156.072C103.473 154.845 102.4 153.772 101.174 153.772C99.9477 153.772 98.8746 154.845 98.8746 156.072C98.8746 157.145 99.4878 157.911 100.408 158.218L100.254 204.518Z" fill="white"/>
<path d="M17.782 221.383C17.782 220.156 16.709 219.083 15.4826 219.083C14.2563 219.083 13.1832 220.156 13.1832 221.383C13.1832 222.456 13.7964 223.222 14.7162 223.529V276.575L67.296 329.161H142.87L157.586 314.443H189.165L191.004 316.283C190.851 316.59 190.851 316.896 190.851 317.203C190.851 318.429 191.924 319.502 193.15 319.502C194.377 319.502 195.45 318.429 195.45 317.203C195.45 315.976 194.377 314.903 193.15 314.903C192.844 314.903 192.537 315.056 192.231 315.21L189.931 312.91H157.126L142.41 327.628H67.9092L16.2491 275.962V223.529C17.1689 223.222 17.782 222.303 17.782 221.383Z" fill="white"/>
<path d="M179.507 105.939C179.201 105.019 178.281 104.406 177.361 104.406C176.135 104.406 175.062 105.479 175.062 106.705C175.062 107.932 176.135 109.005 177.361 109.005C178.434 109.005 179.201 108.392 179.507 107.472H435.202V216.783C434.282 217.09 433.669 218.01 433.669 218.93C433.669 220.156 434.742 221.229 435.968 221.229C437.195 221.229 438.268 220.156 438.268 218.93C438.268 217.857 437.654 217.09 436.735 216.783V105.939H179.507Z" fill="white"/>
<path d="M591.868 219.85H558.297L540.361 201.912V151.779C539.902 151.166 539.288 150.553 538.828 149.786V202.372L557.684 221.229H592.022C592.328 221.996 593.248 222.609 594.168 222.609C595.394 222.609 596.467 221.536 596.467 220.31C596.467 219.083 595.394 218.01 594.168 218.01C592.941 218.163 592.022 218.93 591.868 219.85Z" fill="white"/>
<path d="M592.788 225.982H555.538L534.076 204.518V144.267C533.617 143.653 533.003 143.04 532.543 142.427V204.978L554.924 227.362H592.788C593.095 228.282 594.014 228.895 594.934 228.895C596.161 228.895 597.234 227.822 597.234 226.595C597.234 225.369 596.161 224.296 594.934 224.296C594.014 224.449 593.095 225.062 592.788 225.982Z" fill="white"/>
<path d="M526.412 135.681V207.585L552.472 233.648H593.708C594.168 234.108 594.781 234.414 595.394 234.414C596.62 234.414 597.693 233.341 597.693 232.115C597.693 230.888 596.62 229.815 595.394 229.815C594.168 229.815 593.095 230.888 593.095 232.115H553.085L527.945 206.971V137.368C527.485 136.754 527.025 136.294 526.412 135.681Z" fill="white"/>
<path d="M544.041 110.231V119.737L565.808 141.507V191.027L570.714 195.933H585.277C585.583 196.853 586.503 197.466 587.423 197.466C588.649 197.466 589.722 196.393 589.722 195.166C589.722 193.94 588.649 192.867 587.423 192.867C586.35 192.867 585.583 193.48 585.277 194.4H571.327L567.341 190.414V140.894L545.573 119.123V110.231C546.493 109.925 547.106 109.005 547.106 108.085C547.106 106.859 546.033 105.785 544.807 105.785C543.581 105.785 542.508 106.859 542.508 108.085C542.508 109.005 543.121 109.925 544.041 110.231Z" fill="white"/>
<path d="M577.152 171.25V181.062H580.371C580.678 181.981 581.597 182.595 582.517 182.595C583.744 182.595 584.817 181.522 584.817 180.295C584.817 179.069 583.744 177.995 582.517 177.995C581.444 177.995 580.678 178.609 580.371 179.528H578.685V171.25C579.605 170.943 580.218 170.023 580.218 169.103C580.218 167.877 579.145 166.804 577.919 166.804C576.692 166.804 575.619 167.877 575.619 169.103C575.619 170.023 576.386 170.79 577.152 171.25Z" fill="white"/>
<path d="M537.909 104.099V122.343L559.677 144.113V193.633L568.108 202.065H587.423C587.729 202.985 588.649 203.598 589.569 203.598C590.795 203.598 591.868 202.525 591.868 201.299C591.868 200.072 590.795 198.999 589.569 198.999C588.496 198.999 587.729 199.612 587.423 200.532H568.721L561.056 192.867V143.347L539.289 121.576V104.099C540.208 103.792 540.821 102.872 540.821 101.953C540.821 100.726 539.748 99.6529 538.522 99.6529C537.296 99.6529 536.223 100.726 536.223 101.953C536.376 102.872 536.989 103.792 537.909 104.099Z" fill="white"/>
<path d="M357.328 73.7431C356.102 73.7431 355.029 74.8163 355.029 76.0428C355.029 77.2693 356.102 78.3425 357.328 78.3425C358.401 78.3425 359.168 77.7292 359.474 76.8094H509.549L520.28 87.5412V210.191L549.866 239.78H593.555C593.861 240.547 594.781 241.007 595.547 241.007C596.774 241.007 597.847 239.933 597.847 238.707C597.847 237.48 596.774 236.407 595.547 236.407C594.474 236.407 593.554 237.174 593.248 238.247H550.326L521.66 209.578V86.928L510.162 75.4296H359.474C359.168 74.3564 358.401 73.7431 357.328 73.7431Z" fill="white"/>
<path d="M525.645 91.834V127.402L547.413 149.173V198.693L563.049 214.33H590.795C591.102 215.25 592.021 215.863 592.941 215.863C594.168 215.863 595.241 214.79 595.241 213.564C595.241 212.337 594.168 211.264 592.941 211.264C591.868 211.264 591.102 211.877 590.795 212.797H563.662L548.946 198.079V148.559L527.178 126.789V91.834C528.098 91.5273 528.711 90.6075 528.711 89.6876C528.711 88.4611 527.638 87.3879 526.412 87.3879C525.185 87.3879 524.112 88.4611 524.112 89.6876C524.112 90.6075 524.725 91.5273 525.645 91.834Z" fill="white"/>
<path d="M531.777 97.9664V124.796L553.545 146.566V196.086L565.655 208.198H589.109C589.416 209.118 590.335 209.731 591.255 209.731C592.482 209.731 593.555 208.658 593.555 207.431C593.555 206.205 592.482 205.132 591.255 205.132C590.182 205.132 589.416 205.745 589.109 206.665H566.268L555.078 195.473V145.953L533.31 124.183V97.9664C534.23 97.6598 534.843 96.7399 534.843 95.8201C534.843 94.5936 533.77 93.5204 532.544 93.5204C531.317 93.5204 530.244 94.5936 530.244 95.8201C530.244 96.7399 530.857 97.6598 531.777 97.9664Z" fill="white"/>
<path d="M117.577 221.843L118.65 222.916L126.314 215.25V173.703C127.234 173.396 127.847 172.476 127.847 171.556C127.847 170.33 126.774 169.257 125.548 169.257C124.321 169.257 123.248 170.33 123.248 171.556C123.248 172.629 123.862 173.396 124.781 173.703V214.637L117.577 221.843Z" fill="white"/>
<path d="M163.105 306.318C163.105 307.544 164.178 308.617 165.404 308.617C166.631 308.617 167.704 307.544 167.704 306.318C167.704 305.244 167.091 304.478 166.171 304.171V268.143H56.1057C55.7991 267.07 55.0326 266.303 53.8062 266.303C52.5799 266.303 51.5068 267.376 51.5068 268.603C51.5068 269.829 52.5799 270.902 53.8062 270.902C54.726 270.902 55.4925 270.443 55.7991 269.676H164.331V304.171C163.718 304.478 163.105 305.398 163.105 306.318Z" fill="white"/>
<path d="M48.5942 235.027C49.514 235.027 50.4337 234.414 50.7403 233.648H82.0123L82.9321 232.728L81.859 231.655L81.3991 232.114H50.7403C50.4337 231.195 49.514 230.428 48.5942 230.428C47.3679 230.428 46.2948 231.501 46.2948 232.728C46.2948 234.108 47.3679 235.027 48.5942 235.027Z" fill="white"/>
<path d="M144.556 310.917C144.556 312.143 145.629 313.217 146.856 313.217C148.082 313.217 149.155 312.143 149.155 310.917C149.155 309.997 148.542 309.231 147.775 308.771V286.54H74.3476C74.041 285.62 73.1213 285.007 72.2015 285.007C70.9752 285.007 69.9021 286.08 69.9021 287.307C69.9021 288.533 70.9752 289.607 72.2015 289.607C73.2746 289.607 74.041 288.993 74.3476 288.073H146.089V308.771C145.169 309.077 144.556 309.844 144.556 310.917Z" fill="white"/>
<path d="M156.973 306.318C156.973 307.544 158.046 308.617 159.272 308.617C160.499 308.617 161.572 307.544 161.572 306.318C161.572 305.244 160.959 304.478 160.039 304.171V274.275H60.8577C60.5511 273.202 59.7847 272.436 58.5583 272.436C57.332 272.436 56.2589 273.509 56.2589 274.735C56.2589 275.962 57.332 277.035 58.5583 277.035C59.4781 277.035 60.2446 276.575 60.5511 275.809H158.353V304.171C157.586 304.478 156.973 305.398 156.973 306.318Z" fill="white"/>
<path d="M150.688 310.917C150.688 312.143 151.761 313.217 152.987 313.217C154.214 313.217 155.287 312.143 155.287 310.917C155.287 309.997 154.674 309.231 153.907 308.771V280.408H68.5224C68.2158 279.488 67.4494 278.721 66.3763 278.721C65.15 278.721 64.0769 279.795 64.0769 281.021C64.0769 282.248 65.15 283.321 66.3763 283.321C67.2961 283.321 68.0626 282.708 68.5224 281.941H152.528V308.771C151.301 309.077 150.688 309.844 150.688 310.917Z" fill="white"/>
<path d="M50.7403 227.515H77.5668L76.0338 225.982H50.7403C50.4337 225.062 49.514 224.296 48.5942 224.296C47.3679 224.296 46.2948 225.369 46.2948 226.595C46.2948 227.822 47.3679 228.895 48.5942 228.895C49.514 228.895 50.4337 228.282 50.7403 227.515Z" fill="white"/>
<path d="M48.7475 241.313C49.8206 241.313 50.5871 240.7 50.8936 239.78H84.465L87.071 237.174L85.998 236.101L83.6986 238.4H50.8936C50.5871 237.48 49.6673 236.867 48.7475 236.867C47.5212 236.867 46.4481 237.94 46.4481 239.167C46.4481 240.24 47.3679 241.313 48.7475 241.313Z" fill="white"/>
<path d="M49.3607 253.272C50.2805 253.272 51.0469 252.658 51.5068 251.892H89.5237L95.8088 245.606L94.7357 244.533L88.9105 250.359H51.6601C51.3535 249.285 50.587 248.672 49.3607 248.672C48.1343 248.672 47.0613 249.745 47.0613 250.972C47.0613 252.198 48.1343 253.272 49.3607 253.272Z" fill="white"/>
<path d="M130.913 218.93C129.687 218.93 128.614 220.003 128.614 221.229C128.614 221.536 128.767 221.843 128.767 222.149L112.058 238.86V249.132C111.138 249.439 110.525 250.359 110.525 251.279C110.525 252.505 111.598 253.578 112.824 253.578C114.051 253.578 115.124 252.505 115.124 251.279C115.124 250.205 114.511 249.439 113.591 249.132V239.474L129.84 223.222C130.147 223.376 130.453 223.376 130.76 223.376C131.986 223.376 133.059 222.303 133.059 221.076C133.213 219.85 132.139 218.93 130.913 218.93Z" fill="white"/>
<path d="M48.9009 247.292C49.8206 247.292 50.7404 246.679 51.047 245.759H86.9178L91.3633 241.313L90.2903 240.24L86.3046 244.226H51.047C50.7404 243.306 49.8206 242.693 48.9009 242.693C47.6745 242.693 46.6014 243.766 46.6014 244.993C46.6014 246.373 47.6745 247.292 48.9009 247.292Z" fill="white"/>
<path d="M173.069 186.887C173.069 185.661 171.996 184.588 170.77 184.588C169.543 184.588 168.47 185.661 168.47 186.887C168.47 187.961 169.083 188.727 170.003 189.034V197.159L187.019 215.25H342.459L349.817 207.891V173.703C350.737 173.396 351.35 172.476 351.35 171.556C351.35 170.33 350.277 169.257 349.05 169.257C347.824 169.257 346.751 170.33 346.751 171.556C346.751 172.629 347.364 173.396 348.284 173.703V207.278L341.846 213.717H187.632L171.536 196.546V189.034C172.456 188.727 173.069 187.807 173.069 186.887Z" fill="white"/>
<path d="M121.869 110.998C120.642 110.998 119.569 112.071 119.569 113.298C119.569 114.524 120.642 115.597 121.869 115.597C122.175 115.597 122.482 115.444 122.789 115.444L131.22 123.876V156.992H152.834C153.141 157.911 154.06 158.525 154.98 158.525C156.207 158.525 157.28 157.452 157.28 156.225C157.28 154.999 156.207 153.925 154.98 153.925C153.907 153.925 153.141 154.539 152.834 155.458H132.906V123.263L124.015 114.371C124.168 114.064 124.168 113.758 124.168 113.451C124.168 111.918 123.095 110.998 121.869 110.998Z" fill="white"/>
<path d="M177.361 116.671C176.135 116.671 175.062 117.744 175.062 118.97C175.062 120.197 176.135 121.27 177.361 121.27C178.434 121.27 179.201 120.657 179.507 119.737H422.938V216.783C422.018 217.09 421.405 218.01 421.405 218.93C421.405 220.156 422.478 221.229 423.705 221.229C424.931 221.229 426.004 220.156 426.004 218.93C426.004 217.856 425.391 217.09 424.471 216.783V118.204H179.507C179.201 117.284 178.434 116.671 177.361 116.671Z" fill="white"/>
<path d="M222.43 112.071C222.123 111.151 221.203 110.538 220.284 110.538C219.057 110.538 217.984 111.611 217.984 112.838C217.984 114.064 219.057 115.137 220.284 115.137C221.357 115.137 222.123 114.524 222.43 113.604H429.07V201.452C428.15 201.759 427.537 202.679 427.537 203.598C427.537 204.825 428.61 205.898 429.836 205.898C431.063 205.898 432.136 204.825 432.136 203.598C432.136 202.525 431.523 201.759 430.603 201.452V112.071H222.43Z" fill="white"/>
<path d="M144.25 111.305C144.25 110.078 143.177 109.005 141.95 109.005C140.724 109.005 139.651 110.078 139.651 111.305C139.651 112.378 140.264 113.144 141.184 113.451V138.747H156.36C156.667 139.667 157.586 140.281 158.506 140.281C159.732 140.281 160.805 139.207 160.805 137.981C160.805 136.754 159.732 135.681 158.506 135.681C157.433 135.681 156.667 136.294 156.36 137.214H142.717V113.451C143.637 113.144 144.25 112.378 144.25 111.305Z" fill="white"/>
<path d="M166.937 171.556C166.937 170.33 165.864 169.257 164.638 169.257C163.411 169.257 162.338 170.33 162.338 171.556C162.338 172.629 162.952 173.396 163.871 173.703V199.612L184.413 221.383H345.065L356.102 210.344V189.034C357.022 188.727 357.635 187.807 357.635 186.887C357.635 185.661 356.562 184.588 355.336 184.588C354.109 184.588 353.036 185.661 353.036 186.887C353.036 187.961 353.649 188.727 354.569 189.034V209.731L344.452 219.85H185.026L165.404 198.999V173.703C166.324 173.396 166.937 172.476 166.937 171.556Z" fill="white"/>
<path d="M177.361 145.8C178.434 145.8 179.201 145.187 179.507 144.267H398.411V216.783C397.491 217.09 396.878 218.01 396.878 218.93C396.878 220.156 397.951 221.229 399.178 221.229C400.404 221.229 401.477 220.156 401.477 218.93C401.477 217.857 400.864 217.09 399.944 216.783V142.734H179.507C179.201 141.814 178.281 141.2 177.361 141.2C176.135 141.2 175.062 142.274 175.062 143.5C175.062 144.727 176.135 145.8 177.361 145.8Z" fill="white"/>
<path d="M53.0398 262.01C52.7332 261.244 51.8134 260.631 50.8936 260.631C49.6673 260.631 48.5942 261.704 48.5942 262.93C48.5942 264.157 49.6673 265.23 50.8936 265.23C51.9667 265.23 52.7332 264.463 53.0398 263.544H170.616V304.171C169.697 304.478 169.083 305.398 169.083 306.318C169.083 307.544 170.156 308.617 171.383 308.617C172.609 308.617 173.682 307.544 173.682 306.318C173.682 305.244 173.069 304.478 172.149 304.171V262.01H53.0398Z" fill="white"/>
<path d="M403.01 203.752C403.01 204.978 404.083 206.051 405.309 206.051C406.536 206.051 407.609 204.978 407.609 203.752C407.609 202.679 406.996 201.912 406.076 201.605V136.601H222.43C222.123 135.681 221.203 135.068 220.284 135.068C219.057 135.068 217.984 136.141 217.984 137.368C217.984 138.594 219.057 139.667 220.284 139.667C221.357 139.667 222.123 139.054 222.43 138.134H404.543V201.452C403.623 201.912 403.01 202.679 403.01 203.752Z" fill="white"/>
<path d="M222.43 124.336C222.123 123.416 221.203 122.803 220.284 122.803C219.057 122.803 217.984 123.876 217.984 125.103C217.984 126.329 219.057 127.402 220.284 127.402C221.357 127.402 222.123 126.789 222.43 125.869H416.806V201.452C415.887 201.759 415.273 202.679 415.273 203.599C415.273 204.825 416.347 205.898 417.573 205.898C418.799 205.898 419.872 204.825 419.872 203.599C419.872 202.525 419.259 201.759 418.339 201.452V124.336H222.43Z" fill="white"/>
<path d="M177.361 133.535C178.434 133.535 179.201 132.922 179.507 132.002H410.675V216.783C409.755 217.09 409.142 218.01 409.142 218.93C409.142 220.156 410.215 221.229 411.441 221.229C412.667 221.229 413.741 220.156 413.741 218.93C413.741 217.857 413.127 217.09 412.208 216.783V130.469H179.507C179.201 129.549 178.281 128.935 177.361 128.935C176.135 128.935 175.062 130.009 175.062 131.235C175.062 132.462 176.135 133.535 177.361 133.535Z" fill="white"/>
<path d="M571.48 158.985V188.88H583.131C583.437 189.8 584.357 190.414 585.277 190.414C586.503 190.414 587.576 189.34 587.576 188.114C587.576 186.887 586.503 185.814 585.277 185.814C584.204 185.814 583.437 186.427 583.131 187.347H573.013V158.985C573.933 158.678 574.546 157.758 574.546 156.838C574.546 155.612 573.473 154.539 572.247 154.539C571.02 154.539 569.947 155.612 569.947 156.838C569.947 157.758 570.56 158.525 571.48 158.985Z" fill="white"/>
<path d="M458.656 380.367C457.429 380.367 456.356 381.441 456.356 382.667C456.356 383.894 457.429 384.967 458.656 384.967C459.882 384.967 460.955 383.894 460.955 382.667C460.955 382.36 460.802 382.054 460.802 381.747L487.475 355.071C487.782 355.224 488.088 355.224 488.395 355.224C489.621 355.224 490.694 354.151 490.694 352.924C490.694 351.698 489.621 350.625 488.395 350.625C487.168 350.625 486.095 351.698 486.095 352.924C486.095 353.231 486.249 353.538 486.249 353.844L459.575 380.521C459.422 380.521 458.962 380.367 458.656 380.367Z" fill="white"/>
<path d="M314.866 379.141L326.976 367.029C327.283 367.182 327.589 367.336 327.896 367.336C329.122 367.336 330.195 366.263 330.195 365.036C330.195 363.81 329.122 362.736 327.896 362.736C326.67 362.736 325.597 363.81 325.597 365.036C325.597 365.343 325.75 365.649 325.903 365.956L314.253 377.608H294.325V389.873C293.405 390.179 292.792 391.099 292.792 392.019C292.792 393.246 293.865 394.319 295.091 394.319C296.317 394.319 297.39 393.246 297.39 392.019C297.39 390.946 296.777 390.179 295.858 389.873V379.141H314.866Z" fill="white"/>
<path d="M191.771 28.3627C192.997 28.3627 194.07 27.2895 194.07 26.063C194.07 24.8366 192.997 23.7634 191.771 23.7634C190.698 23.7634 189.931 24.3766 189.625 25.2965H109.452L102.554 32.1955L103.627 33.2687L110.065 26.8296H189.778C189.931 27.7495 190.851 28.3627 191.771 28.3627Z" fill="white"/>
<path d="M310.267 400.758C311.494 400.758 312.567 399.685 312.567 398.458C312.567 398.152 312.413 397.845 312.413 397.538L346.445 363.503H405.463L461.262 307.697H483.643C483.949 308.617 484.869 309.231 485.789 309.231C487.015 309.231 488.088 308.157 488.088 306.931C488.088 305.704 487.015 304.631 485.789 304.631C484.716 304.631 483.949 305.244 483.643 306.164H460.649L404.85 361.97H345.831L311.34 396.465C311.034 396.312 310.727 396.159 310.421 396.159C309.194 396.159 308.121 397.232 308.121 398.458C308.121 399.685 309.041 400.758 310.267 400.758Z" fill="white"/>
<path d="M402.244 348.632C400.557 348.632 399.178 350.012 399.178 351.698C399.178 353.384 400.557 354.764 402.244 354.764C403.93 354.764 405.309 353.384 405.309 351.698C405.309 351.085 405.156 350.625 404.85 350.165L453.29 301.718C453.75 302.025 454.21 302.178 454.823 302.178C456.51 302.178 457.889 300.798 457.889 299.112C457.889 297.425 456.51 296.046 454.823 296.046C453.137 296.046 451.758 297.425 451.758 299.112C451.758 299.725 451.911 300.185 452.217 300.645L403.777 349.092C403.317 348.785 402.857 348.632 402.244 348.632ZM402.244 353.231C401.324 353.231 400.711 352.618 400.711 351.698C400.711 350.778 401.324 350.165 402.244 350.165C403.163 350.165 403.777 350.778 403.777 351.698C403.777 352.618 403.163 353.231 402.244 353.231ZM454.823 297.579C455.743 297.579 456.356 298.192 456.356 299.112C456.356 300.032 455.743 300.645 454.823 300.645C453.904 300.645 453.29 300.032 453.29 299.112C453.29 298.192 454.057 297.579 454.823 297.579Z" fill="white"/>
<path d="M450.071 371.782C448.845 371.782 447.772 372.855 447.772 374.082C447.772 375.308 448.845 376.381 450.071 376.381C451.298 376.381 452.371 375.308 452.371 374.082C452.371 373.775 452.217 373.468 452.217 373.162L478.891 346.485C479.197 346.639 479.504 346.639 479.81 346.639C481.037 346.639 482.11 345.565 482.11 344.339C482.11 343.112 481.037 342.039 479.81 342.039C478.584 342.039 477.511 343.112 477.511 344.339C477.511 344.646 477.664 344.952 477.818 345.259L451.144 371.935C450.684 371.782 450.378 371.782 450.071 371.782Z" fill="white"/>
<path d="M481.956 393.705H449.151C448.845 392.786 447.925 392.172 447.005 392.172C445.779 392.172 444.706 393.245 444.706 394.472C444.706 395.698 445.779 396.772 447.005 396.772C448.078 396.772 448.845 396.158 449.151 395.239H482.57L511.849 365.956V309.23C512.768 308.924 513.382 308.004 513.382 307.084C513.382 305.858 512.309 304.784 511.082 304.784C509.856 304.784 508.783 305.858 508.783 307.084C508.783 308.157 509.396 308.924 510.316 309.23V365.343L481.956 393.705Z" fill="white"/>
<path d="M484.409 399.838H449.151C448.845 398.918 447.925 398.305 447.005 398.305C445.779 398.305 444.706 399.378 444.706 400.605C444.706 401.831 445.779 402.904 447.005 402.904C448.078 402.904 448.845 402.291 449.151 401.371H485.176L518.134 368.409V302.945C519.054 302.638 519.667 301.718 519.667 300.798C519.667 299.572 518.594 298.499 517.367 298.499C516.141 298.499 515.068 299.572 515.068 300.798C515.068 301.872 515.681 302.638 516.601 302.945V367.796L484.409 399.838Z" fill="white"/>
<path d="M466.321 319.962H483.643C483.949 320.882 484.869 321.496 485.789 321.496C487.015 321.496 488.088 320.422 488.088 319.196C488.088 317.969 487.015 316.896 485.789 316.896C484.716 316.896 483.949 317.509 483.643 318.429H465.707L409.908 374.235H350.89L340.926 384.2C340.619 384.047 340.313 384.047 340.006 384.047C338.78 384.047 337.707 385.12 337.707 386.347C337.707 387.573 338.78 388.646 340.006 388.646C341.233 388.646 342.306 387.573 342.306 386.347C342.306 386.04 342.152 385.733 342.152 385.427L351.657 375.921H410.675L466.321 319.962Z" fill="white"/>
<path d="M408.069 369.636L463.868 313.83H499.125C499.432 314.75 500.352 315.363 501.271 315.363C502.498 315.363 503.571 314.29 503.571 313.063C503.571 311.837 502.498 310.764 501.271 310.764C500.198 310.764 499.432 311.377 499.125 312.297H463.255L407.455 368.102H348.437L326.21 390.333C325.903 390.179 325.596 390.179 325.29 390.179C324.064 390.179 322.99 391.253 322.99 392.479C322.99 393.706 324.064 394.779 325.29 394.779C326.516 394.779 327.589 393.706 327.589 392.479C327.589 392.172 327.436 391.866 327.436 391.559L349.204 369.789H408.069V369.636Z" fill="white"/>
<path d="M394.732 412.716C394.732 413.943 395.805 415.016 397.032 415.016C398.258 415.016 399.331 413.943 399.331 412.716C399.331 411.643 398.718 410.876 397.798 410.57V388.186H357.482L341.079 404.591C340.773 404.437 340.466 404.284 340.16 404.284C338.933 404.284 337.86 405.357 337.86 406.584C337.86 407.81 338.933 408.883 340.16 408.883C341.386 408.883 342.459 407.81 342.459 406.584C342.459 406.277 342.306 405.971 342.306 405.664L358.248 389.719H396.418V410.57C395.499 410.876 394.732 411.643 394.732 412.716Z" fill="white"/>
<path d="M259.527 380.367V359.21L278.229 340.506H391.053L449.611 281.941H479.81V280.408H448.998L390.44 338.973H277.616L257.994 358.597V380.521C257.074 380.827 256.461 381.747 256.461 382.667C256.461 383.894 257.534 384.967 258.76 384.967C259.987 384.967 261.06 383.894 261.06 382.667C261.06 381.594 260.447 380.674 259.527 380.367Z" fill="white"/>
<path d="M280.835 346.639H393.659L452.217 288.073H479.81V286.54H451.451L392.893 345.106H280.068L267.651 357.524C267.345 357.371 267.038 357.217 266.732 357.217C265.505 357.217 264.432 358.29 264.432 359.517C264.432 360.743 265.505 361.817 266.732 361.817C267.958 361.817 269.031 360.743 269.031 359.517C269.031 359.21 268.878 358.904 268.878 358.597L280.835 346.639Z" fill="white"/>
<path d="M253.395 382.36V356.604L275.623 334.374H388.447L447.005 275.809H479.81V274.275H446.392L387.834 332.841H275.01L251.862 355.991V382.36C250.942 382.667 250.329 383.587 250.329 384.507C250.329 385.733 251.402 386.806 252.629 386.806C253.855 386.806 254.928 385.733 254.928 384.507C254.928 383.587 254.315 382.667 253.395 382.36Z" fill="white"/>
<path d="M432.902 379.907C432.902 378.221 431.523 376.841 429.836 376.841C428.15 376.841 426.771 378.221 426.771 379.907C426.771 381.287 427.69 382.514 429.07 382.82V403.364C427.69 403.671 426.771 404.897 426.771 406.277C426.771 407.964 428.15 409.343 429.836 409.343C431.523 409.343 432.902 407.964 432.902 406.277C432.902 404.897 431.983 403.671 430.603 403.364V382.82C431.983 382.514 432.902 381.287 432.902 379.907ZM431.369 406.277C431.369 407.197 430.756 407.81 429.836 407.81C428.917 407.81 428.303 407.197 428.303 406.277C428.303 405.357 428.917 404.744 429.836 404.744C430.756 404.744 431.369 405.511 431.369 406.277ZM429.836 381.441C428.917 381.441 428.303 380.827 428.303 379.907C428.303 378.988 428.917 378.374 429.836 378.374C430.756 378.374 431.369 378.988 431.369 379.907C431.369 380.674 430.756 381.441 429.836 381.441Z" fill="white"/>
<path d="M247.263 380.367V354.151L273.17 328.241H385.994L444.553 269.676H479.81V268.143H443.94L385.381 326.708H272.557L245.73 353.538V380.521C245.27 380.674 244.811 380.981 244.657 381.441C244.504 381.747 244.351 382.207 244.351 382.667C244.351 383.894 245.424 384.967 246.65 384.967C247.723 384.967 248.49 384.353 248.796 383.434V383.28C248.796 383.127 248.796 383.127 248.796 382.974C248.796 382.82 248.796 382.667 248.796 382.514C248.796 381.594 248.183 380.674 247.263 380.367Z" fill="white"/>
<path d="M321.764 405.204C322.99 405.204 324.064 404.131 324.064 402.904C324.064 401.678 322.99 400.605 321.764 400.605C320.538 400.605 319.465 401.678 319.465 402.904C319.465 403.211 319.618 403.517 319.771 403.824L312.873 410.723C312.567 410.57 312.26 410.417 311.953 410.417C310.727 410.417 309.654 411.49 309.654 412.716C309.654 413.943 310.727 415.016 311.953 415.016C313.18 415.016 314.253 413.943 314.253 412.716C314.253 412.41 314.099 412.103 314.099 411.796L320.998 404.897C321.151 405.051 321.458 405.204 321.764 405.204Z" fill="white"/>
<path d="M388.6 412.716C388.6 413.943 389.673 415.016 390.9 415.016C392.126 415.016 393.199 413.943 393.199 412.716C393.199 411.643 392.586 410.876 391.666 410.57V394.319H360.088L355.949 398.458C355.642 398.305 355.335 398.152 355.029 398.152C353.803 398.152 352.729 399.225 352.729 400.451C352.729 401.678 353.803 402.751 355.029 402.751C356.255 402.751 357.328 401.678 357.328 400.451C357.328 400.145 357.175 399.838 357.175 399.531L360.854 395.852H390.287V410.57C389.367 410.876 388.6 411.643 388.6 412.716Z" fill="white"/>
<path d="M446.852 409.037C447.925 409.037 448.692 408.423 448.998 407.504H487.628L524.112 371.015V297.732H559.217C559.523 298.652 560.443 299.265 561.363 299.265C562.589 299.265 563.662 298.192 563.662 296.966C563.662 295.739 562.589 294.666 561.363 294.666C560.29 294.666 559.523 295.279 559.217 296.199H522.579V370.402L487.015 405.97H449.151C448.845 405.051 447.925 404.437 447.005 404.437C445.779 404.437 444.706 405.511 444.706 406.737C444.706 407.964 445.626 409.037 446.852 409.037Z" fill="white"/>
<path d="M400.864 412.716C400.864 413.943 401.937 415.016 403.163 415.016C404.39 415.016 405.463 413.943 405.463 412.716C405.463 411.643 404.85 410.876 403.93 410.57V382.054H355.029L326.363 410.723C326.056 410.57 325.75 410.417 325.443 410.417C324.217 410.417 323.144 411.49 323.144 412.716C323.144 413.943 324.217 415.016 325.443 415.016C326.67 415.016 327.743 413.943 327.743 412.716C327.743 412.41 327.589 412.103 327.589 411.796L355.796 383.587H402.55V410.57C401.63 410.876 400.864 411.643 400.864 412.716Z" fill="white"/>
<path d="M498.972 326.095C499.279 327.015 500.198 327.628 501.118 327.628C502.345 327.628 503.418 326.555 503.418 325.328C503.418 324.102 502.345 323.029 501.118 323.029C500.045 323.029 499.279 323.642 498.972 324.562H468.16L412.821 379.907V397.232C411.441 397.538 410.521 398.765 410.521 400.145C410.521 401.831 411.901 403.211 413.587 403.211C415.273 403.211 416.653 401.831 416.653 400.145C416.653 398.765 415.733 397.538 414.354 397.232V380.521L468.773 326.095H498.972ZM415.273 400.145C415.273 401.065 414.66 401.678 413.741 401.678C412.821 401.678 412.208 401.065 412.208 400.145C412.208 399.225 412.821 398.612 413.741 398.612C414.66 398.612 415.273 399.378 415.273 400.145Z" fill="white"/>
<path d="M442.866 431.727C441.793 431.727 441.027 432.34 440.72 433.26H330.962V521.414C330.042 521.721 329.429 522.641 329.429 523.561C329.429 524.787 330.502 525.861 331.728 525.861C332.955 525.861 334.028 524.787 334.028 523.561C334.028 522.488 333.414 521.721 332.495 521.414V434.793H440.72C441.027 435.713 441.947 436.326 442.866 436.326C444.093 436.326 445.166 435.253 445.166 434.027C445.166 432.8 444.093 431.727 442.866 431.727Z" fill="white"/>
<path d="M586.043 279.028C585.123 279.028 584.204 279.641 583.897 280.408H527.332V281.941H583.897C584.204 282.861 585.123 283.627 586.043 283.627C587.269 283.627 588.343 282.554 588.343 281.328C588.343 280.101 587.423 279.028 586.043 279.028Z" fill="white"/>
<path d="M576.079 285.007C575.006 285.007 574.24 285.62 573.933 286.54H527.332V288.073H573.933C574.24 288.993 575.159 289.607 576.079 289.607C577.305 289.607 578.378 288.533 578.378 287.307C578.378 286.08 577.305 285.007 576.079 285.007Z" fill="white"/>
<path d="M462.795 425.594C461.722 425.594 460.955 426.208 460.649 427.128H324.83V521.874C323.91 522.181 323.297 523.101 323.297 524.021C323.297 525.247 324.37 526.32 325.597 526.32C326.823 526.32 327.896 525.247 327.896 524.021C327.896 522.948 327.283 522.181 326.363 521.874V428.661H460.649C460.955 429.581 461.875 430.194 462.795 430.194C464.021 430.194 465.094 429.121 465.094 427.894C465.094 426.668 464.021 425.594 462.795 425.594Z" fill="white"/>
<path d="M590.029 272.589C588.956 272.589 588.036 273.356 587.729 274.275H527.332V275.809H587.883C588.189 276.575 589.109 277.188 589.875 277.188C591.102 277.188 592.175 276.115 592.175 274.889C592.328 273.662 591.255 272.589 590.029 272.589Z" fill="white"/>
<path d="M473.525 419.462C472.452 419.462 471.686 420.075 471.379 420.995H310.574L294.631 405.051C294.784 404.744 294.784 404.437 294.784 404.131C294.784 402.904 293.711 401.831 292.485 401.831C291.259 401.831 290.186 402.904 290.186 404.131C290.186 405.357 291.259 406.43 292.485 406.43C292.792 406.43 293.098 406.277 293.405 406.124L309.807 422.528H471.226C471.532 423.448 472.452 424.061 473.372 424.061C474.598 424.061 475.671 422.988 475.671 421.762C475.825 420.535 474.752 419.462 473.525 419.462Z" fill="white"/>
<path d="M563.969 300.645C562.896 300.645 562.129 301.258 561.823 302.178H528.711V372.855L489.468 412.103H449.151C448.845 411.183 447.925 410.57 447.005 410.57C445.779 410.57 444.706 411.643 444.706 412.87C444.706 414.096 445.779 415.169 447.005 415.169C448.078 415.169 448.845 414.556 449.151 413.636H490.234L530.244 373.622V303.865H561.823C562.129 304.784 563.049 305.398 563.969 305.398C565.195 305.398 566.268 304.325 566.268 303.098C566.268 301.718 565.195 300.645 563.969 300.645Z" fill="white"/>
<path d="M592.175 266.61C591.102 266.61 590.335 267.223 590.029 268.143H527.332V269.676H589.875C590.182 270.596 591.102 271.209 592.022 271.209C593.248 271.209 594.321 270.136 594.321 268.909C594.474 267.683 593.401 266.61 592.175 266.61Z" fill="white"/>
<path d="M595.241 248.826C594.168 248.826 593.401 249.439 593.094 250.359H545.42L509.549 214.637V91.9873L505.104 87.5412H359.474C359.168 86.6213 358.248 86.0081 357.328 86.0081C356.102 86.0081 355.029 87.0813 355.029 88.3078C355.029 89.5343 356.102 90.6074 357.328 90.6074C358.401 90.6074 359.168 89.9942 359.474 89.0743H504.491L508.016 92.6005V215.25L544.807 252.045H593.094C593.401 252.965 594.321 253.578 595.241 253.578C596.467 253.578 597.54 252.505 597.54 251.279C597.54 249.899 596.467 248.826 595.241 248.826Z" fill="white"/>
<path d="M595.241 242.54C594.168 242.54 593.248 243.306 592.941 244.379H547.873L515.528 212.031V89.381L507.557 81.4087H405.309C405.003 80.4889 404.083 79.8756 403.163 79.8756C401.937 79.8756 400.864 80.9488 400.864 82.1753C400.864 83.4018 401.937 84.475 403.163 84.475C404.236 84.475 405.003 83.8617 405.309 82.9419H506.943L513.995 89.9942V212.644L547.26 245.913H593.248C593.554 246.679 594.321 247.139 595.241 247.139C596.467 247.139 597.54 246.066 597.54 244.839C597.54 243.613 596.467 242.54 595.241 242.54Z" fill="white"/>
<path d="M593.401 260.784C592.482 260.784 591.715 261.397 591.255 262.164H527.332V263.697H591.102C591.408 264.77 592.175 265.383 593.401 265.383C594.628 265.383 595.701 264.31 595.701 263.084C595.701 261.857 594.781 260.784 593.401 260.784Z" fill="white"/>
<path d="M417.573 437.553C416.5 437.553 415.733 438.166 415.427 439.086H393.352L384.002 448.438V519.728C383.082 520.035 382.469 520.955 382.469 521.874C382.469 523.101 383.542 524.174 384.768 524.174C385.994 524.174 387.067 523.101 387.067 521.874C387.067 520.801 386.454 520.035 385.535 519.728V449.051L393.966 440.619H415.427C415.733 441.539 416.653 442.152 417.573 442.152C418.799 442.152 419.872 441.079 419.872 439.853C419.872 438.626 418.799 437.553 417.573 437.553Z" fill="white"/>
<path d="M286.66 386.347V377.301L296.011 367.949H313.026C313.333 368.869 314.253 369.482 315.173 369.482C316.399 369.482 317.472 368.409 317.472 367.182C317.472 365.956 316.399 364.883 315.173 364.883C314.099 364.883 313.333 365.496 313.026 366.416H295.398L285.127 376.688V386.347C284.207 386.653 283.594 387.573 283.594 388.493C283.594 389.719 284.667 390.793 285.893 390.793C287.12 390.793 288.193 389.719 288.193 388.493C288.193 387.573 287.426 386.653 286.66 386.347Z" fill="white"/>
<path d="M320.231 521.874V438.319L313.946 432.034C314.099 431.727 314.253 431.42 314.253 431.114C314.253 429.887 313.18 428.814 311.953 428.814C310.727 428.814 309.654 429.887 309.654 431.114C309.654 432.34 310.727 433.413 311.953 433.413C312.26 433.413 312.567 433.26 312.873 433.107L318.698 438.933V521.874C317.778 522.181 317.165 523.101 317.165 524.021C317.165 525.247 318.238 526.321 319.465 526.321C320.691 526.321 321.764 525.247 321.764 524.021C321.764 523.101 321.151 522.181 320.231 521.874Z" fill="white"/>
<path d="M280.528 385.733V374.695L293.558 361.663H307.048C307.355 362.583 308.274 363.196 309.194 363.196C310.42 363.196 311.493 362.123 311.493 360.897C311.493 359.67 310.42 358.597 309.194 358.597C308.121 358.597 307.355 359.21 307.048 360.13H292.792L278.995 374.082V385.733C278.075 386.04 277.462 386.96 277.462 387.88C277.462 389.106 278.535 390.179 279.762 390.179C280.988 390.179 282.061 389.106 282.061 387.88C282.061 386.96 281.295 386.04 280.528 385.733Z" fill="white"/>
<path d="M359.934 456.563C359.934 455.337 358.861 454.264 357.635 454.264C356.409 454.264 355.336 455.337 355.336 456.563C355.336 457.637 355.949 458.403 356.869 458.71V521.414C355.949 521.721 355.336 522.641 355.336 523.561C355.336 524.787 356.409 525.861 357.635 525.861C358.861 525.861 359.934 524.787 359.934 523.561C359.934 522.488 359.321 521.721 358.401 521.414V458.71C359.321 458.403 359.934 457.637 359.934 456.563Z" fill="white"/>
<path d="M380.016 525.554V437.399H338.473V521.415C337.553 521.721 336.94 522.641 336.94 523.561C336.94 524.787 338.013 525.861 339.24 525.861C340.466 525.861 341.539 524.787 341.539 523.561C341.539 522.488 340.926 521.721 340.006 521.415V438.933H378.483V525.554C377.563 525.861 376.95 526.78 376.95 527.7C376.95 528.927 378.023 530 379.249 530C380.476 530 381.549 528.927 381.549 527.7C381.549 526.78 380.936 525.861 380.016 525.554Z" fill="white"/>
<path d="M451.758 208.658L490.694 247.599C490.541 247.906 490.541 248.212 490.541 248.519C490.541 249.745 491.614 250.819 492.84 250.819C494.067 250.819 495.14 249.745 495.14 248.519C495.14 247.292 494.067 246.219 492.84 246.219C492.534 246.219 492.227 246.373 491.921 246.373L453.291 207.738V108.545H490.694C491.001 109.465 491.921 110.078 492.84 110.078C494.067 110.078 495.14 109.005 495.14 107.778C495.14 106.552 494.067 105.479 492.84 105.479C491.767 105.479 491.001 106.092 490.694 107.012H451.758V208.658Z" fill="white"/>
<path d="M367.752 523.408V449.664H350.737V521.415C349.817 521.721 349.204 522.641 349.204 523.561C349.204 524.787 350.277 525.861 351.503 525.861C352.73 525.861 353.803 524.787 353.803 523.561C353.803 522.488 353.189 521.721 352.27 521.415V451.198H366.219V523.408C365.3 523.714 364.686 524.634 364.686 525.554C364.686 526.78 365.76 527.854 366.986 527.854C368.212 527.854 369.285 526.78 369.285 525.554C369.285 524.634 368.672 523.714 367.752 523.408Z" fill="white"/>
<path d="M274.396 385.58V372.242L290.952 355.684H374.344C374.651 356.604 375.57 357.217 376.49 357.217C377.716 357.217 378.79 356.144 378.79 354.918C378.79 353.691 377.716 352.618 376.49 352.618C375.417 352.618 374.651 353.231 374.344 354.151H290.339L272.863 371.629V385.58C271.944 385.887 271.33 386.806 271.33 387.726C271.33 388.953 272.404 390.026 273.63 390.026C274.856 390.026 275.929 388.953 275.929 387.726C275.929 386.653 275.163 385.887 274.396 385.58Z" fill="white"/>
<path d="M373.884 523.714V443.532H344.605V521.414C343.685 521.721 343.072 522.641 343.072 523.561C343.072 524.787 344.145 525.861 345.372 525.861C346.598 525.861 347.671 524.787 347.671 523.561C347.671 522.488 347.058 521.721 346.138 521.414V445.065H372.351V523.714C371.432 524.021 370.818 524.941 370.818 525.861C370.818 527.087 371.891 528.16 373.118 528.16C374.344 528.16 375.417 527.087 375.417 525.861C375.417 524.941 374.804 524.174 373.884 523.714Z" fill="white"/>
<path d="M458.656 371.782C457.429 371.782 456.356 372.855 456.356 374.082C456.356 375.308 457.429 376.381 458.656 376.381C459.882 376.381 460.955 375.308 460.955 374.082C460.955 373.775 460.802 373.468 460.802 373.162L476.591 357.371C476.898 357.524 477.204 357.524 477.511 357.524C478.737 357.524 479.81 356.451 479.81 355.224C479.81 353.998 478.737 352.924 477.511 352.924C476.285 352.924 475.211 353.998 475.211 355.224C475.211 355.531 475.365 355.837 475.518 356.144L459.729 371.935C459.422 371.782 458.962 371.782 458.656 371.782Z" fill="white"/>
<path d="M331.422 16.8643C332.648 16.8643 333.721 15.7912 333.721 14.5647C333.721 13.3382 332.648 12.265 331.422 12.265C330.349 12.265 329.582 12.8782 329.276 13.7981H293.711L275.316 32.1956H251.556C251.249 31.2757 250.329 30.6624 249.409 30.6624C248.183 30.6624 247.11 31.7356 247.11 32.9621C247.11 34.1886 248.183 35.2618 249.409 35.2618C250.482 35.2618 251.249 34.6486 251.556 33.7287H275.929L294.325 15.3312H329.276C329.582 16.2511 330.502 16.8643 331.422 16.8643Z" fill="white"/>
<path d="M237.146 22.9968C238.219 22.9968 238.985 22.3836 239.292 21.4637H270.871L289.266 3.06624H347.671C347.977 3.98612 348.897 4.59936 349.817 4.59936C351.043 4.59936 352.116 3.52618 352.116 2.29968C352.116 1.07318 351.043 0 349.817 0C348.744 0 347.977 0.613248 347.671 1.53312H288.499L270.104 19.9306H239.292C238.985 19.0107 238.066 18.3975 237.146 18.3975C235.919 18.3975 234.846 19.4706 234.846 20.6971C234.846 22.0769 235.766 22.9968 237.146 22.9968Z" fill="white"/>
<path d="M185.486 22.2302C186.559 22.2302 187.325 21.617 187.632 20.6971H220.743L251.402 51.3595H309.807L346.138 15.0246H374.497C374.957 15.4845 375.57 15.7911 376.184 15.7911C377.41 15.7911 378.483 14.7179 378.483 13.4915C378.483 12.265 377.41 11.1918 376.184 11.1918C374.957 11.1918 373.884 12.265 373.884 13.4915H345.371L309.041 49.8264H251.862L221.203 19.164H187.479C187.172 18.2441 186.252 17.6309 185.332 17.6309C184.106 17.6309 183.033 18.7041 183.033 19.9306C183.186 21.1571 184.259 22.2302 185.486 22.2302Z" fill="white"/>
<path d="M317.012 26.0631H298.77L280.375 44.4605H263.819C263.512 43.5406 262.593 42.9274 261.673 42.9274C260.447 42.9274 259.374 44.0006 259.374 45.2271C259.374 46.4536 260.447 47.5268 261.673 47.5268C262.746 47.5268 263.512 46.9135 263.819 45.9936H280.988L299.383 27.5962H317.012C317.319 28.5161 318.238 29.1293 319.158 29.1293C320.385 29.1293 321.458 28.0561 321.458 26.8296C321.458 25.6031 320.385 24.5299 319.158 24.5299C318.238 24.5299 317.319 25.1432 317.012 26.0631Z" fill="white"/>
<path d="M325.29 22.9968C326.516 22.9968 327.589 21.9236 327.589 20.6971C327.589 19.4706 326.516 18.3975 325.29 18.3975C324.217 18.3975 323.45 19.0107 323.144 19.9306H296.164L277.769 38.328H257.687C257.381 37.4082 256.461 36.7949 255.541 36.7949C254.315 36.7949 253.242 37.8681 253.242 39.0946C253.242 40.3211 254.315 41.3943 255.541 41.3943C256.614 41.3943 257.381 40.781 257.687 39.8612H278.382L296.777 21.4637H323.144C323.45 22.3836 324.37 22.9968 325.29 22.9968Z" fill="white"/>
<path d="M21.4612 117.284C22.6875 117.284 23.7606 116.211 23.7606 114.984C23.7606 114.677 23.6073 114.371 23.6073 114.064L57.0254 80.6422V71.4434L65.7631 62.7047L64.6901 61.6315L55.4924 70.8302V80.0289L22.3809 112.991C22.0743 112.838 21.7677 112.838 21.4612 112.838C20.2348 112.838 19.1617 113.911 19.1617 115.137C19.1617 116.211 20.0815 117.284 21.4612 117.284Z" fill="white"/>
<path d="M15.7893 130.929C15.7893 130.929 15.9426 130.929 15.7893 130.929L23.7606 138.747H78.3333V108.085L97.0351 89.381H201.888C202.195 90.3008 203.115 90.9141 204.034 90.9141C205.261 90.9141 206.334 89.8409 206.334 88.6144C206.334 87.3879 205.261 86.3147 204.034 86.3147C202.961 86.3147 202.195 86.928 201.888 87.8478H96.5752L76.9536 107.472V137.368H24.527L17.4755 130.315C17.9354 129.855 18.0887 129.395 18.0887 128.629C18.0887 127.402 17.0156 126.329 15.7893 126.329C14.5629 126.329 13.4899 127.402 13.4899 128.629C13.4899 129.855 14.5629 130.929 15.7893 130.929Z" fill="white"/>
<path d="M18.7018 125.103L26.3666 132.768H72.3547V105.479L94.7357 83.0952H165.404C165.711 84.015 166.631 84.6283 167.55 84.6283C168.777 84.6283 169.85 83.5551 169.85 82.3286C169.85 81.1021 168.777 80.0289 167.55 80.0289C166.477 80.0289 165.711 80.6422 165.404 81.5621H93.9692L70.8218 104.865V131.082H26.9797L20.2348 124.336C20.6947 123.876 20.848 123.416 20.848 122.65C20.848 121.423 19.7749 120.35 18.5486 120.35C17.3222 120.35 16.2491 121.423 16.2491 122.65C16.4024 124.029 17.3222 125.103 18.7018 125.103Z" fill="white"/>
<path d="M272.71 26.0631H245.424C245.117 25.1432 244.197 24.5299 243.278 24.5299C242.051 24.5299 240.978 25.6031 240.978 26.8296C240.978 28.0561 242.051 29.1293 243.278 29.1293C244.351 29.1293 245.117 28.516 245.424 27.5962H273.323L291.718 9.19872H355.336C355.642 10.1186 356.562 10.7318 357.482 10.7318C358.708 10.7318 359.781 9.65866 359.781 8.43216C359.781 7.20566 358.708 6.13248 357.482 6.13248C356.409 6.13248 355.642 6.74573 355.336 7.6656H291.105L272.71 26.0631Z" fill="white"/>
<path d="M107.459 20.6971H174.295C174.602 21.617 175.522 22.2303 176.441 22.2303C177.668 22.2303 178.741 21.1571 178.741 19.9306C178.741 18.7041 177.668 17.6309 176.441 17.6309C175.368 17.6309 174.602 18.2441 174.295 19.164H106.846L98.1082 27.9028L99.1812 28.976L107.459 20.6971Z" fill="white"/>
<path d="M311.953 55.9589H249.716L219.057 25.2965H203.115C202.808 24.3766 201.888 23.7634 200.968 23.7634C199.742 23.7634 198.669 24.8365 198.669 26.063C198.669 27.2895 199.742 28.3627 200.968 28.3627C202.042 28.3627 202.808 27.7495 203.115 26.8296H218.444L249.103 57.492H312.567L348.897 21.1571H382.469C382.928 21.617 383.542 21.9236 384.155 21.9236C385.381 21.9236 386.454 20.8504 386.454 19.6239C386.454 18.3974 385.381 17.3242 384.155 17.3242C382.928 17.3242 381.855 18.3974 381.855 19.6239H348.284L311.953 55.9589Z" fill="white"/>
<path d="M13.1833 136.908C13.1833 136.908 13.3366 136.908 13.1833 136.908L21.3079 144.88H84.6183V110.538L99.7944 95.3601H202.042C202.348 96.28 203.268 96.8932 204.188 96.8932C205.414 96.8932 206.487 95.8201 206.487 94.5936C206.487 93.3671 205.414 92.2939 204.188 92.2939C203.115 92.2939 202.348 92.9071 202.042 93.827H99.028L83.0854 109.925V143.347H21.9211L14.8696 136.294C15.3294 135.835 15.4827 135.375 15.4827 134.608C15.4827 133.382 14.4097 132.308 13.1833 132.308C11.957 132.308 10.8839 133.382 10.8839 134.608C10.8839 135.988 11.957 136.908 13.1833 136.908Z" fill="white"/>
<path d="M406.842 45.687C406.842 46.9135 407.915 47.9867 409.142 47.9867C410.368 47.9867 411.441 46.9135 411.441 45.687C411.441 44.4605 410.368 43.3873 409.142 43.3873C408.529 43.3873 407.915 43.694 407.455 44.1539H358.401L322.071 80.4889H239.445L208.786 49.8264H202.961C202.655 48.9066 201.735 48.2933 200.815 48.2933C199.589 48.2933 198.516 49.3665 198.516 50.593C198.516 51.8195 199.589 52.8927 200.815 52.8927C201.888 52.8927 202.655 52.2794 202.961 51.3596H208.02L238.679 82.022H322.531L358.861 45.687H406.842Z" fill="white"/>
<path d="M403.317 67.6107C402.09 67.6107 401.017 68.6838 401.017 69.9103C401.017 71.1368 402.09 72.21 403.317 72.21C404.39 72.21 405.156 71.5968 405.463 70.6769H457.583C457.889 71.5968 458.809 72.21 459.729 72.21C460.955 72.21 462.028 71.1368 462.028 69.9103C462.028 68.6838 460.955 67.6107 459.729 67.6107C458.656 67.6107 457.889 68.2239 457.583 69.1438H405.463C405.156 68.2239 404.39 67.6107 403.317 67.6107Z" fill="white"/>
<path d="M117.577 45.2271H174.295C174.602 46.1469 175.522 46.7602 176.441 46.7602C177.668 46.7602 178.741 45.687 178.741 44.4605C178.741 43.234 177.668 42.1608 176.441 42.1608C175.368 42.1608 174.602 42.7741 174.295 43.6939H116.963L115.43 45.2271L116.503 46.3002L117.577 45.2271Z" fill="white"/>
<path d="M338.32 84.3217C336.634 84.3217 335.254 85.7015 335.254 87.3879C335.254 88.0011 335.407 88.4611 335.714 88.921L329.429 95.2068H239.292L233.313 89.2276C233.62 88.7677 233.773 88.3078 233.773 87.6945C233.773 86.0081 232.394 84.6283 230.707 84.6283C229.021 84.6283 227.642 86.0081 227.642 87.6945C227.642 89.381 229.021 90.7608 230.707 90.7608C231.321 90.7608 231.781 90.6075 232.24 90.3008L238.679 96.7399H330.042L336.787 89.9942C337.247 90.3008 337.707 90.4541 338.32 90.4541C340.006 90.4541 341.386 89.0743 341.386 87.3879C341.386 85.7015 340.006 84.3217 338.32 84.3217ZM230.554 89.2276C229.634 89.2276 229.021 88.6144 229.021 87.6945C229.021 86.7746 229.634 86.1614 230.554 86.1614C231.474 86.1614 232.087 86.7746 232.087 87.6945C232.087 88.6144 231.474 89.2276 230.554 89.2276ZM338.32 88.921C337.4 88.921 336.787 88.3078 336.787 87.3879C336.787 86.468 337.4 85.8548 338.32 85.8548C339.24 85.8548 339.853 86.468 339.853 87.3879C339.853 88.3078 339.24 88.921 338.32 88.921Z" fill="white"/>
<path d="M452.064 61.4781C450.991 61.4781 450.225 62.0914 449.918 63.0113H359.474C359.168 62.0914 358.248 61.4781 357.328 61.4781C356.102 61.4781 355.029 62.5513 355.029 63.7778C355.029 65.0043 356.102 66.0775 357.328 66.0775C358.401 66.0775 359.168 65.4643 359.474 64.5444H449.918C450.225 65.4643 451.144 66.0775 452.064 66.0775C453.29 66.0775 454.363 65.0043 454.363 63.7778C454.363 62.5513 453.29 61.4781 452.064 61.4781Z" fill="white"/>
<path d="M443.173 55.1924C442.1 55.1924 441.18 55.9589 441.027 56.8788H405.463C405.156 55.9589 404.236 55.3457 403.317 55.3457C402.09 55.3457 401.017 56.4188 401.017 57.6453C401.017 58.8718 402.09 59.945 403.317 59.945C404.39 59.945 405.156 59.3318 405.463 58.4119H441.027C441.333 59.1785 442.253 59.7917 443.173 59.7917C444.399 59.7917 445.472 58.7185 445.472 57.492C445.472 56.2655 444.553 55.1924 443.173 55.1924Z" fill="white"/>
<path d="M391.973 19.6239C392.279 19.6239 392.586 19.4706 392.892 19.4706L415.887 42.4674H437.961L468.007 72.5166H502.498C502.804 73.4365 503.724 74.0497 504.644 74.0497C505.87 74.0497 506.943 72.9766 506.943 71.7501C506.943 70.5236 505.87 69.4504 504.644 69.4504C503.571 69.4504 502.804 70.0636 502.498 70.9835H468.773L438.727 40.9343H416.653L393.966 18.3974C394.119 18.0908 394.119 17.7842 394.119 17.4776C394.119 16.2511 393.046 15.1779 391.819 15.1779C390.593 15.1779 389.52 16.2511 389.52 17.4776C389.52 18.7041 390.593 19.6239 391.973 19.6239Z" fill="white"/>
<path d="M404.083 23.1501C404.39 23.1501 404.696 22.9968 405.003 22.9968L418.493 36.4883H440.567L470.613 66.3842H496.366C496.673 67.304 497.592 67.9173 498.512 67.9173C499.738 67.9173 500.811 66.8441 500.811 65.6176C500.811 64.3911 499.738 63.3179 498.512 63.3179C497.439 63.3179 496.673 63.9312 496.366 64.851H471.226L441.18 34.8019H419.106L406.076 21.7703C406.229 21.4637 406.383 21.1571 406.383 20.8505C406.383 19.624 405.309 18.5508 404.083 18.5508C402.857 18.5508 401.784 19.624 401.784 20.8505C401.784 22.077 402.857 23.1501 404.083 23.1501Z" fill="white"/>
<path d="M455.13 43.0807C455.437 43.0807 455.743 42.9274 456.05 42.9274L471.839 58.7185H487.628C487.935 59.6384 488.855 60.2516 489.774 60.2516C491.001 60.2516 492.074 59.1785 492.074 57.952C492.074 56.7255 491.001 55.6523 489.774 55.6523C488.701 55.6523 487.935 56.2655 487.628 57.1854H472.452L457.123 41.8542C457.276 41.5476 457.276 41.2409 457.276 40.9343C457.276 39.7078 456.203 38.6346 454.977 38.6346C453.75 38.6346 452.677 39.7078 452.677 40.9343C452.677 42.1608 453.904 43.0807 455.13 43.0807Z" fill="white"/>
<path d="M255.541 320.116C255.848 320.269 256.154 320.269 256.461 320.269C257.687 320.269 258.76 319.196 258.76 317.969C258.76 316.743 257.687 315.67 256.461 315.67C255.235 315.67 254.161 316.743 254.161 317.969C254.161 318.276 254.315 318.583 254.315 318.889L235.306 337.9C235 337.747 234.693 337.747 234.387 337.747C233.16 337.747 232.087 338.82 232.087 340.046C232.087 341.273 233.16 342.346 234.387 342.346C235.613 342.346 236.686 341.273 236.686 340.046C236.686 339.74 236.533 339.433 236.533 339.126L255.541 320.116Z" fill="white"/>
<path d="M447.465 216.937C447.465 215.71 446.392 214.637 445.166 214.637C443.94 214.637 442.866 215.71 442.866 216.937C442.866 218.01 443.48 218.776 444.399 219.083V231.041L466.321 252.965H477.664C477.971 253.885 478.891 254.498 479.81 254.498C481.037 254.498 482.11 253.425 482.11 252.198C482.11 250.972 481.037 249.899 479.81 249.899C478.737 249.899 477.971 250.512 477.664 251.432H466.934L445.932 230.428V219.083C446.852 218.776 447.465 217.856 447.465 216.937Z" fill="white"/>
<path d="M241.131 378.681V351.698L270.564 322.262H383.388L441.947 263.697H479.81V262.164H441.333L382.775 320.729H269.951L239.598 351.085V378.681C238.525 378.988 237.912 379.754 237.912 380.981C237.912 382.207 238.985 383.28 240.212 383.28C241.438 383.28 242.511 382.207 242.511 380.981C242.511 379.754 241.898 378.988 241.131 378.681Z" fill="white"/>
<path d="M218.751 365.956V330.541L244.964 304.325H284.207V302.791H244.197L217.218 329.774V365.803C216.298 366.109 215.685 367.029 215.685 367.949C215.685 369.176 216.758 370.249 217.984 370.249C219.21 370.249 220.284 369.176 220.284 367.949C220.284 367.029 219.67 366.263 218.751 365.956Z" fill="white"/>
<path d="M224.882 369.635V332.994L247.416 310.457H284.207V308.924H246.803L223.349 332.381V369.482C222.43 369.789 221.663 370.555 221.663 371.629C221.663 372.855 222.736 373.928 223.962 373.928C225.189 373.928 226.262 372.855 226.262 371.629C226.262 370.862 225.649 369.942 224.882 369.635Z" fill="white"/>
<path d="M479.964 126.942C480.27 127.862 481.19 128.476 482.11 128.476C483.336 128.476 484.409 127.402 484.409 126.176C484.409 124.949 483.336 123.876 482.11 123.876C481.037 123.876 480.27 124.489 479.964 125.409H470.153V201.145L483.949 214.944C483.796 215.25 483.643 215.557 483.643 215.863C483.643 217.09 484.716 218.163 485.942 218.163C487.168 218.163 488.242 217.09 488.242 215.863C488.242 214.637 487.168 213.564 485.942 213.564C485.636 213.564 485.329 213.717 485.022 213.717L471.686 200.379V126.942H479.964Z" fill="white"/>
<path d="M491.461 93.3671C490.234 93.3671 489.161 94.4403 489.161 95.6667C489.161 96.8932 490.234 97.9664 491.461 97.9664C491.767 97.9664 492.074 97.8131 492.38 97.8131L500.505 105.939V176.002C499.585 176.309 498.972 177.229 498.972 178.149C498.972 179.375 500.045 180.448 501.271 180.448C502.498 180.448 503.571 179.375 503.571 178.149C503.571 177.075 502.958 176.309 502.038 176.002V105.172L493.607 96.5866C493.76 96.28 493.76 95.9734 493.76 95.6667C493.76 94.2869 492.687 93.3671 491.461 93.3671Z" fill="white"/>
<path d="M486.708 236.101C487.935 236.101 489.008 235.027 489.008 233.801C489.008 232.574 487.935 231.501 486.708 231.501C486.402 231.501 486.095 231.655 485.789 231.655L459.422 205.438V114.677H479.963C480.27 115.597 481.19 116.211 482.11 116.211C483.336 116.211 484.409 115.137 484.409 113.911C484.409 112.684 483.336 111.611 482.11 111.611C481.037 111.611 480.27 112.224 479.963 113.144H457.889V206.205L484.562 232.881C484.409 233.188 484.409 233.494 484.409 233.801C484.409 235.181 485.329 236.101 486.708 236.101Z" fill="white"/>
<path d="M487.015 223.069C486.709 223.069 486.402 223.222 486.095 223.222L465.707 202.832V120.81H490.847C491.154 121.73 492.074 122.343 492.994 122.343C494.22 122.343 495.293 121.27 495.293 120.043C495.293 118.817 494.22 117.744 492.994 117.744C491.92 117.744 491.154 118.357 490.847 119.277H464.174V203.599L485.022 224.449C484.869 224.756 484.716 225.062 484.716 225.369C484.716 226.595 485.789 227.669 487.015 227.669C488.241 227.669 489.314 226.595 489.314 225.369C489.314 224.142 488.241 223.069 487.015 223.069Z" fill="white"/>
<path d="M512.768 230.735C512.768 229.048 511.389 227.668 509.703 227.668C508.016 227.668 506.637 229.048 506.637 230.735C506.637 232.115 507.556 233.341 508.936 233.648V252.965H522.733C523.039 254.345 524.266 255.265 525.645 255.265C527.331 255.265 528.711 253.885 528.711 252.198C528.711 250.512 527.331 249.132 525.645 249.132C524.266 249.132 523.039 250.052 522.733 251.432H510.469V233.648C511.849 233.341 512.768 232.115 512.768 230.735ZM525.645 250.665C526.565 250.665 527.178 251.279 527.178 252.198C527.178 253.118 526.565 253.732 525.645 253.732C524.725 253.732 524.112 253.118 524.112 252.198C524.112 251.279 524.879 250.665 525.645 250.665ZM509.703 232.268C508.783 232.268 508.17 231.655 508.17 230.735C508.17 229.815 508.783 229.202 509.703 229.202C510.622 229.202 511.236 229.815 511.236 230.735C511.236 231.501 510.622 232.268 509.703 232.268Z" fill="white"/>
<path d="M10.7306 143.194C10.8839 143.194 10.8839 143.194 10.7306 143.194L18.7018 151.012H90.5967V113.144L102.247 101.493H165.251C165.558 102.413 166.477 103.026 167.397 103.026C168.623 103.026 169.696 101.953 169.696 100.726C169.696 99.4996 168.623 98.4264 167.397 98.4264C166.324 98.4264 165.558 99.0396 165.251 99.9595H101.634L89.2171 112.378V149.326H19.315L12.4168 142.58C12.8767 142.12 13.03 141.66 13.03 140.894C13.03 139.667 11.9569 138.594 10.7306 138.594C9.50421 138.594 8.43115 139.667 8.43115 140.894C8.43115 142.274 9.50421 143.194 10.7306 143.194Z" fill="white"/>
<path d="M498.972 223.069C498.972 224.296 500.045 225.369 501.272 225.369C502.498 225.369 503.571 224.296 503.571 223.069C503.571 221.996 502.958 221.229 502.038 220.923V200.839H493.607L481.497 188.727V155.918L491.767 145.647C492.074 145.8 492.38 145.953 492.687 145.953C493.913 145.953 494.986 144.88 494.986 143.653C494.986 142.427 493.913 141.354 492.687 141.354C491.461 141.354 490.388 142.427 490.388 143.653C490.388 143.96 490.541 144.267 490.541 144.573L479.81 155.305V189.34L492.687 202.219H500.198V220.769C499.585 221.229 498.972 222.149 498.972 223.069Z" fill="white"/>
<path d="M2.91267 179.988C3.83243 179.988 4.5989 179.375 5.05878 178.609H8.27796L27.4397 159.445H57.7919C58.0985 160.364 59.0183 160.978 59.938 160.978C61.1644 160.978 62.2374 159.905 62.2374 158.678C62.2374 157.452 61.1644 156.378 59.938 156.378C58.865 156.378 58.0985 156.992 57.7919 157.911H26.6732L7.51149 177.229H5.05878C4.75219 176.156 3.98572 175.542 2.75937 175.542C1.53302 175.542 0.459961 176.616 0.459961 177.842C0.613255 179.069 1.53302 179.988 2.91267 179.988Z" fill="white"/>
<path d="M2.29941 192.407C3.21917 192.407 4.13894 191.793 4.44553 190.874H13.1833L32.345 171.71H57.6386C57.9451 172.629 58.8649 173.243 59.7847 173.243C61.011 173.243 62.0841 172.169 62.0841 170.943C62.0841 169.716 61.011 168.643 59.7847 168.643C58.7116 168.643 57.9451 169.257 57.6386 170.176H31.7319L12.5701 189.494H4.44553C4.13894 188.574 3.21917 187.961 2.29941 187.961C1.07306 187.961 0 189.034 0 190.26C0 191.487 1.07306 192.407 2.29941 192.407Z" fill="white"/>
<path d="M2.45275 186.274C3.37252 186.274 4.29228 185.661 4.59887 184.894H10.7306L29.8924 165.73H57.7919C58.0985 166.65 59.0182 167.264 59.938 167.264C61.1644 167.264 62.2374 166.19 62.2374 164.964C62.2374 163.737 61.1644 162.664 59.938 162.664C58.865 162.664 58.0985 163.277 57.7919 164.197H29.2792L10.1175 183.361H4.75216C4.44558 182.441 3.52581 181.675 2.60605 181.675C1.3797 181.675 0.306637 182.748 0.306637 183.975C0.153343 185.201 1.2264 186.274 2.45275 186.274Z" fill="white"/>
<path d="M3.67905 173.703C4.9054 173.703 5.97846 172.629 5.97846 171.403C5.97846 171.25 5.97846 171.096 5.97846 170.943C5.97846 170.79 5.97846 170.636 5.82517 170.483C5.82517 170.483 5.82517 170.483 5.82517 170.33C5.82517 170.176 5.67187 170.176 5.67187 170.023C5.67187 170.023 5.67187 169.87 5.51858 169.87L5.36528 169.717L5.21199 169.563L5.0587 169.41C4.9054 169.41 4.9054 169.257 4.75211 169.257H4.59881C4.44552 169.257 4.44552 169.257 4.29223 169.103H4.13893C3.98564 169.103 3.98564 169.103 3.83234 169.103H3.67905C2.4527 169.103 1.37964 170.176 1.37964 171.403C1.37964 172.783 2.4527 173.703 3.67905 173.703Z" fill="white"/>
<path d="M206.487 330.388V325.482L239.752 292.213H284.207V290.68H239.139L204.954 324.868V330.388C204.034 330.694 203.421 331.614 203.421 332.534C203.421 333.76 204.494 334.834 205.721 334.834C206.947 334.834 208.02 333.76 208.02 332.534C208.02 331.461 207.407 330.694 206.487 330.388Z" fill="white"/>
<path d="M203.115 342.346C202.808 342.346 202.501 342.499 202.195 342.653L184.719 325.175H162.032L147.316 339.893H62.8506L3.98568 281.021V223.529C4.90544 223.222 5.51862 222.303 5.51862 221.383C5.51862 220.156 4.44556 219.083 3.21921 219.083C1.99286 219.083 0.9198 220.156 0.9198 221.383C0.9198 222.456 1.53298 223.222 2.45274 223.529V281.634L62.2374 341.426H148.082L162.798 326.708H183.953L200.969 343.726C200.815 344.032 200.815 344.339 200.815 344.646C200.815 345.872 201.888 346.945 203.115 346.945C204.341 346.945 205.414 345.872 205.414 344.646C205.414 343.419 204.341 342.346 203.115 342.346Z" fill="white"/>
<path d="M2.29941 202.372C3.21917 202.372 3.83235 201.912 4.29223 201.299H24.6803C24.9869 202.679 26.2133 203.598 27.5929 203.598C29.2792 203.598 30.6588 202.219 30.6588 200.532C30.6588 198.846 29.2792 197.466 27.5929 197.466C26.2133 197.466 24.9869 198.386 24.6803 199.766H4.59882C4.44553 198.692 3.52576 197.773 2.29941 197.773C1.07306 197.773 0 198.846 0 200.072C0 201.452 1.07306 202.372 2.29941 202.372ZM27.5929 198.999C28.5127 198.999 29.1259 199.612 29.1259 200.532C29.1259 201.452 28.5127 202.065 27.5929 202.065C26.6732 202.065 26.06 201.452 26.06 200.532C26.06 199.612 26.8265 198.999 27.5929 198.999Z" fill="white"/>
<path d="M212.619 361.97V327.935L242.358 298.192H284.207V296.659H241.745L211.086 327.321V361.817C210.166 362.123 209.4 362.89 209.4 363.963C209.4 365.189 210.473 366.263 211.699 366.263C212.925 366.263 213.998 365.189 213.998 363.963C213.998 363.043 213.385 362.277 212.619 361.97Z" fill="white"/>
<path d="M4.59885 212.184H31.1187L61.011 182.288H75.574C75.8806 183.208 76.8003 183.821 77.7201 183.821C78.9464 183.821 80.0195 182.748 80.0195 181.522C80.0195 180.295 78.9464 179.222 77.7201 179.222C76.647 179.222 75.8806 179.835 75.574 180.755H60.3979L30.5055 210.651H4.59885C4.29226 209.731 3.52579 208.964 2.45273 208.964C1.22638 208.964 0.15332 210.038 0.15332 211.264C0.15332 212.491 1.22638 213.564 2.45273 213.564C3.37249 213.564 4.13896 212.951 4.59885 212.184Z" fill="white"/>
<path d="M69.9021 58.5652C70.362 58.5652 70.6686 58.4119 70.9752 58.1053L71.895 57.1854L74.1944 59.4851L73.2746 60.405C72.968 60.7116 72.8147 61.1715 72.8147 61.4782L70.8219 63.4712L72.2015 64.851L74.1944 62.858C74.6542 62.858 74.9608 62.7047 75.2674 62.398L76.1872 61.4782L78.4866 63.7778L77.5668 64.6977C77.2602 65.0043 77.1069 65.4643 77.1069 65.7709L75.1141 67.764L76.4938 69.1438L78.4866 67.1507C78.9465 67.1507 79.2531 66.9974 79.5597 66.6908L80.4794 65.7709L82.7788 68.0706L81.8591 68.9905C81.5525 69.2971 81.3992 69.757 81.3992 70.0636L79.7129 72.3633L81.0926 73.7431L83.0854 71.7501C83.5453 71.7501 83.8519 71.5968 84.1585 71.2901L85.0782 70.3703L87.3776 72.67L86.4579 73.5898C86.1513 73.8965 85.998 74.3564 85.998 74.663L84.0052 76.6561L85.3848 78.0359L87.3776 76.0428C87.8375 76.0428 88.1441 75.8895 88.4507 75.5829L112.365 51.6662C112.671 51.3596 112.824 50.8996 112.824 50.593L114.817 48.6L113.438 47.5268L111.445 49.5198C110.985 49.5198 110.678 49.6731 110.372 49.9798L109.452 50.8996L107.153 48.6L108.072 47.6801C108.379 47.3735 108.532 46.9135 108.532 46.6069L110.372 44.4605L108.992 43.0807L106.999 45.0738C106.539 45.0738 106.233 45.2271 105.926 45.5337L105.006 46.4536L102.707 44.0006L103.627 43.0807C103.933 42.7741 104.087 42.3142 104.087 42.0075L106.08 40.0145L104.7 38.6347L102.707 40.6277C102.247 40.6277 101.941 40.781 101.634 41.0877L100.714 42.0075L98.4148 39.7078L99.3346 38.788C99.6412 38.4814 99.7945 38.0214 99.7945 37.7148L101.787 35.7217L100.408 34.3419L98.4148 36.335C97.9549 36.335 97.6483 36.4883 97.3418 36.7949L96.422 37.7148L93.9693 35.2618L94.8891 34.3419C95.1956 34.0353 95.3489 33.5754 95.3489 33.2687L97.3418 31.2757L95.9621 29.8959L93.9693 31.8889C93.5094 31.8889 93.2028 32.0422 92.8962 32.3489L68.9824 56.1122C68.6758 56.4189 68.5225 56.8788 68.5225 57.1854L66.5297 59.1785L67.9093 60.5583L69.9021 58.5652Z" fill="white"/>
<path d="M485.635 261.857H482.876V263.697H485.635C485.942 264.003 486.249 264.157 486.709 264.157H488.088V267.53H486.709C486.249 267.53 485.942 267.683 485.635 267.99H482.876V269.829H485.635C485.942 270.136 486.249 270.289 486.709 270.289H488.088V273.662H486.709C486.249 273.662 485.942 273.815 485.635 274.122H482.876V275.962H485.635C485.942 276.268 486.249 276.422 486.709 276.422H488.088V279.795H486.709C486.249 279.795 485.942 279.948 485.635 280.255H482.876V282.094H485.635C485.942 282.401 486.249 282.554 486.709 282.554H488.088V285.927H486.709C486.249 285.927 485.942 286.08 485.635 286.387H482.876V288.227H485.635C485.942 288.533 486.249 288.687 486.709 288.687H520.433C520.893 288.687 521.2 288.533 521.506 288.227H524.266V286.694H521.506C521.2 286.387 520.893 286.234 520.433 286.234H519.054V282.861H520.433C520.893 282.861 521.2 282.708 521.506 282.401H524.266V280.561H521.506C521.2 280.255 520.893 280.101 520.433 280.101H519.054V276.728H520.433C520.893 276.728 521.2 276.575 521.506 276.268H524.266V274.429H521.506C521.2 274.122 520.893 273.969 520.433 273.969H519.054V270.596H520.433C520.893 270.596 521.2 270.443 521.506 270.136H524.266V268.296H521.506C521.2 267.99 520.893 267.836 520.433 267.836H519.054V264.463H520.433C520.893 264.463 521.2 264.31 521.506 264.003H524.266V262.164H521.506C521.2 261.857 520.893 261.704 520.433 261.704H486.709C486.249 261.397 485.942 261.55 485.635 261.857Z" fill="white"/>
<path d="M324.83 268.143C325.29 268.143 325.597 267.99 325.903 267.683H328.662V265.843H325.903C325.597 265.537 325.29 265.383 324.83 265.383H291.105C290.645 265.383 290.339 265.537 290.032 265.843H287.273V267.683H290.032C290.339 267.99 290.645 268.143 291.105 268.143H292.485V271.516H291.105C290.645 271.516 290.339 271.669 290.032 271.976H287.273V273.815H290.032C290.339 274.122 290.645 274.275 291.105 274.275H292.485V277.648H291.105C290.645 277.648 290.339 277.802 290.032 278.108H287.273V279.948H290.032C290.339 280.255 290.645 280.408 291.105 280.408H292.485V283.627H291.105C290.645 283.627 290.339 283.781 290.032 284.087H287.273V284.241V286.08V286.234H290.032C290.339 286.54 290.645 286.694 291.105 286.694H292.485V289.913H291.105C290.645 289.913 290.339 290.067 290.032 290.373H287.273V290.526V292.366V292.52H290.032C290.339 292.826 290.645 292.979 291.105 292.979H292.485V296.199H291.105C290.645 296.199 290.339 296.352 290.032 296.659H287.273V298.499H290.032C290.339 298.805 290.645 298.959 291.105 298.959H292.485V302.331H291.105C290.645 302.331 290.339 302.485 290.032 302.791H287.273V304.631H290.032C290.339 304.938 290.645 305.091 291.105 305.091H292.485V308.464H291.105C290.645 308.464 290.339 308.617 290.032 308.924H287.273V310.764H290.032C290.339 311.07 290.645 311.224 291.105 311.224H324.83C325.29 311.224 325.597 311.07 325.903 310.764H328.662V308.924H325.903C325.597 308.617 325.29 308.464 324.83 308.464H323.45V305.091H324.83C325.29 305.091 325.597 304.938 325.903 304.631H328.662V302.791H325.903C325.597 302.485 325.29 302.331 324.83 302.331H323.45V298.959H324.83C325.29 298.959 325.597 298.805 325.903 298.499H328.662V296.659H325.903C325.597 296.352 325.29 296.199 324.83 296.199H323.45V292.979H324.83C325.29 292.979 325.597 292.826 325.903 292.52H328.662V292.366V290.526V290.373H325.903C325.597 290.067 325.29 289.913 324.83 289.913H323.45V286.694H324.83C325.29 286.694 325.597 286.54 325.903 286.234H328.662V286.08V284.241V284.087H325.903C325.597 283.781 325.29 283.627 324.83 283.627H323.45V280.561H324.83C325.29 280.561 325.597 280.408 325.903 280.101H328.662V278.262H325.903C325.597 277.955 325.29 277.802 324.83 277.802H323.45V274.429H324.83C325.29 274.429 325.597 274.275 325.903 273.969H328.662V272.129H325.903C325.597 271.822 325.29 271.669 324.83 271.669H323.45V268.296H324.83V268.143Z" fill="white"/>
<path d="M90.1369 204.365L88.9105 205.132L78.0266 216.477L77.1069 217.397C76.8003 217.703 76.647 218.163 76.647 218.47L74.6542 220.463L76.0338 221.843L78.0266 219.85C78.4865 219.85 78.7931 219.696 79.0997 219.39L80.0195 218.47L82.3189 220.769L81.3991 221.689C81.0925 221.996 80.9392 222.456 80.9392 222.763L78.9464 224.756L80.3261 226.135L82.3189 224.142C82.7788 224.142 83.0853 223.989 83.3919 223.682L84.3117 222.763L86.6111 225.062L85.6913 225.982C85.3848 226.289 85.2315 226.749 85.2315 227.055L83.2386 229.048L84.6183 230.428L86.6111 228.435C87.071 228.435 87.3776 228.282 87.6842 227.975L88.6039 227.055L90.9033 229.355L89.9836 230.275C89.677 230.581 89.5237 231.041 89.5237 231.348L87.5309 233.341L88.9105 234.721L90.9033 232.728C91.3632 232.728 91.6698 232.575 91.9764 232.268L92.8962 231.348L95.1956 233.648L94.2758 234.568C93.9692 234.874 93.8159 235.334 93.8159 235.641L91.8231 237.634L93.2028 239.014L95.1956 237.021C95.6555 237.021 95.962 236.867 96.2686 236.561L97.1884 235.641L99.4878 237.94L98.5681 238.86C98.2615 239.167 98.1082 239.627 98.1082 239.933L96.1153 241.927L97.495 243.306L99.4878 241.313C99.9477 241.313 100.254 241.16 100.561 240.853L101.481 239.933L112.671 228.742L113.591 227.822C113.897 227.515 114.051 227.055 114.051 226.749L116.044 224.756L114.664 223.376L112.671 225.369C112.211 225.369 111.905 225.522 111.598 225.829L110.678 226.749L108.379 224.449L109.299 223.529C109.605 223.222 109.759 222.763 109.759 222.456L111.751 220.463L110.372 219.083L108.379 221.076C107.919 221.076 107.612 221.229 107.306 221.536L106.386 222.456L104.087 220.156L105.006 219.236C105.313 218.93 105.466 218.47 105.466 218.163L107.459 216.17L106.079 214.79L104.087 216.783C103.627 216.783 103.32 216.937 103.014 217.243L102.094 218.163L99.7944 215.863L100.714 214.944C101.021 214.637 101.174 214.177 101.174 213.87L103.167 211.877L101.787 210.498L99.7944 212.491C99.3345 212.491 99.0279 212.644 98.7213 212.951L97.8016 213.87L95.5022 211.571L96.4219 210.651C96.7285 210.344 96.8818 209.884 96.8818 209.578L98.8746 207.585L97.495 206.205L95.5022 208.198C95.0423 208.198 94.7357 208.351 94.4291 208.658L93.5093 209.578L91.2099 207.278L92.1297 206.358C92.4363 206.052 92.5896 205.592 92.5896 205.285L94.5824 203.292L93.2028 201.912L91.2099 203.905C90.9033 203.905 90.4435 204.058 90.1369 204.365Z" fill="white"/>
</g>
</svg>
