<svg width="57" height="56" viewBox="0 0 57 56" fill="none" xmlns="http://www.w3.org/2000/svg">
<path d="M41.1 32.9875L47.75 49.3501L40.05 48.3876L35.325 54.3376L29.6375 38.0625" stroke="#231F20" stroke-miterlimit="10" stroke-linecap="round" stroke-linejoin="round"/>
<path d="M15.2875 32.9874L8.6375 49.3499L16.3375 48.3874L21.0625 54.3374L26.75 38.0624" stroke="#231F20" stroke-miterlimit="10" stroke-linecap="round" stroke-linejoin="round"/>
<path d="M28.5 30.5375C34.299 30.5375 39 25.8365 39 20.0375C39 14.2385 34.299 9.53748 28.5 9.53748C22.701 9.53748 18 14.2385 18 20.0375C18 25.8365 22.701 30.5375 28.5 30.5375Z" stroke="#231F20" stroke-miterlimit="10" stroke-linecap="round" stroke-linejoin="round"/>
<path d="M28.5 3.93748L32.4375 1.66248L35.15 5.33748L39.6125 4.89998L40.575 9.27498L44.8625 10.7625L43.9875 15.1375L47.3125 18.2L44.6875 21.875L46.525 26.075L42.5875 28.35V32.8125L38.0375 33.3375L36.2 37.45L31.9125 36.1375L28.5 39.1125L25.0875 36.1375L20.8 37.45L18.9625 33.3375L14.4125 32.8125V28.35L10.475 26.075L12.3125 21.875L9.6875 18.2L13.0125 15.1375L12.1375 10.7625L16.425 9.27498L17.3875 4.89998L21.85 5.33748L24.5625 1.66248L28.5 3.93748Z" stroke="#231F20" stroke-miterlimit="10" stroke-linecap="round" stroke-linejoin="round"/>
</svg>
