<svg width="64" height="64" viewBox="0 0 64 64" fill="none" xmlns="http://www.w3.org/2000/svg">
<g clip-path="url(#clip0)">
<path d="M32 40.0146L35.0998 40.8599L25.7722 50.1875C25.6033 46.0963 24.1774 42.1169 21.6774 38.8695V36.129H23.3589C24.6855 36.129 25.8064 35.1794 26.0242 33.8705L26.5922 30.4682C26.6436 30.1593 26.9078 29.9355 27.2329 29.9355C28.7238 29.9355 29.9355 28.7238 29.9355 27.2329C29.9355 26.816 29.8362 26.3982 29.6507 26.0242L27.939 22.6013C27.8936 22.5126 27.871 22.4133 27.871 22.3155V19.6129H34.0645C36.3417 19.6129 38.1935 17.7611 38.1935 15.4839C38.1935 13.2067 36.3417 11.3548 34.0645 11.3548H26.9637C24.9093 7.812 21.3936 5.22127 17.248 4.40474C17.436 4.00605 17.5484 3.56552 17.5484 3.09677C17.5484 1.38962 16.1588 0 14.4516 0C12.7445 0 11.3548 1.38962 11.3548 3.09677C11.3548 3.56653 11.4672 4.00706 11.6552 4.40575C5.02067 5.7127 0 11.5685 0 18.5806V23.7419C0 26.6643 1.26159 29.442 3.46018 31.3664L5.50302 33.1542C7.08317 34.5373 8.04738 36.4758 8.22177 38.5519C5.84173 39.3982 4.12903 41.6683 4.12903 44.3357C4.12903 44.3528 4.13105 44.3695 4.13105 44.3871H4.12903V64H6.19355V48.9435L12.3871 55.1371L13.4194 54.1048L19.8523 60.5378C20.7535 61.44 21.9521 61.9355 23.2258 61.9355C23.4012 61.9355 23.5706 61.9037 23.7419 61.8851V64H25.8064V61.1714C26.0882 60.9889 26.3558 60.7812 26.5993 60.5388L42.1976 44.9405C42.7177 44.4204 43.0635 43.7762 43.2329 43.0781L56.7742 46.7707V23.4229L32 30.1789V40.0146ZM23.7419 50.9965V51.1855L20.0403 47.4839L21.0726 46.4516L14.6139 39.9929C14.4733 39.8523 14.3256 39.7193 14.1749 39.5943C16.127 39.9884 18.1089 40.2117 20.1094 40.2394C22.4476 43.3241 23.7419 47.1215 23.7419 50.9965ZM26.0912 23.5242L27.8029 26.9471C27.8483 27.0358 27.871 27.1351 27.871 27.2329C27.871 27.5852 27.5852 27.871 27.2218 27.871C25.8952 27.871 24.7742 28.8206 24.5565 30.1295L23.9884 33.5318C23.937 33.8407 23.6729 34.0645 23.3589 34.0645H19.6129V38.1552C16.7505 38.0655 13.9254 37.5867 11.1971 36.7001C12.6275 35.194 13.4194 33.2324 13.4194 31.1472C13.4194 30.0428 12.87 29.0176 11.9516 28.4047L10.873 27.685C10.5282 27.4551 10.3226 27.0721 10.3226 26.6593V26.4062C10.3226 25.8745 10.6613 25.4047 11.1648 25.2379C12.5141 24.7878 13.4194 23.5302 13.4194 22.1099V19.6129H25.8064V22.3155C25.8064 22.7324 25.9057 23.1502 26.0912 23.5242ZM34.0645 13.4194C35.2031 13.4194 36.129 14.3453 36.129 15.4839C36.129 16.6225 35.2031 17.5484 34.0645 17.5484H28.8669C28.7641 16.1043 28.4491 14.7167 27.9506 13.4194H34.0645ZM13.4194 3.09677C13.4194 2.52823 13.8831 2.06452 14.4516 2.06452C15.0202 2.06452 15.4839 2.52823 15.4839 3.09677C15.4839 3.66532 15.0202 4.12903 14.4516 4.12903C13.8831 4.12903 13.4194 3.66532 13.4194 3.09677ZM14.4516 6.19355C20.934 6.19355 26.2702 11.2001 26.7954 17.5484H2.10786C2.63306 11.2001 7.96925 6.19355 14.4516 6.19355ZM6.8624 31.6013L4.81956 29.8135C3.06905 28.2807 2.06452 26.0685 2.06452 23.7419V19.6129H11.3548V22.1099C11.3548 22.6416 11.0161 23.1114 10.5126 23.2782C9.16331 23.7283 8.25806 24.9859 8.25806 26.4062V26.6593C8.25806 27.7636 8.80746 28.7888 9.72581 29.4017L10.8044 30.1215C11.1492 30.3513 11.3548 30.7344 11.3548 31.1472C11.3548 32.7525 10.7303 34.2626 9.59476 35.3972L9.56804 35.4239C8.97984 33.9728 8.06804 32.6568 6.8624 31.6013ZM7.3881 47.2188C6.61794 46.4486 6.19355 45.4244 6.19355 44.3357C6.19355 42.0872 8.02268 40.2581 10.2712 40.2581C11.3599 40.2581 12.3841 40.6825 13.1542 41.4526L18.1532 46.4516L12.3871 52.2177L7.3881 47.2188ZM40.7369 43.4808L25.1396 59.0781C24.1174 60.1003 22.3352 60.1003 21.313 59.0781L14.879 52.6452L18.5806 48.9435L22.7984 53.1613L21.9798 53.9798L23.4395 55.4395L38.0675 40.8115C38.4249 40.4541 38.8987 40.2581 39.4022 40.2581C40.444 40.2581 41.2903 41.1043 41.2903 42.1462C41.2903 42.6497 41.0943 43.1235 40.7369 43.4808ZM34.0645 31.7566L50.5806 27.2515V37.1613H52.6452V26.689L54.7097 26.1265V44.069L52.6452 43.5065V39.2258H50.5806V42.942L43.1381 40.9123C42.6169 39.3382 41.1487 38.1935 39.4022 38.1935C38.435 38.1935 37.5297 38.5539 36.8095 39.1855L34.0645 38.437V31.7566Z" fill="#4A321F"/>
<path d="M58.8387 34.0645H64V36.129H58.8387V34.0645Z" fill="#4A321F"/>
<path d="M58.2218 28.0756L62.3503 24.9778L63.5892 26.6295L59.4607 29.7273L58.2218 28.0756Z" fill="#4A321F"/>
<path d="M58.2192 42.1161L59.4582 40.4648L63.5872 43.5616L62.3483 45.2128L58.2192 42.1161Z" fill="#4A321F"/>
</g>
<defs>
<clipPath id="clip0">
<rect width="64" height="64" fill="white"/>
</clipPath>
</defs>
</svg>
