<svg width="80" height="80" viewBox="0 0 80 80" fill="none" xmlns="http://www.w3.org/2000/svg">
<path d="M42.3514 26.5012C42.8636 27.0132 43.6937 27.0132 44.2059 26.5012L48.1403 22.5668C48.6373 22.0522 48.6302 21.2342 48.1243 20.7284C47.6184 20.2225 46.8005 20.2154 46.2859 20.7124L43.2786 23.7196L42.8944 23.3353C42.3798 22.8383 41.5618 22.8454 41.0559 23.3513C40.5501 23.8572 40.5429 24.6752 41.04 25.1898L42.3514 26.5012Z" fill="#4A321F"/>
<path d="M7.86885 25.5736H34.0984C34.8227 25.5736 35.4098 24.9865 35.4098 24.2622C35.4098 23.5379 34.8227 22.9507 34.0984 22.9507H7.86885C7.14454 22.9507 6.55737 23.5379 6.55737 24.2622C6.55737 24.9865 7.14454 25.5736 7.86885 25.5736Z" fill="#4A321F"/>
<path d="M42.3514 34.3699C42.8636 34.8819 43.6937 34.8819 44.2059 34.3699L48.1403 30.4355C48.6373 29.9209 48.6302 29.1029 48.1243 28.597C47.6184 28.0911 46.8005 28.084 46.2859 28.581L43.2786 31.5883L42.8944 31.204C42.3798 30.707 41.5618 30.7141 41.0559 31.22C40.5501 31.7258 40.5429 32.5438 41.04 33.0584L42.3514 34.3699Z" fill="#4A321F"/>
<path d="M7.86885 33.4428H34.0984C34.8227 33.4428 35.4098 32.8556 35.4098 32.1313C35.4098 31.407 34.8227 30.8198 34.0984 30.8198H7.86885C7.14454 30.8198 6.55737 31.407 6.55737 32.1313C6.55737 32.8556 7.14454 33.4428 7.86885 33.4428Z" fill="#4A321F"/>
<path d="M42.3514 42.2385C42.8636 42.7505 43.6937 42.7505 44.2059 42.2385L48.1403 38.3041C48.6373 37.7895 48.6302 36.9715 48.1243 36.4657C47.6184 35.9598 46.8005 35.9527 46.2859 36.4497L43.2786 39.4569L42.8944 39.0726C42.3798 38.5756 41.5618 38.5827 41.0559 39.0886C40.5501 39.5945 40.5429 40.4125 41.04 40.9271L42.3514 42.2385Z" fill="#4A321F"/>
<path d="M7.86885 41.3114H34.0984C34.8227 41.3114 35.4098 40.7243 35.4098 40C35.4098 39.2756 34.8227 38.6885 34.0984 38.6885H7.86885C7.14454 38.6885 6.55737 39.2756 6.55737 40C6.55737 40.7243 7.14454 41.3114 7.86885 41.3114Z" fill="#4A321F"/>
<path d="M48.1403 44.3186C47.6282 43.8066 46.798 43.8066 46.2859 44.3186L43.2786 47.3258L42.8944 46.9415C42.3798 46.4445 41.5618 46.4516 41.0559 46.9575C40.5501 47.4634 40.5429 48.2813 41.04 48.7959L42.3514 50.1074C42.8636 50.6194 43.6937 50.6194 44.2059 50.1074L48.1403 46.173C48.6523 45.6609 48.6523 44.8307 48.1403 44.3186Z" fill="#4A321F"/>
<path d="M67.1225 54.9861L58.8379 66.8196L56.0091 63.9907C55.4945 63.4937 54.6765 63.5008 54.1706 64.0067C53.6647 64.5126 53.6576 65.3305 54.1546 65.8451L58.0891 69.7796C58.335 70.0255 58.6685 70.1637 59.0163 70.1638C59.0543 70.1658 59.0924 70.1658 59.1304 70.1638C59.5167 70.1299 59.8681 69.9268 60.0904 69.6091L69.2707 56.4943C69.5564 56.1111 69.611 55.6028 69.4132 55.1677C69.2154 54.7325 68.7965 54.4395 68.3199 54.4028C67.8434 54.3661 67.3846 54.5916 67.1225 54.9914V54.9861Z" fill="#4A321F"/>
<path d="M35.4098 47.8691C35.4098 47.1448 34.8227 46.5576 34.0984 46.5576H7.86885C7.14454 46.5576 6.55737 47.1448 6.55737 47.8691C6.55737 48.5934 7.14454 49.1806 7.86885 49.1806H34.0984C34.8227 49.1806 35.4098 48.5934 35.4098 47.8691Z" fill="#4A321F"/>
<path d="M23.4753 57.7747C23.2288 57.3612 22.783 57.1079 22.3016 57.1079C21.8202 57.1079 21.3743 57.3612 21.1278 57.7747L15.8819 68.2665C15.6725 68.6858 15.7027 69.185 15.9611 69.5761C16.2195 69.9671 16.667 70.1906 17.1349 70.1623C17.6028 70.134 18.02 69.8583 18.2294 69.4389L19.8268 66.2297H24.7632L26.3671 69.4389C26.6909 70.0872 27.4789 70.3502 28.1272 70.0265C28.7754 69.7027 29.0385 68.9147 28.7147 68.2665L23.4753 57.7747ZM21.1383 63.6068L22.295 61.2933L23.4517 63.6068H21.1383Z" fill="#4A321F"/>
<path d="M35.4099 59.6723H34.0984V58.3608C34.0984 57.6365 33.5112 57.0493 32.7869 57.0493C32.0626 57.0493 31.4754 57.6365 31.4754 58.3608V59.6723H30.164C29.4396 59.6723 28.8525 60.2594 28.8525 60.9837C28.8525 61.708 29.4396 62.2952 30.164 62.2952H31.4754V63.6067C31.4754 64.331 32.0626 64.9182 32.7869 64.9182C33.5112 64.9182 34.0984 64.331 34.0984 63.6067V62.2952H35.4099C36.1342 62.2952 36.7213 61.708 36.7213 60.9837C36.7213 60.2594 36.1342 59.6723 35.4099 59.6723Z" fill="#4A321F"/>
<path d="M61.6394 45.2459C60.3138 45.2507 58.9934 45.4104 57.7049 45.722V16.3935C57.7048 16.0457 57.5666 15.7121 57.3207 15.4663L42.8944 1.04002C42.6485 0.794058 42.315 0.655836 41.9672 0.655762H3.93443C1.7615 0.655762 0 2.41726 0 4.59019V75.4098C0 77.5828 1.7615 79.3443 3.93443 79.3443H53.7705C54.6722 79.3395 55.545 79.0251 56.2426 78.4538C62.6497 80.6099 69.7255 78.7769 74.2798 73.7811C78.8341 68.7854 80.0066 61.5707 77.2686 55.3898C74.5307 49.209 68.3995 45.2296 61.6394 45.2459ZM43.2787 5.13314L53.2275 15.082H44.5902C43.8659 15.082 43.2787 14.4948 43.2787 13.7705V5.13314ZM3.93443 76.7213C3.21012 76.7213 2.62295 76.1342 2.62295 75.4098V4.59019C2.62295 3.86588 3.21012 3.27871 3.93443 3.27871H40.6557V13.7705C40.6557 15.9434 42.4172 17.7049 44.5902 17.7049H55.082V46.5574C49.1949 49.0005 45.1658 54.5275 44.641 60.8798C44.1163 67.232 47.1838 73.3452 52.5902 76.7213H3.93443ZM61.6394 76.7213C53.672 76.7213 47.2131 70.2625 47.2131 62.2951C47.2131 54.3277 53.672 47.8689 61.6394 47.8689C69.6067 47.8689 76.0656 54.3277 76.0656 62.2951C76.0562 70.2586 69.6028 76.7119 61.6394 76.7213Z" fill="#4A321F"/>
</svg>
