<svg width="56" height="56" viewBox="0 0 56 56" fill="none" xmlns="http://www.w3.org/2000/svg">
<path d="M15.75 8.75H43.75" stroke="#231F20" stroke-miterlimit="10" stroke-linecap="round" stroke-linejoin="round"/>
<path d="M47.25 1.75H15.75C13.8935 1.75 12.113 2.4875 10.8003 3.80025C9.4875 5.11301 8.75 6.89348 8.75 8.75C8.75 10.6065 9.4875 12.387 10.8003 13.6997C12.113 15.0125 13.8935 15.75 15.75 15.75H47.25V54.25H15.75C13.8935 54.25 12.113 53.5125 10.8003 52.1997C9.4875 50.887 8.75 49.1065 8.75 47.25V8.75" stroke="#231F20" stroke-miterlimit="10" stroke-linecap="round" stroke-linejoin="round"/>
<path d="M28 39.2L21.525 44.0125L23.975 36.3125L17.5 31.5H25.55L28 23.975L30.45 31.5H38.5L32.025 36.3125L34.475 44.0125L28 39.2Z" stroke="#231F20" stroke-miterlimit="10" stroke-linecap="round" stroke-linejoin="round"/>
</svg>
