<svg width="80" height="80" viewBox="0 0 80 80" fill="none" xmlns="http://www.w3.org/2000/svg">
<g clip-path="url(#clip0)">
<path d="M77.2726 13.4908L40.4077 0.157468C39.8256 -0.0505363 39.1907 -0.0505363 38.6086 0.157468L1.75293 13.4908C0.708331 13.872 0.0120239 14.8754 0.0120239 15.9995C0.0120239 17.1236 0.708331 18.127 1.75293 18.5081L19.7573 25.0201V33.3335C19.7573 38.5175 37.4917 38.6668 39.5134 38.6668C41.5351 38.6668 59.2695 38.5175 59.2695 33.3335V25.0201L63.2207 23.6001V26.6668C63.2207 28.1396 64.4001 29.3335 65.8549 29.3335H68.489C69.9438 29.3335 71.1232 28.1396 71.1232 26.6668V22.6668C71.1192 22.0494 70.9722 21.4415 70.6938 20.8921L77.2792 18.5081C78.3238 18.127 79.0201 17.1236 79.0201 15.9995C79.0201 14.8754 78.3238 13.872 77.2792 13.4908H77.2726ZM56.6354 30.4001C51.6186 28.0881 41.0478 28.0001 39.5134 28.0001C37.979 28.0001 27.4082 28.0881 22.3915 30.4001V18.7841C23.1817 17.7575 29.393 16.0001 39.5134 16.0001C49.6338 16.0001 55.8451 17.7575 56.6354 18.7841V30.4001ZM39.5134 36.0001C29.7671 36.0001 23.6466 34.3708 22.5021 33.3335C23.6466 32.2961 29.7697 30.6668 39.5134 30.6668C49.2571 30.6668 55.3802 32.2961 56.5247 33.3335C55.3802 34.3708 49.2598 36.0001 39.5134 36.0001ZM63.8384 20.5401L59.2695 22.1895V18.6668C59.2695 13.4828 41.5351 13.3335 39.5134 13.3335C37.4917 13.3335 19.7573 13.4828 19.7573 18.6668V22.1881L2.63537 16.0001L39.5319 2.6668L65.8549 12.1895V18.9121C65.0221 19.2117 64.3122 19.7848 63.8384 20.5401ZM68.489 26.6668H65.8549V22.6668C65.8549 21.9304 66.4446 21.3335 67.172 21.3335C67.8994 21.3335 68.489 21.9304 68.489 22.6668V26.6668ZM68.489 18.8588V13.1428L76.3915 16.0001L68.489 18.8588Z" fill="#4A321F"/>
<path d="M75.0732 41.333C74.9941 41.3328 74.9152 41.3399 74.8374 41.3543C63.1515 43.1936 51.3383 44.0782 39.5122 43.9997C27.6861 44.0782 15.8729 43.1936 4.18698 41.3543C4.10908 41.3409 4.03024 41.3338 3.95122 41.333C3.02927 41.333 0 42.3903 0 55.9997C0 69.609 3.02927 70.6663 3.95122 70.6663C4.03031 70.6646 4.10914 70.6566 4.18698 70.6423C13.1664 69.2025 22.2301 68.366 31.3187 68.1383L28.7478 74.381C28.3528 75.3806 28.5929 76.5227 29.3558 77.2728C30.1186 78.0228 31.2533 78.2325 32.2288 77.8037L33.2363 77.3677L33.6723 78.3823C34.0841 79.3662 35.0389 80.0038 36.0944 79.9997H36.1273C37.1907 79.9913 38.144 79.3342 38.5415 78.3357L40.8293 72.7917L43.1091 78.3143C43.5031 79.3223 44.4605 79.9885 45.5312 79.9997H45.5707C46.6191 80.004 47.5687 79.3743 47.9836 78.3997L48.4235 77.377L49.4153 77.8077C50.3949 78.2455 51.5391 78.0369 52.3064 77.2807C53.0737 76.5244 53.3103 75.3721 52.9042 74.369L50.3833 68.249C58.5776 68.5427 66.7465 69.3442 74.844 70.649C74.9197 70.6617 74.9964 70.6675 75.0732 70.6663C75.9951 70.6663 79.0244 69.609 79.0244 55.9997C79.0244 42.3903 75.9951 41.333 75.0732 41.333ZM43.7268 46.6263C44.2738 48.6623 44.5923 50.7542 44.6764 52.8623C41.6901 51.4566 38.1876 51.7861 35.5083 53.725C35.4409 51.3307 35.1378 48.9491 34.6035 46.6157C36.1989 46.6495 37.8351 46.6663 39.5122 46.6663C40.9518 46.6663 42.3492 46.6503 43.7268 46.6263ZM40.8293 67.9997C37.1923 67.9997 34.2439 65.0149 34.2439 61.333C34.2439 57.6511 37.1923 54.6663 40.8293 54.6663C44.4663 54.6663 47.4146 57.6511 47.4146 61.333C47.4103 65.0131 44.4645 67.9953 40.8293 67.9997ZM3.95122 44.6663C4.96038 48.3537 5.40458 52.1759 5.26829 55.9997C5.40458 59.8234 4.96038 63.6457 3.95122 67.333C2.94206 63.6457 2.49786 59.8234 2.63415 55.9997C2.49786 52.1759 2.94206 48.3537 3.95122 44.6663ZM6.61171 67.5597C7.33215 65.445 7.90244 61.9063 7.90244 55.9997C7.90244 50.093 7.33215 46.5543 6.61039 44.437C14.9799 45.6072 23.4064 46.3118 31.8521 46.5477C32.6421 49.6326 33.0038 52.8138 32.9268 55.9997C32.9268 56.193 32.9268 56.377 32.9189 56.5623C31.3384 59.2178 31.1791 62.4988 32.4948 65.2983L32.4369 65.4397C23.7959 65.6541 15.1737 66.3628 6.61171 67.5623V67.5597ZM36.097 77.333L35.1356 75.093C34.8464 74.4204 34.0748 74.1106 33.4089 74.3997L31.1922 75.3917L34.2808 67.8957C35.5488 69.1964 37.1664 70.0913 38.9327 70.469L36.097 77.333ZM48.2497 74.3997C47.5837 74.1106 46.8122 74.4204 46.523 75.093L45.5483 77.3103L42.7245 70.4663C44.4921 70.0885 46.1111 69.1932 47.3804 67.8917L50.4623 75.3583L48.2497 74.3997ZM74.8098 67.933C66.348 66.6146 57.8155 65.8132 49.2585 65.533L49.165 65.3037C50.8214 61.7703 50.1113 57.5648 47.3896 54.789C47.3794 52.0239 47.064 49.2686 46.4492 46.5743C55.9464 46.3591 65.4197 45.5209 74.8098 44.065C75.4209 45.1157 76.3902 49.2717 76.3902 55.9997C76.3902 62.7277 75.4143 66.8823 74.8098 67.933Z" fill="#4A321F"/>
</g>
<defs>
<clipPath id="clip0">
<rect width="79.0244" height="80" fill="white"/>
</clipPath>
</defs>
</svg>
