<svg width="157" height="210" viewBox="0 0 157 210" fill="none" xmlns="http://www.w3.org/2000/svg">
<g opacity="0.6">
<path d="M142.725 209.227C142.725 209.227 140.038 82.1409 139.907 76.872C139.775 71.6031 143.99 62.3825 144.938 56.9292C145.913 51.5022 145.017 49.5791 146.967 47.2081C148.89 44.8371 154.501 34.51 156.425 32.3234C158.348 30.1368 155.028 26.633 152.657 29.9524C150.286 33.2718 143.094 42.0445 142.225 43.0193C141.356 43.994 138.405 44.6263 139.511 40.4112C140.618 36.1961 142.225 22.4179 142.936 19.441C143.648 16.464 139.459 14.8307 138.642 18.4662C138.642 18.4662 135.507 34.6681 134.928 36.9864C134.348 39.2784 131.318 39.937 131.055 36.4068C130.791 32.8503 128.763 20.8372 128.368 17.0963C127.973 13.3554 123.178 13.1446 123.626 18.0184C124.074 22.8921 124.996 32.5342 125.391 35.3004C125.786 38.0665 124.205 40.7537 122.572 36.0907C122.572 36.0907 118.568 23.9986 117.646 21.1797C116.723 18.3608 111.613 17.834 113.035 22.7604C114.484 27.6868 117.566 38.9359 117.909 40.3848C118.225 41.8338 118.831 46.1016 118.093 48.7361C117.382 51.3705 114.484 54.4528 112.298 54.6636C110.137 54.848 105.211 47.5769 100.996 47.05C96.7807 46.5231 92.7236 47.3134 93.5667 49.6845C94.4097 52.0555 96.3328 50.87 100.337 53.7679C104.342 56.6657 105.922 60.8545 109.347 63.6997C112.772 66.5186 118.884 70.602 120.517 74.7381C122.15 78.8742 118.489 209.042 118.489 209.042L142.725 209.227Z" fill="url(#paint0_linear)"/>
</g>
<path d="M66.6312 209.227C66.6312 209.227 63.75 72.9627 63.6087 67.3132C63.4675 61.6638 67.987 51.7773 69.0039 45.9302C70.0491 40.1113 69.0887 38.0492 71.179 35.507C73.241 32.9648 79.2576 21.8919 81.3197 19.5474C83.3817 17.2029 79.8226 13.446 77.2803 17.0051C74.7381 20.5643 67.0266 29.9706 66.0945 31.0157C65.1623 32.0608 61.9986 32.7388 63.185 28.2192C64.3714 23.6997 66.0945 8.92646 66.8572 5.73454C67.6198 2.54261 63.1285 0.791292 62.2529 4.68939C62.2529 4.68939 58.8915 22.0614 58.27 24.5471C57.6486 27.0046 54.4002 27.7108 54.1177 23.9257C53.8352 20.1123 51.6602 7.23163 51.2365 3.22054C50.8128 -0.790546 45.6718 -1.01652 46.152 4.20919C46.6322 9.43491 47.6209 19.7734 48.0446 22.7393C48.4683 25.7052 46.7735 28.5865 45.0221 23.5867C45.0221 23.5867 40.7286 10.6213 39.7399 7.59885C38.7513 4.57641 33.2713 4.01146 34.7967 9.29367C36.3503 14.5759 39.6552 26.6374 40.0224 28.191C40.3614 29.7446 41.011 34.3206 40.2201 37.1453C39.4575 39.97 36.3503 43.275 34.0058 43.5009C31.6895 43.6987 26.4073 35.9025 21.8877 35.3375C17.3682 34.7726 13.0182 35.62 13.9221 38.1622C14.826 40.7045 16.888 39.4333 21.1816 42.5405C25.4751 45.6477 27.17 50.139 30.8421 53.1897C34.5142 56.2121 41.0675 60.5904 42.8189 65.0252C44.5702 69.46 40.6438 209.029 40.6438 209.029L66.6312 209.227Z" fill="url(#paint1_linear)"/>
<path d="M108.179 209.586C108.179 209.586 105.954 104.348 105.845 99.9845C105.736 95.6214 109.227 87.986 110.012 83.4701C110.819 78.9761 110.077 77.3836 111.692 75.4202C113.284 73.4568 117.931 64.9051 119.524 63.0944C121.116 61.2837 118.367 58.3822 116.404 61.131C114.441 63.8798 108.485 71.1443 107.765 71.9515C107.045 72.7587 104.602 73.2823 105.518 69.7918C106.434 66.3013 107.765 54.8917 108.354 52.4266C108.943 49.9614 105.474 48.6089 104.798 51.6194C104.798 51.6194 102.202 65.036 101.722 66.9557C101.242 68.8537 98.7333 69.3991 98.5152 66.4758C98.297 63.5307 96.6172 53.5828 96.29 50.485C95.9628 47.3872 91.9923 47.2127 92.3632 51.2485C92.7341 55.2844 93.4976 63.2689 93.8248 65.5596C94.1521 67.8502 92.8431 70.0754 91.4906 66.214C91.4906 66.214 88.1746 56.2007 87.4111 53.8664C86.6475 51.5322 82.4153 51.0958 83.5934 55.1753C84.7932 59.2549 87.3456 68.5701 87.6292 69.77C87.891 70.9698 88.3928 74.5039 87.7819 76.6855C87.1929 78.867 84.7932 81.4195 82.9825 81.594C81.1936 81.7467 77.1141 75.7256 73.6236 75.2893C70.1332 74.853 66.7736 75.5075 67.4717 77.4709C68.1698 79.4343 69.7623 78.4526 73.0783 80.8523C76.3942 83.252 77.7031 86.7206 80.5392 89.0767C83.3752 91.411 88.4364 94.7924 89.789 98.2174C91.1415 101.642 88.1092 209.433 88.1092 209.433L108.179 209.586Z" fill="url(#paint2_linear)"/>
<path d="M12.0458 209.227C12.0458 209.227 14.1598 109.249 14.2634 105.103C14.3671 100.958 11.051 93.7046 10.3049 89.4145C9.5381 85.1451 10.2427 83.6322 8.70909 81.7669C7.19615 79.9017 2.78169 71.7774 1.26875 70.0572C-0.244184 68.337 2.36719 65.5806 4.23246 68.1919C6.09772 70.8033 11.7557 77.7048 12.4396 78.4716C13.1235 79.2385 15.4448 79.7359 14.5743 76.4198C13.7039 73.1038 12.4396 62.2645 11.88 59.9226C11.3205 57.5807 14.6158 56.2957 15.2582 59.1558C15.2582 59.1558 17.7245 71.9018 18.1805 73.7256C18.6365 75.5287 21.0198 76.0468 21.2271 73.2696C21.4343 70.4717 23.0302 61.021 23.3411 58.0781C23.6519 55.1351 27.4239 54.9693 27.0716 58.8034C26.7193 62.6376 25.9939 70.223 25.683 72.3992C25.3721 74.5753 26.6156 76.6893 27.9006 73.0209C27.9006 73.0209 31.0508 63.5081 31.7762 61.2905C32.5016 59.0729 36.5223 58.6584 35.4031 62.534C34.2632 66.4096 31.8384 75.2592 31.569 76.3991C31.3203 77.539 30.8436 80.8965 31.4239 82.969C31.9835 85.0415 34.2632 87.4664 35.9834 87.6322C37.6829 87.7772 41.5585 82.0571 44.8745 81.6426C48.1905 81.2281 51.3822 81.8498 50.719 83.7151C50.0558 85.5804 48.5429 84.6477 45.3926 86.9275C42.2424 89.2073 40.9989 92.5026 38.3046 94.7409C35.6104 96.9585 30.8021 100.171 29.5172 103.425C28.2322 106.679 31.113 209.082 31.113 209.082L12.0458 209.227Z" fill="url(#paint3_linear)"/>
<defs>
<linearGradient id="paint0_linear" x1="125.227" y1="14.3213" x2="125.227" y2="209.227" gradientUnits="userSpaceOnUse">
<stop stop-color="#E4BFA2"/>
<stop offset="1" stop-color="#E4BFA2" stop-opacity="0"/>
</linearGradient>
<linearGradient id="paint1_linear" x1="47.8693" y1="0.245148" x2="47.8693" y2="209.227" gradientUnits="userSpaceOnUse">
<stop stop-color="#BABBCD"/>
<stop offset="1" stop-color="#BABBCD" stop-opacity="0"/>
</linearGradient>
<linearGradient id="paint2_linear" x1="93.6895" y1="48.1871" x2="93.6895" y2="209.586" gradientUnits="userSpaceOnUse">
<stop stop-color="#6AB6EF"/>
<stop offset="1" stop-color="#6AB6EF" stop-opacity="0"/>
</linearGradient>
<linearGradient id="paint3_linear" x1="25.8116" y1="55.895" x2="25.8116" y2="209.227" gradientUnits="userSpaceOnUse">
<stop stop-color="#635041"/>
<stop offset="1" stop-color="#635041" stop-opacity="0"/>
</linearGradient>
</defs>
</svg>
