<svg width="48" height="48" viewBox="0 0 48 48" fill="none" xmlns="http://www.w3.org/2000/svg">
<path d="M47.7752 16.038L38.4659 6.72857C38.1665 6.42914 37.6812 6.42914 37.3817 6.72857L32.727 11.3832C32.5833 11.5269 32.5026 11.7219 32.5026 11.9253C32.5026 12.1286 32.5833 12.3236 32.727 12.4674L33.1913 12.9317L32.1243 13.9986C31.4316 14.691 30.3567 14.88 29.4498 14.4683C28.5995 14.0824 27.6542 13.8785 26.716 13.8785C25.602 13.8785 24.5132 14.1581 23.5459 14.6878C23.1425 14.5884 22.7285 14.5375 22.3104 14.5375C21.7057 14.5375 21.1118 14.6419 20.5452 14.8478C19.6404 15.1765 18.6706 14.9728 18.0137 14.3161L16.0977 12.4L16.3259 12.1719C16.4696 12.0281 16.5503 11.8331 16.5503 11.6298C16.5503 11.4265 16.4696 11.2315 16.3259 11.0877L11.6713 6.43307C11.3717 6.13364 10.8865 6.13364 10.587 6.43307L0.224537 16.7956C-0.074805 17.095 -0.074805 17.5804 0.224537 17.8797L4.8791 22.5344C5.02292 22.6782 5.21782 22.7589 5.42126 22.7589C5.62469 22.7589 5.8195 22.6782 5.96341 22.5344L6.241 22.2568L7.59231 23.6081C7.93327 23.949 8.1593 24.3748 8.24583 24.8391C8.69452 27.2469 9.84764 29.4358 11.5805 31.1696L11.835 31.4241C11.3462 31.9389 11.0773 32.6096 11.0773 33.3221C11.0773 34.0591 11.3644 34.752 11.8855 35.2731C12.4234 35.8111 13.1298 36.0799 13.8365 36.0799C13.8825 36.0799 13.9284 36.0787 13.9744 36.0764C13.9371 36.8281 14.2048 37.5923 14.7776 38.1653C15.2988 38.6865 15.9917 38.9734 16.7287 38.9734C16.7492 38.9734 16.7696 38.9724 16.7902 38.9719C16.7744 39.6984 17.0424 40.4299 17.5956 40.9831C18.1167 41.5044 18.8096 41.7912 19.5467 41.7912C20.2836 41.7912 20.9764 41.5042 21.4977 40.9831C21.5416 40.9392 21.5829 40.8939 21.6233 40.8479C21.8947 40.9425 22.1818 40.9929 22.4719 40.9929C23.1613 40.9929 23.8089 40.7243 24.2945 40.2371C24.553 39.9787 24.7491 39.6748 24.8768 39.3437L24.9553 39.4222C25.4577 39.9246 26.1176 40.1758 26.7775 40.1758C27.4374 40.1758 28.0973 39.9246 28.5997 39.4222C28.8667 39.1552 29.0673 38.8399 29.1944 38.4961C29.6441 38.8232 30.1765 38.987 30.7092 38.987C31.3691 38.987 32.0294 38.7359 32.5323 38.2336C33.0189 37.747 33.287 37.0996 33.287 36.4107C33.287 36.2026 33.262 35.9985 33.2145 35.8011C33.7055 35.7014 34.1566 35.4603 34.5186 35.0979C35.0052 34.6113 35.2732 33.9641 35.2732 33.2757C35.2732 32.7334 35.1062 32.2171 34.7976 31.7841L35.4126 31.1691C37.1657 29.4153 38.3238 27.1989 38.7618 24.7594C38.8353 24.3509 39.0376 23.9715 39.3471 23.6619L41.6344 21.3746L42.0365 21.7767C42.1862 21.9264 42.3824 22.0012 42.5787 22.0012C42.7748 22.0012 42.9711 21.9264 43.1208 21.7767L47.7755 17.122C47.9192 16.9783 47.9999 16.7833 47.9999 16.58C47.9999 16.3766 47.9189 16.1818 47.7752 16.038ZM5.42126 20.9083L1.85072 17.3377L11.129 8.05944L14.6996 11.63L5.42126 20.9083ZM14.7033 34.1892C14.2255 34.6669 13.4478 34.6671 12.9696 34.1892C12.738 33.9575 12.6105 33.6498 12.6105 33.3223C12.6105 32.9949 12.7381 32.687 12.9697 32.4555C13.2086 32.2165 13.5224 32.097 13.8364 32.097C14.1503 32.097 14.4643 32.2165 14.7032 32.4555C15.1811 32.9334 15.1811 33.7112 14.7033 34.1892ZM17.5953 37.0812C17.3639 37.3128 17.0561 37.4402 16.7285 37.4402C16.4011 37.4402 16.0932 37.3126 15.8618 37.0812C15.3837 36.6032 15.3837 35.8255 15.8618 35.3475C16.1007 35.1085 16.4145 34.989 16.7286 34.989C17.0423 34.989 17.3564 35.1085 17.5953 35.3475C18.0734 35.8254 18.0734 36.6032 17.5953 37.0812ZM20.4132 39.899C20.1816 40.1306 19.8739 40.2581 19.5465 40.2581C19.219 40.2581 18.9111 40.1305 18.6797 39.899C18.2017 39.4211 18.2017 38.6433 18.6797 38.1653C18.9186 37.9263 19.2324 37.8068 19.5465 37.8068C19.8603 37.8068 20.1743 37.9263 20.4132 38.1653C20.8912 38.6433 20.8912 39.4211 20.4132 39.899ZM33.4339 34.0142C33.2368 34.2114 32.9748 34.3201 32.6962 34.3201C32.4175 34.3201 32.1555 34.2114 31.9581 34.0137L24.5209 26.5782C24.2213 26.2789 23.7361 26.279 23.4367 26.5784C23.1375 26.8778 23.1376 27.3632 23.4369 27.6625L31.4479 35.6727C31.645 35.8697 31.7535 36.1319 31.7535 36.4107C31.7535 36.6901 31.6449 36.9525 31.4482 37.1492C31.0406 37.5564 30.3779 37.5565 29.9711 37.1495L28.6196 35.798C28.6121 35.7902 28.6047 35.7824 28.597 35.7747C28.5947 35.7724 28.5922 35.7705 28.5898 35.7682L22.3773 29.5557C22.0778 29.2564 21.5926 29.2564 21.2931 29.5557C20.9937 29.8551 20.9937 30.3405 21.2931 30.6398L27.5256 36.8722C27.7161 37.0675 27.821 37.3259 27.821 37.6C27.821 37.8788 27.7123 38.1409 27.5153 38.338C27.1086 38.7449 26.4464 38.7449 26.0394 38.338L19.2815 31.58C18.9819 31.2805 18.4967 31.2805 18.1972 31.58C17.8978 31.8793 17.8978 32.3647 18.1972 32.6641L23.2067 37.6736C23.2081 37.675 23.2092 37.6766 23.2107 37.6779C23.4077 37.8745 23.516 38.1361 23.516 38.4147C23.516 38.6934 23.4075 38.9555 23.2096 39.1534C23.0128 39.3507 22.7508 39.4593 22.4718 39.4593C22.4043 39.4593 22.3384 39.4524 22.2739 39.4402C22.398 38.6046 22.1393 37.7227 21.4975 37.0808C20.9764 36.5597 20.2835 36.2727 19.5465 36.2727C19.526 36.2727 19.5055 36.2737 19.485 36.2742C19.5007 35.5477 19.2328 34.8162 18.6796 34.263C18.1583 33.7419 17.4655 33.4549 16.7285 33.4549C16.6823 33.4549 16.6365 33.456 16.5908 33.4582C16.6276 32.7069 16.3598 31.9434 15.7873 31.3708C15.0904 30.674 14.1107 30.4292 13.2145 30.6352L12.6647 30.0854C11.1516 28.5716 10.1449 26.6603 9.75314 24.5579C9.60961 23.788 9.23733 23.0845 8.67661 22.5237L7.32521 21.1723L15.0136 13.4839L16.9297 15.3999C17.6662 16.1364 18.6689 16.5305 19.6959 16.5305C20.1559 16.5305 20.621 16.4514 21.069 16.2886C21.2863 16.2095 21.511 16.1528 21.7387 16.1168L16.992 20.8636C16.4112 21.4443 16.0914 22.2164 16.0914 23.0378C16.0914 23.859 16.4112 24.6312 16.9919 25.2118C17.5913 25.8113 18.3785 26.1109 19.166 26.1108C19.9533 26.1108 20.7407 25.811 21.3402 25.2118L23.7242 22.8278L24.3695 23.4735C24.3697 23.4737 24.3698 23.4738 24.37 23.474L24.3968 23.5008L24.4226 23.5266C24.4227 23.5267 24.4229 23.5269 24.4231 23.527L24.4235 23.5274C24.4309 23.5348 24.4381 23.5417 24.4454 23.5486L33.4342 32.5374C33.6313 32.7345 33.7398 32.9966 33.7398 33.2754C33.7398 33.5547 33.6313 33.8168 33.4339 34.0142ZM38.2626 22.5779C37.7307 23.1099 37.3814 23.7706 37.2526 24.4886C36.8701 26.6185 35.8588 28.5539 34.3282 30.0852L33.7391 30.6744L28.8894 25.8247C28.9947 25.8325 29.1006 25.8376 29.2072 25.8376C29.6982 25.8376 30.2007 25.7516 30.701 25.5469C31.0929 25.3866 31.2805 24.9389 31.1202 24.5472C30.9599 24.1554 30.5126 23.9676 30.1205 24.1279C28.1474 24.9352 25.782 22.7104 25.5186 22.454C25.5142 22.4497 25.5098 22.4455 25.5053 22.4414L25.4781 22.4142C25.478 22.4141 25.4779 22.4141 25.4778 22.414L25.4541 22.3904C25.454 22.3903 25.4538 22.3901 25.4536 22.39L24.8083 21.7441L25.5401 21.0122C25.8396 20.7128 25.8396 20.2275 25.5402 19.928C25.2407 19.6288 24.7554 19.6287 24.4561 19.928L23.1839 21.2002C23.1834 21.2007 23.1828 21.2011 23.1824 21.2016C23.1819 21.2021 23.1814 21.2026 23.181 21.2031L20.256 24.1281C19.6549 24.7291 18.6771 24.7289 18.0761 24.1281C17.785 23.837 17.6247 23.4499 17.6247 23.0382C17.6247 22.6264 17.785 22.2393 18.0762 21.9482L23.1248 16.8995C23.4057 16.6187 23.7179 16.3716 24.0534 16.1647C24.8506 15.672 25.7713 15.4116 26.716 15.4116C27.4372 15.4116 28.1634 15.5681 28.8162 15.8645C30.3014 16.5383 32.0666 16.2244 33.2085 15.0828L34.2757 14.0158L40.5502 20.2904L38.2626 22.5779ZM42.5784 20.1507L34.3532 11.9255L37.9238 8.35494L46.149 16.5801L42.5784 20.1507Z" fill="black"/>
<path d="M43.3506 17.9326C43.774 17.9326 44.1172 17.5894 44.1172 17.166C44.1172 16.7426 43.774 16.3994 43.3506 16.3994C42.9272 16.3994 42.584 16.7426 42.584 17.166C42.584 17.5894 42.9272 17.9326 43.3506 17.9326Z" fill="black"/>
<path d="M5.02184 18.6899C5.44521 18.6899 5.78843 18.3467 5.78843 17.9233C5.78843 17.5 5.44521 17.1567 5.02184 17.1567C4.59846 17.1567 4.25525 17.5 4.25525 17.9233C4.25525 18.3467 4.59846 18.6899 5.02184 18.6899Z" fill="black"/>
</svg>
