<svg width="167" height="210" viewBox="0 0 167 210" fill="none" xmlns="http://www.w3.org/2000/svg">
<path d="M48.0823 209.227C48.0823 209.227 50.7695 82.1409 50.9012 76.872C51.0329 71.6031 46.8178 62.3825 45.8694 56.9292C44.8947 51.5022 45.7904 49.5791 43.8409 47.2081C41.9177 44.8371 36.3063 34.51 34.3832 32.3234C32.46 30.1368 35.7795 26.633 38.1505 29.9524C40.5215 33.2718 47.7135 42.0445 48.5829 43.0193C49.4522 43.994 52.4028 44.6263 51.2964 40.4112C50.1899 36.1961 48.5829 22.4179 47.8716 19.441C47.1603 16.464 51.3491 14.8307 52.1657 18.4662C52.1657 18.4662 55.3007 34.6681 55.8803 36.9864C56.4599 39.2784 59.4895 39.937 59.753 36.4068C60.0164 32.8503 62.0449 20.8372 62.4401 17.0963C62.8353 13.3554 67.63 13.1446 67.1821 18.0184C66.7342 22.8921 65.8122 32.5342 65.417 35.3004C65.0219 38.0665 66.6025 40.7537 68.2359 36.0907C68.2359 36.0907 72.2402 23.9986 73.1623 21.1797C74.0844 18.3608 79.1952 17.834 77.7726 22.7604C76.3236 27.6868 73.2413 38.9359 72.8989 40.3848C72.5827 41.8338 71.9768 46.1016 72.7144 48.7361C73.4257 51.3705 76.3236 54.4528 78.5102 54.6636C80.6705 54.848 85.5969 47.5769 89.812 47.05C94.0271 46.5231 98.0842 47.3134 97.2412 49.6845C96.3982 52.0555 94.475 50.87 90.4706 53.7679C86.4663 56.6657 84.8856 60.8545 81.4608 63.6997C78.036 66.5186 71.9241 70.602 70.2908 74.7381C68.6574 78.8742 72.3193 209.042 72.3193 209.042L48.0823 209.227Z" fill="url(#paint0_linear)"/>
<path d="M131.7 209.227C131.7 209.227 128.819 72.9627 128.677 67.3132C128.536 61.6638 133.056 51.7773 134.073 45.9302C135.118 40.1113 134.157 38.0492 136.248 35.507C138.31 32.9648 144.326 21.8919 146.388 19.5474C148.45 17.2029 144.891 13.446 142.349 17.0051C139.807 20.5643 132.095 29.9706 131.163 31.0157C130.231 32.0608 127.067 32.7388 128.254 28.2192C129.44 23.6997 131.163 8.92646 131.926 5.73454C132.688 2.54261 128.197 0.791292 127.322 4.68939C127.322 4.68939 123.96 22.0614 123.339 24.5471C122.717 27.0046 119.469 27.7108 119.186 23.9257C118.904 20.1123 116.729 7.23163 116.305 3.22054C115.881 -0.790546 110.74 -1.01652 111.221 4.20919C111.701 9.43491 112.69 19.7734 113.113 22.7393C113.537 25.7052 111.842 28.5865 110.091 23.5867C110.091 23.5867 105.797 10.6213 104.809 7.59885C103.82 4.57641 98.34 4.01146 99.8653 9.29367C101.419 14.5759 104.724 26.6374 105.091 28.191C105.43 29.7446 106.08 34.3206 105.289 37.1453C104.526 39.97 101.419 43.275 99.0744 43.5009C96.7582 43.6987 91.476 35.9025 86.9564 35.3375C82.4369 34.7726 78.0868 35.62 78.9907 38.1622C79.8946 40.7045 81.9567 39.4333 86.2502 42.5405C90.5438 45.6477 92.2386 50.139 95.9107 53.1897C99.5829 56.2121 106.136 60.5904 107.888 65.0252C109.639 69.46 105.712 209.029 105.712 209.029L131.7 209.227Z" fill="url(#paint1_linear)"/>
<g opacity="0.5">
<path d="M139.669 210C139.669 210 141.149 139.58 141.222 136.66C141.295 133.741 138.973 128.631 138.451 125.61C137.914 122.602 138.407 121.537 137.333 120.223C136.274 118.909 133.183 113.187 132.124 111.975C131.065 110.764 132.893 108.822 134.199 110.661C135.505 112.501 139.466 117.362 139.945 117.902C140.424 118.442 142.049 118.792 141.44 116.457C140.83 114.121 139.945 106.486 139.553 104.837C139.162 103.187 141.469 102.282 141.918 104.297C141.918 104.297 143.645 113.274 143.964 114.559C144.284 115.829 145.952 116.194 146.097 114.238C146.243 112.267 147.36 105.611 147.577 103.538C147.795 101.465 150.436 101.348 150.189 104.049C149.943 106.749 149.435 112.092 149.217 113.625C148.999 115.158 149.87 116.647 150.77 114.063C150.77 114.063 152.975 107.362 153.483 105.8C153.991 104.238 156.806 103.946 156.022 106.676C155.224 109.406 153.527 115.639 153.338 116.442C153.164 117.245 152.83 119.61 153.236 121.07C153.628 122.53 155.224 124.237 156.429 124.354C157.619 124.456 160.332 120.427 162.654 120.135C164.975 119.843 167.21 120.281 166.746 121.595C166.281 122.909 165.222 122.252 163.016 123.858C160.811 125.464 159.94 127.785 158.054 129.361C156.168 130.923 152.801 133.186 151.902 135.478C151.002 137.77 153.019 209.898 153.019 209.898L139.669 210Z" fill="url(#paint2_linear)"/>
</g>
<path d="M38.7613 209.227C38.7613 209.227 36.6473 109.249 36.5437 105.103C36.4401 100.958 39.7561 93.7046 40.5022 89.4145C41.269 85.1451 40.5644 83.6322 42.098 81.7669C43.611 79.9017 48.0254 71.7774 49.5384 70.0572C51.0513 68.337 48.4399 65.5806 46.5747 68.1919C44.7094 70.8033 39.0514 77.7048 38.3675 78.4716C37.6836 79.2385 35.3624 79.7359 36.2328 76.4198C37.1033 73.1038 38.3675 62.2645 38.9271 59.9226C39.4867 57.5807 36.1914 56.2957 35.5489 59.1558C35.5489 59.1558 33.0826 71.9018 32.6266 73.7256C32.1707 75.5287 29.7873 76.0468 29.58 73.2696C29.3728 70.4717 27.7769 61.021 27.4661 58.0781C27.1552 55.1351 23.3832 54.9693 23.7355 58.8034C24.0879 62.6376 24.8132 70.223 25.1241 72.3992C25.435 74.5753 24.1915 76.6893 22.9065 73.0209C22.9065 73.0209 19.7563 63.5081 19.0309 61.2905C18.3055 59.0729 14.2849 58.6584 15.404 62.534C16.5439 66.4096 18.9687 75.2592 19.2382 76.3991C19.4869 77.539 19.9636 80.8965 19.3832 82.969C18.8237 85.0415 16.5439 87.4664 14.8237 87.6322C13.1242 87.7772 9.24864 82.0571 5.93261 81.6426C2.61658 81.2281 -0.575092 81.8498 0.0881139 83.7151C0.75132 85.5804 2.26426 84.6477 5.41448 86.9275C8.56471 89.2073 9.80822 92.5026 12.5025 94.7409C15.1968 96.9585 20.005 100.171 21.29 103.425C22.5749 106.679 19.6941 209.082 19.6941 209.082L38.7613 209.227Z" fill="url(#paint3_linear)"/>
<defs>
<linearGradient id="paint0_linear" x1="65.5805" y1="14.3213" x2="65.5805" y2="209.227" gradientUnits="userSpaceOnUse">
<stop stop-color="#3ECFBE"/>
<stop offset="1" stop-color="#40E8B5" stop-opacity="0"/>
</linearGradient>
<linearGradient id="paint1_linear" x1="112.938" y1="0.245148" x2="112.938" y2="209.227" gradientUnits="userSpaceOnUse">
<stop stop-color="#BABBCD"/>
<stop offset="1" stop-color="#BABBCD" stop-opacity="0"/>
</linearGradient>
<linearGradient id="paint2_linear" x1="149.307" y1="102" x2="149.307" y2="210" gradientUnits="userSpaceOnUse">
<stop stop-color="#97E336"/>
<stop offset="1" stop-color="#72B31F" stop-opacity="0"/>
</linearGradient>
<linearGradient id="paint3_linear" x1="24.9955" y1="55.895" x2="24.9955" y2="209.227" gradientUnits="userSpaceOnUse">
<stop stop-color="#8A22A5"/>
<stop offset="1" stop-color="#A83195" stop-opacity="0"/>
</linearGradient>
</defs>
</svg>
