<svg width="170" height="210" viewBox="0 0 170 210" fill="none" xmlns="http://www.w3.org/2000/svg">
<path d="M155.347 209.227C155.347 209.227 152.659 82.1409 152.528 76.872C152.396 71.6031 156.611 62.3825 157.56 56.9292C158.534 51.5022 157.639 49.5791 159.588 47.2081C161.511 44.8371 167.123 34.51 169.046 32.3234C170.969 30.1368 167.65 26.633 165.278 29.9524C162.907 33.2718 155.715 42.0445 154.846 43.0193C153.977 43.994 151.026 44.6263 152.133 40.4112C153.239 36.1961 154.846 22.4179 155.557 19.441C156.269 16.464 152.08 14.8307 151.263 18.4662C151.263 18.4662 148.128 34.6681 147.549 36.9864C146.969 39.2784 143.939 39.937 143.676 36.4068C143.413 32.8503 141.384 20.8372 140.989 17.0963C140.594 13.3554 135.799 13.1446 136.247 18.0184C136.695 22.8921 137.617 32.5342 138.012 35.3004C138.407 38.0665 136.826 40.7537 135.193 36.0907C135.193 36.0907 131.189 23.9986 130.267 21.1797C129.345 18.3608 124.234 17.834 125.656 22.7604C127.105 27.6868 130.188 38.9359 130.53 40.3848C130.846 41.8338 131.452 46.1016 130.715 48.7361C130.003 51.3705 127.105 54.4528 124.919 54.6636C122.758 54.848 117.832 47.5769 113.617 47.05C109.402 46.5231 105.345 47.3134 106.188 49.6845C107.031 52.0555 108.954 50.87 112.958 53.7679C116.963 56.6657 118.543 60.8545 121.968 63.6997C125.393 66.5186 131.505 70.602 133.138 74.7381C134.772 78.8742 131.11 209.042 131.11 209.042L155.347 209.227Z" fill="url(#paint0_linear)"/>
<path d="M79.2523 209.227C79.2523 209.227 76.3711 72.9627 76.2298 67.3132C76.0886 61.6638 80.6081 51.7773 81.625 45.9302C82.6702 40.1113 81.7098 38.0492 83.8001 35.507C85.8621 32.9648 91.8787 21.8919 93.9408 19.5474C96.0028 17.2029 92.4437 13.446 89.9014 17.0051C87.3592 20.5643 79.6477 29.9706 78.7156 31.0157C77.7834 32.0608 74.6197 32.7388 75.8061 28.2192C76.9925 23.6997 78.7156 8.92646 79.4782 5.73454C80.2409 2.54261 75.7496 0.791292 74.874 4.68939C74.874 4.68939 71.5126 22.0614 70.8911 24.5471C70.2697 27.0046 67.0213 27.7108 66.7388 23.9257C66.4563 20.1123 64.2813 7.23163 63.8576 3.22054C63.4339 -0.790546 58.2929 -1.01652 58.7731 4.20919C59.2533 9.43491 60.242 19.7734 60.6657 22.7393C61.0894 25.7052 59.3945 28.5865 57.6432 23.5867C57.6432 23.5867 53.3497 10.6213 52.361 7.59885C51.3724 4.57641 45.8924 4.01146 47.4178 9.29367C48.9714 14.5759 52.2763 26.6374 52.6435 28.191C52.9825 29.7446 53.6321 34.3206 52.8412 37.1453C52.0785 39.97 48.9714 43.275 46.6269 43.5009C44.3106 43.6987 39.0284 35.9025 34.5088 35.3375C29.9893 34.7726 25.6392 35.62 26.5432 38.1622C27.4471 40.7045 29.5091 39.4333 33.8027 42.5405C38.0962 45.6477 39.7911 50.139 43.4632 53.1897C47.1353 56.2121 53.6886 60.5904 55.4399 65.0252C57.1913 69.46 53.2649 209.029 53.2649 209.029L79.2523 209.227Z" fill="url(#paint1_linear)"/>
<path d="M32.5756 209.586C32.5756 209.586 30.799 125.563 30.7119 122.079C30.6248 118.596 33.4117 112.499 34.0387 108.894C34.6831 105.306 34.0909 104.034 35.3799 102.467C36.6513 100.899 40.3613 94.0715 41.6328 92.6259C42.9043 91.1802 40.7097 88.8636 39.1421 91.0583C37.5745 93.2529 32.8195 99.053 32.2447 99.6975C31.6699 100.342 29.7191 100.76 30.4506 97.9731C31.1822 95.1863 32.2447 86.0768 32.7149 84.1086C33.1852 82.1404 30.4158 81.0605 29.8759 83.4641C29.8759 83.4641 27.8031 94.176 27.42 95.7088C27.0368 97.2241 25.0337 97.6596 24.8595 95.3256C24.6854 92.9742 23.3442 85.0317 23.0829 82.5584C22.8217 80.0851 19.6516 79.9458 19.9478 83.168C20.2439 86.3903 20.8535 92.7652 21.1147 94.5941C21.376 96.4229 20.3309 98.1995 19.251 95.1166C19.251 95.1166 16.6035 87.1219 15.9939 85.2582C15.3843 83.3945 12.0053 83.0461 12.9458 86.3032C13.9038 89.5603 15.9417 96.9977 16.1681 97.9557C16.3771 98.9137 16.7777 101.735 16.29 103.477C15.8197 105.219 13.9038 107.257 12.4581 107.396C11.0299 107.518 7.77276 102.711 4.98592 102.362C2.19909 102.014 -0.483241 102.537 0.0741264 104.104C0.631494 105.672 1.90299 104.888 4.55048 106.804C7.19798 108.72 8.24304 111.489 10.5073 113.37C12.7716 115.234 16.8126 117.934 17.8925 120.668C18.9724 123.403 16.5513 209.464 16.5513 209.464L32.5756 209.586Z" fill="url(#paint2_linear)"/>
<path d="M84.667 209.227C84.667 209.227 86.7809 109.249 86.8846 105.103C86.9882 100.958 83.6722 93.7046 82.9261 89.4145C82.1592 85.1451 82.8639 83.6322 81.3302 81.7669C79.8173 79.9017 75.4028 71.7774 73.8899 70.0572C72.3769 68.337 74.9883 65.5806 76.8536 68.1919C78.7188 70.8033 84.3768 77.7048 85.0607 78.4716C85.7447 79.2385 88.0659 79.7359 87.1954 76.4198C86.325 73.1038 85.0607 62.2645 84.5012 59.9226C83.9416 57.5807 87.2369 56.2957 87.8794 59.1558C87.8794 59.1558 90.3457 71.9018 90.8016 73.7256C91.2576 75.5287 93.641 76.0468 93.8482 73.2696C94.0555 70.4717 95.6513 61.021 95.9622 58.0781C96.2731 55.1351 100.045 54.9693 99.6927 58.8034C99.3404 62.6376 98.615 70.223 98.3041 72.3992C97.9933 74.5753 99.2368 76.6893 100.522 73.0209C100.522 73.0209 103.672 63.5081 104.397 61.2905C105.123 59.0729 109.143 58.6584 108.024 62.534C106.884 66.4096 104.46 75.2592 104.19 76.3991C103.941 77.539 103.465 80.8965 104.045 82.969C104.605 85.0415 106.884 87.4664 108.605 87.6322C110.304 87.7772 114.18 82.0571 117.496 81.6426C120.812 81.2281 124.003 81.8498 123.34 83.7151C122.677 85.5804 121.164 84.6477 118.014 86.9275C114.864 89.2073 113.62 92.5026 110.926 94.7409C108.231 96.9585 103.423 100.171 102.138 103.425C100.853 106.679 103.734 209.082 103.734 209.082L84.667 209.227Z" fill="url(#paint3_linear)"/>
<defs>
<linearGradient id="paint0_linear" x1="137.848" y1="14.3213" x2="137.848" y2="209.227" gradientUnits="userSpaceOnUse">
<stop stop-color="#E4BFA2"/>
<stop offset="1" stop-color="#E4BFA2" stop-opacity="0"/>
</linearGradient>
<linearGradient id="paint1_linear" x1="60.4904" y1="0.245148" x2="60.4904" y2="209.227" gradientUnits="userSpaceOnUse">
<stop stop-color="#BABBCD"/>
<stop offset="1" stop-color="#BABBCD" stop-opacity="0"/>
</linearGradient>
<linearGradient id="paint2_linear" x1="21.0066" y1="80.7237" x2="21.0066" y2="209.586" gradientUnits="userSpaceOnUse">
<stop stop-color="#6AB6EF"/>
<stop offset="1" stop-color="#6AB6EF" stop-opacity="0"/>
</linearGradient>
<linearGradient id="paint3_linear" x1="98.4328" y1="55.895" x2="98.4327" y2="209.227" gradientUnits="userSpaceOnUse">
<stop stop-color="#635041"/>
<stop offset="1" stop-color="#635041" stop-opacity="0"/>
</linearGradient>
</defs>
</svg>
