<svg width="80" height="80" viewBox="0 0 80 80" fill="none" xmlns="http://www.w3.org/2000/svg">
<path d="M75.7704 31.6068C72.9272 31.0667 70.1577 32.844 69.4645 35.6532L66.4383 46.9333C64.5203 45.7247 62.0583 45.8114 60.2289 47.1509C60.0953 47.2551 48.1977 54.8085 48.1977 54.8085C43.9167 57.4842 41.3218 62.1815 41.3355 67.23V78.5419C41.3355 79.2788 41.9329 79.8762 42.6698 79.8762C43.4066 79.8762 44.004 79.2788 44.004 78.5419V67.23C43.993 63.1001 46.1155 59.257 49.6173 57.0673C49.6173 57.0673 61.6896 49.4031 61.7339 49.3659C62.8023 48.4714 64.3724 48.5229 65.3803 49.4845C66.3934 50.4982 66.4246 52.1315 65.4513 53.1831L56.5799 59.4179C55.9766 59.842 55.8313 60.6746 56.2548 61.2773C56.6782 61.8805 57.5109 62.0258 58.1141 61.6024L67.0872 55.2939C67.1498 55.2496 67.209 55.2001 67.2631 55.146C68.7199 53.6789 69.1987 51.5035 68.4918 49.5607L72.0386 36.3445C72.3813 34.9184 73.7611 33.9932 75.2114 34.218C76.4401 34.4812 77.3209 35.5627 77.33 36.8194C77.332 37.0546 77.3027 37.2878 77.2421 37.5146L72.4386 55.4659C72.2562 56.1454 71.8985 56.7643 71.4021 57.2621L61.4166 67.2476C59.6595 68.9955 58.6744 71.3735 58.6809 73.8524V78.5419C58.6809 79.2788 59.2784 79.8762 60.0152 79.8762C60.7521 79.8762 61.3495 79.2788 61.3495 78.5419V73.8524C61.3456 72.0817 62.0492 70.3832 63.3046 69.1343L73.2901 59.1488C74.1182 58.3201 74.7136 57.2888 75.0166 56.1571L79.8201 38.2084C79.9412 37.7556 80.0018 37.2885 79.9999 36.8194C79.9868 34.3053 78.2285 32.1371 75.7704 31.6068Z" fill="#4A321F"/>
<path d="M31.8047 54.8083C31.8047 54.8083 20.0035 47.3363 19.9181 47.264C18.0842 45.819 15.5381 45.6867 13.5641 46.9331L10.5366 35.653C9.84601 32.8425 7.07584 31.0639 4.23206 31.6066C2.80072 31.9115 1.55636 32.7897 0.790204 34.0367C0.024696 35.2843 -0.196813 36.7912 0.179101 38.2056L4.98193 56.1569C5.28488 57.2886 5.88035 58.3199 6.70905 59.1486L16.6945 69.1341C17.9513 70.3824 18.6562 72.0808 18.6529 73.8522V78.5417C18.6529 79.2786 19.2504 79.876 19.9872 79.876C20.724 79.876 21.3215 79.2786 21.3215 78.5417V73.8522C21.328 71.3733 20.3429 68.9953 18.5852 67.2474L8.5997 57.2619C8.1026 56.7641 7.74493 56.1452 7.56251 55.4657L2.75903 37.5105C2.69974 37.285 2.67042 37.0525 2.67238 36.8192C2.68085 35.5625 3.56232 34.4804 4.7917 34.2178C6.24258 33.9852 7.62701 34.9136 7.96318 36.3443L11.5106 49.5605C10.8044 51.5033 11.2832 53.6787 12.7393 55.1458C12.794 55.1999 12.8527 55.2494 12.9159 55.2937L21.8889 61.5969C22.4916 62.0204 23.3242 61.8751 23.7476 61.2718C24.1718 60.6686 24.0265 59.8366 23.4232 59.4125L14.5518 53.1777C13.5784 52.1255 13.6091 50.4928 14.6221 49.4791C15.6059 48.5416 17.1278 48.466 18.1995 49.3012C18.2673 49.356 30.3851 57.0619 30.3851 57.0619C33.8888 59.2522 36.0121 63.098 35.9984 67.2298V78.5417C35.9984 79.2786 36.5958 79.876 37.3327 79.876C38.0695 79.876 38.6669 79.2786 38.6669 78.5417V67.2298C38.6813 62.1813 36.0863 57.484 31.8047 54.8083Z" fill="#4A321F"/>
<path d="M61.9529 43.7072C62.4011 43.4799 62.6838 43.0199 62.6838 42.517V20.271L74.7059 15.7463C75.2258 15.5509 75.5704 15.0531 75.5704 14.4974C75.5704 13.9417 75.2258 13.4446 74.7059 13.2485L40.4724 0.36383C40.1688 0.249166 39.8339 0.249166 39.5303 0.36383L5.2974 13.2485C4.77685 13.4446 4.43286 13.9417 4.43286 14.4974C4.43286 15.0531 4.77685 15.5509 5.2974 15.7463L12.0274 18.2819C12.0052 18.353 11.9902 18.4266 11.9818 18.5002V31.8428C11.9818 32.5797 12.5792 33.1771 13.316 33.1771C14.0529 33.1771 14.6503 32.5797 14.6503 31.8428V19.2664L17.3188 20.271V42.517C17.3188 43.0199 17.6016 43.4799 18.0504 43.7072L19.1176 44.2408C32.2817 50.7695 47.7398 50.7695 60.9039 44.2408L61.9529 43.7072ZM40.0013 3.03757L70.4464 14.4974L40.0013 25.9579L9.55623 14.4974L40.0013 3.03757ZM59.7006 41.8648C47.2909 48.0149 32.7202 48.0149 20.3105 41.8648L19.9873 41.698V21.2756L39.5303 28.6316C39.8339 28.7456 40.1688 28.7456 40.4724 28.6316L60.0153 21.2756V41.698L59.7006 41.8648Z" fill="#4A321F"/>
</svg>
