<svg width="326" height="257" viewBox="0 0 326 257" fill="none" xmlns="http://www.w3.org/2000/svg">
<g filter="url(#filter0_d)">
<g opacity="0.8">
<path d="M115.906 223.449C115.906 223.449 118.779 87.5654 118.92 81.9317C119.061 76.2981 114.554 66.4391 113.54 60.6083C112.498 54.8056 113.455 52.7493 111.371 50.2142C109.314 47.679 103.315 36.637 101.258 34.2991C99.2021 31.9611 102.751 28.2147 105.286 31.7639C107.822 35.3131 115.512 44.6932 116.441 45.7354C117.371 46.7776 120.525 47.4537 119.342 42.9467C118.159 38.4398 116.441 23.7078 115.681 20.5247C114.92 17.3417 119.399 15.5953 120.272 19.4825C120.272 19.4825 123.624 36.806 124.244 39.2849C124.863 41.7355 128.103 42.4397 128.384 38.6652C128.666 34.8624 130.835 22.0177 131.258 18.0178C131.68 14.0179 136.807 13.7925 136.328 19.0036C135.849 24.2148 134.863 34.5244 134.441 37.4821C134.018 40.4398 135.708 43.3129 137.455 38.3271C137.455 38.3271 141.736 25.3979 142.722 22.3839C143.708 19.3698 149.173 18.8065 147.652 24.074C146.102 29.3414 142.807 41.3693 142.44 42.9186C142.102 44.4678 141.455 49.0311 142.243 51.8479C143.004 54.6648 146.102 57.9605 148.44 58.1858C150.75 58.383 156.018 50.6085 160.525 50.0452C165.031 49.4818 169.369 50.3268 168.468 52.862C167.567 55.3971 165.51 54.1296 161.229 57.2281C156.947 60.3266 155.257 64.8054 151.595 67.8476C147.933 70.8616 141.398 75.2277 139.652 79.6501C137.905 84.0725 141.821 223.252 141.821 223.252L115.906 223.449Z" fill="white"/>
</g>
<path d="M205.312 223.449C205.312 223.449 202.232 77.7518 202.081 71.7113C201.93 65.6707 206.762 55.0998 207.849 48.8478C208.967 42.6261 207.94 40.4213 210.175 37.703C212.38 34.9848 218.813 23.1453 221.018 20.6385C223.222 18.1317 219.417 14.1148 216.699 17.9203C213.98 21.7258 205.735 31.7833 204.738 32.9008C203.742 34.0183 200.359 34.7432 201.628 29.9107C202.896 25.0783 204.738 9.28232 205.554 5.86942C206.369 2.45652 201.567 0.583954 200.631 4.75192C200.631 4.75192 197.037 23.3266 196.372 25.9844C195.708 28.612 192.235 29.3671 191.932 25.3199C191.63 21.2426 189.305 7.47016 188.852 3.18138C188.399 -1.1074 182.902 -1.34902 183.415 4.23848C183.929 9.82597 184.986 20.8801 185.439 24.0514C185.892 27.2227 184.08 30.3034 182.207 24.9575C182.207 24.9575 177.616 11.0945 176.559 7.8628C175.502 4.63111 169.643 4.02706 171.274 9.67496C172.935 15.3229 176.469 28.2194 176.861 29.8805C177.224 31.5417 177.918 36.4345 177.073 39.4548C176.257 42.4751 172.935 46.0088 170.428 46.2504C167.952 46.4618 162.304 38.1259 157.471 37.5218C152.639 36.9178 147.988 37.8239 148.954 40.5421C149.921 43.2603 152.125 41.9012 156.716 45.2235C161.307 48.5458 163.119 53.348 167.045 56.6099C170.972 59.8416 177.979 64.523 179.851 69.2648C181.724 74.0066 177.526 223.238 177.526 223.238L205.312 223.449Z" fill="white"/>
<g opacity="0.5">
<path d="M213.834 224.276C213.834 224.276 215.416 148.981 215.494 145.859C215.571 142.738 213.089 137.275 212.53 134.044C211.956 130.828 212.484 129.689 211.336 128.284C210.203 126.879 206.898 120.761 205.766 119.465C204.633 118.17 206.588 116.094 207.984 118.06C209.381 120.027 213.616 125.225 214.128 125.802C214.64 126.38 216.378 126.754 215.726 124.257C215.075 121.76 214.128 113.596 213.709 111.833C213.291 110.069 215.757 109.101 216.238 111.255C216.238 111.255 218.085 120.854 218.426 122.228C218.767 123.586 220.551 123.976 220.707 121.885C220.862 119.777 222.056 112.66 222.289 110.444C222.522 108.227 225.346 108.102 225.082 110.99C224.818 113.877 224.275 119.59 224.042 121.229C223.81 122.868 224.74 124.46 225.702 121.697C225.702 121.697 228.061 114.533 228.604 112.863C229.147 111.193 232.157 110.881 231.319 113.799C230.465 116.718 228.65 123.383 228.448 124.241C228.262 125.1 227.905 127.629 228.34 129.189C228.759 130.75 230.465 132.576 231.753 132.701C233.025 132.811 235.927 128.503 238.409 128.19C240.891 127.878 243.281 128.346 242.784 129.751C242.288 131.156 241.155 130.454 238.797 132.171C236.439 133.888 235.508 136.369 233.491 138.055C231.474 139.725 227.874 142.144 226.913 144.595C225.951 147.045 228.107 224.167 228.107 224.167L213.834 224.276Z" fill="white"/>
</g>
<g opacity="0.6">
<path d="M105.94 223.449C105.94 223.449 103.679 116.55 103.568 112.118C103.458 107.686 107.003 99.9297 107.801 95.3425C108.621 90.7776 107.867 89.1599 109.507 87.1655C111.125 85.1711 115.845 76.4844 117.463 74.6451C119.08 72.8058 116.288 69.8586 114.294 72.6507C112.299 75.4429 106.25 82.8222 105.518 83.6421C104.787 84.462 102.305 84.9938 103.236 81.4482C104.167 77.9026 105.518 66.313 106.117 63.8089C106.715 61.3048 103.192 59.9309 102.505 62.989C102.505 62.989 99.8677 76.6174 99.3801 78.5674C98.8926 80.4954 96.3442 81.0494 96.1226 78.0799C95.901 75.0883 94.1947 64.9834 93.8623 61.8367C93.5299 58.6899 89.4968 58.5127 89.8735 62.6123C90.2502 66.7118 91.0258 74.8224 91.3582 77.1492C91.6906 79.476 90.361 81.7363 88.9871 77.814C88.9871 77.814 85.6188 67.6426 84.8432 65.2714C84.0676 62.9003 79.7686 62.4571 80.9652 66.601C82.184 70.745 84.7767 80.2073 85.0648 81.4261C85.3307 82.6449 85.8404 86.2348 85.2199 88.4508C84.6216 90.6668 82.184 93.2595 80.3447 93.4368C78.5276 93.5919 74.3837 87.4758 70.8381 87.0326C67.2925 86.5894 63.8798 87.2542 64.589 89.2486C65.2981 91.243 66.9158 90.2458 70.2841 92.6834C73.6524 95.121 74.982 98.6444 77.8628 101.038C80.7436 103.409 85.8847 106.844 87.2586 110.323C88.6325 113.802 85.5523 223.294 85.5523 223.294L105.94 223.449Z" fill="white"/>
</g>
<g opacity="0.7">
<path d="M282.749 223.449C282.749 223.449 280.759 129.343 280.661 125.441C280.564 121.54 283.685 114.712 284.387 110.674C285.109 106.655 284.446 105.231 285.889 103.475C287.313 101.72 291.469 94.0727 292.893 92.4535C294.317 90.8343 291.859 88.2398 290.103 90.6978C288.347 93.1558 283.022 99.6519 282.378 100.374C281.734 101.096 279.549 101.564 280.369 98.4424C281.188 95.3212 282.378 85.1185 282.905 82.9141C283.431 80.7097 280.33 79.5002 279.725 82.1923C279.725 82.1923 277.403 94.1897 276.974 95.9064C276.545 97.6036 274.302 98.0913 274.107 95.4772C273.911 92.8437 272.409 83.948 272.117 81.1779C271.824 78.4078 268.274 78.2517 268.605 81.8607C268.937 85.4697 269.62 92.6096 269.912 94.6579C270.205 96.7062 269.034 98.696 267.825 95.2431C267.825 95.2431 264.86 86.289 264.177 84.2016C263.494 82.1143 259.71 81.7241 260.763 85.3721C261.836 89.0201 264.118 97.35 264.372 98.4229C264.606 99.4959 265.055 102.656 264.509 104.607C263.982 106.558 261.836 108.84 260.217 108.996C258.617 109.133 254.969 103.749 251.848 103.358C248.727 102.968 245.722 103.554 246.347 105.309C246.971 107.065 248.395 106.187 251.36 108.333C254.325 110.479 255.496 113.581 258.032 115.687C260.568 117.775 265.094 120.799 266.303 123.861C267.513 126.924 264.801 223.313 264.801 223.313L282.749 223.449Z" fill="white"/>
</g>
<g opacity="0.9">
<path d="M14.4856 223.45C14.4856 223.45 17.2124 94.4841 17.3461 89.1373C17.4798 83.7904 13.2023 74.4335 12.2399 68.8995C11.2507 63.3923 12.1597 61.4407 10.1814 59.0346C8.22978 56.6286 2.53541 46.1488 0.583823 43.9298C-1.36777 41.7109 2.00073 38.1553 4.40681 41.5238C6.81288 44.8923 14.1113 53.7947 14.9935 54.7839C15.8757 55.7731 18.87 56.4147 17.7471 52.1372C16.6243 47.8598 14.9935 33.8778 14.2717 30.8569C13.5499 27.8359 17.8006 26.1784 18.6294 29.8677C18.6294 29.8677 21.8107 46.3092 22.3989 48.6618C22.987 50.9877 26.0614 51.656 26.3288 48.0736C26.5961 44.4645 28.6547 32.2738 29.0557 28.4775C29.4567 24.6813 34.3223 24.4674 33.8678 29.4132C33.4133 34.359 32.4776 44.1437 32.0766 46.9508C31.6756 49.7579 33.2797 52.4848 34.9372 47.7528C34.9372 47.7528 39.0008 35.4819 39.9365 32.6213C40.8722 29.7608 46.0586 29.2261 44.6149 34.2254C43.1446 39.2246 40.0167 50.6401 39.6691 52.1105C39.3483 53.5809 38.7334 57.9118 39.482 60.5852C40.2038 63.2586 43.1446 66.3865 45.3635 66.6004C47.5557 66.7875 52.555 59.4089 56.8324 58.8742C61.1099 58.3395 65.2269 59.1416 64.3714 61.5476C63.516 63.9537 61.5644 62.7507 57.5008 65.6914C53.4372 68.6322 51.8331 72.8829 48.3577 75.7702C44.8823 78.6307 38.68 82.7745 37.0224 86.9718C35.3649 91.169 39.0809 223.262 39.0809 223.262L14.4856 223.45Z" fill="white"/>
</g>
</g>
<defs>
<filter id="filter0_d" x="0" y="0" width="325.319" height="256.276" filterUnits="userSpaceOnUse" color-interpolation-filters="sRGB">
<feFlood flood-opacity="0" result="BackgroundImageFix"/>
<feColorMatrix in="SourceAlpha" type="matrix" values="0 0 0 0 0 0 0 0 0 0 0 0 0 0 0 0 0 0 127 0"/>
<feOffset dx="16" dy="16"/>
<feGaussianBlur stdDeviation="8"/>
<feColorMatrix type="matrix" values="0 0 0 0 0 0 0 0 0 0 0 0 0 0 0 0 0 0 0.16 0"/>
<feBlend mode="normal" in2="BackgroundImageFix" result="effect1_dropShadow"/>
<feBlend mode="normal" in="SourceGraphic" in2="effect1_dropShadow" result="shape"/>
</filter>
</defs>
</svg>
