<svg width="48" height="48" viewBox="0 0 48 48" fill="none" xmlns="http://www.w3.org/2000/svg">
<path d="M42.8761 38.2534C43.3906 37.5424 43.695 36.6698 43.695 35.7272V30.0938C43.695 29.576 43.2752 29.1562 42.7575 29.1562H38.5676C36.6307 29.1562 35.055 30.732 35.055 32.6689V35.7272C35.055 36.6693 35.359 37.5412 35.8729 38.252C35.232 38.3559 34.6154 38.5612 34.0403 38.8618C32.7378 36.9182 30.6038 35.5778 28.1514 35.3516C28.1419 35.3489 28.1321 35.3469 28.1225 35.3446C28.9999 34.3648 29.5347 33.0722 29.5347 31.6566V24C29.5347 23.4822 29.1149 23.0625 28.5972 23.0625H22.9027C20.4559 23.0625 18.4653 25.0531 18.4653 27.4999V31.6565C18.4653 33.0721 19.0001 34.3647 19.8775 35.3445C19.8679 35.3468 19.8581 35.3489 19.8486 35.3515C17.396 35.5777 15.2618 36.9183 13.9594 38.8622C13.3841 38.5617 12.7674 38.3562 12.1268 38.2522C12.6408 37.5414 12.945 36.6694 12.945 35.7272V30.0938C12.945 29.576 12.5252 29.1562 12.0075 29.1562H7.81763C5.88075 29.1562 4.305 30.732 4.305 32.6689V35.7272C4.305 36.6699 4.60941 37.5424 5.12391 38.2534C2.22206 38.7277 0 41.2513 0 44.2852V47.0625C0 47.5803 0.419813 48 0.9375 48H47.0625C47.5802 48 48 47.5803 48 47.0625V44.2852C48 41.2513 45.7779 38.7277 42.8761 38.2534ZM6.18 32.6689C6.18 31.7659 6.91463 31.0312 7.81763 31.0312H11.07V32.173C11.07 32.7329 10.6146 33.1883 10.0548 33.1883H6.18V32.6689ZM6.18 35.0632H10.0548C10.412 35.0632 10.754 34.9977 11.07 34.8787V35.7272C11.07 37.0753 9.97322 38.1722 8.625 38.1722C7.27678 38.1722 6.18 37.0753 6.18 35.7272V35.0632ZM9.22941 40.0472L8.625 40.6516L8.02059 40.0472H9.22941ZM12.6143 43.2878V46.125H1.875V44.2852C1.875 42.1824 3.41466 40.4332 5.42559 40.1038L7.96209 42.6403C8.13797 42.8161 8.37638 42.9149 8.625 42.9149C8.87362 42.9149 9.11203 42.8161 9.28791 42.6403L11.8252 40.103C12.2733 40.1759 12.7043 40.3204 13.1059 40.5317C12.7883 41.391 12.6143 42.3194 12.6143 43.2878ZM24.0001 35.3163C21.9821 35.3163 20.3404 33.6745 20.3404 31.6566V30.4175H25.9432C26.5645 30.4175 27.1495 30.2588 27.6598 29.9799V31.6566C27.6598 33.6745 26.0181 35.3163 24.0001 35.3163ZM25.6343 37.1912L24 38.8254L22.3657 37.1912H25.6343ZM20.3402 27.4999H20.3403C20.3403 26.087 21.4897 24.9375 22.9027 24.9375H27.6597V26.826C27.6597 27.7725 26.8897 28.5426 25.9432 28.5426H20.3402V27.4999ZM33.5107 46.125H31.6875H16.3125H14.4893V44.25H20.5938C21.1115 44.25 21.5313 43.8303 21.5313 43.3125C21.5313 42.7947 21.1115 42.375 20.5938 42.375H14.5579C14.9597 39.7105 17.0925 37.6072 19.7703 37.2473L23.3371 40.8142C23.5202 40.9973 23.7601 41.0887 24 41.0887C24.2399 41.0887 24.4798 40.9973 24.6629 40.8142L28.2297 37.2473C31.2068 37.6475 33.5107 40.2028 33.5107 43.2878V46.125ZM36.93 32.6689C36.93 31.7659 37.6646 31.0312 38.5676 31.0312H41.82V32.173C41.82 32.7329 41.3646 33.1883 40.8048 33.1883H36.93V32.6689ZM36.93 35.0632H40.8048C41.162 35.0632 41.504 34.9977 41.82 34.8787V35.7272C41.82 37.0753 40.7232 38.1722 39.375 38.1722C38.0268 38.1722 36.93 37.0753 36.93 35.7272V35.0632ZM39.9794 40.0472L39.375 40.6516L38.7706 40.0472H39.9794ZM35.3857 46.125V43.2878C35.3857 42.3193 35.2117 41.3909 34.8939 40.5315C35.2954 40.32 35.7262 40.1756 36.1745 40.1028L38.712 42.6403C38.8879 42.8161 39.1263 42.9149 39.3749 42.9149C39.6235 42.9149 39.8619 42.8161 40.0378 42.6403L42.5743 40.1038C44.5853 40.4333 46.1249 42.1824 46.1249 44.2852V46.125H35.3857Z" fill="black"/>
<path d="M28.6205 6.12516C28.2543 5.75906 27.6608 5.75906 27.2945 6.12516L22.6942 10.7256L20.7055 8.73684C20.3393 8.37065 19.7459 8.37065 19.3797 8.73674C19.0136 9.10284 19.0136 9.69646 19.3797 10.0626L22.0313 12.7143C22.2072 12.89 22.4456 12.9889 22.6942 12.9889C22.9428 12.9889 23.1812 12.89 23.3571 12.7143L28.6205 7.45097C28.9865 7.08487 28.9865 6.49125 28.6205 6.12516Z" fill="black"/>
<path d="M27.8333 0.812946C27.3605 0.602102 26.8062 0.814446 26.5953 1.28732C26.3843 1.7602 26.5968 2.31454 27.0696 2.52538C29.7883 3.73785 31.545 6.44413 31.545 9.41995C31.545 13.5802 28.1603 16.9649 24.0001 16.9649C19.8398 16.9649 16.4552 13.5802 16.4552 9.41995C16.4552 6.45951 18.1992 3.75885 20.8983 2.53982C21.3701 2.32673 21.5799 1.77135 21.3667 1.29951C21.1536 0.827571 20.598 0.617852 20.1265 0.830946C16.7573 2.3527 14.5803 5.72404 14.5803 9.41985C14.5802 14.6141 18.8059 18.8399 24.0001 18.8399C29.1942 18.8399 33.42 14.6141 33.42 9.41995C33.42 5.70492 31.2271 2.32645 27.8333 0.812946Z" fill="black"/>
<path d="M24.0336 0H24C23.4823 0 23.0625 0.419719 23.0625 0.9375C23.0625 1.45528 23.4823 1.875 24 1.875H24.0247C24.0262 1.875 24.0276 1.875 24.0292 1.875C24.545 1.875 24.9642 1.45819 24.9666 0.941906C24.9691 0.424125 24.5513 0.0024375 24.0336 0Z" fill="black"/>
<path d="M24.6627 42.6497C24.4884 42.4753 24.2466 42.375 24 42.375C23.7534 42.375 23.5116 42.4753 23.3372 42.6497C23.1628 42.8241 23.0625 43.0659 23.0625 43.3125C23.0625 43.5591 23.1627 43.8009 23.3372 43.9753C23.5117 44.1497 23.7534 44.25 24 44.25C24.2466 44.25 24.4884 44.1497 24.6627 43.9753C24.8371 43.8009 24.9375 43.5591 24.9375 43.3125C24.9375 43.0659 24.8372 42.8241 24.6627 42.6497Z" fill="black"/>
</svg>
