<svg width="134" height="50" viewBox="0 0 134 50" fill="none" xmlns="http://www.w3.org/2000/svg">
<g clip-path="url(#clip0)">
<path d="M0.723655 34.4737C-0.526345 39.079 -0.328977 44.2105 2.23681 49.0132C3.81576 30.4605 37.1052 46.3158 44.4737 50C25.1315 26.8421 40.6579 21.4474 44.4079 19.6053C40.7237 19.4079 36.7105 19.2105 32.5658 19.2105C18.8158 19.2763 4.34208 21.5132 0.723655 34.4737Z" fill="url(#paint0_radial)"/>
<path d="M15.7237 10.1974C9.14473 13.75 7.23683 20 6.77631 25.329C10.3947 14.0789 33.6842 22.6316 38.6184 26.3158C31.7763 19.8026 31.8421 9.53948 40.5263 7.5C37.4342 7.17105 34.4079 6.97369 31.4474 6.97369C25.3947 6.97369 20 7.89474 15.7237 10.1974Z" fill="url(#paint1_linear)"/>
<path d="M21.8421 0.855263C19.0132 1.71053 13.75 5.26316 14.1447 11.1184C15.3947 2.43421 33.4868 9.47368 36.5131 11.7105C33.421 7.89474 29.8684 1.71053 34.2763 0C29.0789 0.723684 23.5526 1.57895 21.8421 0.855263Z" fill="url(#paint2_linear)"/>
<path fill-rule="evenodd" clip-rule="evenodd" d="M50.1316 2.03947H52.2369V22.0395L65 2.03947H67.7632V24.3421H65.6579V4.34211L52.829 24.3421H50.1316V2.03947Z" fill="#231F20"/>
<path fill-rule="evenodd" clip-rule="evenodd" d="M72.2368 2.03947H87.6316V3.81579H74.3421V11.4474H82.7631C84.8684 11.4474 86.4473 12.0395 87.6316 13.1579C88.8158 14.2763 89.4079 15.8553 89.4079 17.8947C89.4079 19.8684 88.8158 21.4474 87.6316 22.6316C86.4473 23.75 84.8684 24.3421 82.7631 24.3421H72.2368V2.03947ZM82.3026 22.5C83.8816 22.5 85.0658 22.1053 85.921 21.25C86.7763 20.4605 87.2368 19.2763 87.2368 17.8947C87.2368 16.4474 86.7763 15.3289 85.921 14.5395C85.0658 13.75 83.8158 13.2895 82.3026 13.2895H74.4079V22.5H82.3026Z" fill="#231F20"/>
<path fill-rule="evenodd" clip-rule="evenodd" d="M90.7895 22.5H93.1579C93.9474 21.0526 94.5395 19.5395 95 18.0263C95.4605 16.5132 95.7895 15 95.9869 13.4868C96.1842 11.9737 96.3158 10.4605 96.3816 9.07895C96.4474 7.63158 96.4474 6.31579 96.4474 5V2.03947H110.263V22.5H112.895V30.2632H110.789V24.3421H92.9605V30.2632H90.7895V22.5ZM108.092 22.5V3.88158H98.5527V4.60526C98.5527 5.85526 98.5526 7.23684 98.4869 8.68421C98.4869 10.1316 98.3553 11.6447 98.1579 13.2237C97.9605 14.8026 97.6316 16.3816 97.2369 17.9605C96.8421 19.5395 96.1842 21.0526 95.3948 22.5658L108.092 22.5Z" fill="#231F20"/>
<path fill-rule="evenodd" clip-rule="evenodd" d="M121.908 2.03947H124.276L133.026 24.3421H130.724L128.026 17.4342H117.895L115.197 24.3421H112.961L121.908 2.03947ZM127.303 15.5921L123.026 4.21053L118.553 15.6579H127.303V15.5921Z" fill="#231F20"/>
<path fill-rule="evenodd" clip-rule="evenodd" d="M67.3684 33.2895H68.9474L74.6711 47.8947H73.1579L71.3816 43.3553H64.7369L62.9606 47.8947H61.5132L67.3684 33.2895ZM70.9211 42.1711L68.0921 34.6711L65.1974 42.1711H70.9211Z" fill="#231F20"/>
<path fill-rule="evenodd" clip-rule="evenodd" d="M75.9869 33.2895H77.3685V39.6711H86.0527V33.2895H87.4342V47.8947H86.0527V40.8553H77.3685V47.8947H75.9869V33.2895Z" fill="#231F20"/>
<path fill-rule="evenodd" clip-rule="evenodd" d="M93.9474 40.3947L89.0132 33.2895H90.6579L94.7368 39.4079L99.0131 33.2895H100.592L95.5921 40.4605L100.855 47.8947H99.2105L94.7368 41.5132L90.2631 47.8947H88.6842L93.9474 40.3947Z" fill="#231F20"/>
<path fill-rule="evenodd" clip-rule="evenodd" d="M50.1316 47.6316H51.5132V46.4474V41.4474H57.0395C58.4211 41.4474 59.4737 41.0526 60.1974 40.329C60.9869 39.6053 61.3158 38.5526 61.3158 37.2368C61.3158 35.9211 60.9211 34.8684 60.1974 34.1447C59.4079 33.4211 58.3553 33.0263 57.0395 33.0263H50.1316V47.6316ZM56.7105 34.2105C57.7632 34.2105 58.5526 34.4737 59.079 35C59.6711 35.5263 59.9342 36.25 59.9342 37.2368C59.9342 38.1579 59.6711 38.9474 59.079 39.4737C58.4869 40 57.6974 40.2632 56.7105 40.2632H51.5132V34.2105H56.7105Z" fill="#231F20"/>
<path d="M108.355 38.5526H109.605V47.5658H108.553V40L103.816 47.5658H102.566V38.5526H103.618V46.1842L108.355 38.5526ZM112.303 47.5658V33.1579H120.526V34.3421H113.618V47.5658H112.303ZM131.974 42.8289H133.289C133.224 44.2105 132.697 45.3947 131.776 46.3158C130.855 47.2368 129.671 47.7632 128.224 47.8947H127.5C125.592 47.8947 124.079 47.2368 123.026 45.9868C121.974 44.7368 121.382 43.1579 121.25 41.25C121.25 41.1842 121.25 41.0526 121.25 40.9868C121.25 40.9211 121.25 40.8553 121.25 40.7237C121.25 40.6579 121.25 40.5921 121.184 40.4605C121.184 40.3947 121.184 40.2632 121.184 40.1974C121.184 40 121.184 39.8026 121.184 39.5395C121.184 39.3421 121.184 39.1447 121.25 38.8816C121.382 37.9605 121.579 37.1053 121.908 36.25C122.237 35.3947 122.763 34.6711 123.421 34.0789C123.882 33.6842 124.474 33.3553 125.132 33.0921C125.789 32.8947 126.447 32.7632 127.171 32.6974C127.237 32.6974 127.303 32.6974 127.368 32.6974C127.434 32.6974 127.5 32.6974 127.566 32.6974C127.566 32.6974 127.566 32.6974 127.632 32.6974C127.632 32.6974 127.632 32.6974 127.697 32.6974C129.013 32.6974 130.263 33.0921 131.382 33.8158C132.5 34.5395 133.092 35.6579 133.158 37.1711H131.842C131.711 36.0526 131.316 35.2632 130.461 34.6711C129.671 34.1447 128.816 33.8158 127.829 33.75C127.829 33.75 127.763 33.75 127.697 33.75C127.632 33.75 127.632 33.75 127.566 33.75C127.5 33.75 127.434 33.75 127.368 33.75C127.303 33.75 127.237 33.75 127.171 33.75C126.645 33.75 126.053 33.8816 125.526 34.1447C125 34.3421 124.539 34.6711 124.145 35C123.618 35.4605 123.289 35.9868 123.026 36.6447C122.763 37.3026 122.632 37.8947 122.566 38.6184C122.566 38.8816 122.5 39.0789 122.5 39.3421C122.5 39.6053 122.5 39.8026 122.5 40.0658V40.1316V40.1974V40.2632V40.3289C122.5 41.9079 122.895 43.3553 123.75 44.6053C124.605 45.8553 125.855 46.5132 127.5 46.5132C127.566 46.5132 127.566 46.5132 127.632 46.5132C127.697 46.5132 127.697 46.5132 127.763 46.5132C127.829 46.5132 127.829 46.5132 127.895 46.5132C127.961 46.5132 127.961 46.5132 128.026 46.5132C129.211 46.4474 130.066 46.0526 130.789 45.3289C131.513 44.8026 131.842 43.8816 131.974 42.8289Z" fill="#231F20"/>
</g>
<defs>
<radialGradient id="paint0_radial" cx="0" cy="0" r="1" gradientUnits="userSpaceOnUse" gradientTransform="translate(9 30.5) rotate(8.61565) scale(33.3766)">
<stop offset="0.0666912" stop-color="#F78620"/>
<stop offset="0.1214" stop-color="#F67F20"/>
<stop offset="0.5235" stop-color="#F24D22"/>
<stop offset="0.829" stop-color="#F02F24"/>
<stop offset="1" stop-color="#EF2324"/>
</radialGradient>
<linearGradient id="paint1_linear" x1="6.80019" y1="16.6447" x2="40.5502" y2="16.6447" gradientUnits="userSpaceOnUse">
<stop offset="0.2392" stop-color="#8AD4F6"/>
<stop offset="1" stop-color="#008FD3"/>
</linearGradient>
<linearGradient id="paint2_linear" x1="16.1779" y1="4.37743" x2="36.7705" y2="7.39809" gradientUnits="userSpaceOnUse">
<stop stop-color="#FED800"/>
<stop offset="0.3254" stop-color="#FDC808"/>
<stop offset="0.9637" stop-color="#F99D1E"/>
<stop offset="1" stop-color="#F99A1F"/>
</linearGradient>
<clipPath id="clip0">
<rect width="133.289" height="50" fill="white"/>
</clipPath>
</defs>
</svg>
