<svg width="64" height="64" viewBox="0 0 64 64" fill="none" xmlns="http://www.w3.org/2000/svg">
<path d="M1.57054 39.8846C1.92132 40.1287 2.29206 40.3428 2.67881 40.5246C3.13961 40.7603 3.91187 41.155 3.96627 41.4312C4.03338 41.7959 3.98953 42.1723 3.84041 42.5118C3.68147 42.8531 3.51507 43.1464 3.37107 43.3992C2.98067 44.0894 2.32681 45.2456 3.31241 46.051C3.54281 46.2643 3.94067 46.5726 4.30334 46.851C4.03636 47.3178 3.9156 47.854 3.95667 48.3902C4.01306 48.8123 4.24213 49.192 4.58921 49.4387C4.82601 49.6062 5.07881 49.7512 5.32841 49.8931C5.95881 50.2526 6.20521 50.42 6.28841 50.7539C6.34767 51.1832 6.31124 51.6203 6.18174 52.0339C6.11881 52.3187 6.05801 52.6046 6.02174 52.8872C5.91582 53.8593 6.03592 54.8428 6.37267 55.7608C6.85236 57.4552 8.38476 58.6358 10.1455 58.6675C10.4394 58.6666 10.7325 58.6355 11.0201 58.5747C14.0674 57.8524 17.0701 56.9538 20.0132 55.8835C22.4164 57.2936 23.9343 61.5816 24.33 63.1912C24.4482 63.6671 24.8755 64.0011 25.3657 64.0008L52.1391 63.9262C52.4784 63.9255 52.7971 63.7635 52.9976 63.4897C53.1981 63.216 53.2563 62.8632 53.1545 62.5395C52.8908 61.8168 52.5271 61.1346 52.074 60.5128C51.8182 60.1441 51.5877 59.7585 51.3839 59.3587C50.9011 58.3817 50.4984 57.3672 50.1796 56.3251C49.5787 54.2862 49.1597 52.198 48.9273 50.0851C48.8924 49.6973 48.6489 49.3594 48.2922 49.2035C47.9354 49.0476 47.5221 49.0984 47.2137 49.3361C46.9054 49.5739 46.751 49.9607 46.8111 50.3454C47.0578 52.5849 47.5029 54.798 48.1412 56.9587C48.4922 58.1053 48.9349 59.2218 49.465 60.2974C49.7083 60.7804 49.9845 61.2462 50.2916 61.6915L50.3631 61.7982L26.1721 61.8675C25.464 59.3372 24.1788 57.0055 22.4175 55.0558L23.3775 54.7198C24.0921 54.4702 24.6308 54.2824 24.9071 54.1939C29.4767 52.7486 31.7615 50.6675 31.6996 48.0072C31.7005 47.723 31.5849 47.4508 31.3797 47.2541C31.1745 47.0574 30.8977 46.9533 30.6137 46.9662C30.025 46.9801 29.559 47.4686 29.5727 48.0574C29.5983 49.155 28.6991 50.756 24.2649 52.1587C23.9759 52.2515 23.4191 52.4456 22.6799 52.7038C21.8873 52.9811 20.8793 53.3331 19.7679 53.7107H19.7604C16.7586 54.811 13.6957 55.737 10.5871 56.484C9.59238 56.6757 8.62367 56.0483 8.39187 55.0622C8.16399 54.4553 8.07824 53.8044 8.14121 53.1592C8.16894 52.9352 8.22014 52.7134 8.26921 52.4904C8.48656 51.7526 8.51843 50.9726 8.36201 50.2195C8.05071 49.2411 7.33045 48.4457 6.38761 48.0392L6.16574 47.9123C6.28092 47.6798 6.41845 47.459 6.57641 47.2531C6.75535 47.0264 6.83469 46.7368 6.79629 46.4505C6.75789 46.1642 6.60504 45.9057 6.37267 45.7342C6.11667 45.5464 5.51294 45.0942 5.07134 44.7379C5.12254 44.6451 5.17801 44.5427 5.23134 44.4499C5.39881 44.1566 5.58974 43.8152 5.77641 43.4206C6.11395 42.6729 6.21338 41.8395 6.06121 41.0334C5.80521 39.732 4.55934 39.0942 3.64947 38.6291C3.34351 38.4843 3.05022 38.3141 2.77267 38.1203C2.54395 37.9666 2.32973 37.7924 2.13267 37.5998C2.13267 37.4387 2.30547 37.0483 3.11827 36.0574C5.02851 33.5991 6.66552 30.9403 8.00041 28.1278C8.25226 27.687 8.39388 27.1919 8.41321 26.6846C8.30303 25.6124 7.73485 24.6402 6.85481 24.0179C6.42281 23.6222 6.01641 23.2488 5.96947 22.9043C5.9766 22.6515 6.03313 22.4026 6.13587 22.1715C6.30974 21.7139 6.51027 21.2659 6.71187 20.8168C7.14926 19.915 7.49861 18.973 7.75507 18.004L7.86174 17.5496C8.08795 16.4832 8.37934 15.4316 8.73427 14.4008C9.57512 12.08 10.877 9.95344 12.5615 8.1491C14.602 5.99017 17.8137 4.4627 22.1231 3.60617C25.4194 2.88254 28.7641 2.40055 32.1305 2.16403C33.8095 2.07313 35.4934 2.16865 37.1513 2.44883C37.7244 2.53473 38.2613 2.14736 38.3604 1.5764C38.4595 1.00544 38.0847 0.459789 37.5161 0.347501C35.7013 0.0390739 33.8577 -0.0661088 32.0196 0.0339008C28.5488 0.274635 25.1002 0.769472 21.7017 1.51443C16.8921 2.47443 13.3967 4.16083 11.0105 6.68243C9.12831 8.69648 7.67299 11.0705 6.73214 13.6616C6.348 14.7766 6.03239 15.914 5.78707 17.0675L5.68041 17.5176C5.45275 18.3542 5.14742 19.1677 4.76841 19.9475C4.55507 20.4339 4.33321 20.9203 4.14227 21.4238C3.89669 21.9846 3.79936 22.5991 3.85961 23.2083C4.07485 24.1634 4.62696 25.009 5.41481 25.5902C5.93641 26.0691 6.27881 26.4062 6.28307 26.6995C6.24446 26.862 6.18305 27.0182 6.10067 27.1635C4.82281 29.8557 3.25628 32.4011 1.42867 34.755C0.657472 35.6947 -0.149995 36.7902 0.0217384 37.8856C0.247667 38.7334 0.806088 39.4541 1.57054 39.8846Z" fill="#4A321F"/>
<path d="M11.9112 18.9792L12.0179 18.5045C12.2048 17.6177 12.4424 16.7423 12.7293 15.8827C13.3717 14.1019 14.3673 12.4692 15.6563 11.0827C17.0387 9.77919 18.7308 8.84997 20.5725 8.38292C20.9444 8.27813 21.2305 7.98046 21.3205 7.60476C21.4105 7.22905 21.2903 6.83404 21.0063 6.57213C20.7224 6.31021 20.3189 6.22233 19.9517 6.34239C17.7537 6.91359 15.7401 8.04181 14.1053 9.61812C12.6199 11.215 11.4723 13.0954 10.7315 15.1467C10.4114 16.0935 10.1475 17.0584 9.94105 18.0363L9.83438 18.4981C9.70127 19.0716 10.0579 19.6444 10.6312 19.7781C10.7105 19.7967 10.7918 19.8061 10.8733 19.8059C11.3694 19.8052 11.7996 19.4626 11.9112 18.9792Z" fill="#4A321F"/>
<path d="M9.59975 23.4666C10.1889 23.4666 10.6664 22.989 10.6664 22.3999C10.6664 21.8108 10.1889 21.3333 9.59975 21.3333C9.01064 21.3333 8.53308 21.8108 8.53308 22.3999C8.53308 22.989 9.01064 23.4666 9.59975 23.4666Z" fill="#4A321F"/>
<path d="M28.7999 21.5572C28.7268 25.1937 30.0119 28.7268 32.4042 31.4666C33.1571 32.2489 33.9781 32.9628 34.8575 33.5999C36.418 34.8063 37.8964 35.9594 38.2889 37.5636C37.0703 38.0459 36.2689 39.2226 36.2666 40.5332V42.6665C36.2722 44.0178 37.1259 45.2199 38.3999 45.6703V45.8666C38.3999 48.223 40.3101 50.1332 42.6665 50.1332C45.023 50.1332 46.9332 48.223 46.9332 45.8666V45.6703C48.2072 45.2199 49.0609 44.0178 49.0665 42.6665V40.5332C49.0635 39.2215 48.2602 38.0446 47.0399 37.5636C47.4313 35.9636 48.9108 34.8063 50.4713 33.5999C51.3505 32.9626 52.1714 32.2487 52.9247 31.4666C55.3178 28.727 56.6044 25.1941 56.5332 21.5572C56.5034 13.8744 50.3479 7.61941 42.6665 7.46655C34.9852 7.61941 28.8296 13.8744 28.7999 21.5572ZM39.4665 23.4666H38.3999C37.8108 23.4666 37.3332 22.989 37.3332 22.3999C37.3332 21.8108 37.8108 21.3332 38.3999 21.3332C38.989 21.3332 39.4665 21.8108 39.4665 22.3999V23.4666ZM43.7332 37.3332H41.5999V25.5999H43.7332V37.3332ZM42.6665 47.9999C41.4883 47.9999 40.5332 47.0448 40.5332 45.8666H44.7999C44.7999 47.0448 43.8448 47.9999 42.6665 47.9999ZM46.9332 42.6665C46.9332 43.2557 46.4556 43.7332 45.8665 43.7332H39.4665C38.8774 43.7332 38.3999 43.2557 38.3999 42.6665V40.5332C38.3999 39.9441 38.8774 39.4666 39.4665 39.4666H45.8665C46.4556 39.4666 46.9332 39.9441 46.9332 40.5332V42.6665ZM54.3999 21.5903C54.4663 24.6875 53.3777 27.6985 51.346 30.0372C50.677 30.7232 49.95 31.3502 49.1732 31.9114C47.9155 32.7875 46.8003 33.8521 45.8665 35.0676V25.5999H46.9332C48.7005 25.5999 50.1332 24.1672 50.1332 22.3999C50.1332 20.6326 48.7005 19.1999 46.9332 19.1999C45.1659 19.1999 43.7332 20.6326 43.7332 22.3999V23.4666H41.5999V22.3999C41.5999 20.6326 40.1672 19.1999 38.3999 19.1999C36.6326 19.1999 35.1999 20.6326 35.1999 22.3999C35.1999 24.1672 36.6326 25.5999 38.3999 25.5999H39.4665V35.0676C38.5346 33.8526 37.4211 32.7884 36.1652 31.9124C35.3881 31.3509 34.6608 30.7235 33.9914 30.0372C31.9576 27.6995 30.8674 24.6881 30.9332 21.5903C31.0399 15.09 36.4074 9.59989 42.6665 9.59989C48.9257 9.59989 54.2985 15.09 54.3999 21.5903ZM45.8665 23.4666V22.3999C45.8665 21.8108 46.3441 21.3332 46.9332 21.3332C47.5223 21.3332 47.9999 21.8108 47.9999 22.3999C47.9999 22.989 47.5223 23.4666 46.9332 23.4666H45.8665Z" fill="#4A321F"/>
<path d="M59.7332 22.3999H62.9332C63.5223 22.3999 63.9998 21.9224 63.9998 21.3333C63.9998 20.7442 63.5223 20.2666 62.9332 20.2666H59.7332C59.1441 20.2666 58.6665 20.7442 58.6665 21.3333C58.6665 21.9224 59.1441 22.3999 59.7332 22.3999Z" fill="#4A321F"/>
<path d="M54.7336 10.3328C55.0169 10.333 55.2886 10.2206 55.4888 10.0202L57.7512 7.75678C58.0285 7.48897 58.1397 7.09238 58.0421 6.71944C57.9445 6.34651 57.6532 6.05526 57.2803 5.95764C56.9074 5.86003 56.5108 5.97123 56.243 6.24852L53.9795 8.51092C53.6737 8.81588 53.582 9.27508 53.7472 9.67408C53.9124 10.0731 54.3018 10.3331 54.7336 10.3328Z" fill="#4A321F"/>
<path d="M42.6666 5.33333C43.2557 5.33333 43.7332 4.85577 43.7332 4.26667V1.06667C43.7332 0.477563 43.2557 0 42.6666 0C42.0775 0 41.5999 0.477563 41.5999 1.06667V4.26667C41.5999 4.85577 42.0775 5.33333 42.6666 5.33333Z" fill="#4A321F"/>
<path d="M31.3536 10.0203C31.5539 9.82018 31.6665 9.54869 31.6665 9.26559C31.6665 8.98248 31.5539 8.71099 31.3536 8.51092L29.0902 6.24852C28.8223 5.97123 28.4258 5.86003 28.0528 5.95764C27.6799 6.05526 27.3886 6.34651 27.291 6.71944C27.1934 7.09238 27.3046 7.48897 27.5819 7.75679L29.8443 10.0203C30.0444 10.2205 30.3159 10.3331 30.599 10.3331C30.8821 10.3331 31.1535 10.2205 31.3536 10.0203Z" fill="#4A321F"/>
<path d="M22.3999 20.2666C21.8108 20.2666 21.3332 20.7442 21.3332 21.3333C21.3332 21.9224 21.8108 22.3999 22.3999 22.3999H25.5999C26.189 22.3999 26.6665 21.9224 26.6665 21.3333C26.6665 20.7442 26.189 20.2666 25.5999 20.2666H22.3999Z" fill="#4A321F"/>
</svg>
