<svg width="64" height="64" viewBox="0 0 64 64" fill="none" xmlns="http://www.w3.org/2000/svg">
<g clip-path="url(#clip0)">
<path d="M44.5196 51.2001H34.9196V42.6668C34.9196 39.7213 32.5317 37.3335 29.5862 37.3335H23.1862V31.4775L37.6716 21.1308C37.9062 20.9647 38.064 20.7108 38.1089 20.4268C38.1514 20.1437 38.0784 19.8555 37.9062 19.6268L34.7062 15.3601C34.3614 14.9017 33.7158 14.798 33.2449 15.1255L22.3116 22.6881C24.2449 19.0457 22.8593 14.5256 19.2169 12.5924C15.5745 10.6591 11.0544 12.0447 9.12116 15.6871C7.56663 18.6157 8.12969 22.2187 10.5036 24.5335H9.31956C9.01863 24.5341 8.73183 24.662 8.53023 24.8855L1.63956 32.5441C-0.252307 34.6579 -0.158573 37.8825 1.85289 39.8828L7.49556 45.5575C7.71729 45.7795 8.02556 45.8927 8.33823 45.8668C8.65489 45.8424 8.94423 45.6783 9.12756 45.4188L10.3862 43.6375V62.9335C10.3862 63.5225 10.8638 64.0001 11.4529 64.0001H17.8529C18.442 64.0001 18.9196 63.5225 18.9196 62.9335V45.8668H26.3862V51.2001H23.1862C22.5972 51.2001 22.1196 51.6777 22.1196 52.2668V62.9335C22.1196 63.5225 22.5972 64.0001 23.1862 64.0001H44.5196C45.1086 64.0001 45.5862 63.5225 45.5862 62.9335V52.2668C45.5862 51.6777 45.1088 51.2001 44.5196 51.2001ZM10.3862 19.2001C10.3862 16.2547 12.7741 13.8668 15.7196 13.8668C18.665 13.8668 21.0529 16.2547 21.0529 19.2001C21.0529 22.1456 18.665 24.5335 15.7196 24.5335C12.7741 24.5335 10.3862 22.1456 10.3862 19.2001ZM18.2582 26.6668L16.7862 29.6108L15.3142 26.6668H18.2582ZM10.3862 38.0908L8.67956 36.2668L10.3862 34.5601V38.0908ZM17.8529 43.7335C17.2638 43.7335 16.7862 44.2111 16.7862 44.8001V61.8668H12.5196V32.0001C12.5174 31.5695 12.2565 31.1824 11.8582 31.0188C11.461 30.8517 11.0024 30.9401 10.6956 31.2428L6.42889 35.5095C6.02236 35.9243 6.02236 36.588 6.42889 37.0028L9.91689 40.6401L8.11423 43.1575L3.33556 38.4001C2.11703 37.1943 2.06529 35.2423 3.21823 33.9735L9.79956 26.6668H12.9249L15.8369 32.4801C16.1056 33.0044 16.7482 33.2117 17.2726 32.9431C17.4717 32.8411 17.6337 32.6792 17.7356 32.4801L20.8182 26.3255L33.6182 17.4615L35.5489 20.0321L21.5009 30.0695C21.2212 30.2685 21.0545 30.5901 21.0529 30.9335V38.4001C21.0529 38.9892 21.5305 39.4668 22.1196 39.4668H29.5862C31.3536 39.4668 32.7862 40.8995 32.7862 42.6668V51.2001H28.5196V44.8001C28.5196 44.2111 28.042 43.7335 27.4529 43.7335H17.8529ZM43.4529 61.8668H24.2529V53.3335H43.4529V61.8668Z" fill="#4A321F"/>
<path d="M62.653 8.53333C58.5293 8.53333 55.1863 5.1904 55.1863 1.06667C55.1863 0.4776 54.7087 0 54.1197 0C53.5306 0 53.053 0.4776 53.053 1.06667C53.053 5.1904 49.7101 8.53333 45.5863 8.53333C44.9973 8.53333 44.5197 9.01093 44.5197 9.6C44.5197 10.1891 44.9973 10.6667 45.5863 10.6667C49.7101 10.6667 53.053 14.0096 53.053 18.1333C53.053 18.7224 53.5306 19.2 54.1197 19.2C54.7087 19.2 55.1863 18.7224 55.1863 18.1333C55.1863 14.0096 58.5293 10.6667 62.653 10.6667C63.2421 10.6667 63.7197 10.1891 63.7197 9.6C63.7197 9.01093 63.2422 8.53333 62.653 8.53333ZM54.1197 13.7387C53.2001 11.9653 51.7545 10.5197 49.981 9.6C51.7543 8.68027 53.1999 7.23467 54.1197 5.46133C55.0394 7.23467 56.485 8.68027 58.2583 9.6C56.485 10.5197 55.0394 11.9653 54.1197 13.7387Z" fill="#4A321F"/>
<path d="M36.1287 26.8711L33.2214 29.0029L34.4828 30.7232L37.3901 28.5914L36.1287 26.8711Z" fill="#4A321F"/>
<path d="M49.2252 17.2715L38.5618 25.0964L39.8239 26.8163L50.4873 18.9914L49.2252 17.2715Z" fill="#4A321F"/>
<path d="M44.9888 11.91L38.5902 16.176L39.7736 17.951L46.1722 13.6849L44.9888 11.91Z" fill="#4A321F"/>
</g>
<defs>
<clipPath id="clip0">
<rect width="64" height="64" fill="white"/>
</clipPath>
</defs>
</svg>
