<svg width="503" height="634" viewBox="0 0 503 634" fill="none" xmlns="http://www.w3.org/2000/svg">
<path d="M24.2563 267.337C23.4903 267.592 22.9797 268.358 22.9797 269.38C22.9797 270.656 24.001 271.678 25.2776 271.678C26.5543 271.678 27.5756 270.656 27.5756 269.38C27.5756 268.358 27.0649 267.592 26.2989 267.337V259.166H4.85123C5.36189 246.144 16.0857 235.675 29.1076 235.675H84.7695V184.097C84.7695 183.076 84.7695 182.055 84.7695 181.033C85.7908 180.778 86.5568 180.012 86.5568 178.99C86.5568 178.735 86.5568 178.224 86.3015 177.969L110.813 153.457C111.579 153.457 112.345 152.691 112.345 151.925C112.345 151.159 111.579 150.393 110.813 150.393C110.047 150.393 109.281 151.159 109.281 151.925C109.281 152.18 109.281 152.18 109.281 152.436L84.7695 176.948C84.5142 176.948 84.5142 176.948 84.5142 176.948C83.2375 176.948 82.2162 177.969 82.2162 179.246C82.2162 180.012 82.4715 180.523 82.9822 181.033C82.9822 182.055 82.9822 183.331 82.9822 184.353V234.143H29.1076C14.5538 234.143 2.80859 245.889 2.80859 260.443V261.464H24.5116V267.337H24.2563Z" fill="#E4BFA2"/>
<path d="M284.693 298.999C284.693 298.233 283.927 297.467 283.161 297.467C282.65 297.467 282.14 297.722 281.884 297.978H252.266L241.031 292.36C241.031 291.85 241.287 291.594 241.287 291.084C241.287 288.275 238.989 286.232 236.435 286.232C233.627 286.232 231.584 288.53 231.584 291.084C231.584 293.892 233.882 295.935 236.435 295.935C237.967 295.935 239.244 295.169 240.265 294.148L251.755 300.02H281.884L282.14 300.276V321.213C281.884 321.469 281.629 321.979 281.629 322.49C281.629 323.256 282.395 324.022 283.161 324.022C283.927 324.022 284.693 323.256 284.693 322.49C284.693 321.979 284.438 321.469 284.182 321.213V300.276C284.438 300.02 284.693 299.51 284.693 298.999ZM239.244 291.594L237.967 290.828C237.712 290.062 237.201 289.552 236.435 289.552C235.67 289.552 234.904 290.318 234.904 291.084C234.904 291.85 235.67 292.616 236.435 292.616C236.691 292.616 236.946 292.616 237.201 292.36L238.478 293.126C237.967 293.637 237.201 293.892 236.435 293.892C234.904 293.892 233.627 292.616 233.627 291.084C233.627 289.552 234.904 288.275 236.435 288.275C237.967 288.275 239.244 289.552 239.244 291.084C239.244 291.339 239.244 291.339 239.244 291.594Z" fill="#E4BFA2"/>
<path d="M487.68 248.953C487.68 248.187 486.914 247.421 486.148 247.421C485.382 247.421 484.616 248.187 484.616 248.953C484.616 249.719 485.382 250.485 486.148 250.485C486.914 250.74 487.68 249.974 487.68 248.953Z" fill="#E4BFA2"/>
<path d="M480.02 248.953C480.02 248.187 479.254 247.421 478.488 247.421C477.722 247.421 476.956 248.187 476.956 248.953C476.956 249.719 477.722 250.485 478.488 250.485C479.254 250.74 480.02 249.974 480.02 248.953Z" fill="#E4BFA2"/>
<path d="M472.36 248.953C472.36 248.187 471.594 247.421 470.828 247.421C470.062 247.421 469.297 248.187 469.297 248.953C469.297 249.719 470.062 250.485 470.828 250.485C471.85 250.74 472.36 249.974 472.36 248.953Z" fill="#E4BFA2"/>
<path d="M344.951 454.754V612.552H353.632L369.718 596.721V449.392H468.275C468.53 449.647 469.041 449.903 469.552 449.903C470.318 449.903 471.084 449.137 471.084 448.371C471.084 447.605 470.318 446.839 469.552 446.839C469.041 446.839 468.53 447.094 468.275 447.349H367.675V595.7L352.866 610.254H346.738V455.265L361.292 440.711H484.871C485.127 440.966 485.637 441.221 486.148 441.221C486.914 441.221 487.68 440.455 487.68 439.689C487.68 438.923 486.914 438.157 486.148 438.157C485.637 438.157 485.127 438.413 484.871 438.668H360.526L344.951 454.754Z" fill="#E4BFA2"/>
<path d="M489.978 416.198H487.936V422.582H489.978V416.198Z" fill="#E4BFA2"/>
<path d="M478.488 416.198H476.446V422.582H478.488V416.198Z" fill="#E4BFA2"/>
<path d="M467.254 416.198H465.211V422.582H467.254V416.198Z" fill="#E4BFA2"/>
<path d="M456.019 416.198H453.977V422.582H456.019V416.198Z" fill="#E4BFA2"/>
<path d="M444.53 416.198H442.487V422.582H444.53V416.198Z" fill="#E4BFA2"/>
<path d="M433.295 416.198H431.252V422.582H433.295V416.198Z" fill="#E4BFA2"/>
<path d="M422.06 416.198H420.018V422.582H422.06V416.198Z" fill="#E4BFA2"/>
<path d="M410.571 416.198H408.528V422.582H410.571V416.198Z" fill="#E4BFA2"/>
<path d="M399.336 416.198H397.293V422.582H399.336V416.198Z" fill="#E4BFA2"/>
<path d="M388.101 416.198H386.059V422.582H388.101V416.198Z" fill="#E4BFA2"/>
<path d="M376.612 416.198H374.569V422.582H376.612V416.198Z" fill="#E4BFA2"/>
<path d="M365.377 416.198H363.335V422.582H365.377V416.198Z" fill="#E4BFA2"/>
<path d="M34.4696 290.317C34.2143 290.062 33.7036 289.807 33.1929 289.807C32.4269 289.807 31.6609 290.573 31.6609 291.339C31.6609 292.105 32.4269 292.871 33.1929 292.871C33.7036 292.871 34.2143 292.615 34.4696 292.36H164.943V368.195C164.688 368.45 164.433 368.961 164.433 369.472C164.433 370.238 165.199 371.004 165.965 371.004C166.731 371.004 167.496 370.238 167.496 369.472C167.496 368.961 167.241 368.45 166.986 368.195V290.317H34.4696Z" fill="#E4BFA2"/>
<path d="M262.99 13.2777C262.99 10.469 260.692 8.42627 258.138 8.42627C255.33 8.42627 253.287 10.7243 253.287 13.2777C253.287 16.0864 255.585 18.129 258.138 18.129C260.692 18.129 262.99 15.831 262.99 13.2777ZM255.074 13.2777C255.074 11.7456 256.351 10.469 257.883 10.469C259.415 10.469 260.692 11.7456 260.692 13.2777C260.692 14.8097 259.415 16.0864 257.883 16.0864C256.606 16.0864 255.074 14.8097 255.074 13.2777Z" fill="#E4BFA2"/>
<path d="M298.225 13.2777C298.225 10.469 295.927 8.42627 293.374 8.42627C290.565 8.42627 288.523 10.7243 288.523 13.2777C288.523 16.0864 290.821 18.129 293.374 18.129C295.927 18.129 298.225 15.831 298.225 13.2777ZM290.31 13.2777C290.31 11.7456 291.587 10.469 293.119 10.469C294.651 10.469 295.927 11.7456 295.927 13.2777C295.927 14.8097 294.651 16.0864 293.119 16.0864C291.587 16.0864 290.31 14.8097 290.31 13.2777Z" fill="#E4BFA2"/>
<path d="M274.735 13.2777C274.735 10.469 272.437 8.42627 269.884 8.42627C267.075 8.42627 265.033 10.7243 265.033 13.2777C265.033 16.0864 267.331 18.129 269.884 18.129C272.437 18.129 274.735 15.831 274.735 13.2777ZM266.82 13.2777C266.82 11.7456 268.097 10.469 269.629 10.469C271.16 10.469 272.437 11.7456 272.437 13.2777C272.437 14.8097 271.16 16.0864 269.629 16.0864C268.097 16.0864 266.82 14.8097 266.82 13.2777Z" fill="#E4BFA2"/>
<path d="M286.48 13.2777C286.48 10.469 284.182 8.42627 281.629 8.42627C278.82 8.42627 276.778 10.7243 276.778 13.2777C276.778 16.0864 279.076 18.129 281.629 18.129C284.182 18.129 286.48 15.831 286.48 13.2777ZM278.565 13.2777C278.565 11.7456 279.842 10.469 281.374 10.469C282.906 10.469 284.182 11.7456 284.182 13.2777C284.182 14.8097 282.906 16.0864 281.374 16.0864C279.842 16.0864 278.565 14.8097 278.565 13.2777Z" fill="#E4BFA2"/>
<path d="M357.462 532.121C354.653 532.121 352.611 534.419 352.611 536.972C352.611 539.781 354.909 541.823 357.462 541.823C360.015 541.823 362.313 539.525 362.313 536.972C362.313 534.419 360.015 532.121 357.462 532.121ZM357.462 540.036C355.93 540.036 354.653 538.759 354.653 537.227C354.653 535.695 355.93 534.419 357.462 534.419C358.994 534.419 360.271 535.695 360.271 537.227C360.271 538.759 358.994 540.036 357.462 540.036Z" fill="#E4BFA2"/>
<path d="M357.462 567.357C354.653 567.357 352.611 569.655 352.611 572.209C352.611 575.017 354.909 577.06 357.462 577.06C360.015 577.06 362.313 574.762 362.313 572.209C362.313 569.655 360.015 567.357 357.462 567.357ZM357.462 575.273C355.93 575.273 354.653 573.996 354.653 572.464C354.653 570.932 355.93 569.655 357.462 569.655C358.994 569.655 360.271 570.932 360.271 572.464C360.271 573.996 358.994 575.273 357.462 575.273Z" fill="#E4BFA2"/>
<path d="M357.462 543.866C354.653 543.866 352.611 546.164 352.611 548.718C352.611 551.526 354.909 553.569 357.462 553.569C360.015 553.569 362.313 551.271 362.313 548.718C362.313 546.164 360.015 543.866 357.462 543.866ZM357.462 551.782C355.93 551.782 354.653 550.505 354.653 548.973C354.653 547.441 355.93 546.164 357.462 546.164C358.994 546.164 360.271 547.441 360.271 548.973C360.271 550.505 358.994 551.782 357.462 551.782Z" fill="#E4BFA2"/>
<path d="M357.462 555.612C354.653 555.612 352.611 557.91 352.611 560.463C352.611 563.272 354.909 565.315 357.462 565.315C360.015 565.315 362.313 563.017 362.313 560.463C362.313 557.91 360.015 555.612 357.462 555.612ZM357.462 563.527C355.93 563.527 354.653 562.251 354.653 560.719C354.653 559.187 355.93 557.91 357.462 557.91C358.994 557.91 360.271 559.187 360.271 560.719C360.271 562.251 358.994 563.527 357.462 563.527Z" fill="#E4BFA2"/>
<path d="M293.374 603.104L301.8 594.678V540.802C302.055 540.547 302.311 540.036 302.311 539.525C302.311 538.759 301.545 537.993 300.779 537.993C300.013 537.993 299.247 538.759 299.247 539.525C299.247 540.036 299.502 540.547 299.757 540.802V584.465L293.629 578.337V567.102C295.672 566.591 297.459 564.548 297.459 562.25C297.459 559.442 295.161 557.399 292.608 557.399C290.055 557.399 287.757 559.697 287.757 562.25C287.757 564.548 289.544 566.591 291.842 567.102V579.103L300.013 587.273V593.657L292.863 600.806H262.99V551.782C265.288 551.271 266.82 549.484 266.82 546.93C266.82 544.121 264.522 542.079 261.968 542.079C259.16 542.079 257.117 544.377 257.117 546.93C257.117 549.228 258.904 551.271 260.947 551.782V602.594H293.374V603.104ZM291.587 563.782V565.314C290.31 565.059 289.544 563.782 289.544 562.506C289.544 560.974 290.821 559.697 292.353 559.697C293.885 559.697 295.161 560.974 295.161 562.506C295.161 563.782 294.395 564.804 293.374 565.314V563.782C293.629 563.527 293.885 563.016 293.885 562.761C293.885 561.995 293.119 561.229 292.353 561.229C291.587 561.229 290.821 561.995 290.821 562.761C290.821 563.016 291.076 563.527 291.587 563.782ZM258.649 547.441C258.649 545.909 259.926 544.632 261.458 544.632C262.99 544.632 264.266 545.909 264.266 547.441C264.266 548.718 263.5 549.739 262.224 550.25V548.718C262.479 548.462 262.734 547.952 262.734 547.441C262.734 546.675 261.968 545.909 261.202 545.909C260.436 545.909 259.67 546.675 259.67 547.441C259.67 547.952 259.926 548.462 260.181 548.718V550.25C259.415 549.739 258.649 548.718 258.649 547.441Z" fill="#E4BFA2"/>
<path d="M274.224 562.506C274.224 559.697 271.926 557.654 269.373 557.654C266.564 557.654 264.522 559.952 264.522 562.506C264.522 564.804 266.309 566.846 268.352 567.357V595.189H283.927C284.182 595.444 284.693 595.699 285.204 595.699C285.969 595.699 286.736 594.933 286.736 594.167C286.736 593.401 285.969 592.635 285.204 592.635C284.693 592.635 284.182 592.891 283.927 593.146H270.394V567.102C272.437 566.846 274.224 564.804 274.224 562.506ZM269.118 560.974C268.352 560.974 267.586 561.74 267.586 562.506C267.586 563.016 267.841 563.527 268.096 563.782V565.314C267.075 564.804 266.054 563.782 266.054 562.506C266.054 560.974 267.33 559.697 268.862 559.697C270.394 559.697 271.671 560.974 271.671 562.506C271.671 563.782 270.905 564.804 269.628 565.314V563.782C269.884 563.527 270.139 563.016 270.139 562.506C270.905 561.484 270.139 560.974 269.118 560.974Z" fill="#E4BFA2"/>
<path d="M41.1082 300.531C41.6188 300.531 42.1295 300.275 42.3848 300.02H157.539V381.472C155.241 381.983 153.709 383.77 153.709 386.324C153.709 389.133 156.007 391.175 158.56 391.175C161.369 391.175 163.411 388.877 163.411 386.324C163.411 384.026 161.624 381.983 159.581 381.472V297.977H42.1295C41.8742 297.722 41.3635 297.467 40.8528 297.467C40.0869 297.467 39.3209 298.233 39.3209 298.999C39.3209 299.765 40.0869 300.531 41.1082 300.531ZM159.326 385.047V383.515C160.347 384.026 161.369 385.047 161.369 386.324C161.369 387.856 160.092 389.133 158.56 389.133C157.028 389.133 155.751 387.856 155.751 386.324C155.751 385.047 156.517 384.026 157.794 383.515V385.047C157.539 385.302 157.283 385.813 157.283 386.324C157.283 387.09 158.049 387.856 158.815 387.856C159.581 387.856 160.347 387.09 160.347 386.324C159.837 385.813 159.581 385.302 159.326 385.047Z" fill="#E4BFA2"/>
<path d="M19.6603 455.52C19.6603 456.286 20.4263 457.052 21.1923 457.052C21.7029 457.052 22.2136 456.797 22.4689 456.541H75.8329V468.031C73.5349 468.542 72.003 470.329 72.003 472.883C72.003 475.692 74.3009 477.734 76.8542 477.734C79.4075 477.734 81.7055 475.436 81.7055 472.883C81.7055 470.585 79.9182 468.542 77.8755 468.031V454.754H22.4689C22.2136 454.499 21.7029 454.243 21.1923 454.243C20.4263 453.988 19.6603 454.754 19.6603 455.52ZM76.8542 474.415C77.6202 474.415 78.3862 473.649 78.3862 472.883C78.3862 472.372 78.1309 471.861 77.6202 471.606V470.074C78.6415 470.585 79.6628 471.606 79.6628 472.883C79.6628 474.415 78.3862 475.692 76.8542 475.692C75.3222 475.692 74.0456 474.415 74.0456 472.883C74.0456 471.606 74.8116 470.585 76.0882 470.074V471.606C75.5776 471.861 75.3222 472.372 75.3222 472.883C75.3222 473.649 76.0882 474.415 76.8542 474.415Z" fill="#E4BFA2"/>
<path d="M494.829 292.105V290.828L494.319 290.317L478.744 274.742H399.847L395.251 279.338C394.485 278.827 393.463 278.572 392.442 278.572C390.144 278.572 388.101 280.359 387.591 282.402H370.228C369.973 282.147 369.462 281.891 368.952 281.891H368.696L361.547 274.742H244.351L233.116 269.124C233.116 268.614 233.372 268.358 233.372 267.848C233.372 265.039 231.074 262.996 228.52 262.996C225.712 262.996 223.669 265.294 223.669 267.848C223.669 270.656 225.967 272.699 228.52 272.699C230.052 272.699 231.584 271.933 232.35 270.912L243.84 276.785H360.781L367.42 283.423C367.42 283.423 367.42 283.423 367.42 283.679C367.42 284.445 368.186 285.211 368.952 285.211C369.462 285.211 369.973 284.955 370.228 284.7H387.591C388.101 286.998 389.889 288.53 392.442 288.53C395.251 288.53 397.293 286.232 397.293 283.679C397.293 282.657 397.038 281.636 396.527 280.87L400.613 276.785H444.785L439.423 282.147C438.657 281.636 437.891 281.381 436.869 281.381C434.061 281.381 432.018 283.679 432.018 286.232C432.018 289.041 434.316 291.083 436.869 291.083C439.678 291.083 441.721 288.785 441.721 286.232C441.721 285.211 441.465 284.189 440.699 283.423L447.338 276.785H468.02L462.658 282.147C461.892 281.636 461.126 281.381 460.104 281.381C457.296 281.381 455.253 283.679 455.253 286.232C455.253 289.041 457.551 291.083 460.104 291.083C462.913 291.083 464.956 288.785 464.956 286.232C464.956 285.211 464.7 284.189 464.19 283.423L471.084 276.529H477.978L484.871 283.423L473.382 294.913C472.616 294.403 471.85 294.147 470.828 294.147C468.02 294.147 465.977 296.445 465.977 298.999C465.977 301.807 468.275 303.85 470.828 303.85C473.637 303.85 475.68 301.552 475.68 298.999C475.68 297.977 475.424 296.956 474.658 296.19L485.893 284.955L492.787 291.849V329.384H439.933C439.423 327.086 437.635 325.554 435.082 325.554C432.273 325.554 430.231 327.852 430.231 330.405C430.231 332.958 432.529 335.257 435.082 335.257C437.38 335.257 439.423 333.469 439.933 331.426H494.574L494.829 292.105ZM228.52 270.656C226.988 270.656 225.712 269.38 225.712 267.848C225.712 266.316 226.988 265.039 228.52 265.039C230.052 265.039 231.329 266.316 231.329 267.848C231.329 269.38 230.052 270.656 228.52 270.656ZM392.442 280.359C392.953 280.359 393.208 280.359 393.719 280.615L392.697 281.636C392.697 281.636 392.697 281.636 392.442 281.636C391.931 281.636 391.421 281.891 391.165 282.147H389.633C390.144 281.381 391.165 280.359 392.442 280.359ZM392.442 286.232C391.165 286.232 390.144 285.466 389.633 284.189H391.165C391.421 284.445 391.931 284.7 392.442 284.7C393.208 284.7 393.974 283.934 393.974 283.168C393.974 283.168 393.974 283.168 393.974 282.913L394.995 281.891C395.251 282.147 395.251 282.657 395.251 283.168C395.506 284.955 393.974 286.232 392.442 286.232ZM436.869 289.041C435.337 289.041 434.061 287.764 434.061 286.232C434.061 284.7 435.337 283.423 436.869 283.423C438.401 283.423 439.678 284.7 439.678 286.232C439.678 287.764 438.401 289.041 436.869 289.041ZM460.104 289.041C458.572 289.041 457.296 287.764 457.296 286.232C457.296 284.7 458.572 283.423 460.104 283.423C461.636 283.423 462.913 284.7 462.913 286.232C463.168 287.764 461.636 289.041 460.104 289.041ZM470.828 302.063C469.296 302.063 468.02 300.786 468.02 299.254C468.02 297.722 469.296 296.445 470.828 296.445C471.084 296.445 471.594 296.445 471.85 296.701L470.573 297.977C469.807 297.977 469.296 298.743 469.296 299.509C469.296 300.275 470.062 301.041 470.828 301.041C471.594 301.041 472.36 300.275 472.36 299.509C472.36 299.254 472.36 299.254 472.36 298.999L473.382 297.977C473.637 298.488 473.892 298.999 473.892 299.509C473.892 300.531 472.616 302.063 470.828 302.063ZM435.337 333.214C433.805 333.214 432.529 331.937 432.529 330.405C432.529 328.873 433.805 327.596 435.337 327.596C436.869 327.596 438.146 328.873 438.146 330.405C438.401 331.937 437.125 333.214 435.337 333.214Z" fill="#E4BFA2"/>
<path d="M197.115 389.388C196.349 389.643 195.838 390.154 195.838 390.92H187.923C187.412 390.154 186.902 389.898 186.136 389.898C184.859 389.898 183.838 390.92 183.838 392.196C183.838 393.218 184.348 393.984 185.114 394.239V458.584L200.689 474.159V520.12L192.774 528.035V552.037V615.36H178.986V591.103L187.157 582.933V521.141L194.817 513.481V481.053L189.966 476.202C190.476 475.436 190.732 474.67 190.732 473.649C190.732 470.84 188.434 468.797 185.88 468.797C183.327 468.797 181.029 471.095 181.029 473.649C181.029 476.457 183.327 478.5 185.88 478.5C186.902 478.5 187.923 478.245 188.689 477.734L192.774 481.819V512.715L185.114 520.375V582.167L176.944 590.337V615.36V616.382V617.403H194.562V616.382V615.36V553.824L208.094 567.357V588.039C207.583 588.295 207.328 588.805 207.328 589.316C207.328 590.082 208.094 590.848 208.86 590.848C209.626 590.848 210.392 590.082 210.392 589.316C210.392 588.805 210.137 588.295 209.881 588.039V566.336L194.306 550.76V528.546L202.221 520.631V472.883L186.646 457.307V393.728C187.157 393.473 187.412 393.218 187.668 392.707H195.838C196.349 393.218 196.859 393.473 197.625 393.473C198.902 393.473 199.923 392.452 199.923 391.175C199.923 390.409 199.413 389.643 198.902 389.388C199.157 372.536 206.562 356.705 219.584 345.981L221.626 344.449V290.062H213.967C213.711 289.807 213.201 289.551 212.69 289.551C211.924 289.551 211.158 290.317 211.158 291.083C211.158 291.849 211.924 292.615 212.69 292.615C213.201 292.615 213.711 292.36 213.967 292.105H219.584V343.427C205.541 354.917 197.37 371.514 197.115 389.388ZM188.434 474.67L187.412 473.649C187.412 472.883 186.646 472.117 185.88 472.117C185.114 472.117 184.348 472.883 184.348 473.649C184.348 474.415 185.114 475.181 185.88 475.181H186.136L187.157 476.202C186.646 476.457 186.391 476.457 185.88 476.457C184.348 476.457 183.072 475.181 183.072 473.649C183.072 472.117 184.348 470.84 185.88 470.84C187.412 470.84 188.689 472.117 188.689 473.649C188.689 473.904 188.689 474.415 188.434 474.67Z" fill="#E4BFA2"/>
<path d="M298.736 339.853C298.225 339.853 297.715 340.108 297.459 340.363H258.649V346.747C256.862 347.002 255.585 348.534 255.075 350.322C233.627 351.088 216.52 368.706 216.52 390.409C216.52 407.006 226.988 421.816 242.564 427.688L236.946 508.885H276.778L271.16 427.688C286.736 421.816 296.949 406.751 296.949 390.409C296.949 380.196 293.119 370.493 286.225 363.088C286.48 362.322 286.736 361.812 286.736 361.046C286.736 358.492 284.693 356.45 282.14 356.45C279.586 356.45 277.544 358.492 277.544 361.046C277.544 363.599 279.586 365.642 282.14 365.642C283.161 365.642 283.927 365.386 284.693 364.876C291.076 371.77 294.651 380.962 294.651 390.665C294.651 406.751 284.438 421.05 269.373 426.412L268.607 426.667L274.224 507.353H238.478L244.096 426.667L243.33 426.412C228.265 421.05 218.052 406.496 218.052 390.665C218.052 370.238 234.393 353.386 254.819 352.62C255.33 354.662 257.117 356.194 259.16 356.194C261.713 356.194 263.756 354.152 263.756 351.598C263.756 349.556 262.224 347.768 260.181 347.258V342.917H296.949C297.204 343.172 297.715 343.427 298.225 343.427C298.225 343.427 298.225 343.427 298.481 343.427L305.63 355.173H344.696V361.301L326.567 367.429C325.801 365.897 324.269 364.876 322.482 364.876C319.673 364.876 317.631 367.174 317.631 369.727C317.631 372.536 319.929 374.579 322.482 374.579C325.29 374.579 327.333 372.28 327.333 369.727C327.333 369.472 327.333 369.216 327.333 369.216L346.993 362.578V354.918H356.951C357.462 357.216 359.505 358.748 361.803 358.748C364.611 358.748 366.654 356.45 366.654 353.896C366.654 351.088 364.356 349.045 361.803 349.045C359.505 349.045 357.462 350.832 356.951 352.875H307.417L300.779 341.64C300.779 341.64 300.779 341.64 300.779 341.385C300.268 340.363 299.757 339.853 298.736 339.853ZM279.842 360.79C279.842 359.258 281.118 358.237 282.395 358.237C283.927 358.237 284.948 359.514 284.948 360.79C284.948 361.046 284.948 361.301 284.948 361.301C284.693 361.046 284.438 360.79 283.927 360.535C283.927 359.769 283.161 359.258 282.395 359.258C281.629 359.258 280.863 360.024 280.863 360.79C280.863 361.556 281.629 362.322 282.395 362.322C282.65 362.322 282.65 362.322 282.906 362.322C283.161 362.578 283.416 362.833 283.672 363.088C283.416 363.344 282.906 363.344 282.395 363.344C280.863 363.344 279.842 362.322 279.842 360.79ZM258.649 348.79V349.811C258.394 349.811 258.394 350.066 258.394 350.066C258.139 350.066 257.628 350.066 257.373 350.066C257.628 349.556 258.139 349.045 258.649 348.79ZM262.224 351.088C262.224 352.62 260.947 353.641 259.671 353.641C258.649 353.641 257.628 352.875 257.373 352.109C257.883 352.109 258.139 352.109 258.649 352.109C258.905 352.364 259.415 352.62 259.926 352.62C260.692 352.62 261.458 351.854 261.458 351.088C261.458 350.577 261.203 350.322 260.947 349.811V348.534C261.713 349.3 262.224 350.066 262.224 351.088ZM322.226 372.28C320.695 372.28 319.418 371.004 319.418 369.472C319.418 367.94 320.695 366.663 322.226 366.663C323.248 366.663 324.014 367.174 324.524 367.684L322.992 368.195C322.737 367.94 322.482 367.94 322.226 367.94C321.46 367.94 320.695 368.706 320.695 369.472C320.695 370.238 321.46 371.004 322.226 371.004C322.992 371.004 323.503 370.493 323.758 369.982L325.29 369.472C325.035 371.004 323.758 372.28 322.226 372.28ZM361.292 350.832C362.824 350.832 364.101 352.109 364.101 353.641C364.101 355.173 362.824 356.45 361.292 356.45C359.76 356.45 358.483 355.173 358.483 353.641C358.228 352.109 359.505 350.832 361.292 350.832Z" fill="#E4BFA2"/>
<path d="M72.5136 360.535H30.8949V362.577H72.769C73.0243 362.833 73.535 363.088 74.0456 363.088C74.8116 363.088 75.5776 362.322 75.5776 361.556C75.5776 360.79 74.8116 360.024 74.0456 360.024C73.2796 359.769 73.0243 360.024 72.5136 360.535Z" fill="#E4BFA2"/>
<path d="M89.1102 355.173C89.8762 355.173 90.6421 354.407 90.6421 353.641C90.6421 352.875 89.8762 352.109 89.1102 352.109C88.5995 352.109 88.0888 352.364 87.8335 352.619H22.9797V354.662H87.8335C88.0888 354.917 88.5995 355.173 89.1102 355.173Z" fill="#E4BFA2"/>
<path d="M127.92 392.963L134.814 385.813H142.474L150.9 377.387V305.638H50.5552C50.2999 305.382 49.7893 305.127 49.2786 305.127C48.5126 305.127 47.7466 305.893 47.7466 306.659C47.7466 307.425 48.5126 308.191 49.2786 308.191C49.7893 308.191 50.2999 307.936 50.5552 307.68H149.113V351.087L143.24 345.215V335.257C145.538 334.746 147.07 332.959 147.07 330.405C147.07 327.597 144.772 325.554 142.219 325.554C139.665 325.554 137.367 327.852 137.367 330.405C137.367 332.703 139.155 334.746 141.197 335.257V346.236L149.113 354.152V376.876L141.963 384.281H103.664L94.472 393.473V501.225L17.873 500.715L10.4684 503.013C10.4684 503.013 10.4684 503.013 10.2131 502.757V486.16H62.5558C62.8111 486.926 63.5771 487.692 64.5984 487.692C65.875 487.692 66.8964 486.671 66.8964 485.394C66.8964 484.118 65.875 483.096 64.5984 483.096C63.8324 483.096 63.0664 483.607 62.8111 484.118H8.17048V502.757C7.40449 503.013 6.89383 503.779 6.89383 504.8C6.89383 506.077 7.91515 507.098 9.1918 507.098C10.4684 507.098 11.2344 506.077 11.4898 505.055L18.1283 502.757L96.2593 503.013V394.239L104.175 386.069H132.006L126.899 391.175H102.387V406.495C102.132 406.751 101.877 407.261 101.877 407.772C101.877 408.538 102.643 409.304 103.409 409.304C104.175 409.304 104.941 408.538 104.941 407.772C104.941 407.261 104.685 406.751 104.43 406.495V393.218H127.92V392.963ZM141.197 333.469C140.176 332.959 139.155 331.937 139.155 330.661C139.155 329.129 140.431 327.852 141.963 327.852C143.495 327.852 144.772 329.129 144.772 330.661C144.772 331.937 144.006 332.959 142.729 333.469V330.405H140.687V333.469H141.197Z" fill="#E4BFA2"/>
<path d="M400.613 290.317H323.248C322.737 288.019 320.95 286.487 318.396 286.487C315.588 286.487 313.545 288.785 313.545 291.339C313.545 294.147 315.843 296.19 318.396 296.19C320.694 296.19 322.737 294.403 323.248 292.36H400.102L414.911 299.765V328.107L400.613 313.808H361.547L345.972 298.233H330.908C330.397 295.935 328.61 294.403 326.056 294.403C323.248 294.403 321.205 296.701 321.205 299.254C321.205 302.063 323.503 304.106 326.056 304.106C328.354 304.106 330.397 302.318 330.908 300.275H345.206L360.781 315.851H399.847L414.911 330.916V343.683L412.103 340.874C412.613 340.108 412.869 339.087 412.869 338.065C412.869 335.257 410.571 333.214 408.017 333.214C405.209 333.214 403.166 335.512 403.166 338.065C403.166 340.619 405.464 342.917 408.017 342.917C409.039 342.917 410.06 342.661 410.826 342.151L414.911 346.236V354.151L423.337 362.577H455.253L463.169 354.662H484.872C485.382 355.428 485.893 355.683 486.659 355.683C487.936 355.683 488.957 354.662 488.957 353.385C488.957 352.109 487.936 351.087 486.659 351.087C485.638 351.087 484.872 351.598 484.616 352.364H462.147L454.232 360.279H423.848L416.699 353.13V298.233L400.613 290.317ZM318.396 294.147C316.865 294.147 315.588 292.871 315.588 291.339C315.588 289.807 316.865 288.53 318.396 288.53C319.928 288.53 321.205 289.807 321.205 291.339C321.205 292.871 319.928 294.147 318.396 294.147ZM326.056 302.063C324.524 302.063 323.248 300.786 323.248 299.254C323.248 297.722 324.524 296.445 326.056 296.445C327.588 296.445 328.865 297.722 328.865 299.254C329.12 300.531 327.844 302.063 326.056 302.063ZM410.826 339.342L409.805 338.321C409.805 338.321 409.805 338.321 409.805 338.065C409.805 337.299 409.039 336.533 408.273 336.533C407.507 336.533 406.741 337.299 406.741 338.065C406.741 338.831 407.507 339.597 408.273 339.597C408.273 339.597 408.273 339.597 408.528 339.597L409.549 340.619C409.294 340.874 408.783 340.874 408.273 340.874C406.741 340.874 405.464 339.597 405.464 338.065C405.464 336.533 406.741 335.257 408.273 335.257C409.805 335.257 411.081 336.533 411.081 338.065C411.081 338.576 410.826 338.831 410.826 339.342Z" fill="#E4BFA2"/>
<path d="M163.667 549.994L175.922 537.738C176.688 538.249 177.71 538.504 178.731 538.504C181.54 538.504 183.582 536.206 183.582 533.653C183.582 530.844 181.284 528.801 178.731 528.801C175.922 528.801 173.88 531.099 173.88 533.653C173.88 534.674 174.135 535.44 174.646 536.461L163.667 547.441V526.759L171.326 519.099V494.842L178.22 487.948C178.22 487.948 178.22 487.948 178.476 487.948C179.242 487.948 180.008 487.182 180.008 486.416C180.008 485.65 179.242 484.884 178.476 484.884C177.71 484.884 176.944 485.65 176.944 486.416C176.944 486.416 176.944 486.416 176.944 486.671L171.326 492.288V477.223C173.624 476.713 175.156 474.925 175.156 472.372C175.156 469.563 172.858 467.521 170.305 467.521C167.496 467.521 165.454 469.819 165.454 472.372C165.454 474.67 167.241 476.713 169.284 477.223V518.333L161.624 525.993V565.059L155.751 571.953L148.857 565.059V526.759L164.177 511.439V491.012C166.22 490.501 167.752 488.458 167.752 486.416C167.752 483.607 165.454 481.564 162.901 481.564C160.092 481.564 158.049 483.862 158.049 486.416C158.049 488.969 159.837 490.756 162.135 491.267V510.928L148.857 524.205V478.5H140.687V472.883H156.262V463.435H132.772V457.818H163.667V447.86H124.09V441.732H171.837V432.284H132.772V425.39H163.922V416.198H139.41V410.07H156.007V400.623H153.198H150.9C150.389 398.58 148.602 397.048 146.559 397.048C144.006 397.048 141.963 399.091 141.963 401.644C141.963 404.197 144.006 406.24 146.559 406.24C148.602 406.24 150.389 404.708 150.9 402.921H154.475V408.538H137.878V418.496H162.39V423.858H130.729V434.582H169.794V440.2H122.048V449.902H161.624V456.031H130.729V465.478H154.219V471.095H138.644V480.543H146.815V508.885L141.453 503.523C141.453 503.523 141.453 503.523 141.453 503.268C141.453 502.502 140.687 501.736 139.921 501.736C139.155 501.736 138.389 502.502 138.389 503.268C138.389 504.034 139.155 504.8 139.921 504.8C139.921 504.8 139.921 504.8 140.176 504.8L147.07 511.694V566.08L162.135 581.145V594.423L149.623 581.911C149.623 581.656 149.879 581.401 149.879 581.145C149.879 580.379 149.113 579.613 148.347 579.613C147.581 579.613 146.815 580.379 146.815 581.145C146.815 581.911 147.325 582.422 147.836 582.677L162.39 597.231V610.254L140.942 589.061V543.1L132.516 534.674V519.099V501.48C134.814 500.97 136.346 499.182 136.346 496.629C136.346 493.82 134.048 491.778 131.495 491.778C128.686 491.778 126.644 494.076 126.644 496.629C126.644 498.927 128.431 500.97 130.474 501.48V517.311L125.112 511.949C125.112 511.949 125.112 511.949 125.112 511.694C125.112 510.928 124.346 510.162 123.58 510.162C122.814 510.162 122.048 510.928 122.048 511.694C122.048 512.46 122.814 513.226 123.58 513.226C123.58 513.226 123.58 513.226 123.835 513.226L130.729 520.12V535.695L139.155 544.122V571.698L125.367 557.91C125.367 557.91 125.367 557.91 125.367 557.654C125.367 556.888 124.601 556.122 123.835 556.122C123.069 556.122 122.303 556.888 122.303 557.654C122.303 558.42 123.069 559.186 123.835 559.186C123.835 559.186 123.835 559.186 124.09 559.186L139.155 574.251V590.082L154.73 605.402L148.602 611.275L117.707 580.89V418.241L132.006 404.197C132.261 404.197 132.261 404.197 132.516 404.197C133.793 404.197 134.814 403.176 134.814 401.899C134.814 400.623 133.793 399.601 132.516 399.601C131.24 399.601 130.218 400.623 130.218 401.899C130.218 402.155 130.218 402.665 130.474 402.921L115.92 417.475V581.656L148.857 614.084L156.517 606.934L162.901 613.318V622.765C162.135 623.02 161.624 623.786 161.624 624.808C161.624 626.084 162.645 627.106 163.922 627.106C165.198 627.106 166.22 626.084 166.22 624.808C166.22 624.042 165.709 623.276 164.943 622.765V596.721V580.89L158.305 574.251L164.943 566.591V549.994H163.667ZM178.731 530.844C180.263 530.844 181.54 532.121 181.54 533.653C181.54 535.185 180.263 536.461 178.731 536.461C178.22 536.461 177.965 536.461 177.454 536.206L178.476 535.185C178.476 535.185 178.476 535.185 178.731 535.185C179.497 535.185 180.263 534.419 180.263 533.653C180.263 532.887 179.497 532.121 178.731 532.121C177.965 532.121 177.199 532.887 177.199 533.653C177.199 533.653 177.199 533.653 177.199 533.908L176.178 534.929C175.922 534.674 175.922 534.163 175.922 533.653C175.667 532.121 176.944 530.844 178.731 530.844ZM167.496 472.117C167.496 470.585 168.773 469.308 170.305 469.308C171.837 469.308 173.114 470.585 173.114 472.117C173.114 473.393 172.348 474.415 171.071 474.925V473.393C171.326 473.138 171.582 472.627 171.582 472.117C171.582 471.351 170.816 470.585 170.05 470.585C169.284 470.585 168.518 471.351 168.518 472.117C168.518 472.627 168.773 473.138 169.028 473.393V474.925C168.262 474.415 167.496 473.393 167.496 472.117ZM159.837 486.16C159.837 484.628 161.113 483.352 162.645 483.352C164.177 483.352 165.454 484.628 165.454 486.16C165.454 487.437 164.688 488.458 163.667 488.714V486.926C163.922 486.671 163.922 486.416 163.922 485.905C163.922 485.139 163.156 484.373 162.39 484.373C161.624 484.373 160.858 485.139 160.858 485.905C160.858 486.416 161.113 486.926 161.624 487.182V488.714C160.603 488.714 159.837 487.692 159.837 486.16ZM146.304 403.687C144.772 403.687 143.751 402.665 143.751 401.133C143.751 399.601 145.027 398.58 146.304 398.58C147.325 398.58 148.347 399.346 148.602 400.367H148.091H147.581C147.325 399.857 146.815 399.601 146.304 399.601C145.538 399.601 144.772 400.367 144.772 401.133C144.772 401.899 145.538 402.665 146.304 402.665C146.815 402.665 147.07 402.41 147.325 402.155H148.602C148.347 403.176 147.325 403.687 146.304 403.687ZM129.708 497.14V498.672C128.686 498.161 127.665 497.14 127.665 495.863C127.665 494.331 128.942 493.054 130.474 493.054C132.006 493.054 133.282 494.331 133.282 495.863C133.282 497.14 132.516 498.161 131.24 498.672V497.14C131.495 496.884 131.75 496.374 131.75 495.863C131.75 495.097 130.984 494.331 130.218 494.331C129.452 494.331 128.686 495.097 128.686 495.863C129.197 496.374 129.452 496.884 129.708 497.14Z" fill="#E4BFA2"/>
<path d="M16.0858 395.005C13.7878 395.516 12.2558 397.303 12.2558 399.857C12.2558 402.665 14.5538 404.708 17.1071 404.708C19.9157 404.708 21.9584 402.41 21.9584 399.857C21.9584 397.559 20.1711 395.516 18.1284 395.005V384.536H31.9162V386.834C29.6183 387.345 28.0863 389.133 28.0863 391.686C28.0863 394.495 30.3843 396.537 32.9376 396.537C35.7462 396.537 37.7888 394.239 37.7888 391.686C37.7888 389.388 36.0015 387.345 33.9589 386.834V384.536H47.4914V393.984C45.1934 394.495 43.6614 396.282 43.6614 398.835C43.6614 401.644 45.9594 403.687 48.5127 403.687C51.3213 403.687 53.364 401.389 53.364 398.835C53.364 396.537 51.5766 394.495 49.534 393.984V384.536H63.3218V386.834C61.0239 387.345 59.4919 389.133 59.4919 391.686C59.4919 394.495 61.7898 396.537 64.3431 396.537C67.1518 396.537 69.1944 394.239 69.1944 391.686C69.1944 389.388 67.4071 387.345 65.3645 386.834V384.536H71.2371C71.4924 384.792 72.003 385.047 72.5137 385.047C73.2797 385.047 74.0457 384.281 74.0457 383.515C74.0457 382.749 73.2797 381.983 72.5137 381.983C72.003 381.983 71.4924 382.238 71.2371 382.494H17.6178L3.06396 368.706L13.5325 357.981L24.767 369.727H82.9822C83.4929 372.025 85.5355 373.557 87.8335 373.557C90.6421 373.557 92.6848 371.259 92.6848 368.706C92.6848 365.897 90.3868 363.854 87.8335 363.854C85.5355 363.854 83.4929 365.642 82.9822 367.684H25.2777L6.63858 348.279C6.89391 348.023 7.14924 347.513 7.14924 347.002C7.14924 345.725 6.12792 344.704 4.85127 344.704V338.576H38.2995C38.5548 340.874 40.5975 342.917 43.1508 342.917C45.9594 342.917 48.002 340.619 48.002 338.065C48.002 335.257 45.7041 333.214 43.1508 333.214C40.8528 333.214 39.0655 334.746 38.5548 336.789H2.80863V338.065V345.981C2.5533 346.491 2.5533 347.002 2.5533 347.257C2.5533 348.534 3.57462 349.555 4.85127 349.555L11.7452 356.705L0 368.961L16.0858 384.026V395.005ZM65.1091 388.877C66.1305 389.388 67.1518 390.409 67.1518 391.686C67.1518 393.218 65.8751 394.495 64.3431 394.495C62.8112 394.495 61.5345 393.218 61.5345 391.686C61.5345 390.409 62.3005 389.388 63.5772 388.877V391.431H65.6198V388.877H65.1091ZM49.2787 396.282C50.3 396.793 51.3213 397.814 51.3213 399.091C51.3213 400.623 50.0447 401.899 48.5127 401.899C46.9807 401.899 45.7041 400.623 45.7041 399.091C45.7041 397.814 46.4701 396.793 47.7467 396.282V399.346H49.7893V396.282H49.2787ZM33.7036 388.877C34.7249 389.388 35.7462 390.409 35.7462 391.686C35.7462 393.218 34.4695 394.495 32.9376 394.495C31.4056 394.495 30.1289 393.218 30.1289 391.686C30.1289 390.409 30.8949 389.388 32.1716 388.877V391.431H34.2142V388.877H33.7036ZM87.3228 365.897C88.8548 365.897 90.1315 367.174 90.1315 368.706C90.1315 370.238 88.8548 371.514 87.3228 371.514C86.0462 371.514 85.0249 370.748 84.5142 369.727H88.3442V367.684H84.5142C85.0249 366.918 86.0462 365.897 87.3228 365.897ZM40.3421 337.044C40.8528 336.023 41.8741 335.512 42.8954 335.512C44.4274 335.512 45.7041 336.789 45.7041 338.321C45.7041 339.853 44.4274 341.129 42.8954 341.129C41.3634 341.129 40.3421 340.108 40.0868 338.831H42.8954V337.044H40.3421ZM17.8731 399.091V397.048C18.8944 397.559 19.9157 398.58 19.9157 399.857C19.9157 401.389 18.6391 402.665 17.1071 402.665C15.5751 402.665 14.2985 401.389 14.2985 399.857C14.2985 398.58 15.0645 397.559 16.3411 397.048V399.091H17.8731Z" fill="#E4BFA2"/>
<path d="M209.371 606.679C208.605 606.679 207.839 607.445 207.839 608.211C207.839 608.722 208.094 609.232 208.349 609.488V628.383H29.1075C20.937 628.383 15.8304 624.808 13.0218 620.723C13.2771 620.467 13.2771 620.212 13.5324 619.957H104.941V598.508H13.0218L26.0436 589.316H36.2568C36.7674 591.614 38.5548 593.146 41.1081 593.146C43.9167 593.146 45.9593 590.848 45.9593 588.295C45.9593 585.486 43.6614 583.444 41.1081 583.444C38.8101 583.444 36.7674 585.231 36.2568 587.274H25.5329L9.95779 598.508H5.61718C5.36185 598.253 5.10652 597.998 4.85119 597.998V581.656C5.36185 581.401 5.61718 581.145 5.87251 580.635H102.898C103.153 580.89 103.664 581.146 104.175 581.146C104.941 581.146 105.707 580.38 105.707 579.613C105.707 578.847 104.941 578.081 104.175 578.081C103.664 578.081 103.153 578.337 102.898 578.847H6.12784C5.87251 578.081 5.10652 577.571 4.0852 577.571C2.80855 577.571 1.78723 578.592 1.78723 579.869C1.78723 580.635 2.29789 581.401 3.06388 581.912V598.508C2.29789 598.764 1.78723 599.53 1.78723 600.551C1.78723 601.828 2.80855 602.849 4.0852 602.849C5.10652 602.849 5.87251 602.083 6.12784 601.062H103.409V618.68H13.2771C12.7664 618.169 12.2558 617.914 11.4898 617.914C10.2131 617.914 9.1918 618.935 9.1918 620.212C9.1918 621.489 10.2131 622.255 11.2344 622.51C14.0431 627.106 19.9157 631.191 29.1075 631.191H210.392V610.254C210.647 609.998 210.902 609.488 210.902 608.977C210.902 607.445 210.392 606.679 209.371 606.679ZM41.1081 586.763C40.5974 586.763 40.0867 587.018 39.8314 587.274H38.2994C38.8101 586.252 39.8314 585.231 41.1081 585.231C42.64 585.231 43.9167 586.508 43.9167 588.04C43.9167 589.572 42.64 590.848 41.1081 590.848C39.8314 590.848 38.8101 590.082 38.2994 588.806H39.8314C40.0867 589.061 40.5974 589.316 41.1081 589.316C41.874 589.316 42.64 588.55 42.64 587.784C42.64 587.529 42.1294 586.763 41.1081 586.763Z" fill="#E4BFA2"/>
<path d="M443.253 626.34C442.742 626.34 442.231 626.595 441.976 626.851H362.568L358.739 623.276L365.122 616.892H475.424V569.655C475.935 569.4 476.446 568.889 476.446 568.123C476.446 567.357 475.68 566.591 474.914 566.591C474.148 566.591 473.382 567.357 473.382 568.123C473.382 568.379 473.382 568.634 473.637 568.889V614.85H458.317V584.209C458.573 583.954 458.828 583.443 458.828 582.933C458.828 582.167 458.062 581.401 457.296 581.401C456.53 581.401 455.764 582.167 455.764 582.933C455.764 583.443 456.019 583.954 456.275 584.209V614.85H364.1L356.696 622.254H332.695V538.249H315.077L306.651 546.675V607.956H254.564V536.461C254.819 536.206 255.075 535.695 255.075 535.185C255.075 534.419 254.309 533.653 253.543 533.653C252.777 533.653 252.011 534.419 252.011 535.185C252.011 535.695 252.266 536.206 252.521 536.461V559.697L246.904 554.08V536.461C247.159 536.206 247.415 535.695 247.415 535.185C247.415 534.419 246.649 533.653 245.883 533.653C245.117 533.653 244.351 534.419 244.351 535.185C244.351 535.695 244.606 536.206 244.861 536.461V554.846L252.521 562.506V584.209L238.733 570.421V536.717C238.989 536.461 239.244 535.951 239.244 535.44C239.244 534.674 238.478 533.908 237.712 533.908C236.946 533.908 236.18 534.674 236.18 535.44C236.18 535.951 236.435 536.461 236.691 536.717V571.187L252.521 587.018V609.998H309.205V547.441L316.354 540.292H331.163V622.254H230.563V560.718L218.052 548.207V528.035H297.715L293.885 474.159H310.481L316.098 486.416V512.46C315.843 512.715 315.588 513.226 315.588 513.737C315.588 514.503 316.354 515.269 317.12 515.269C317.886 515.269 318.652 514.503 318.652 513.737C318.652 513.226 318.396 512.715 318.141 512.46V486.16L312.013 472.372H294.14L293.119 459.605H321.46L328.61 475.181V520.886C328.354 521.141 328.099 521.652 328.099 522.163C328.099 522.929 328.865 523.695 329.631 523.695C330.397 523.695 331.163 522.929 331.163 522.163C331.163 521.652 330.908 521.141 330.652 520.886V484.884L336.525 489.735V504.8C336.27 505.055 336.014 505.566 336.014 506.076C336.014 506.842 336.78 507.608 337.546 507.608C338.312 507.608 339.078 506.842 339.078 506.076C339.078 505.566 338.823 505.055 338.567 504.8V488.714L330.652 482.33V475.181L322.737 457.818H292.863L291.587 439.178H330.652V420.539C332.695 420.028 334.227 418.241 334.227 416.198C334.227 413.645 332.184 411.602 329.631 411.602C327.078 411.602 325.035 413.645 325.035 416.198C325.035 418.241 326.567 420.028 328.61 420.539V437.136H289.289L295.672 526.248H216.009V548.973L228.52 561.484V581.145L220.605 589.061V624.808C218.562 625.318 217.03 627.106 217.03 629.149C217.03 631.702 219.073 633.745 221.626 633.745C224.18 633.745 226.222 631.702 226.222 629.149C226.222 627.106 224.69 625.318 222.648 624.808V589.827L228.52 583.954V624.297H356.951L361.803 628.638H441.976C442.231 628.893 442.742 629.149 443.253 629.149C444.019 629.149 444.785 628.383 444.785 627.617C444.785 627.106 444.274 626.34 443.253 626.34ZM327.078 416.198C327.078 414.666 328.354 413.645 329.631 413.645C331.163 413.645 332.184 414.921 332.184 416.198C332.184 417.219 331.418 418.241 330.652 418.496V417.475C330.908 417.219 331.163 416.709 331.163 416.198C331.163 415.432 330.397 414.666 329.631 414.666C328.865 414.666 328.099 415.432 328.099 416.198C328.099 416.709 328.354 417.219 328.61 417.475V418.496C327.588 418.241 327.078 417.219 327.078 416.198ZM224.18 629.659C224.18 631.191 222.903 632.213 221.626 632.213C220.094 632.213 219.073 630.936 219.073 629.659C219.073 628.638 219.839 627.617 220.605 627.361V628.638C220.35 628.893 220.094 629.404 220.094 629.915C220.094 630.681 220.86 631.447 221.626 631.447C222.392 631.447 223.158 630.681 223.158 629.915C223.158 629.404 222.903 628.893 222.648 628.638V627.361C223.669 627.617 224.18 628.383 224.18 629.659Z" fill="#E4BFA2"/>
<path d="M47.2361 444.03C48.0822 444.03 48.7681 443.344 48.7681 442.498C48.7681 441.652 48.0822 440.966 47.2361 440.966C46.39 440.966 45.7041 441.652 45.7041 442.498C45.7041 443.344 46.39 444.03 47.2361 444.03Z" fill="#E4BFA2"/>
<path d="M41.1081 442.498C41.1081 441.732 40.3422 440.966 39.5762 440.966C38.8102 440.966 38.0442 441.732 38.0442 442.498C38.0442 443.264 38.8102 444.03 39.5762 444.03C40.3422 444.03 41.1081 443.264 41.1081 442.498Z" fill="#E4BFA2"/>
<path d="M33.193 442.498C33.193 441.732 32.427 440.966 31.661 440.966C30.895 440.966 30.129 441.732 30.129 442.498C30.129 443.264 30.895 444.03 31.661 444.03C32.427 444.03 33.193 443.264 33.193 442.498Z" fill="#E4BFA2"/>
<path d="M23.7456 444.03C24.5116 444.03 25.2776 443.264 25.2776 442.498C25.2776 441.732 24.5116 440.966 23.7456 440.966C22.9796 440.966 22.2136 441.732 22.2136 442.498C22.2136 443.264 22.9796 444.03 23.7456 444.03Z" fill="#E4BFA2"/>
<path d="M16.3412 444.03C17.1873 444.03 17.8732 443.344 17.8732 442.498C17.8732 441.652 17.1873 440.966 16.3412 440.966C15.4951 440.966 14.8092 441.652 14.8092 442.498C14.8092 443.344 15.4951 444.03 16.3412 444.03Z" fill="#E4BFA2"/>
<path d="M369.973 196.354C369.973 197.12 370.739 197.886 371.505 197.886C372.271 197.886 373.037 197.12 373.037 196.354C373.037 195.843 372.782 195.588 372.526 195.077V87.3249L351.334 66.132C351.845 65.366 352.355 64.3447 352.355 63.3233C352.355 60.5146 350.057 58.4719 347.504 58.4719C344.695 58.4719 342.653 60.7699 342.653 63.3233C342.653 66.132 344.951 68.1747 347.504 68.1747C348.525 68.1747 349.291 67.9194 350.057 67.4087L370.739 88.0909V194.822C370.228 195.332 369.973 195.843 369.973 196.354ZM349.802 64.6L348.781 63.5786V63.3233C348.781 62.5573 348.015 61.7913 347.249 61.7913C346.483 61.7913 345.717 62.5573 345.717 63.3233C345.717 64.0893 346.483 64.8553 347.249 64.8553L348.27 65.8767C348.015 66.132 347.504 66.132 347.249 66.132C345.717 66.132 344.44 64.8553 344.44 63.3233C344.44 61.7913 345.717 60.5146 347.249 60.5146C348.781 60.5146 350.057 61.7913 350.057 63.3233C350.313 63.834 350.057 64.3447 349.802 64.6Z" fill="#E4BFA2"/>
<path d="M385.038 228.015C385.038 228.781 385.804 229.547 386.57 229.547C387.336 229.547 388.102 228.781 388.102 228.015C388.102 227.505 387.846 226.994 387.591 226.739V72.005L381.463 65.8769C381.974 65.1109 382.229 64.0895 382.229 63.0682C382.229 60.2595 379.931 58.2168 377.378 58.2168C374.569 58.2168 372.526 60.5148 372.526 63.0682C372.526 65.8769 374.824 67.9196 377.378 67.9196C378.399 67.9196 379.42 67.6642 380.186 67.1536L385.804 72.771V226.739C385.038 227.249 385.038 227.76 385.038 228.015ZM379.931 64.6002L378.91 63.5789C378.91 63.5789 378.91 63.5789 378.91 63.3235C378.91 62.5575 378.144 61.7915 377.378 61.7915C376.612 61.7915 375.846 62.5575 375.846 63.3235C375.846 64.0895 376.612 64.8555 377.378 64.8555C377.378 64.8555 377.378 64.8555 377.633 64.8555L378.654 65.8769C378.399 66.1322 377.888 66.1322 377.378 66.1322C375.846 66.1322 374.569 64.8555 374.569 63.3235C374.569 61.7915 375.846 60.5148 377.378 60.5148C378.91 60.5148 380.186 61.7915 380.186 63.3235C380.186 63.8342 380.186 64.0895 379.931 64.6002Z" fill="#E4BFA2"/>
<path d="M377.378 211.929C377.378 212.695 378.144 213.461 378.91 213.461C379.676 213.461 380.442 212.695 380.442 211.929C380.442 211.418 380.186 210.908 379.931 210.652V79.6648L366.398 66.132C366.909 65.366 367.164 64.3447 367.164 63.3233C367.164 60.5146 364.866 58.4719 362.313 58.4719C359.505 58.4719 357.462 60.7699 357.462 63.3233C357.462 66.132 359.76 68.1747 362.313 68.1747C363.334 68.1747 364.1 67.9194 365.122 67.4087L378.144 80.4308V210.652C377.633 210.908 377.378 211.418 377.378 211.929ZM364.866 64.6L363.845 63.5786C363.845 63.5786 363.845 63.5786 363.845 63.3233C363.845 62.5573 363.079 61.7913 362.313 61.7913C361.547 61.7913 360.781 62.5573 360.781 63.3233C360.781 64.0893 361.547 64.8553 362.313 64.8553C362.313 64.8553 362.313 64.8553 362.569 64.8553L363.59 65.8767C363.334 66.132 362.824 66.132 362.313 66.132C360.781 66.132 359.505 64.8553 359.505 63.3233C359.505 61.7913 360.781 60.5146 362.313 60.5146C363.845 60.5146 365.122 61.7913 365.122 63.3233C365.122 63.834 364.866 64.0893 364.866 64.6Z" fill="#E4BFA2"/>
<path d="M198.136 437.646C197.37 437.646 196.604 438.412 196.604 439.178C196.604 439.944 197.37 440.71 198.136 440.71C198.902 440.71 199.668 439.944 199.668 439.178C199.923 438.412 199.157 437.646 198.136 437.646Z" fill="#E4BFA2"/>
<path d="M198.136 445.306C197.37 445.306 196.604 446.072 196.604 446.838C196.604 447.604 197.37 448.37 198.136 448.37C198.902 448.37 199.668 447.604 199.668 446.838C199.923 446.072 199.157 445.306 198.136 445.306Z" fill="#E4BFA2"/>
<path d="M198.136 453.222C197.37 453.222 196.604 453.988 196.604 454.754C196.604 455.52 197.37 456.286 198.136 456.286C198.902 456.286 199.668 455.52 199.668 454.754C199.923 453.988 199.157 453.222 198.136 453.222Z" fill="#E4BFA2"/>
<path d="M198.136 429.731C197.37 429.731 196.604 430.497 196.604 431.263C196.604 432.029 197.37 432.795 198.136 432.795C198.902 432.795 199.668 432.029 199.668 431.263C199.923 430.497 199.157 429.731 198.136 429.731Z" fill="#E4BFA2"/>
<path d="M198.136 422.071C197.37 422.071 196.604 422.837 196.604 423.603C196.604 424.369 197.37 425.135 198.136 425.135C198.902 425.135 199.668 424.369 199.668 423.603C199.923 422.582 199.157 422.071 198.136 422.071Z" fill="#E4BFA2"/>
<path d="M198.136 414.155C197.37 414.155 196.604 414.921 196.604 415.687C196.604 416.453 197.37 417.219 198.136 417.219C198.902 417.219 199.668 416.453 199.668 415.687C199.923 414.921 199.157 414.155 198.136 414.155Z" fill="#E4BFA2"/>
<path d="M198.136 406.751C197.37 406.751 196.604 407.517 196.604 408.283C196.604 409.049 197.37 409.815 198.136 409.815C198.902 409.815 199.668 409.049 199.668 408.283C199.923 407.517 199.157 406.751 198.136 406.751Z" fill="#E4BFA2"/>
<path d="M101.877 268.869C102.132 269.124 102.643 269.38 103.153 269.38C103.919 269.38 104.685 268.614 104.685 267.848C104.685 267.082 103.919 266.316 103.153 266.316C102.643 266.316 102.132 266.571 101.877 266.826H34.725V249.974C35.4909 249.719 36.0016 248.953 36.0016 247.931C36.0016 246.655 34.9803 245.633 33.7036 245.633C32.427 245.633 31.4057 246.655 31.4057 247.931C31.4057 248.697 31.9163 249.463 32.6823 249.974V268.869H101.877Z" fill="#E4BFA2"/>
<path d="M94.7274 219.334C93.9614 219.334 93.1954 220.1 93.1954 220.866C93.1954 221.632 93.9614 222.398 94.7274 222.398C95.4934 222.398 96.2594 221.632 96.2594 220.866C96.5147 220.1 95.7487 219.334 94.7274 219.334Z" fill="#E4BFA2"/>
<path d="M94.7274 227.249C93.9614 227.249 93.1954 228.015 93.1954 228.781C93.1954 229.547 93.9614 230.313 94.7274 230.313C95.4934 230.313 96.2594 229.547 96.2594 228.781C96.5147 228.015 95.7487 227.249 94.7274 227.249Z" fill="#E4BFA2"/>
<path d="M94.7274 235.165C93.9614 235.165 93.1954 235.931 93.1954 236.697C93.1954 237.463 93.9614 238.229 94.7274 238.229C95.4934 238.229 96.2594 237.463 96.2594 236.697C96.5147 235.675 95.7487 235.165 94.7274 235.165Z" fill="#E4BFA2"/>
<path d="M94.7274 211.674C93.9614 211.674 93.1954 212.44 93.1954 213.206C93.1954 213.972 93.9614 214.738 94.7274 214.738C95.4934 214.738 96.2594 213.972 96.2594 213.206C96.5147 212.44 95.7487 211.674 94.7274 211.674Z" fill="#E4BFA2"/>
<path d="M94.7274 203.759C93.9614 203.759 93.1954 204.525 93.1954 205.291C93.1954 206.057 93.9614 206.823 94.7274 206.823C95.4934 206.823 96.2594 206.057 96.2594 205.291C96.5147 204.525 95.7487 203.759 94.7274 203.759Z" fill="#E4BFA2"/>
<path d="M94.7274 196.098C93.9614 196.098 93.1954 196.864 93.1954 197.63C93.1954 198.396 93.9614 199.162 94.7274 199.162C95.4934 199.162 96.2594 198.396 96.2594 197.63C96.5147 196.864 95.7487 196.098 94.7274 196.098Z" fill="#E4BFA2"/>
<path d="M94.7274 188.693C93.9614 188.693 93.1954 189.459 93.1954 190.225C93.1954 190.991 93.9614 191.757 94.7274 191.757C95.4934 191.757 96.2594 190.991 96.2594 190.225C96.5147 189.204 95.7487 188.693 94.7274 188.693Z" fill="#E4BFA2"/>
<path d="M413.124 172.352C413.89 172.352 414.656 171.586 414.656 170.82C414.656 170.054 413.89 169.288 413.124 169.288C412.358 169.288 411.592 170.054 411.592 170.82C411.592 171.586 412.358 172.352 413.124 172.352Z" fill="#E4BFA2"/>
<path d="M413.124 164.437C413.89 164.437 414.656 163.671 414.656 162.905C414.656 162.139 413.89 161.373 413.124 161.373C412.358 161.373 411.592 162.139 411.592 162.905C411.592 163.671 412.358 164.437 413.124 164.437Z" fill="#E4BFA2"/>
<path d="M413.124 156.521C413.89 156.521 414.656 155.755 414.656 154.989C414.656 154.223 413.89 153.457 413.124 153.457C412.358 153.457 411.592 154.223 411.592 154.989C411.592 156.011 412.358 156.521 413.124 156.521Z" fill="#E4BFA2"/>
<path d="M413.124 148.861C413.89 148.861 414.656 148.095 414.656 147.329C414.656 146.563 413.89 145.797 413.124 145.797C412.358 145.797 411.592 146.563 411.592 147.329C411.592 148.095 412.358 148.861 413.124 148.861Z" fill="#E4BFA2"/>
<path d="M413.124 141.456C413.89 141.456 414.656 140.69 414.656 139.924C414.656 139.158 413.89 138.392 413.124 138.392C412.358 138.392 411.592 139.158 411.592 139.924C411.592 140.69 412.358 141.456 413.124 141.456Z" fill="#E4BFA2"/>
<path d="M235.925 62.5572C235.159 62.5572 234.393 63.3232 234.393 64.0892C234.393 64.8552 235.159 65.6213 235.925 65.6213C236.436 65.6213 236.946 65.3659 237.202 65.1106H291.076L299.502 56.6845V24.0014H248.436C247.925 21.7034 246.138 20.1714 243.585 20.1714C240.776 20.1714 238.734 22.4694 238.734 25.0228C238.734 27.8315 241.032 29.8742 243.585 29.8742C245.883 29.8742 247.925 28.0868 248.436 26.0441H297.459V55.9185L290.31 63.0679H283.927L275.756 54.8971H263.756C263.245 52.5991 261.458 50.8117 258.905 50.8117C256.096 50.8117 254.053 53.1098 254.053 55.6631C254.053 58.4718 256.351 60.5145 258.905 60.5145C261.203 60.5145 263.245 58.9825 263.756 56.6845H274.99L281.118 62.8126H237.202C236.946 62.8126 236.436 62.5572 235.925 62.5572ZM243.84 26.5548C244.351 26.5548 244.862 26.2995 245.117 26.0441H246.649C246.138 27.0655 245.117 28.0868 243.84 28.0868C242.308 28.0868 241.032 26.8101 241.032 25.2781C241.032 23.7461 242.308 22.4694 243.84 22.4694C245.117 22.4694 246.138 23.2354 246.649 24.5121H245.117C244.862 24.2568 244.351 24.0014 243.84 24.0014C243.074 24.0014 242.308 24.7674 242.308 25.5334C242.308 25.7888 242.819 26.5548 243.84 26.5548ZM258.905 57.4505C259.415 57.4505 259.671 57.1952 259.926 56.9398H261.458C260.947 57.9612 259.926 58.7272 258.649 58.7272C257.117 58.7272 255.841 57.4505 255.841 55.9185C255.841 54.3865 257.117 53.1098 258.649 53.1098C259.926 53.1098 261.203 53.8758 261.458 55.1525H259.926C259.671 54.6418 259.16 54.3865 258.649 54.3865C257.883 54.3865 257.117 55.1525 257.117 55.9185C257.373 56.6845 258.139 57.4505 258.905 57.4505Z" fill="#E4BFA2"/>
<path d="M136.857 118.221C136.346 118.221 135.835 118.221 135.58 118.731C135.069 119.242 135.069 120.263 135.58 121.029C136.091 121.54 137.112 121.54 137.878 121.029C138.133 120.774 138.389 120.263 138.389 119.753L163.922 94.2191L164.688 101.879L153.709 112.348C153.198 112.348 152.687 112.348 152.432 112.859C151.921 113.369 151.921 114.391 152.432 115.157C152.943 115.667 153.964 115.667 154.73 115.157C154.985 114.901 155.241 114.391 155.241 113.88L166.73 102.39L165.709 92.4317L170.816 87.325L177.454 69.4515L159.326 51.3226C159.581 50.5566 159.836 50.0459 159.836 49.2799C159.836 46.7265 157.794 44.6838 155.241 44.6838C152.687 44.6838 150.645 46.7265 150.645 49.2799C150.645 51.8333 152.687 53.8759 155.241 53.8759C156.262 53.8759 157.028 53.6206 157.794 53.1099L174.901 70.2175L169.028 86.3036L136.857 118.221ZM155.241 51.5779C153.709 51.5779 152.687 50.5566 152.687 49.0246C152.687 47.4925 153.964 46.4712 155.241 46.4712C156.773 46.4712 157.794 47.7479 157.794 49.0246C157.794 49.2799 157.794 49.5352 157.794 49.5352L156.773 48.5139C156.773 47.7479 156.007 47.2372 155.241 47.2372C154.475 47.2372 153.709 48.0032 153.709 48.7692C153.709 49.5352 154.475 50.3012 155.241 50.3012C155.496 50.3012 155.496 50.3012 155.751 50.3012L156.517 51.0672C156.262 51.5779 155.751 51.5779 155.241 51.5779Z" fill="#E4BFA2"/>
<path d="M494.574 338.32C494.574 337.044 493.553 336.022 492.276 336.022C491.51 336.022 490.744 336.533 490.489 337.044H431.763L424.614 329.894V292.104C426.912 291.594 428.444 289.806 428.444 287.253C428.444 284.444 426.146 282.402 423.592 282.402C420.784 282.402 418.741 284.7 418.741 287.253C418.741 289.551 420.528 291.594 422.571 292.104V330.66L430.997 339.086H490.233C490.489 339.597 490.744 340.108 491.255 340.363V374.833C490.744 375.089 490.233 375.599 490.233 376.11H400.613L385.548 361.045V329.894L377.122 321.468H299.502V298.743L283.416 282.657H244.351L230.563 275.763C230.563 274.997 229.797 274.231 229.031 274.231C228.265 274.231 227.499 274.997 227.499 275.763C227.499 276.529 228.265 277.295 229.031 277.295C229.286 277.295 229.286 277.295 229.542 277.295L244.095 284.444H282.906L297.97 299.509V323.511H376.612L383.761 330.66V361.811L399.847 377.897H490.489C490.999 378.408 491.51 378.919 492.276 378.919C493.553 378.919 494.574 377.897 494.574 376.621C494.574 375.855 494.063 375.089 493.297 374.578V340.108C494.063 339.852 494.574 339.086 494.574 338.32ZM420.784 287.253C420.784 285.721 422.06 284.444 423.592 284.444C425.124 284.444 426.401 285.721 426.401 287.253C426.401 288.785 425.124 290.062 423.592 290.062C422.06 290.317 420.784 289.04 420.784 287.253Z" fill="#E4BFA2"/>
<path d="M2.80862 277.04V322.49V324.277H29.8736V331.682H30.8949H31.9162H51.066L66.6411 347.257H104.941C105.196 347.513 105.707 347.768 106.217 347.768C106.983 347.768 107.749 347.002 107.749 346.236C107.749 345.47 106.983 344.704 106.217 344.704C105.707 344.704 105.196 344.959 104.941 345.215H67.4071L51.832 329.639H31.9162V324.277H58.7259L73.535 339.087H120.005C120.26 339.342 120.771 339.597 121.282 339.597C122.048 339.597 122.814 338.831 122.814 338.065C122.814 337.299 122.048 336.533 121.282 336.533C120.771 336.533 120.26 336.789 120.005 337.044H74.301L59.4919 322.234H4.85126V276.785C5.36192 276.529 5.61725 276.019 5.87258 275.508H6.38324H24.001L33.1929 284.189H53.1086C53.3639 286.743 55.4066 288.53 57.9599 288.53C60.7685 288.53 62.8112 286.232 62.8112 283.679C62.8112 280.87 60.5132 278.827 57.9599 278.827C55.6619 278.827 53.8746 280.359 53.3639 282.147H33.9589L26.8096 275.253H78.3863L88.3441 284.445H106.983C107.494 286.743 109.281 288.53 111.835 288.53C114.643 288.53 116.686 286.232 116.686 283.679C116.686 280.87 114.388 278.827 111.835 278.827C109.537 278.827 107.494 280.359 106.983 282.657H89.1101L81.1949 275.253H180.008L180.263 275.508V373.046C177.965 373.557 176.433 375.344 176.433 377.898C176.433 380.706 178.731 382.749 181.284 382.749C184.093 382.749 186.136 380.451 186.136 377.898C186.136 375.6 184.348 373.557 182.306 373.046V275.763C182.561 275.508 182.816 274.997 182.816 274.487C182.816 273.721 182.05 272.955 181.284 272.955C180.774 272.955 180.263 273.21 180.008 273.465H5.36192C4.85126 272.955 4.3406 272.699 3.57461 272.699C2.29796 272.699 1.27664 273.721 1.27664 274.997C1.27664 276.019 2.04263 276.785 2.80862 277.04ZM55.1513 282.402C55.6619 281.636 56.6832 280.87 57.7046 280.87C59.2365 280.87 60.5132 282.147 60.5132 283.679C60.5132 285.211 59.2365 286.487 57.7046 286.487C56.1726 286.487 55.1513 285.466 54.8959 283.934H57.7046V281.891H55.1513V282.402ZM108.771 282.913C109.281 281.891 110.303 281.125 111.579 281.125C113.111 281.125 114.388 282.402 114.388 283.934C114.388 285.466 113.111 286.743 111.579 286.743C110.303 286.743 109.281 285.977 108.771 284.7H112.345V282.657H108.771V282.913ZM182.561 378.153C182.561 377.642 182.306 377.132 182.05 376.876V375.344C183.072 375.855 184.093 376.876 184.093 378.153C184.093 379.685 182.816 380.962 181.284 380.962C179.752 380.962 178.476 379.685 178.476 378.153C178.476 376.876 179.242 375.855 180.518 375.344V376.876C180.263 377.132 180.008 377.642 180.008 378.153C180.008 378.919 180.774 379.685 181.54 379.685C181.795 379.685 182.561 378.919 182.561 378.153Z" fill="#E4BFA2"/>
<path d="M43.6615 240.527C43.6615 239.25 42.6402 238.229 41.3635 238.229C40.0869 238.229 39.0656 239.25 39.0656 240.527C39.0656 241.548 39.5762 242.314 40.3422 242.569V261.464H148.602C148.857 261.72 149.368 261.975 149.879 261.975C150.645 261.975 151.411 261.209 151.411 260.443C151.411 259.677 150.645 258.911 149.879 258.911C149.368 258.911 148.857 259.166 148.602 259.422H42.3848V242.314C43.1508 242.059 43.6615 241.293 43.6615 240.527Z" fill="#E4BFA2"/>
<path d="M2.80857 434.327V464.456H3.57456H4.85121H59.7472V477.223H4.85121H3.31923H2.80857V514.758C2.04258 515.013 1.53192 515.779 1.53192 516.8C1.53192 518.077 2.55324 519.098 3.82989 519.098C4.85121 519.098 5.6172 518.332 5.87253 517.311L25.5329 510.672H105.451V428.965C107.749 428.454 109.281 426.411 109.281 424.113C109.281 421.305 106.983 419.262 104.43 419.262C101.621 419.262 99.5786 421.56 99.5786 424.113C99.5786 426.411 101.366 428.454 103.409 428.965V508.63H25.5329L5.6172 515.268C5.36187 515.013 5.10654 514.758 4.85121 514.758V479.266H61.5345V462.414H4.85121V434.327C5.6172 434.071 6.12786 433.305 6.12786 432.284C6.12786 432.029 6.12786 431.773 5.87253 431.518L8.1705 429.22L57.4492 429.475C57.7045 430.497 57.9598 431.263 58.7258 432.029C60.5131 433.816 63.8324 433.816 65.6197 432.029C67.4071 430.241 67.4071 426.922 65.6197 425.135C63.8324 423.347 60.5131 423.347 58.7258 425.135C57.9598 425.901 57.7045 426.667 57.4492 427.688L7.40451 427.433L4.59588 430.241C4.34055 430.241 4.08522 429.986 3.82989 429.986C2.55324 429.986 1.53192 431.007 1.53192 432.284C1.53192 433.305 2.04258 434.071 2.80857 434.327ZM101.621 424.369C101.621 422.837 102.898 421.56 104.43 421.56C105.962 421.56 107.239 422.837 107.239 424.369C107.239 425.645 106.473 426.667 105.196 427.177V425.645C105.451 425.39 105.707 424.879 105.707 424.369C105.707 423.603 104.941 422.837 104.175 422.837C103.409 422.837 102.643 423.603 102.643 424.369C102.643 424.879 102.898 425.39 103.153 425.645V427.177C102.387 426.667 101.621 425.645 101.621 424.369ZM63.3218 427.433C62.8111 426.922 61.7898 426.922 61.0238 427.433C61.0238 427.433 61.0238 427.433 61.0238 427.688H59.4918C59.7472 427.177 59.7472 426.922 60.2578 426.667C61.2791 425.645 63.3218 425.645 64.3431 426.667C65.3644 427.688 65.3644 429.731 64.3431 430.752C63.3218 431.773 61.2791 431.773 60.2578 430.752C60.0025 430.497 59.7472 429.986 59.4918 429.731H61.0238C61.0238 429.731 61.0238 429.731 61.0238 429.986C61.5345 430.497 62.5558 430.497 63.3218 429.986C64.0878 429.22 64.0878 428.199 63.3218 427.433Z" fill="#E4BFA2"/>
<path d="M3.82995 573.996C4.59594 573.996 5.36193 573.485 5.87259 572.719H95.4934C95.7487 572.974 96.2594 573.23 96.7701 573.23C97.536 573.23 98.302 572.464 98.302 571.698C98.302 570.932 97.536 570.166 96.7701 570.166C96.2594 570.166 95.7487 570.421 95.4934 570.676H5.87259C5.61726 570.166 5.36193 569.91 4.85127 569.655V543.866L10.2132 548.973H95.7487C96.0041 549.228 96.5147 549.483 97.0254 549.483C97.7914 549.483 98.5574 548.717 98.5574 547.951C98.5574 547.185 97.7914 546.419 97.0254 546.419C96.5147 546.419 96.0041 546.675 95.7487 546.93H51.3213L57.7046 540.547H78.8969C79.1523 540.802 79.6629 541.057 80.1736 541.057C80.9396 541.057 81.7056 540.291 81.7056 539.525C81.7056 538.759 80.9396 537.993 80.1736 537.993C79.6629 537.993 79.1523 538.249 78.8969 538.504H56.6833L48.5127 546.675H28.0863L41.6188 533.142H64.3432C64.5985 533.397 65.1091 533.653 65.6198 533.653C66.3858 533.653 67.1518 532.887 67.1518 532.121C67.1518 531.355 66.3858 530.589 65.6198 530.589C65.1091 530.589 64.5985 530.844 64.3432 531.099H43.6614L48.768 526.248H49.0234C49.7893 526.248 50.5553 525.482 50.5553 524.716C50.5553 523.95 49.7893 523.184 49.0234 523.184C48.2574 523.184 47.4914 523.95 47.4914 524.716C47.4914 524.716 47.4914 524.716 47.4914 524.971L40.8528 531.355L25.2777 546.93H10.7239L4.85127 541.313V540.802L10.7239 533.908H24.5117C24.767 534.163 25.2777 534.419 25.7883 534.419C26.5543 534.419 27.3203 533.653 27.3203 532.887C27.3203 532.121 26.5543 531.355 25.7883 531.355C25.2777 531.355 24.767 531.61 24.5117 531.865H9.70254L4.59594 537.738V526.248L25.0223 519.354C25.533 519.864 26.0437 520.12 26.5543 520.12C27.5756 520.12 28.3416 519.609 28.597 518.588H79.6629L94.9827 533.908H102.643V555.612H9.70254L9.19188 555.101V557.399H104.685V531.865H96.0041L80.6843 516.545H28.597C28.0863 515.779 27.5756 515.524 26.8096 515.524C25.7883 515.524 24.767 516.29 24.767 517.311L3.06396 524.716V569.655C2.29797 569.91 1.78731 570.676 1.78731 571.698C1.53198 572.974 2.5533 573.996 3.82995 573.996Z" fill="#E4BFA2"/>
<path d="M317.631 385.813H377.122L388.357 374.578L399.591 385.813H450.402L471.595 391.941H493.808C494.319 393.984 496.106 395.516 498.149 395.516C500.702 395.516 502.745 393.473 502.745 390.92C502.745 388.367 500.702 386.324 498.149 386.324C496.106 386.324 494.319 387.856 493.808 389.899H472.361L451.168 383.77H400.868L378.144 361.046V329.384H244.606L240.521 325.298C241.032 324.532 241.287 323.511 241.287 322.49C241.287 319.681 238.989 317.638 236.436 317.638C233.627 317.638 231.584 319.936 231.584 322.49C231.584 325.298 233.882 327.341 236.436 327.341C237.457 327.341 238.478 327.086 239.244 326.575L243.84 331.171H376.101V361.812L380.952 366.663L370.229 377.387H306.396C305.885 376.876 305.375 376.366 304.609 376.366C303.332 376.366 302.311 377.387 302.311 378.664C302.311 379.685 303.077 380.451 304.098 380.706C304.609 383.77 305.119 387.09 305.119 390.154C305.119 407.517 295.672 423.603 280.097 432.029L279.586 432.284L285.459 516.545H228.52L234.393 432.284L233.882 432.029C218.563 423.603 208.86 407.517 208.86 390.154C208.86 374.834 216.265 360.28 228.776 351.087L229.286 350.577V291.083L221.371 275.508V261.209H384.016L391.932 269.124H498.149H499.936H500.191V260.698C500.191 255.847 498.659 250.996 496.106 246.655C496.872 245.889 497.128 244.868 497.128 243.591C497.128 241.037 495.085 238.995 492.532 238.995C490.234 238.995 488.191 240.782 487.936 243.08H392.442L389.889 240.527L399.847 237.207H457.041C457.296 237.718 457.807 237.973 458.317 237.973C459.083 237.973 459.849 237.207 459.849 236.441C459.849 235.675 459.083 234.909 458.317 234.909C457.807 234.909 457.551 235.165 457.296 235.42H400.357L388.868 239.25L385.038 235.42H354.653C354.398 235.165 353.887 234.909 353.377 234.909C352.866 234.909 352.355 235.165 352.1 235.42H331.163C330.908 235.165 330.397 234.909 329.886 234.909C329.376 234.909 328.865 235.165 328.61 235.42H286.736H278.565H274.99H268.607H204.009H196.859L173.624 250.485H50.0447V235.675H48.0021V252.272H174.135L197.625 236.697H204.264V242.57H196.349V361.046C196.093 361.301 195.838 361.812 195.838 362.322C195.838 363.088 196.604 363.854 197.37 363.854C198.136 363.854 198.902 363.088 198.902 362.322C198.902 361.812 198.647 361.301 198.391 361.046V244.612H204.264V332.448C201.966 332.959 200.434 334.746 200.434 337.299C200.434 340.108 202.732 342.151 205.285 342.151C208.094 342.151 210.137 339.853 210.137 337.299C210.137 335.001 208.349 332.959 206.307 332.448V244.612H377.122L388.612 240.782L392.442 244.612H397.549C396.527 245.634 395.762 246.91 395.762 248.442C395.762 251.251 398.059 253.294 400.613 253.294C403.421 253.294 405.464 250.996 405.464 248.442C405.464 246.91 404.698 245.634 403.677 244.612H409.039C408.017 245.634 407.251 246.91 407.251 248.442C407.251 251.251 409.549 253.294 412.103 253.294C414.911 253.294 416.954 250.996 416.954 248.442C416.954 246.91 416.188 245.634 415.167 244.612H420.529C419.507 245.634 418.741 246.91 418.741 248.442C418.741 251.251 421.039 253.294 423.592 253.294C426.401 253.294 428.444 250.996 428.444 248.442C428.444 246.91 427.678 245.634 426.656 244.612H432.018C430.997 245.634 430.231 246.91 430.231 248.442C430.231 251.251 432.529 253.294 435.082 253.294C437.891 253.294 439.934 250.996 439.934 248.442C439.934 246.91 439.168 245.634 438.146 244.612H443.508C442.487 245.634 441.721 246.91 441.721 248.442C441.721 251.251 444.019 253.294 446.572 253.294C449.381 253.294 451.423 250.996 451.423 248.442C451.423 246.91 450.657 245.634 449.636 244.612H454.998C453.977 245.634 453.211 246.91 453.211 248.442C453.211 251.251 455.509 253.294 458.062 253.294C460.871 253.294 462.913 250.996 462.913 248.442C462.913 246.91 462.147 245.634 461.126 244.612H487.936C488.446 246.4 490.234 247.676 492.276 247.676C493.042 247.676 493.553 247.421 494.064 247.421C496.362 251.251 497.638 255.592 497.638 260.188V266.826H392.187L384.272 258.911H219.839V275.763L227.754 291.339V349.811C214.733 359.258 207.073 374.323 207.073 390.154C207.073 408.027 216.775 424.624 232.606 433.561L226.733 518.588H287.502L281.629 433.561C297.459 424.624 307.162 408.027 307.162 390.154C307.162 386.834 306.907 383.515 306.141 380.196C306.396 379.94 306.651 379.685 306.907 379.174H371.25L382.484 367.94L387.591 373.046L376.867 383.77H316.609C316.354 383.515 315.843 383.515 315.588 383.515C314.311 383.515 313.29 384.536 313.29 385.813C313.29 386.579 313.801 387.345 314.567 387.856C314.567 388.622 314.567 389.643 314.567 390.409C314.567 394.75 314.056 399.091 313.035 403.431C312.013 403.687 311.247 404.453 311.247 405.474C311.247 406.751 312.269 407.772 313.545 407.772C314.311 407.772 315.077 407.261 315.588 406.495H359.249L350.057 415.687V433.816C347.759 434.327 346.228 436.114 346.228 438.668C346.228 441.476 348.525 443.519 351.079 443.519C353.887 443.519 355.93 441.221 355.93 438.668C355.93 436.37 354.143 434.327 352.1 433.816V416.454L366.909 401.644H498.149V454.499L483.595 469.053H388.868V585.741C388.102 585.997 387.591 586.763 387.591 587.784C387.591 589.061 388.612 590.082 389.889 590.082C391.166 590.082 392.187 589.061 392.187 587.784C392.187 587.018 391.676 586.252 390.91 585.741V471.095H484.616L498.149 457.563V479.777L484.616 494.586H413.379L395.506 509.907V586.252C394.74 586.507 394.23 587.273 394.23 588.295C394.23 589.571 395.251 590.593 396.527 590.593C397.804 590.593 398.825 589.571 398.825 588.295C398.825 587.273 398.315 586.507 397.549 586.252V510.928L414.145 496.629H426.146L420.529 502.246C419.763 502.502 419.252 503.012 419.252 503.779C419.252 504.544 420.018 505.31 420.784 505.31C421.55 505.31 422.316 504.544 422.316 503.779C422.316 503.523 422.316 503.268 422.316 503.268L428.699 496.884H449.636L444.53 501.991C444.53 501.991 444.53 501.991 444.274 501.991C443.508 501.991 442.742 502.757 442.742 503.523C442.742 504.289 443.508 505.055 444.274 505.055C445.04 505.055 445.806 504.289 445.806 503.523C445.806 503.523 445.806 503.523 445.806 503.268L452.189 496.884H472.871L467.765 501.991C467.765 501.991 467.765 501.991 467.509 501.991C466.743 501.991 465.977 502.757 465.977 503.523C465.977 504.289 466.743 505.055 467.509 505.055C468.275 505.055 469.041 504.289 469.041 503.523C469.041 503.523 469.041 503.523 469.041 503.268L475.424 496.884H484.872L497.383 483.096V502.502L483.084 516.801H420.018L411.081 525.737V597.998C408.783 598.508 407.251 600.296 407.251 602.849C407.251 605.658 409.549 607.7 412.103 607.7C414.911 607.7 416.954 605.402 416.954 602.849C416.954 600.551 415.422 598.508 413.124 597.998V546.164L419.252 558.42V576.039C416.954 576.549 415.422 578.337 415.422 580.89C415.422 583.699 417.72 585.741 420.273 585.741C422.827 585.741 425.124 583.443 425.124 580.89C425.124 578.592 423.337 576.549 421.294 576.039V557.91L413.379 541.824V530.078L428.444 557.91V571.953C428.188 572.209 427.933 572.719 427.933 573.23C427.933 573.996 428.699 574.762 429.465 574.762C430.231 574.762 430.997 573.996 430.997 573.23C430.997 572.719 430.742 572.209 430.486 571.953V557.399L413.89 526.503L421.55 518.843H484.616L498.149 505.31V518.077L484.616 533.142H436.104V552.803C433.806 553.314 432.274 555.101 432.274 557.654C432.274 560.463 434.572 562.506 437.125 562.506C439.934 562.506 441.976 560.208 441.976 557.654C441.976 555.356 440.189 553.314 438.146 552.803V535.185H485.638L498.149 521.141V570.932L492.276 565.059V562.506C494.574 561.995 496.106 560.208 496.106 557.654C496.106 554.846 493.808 552.803 491.255 552.803C488.446 552.803 486.404 555.101 486.404 557.654C486.404 559.952 488.191 561.995 490.234 562.506V565.825L498.149 573.741V594.168V594.678L492.276 587.529V584.72C494.574 584.209 496.106 582.422 496.106 579.869C496.106 577.06 493.808 575.017 491.255 575.017C488.446 575.017 486.404 577.315 486.404 579.869C486.404 582.167 488.191 584.209 490.234 584.72V587.273L497.893 596.721V598.764C497.893 611.02 488.957 621.233 476.956 622.765C476.446 620.978 474.658 619.701 472.616 619.701C470.063 619.701 468.02 621.744 468.02 624.297C468.02 626.851 470.063 628.893 472.616 628.893C474.914 628.893 476.701 627.106 476.956 625.063C489.723 623.276 499.681 612.296 499.681 599.019V597.487V399.601H365.633L360.781 404.453H315.333C315.333 404.197 315.077 403.942 314.822 403.687C315.843 399.346 316.354 394.75 316.354 390.154C316.354 389.388 316.354 388.622 316.354 387.6C317.12 387.6 317.631 386.835 317.631 385.813ZM498.404 388.622C499.936 388.622 500.957 389.899 500.957 391.175C500.957 392.707 499.936 393.729 498.404 393.729C497.383 393.729 496.362 392.963 496.106 392.197H497.128C497.383 392.707 497.893 392.963 498.404 392.963C499.17 392.963 499.936 392.197 499.936 391.431C499.936 390.665 499.17 389.899 498.404 389.899C497.893 389.899 497.383 390.154 497.128 390.409H496.106C496.617 389.132 497.383 388.622 498.404 388.622ZM238.989 323.766L237.968 322.745C237.968 322.745 237.968 322.745 237.968 322.49C237.968 321.724 237.202 320.958 236.436 320.958C235.67 320.958 234.904 321.724 234.904 322.49C234.904 323.256 235.67 324.022 236.436 324.022C236.436 324.022 236.436 324.022 236.691 324.022L237.712 325.043C237.457 325.298 236.946 325.298 236.436 325.298C234.904 325.298 233.627 324.022 233.627 322.49C233.627 320.958 234.904 319.681 236.436 319.681C237.968 319.681 239.244 320.958 239.244 322.49C239.244 323 239.244 323.256 238.989 323.766ZM208.094 337.555C208.094 339.087 206.817 340.363 205.285 340.363C203.753 340.363 202.477 339.087 202.477 337.555C202.477 336.278 203.243 335.257 204.519 334.746V336.278C204.264 336.533 204.009 337.044 204.009 337.555C204.009 338.321 204.775 339.087 205.541 339.087C206.307 339.087 207.073 338.321 207.073 337.555C207.073 337.044 206.817 336.533 206.562 336.278V334.746C207.328 335.001 208.094 336.278 208.094 337.555ZM206.051 242.825V236.952H275.756H328.865C329.12 237.207 329.631 237.463 330.142 237.463C330.142 237.463 330.142 237.463 330.397 237.463L335.759 242.825H206.051ZM338.312 242.825L332.44 236.952H352.355C352.611 237.207 353.121 237.463 353.632 237.463C353.632 237.463 353.632 237.463 353.887 237.463L359.249 242.825H338.312ZM376.612 242.825H361.547L355.675 236.952H384.016L386.57 239.505L376.612 242.825ZM400.357 251.506C398.825 251.506 397.549 250.23 397.549 248.698C397.549 247.166 398.825 245.889 400.357 245.889C401.889 245.889 403.166 247.166 403.166 248.698C403.166 249.974 401.889 251.506 400.357 251.506ZM412.103 251.506C410.571 251.506 409.294 250.23 409.294 248.698C409.294 247.166 410.571 245.889 412.103 245.889C413.635 245.889 414.911 247.166 414.911 248.698C414.911 249.974 413.635 251.506 412.103 251.506ZM423.592 251.506C422.06 251.506 420.784 250.23 420.784 248.698C420.784 247.166 422.06 245.889 423.592 245.889C425.124 245.889 426.401 247.166 426.401 248.698C426.656 249.974 425.38 251.506 423.592 251.506ZM435.338 251.506C433.806 251.506 432.529 250.23 432.529 248.698C432.529 247.166 433.806 245.889 435.338 245.889C436.87 245.889 438.146 247.166 438.146 248.698C438.402 249.974 437.125 251.506 435.338 251.506ZM447.083 251.506C445.551 251.506 444.274 250.23 444.274 248.698C444.274 247.166 445.551 245.889 447.083 245.889C448.615 245.889 449.891 247.166 449.891 248.698C450.147 249.974 448.615 251.506 447.083 251.506ZM458.828 251.506C457.296 251.506 456.019 250.23 456.019 248.698C456.019 247.166 457.296 245.889 458.828 245.889C460.36 245.889 461.637 247.166 461.637 248.698C461.637 249.974 460.36 251.506 458.828 251.506ZM493.042 240.782C494.574 240.782 495.596 242.059 495.596 243.336C495.596 243.846 495.34 244.102 495.34 244.612C495.085 244.357 494.83 244.102 494.574 243.846V243.591C494.574 242.825 493.808 242.059 493.042 242.059C492.276 242.059 491.766 242.57 491.51 243.08H490.489C490.744 241.548 491.766 240.782 493.042 240.782ZM493.042 245.889C492.276 245.889 491.51 245.378 491 244.868H492.532C492.787 244.868 492.787 244.868 493.042 244.868C493.298 245.123 493.553 245.378 493.808 245.634C493.298 245.634 493.042 245.889 493.042 245.889ZM353.887 438.412C353.887 439.944 352.611 441.221 351.079 441.221C349.547 441.221 348.27 439.944 348.27 438.412C348.27 437.136 349.036 436.114 350.313 435.604V437.136C350.057 437.391 349.802 437.902 349.802 438.412C349.802 439.178 350.568 439.944 351.334 439.944C352.1 439.944 352.866 439.178 352.866 438.412C352.866 437.902 352.611 437.391 352.355 437.136V435.604C352.866 436.114 353.887 437.136 353.887 438.412ZM415.422 601.828C415.422 603.36 414.145 604.636 412.613 604.636C411.081 604.636 409.805 603.36 409.805 601.828C409.805 600.551 410.571 599.53 411.847 599.019V601.828H413.89V599.019C414.656 599.53 415.422 600.551 415.422 601.828ZM421.55 578.592V577.06C422.571 577.571 423.592 578.592 423.592 579.869C423.592 581.401 422.316 582.677 420.784 582.677C419.252 582.677 417.975 581.401 417.975 579.869C417.975 578.592 418.741 577.571 420.018 577.06V578.592C419.763 578.847 419.507 579.358 419.507 579.869C419.507 580.635 420.273 581.401 421.039 581.401C421.805 581.401 422.571 580.635 422.571 579.869C422.06 579.358 421.805 578.847 421.55 578.592ZM439.934 556.633C439.934 558.165 438.657 559.442 437.125 559.442C435.593 559.442 434.316 558.165 434.316 556.633C434.316 555.356 435.082 554.335 436.359 553.824V555.356C436.104 555.612 435.848 556.122 435.848 556.633C435.848 557.399 436.614 558.165 437.38 558.165C438.146 558.165 438.912 557.399 438.912 556.633C438.912 556.122 438.657 555.612 438.402 555.356V553.824C439.168 554.335 439.934 555.356 439.934 556.633ZM490.234 557.91V559.442C489.212 558.931 488.191 557.91 488.191 556.633C488.191 555.101 489.468 553.824 491 553.824C492.532 553.824 493.808 555.101 493.808 556.633C493.808 557.91 493.042 558.931 491.766 559.442V557.91C492.021 557.654 492.276 557.144 492.276 556.633C492.276 555.867 491.51 555.101 490.744 555.101C489.978 555.101 489.212 555.867 489.212 556.633C489.723 557.144 489.978 557.654 490.234 557.91ZM490.234 581.145V582.677C489.212 582.167 488.191 581.145 488.191 579.869C488.191 578.337 489.468 577.06 491 577.06C492.532 577.06 493.808 578.337 493.808 579.869C493.808 581.145 493.042 582.167 491.766 582.677V581.145C492.021 580.89 492.276 580.379 492.276 579.869C492.276 579.103 491.51 578.337 490.744 578.337C489.978 578.337 489.212 579.103 489.212 579.869C489.723 580.379 489.978 580.635 490.234 581.145ZM472.871 626.595C471.339 626.595 470.318 625.319 470.318 624.042C470.318 622.51 471.595 621.488 472.871 621.488C473.892 621.488 474.658 621.999 475.169 623.021C474.914 623.021 474.403 623.021 474.148 623.021C473.892 622.765 473.382 622.51 473.126 622.51C472.361 622.51 471.595 623.276 471.595 624.042C471.595 624.808 472.361 625.574 473.126 625.574C473.637 625.574 474.148 625.319 474.403 624.808C474.658 624.808 475.169 624.808 475.424 624.808C474.914 626.085 474.148 626.595 472.871 626.595Z" fill="#E4BFA2"/>
<path d="M164.177 27.8317C164.943 27.8317 165.709 27.321 166.22 26.555H190.476C190.731 26.8103 191.242 27.0656 191.753 27.0656C191.753 27.0656 191.753 27.0656 192.008 27.0656L199.157 38.8111H237.457V44.9392L219.073 51.0673C218.307 49.5352 216.775 48.5139 214.988 48.5139C212.179 48.5139 210.137 50.8119 210.137 53.3653C210.137 56.174 212.435 58.2167 214.988 58.2167C217.796 58.2167 219.839 55.9186 219.839 53.3653C219.839 53.1099 219.839 52.8546 219.839 52.8546L239.5 46.2159V38.5558H249.457C249.968 40.8538 251.755 42.3858 254.309 42.3858C257.117 42.3858 259.16 40.0878 259.16 37.5344C259.16 34.7257 256.862 32.683 254.309 32.683C252.011 32.683 249.968 34.4704 249.457 36.5131H199.668L193.029 25.2783C193.029 25.2783 193.029 25.2783 193.029 25.023C193.029 24.2569 192.263 23.4909 191.497 23.4909C190.987 23.4909 190.476 23.7463 190.221 24.0016H166.73C189.966 9.1921 216.52 1.27668 243.329 1.27668H267.586C282.395 1.27668 296.949 3.57471 310.992 8.17076C311.247 8.68143 311.503 9.19211 311.758 9.44744V57.706L297.459 72.0048L298.736 72.5155C303.843 74.8135 308.694 77.6222 313.29 80.9416H313.545C342.653 101.624 361.292 140.435 361.292 183.331V219.079C359.249 219.589 357.717 221.377 357.717 223.419C357.717 225.973 359.76 228.015 362.313 228.015C364.867 228.015 366.909 225.973 366.909 223.419C366.909 221.377 365.377 219.589 363.335 219.079V183.331C363.335 166.224 360.526 149.882 355.164 134.818L358.994 130.988V96.7725C360.015 96.5171 360.781 96.2618 361.547 95.4958C363.335 93.7084 363.335 90.389 361.547 88.6017C359.76 86.8143 356.441 86.8143 354.653 88.6017C352.866 90.389 352.866 93.7084 354.653 95.4958C355.419 96.2618 356.185 96.7725 357.207 96.7725V130.222L354.653 132.775C346.738 111.327 333.716 93.1977 317.12 80.9416H332.695C332.95 81.1969 333.461 81.4523 333.972 81.4523C334.738 81.4523 335.504 80.6863 335.504 79.9203C335.504 79.4096 335.248 78.8989 334.993 78.6436V49.7906L340.61 38.5558C341.121 38.5558 341.376 38.8111 341.887 38.8111C344.695 38.8111 346.738 36.5131 346.738 33.9597C346.738 31.151 344.44 29.1083 341.887 29.1083C339.078 29.1083 337.036 31.4064 337.036 33.9597C337.036 35.4917 337.802 36.7684 338.823 37.7898L332.95 49.2799V79.4096L332.695 79.6649H314.567C310.226 76.6009 305.885 74.0475 301.289 72.0048L314.056 59.238V10.4688C314.822 10.2135 315.588 9.44744 315.588 8.4261C315.588 7.14942 314.567 6.12807 313.29 6.12807C312.524 6.12807 312.013 6.38341 311.503 6.89408C297.204 2.29803 282.65 0 267.586 0H243.329C216.009 0 188.944 8.17076 164.943 23.4909C164.688 23.4909 164.433 23.2356 164.177 23.2356C162.901 23.2356 161.879 24.2569 161.879 25.5336C161.879 26.8103 162.901 27.8317 164.177 27.8317ZM214.988 56.4293C213.456 56.4293 212.179 55.1526 212.179 53.6206C212.179 52.0886 213.456 50.8119 214.988 50.8119C216.009 50.8119 216.775 51.3226 217.286 51.8333L215.754 52.3439C215.498 52.0886 215.243 52.0886 214.988 52.0886C214.222 52.0886 213.456 52.8546 213.456 53.6206C213.456 54.3866 214.222 55.1526 214.988 55.1526C215.754 55.1526 216.264 54.642 216.52 54.1313L218.052 53.6206C217.796 55.1526 216.52 56.4293 214.988 56.4293ZM254.053 34.9811C255.585 34.9811 256.862 36.2578 256.862 37.7898C256.862 39.3218 255.585 40.5985 254.053 40.5985C252.521 40.5985 251.245 39.3218 251.245 37.7898C250.989 36.2578 252.521 34.9811 254.053 34.9811ZM365.122 224.185C365.122 225.717 363.845 226.739 362.569 226.739C361.037 226.739 360.015 225.717 360.015 224.185C360.015 223.164 360.781 222.143 361.547 221.887V222.909C361.292 223.164 361.037 223.675 361.037 224.185C361.037 224.951 361.803 225.717 362.569 225.717C363.335 225.717 364.101 224.951 364.101 224.185C364.101 223.675 363.845 223.164 363.59 222.909V221.887C364.356 222.143 365.122 223.164 365.122 224.185ZM356.951 94.2191C356.951 94.2191 357.207 94.2191 356.951 94.2191L357.207 95.7511C356.696 95.4958 356.441 95.4958 356.185 94.9851C355.164 93.9638 355.164 91.9211 356.185 90.8997C357.207 89.8784 359.249 89.8784 360.271 90.8997C361.292 91.9211 361.292 93.9638 360.271 94.9851C360.015 95.2404 359.505 95.4958 359.249 95.7511V94.2191C359.249 94.2191 359.249 94.2191 359.505 94.2191C360.015 93.7084 360.015 92.6871 359.505 91.9211C358.994 91.4104 357.973 91.4104 357.207 91.9211C356.441 92.4317 356.441 93.4531 356.951 94.2191ZM341.632 30.8957C343.163 30.8957 344.44 32.1724 344.44 33.7044C344.44 35.2364 343.163 36.5131 341.632 36.5131H341.376L342.142 35.2364C342.908 34.9811 343.419 34.4704 343.419 33.7044C343.419 32.9384 342.653 32.1724 341.887 32.1724C341.121 32.1724 340.355 32.9384 340.355 33.7044C340.355 33.9597 340.355 34.2151 340.61 34.4704L339.844 35.7471C339.334 35.2364 339.078 34.4704 339.078 33.7044C338.568 32.4277 340.1 30.8957 341.632 30.8957Z" fill="#E4BFA2"/>
<path d="M330.652 18.1289C331.163 18.1289 331.674 17.8736 331.929 17.6183C371.505 37.7898 401.123 74.8136 415.932 119.497H397.038V201.971C394.74 202.482 393.208 204.269 393.208 206.822C393.208 209.631 395.506 211.674 398.059 211.674C400.868 211.674 402.911 209.376 402.911 206.822C402.911 204.524 401.123 202.482 399.081 201.971V121.285H416.698C423.082 140.946 426.401 162.139 426.401 183.842V222.653H414.145V196.609C416.443 196.098 417.975 194.311 417.975 191.758C417.975 188.949 415.677 186.906 413.124 186.906C410.315 186.906 408.273 189.204 408.273 191.758C408.273 194.056 410.06 196.098 412.103 196.609V224.441H426.401H427.422H428.444V183.587C428.444 110.561 391.166 44.9393 333.206 15.3202C333.206 14.0436 332.184 13.0222 330.908 13.0222C329.631 13.0222 328.61 14.0436 328.61 15.3202C328.354 17.1076 329.376 18.1289 330.652 18.1289ZM399.591 207.078C399.591 206.567 399.336 206.056 399.081 205.801V204.269C400.102 204.78 401.123 205.801 401.123 207.078C401.123 208.61 399.847 209.887 398.315 209.887C396.783 209.887 395.506 208.61 395.506 207.078C395.506 205.801 396.272 204.78 397.549 204.269V205.801C397.293 206.056 397.038 206.567 397.038 207.078C397.038 207.844 397.804 208.61 398.57 208.61C398.825 208.61 399.591 207.844 399.591 207.078ZM411.847 193.545V195.077C410.826 194.566 409.805 193.545 409.805 192.268C409.805 190.736 411.081 189.46 412.613 189.46C414.145 189.46 415.422 190.736 415.422 192.268C415.422 193.545 414.656 194.566 413.379 195.077V193.545C413.635 193.29 413.89 192.779 413.89 192.268C413.89 191.502 413.124 190.736 412.358 190.736C411.592 190.736 410.826 191.502 410.826 192.268C411.337 192.779 411.592 193.29 411.847 193.545Z" fill="#E4BFA2"/>
<path d="M87.8335 147.329C88.8548 147.329 89.6208 146.818 89.8761 146.052H96.77L157.283 85.5378C157.794 85.5378 158.305 85.5377 158.56 85.0271C159.071 84.5164 159.071 83.4951 158.56 82.7291C158.049 82.2184 157.028 82.2184 156.262 82.7291C156.007 82.9844 155.751 83.4951 155.751 84.0057L124.601 115.412V106.475L139.665 91.4105C140.176 91.4105 140.687 91.4105 140.942 90.8998C141.453 90.3891 141.453 89.3678 140.942 88.6018C140.431 88.0911 139.41 88.0911 138.644 88.6018C138.389 88.8571 138.133 89.3678 138.133 89.8785L122.558 105.454V117.199L108.005 131.754V112.603L124.09 96.5172C124.601 96.5172 125.112 96.5172 125.367 96.0065C125.878 95.4959 125.878 94.4745 125.367 93.7085C124.856 93.1978 123.835 93.1978 123.069 93.7085C122.814 93.9638 122.558 94.4745 122.558 94.9852L108.26 109.795L108.515 102.645C108.515 102.645 108.515 102.645 108.771 102.645C109.281 102.135 109.281 101.113 108.771 100.347C108.26 99.8366 107.239 99.8366 106.473 100.347C105.962 100.858 105.962 101.879 106.473 102.645L106.217 111.837V133.796L96.004 144.01H89.8761C89.6208 143.754 89.3655 143.244 89.1101 143.244C97.2807 101.879 118.218 65.1108 147.836 39.3219C148.091 39.5772 148.347 39.5772 148.857 39.5772C149.879 39.5772 150.645 39.0665 150.9 38.0452H185.625L197.37 58.7274V77.8777C196.349 78.133 195.838 78.899 195.838 79.9203C195.838 80.1757 195.838 80.1757 195.838 80.431C181.029 91.1551 169.028 106.22 160.858 123.838L135.325 149.116L129.963 144.01C130.474 143.244 130.729 142.478 130.729 141.456C130.729 138.903 128.686 136.86 126.133 136.86C123.58 136.86 121.537 138.903 121.537 141.456C121.537 144.01 123.58 146.052 126.133 146.052C126.899 146.052 127.665 145.797 128.431 145.542L133.793 150.904L110.558 173.884V185.119C108.26 185.63 106.728 187.672 106.728 189.97C106.728 192.779 109.026 194.822 111.579 194.822C114.388 194.822 116.43 192.524 116.43 189.97C116.43 187.672 114.643 185.63 112.6 185.119V174.65L158.815 129.2C156.262 135.584 153.964 142.222 152.177 148.861L118.218 181.544V201.205C115.92 201.716 114.388 203.503 114.388 206.056C114.388 208.865 116.686 210.908 119.239 210.908C122.048 210.908 124.09 208.61 124.09 206.056C124.09 203.758 122.303 201.716 120.26 201.205V182.566L151.155 152.436C150.134 157.543 149.113 162.394 148.602 167.756L125.622 189.46V217.036C123.324 217.547 121.792 219.334 121.792 221.887C121.792 224.696 124.09 226.739 126.644 226.739C129.452 226.739 131.495 224.441 131.495 221.887C131.495 219.589 129.708 217.547 127.665 217.036V189.97L148.347 170.309C147.836 174.905 147.581 179.502 147.581 184.098V191.758L135.325 204.014C135.325 204.014 135.325 204.014 135.07 204.014C134.304 204.014 133.538 204.78 133.538 205.546C133.538 206.312 134.304 207.078 135.07 207.078C135.836 207.078 136.601 206.312 136.601 205.546C136.601 205.546 136.601 205.546 136.601 205.29L147.581 194.311V207.589L143.495 211.929C143.495 211.929 143.495 211.929 143.24 211.929C142.474 211.929 141.708 212.695 141.708 213.461C141.708 214.227 142.474 214.993 143.24 214.993C144.006 214.993 144.772 214.227 144.772 213.461C144.772 213.461 144.772 213.461 144.772 213.206L147.325 210.653V229.803C145.283 230.313 143.751 232.101 143.751 234.143C143.751 236.697 145.793 238.74 148.347 238.74C150.9 238.74 152.943 236.697 152.943 234.143C152.943 232.101 151.411 230.313 149.368 229.803V184.098C149.368 141.967 167.496 102.901 196.859 81.963C197.115 81.963 197.37 82.2184 197.625 82.2184C198.902 82.2184 199.923 81.197 199.923 79.9203C199.923 79.1543 199.668 78.6437 198.902 78.133V57.9614L186.136 35.7472H150.389C149.879 35.2365 149.368 34.7258 148.602 34.7258C147.325 34.7258 146.304 35.7472 146.304 37.0239C146.304 37.2792 146.304 37.2792 146.304 37.5345C116.43 63.8342 95.238 101.113 87.0675 143.244C86.3015 143.499 85.7908 144.265 85.7908 145.286C85.7908 146.308 86.8122 147.329 87.8335 147.329ZM126.133 144.01C124.601 144.01 123.58 142.733 123.58 141.456C123.58 139.924 124.601 138.903 126.133 138.903C127.665 138.903 128.686 140.18 128.686 141.456C128.686 141.967 128.431 142.222 128.431 142.733L127.665 141.967C127.665 141.712 127.665 141.712 127.665 141.456C127.665 140.69 126.899 139.924 126.133 139.924C125.367 139.924 124.601 140.69 124.601 141.456C124.601 142.222 125.112 142.988 126.133 142.988L126.899 143.754C126.644 144.01 126.388 144.01 126.133 144.01ZM114.388 189.715C114.388 191.247 113.111 192.524 111.579 192.524C110.047 192.524 108.771 191.247 108.771 189.715C108.771 188.438 109.537 187.417 110.813 186.906V188.438C110.558 188.694 110.303 189.204 110.303 189.715C110.303 190.481 111.068 191.247 111.834 191.247C112.6 191.247 113.366 190.481 113.366 189.715C113.366 189.204 113.111 188.694 112.856 188.438V186.906C113.622 187.417 114.388 188.438 114.388 189.715ZM122.048 205.801C122.048 207.333 120.771 208.61 119.239 208.61C117.707 208.61 116.43 207.333 116.43 205.801C116.43 204.524 117.196 203.503 118.473 202.992V204.524C118.218 204.78 117.962 205.29 117.962 205.801C117.962 206.567 118.728 207.333 119.494 207.333C120.26 207.333 121.026 206.567 121.026 205.801C121.026 205.29 120.771 204.78 120.516 204.524V202.992C121.282 203.503 122.048 204.524 122.048 205.801ZM129.452 221.887C129.452 223.419 128.176 224.696 126.644 224.696C125.112 224.696 123.835 223.419 123.835 221.887C123.835 220.611 124.601 219.589 125.878 219.079V220.611C125.622 220.866 125.367 221.377 125.367 221.887C125.367 222.653 126.133 223.419 126.899 223.419C127.665 223.419 128.431 222.653 128.431 221.887C128.431 221.377 128.176 220.866 127.92 220.611V219.079C128.686 219.589 129.452 220.611 129.452 221.887ZM151.155 234.143C151.155 235.675 149.879 236.697 148.602 236.697C147.07 236.697 146.049 235.42 146.049 234.143C146.049 233.122 146.815 232.101 147.581 231.845V232.867C147.325 233.122 147.07 233.633 147.07 234.143C147.07 234.909 147.836 235.675 148.602 235.675C149.368 235.675 150.134 234.909 150.134 234.143C150.134 233.633 149.879 233.122 149.623 232.867V231.845C150.389 232.356 151.155 233.122 151.155 234.143Z" fill="#E4BFA2"/>
</svg>
