<svg width="295" height="295" viewBox="0 0 295 295" fill="none" xmlns="http://www.w3.org/2000/svg">
<path d="M256.73 147.5C256.73 207.826 207.826 256.73 147.5 256.73V295C228.962 295 295 228.962 295 147.5C295 66.038 228.962 0 147.5 0C66.038 0 0 66.038 0 147.5H38.2703C38.2703 87.1741 87.1741 38.2703 147.5 38.2703C207.826 38.2703 256.73 87.1741 256.73 147.5Z" fill="url(#paint0_linear)"/>
<path d="M75.5741 147.881C75.7793 187.43 107.903 219.426 147.5 219.426C187.224 219.426 219.426 187.224 219.426 147.5C219.426 107.776 187.224 75.5738 147.5 75.5738V50C201.348 50 245 93.6522 245 147.5C245 201.348 201.348 245 147.5 245C93.7788 245 50.2054 201.554 50 147.881H75.5741Z" fill="#4A321F"/>
<defs>
<linearGradient id="paint0_linear" x1="147.5" y1="0" x2="147.5" y2="295" gradientUnits="userSpaceOnUse">
<stop stop-color="#E4BFA2"/>
<stop offset="1" stop-color="#E4BFA2" stop-opacity="0"/>
</linearGradient>
</defs>
</svg>
