<svg width="310" height="589" viewBox="0 0 310 589" fill="none" xmlns="http://www.w3.org/2000/svg">
<g clip-path="url(#clip0)">
<path d="M271.102 317.028V-121.308H264.941H257.846H251.684H244.589H238.428H231.333H225.172H218.077H211.915H204.758H198.597V316.592H164.553H147.376H138.787H136.609L133.808 316.654L130.945 316.717L129.514 316.779L128.02 316.841C120.241 317.216 112.399 318.401 104.744 320.147C97.0888 321.956 89.6205 324.389 82.3388 327.446C80.5339 328.257 78.7291 329.005 76.9865 329.878L71.7586 332.561L66.6552 335.493C64.9748 336.491 63.2944 337.551 61.6763 338.612C55.1414 342.916 48.9178 347.781 43.192 353.146C37.4663 358.51 32.1762 364.374 27.4462 370.612C22.7162 376.912 18.5464 383.587 14.9367 390.573C7.77948 404.608 2.98727 419.891 1.05793 435.548C0.0621499 443.346 -0.249033 451.205 0.0621499 459.065C0.435569 466.925 1.49359 474.785 3.17397 482.457C4.85436 490.13 7.21935 497.74 10.2067 505.038C13.2563 512.337 16.866 519.323 21.0981 525.998C29.5622 539.284 40.2047 551.074 52.5898 560.68C64.9748 570.287 79.0403 577.772 94.0393 582.638C109.038 587.441 124.784 589.624 140.343 589C155.965 588.376 171.586 585.195 186.149 579.207C200.713 573.281 214.218 564.797 225.856 554.318C237.494 543.776 247.328 531.3 254.796 517.389C262.327 503.541 267.243 488.258 269.546 472.664C269.795 470.73 270.106 468.734 270.293 466.8L270.791 460.936C270.853 458.94 270.915 456.944 270.978 454.948V454.2V453.513V452.453V450.27V432.928V389.825H309.875V383.649V376.538V370.362V363.251V357.076V349.964V343.789V336.553V330.315V323.204V317.028H271.102ZM198.597 432.679V450.02V452.203V453.264V453.513V453.701V454.012C198.534 454.886 198.534 455.759 198.534 456.695C198.472 457.63 198.348 458.504 198.285 459.439C198.223 460.375 198.036 461.248 197.912 462.184C197.352 465.802 196.543 469.358 195.423 472.851C195.111 473.724 194.862 474.597 194.489 475.408C194.116 476.282 193.804 477.093 193.493 477.966C193.12 478.777 192.746 479.65 192.373 480.461C191.999 481.272 191.502 482.083 191.128 482.894C187.643 489.319 183.1 495.182 177.623 500.11C172.146 504.976 165.86 508.906 159.139 511.713C155.778 513.085 152.293 514.146 148.745 514.894C145.198 515.643 141.588 516.079 137.916 516.266C130.51 516.516 123.228 515.518 116.32 513.335C109.412 511.089 102.877 507.596 97.0888 503.167C91.3008 498.676 86.3219 493.124 82.401 486.948C80.4095 483.829 78.7291 480.586 77.3599 477.217C75.9907 473.849 74.8704 470.356 74.1236 466.8C73.3145 463.244 72.8166 459.626 72.6921 455.884C72.5677 452.203 72.6921 448.461 73.19 444.843C74.0613 437.544 76.3019 430.496 79.6004 424.008C81.2808 420.764 83.2101 417.646 85.3884 414.714C87.6289 411.782 90.0561 409.037 92.7323 406.542C95.4085 404.047 98.3336 401.739 101.383 399.743C102.192 399.244 102.939 398.745 103.686 398.308C104.495 397.871 105.304 397.435 106.051 396.936C106.86 396.561 107.669 396.125 108.478 395.688C109.287 395.314 110.159 394.94 110.968 394.565C114.328 393.131 117.751 392.008 121.299 391.197C124.846 390.386 128.456 389.825 132.128 389.637L132.813 389.575H133.559H134.991H136.485H138.663H147.314H164.553H198.721V432.679H198.597Z" fill="white"/>
<g clip-path="url(#clip1)">
<g filter="url(#filter0_d)">
<rect x="199" y="316" width="5" height="74" fill="white"/>
</g>
</g>
<g clip-path="url(#clip2)">
<g filter="url(#filter1_d)">
<rect width="5" height="74" transform="matrix(-1 0 0 1 271 316)" fill="white"/>
</g>
</g>
<path d="M264.94 -121.308H271.102V432.928V450.27V452.453V453.513V454.2V454.948C271.04 456.944 270.977 458.94 270.915 460.936L270.417 466.8C270.23 468.734 269.919 470.73 269.67 472.664C267.368 488.258 262.451 503.541 254.92 517.389C247.452 531.237 237.619 543.776 225.98 554.318C214.28 564.797 200.837 573.281 186.273 579.207C171.71 585.195 156.089 588.376 140.467 589C124.908 589.562 109.1 587.378 94.1634 582.638C79.2267 577.772 65.099 570.287 52.7139 560.68C40.2666 551.074 29.6242 539.222 21.2222 525.998C16.9902 519.385 13.3804 512.337 10.3308 505.038C7.34349 497.74 4.97851 490.192 3.29812 482.457C1.61774 474.785 0.559714 466.925 0.186295 459.065C-0.124887 451.205 0.186295 443.346 1.18208 435.548C3.11141 419.891 7.90362 404.608 15.0608 390.573C18.6705 383.587 22.8404 376.85 27.5704 370.612C32.3003 364.374 37.5904 358.51 43.3162 353.146C49.0419 347.781 55.2656 342.916 61.8004 338.612C63.4808 337.551 65.099 336.491 66.7794 335.493L71.8827 332.561L77.1106 329.878C78.8532 329.005 80.6581 328.257 82.463 327.446C89.6824 324.389 97.213 321.894 104.868 320.147C112.523 318.338 120.303 317.216 128.145 316.841L129.638 316.779L131.07 316.717L133.933 316.654L136.733 316.592H138.911H147.5H164.677H199.094V322.767H164.677H147.5H138.911H136.733L134.057 322.83L131.319 322.892L129.949 322.954L128.58 323.017C121.112 323.391 113.706 324.452 106.362 326.198C99.0801 327.882 91.9229 330.253 85.0146 333.185C83.3343 333.933 81.5916 334.682 79.9112 335.493L74.8701 338.05L69.9534 340.795C68.3353 341.73 66.7794 342.791 65.1612 343.789C58.8753 347.906 52.9628 352.522 47.486 357.637C42.0092 362.752 36.9681 368.304 32.4248 374.292C27.8815 380.281 23.8984 386.706 20.4754 393.38C13.6294 406.729 9.02388 421.388 7.21902 436.297C6.28547 443.782 5.97429 451.268 6.28547 458.753C6.65889 466.239 7.65468 473.724 9.27282 481.085C10.891 488.445 13.1315 495.681 15.9944 502.606C18.8572 509.53 22.3425 516.266 26.3879 522.567C34.4164 535.23 44.6232 546.52 56.4481 555.69C68.273 564.86 81.7161 572.033 96.0305 576.649C110.345 581.203 125.406 583.261 140.281 582.762C155.217 582.201 170.092 579.144 184.033 573.405C197.912 567.729 210.795 559.682 221.935 549.639C233.075 539.596 242.411 527.619 249.568 514.395C256.725 501.171 261.455 486.574 263.633 471.728C263.882 469.857 264.194 467.985 264.318 466.114L264.754 460.5C264.816 458.628 264.878 456.695 264.94 454.761V454.075V453.451V452.391V450.207V432.866V-121.308Z" fill="#E4BFA2"/>
<path d="M251.684 -121.308H257.846V432.866V450.207V452.39V453.451C257.846 453.638 257.846 453.825 257.846 454.075V454.761L257.659 460.125L257.223 465.428C257.037 467.174 256.788 468.983 256.539 470.73C254.485 484.765 250.004 498.551 243.282 511.027C236.561 523.565 227.661 534.855 217.205 544.337C206.687 553.818 194.489 561.429 181.357 566.793C168.225 572.158 154.16 575.09 140.032 575.589C125.967 576.088 111.714 574.154 98.2091 569.85C84.7038 565.483 72.0075 558.746 60.805 550.076C49.6024 541.405 39.9557 530.738 32.3629 518.761C28.5665 512.773 25.2679 506.473 22.5295 499.861C19.8533 493.311 17.6751 486.449 16.1814 479.525C14.6255 472.601 13.6919 465.49 13.3807 458.441C13.0696 451.33 13.3807 444.281 14.2521 437.232C15.9947 423.135 20.289 409.287 26.7616 396.686C29.9979 390.386 33.7943 384.335 38.0264 378.659C42.3207 372.982 47.0507 367.742 52.2163 362.877C57.382 358.074 62.9832 353.645 68.8957 349.777C70.3894 348.842 71.8831 347.844 73.3767 346.97L77.9822 344.35L82.7122 341.98C84.3304 341.231 85.9485 340.545 87.5667 339.797C94.1015 336.99 100.823 334.806 107.731 333.184C114.64 331.563 121.672 330.565 128.705 330.19L130.012 330.128H131.319L133.933 330.066L136.485 330.003H138.663H147.251H164.429H198.846V336.179H164.429H147.189H138.601H136.422L133.995 336.241L131.506 336.303H130.261L129.016 336.366C122.295 336.678 115.635 337.676 109.1 339.235C102.566 340.795 96.1553 342.853 89.9316 345.473C88.3757 346.159 86.8198 346.845 85.3261 347.532L80.8451 349.777L76.4263 352.272C74.9949 353.146 73.5634 354.081 72.132 354.955C66.5307 358.635 61.1784 362.814 56.2617 367.368C36.7194 385.645 23.6498 411.158 20.3512 437.981C19.5422 444.655 19.231 451.392 19.5422 458.129C19.8533 464.866 20.7247 471.603 22.2183 478.153C23.6498 484.765 25.7036 491.19 28.2553 497.49C30.8692 503.728 33.981 509.717 37.5907 515.393C44.8102 526.746 53.9589 536.914 64.6014 545.148C75.2438 553.382 87.2555 559.807 100.076 563.924C112.897 567.978 126.402 569.85 139.783 569.413C153.164 568.914 166.545 566.169 178.992 561.054C191.439 556.002 203.015 548.703 213.035 539.721C222.993 530.676 231.457 519.947 237.806 508.095C244.216 496.243 248.448 483.143 250.44 469.794C250.626 468.11 250.937 466.426 251.062 464.804L251.498 459.751L251.684 454.636V454.012C251.684 453.825 251.684 453.576 251.684 453.388V452.328V450.145V432.803V-121.308Z" fill="#E4BFA2"/>
<path d="M238.428 -121.308H244.589V432.804V450.145V452.328V453.389C244.589 453.763 244.589 454.2 244.589 454.574L244.403 459.377L244.029 464.118C243.905 465.677 243.656 467.237 243.407 468.859C241.54 481.397 237.619 493.623 231.582 504.789C225.607 515.955 217.703 526.06 208.306 534.481C198.908 542.902 188.079 549.702 176.378 554.505C164.678 559.308 152.106 561.865 139.534 562.364C126.962 562.801 114.266 561.055 102.255 557.249C90.2429 553.382 78.9159 547.331 68.958 539.596C58.938 531.861 50.4116 522.317 43.6278 511.65C40.267 506.286 37.2797 500.672 34.8524 494.808C32.4252 488.945 30.5581 482.894 29.1889 476.656C27.8197 470.48 26.9484 464.18 26.6995 457.818C26.4505 451.517 26.6995 445.155 27.5085 438.854C30.6204 413.653 42.8809 389.762 61.4274 372.608C66.0329 368.304 71.0118 364.374 76.3019 360.943C77.6089 360.132 78.9781 359.259 80.3473 358.448L84.4549 356.14L88.687 354.019C90.1185 353.333 91.5499 352.709 92.9813 352.085C98.7693 349.59 104.806 347.656 110.968 346.222C117.129 344.787 123.353 343.851 129.701 343.539L130.883 343.477H132.066L134.431 343.415L136.734 343.352H138.912H147.501H164.74H199.157V349.528H164.678H147.438H138.85H136.671L134.431 349.59L132.19 349.653H131.07L129.95 349.715C124.037 350.027 118.125 350.9 112.275 352.21C106.487 353.582 100.823 355.454 95.3463 357.762C93.9771 358.386 92.6079 358.947 91.3009 359.571L87.3178 361.567L83.4592 363.75C82.1522 364.499 80.9075 365.31 79.6627 366.121C74.6838 369.364 69.9538 373.107 65.5973 377.162C61.2407 381.216 57.2576 385.645 53.6479 390.448C50.0381 395.189 46.8641 400.304 44.1879 405.606C38.7733 416.211 35.1014 427.813 33.6699 439.665C32.9231 445.591 32.6742 451.58 32.9231 457.568C33.1721 463.556 33.9811 469.482 35.2881 475.346C36.5951 481.21 38.3377 486.886 40.6404 492.438C42.9432 497.927 45.6816 503.292 48.9179 508.282C55.3282 518.325 63.419 527.37 72.8789 534.668C82.2767 541.967 92.9813 547.643 104.308 551.323C115.635 554.941 127.585 556.626 139.472 556.189C151.359 555.69 163.184 553.319 174.2 548.766C185.216 544.275 195.485 537.85 204.322 529.865C213.16 521.881 220.628 512.337 226.292 501.857C232.018 491.377 235.69 479.775 237.432 467.985C237.619 466.488 237.868 465.053 237.992 463.556L238.366 459.065L238.49 454.574C238.553 453.825 238.49 453.077 238.49 452.391V450.207V432.866V-121.308H238.428Z" fill="#E4BFA2"/>
<path d="M225.172 -121.308H231.333V432.804V450.082V452.266C231.333 453.014 231.333 453.7 231.333 454.387L231.209 458.566L230.835 462.745C230.711 464.118 230.462 465.49 230.337 466.862C228.719 477.841 225.234 488.633 219.944 498.364C214.654 508.157 207.745 517.015 199.468 524.5C191.19 531.924 181.668 537.912 171.399 542.091C161.13 546.333 150.114 548.516 139.036 549.015C127.958 549.39 116.818 547.892 106.3 544.524C95.7819 541.093 85.8241 535.853 77.0487 529.054C68.2734 522.255 60.7428 513.896 54.7681 504.477C51.7807 499.798 49.229 494.808 47.0507 489.693C44.9347 484.516 43.2543 479.213 42.0718 473.786C40.8893 468.359 40.1425 462.808 39.8935 457.256C39.6446 451.704 39.8935 446.09 40.5781 440.601C41.9473 429.56 45.3081 418.768 50.3493 408.912C52.901 403.984 55.8261 399.244 59.1869 394.815C62.5476 390.386 66.2818 386.269 70.3272 382.464C74.3726 378.659 78.7914 375.228 83.3969 372.171C84.5794 371.423 85.6996 370.674 86.9443 369.988L90.5541 367.93L94.2883 366.058C95.533 365.434 96.84 364.935 98.0847 364.374C103.188 362.191 108.478 360.506 113.831 359.197C119.245 357.949 124.722 357.138 130.261 356.826L131.319 356.764H132.377L134.431 356.701L136.547 356.639H138.725H147.314H164.553H199.032V362.814H164.553H147.314H138.663H136.485L134.493 362.877L132.501 362.939H131.506L130.51 363.002C125.344 363.251 120.179 364 115.137 365.185C110.096 366.37 105.18 367.992 100.387 369.988C99.2049 370.549 98.0224 371.048 96.84 371.61L93.3547 373.357L89.9939 375.29C88.8737 375.976 87.8157 376.663 86.6954 377.349C82.3388 380.218 78.2312 383.399 74.4348 386.955C70.6384 390.511 67.1531 394.378 63.9791 398.495C60.8673 402.675 58.0666 407.103 55.7016 411.719C51.0961 420.889 47.9221 430.995 46.6773 441.349C46.055 446.527 45.806 451.767 45.9927 456.944C46.2417 462.184 46.9263 467.299 48.0465 472.414C49.1668 477.467 50.7227 482.457 52.7143 487.26C54.7058 492.063 57.1331 496.679 59.9337 501.108C65.535 509.904 72.5677 517.763 80.7829 524.064C88.9982 530.426 98.2714 535.354 108.167 538.536C118.063 541.655 128.456 543.152 138.85 542.777C149.181 542.341 159.512 540.282 169.097 536.352C178.681 532.423 187.643 526.871 195.36 519.884C203.078 512.898 209.55 504.602 214.529 495.432C219.508 486.262 222.682 476.219 224.238 465.927C224.425 464.617 224.611 463.369 224.736 462.059L225.047 458.192L225.172 454.324C225.172 454.012 225.172 453.7 225.172 453.326V452.266V450.082V432.741V-121.308Z" fill="#E4BFA2"/>
<path d="M211.915 -121.308H218.077V432.741V450.082V452.266V453.326C218.077 453.513 218.077 453.638 218.077 453.825V454.262L217.952 457.817L217.641 461.435C217.516 462.621 217.33 463.806 217.205 464.991C215.774 474.473 212.849 483.705 208.243 492.126C203.7 500.547 197.725 508.22 190.63 514.645C183.473 521.007 175.258 526.185 166.42 529.803C157.583 533.421 148.123 535.354 138.601 535.729C129.016 536.103 119.432 534.731 110.345 531.861C101.259 528.929 92.7323 524.376 85.1394 518.512C77.5466 512.648 71.074 505.412 65.9084 497.366C63.3567 493.311 61.1162 489.069 59.3113 484.64C57.5064 480.211 56.075 475.658 55.017 470.979C53.959 466.301 53.3366 461.56 53.1499 456.757C52.9632 451.954 53.1499 447.151 53.7722 442.347C54.8925 432.804 57.8799 423.571 62.1742 415.026C64.3525 410.784 66.9041 406.667 69.767 402.862C72.6921 399.057 75.8662 395.501 79.4137 392.195C82.8989 388.951 86.6953 385.957 90.6785 383.337C91.6743 382.713 92.6701 382.027 93.7281 381.466L96.8399 379.719L100.014 378.097C101.072 377.598 102.192 377.099 103.25 376.6C107.669 374.729 112.212 373.232 116.818 372.171C121.486 371.111 126.216 370.362 130.945 370.175L131.817 370.113H132.75H134.555L136.422 370.05H138.601H147.251H164.491H198.97V376.226H164.429H147.189H138.538H136.36L134.617 376.288H132.937H132.066L131.257 376.351C126.838 376.538 122.481 377.224 118.187 378.222C113.893 379.22 109.723 380.592 105.615 382.339C104.619 382.776 103.561 383.212 102.628 383.711L99.6405 385.208L96.7777 386.83C95.8441 387.392 94.9106 388.016 93.977 388.577C90.3051 391.01 86.7576 393.754 83.5213 396.749C80.285 399.743 77.2976 403.049 74.6215 406.604C71.9453 410.16 69.5803 413.903 67.5887 417.895C63.5434 425.755 60.8672 434.301 59.8092 443.158C59.2491 447.587 59.0623 452.016 59.2491 456.507C59.4358 460.936 60.0581 465.365 60.9917 469.669C61.9252 473.974 63.2944 478.215 64.9126 482.332C66.593 486.449 68.6468 490.379 71.074 494.122C75.804 501.607 81.8409 508.344 88.8736 513.709C95.9064 519.136 103.81 523.315 112.15 526.06C120.552 528.742 129.39 529.99 138.289 529.615C147.127 529.241 155.902 527.495 164.055 524.126C172.208 520.82 179.801 516.017 186.46 510.091C193.058 504.165 198.597 497.054 202.766 489.256C206.998 481.459 209.737 472.913 211.044 464.18C211.168 463.057 211.355 461.997 211.48 460.874L211.791 457.568L211.915 454.324V453.888C211.915 453.763 211.915 453.638 211.915 453.451V452.391V450.207V432.866V-121.308Z" fill="#E4BFA2"/>
<path d="M198.597 -121.308H204.758V432.679V450.02V452.203V453.264C204.758 453.451 204.758 453.576 204.758 453.7V454.075L204.633 457.006C204.509 458.005 204.447 459.003 204.385 460.001C204.322 460.999 204.136 461.997 204.011 462.995C202.829 470.917 200.339 478.652 196.543 485.763C192.746 492.812 187.705 499.237 181.73 504.664C175.756 510.028 168.848 514.333 161.441 517.389C157.769 518.886 153.911 520.071 149.99 520.882C146.069 521.693 142.086 522.192 138.103 522.379C130.012 522.691 121.983 521.506 114.391 519.136C106.798 516.641 99.6405 512.836 93.2924 507.97C86.9443 503.042 81.4675 496.991 77.1732 490.192C74.9949 486.824 73.1278 483.206 71.6341 479.525C70.1404 475.782 68.8957 471.977 68.0866 468.047C67.2153 464.118 66.6552 460.125 66.4685 456.071C66.344 452.016 66.4685 447.962 66.9664 443.969C67.8999 435.985 70.3894 428.25 73.9991 421.076C75.804 417.521 77.9822 414.09 80.3472 410.846C82.7744 407.665 85.5128 404.671 88.438 401.926C91.3631 399.181 94.5371 396.686 97.8979 394.503C98.7692 394.004 99.5783 393.38 100.45 392.881L103.064 391.384C103.935 390.947 104.868 390.511 105.74 390.012C106.611 389.575 107.545 389.201 108.478 388.764C112.15 387.205 115.946 385.957 119.867 385.021C123.726 384.086 127.709 383.524 131.755 383.337L132.501 383.275H133.31H134.866L136.485 383.212H138.663H147.314H164.553H199.094V389.388H164.553H147.314H138.663H136.485H134.991H133.559H132.813L132.128 389.45C128.456 389.637 124.846 390.136 121.299 391.01C117.751 391.821 114.328 392.943 110.968 394.378C110.159 394.752 109.287 395.127 108.478 395.501C107.669 395.938 106.86 396.312 106.051 396.749C105.242 397.185 104.495 397.684 103.686 398.121C102.877 398.557 102.13 399.119 101.383 399.556C98.3336 401.552 95.4084 403.86 92.7323 406.355C90.0561 408.85 87.5666 411.595 85.3884 414.526C83.2101 417.458 81.2185 420.577 79.6004 423.821C76.3018 430.308 74.0613 437.357 73.19 444.655C72.7544 448.273 72.5677 452.016 72.6921 455.696C72.8788 459.377 73.3767 462.995 74.1236 466.613C74.9326 470.168 75.9907 473.662 77.3599 477.03C78.7913 480.398 80.4717 483.642 82.401 486.761C86.3219 492.937 91.3008 498.488 97.0888 502.98C102.877 507.471 109.412 510.902 116.32 513.147C123.228 515.331 130.572 516.391 137.916 516.079C141.588 515.954 145.198 515.455 148.745 514.707C152.293 513.958 155.778 512.898 159.139 511.526C165.86 508.781 172.146 504.851 177.623 499.923C183.037 494.995 187.643 489.132 191.128 482.707C191.502 481.896 192 481.085 192.373 480.274C192.746 479.463 193.12 478.59 193.493 477.779C193.804 476.905 194.178 476.094 194.489 475.221C194.8 474.348 195.049 473.474 195.423 472.664C196.543 469.17 197.414 465.615 197.912 461.997C198.036 461.061 198.161 460.188 198.285 459.252C198.348 458.316 198.41 457.443 198.534 456.507C198.534 455.634 198.597 454.761 198.597 453.825V453.513V453.326V453.077V452.016V449.833V432.492V-121.308Z" fill="#E4BFA2"/>
<path d="M310 317.028H270.915V323.204H310V317.028Z" fill="#E4BFA2"/>
<path d="M310 330.315H270.915V336.49H310V330.315Z" fill="#E4BFA2"/>
<path d="M310 343.664H270.915V349.839H310V343.664Z" fill="#E4BFA2"/>
<path d="M310 357.013H270.915V363.189H310V357.013Z" fill="#E4BFA2"/>
<path d="M310 370.3H270.915V376.475H310V370.3Z" fill="#E4BFA2"/>
<path d="M310 383.649H270.915V389.824H310V383.649Z" fill="#E4BFA2"/>
</g>
<defs>
<filter id="filter0_d" x="151" y="268" width="101" height="170" filterUnits="userSpaceOnUse" color-interpolation-filters="sRGB">
<feFlood flood-opacity="0" result="BackgroundImageFix"/>
<feColorMatrix in="SourceAlpha" type="matrix" values="0 0 0 0 0 0 0 0 0 0 0 0 0 0 0 0 0 0 127 0"/>
<feOffset/>
<feGaussianBlur stdDeviation="24"/>
<feColorMatrix type="matrix" values="0 0 0 0 0.258333 0 0 0 0 0.165405 0 0 0 0 0.0925694 0 0 0 1 0"/>
<feBlend mode="normal" in2="BackgroundImageFix" result="effect1_dropShadow"/>
<feBlend mode="normal" in="SourceGraphic" in2="effect1_dropShadow" result="shape"/>
</filter>
<filter id="filter1_d" x="218" y="268" width="101" height="170" filterUnits="userSpaceOnUse" color-interpolation-filters="sRGB">
<feFlood flood-opacity="0" result="BackgroundImageFix"/>
<feColorMatrix in="SourceAlpha" type="matrix" values="0 0 0 0 0 0 0 0 0 0 0 0 0 0 0 0 0 0 127 0"/>
<feOffset/>
<feGaussianBlur stdDeviation="24"/>
<feColorMatrix type="matrix" values="0 0 0 0 0.258333 0 0 0 0 0.165405 0 0 0 0 0.0925694 0 0 0 1 0"/>
<feBlend mode="normal" in2="BackgroundImageFix" result="effect1_dropShadow"/>
<feBlend mode="normal" in="SourceGraphic" in2="effect1_dropShadow" result="shape"/>
</filter>
<clipPath id="clip0">
<rect width="310" height="589" fill="white"/>
</clipPath>
<clipPath id="clip1">
<rect x="143" y="317" width="61" height="73" fill="white"/>
</clipPath>
<clipPath id="clip2">
<rect width="61" height="73" transform="matrix(-1 0 0 1 327 317)" fill="white"/>
</clipPath>
</defs>
</svg>
