<svg width="80" height="80" viewBox="0 0 80 80" fill="none" xmlns="http://www.w3.org/2000/svg">
<path d="M68.75 10H63.75V7.5C63.75 6.17392 63.2232 4.90215 62.2855 3.96447C61.3479 3.02678 60.0761 2.5 58.75 2.5C57.4239 2.5 56.1521 3.02678 55.2145 3.96447C54.2768 4.90215 53.75 6.17392 53.75 7.5V10H43.75V7.5C43.75 6.17392 43.2232 4.90215 42.2855 3.96447C41.3479 3.02678 40.0761 2.5 38.75 2.5C37.4239 2.5 36.1521 3.02678 35.2145 3.96447C34.2768 4.90215 33.75 6.17392 33.75 7.5V10H23.75V7.5C23.75 6.17392 23.2232 4.90215 22.2855 3.96447C21.3479 3.02678 20.0761 2.5 18.75 2.5C17.4239 2.5 16.1521 3.02678 15.2145 3.96447C14.2768 4.90215 13.75 6.17392 13.75 7.5V10H8.75C7.09301 10.002 5.50445 10.6611 4.33277 11.8328C3.1611 13.0044 2.50198 14.593 2.5 16.25V68.75C2.50198 70.407 3.1611 71.9956 4.33277 73.1672C5.50445 74.3389 7.09301 74.998 8.75 75H46.25C46.5815 75 46.8995 74.8683 47.1339 74.6339C47.3683 74.3995 47.5 74.0815 47.5 73.75C47.5 73.4185 47.3683 73.1005 47.1339 72.8661C46.8995 72.6317 46.5815 72.5 46.25 72.5H8.75C7.75544 72.5 6.80161 72.1049 6.09835 71.4016C5.39509 70.6984 5 69.7446 5 68.75V27.5H72.5V45C72.5 45.3315 72.6317 45.6495 72.8661 45.8839C73.1005 46.1183 73.4185 46.25 73.75 46.25C74.0815 46.25 74.3995 46.1183 74.6339 45.8839C74.8683 45.6495 75 45.3315 75 45V16.25C74.998 14.593 74.3389 13.0044 73.1672 11.8328C71.9956 10.6611 70.407 10.002 68.75 10ZM56.25 7.5C56.25 6.83696 56.5134 6.20107 56.9822 5.73223C57.4511 5.26339 58.087 5 58.75 5C59.413 5 60.0489 5.26339 60.5178 5.73223C60.9866 6.20107 61.25 6.83696 61.25 7.5V15C61.25 15.663 60.9866 16.2989 60.5178 16.7678C60.0489 17.2366 59.413 17.5 58.75 17.5C58.087 17.5 57.4511 17.2366 56.9822 16.7678C56.5134 16.2989 56.25 15.663 56.25 15V7.5ZM36.25 7.5C36.25 6.83696 36.5134 6.20107 36.9822 5.73223C37.4511 5.26339 38.087 5 38.75 5C39.413 5 40.0489 5.26339 40.5178 5.73223C40.9866 6.20107 41.25 6.83696 41.25 7.5V15C41.25 15.663 40.9866 16.2989 40.5178 16.7678C40.0489 17.2366 39.413 17.5 38.75 17.5C38.087 17.5 37.4511 17.2366 36.9822 16.7678C36.5134 16.2989 36.25 15.663 36.25 15V7.5ZM16.25 7.5C16.25 6.83696 16.5134 6.20107 16.9822 5.73223C17.4511 5.26339 18.087 5 18.75 5C19.413 5 20.0489 5.26339 20.5178 5.73223C20.9866 6.20107 21.25 6.83696 21.25 7.5V15C21.25 15.663 20.9866 16.2989 20.5178 16.7678C20.0489 17.2366 19.413 17.5 18.75 17.5C18.087 17.5 17.4511 17.2366 16.9822 16.7678C16.5134 16.2989 16.25 15.663 16.25 15V7.5ZM5 25V16.25C5 15.2554 5.39509 14.3016 6.09835 13.5983C6.80161 12.8951 7.75544 12.5 8.75 12.5H13.75V15C13.75 16.3261 14.2768 17.5979 15.2145 18.5355C16.1521 19.4732 17.4239 20 18.75 20C20.0761 20 21.3479 19.4732 22.2855 18.5355C23.2232 17.5979 23.75 16.3261 23.75 15V12.5H33.75V15C33.75 16.3261 34.2768 17.5979 35.2145 18.5355C36.1521 19.4732 37.4239 20 38.75 20C40.0761 20 41.3479 19.4732 42.2855 18.5355C43.2232 17.5979 43.75 16.3261 43.75 15V12.5H53.75V15C53.75 16.3261 54.2768 17.5979 55.2145 18.5355C56.1521 19.4732 57.4239 20 58.75 20C60.0761 20 61.3479 19.4732 62.2855 18.5355C63.2232 17.5979 63.75 16.3261 63.75 15V12.5H68.75C69.7446 12.5 70.6984 12.8951 71.4016 13.5983C72.1049 14.3016 72.5 15.2554 72.5 16.25V25H5Z" fill="#4A321F"/>
<path d="M76.25 51.2499C76.5815 51.2499 76.8995 51.1182 77.1339 50.8838C77.3683 50.6494 77.5 50.3314 77.5 49.9999C77.5 49.6684 77.3683 49.3504 77.1339 49.116C76.8995 48.8816 76.5815 48.7499 76.25 48.7499H71.25C70.9185 48.7499 70.6005 48.8816 70.3661 49.116C70.1317 49.3504 70 49.6684 70 49.9999V54.9999C70 55.3314 70.1317 55.6494 70.3661 55.8838C70.6005 56.1182 70.9185 56.2499 71.25 56.2499C71.5815 56.2499 71.8995 56.1182 72.1339 55.8838C72.3683 55.6494 72.5 55.3314 72.5 54.9999V53.3661C74.378 56.0562 75.2298 59.3302 74.9009 62.5943C74.5721 65.8585 73.0843 68.8968 70.7075 71.1582C68.3306 73.4195 65.2221 74.7543 61.9456 74.9203C58.6691 75.0864 55.4415 74.0727 52.8483 72.0632C50.255 70.0537 48.4677 67.1814 47.8106 63.9672C47.1534 60.753 47.6699 57.4096 49.2663 54.5435C50.8627 51.6774 53.4334 49.4783 56.5121 48.345C59.5909 47.2117 62.9738 47.2192 66.0475 48.3661C66.3583 48.4822 66.7025 48.47 67.0043 48.3323C67.3061 48.1945 67.5409 47.9426 67.6569 47.6318C67.7729 47.321 67.7607 46.9768 67.623 46.675C67.4853 46.3732 67.2333 46.1384 66.9225 46.0224C63.2426 44.6442 59.1883 44.6442 55.5084 46.0224C51.8285 47.4005 48.7715 50.0637 46.9022 53.5201C45.0328 56.9765 44.4773 60.9925 45.3383 64.8266C46.1992 68.6606 48.4185 72.0536 51.5861 74.3789C54.7538 76.7041 58.6559 77.8046 62.5717 77.4771C66.4876 77.1496 70.1526 75.4162 72.89 72.597C75.6274 69.7778 77.2521 66.0633 77.4642 62.1395C77.6763 58.2157 76.4613 54.3477 74.0438 51.2499H76.25Z" fill="#4A321F"/>
<path d="M62.5 57.73V51.25C62.5 50.9185 62.3683 50.6005 62.1339 50.3661C61.8995 50.1317 61.5815 50 61.25 50C60.9185 50 60.6005 50.1317 60.3661 50.3661C60.1317 50.6005 60 50.9185 60 51.25V57.73C59.4772 57.9167 59.0024 58.2172 58.6098 58.6098C58.2172 59.0024 57.9167 59.4772 57.73 60H53.75C53.4185 60 53.1005 60.1317 52.8661 60.3661C52.6317 60.6005 52.5 60.9185 52.5 61.25C52.5 61.5815 52.6317 61.8995 52.8661 62.1339C53.1005 62.3683 53.4185 62.5 53.75 62.5H57.73C57.9397 63.0968 58.2974 63.6307 58.7695 64.0518C59.2416 64.4728 59.8127 64.7673 60.4296 64.9077C61.0464 65.048 61.6887 65.0297 62.2966 64.8543C62.9044 64.679 63.4578 64.3524 63.9051 63.9051C64.3524 63.4578 64.679 62.9044 64.8543 62.2966C65.0297 61.6887 65.048 61.0464 64.9077 60.4296C64.7673 59.8127 64.4728 59.2416 64.0518 58.7695C63.6307 58.2974 63.0968 57.9397 62.5 57.73ZM61.25 62.5C61.0028 62.5 60.7611 62.4267 60.5555 62.2893C60.35 62.152 60.1898 61.9568 60.0952 61.7284C60.0005 61.4999 59.9758 61.2486 60.024 61.0061C60.0722 60.7637 60.1913 60.5409 60.3661 60.3661C60.5409 60.1913 60.7637 60.0722 61.0061 60.024C61.2486 59.9758 61.4999 60.0005 61.7284 60.0952C61.9568 60.1898 62.152 60.35 62.2893 60.5555C62.4267 60.7611 62.5 61.0028 62.5 61.25C62.5 61.5815 62.3683 61.8995 62.1339 62.1339C61.8995 62.3683 61.5815 62.5 61.25 62.5Z" fill="#4A321F"/>
<path d="M33.75 41.25H28.75C28.087 41.25 27.4511 40.9866 26.9822 40.5178C26.5134 40.0489 26.25 39.413 26.25 38.75V35C26.25 34.337 26.5134 33.7011 26.9822 33.2322C27.4511 32.7634 28.087 32.5 28.75 32.5H33.75C34.413 32.5 35.0489 32.7634 35.5178 33.2322C35.9866 33.7011 36.25 34.337 36.25 35V38.75C36.25 39.413 35.9866 40.0489 35.5178 40.5178C35.0489 40.9866 34.413 41.25 33.75 41.25ZM28.75 35V38.75H33.75V35H28.75Z" fill="#4A321F"/>
<path d="M48.75 41.25H43.75C43.087 41.25 42.4511 40.9866 41.9822 40.5178C41.5134 40.0489 41.25 39.413 41.25 38.75V35C41.25 34.337 41.5134 33.7011 41.9822 33.2322C42.4511 32.7634 43.087 32.5 43.75 32.5H48.75C49.413 32.5 50.0489 32.7634 50.5178 33.2322C50.9866 33.7011 51.25 34.337 51.25 35V38.75C51.25 39.413 50.9866 40.0489 50.5178 40.5178C50.0489 40.9866 49.413 41.25 48.75 41.25ZM43.75 35V38.75H48.75V35H43.75Z" fill="#4A321F"/>
<path d="M18.75 41.25H13.75C13.087 41.25 12.4511 40.9866 11.9822 40.5178C11.5134 40.0489 11.25 39.413 11.25 38.75V35C11.25 34.337 11.5134 33.7011 11.9822 33.2322C12.4511 32.7634 13.087 32.5 13.75 32.5H18.75C19.413 32.5 20.0489 32.7634 20.5178 33.2322C20.9866 33.7011 21.25 34.337 21.25 35V38.75C21.25 39.413 20.9866 40.0489 20.5178 40.5178C20.0489 40.9866 19.413 41.25 18.75 41.25ZM13.75 35V38.75H18.75V35H13.75Z" fill="#4A321F"/>
<path d="M63.75 41.25H58.75C58.087 41.25 57.4511 40.9866 56.9822 40.5178C56.5134 40.0489 56.25 39.413 56.25 38.75V35C56.25 34.337 56.5134 33.7011 56.9822 33.2322C57.4511 32.7634 58.087 32.5 58.75 32.5H63.75C64.413 32.5 65.0489 32.7634 65.5178 33.2322C65.9866 33.7011 66.25 34.337 66.25 35V38.75C66.25 39.413 65.9866 40.0489 65.5178 40.5178C65.0489 40.9866 64.413 41.25 63.75 41.25ZM58.75 35V38.75H63.75V35H58.75Z" fill="#4A321F"/>
<path d="M33.75 55H28.75C28.087 55 27.4511 54.7366 26.9822 54.2678C26.5134 53.7989 26.25 53.163 26.25 52.5V48.75C26.25 48.087 26.5134 47.4511 26.9822 46.9822C27.4511 46.5134 28.087 46.25 28.75 46.25H33.75C34.413 46.25 35.0489 46.5134 35.5178 46.9822C35.9866 47.4511 36.25 48.087 36.25 48.75V52.5C36.25 53.163 35.9866 53.7989 35.5178 54.2678C35.0489 54.7366 34.413 55 33.75 55ZM28.75 48.75V52.5H33.75V48.75H28.75Z" fill="#4A321F"/>
<path d="M43.75 55C43.087 55 42.4511 54.7366 41.9822 54.2678C41.5134 53.7989 41.25 53.163 41.25 52.5V48.75C41.25 48.087 41.5134 47.4511 41.9822 46.9822C42.4511 46.5134 43.087 46.25 43.75 46.25H47.5C47.8315 46.25 48.1495 46.3817 48.3839 46.6161C48.6183 46.8505 48.75 47.1685 48.75 47.5C48.75 47.8315 48.6183 48.1495 48.3839 48.3839C48.1495 48.6183 47.8315 48.75 47.5 48.75H43.75V52.5C44.0815 52.5 44.3995 52.6317 44.6339 52.8661C44.8683 53.1005 45 53.4185 45 53.75C45 54.0815 44.8683 54.3995 44.6339 54.6339C44.3995 54.8683 44.0815 55 43.75 55Z" fill="#4A321F"/>
<path d="M18.75 55H13.75C13.087 55 12.4511 54.7366 11.9822 54.2678C11.5134 53.7989 11.25 53.163 11.25 52.5V48.75C11.25 48.087 11.5134 47.4511 11.9822 46.9822C12.4511 46.5134 13.087 46.25 13.75 46.25H18.75C19.413 46.25 20.0489 46.5134 20.5178 46.9822C20.9866 47.4511 21.25 48.087 21.25 48.75V52.5C21.25 53.163 20.9866 53.7989 20.5178 54.2678C20.0489 54.7366 19.413 55 18.75 55ZM13.75 48.75V52.5H18.75V48.75H13.75Z" fill="#4A321F"/>
<path d="M33.75 68.75H28.75C28.087 68.75 27.4511 68.4866 26.9822 68.0178C26.5134 67.5489 26.25 66.913 26.25 66.25V62.5C26.25 61.837 26.5134 61.2011 26.9822 60.7322C27.4511 60.2634 28.087 60 28.75 60H33.75C34.413 60 35.0489 60.2634 35.5178 60.7322C35.9866 61.2011 36.25 61.837 36.25 62.5V66.25C36.25 66.913 35.9866 67.5489 35.5178 68.0178C35.0489 68.4866 34.413 68.75 33.75 68.75ZM28.75 62.5V66.25H33.75V62.5H28.75Z" fill="#4A321F"/>
<path d="M18.75 68.75H13.75C13.087 68.75 12.4511 68.4866 11.9822 68.0178C11.5134 67.5489 11.25 66.913 11.25 66.25V62.5C11.25 61.837 11.5134 61.2011 11.9822 60.7322C12.4511 60.2634 13.087 60 13.75 60H18.75C19.413 60 20.0489 60.2634 20.5178 60.7322C20.9866 61.2011 21.25 61.837 21.25 62.5V66.25C21.25 66.913 20.9866 67.5489 20.5178 68.0178C20.0489 68.4866 19.413 68.75 18.75 68.75ZM13.75 62.5V66.25H18.75V62.5H13.75Z" fill="#4A321F"/>
</svg>
