<svg >
    <symbol id="insta" viewBox="0 0 20 20" xmlns="http://www.w3.org/2000/svg">
        <g>
            <path d="M2.56196 -0.000539565H17.437C17.7759 -0.0096173 18.1132 0.0504584 18.4282 0.176023C18.7432 0.301587 19.0294 0.490008 19.2691 0.729792C19.5089 0.969575 19.6973 1.25569 19.8229 1.5707C19.9485 1.8857 20.0085 2.22298 19.9995 2.56196V17.437C20.0085 17.7759 19.9485 18.1132 19.8229 18.4282C19.6973 18.7432 19.5089 19.0293 19.2691 19.2691C19.0294 19.5089 18.7432 19.6973 18.4282 19.8229C18.1132 19.9485 17.7759 20.0085 17.437 19.9995H2.56196C2.22298 20.0085 1.8857 19.9485 1.5707 19.8229C1.2557 19.6973 0.969579 19.5089 0.729796 19.2691C0.490012 19.0293 0.301591 18.7432 0.176027 18.4282C0.0504622 18.1132 -0.00961349 17.7759 -0.00053575 17.437V2.56196C-0.00961349 2.22298 0.0504622 1.8857 0.176027 1.5707C0.301591 1.25569 0.490012 0.969575 0.729796 0.729792C0.969579 0.490008 1.2557 0.301587 1.5707 0.176023C1.8857 0.0504584 2.22298 -0.0096173 2.56196 -0.000539565ZM14.562 2.21821C14.3216 2.21821 14.0911 2.31369 13.9211 2.48364C13.7512 2.6536 13.6557 2.88411 13.6557 3.12446V5.28071C13.6557 5.52106 13.7512 5.75157 13.9211 5.92153C14.0911 6.09148 14.3216 6.18696 14.562 6.18696H16.812C17.0523 6.18696 17.2828 6.09148 17.4528 5.92153C17.6227 5.75157 17.7182 5.52106 17.7182 5.28071V3.12446C17.7182 2.88411 17.6227 2.6536 17.4528 2.48364C17.2828 2.31369 17.0523 2.21821 16.812 2.21821H14.562ZM17.7495 8.46821H15.9995C16.1634 9.02649 16.2475 9.60513 16.2495 10.187C16.2495 13.4995 13.4682 16.2182 10.0307 16.2182C6.59321 16.2182 3.81196 13.5307 3.81196 10.187C3.8139 9.60513 3.89806 9.02649 4.06196 8.46821H2.21821V16.9057C2.21721 17.0086 2.23674 17.1106 2.27564 17.2059C2.31455 17.3011 2.37206 17.3876 2.4448 17.4604C2.51755 17.5331 2.60407 17.5906 2.69931 17.6295C2.79455 17.6684 2.89659 17.688 2.99946 17.687H16.937C17.0398 17.688 17.1419 17.6684 17.2371 17.6295C17.3324 17.5906 17.4189 17.5331 17.4916 17.4604C17.5644 17.3876 17.6219 17.3011 17.6608 17.2059C17.6997 17.1106 17.7192 17.0086 17.7182 16.9057L17.7495 8.46821ZM10.0307 6.06196C8.97865 6.04716 7.96362 6.44999 7.208 7.18217C6.45239 7.91436 6.0178 8.9162 5.99946 9.96821C6.00921 10.4875 6.12128 10.9998 6.32924 11.4757C6.53721 11.9516 6.83699 12.3818 7.21143 12.7418C7.58587 13.1017 8.02762 13.3843 8.51139 13.5732C8.99515 13.7622 9.51145 13.854 10.0307 13.8432C11.0828 13.858 12.0978 13.4552 12.8534 12.723C13.609 11.9908 14.0436 10.989 14.062 9.93696C14.0522 9.41767 13.9401 8.90541 13.7322 8.42948C13.5242 7.95356 13.2244 7.52332 12.85 7.1634C12.4756 6.80347 12.0338 6.52092 11.55 6.33192C11.0663 6.14292 10.55 6.05119 10.0307 6.06196Z"/>
        </g>
    </symbol>
    <symbol id="fb" viewBox="0 0 20 20" xmlns="http://www.w3.org/2000/svg">
        <g>
            <path d="M18.125 0H1.875C1.37818 0.00148381 0.902124 0.199504 0.550814 0.550814C0.199504 0.902124 0.00148381 1.37818 0 1.875L0 18.125C0.00148381 18.6218 0.199504 19.0979 0.550814 19.4492C0.902124 19.8005 1.37818 19.9985 1.875 20H10.625V11.875H8.4375V8.75H10.625V7.1875C10.6756 5.43563 11.1287 3.87687 14.0997 3.75H16.5625V6.8475H14.4806C14.3481 6.83956 14.2154 6.8585 14.0904 6.90318C13.9654 6.94787 13.8507 7.01737 13.7532 7.10752C13.6558 7.19767 13.5776 7.30659 13.5233 7.42774C13.4691 7.5489 13.4399 7.67977 13.4375 7.8125V8.75H16.5625L16.0294 11.875H13.4375V20H18.125C18.6218 19.9985 19.0979 19.8005 19.4492 19.4492C19.8005 19.0979 19.9985 18.6218 20 18.125V1.875C19.9985 1.37818 19.8005 0.902124 19.4492 0.550814C19.0979 0.199504 18.6218 0.00148381 18.125 0V0Z"/>
        </g>
    </symbol>

    <symbol id="vk" viewBox="0 0 20 13" xmlns="http://www.w3.org/2000/svg">
        <g>
            <path d="M9.78719 12.2434H10.9763C11.0776 12.2412 11.1774 12.2175 11.2689 12.1739C11.3605 12.1303 11.4418 12.0679 11.5075 11.9906C11.6098 11.8303 11.664 11.644 11.6638 11.4538C11.6638 11.4538 11.6325 9.84313 12.3825 9.59031C13.1013 9.36938 14.0409 11.1694 15.0734 11.8644C15.4709 12.1293 15.9418 12.262 16.4191 12.2434H19.0788C19.2663 12.2434 20.4244 12.0856 19.8288 11.0116C19.7663 10.9178 19.4538 10.1903 17.8263 8.67438C16.1366 7.09531 16.3869 7.34781 18.3888 4.63188C19.6091 2.98969 20.0784 1.97906 19.9534 1.53812C19.8597 1.19062 18.8909 1.25375 18.8909 1.25375H15.8891C15.7606 1.23684 15.6301 1.2586 15.5141 1.31625C15.4044 1.39776 15.3182 1.50673 15.2641 1.63219C14.9582 2.4528 14.5818 3.24535 14.1391 4.00094C12.7934 6.30656 12.2616 6.43281 12.0425 6.275C11.5425 5.9275 11.6675 4.94844 11.6675 4.22219C11.6675 1.97969 12.0113 1.06375 11.0113 0.811249C10.5518 0.693381 10.0762 0.651161 9.60313 0.68625C8.54063 0.68625 7.63188 0.68625 7.09969 0.939062C6.75594 1.09687 6.50594 1.47594 6.66219 1.5075C6.9985 1.54163 7.31024 1.69917 7.53719 1.94969C7.84969 2.36031 7.84969 3.33937 7.84969 3.33937C7.84969 3.33937 8.03719 5.96063 7.44344 6.27688C7.03719 6.49781 6.47469 6.05594 5.28438 3.97125C4.87549 3.25092 4.52036 2.50139 4.22188 1.72875C4.16377 1.5967 4.0786 1.47832 3.97188 1.38125C3.83831 1.27228 3.6749 1.20627 3.50313 1.19187H0.650314C0.650314 1.19187 0.212814 1.16062 0.0565644 1.41281C0.0220169 1.49256 0.00419235 1.57855 0.00419235 1.66547C0.00419235 1.75238 0.0220169 1.83837 0.0565644 1.91812C0.0565644 1.91812 2.30875 7.22156 4.84375 9.875C7.15938 12.4331 9.78781 12.2438 9.78781 12.2438L9.78719 12.2434Z"/>
        </g>
    </symbol>

    <symbol id="tube" viewBox="0 0 20 15" xmlns="http://www.w3.org/2000/svg">
        <g>
            <path d="M15.8463 0.812521H4.15375C3.05564 0.809034 2.00112 1.24189 1.22215 2.01588C0.443174 2.78987 0.00355816 3.8416 0 4.93971L0 10.7478C0.00355816 11.8459 0.443174 12.8977 1.22215 13.6717C2.00112 14.4456 3.05564 14.8785 4.15375 14.875H15.8463C16.9444 14.8785 17.9989 14.4456 18.7779 13.6717C19.5568 12.8977 19.9964 11.8459 20 10.7478V4.93971C19.9964 3.8416 19.5568 2.78987 18.7779 2.01588C17.9989 1.24189 16.9444 0.809034 15.8463 0.812521ZM13.0372 8.12502L7.56813 10.7188C7.53478 10.7349 7.49788 10.7423 7.46088 10.7403C7.42389 10.7383 7.38802 10.7269 7.35663 10.7072C7.32524 10.6875 7.29936 10.6602 7.28142 10.6278C7.26348 10.5954 7.25407 10.5589 7.25406 10.5219V5.17565C7.25404 5.13814 7.26366 5.10126 7.282 5.06854C7.30034 5.03583 7.32678 5.00838 7.35879 4.98883C7.3908 4.96928 7.42729 4.95829 7.46477 4.95691C7.50225 4.95553 7.53946 4.96381 7.57281 4.98096L13.0416 7.73471C13.0778 7.75328 13.108 7.78158 13.129 7.81642C13.15 7.85126 13.1609 7.89127 13.1604 7.93194C13.1599 7.97261 13.1481 8.01235 13.1263 8.04668C13.1045 8.081 13.0735 8.10857 13.0369 8.12627L13.0372 8.12502Z"/>
        </g>
    </symbol>

    <symbol id="done" viewBox="0 0 126 126" xmlns="http://www.w3.org/2000/svg">
        <g>
           <path fill-rule="evenodd" clip-rule="evenodd" d="M63 123C96.1371 123 123 96.1371 123 63C123 29.8629 96.1371 3 63 3C29.8629 3 3 29.8629 3 63C3 96.1371 29.8629 123 63 123Z" stroke="#58CB7D" stroke-width="5"/>
           <path d="M90.8422 42.1279C89.7046 40.9718 87.8603 40.9718 86.7225 42.1279L51.8225 77.5933L38.4075 63.9611C37.2699 62.805 35.4256 62.8051 34.2878 63.9611C33.1501 65.1171 33.1501 66.9912 34.2878 68.1473L49.7626 83.8724C50.8999 85.0284 52.7455 85.0276 53.8823 83.8724L90.8422 46.3143C91.9799 45.1583 91.9798 43.284 90.8422 42.1279Z" fill="#58CB7D"/>
        </g>
    </symbol>

    <symbol id="left-arrow" viewBox="0 0 330 330" xmlns="http://www.w3.org/2000/svg">
        <g>
            <path id="XMLID_92_" d="M111.213,165.004L250.607,25.607c5.858-5.858,5.858-15.355,0-21.213c-5.858-5.858-15.355-5.858-21.213,0.001
            l-150,150.004C76.58,157.211,75,161.026,75,165.004c0,3.979,1.581,7.794,4.394,10.607l150,149.996
            C232.322,328.536,236.161,330,240,330s7.678-1.464,10.607-4.394c5.858-5.858,5.858-15.355,0-21.213L111.213,165.004z"/>
        </g>
    </symbol>

    <symbol id="right-arrow" viewBox="0 0 330 330" xmlns="http://www.w3.org/2000/svg">
        <g>
            <path id="XMLID_91_" d="M250.606,154.389l-150-149.996c-5.857-5.858-15.355-5.858-21.213,0.001
            c-5.857,5.858-5.857,15.355,0.001,21.213l139.393,139.39L79.393,304.394c-5.857,5.858-5.857,15.355,0.001,21.213
            C82.322,328.536,86.161,330,90,330s7.678-1.464,10.607-4.394l149.999-150.004c2.814-2.813,4.394-6.628,4.394-10.606
            C255,161.018,253.42,157.202,250.606,154.389z"/>
        </g>
    </symbol>
</svg>