<svg width="32" height="32" viewBox="0 0 32 32" fill="none" xmlns="http://www.w3.org/2000/svg">
<path d="M28.95 24.0003L23.75 20.6003C23.2286 20.27 22.6 20.1532 21.9948 20.2742C21.3895 20.3953 20.8542 20.7448 20.5 21.2503C19.35 22.7003 17.85 25.1003 12.4 19.6503C6.95 14.2003 9.3 12.7003 10.75 11.5003C11.2555 11.1461 11.605 10.6108 11.7261 10.0055C11.8471 9.40029 11.7304 8.77169 11.4 8.25031L8 3.05031C7.55 2.40031 6.95 1.35031 5.55 1.55031C4.15 1.75031 0.5 3.80031 0.5 8.30031C0.5 12.8003 4.05 18.3003 8.9 23.1503C13.75 28.0003 19.25 31.5003 23.7 31.5003C28.15 31.5003 30.3 27.5003 30.45 26.5003C30.6 25.5003 29.6 24.4503 28.95 24.0003Z" fill="#E4BFA2"/>
<path d="M31.2 0.799529C31.0131 0.616302 30.7618 0.513672 30.5 0.513672C30.2382 0.513672 29.9869 0.616302 29.8 0.799529L19.5 11.0995V3.49953C19.5 3.23431 19.3946 2.97996 19.2071 2.79242C19.0196 2.60489 18.7652 2.49953 18.5 2.49953C18.2348 2.49953 17.9804 2.60489 17.7929 2.79242C17.6054 2.97996 17.5 3.23431 17.5 3.49953V14.4995H28.5C28.7652 14.4995 29.0196 14.3942 29.2071 14.2066C29.3946 14.0191 29.5 13.7647 29.5 13.4995C29.5 13.2343 29.3946 12.98 29.2071 12.7924C29.0196 12.6049 28.7652 12.4995 28.5 12.4995H20.9L31.2 2.19953C31.3832 2.0126 31.4859 1.76128 31.4859 1.49953C31.4859 1.23778 31.3832 0.986458 31.2 0.799529Z" fill="#E4BFA2"/>
</svg>
