<svg width="260" height="400" viewBox="0 0 260 400" fill="none" xmlns="http://www.w3.org/2000/svg">
<g clip-path="url(#clip0)">
<path d="M5.96301 288.734L194.068 400L299.547 305.227L272.961 275.736L189.195 351.001L45.682 266.112L5.96301 288.734Z" fill="#4A321F"/>
<path d="M168.24 112.432C168.138 112.438 168.041 112.466 167.941 112.492C167.84 112.519 167.742 112.543 167.651 112.589C167.622 112.603 167.591 112.602 167.563 112.618L159.199 117.405L150.836 122.192L134.108 131.766L125.745 136.553L109.018 146.127L100.654 150.913L92.2903 155.7L83.9266 160.487L75.5634 165.274L67.1996 170.061L58.836 174.848L50.4722 179.635L42.1086 184.422L33.7449 189.209L25.3817 193.996L17.018 198.783L8.65424 203.57L0.290648 208.357C0.26259 208.373 0.247355 208.4 0.22082 208.418C0.13563 208.473 0.0661834 208.545 -0.00745318 208.617C-0.0817246 208.691 -0.154346 208.76 -0.210842 208.846C-0.228236 208.872 -0.255786 208.887 -0.271783 208.914C-0.304666 208.971 -0.307078 209.033 -0.331962 209.092C-0.373859 209.19 -0.412582 209.285 -0.433023 209.389C-0.451686 209.486 -0.453336 209.578 -0.453082 209.675C-0.453463 209.772 -0.451939 209.866 -0.432895 209.963C-0.412581 210.067 -0.374113 210.161 -0.332597 210.258C-0.307586 210.317 -0.304919 210.381 -0.271783 210.437C-0.255659 210.465 -0.227982 210.48 -0.210462 210.506C-0.154218 210.591 -0.0818514 210.66 -0.00808791 210.734C0.0656756 210.807 0.13563 210.878 0.221074 210.934C0.247609 210.952 0.262717 210.979 0.290648 210.995L8.65424 215.782L17.018 220.569L25.3817 225.356L33.7449 230.143L42.1086 234.93L50.4722 239.716L58.836 244.503L67.1996 249.29L75.5634 254.077L83.9266 258.864C84.402 259.136 84.9876 259.136 85.463 258.864L93.8266 254.077C93.8654 254.055 93.8801 254.013 93.916 253.988C94.071 253.882 94.1991 253.753 94.3055 253.599C94.3432 253.544 94.3845 253.498 94.4144 253.439C94.5207 253.232 94.5942 253.008 94.5945 252.76C94.5945 252.759 94.5954 252.758 94.5954 252.757C94.5954 252.756 94.5949 252.756 94.5949 252.755L94.5949 245.822L100.654 249.29L106.713 252.758L100.654 256.226C99.9188 256.647 99.6672 257.578 100.092 258.307C100.516 259.035 101.456 259.285 102.19 258.864L110.554 254.077C110.577 254.064 110.585 254.039 110.607 254.024C110.807 253.897 110.989 253.738 111.116 253.52C111.118 253.518 111.117 253.516 111.118 253.514C111.228 253.323 111.268 253.106 111.288 252.888C111.292 252.844 111.323 252.803 111.323 252.76C111.323 252.759 111.322 252.759 111.322 252.758C111.322 252.758 111.323 252.757 111.323 252.757C111.323 252.713 111.292 252.672 111.288 252.628C111.268 252.41 111.228 252.193 111.118 252.003C111.117 252.001 111.118 251.999 111.116 251.997C110.989 251.778 110.807 251.619 110.607 251.492C110.585 251.478 110.577 251.452 110.554 251.439L102.19 246.652L93.8266 241.865C93.7987 241.849 93.7671 241.85 93.7385 241.836C93.6474 241.79 93.55 241.766 93.4497 241.74C93.3485 241.713 93.2514 241.685 93.1489 241.679C93.1173 241.678 93.0905 241.661 93.0585 241.661C92.9925 241.661 92.9364 241.69 92.8727 241.698C92.7661 241.712 92.6646 241.726 92.5631 241.76C92.4693 241.793 92.3875 241.838 92.3027 241.886C92.2177 241.935 92.1372 241.983 92.062 242.047C91.9814 242.117 91.9187 242.197 91.8541 242.281C91.815 242.332 91.761 242.366 91.7277 242.423C91.7116 242.45 91.7124 242.482 91.6981 242.51C91.6523 242.601 91.6281 242.697 91.6009 242.797C91.5741 242.897 91.5462 242.993 91.5405 243.094C91.5386 243.126 91.5221 243.152 91.5221 243.184L91.5221 251.879L84.6948 255.786L77.0998 251.439L69.5042 247.092L69.5042 238.397C69.5042 237.556 68.8162 236.874 67.9679 236.874C67.1194 236.874 66.4314 237.556 66.4314 238.397L66.4314 245.333L60.3724 241.865L54.3135 238.397L60.3724 234.93C60.4109 234.908 60.4256 234.866 60.4614 234.841C60.6167 234.734 60.7453 234.606 60.8517 234.451C60.8891 234.396 60.9301 234.35 60.96 234.292C61.0665 234.084 61.1406 233.859 61.1406 233.61L61.1406 233.61C61.1406 233.61 61.141 233.609 61.141 233.609C61.141 233.609 61.1406 233.608 61.1406 233.608L61.1406 224.916L68.736 220.569L77.0998 215.782C77.5927 215.5 77.8683 214.988 77.8683 214.461C77.8683 214.203 77.802 213.941 77.6621 213.701C77.2378 212.973 76.2981 212.723 75.5634 213.144L67.1996 217.931L58.836 222.717C58.7787 222.75 58.7445 222.804 58.6932 222.842C58.6079 222.906 58.5274 222.969 58.4573 223.049C58.3921 223.123 58.3437 223.203 58.2949 223.287C58.2458 223.371 58.2002 223.453 58.1679 223.546C58.1327 223.646 58.1186 223.747 58.1053 223.853C58.0973 223.916 58.0678 223.971 58.0678 224.037L58.0678 232.731L51.2404 236.639L43.6451 232.291L35.2812 227.504L29.2227 224.037L34.5131 221.008L42.1086 225.356L50.4722 230.143C50.5003 230.159 50.5319 230.158 50.5604 230.172C50.6515 230.218 50.7488 230.241 50.8493 230.268C50.9505 230.295 51.0473 230.323 51.1499 230.329C51.1815 230.33 51.2083 230.347 51.2404 230.347C51.3066 230.347 51.3629 230.317 51.4269 230.309C51.5332 230.296 51.6344 230.282 51.7356 230.248C51.8295 230.215 51.9115 230.17 51.9962 230.121C52.0814 230.073 52.1617 230.025 52.2369 229.961C52.3176 229.891 52.3803 229.811 52.4448 229.727C52.484 229.676 52.538 229.642 52.5712 229.585C52.5846 229.562 52.5788 229.536 52.5909 229.512C52.6981 229.307 52.7718 229.084 52.7741 228.837C52.7741 228.833 52.7773 228.829 52.7773 228.825C52.7773 228.824 52.7769 228.824 52.7769 228.823L52.7769 220.129L60.3724 215.782L68.736 210.995C69.2291 210.713 69.5047 210.201 69.5047 209.674C69.5047 209.416 69.4382 209.154 69.2985 208.914C68.874 208.186 67.9344 207.936 67.1996 208.357L58.836 213.144L51.2404 217.491L44.4132 213.583L44.4132 204.889C44.4132 204.048 43.7252 203.366 42.8768 203.366C42.0285 203.366 41.3404 204.048 41.3404 204.889L41.3404 214.463C41.3404 214.528 41.37 214.585 41.3782 214.648C41.3915 214.753 41.4055 214.853 41.4402 214.953C41.4729 215.047 41.5186 215.129 41.5683 215.213C41.6168 215.297 41.6646 215.376 41.7295 215.45C41.7997 215.53 41.8807 215.593 41.9663 215.657C42.0175 215.696 42.0515 215.749 42.1086 215.782L49.7041 220.129L49.7041 226.185L43.6451 222.717L36.0495 218.37L36.0495 209.679C36.0495 209.678 36.05 209.678 36.05 209.677C36.05 209.677 36.0495 209.676 36.0495 209.676L36.0495 200.102C36.0495 199.261 35.3615 198.579 34.5131 198.579C33.6647 198.579 32.9767 199.261 32.9767 200.102L32.9767 207.038L26.9181 203.57C26.8606 203.537 26.7968 203.534 26.7371 203.51C26.6386 203.468 26.5441 203.43 26.4394 203.41C26.3417 203.391 26.2478 203.39 26.1498 203.39C26.0519 203.39 25.9581 203.391 25.8603 203.41C25.7556 203.43 25.6611 203.468 25.5627 203.51C25.5031 203.534 25.4391 203.537 25.3817 203.57L17.018 208.357C16.99 208.373 16.9748 208.4 16.9483 208.418C16.8632 208.473 16.7936 208.545 16.72 208.617C16.6456 208.691 16.5728 208.761 16.5162 208.846C16.4988 208.872 16.4715 208.887 16.4555 208.914C16.4228 208.97 16.4202 209.033 16.3955 209.091C16.3533 209.19 16.3147 209.285 16.2943 209.39C16.2756 209.486 16.2742 209.578 16.2744 209.674C16.274 209.772 16.2755 209.866 16.2948 209.963C16.3151 210.067 16.3532 210.16 16.3943 210.257C16.4195 210.316 16.422 210.38 16.4555 210.437C16.4718 210.465 16.4996 210.48 16.5172 210.507C16.5732 210.591 16.6452 210.66 16.7185 210.733C16.7926 210.806 16.8627 210.878 16.9486 210.934C16.975 210.952 16.9902 210.979 17.018 210.995L25.3817 215.782C26.1164 216.202 27.0562 215.953 27.4806 215.224C27.6202 214.984 27.6868 214.723 27.6868 214.464C27.6868 213.938 27.411 213.426 26.9181 213.144L20.8593 209.676L26.1498 206.648L32.9767 210.555L32.9767 218.37L26.1498 222.278L18.5544 217.931L10.1907 213.144L4.13181 209.676L10.1907 206.208L18.5544 201.421L26.9181 196.634L35.2812 191.847L41.3404 188.379L41.3404 195.315C41.3404 195.381 41.37 195.437 41.3782 195.5C41.3915 195.605 41.4055 195.706 41.4402 195.805C41.4728 195.899 41.5188 195.981 41.5681 196.065C41.6166 196.149 41.6648 196.228 41.7296 196.302C41.7997 196.383 41.8803 196.445 41.9657 196.509C42.0171 196.548 42.0513 196.601 42.1086 196.634L49.7041 200.981L49.7041 209.676C49.7041 210.517 50.3921 211.199 51.2404 211.199C52.0889 211.199 52.7769 210.517 52.7769 209.676L52.7769 202.74L58.836 206.208C59.3114 206.48 59.8969 206.48 60.3724 206.208L67.9679 201.861L75.5634 206.208C76.2981 206.628 77.2378 206.379 77.6621 205.651C77.802 205.411 77.8683 205.149 77.8683 204.89C77.8683 204.364 77.5927 203.852 77.0998 203.57L68.736 198.783C68.6787 198.75 68.615 198.747 68.5554 198.723C68.457 198.682 68.3622 198.643 68.2573 198.623C68.1596 198.605 68.0658 198.603 67.9679 198.603C67.8699 198.603 67.776 198.605 67.6784 198.623C67.5735 198.643 67.4788 198.682 67.3803 198.723C67.3206 198.747 67.2572 198.75 67.1996 198.783L59.6042 203.13L52.0087 198.783L44.4132 194.436L44.4132 186.621L52.0087 182.273L60.3724 177.486L68.736 172.699L76.3316 168.352L83.9266 172.699L92.2903 177.486L100.654 182.273C100.711 182.306 100.775 182.309 100.835 182.333C100.933 182.375 101.028 182.413 101.133 182.433C101.23 182.452 101.324 182.453 101.422 182.453C101.52 182.453 101.614 182.452 101.712 182.433C101.817 182.413 101.911 182.375 102.01 182.333C102.069 182.309 102.133 182.306 102.19 182.273L109.786 177.926L117.381 182.273C117.857 182.545 118.442 182.545 118.918 182.273L126.513 177.926L133.34 181.834L133.34 189.649L125.745 193.996C125.687 194.029 125.653 194.082 125.602 194.121C125.517 194.185 125.436 194.247 125.366 194.327C125.3 194.402 125.252 194.482 125.203 194.566C125.154 194.65 125.109 194.731 125.076 194.824C125.041 194.924 125.027 195.025 125.014 195.131C125.006 195.194 124.976 195.25 124.976 195.315L124.976 230.972L118.918 227.504L110.554 222.717L102.19 217.93L93.8266 213.144L87.7677 209.676L93.8266 206.208L102.19 201.421L110.554 196.634L118.918 191.847L127.281 187.06C127.774 186.778 128.05 186.266 128.05 185.74C128.05 185.481 127.983 185.22 127.843 184.98C127.419 184.251 126.479 184.001 125.745 184.422L118.149 188.769L110.554 184.422C110.497 184.389 110.433 184.386 110.373 184.362C110.275 184.321 110.18 184.283 110.075 184.262C109.978 184.244 109.884 184.242 109.786 184.242C109.688 184.242 109.594 184.244 109.496 184.262C109.391 184.283 109.297 184.32 109.199 184.362C109.139 184.386 109.075 184.389 109.018 184.422L101.422 188.769L93.8266 184.422L85.463 179.635L77.0998 174.848C77.0423 174.815 76.9783 174.813 76.9188 174.788C76.8204 174.747 76.7258 174.709 76.6211 174.689C76.5233 174.67 76.4295 174.668 76.3315 174.669C76.2335 174.668 76.1396 174.67 76.042 174.689C75.9373 174.709 75.8425 174.747 75.744 174.788C75.6845 174.813 75.6209 174.815 75.5634 174.848L67.1996 179.635L58.836 184.422L50.4722 189.209C50.4444 189.225 50.4292 189.252 50.4026 189.27C50.3174 189.325 50.2479 189.397 50.1741 189.47C50.1 189.543 50.0273 189.613 49.971 189.698C49.9536 189.724 49.9259 189.739 49.9099 189.767C49.8769 189.823 49.8745 189.886 49.8495 189.945C49.8077 190.043 49.7692 190.137 49.7488 190.242C49.73 190.338 49.7286 190.43 49.7287 190.527C49.7283 190.625 49.7299 190.718 49.7489 190.815C49.7692 190.919 49.8074 191.012 49.8488 191.11C49.8738 191.169 49.8766 191.232 49.9099 191.29C49.9261 191.317 49.9537 191.332 49.9715 191.359C50.0275 191.444 50.0998 191.513 50.1733 191.586C50.2474 191.659 50.3169 191.73 50.4025 191.786C50.4292 191.804 50.4443 191.831 50.4722 191.847L58.836 196.634C59.5708 197.055 60.5104 196.805 60.9348 196.077C61.0746 195.837 61.141 195.575 61.141 195.317C61.141 194.79 60.8654 194.278 60.3724 193.996L54.3134 190.528L60.3724 187.06L66.4314 183.592L66.4314 190.528C66.4314 190.594 66.461 190.65 66.4692 190.713C66.4826 190.818 66.4965 190.919 66.5312 191.018C66.564 191.112 66.6097 191.194 66.6593 191.279C66.7078 191.362 66.7558 191.441 66.8205 191.516C66.8906 191.596 66.9714 191.658 67.0567 191.722C67.108 191.761 67.1423 191.814 67.1996 191.847L75.5634 196.634C75.621 196.667 75.6849 196.67 75.7447 196.695C75.8429 196.736 75.9371 196.773 76.0416 196.794C76.1394 196.812 76.2333 196.814 76.3315 196.814C76.4296 196.814 76.5236 196.812 76.6214 196.794C76.7258 196.774 76.8201 196.736 76.9183 196.695C76.9781 196.67 77.0421 196.667 77.0998 196.634L85.463 191.847C85.9559 191.565 86.2316 191.053 86.2316 190.527C86.2316 190.268 86.1652 190.006 86.0255 189.767C85.601 189.038 84.6613 188.788 83.9266 189.209L76.3316 193.556L69.5042 189.649L69.5042 181.834L76.3316 177.926L81.6219 180.954L75.5634 184.422C74.8286 184.843 74.576 185.774 75.0009 186.503C75.4252 187.231 76.365 187.481 77.0998 187.06L84.6948 182.713L92.2903 187.06L98.3492 190.528L92.2903 193.996C91.5554 194.416 91.3034 195.348 91.7277 196.077C92.1523 196.805 93.0919 197.055 93.8266 196.634L102.19 191.847L109.786 187.5L115.076 190.528L109.018 193.996L100.654 198.783L92.2903 203.57L86.2313 207.038L86.2313 200.102C86.2313 199.261 85.5431 198.579 84.6948 198.579C83.8465 198.579 83.1583 199.261 83.1583 200.102L83.1583 219.25C83.1583 220.091 83.8465 220.773 84.6948 220.773C85.5431 220.773 86.2313 220.091 86.2313 219.25L86.2313 212.314L91.5221 215.342L91.5221 223.157L84.6948 227.065L77.0998 222.717C77.0423 222.685 76.9787 222.682 76.919 222.657C76.8206 222.616 76.7259 222.578 76.6211 222.558C76.5233 222.539 76.4295 222.538 76.3315 222.538C76.2335 222.538 76.1396 222.539 76.042 222.558C75.9371 222.578 75.8424 222.616 75.7438 222.657C75.6844 222.682 75.6207 222.685 75.5634 222.717L67.1996 227.504C67.1717 227.52 67.1566 227.548 67.1301 227.565C67.0446 227.621 66.9749 227.693 66.9012 227.766C66.8271 227.839 66.7547 227.908 66.6983 227.993C66.6809 228.019 66.6533 228.034 66.6372 228.062C66.6045 228.118 66.6019 228.181 66.577 228.239C66.535 228.338 66.4964 228.433 66.4761 228.538C66.4574 228.633 66.4558 228.726 66.4559 228.822C66.4557 228.92 66.4572 229.013 66.4762 229.111C66.4965 229.215 66.535 229.308 66.5764 229.406C66.6014 229.465 66.6041 229.528 66.6372 229.585C66.6533 229.613 66.6811 229.628 66.6987 229.654C66.7549 229.739 66.8273 229.808 66.901 229.881C66.9748 229.954 67.0445 230.026 67.1299 230.082C67.1565 230.099 67.1716 230.127 67.1996 230.143L74.795 234.49L74.795 243.184C74.795 244.026 75.4833 244.707 76.3316 244.707C77.1799 244.707 77.8679 244.026 77.8679 243.184L77.8679 233.613C77.8679 233.613 77.8683 233.612 77.8683 233.612C77.8683 233.611 77.8679 233.611 77.8679 233.611L77.8679 233.61C77.8679 233.362 77.7938 233.137 77.6873 232.929C77.6574 232.871 77.6164 232.825 77.579 232.77C77.4726 232.615 77.3441 232.487 77.1887 232.38C77.1529 232.355 77.1383 232.313 77.0998 232.291L71.0409 228.823L76.3316 225.795L83.9266 230.143C84.402 230.415 84.9876 230.415 85.463 230.143L93.8266 225.356C93.8654 225.334 93.8801 225.291 93.916 225.267C94.071 225.16 94.1991 225.032 94.3055 224.877C94.3432 224.822 94.3845 224.776 94.4144 224.717C94.5207 224.511 94.5942 224.286 94.5945 224.038C94.5945 224.037 94.5954 224.036 94.5954 224.035C94.5954 224.035 94.5949 224.034 94.5949 224.033L94.5949 217.101L100.654 220.569L106.713 224.037L100.654 227.504L92.2903 232.291L83.9266 237.078C83.8692 237.111 83.835 237.165 83.7836 237.203C83.6984 237.267 83.6178 237.33 83.5478 237.409C83.4823 237.484 83.4337 237.564 83.3848 237.649C83.3361 237.733 83.2908 237.813 83.2586 237.905C83.2232 238.007 83.209 238.108 83.1955 238.214C83.1877 238.277 83.1583 238.333 83.1583 238.397L83.1583 247.971C83.1583 248.813 83.8465 249.494 84.6948 249.494C85.5431 249.494 86.2313 248.813 86.2313 247.971L86.2313 239.277L93.0585 235.369L100.654 239.716C100.711 239.749 100.775 239.752 100.835 239.777C100.933 239.818 101.028 239.856 101.133 239.876C101.23 239.895 101.324 239.896 101.422 239.896C101.52 239.896 101.614 239.895 101.712 239.876C101.817 239.856 101.911 239.818 102.01 239.777C102.069 239.752 102.133 239.749 102.19 239.716L110.554 234.93C111.047 234.647 111.323 234.136 111.323 233.609C111.323 233.351 111.256 233.089 111.116 232.849C110.692 232.12 109.752 231.871 109.018 232.291L101.422 236.639L96.1315 233.61L102.19 230.143L109.786 225.795L117.381 230.143L125.745 234.93L134.108 239.716L142.472 244.503L150.836 249.29C151.311 249.562 151.897 249.562 152.372 249.29L160.736 244.503C160.758 244.49 160.766 244.465 160.788 244.451C160.989 244.324 161.171 244.165 161.298 243.946C161.299 243.944 161.299 243.942 161.3 243.94C161.409 243.75 161.449 243.534 161.469 243.317C161.473 243.272 161.504 243.23 161.504 243.186C161.504 243.185 161.504 243.185 161.504 243.184C161.504 243.184 161.504 243.183 161.504 243.183C161.504 243.138 161.473 243.096 161.469 243.052C161.449 242.835 161.409 242.619 161.3 242.429C161.299 242.427 161.299 242.425 161.298 242.423C161.171 242.204 160.989 242.045 160.788 241.918C160.767 241.904 160.758 241.878 160.736 241.865L152.372 237.078C151.637 236.658 150.698 236.908 150.273 237.636C149.849 238.364 150.101 239.296 150.836 239.716L156.895 243.184L151.604 246.213L144.008 241.865L135.645 237.078L128.049 232.731L128.049 226.675L134.108 230.143C134.166 230.176 134.23 230.178 134.289 230.203C134.388 230.244 134.482 230.282 134.587 230.302C134.684 230.321 134.778 230.322 134.876 230.322C134.975 230.322 135.069 230.321 135.166 230.302C135.271 230.282 135.365 230.244 135.463 230.203C135.523 230.179 135.587 230.176 135.645 230.143L144.008 225.356C144.501 225.074 144.777 224.562 144.777 224.035C144.777 223.777 144.711 223.515 144.571 223.275C144.146 222.547 143.207 222.297 142.472 222.717L134.876 227.065L128.049 223.157L128.049 217.101L134.108 220.569C134.843 220.989 135.783 220.74 136.207 220.011C136.347 219.771 136.413 219.51 136.413 219.251C136.413 218.725 136.138 218.213 135.645 217.93L128.049 213.583L128.049 196.194L135.645 191.847C135.683 191.825 135.698 191.783 135.734 191.758C135.889 191.651 136.017 191.523 136.124 191.368C136.161 191.314 136.202 191.268 136.232 191.209C136.339 191.002 136.413 190.777 136.413 190.528L136.413 190.528C136.413 190.527 136.413 190.527 136.413 190.527C136.413 190.526 136.413 190.526 136.413 190.525L136.413 180.957C136.413 180.957 136.413 180.956 136.413 180.956C136.413 180.955 136.413 180.955 136.413 180.954L136.413 180.954C136.413 180.706 136.339 180.48 136.232 180.273C136.202 180.214 136.161 180.169 136.124 180.114C136.017 179.959 135.889 179.831 135.734 179.724C135.698 179.699 135.683 179.657 135.645 179.635L128.049 175.288L128.049 169.232L134.108 172.699C134.843 173.12 135.783 172.87 136.207 172.142C136.347 171.902 136.413 171.64 136.413 171.382C136.413 170.856 136.138 170.343 135.645 170.061L128.049 165.714L128.049 157.023C128.049 157.022 128.05 157.022 128.05 157.021C128.05 157.02 128.049 157.02 128.049 157.019L128.049 147.446C128.049 146.605 127.361 145.923 126.513 145.923C125.664 145.923 124.976 146.605 124.976 147.446L124.976 154.381L118.918 150.913C118.442 150.641 117.857 150.641 117.381 150.913L109.018 155.7L100.654 160.487L92.2903 165.274C91.5554 165.695 91.3034 166.626 91.7277 167.355C92.1523 168.083 93.0919 168.333 93.8266 167.913L101.422 163.565L109.018 167.913C109.752 168.333 110.692 168.083 111.116 167.355C111.256 167.115 111.323 166.853 111.323 166.595C111.323 166.069 111.047 165.557 110.554 165.274L104.495 161.806L110.554 158.339L118.149 153.991L124.976 157.899L124.976 175.288L118.149 179.195L112.859 176.167L118.918 172.699C118.956 172.677 118.971 172.635 119.007 172.611C119.162 172.504 119.29 172.376 119.397 172.221C119.434 172.166 119.476 172.12 119.505 172.061C119.612 171.854 119.685 171.63 119.686 171.382C119.686 171.381 119.686 171.38 119.686 171.379C119.686 171.378 119.686 171.378 119.686 171.377L119.686 161.806C119.686 160.965 118.998 160.283 118.149 160.283C117.301 160.283 116.613 160.965 116.613 161.806L116.613 170.501L109.018 174.848L101.422 179.195L96.1314 176.167L102.19 172.699C102.683 172.417 102.959 171.905 102.959 171.379C102.959 171.121 102.892 170.859 102.753 170.619C102.328 169.89 101.389 169.641 100.654 170.061L93.0585 174.409L85.463 170.061L79.4045 166.593L85.463 163.126L93.8266 158.339L102.19 153.552L110.554 148.765L127.281 139.191L135.645 134.404L141.704 130.936L141.704 136.992L134.108 141.34C134.051 141.373 134.017 141.426 133.965 141.465C133.88 141.529 133.8 141.591 133.73 141.67C133.664 141.745 133.615 141.826 133.566 141.911C133.518 141.994 133.472 142.075 133.44 142.167C133.405 142.268 133.391 142.37 133.377 142.476C133.369 142.539 133.34 142.594 133.34 142.659L133.34 161.806C133.34 161.872 133.37 161.927 133.378 161.991C133.391 162.096 133.405 162.197 133.44 162.297C133.472 162.391 133.518 162.472 133.567 162.556C133.616 162.64 133.664 162.72 133.73 162.794C133.799 162.874 133.88 162.937 133.965 163C134.017 163.039 134.051 163.093 134.108 163.126L141.704 167.473L141.704 194.436L134.108 198.783C134.051 198.816 134.017 198.869 133.965 198.908C133.88 198.972 133.8 199.034 133.73 199.114C133.664 199.189 133.615 199.269 133.566 199.354C133.518 199.437 133.472 199.518 133.44 199.61C133.405 199.711 133.391 199.813 133.377 199.919C133.369 199.982 133.34 200.037 133.34 200.102L133.34 209.676C133.34 209.741 133.37 209.797 133.378 209.86C133.391 209.965 133.405 210.066 133.44 210.167C133.472 210.26 133.518 210.341 133.567 210.425C133.616 210.51 133.664 210.589 133.73 210.664C133.8 210.744 133.88 210.806 133.966 210.87C134.017 210.909 134.051 210.962 134.108 210.995L142.472 215.782C143.207 216.202 144.146 215.953 144.571 215.224C144.711 214.984 144.777 214.723 144.777 214.464C144.777 213.938 144.501 213.426 144.008 213.144L136.413 208.796L136.413 200.981L143.24 197.074L150.067 200.981L150.067 207.038L144.008 203.57C143.273 203.149 142.334 203.399 141.91 204.127C141.486 204.856 141.737 205.787 142.472 206.208L150.836 210.995L158.431 215.342L158.431 224.037C158.431 224.878 159.119 225.56 159.968 225.56C160.816 225.56 161.504 224.878 161.504 224.037L161.504 214.466C161.504 214.465 161.504 214.465 161.504 214.464C161.504 214.463 161.503 214.462 161.503 214.461C161.503 214.213 161.43 213.989 161.323 213.782C161.293 213.723 161.252 213.677 161.215 213.622C161.108 213.467 160.98 213.339 160.825 213.233C160.789 213.208 160.774 213.166 160.736 213.144L153.14 208.796L153.14 200.981L160.736 196.634C160.774 196.612 160.789 196.57 160.825 196.545C160.98 196.438 161.108 196.31 161.215 196.156C161.252 196.101 161.293 196.055 161.323 195.996C161.43 195.789 161.503 195.564 161.503 195.317C161.503 195.316 161.504 195.315 161.504 195.314C161.504 195.313 161.504 195.312 161.504 195.312L161.504 176.171C161.504 176.17 161.504 176.169 161.504 176.169C161.504 176.168 161.503 176.167 161.503 176.166C161.503 175.918 161.43 175.693 161.323 175.487C161.293 175.428 161.252 175.382 161.215 175.327C161.108 175.172 160.98 175.044 160.825 174.937C160.789 174.912 160.774 174.87 160.736 174.848L152.372 170.061C151.637 169.641 150.698 169.89 150.273 170.619C149.849 171.347 150.101 172.279 150.836 172.699L158.431 177.047L158.431 194.436L151.604 198.343L144.777 194.436L144.777 178.805L150.067 181.834L150.067 190.528C150.067 191.369 150.755 192.051 151.604 192.051C152.452 192.051 153.14 191.369 153.14 190.528L153.14 180.957C153.14 180.957 153.141 180.956 153.141 180.956C153.141 180.955 153.14 180.955 153.14 180.954L153.14 180.954C153.14 180.706 153.066 180.48 152.96 180.273C152.93 180.214 152.889 180.169 152.851 180.114C152.745 179.959 152.617 179.831 152.461 179.724C152.425 179.699 152.411 179.657 152.372 179.635L144.777 175.288L144.777 167.473L152.372 163.126C152.865 162.843 153.141 162.332 153.141 161.805C153.141 161.547 153.074 161.285 152.934 161.045C152.51 160.317 151.57 160.067 150.836 160.487L143.24 164.835L136.413 160.927L136.413 153.112L144.008 148.765C144.501 148.483 144.777 147.971 144.777 147.444C144.777 147.186 144.711 146.924 144.571 146.684C144.146 145.956 143.207 145.706 142.472 146.127L136.413 149.594L136.413 143.538L143.24 139.631L150.067 143.538L150.067 151.353L142.472 155.7C141.737 156.121 141.485 157.052 141.91 157.781C142.334 158.51 143.273 158.759 144.008 158.339L152.372 153.552C152.411 153.53 152.425 153.488 152.461 153.463C152.616 153.356 152.745 153.228 152.851 153.073C152.889 153.018 152.93 152.973 152.96 152.914C153.066 152.706 153.14 152.481 153.14 152.233L153.14 152.232C153.14 152.232 153.141 152.232 153.141 152.231C153.141 152.231 153.14 152.23 153.14 152.23L153.14 142.662C153.14 142.661 153.141 142.661 153.141 142.66C153.141 142.66 153.14 142.659 153.14 142.659L153.14 142.659C153.14 142.41 153.066 142.185 152.96 141.978C152.93 141.919 152.889 141.873 152.851 141.819C152.745 141.664 152.616 141.535 152.461 141.428C152.425 141.404 152.41 141.362 152.372 141.34L144.777 136.992L144.777 129.177L151.604 125.27L159.199 129.617C159.934 130.038 160.874 129.788 161.298 129.06C161.438 128.82 161.504 128.558 161.504 128.3C161.504 127.773 161.229 127.261 160.736 126.979L154.677 123.511L160.736 120.043L166.795 116.575L166.795 168.742L161.504 165.714L161.504 137.875C161.504 137.875 161.504 137.874 161.504 137.873C161.504 137.872 161.504 137.872 161.504 137.871C161.503 137.622 161.43 137.398 161.323 137.191C161.293 137.132 161.252 137.086 161.215 137.031C161.108 136.876 160.98 136.748 160.825 136.642C160.789 136.617 160.774 136.575 160.736 136.553L152.372 131.766C151.637 131.345 150.698 131.595 150.273 132.323C149.849 133.052 150.101 133.983 150.836 134.404L158.431 138.751L158.431 166.593C158.431 166.659 158.461 166.715 158.469 166.779C158.482 166.884 158.496 166.984 158.531 167.084C158.564 167.177 158.609 167.259 158.659 167.343C158.707 167.427 158.755 167.507 158.82 167.581C158.89 167.661 158.971 167.723 159.056 167.787C159.108 167.826 159.142 167.88 159.199 167.913L166.795 172.26L166.795 199.222L159.199 203.57C158.464 203.99 158.212 204.921 158.637 205.651C159.061 206.379 160.001 206.628 160.736 206.208L166.795 202.74L166.795 235.759L160.736 232.291L153.14 227.944L153.14 219.25C153.14 218.408 152.452 217.727 151.604 217.727C150.755 217.727 150.067 218.408 150.067 219.25L150.067 227.944L142.472 232.291C141.737 232.712 141.485 233.643 141.91 234.372C142.334 235.1 143.273 235.35 144.008 234.93L151.604 230.582L159.199 234.93L166.795 239.277L166.795 247.092L159.199 251.439C158.464 251.86 158.212 252.791 158.637 253.52C159.061 254.248 160.001 254.498 160.736 254.077L166.795 250.609L166.795 264.481L160.736 261.013C160.001 260.592 159.061 260.842 158.637 261.571C158.213 262.299 158.465 263.23 159.199 263.651L166.795 267.999L166.795 302.776L161.504 299.748L161.504 291.057C161.504 291.056 161.504 291.056 161.504 291.055C161.504 291.054 161.504 291.053 161.504 291.052C161.503 290.804 161.43 290.58 161.323 290.373C161.293 290.314 161.252 290.268 161.215 290.213C161.108 290.058 160.98 289.93 160.825 289.823C160.789 289.799 160.774 289.757 160.736 289.735L154.677 286.267L160.736 282.799C161.229 282.517 161.504 282.005 161.504 281.478C161.504 281.22 161.438 280.958 161.298 280.718C160.874 279.99 159.934 279.74 159.199 280.161L151.604 284.508L146.313 281.48L152.372 278.012C152.865 277.73 153.141 277.218 153.141 276.691C153.141 276.433 153.074 276.171 152.934 275.931C152.51 275.203 151.57 274.953 150.836 275.374L142.472 280.161C142.444 280.177 142.429 280.204 142.402 280.222C142.317 280.277 142.247 280.349 142.174 280.421C142.1 280.495 142.027 280.564 141.971 280.65C141.953 280.676 141.926 280.691 141.91 280.718C141.877 280.775 141.874 280.837 141.849 280.896C141.807 280.994 141.769 281.089 141.748 281.194C141.73 281.29 141.728 281.381 141.728 281.476C141.728 281.575 141.73 281.67 141.749 281.768C141.769 281.871 141.807 281.964 141.848 282.06C141.873 282.12 141.876 282.184 141.91 282.241C141.926 282.269 141.953 282.284 141.971 282.311C142.027 282.395 142.099 282.464 142.173 282.537C142.247 282.61 142.317 282.682 142.402 282.738C142.429 282.756 142.444 282.783 142.472 282.799L150.836 287.586L158.431 291.933L158.431 297.989L136.413 285.387L136.413 267.999L144.008 263.651C144.031 263.638 144.039 263.613 144.061 263.598C144.262 263.471 144.444 263.312 144.571 263.094C144.572 263.092 144.571 263.09 144.572 263.088C144.682 262.898 144.721 262.682 144.741 262.465C144.745 262.42 144.777 262.378 144.777 262.334C144.777 262.333 144.777 262.333 144.777 262.332C144.777 262.331 144.777 262.331 144.777 262.331C144.777 262.286 144.745 262.244 144.741 262.199C144.721 261.982 144.682 261.766 144.573 261.577C144.571 261.575 144.572 261.572 144.571 261.571C144.443 261.352 144.262 261.193 144.061 261.065C144.039 261.051 144.031 261.026 144.008 261.013L135.645 256.226L127.281 251.439C126.546 251.019 125.607 251.268 125.182 251.997C124.758 252.725 125.01 253.656 125.745 254.077L134.108 258.864L140.167 262.332L134.108 265.8L125.745 270.587C125.01 271.007 124.758 271.939 125.182 272.668C125.607 273.396 126.546 273.646 127.281 273.225L133.34 269.757L133.34 283.629L127.281 280.161L118.918 275.374L110.554 270.587L104.495 267.119L109.786 264.091L117.381 268.438C117.857 268.71 118.442 268.71 118.918 268.438L127.281 263.651C127.774 263.369 128.05 262.857 128.05 262.331C128.05 262.072 127.983 261.81 127.843 261.571C127.419 260.842 126.479 260.592 125.745 261.013L118.149 265.36L112.859 262.332L118.918 258.864C118.956 258.842 118.971 258.8 119.007 258.775C119.162 258.668 119.29 258.54 119.397 258.386C119.434 258.331 119.476 258.285 119.505 258.226C119.612 258.019 119.685 257.795 119.686 257.547C119.686 257.546 119.686 257.545 119.686 257.544C119.686 257.543 119.686 257.543 119.686 257.542L119.686 248.851L126.513 244.943L134.108 249.29L142.472 254.077L150.067 258.425L150.067 266.24L142.472 270.587C141.737 271.007 141.485 271.939 141.91 272.668C142.334 273.396 143.273 273.646 144.008 273.225L151.604 268.878L159.199 273.225C159.934 273.646 160.874 273.396 161.298 272.668C161.438 272.428 161.504 272.166 161.504 271.907C161.504 271.381 161.229 270.869 160.736 270.587L153.14 266.239L153.14 257.548C153.14 257.548 153.141 257.547 153.141 257.547C153.141 257.546 153.14 257.546 153.14 257.545L153.14 257.545C153.14 257.297 153.066 257.071 152.96 256.864C152.93 256.805 152.889 256.76 152.851 256.705C152.745 256.55 152.616 256.421 152.461 256.315C152.425 256.29 152.411 256.248 152.372 256.226L144.008 251.439L135.645 246.652L127.281 241.865C126.806 241.593 126.22 241.593 125.745 241.865L118.149 246.213L112.859 243.184L118.918 239.716C119.411 239.434 119.686 238.922 119.686 238.396C119.686 238.138 119.62 237.876 119.48 237.636C119.056 236.908 118.116 236.658 117.381 237.078L109.018 241.865C108.99 241.881 108.974 241.909 108.948 241.926C108.863 241.982 108.793 242.053 108.719 242.126C108.645 242.199 108.573 242.269 108.516 242.354C108.499 242.38 108.471 242.395 108.455 242.423C108.422 242.479 108.419 242.542 108.395 242.601C108.353 242.699 108.315 242.793 108.294 242.897C108.275 242.994 108.274 243.086 108.274 243.183C108.273 243.281 108.275 243.374 108.294 243.472C108.315 243.575 108.353 243.669 108.394 243.766C108.419 243.825 108.422 243.889 108.455 243.946C108.471 243.974 108.499 243.989 108.517 244.015C108.573 244.1 108.645 244.168 108.718 244.241C108.792 244.315 108.862 244.387 108.948 244.443C108.975 244.46 108.99 244.487 109.018 244.503L116.613 248.851L116.613 256.666L109.018 261.013L101.422 265.36L93.8266 261.013C93.0919 260.592 92.1523 260.842 91.7277 261.571C91.3038 262.299 91.5554 263.23 92.2903 263.651L100.654 268.438L109.018 273.225L117.381 278.012L125.745 282.799L134.108 287.586L159.199 301.947L167.563 306.734C168.038 307.005 168.624 307.005 169.099 306.734C169.575 306.461 169.868 305.959 169.868 305.414L169.868 267.122C169.868 267.121 169.868 267.121 169.868 267.12C169.868 267.12 169.868 267.12 169.868 267.119L169.868 247.971C169.868 247.971 169.868 247.97 169.868 247.97C169.868 247.969 169.868 247.969 169.868 247.968L169.868 238.4C169.868 238.4 169.868 238.399 169.868 238.399C169.868 238.398 169.868 238.398 169.868 238.398L169.868 200.102C169.868 200.101 169.868 200.101 169.868 200.1C169.868 200.1 169.868 200.1 169.868 200.099L169.868 171.383C169.868 171.383 169.868 171.382 169.868 171.382C169.868 171.381 169.868 171.381 169.868 171.381L169.868 113.937L169.868 113.937C169.868 113.937 169.868 113.936 169.868 113.936C169.868 113.932 169.865 113.929 169.865 113.926C169.863 113.678 169.789 113.454 169.682 113.248C169.67 113.225 169.675 113.199 169.662 113.176C169.629 113.119 169.575 113.085 169.536 113.034C169.471 112.95 169.408 112.869 169.327 112.8C169.252 112.735 169.172 112.688 169.088 112.64C169.003 112.591 168.92 112.545 168.826 112.513C168.725 112.479 168.624 112.465 168.518 112.451C168.454 112.443 168.397 112.414 168.331 112.414C168.299 112.414 168.272 112.43 168.24 112.432Z" fill="#231F20"/>
<path d="M63.0083 143.538L23.2025 120.595L233.779 0V241.969L194.037 219.062V68.4996L63.0083 143.538Z" fill="#E4BFA2"/>
<path d="M224 255.68C237.333 263.378 237.333 282.623 224 290.321C210.667 298.019 194 288.396 194 273C194 257.604 210.667 247.982 224 255.68Z" fill="#D9D9D9"/>
</g>
<defs>
<clipPath id="clip0">
<rect width="260" height="400" fill="white"/>
</clipPath>
</defs>
</svg>
