<svg width="352" height="380" viewBox="0 0 352 380" fill="none" xmlns="http://www.w3.org/2000/svg">
<rect width="75.7418" height="75.7418" transform="matrix(0.706707 0.707507 -0.706707 0.707507 69.6132 272.825)" fill="#4A321F"/>
<path d="M306.335 176.199C306.335 248.263 247.982 306.682 176 306.682V352.398C273.202 352.398 352 273.511 352 176.199C352 78.8871 273.202 0 176 0C78.7979 0 0 78.8871 0 176.199H45.6649C45.6649 104.136 104.018 45.7165 176 45.7165C247.982 45.7165 306.335 104.136 306.335 176.199Z" fill="url(#paint0_linear)"/>
<path d="M251.436 99.5883C254.473 102.812 254.203 103.057 253.714 103.508C253.231 104.036 252.607 104.7 254.164 107.782C255.715 110.973 258.166 113.493 260.585 116.053C263.757 119.276 266.967 122.602 269.142 127.334C271.214 132.343 269.625 133.954 267.971 135.772C266.524 137.352 265.005 139.028 266.002 143.302C267.032 147.75 270.075 150.515 273.009 153.249C276.734 156.678 280.736 160.011 281.804 165.858C282.769 171.776 279.565 174.58 276.284 177.558C273.594 180.079 270.834 182.671 270.21 187.396C269.76 192.16 271.729 194.332 273.62 196.331C275.968 198.748 278.214 200.882 276.277 206.626C274.276 212.124 270.654 215.664 267.173 219.061C264.478 221.788 261.859 224.489 260.585 228.376C259.414 232.051 260.514 233.211 261.511 234.294C262.58 235.416 263.48 236.363 261.029 240.424C258.475 244.312 255.541 247.432 252.575 250.513C250.162 252.924 247.775 255.38 245.781 258.01C245.021 258.636 244.262 259.164 243.567 259.757C246.089 256.006 249.12 252.995 252.054 249.946C254.434 247.496 256.853 245.008 258.539 242.068C260.334 238.987 259.504 238.149 258.681 237.272C257.336 235.944 255.92 234.436 257.407 229.324C258.957 224.063 262.239 220.672 265.513 217.307C268.344 214.574 271.24 211.77 272.513 207.605C273.826 203.293 272.102 201.475 270.204 199.547C267.682 196.956 265.198 194.261 265.996 187.705C266.62 181.085 269.927 177.868 273.17 174.748C275.718 172.363 278.343 170.023 277.513 165.504C276.927 161.017 273.858 158.322 270.68 155.589C267.128 152.159 263.538 148.685 262.264 142.593C260.952 136.675 262.953 134.502 264.819 132.575C266.195 131.105 267.476 129.771 265.989 126.064C264.574 122.422 262.02 119.798 259.536 117.207C256.499 113.983 253.431 110.934 251.565 106.454C249.493 102.212 250.323 101.335 251.011 100.742C251.359 100.323 251.597 100.04 249.429 97.6286C250.117 98.2603 250.741 98.9565 251.43 99.5883H251.436ZM108.468 92.7615C105.882 96.436 102.877 99.4529 99.9498 102.534C97.5371 104.952 95.1887 107.511 93.4322 110.451C91.7079 113.532 92.5057 114.299 93.3614 115.247C94.6354 116.51 96.1216 118.051 94.5324 123.131C93.0848 128.417 89.7713 131.782 86.5286 135.179C83.6977 137.913 80.7703 140.717 79.5286 144.881C78.1453 149.188 79.8374 150.973 81.7997 152.933C84.3218 155.524 86.7667 158.225 86.0461 164.769C85.3577 171.389 82.012 174.58 78.7308 177.732C76.1765 180.118 73.5901 182.387 74.3814 186.945C74.9669 191.431 78.1388 194.158 81.2464 196.924C84.7979 200.289 88.388 203.718 89.7006 209.849C91.0131 215.805 88.9735 217.971 87.1141 219.867C85.7373 221.336 84.4248 222.632 85.9046 226.416C87.3522 230.026 89.9064 232.682 92.4221 235.242C95.4589 238.458 98.4957 241.546 100.426 245.994C102.433 250.268 101.565 251.139 100.979 251.699C100.567 252.157 100.323 252.363 102.465 254.813C101.809 254.188 101.153 253.517 100.497 252.886C97.4984 249.63 97.7043 249.353 98.1869 248.889C98.7402 248.399 99.3257 247.767 97.7687 244.686C96.2181 241.469 93.7668 238.974 91.2833 236.383C88.1436 233.166 85.0746 229.872 82.8613 225.101C80.7574 220.131 82.2758 218.481 83.968 216.695C85.4542 215.122 86.9726 213.44 85.9689 209.133C84.8623 204.717 81.8962 201.952 78.9302 199.18C75.205 195.75 71.306 192.456 70.1672 186.538C69.3051 180.621 72.4127 177.816 75.6875 174.877C78.4155 172.35 81.1049 169.797 81.7933 165.033C82.2437 160.269 80.2749 158.097 78.4155 156.137C76.0349 153.719 73.8603 151.547 75.7905 145.842C77.7914 140.311 81.3815 136.81 84.8301 133.407C87.4487 130.641 90.1445 127.946 91.3862 124.091C92.5958 120.417 91.5214 119.263 90.4855 118.212C89.4496 117.09 88.5553 116.072 90.968 112.049C93.5223 108.162 96.4883 105.042 99.3836 101.999C101.803 99.5109 104.183 97.0613 106.249 94.502C106.976 93.909 107.664 93.2772 108.455 92.755L108.468 92.7615ZM115.919 87.7848C113.641 91.9492 110.572 95.0306 107.568 98.1507C105.148 100.536 102.768 102.986 101.256 106.17C99.879 109.432 100.979 110.586 102.15 111.811C103.772 113.455 105.599 115.311 104.466 120.597C103.431 126.199 100.323 129.39 97.1188 132.749C94.5646 135.379 91.8044 138.074 90.8394 142.483C89.9772 147.034 91.8752 149.104 93.9083 151.341C96.7006 154.216 99.4608 157.194 98.8753 164.053C98.4957 171.093 95.1822 174.458 91.8688 177.816C89.2759 180.408 86.7217 182.967 87.2814 187.866C87.661 192.733 90.6978 195.499 93.6252 198.303C96.9387 201.701 100.387 205.136 101.256 211.512C102.047 217.714 99.7374 220.125 97.5628 222.407C95.9093 224.154 94.3909 225.765 95.3881 229.691C96.4948 233.546 98.9396 236.028 101.391 238.555C104.396 241.669 107.394 244.757 108.944 249.553C110.636 254.143 109.395 255.329 108.423 256.315C107.696 257.018 107.149 257.579 109.047 260.344C108.288 259.751 107.529 259.19 106.808 258.597C104.112 255.026 104.698 254.362 105.567 253.517C106.429 252.711 107.362 251.77 106.049 248.437C104.737 245.04 102.395 242.52 99.9755 240.031C96.9065 236.95 93.9019 233.759 92.2098 228.75C90.6592 223.464 92.4864 221.504 94.5517 219.403C96.3146 217.514 98.1418 215.548 97.4148 211.029C96.8293 206.406 93.8955 203.641 91.0645 200.869C87.5838 197.472 83.8586 194.042 83.0608 187.596C82.3723 181.078 85.5443 177.997 88.8255 174.741C91.5149 172.079 94.2043 169.346 94.6547 164.234C94.9699 159.263 92.8596 156.846 90.7557 154.532C88.0599 151.766 85.6858 149.213 87.1334 143.218C88.5489 137.3 91.9331 133.942 95.1372 130.609C97.7558 128.017 100.246 125.355 101.108 121.365C102.073 117.477 100.657 116.04 99.2806 114.641C97.8974 113.171 96.6234 111.837 98.6244 107.459C100.728 103.289 103.694 100.239 106.66 97.2289C109.112 94.7792 111.563 92.2909 113.384 89.3835C114.175 88.784 115.076 88.2941 115.906 87.7719L115.919 87.7848ZM124.373 83.2658C122.34 87.9202 119.129 91.1112 115.989 94.2248C113.538 96.7454 111.125 99.2724 109.916 102.702C108.777 106.241 110.122 107.601 111.608 109.11C113.609 111.108 115.745 113.281 114.954 118.883C114.33 124.697 111.228 127.85 108.192 131.066C105.605 133.658 103.019 136.327 102.433 140.91C101.912 145.603 104.048 147.918 106.261 150.367C109.163 153.481 112.161 156.672 111.852 163.744C111.647 170.925 108.333 174.393 105.052 177.861C102.465 180.633 99.8404 183.322 100.188 188.472C100.426 193.584 103.328 196.389 106.023 199.154C109.369 202.584 112.644 205.949 113.126 212.466C113.467 218.874 110.913 221.601 108.397 224.16C106.429 226.158 104.672 227.976 105.399 232.109C106.126 236.105 108.571 238.619 110.99 241.108C114.021 244.189 117.064 247.271 118.299 252.421C119.65 257.463 118.126 259.003 116.781 260.331C115.777 261.35 114.954 262.117 116.607 265.198C115.777 264.708 114.883 264.218 114.053 263.69C111.672 259.629 112.637 258.649 113.879 257.456C114.986 256.367 116.189 255.18 115.089 251.57C114.124 247.819 111.679 245.369 109.227 242.881C106.223 239.799 103.257 236.679 102.047 231.425C100.979 225.926 103.186 223.58 105.496 221.169C107.465 219.1 109.53 216.895 109.15 212.234C108.771 207.438 106.146 204.737 103.315 202.01C100.001 198.58 96.5527 195.177 95.9286 188.35C95.5168 181.413 98.6952 178.055 101.97 174.696C104.659 171.892 107.317 169.088 107.561 163.802C107.799 158.619 105.528 156.059 103.141 153.539C100.31 150.49 97.6915 147.66 98.5922 141.316C99.5573 135.218 102.8 131.93 105.94 128.707C108.391 126.116 110.875 123.595 111.428 119.353C112.084 115.26 110.398 113.538 108.803 111.966C107.008 110.109 105.354 108.465 106.976 103.766C108.7 99.208 111.775 96.1652 114.773 93.0129C117.36 90.5246 119.882 87.9331 121.503 84.6776C122.468 84.1554 123.401 83.73 124.366 83.24L124.373 83.2658ZM133.753 78.9918C131.997 84.2135 128.684 87.5721 125.441 90.9694C122.854 93.5222 120.332 96.0814 119.335 99.8655C118.409 103.682 120.094 105.326 121.78 107.118C124.128 109.322 126.58 111.772 126.097 117.761C125.679 123.821 122.649 126.934 119.573 130.125C117.16 132.685 114.568 135.276 114.297 140.001C113.989 144.836 116.337 147.389 118.75 149.916C121.819 153.171 124.958 156.569 124.855 163.679C124.785 170.893 121.51 174.361 118.228 177.9C115.61 180.737 112.953 183.502 113.126 188.795C113.262 194.049 115.989 196.775 118.679 199.547C121.922 202.88 125.061 206.129 125.203 212.853C125.338 219.364 122.475 222.349 119.683 225.217C117.54 227.39 115.468 229.491 115.919 233.798C116.433 238.001 118.885 240.489 121.297 242.971C124.437 246.085 127.538 249.237 128.478 254.807C129.649 260.376 127.751 262.201 126.097 263.883C124.785 265.179 123.678 266.262 125.132 269.692C124.167 269.272 123.202 268.783 122.269 268.325C120.165 263.741 121.542 262.407 123.099 260.899C124.476 259.493 125.93 258.062 125.1 254.104C124.27 250.107 121.786 247.522 119.271 245.072C116.266 241.991 113.236 238.91 112.367 233.34C111.711 227.557 114.233 224.972 116.819 222.239C119.097 219.963 121.375 217.617 121.201 212.821C121.027 207.921 118.473 205.22 115.816 202.558C112.573 199.161 109.26 195.796 108.88 188.756C108.642 181.581 111.917 178.145 115.16 174.645C117.817 171.808 120.474 169.004 120.577 163.686C120.68 158.432 118.164 155.698 115.745 153.075C112.74 149.851 109.884 146.77 110.398 140.22C110.913 133.916 114.091 130.725 117.09 127.54C119.573 125.02 122.024 122.531 122.372 118.083C122.752 113.771 120.821 111.817 118.956 109.922C116.852 107.82 114.857 105.822 116.131 100.71C117.649 95.8042 120.751 92.6519 123.89 89.4287C126.554 86.7985 129.14 84.0716 130.549 80.3585C131.617 79.8685 132.692 79.4108 133.76 78.9918H133.753ZM144.003 74.9628C142.523 80.7775 139.139 84.3488 135.761 87.9524C133.136 90.647 130.479 93.3481 129.655 97.4803C128.928 101.612 130.865 103.501 132.827 105.467C135.484 107.995 138.244 110.65 137.936 116.955C137.762 123.331 134.622 126.515 131.553 129.706C129.07 132.259 126.554 134.786 126.412 139.653C126.38 144.591 128.825 147.183 131.379 149.877C134.622 153.242 137.865 156.64 137.897 163.744C137.929 170.925 134.654 174.361 131.379 177.861C128.754 180.666 126.097 183.534 126.168 188.859C126.207 194.113 128.825 196.808 131.45 199.47C134.622 202.796 137.762 206.052 137.697 212.814C137.659 219.499 134.629 222.652 131.521 225.669C129.173 228.047 126.895 230.323 127.172 234.881C127.48 239.29 129.964 241.817 132.486 244.338C135.697 247.632 138.907 250.919 139.66 257.018C140.554 263.045 138.347 265.179 136.314 267.106C134.796 268.615 133.31 270.046 134.654 273.972C133.515 273.514 132.48 273.095 131.482 272.644C129.584 267.532 131.309 265.849 133.239 263.922C134.892 262.31 136.617 260.557 135.928 256.251C135.24 251.977 132.718 249.314 130.099 246.69C126.991 243.603 123.922 240.418 123.401 234.571C122.99 228.544 125.782 225.707 128.677 222.697C131.09 220.311 133.541 217.759 133.541 212.885C133.612 207.915 130.955 205.323 128.4 202.629C125.261 199.302 122.018 196.008 121.844 188.866C121.774 181.646 125.087 178.145 128.265 174.612C130.955 171.847 133.612 169.01 133.612 163.686C133.58 158.464 130.987 155.737 128.439 152.965C125.267 149.568 122.198 146.383 122.404 139.731C122.649 133.252 125.75 130.029 128.819 126.947C131.238 124.388 133.792 121.867 133.966 117.245C134.242 112.655 132.036 110.554 129.932 108.452C127.48 105.964 125.171 103.727 126.168 98.2281C127.377 92.8324 130.652 89.4738 133.895 86.1474C136.623 83.3109 139.345 80.3714 140.593 76.2392C141.693 75.8201 142.832 75.3947 144.003 74.9757V74.9628ZM154.87 71.2109C153.802 77.5865 150.385 81.2996 147.001 85.116C144.273 88.0233 141.584 90.8598 140.895 95.3078C140.342 99.7881 142.516 101.89 144.755 104.094C147.689 106.866 150.726 109.735 150.591 116.388C150.52 123.041 147.239 126.264 144.073 129.59C141.519 132.117 139.004 134.702 139.004 139.679C139.074 144.688 141.661 147.35 144.286 150.084C147.631 153.481 150.977 156.878 151.048 163.918C151.151 171.028 147.837 174.393 144.595 177.861C141.937 180.666 139.28 183.431 139.28 188.75C139.177 193.971 141.802 196.634 144.421 199.296C147.528 202.59 150.803 205.846 150.668 212.705C150.527 219.531 147.252 222.793 143.971 225.913C141.455 228.402 139.004 230.922 139.074 235.648C139.28 240.27 141.834 242.894 144.492 245.595C147.734 248.96 151.119 252.492 151.665 258.971C152.354 265.417 149.697 267.938 147.348 270.181C145.56 271.935 143.868 273.65 144.968 277.988C143.758 277.498 142.587 277.111 141.519 276.692C139.859 270.981 141.97 268.989 144.209 266.778C146.107 264.889 148.146 263.032 147.657 258.307C147.136 253.575 144.485 250.848 141.828 248.147C138.547 244.821 135.407 241.598 135.066 235.325C134.892 229.021 137.89 226.042 141.069 222.961C143.623 220.337 146.28 217.778 146.351 212.808C146.415 207.728 143.868 205.098 141.313 202.474C138.141 199.148 134.892 195.854 134.931 188.743C134.931 181.568 138.244 178.1 141.455 174.632C144.144 171.86 146.769 169.133 146.769 163.911C146.666 158.657 144.009 155.892 141.384 153.165C138.071 149.697 134.867 146.37 134.828 139.608C134.867 132.988 138 129.764 141.107 126.651C143.662 124.059 146.216 121.429 146.358 116.594C146.493 111.759 144.041 109.451 141.732 107.208C138.939 104.475 136.321 101.954 137.144 96.0685C138.148 90.112 141.487 86.5406 144.839 83.1111C147.599 80.0297 150.327 76.9096 151.26 72.3262C152.431 71.9394 153.641 71.5526 154.882 71.2045L154.87 71.2109ZM166.045 68.4067C165.492 75.2722 162.288 78.8435 158.904 82.5567C156.214 85.6704 153.486 88.6164 152.972 93.4126C152.592 98.1701 155.043 100.588 157.456 102.902C160.667 105.848 163.909 109 163.871 115.898C163.806 122.763 160.493 126.161 157.109 129.416C154.522 132.149 151.897 134.773 151.968 139.821C152.071 144.862 154.767 147.595 157.456 150.329C160.834 153.726 164.186 157.123 164.218 164.092C164.289 171.067 161.007 174.425 157.765 177.823C155.108 180.556 152.45 183.322 152.386 188.543C152.277 193.726 154.94 196.389 157.559 199.083C160.769 202.339 164.083 205.633 163.941 212.64C163.909 219.538 160.461 222.832 157.076 226.12C154.387 228.679 151.73 231.2 151.73 236.176C151.833 241.114 154.522 243.848 157.282 246.613C160.628 250.114 164.083 253.582 164.353 260.376C164.733 267.21 161.799 270.252 159.142 272.921C156.967 274.952 155.037 276.841 155.86 281.643C154.651 281.295 153.409 280.979 152.238 280.554C150.964 274.32 153.377 271.87 155.963 269.311C158.138 267.242 160.448 265.108 160.1 260.138C159.862 255.129 157.064 252.151 154.374 249.353C150.926 246.026 147.676 242.558 147.471 236.009C147.438 229.427 150.681 226.236 153.988 223.013C156.716 220.382 159.476 217.759 159.541 212.647C159.644 207.567 156.986 204.872 154.368 202.21C151.196 198.916 147.915 195.628 148.05 188.621C148.12 181.51 151.363 178.081 154.638 174.645C157.295 171.95 159.952 169.217 159.882 164.066C159.811 158.883 157.154 156.117 154.464 153.423C151.048 149.955 147.767 146.596 147.664 139.731C147.561 132.968 150.771 129.713 154.046 126.457C156.671 123.795 159.36 121.1 159.36 116.053C159.463 111.011 156.845 108.555 154.323 106.138C151.254 103.16 148.32 100.394 148.905 93.9863C149.697 87.5785 153.01 83.9363 156.427 80.294C159.155 77.0708 161.741 73.9893 162.359 69.0513C163.568 68.9095 164.707 68.7032 166.013 68.4196L166.045 68.4067ZM177.33 67.3237C177.401 74.2601 174.364 77.6509 171.257 81.0869C168.638 83.8847 165.949 86.9661 165.736 92.0137C165.531 97.0548 168.188 99.4723 170.813 102.102C174.191 105.429 177.607 108.723 177.607 115.692C177.568 122.66 174.12 126.058 170.742 129.384C167.982 132.117 165.26 134.78 165.292 139.892C165.363 145.004 168.117 147.737 170.845 150.47C174.158 153.797 177.504 157.123 177.465 164.092C177.465 171.067 174.191 174.425 170.948 177.784C168.252 180.517 165.633 183.251 165.601 188.395C165.537 193.546 168.188 196.208 170.884 198.903C174.197 202.229 177.543 205.555 177.504 212.524C177.536 219.461 174.126 222.858 170.671 226.184C167.911 228.879 165.119 231.503 165.119 236.621C165.19 241.662 167.879 244.499 170.671 247.232C174.088 250.662 177.433 253.917 177.362 260.892C177.33 267.861 174.223 271.226 171.225 274.443C168.915 277.073 166.669 279.31 167.12 284.428C165.839 284.041 164.598 283.829 163.388 283.655C162.7 276.899 165.389 273.953 168.291 271.29C170.742 268.66 173.187 266.004 173.084 260.892C173.084 255.78 170.395 253.014 167.564 250.313C164.115 246.774 160.763 243.338 160.628 236.511C160.699 229.646 164.044 226.391 167.525 223.096C170.292 220.363 173.045 217.668 173.077 212.556C173.077 207.412 170.42 204.711 167.731 202.049C164.417 198.69 161.143 195.396 161.246 188.427C161.31 181.42 164.559 178.061 167.802 174.658C170.491 171.995 173.148 169.262 173.148 164.118C173.148 158.967 170.459 156.272 167.737 153.539C164.385 150.174 161.007 146.815 160.872 139.911C160.802 132.981 164.186 129.616 167.531 126.251C170.298 123.556 173.052 120.855 173.084 115.743C173.123 110.599 170.324 107.898 167.634 105.235C164.36 102.186 161.149 99.0726 161.49 92.3102C161.908 85.5156 165.286 82.0088 168.535 78.0893C171.083 75.2851 173.573 72.4873 173.637 67.4075C174.847 67.3043 176.159 67.1948 177.33 67.3043V67.3237ZM188.577 68.7548C189.233 75.5172 186.544 78.4568 183.642 81.1191C181.261 83.7493 178.778 86.4117 178.81 91.5173C178.881 96.6294 181.609 99.3949 184.33 102.128C187.779 105.629 191.163 109.065 191.305 115.891C191.273 122.757 187.888 126.012 184.44 129.345C181.712 132.04 178.919 134.741 178.887 139.885C178.887 144.997 181.577 147.731 184.234 150.393C187.547 153.687 190.829 157.014 190.726 164.021C190.623 171.022 187.374 174.355 184.131 177.784C181.442 180.453 178.784 183.141 178.784 188.292C178.817 193.436 181.512 196.169 184.234 198.903C187.618 202.268 190.996 205.588 191.137 212.524C191.17 219.428 187.863 222.787 184.446 226.113C181.68 228.847 178.894 231.548 178.855 236.692C178.817 241.811 181.577 244.499 184.305 247.2C187.618 250.21 190.79 253.363 190.481 260.125C189.999 266.887 186.685 270.42 183.475 274.346C180.888 277.15 178.366 279.916 178.334 285.06C177.124 285.099 175.915 285.163 174.609 285.131C174.538 278.162 177.575 274.765 180.676 271.329C183.34 268.563 185.99 265.482 186.228 260.409C186.402 255.4 183.745 252.982 181.12 250.32C177.742 247.026 174.358 243.699 174.358 236.731C174.358 229.794 177.806 226.403 181.261 223.038C183.989 220.344 186.75 217.643 186.679 212.531C186.608 207.419 183.854 204.724 181.126 201.952C177.781 198.626 174.467 195.299 174.467 188.331C174.506 181.394 177.781 177.997 180.991 174.638C183.648 171.944 186.338 169.21 186.376 164.06C186.447 158.877 183.751 156.214 181.094 153.52C177.781 150.187 174.435 146.86 174.467 139.93C174.435 132.923 177.851 129.564 181.339 126.238C184.067 123.576 186.82 120.913 186.82 115.84C186.782 110.721 183.996 107.924 181.268 105.19C177.858 101.825 174.506 98.4666 174.577 91.5624C174.609 84.5938 177.684 81.1965 180.676 77.9733C183.056 75.3431 185.27 73.1062 184.89 68.0586C186.132 68.4067 187.303 68.5807 188.583 68.7613L188.577 68.7548ZM199.72 71.9071C200.93 78.1409 198.511 80.5261 195.963 83.1176C193.788 85.1482 191.478 87.3207 191.826 92.3296C192.064 97.2998 194.895 100.278 197.584 103.076C200.93 106.473 204.243 109.909 204.411 116.42C204.481 123.002 201.271 126.193 197.925 129.448C195.236 132.04 192.514 134.702 192.373 139.814C192.27 144.894 194.959 147.55 197.546 150.251C200.756 153.468 203.999 156.801 203.857 163.84C203.825 170.951 200.544 174.348 197.269 177.745C194.612 180.511 191.993 183.212 192.058 188.389C192.128 193.539 194.818 196.337 197.507 199.038C200.885 202.435 204.198 205.833 204.301 212.692C204.404 219.486 201.232 222.71 197.919 226.004C195.262 228.698 192.611 231.361 192.508 236.408C192.476 241.411 195.062 243.867 197.616 246.317C200.653 249.224 203.619 252.06 203.002 258.468C202.242 264.876 198.897 268.447 195.513 272.161C192.785 275.384 190.166 278.504 189.613 283.442C188.339 283.584 187.129 283.758 185.92 284.041C186.402 277.208 189.677 273.643 193.029 269.891C195.757 266.739 198.479 263.799 198.961 259.068C199.373 254.201 196.96 251.854 194.509 249.54C191.266 246.562 188.023 243.409 188.056 236.511C188.126 229.646 191.504 226.281 194.818 222.993C197.513 220.299 200.1 217.636 200.029 212.627C199.926 207.586 197.198 204.814 194.541 202.12C191.125 198.69 187.779 195.325 187.715 188.324C187.676 181.317 190.925 177.99 194.129 174.593C196.819 171.828 199.514 169.094 199.547 163.911C199.688 158.69 197.031 156.066 194.406 153.371C191.195 150.077 187.882 146.751 187.985 139.821C188.088 132.884 191.536 129.59 194.888 126.303C197.546 123.743 200.196 121.223 200.196 116.285C200.093 111.347 197.372 108.581 194.708 105.848C191.298 102.315 187.843 98.8792 187.534 92.0846C187.187 85.2191 190.121 82.2473 192.842 79.4753C194.914 77.4769 196.877 75.5816 196.085 70.8241C197.295 71.1722 198.466 71.4881 199.707 71.9071H199.72ZM210.484 75.7621C212.035 81.4737 209.963 83.3948 207.685 85.6381C205.755 87.5269 203.754 89.4222 204.308 94.1152C204.79 98.8405 207.447 101.574 210.105 104.268C213.347 107.563 216.558 110.85 216.867 117.052C217.111 123.389 214.042 126.367 210.896 129.481C208.31 132.111 205.723 134.664 205.588 139.673C205.485 144.752 208.11 147.305 210.626 149.968C213.798 153.229 217.118 156.549 217.008 163.699C217.008 170.88 213.695 174.277 210.458 177.81C207.833 180.543 205.176 183.309 205.208 188.563C205.311 193.784 207.969 196.511 210.594 199.283C213.907 202.713 217.118 206.045 217.182 212.834C217.15 219.454 214.042 222.677 210.902 225.797C208.316 228.389 205.73 231.084 205.594 235.886C205.459 240.682 207.911 243.029 210.285 245.272C213.013 247.935 215.702 250.526 214.84 256.412C213.836 262.33 210.491 265.933 207.177 269.369C204.385 272.451 201.657 275.571 200.66 280.154C199.489 280.534 198.318 280.928 197.07 281.205C198.176 274.868 201.554 271.084 204.938 267.371C207.731 264.431 210.388 261.627 211.076 257.147C211.629 252.628 209.455 250.526 207.177 248.354C204.282 245.549 201.207 242.681 201.419 236.067C201.483 229.407 204.764 226.152 207.936 222.858C210.458 220.299 213.077 217.778 213.006 212.769C212.903 207.76 210.317 205.059 207.66 202.371C204.314 198.903 201.001 195.538 200.898 188.498C200.827 181.388 204.108 178.023 207.351 174.593C210.04 171.757 212.659 168.991 212.697 163.699C212.73 158.445 210.182 155.789 207.525 153.159C204.417 149.826 201.181 146.577 201.348 139.711C201.483 132.884 204.764 129.59 208.007 126.541C210.458 124.02 213.013 121.532 212.871 116.807C212.697 112.152 210.04 109.522 207.454 106.86C204.179 103.463 200.827 99.9622 200.312 93.4448C199.624 86.9661 202.178 84.4455 204.591 82.2408C206.418 80.4552 208.078 78.8113 206.971 74.4664C208.142 74.8854 209.32 75.3109 210.491 75.7621H210.484ZM220.489 79.8299C222.348 84.9741 220.624 86.6244 218.726 88.5133C217.073 90.1571 215.316 91.8783 216.037 96.1523C216.693 100.491 219.247 103.121 221.834 105.745C224.903 108.858 228.042 112.011 228.563 117.864C228.982 123.885 226.151 126.76 223.288 129.706C220.875 132.156 218.424 134.676 218.424 139.582C218.353 144.591 220.978 147.183 223.494 149.806C226.704 153.101 229.979 156.466 230.05 163.608C230.153 170.822 226.839 174.322 223.667 177.823C221.01 180.627 218.359 183.425 218.321 188.717C218.391 194.01 220.978 196.737 223.564 199.47C226.704 202.829 229.812 206.052 229.599 212.743C229.355 219.228 226.286 222.413 223.217 225.527C220.733 228.086 218.179 230.607 218.005 235.229C217.767 239.812 219.942 241.914 222.046 243.983C224.491 246.433 226.871 248.779 225.803 254.207C224.562 259.635 221.319 262.961 218.038 266.288C215.31 269.156 212.652 272.135 211.34 276.267C210.272 276.686 209.133 277.144 207.962 277.53C209.448 271.716 212.794 268.073 216.14 264.463C218.829 261.769 221.486 259.106 222.316 255.045C223.075 250.81 221.107 248.921 219.106 246.987C216.481 244.434 213.72 241.765 213.997 235.499C214.209 229.124 217.349 225.907 220.45 222.787C222.934 220.163 225.456 217.675 225.559 212.808C225.591 207.87 223.178 205.24 220.553 202.545C217.311 199.148 214.068 195.75 214.036 188.672C213.997 181.491 217.278 178.061 220.521 174.593C223.178 171.757 225.868 168.92 225.803 163.595C225.765 158.335 223.146 155.608 220.521 152.946C217.381 149.587 214.171 146.325 214.242 139.569C214.312 132.884 217.381 129.764 220.418 126.786C222.767 124.369 225.038 122.093 224.8 117.574C224.484 113.126 221.969 110.605 219.453 108.046C216.243 104.752 213.038 101.464 212.279 95.3659C211.314 89.3835 213.553 87.2755 215.657 85.3158C217.208 83.8138 218.623 82.3762 217.278 78.5212C218.346 78.9402 219.421 79.3593 220.489 79.817V79.8299ZM229.664 84.1361C231.768 88.6938 230.391 89.9831 228.834 91.5624C227.483 92.8904 225.971 94.3989 226.865 98.3248C227.663 102.322 230.178 104.874 232.662 107.356C235.699 110.444 238.735 113.558 239.565 119.128C240.254 124.904 237.738 127.463 235.081 130.228C232.874 132.472 230.629 134.812 230.77 139.647C230.944 144.514 233.53 147.208 236.117 149.91C239.36 153.268 242.737 156.672 243.085 163.705C243.329 170.886 240.016 174.284 236.767 177.784C234.142 180.627 231.491 183.463 231.42 188.782C231.246 194.003 233.839 196.73 236.284 199.393C239.212 202.577 242.113 205.697 241.631 212.247C241.077 218.552 237.938 221.768 234.901 224.921C232.417 227.448 229.966 229.968 229.625 234.378C229.207 238.652 231.143 240.611 232.971 242.468C235.145 244.64 237.114 246.639 235.802 251.719C234.315 256.657 231.246 259.809 228.107 263.032C225.449 265.656 222.799 268.428 221.377 272.135C220.309 272.592 219.273 273.044 218.237 273.501C219.994 268.247 223.243 264.85 226.556 261.524C229.11 258.932 231.665 256.373 232.63 252.595C233.556 248.779 231.903 247.129 230.178 245.343C227.798 243.068 225.379 240.65 225.9 234.732C226.312 228.64 229.31 225.488 232.385 222.336C234.869 219.776 237.423 217.217 237.7 212.46C237.976 207.625 235.634 205.066 233.215 202.513C230.146 199.219 227.039 195.892 227.109 188.782C227.148 181.529 230.455 178.061 233.698 174.561C236.355 171.724 238.98 168.92 238.845 163.634C238.671 158.412 235.911 155.647 233.325 152.952C230.043 149.555 226.871 146.267 226.768 139.576C226.633 133.026 229.496 130.087 232.257 127.25C234.399 125.045 236.471 122.944 236.02 118.67C235.499 114.467 233.054 111.946 230.603 109.49C227.534 106.338 224.394 103.185 223.429 97.6221C222.258 92.0524 224.118 90.2345 225.913 88.5519C227.154 87.2884 228.325 86.1667 226.807 82.7372C227.74 83.1949 228.705 83.6462 229.67 84.1361H229.664ZM237.873 88.7582C240.254 92.7873 239.289 93.7994 238.047 94.992C236.979 96.0427 235.737 97.2676 236.837 100.878C237.841 104.591 240.286 107.04 242.673 109.529C245.671 112.642 248.708 115.724 249.885 121.016C251.018 126.515 248.779 128.791 246.469 131.241C244.468 133.349 242.435 135.515 242.776 140.208C243.156 144.972 245.813 147.673 248.612 150.399C251.957 153.829 255.438 157.265 256.03 164.092C256.474 171.028 253.167 174.355 249.956 177.752C247.331 180.517 244.674 183.354 244.404 188.608C244.198 193.829 246.475 196.382 248.856 198.87C251.687 201.952 254.344 204.75 253.411 211.125C252.485 217.217 249.274 220.511 246.096 223.735C243.612 226.326 241.129 228.814 240.543 233.05C239.919 237.182 241.611 238.864 243.168 240.476C244.996 242.333 246.649 244.009 245.028 248.67C243.271 253.221 240.235 256.302 237.198 259.39C234.65 261.911 232.096 264.47 230.507 267.796C229.509 268.254 228.576 268.744 227.643 269.202C229.644 264.541 232.816 261.356 235.956 258.204C238.44 255.716 240.923 253.227 242.094 249.759C243.233 246.226 241.856 244.86 240.402 243.39C238.401 241.359 236.265 239.187 237.024 233.546C237.712 227.77 240.781 224.579 243.85 221.427C246.437 218.803 248.991 216.141 249.609 211.551C250.091 206.858 247.955 204.511 245.748 202.126C242.815 198.974 239.816 195.75 240.157 188.711C240.363 181.459 243.645 178.029 246.887 174.6C249.474 171.802 252.131 169.068 251.783 163.956C251.539 158.806 248.573 156.04 245.916 153.307C242.57 149.877 239.289 146.48 238.845 139.969C238.465 133.593 241.013 130.86 243.606 128.269C245.465 126.309 247.299 124.414 246.54 120.32C245.813 116.291 243.329 113.803 240.987 111.353C237.951 108.239 234.882 105.19 233.64 100.04C232.295 94.9984 233.82 93.419 235.197 92.091C236.162 91.1112 237.024 90.2731 235.332 87.224C236.123 87.7139 237.024 88.2038 237.886 88.7647L237.873 88.7582ZM245.157 93.838C247.775 97.4803 247.157 98.1507 246.327 98.9565C245.498 99.7624 244.565 100.71 245.877 103.998C247.151 107.395 249.57 109.916 252.015 112.365C255.02 115.518 258.05 118.67 259.71 123.711C261.299 128.997 259.401 130.925 257.368 133.065C255.605 134.921 253.778 136.881 254.537 141.368C255.161 146.022 258.056 148.756 260.855 151.521C264.304 154.989 268.1 158.425 268.891 164.865C269.547 171.376 266.408 174.464 263.133 177.649C260.443 180.343 257.748 183.115 257.304 188.189C257.027 193.198 259.099 195.615 261.235 197.891C263.924 200.663 266.343 203.248 264.889 209.275C263.512 215.193 260.09 218.526 256.853 221.82C254.228 224.45 251.713 227.106 250.818 231.135C249.956 235.022 251.372 236.46 252.646 237.756C254.132 239.329 255.406 240.631 253.373 245.04C251.269 249.211 248.264 252.222 245.337 255.232C242.853 257.682 240.434 260.202 238.639 263.148C237.712 263.67 236.921 264.199 236.053 264.721C238.362 260.55 241.438 257.475 244.468 254.394C246.849 251.944 249.229 249.456 250.715 246.304C252.131 243.01 251.024 241.927 249.853 240.663C248.2 239.019 246.437 237.163 247.505 231.87C248.573 226.268 251.68 223.083 254.891 219.757C257.516 217.095 260.27 214.4 261.203 209.984C262.033 205.433 260.135 203.364 258.063 201.127C255.335 198.258 252.543 195.248 253.057 188.382C253.501 181.343 256.75 177.977 260.025 174.651C262.644 172.021 265.198 169.468 264.683 164.562C264.233 159.695 261.235 156.93 258.333 154.158C254.955 150.728 251.468 147.292 250.709 140.917C249.879 134.683 252.227 132.265 254.402 130.022C256.023 128.307 257.542 126.664 256.577 122.705C255.438 118.928 252.954 116.401 250.574 113.88C247.569 110.76 244.539 107.679 242.982 102.915C241.328 98.2603 242.538 97.1064 243.535 96.1201C244.224 95.4174 244.777 94.8566 242.847 92.162C243.606 92.6841 244.365 93.2836 245.163 93.838H245.157Z" fill="#BABBCD"/>
<defs>
<linearGradient id="paint0_linear" x1="176" y1="0" x2="176" y2="352.398" gradientUnits="userSpaceOnUse">
<stop stop-color="#E4BFA2"/>
<stop offset="1" stop-color="#E4BFA2" stop-opacity="0"/>
</linearGradient>
</defs>
</svg>
