<svg width="56" height="56" viewBox="0 0 56 56" fill="none" xmlns="http://www.w3.org/2000/svg">
<path d="M28 54.25C42.4975 54.25 54.25 42.4975 54.25 28C54.25 13.5025 42.4975 1.75 28 1.75C13.5025 1.75 1.75 13.5025 1.75 28C1.75 42.4975 13.5025 54.25 28 54.25Z" stroke="#231F20" stroke-miterlimit="10" stroke-linecap="round" stroke-linejoin="round"/>
<path d="M45.5 28H49.875M28 6.125V10.5V6.125ZM28 45.5V49.875V45.5ZM6.125 28H10.5H6.125Z" stroke="#231F20" stroke-miterlimit="10" stroke-linecap="round" stroke-linejoin="round"/>
<path d="M28 30.625C28.9665 30.625 29.75 29.8415 29.75 28.875C29.75 27.9085 28.9665 27.125 28 27.125C27.0335 27.125 26.25 27.9085 26.25 28.875C26.25 29.8415 27.0335 30.625 28 30.625Z" stroke="#231F20" stroke-miterlimit="10" stroke-linecap="round" stroke-linejoin="round"/>
<path d="M42 15.75L29.5942 28.1558M26.3235 28.378L18.375 21.875L26.3235 28.378Z" stroke="#231F20" stroke-miterlimit="10" stroke-linecap="round" stroke-linejoin="round"/>
</svg>
