<svg width="1920" height="830" viewBox="0 0 1920 830" fill="none" xmlns="http://www.w3.org/2000/svg">
<g opacity="0.1">
<g clip-path="url(#clip0)">
<path d="M1920 781.999C1898.94 795.078 1877.88 808.157 1857.66 822.08C1833.23 838.957 1810.9 857.521 1789.42 875.241C1743.5 913.213 1700.11 949.075 1638.61 973.124C1625.13 978.609 1611.65 984.094 1598.17 989.579H1603.23C1615.02 984.516 1627.24 979.875 1639.03 974.812C1700.96 950.341 1744.34 914.479 1790.26 876.507C1811.74 858.787 1834.07 840.223 1858.08 823.346C1877.46 809.845 1898.52 796.344 1919.16 783.687V781.999H1920Z" fill="#999AB5"/>
<path d="M1920 722.087C1906.1 730.948 1892.62 739.808 1879.98 749.512C1855.97 767.232 1834.49 786.218 1813.43 804.782C1769.62 844.019 1727.92 880.725 1664.73 903.93C1612.08 923.338 1557.74 946.121 1489.5 977.343C1480.65 981.562 1471.38 985.781 1462.54 990H1467.17C1474.75 986.203 1482.76 982.828 1490.34 979.03C1559 947.387 1612.92 925.026 1665.57 905.618C1729.18 882.413 1770.88 845.285 1815.11 806.047C1835.75 787.483 1857.66 768.497 1881.67 750.777C1894.3 741.495 1907.36 732.635 1920.84 724.197V722.087H1920Z" fill="#999AB5"/>
<path d="M1920 663.864C1913.68 668.083 1907.78 672.724 1901.89 676.943C1877.88 695.086 1857.24 714.915 1837.02 734.323C1794.89 774.405 1755.3 812.376 1690.43 834.316C1633.14 853.724 1577.11 876.507 1513.51 905.618C1468.43 926.292 1423.36 949.919 1375.34 974.39C1366.49 979.031 1357.23 983.672 1348.38 988.313C1347.12 988.735 1345.85 989.578 1344.59 990H1348.8C1358.07 985.359 1366.92 980.718 1375.76 976.077C1423.36 951.607 1468.85 928.401 1513.93 907.306C1577.11 878.194 1633.56 855.411 1690.43 836.003C1755.72 814.064 1795.31 775.67 1837.86 735.589C1858.08 716.603 1878.72 696.351 1902.73 678.631C1908.21 674.412 1914.1 670.193 1919.58 666.396V663.864H1920Z" fill="#999AB5"/>
<path d="M164.704 915.322L170.18 920.385C182.396 931.355 193.769 942.324 204.721 952.872C218.201 965.951 231.259 978.187 244.318 989.578H247.266C233.787 977.765 220.307 964.686 205.985 951.184C195.033 940.637 183.659 929.667 171.443 918.697L165.967 913.634C141.957 891.695 117.104 868.912 89.3022 849.926C60.658 830.94 30.7502 817.861 -0.42139 810.688V812.798C29.9077 819.549 59.8156 832.628 88.0385 851.614C115.84 870.6 140.693 893.383 164.704 915.322Z" fill="#999AB5"/>
<path d="M1920 602.688C1912 608.594 1903.99 614.079 1896.41 620.408C1872.82 638.972 1853.02 659.223 1834.07 679.053C1794.47 720.4 1756.98 759.216 1690.85 779.046C1632.72 797.188 1575.01 818.705 1513.93 846.129C1460.85 869.756 1408.2 897.181 1349.64 927.558C1295.73 955.826 1248.55 976.078 1204.32 990.001H1210.64C1253.18 976.5 1298.68 956.67 1350.49 929.246C1409.04 898.446 1461.27 871.444 1514.77 847.817C1575.43 820.815 1633.14 798.876 1691.27 781.155C1757.82 760.904 1795.31 721.666 1835.33 680.319C1854.29 660.489 1874.09 640.237 1897.67 621.673C1904.84 615.767 1912.42 610.282 1920 604.797V602.688Z" fill="#999AB5"/>
<path d="M159.228 861.318C165.125 866.381 171.023 871.444 176.499 876.507C182.396 881.57 188.293 886.633 194.191 891.696C243.476 934.308 284.336 969.749 336.569 990H342.045C287.705 970.171 246.003 934.308 195.455 890.43C189.557 885.367 184.081 880.304 177.763 875.241C171.865 870.178 165.968 865.115 160.492 860.052C139.851 842.332 118.789 823.768 96.0424 807.735C65.2921 786.218 32.8568 771.451 0.421557 763.013V765.123C32.8568 773.139 64.8709 788.328 95.2 809.423C117.526 825.034 138.587 843.598 159.228 861.318Z" fill="#999AB5"/>
<path d="M1920 541.088C1909.89 548.261 1900.2 555.433 1890.93 563.028C1868.19 582.014 1849.23 603.109 1831.12 623.361C1793.63 665.552 1758.67 705.211 1691.69 723.775C1631.87 740.652 1574.16 760.903 1514.77 786.218C1457.48 810.689 1400.19 840.644 1351.33 866.803C1288.57 900.555 1205.16 940.637 1116.28 952.028C1053.94 960.467 987.802 956.247 901.869 938.527C888.811 935.996 875.331 933.042 862.694 930.089C807.933 917.854 756.542 906.462 704.73 907.306C662.185 908.15 621.325 916.588 581.729 925.026C540.869 933.464 498.324 942.746 452.83 943.168C332.778 944.856 275.489 903.509 184.081 830.518C173.971 822.502 164.283 814.064 154.594 806.048C137.745 791.703 120.474 777.358 102.361 764.279C68.6617 740.652 34.1202 723.353 0 713.649V715.759C33.699 725.463 68.2405 742.339 101.097 766.388C119.21 779.467 136.481 794.234 153.33 808.157C163.019 816.173 173.129 824.612 182.817 832.628C274.226 906.04 331.935 947.809 452.83 945.7C498.324 944.856 540.869 935.996 582.15 927.558C623.431 918.698 662.606 910.681 704.73 909.837C706.415 909.837 708.521 909.837 710.206 909.837C759.912 909.837 809.618 920.807 862.273 932.621C874.91 935.574 888.39 938.527 901.448 941.059C987.802 958.779 1053.94 962.998 1116.28 954.56C1205.58 942.746 1289.41 902.665 1352.17 868.912C1400.61 842.754 1457.9 812.798 1515.19 788.328C1574.59 763.013 1632.29 742.339 1691.69 725.885C1759.09 707.321 1794.89 667.239 1832.38 625.048C1850.5 604.797 1869.45 583.701 1892.2 564.715C1901.04 557.543 1910.31 550.37 1920 543.62V541.088Z" fill="#999AB5"/>
<path d="M1920 479.912C1907.78 488.35 1895.99 497.21 1885.04 506.492C1862.71 525.9 1845.02 547.417 1827.75 568.513C1792.79 611.547 1759.51 652.051 1691.69 668.927C1631.45 683.694 1573.74 703.102 1515.19 727.151C1467.17 746.98 1417.04 771.451 1353.01 806.892C1290.67 841.066 1207.69 881.992 1120.91 895.915C1057.73 906.04 989.908 903.087 908.188 887.055C890.917 883.679 874.068 879.882 857.218 876.085C807.512 865.115 760.334 854.567 712.734 853.724C667.661 852.88 625.538 860.052 580.886 867.647C542.975 873.975 503.8 880.726 462.097 881.992C341.624 885.367 280.965 855.833 189.978 787.906C175.656 777.358 161.755 765.966 148.276 754.575C135.217 744.027 122.159 733.057 108.258 722.51C71.6104 694.242 35.3839 674.834 0 663.442V665.552C34.9627 676.943 70.7679 696.351 107.416 723.354C120.895 733.479 134.375 744.449 147.433 755.419C160.913 766.388 174.814 778.202 189.136 788.749C280.544 857.099 341.624 887.055 462.519 883.257C504.221 881.992 543.818 875.241 581.729 868.912C625.959 861.318 667.661 854.146 713.155 855.411C760.334 856.255 807.512 866.803 857.218 877.772C874.068 881.57 890.917 885.367 908.188 888.742C990.329 904.775 1058.15 907.728 1121.76 897.602C1208.95 883.679 1291.94 842.754 1354.28 808.579C1418.31 773.561 1468.43 749.09 1516.45 729.26C1575.43 705.211 1633.14 686.225 1692.95 671.037C1761.61 653.738 1794.89 613.235 1830.28 570.2C1847.55 549.105 1865.24 527.587 1887.56 508.18C1898.1 499.319 1909.47 490.459 1921.26 482.443V479.912H1920Z" fill="#999AB5"/>
<path d="M1920 418.312C1905.68 428.438 1892.2 438.564 1879.56 449.534C1857.66 469.364 1840.81 491.725 1824.8 513.242C1791.94 557.121 1761.19 598.468 1692.11 613.657C1631.03 627.158 1572.9 644.878 1515.61 667.661C1466.33 687.069 1414.94 711.962 1354.28 746.136C1288.14 783.264 1209.37 822.924 1125.55 838.535C1061.52 850.348 992.435 849.082 914.506 834.315C893.445 830.096 872.383 825.455 851.742 820.814C806.67 810.688 764.125 800.985 721.158 798.453C671.452 795.5 625.116 801.828 576.253 808.157C542.975 812.798 508.012 817.017 471.786 818.705C350.048 824.19 288.548 806.891 196.297 742.761C177.762 730.104 160.07 715.337 142.799 700.992C133.953 693.398 124.265 685.803 114.998 678.631C74.559 647.409 35.8052 625.048 0 611.969V614.079C35.3839 627.158 73.7165 649.519 113.313 680.74C122.58 687.913 131.847 695.929 141.115 703.102C158.385 717.446 176.498 731.791 195.033 744.871C287.705 809.423 349.627 826.299 471.786 821.236C508.434 819.549 542.975 814.908 576.674 810.688C625.537 804.36 671.452 798.031 721.158 800.985C764.125 803.516 806.67 813.22 851.742 823.346C872.383 827.987 893.445 832.628 914.506 836.847C992.857 851.614 1062.36 852.88 1126.39 841.066C1210.64 825.455 1289.41 785.374 1355.54 748.668C1416.2 714.493 1467.59 689.6 1516.45 670.193C1573.74 647.409 1631.45 630.111 1692.95 616.61C1762.88 600.999 1794.05 559.652 1826.91 515.352C1842.91 493.834 1859.76 471.473 1881.67 452.065C1893.88 441.518 1906.94 431.392 1920.84 421.688V418.312H1920Z" fill="#999AB5"/>
<path d="M1920 356.713C1903.57 368.105 1887.99 379.918 1874.09 392.998C1852.6 413.249 1837.02 436.032 1821.85 458.394C1791.52 503.116 1762.88 545.307 1692.53 558.808C1629.35 571.044 1571.64 587.498 1516.03 608.172C1465.48 627.157 1414.52 651.628 1355.54 685.803C1289.83 723.353 1211.48 764.278 1130.18 781.576C1064.89 795.499 996.226 795.921 920.825 782.42C895.551 777.779 870.698 771.872 846.266 766.388C805.827 757.106 767.916 747.824 729.162 744.448C672.295 738.963 619.219 744.448 563.194 749.933C536.656 752.465 509.276 755.418 481.053 757.106C362.685 763.856 296.551 760.481 202.194 699.726C179.026 684.959 157.543 667.239 136.481 649.519C131.426 645.3 125.95 640.659 120.895 636.439C75.4015 598.89 35.8052 573.575 0 558.808V560.918C35.3839 575.685 74.559 600.999 119.631 637.705C124.686 641.924 130.162 646.143 135.217 650.784C156.279 668.083 177.762 686.225 200.93 700.992C295.709 762.169 362.264 765.544 481.053 758.793C509.697 757.106 537.078 754.574 563.194 751.621C619.219 746.136 671.874 740.651 728.741 746.136C767.073 749.933 805.406 758.793 845.423 768.075C869.855 773.982 895.129 779.467 919.982 784.108C995.805 797.609 1064.47 797.609 1130.18 783.264C1211.9 765.966 1290.25 725.04 1355.96 687.069C1414.94 653.316 1465.91 628.845 1516.03 609.859C1571.64 588.764 1629.35 572.731 1692.11 560.496C1763.3 546.995 1791.94 504.382 1822.69 459.237C1837.86 436.876 1853.44 414.093 1874.93 393.841C1888.41 381.184 1903.57 369.793 1919.58 358.401V356.713H1920Z" fill="#999AB5"/>
<path d="M1920 295.114C1901.89 307.772 1883.77 321.273 1868.61 336.039C1847.55 356.713 1832.8 380.34 1818.9 403.123C1791.1 448.689 1764.56 491.724 1692.95 503.538C1628.93 514.085 1571.22 529.274 1516.45 548.682C1465.91 566.824 1413.67 591.717 1357.23 625.048C1288.14 665.129 1213.59 705.21 1135.24 724.196C1068.68 740.651 1000.86 742.338 927.565 729.681C898.078 724.618 869.013 717.446 840.79 710.695C805.406 701.835 771.707 693.819 737.587 689.178C668.083 679.896 602.791 684.959 533.287 690.444C519.386 691.709 505.064 692.553 490.742 693.819C482.738 694.241 474.735 695.085 467.153 695.506C365.213 703.101 298.236 708.164 208.513 654.581C180.711 638.127 155.858 616.609 131.426 595.936L127.635 592.561C89.3026 560.073 44.2302 523.789 0.842795 503.538C0.842795 503.538 0.421557 503.538 0.421557 503.116V505.225C43.3878 525.477 88.0389 561.339 126.372 593.826L130.163 597.201C154.594 617.875 179.869 639.392 207.67 655.847C297.815 709.429 365.634 704.367 467.574 696.772C475.156 696.35 483.16 695.506 491.163 695.085C505.485 694.241 519.807 692.975 533.708 691.709C602.791 686.224 668.504 680.74 737.587 690.444C771.707 695.085 804.985 703.101 840.79 711.961C869.013 718.711 898.078 725.884 927.565 730.947C1001.28 743.604 1069.52 741.917 1136.08 725.462C1214.85 706.476 1289.41 666.395 1358.49 625.891C1414.94 592.56 1467.17 567.668 1517.72 549.526C1572.06 529.696 1629.77 515.351 1693.8 504.381C1765.83 492.568 1792.79 449.111 1821.01 403.123C1834.91 380.34 1849.65 356.713 1870.29 336.039C1885.04 321.695 1902.31 308.615 1920.42 295.958V295.114H1920Z" fill="#999AB5"/>
<path d="M1920 233.517C1899.78 247.862 1879.56 262.628 1863.13 279.505C1842.49 300.6 1829.01 325.071 1815.95 348.698C1790.26 395.108 1765.83 438.987 1693.8 449.112C1627.66 458.395 1571.64 471.474 1517.3 490.038C1466.33 507.758 1414.52 532.229 1358.91 565.56C1279.3 613.235 1211.48 648.676 1140.29 668.506C1072.89 687.07 1005.49 690.445 933.883 678.631C900.605 673.147 867.328 664.708 835.314 656.27C804.563 648.254 775.498 640.659 746.011 635.597C659.658 620.408 580.465 625.471 500.43 632.643C478.947 634.331 459.149 636.862 440.193 638.972C355.524 648.676 294.445 655.848 214.831 611.97C185.344 595.937 159.649 573.998 133.953 551.215L129.741 547.417C86.7749 509.446 49.706 476.537 12.6371 454.597C8.42475 451.644 4.21237 449.534 0 447.003V449.112C3.79114 451.222 7.58227 453.332 11.3734 455.441C48.0211 477.38 85.09 510.289 128.056 548.261L132.269 552.058C157.964 574.842 183.66 596.781 213.567 612.813C294.024 656.692 355.103 649.52 440.193 639.816C459.149 637.706 478.947 635.175 500.43 633.487C580.465 626.736 659.658 621.674 745.59 636.44C775.077 641.503 804.142 649.098 834.892 657.114C866.906 665.552 900.184 673.99 933.883 679.475C1005.49 691.289 1073.31 687.913 1140.71 669.349C1212.32 649.941 1280.14 614.079 1359.75 566.403C1415.36 533.494 1466.75 508.602 1517.72 491.303C1572.06 472.739 1628.08 459.66 1693.8 450.378C1767.09 440.252 1791.52 395.952 1817.64 349.12C1830.7 325.493 1844.18 301.444 1864.4 280.349C1880.4 263.894 1900.2 249.127 1920 235.204V233.517Z" fill="#999AB5"/>
<path d="M1920 182.465C1916.63 185.419 1913.68 187.95 1910.31 190.904C1889.67 208.624 1867.77 226.766 1848.81 245.752C1834.49 260.097 1822.69 275.285 1810.9 290.052C1808.37 293.428 1805.84 296.803 1802.9 300.178C1799.95 303.975 1796.58 308.194 1793.63 311.992C1764.14 349.963 1736.34 385.404 1669.79 395.108C1605.76 404.39 1550.58 418.735 1495.81 440.252C1446.53 459.238 1396.4 484.553 1342.06 517.461C1274.66 558.387 1201.37 598.468 1124.28 617.454C1107.01 621.673 1089.32 625.048 1071.63 627.158C1023.19 633.065 973.48 630.533 920.404 619.986C890.075 613.657 859.746 605.219 830.68 596.781C797.824 587.499 767.074 578.638 735.481 572.732C699.676 565.981 664.292 563.028 627.644 563.872C583.835 564.715 538.763 570.622 493.269 576.951C475.156 579.482 457.885 582.436 441.457 584.967C384.169 594.671 334.463 602.687 282.651 590.874C259.061 585.389 235.893 576.107 211.883 562.184C182.817 545.308 157.964 521.681 134.375 498.897C129.32 493.835 124.265 489.194 119.632 484.553C98.9911 464.301 79.6142 445.315 60.6585 428.861C46.7577 417.047 33.2781 406.499 20.2197 397.639C13.9012 393.42 7.16136 389.623 0.421557 385.826V387.935C7.16136 391.311 13.4799 395.108 19.3772 398.905C32.4356 407.343 45.9152 417.891 59.3948 429.704C78.3505 446.159 97.7274 465.145 118.368 485.396C123.423 490.037 128.056 495.1 133.111 499.741C156.279 522.524 181.554 546.151 210.619 563.028C234.63 576.951 257.798 586.655 281.808 592.139C333.62 603.953 383.748 595.515 441.457 586.233C457.885 583.279 475.156 580.748 493.269 578.216C539.184 571.888 583.835 565.981 627.644 565.137C664.292 564.715 699.254 567.247 735.059 573.997C766.652 579.904 797.403 588.342 830.259 597.624C859.746 606.062 889.654 614.501 920.404 620.829C973.901 631.377 1023.61 633.909 1072.47 628.002C1090.16 625.892 1107.85 622.517 1125.55 618.298C1202.63 599.312 1275.93 558.809 1343.75 517.883C1398.09 484.974 1448.21 460.082 1497.5 441.096C1552.26 420 1607.02 405.655 1671.05 396.373C1738.45 386.67 1766.67 350.385 1796.16 312.413C1799.11 308.616 1802.05 304.819 1805.42 300.6C1807.95 297.225 1810.48 293.849 1813.43 290.474C1824.8 275.707 1837.02 260.519 1850.92 246.596C1869.87 227.61 1890.51 210.311 1912.42 191.747C1915.37 189.216 1917.89 187.106 1920.84 184.575V182.465H1920Z" fill="#999AB5"/>
<path d="M1920 123.82C1892.62 153.354 1863.98 183.31 1834.49 212.421C1829.01 217.906 1823.96 222.969 1818.9 228.454C1807.95 239.845 1797.42 250.393 1785.63 260.519C1780.57 265.16 1775.52 269.379 1770.46 274.02C1737.6 303.976 1706.85 331.822 1646.2 341.104C1583.85 350.808 1529.51 366.418 1474.75 390.045C1427.99 410.297 1379.13 436.034 1325.21 468.942C1262.03 507.336 1186.63 549.105 1108.28 566.404C1091 570.201 1073.31 572.732 1056.04 574.42C1009.28 578.217 960.421 573.998 906.503 561.341C879.122 554.59 851.742 546.152 825.204 538.136C791.926 528.01 757.385 517.04 723.686 510.712C687.038 503.539 652.075 501.008 616.691 502.695C572.04 504.805 527.81 513.665 484.844 522.103C469.68 525.056 454.936 528.432 441.036 531.385C382.062 544.464 331.093 555.856 277.595 543.199C254.006 537.714 231.259 528.01 208.091 513.243C179.868 495.523 156.279 471.052 134.375 447.425C127.214 439.831 120.474 432.236 113.734 425.064C96.8846 406.922 81.2988 390.045 65.713 374.435C53.4971 362.199 40.4388 351.23 27.8017 341.948C19.3769 335.619 9.68846 329.712 0 324.649V326.759C9.26722 331.822 18.1132 337.307 26.538 343.213C39.5963 352.917 52.2334 363.887 64.4493 375.7C80.0351 391.311 96.0421 408.187 112.47 426.33C119.21 433.924 126.371 441.096 133.111 448.691C155.015 472.318 179.026 496.789 207.249 514.509C230.417 529.276 253.585 538.979 277.174 544.886C331.093 557.544 382.484 546.152 441.457 533.073C455.358 530.119 470.101 526.744 485.265 523.791C528.232 515.353 572.462 506.492 617.113 504.383C652.497 502.695 687.459 505.227 723.686 512.399C757.385 518.728 790.241 528.854 824.783 539.823C851.321 547.84 878.701 556.278 906.082 563.028C960 575.686 1008.86 580.327 1056.04 576.108C1073.31 574.842 1091 571.888 1108.7 568.091C1187.47 550.793 1262.87 509.024 1326.06 470.63C1379.97 437.721 1428.84 411.985 1475.17 391.733C1529.93 368.106 1584.27 352.495 1646.2 342.791C1707.28 333.509 1738.45 305.242 1771.3 275.286C1776.36 271.067 1780.99 266.426 1786.47 261.785C1798.26 251.659 1808.79 240.689 1819.75 229.72C1824.8 224.657 1830.28 219.172 1835.33 213.687C1864.4 185.419 1892.62 155.885 1919.58 126.774V123.82H1920Z" fill="#999AB5"/>
<path d="M1920 55.8926C1907.36 71.0813 1895.99 86.692 1884.62 101.881C1863.98 129.727 1844.18 155.885 1820.17 179.09C1805 193.435 1788.15 208.624 1767.93 221.281C1759.93 225.922 1752.35 230.985 1745.19 235.626C1710.22 257.987 1677.37 279.083 1623.03 287.521C1562.37 297.225 1508.87 314.101 1454.11 340.682C1410.72 361.777 1364.81 387.092 1309.21 421.266C1246.86 459.66 1172.73 500.585 1093.53 515.774C1076.26 519.149 1058.57 521.259 1041.3 522.103C996.227 524.212 948.206 517.884 893.866 503.117C869.434 496.366 845.003 487.928 821.413 479.912C786.029 468.098 749.803 455.863 713.998 448.269C676.929 440.674 642.388 438.143 607.846 441.096C564.459 444.471 522.756 455.441 478.526 466.833C465.889 470.208 454.094 473.583 442.3 476.958C382.063 493.835 330.251 508.602 274.647 495.522C251.058 490.038 228.732 479.912 206.407 464.301C178.605 445.315 155.858 419.157 136.06 396.374C128.057 386.67 119.632 376.966 112.05 367.262C98.1488 350.385 85.0904 334.775 72.0321 320.008C61.0799 307.773 48.864 295.959 36.2269 285.833C25.2747 276.973 13.4801 268.957 0.842947 262.206V264.316C13.0588 271.066 24.4322 278.661 34.9632 287.099C47.6003 297.647 59.8162 309.038 70.7683 321.274C83.8267 336.041 96.8851 351.651 110.786 368.528C118.368 377.81 126.793 387.935 134.796 397.639C154.173 420.844 177.341 447.003 205.564 465.989C228.311 481.599 250.637 491.725 274.226 497.21C330.251 510.289 382.484 495.944 442.721 478.646C454.516 475.271 466.31 471.895 478.947 468.52C523.177 456.707 564.88 445.737 607.846 442.784C641.966 440.252 676.929 442.784 713.577 449.956C749.382 457.129 783.923 468.942 820.571 481.177C844.16 489.194 868.592 497.21 893.024 504.382C947.363 519.571 995.806 525.9 1040.88 523.368C1058.15 522.525 1075.84 520.415 1093.53 517.04C1173.15 501.851 1247.71 460.504 1310.05 422.11C1365.65 388.357 1411.57 362.621 1454.53 341.525C1508.87 315.367 1562.37 298.491 1623.03 288.787C1677.79 279.927 1711.07 258.831 1746.03 236.47C1753.61 231.829 1761.19 226.766 1768.78 222.125C1789.42 209.468 1806.27 194.279 1821.43 179.934C1845.44 156.729 1865.24 130.149 1886.3 102.303C1897.25 87.9577 1908.21 72.769 1920 58.424V55.8926Z" fill="#999AB5"/>
<path d="M1920 -15.832C1918.32 -14.1444 1917.05 -12.4567 1915.37 -10.7691C1910.73 -5.28427 1906.94 -0.64329 1903.15 3.57581C1885.88 24.6713 1872.82 47.4544 1860.18 69.3937C1843.76 97.6617 1828.59 124.242 1805.84 145.759C1788.15 162.214 1770.46 173.605 1750.24 181.622C1738.03 186.263 1726.23 191.326 1714.86 196.389C1681.16 210.733 1645.77 225.922 1599.02 233.939C1539.62 244.064 1486.97 262.206 1432.63 291.318C1388.4 314.945 1344.59 341.104 1292.36 373.591C1230.86 411.562 1157.56 452.488 1077.53 465.567C1060.25 468.52 1042.56 469.786 1025.71 470.208C981.904 470.63 935.99 462.614 880.386 444.893C858.903 438.143 837.42 430.126 816.358 422.532C779.289 409.031 740.957 394.686 703.045 386.67C665.976 378.654 631.435 376.544 597.315 379.919C554.348 384.138 513.91 398.061 470.522 412.406C460.834 415.782 451.145 419.157 441.457 422.11C380.377 443.206 327.301 461.348 270.013 447.847C246.424 442.362 224.52 431.814 203.036 415.782C176.92 396.796 155.858 370.637 136.481 345.323C127.635 333.931 119.21 322.118 110.785 310.726C99.412 295.115 88.4599 279.927 77.0864 266.004C66.9767 253.346 55.6033 241.111 43.3875 230.141C29.9079 217.484 15.5858 207.358 0 198.92V201.03C15.1645 209.468 29.0654 219.594 41.7025 230.985C53.9184 241.955 65.2918 254.19 75.4015 266.847C86.3537 280.771 97.3058 295.537 109.1 311.57C117.525 322.961 125.95 334.353 134.796 346.166C154.173 371.481 175.656 397.639 201.773 417.047C223.677 433.08 245.581 443.628 269.592 449.534C327.723 463.457 380.799 445.315 442.299 423.798C451.567 420.423 461.255 417.047 471.365 413.672C514.331 399.327 555.191 385.826 597.736 381.607C631.435 378.232 665.555 380.341 702.624 388.357C740.114 396.374 778.868 410.719 815.937 424.22C836.999 431.814 858.482 439.83 879.965 446.581C935.568 464.301 981.904 472.317 1025.71 471.896C1042.98 471.896 1060.68 470.208 1077.95 467.255C1158.4 454.175 1232.12 413.25 1293.62 375.278C1345.85 342.791 1389.66 316.633 1433.89 293.006C1487.81 264.316 1540.47 246.174 1599.44 236.048C1646.62 228.032 1682 213.265 1715.7 198.498C1727.07 193.435 1738.87 188.372 1751.08 183.731C1771.72 175.715 1789.42 164.323 1807.53 147.447C1830.28 125.93 1845.86 99.3493 1862.29 70.6594C1874.93 48.7201 1887.99 25.937 1905.26 5.26345C1908.63 1.04436 1912.42 -3.59666 1917.47 -9.08148C1918.32 -10.3472 1919.58 -11.191 1920.42 -12.4567V-15.832H1920Z" fill="#999AB5"/>
<path d="M1920 -82.9155C1909.47 -72.7897 1898.52 -62.242 1888.83 -51.2723C1884.19 -46.2094 1880.4 -41.5684 1877.03 -36.9274C1859.76 -14.9881 1848.81 10.3265 1838.28 34.7973C1825.64 64.3309 1813.43 92.177 1791.52 112.429C1775.09 127.617 1756.14 137.321 1732.55 142.384C1711.07 147.025 1690.85 152.51 1671.05 157.995C1641.56 166.011 1610.81 174.027 1575.43 180.356C1517.3 190.904 1465.49 210.312 1411.57 241.533C1378.71 260.941 1345.85 281.614 1310.89 303.554C1299.1 310.726 1287.72 318.321 1275.93 325.493C1219.06 361.355 1143.24 403.546 1061.94 414.516C1044.67 417.047 1027.4 417.891 1010.13 417.469C967.583 416.204 923.353 406.922 866.907 386.248C848.372 379.497 829.838 371.903 811.725 364.731C772.55 349.12 732.111 333.087 692.515 323.805C655.446 315.367 620.904 313.68 587.626 317.899C544.66 323.805 503.379 340.26 463.361 356.714C456.2 359.668 448.618 362.621 441.457 365.574C382.063 390.467 325.617 413.672 266.222 398.905C242.633 392.999 221.15 382.451 200.509 365.574C174.814 344.901 154.173 317.055 137.324 292.584C128.478 279.505 119.632 266.004 111.207 253.346C101.519 238.58 92.6725 224.235 82.9841 210.734C73.7169 197.654 63.1859 184.997 51.3913 173.184C36.2267 157.995 18.956 144.916 0.421557 134.79V136.899C18.1135 147.025 34.963 159.683 49.7063 174.449C61.501 186.263 72.0319 198.92 81.2991 211.577C90.5663 225.079 99.8336 239.002 109.522 254.19C117.947 267.27 126.372 280.771 135.639 293.85C152.488 318.742 173.129 346.589 199.246 367.262C220.307 384.138 242.212 395.108 265.801 401.015C326.038 415.782 382.484 392.155 442.3 367.262C449.461 364.309 456.622 361.355 464.204 358.402C504.221 342.369 545.503 325.493 588.048 319.586C620.904 314.945 655.024 317.055 692.093 325.493C731.69 334.353 772.128 350.386 811.304 365.996C829.417 373.169 847.951 380.763 866.486 387.514C923.353 408.187 967.583 417.469 1010.55 418.735C1027.82 419.157 1045.09 418.313 1062.78 415.782C1144.5 404.812 1220.32 362.199 1277.61 326.337C1289.41 318.742 1301.2 311.57 1312.58 304.398C1347.54 282.458 1379.97 261.785 1413.25 242.377C1466.75 211.156 1518.56 191.748 1576.27 181.2C1611.65 174.871 1642.4 166.855 1672.31 158.839C1692.11 153.776 1712.33 148.291 1733.81 143.228C1757.82 137.743 1777.2 128.039 1793.63 112.851C1815.95 92.5989 1828.17 64.3309 1840.81 34.7973C1851.34 10.7484 1862.29 -14.5662 1879.14 -36.5055C1882.51 -41.1465 1886.72 -45.7875 1890.93 -50.8504C1900.2 -61.3981 1910.31 -71.1021 1920.42 -80.806V-82.9155H1920Z" fill="#999AB5"/>
<path d="M1920 -144.515C1917.47 -142.405 1914.52 -139.874 1912 -137.764C1894.73 -123.419 1877.03 -108.652 1862.29 -92.1978C1858.08 -87.1349 1853.87 -82.4939 1850.5 -77.8529C1833.22 -54.6479 1824.8 -27.2237 1816.8 -1.06534C1807.53 29.7341 1798.26 58.8458 1776.78 78.2537C1761.19 92.1767 1740.55 100.193 1714.44 102.303C1656.73 106.944 1607.44 114.96 1551 125.929C1494.13 136.899 1442.74 157.573 1389.66 191.325C1369.86 203.983 1350.49 216.64 1329.85 230.563C1306.68 245.752 1282.67 261.784 1258.24 277.395C1202.21 312.836 1126.81 355.026 1045.09 363.887C1027.82 365.574 1010.55 365.996 993.699 365.152C941.466 361.777 893.023 344.479 852.163 328.024C836.577 321.696 820.57 314.945 805.406 308.194C764.546 290.474 722.422 271.91 680.298 262.206C643.229 253.346 609.109 251.659 576.253 257.143C532.444 264.316 491.163 284.568 454.515 302.288C449.46 304.819 444.405 307.351 439.772 309.46C379.535 338.994 322.668 366.84 260.746 351.651C237.578 345.744 216.516 334.775 196.297 317.477C170.601 295.537 151.224 265.582 136.902 241.955C128.056 227.188 119.631 212.421 111.207 197.654C103.203 183.309 95.6209 169.808 87.6174 156.729C79.6139 143.228 69.5042 130.149 58.1308 117.491C41.2813 98.5053 21.0619 82.0509 0 70.2374V72.347C20.6406 84.1604 40.4388 99.7711 57.2883 118.335C68.6617 130.992 78.3502 144.072 86.7749 157.151C94.7784 170.23 102.361 183.731 110.364 198.076C118.368 212.843 127.214 227.61 136.06 242.377C150.382 266.004 170.18 295.959 195.875 318.32C216.095 335.619 237.578 347.01 261.167 352.917C323.932 368.528 380.799 340.26 441.457 310.726C446.512 308.194 451.566 305.663 456.2 303.553C492.848 285.833 534.129 265.582 577.516 258.409C609.952 252.924 643.651 254.612 680.72 263.472C722.422 273.176 764.967 291.74 805.406 309.46C820.57 316.211 836.577 322.961 852.163 329.29C893.023 345.744 941.887 363.465 994.12 366.418C1010.97 367.684 1028.66 367.262 1045.93 365.152C1128.07 356.292 1203.48 314.101 1259.92 278.239C1284.35 263.05 1308.36 247.018 1331.53 231.407C1352.17 217.906 1371.55 204.827 1391.35 192.169C1444 158.417 1494.97 137.743 1551.84 127.195C1608.28 116.647 1657.57 108.631 1714.86 103.99C1741.82 101.881 1762.46 93.8643 1778.46 79.5194C1800.37 59.6897 1809.64 30.5779 1818.9 -0.643448C1826.91 -26.8018 1835.33 -54.226 1852.18 -77.0091C1855.55 -81.6501 1859.34 -86.2911 1863.98 -91.354C1878.72 -107.808 1896.41 -122.575 1913.26 -136.92C1915.37 -138.608 1917.89 -140.717 1920 -142.827V-144.515Z" fill="#999AB5"/>
<path d="M1920 -202.739C1909.89 -193.879 1898.94 -185.863 1888.41 -177.847C1864.82 -160.126 1840.81 -141.562 1824.38 -118.357C1807.53 -94.3085 1801.63 -64.7748 1796.16 -36.5069C1785.63 16.6537 1776.78 63.0638 1702.64 63.0638C1700.96 63.0638 1698.85 63.0638 1696.74 63.0638C1576.27 59.2666 1482.33 62.6419 1369.02 141.539C1356.81 149.977 1344.17 159.259 1331.53 167.697C1222.01 245.329 1108.7 325.492 978.534 311.99C916.613 305.662 858.061 277.816 800.772 250.814C722.422 213.686 648.284 178.667 566.564 194.7C521.492 203.56 479.789 227.609 438.929 251.235C378.271 286.254 320.983 319.163 256.534 303.13C182.817 284.566 147.012 211.576 112.892 141.117C106.573 128.038 99.8333 114.537 93.5147 101.879C72.4528 60.9543 37.0689 25.5139 0 4.84027V6.94983C36.6477 27.6234 70.7679 62.6419 91.8297 102.723C98.5695 115.381 104.888 128.882 111.207 141.961C145.748 212.842 181.553 286.254 256.112 305.24C320.983 321.694 378.692 288.363 439.772 253.345C480.211 230.14 522.334 205.669 566.564 197.231C647.442 181.62 721.158 216.217 799.509 253.345C856.797 280.347 915.77 308.193 977.692 314.522C1108.7 327.601 1222.01 247.438 1331.95 169.807C1344.17 160.947 1356.81 152.087 1369.44 143.649C1482.33 65.1734 1576.27 61.7981 1696.32 65.5953C1698.43 65.5953 1700.11 65.5953 1702.22 65.5953C1778.04 65.5953 1787.73 16.6537 1797.84 -35.2411C1803.32 -63.5091 1809.21 -93.0427 1825.64 -116.67C1841.65 -139.875 1864.82 -157.173 1889.25 -175.737C1899.36 -183.331 1909.89 -191.348 1919.58 -199.786V-202.739H1920Z" fill="#999AB5"/>
<path d="M1920 -285.854C1917.47 -280.37 1914.52 -274.885 1911.58 -269.822C1894.3 -239.866 1865.66 -219.193 1838.28 -198.941C1814.27 -181.221 1791.94 -164.766 1775.52 -142.827C1759.09 -120.466 1752.77 -92.198 1746.87 -65.1958C1736.76 -18.7857 1727.07 24.671 1663.89 28.0463C1658.41 28.4682 1652.94 28.4682 1647.04 28.0463C1534.15 24.2491 1439.37 27.2025 1329.43 101.459C1316.37 110.319 1303.31 119.179 1290.25 128.039C1235.91 165.589 1179.89 203.983 1121.33 231.407C1059.83 260.097 1003.81 271.488 949.469 266.847C890.075 261.784 833.208 236.47 778.026 211.577C702.203 177.402 630.592 145.337 551.4 161.792C529.495 166.433 506.749 174.871 479.789 188.372C462.519 197.232 445.669 206.936 429.241 216.218C370.689 249.971 315.507 281.614 254.006 268.113C243.896 266.003 234.208 262.628 225.362 258.409C170.601 232.251 139.43 172.339 109.943 114.116C104.046 102.724 97.7271 90.4889 91.8298 79.5192C86.7749 70.6591 81.2988 61.799 74.9803 52.9389C54.7609 25.0929 27.8017 1.04407 0 -14.5666V-12.4571C27.3804 3.15359 53.4972 26.7805 73.7165 54.6266C80.0351 63.0648 85.5112 71.9249 90.566 80.785C96.4634 92.1765 102.782 103.99 108.679 115.382C138.587 174.027 169.759 234.36 225.362 260.518C234.629 264.738 244.318 268.535 254.427 270.644C316.771 284.567 372.374 252.502 430.926 218.749C447.354 209.045 464.625 199.342 481.474 190.903C508.434 177.402 531.18 168.964 552.664 164.323C631.014 148.291 702.203 180.356 778.026 214.108C833.208 239.001 890.075 264.316 949.89 269.379C1004.23 274.02 1061.1 262.206 1122.6 233.516C1181.57 206.092 1237.6 167.276 1291.94 130.148C1304.57 121.288 1318.05 112.006 1331.11 103.568C1440.21 29.312 1534.99 26.7805 1647.46 30.5777C1653.36 30.5777 1659.25 30.5777 1664.31 30.5777C1728.76 26.7805 1738.45 -17.52 1748.98 -64.3519C1754.88 -90.9323 1760.77 -118.778 1777.2 -141.139C1793.21 -163.079 1815.53 -179.533 1839.54 -196.832C1867.35 -217.083 1895.99 -238.179 1913.68 -268.556C1916.21 -272.775 1918.32 -276.994 1920.42 -281.213V-285.854H1920Z" fill="#999AB5"/>
<path d="M1888.41 -349.563C1880.82 -328.046 1871.98 -306.528 1859.76 -286.698C1842.49 -258.43 1814.69 -238.601 1787.73 -219.615C1764.56 -203.16 1742.66 -187.55 1726.65 -166.876C1710.22 -145.781 1703.9 -119.622 1697.59 -93.8857C1686.63 -50.0071 1676.52 -8.23807 1614.18 -6.12851C1609.13 -6.12851 1603.65 -6.12851 1597.75 -6.12851C1489.07 -10.3476 1397.24 -7.81616 1290.67 62.2208C1277.19 71.0809 1263.29 80.3629 1249.81 89.645C1197.58 124.663 1143.66 160.948 1087.21 187.106C1027.4 214.952 973.479 226.344 921.667 222.968C864.379 219.171 809.618 195.966 756.542 173.605C683.247 142.806 614.164 113.272 537.499 130.148C516.858 134.789 495.375 142.806 469.679 155.885C452.83 164.323 436.402 174.027 420.395 183.309C364.37 215.796 311.294 246.173 252.321 235.204C242.632 233.516 233.365 230.563 224.519 226.766C168.916 203.139 137.744 144.915 107.415 88.8011C101.939 78.6753 96.4629 68.5495 90.9868 58.8456C85.932 49.9855 80.4559 41.5473 74.5586 33.531C54.3392 5.26303 27.8012 -18.7858 -0.00043872 -34.3965V-32.2869C26.9588 -16.6763 53.0755 6.52878 72.4524 33.531C78.3497 41.5473 83.8258 50.4074 88.8807 58.8456C94.3567 68.5495 99.8328 79.0972 105.309 88.8011C135.638 145.337 167.231 203.561 223.255 227.609C232.523 231.407 241.79 234.36 251.478 236.469C311.294 247.861 364.37 217.062 420.816 184.575C436.823 175.293 453.672 165.589 470.101 157.15C495.375 144.071 516.858 136.055 537.499 131.836C613.321 115.381 681.983 144.493 755.278 175.293C808.354 197.654 863.115 220.859 920.825 224.656C973.058 228.453 1027.4 216.64 1087.63 188.794C1144.08 162.635 1198 126.351 1250.23 90.9107C1263.71 82.0506 1277.61 72.3466 1291.09 63.4866C1397.24 -6.55045 1488.23 -8.65997 1596.91 -4.44089C1602.39 -4.01898 1608.28 -4.01898 1613.34 -4.44089C1677.37 -6.55042 1687.9 -49.1633 1698.85 -93.8857C1705.17 -119.2 1711.49 -144.937 1727.49 -166.032C1743.08 -186.284 1764.98 -201.895 1788.15 -218.349C1815.53 -237.757 1843.33 -257.587 1861.03 -286.277C1873.24 -306.528 1882.09 -328.046 1890.09 -349.985H1888.41V-349.563Z" fill="#999AB5"/>
<path d="M1831.54 -349.563C1825.22 -333.952 1817.64 -318.342 1808.37 -303.997C1791.1 -276.994 1763.72 -258.43 1737.6 -240.71C1714.44 -225.1 1693.37 -210.333 1677.37 -190.925C1661.36 -171.095 1654.62 -146.624 1647.88 -122.576C1636.51 -80.8065 1625.55 -41.147 1563.21 -40.3032C1558.16 -40.3032 1553.1 -40.3032 1547.63 -40.3032C1442.74 -44.9442 1354.28 -43.2566 1251.07 22.9832C1236.75 31.8434 1222.01 41.5473 1208.11 50.8293C1157.98 83.7382 1106.17 117.491 1052.25 142.384C994.541 168.964 942.308 180.777 892.602 178.246C837.42 175.293 784.765 154.619 733.795 134.789C663.027 106.943 596.472 80.7849 522.755 97.6612C503.378 102.302 482.738 109.897 458.727 122.132C442.299 130.57 426.292 139.852 410.285 148.712C356.366 179.934 305.818 209.045 249.372 200.185C240.105 198.92 230.838 196.388 221.992 193.013C165.967 171.917 133.953 115.803 103.203 61.377C98.5691 52.9388 93.5143 44.5006 88.4594 36.0624C83.4046 27.6242 77.9285 19.6079 72.4524 11.5917C53.4967 -14.9886 27.38 -38.1937 -0.00043872 -53.8043V-51.6948C26.5375 -36.506 52.233 -13.301 71.6099 12.8574C77.5072 20.4518 82.5621 28.89 87.6169 36.9062C92.6718 45.3444 97.3054 53.7826 102.36 62.2208C133.532 116.647 165.546 173.183 222.413 194.701C231.259 198.076 240.526 200.607 249.793 201.873C307.082 210.733 358.051 181.199 411.97 149.978C427.556 141.118 443.984 131.414 459.991 123.398C484.001 111.162 504.221 103.568 523.598 98.927C596.893 82.0506 663.448 108.209 733.795 136.055C784.765 156.307 837.841 176.98 893.023 179.934C943.15 182.465 995.384 170.652 1053.51 143.649C1107.43 118.757 1159.25 84.582 1209.79 51.6731C1224.12 42.3911 1238.44 32.6872 1252.76 23.8271C1355.54 -41.9908 1443.58 -43.6785 1548.05 -39.0375C1553.52 -38.6156 1558.58 -38.6156 1563.63 -39.0375C1627.24 -39.8813 1638.19 -80.3846 1649.99 -122.576C1656.31 -146.203 1663.04 -170.673 1679.05 -190.081C1694.64 -209.067 1715.7 -223.834 1738.45 -239.023C1764.98 -257.165 1792.36 -275.729 1810.06 -303.153C1819.75 -317.92 1827.33 -333.952 1834.07 -349.985H1831.54V-349.563Z" fill="#999AB5"/>
<path d="M1772.99 -349.564C1767.93 -339.86 1762.46 -330.156 1756.56 -320.874C1739.29 -295.56 1712.75 -278.261 1686.63 -261.385C1664.73 -247.04 1643.67 -233.539 1628.5 -215.397C1612.5 -196.833 1605.76 -174.05 1598.6 -151.688C1586.38 -112.451 1575.01 -74.9008 1513.93 -74.9008C1513.51 -74.9008 1513.51 -74.9008 1513.08 -74.9008C1508.03 -74.9008 1502.97 -74.9008 1497.92 -75.3227C1396.82 -80.3856 1311.73 -79.1199 1211.9 -17.0992C1196.74 -7.81717 1181.57 1.88675 1166.41 11.5907C1118.38 41.9681 1068.68 73.6114 1017.29 97.2383C960.421 123.397 911.557 134.788 863.536 133.523C810.46 131.835 759.912 113.693 711.048 95.5507C642.808 70.658 578.78 47.453 507.591 64.7513C489.056 68.9704 470.1 76.5647 447.354 87.9563C431.347 95.9726 415.761 105.255 400.175 114.115C348.784 143.648 300.342 171.916 246.423 165.588C237.577 164.744 228.731 162.634 219.885 159.681C163.018 141.117 130.583 86.6906 98.9903 34.3738C94.778 27.6232 90.5656 20.4508 86.3532 13.7002C81.2984 5.68393 76.2435 -2.33237 70.7674 -9.50482C53.0755 -34.8194 26.9588 -58.0244 -0.00043872 -73.2132V-71.1036C26.5375 -55.9149 51.8118 -33.1317 70.3462 -7.81717C75.8223 -0.644714 80.8771 7.37158 85.932 15.3878C90.1444 22.1384 94.3567 28.889 98.5691 36.0614C130.162 88.8001 163.018 143.226 220.307 162.212C229.153 165.166 237.999 167.275 247.266 168.119C301.606 174.448 350.469 146.18 402.281 116.224C417.446 107.364 433.453 98.0821 449.46 90.0659C472.207 78.6743 491.162 71.0799 509.276 66.8608C580.043 49.5625 644.071 72.7675 711.469 97.6602C760.333 115.38 811.303 133.944 864.8 135.632C913.242 137.32 962.106 125.506 1019.39 99.3479C1070.78 75.7209 1120.49 44.0777 1168.51 13.2783C1183.26 3.57437 1198.84 -6.12955 1214.01 -15.4116C1313.42 -77.0104 1398.09 -78.2761 1498.76 -73.2132C1503.82 -72.7913 1508.87 -72.7913 1513.93 -72.7913C1514.35 -72.7913 1514.35 -72.7913 1514.77 -72.7913C1577.11 -72.7913 1588.91 -110.763 1601.12 -150.845C1607.86 -172.784 1615.02 -195.567 1630.61 -213.709C1645.77 -231.429 1666.41 -244.93 1688.32 -259.275C1714.44 -276.152 1741.39 -293.872 1758.67 -319.608C1764.98 -329.312 1770.88 -339.016 1775.94 -349.142H1772.99V-349.564Z" fill="#999AB5"/>
<path d="M1712.75 -349.563C1710.22 -345.766 1707.7 -341.969 1705.17 -338.171C1688.32 -314.544 1661.78 -298.09 1636.51 -282.479C1615.02 -269.4 1594.8 -256.743 1579.64 -239.866C1564.05 -222.568 1556.89 -201.473 1549.73 -180.799C1537.09 -143.249 1524.88 -108.231 1463.38 -109.918C1458.74 -109.918 1453.69 -110.34 1449.06 -110.34C1335.32 -116.247 1261.61 -109.918 1173.57 -57.1796C1157.56 -47.4756 1141.13 -37.3498 1125.12 -27.6459C1079.63 0.62207 1032.03 29.7338 983.589 52.095C929.67 76.9877 883.756 88.3793 838.683 88.3793C837.841 88.3793 836.998 88.3793 836.156 88.3793C785.186 87.9574 736.744 71.9248 689.986 56.3141C624.695 34.7967 562.773 14.1232 494.111 31.8434C476.84 36.0625 459.148 43.2349 437.665 54.2046C422.079 62.2209 406.494 71.081 391.75 79.9411C342.887 108.209 296.551 134.789 245.16 131.414C236.314 130.57 227.889 129.305 219.464 126.773C161.755 110.74 128.477 58.8456 96.4629 8.21643C93.093 2.7316 89.7231 -2.75323 86.3532 -7.81613C81.2984 -15.8324 76.2435 -23.0049 71.1887 -30.1774C52.233 -54.6481 26.9588 -77.4312 -0.00043872 -93.0419V-90.9323C26.1163 -75.7436 51.3905 -53.3824 69.5037 -28.9116C74.5586 -22.1611 79.6134 -14.5667 84.6683 -6.97232C88.0382 -1.48752 91.4081 3.57541 94.778 9.06024C127.213 59.6894 160.491 112.428 219.043 128.461C227.468 130.992 236.314 132.258 245.16 133.102C296.972 136.899 343.308 109.897 392.593 81.6287C407.757 72.7686 422.922 63.9085 438.508 56.3141C459.57 45.7664 477.262 38.5939 494.532 34.3748C562.773 16.6546 624.273 36.9063 689.144 58.4236C736.322 74.0343 784.765 90.0669 836.156 90.4888C836.998 90.4888 837.841 90.4888 838.683 90.4888C883.756 90.4888 930.513 78.6753 984.431 53.7827C1032.87 31.4214 1080.47 2.30966 1126.39 -25.9583C1142.4 -35.6622 1158.82 -45.788 1174.83 -55.4919C1262.45 -107.809 1336.16 -114.559 1449.06 -108.231C1453.69 -107.809 1458.74 -107.809 1463.38 -107.809C1464.64 -107.809 1466.33 -107.809 1467.59 -107.809C1526.56 -107.809 1538.78 -142.827 1551.42 -180.377C1558.58 -201.051 1565.74 -222.146 1580.9 -239.023C1596.07 -255.477 1615.87 -268.134 1637.35 -281.214C1663.04 -297.246 1689.16 -313.279 1706.43 -337.749C1709.38 -341.969 1712.33 -346.188 1714.86 -350.407H1712.75V-349.563Z" fill="#999AB5"/>
<path d="M1648.72 -349.564C1631.87 -330.156 1608.7 -316.655 1585.96 -303.154C1565.32 -290.919 1545.52 -279.527 1530.78 -263.916C1515.61 -247.884 1508.03 -228.476 1500.45 -209.068C1486.55 -172.362 1474.33 -140.719 1413.25 -143.672C1408.62 -144.094 1403.98 -144.094 1399.35 -144.516C1309.63 -150.001 1227.49 -150.001 1134.39 -96.4182C1117.12 -86.7142 1099.85 -76.1665 1082.58 -66.0407C1039.19 -40.3042 994.541 -13.7239 949.047 7.37161C895.971 31.8424 850.899 43.6559 807.512 44.0778C758.648 44.4997 712.312 30.9985 667.661 17.9193C604.896 -0.644684 545.502 -18.3649 479.368 0.199158C463.361 4.41824 446.511 11.1688 427.134 21.2946C411.97 28.889 396.805 37.7491 382.062 46.1873C335.304 73.1895 291.496 98.5041 243.054 97.2384C234.629 96.8165 226.204 95.9726 218.2 94.285C159.649 81.2058 125.528 30.5766 92.6718 -17.943C90.1444 -21.7402 87.6169 -25.5373 85.0895 -29.3345C79.6134 -37.3508 74.9798 -44.1013 69.925 -50.43C51.8118 -74.4789 26.5375 -97.262 -0.00043872 -112.451V-110.341C26.1163 -95.1524 50.548 -72.7912 68.24 -49.5862C72.8736 -43.2576 77.9285 -36.507 82.9833 -28.4907C85.5107 -24.6935 88.0382 -20.8963 90.5656 -17.0991C123.843 31.8424 157.964 82.8934 217.358 95.9726C225.362 97.6603 234.208 98.926 242.632 98.926C291.496 100.192 337.832 73.6114 382.483 47.8749C397.226 39.4367 412.391 30.5767 427.555 22.9823C447.354 12.8564 463.782 6.1059 479.789 1.88681C545.081 -16.2553 604.475 1.04297 666.818 19.607C710.627 32.6862 756.121 46.1873 803.72 45.7654C804.984 45.7654 806.248 45.7654 807.09 45.7654C850.899 45.3435 895.971 33.53 949.468 9.05927C995.383 -12.0362 1040.03 -38.6165 1083.42 -64.353C1100.27 -74.4789 1117.96 -85.0266 1135.23 -94.7305C1227.91 -147.891 1309.63 -147.891 1398.93 -142.406C1403.56 -141.984 1408.2 -141.984 1412.83 -141.562C1475.17 -138.609 1488.23 -172.362 1502.13 -208.224C1509.29 -227.21 1516.88 -246.618 1532.04 -262.229C1546.78 -277.417 1566.16 -288.809 1586.8 -301.044C1609.97 -315.389 1633.98 -329.312 1651.25 -349.564H1648.72Z" fill="#999AB5"/>
<path d="M1577.11 -349.564C1564.05 -340.282 1549.73 -331.844 1535.41 -324.249C1515.19 -313.28 1496.23 -302.732 1481.91 -288.387C1466.75 -274.042 1459.17 -255.9 1451.58 -238.18C1436.84 -204.005 1424.2 -174.05 1363.12 -178.691C1267.5 -185.441 1187.05 -187.129 1095.64 -136.5C1077.1 -126.374 1058.15 -115.404 1040.03 -104.856C999.596 -81.6513 957.472 -57.1806 914.927 -37.7727C863.536 -14.1458 820.57 -2.33234 779.289 -0.644684C732.531 1.04297 688.302 -10.3486 645.757 -21.3182C585.52 -36.9289 528.653 -51.2738 465.046 -32.7098C450.302 -28.4907 434.717 -21.7401 416.603 -12.4581C401.439 -4.86377 386.696 3.99634 371.952 12.4345C320.14 41.9682 271.276 70.2362 216.094 60.9542C156.279 50.8283 121.316 1.88678 87.6169 -45.3671C81.2984 -54.2272 74.9798 -63.0873 68.6613 -71.5255C51.3905 -94.7305 26.1163 -116.67 -0.00043872 -132.28V-130.171C25.695 -114.56 50.1268 -93.0429 66.9763 -70.2598C73.2949 -61.8216 80.0347 -52.5396 85.932 -44.1013C120.052 3.57443 155.015 52.5159 215.673 62.6418C271.276 71.9238 322.667 42.3901 372.373 13.7003C386.696 5.26205 401.86 -3.17612 416.603 -10.7705C434.717 -20.0525 449.881 -26.3812 464.624 -30.6003C527.389 -49.1643 584.256 -34.3974 644.072 -19.2087C687.038 -8.23904 731.268 3.1525 778.446 1.46487C819.728 -0.222778 863.115 -12.0362 914.506 -35.6632C957.051 -55.071 999.175 -79.5418 1039.61 -102.747C1058.15 -113.295 1077.1 -124.264 1095.22 -134.39C1186.2 -184.597 1266.24 -182.91 1361.86 -176.159C1423.78 -171.518 1437.68 -203.161 1452.01 -236.914C1459.59 -254.212 1467.17 -272.354 1481.91 -286.699C1496.23 -300.622 1515.19 -311.17 1534.99 -322.14C1550.15 -330.578 1565.32 -339.016 1578.8 -349.142H1577.11V-349.564Z" fill="#999AB5"/>
<path d="M1493.71 -349.564C1490.76 -347.876 1487.81 -346.611 1484.86 -344.923C1465.48 -334.797 1447.37 -325.515 1432.63 -312.436C1417.88 -299.357 1409.88 -282.902 1401.88 -266.87C1386.29 -235.226 1373.23 -208.224 1315.1 -212.865C1222.43 -220.46 1144.5 -222.569 1056.04 -176.159C1035.4 -165.611 1014.34 -153.798 994.12 -142.406C957.051 -121.733 919.14 -100.637 880.386 -82.9171C830.68 -60.1339 788.977 -47.8986 750.223 -45.3671C705.572 -42.4137 663.87 -51.2738 623.01 -60.1339C565.3 -72.3693 510.96 -84.1828 449.881 -65.1968C435.559 -60.5558 420.816 -54.2272 403.124 -45.3671C389.223 -38.1946 375.322 -30.1783 361.842 -22.584C314.243 5.68396 264.115 34.7957 210.618 26.3575C152.487 17.4974 117.946 -28.0688 84.247 -71.9474C77.9285 -79.9637 71.6099 -88.4019 65.2914 -95.9963C48.4419 -117.092 24.8526 -137.343 -0.00043872 -151.688V-149.579C24.0101 -134.812 47.1782 -115.404 63.6064 -94.7305C69.925 -86.7142 76.2435 -78.698 82.5621 -70.6817C116.261 -26.3812 151.645 19.1851 210.197 28.4671C264.537 36.9053 314.664 7.79352 363.527 -20.4744C377.007 -28.0688 390.908 -36.0851 404.387 -43.2576C422.079 -52.5396 436.401 -58.4463 450.724 -63.0873C510.96 -82.0732 565.3 -70.2598 622.588 -58.0244C663.448 -49.1643 705.572 -40.3042 750.223 -43.2576C789.398 -45.789 831.101 -58.0244 881.228 -80.8075C919.982 -98.5277 958.315 -119.623 994.962 -140.297C1015.18 -151.688 1036.24 -163.08 1056.88 -174.05C1144.92 -220.038 1222.43 -217.928 1314.68 -210.756C1374.08 -206.115 1388.4 -235.226 1403.56 -265.604C1411.14 -281.215 1419.15 -297.669 1433.89 -310.748C1448.21 -323.406 1466.33 -332.688 1485.7 -342.813C1489.49 -344.923 1493.71 -347.033 1497.5 -349.142H1493.71V-349.564Z" fill="#999AB5"/>
<path d="M1402.3 -349.563C1395.56 -345.766 1389.24 -341.547 1383.76 -336.906C1369.44 -325.092 1361.02 -310.325 1353.01 -295.98C1337.01 -267.291 1323.11 -242.82 1267.5 -247.461C1177.78 -255.477 1102.38 -258.43 1016.87 -215.818C993.698 -204.426 970.109 -191.769 947.362 -179.533C914.506 -162.235 880.807 -144.093 846.687 -128.06C797.402 -105.277 759.069 -93.4638 722 -90.0886C679.877 -85.8695 639.859 -92.62 601.105 -99.3706C545.923 -108.653 494.111 -117.513 435.559 -97.6829C422.079 -93.0419 407.757 -86.7133 390.908 -77.8532C378.271 -71.1026 365.634 -63.9302 353.418 -56.7577C305.818 -29.3336 256.954 -1.06564 204.721 -8.2381C148.696 -16.2544 113.734 -58.0234 80.0347 -98.9487C74.1373 -106.121 67.8188 -113.715 61.5002 -120.888C44.6507 -139.874 23.1676 -158.016 -0.00043872 -171.517V-169.408C22.3251 -155.906 44.2295 -138.186 60.2365 -119.622C66.5551 -112.45 72.8736 -104.855 78.771 -97.6829C112.47 -56.7577 147.854 -14.1448 204.721 -6.12857C257.797 1.04391 307.082 -27.224 354.681 -55.0701C366.897 -62.2425 379.534 -69.415 392.172 -76.1656C409.021 -85.0256 422.922 -91.3543 436.401 -95.9953C494.111 -115.403 545.923 -106.543 601.105 -97.6829C639.859 -91.3543 679.877 -84.6037 722.422 -88.4009C759.912 -92.1981 798.666 -103.59 847.95 -126.795C882.071 -142.405 916.191 -160.547 948.626 -178.268C971.373 -190.503 995.383 -203.16 1018.13 -214.552C1102.8 -256.743 1178.2 -253.789 1267.5 -245.773C1324.37 -240.71 1339.11 -267.291 1354.7 -295.137C1362.7 -309.482 1371.13 -324.248 1385.03 -335.64C1391.35 -340.703 1398.51 -345.344 1406.51 -349.985H1402.3V-349.563Z" fill="#999AB5"/>
</g>
</g>
<defs>
<clipPath id="clip0">
<rect width="1920" height="830" fill="white"/>
</clipPath>
</defs>
</svg>
