<svg width="56" height="56" viewBox="0 0 56 56" fill="none" xmlns="http://www.w3.org/2000/svg">
<rect x="0.5" y="8.5" width="55" height="39" rx="3.5" fill="white" stroke="#F5F5F5"/>
<mask id="mask0" mask-type="alpha" maskUnits="userSpaceOnUse" x="0" y="8" width="56" height="40">
<rect x="0.5" y="8.5" width="55" height="39" rx="3.5" fill="white" stroke="white"/>
</mask>
<g mask="url(#mask0)">
<path fill-rule="evenodd" clip-rule="evenodd" d="M0 21.3333H56V8H0V21.3333Z" fill="#FF202D"/>
<path opacity="0.5" fill-rule="evenodd" clip-rule="evenodd" d="M21.3334 18.6667L22.6667 17.3334L24 18.6667V21.3334H21.3334V18.6667ZM26.6667 18.6667L28 17.3334L29.3334 18.6667V21.3334H26.6667V18.6667ZM33.3334 17.3334L32 18.6667V21.3334H34.6667V18.6667L33.3334 17.3334Z" fill="#1895DB"/>
<path opacity="0.5" fill-rule="evenodd" clip-rule="evenodd" d="M25.3333 17.3334L24 18.6667V21.3334H26.6667V18.6667L25.3333 17.3334ZM30.6667 17.3334L29.3333 18.6667V21.3334H32V18.6667L30.6667 17.3334Z" fill="#191F94"/>
<path fill-rule="evenodd" clip-rule="evenodd" d="M0 48H56V34.6666H0V48Z" fill="#2027AC"/>
<path fill-rule="evenodd" clip-rule="evenodd" d="M24 21.3334H22.6667L21.3334 24H24V26.6667H21.3334V29.3334H24V32H21.3334V34.6667H24V37.3334H26.6667V34.6667H29.3334V37.3334H32V34.6667H34.6667V32H32V29.3334H34.6667V26.6667H32V24H34.6667L33.3334 21.3334H32V24H29.3334V21.3334H26.6667V24H24V21.3334ZM26.6667 26.6667V24H29.3334V26.6667H26.6667ZM26.6667 29.3334V26.6667H24V29.3334H26.6667ZM29.3334 29.3334H26.6667V32H24V34.6667H26.6667V32H29.3334V34.6667H32V32H29.3334V29.3334ZM29.3334 29.3334H32V26.6667H29.3334V29.3334Z" fill="url(#paint0_linear)"/>
</g>
<defs>
<linearGradient id="paint0_linear" x1="21.3334" y1="21.3334" x2="21.3334" y2="37.3334" gradientUnits="userSpaceOnUse">
<stop stop-color="#FF212E"/>
<stop offset="1" stop-color="#FD0D1B"/>
</linearGradient>
</defs>
</svg>
