<svg width="56" height="56" viewBox="0 0 56 56" fill="none" xmlns="http://www.w3.org/2000/svg">
<rect y="8" width="56" height="40" rx="4" fill="white"/>
<mask id="mask0" mask-type="alpha" maskUnits="userSpaceOnUse" x="0" y="8" width="56" height="40">
<rect y="8" width="56" height="40" rx="4" fill="white"/>
</mask>
<g mask="url(#mask0)">
<rect y="8" width="56" height="40" fill="#FF2936"/>
<path fill-rule="evenodd" clip-rule="evenodd" d="M0 48H21.3333V8H0V48Z" fill="#128415"/>
<path d="M21.3333 34.6666C25.0152 34.6666 28 31.6819 28 28C28 24.3181 25.0152 21.3333 21.3333 21.3333C17.6514 21.3333 14.6667 24.3181 14.6667 28C14.6667 31.6819 17.6514 34.6666 21.3333 34.6666Z" stroke="#FAF94F" stroke-width="2.66667"/>
<path fill-rule="evenodd" clip-rule="evenodd" d="M18.6667 24.6667C18.6667 24.2985 18.9651 24 19.3333 24H23.3333C23.7015 24 24 24.2985 24 24.6667V29.3333C24 30.8061 22.8061 32 21.3333 32C19.8606 32 18.6667 30.8061 18.6667 29.3333V24.6667Z" fill="white"/>
<path fill-rule="evenodd" clip-rule="evenodd" d="M21.3333 29.3334C22.0697 29.3334 22.6667 27.4031 22.6667 26.6667C22.6667 25.9303 22.0697 25.3334 21.3333 25.3334C20.597 25.3334 20 25.9303 20 26.6667C20 27.4031 20.597 29.3334 21.3333 29.3334Z" fill="#1D50B5"/>
</g>
</svg>
