<svg width="56" height="56" viewBox="0 0 56 56" fill="none" xmlns="http://www.w3.org/2000/svg">
<mask id="mask0" mask-type="alpha" maskUnits="userSpaceOnUse" x="0" y="8" width="56" height="40">
<rect y="8" width="56" height="40" rx="4" fill="white"/>
</mask>
<g mask="url(#mask0)">
<rect y="8" width="56" height="40" fill="#EE343C"/>
<path fill-rule="evenodd" clip-rule="evenodd" d="M24.7729 16.7729C24.3235 16.3235 23.6193 16.2537 23.0905 16.6063L21.9117 17.3922C21.0599 17.9601 21.1393 19.2363 22.055 19.6941L24.5963 20.9648C25.048 21.1906 25.3333 21.6523 25.3333 22.1573V22.6666C25.3333 23.403 24.7364 24 24 24H22.9814C22.7744 24 22.5703 23.9518 22.3851 23.8592L18.1929 21.7631C17.6796 21.5064 17.0596 21.607 16.6538 22.0128L15.9747 22.6919C15.3312 23.3354 15.5073 24.4203 16.3213 24.8273L18.2091 25.7712C19.0071 26.1702 19.0763 27.2824 18.334 27.7773C17.4727 28.3515 17.7356 29.6804 18.7507 29.8834L19.8746 30.1082C20.9536 30.324 21.2691 31.7148 20.3887 32.3751L19.3826 33.1297C18.7261 33.622 19.0743 34.6666 19.8949 34.6666C19.9647 34.6666 20.0342 34.6581 20.102 34.6411L22.6255 34.0103C23.5824 33.771 24.3322 34.835 23.7851 35.6557C23.307 36.3728 23.8211 37.3333 24.6829 37.3333H25.8499C26.3376 37.3333 26.7707 37.6454 26.9249 38.1082C27.2693 39.1413 28.7307 39.1413 29.075 38.1082C29.2293 37.6454 29.6623 37.3333 30.1501 37.3333H31.317C32.1789 37.3333 32.693 36.3728 32.2149 35.6557C31.6678 34.835 32.4176 33.771 33.3744 34.0103L35.898 34.6411C35.9657 34.6581 36.0353 34.6666 36.1051 34.6666C36.9257 34.6666 37.2739 33.622 36.6174 33.1297L35.6112 32.3751C34.7309 31.7148 35.0463 30.324 36.1254 30.1082L37.2493 29.8834C38.2644 29.6804 38.5273 28.3515 37.6659 27.7773C36.9236 27.2824 36.9929 26.1702 37.7908 25.7712L39.6787 24.8273C40.4927 24.4203 40.6688 23.3354 40.0252 22.6919L39.3462 22.0128C38.9404 21.607 38.3204 21.5064 37.8071 21.7631L33.6148 23.8592C33.4297 23.9518 33.2256 24 33.0186 24H32C31.2636 24 30.6666 23.403 30.6666 22.6666V22.1573C30.6666 21.6523 30.9519 21.1907 31.4037 20.9648C32.1888 20.5722 33.1241 20.1046 33.9454 19.6939C34.8611 19.2361 34.9401 17.9601 34.0883 17.3922L32.9095 16.6063C32.3806 16.2537 31.6765 16.3235 31.2271 16.7729L28.9428 19.0572C28.4221 19.5779 27.5779 19.5779 27.0572 19.0572L24.7729 16.7729Z" fill="#262626"/>
</g>
</svg>
