<svg width="56" height="56" viewBox="0 0 56 56" fill="none" xmlns="http://www.w3.org/2000/svg">
<rect y="8" width="56" height="40" rx="4" fill="white"/>
<mask id="mask0" mask-type="alpha" maskUnits="userSpaceOnUse" x="0" y="8" width="56" height="40">
<rect y="8" width="56" height="40" rx="4" fill="white"/>
</mask>
<g mask="url(#mask0)">
<rect y="8" width="56" height="40" fill="#F22A46"/>
<path fill-rule="evenodd" clip-rule="evenodd" d="M28 34.6666C31.6819 34.6666 34.6667 31.6819 34.6667 28C34.6667 24.3181 31.6819 21.3333 28 21.3333C24.3181 21.3333 21.3334 24.3181 21.3334 28C21.3334 31.6819 24.3181 34.6666 28 34.6666Z" fill="#FFF04D"/>
<path fill-rule="evenodd" clip-rule="evenodd" d="M24.7364 42.2989L28 37.4272L31.2637 42.2989L32.0904 36.4936L37.1446 39.4669L35.3705 33.8778L41.2143 34.3636L37.1909 30.0977L42.6667 28L37.1909 25.9022L41.2143 21.6364L35.3705 22.1222L37.1446 16.5331L32.0904 19.5064L31.2637 13.701L28 18.5728L24.7364 13.701L23.9097 19.5064L18.8555 16.5331L20.6295 22.1222L14.7858 21.6364L18.8092 25.9022L13.3334 28L18.8092 30.0977L14.7858 34.3636L20.6295 33.8778L18.8555 39.4669L23.9097 36.4936L24.7364 42.2989ZM37.3334 28C37.3334 33.1546 33.1547 37.3333 28 37.3333C22.8454 37.3333 18.6667 33.1546 18.6667 28C18.6667 22.8453 22.8454 18.6667 28 18.6667C33.1547 18.6667 37.3334 22.8453 37.3334 28Z" fill="#FFF04D"/>
</g>
</svg>
