<svg width="56" height="56" viewBox="0 0 56 56" fill="none" xmlns="http://www.w3.org/2000/svg">
<rect y="8" width="56" height="40" rx="4" fill="white"/>
<mask id="mask0" mask-type="alpha" maskUnits="userSpaceOnUse" x="0" y="8" width="56" height="40">
<rect y="8" width="56" height="40" rx="4" fill="white"/>
</mask>
<g mask="url(#mask0)">
<path fill-rule="evenodd" clip-rule="evenodd" d="M0 18.6667H56V8H0V18.6667Z" fill="#DD172C"/>
<path fill-rule="evenodd" clip-rule="evenodd" d="M0 48H56V37.3334H0V48Z" fill="#DD172C"/>
<path fill-rule="evenodd" clip-rule="evenodd" d="M0 37.3333H56V18.6666H0V37.3333Z" fill="#FFD133"/>
<path fill-rule="evenodd" clip-rule="evenodd" d="M14.6667 26.6666H17.3333V28H14.6667V26.6666Z" fill="#FFEDB1"/>
<path d="M12.118 26.7221C12.0857 26.3334 12.3924 26 12.7824 26H16.5509C16.941 26 17.2477 26.3334 17.2153 26.7221L16.8727 30.8328C16.7864 31.8694 15.9198 32.6667 14.8797 32.6667H14.4537C13.4135 32.6667 12.547 31.8694 12.4606 30.8328L12.118 26.7221Z" stroke="#A41517" stroke-width="1.33333"/>
<path fill-rule="evenodd" clip-rule="evenodd" d="M12 28H17.3333V29.3333H16L14.6667 32L13.3333 29.3333H12V28Z" fill="#A41517"/>
<rect x="8" y="24" width="2.66667" height="9.33333" rx="1.33333" fill="#A41517"/>
<rect x="18.6667" y="24" width="2.66667" height="9.33333" rx="1.33333" fill="#A41517"/>
<path fill-rule="evenodd" clip-rule="evenodd" d="M12 23.4667C12 22.2885 12.9551 21.3334 14.1333 21.3334H15.2C16.3782 21.3334 17.3333 22.2885 17.3333 23.4667C17.3333 23.7613 17.0946 24 16.8 24H12.5333C12.2388 24 12 23.7613 12 23.4667Z" fill="#A41517"/>
</g>
</svg>
