<svg width="56" height="56" viewBox="0 0 56 56" fill="none" xmlns="http://www.w3.org/2000/svg">
<rect y="8" width="56" height="40" rx="4" fill="white"/>
<mask id="mask0" mask-type="alpha" maskUnits="userSpaceOnUse" x="0" y="8" width="56" height="40">
<rect y="8" width="56" height="40" rx="4" fill="white"/>
</mask>
<g mask="url(#mask0)">
<rect y="8" width="56" height="40" fill="#E6BE53"/>
<path fill-rule="evenodd" clip-rule="evenodd" d="M2.66666 43.3334C2.66666 44.438 3.56209 45.3334 4.66666 45.3334H51.3333C52.4379 45.3334 53.3333 44.438 53.3333 43.3334V12.6667C53.3333 11.5622 52.4379 10.6667 51.3333 10.6667H4.66666C3.56209 10.6667 2.66666 11.5622 2.66666 12.6667V43.3334Z" fill="#E01826"/>
<path fill-rule="evenodd" clip-rule="evenodd" d="M26.0467 15.3178C25.1063 15.6312 24.8246 16.8246 25.5255 17.5255L26.2761 18.2761C26.5262 18.5262 26.8653 18.6666 27.2189 18.6666H28.781C29.1347 18.6666 29.4738 18.5262 29.7238 18.2761L30.4745 17.5255C31.1754 16.8246 30.8936 15.6312 29.9533 15.3178L28.4216 14.8072C28.1479 14.716 27.852 14.716 27.5784 14.8072L26.0467 15.3178ZM28.9428 21.7238C28.4221 22.2445 27.5779 22.2445 27.0572 21.7238L26.6667 21.3333L24.6795 19.3462C24.2737 18.9404 23.6538 18.8398 23.1404 19.0964L22.9879 19.1727C22.1739 19.5797 21.9979 20.6645 22.6414 21.3081L22.6667 21.3333L24.6538 23.3204C25.0596 23.7263 25.1602 24.3462 24.9035 24.8595L24.0759 26.5148C24.026 26.6147 24 26.7248 24 26.8364C24 27.371 23.4374 27.7187 22.9593 27.4796L22.3134 27.1567C21.8313 26.9156 21.727 26.273 22.1082 25.8918C22.4166 25.5834 22.4166 25.0833 22.1082 24.7748L21.4863 24.153C21.385 24.0516 21.3006 23.9346 21.2366 23.8065L20.0654 21.4642C20.0219 21.3772 19.9881 21.2857 19.9645 21.1913L19.3461 18.7176C19.0738 17.6284 17.6595 17.3428 16.9859 18.241L14.9333 20.9778C14.7602 21.2086 14.6667 21.4893 14.6667 21.7778V26.3519C14.6667 26.5589 14.7148 26.763 14.8074 26.9482L15.9032 29.1398C15.9673 29.268 16.0517 29.385 16.153 29.4863L18.5137 31.847C18.615 31.9483 18.732 32.0327 18.8602 32.0967L21.2074 33.2704C21.2902 33.3118 21.3815 33.3333 21.4741 33.3333C22.1033 33.3333 22.3035 34.1815 21.7408 34.4629L21.4317 34.6175C21.3665 34.65 21.3071 34.6929 21.2555 34.7444L20.6667 35.3333C20.2985 35.7015 19.7015 35.7015 19.3333 35.3333C18.9651 34.9651 18.3682 34.9651 18 35.3333L17.8918 35.4415C17.5583 35.775 17.4756 36.2845 17.6865 36.7064L18.2981 37.9296C18.524 38.3813 18.9857 38.6666 19.4907 38.6666H21.0186C21.2256 38.6666 21.4297 38.6185 21.6149 38.5259L23.6025 37.5321C23.8605 37.4031 24.0697 37.1938 24.1988 36.9358L24.8033 35.7268C25.064 35.2052 25.7591 35.0924 26.1714 35.5048C26.4594 35.7927 26.5041 36.2439 26.2782 36.5827L24.7396 38.8906C24.3311 39.5033 24.4967 40.3311 25.1094 40.7396L27.2604 42.1736C27.7083 42.4722 28.2917 42.4722 28.7396 42.1736L30.8906 40.7396C31.5033 40.3311 31.6689 39.5033 31.2604 38.8906L29.7218 36.5827C29.4959 36.2439 29.5406 35.7927 29.8285 35.5048C30.2409 35.0924 30.936 35.2052 31.1967 35.7268L31.8012 36.9358C31.9302 37.1938 32.1395 37.4031 32.3975 37.5321L34.3851 38.5259C34.5703 38.6185 34.7744 38.6666 34.9814 38.6666H36.5093C37.0143 38.6666 37.476 38.3813 37.7018 37.9296L38.3134 36.7064C38.5244 36.2845 38.4417 35.775 38.1082 35.4415L38 35.3333C37.6318 34.9651 37.0348 34.9651 36.6667 35.3333C36.2985 35.7015 35.7015 35.7015 35.3333 35.3333L34.7444 34.7444C34.6929 34.6929 34.6334 34.65 34.5683 34.6175L34.2592 34.4629C33.6964 34.1815 33.8967 33.3333 34.5259 33.3333C34.6185 33.3333 34.7098 33.3118 34.7926 33.2704L37.1398 32.0967C37.268 32.0327 37.385 31.9483 37.4863 31.847L39.847 29.4863C39.9483 29.385 40.0327 29.268 40.0968 29.1398L41.1926 26.9482C41.2851 26.763 41.3333 26.5589 41.3333 26.3519V21.7778C41.3333 21.4893 41.2398 21.2086 41.0667 20.9778L39.0141 18.241C38.3405 17.3428 36.9262 17.6284 36.6539 18.7176L36.0355 21.1913C36.0119 21.2857 35.978 21.3772 35.9345 21.4642L34.7634 23.8065C34.6993 23.9346 34.615 24.0516 34.5137 24.153L33.8918 24.7748C33.5834 25.0833 33.5834 25.5834 33.8918 25.8918C34.273 26.273 34.1687 26.9156 33.6865 27.1567L33.0407 27.4796C32.5626 27.7187 32 27.371 32 26.8364C32 26.7248 31.974 26.6147 31.9241 26.5148L31.0964 24.8595C30.8398 24.3462 30.9404 23.7263 31.3462 23.3204L33.3333 21.3333L33.3586 21.3081C34.0021 20.6645 33.8261 19.5797 33.0121 19.1727L32.8595 19.0964C32.3462 18.8398 31.7263 18.9404 31.3205 19.3462L29.3333 21.3333L28.9428 21.7238Z" fill="#E6BE53"/>
<path fill-rule="evenodd" clip-rule="evenodd" d="M25.3333 30.6667C25.3333 31.1577 26.1601 31.321 26.3993 30.8923C26.8642 30.0591 27.4321 29.3334 28 29.3334C28.5679 29.3334 29.1359 30.0591 29.6007 30.8923C29.8399 31.321 30.6667 31.1577 30.6667 30.6667C30.6667 28.4576 29.4728 26.6667 28 26.6667C26.5273 26.6667 25.3333 28.4576 25.3333 30.6667Z" fill="#215F90"/>
</g>
</svg>
