<svg width="56" height="56" viewBox="0 0 56 56" fill="none" xmlns="http://www.w3.org/2000/svg">
<rect y="8" width="56" height="40" rx="4" fill="white"/>
<mask id="mask0" mask-type="alpha" maskUnits="userSpaceOnUse" x="0" y="8" width="56" height="40">
<rect y="8" width="56" height="40" rx="4" fill="white"/>
</mask>
<g mask="url(#mask0)">
<path fill-rule="evenodd" clip-rule="evenodd" d="M0 48H56V8H0V48Z" fill="#30C375"/>
<rect x="8" y="8" width="8" height="40" fill="#DE414F"/>
<path fill-rule="evenodd" clip-rule="evenodd" d="M12 16C14.2091 16 16 14.8061 16 13.3333C16 11.8605 14.2091 10.6666 12 10.6666C9.79086 10.6666 8 11.8605 8 13.3333C8 14.8061 9.79086 16 12 16Z" fill="white"/>
<mask id="mask1" mask-type="alpha" maskUnits="userSpaceOnUse" x="8" y="10" width="8" height="6">
<path fill-rule="evenodd" clip-rule="evenodd" d="M12 16C14.2091 16 16 14.8061 16 13.3333C16 11.8605 14.2091 10.6666 12 10.6666C9.79086 10.6666 8 11.8605 8 13.3333C8 14.8061 9.79086 16 12 16Z" fill="white"/>
</mask>
<g mask="url(#mask1)">
<path fill-rule="evenodd" clip-rule="evenodd" d="M12 14.6667C12.7364 14.6667 13.3333 14.0697 13.3333 13.3333C13.3333 12.597 12.7364 12 12 12C11.2636 12 10.6667 12.597 10.6667 13.3333C10.6667 14.0697 11.2636 14.6667 12 14.6667Z" fill="#DD404F"/>
<rect x="8" y="10.6666" width="4" height="2.66667" fill="#FBAF29"/>
<rect x="12" y="13.3333" width="4" height="2.66667" fill="#FBAF29"/>
</g>
<path fill-rule="evenodd" clip-rule="evenodd" d="M12 45.3333C14.2091 45.3333 16 44.1394 16 42.6667C16 41.1939 14.2091 40 12 40C9.79086 40 8 41.1939 8 42.6667C8 44.1394 9.79086 45.3333 12 45.3333Z" fill="white"/>
<mask id="mask2" mask-type="alpha" maskUnits="userSpaceOnUse" x="8" y="40" width="8" height="6">
<path fill-rule="evenodd" clip-rule="evenodd" d="M12 45.3333C14.2091 45.3333 16 44.1394 16 42.6667C16 41.1939 14.2091 40 12 40C9.79086 40 8 41.1939 8 42.6667C8 44.1394 9.79086 45.3333 12 45.3333Z" fill="white"/>
</mask>
<g mask="url(#mask2)">
<path fill-rule="evenodd" clip-rule="evenodd" d="M12 44C12.7364 44 13.3333 43.4031 13.3333 42.6667C13.3333 41.9303 12.7364 41.3334 12 41.3334C11.2636 41.3334 10.6667 41.9303 10.6667 42.6667C10.6667 43.4031 11.2636 44 12 44Z" fill="#DD404F"/>
<rect x="8" y="40" width="4" height="2.66667" fill="#FBAF29"/>
<rect x="12" y="42.6666" width="4" height="2.66667" fill="#FBAF29"/>
</g>
<path fill-rule="evenodd" clip-rule="evenodd" d="M12 32C14.2091 32 16 30.8061 16 29.3333C16 27.8605 14.2091 26.6666 12 26.6666C9.79086 26.6666 8 27.8605 8 29.3333C8 30.8061 9.79086 32 12 32Z" fill="#28AE67"/>
<mask id="mask3" mask-type="alpha" maskUnits="userSpaceOnUse" x="8" y="26" width="8" height="6">
<path fill-rule="evenodd" clip-rule="evenodd" d="M12 32C14.2091 32 16 30.8061 16 29.3333C16 27.8605 14.2091 26.6666 12 26.6666C9.79086 26.6666 8 27.8605 8 29.3333C8 30.8061 9.79086 32 12 32Z" fill="white"/>
</mask>
<g mask="url(#mask3)">
<path fill-rule="evenodd" clip-rule="evenodd" d="M12 30.6667C13.4728 30.6667 14.6667 30.0697 14.6667 29.3333C14.6667 28.597 13.4728 28 12 28C10.5273 28 9.33334 28.597 9.33334 29.3333C9.33334 30.0697 10.5273 30.6667 12 30.6667Z" fill="#DD404F"/>
</g>
<path fill-rule="evenodd" clip-rule="evenodd" d="M12 37.3333C14.2091 37.3333 16 36.7363 16 36C16 35.2636 14.2091 34.6666 12 34.6666C9.79086 34.6666 8 35.2636 8 36C8 36.7363 9.79086 37.3333 12 37.3333Z" fill="#28AE67"/>
<mask id="mask4" mask-type="alpha" maskUnits="userSpaceOnUse" x="8" y="34" width="8" height="4">
<path fill-rule="evenodd" clip-rule="evenodd" d="M12 37.3333C14.2091 37.3333 16 36.7363 16 36C16 35.2636 14.2091 34.6666 12 34.6666C9.79086 34.6666 8 35.2636 8 36C8 36.7363 9.79086 37.3333 12 37.3333Z" fill="white"/>
</mask>
<g mask="url(#mask4)">
</g>
<path fill-rule="evenodd" clip-rule="evenodd" d="M12 24C14.2091 24 16 22.8061 16 21.3333C16 19.8605 14.2091 18.6666 12 18.6666C9.79086 18.6666 8 19.8605 8 21.3333C8 22.8061 9.79086 24 12 24Z" fill="#FBAF29"/>
<mask id="mask5" mask-type="alpha" maskUnits="userSpaceOnUse" x="8" y="18" width="8" height="6">
<path fill-rule="evenodd" clip-rule="evenodd" d="M12 24C14.2091 24 16 22.8061 16 21.3333C16 19.8605 14.2091 18.6666 12 18.6666C9.79086 18.6666 8 19.8605 8 21.3333C8 22.8061 9.79086 24 12 24Z" fill="white"/>
</mask>
<g mask="url(#mask5)">
<path fill-rule="evenodd" clip-rule="evenodd" d="M12 22.6667C12.7364 22.6667 13.3333 22.0697 13.3333 21.3333C13.3333 20.597 12.7364 20 12 20C11.2636 20 10.6667 20.597 10.6667 21.3333C10.6667 22.0697 11.2636 22.6667 12 22.6667Z" fill="#DD404F"/>
<rect x="8" y="18.6666" width="2.66667" height="5.33333" fill="#28AE67"/>
<rect x="13.3333" y="18.6666" width="2.66667" height="5.33333" fill="#28AE67"/>
</g>
<path fill-rule="evenodd" clip-rule="evenodd" d="M29.6453 16.4764C29.172 17.0405 29.2456 17.8815 29.8097 18.3548C30.3738 18.8281 31.2148 18.7546 31.6881 18.1905C32.1614 17.6264 32.0879 16.7853 31.5238 16.312C30.9597 15.8387 30.1187 15.9123 29.6453 16.4764ZM26.1904 21.6453C25.6263 21.172 24.7853 21.2456 24.312 21.8097C23.8386 22.3738 23.9122 23.2148 24.4763 23.6881C25.0404 24.1615 25.8814 24.0879 26.3548 23.5238C26.8281 22.9597 26.7545 22.1187 26.1904 21.6453ZM23.5238 18.9787C22.9597 18.5053 22.1187 18.5789 21.6453 19.143C21.172 19.7071 21.2456 20.5481 21.8097 21.0215C22.3738 21.4948 23.2148 21.4212 23.6881 20.8571C24.1614 20.293 24.0879 19.452 23.5238 18.9787ZM28.8571 13.6453C28.293 13.172 27.452 13.2456 26.9786 13.8097C26.5053 14.3738 26.5789 15.2148 27.143 15.6881C27.7071 16.1615 28.5481 16.0879 29.0214 15.5238C29.4948 14.9597 29.4212 14.1187 28.8571 13.6453ZM27.5238 17.6453C26.9597 17.172 26.1187 17.2456 25.6453 17.8097C25.172 18.3738 25.2456 19.2148 25.8097 19.6881C26.3738 20.1615 27.2148 20.0879 27.6881 19.5238C28.1614 18.9597 28.0879 18.1187 27.5238 17.6453Z" fill="white"/>
<path fill-rule="evenodd" clip-rule="evenodd" d="M34.9522 26.901C31.7761 30.0771 26.6266 30.0771 23.4505 26.901C23.1428 26.5933 22.8648 26.267 22.6167 25.9258C25.797 28.2382 30.2748 27.9603 33.1431 25.092C36.0115 22.2236 36.2894 17.7458 33.9769 14.5656C34.3182 14.8137 34.6445 15.0916 34.9522 15.3994C38.1283 18.5755 38.1283 23.7249 34.9522 26.901Z" fill="white"/>
</g>
</svg>
