<svg width="56" height="56" viewBox="0 0 56 56" fill="none" xmlns="http://www.w3.org/2000/svg">
<rect x="0.5" y="8.5" width="55" height="39" rx="3.5" fill="white" stroke="#F5F5F5"/>
<mask id="mask0" mask-type="alpha" maskUnits="userSpaceOnUse" x="0" y="8" width="56" height="40">
<rect x="0.5" y="8.5" width="55" height="39" rx="3.5" fill="white" stroke="white"/>
</mask>
<g mask="url(#mask0)">
<path fill-rule="evenodd" clip-rule="evenodd" d="M32 50.6666H24V32H-2.66663V24H24V5.33331H32V24H58.6667V32H32V50.6666Z" fill="#FF2B37"/>
<path fill-rule="evenodd" clip-rule="evenodd" d="M43.2 16.8L40 17.3333V14.6667L43.2 15.2L42.6667 12H45.3333L44.8 15.2L48 14.6667V17.3333L44.8 16.8L45.3333 20H42.6667L43.2 16.8Z" fill="#FD0D1B"/>
<path fill-rule="evenodd" clip-rule="evenodd" d="M11.2 16.8L8 17.3333V14.6667L11.2 15.2L10.6667 12H13.3333L12.8 15.2L16 14.6667V17.3333L12.8 16.8L13.3333 20H10.6667L11.2 16.8Z" fill="#FD0D1B"/>
<path fill-rule="evenodd" clip-rule="evenodd" d="M11.2 40.8L8 41.3333V38.6667L11.2 39.2L10.6667 36H13.3333L12.8 39.2L16 38.6667V41.3333L12.8 40.8L13.3333 44H10.6667L11.2 40.8Z" fill="#FD0D1B"/>
<path fill-rule="evenodd" clip-rule="evenodd" d="M43.2 40.8L40 41.3333V38.6667L43.2 39.2L42.6667 36H45.3333L44.8 39.2L48 38.6667V41.3333L44.8 40.8L45.3333 44H42.6667L43.2 40.8Z" fill="#FD0D1B"/>
</g>
</svg>
