<svg width="56" height="56" viewBox="0 0 56 56" fill="none" xmlns="http://www.w3.org/2000/svg">
<rect y="8" width="56" height="40" rx="4" fill="white"/>
<mask id="mask0" mask-type="alpha" maskUnits="userSpaceOnUse" x="0" y="8" width="56" height="40">
<rect y="8" width="56" height="40" rx="4" fill="white"/>
</mask>
<g mask="url(#mask0)">
<rect y="8" width="56" height="40" fill="#E81B26"/>
<path fill-rule="evenodd" clip-rule="evenodd" d="M28 34.6666C31.6819 34.6666 34.6667 31.6818 34.6667 27.9999C34.6667 24.318 31.6819 21.3333 28 21.3333C24.3181 21.3333 21.3333 24.318 21.3333 27.9999C21.3333 31.6818 24.3181 34.6666 28 34.6666Z" fill="#FFE94F"/>
<path fill-rule="evenodd" clip-rule="evenodd" d="M20.4161 22.5585C20.8188 21.9984 21.2819 21.4847 21.796 21.027L3.9233 0.938721L-1.42975 6.88388L20.4161 22.5585ZM21.796 34.9731C21.2819 34.5153 20.8188 34.0016 20.4162 33.4415L-1.42975 49.1161L3.9233 55.0613L21.796 34.9731ZM26.1692 37.1538L24 48H32L29.8308 37.1539C29.2388 37.2716 28.6266 37.3333 28 37.3333C27.3734 37.3333 26.7612 37.2716 26.1692 37.1538ZM35.5838 33.4415C35.1812 34.0016 34.7181 34.5153 34.204 34.9731L52.0767 55.0613L57.4297 49.1161L35.5838 33.4415ZM18.7593 29.3201C18.6982 28.8888 18.6667 28.4481 18.6667 28C18.6667 27.5519 18.6982 27.1112 18.7593 26.6799L-1.23978e-05 24V32L18.7593 29.3201ZM26.1692 18.8462L24 8H32L29.8308 18.8462C29.2388 18.7284 28.6266 18.6667 28 18.6667C27.3734 18.6667 26.7612 18.7284 26.1692 18.8462ZM37.2407 26.6799C37.3017 27.1112 37.3333 27.5519 37.3333 28C37.3333 28.4481 37.3017 28.8888 37.2407 29.3201L56 32V24L37.2407 26.6799ZM35.5838 22.5585C35.1812 21.9984 34.7181 21.4847 34.204 21.027L52.0767 0.938721L57.4297 6.88388L35.5838 22.5585Z" fill="#FFE94F"/>
</g>
</svg>
