<svg width="56" height="56" viewBox="0 0 56 56" fill="none" xmlns="http://www.w3.org/2000/svg">
<rect x="0.5" y="8.5" width="55" height="39" rx="3.5" fill="white" stroke="#F5F5F5"/>
<mask id="mask0" mask-type="alpha" maskUnits="userSpaceOnUse" x="0" y="8" width="56" height="40">
<rect x="0.5" y="8.5" width="55" height="39" rx="3.5" fill="white" stroke="white"/>
</mask>
<g mask="url(#mask0)">
<path fill-rule="evenodd" clip-rule="evenodd" d="M0 48.0001H56V26.6667H0V48.0001Z" fill="#7CCCF5"/>
<path d="M25.9964 30.1296L26.6655 28.9764L25.9964 30.1296ZM26.4805 31.952L27.6337 32.6212L27.6337 32.6212L26.4805 31.952ZM24.6581 32.4361L25.3272 31.2829H25.3272L24.6581 32.4361ZM31.5881 32.2861L32.3065 33.4093H32.3065L31.5881 32.2861ZM29.7464 31.8812L28.6232 32.5996L29.7464 31.8812ZM30.1513 30.0396L30.8697 31.1628L30.1513 30.0396ZM25.3333 26.6666C25.3333 25.1938 24.1394 23.9999 22.6667 23.9999V26.6666H25.3333ZM26.6655 28.9764C25.8638 28.5112 25.3333 27.6497 25.3333 26.6666H22.6667C22.6667 28.6374 23.7358 30.3595 25.3272 31.2829L26.6655 28.9764ZM27.6337 32.6212C28.3729 31.3474 27.9394 29.7155 26.6655 28.9764L25.3272 31.2829L25.3272 31.2829L27.6337 32.6212ZM23.9889 33.5894C25.2627 34.3285 26.8946 33.8951 27.6337 32.6212L25.3272 31.2829L23.9889 33.5894ZM20 26.6666C20 29.6277 21.6101 32.2091 23.9889 33.5894L25.3272 31.2829C23.7361 30.3596 22.6667 28.6377 22.6667 26.6666H20ZM22.6667 23.9999C21.1939 23.9999 20 25.1938 20 26.6666H22.6667V23.9999ZM36 26.6666C36 25.1938 34.8061 23.9999 33.3333 23.9999V26.6666H36ZM32.3065 33.4093C34.5215 31.9927 36 29.5034 36 26.6666H33.3333C33.3333 28.5553 32.3515 30.2151 30.8697 31.1628L32.3065 33.4093ZM28.6232 32.5996C29.4167 33.8403 31.0658 34.2029 32.3065 33.4093L30.8697 31.1628L30.8697 31.1628L28.6232 32.5996ZM29.4329 28.9163C28.1922 29.7099 27.8297 31.3589 28.6232 32.5996L30.8697 31.1628L29.4329 28.9163ZM30.6667 26.6666C30.6667 27.6089 30.18 28.4386 29.4329 28.9163L30.8697 31.1628C32.3518 30.215 33.3333 28.555 33.3333 26.6666H30.6667ZM33.3333 23.9999C31.8606 23.9999 30.6667 25.1938 30.6667 26.6666H33.3333V23.9999Z" fill="#445F42"/>
<path fill-rule="evenodd" clip-rule="evenodd" d="M28 29.3333C29.4728 29.3333 30.6667 27.5424 30.6667 25.3333C30.6667 23.1241 29.4728 21.3333 28 21.3333C26.5272 21.3333 25.3333 23.1241 25.3333 25.3333C25.3333 27.5424 26.5272 29.3333 28 29.3333Z" fill="#D89F3D"/>
</g>
</svg>
