<svg width="56" height="56" viewBox="0 0 56 56" fill="none" xmlns="http://www.w3.org/2000/svg">
<rect x="0.5" y="8.5" width="55" height="39" rx="3.5" fill="white" stroke="#F5F5F5"/>
<mask id="mask0" mask-type="alpha" maskUnits="userSpaceOnUse" x="0" y="8" width="56" height="40">
<rect x="0.5" y="8.5" width="55" height="39" rx="3.5" fill="white" stroke="white"/>
</mask>
<g mask="url(#mask0)">
<path fill-rule="evenodd" clip-rule="evenodd" d="M0 34.6667H56V21.3334H0V34.6667Z" fill="#0C47B7"/>
<path fill-rule="evenodd" clip-rule="evenodd" d="M0 48H56V34.6666H0V48Z" fill="#E53B35"/>
<path d="M13.8994 14.6667C11.7501 14.6667 9.98498 16.3652 9.90238 18.5129L9.38388 31.9939C9.33693 33.2145 9.85031 34.3897 10.7778 35.1846L16.5291 40.1144C18.5264 41.8263 21.4736 41.8263 23.4709 40.1144L29.2223 35.1846C30.1497 34.3897 30.6631 33.2145 30.6161 31.9939L30.0977 18.5129C30.015 16.3652 28.2499 14.6667 26.1006 14.6667H13.8994Z" fill="#F73744" stroke="white" stroke-width="2.66667"/>
<mask id="mask1" mask-type="alpha" maskUnits="userSpaceOnUse" x="8" y="13" width="24" height="30">
<path d="M13.8994 14.6667C11.7501 14.6667 9.98498 16.3652 9.90238 18.5129L9.38388 31.9939C9.33693 33.2145 9.85031 34.3897 10.7778 35.1846L16.5291 40.1144C18.5264 41.8263 21.4736 41.8263 23.4709 40.1144L29.2223 35.1846C30.1497 34.3897 30.6631 33.2145 30.6161 31.9939L30.0977 18.5129C30.015 16.3652 28.2499 14.6667 26.1006 14.6667H13.8994Z" fill="white" stroke="white" stroke-width="2.66667"/>
</mask>
<g mask="url(#mask1)">
<path fill-rule="evenodd" clip-rule="evenodd" d="M18.6666 30C18.6666 29.6318 18.3681 29.3333 18 29.3333H15.3333C14.9651 29.3333 14.6666 29.0348 14.6666 28.6666V27.3333C14.6666 26.9651 14.9651 26.6666 15.3333 26.6666H18C18.3681 26.6666 18.6666 26.3681 18.6666 26V24.6666C18.6666 24.2984 18.3681 24 18 24H16.6666C16.2984 24 16 23.7015 16 23.3333V22C16 21.6318 16.2984 21.3333 16.6666 21.3333H18C18.3681 21.3333 18.6666 21.0348 18.6666 20.6666V19.3333C18.6666 18.9651 18.9651 18.6666 19.3333 18.6666H20.6666C21.0348 18.6666 21.3333 18.9651 21.3333 19.3333V20.6666C21.3333 21.0348 21.6318 21.3333 22 21.3333H23.3333C23.7015 21.3333 24 21.6318 24 22V23.3333C24 23.7015 23.7015 24 23.3333 24H22C21.6318 24 21.3333 24.2984 21.3333 24.6666V26C21.3333 26.3681 21.6318 26.6666 22 26.6666H24.6666C25.0348 26.6666 25.3333 26.9651 25.3333 27.3333V28.6666C25.3333 29.0348 25.0348 29.3333 24.6666 29.3333H22C21.6318 29.3333 21.3333 29.6318 21.3333 30V34C21.3333 34.3681 21.0348 34.6666 20.6666 34.6666H19.3333C18.9651 34.6666 18.6666 34.3681 18.6666 34V30Z" fill="white"/>
<path fill-rule="evenodd" clip-rule="evenodd" d="M22.4071 34.8509C21.9778 33.9534 21.0613 33.3334 20 33.3334C18.9387 33.3334 18.0222 33.9534 17.5929 34.8509C14.3509 35.3617 12 36.877 12 38.6667C12 40.8758 15.5817 42.6667 20 42.6667C24.4183 42.6667 28 40.8758 28 38.6667C28 36.877 25.6491 35.3617 22.4071 34.8509Z" fill="#1251A1"/>
</g>
</g>
</svg>
