<svg width="56" height="56" viewBox="0 0 56 56" fill="none" xmlns="http://www.w3.org/2000/svg">
<rect x="0.5" y="8.5" width="55" height="39" rx="3.5" fill="white" stroke="#F5F5F5"/>
<mask id="mask0" mask-type="alpha" maskUnits="userSpaceOnUse" x="0" y="8" width="56" height="40">
<rect x="0.5" y="8.5" width="55" height="39" rx="3.5" fill="white" stroke="white"/>
</mask>
<g mask="url(#mask0)">
<path fill-rule="evenodd" clip-rule="evenodd" d="M29.3333 48H56V8H29.3333V48Z" fill="#DE233C"/>
<mask id="path-4-outside-1" maskUnits="userSpaceOnUse" x="3.33331" y="11.3333" width="12" height="12" fill="black">
<rect fill="white" x="3.33331" y="11.3333" width="12" height="12"/>
<path fill-rule="evenodd" clip-rule="evenodd" d="M10.6666 13.3333H7.99998V15.9999H5.33331V18.6666H7.99998V21.3333H10.6666V18.6666H13.3333V15.9999H10.6666V13.3333Z"/>
</mask>
<path fill-rule="evenodd" clip-rule="evenodd" d="M10.6666 13.3333H7.99998V15.9999H5.33331V18.6666H7.99998V21.3333H10.6666V18.6666H13.3333V15.9999H10.6666V13.3333Z" fill="#CCCCCD"/>
<path d="M7.99998 13.3333V11.9999H6.66665V13.3333H7.99998ZM10.6666 13.3333H12V11.9999H10.6666V13.3333ZM7.99998 15.9999V17.3333H9.33331V15.9999H7.99998ZM5.33331 15.9999V14.6666H3.99998V15.9999H5.33331ZM5.33331 18.6666H3.99998V19.9999H5.33331V18.6666ZM7.99998 18.6666H9.33331V17.3333H7.99998V18.6666ZM7.99998 21.3333H6.66665V22.6666H7.99998V21.3333ZM10.6666 21.3333V22.6666H12V21.3333H10.6666ZM10.6666 18.6666V17.3333H9.33331V18.6666H10.6666ZM13.3333 18.6666V19.9999H14.6666V18.6666H13.3333ZM13.3333 15.9999H14.6666V14.6666H13.3333V15.9999ZM10.6666 15.9999H9.33331V17.3333H10.6666V15.9999ZM7.99998 14.6666H10.6666V11.9999H7.99998V14.6666ZM9.33331 15.9999V13.3333H6.66665V15.9999H9.33331ZM5.33331 17.3333H7.99998V14.6666H5.33331V17.3333ZM6.66665 18.6666V15.9999H3.99998V18.6666H6.66665ZM7.99998 17.3333H5.33331V19.9999H7.99998V17.3333ZM9.33331 21.3333V18.6666H6.66665V21.3333H9.33331ZM10.6666 19.9999H7.99998V22.6666H10.6666V19.9999ZM9.33331 18.6666V21.3333H12V18.6666H9.33331ZM13.3333 17.3333H10.6666V19.9999H13.3333V17.3333ZM12 15.9999V18.6666H14.6666V15.9999H12ZM10.6666 17.3333H13.3333V14.6666H10.6666V17.3333ZM9.33331 13.3333V15.9999H12V13.3333H9.33331Z" fill="#7B716A" fill-opacity="0.66" mask="url(#path-4-outside-1)"/>
<path fill-rule="evenodd" clip-rule="evenodd" d="M9.33333 18.6667C10.0697 18.6667 10.6667 18.0697 10.6667 17.3333C10.6667 16.597 10.0697 16 9.33333 16C8.59695 16 8 16.597 8 17.3333C8 18.0697 8.59695 18.6667 9.33333 18.6667Z" fill="#7B716A"/>
</g>
</svg>
