<svg width="56" height="56" viewBox="0 0 56 56" fill="none" xmlns="http://www.w3.org/2000/svg">
<rect x="0.5" y="8.5" width="55" height="39" rx="3.5" fill="white" stroke="#F5F5F5"/>
<mask id="mask0" mask-type="alpha" maskUnits="userSpaceOnUse" x="0" y="8" width="56" height="40">
<rect x="0.5" y="8.5" width="55" height="39" rx="3.5" fill="white" stroke="white"/>
</mask>
<g mask="url(#mask0)">
<path fill-rule="evenodd" clip-rule="evenodd" d="M0 34.6667H56V21.3334H0V34.6667Z" fill="#17508F"/>
<path fill-rule="evenodd" clip-rule="evenodd" d="M0 21.3333H56V8H0V21.3333Z" fill="#E1444D"/>
<path fill-rule="evenodd" clip-rule="evenodd" d="M12 28C12 26.7099 12.6873 23.8357 13.075 22.3172C13.2236 21.7351 13.7499 21.3334 14.3507 21.3334H20.3184C20.918 21.3334 21.4436 21.7335 21.5928 22.3142C21.9807 23.8239 22.6667 26.6804 22.6667 28C22.6667 29.49 21.6661 33.4016 21.3985 34.4209C21.3554 34.5849 21.2823 34.7353 21.1744 34.8661C20.6634 35.4852 18.9984 37.3334 17.3333 37.3334C15.6673 37.3334 14.0012 35.4829 13.4913 34.8649C13.384 34.7349 13.3112 34.5854 13.2681 34.4225C13.0004 33.4105 12 29.5269 12 28Z" fill="white"/>
<mask id="mask1" mask-type="alpha" maskUnits="userSpaceOnUse" x="12" y="21" width="11" height="17">
<path fill-rule="evenodd" clip-rule="evenodd" d="M12 28C12 26.7099 12.6873 23.8357 13.075 22.3172C13.2236 21.7351 13.7499 21.3334 14.3507 21.3334H20.3184C20.918 21.3334 21.4436 21.7335 21.5928 22.3142C21.9807 23.8239 22.6667 26.6804 22.6667 28C22.6667 29.49 21.6661 33.4016 21.3985 34.4209C21.3554 34.5849 21.2823 34.7353 21.1744 34.8661C20.6634 35.4852 18.9984 37.3334 17.3333 37.3334C15.6673 37.3334 14.0012 35.4829 13.4913 34.8649C13.384 34.7349 13.3112 34.5854 13.2681 34.4225C13.0004 33.4105 12 29.5269 12 28Z" fill="white"/>
</mask>
<g mask="url(#mask1)">
<path d="M22.6667 22.6667L12 36" stroke="#E1444D" stroke-width="2.66667" stroke-linecap="square"/>
<path d="M12 22.6667L22.6667 36" stroke="#E1444D" stroke-width="2.66667" stroke-linecap="square"/>
</g>
</g>
</svg>
