<svg width="56" height="56" viewBox="0 0 56 56" fill="none" xmlns="http://www.w3.org/2000/svg">
<rect x="0.5" y="8.5" width="55" height="39" rx="3.5" fill="white" stroke="#F5F5F5"/>
<mask id="mask0" mask-type="alpha" maskUnits="userSpaceOnUse" x="0" y="8" width="56" height="40">
<rect x="0.5" y="8.5" width="55" height="39" rx="3.5" fill="white" stroke="white"/>
</mask>
<g mask="url(#mask0)">
<path fill-rule="evenodd" clip-rule="evenodd" d="M0 21.3333H56V8H0V21.3333Z" fill="#D9101C"/>
<path fill-rule="evenodd" clip-rule="evenodd" d="M0 48H56V34.6666H0V48Z" fill="#0F7811"/>
<path fill-rule="evenodd" clip-rule="evenodd" d="M26.6667 25.3333C26.6667 26.0697 26.0697 26.6667 25.3334 26.6667C24.597 26.6667 24 26.0697 24 25.3333C24 24.597 24.597 24 25.3334 24C26.0697 24 26.6667 24.597 26.6667 25.3333ZM29.3334 28C29.3334 28.2412 29.2693 28.7534 29.1573 29.3333H30.6667C31.4031 29.3333 32 29.9303 32 30.6667C32 31.403 31.4031 32 30.6667 32H28H25.3334C24.597 32 24 31.403 24 30.6667C24 29.9303 24.597 29.3333 25.3334 29.3333H26.8427C26.7307 28.7534 26.6667 28.2412 26.6667 28C26.6667 27.2636 27.2636 26.6667 28 26.6667C28.7364 26.6667 29.3334 27.2636 29.3334 28ZM32 25.3333C32 26.0697 31.4031 26.6667 30.6667 26.6667C29.9303 26.6667 29.3334 26.0697 29.3334 25.3333C29.3334 24.597 29.9303 24 30.6667 24C31.4031 24 32 24.597 32 25.3333ZM36 29.3333C36.7364 29.3333 37.3334 28.7364 37.3334 28C37.3334 27.2636 36.7364 26.6667 36 26.6667C35.2636 26.6667 34.6667 27.2636 34.6667 28C34.6667 28.7364 35.2636 29.3333 36 29.3333ZM21.3334 28C21.3334 28.7364 20.7364 29.3333 20 29.3333C19.2636 29.3333 18.6667 28.7364 18.6667 28C18.6667 27.2636 19.2636 26.6667 20 26.6667C20.7364 26.6667 21.3334 27.2636 21.3334 28Z" fill="#FAD14E"/>
</g>
</svg>
