<svg width="56" height="56" viewBox="0 0 56 56" fill="none" xmlns="http://www.w3.org/2000/svg">
<rect y="8" width="56" height="40" rx="4" fill="white"/>
<mask id="mask0" mask-type="alpha" maskUnits="userSpaceOnUse" x="0" y="8" width="56" height="40">
<rect y="8" width="56" height="40" rx="4" fill="white"/>
</mask>
<g mask="url(#mask0)">
<rect y="8" width="56" height="40" fill="#30C6E0"/>
<path fill-rule="evenodd" clip-rule="evenodd" d="M28 36C32.4183 36 36 32.4183 36 28C36 23.5817 32.4183 20 28 20C23.5817 20 20 23.5817 20 28C20 32.4183 23.5817 36 28 36Z" fill="#FFCD4B"/>
<path fill-rule="evenodd" clip-rule="evenodd" d="M24.7364 42.2989L28 37.4272L31.2637 42.2989L32.0904 36.4936L37.1446 39.4669L35.3705 33.8778L41.2143 34.3636L37.1909 30.0977L42.6667 28L37.1909 25.9022L41.2143 21.6364L35.3705 22.1222L37.1446 16.5331L32.0904 19.5064L31.2637 13.701L28 18.5728L24.7364 13.701L23.9097 19.5064L18.8555 16.5331L20.6295 22.1222L14.7858 21.6364L18.8092 25.9022L13.3334 28L18.8092 30.0977L14.7858 34.3636L20.6295 33.8778L18.8555 39.4669L23.9097 36.4936L24.7364 42.2989ZM37.3334 28C37.3334 33.1546 33.1547 37.3333 28 37.3333C22.8454 37.3333 18.6667 33.1546 18.6667 28C18.6667 22.8453 22.8454 18.6667 28 18.6667C33.1547 18.6667 37.3334 22.8453 37.3334 28Z" fill="#FFCD4B"/>
<path fill-rule="evenodd" clip-rule="evenodd" d="M2.66663 11.3334C2.66663 10.9652 2.9651 10.6667 3.33329 10.6667H4.66663C5.03482 10.6667 5.33329 10.9652 5.33329 11.3334V12.6667C5.33329 13.0349 5.03482 13.3334 4.66663 13.3334H3.33329C2.9651 13.3334 2.66663 13.0349 2.66663 12.6667V11.3334ZM2.66663 16.6667C2.66663 16.2985 2.9651 16 3.33329 16H4.66663C5.03482 16 5.33329 16.2985 5.33329 16.6667V18C5.33329 18.3682 5.03482 18.6667 4.66663 18.6667H3.33329C2.9651 18.6667 2.66663 18.3682 2.66663 18V16.6667ZM3.33329 21.3334C2.9651 21.3334 2.66663 21.6318 2.66663 22V23.3334C2.66663 23.7015 2.9651 24 3.33329 24H4.66663C5.03482 24 5.33329 23.7015 5.33329 23.3334V22C5.33329 21.6318 5.03482 21.3334 4.66663 21.3334H3.33329ZM2.66663 27.3334C2.66663 26.9652 2.9651 26.6667 3.33329 26.6667H4.66663C5.03482 26.6667 5.33329 26.9652 5.33329 27.3334V28.6667C5.33329 29.0349 5.03482 29.3334 4.66663 29.3334H3.33329C2.9651 29.3334 2.66663 29.0349 2.66663 28.6667V27.3334ZM3.33329 32C2.9651 32 2.66663 32.2985 2.66663 32.6667V34C2.66663 34.3682 2.9651 34.6667 3.33329 34.6667H4.66663C5.03482 34.6667 5.33329 34.3682 5.33329 34V32.6667C5.33329 32.2985 5.03482 32 4.66663 32H3.33329ZM2.66663 38C2.66663 37.6318 2.9651 37.3334 3.33329 37.3334H4.66663C5.03482 37.3334 5.33329 37.6318 5.33329 38V39.3334C5.33329 39.7015 5.03482 40 4.66663 40H3.33329C2.9651 40 2.66663 39.7015 2.66663 39.3334V38ZM3.33329 42.6667C2.9651 42.6667 2.66663 42.9652 2.66663 43.3334V44.6667C2.66663 45.0349 2.9651 45.3334 3.33329 45.3334H4.66663C5.03482 45.3334 5.33329 45.0349 5.33329 44.6667V43.3334C5.33329 42.9652 5.03482 42.6667 4.66663 42.6667H3.33329ZM5.33329 40.6667C5.33329 40.2985 5.63177 40 5.99996 40H7.33329C7.70148 40 7.99996 40.2985 7.99996 40.6667V42C7.99996 42.3682 7.70148 42.6667 7.33329 42.6667H5.99996C5.63177 42.6667 5.33329 42.3682 5.33329 42V40.6667ZM5.99996 34.6667C5.63177 34.6667 5.33329 34.9652 5.33329 35.3334V36.6667C5.33329 37.0349 5.63177 37.3334 5.99996 37.3334H7.33329C7.70148 37.3334 7.99996 37.0349 7.99996 36.6667V35.3334C7.99996 34.9652 7.70148 34.6667 7.33329 34.6667H5.99996ZM5.33329 30C5.33329 29.6318 5.63177 29.3334 5.99996 29.3334H7.33329C7.70148 29.3334 7.99996 29.6318 7.99996 30V31.3334C7.99996 31.7015 7.70148 32 7.33329 32H5.99996C5.63177 32 5.33329 31.7015 5.33329 31.3334V30ZM5.99996 24C5.63177 24 5.33329 24.2985 5.33329 24.6667V26C5.33329 26.3682 5.63177 26.6667 5.99996 26.6667H7.33329C7.70148 26.6667 7.99996 26.3682 7.99996 26V24.6667C7.99996 24.2985 7.70148 24 7.33329 24H5.99996ZM5.33329 19.3334C5.33329 18.9652 5.63177 18.6667 5.99996 18.6667H7.33329C7.70148 18.6667 7.99996 18.9652 7.99996 19.3334V20.6667C7.99996 21.0349 7.70148 21.3334 7.33329 21.3334H5.99996C5.63177 21.3334 5.33329 21.0349 5.33329 20.6667V19.3334ZM5.99996 13.3334C5.63177 13.3334 5.33329 13.6318 5.33329 14V15.3334C5.33329 15.7015 5.63177 16 5.99996 16H7.33329C7.70148 16 7.99996 15.7015 7.99996 15.3334V14C7.99996 13.6318 7.70148 13.3334 7.33329 13.3334H5.99996Z" fill="#FFCD4B"/>
</g>
</svg>
