<svg width="56" height="56" viewBox="0 0 56 56" fill="none" xmlns="http://www.w3.org/2000/svg">
<rect x="0.5" y="8.5" width="55" height="39" rx="3.5" fill="white" stroke="#F5F5F5"/>
<mask id="mask0" mask-type="alpha" maskUnits="userSpaceOnUse" x="0" y="8" width="56" height="40">
<rect x="0.5" y="8.5" width="55" height="39" rx="3.5" fill="white" stroke="white"/>
</mask>
<g mask="url(#mask0)">
<path d="M55.0344 8.03015H28V48.0302H55.0344C55.5676 48.0302 56 47.5588 56 46.9775V9.08271C56 8.5014 55.5676 8.03015 55.0344 8.03015Z" fill="#F5F5F5"/>
<path d="M0.965563 48.0302H28V8.03015H0.965563C0.432359 8.03015 0 8.5014 0 9.08271V46.9775C0 47.5589 0.432359 48.0302 0.965563 48.0302Z" fill="#FFE15A"/>
<path d="M44.6542 19.4885L44.59 19.6168C44.7972 19.7229 44.9157 19.8436 44.9157 19.9722L44.8834 19.3345C44.8403 19.4201 44.7558 19.4816 44.6542 19.4885Z" fill="#EBEBEB"/>
<path d="M39.6416 19.6168L39.5774 19.4885C39.4759 19.4815 39.3915 19.4201 39.348 19.3345L39.3158 19.9722C39.3158 19.8438 39.4344 19.7229 39.6416 19.6168Z" fill="#EBEBEB"/>
<path d="M39.5959 18.9322C39.7505 18.9322 39.8759 19.0575 39.8759 19.2122C39.8759 19.2682 39.8552 19.3174 39.8269 19.3611L39.9006 19.5085C40.1119 19.4342 40.3722 19.3711 40.6692 19.3222L40.6377 19.1962C40.5219 19.1619 40.4359 19.0588 40.4359 18.9321C40.4359 18.7774 40.5612 18.6521 40.7159 18.6521C40.8705 18.6521 40.9959 18.7774 40.9959 18.9321C40.9959 19.011 40.9627 19.0816 40.9102 19.1325L40.9476 19.2821C41.1037 19.2625 41.2672 19.2471 41.437 19.2355C41.4243 19.1829 41.4159 19.1285 41.4159 19.0721C41.4159 18.6855 41.7293 18.3721 42.1159 18.3721C42.5024 18.3721 42.8159 18.6855 42.8159 19.0721C42.8159 19.1287 42.8074 19.1829 42.7947 19.2355C42.9647 19.2469 43.1282 19.2625 43.2841 19.2821L43.3215 19.1325C43.269 19.0816 43.2359 19.011 43.2359 18.9321C43.2359 18.7774 43.3612 18.6521 43.5159 18.6521C43.6705 18.6521 43.7959 18.7774 43.7959 18.9321C43.7959 19.0589 43.7098 19.1619 43.5941 19.1962L43.5626 19.3222C43.8594 19.371 44.1198 19.4341 44.3311 19.5085L44.4049 19.3611C44.3765 19.3173 44.3559 19.2682 44.3559 19.2122C44.3559 19.0575 44.4812 18.9322 44.6359 18.9322C44.7366 18.9322 44.821 18.9883 44.8702 19.0682L44.8488 18.6412C44.5723 18.3273 43.4547 18.0922 42.1159 18.0922C40.777 18.0922 39.6595 18.3271 39.383 18.6412L39.3616 19.0682C39.4108 18.9883 39.4951 18.9322 39.5959 18.9322Z" fill="#EBEBEB"/>
<path d="M42.553 15.6384C42.6288 15.5428 42.6758 15.4236 42.6758 15.2922C42.6758 15.0316 42.497 14.8146 42.2558 14.752V14.4092C42.3379 14.3604 42.3958 14.2747 42.3958 14.1722C42.3958 14.0176 42.2704 13.8922 42.1158 13.8922C41.9611 13.8922 41.8358 14.0176 41.8358 14.1722C41.8358 14.2747 41.8936 14.3604 41.9758 14.4092V14.752C41.7346 14.8144 41.5558 15.0316 41.5558 15.2922C41.5558 15.4237 41.6029 15.5429 41.6786 15.6384C41.821 15.5994 41.9661 15.5722 42.1158 15.5722C42.2655 15.5722 42.4104 15.5993 42.553 15.6384Z" fill="#E6B432"/>
<path d="M40.9426 17.0558L40.9177 16.9564C40.802 16.9221 40.7159 16.819 40.7159 16.6923C40.7159 16.5376 40.8413 16.4123 40.9959 16.4123C41.1506 16.4123 41.2759 16.5376 41.2759 16.6923C41.2759 16.7712 41.2428 16.8418 41.1903 16.8928L41.2219 17.019C41.4959 16.989 41.798 16.9723 42.1159 16.9723C41.884 16.9723 41.6959 16.7843 41.6959 16.5523C41.6959 16.3203 41.884 16.1323 42.1159 16.1323C42.3479 16.1323 42.5359 16.3203 42.5359 16.5523C42.5359 16.7843 42.3479 16.9723 42.1159 16.9723C42.434 16.9723 42.7361 16.989 43.01 17.019L43.0416 16.8928C42.9891 16.8418 42.9559 16.7712 42.9559 16.6923C42.9559 16.5376 43.0813 16.4123 43.2359 16.4123C43.3906 16.4123 43.5159 16.5376 43.5159 16.6923C43.5159 16.8191 43.4299 16.9221 43.3141 16.9564L43.2893 17.0558C43.4316 17.0778 43.564 17.1033 43.6827 17.1324L43.8891 16.7196C43.532 16.1663 43.0706 15.7802 42.553 15.6384C42.4106 15.5995 42.2656 15.5723 42.1158 15.5723C41.9662 15.5723 41.8212 15.5994 41.6787 15.6384C41.161 15.7801 40.6996 16.1662 40.3425 16.7196L40.5489 17.1324C40.6678 17.1033 40.8003 17.0778 40.9426 17.0558Z" fill="#EBEBEB"/>
<path d="M41.8358 39.9836V39.3722C41.8358 39.3066 41.845 39.2436 41.8593 39.1825C41.8518 39.1777 41.8436 39.1743 41.8358 39.1698C41.7532 39.1218 41.6583 39.0922 41.5558 39.0922C41.4534 39.0922 41.3585 39.1217 41.2758 39.1698C41.1092 39.2668 40.9958 39.4453 40.9958 39.6522C40.9958 39.8028 41.0561 39.9389 41.1527 40.0395C41.2728 39.9732 41.409 39.9322 41.5557 39.9322C41.6546 39.9322 41.7479 39.9523 41.8358 39.9836Z" fill="#E6B432"/>
<path d="M42.3958 37.7698C42.2292 37.8668 42.1158 38.0453 42.1158 38.2521C42.1158 38.4027 42.1761 38.5389 42.2727 38.6394C42.3928 38.5732 42.529 38.5321 42.6758 38.5321C42.8227 38.5321 42.9587 38.5732 43.079 38.6394C43.1757 38.5388 43.2358 38.4027 43.2358 38.2521C43.2358 38.0454 43.1225 37.8668 42.9558 37.7698C42.8732 37.7218 42.7783 37.6921 42.6758 37.6921C42.5734 37.6921 42.4785 37.7218 42.3958 37.7698Z" fill="#E6B432"/>
<path d="M42.2728 38.6395C42.0672 38.753 41.9137 38.9476 41.8593 39.1827C41.8452 39.2438 41.8359 39.3068 41.8359 39.3723V39.9838C41.748 39.9525 41.6547 39.9323 41.5559 39.9323C41.4091 39.9323 41.2729 39.9734 41.1528 40.0396C40.8936 40.1827 40.7159 40.4553 40.7159 40.7723V41.8923H42.3959V40.7723C42.3959 40.6736 42.3758 40.5803 42.3445 40.4923H43.5159V39.3723C43.5159 39.0554 43.3383 38.7827 43.0791 38.6396C42.959 38.5734 42.8228 38.5323 42.6759 38.5323C42.5291 38.5323 42.3929 38.5733 42.2728 38.6395Z" fill="#FF4B57"/>
<path d="M42.3959 27.3793L42.8743 27.8579L43.0379 27.6942C43.0767 27.6554 43.1251 27.6354 43.175 27.6241L45.5431 25.2555L47.0599 26.7723L48.0498 25.7825L47.6538 25.3865L47.4558 25.5845L47.0598 25.1886L47.2578 24.9906L47.0598 24.7925L47.4558 24.3966L47.6538 24.5945L47.8518 24.3966L48.2478 24.7925L48.0498 24.9906L48.4457 25.3865L49.4356 24.3967L47.9184 22.8795L48.9566 21.841C48.9065 21.8205 48.8595 21.7902 48.8188 21.7496L48.2588 21.1896C48.217 21.1478 48.1865 21.0994 48.1659 21.0477L42.3326 26.8826C42.3699 26.9301 42.3958 26.9873 42.3958 27.0525L42.3959 27.3793Z" fill="#E6B432"/>
<path d="M41.7536 29.0459L40.9616 28.2539L38.4999 30.7164C38.2814 30.9352 38.2814 31.2897 38.5001 31.5082C38.6094 31.6176 38.7527 31.6723 38.896 31.6723C39.0393 31.6723 39.1828 31.6176 39.2921 31.5082L41.2163 29.5836L41.7536 29.0459Z" fill="#E6B432"/>
<path d="M34.1101 31.9521C34.1256 31.9081 34.1358 31.8615 34.1358 31.8122C34.1358 31.5802 33.9478 31.3922 33.7158 31.3922C33.4838 31.3922 33.2958 31.5802 33.2958 31.8122C33.2958 32.0442 33.4838 32.2322 33.7158 32.2322C33.7651 32.2322 33.8117 32.2221 33.8557 32.2065C33.9351 32.1164 34.0199 32.0315 34.1101 31.9521Z" fill="#D2D2D2"/>
<path d="M33.8557 35.8979C33.8117 35.8824 33.7651 35.8722 33.7158 35.8722C33.4838 35.8722 33.2958 36.0602 33.2958 36.2922C33.2958 36.5242 33.4838 36.7122 33.7158 36.7122C33.9478 36.7122 34.1358 36.5242 34.1358 36.2922C34.1358 36.243 34.1257 36.1963 34.1101 36.1523C34.0199 36.073 33.9351 35.988 33.8557 35.8979Z" fill="#D2D2D2"/>
<path d="M38.0559 32.2065C38.0998 32.222 38.1464 32.2322 38.1958 32.2322C38.4277 32.2322 38.6158 32.0442 38.6158 31.8122C38.6158 31.5802 38.4277 31.3922 38.1958 31.3922C37.9638 31.3922 37.7758 31.5802 37.7758 31.8122C37.7758 31.8615 37.7858 31.9081 37.8015 31.9521C37.8917 32.0315 37.9765 32.1164 38.0559 32.2065Z" fill="#D2D2D2"/>
<path d="M37.7758 36.2923C37.7758 36.5242 37.9638 36.7123 38.1958 36.7123C38.3251 36.7123 38.4393 36.6525 38.5164 36.5606C38.2532 36.4653 38.0073 36.3592 37.7807 36.243C37.7788 36.2594 37.7758 36.2754 37.7758 36.2923Z" fill="#D2D2D2"/>
<path fill-rule="evenodd" clip-rule="evenodd" d="M37.1912 35.8868C37.1322 35.844 37.0969 35.7821 37.0832 35.716C37.0356 35.7263 36.9865 35.7323 36.9359 35.7323C36.6034 35.7323 36.3254 35.4988 36.2545 35.1873C36.1783 35.2644 36.0727 35.3123 35.9559 35.3123C35.8389 35.3123 35.7333 35.2644 35.6573 35.1873C35.5864 35.4988 35.3085 35.7323 34.9759 35.7323C34.5899 35.7323 34.2759 35.4184 34.2759 35.0323C34.2759 34.6997 34.5095 34.4219 34.8209 34.3509C34.7438 34.2748 34.6959 34.1691 34.6959 34.0523C34.6959 33.9354 34.7438 33.8298 34.8209 33.7537C34.5095 33.6829 34.2759 33.4051 34.2759 33.0723C34.2759 32.6862 34.5899 32.3723 34.9759 32.3723C35.3084 32.3723 35.5863 32.6058 35.6573 32.9173C35.7334 32.8402 35.8391 32.7923 35.9559 32.7923C36.0728 32.7923 36.1784 32.8402 36.2545 32.9173C36.3253 32.6058 36.6033 32.3723 36.9359 32.3723C37.3219 32.3723 37.6359 32.6862 37.6359 33.0723C37.6359 33.4049 37.4022 33.6828 37.0909 33.7537C37.168 33.8299 37.2159 33.9355 37.2159 34.0523C37.2159 34.1693 37.168 34.2749 37.0909 34.3509C37.4022 34.4218 37.6359 34.6997 37.6359 35.0323C37.6359 35.18 37.5894 35.3166 37.5111 35.4297C37.5124 35.4306 37.5138 35.4311 37.5153 35.4316C37.5167 35.4321 37.5182 35.4326 37.5195 35.4335C37.7006 35.5647 37.9094 35.6866 38.1413 35.7981C38.2111 35.7109 38.2745 35.6188 38.3336 35.5236C38.5181 35.2265 38.6485 34.8933 38.711 34.5363C38.7387 34.3788 38.7558 34.2178 38.7558 34.0524C38.7558 33.3452 38.49 32.7001 38.0559 32.2067C37.9765 32.1166 37.8916 32.0316 37.8015 31.9523C37.3081 31.5182 36.6631 31.2524 35.9558 31.2524C35.2484 31.2524 34.6034 31.5182 34.1101 31.9523C34.0199 32.0317 33.9349 32.1166 33.8557 32.2067C33.4215 32.7001 33.1558 33.3451 33.1558 34.0524C33.1558 34.7598 33.4215 35.4048 33.8557 35.8981C33.9351 35.9883 34.0199 36.0733 34.1101 36.1526C34.6034 36.5867 35.2484 36.8524 35.9558 36.8524C36.6286 36.8524 37.2464 36.6136 37.7298 36.2166C37.535 36.1137 37.3534 36.0042 37.1912 35.8868ZM38.1205 33.4859C38.1681 33.6671 38.196 33.8563 38.196 34.0522C38.196 34.2481 38.1681 34.4373 38.1205 34.6186C38.0414 34.393 37.9012 34.1987 37.7181 34.0522C37.9012 33.9058 38.0414 33.7114 38.1205 33.4859ZM35.956 32.2901C36.1024 32.107 36.2968 31.9668 36.5223 31.8877C36.341 31.8401 36.152 31.8122 35.956 31.8122C35.76 31.8122 35.5709 31.8401 35.3896 31.8877C35.6152 31.9668 35.8094 32.107 35.956 32.2901ZM33.7913 33.4859C33.8704 33.7114 34.0106 33.9059 34.1937 34.0522C34.0106 34.1988 33.8704 34.393 33.7913 34.6186C33.7438 34.4373 33.7159 34.2482 33.7159 34.0522C33.7159 33.8562 33.7438 33.6671 33.7913 33.4859ZM35.9559 35.8145C35.8094 35.9976 35.6151 36.1378 35.3895 36.2169C35.5708 36.2643 35.7599 36.2923 35.9559 36.2923C36.1519 36.2923 36.341 36.2644 36.5222 36.2169C36.2967 36.1379 36.1024 35.9976 35.9559 35.8145Z" fill="#E6B432"/>
<path d="M35.5358 34.0522C35.5358 33.8202 35.3478 33.6322 35.1158 33.6322C35.0007 33.6322 34.8966 33.6787 34.8208 33.7536C34.7437 33.8297 34.6958 33.9354 34.6958 34.0522C34.6958 34.1691 34.7437 34.2748 34.8208 34.3508C34.8967 34.4257 35.0007 34.4722 35.1158 34.4722C35.3478 34.4722 35.5358 34.2842 35.5358 34.0522Z" fill="#F0C814"/>
<path d="M36.3759 34.0522C36.3759 34.2842 36.5639 34.4722 36.7959 34.4722C36.9109 34.4722 37.015 34.4257 37.0908 34.3508C37.1679 34.2747 37.2159 34.169 37.2159 34.0522C37.2159 33.9353 37.1679 33.8296 37.0908 33.7536C37.0149 33.6787 36.9109 33.6322 36.7959 33.6322C36.5639 33.6322 36.3759 33.8202 36.3759 34.0522Z" fill="#F0C814"/>
<path d="M35.9558 33.6322C36.1878 33.6322 36.3758 33.4442 36.3758 33.2122C36.3758 33.0972 36.3293 32.993 36.2544 32.9173C36.1782 32.8401 36.0726 32.7922 35.9558 32.7922C35.8388 32.7922 35.7332 32.8401 35.6572 32.9173C35.5823 32.9932 35.5358 33.0972 35.5358 33.2122C35.5358 33.4442 35.7238 33.6322 35.9558 33.6322Z" fill="#F0C814"/>
<path d="M35.9558 34.4723C35.7238 34.4723 35.5358 34.6603 35.5358 34.8923C35.5358 35.0074 35.5823 35.1115 35.6572 35.1873C35.7333 35.2644 35.839 35.3123 35.9558 35.3123C36.0727 35.3123 36.1783 35.2644 36.2544 35.1873C36.3293 35.1115 36.3758 35.0074 36.3758 34.8923C36.3758 34.6603 36.1878 34.4723 35.9558 34.4723Z" fill="#F0C814"/>
<path d="M48.819 21.7492C48.8597 21.7898 48.9067 21.8203 48.9568 21.8406C49.0078 21.8615 49.0618 21.8721 49.1159 21.8721C49.2233 21.8721 49.3309 21.8311 49.4128 21.7489C49.5584 21.6034 49.5671 21.3813 49.4545 21.2177L49.6093 20.5985C49.6313 20.6041 49.6523 20.6119 49.6759 20.6119C49.8306 20.6119 49.9559 20.4865 49.9559 20.3319C49.9559 20.1772 49.8306 20.0519 49.6759 20.0519C49.5213 20.0519 49.3959 20.1772 49.3959 20.3319C49.3959 20.3555 49.4039 20.3765 49.4093 20.3985L48.7901 20.5534C48.6265 20.4406 48.4043 20.4495 48.2589 20.595C48.1366 20.7173 48.106 20.896 48.166 21.0472C48.1866 21.0987 48.2171 21.1473 48.2589 21.1891L48.819 21.7492Z" fill="#D2D2D2"/>
<path d="M41.8358 28.3362V28.1722V27.0522C41.8358 26.987 41.8616 26.9298 41.8989 26.8822L36.0656 21.0474C36.0451 21.0989 36.0146 21.1474 35.9728 21.1892L35.4128 21.7492C35.3721 21.7899 35.3251 21.8203 35.275 21.8407L36.3132 22.8792L34.796 24.3963L35.7859 25.3862L36.1818 24.9902L35.9838 24.7921L36.3798 24.3962L36.5777 24.5942L36.7758 24.3962L37.1718 24.7921L36.9738 24.9902L37.1718 25.1882L36.7758 25.5841L36.5777 25.3862L36.1818 25.7821L37.1716 26.7719L38.6885 25.2551L41.0565 27.6238C41.1065 27.635 41.1548 27.655 41.1937 27.6939L41.8358 28.3362Z" fill="#D2D2D2"/>
<path d="M42.4781 29.0459L43.0156 29.5835L44.9397 31.5081C45.0491 31.6175 45.1923 31.6722 45.3359 31.6722C45.4792 31.6722 45.6225 31.6175 45.7318 31.5081C45.9507 31.2897 45.9507 30.935 45.7319 30.7163L43.2702 28.2538L42.4781 29.0459Z" fill="#D2D2D2"/>
<path d="M42.3959 28.1723V28.3363L42.8743 27.8579L42.3959 27.3794V28.1723Z" fill="#D2D2D2"/>
<path d="M50.3759 32.2065C50.4199 32.222 50.4665 32.2322 50.5158 32.2322C50.7478 32.2322 50.9358 32.0442 50.9358 31.8122C50.9358 31.5802 50.7478 31.3922 50.5158 31.3922C50.2838 31.3922 50.0958 31.5802 50.0958 31.8122C50.0958 31.8615 50.1059 31.9081 50.1215 31.9521C50.2118 32.0315 50.2965 32.1164 50.3759 32.2065Z" fill="#D2D2D2"/>
<path d="M50.5158 35.8722C50.4665 35.8722 50.4199 35.8823 50.3759 35.8979C50.2965 35.988 50.2117 36.073 50.1215 36.1523C50.106 36.1963 50.0958 36.2429 50.0958 36.2922C50.0958 36.5242 50.2838 36.7122 50.5158 36.7122C50.7478 36.7122 50.9358 36.5242 50.9358 36.2922C50.9358 36.0602 50.7478 35.8722 50.5158 35.8722Z" fill="#D2D2D2"/>
<path d="M46.4301 31.9521C46.4457 31.9081 46.4558 31.8615 46.4558 31.8122C46.4558 31.5802 46.2678 31.3922 46.0358 31.3922C45.8039 31.3922 45.6158 31.5802 45.6158 31.8122C45.6158 32.0442 45.8039 32.2322 46.0358 32.2322C46.0852 32.2322 46.1318 32.2221 46.1757 32.2065C46.2551 32.1164 46.34 32.0315 46.4301 31.9521Z" fill="#D2D2D2"/>
<path d="M46.0358 36.7123C46.2678 36.7123 46.4558 36.5242 46.4558 36.2923C46.4558 36.2754 46.4527 36.2594 46.4509 36.243C46.2245 36.3593 45.9784 36.4654 45.7152 36.5607C45.7923 36.6527 45.9064 36.7123 46.0358 36.7123Z" fill="#D2D2D2"/>
<path fill-rule="evenodd" clip-rule="evenodd" d="M50.3759 35.8979C50.81 35.4045 51.0758 34.7595 51.0758 34.0522C51.0758 33.3449 50.81 32.6999 50.3759 32.2065C50.2965 32.1164 50.2117 32.0314 50.1215 31.9521C49.6281 31.518 48.9832 31.2522 48.2758 31.2522C47.5685 31.2522 46.9235 31.518 46.4301 31.9521C46.34 32.0315 46.255 32.1164 46.1757 32.2065C45.7416 32.6999 45.4758 33.3449 45.4758 34.0522C45.4758 34.2183 45.4931 34.3803 45.521 34.5387C45.5838 34.8948 45.7139 35.2271 45.898 35.5235C45.9572 35.6188 46.0205 35.7107 46.0903 35.7979C46.322 35.6866 46.5305 35.5647 46.7117 35.4337C46.7131 35.4326 46.7147 35.4321 46.7163 35.4315C46.7178 35.431 46.7193 35.4305 46.7206 35.4296C46.6423 35.3166 46.5958 35.1799 46.5958 35.0322C46.5958 34.6996 46.8295 34.4218 47.1408 34.3508C47.0637 34.2747 47.0158 34.169 47.0158 34.0522C47.0158 33.9353 47.0637 33.8296 47.1408 33.7536C46.8295 33.6827 46.5958 33.4049 46.5958 33.0722C46.5958 32.6861 46.9098 32.3722 47.2958 32.3722C47.6283 32.3722 47.9063 32.6057 47.9772 32.9172C48.0534 32.8401 48.159 32.7922 48.2758 32.7922C48.3926 32.7922 48.4984 32.8401 48.5744 32.9172C48.6454 32.6057 48.9232 32.3722 49.2558 32.3722C49.6418 32.3722 49.9558 32.6861 49.9558 33.0722C49.9558 33.4048 49.7222 33.6826 49.4108 33.7536C49.4879 33.8297 49.5358 33.9354 49.5358 34.0522C49.5358 34.1691 49.4879 34.2748 49.4108 34.3508C49.7222 34.4217 49.9558 34.6996 49.9558 35.0322C49.9558 35.4183 49.6418 35.7322 49.2558 35.7322C48.9233 35.7322 48.6454 35.4987 48.5744 35.1872C48.4983 35.2643 48.3926 35.3122 48.2758 35.3122C48.159 35.3122 48.0533 35.2643 47.9772 35.1872C47.9063 35.4987 47.6284 35.7322 47.2958 35.7322C47.2452 35.7322 47.1959 35.7262 47.1481 35.7159C47.1345 35.7822 47.0991 35.8443 47.0399 35.8871C46.8778 36.0045 46.6965 36.1138 46.5017 36.2165C46.985 36.6134 47.603 36.8523 48.2757 36.8523C48.983 36.8523 49.628 36.5865 50.1214 36.1524C50.2118 36.073 50.2965 35.988 50.3759 35.8979ZM46.1113 34.6187C46.0637 34.4374 46.0358 34.2483 46.0358 34.0523C46.0358 33.8563 46.0637 33.6672 46.1113 33.486C46.1904 33.7115 46.3306 33.906 46.5137 34.0523C46.3306 34.1988 46.1904 34.393 46.1113 34.6187ZM47.7095 31.8877C47.935 31.9667 48.1293 32.107 48.2758 32.2901C48.4224 32.107 48.6166 31.9667 48.8422 31.8877C48.6609 31.8401 48.4718 31.8122 48.2758 31.8122C48.0798 31.8122 47.8907 31.8401 47.7095 31.8877ZM50.4405 33.4859C50.488 33.6671 50.5159 33.8563 50.5159 34.0522C50.5159 34.2481 50.488 34.4373 50.4405 34.6185C50.3614 34.393 50.2212 34.1987 50.0381 34.0522C50.2212 33.9057 50.3614 33.7114 50.4405 33.4859ZM48.2758 35.8144C48.1294 35.9975 47.935 36.1378 47.7095 36.2168C47.8907 36.2643 48.0798 36.2923 48.2758 36.2923C48.4718 36.2923 48.6609 36.2644 48.8422 36.2168C48.6166 36.1379 48.4224 35.9975 48.2758 35.8144Z" fill="#E6B432"/>
<path d="M48.6959 34.0522C48.6959 34.2842 48.8839 34.4722 49.1159 34.4722C49.231 34.4722 49.3351 34.4257 49.4109 34.3508C49.488 34.2747 49.5359 34.169 49.5359 34.0522C49.5359 33.9353 49.488 33.8296 49.4109 33.7536C49.335 33.6787 49.231 33.6322 49.1159 33.6322C48.8839 33.6322 48.6959 33.8202 48.6959 34.0522Z" fill="#F0C814"/>
<path d="M47.8559 34.0522C47.8559 33.8202 47.6679 33.6322 47.4359 33.6322C47.3208 33.6322 47.2167 33.6787 47.1409 33.7536C47.0638 33.8297 47.0159 33.9354 47.0159 34.0522C47.0159 34.1691 47.0638 34.2748 47.1409 34.3508C47.2168 34.4257 47.3208 34.4722 47.4359 34.4722C47.6679 34.4722 47.8559 34.2842 47.8559 34.0522Z" fill="#F0C814"/>
<path d="M48.2758 33.6322C48.5078 33.6322 48.6958 33.4442 48.6958 33.2122C48.6958 33.0972 48.6494 32.993 48.5744 32.9173C48.4983 32.8401 48.3926 32.7922 48.2758 32.7922C48.159 32.7922 48.0533 32.8401 47.9772 32.9173C47.9023 32.9932 47.8558 33.0972 47.8558 33.2122C47.8558 33.4442 48.0439 33.6322 48.2758 33.6322Z" fill="#F0C814"/>
<path d="M48.2758 34.4723C48.0439 34.4723 47.8558 34.6603 47.8558 34.8923C47.8558 35.0074 47.9023 35.1115 47.9772 35.1873C48.0534 35.2644 48.159 35.3123 48.2758 35.3123C48.3926 35.3123 48.4984 35.2644 48.5744 35.1873C48.6494 35.1115 48.6958 35.0074 48.6958 34.8923C48.6958 34.6603 48.5078 34.4723 48.2758 34.4723Z" fill="#F0C814"/>
<path d="M35.9728 21.1892C36.0146 21.1474 36.0451 21.0989 36.0657 21.0473C36.1256 20.8962 36.0951 20.7175 35.9728 20.5952C35.8272 20.4496 35.6052 20.4408 35.4416 20.5535L34.8224 20.3986C34.828 20.3766 34.8358 20.3556 34.8358 20.332C34.8358 20.1773 34.7104 20.052 34.5558 20.052C34.4011 20.052 34.2758 20.1773 34.2758 20.332C34.2758 20.4867 34.4011 20.612 34.5558 20.612C34.5794 20.612 34.6004 20.604 34.6224 20.5987L34.7772 21.2178C34.6645 21.3815 34.6733 21.6036 34.8189 21.7491C34.9009 21.8311 35.0084 21.8722 35.1158 21.8722C35.1699 21.8722 35.224 21.8615 35.2749 21.8407C35.325 21.8202 35.372 21.7899 35.4127 21.7493L35.9728 21.1892Z" fill="#F7B518"/>
<path fill-rule="evenodd" clip-rule="evenodd" d="M47.1482 35.7158C47.1345 35.7821 47.0992 35.8442 47.04 35.887C46.8779 36.0044 46.6966 36.1138 46.5016 36.2162C46.4846 36.2252 46.4678 36.2339 46.4506 36.2428C46.2241 36.3591 45.9782 36.4652 45.715 36.5604C44.9199 36.8482 43.9724 37.0363 42.9555 37.1036V37.7698C42.8728 37.7217 42.778 37.6921 42.6755 37.6921C42.5731 37.6921 42.4782 37.7218 42.3955 37.7698V37.1281C42.3868 37.1282 42.378 37.1284 42.3693 37.1286C42.2849 37.1303 42.2005 37.132 42.1155 37.132C42.0217 37.132 41.9286 37.13 41.8355 37.1281V39.1698C41.7528 39.1217 41.658 39.0921 41.5555 39.0921C41.4531 39.0921 41.3582 39.1218 41.2755 39.1698V37.1036C40.2588 37.0363 39.3114 36.8482 38.5162 36.5604C38.253 36.4653 38.0069 36.3592 37.7805 36.2429C37.7633 36.234 37.7464 36.2253 37.7295 36.2163C37.5346 36.1136 37.353 36.0041 37.1907 35.8866C37.1319 35.8439 37.0965 35.7819 37.0829 35.7158C37.0674 35.6414 37.0801 35.5618 37.1281 35.4955C37.2172 35.3735 37.3862 35.3452 37.5107 35.4294C37.512 35.4302 37.5133 35.4307 37.5147 35.4311C37.5162 35.4316 37.5178 35.4322 37.5192 35.4332C37.7003 35.5643 37.9091 35.6862 38.141 35.7977C38.962 36.1926 40.0734 36.4561 41.2755 36.5412V32.6083C40.0535 34.2771 38.8634 35.174 38.3333 35.5233C38.518 35.2264 38.6481 34.8931 38.7108 34.536C39.3888 33.974 40.3473 33.0312 41.2755 31.6142V29.7139C41.267 29.6951 41.2585 29.6766 41.2499 29.6581C41.2385 29.6334 41.2271 29.6088 41.2158 29.5835L41.7533 29.0459L40.9613 28.2539L40.7977 28.0903C40.6883 27.9809 40.6883 27.8037 40.7977 27.6944C40.8682 27.6239 40.966 27.6039 41.0566 27.6243C41.1066 27.6355 41.1549 27.6555 41.1937 27.6944L41.8358 28.3364V28.1723V27.0523C41.8358 26.9872 41.8616 26.9299 41.8989 26.8824C41.9502 26.817 42.0262 26.7723 42.1158 26.7723C42.2052 26.7723 42.2813 26.817 42.3326 26.8824C42.3699 26.9299 42.3958 26.9872 42.3958 27.0523V27.3794V28.1723V28.3364L42.8742 27.858L43.0378 27.6944C43.0768 27.6555 43.125 27.6355 43.1749 27.6243C43.2655 27.6038 43.3634 27.6239 43.4338 27.6944C43.5432 27.8037 43.5432 27.9809 43.4338 28.0903L43.2702 28.2539L42.4782 29.0459L43.0157 29.5835C43.0043 29.6091 42.9926 29.6342 42.981 29.6593C42.9727 29.6775 42.9643 29.6956 42.956 29.7139V31.6164C43.8852 33.0364 44.8435 33.9781 45.5211 34.5387C45.5839 34.8949 45.7141 35.2271 45.8982 35.5235C45.3681 35.1741 44.1779 34.2772 42.956 32.6085V36.5414C44.1581 36.4562 45.2695 36.1928 46.0904 35.7979C46.3221 35.6865 46.5308 35.5647 46.7118 35.4336C46.7133 35.4326 46.7148 35.432 46.7164 35.4315C46.7179 35.431 46.7194 35.4304 46.7208 35.4295C46.8453 35.3456 47.014 35.3738 47.1027 35.496C47.1506 35.562 47.1634 35.6416 47.1482 35.7158ZM41.8359 36.5681C41.9289 36.5703 42.0222 36.5722 42.1159 36.5722C42.2096 36.5722 42.3029 36.5704 42.3959 36.5681V31.7894C42.302 31.642 42.2087 31.4888 42.1159 31.3316C42.023 31.4887 41.9297 31.642 41.8359 31.7894V36.5681Z" fill="#FF4B55"/>
<path d="M42.1158 20.5499C43.6622 20.5499 44.9158 20.8146 44.9158 21.1411C44.9158 20.5918 44.9158 20.0559 44.9158 19.9722C44.9158 19.8438 44.7973 19.7229 44.5901 19.6168L44.6543 19.4885C44.7558 19.4815 44.8402 19.4201 44.8838 19.3345C44.9026 19.2973 44.916 19.257 44.916 19.2122C44.916 19.1584 44.8969 19.1109 44.8704 19.0682C44.8211 18.9884 44.7369 18.9322 44.636 18.9322C44.4814 18.9322 44.356 19.0575 44.356 19.2122C44.356 19.2682 44.3767 19.3174 44.405 19.3611L44.3313 19.5085C44.12 19.4342 43.8597 19.3711 43.5627 19.3222L43.5942 19.1962C43.71 19.1619 43.796 19.0588 43.796 18.9321C43.796 18.7774 43.6707 18.6521 43.516 18.6521C43.3614 18.6521 43.236 18.7774 43.236 18.9321C43.236 19.011 43.2692 19.0816 43.3217 19.1326L43.2843 19.2821C43.1282 19.2625 42.9647 19.2471 42.7949 19.2355C42.8076 19.1829 42.816 19.1285 42.816 19.0721C42.816 18.6855 42.5026 18.3721 42.116 18.3721C41.7295 18.3721 41.416 18.6855 41.416 19.0721C41.416 19.1287 41.4245 19.1829 41.4371 19.2355C41.2672 19.247 41.1037 19.2625 40.9478 19.2821L40.9104 19.1326C40.9629 19.0816 40.996 19.011 40.996 18.9321C40.996 18.7774 40.8707 18.6521 40.716 18.6521C40.5614 18.6521 40.436 18.7774 40.436 18.9321C40.436 19.0589 40.5221 19.1619 40.6378 19.1962L40.6693 19.3222C40.3725 19.371 40.1121 19.4341 39.9008 19.5085L39.827 19.3611C39.8554 19.3173 39.876 19.2682 39.876 19.2122C39.876 19.0575 39.7507 18.9322 39.596 18.9322C39.4953 18.9322 39.4109 18.9883 39.3616 19.0682C39.3353 19.111 39.316 19.1584 39.316 19.2122C39.316 19.2569 39.3293 19.2973 39.3482 19.3345C39.3916 19.4201 39.4762 19.4815 39.5777 19.4885L39.6419 19.6168C39.4346 19.7229 39.3161 19.8436 39.3161 19.9722C39.3161 20.056 39.3161 20.5918 39.3161 21.1411C39.3158 20.8146 40.5695 20.5499 42.1158 20.5499Z" fill="#E6B432"/>
<path d="M39.3159 21.1721L39.3194 21.1707C39.3185 21.1613 39.3159 21.1486 39.3159 21.1411C39.3159 21.1516 39.3159 21.1618 39.3159 21.1721Z" fill="#E6B432"/>
<path d="M44.9159 21.1722C44.9159 21.1618 44.9159 21.1515 44.9159 21.141C44.9159 21.1487 44.9133 21.1614 44.9124 21.1707L44.9159 21.1722Z" fill="#E6B432"/>
<path d="M39.8758 21.7322C39.8758 21.7882 39.8551 21.8374 39.8268 21.8811L39.9329 22.0934C40.1182 22.0016 40.3713 21.9227 40.6739 21.8622L40.6375 21.7164C40.5218 21.6821 40.4357 21.579 40.4357 21.4523C40.4357 21.2976 40.561 21.1723 40.7157 21.1723C40.8703 21.1723 40.9957 21.2976 40.9957 21.4523C40.9957 21.5313 40.9625 21.6018 40.91 21.6528L40.9505 21.8142C41.2207 21.7738 41.519 21.7469 41.8358 21.737V21.4833C41.7505 21.4065 41.6958 21.2963 41.6958 21.1723C41.6958 20.9403 41.8838 20.7523 42.1158 20.7523C42.3478 20.7523 42.5358 20.9403 42.5358 21.1723C42.5358 21.2962 42.4811 21.4065 42.3958 21.4833V21.737C42.7124 21.747 43.0109 21.774 43.2811 21.8142L43.3215 21.6528C43.269 21.6018 43.2359 21.5313 43.2359 21.4523C43.2359 21.2976 43.3612 21.1723 43.5159 21.1723C43.6706 21.1723 43.7959 21.2976 43.7959 21.4523C43.7959 21.5792 43.7098 21.6821 43.5941 21.7164L43.5577 21.8622C43.8603 21.9227 44.1135 22.0018 44.2987 22.0934L44.4048 21.8811C44.3765 21.8373 44.3558 21.7882 44.3558 21.7322C44.3558 21.5775 44.4811 21.4522 44.6358 21.4522C44.7027 21.4522 44.7618 21.479 44.8099 21.5182C44.8723 21.3652 44.9054 21.2437 44.9123 21.1709C44.9132 21.1615 44.9158 21.1488 44.9158 21.1412C44.9158 20.8147 43.6621 20.55 42.1158 20.55C40.5695 20.55 39.3158 20.8147 39.3158 21.1412C39.3158 21.1489 39.3184 21.1616 39.3193 21.1709C39.3261 21.2437 39.3592 21.3652 39.4216 21.5182C39.4697 21.479 39.5287 21.4522 39.5957 21.4522C39.7505 21.4522 39.8758 21.5776 39.8758 21.7322Z" fill="#EBEBEB"/>
<path d="M39.3158 21.7322C39.3158 21.8803 39.4317 21.9985 39.5773 22.0085L39.6982 22.2501C39.6327 22.3143 39.5957 22.3819 39.5957 22.4521C39.5957 22.5328 39.6444 22.6104 39.7302 22.6829L40.1557 23.4122C40.1557 23.1029 41.0332 22.8522 42.1157 22.8522C43.1982 22.8522 44.0757 23.1029 44.0757 23.4122L44.5012 22.6829C44.5871 22.6104 44.6357 22.5331 44.6357 22.4521C44.6357 22.3819 44.5988 22.3143 44.5332 22.2501L44.6541 22.0085C44.7996 21.9984 44.9157 21.8803 44.9157 21.7322C44.9157 21.6446 44.8729 21.5696 44.8098 21.5183C44.7617 21.479 44.7026 21.4522 44.6357 21.4522C44.481 21.4522 44.3557 21.5776 44.3557 21.7322C44.3557 21.7882 44.3764 21.8374 44.4047 21.8812L44.2986 22.0935C44.1133 22.0016 43.8602 21.9227 43.5576 21.8623L43.594 21.7165C43.7097 21.6821 43.7958 21.5791 43.7958 21.4523C43.7958 21.2977 43.6705 21.1723 43.5158 21.1723C43.3611 21.1723 43.2358 21.2977 43.2358 21.4523C43.2358 21.5313 43.2689 21.6018 43.3214 21.6528L43.281 21.8142C43.0108 21.7739 42.7124 21.747 42.3957 21.737V21.4834C42.481 21.4065 42.5357 21.2964 42.5357 21.1723C42.5357 20.9403 42.3477 20.7523 42.1157 20.7523C41.8837 20.7523 41.6957 20.9403 41.6957 21.1723C41.6957 21.2962 41.7504 21.4065 41.8357 21.4834V21.737C41.519 21.7471 41.2206 21.774 40.9504 21.8142L40.9099 21.6528C40.9624 21.6018 40.9956 21.5313 40.9956 21.4523C40.9956 21.2977 40.8702 21.1723 40.7156 21.1723C40.5609 21.1723 40.4356 21.2977 40.4356 21.4523C40.4356 21.5792 40.5217 21.6821 40.6374 21.7165L40.6738 21.8623C40.3712 21.9227 40.118 22.0018 39.9328 22.0935L39.8267 21.8812C39.855 21.8373 39.8757 21.7882 39.8757 21.7322C39.8757 21.5776 39.7503 21.4522 39.5957 21.4522C39.5287 21.4522 39.4697 21.479 39.4216 21.5183C39.3586 21.5696 39.3158 21.6446 39.3158 21.7322Z" fill="#E6B432"/>
<path d="M42.1159 23.9727C43.1984 23.9727 44.0759 23.7219 44.0759 23.4127C44.0759 23.1034 43.1984 22.8527 42.1159 22.8527C41.0334 22.8527 40.1559 23.1034 40.1559 23.4127C40.1559 23.7219 41.0334 23.9727 42.1159 23.9727Z" fill="#EBEBEB"/>
<path d="M44.8488 18.6412L44.3559 17.5322C44.3559 17.4622 44.3022 17.3954 44.2082 17.3337L44.6062 16.5375C44.6754 16.3992 44.6194 16.2309 44.481 16.1618C44.3423 16.0931 44.1744 16.149 44.1053 16.287L43.8891 16.7196L43.6827 17.1324C43.5639 17.1033 43.4314 17.0778 43.2892 17.0558L43.3141 16.9564C43.4298 16.9221 43.5159 16.819 43.5159 16.6923C43.5159 16.5376 43.3905 16.4123 43.2359 16.4123C43.0812 16.4123 42.9559 16.5376 42.9559 16.6923C42.9559 16.7712 42.989 16.8418 43.0415 16.8928L43.0099 17.019C42.7359 16.989 42.4338 16.9723 42.1159 16.9723C41.7978 16.9723 41.4957 16.989 41.2218 17.019L41.1902 16.8928C41.2427 16.8418 41.2759 16.7712 41.2759 16.6923C41.2759 16.5376 41.1505 16.4123 40.9959 16.4123C40.8412 16.4123 40.7159 16.5376 40.7159 16.6923C40.7159 16.8192 40.802 16.9221 40.9177 16.9564L40.9425 17.0558C40.8002 17.0778 40.6679 17.1033 40.549 17.1324L40.3426 16.7196L40.1263 16.287C40.0571 16.149 39.8894 16.0932 39.7506 16.1618C39.6123 16.2309 39.5562 16.3992 39.6254 16.5375L40.0234 17.3337C39.9296 17.3954 39.8758 17.4622 39.8758 17.5322L39.3828 18.6412C39.6593 18.3273 40.7769 18.0922 42.1158 18.0922C43.4547 18.0922 44.5723 18.3272 44.8488 18.6412Z" fill="#E6B432"/>
<path d="M42.116 16.9726C42.348 16.9726 42.536 16.7845 42.536 16.5526C42.536 16.3206 42.348 16.1326 42.116 16.1326C41.8841 16.1326 41.696 16.3206 41.696 16.5526C41.696 16.7845 41.8841 16.9726 42.116 16.9726Z" fill="#E6B432"/>
</g>
</svg>
