<svg width="56" height="56" viewBox="0 0 56 56" fill="none" xmlns="http://www.w3.org/2000/svg">
<rect x="0.5" y="8.5" width="55" height="39" rx="3.5" fill="white" stroke="#F5F5F5"/>
<mask id="mask0" mask-type="alpha" maskUnits="userSpaceOnUse" x="0" y="8" width="56" height="40">
<rect x="0.5" y="8.5" width="55" height="39" rx="3.5" fill="white" stroke="white"/>
</mask>
<g mask="url(#mask0)">
<path fill-rule="evenodd" clip-rule="evenodd" d="M0 21.3333H56V8H0V21.3333Z" fill="#04AAC8"/>
<path fill-rule="evenodd" clip-rule="evenodd" d="M0 48H56V34.6666H0V48Z" fill="#23C840"/>
<path fill-rule="evenodd" clip-rule="evenodd" d="M9.33337 18.6666C10.1559 18.6666 10.9205 18.4183 11.5562 17.9926C11.4826 17.9975 11.4083 18 11.3334 18C9.49242 18 8.00004 16.5076 8.00004 14.6666C8.00004 12.8257 9.49242 11.3333 11.3334 11.3333C11.4083 11.3333 11.4826 11.3358 11.5562 11.3406C10.9205 10.9149 10.1559 10.6666 9.33337 10.6666C7.12423 10.6666 5.33337 12.4575 5.33337 14.6666C5.33337 16.8758 7.12423 18.6666 9.33337 18.6666ZM16 17.3333C16 18.0697 15.4031 18.6666 14.6667 18.6666C13.9303 18.6666 13.3334 18.0697 13.3334 17.3333C13.3334 16.5969 13.9303 16 14.6667 16C15.4031 16 16 16.5969 16 17.3333ZM20 13.3333C20.7364 13.3333 21.3334 12.7363 21.3334 12C21.3334 11.2636 20.7364 10.6666 20 10.6666C19.2637 10.6666 18.6667 11.2636 18.6667 12C18.6667 12.7363 19.2637 13.3333 20 13.3333ZM26.6667 12C26.6667 12.7363 26.0698 13.3333 25.3334 13.3333C24.597 13.3333 24 12.7363 24 12C24 11.2636 24.597 10.6666 25.3334 10.6666C26.0698 10.6666 26.6667 11.2636 26.6667 12ZM25.3334 18.6666C26.0698 18.6666 26.6667 18.0697 26.6667 17.3333C26.6667 16.5969 26.0698 16 25.3334 16C24.597 16 24 16.5969 24 17.3333C24 18.0697 24.597 18.6666 25.3334 18.6666ZM21.3334 17.3333C21.3334 18.0697 20.7364 18.6666 20 18.6666C19.2637 18.6666 18.6667 18.0697 18.6667 17.3333C18.6667 16.5969 19.2637 16 20 16C20.7364 16 21.3334 16.5969 21.3334 17.3333Z" fill="white"/>
</g>
</svg>
