<svg width="27" height="28" viewBox="0 0 27 28" fill="none" xmlns="http://www.w3.org/2000/svg">
<path d="M0.5 24.8787V27.0781C0.5 27.3111 0.688895 27.5 0.921875 27.5H26.1804C26.4134 27.5 26.6023 27.3111 26.6023 27.0781V24.8787C26.6023 23.9967 25.8848 23.2792 25.0027 23.2792H24.8785V0.921875C24.8785 0.688895 24.6896 0.5 24.4567 0.5H21.5017C21.2687 0.5 21.0798 0.688895 21.0798 0.921875V5.54993H19.2854C19.0894 4.58835 18.2372 3.86243 17.2186 3.86243C16.1981 3.86243 15.3443 4.58835 15.1479 5.54993H10.637C10.4409 4.58835 9.5888 3.86243 8.57021 3.86243C7.55163 3.86243 6.69951 4.58835 6.50348 5.54993H5.72359V0.921875C5.72359 0.688895 5.53469 0.5 5.30171 0.5H2.34674C2.11376 0.5 1.92486 0.688895 1.92486 0.921875V23.2969C1.12586 23.3853 0.5 24.0566 0.5 24.8787ZM21.9235 1.34375H24.0348V23.2792H21.9235V1.34375ZM5.72359 23.2792V19.1257H6.23334C6.42904 20.0898 7.28129 20.8176 8.30016 20.8176C9.31903 20.8176 10.1713 20.0898 10.367 19.1257H11.4818C11.6778 20.0898 12.5317 20.8176 13.5526 20.8176C14.5715 20.8176 15.4237 20.0898 15.6194 19.1257H16.2615C16.4572 20.0898 17.3095 20.8176 18.3283 20.8176C19.3472 20.8176 20.1995 20.0898 20.3952 19.1257H21.0798V23.2792H5.72359V23.2792ZM11.0018 12.7344C11.1524 13.7508 12.0224 14.5358 13.08 14.5358C14.1399 14.5358 15.0116 13.7508 15.1625 12.7344H16.2616C16.4576 13.696 17.3098 14.4219 18.3283 14.4219C19.3469 14.4219 20.199 13.696 20.3951 12.7344H21.0798V18.282H20.3951C20.199 17.3204 19.3469 16.5945 18.3283 16.5945C17.3098 16.5945 16.4576 17.3204 16.2616 18.282H15.6193C15.4233 17.3204 14.5712 16.5945 13.5526 16.5945C12.532 16.5945 11.6782 17.3204 11.4818 18.282H10.3669C10.1709 17.3204 9.31874 16.5945 8.30015 16.5945C7.28156 16.5945 6.42944 17.3204 6.23342 18.282H5.72358V12.7344H11.0018ZM14.3483 12.3601C14.3508 12.3823 14.35 12.4044 14.35 12.4264C14.35 13.1243 13.7802 13.692 13.08 13.692C12.3821 13.692 11.8144 13.1243 11.8144 12.4264C11.8144 12.4044 11.8136 12.3823 11.8177 12.3409C11.8624 11.6791 12.4167 11.1608 13.08 11.1608C13.7458 11.1608 14.3022 11.6791 14.3483 12.3601ZM17.0627 12.3125C17.0627 11.6123 17.6304 11.0428 18.3283 11.0428C19.0262 11.0428 19.594 11.6123 19.594 12.3125C19.594 13.0104 19.0262 13.5781 18.3283 13.5781C17.6304 13.5781 17.0627 13.0104 17.0627 12.3125ZM19.594 18.7039C19.594 19.404 19.0262 19.9738 18.3283 19.9738C17.6304 19.9738 17.0627 19.404 17.0627 18.7039C17.0627 18.006 17.6304 17.4382 18.3283 17.4382C19.0262 17.4382 19.594 18.006 19.594 18.7039ZM14.8182 18.7039C14.8182 19.404 14.2505 19.9738 13.5526 19.9738C12.8524 19.9738 12.2828 19.404 12.2828 18.7039C12.2828 18.006 12.8524 17.4382 13.5526 17.4382C14.2505 17.4382 14.8182 18.006 14.8182 18.7039ZM7.03461 18.7032C7.03497 18.0056 7.60248 17.4382 8.30016 17.4382C8.99807 17.4382 9.56578 18.006 9.56578 18.7039C9.56578 19.404 8.99807 19.9738 8.30016 19.9738C7.60248 19.9738 7.03497 19.4044 7.03461 18.7045C7.03461 18.7043 7.03474 18.7041 7.03474 18.7039C7.03474 18.7036 7.03461 18.7034 7.03461 18.7032ZM17.2187 4.70618C17.9166 4.70618 18.4843 5.2739 18.4843 5.97181C18.4843 6.66972 17.9166 7.23743 17.2187 7.23743C16.5185 7.23743 15.9489 6.66972 15.9489 5.97181C15.9489 5.2739 16.5185 4.70618 17.2187 4.70618ZM8.57021 4.70618C9.26812 4.70618 9.83584 5.2739 9.83584 5.97181C9.83584 6.66972 9.26812 7.23743 8.57021 7.23743C7.87231 7.23743 7.30459 6.66972 7.30459 5.97181C7.30459 5.2739 7.87231 4.70618 8.57021 4.70618ZM6.50348 6.39368C6.69951 7.35526 7.55163 8.08118 8.57021 8.08118C9.5888 8.08118 10.4409 7.35526 10.637 6.39368H15.1479C15.3443 7.35526 16.1981 8.08118 17.2187 8.08118C18.2372 8.08118 19.0894 7.35526 19.2854 6.39368H21.0798V11.8906H20.3952C20.1994 10.9268 19.3472 10.199 18.3283 10.199C17.3095 10.199 16.4573 10.9268 16.2615 11.8906H15.1233C14.8838 10.9825 14.0524 10.317 13.08 10.317C12.1055 10.317 11.2736 10.9892 11.0401 11.8906H5.72359V6.39368H6.50348ZM2.76861 1.34375H4.87984V18.6988C4.87981 18.7006 4.87881 18.7021 4.87881 18.7039C4.87881 18.7057 4.87981 18.7072 4.87984 18.709V23.2792H2.76861V1.34375ZM1.34375 24.8787C1.34375 24.462 1.68281 24.1229 2.09975 24.1229C7.13358 24.1229 22.4283 24.1229 25.0027 24.1229C25.4195 24.1229 25.7585 24.462 25.7585 24.8787V26.6562H1.34375V24.8787Z" fill="#5C5F75"/>
</svg>
