<svg width="22" height="24" viewBox="0 0 22 24" fill="none" xmlns="http://www.w3.org/2000/svg">
<path d="M21.5274 10.0959L19.5814 3.43353C19.5397 3.2902 19.4083 3.19188 19.2591 3.19188H8.39078V0.33594C8.39078 0.150501 8.24028 0 8.05484 0H4.86341C4.67797 0 4.52747 0.150501 4.52747 0.33594V3.19188H2.28182C2.13267 3.19188 2.0012 3.2902 1.95955 3.43353L0.0135574 10.0959C-0.0162293 10.1976 0.00370322 10.3069 0.0670839 10.3915C0.130465 10.4762 0.230127 10.5261 0.335836 10.5261H1.30491V23.6641C1.30491 23.8495 1.45541 24 1.64085 24H19.9003C20.0858 24 20.2363 23.8495 20.2363 23.6641V10.5261H21.2051C21.311 10.5261 21.4107 10.4762 21.4741 10.3915C21.5375 10.3069 21.5572 10.1976 21.5274 10.0959ZM5.19935 0.67188H7.7189V3.19188H5.19935V0.67188ZM2.53378 3.86376H19.0069L19.4213 5.2812H2.11968L2.53378 3.86376ZM17.1436 5.95308V9.85424H14.4608V5.95308H17.1436ZM13.7889 5.95308V9.85424H11.1063V5.95308H13.7889ZM10.4344 5.95308V9.85424H7.75182V5.95308H10.4344ZM7.07994 5.95308V9.85424H4.39713V5.95308H7.07994ZM0.783756 9.85424L1.92326 5.95308H3.72525V9.85424H0.783756ZM19.5641 23.3281H1.97657V10.5261H19.5641V23.3281ZM17.8155 9.85424V5.95308H19.6177L20.7572 9.85424H17.8155Z" fill="#5C5F75"/>
<path d="M4.58332 20.3039H9.21167C9.39711 20.3039 9.54761 20.1534 9.54761 19.968V15.8445C9.54761 14.3833 8.35883 13.1943 6.89772 13.1943C5.43638 13.1943 4.24738 14.3833 4.24738 15.8445V19.968C4.24738 20.1534 4.39788 20.3039 4.58332 20.3039ZM4.91926 15.8445C4.91926 14.7538 5.80681 13.8662 6.89772 13.8662C7.9884 13.8662 8.87573 14.7538 8.87573 15.8445V16.7766H4.91926V15.8445ZM4.91926 17.4485H8.87573V19.6321H4.91926V17.4485Z" fill="#5C5F75"/>
<path d="M12.3292 20.3039H16.9576C17.143 20.3039 17.2935 20.1534 17.2935 19.968V15.8445C17.2935 14.3833 16.1045 13.1943 14.6432 13.1943C13.1818 13.1943 11.9933 14.3833 11.9933 15.8445V19.968C11.9933 20.1534 12.1438 20.3039 12.3292 20.3039ZM12.6652 15.8445C12.6652 14.7538 13.5523 13.8662 14.6432 13.8662C15.7341 13.8662 16.6216 14.7538 16.6216 15.8445V16.7766H12.6652V15.8445ZM12.6652 17.4485H16.6216V19.6321H12.6652V17.4485Z" fill="#5C5F75"/>
</svg>
