<svg width="48" height="48" viewBox="0 0 48 48" fill="none" xmlns="http://www.w3.org/2000/svg">
<path d="M42.1664 38.7877H40.7831V23.356C40.7831 23.08 40.5591 22.856 40.2831 22.856H33.7708V10.0637C33.7708 9.78767 33.5468 9.56367 33.2708 9.56367H29.5928V6.64233C29.5928 6.36633 29.3688 6.14233 29.0928 6.14233H18.6344C18.3584 6.14233 18.1344 6.36633 18.1344 6.64233V9.56367H14.8954C14.6194 9.56367 14.3954 9.78767 14.3954 10.0637V22.856H7.88342C7.60742 22.856 7.38342 23.08 7.38342 23.356V38.7877H5.99976C5.72376 38.7877 5.49976 39.0117 5.49976 39.2877V41.9127C5.49976 42.1887 5.72376 42.4127 5.99976 42.4127H42.1664C42.4424 42.4127 42.6664 42.1887 42.6664 41.9127V39.2877C42.6664 39.0117 42.4424 38.7877 42.1664 38.7877ZM33.7704 23.856H39.7828V38.7877H33.7704V23.856ZM19.1344 7.14267H28.5928V9.564H19.1344V7.14267ZM15.3958 10.5637H18.6348H29.0931H32.7708V38.7877H15.3958V10.5637ZM8.38342 23.856H14.3954V38.7877H8.38342V23.856ZM41.6664 41.4127H6.49976V39.7877H7.88342H14.8954H24.0831H33.2704H40.2828H41.6661V41.4127H41.6664Z" fill="#"/>
<path d="M27.4492 16.8333H31.0272V13.8333H27.4492V16.8333ZM28.4492 14.8333H30.0272V15.8333H28.4492V14.8333Z" fill="#"/>
<path d="M17.1387 16.8333H20.7163V13.8333H17.1387V16.8333ZM18.1387 14.8333H19.7163V15.8333H18.1387V14.8333Z" fill="#"/>
<path d="M22.2944 16.8333H25.8721V13.8333H22.2944V16.8333ZM23.2944 14.8333H24.8721V15.8333H23.2944V14.8333Z" fill="#"/>
<path d="M22.2944 22.6667H25.8721V19.6667H22.2944V22.6667ZM23.2944 20.6667H24.8721V21.6667H23.2944V20.6667Z" fill="#"/>
<path d="M27.4492 22.6667H31.0272V19.6667H27.4492V22.6667ZM28.4492 20.6667H30.0272V21.6667H28.4492V20.6667Z" fill="#"/>
<path d="M17.1387 22.6667H20.7163V19.6667H17.1387V22.6667ZM18.1387 20.6667H19.7163V21.6667H18.1387V20.6667Z" fill="#"/>
<path d="M17.1387 28.5H20.7163V25.5H17.1387V28.5ZM18.1387 26.5H19.7163V27.5H18.1387V26.5Z" fill="#"/>
<path d="M27.4492 28.5H31.0272V25.5H27.4492V28.5ZM28.4492 26.5H30.0272V27.5H28.4492V26.5Z" fill="#"/>
<path d="M22.2944 28.5H25.8721V25.5H22.2944V28.5ZM23.2944 26.5H24.8721V27.5H23.2944V26.5Z" fill="#"/>
<path d="M27.4492 34.3333H31.0272V31.3333H27.4492V34.3333ZM28.4492 32.3333H30.0272V33.3333H28.4492V32.3333Z" fill="#"/>
<path d="M17.1387 34.3333H20.7163V31.3333H17.1387V34.3333ZM18.1387 32.3333H19.7163V33.3333H18.1387V32.3333Z" fill="#"/>
<path d="M22.2944 34.3333H25.8721V31.3333H22.2944V34.3333ZM23.2944 32.3333H24.8721V33.3333H23.2944V32.3333Z" fill="#"/>
</svg>
