<svg width="48" height="48" viewBox="0 0 48 48" fill="none" xmlns="http://www.w3.org/2000/svg">
<path d="M40.0515 21.362L37.1552 11.446C37.0932 11.2327 36.8975 11.0864 36.6755 11.0864H20.4995V6.83569C20.4995 6.55969 20.2755 6.33569 19.9995 6.33569H15.2495C14.9735 6.33569 14.7495 6.55969 14.7495 6.83569V11.0864H11.4072C11.1852 11.0864 10.9895 11.2327 10.9275 11.446L8.03116 21.362C7.98683 21.5134 8.0165 21.676 8.11083 21.802C8.20516 21.928 8.3535 22.0024 8.51083 22.0024H9.95317V41.5564C9.95317 41.8324 10.1772 42.0564 10.4532 42.0564H37.6298C37.9058 42.0564 38.1298 41.8324 38.1298 41.5564V22.0024H39.5718C39.7295 22.0024 39.8778 21.928 39.9722 21.802C40.0665 21.676 40.0958 21.5134 40.0515 21.362ZM15.7495 7.33569H19.4995V11.0864H15.7495V7.33569ZM11.7822 12.0864H36.3002L36.9168 14.196H11.1658L11.7822 12.0864ZM33.5268 15.196V21.0024H29.5338V15.196H33.5268ZM28.5338 15.196V21.0024H24.5412V15.196H28.5338ZM23.5412 15.196V21.0024H19.5485V15.196H23.5412ZM18.5485 15.196V21.0024H14.5555V15.196H18.5485ZM9.1775 21.0024L10.8735 15.196H13.5555V21.0024H9.1775ZM37.1295 41.0564H10.9528V22.0024H37.1295V41.0564ZM34.5268 21.0024V15.196H37.2092L38.9052 21.0024H34.5268Z" fill=""/>
<path d="M14.8325 36.556H21.7212C21.9972 36.556 22.2212 36.332 22.2212 36.056V29.9187C22.2212 27.744 20.4519 25.9744 18.2772 25.9744C16.1022 25.9744 14.3325 27.744 14.3325 29.9187V36.056C14.3325 36.332 14.5565 36.556 14.8325 36.556ZM15.3325 29.9187C15.3325 28.2954 16.6535 26.9744 18.2772 26.9744C19.9005 26.9744 21.2212 28.2954 21.2212 29.9187V31.306H15.3325V29.9187ZM15.3325 32.306H21.2212V35.556H15.3325V32.306Z" fill=""/>
<path d="M26.3613 36.556H33.25C33.526 36.556 33.75 36.332 33.75 36.056V29.9187C33.75 27.744 31.9803 25.9744 29.8053 25.9744C27.6303 25.9744 25.8613 27.744 25.8613 29.9187V36.056C25.8613 36.332 26.0853 36.556 26.3613 36.556ZM26.8613 29.9187C26.8613 28.2954 28.1817 26.9744 29.8053 26.9744C31.429 26.9744 32.75 28.2954 32.75 29.9187V31.306H26.8613V29.9187ZM26.8613 32.306H32.75V35.556H26.8613V32.306Z" fill=""/>
</svg>
