<svg width="48" height="48" viewBox="0 0 48 48" fill="none" xmlns="http://www.w3.org/2000/svg">
<path d="M40.0104 21.3066L37.1141 11.3906C37.0514 11.1773 36.8564 11.0309 36.6344 11.0309H20.4581V6.78027C20.4581 6.50427 20.2341 6.28027 19.9581 6.28027H15.2081C14.9321 6.28027 14.7081 6.50427 14.7081 6.78027V11.0309H11.3658C11.1437 11.0309 10.9481 11.1773 10.8861 11.3906L7.98942 21.3066C7.94508 21.4579 7.97475 21.6206 8.06908 21.7466C8.16342 21.8726 8.31175 21.9469 8.46908 21.9469H9.91142V41.5009C9.91142 41.7769 10.1354 42.0009 10.4114 42.0009H37.5878C37.8638 42.0009 38.0878 41.7769 38.0878 41.5009V21.9469H39.5304C39.6881 21.9469 39.8358 21.8726 39.9301 21.7466C40.0244 21.6206 40.0548 21.4579 40.0104 21.3066ZM15.7081 7.28027H19.4581V11.0309H15.7081V7.28027ZM11.7408 12.0309H36.2591L36.8751 14.1406H11.1244L11.7408 12.0309ZM10.8321 15.1406H37.1671L37.8728 17.5573H10.1264L10.8321 15.1406ZM37.0878 41.0009H10.9114V21.9469H37.0878V41.0009ZM9.13608 20.9469L9.83408 18.5573H38.1654L38.8634 20.9469H9.13608Z" fill="#"/>
<path d="M13.4895 30.1275H18.3438C18.6198 30.1275 18.8438 29.9035 18.8438 29.6275V24.7942C18.8438 24.5182 18.6198 24.2942 18.3438 24.2942H13.4895C13.2135 24.2942 12.9895 24.5182 12.9895 24.7942V29.6275C12.9895 29.9035 13.2135 30.1275 13.4895 30.1275ZM13.9895 25.2942H17.8438V29.1275H13.9895V25.2942Z" fill="#"/>
<path d="M21.5728 30.1275H26.4271C26.7031 30.1275 26.9271 29.9035 26.9271 29.6275V24.7942C26.9271 24.5182 26.7031 24.2942 26.4271 24.2942H21.5728C21.2968 24.2942 21.0728 24.5182 21.0728 24.7942V29.6275C21.0728 29.9035 21.2968 30.1275 21.5728 30.1275ZM22.0728 25.2942H25.9271V29.1275H22.0728V25.2942Z" fill="#"/>
<path d="M29.6562 30.1275H34.5106C34.7866 30.1275 35.0106 29.9035 35.0106 29.6275V24.7942C35.0106 24.5182 34.7866 24.2942 34.5106 24.2942H29.6562C29.3802 24.2942 29.1562 24.5182 29.1562 24.7942V29.6275C29.1562 29.9035 29.3802 30.1275 29.6562 30.1275ZM30.1562 25.2942H34.0106V29.1275H30.1562V25.2942Z" fill="#"/>
<path d="M13.4895 38.6536H18.3438C18.6198 38.6536 18.8438 38.4296 18.8438 38.1536V33.3203C18.8438 33.0443 18.6198 32.8203 18.3438 32.8203H13.4895C13.2135 32.8203 12.9895 33.0443 12.9895 33.3203V38.1536C12.9895 38.4296 13.2135 38.6536 13.4895 38.6536ZM13.9895 33.8203H17.8438V37.6536H13.9895V33.8203Z" fill="#"/>
<path d="M21.5728 38.6536H26.4271C26.7031 38.6536 26.9271 38.4296 26.9271 38.1536V33.3203C26.9271 33.0443 26.7031 32.8203 26.4271 32.8203H21.5728C21.2968 32.8203 21.0728 33.0443 21.0728 33.3203V38.1536C21.0728 38.4296 21.2968 38.6536 21.5728 38.6536ZM22.0728 33.8203H25.9271V37.6536H22.0728V33.8203Z" fill="#"/>
<path d="M29.6562 38.6536H34.5106C34.7866 38.6536 35.0106 38.4296 35.0106 38.1536V33.3203C35.0106 33.0443 34.7866 32.8203 34.5106 32.8203H29.6562C29.3802 32.8203 29.1562 33.0443 29.1562 33.3203V38.1536C29.1562 38.4296 29.3802 38.6536 29.6562 38.6536ZM30.1562 33.8203H34.0106V37.6536H30.1562V33.8203Z" fill="#"/>
</svg>
