<svg width="501" height="501" viewBox="0 0 501 501" fill="none" xmlns="http://www.w3.org/2000/svg">
<path d="M53.0991 102.042C80.3694 102.042 102.476 79.9349 102.476 52.6645C102.476 25.3941 80.3694 3.28711 53.0991 3.28711C25.8287 3.28711 3.72168 25.3941 3.72168 52.6645C3.72168 79.9349 25.8287 102.042 53.0991 102.042Z" stroke="#F9593A" stroke-width="6" stroke-miterlimit="10" stroke-linecap="round" stroke-linejoin="round"/>
<path d="M151.854 71.1805C162.08 71.1805 170.37 62.8904 170.37 52.664C170.37 42.4376 162.08 34.1475 151.854 34.1475C141.627 34.1475 133.337 42.4376 133.337 52.664C133.337 62.8904 141.627 71.1805 151.854 71.1805Z" stroke="#F9593A" stroke-width="6" stroke-miterlimit="10" stroke-linecap="round" stroke-linejoin="round"/>
<path d="M250.609 86.6112C269.357 86.6112 284.556 71.4126 284.556 52.6642C284.556 33.9159 269.357 18.7173 250.609 18.7173C231.86 18.7173 216.662 33.9159 216.662 52.6642C216.662 71.4126 231.86 86.6112 250.609 86.6112Z" stroke="#F9593A" stroke-width="6" stroke-miterlimit="10" stroke-linecap="round" stroke-linejoin="round"/>
<path d="M349.37 71.1805C359.596 71.1805 367.886 62.8904 367.886 52.664C367.886 42.4376 359.596 34.1475 349.37 34.1475C339.143 34.1475 330.853 42.4376 330.853 52.664C330.853 62.8904 339.143 71.1805 349.37 71.1805Z" stroke="#F9593A" stroke-width="6" stroke-miterlimit="10" stroke-linecap="round" stroke-linejoin="round"/>
<path d="M497.496 52.6645C497.496 79.9455 475.405 102.06 448.118 102.06C420.856 102.06 398.747 79.9455 398.747 52.6645C398.747 25.402 420.856 3.28711 448.118 3.28711C475.405 3.28711 497.496 25.402 497.496 52.6645Z" stroke="#F9593A" stroke-width="6" stroke-miterlimit="10" stroke-linecap="round" stroke-linejoin="round"/>
<path d="M185.801 151.431C185.801 170.164 170.599 185.366 151.848 185.366C133.109 185.366 117.907 170.164 117.907 151.431C117.907 132.668 133.109 117.472 151.848 117.472C170.605 117.472 185.801 132.668 185.801 151.431Z" stroke="#F9593A" stroke-width="6" stroke-miterlimit="10" stroke-linecap="round" stroke-linejoin="round"/>
<path d="M250.609 169.929C260.832 169.929 269.119 161.642 269.119 151.419C269.119 141.196 260.832 132.908 250.609 132.908C240.386 132.908 232.098 141.196 232.098 151.419C232.098 161.642 240.386 169.929 250.609 169.929Z" stroke="#F9593A" stroke-width="6" stroke-miterlimit="10" stroke-linecap="round" stroke-linejoin="round"/>
<path d="M383.305 151.431C383.305 170.164 368.127 185.366 349.37 185.366C330.619 185.366 315.404 170.164 315.404 151.431C315.404 132.668 330.619 117.472 349.37 117.472C368.127 117.472 383.305 132.668 383.305 151.431Z" stroke="#F9593A" stroke-width="6" stroke-miterlimit="10" stroke-linecap="round" stroke-linejoin="round"/>
<path d="M151.854 268.696C162.08 268.696 170.37 260.406 170.37 250.18C170.37 239.953 162.08 231.663 151.854 231.663C141.627 231.663 133.337 239.953 133.337 250.18C133.337 260.406 141.627 268.696 151.854 268.696Z" stroke="#F9593A" stroke-width="6" stroke-miterlimit="10" stroke-linecap="round" stroke-linejoin="round"/>
<path d="M250.609 299.564C277.883 299.564 299.992 277.454 299.992 250.18C299.992 222.906 277.883 200.796 250.609 200.796C223.335 200.796 201.225 222.906 201.225 250.18C201.225 277.454 223.335 299.564 250.609 299.564Z" stroke="#F9593A" stroke-width="6" stroke-miterlimit="10" stroke-linecap="round" stroke-linejoin="round"/>
<path d="M349.37 268.696C359.596 268.696 367.886 260.406 367.886 250.18C367.886 239.953 359.596 231.663 349.37 231.663C339.143 231.663 330.853 239.953 330.853 250.18C330.853 260.406 339.143 268.696 349.37 268.696Z" stroke="#F9593A" stroke-width="6" stroke-miterlimit="10" stroke-linecap="round" stroke-linejoin="round"/>
<path d="M185.801 348.941C185.801 367.673 170.599 382.875 151.848 382.875C133.109 382.875 117.907 367.673 117.907 348.941C117.907 330.171 133.109 314.981 151.848 314.981C170.605 314.981 185.801 330.171 185.801 348.941Z" stroke="#F9593A" stroke-width="6" stroke-miterlimit="10" stroke-linecap="round" stroke-linejoin="round"/>
<path d="M250.603 367.445C260.829 367.445 269.119 359.155 269.119 348.929C269.119 338.702 260.829 330.412 250.603 330.412C240.376 330.412 232.086 338.702 232.086 348.929C232.086 359.155 240.376 367.445 250.603 367.445Z" stroke="#F9593A" stroke-width="6" stroke-miterlimit="10" stroke-linecap="round" stroke-linejoin="round"/>
<path d="M383.305 348.941C383.305 367.673 368.127 382.875 349.37 382.875C330.619 382.875 315.404 367.673 315.404 348.941C315.404 330.171 330.619 314.981 349.37 314.981C368.127 314.981 383.305 330.171 383.305 348.941Z" stroke="#F9593A" stroke-width="6" stroke-miterlimit="10" stroke-linecap="round" stroke-linejoin="round"/>
<path d="M102.476 447.683C102.476 474.94 80.3616 497.048 53.0929 497.048C25.8119 497.048 3.72168 474.94 3.72168 447.683C3.72168 420.39 25.8119 398.318 53.0929 398.318C80.3677 398.318 102.476 420.39 102.476 447.683Z" stroke="#5C5F75" stroke-width="6" stroke-miterlimit="10" stroke-linecap="round" stroke-linejoin="round"/>
<path d="M151.854 466.2C162.08 466.2 170.37 457.91 170.37 447.684C170.37 437.457 162.08 429.167 151.854 429.167C141.627 429.167 133.337 437.457 133.337 447.684C133.337 457.91 141.627 466.2 151.854 466.2Z" stroke="#F9593A" stroke-width="6" stroke-miterlimit="10" stroke-linecap="round" stroke-linejoin="round"/>
<path d="M250.609 481.63C269.357 481.63 284.556 466.432 284.556 447.683C284.556 428.935 269.357 413.736 250.609 413.736C231.86 413.736 216.662 428.935 216.662 447.683C216.662 466.432 231.86 481.63 250.609 481.63Z" stroke="#F9593A" stroke-width="6" stroke-miterlimit="10" stroke-linecap="round" stroke-linejoin="round"/>
<path d="M349.363 466.194C359.586 466.194 367.874 457.907 367.874 447.684C367.874 437.461 359.586 429.173 349.363 429.173C339.14 429.173 330.853 437.461 330.853 447.684C330.853 457.907 339.14 466.194 349.363 466.194Z" stroke="#F9593A" stroke-width="6" stroke-miterlimit="10" stroke-linecap="round" stroke-linejoin="round"/>
<path d="M53.0931 367.445C63.3195 367.445 71.6096 359.155 71.6096 348.929C71.6096 338.702 63.3195 330.412 53.0931 330.412C42.8667 330.412 34.5766 338.702 34.5766 348.929C34.5766 359.155 42.8667 367.445 53.0931 367.445Z" stroke="#F9593A" stroke-width="6" stroke-miterlimit="10" stroke-linecap="round" stroke-linejoin="round"/>
<path d="M53.0929 216.233C71.8501 216.233 87.0399 231.416 87.0399 250.18C87.0399 268.919 71.844 284.121 53.0929 284.121C34.348 284.121 19.1583 268.919 19.1583 250.18C19.1583 231.416 34.348 216.233 53.0929 216.233Z" stroke="#5C5F75" stroke-width="6" stroke-miterlimit="10" stroke-linecap="round" stroke-linejoin="round"/>
<path d="M53.0931 169.941C63.3195 169.941 71.6096 161.651 71.6096 151.425C71.6096 141.198 63.3195 132.908 53.0931 132.908C42.8667 132.908 34.5766 141.198 34.5766 151.425C34.5766 161.651 42.8667 169.941 53.0931 169.941Z" stroke="#F9593A" stroke-width="6" stroke-miterlimit="10" stroke-linecap="round" stroke-linejoin="round"/>
<path d="M448.118 367.445C458.345 367.445 466.635 359.155 466.635 348.929C466.635 338.702 458.345 330.412 448.118 330.412C437.892 330.412 429.602 338.702 429.602 348.929C429.602 359.155 437.892 367.445 448.118 367.445Z" stroke="#F9593A" stroke-width="6" stroke-miterlimit="10" stroke-linecap="round" stroke-linejoin="round"/>
<path d="M448.118 216.245C466.875 216.245 482.084 231.429 482.084 250.18C482.084 268.918 466.875 284.121 448.118 284.121C429.386 284.121 414.183 268.918 414.183 250.18C414.183 231.429 429.386 216.245 448.118 216.245Z" stroke="#F9593A" stroke-width="6" stroke-miterlimit="10" stroke-linecap="round" stroke-linejoin="round"/>
<path d="M448.118 169.936C458.341 169.936 466.629 161.648 466.629 151.425C466.629 141.202 458.341 132.915 448.118 132.915C437.895 132.915 429.608 141.202 429.608 151.425C429.608 161.648 437.895 169.936 448.118 169.936Z" stroke="#5C5F75" stroke-width="6" stroke-miterlimit="10" stroke-linecap="round" stroke-linejoin="round"/>
<path d="M497.496 447.684C497.496 474.94 475.405 497.061 448.118 497.061C420.856 497.061 398.747 474.94 398.747 447.684C398.747 420.39 420.856 398.306 448.118 398.306C475.405 398.306 497.496 420.39 497.496 447.684Z" stroke="#5C5F75" stroke-width="6" stroke-miterlimit="10" stroke-linecap="round" stroke-linejoin="round"/>
</svg>
