<svg width="126" height="126" viewBox="0 0 126 126" fill="none" xmlns="http://www.w3.org/2000/svg">
<path fill-rule="evenodd" clip-rule="evenodd" d="M63 123C96.1371 123 123 96.1371 123 63C123 29.8629 96.1371 3 63 3C29.8629 3 3 29.8629 3 63C3 96.1371 29.8629 123 63 123Z" stroke="#BFBFBF" stroke-width="5"/>
<path d="M90.8422 42.1279C89.7047 40.9718 87.8603 40.9718 86.7225 42.1279L51.8225 77.5933L38.4075 63.9611C37.2699 62.805 35.4256 62.8051 34.2878 63.9611C33.1502 65.1171 33.1502 66.9912 34.2878 68.1473L49.7627 83.8724C50.8999 85.0284 52.7456 85.0276 53.8823 83.8724L90.8422 46.3143C91.9799 45.1583 91.9798 43.284 90.8422 42.1279Z" fill="#BFBFBF"/>
</svg>
