<svg width="148" height="148" viewBox="0 0 148 148" fill="none" xmlns="http://www.w3.org/2000/svg">
<path d="M21.1362 51.7534L22.2853 49.1625L22.2379 49.1415C21.7639 48.9313 21.3211 48.8924 20.9095 49.025C20.4872 49.1528 20.164 49.4695 19.9398 49.9751C19.7156 50.4806 19.6469 50.8913 19.7337 51.207C19.8206 51.5228 20.0121 51.8157 20.3082 52.0857L18.5178 53.5225C18.0482 52.9614 17.7611 52.3299 17.6564 51.6281C17.5412 50.9216 17.6915 50.0997 18.1072 49.1623C18.6911 47.8458 19.5199 47.0286 20.5935 46.7107C21.6719 46.3823 22.8745 46.5124 24.2016 47.1009C24.8651 47.3952 25.4281 47.7457 25.8905 48.1524C26.3529 48.5592 26.6966 49.0204 26.9216 49.5361C27.1408 50.0366 27.2436 50.5864 27.23 51.1853C27.2106 51.7691 27.0537 52.3927 26.7595 53.0563C26.5633 53.4986 26.346 53.8749 26.1076 54.1851C25.8797 54.4999 25.6208 54.7569 25.3309 54.956C25.0409 55.1551 24.7152 55.3069 24.3538 55.4113C23.9924 55.5157 23.583 55.5862 23.1257 55.6228L22.9853 53.4242C23.4661 53.4484 23.8597 53.3709 24.1661 53.1917C24.4724 53.0124 24.726 52.6964 24.9269 52.2435C25.1744 51.6853 25.2121 51.2168 25.0398 50.8379C24.857 50.4543 24.4812 50.1364 23.9125 49.8842L23.8335 49.8491L22.6845 52.4401L21.1362 51.7534Z" fill="#262626"/>
<path d="M32.0317 41.8981L31.9779 41.9657C32.3394 42.7693 32.233 43.5315 31.6586 44.2524C31.0269 45.0454 30.2836 45.396 29.4287 45.3042C28.5648 45.2052 27.4705 44.6281 26.1458 43.5728C24.8211 42.5175 24.014 41.5798 23.7244 40.7599C23.4348 39.94 23.6059 39.1335 24.2377 38.3405C24.7976 37.6376 25.5258 37.3707 26.4222 37.5398L26.4761 37.4723L23.1914 34.8555L24.7851 32.855L28.0698 35.4717L28.1237 35.4041C27.7585 34.5682 27.8559 33.7987 28.4158 33.0958C29.0476 32.3028 29.7954 31.9558 30.6593 32.0548C31.5232 32.1538 32.6175 32.731 33.9422 33.7863C35.2669 34.8416 36.074 35.7792 36.3636 36.5991C36.6442 37.4119 36.4686 38.2147 35.8368 39.0077C35.2625 39.7287 34.5433 40.0027 33.6793 39.83L33.6254 39.8976L37.0858 42.6543L35.4921 44.6548L32.0317 41.8981ZM30.8612 42.3135C31.0981 42.0161 31.1947 41.7469 31.151 41.5058C31.1073 41.2648 30.9683 41.051 30.734 40.8643L27.7467 38.4845C27.5124 38.2978 27.2729 38.2102 27.0282 38.2215C26.7835 38.2328 26.5427 38.3871 26.3058 38.6845C26.0115 39.0539 25.934 39.4194 26.0733 39.7808C26.2035 40.135 26.539 40.5274 27.0797 40.9582L28.472 42.0673C29.0127 42.4981 29.4747 42.7409 29.8581 42.7959C30.2325 42.8438 30.5668 42.6829 30.8612 42.3135ZM33.7687 38.6638C34.063 38.2943 34.145 37.9325 34.0147 37.5783C33.8754 37.2169 33.5355 36.8208 32.9948 36.3901L31.6025 35.2809C31.0618 34.8502 30.6043 34.6109 30.2299 34.5631C29.8465 34.5081 29.5077 34.6653 29.2133 35.0348C28.9764 35.3322 28.8798 35.6014 28.9235 35.8424C28.9672 36.0834 29.1062 36.2973 29.3405 36.4839L32.3278 38.8638C32.5621 39.0504 32.8016 39.1381 33.0463 39.1268C33.2909 39.1155 33.5317 38.9612 33.7687 38.6638Z" fill="#262626"/>
<path d="M43.1239 31.2266L43.0527 31.2754C43.1633 32.1496 42.8387 32.8474 42.0786 33.3688C41.2425 33.9424 40.4292 34.0603 39.6385 33.7224C38.8414 33.3751 37.9637 32.5031 37.0056 31.1065C36.0475 29.7099 35.5499 28.5772 35.5128 27.7085C35.4757 26.8397 35.8752 26.1185 36.7112 25.545C37.4523 25.0366 38.2267 24.9943 39.0345 25.4182L39.1057 25.3694L36.73 21.9063L38.8391 20.4594L41.2149 23.9224L41.2861 23.8735C41.1814 22.9673 41.4996 22.26 42.2407 21.7516C43.0767 21.1781 43.8933 21.065 44.6905 21.4123C45.4877 21.7596 46.3653 22.6316 47.3234 24.0282C48.2815 25.4248 48.7791 26.5575 48.8162 27.4263C48.8468 28.2855 48.4441 29.0019 47.608 29.5755C46.848 30.0969 46.0801 30.1487 45.3043 29.7307L45.2331 29.7796L47.7359 33.4279L45.6268 34.8748L43.1239 31.2266ZM41.8831 31.2814C42.1966 31.0663 42.3677 30.8371 42.3965 30.5939C42.4252 30.3506 42.3548 30.1055 42.1854 29.8584L40.0247 26.709C39.8553 26.4619 39.6519 26.308 39.4146 26.2473C39.1773 26.1865 38.9019 26.2637 38.5884 26.4788C38.1988 26.746 38.0178 27.0728 38.0453 27.4591C38.0663 27.8359 38.2723 28.3094 38.6634 28.8794L39.6704 30.3473C40.0615 30.9173 40.4323 31.2847 40.7828 31.4494C41.1268 31.6046 41.4936 31.5486 41.8831 31.2814ZM45.7309 28.6417C46.1204 28.3745 46.3047 28.0524 46.2837 27.6756C46.2562 27.2893 46.0469 26.8111 45.6558 26.2411L44.6489 24.7732C44.2578 24.2032 43.8903 23.8405 43.5462 23.6853C43.1957 23.5206 42.8257 23.5718 42.4362 23.8391C42.1226 24.0542 41.9515 24.2833 41.9228 24.5266C41.8941 24.7699 41.9644 25.015 42.1339 25.262L44.2945 28.4115C44.464 28.6585 44.6674 28.8124 44.9047 28.8732C45.142 28.9339 45.4174 28.8568 45.7309 28.6417Z" fill="#262626"/>
<path d="M56.6885 25.5676C56.0368 25.7981 55.4192 25.9006 54.8356 25.8748C54.2483 25.8382 53.7081 25.6933 53.2152 25.4399C52.7292 25.1719 52.296 24.7936 51.9153 24.305C51.5455 23.8125 51.2395 23.2242 50.9974 22.5399C50.7591 21.8665 50.6308 21.2275 50.6124 20.6229C50.5902 20.0075 50.6783 19.4447 50.8766 18.9345C51.0858 18.4205 51.4038 17.9719 51.8304 17.5888C52.2531 17.1947 52.7849 16.8844 53.4258 16.6576C54.1318 16.4078 54.7769 16.314 55.3611 16.3761C55.9561 16.4345 56.4822 16.6088 56.9394 16.8993C57.4075 17.1858 57.8063 17.5703 58.1358 18.0525C58.4723 18.5201 58.7424 19.0417 58.9461 19.6173L59.1998 20.3342L53.7092 22.277L53.7553 22.4073C53.9552 22.9721 54.2668 23.3691 54.69 23.5982C55.1094 23.8164 55.645 23.8102 56.2967 23.5796C56.7963 23.4028 57.1691 23.161 57.4149 22.854C57.6568 22.5362 57.8636 22.188 58.0352 21.8095L59.7713 22.8818C59.5487 23.4617 59.172 23.986 58.6413 24.4549C58.1214 24.92 57.4705 25.2908 56.6885 25.5676ZM54.103 18.4162C53.6143 18.5891 53.2863 18.8885 53.1192 19.3143C52.9591 19.7253 52.9732 20.197 53.1616 20.7292L53.2077 20.8595L56.2055 19.7988L56.1536 19.6522C55.9691 19.1308 55.7017 18.7549 55.3513 18.5245C55.0079 18.2793 54.5918 18.2432 54.103 18.4162Z" fill="#262626"/>
<path d="M63.0731 14.2661L65.6158 13.9889L65.9922 17.4422L67.2979 17.2999L68.2437 14.9715C68.4355 14.4986 68.6697 14.1486 68.9463 13.9214C69.2343 13.693 69.6188 13.5526 70.0999 13.5001L71.1479 13.3859L71.3633 15.3617L70.4527 15.4609L69.8369 16.9883C69.709 17.3036 69.5717 17.533 69.4251 17.6765C69.29 17.8187 69.1224 17.9297 68.9225 18.0094L68.9319 18.0953C69.1316 18.1199 69.3178 18.1807 69.4907 18.2778C69.675 18.3736 69.8496 18.54 70.0145 18.777L71.2285 20.5048L72.1563 20.4037L72.3716 22.3794L71.1862 22.5087C70.7051 22.5611 70.3051 22.5062 69.9861 22.3439C69.667 22.1817 69.3502 21.8801 69.0356 21.4392L67.5133 19.2756L66.2076 19.418L66.599 23.0087L64.0562 23.2858L63.0731 14.2661Z" fill="#262626"/>
<path d="M78.7795 15.7526L76.1688 15.4615L76.3891 13.4863L84.1525 14.3521L83.9322 16.3273L81.3215 16.0361L80.5361 23.0782L77.9941 22.7947L78.7795 15.7526Z" fill="#262626"/>
<path d="M89.3002 15.5696L91.6703 16.3833L90.4862 19.8323L89.5891 21.7535L89.6381 21.7703L91.2637 20.2819L94.8904 17.4888L97.0481 18.2296L94.1019 26.8111L91.7317 25.9974L92.9158 22.5485L93.813 20.6272L93.7639 20.6104L92.1383 22.0988L88.5116 24.8919L86.354 24.1511L89.3002 15.5696Z" fill="#262626"/>
<path d="M102.477 20.972L106.849 23.7266C107.551 24.1688 107.976 24.6821 108.126 25.2664C108.275 25.8507 108.165 26.4353 107.797 27.0202C107.484 27.5174 107.11 27.8195 106.674 27.9266C106.239 28.0337 105.719 27.9512 105.114 27.6791L105.068 27.7522C106.272 28.6738 106.539 29.6658 105.869 30.7284C105.439 31.4107 104.884 31.8166 104.203 31.9461C103.522 32.0755 102.802 31.9007 102.042 31.4216L97.6403 28.6486L102.477 20.972ZM102.614 29.6376C102.809 29.7604 102.999 29.805 103.183 29.7715C103.368 29.738 103.522 29.6237 103.644 29.4288L103.93 28.9755C104.053 28.7805 104.09 28.5926 104.04 28.4117C103.997 28.221 103.878 28.0642 103.683 27.9414L101.782 26.7438L100.713 28.4399L102.614 29.6376ZM104.23 26.4888C104.425 26.6117 104.61 26.6533 104.785 26.6136C104.96 26.5739 105.109 26.4566 105.231 26.2616L105.48 25.8668C105.603 25.6719 105.645 25.487 105.605 25.3122C105.565 25.1374 105.448 24.9886 105.253 24.8658L103.615 23.834L102.593 25.457L104.23 26.4888Z" fill="#262626"/>
<path d="M113.558 28.8475L115.352 30.6711L112.875 33.1069L115.032 35.3002L117.509 32.8644L119.302 34.6881L112.833 41.0501L111.04 39.2264L113.615 36.6937L111.458 34.5004L108.883 37.0331L107.089 35.2094L113.558 28.8475Z" fill="#262626"/>
<path d="M116.911 47.5288C116.564 46.9576 116.347 46.3886 116.259 45.822C116.177 45.2652 116.218 44.7216 116.381 44.1912C116.55 43.6707 116.835 43.1742 117.236 42.7019C117.637 42.2296 118.147 41.8051 118.768 41.4285C119.388 41.0518 120.001 40.7948 120.604 40.6573C121.208 40.5199 121.775 40.4992 122.305 40.5953C122.851 40.6952 123.352 40.91 123.808 41.2397C124.271 41.5791 124.675 42.0345 125.022 42.6057C125.369 43.177 125.583 43.741 125.665 44.2978C125.753 44.8645 125.712 45.4081 125.543 45.9286C125.389 46.453 125.112 46.9514 124.712 47.4237C124.311 47.896 123.8 48.3205 123.18 48.6971C122.559 49.0738 121.947 49.3308 121.343 49.4683C120.739 49.6057 120.164 49.6245 119.618 49.5245C119.078 49.4344 118.577 49.2196 118.115 48.8802C117.659 48.5505 117.258 48.1001 116.911 47.5288ZM118.64 46.4797C118.903 46.913 119.239 47.1672 119.648 47.2421C120.058 47.3171 120.509 47.2051 121.001 46.9062L122.582 45.9467C123.074 45.6478 123.382 45.2995 123.504 44.9017C123.627 44.5039 123.556 44.0883 123.293 43.6549C123.03 43.2216 122.694 42.9674 122.285 42.8924C121.875 42.8175 121.424 42.9294 120.932 43.2284L119.351 44.1879C118.859 44.4868 118.551 44.8351 118.429 45.2329C118.306 45.6307 118.376 46.0463 118.64 46.4797Z" fill="#262626"/>
<path d="M133.136 66.7895L133.554 74.711L124.494 75.1901L124.359 72.6359L131.435 72.2617L131.286 69.4487L124.21 69.8228L124.075 67.2686L133.136 66.7895Z" fill="#262626"/>
<path d="M133.071 81.065L132.602 83.5793L131.107 83.3001L131.091 83.385C131.566 83.6027 131.921 83.962 132.156 84.4629C132.388 84.9752 132.45 85.5201 132.343 86.0977C132.131 87.2303 131.575 88.0113 130.674 88.4409C129.774 88.8704 128.564 88.9435 127.047 88.6601C125.529 88.3766 124.422 87.871 123.726 87.1433C123.041 86.4176 122.804 85.4885 123.016 84.3559C123.071 84.0614 123.168 83.7924 123.307 83.5488C123.435 83.3031 123.593 83.0865 123.78 82.8988C123.977 82.7245 124.191 82.5828 124.422 82.4736C124.665 82.3666 124.911 82.3013 125.162 82.2778L125.178 82.1928L120.285 81.2791L120.755 78.7648L133.071 81.065ZM125.21 83.9042C125.121 84.3799 125.212 84.8013 125.484 85.1684C125.764 85.549 126.188 85.7921 126.754 85.8979L128.3 86.1866C128.866 86.2924 129.343 86.2173 129.731 85.9616C130.128 85.7192 130.371 85.3602 130.459 84.8845C130.548 84.4089 130.503 83.9902 130.325 83.6287C130.155 83.2806 129.867 83.0685 129.459 82.9923L126.826 82.5006C126.418 82.4244 126.067 82.5171 125.772 82.7784C125.486 83.0532 125.299 83.4285 125.21 83.9042Z" fill="#262626"/>
<path d="M119.668 94.5032C119.938 93.892 120.281 93.3882 120.695 92.992C121.105 92.6062 121.574 92.3286 122.102 92.159C122.626 92 123.196 91.9497 123.813 92.0081C124.429 92.0665 125.07 92.2424 125.734 92.5358C126.398 92.8292 126.959 93.1842 127.417 93.6009C127.875 94.0176 128.217 94.4708 128.441 94.9605C128.671 95.4654 128.782 95.9992 128.773 96.5619C128.758 97.1351 128.616 97.7274 128.346 98.3386C128.076 98.9498 127.736 99.4483 127.326 99.834C126.912 100.23 126.443 100.508 125.919 100.667C125.401 100.841 124.834 100.899 124.217 100.841C123.601 100.782 122.96 100.606 122.297 100.313C121.633 100.02 121.072 99.6645 120.613 99.2478C120.155 98.8312 119.811 98.3704 119.58 97.8655C119.345 97.3711 119.235 96.8373 119.249 96.2641C119.258 95.7014 119.398 95.1144 119.668 94.5032ZM121.518 95.3206C121.313 95.7843 121.297 96.2054 121.469 96.5841C121.642 96.9628 121.992 97.2685 122.519 97.5014L124.21 98.2489C124.737 98.4818 125.199 98.5346 125.595 98.4075C125.991 98.2803 126.292 97.9849 126.497 97.5212C126.702 97.0575 126.718 96.6363 126.545 96.2577C126.372 95.879 126.023 95.5732 125.496 95.3404L123.804 94.5928C123.277 94.36 122.816 94.3071 122.419 94.4343C122.023 94.5615 121.722 94.8569 121.518 95.3206Z" fill="#262626"/>
<path d="M120.821 107.156L122.368 105.033L123.974 106.204L119.373 112.517L117.767 111.346L119.314 109.223L113.588 105.05L115.095 102.983L120.821 107.156Z" fill="#262626"/>
<path d="M115.764 116.384L113.882 118.039L111.474 115.3L110.25 113.569L110.211 113.603L110.698 115.752L111.325 120.287L109.612 121.793L103.621 114.98L105.502 113.325L107.91 116.063L109.134 117.795L109.173 117.761L108.686 115.611L108.059 111.077L109.772 109.57L115.764 116.384Z" fill="#262626"/>
<path d="M104.539 125.148L99.9789 127.579C99.2469 127.969 98.5901 128.084 98.0087 127.924C97.4272 127.764 96.9739 127.379 96.6487 126.769C96.3722 126.251 96.2954 125.776 96.4181 125.345C96.5409 124.914 96.8703 124.503 97.4065 124.113L97.3658 124.037C95.9689 124.625 94.9751 124.365 94.3843 123.257C94.0048 122.545 93.9277 121.861 94.1528 121.206C94.3779 120.551 94.887 120.012 95.68 119.589L100.27 117.142L104.539 125.148ZM96.9455 120.971C96.7421 121.079 96.6093 121.222 96.5469 121.399C96.4845 121.575 96.5075 121.766 96.6159 121.969L96.868 122.442C96.9764 122.645 97.1214 122.77 97.303 122.817C97.49 122.874 97.6852 122.848 97.8886 122.74L99.8711 121.683L98.928 119.914L96.9455 120.971ZM98.8785 123.935C98.6752 124.044 98.5474 124.184 98.4952 124.355C98.443 124.527 98.4711 124.714 98.5795 124.917L98.799 125.329C98.9074 125.532 99.0474 125.66 99.2188 125.712C99.3903 125.765 99.5777 125.737 99.781 125.628L101.489 124.718L100.587 123.025L98.8785 123.935Z" fill="#262626"/>
<path d="M76.8207 133.795L71.6533 133.811C70.8238 133.814 70.1895 133.608 69.7504 133.195C69.3113 132.781 69.0908 132.229 69.0887 131.537C69.0869 130.95 69.2411 130.494 69.5512 130.171C69.8613 129.847 70.3446 129.638 71.001 129.544L71.0008 129.458C69.491 129.324 68.7343 128.629 68.7305 127.374C68.7281 126.567 68.9796 125.927 69.4851 125.453C69.9907 124.979 70.6928 124.741 71.5914 124.738L76.7934 124.722L76.8207 133.795ZM72.0635 126.551C71.8331 126.552 71.6489 126.616 71.5111 126.743C71.3732 126.87 71.3046 127.049 71.3053 127.279L71.3069 127.815C71.3076 128.046 71.3773 128.224 71.5159 128.35C71.6546 128.488 71.8391 128.557 72.0696 128.556L74.3162 128.549L74.3102 126.544L72.0635 126.551ZM72.3852 130.076C72.1548 130.077 71.9764 130.14 71.85 130.268C71.7237 130.395 71.6609 130.573 71.6616 130.804L71.663 131.271C71.6637 131.501 71.7276 131.679 71.8547 131.806C71.9818 131.932 72.1606 131.995 72.391 131.994L74.3266 131.988L74.3208 130.07L72.3852 130.076Z" fill="#262626"/>
<path d="M63.2449 133.08L60.8041 132.513L61.6301 128.961L62.3265 126.958L62.276 126.946L60.8108 128.593L57.488 131.741L55.266 131.225L57.3213 122.387L59.7621 122.955L58.936 126.507L58.2396 128.509L58.2901 128.521L59.7554 126.875L63.0782 123.726L65.3001 124.243L63.2449 133.08Z" fill="#262626"/>
<path d="M49.5485 129.055L47.2634 127.906L47.9467 126.547L47.8695 126.509C47.5285 126.904 47.0849 127.146 46.5385 127.232C45.9818 127.313 45.441 127.222 44.9161 126.958C43.8867 126.44 43.2908 125.689 43.1282 124.704C42.9655 123.72 43.2311 122.538 43.9247 121.159C44.6183 119.779 45.4114 118.856 46.3039 118.39C47.1912 117.933 48.1495 117.964 49.1788 118.481C49.4464 118.616 49.6779 118.784 49.8732 118.985C50.0737 119.176 50.2381 119.388 50.3664 119.62C50.4792 119.857 50.5559 120.102 50.5966 120.355C50.632 120.618 50.6263 120.873 50.5793 121.12L50.6565 121.159L52.8927 116.712L55.1778 117.861L49.5485 129.055ZM49.0036 120.714C48.5713 120.497 48.1411 120.468 47.7131 120.626C47.2696 120.79 46.9184 121.13 46.6596 121.644L45.953 123.049C45.6942 123.564 45.6338 124.043 45.7719 124.486C45.8946 124.935 46.172 125.268 46.6043 125.485C47.0367 125.703 47.4513 125.776 47.8482 125.705C48.2296 125.639 48.5135 125.42 48.6999 125.05L49.9034 122.657C50.0897 122.286 50.0983 121.923 49.9291 121.567C49.7444 121.216 49.4359 120.932 49.0036 120.714Z" fill="#262626"/>
<path d="M32.9833 118.393L31.1463 116.872L40.5142 111.031C41.1399 110.637 41.7234 110.447 42.2649 110.461C42.7974 110.468 43.3655 110.722 43.9689 111.221L45.1936 112.235L43.9262 113.766L42.6083 112.675L41.7295 113.249L38.0951 122.625L36.1383 121.005L37.8135 116.895L38.9828 114.453L38.903 114.386L36.7086 115.98L32.9833 118.393Z" fill="#262626"/>
<path d="M32.8754 104.583C33.2951 105.117 33.5825 105.661 33.7376 106.213C33.8836 106.772 33.9083 107.317 33.8117 107.847C33.706 108.384 33.4789 108.906 33.1306 109.414C32.7822 109.922 32.3226 110.4 31.7516 110.848C31.1807 111.296 30.6118 111.626 30.0448 111.836C29.4688 112.054 28.9074 112.151 28.3606 112.126C27.8138 112.101 27.2906 111.948 26.7912 111.666C26.2917 111.384 25.8321 110.976 25.4124 110.442C24.8432 109.717 24.5332 108.986 24.4824 108.249C24.4245 107.504 24.6082 106.796 25.0337 106.125L27.0211 107.201C26.7991 107.478 26.6711 107.791 26.6373 108.14C26.6035 108.488 26.7254 108.84 27.0028 109.193C27.323 109.601 27.7008 109.802 28.1363 109.797C28.5628 109.799 29.0026 109.623 29.4557 109.267L30.7879 108.221C31.241 107.865 31.5217 107.476 31.6299 107.055C31.7291 106.64 31.6186 106.229 31.2985 105.821C30.9855 105.422 30.65 105.209 30.2922 105.183C29.9182 105.154 29.547 105.204 29.1788 105.332L28.6312 103.235C29.4959 102.937 30.2824 102.912 30.9909 103.162C31.6923 103.402 32.3204 103.876 32.8754 104.583Z" fill="#262626"/>
<path d="M27.2411 95.3177C27.5294 95.9206 27.689 96.5083 27.7201 97.0809C27.7462 97.6431 27.6516 98.1799 27.4364 98.6914C27.2162 99.1926 26.8833 99.6582 26.4376 100.088C25.992 100.518 25.4417 100.89 24.7868 101.203C24.1319 101.516 23.4972 101.711 22.8826 101.788C22.2679 101.864 21.7017 101.829 21.1838 101.68C20.6506 101.527 20.1735 101.263 19.7523 100.89C19.3263 100.506 18.9691 100.013 18.6809 99.4096C18.3927 98.8067 18.2356 98.2242 18.2095 97.662C18.1784 97.0894 18.273 96.5526 18.4931 96.0514C18.698 95.5449 19.0232 95.0765 19.4689 94.6464C19.9145 94.2163 20.4648 93.8447 21.1197 93.5316C21.7746 93.2186 22.4093 93.0237 23.0239 92.947C23.6385 92.8703 24.2125 92.9088 24.7457 93.0626C25.274 93.2059 25.7511 93.4695 26.1772 93.8533C26.5983 94.2266 26.9529 94.7148 27.2411 95.3177ZM25.4168 96.1897C25.1982 95.7323 24.8889 95.446 24.489 95.3307C24.0891 95.2154 23.6293 95.2819 23.1095 95.5304L21.4411 96.3279C20.9214 96.5764 20.5808 96.8924 20.4194 97.276C20.258 97.6597 20.2866 98.0802 20.5052 98.5376C20.7239 98.9949 21.0331 99.2813 21.4331 99.3966C21.833 99.5119 22.2928 99.4454 22.8126 99.1969L24.481 98.3994C25.0007 98.1509 25.3413 97.8349 25.5027 97.4513C25.6641 97.0676 25.6355 96.6471 25.4168 96.1897Z" fill="#262626"/>
<path d="M15.311 90.0946L14.1817 85.0521C14.0004 84.2426 14.0643 83.5789 14.3733 83.0611C14.6824 82.5432 15.1742 82.2087 15.8488 82.0576C16.4222 81.9292 16.9003 81.9815 17.2831 82.2146C17.6658 82.4476 17.974 82.8745 18.2075 83.4952L18.2918 83.4763C18.0968 81.9733 18.6121 81.0845 19.8376 80.81C20.6246 80.6338 21.304 80.7414 21.8757 81.1328C22.4475 81.5243 22.8316 82.1585 23.028 83.0354L24.1649 88.1116L15.311 90.0946ZM21.3592 83.8874C21.3088 83.6625 21.2067 83.4965 21.0528 83.3892C20.8989 83.282 20.7096 83.2536 20.4847 83.304L19.9619 83.421C19.737 83.4714 19.5779 83.5779 19.4844 83.7405C19.3797 83.9057 19.3526 84.1006 19.4029 84.3255L19.8939 86.5179L21.8502 86.0797L21.3592 83.8874ZM17.9868 84.9614C17.9365 84.7366 17.8356 84.5762 17.6842 84.4802C17.5329 84.3842 17.3447 84.3614 17.1199 84.4118L16.6645 84.5138C16.4397 84.5641 16.2793 84.665 16.1833 84.8164C16.0873 84.9677 16.0645 85.1558 16.1149 85.3807L16.5379 87.2695L18.4099 86.8503L17.9868 84.9614Z" fill="#262626"/>
<path d="M19.9894 67.2104C19.9325 67.6909 19.8271 68.0903 19.6733 68.4085C19.5196 68.7267 19.3332 68.9773 19.1143 69.1602C18.8839 69.3417 18.6253 69.4677 18.3385 69.5381C18.0531 69.597 17.7502 69.6075 17.4298 69.5695L16.812 69.4963C16.4916 69.4583 16.1996 69.3772 15.9359 69.2531C15.6735 69.1176 15.4572 68.9353 15.2872 68.7063C15.1056 68.4759 14.9773 68.1881 14.9023 67.8427C14.8272 67.4973 14.8182 67.0844 14.8752 66.6039C14.9321 66.1233 15.0375 65.7239 15.1913 65.4057C15.345 65.0875 15.5371 64.8376 15.7675 64.6561C15.9864 64.4732 16.2386 64.3523 16.524 64.2933C16.8108 64.2229 17.1144 64.2067 17.4348 64.2447L18.0526 64.318C18.373 64.3559 18.6643 64.4427 18.9267 64.5782C19.1905 64.7023 19.4131 64.8796 19.5946 65.1099C19.7647 65.339 19.8873 65.6261 19.9623 65.9715C20.0374 66.3169 20.0464 66.7298 19.9894 67.2104Z" fill="#262626"/>
</svg>
