<svg width="44" height="38" viewBox="0 0 44 38" fill="none" xmlns="http://www.w3.org/2000/svg">
<path d="M34.3319 9.13233C34.1059 9.13233 33.8799 9.14033 33.6579 9.15833C33.2659 4.54033 29.4339 0.986328 24.7419 0.986328C21.0219 0.986328 17.7159 3.27233 16.3899 6.71633C15.8699 6.60033 15.3339 6.54033 14.7899 6.54033C10.7479 6.54033 7.45993 9.82833 7.45993 13.8683C7.45993 13.8943 7.45993 13.9183 7.45993 13.9443H7.25993C3.63193 13.9443 0.679932 16.8983 0.679932 20.5263C0.679932 24.1543 3.63193 27.1063 7.25993 27.1063H19.6319C19.8719 27.1063 20.0639 26.9123 20.0639 26.6743C20.0639 26.4363 19.8699 26.2423 19.6319 26.2423H7.25993C4.10793 26.2423 1.54593 23.6803 1.54593 20.5283C1.54593 17.3763 4.10793 14.8123 7.28193 14.8123H7.90993C8.02993 14.8123 8.14593 14.7623 8.22793 14.6743C8.30993 14.5863 8.34993 14.4683 8.34193 14.3463C8.32993 14.1883 8.32393 14.0283 8.32393 13.8683C8.32393 10.3043 11.2239 7.40433 14.7879 7.40433C15.3879 7.40433 15.9799 7.48433 16.5439 7.64433C16.7719 7.70833 16.9979 7.58433 17.0719 7.36433C18.1779 4.06433 21.2599 1.84833 24.7419 1.84833C29.1199 1.84833 32.6679 5.27233 32.8199 9.64433C32.8239 9.76633 32.8799 9.88033 32.9719 9.95833C33.0639 10.0363 33.1859 10.0683 33.3059 10.0583C33.6419 10.0163 33.9839 9.99433 34.3319 9.99433C38.8099 9.99433 42.4539 13.6363 42.4539 18.1143C42.4539 22.5923 38.8099 26.2363 34.3319 26.2363H24.3559C24.1159 26.2363 23.9239 26.4303 23.9239 26.6683C23.9239 26.9063 24.1179 27.1003 24.3559 27.1003H34.3319C39.2879 27.1003 43.3199 23.0683 43.3199 18.1123C43.3179 13.1623 39.2859 9.13233 34.3319 9.13233Z" fill="white"/>
<path d="M28.28 29.69L22.432 35.54L22.422 15.724C22.422 15.484 22.228 15.292 21.99 15.292C21.75 15.292 21.558 15.486 21.558 15.724L21.568 35.538L15.718 29.688C15.55 29.52 15.276 29.52 15.106 29.688C14.938 29.858 14.938 30.132 15.106 30.3L21.694 36.888C21.776 36.968 21.886 37.014 22 37.014C22.12 37.014 22.228 36.964 22.306 36.886L28.894 30.298C29.062 30.13 29.062 29.856 28.894 29.686C28.724 29.52 28.45 29.52 28.28 29.69Z" fill="white"/>
</svg>
