<svg width="11" height="20" viewBox="0 0 11 20" fill="none" xmlns="http://www.w3.org/2000/svg">
<path d="M11 14.5C11 15.9587 10.4205 17.3576 9.38909 18.3891C8.35764 19.4205 6.95869 20 5.5 20C4.04131 20 2.64236 19.4205 1.61091 18.3891C0.579462 17.3576 -1.76651e-07 15.9587 -2.40413e-07 14.5L-6.99382e-07 4C-7.45754e-07 2.93913 0.421426 1.92172 1.17157 1.17157C1.92172 0.421429 2.93913 -1.28474e-07 4 -1.74846e-07C5.06087 -2.21217e-07 6.07828 0.421428 6.82843 1.17157C7.57857 1.92172 8 2.93913 8 4L8 12.5C8 13.163 7.73661 13.7989 7.26777 14.2678C6.79893 14.7366 6.16304 15 5.5 15C4.83696 15 4.20107 14.7366 3.73223 14.2678C3.26339 13.7989 3 13.163 3 12.5L3 5L4.5 5L4.5 12.5C4.5 12.7652 4.60536 13.0196 4.79289 13.2071C4.98043 13.3946 5.23478 13.5 5.5 13.5C5.76522 13.5 6.01957 13.3946 6.20711 13.2071C6.39464 13.0196 6.5 12.7652 6.5 12.5L6.5 4C6.5 3.6717 6.43533 3.34661 6.3097 3.04329C6.18406 2.73998 5.99991 2.46438 5.76777 2.23223C5.53562 2.00009 5.26002 1.81594 4.95671 1.6903C4.65339 1.56466 4.3283 1.5 4 1.5C3.67169 1.5 3.3466 1.56466 3.04329 1.6903C2.73998 1.81594 2.46438 2.00009 2.23223 2.23223C2.00009 2.46438 1.81594 2.73998 1.6903 3.04329C1.56466 3.34661 1.5 3.6717 1.5 4L1.5 14.5C1.5 15.5609 1.92143 16.5783 2.67157 17.3284C3.42172 18.0786 4.43913 18.5 5.5 18.5C6.56087 18.5 7.57828 18.0786 8.32843 17.3284C9.07857 16.5783 9.5 15.5609 9.5 14.5L9.5 5L11 5L11 14.5Z" fill="#096DD9"/>
</svg>
