<svg width="591" height="591" viewBox="0 0 591 591" fill="none" xmlns="http://www.w3.org/2000/svg">
<g clip-path="url(#clip0)">
<g opacity="0.5">
<path fill-rule="evenodd" clip-rule="evenodd" d="M266.739 227.009C298.342 202.226 234.997 161.833 162.201 200.231C189.429 183.493 219.601 175.063 251.596 178.432C282.847 182.651 312.814 198.612 326.412 228.244C351.809 231.302 349.667 206.543 342.046 189.691C328.056 161.621 300.631 144.417 271.424 135.382C302.495 142.79 329.83 158.17 350.043 183.166C369.176 208.26 379.062 240.73 367.745 271.302C392.537 302.913 432.913 239.528 394.524 166.764C411.269 193.976 419.691 224.172 416.331 256.159C412.103 287.435 396.143 317.353 366.519 330.975C363.452 356.38 388.219 354.222 405.071 346.601C433.134 332.619 450.337 305.186 459.373 275.988C451.965 307.059 436.584 334.393 411.588 354.606C386.502 373.739 354.025 383.625 323.452 372.308C291.849 397.19 355.325 437.435 427.991 399.079C400.787 415.833 370.574 424.255 338.603 420.894C307.344 416.667 277.377 400.706 263.779 371.074C238.382 368.065 240.516 392.75 248.153 409.635C262.176 437.697 289.535 454.892 318.767 463.936C287.687 456.528 260.361 441.148 240.148 416.151C221.015 391.066 211.121 358.58 222.446 328.015C197.572 296.413 157.319 359.863 195.667 432.554C178.922 405.342 170.5 375.146 173.868 343.167C178.087 311.907 194.048 281.94 223.681 268.342C226.69 242.945 202.004 245.079 185.12 252.716C157.057 266.739 139.862 294.098 130.818 323.33C138.226 292.25 153.607 264.924 178.603 244.703C203.697 225.578 236.166 215.692 266.739 227.009L266.739 227.009Z" fill="#5C5F75"/>
<path fill-rule="evenodd" clip-rule="evenodd" d="M118.154 85.1348C85.905 97.3752 55.2672 115.928 31.9718 141.676C10.6553 165.65 33.9506 151.104 46.1828 142.42C97.4013 107.146 151.874 84.0554 215.063 84.9713C260.836 86.7047 305.309 101.047 339.626 132.159C282.774 70.7439 195.235 57.7267 118.153 85.1349L118.154 85.1348Z" fill="#5C5F75"/>
<path fill-rule="evenodd" clip-rule="evenodd" d="M21.1616 273.467C6.96691 304.907 -1.58595 339.715 0.245645 374.392C2.19169 406.42 8.33235 379.543 10.7935 364.792C21.0062 309.003 40.1069 258.872 78.6843 216.321C113.754 179.428 159.756 153.622 211.4 151.889C127.867 147.277 56.3293 199.796 21.1617 273.468L21.1616 273.467Z" fill="#5C5F75"/>
<path fill-rule="evenodd" clip-rule="evenodd" d="M85.7081 474.531C98.1366 506.813 117.008 537.328 143.092 560.378C167.311 581.4 153.149 559.07 144.065 546.649C111.35 500.468 88.9297 451.841 85.6998 394.604C84.0317 343.926 98.0138 293.157 133.206 255.552C71.1534 310.916 58.1935 398.243 85.7079 474.531L85.7081 474.531Z" fill="#5C5F75"/>
<path fill-rule="evenodd" clip-rule="evenodd" d="M272.849 571.114C304.582 585.022 339.57 593.027 374.354 590.689C409.072 588.088 380.216 582.438 366.382 580.41C310.731 571.449 260.527 553.575 217.477 516.068C180.158 481.964 153.625 436.657 151.295 385.356C147.485 467.605 199.995 537.311 272.849 571.114H272.849Z" fill="#5C5F75"/>
<path fill-rule="evenodd" clip-rule="evenodd" d="M473.28 507.931C505.562 495.2 535.832 476.017 558.792 449.737C581.408 423.302 558.023 438.912 546.486 447.571C501.024 480.678 453.297 503.859 396.51 508.429C346.06 511.291 295.119 498.789 256.566 464.913C312.724 524.292 398.431 535.682 473.279 507.93L473.28 507.931Z" fill="#5C5F75"/>
<path fill-rule="evenodd" clip-rule="evenodd" d="M571.736 320.698C585.513 288.89 593.404 253.919 591.139 219.127C588.563 184.434 582.954 211.907 580.885 226.216C572.022 281.768 554.679 331.957 517.966 375.522C484.409 413.527 439.691 441.099 388.399 445.187C470.157 446.201 538.465 393.421 571.736 320.698L571.736 320.698Z" fill="#5C5F75"/>
<path fill-rule="evenodd" clip-rule="evenodd" d="M508.172 117.985C495.498 85.7604 476.504 55.3758 450.444 32.2686C424.189 9.41491 440.305 33.7567 448.629 45.0814C481.426 91.0178 504.394 139.105 509.006 196.071C511.949 246.922 499.635 298.173 466.201 337.568C524.926 279.768 536.144 193.659 508.172 117.985L508.172 117.985Z" fill="#5C5F75"/>
<path fill-rule="evenodd" clip-rule="evenodd" d="M318.41 20.5416C286.775 6.61674 251.893 -1.65809 217.167 0.27982C185.18 2.34851 210.683 8.28476 225.974 10.7296C281.812 20.5252 332.074 38.9063 375.394 76.5435C413.178 110.959 440.259 156.348 443.898 208.065C445.361 124.835 392.262 54.9245 318.411 20.5418L318.41 20.5416Z" fill="#5C5F75"/>
</g>
</g>
<defs>
<clipPath id="clip0">
<rect width="591" height="591" fill="white"/>
</clipPath>
</defs>
</svg>
