<svg width="591" height="615" viewBox="0 0 591 615" fill="none" xmlns="http://www.w3.org/2000/svg">
<g clip-path="url(#clip0)">
<g opacity="0.5">
<path fill-rule="evenodd" clip-rule="evenodd" d="M266.739 227.009C298.342 202.226 234.997 161.833 162.201 200.231C189.429 183.493 219.601 175.063 251.596 178.432C282.847 182.651 312.814 198.612 326.412 228.244C351.809 231.302 349.667 206.543 342.046 189.691C328.056 161.621 300.631 144.417 271.424 135.382C302.495 142.79 329.83 158.17 350.043 183.166C369.176 208.26 379.062 240.73 367.745 271.302C392.537 302.913 432.913 239.528 394.524 166.764C411.269 193.976 419.691 224.172 416.331 256.159C412.103 287.435 396.143 317.353 366.519 330.975C363.452 356.38 388.219 354.222 405.071 346.601C433.134 332.619 450.337 305.186 459.373 275.988C451.965 307.059 436.584 334.393 411.588 354.606C386.502 373.739 354.025 383.625 323.452 372.308C291.849 397.19 355.325 437.435 427.991 399.079C400.787 415.833 370.574 424.255 338.603 420.894C307.344 416.667 277.377 400.706 263.779 371.074C238.382 368.065 240.516 392.75 248.153 409.635C262.176 437.697 289.535 454.892 318.767 463.936C287.687 456.528 260.361 441.148 240.148 416.151C221.015 391.066 211.121 358.58 222.446 328.015C197.572 296.413 157.319 359.863 195.667 432.554C178.922 405.342 170.5 375.146 173.868 343.167C178.087 311.907 194.048 281.94 223.681 268.342C226.69 242.945 202.004 245.079 185.12 252.716C157.057 266.739 139.862 294.098 130.818 323.33C138.226 292.25 153.607 264.924 178.603 244.703C203.697 225.578 236.166 215.692 266.739 227.009L266.739 227.009Z" fill="#5C5F75"/>
<path fill-rule="evenodd" clip-rule="evenodd" d="M118.154 85.1348C85.905 97.3752 55.2672 115.928 31.9718 141.676C10.6553 165.65 33.9506 151.104 46.1828 142.42C97.4013 107.146 151.874 84.0554 215.063 84.9713C260.836 86.7047 305.309 101.047 339.626 132.159C282.774 70.7439 195.235 57.7267 118.153 85.1349L118.154 85.1348Z" fill="#5C5F75"/>
<path fill-rule="evenodd" clip-rule="evenodd" d="M21.1616 273.467C6.96691 304.907 -1.58595 339.715 0.245645 374.392C2.19169 406.42 8.33235 379.543 10.7935 364.792C21.0062 309.003 40.1069 258.872 78.6843 216.321C113.754 179.428 159.756 153.622 211.4 151.889C127.867 147.277 56.3293 199.796 21.1617 273.468L21.1616 273.467Z" fill="#5C5F75"/>
<path fill-rule="evenodd" clip-rule="evenodd" d="M85.7081 474.531C98.1366 506.813 117.008 537.328 143.092 560.378C167.311 581.4 153.149 559.07 144.065 546.649C111.35 500.468 88.9297 451.841 85.6998 394.604C84.0317 343.926 98.0138 293.157 133.206 255.552C71.1534 310.916 58.1935 398.243 85.7079 474.531L85.7081 474.531Z" fill="#5C5F75"/>
<path fill-rule="evenodd" clip-rule="evenodd" d="M272.849 571.114C304.583 585.022 339.571 593.027 374.354 590.689C409.072 588.088 380.217 582.438 366.382 580.41C310.731 571.449 260.527 553.575 217.477 516.068C180.158 481.964 153.625 436.657 151.295 385.356C147.485 467.605 199.995 537.311 272.849 571.114H272.849Z" fill="#5C5F75"/>
<path fill-rule="evenodd" clip-rule="evenodd" d="M473.28 507.931C505.562 495.2 535.832 476.017 558.792 449.737C581.408 423.302 558.023 438.911 546.486 447.571C501.024 480.678 453.297 503.859 396.51 508.429C346.06 511.291 295.119 498.789 256.566 464.913C312.724 524.292 398.431 535.682 473.279 507.93L473.28 507.931Z" fill="#5C5F75"/>
<path fill-rule="evenodd" clip-rule="evenodd" d="M571.735 320.698C585.513 288.89 593.404 253.919 591.139 219.127C588.563 184.434 582.954 211.907 580.885 226.216C572.022 281.769 554.679 331.957 517.966 375.522C484.409 413.527 439.691 441.099 388.399 445.187C470.157 446.201 538.465 393.421 571.735 320.698L571.735 320.698Z" fill="#5C5F75"/>
<path fill-rule="evenodd" clip-rule="evenodd" d="M508.172 117.985C495.498 85.7604 476.504 55.3758 450.444 32.2686C424.189 9.41491 440.305 33.7567 448.629 45.0814C481.426 91.0178 504.394 139.105 509.006 196.071C511.949 246.922 499.635 298.173 466.201 337.568C524.926 279.768 536.144 193.659 508.172 117.985L508.172 117.985Z" fill="#5C5F75"/>
<path fill-rule="evenodd" clip-rule="evenodd" d="M318.41 20.5416C286.775 6.61674 251.893 -1.65809 217.167 0.27982C185.18 2.34851 210.683 8.28476 225.973 10.7296C281.812 20.5252 332.073 38.9063 375.393 76.5435C413.178 110.959 440.259 156.348 443.897 208.065C445.361 124.835 392.262 54.9245 318.41 20.5418L318.41 20.5416Z" fill="#5C5F75"/>
</g>
</g>
<path d="M316.588 534.617L315.154 540.821L319.455 570.407L441.569 581.382L438.702 552.751L423.888 524.119L406.685 526.982L401.907 536.049L379.447 538.435L356.988 537.958L316.588 534.617Z" fill="#BFBFBF" stroke="black" stroke-width="2"/>
<path d="M356.251 537.958C356.251 541.298 357.817 546.025 360.551 550.365C362.244 553.051 363.355 554.55 365.808 556.568C368.13 558.479 369.643 559.435 372.498 560.386C374.303 560.987 377.754 561.34 378.232 561.34C378.71 561.34 384.954 561.785 387.789 558.954" stroke="black" stroke-width="2"/>
<path d="M357.684 538.435C357.684 540.821 359.372 546.667 362.463 550.842C365.791 555.337 368.605 557.71 373.931 559.431C377.323 560.528 381.353 560.618 383.011 560.386C384.668 560.153 387.166 559.587 389.223 558C391.231 556.449 392.061 555.087 393.046 552.751C394.213 549.981 394.062 548.12 394.001 545.115C393.937 541.899 392.568 537.003 392.568 537.003L379.666 538.435L357.684 537.958V538.435Z" fill="#D9ECF1" stroke="black" stroke-width="2"/>
<path d="M439.876 552.751L424.585 524.119L422.673 524.596L437.965 553.228L439.876 580.905L442.266 581.382L439.876 552.751Z" stroke="black" stroke-width="2"/>
<path d="M319.455 570.407L240.608 594.266C239.015 594.903 236.498 596.652 239.174 598.561C241.85 600.47 245.387 601.265 246.82 601.424L322.8 610.491C335.702 611.445 355.295 611.923 369.631 607.628C376.181 605.665 420.603 589.494 442.266 582.337V581.382L319.455 570.407Z" fill="#D9D9D9" stroke="black" stroke-width="2"/>
<path d="M238.218 597.607V600.47C240.894 602.379 245.386 604.129 246.82 604.288L322.8 613.354C335.702 614.309 355.294 614.786 369.63 610.491C376.18 608.529 420.602 592.358 442.265 585.2V581.382" stroke="black" stroke-width="2"/>
<path d="M274.058 21.635L280.748 18.2947V19.7263H281.226L257.115 529.845L250.643 526.982L274.058 21.635Z" fill="#F5F5F5"/>
<path d="M274.058 21.635L273.612 20.7403L273.087 21.0025L273.059 21.5887L274.058 21.635ZM280.748 18.2947H281.748L280.302 17.4L280.748 18.2947ZM280.748 19.7263H279.748V20.7263H280.748V19.7263ZM281.226 19.7263L282.225 19.7735L282.275 18.7263H281.226V19.7263ZM257.115 529.845L256.71 530.76C257.012 530.893 257.36 530.869 257.64 530.696C257.921 530.523 258.098 530.222 258.113 529.893L257.115 529.845ZM250.643 526.982L249.644 526.936L249.612 527.62L250.238 527.897L250.643 526.982ZM274.505 22.5297L281.195 19.1894L280.302 17.4L273.612 20.7403L274.505 22.5297ZM279.748 18.2947V19.7263H281.748V18.2947H279.748ZM280.748 20.7263H281.226V18.7263H280.748V20.7263ZM280.227 19.679L256.116 529.798L258.113 529.893L282.225 19.7735L280.227 19.679ZM257.519 528.931L251.048 526.068L250.238 527.897L256.71 530.76L257.519 528.931ZM251.642 527.028L275.057 21.6813L273.059 21.5887L249.644 526.936L251.642 527.028Z" fill="black"/>
<path d="M379.188 15.9088V14L281.226 18.2947L257.333 529.845L357.206 537.958L379.188 15.9088Z" fill="url(#paint0_linear)" stroke="black" stroke-width="2"/>
<path d="M381.099 14.4772V16.3859H379.188L357.206 537.958L379.666 538.435L403.559 16.3859L381.099 14.4772Z" fill="url(#paint1_linear)" stroke="black" stroke-width="2"/>
<path d="M403.559 16.8633L425.063 25.4528L428.408 34.9966L448 42.6317L426.496 523.642L406.426 526.982L402.125 536.049L379.666 538.435L403.559 16.8633Z" fill="url(#paint2_linear)" stroke="black" stroke-width="2"/>
<path d="M386.792 523.165C386.792 524.067 386.285 524.48 385.963 524.542C385.944 524.435 385.931 524.283 385.925 524.068C385.921 523.891 385.922 523.711 385.923 523.506C385.924 523.4 385.925 523.287 385.925 523.165C385.925 523.042 385.924 522.929 385.923 522.823C385.922 522.618 385.921 522.438 385.925 522.261C385.931 522.046 385.944 521.894 385.963 521.787C386.285 521.849 386.792 522.263 386.792 523.165ZM385.997 524.674C385.997 524.674 385.997 524.673 385.997 524.672L385.997 524.674ZM385.997 521.655C385.997 521.655 385.997 521.656 385.997 521.657L385.997 521.655Z" fill="#C4C4C4" stroke="black" stroke-width="2"/>
<path d="M424.065 490.716C424.065 491.618 423.558 492.031 423.236 492.093C423.217 491.986 423.204 491.834 423.199 491.62C423.194 491.442 423.195 491.262 423.197 491.058C423.197 490.951 423.198 490.838 423.198 490.716C423.198 490.593 423.197 490.48 423.197 490.374C423.195 490.17 423.194 489.99 423.199 489.812C423.204 489.597 423.217 489.445 423.236 489.338C423.558 489.401 424.065 489.814 424.065 490.716ZM423.271 492.225C423.271 492.225 423.27 492.225 423.27 492.224L423.271 492.225ZM423.271 489.206C423.271 489.206 423.27 489.207 423.27 489.208L423.271 489.206Z" fill="#C4C4C4" stroke="black" stroke-width="2"/>
<path d="M432.667 280.751C432.667 281.653 432.16 282.066 431.838 282.128C431.819 282.021 431.806 281.869 431.8 281.654C431.796 281.477 431.797 281.297 431.798 281.093C431.799 280.986 431.8 280.873 431.8 280.751C431.8 280.628 431.799 280.515 431.798 280.409C431.797 280.204 431.796 280.024 431.8 279.847C431.806 279.632 431.819 279.48 431.838 279.373C432.16 279.436 432.667 279.849 432.667 280.751ZM431.872 282.26C431.872 282.26 431.872 282.26 431.872 282.259L431.872 282.26ZM431.872 279.241C431.872 279.241 431.872 279.242 431.872 279.243L431.872 279.241Z" fill="#C4C4C4" stroke="black" stroke-width="2"/>
<path d="M442.224 73.6491C442.224 74.5512 441.717 74.9642 441.395 75.0267C441.376 74.9194 441.363 74.7676 441.357 74.5529C441.353 74.3754 441.354 74.1954 441.355 73.991C441.356 73.8847 441.357 73.7718 441.357 73.6491C441.357 73.5265 441.356 73.4136 441.355 73.3073C441.354 73.1029 441.353 72.9229 441.357 72.7454C441.363 72.5307 441.376 72.3788 441.395 72.2716C441.717 72.3341 442.224 72.7471 442.224 73.6491ZM441.429 75.1586C441.429 75.1586 441.429 75.1581 441.429 75.157L441.429 75.1586ZM441.429 72.1397C441.429 72.1398 441.429 72.1403 441.429 72.1413L441.429 72.1397Z" fill="#C4C4C4" stroke="black" stroke-width="2"/>
<path d="M443.18 52.6527C443.18 53.5547 442.672 53.9678 442.351 54.0302C442.332 53.923 442.319 53.7712 442.313 53.5564C442.309 53.3789 442.31 53.199 442.311 52.9945C442.312 52.8882 442.313 52.7753 442.313 52.6527C442.313 52.53 442.312 52.4171 442.311 52.3109C442.31 52.1064 442.309 51.9265 442.313 51.749C442.319 51.5342 442.332 51.3824 442.351 51.2752C442.672 51.3376 443.18 51.7507 443.18 52.6527ZM442.385 54.1621C442.385 54.1621 442.385 54.1616 442.384 54.1606L442.385 54.1621ZM442.385 51.1433C442.385 51.1433 442.385 51.1438 442.384 51.1448L442.385 51.1433Z" fill="#C4C4C4" stroke="black" stroke-width="2"/>
<path d="M409.729 39.2912C409.729 40.1932 409.222 40.6063 408.9 40.6688C408.881 40.5615 408.868 40.4097 408.863 40.195C408.858 40.0175 408.859 39.8375 408.861 39.6331C408.861 39.5268 408.862 39.4139 408.862 39.2912C408.862 39.1686 408.861 39.0557 408.861 38.9494C408.859 38.7449 408.858 38.565 408.863 38.3875C408.868 38.1727 408.881 38.0209 408.9 37.9137C409.222 37.9762 409.729 38.3892 409.729 39.2912ZM408.935 40.8006C408.935 40.8007 408.934 40.8002 408.934 40.7991L408.935 40.8006ZM408.935 37.7818C408.935 37.7818 408.934 37.7824 408.934 37.7834L408.935 37.7818Z" fill="#C4C4C4" stroke="black" stroke-width="2"/>
<path d="M328.764 94.7064L330.745 94.7661L330.558 100.95C331.531 101.349 332.448 101.866 333.31 102.5C335.527 104.101 337.206 106.371 338.349 109.312C339.491 112.233 340.013 115.615 339.913 119.456L339.91 119.554L333.686 119.366C333.813 115.021 333.16 111.666 331.725 109.301C330.479 107.223 328.72 106.023 326.449 105.703L326.621 100.001C327.299 100.064 327.957 100.171 328.594 100.321L328.764 94.7064Z" fill="#5C5F75"/>
<path d="M317.787 102.059C318.695 101.469 319.65 101.002 320.653 100.658L320.84 94.4672L322.821 94.527L322.651 100.145C323.297 100.032 323.96 99.9638 324.64 99.9414L324.467 105.646C322.238 105.835 320.426 106.926 319.032 108.918C317.453 111.18 316.583 114.43 316.422 118.666L316.417 118.845L310.193 118.657C310.318 114.855 311.035 111.514 312.343 108.635C313.679 105.734 315.493 103.542 317.787 102.059Z" fill="#5C5F75"/>
<path d="M310.129 120.787L310.123 120.966C310.026 124.735 310.548 128.081 311.691 131.003C312.85 133.925 314.538 136.205 316.753 137.842C317.613 138.465 318.522 138.975 319.481 139.372L319.326 144.51L321.307 144.57L321.445 140.008C322.083 140.162 322.741 140.271 323.418 140.337L323.589 134.685C321.366 134.348 319.615 133.134 318.338 131.041C316.888 128.64 316.227 125.284 316.353 120.975L310.129 120.787Z" fill="#5C5F75"/>
<path d="M325.399 140.403L325.569 134.758C327.877 134.589 329.713 133.505 331.078 131.506C332.636 129.25 333.484 125.913 333.622 121.496L339.845 121.684C339.725 125.527 339.016 128.886 337.718 131.761C336.417 134.627 334.611 136.811 332.3 138.311C331.38 138.906 330.409 139.374 329.385 139.716L329.231 144.809L327.25 144.749L327.387 140.212C326.742 140.32 326.08 140.384 325.399 140.403Z" fill="#5C5F75"/>
<defs>
<linearGradient id="paint0_linear" x1="302.219" y1="14" x2="352.844" y2="538.062" gradientUnits="userSpaceOnUse">
<stop stop-color="#DDDDDD"/>
<stop offset="1" stop-color="#C6C6C6"/>
</linearGradient>
<linearGradient id="paint1_linear" x1="380.383" y1="14.4772" x2="380.383" y2="538.435" gradientUnits="userSpaceOnUse">
<stop stop-color="#CECECE"/>
<stop offset="1" stop-color="#AEAEAE"/>
</linearGradient>
<linearGradient id="paint2_linear" x1="413.833" y1="16.8633" x2="413.833" y2="538.435" gradientUnits="userSpaceOnUse">
<stop stop-color="#A3A3A3"/>
<stop offset="1" stop-color="#818181"/>
</linearGradient>
<clipPath id="clip0">
<rect width="591" height="591" fill="white"/>
</clipPath>
</defs>
</svg>
