<svg xmlns="http://www.w3.org/2000/svg" width="100%" height="100%" viewBox="0 0 389 364" clip-rule="evenodd" fill-rule="evenodd"><defs><linearGradient id="glkfwwlw0og9t50n04dn39ul" x1="0" y1="0" x2="1" y2="0" gradientUnits="userSpaceOnUse" gradientTransform="matrix(26 269.5 -269.5 26 184.2 49)"><stop offset="0" stop-color="#ddd"/><stop offset="1" stop-color="#c6c6c6"/></linearGradient><linearGradient id="u8cyonuuhbkzm0s7feigu2f5" x1="0" y1="0" x2="1" y2="0" gradientUnits="userSpaceOnUse" gradientTransform="matrix(0 269.5 -269.5 0 224.4 49.2)"><stop offset="0" stop-color="#cecece"/><stop offset="1" stop-color="#aeaeae"/></linearGradient><linearGradient id="hd36h2hf5m5uddr2vl5w9sv4" x1="0" y1="0" x2="1" y2="0" gradientUnits="userSpaceOnUse" gradientTransform="matrix(0 268.2 -268.2 0 241.6 50.4)"><stop offset="0" stop-color="#a3a3a3"/><stop offset="1" stop-color="#818181"/></linearGradient><radialGradient id="u2et7no0pgr4y23z9md0g1us" cx="0" cy="0" r="16.2" fx="0" fy="0" gradientUnits="userSpaceOnUse"><stop offset="0" stop-color="#1890ff"/><stop offset="1" stop-color="#fff" stop-opacity="0"/></radialGradient><linearGradient id="n8b2786onjz5gc7pe3h2caj0" x1="0" y1="0" x2="1" y2="0" gradientUnits="userSpaceOnUse" gradientTransform="matrix(0 34.4 -34.4 0 176.4 14.1)"><stop offset="0" stop-color="#69c0ff"/><stop offset="1" stop-color="#69c0ff" stop-opacity="0"/></linearGradient><linearGradient id="xqlshhzt44tmoedfmf49eb0i" x1="0" y1="0" x2="1" y2="0" gradientUnits="userSpaceOnUse" gradientTransform="matrix(0 34.4 -34.4 0 198.9 14.1)"><stop offset="0" stop-color="#69c0ff"/><stop offset="1" stop-color="#69c0ff" stop-opacity="0"/></linearGradient><linearGradient id="bow2c7di4hzt24ot8ojv1mfc" x1="0" y1="0" x2="1" y2="0" gradientUnits="userSpaceOnUse" gradientTransform="matrix(0 34.4 -34.4 0 186.7 20.4)"><stop offset="0" stop-color="#69c0ff"/><stop offset="1" stop-color="#69c0ff" stop-opacity="0"/></linearGradient><linearGradient id="bfjctdi5vjuugqtu2uc2xqrt" x1="0" y1="0" x2="1" y2="0" gradientUnits="userSpaceOnUse" gradientTransform="matrix(0 34.4 -34.4 0 209.1 20.4)"><stop offset="0" stop-color="#69c0ff"/><stop offset="1" stop-color="#69c0ff" stop-opacity="0"/></linearGradient><linearGradient id="fjc1eqxk9kr6nqm8daks539n" x1="0" y1="0" x2="1" y2="0" gradientUnits="userSpaceOnUse" gradientTransform="matrix(0 34.4 -34.4 0 220.3 14.1)"><stop offset="0" stop-color="#69c0ff"/><stop offset="1" stop-color="#69c0ff" stop-opacity="0"/></linearGradient><linearGradient id="jm19o2xz12g8acq441f9sqpa" x1="0" y1="0" x2="1" y2="0" gradientUnits="userSpaceOnUse" gradientTransform="matrix(0 34.4 -34.4 0 242.7 14.1)"><stop offset="0" stop-color="#69c0ff"/><stop offset="1" stop-color="#69c0ff" stop-opacity="0"/></linearGradient><linearGradient id="no1uu66j6fwxrgg4hm0uumi6" x1="0" y1="0" x2="1" y2="0" gradientUnits="userSpaceOnUse" gradientTransform="matrix(0 34.4 -34.4 0 230.6 20.4)"><stop offset="0" stop-color="#69c0ff"/><stop offset="1" stop-color="#69c0ff" stop-opacity="0"/></linearGradient><linearGradient id="uprd7b65j2b8ctkeeh3g2a64" x1="0" y1="0" x2="1" y2="0" gradientUnits="userSpaceOnUse" gradientTransform="matrix(0 34.4 -34.4 0 253 20.4)"><stop offset="0" stop-color="#69c0ff"/><stop offset="1" stop-color="#69c0ff" stop-opacity="0"/></linearGradient><linearGradient id="dkbe2duj5ggjehq1sxmp3b6h" x1="0" y1="0" x2="1" y2="0" gradientUnits="userSpaceOnUse" gradientTransform="matrix(-98.1 0 0 -98.1 257.4 208.5)"><stop offset="0" stop-color="#5c5c5c"/><stop offset="1" stop-color="#c8c8c8"/></linearGradient><linearGradient id="vmeqjtq091z720cpgx1ku063" x1="0" y1="0" x2="1" y2="0" gradientUnits="userSpaceOnUse" gradientTransform="matrix(-22.2 -1.3 1.3 -22.2 200.9 167)"><stop offset="0" stop-color="#3818ff"/><stop offset=".2" stop-color="#896bff"/><stop offset=".5" stop-color="#3e1cc5"/><stop offset=".8" stop-color="#4966ff"/><stop offset="1" stop-color="#18acff"/></linearGradient><linearGradient id="hk41l89a3dh28d5ykudxuqpe" x1="0" y1="0" x2="1" y2="0" gradientUnits="userSpaceOnUse" gradientTransform="matrix(-17.9 -1.2 1.2 -17.9 201.9 99.3)"><stop offset="0" stop-color="#bdbdbd"/><stop offset=".2" stop-color="#a5a5a5"/><stop offset=".5" stop-color="#ddd"/><stop offset=".9" stop-color="#c6c6c6"/><stop offset="1" stop-color="#eaeaea"/></linearGradient><linearGradient id="yrpt35kz9ss2rvhfwz4rb37h" x1="0" y1="0" x2="1" y2="0" gradientUnits="userSpaceOnUse" gradientTransform="matrix(17.9 1.3 -1.3 17.9 175.3 264.8)"><stop offset="0" stop-color="#bdbdbd"/><stop offset=".2" stop-color="#a5a5a5"/><stop offset=".5" stop-color="#ddd"/><stop offset=".9" stop-color="#c6c6c6"/><stop offset="1" stop-color="#eaeaea"/></linearGradient><clipPath id="ClipPath-1"><path d="M165.5 51.9l71.2-2.9l32.3 17.2v-66.2h-103.5"/></clipPath><clipPath id="ClipPath-2"><path d="M10.7 107.4h-0.1c-4.7 1.6-16.6 4.5-26.3 3.3c-5.3-0.6-10.1-2-14.2-3c-0.6-0.2-1.3-0.4-1.9-0.6c-2.1-0.5-4-1-5.5-1.1c-0.7-0.1-1.4-0.1-2 0c-0.6 .1-1.1 .4-1.4 .8c-0.8 1-1.5 1.4-2.1 1.5c-0.3 .1-0.6 .1-0.7 0c-0.1 0-0.1 0-0.1 0l8.9-189l4.2-3.9c1.1-1 3.2-2.1 5.7-2.4c2.5-0.3 5.3 .1 7.9 2.4c1.8 1.5 4.8 2.8 8.3 3.8c3.5 1 7.5 1.7 11.3 2.1c3.8 .4 7.6 .5 10.4 .2c1.5-0.1 2.7-0.4 3.7-0.7c1-0.3 1.8-0.8 2.1-1.5c.4-0.8 1.3-1.4 2.5-1.6c1.2-0.3 2.6-0.3 4 0c1.4 .2 2.8 .7 3.7 1.3c1.1 .7 1.6 1.3 1.6 1.9c0 .3 .2 .5 .3 .8c.2 .2 .4 .5 .6 .7c.5 .5 1.2 1.1 2 1.6c1.6 1.2 3.9 2.4 6.3 3.7c4.7 2.6 10.3 5.1 14 6.8l-7.6 170.1c-1.1 .7-3 1.8-5.3 2.6c-2.4 .8-5.1 1.3-7.4 1c-4.9-0.9-9.2-1.4-10.8-1.6l-12.1 .8Z" fill-rule="nonzero"/></clipPath></defs><style>
@keyframes rx401a6ccv7d5km0j2jkg11s_o { 0% { opacity: 1; } 5.833% { opacity: 1; animation-timing-function: cubic-bezier(0,0,.6,1); } 14.167% { opacity: 0; } 91.667% { opacity: 0; animation-timing-function: cubic-bezier(0,0,.6,1); } 100% { opacity: 1; } }
@keyframes iazt9xpfygitqtw5cgolftm6_o { 0% { opacity: 0; } 5.833% { opacity: 0; animation-timing-function: cubic-bezier(0,0,.6,1); } 14.167% { opacity: .8; } 91.667% { opacity: .8; animation-timing-function: cubic-bezier(0,0,.6,1); } 100% { opacity: 0; } }
@keyframes x501e0r3o2f9a2egp8iwwscs_o { 0% { opacity: 0; } 5.833% { opacity: 0; animation-timing-function: cubic-bezier(0,0,.6,1); } 14.167% { opacity: 1; } 91.667% { opacity: 1; animation-timing-function: cubic-bezier(0,0,.6,1); } 100% { opacity: 0; } }
@keyframes pxcfrphm197awel4y9jcoi3n_o { 0% { opacity: 0; animation-timing-function: cubic-bezier(0,0,.6,1); } 1.667% { opacity: 1; animation-timing-function: cubic-bezier(0,0,.6,1); } 13.333% { opacity: 1; animation-timing-function: cubic-bezier(0,0,.6,1); } 16.667% { opacity: 0; } 100% { opacity: 0; } }
@keyframes oj00e4lpyq2q57kpfx2kwrq9_t { 0% { transform: translate(-17.6px,-66.2px); animation-timing-function: cubic-bezier(.4,0,1,1); } 16.667% { transform: translate(67.4px,-93.2px); } 100% { transform: translate(67.4px,-93.2px); } }
@keyframes jvmdqotah1je17q8nbx8f6bk_t { 0% { transform: translate(-17.6px,-66.2px); animation-timing-function: cubic-bezier(.4,0,1,1); } 16.667% { transform: translate(113.3px,26.8px); } 100% { transform: translate(113.3px,26.8px); } }
@keyframes x0tnu8t7yeh0xj36f4vuaahw_t { 0% { transform: translate(-17.6px,-66.2px); animation-timing-function: cubic-bezier(.4,0,1,1); } 16.667% { transform: translate(-117.6px,12.8px); } 100% { transform: translate(-117.6px,12.8px); } }
@keyframes rpemwtso864alcsrbz9pkxsu_t { 0% { transform: translate(-17.6px,-66.2px); animation-timing-function: cubic-bezier(.4,0,1,1); } 16.667% { transform: translate(132.4px,116.8px); } 100% { transform: translate(132.4px,116.8px); } }
@keyframes nbg0ht3cnnl47nxvx6iotbol_t { 0% { transform: translate(66.6px,-67.2px); animation-timing-function: cubic-bezier(.4,0,1,1); } 16.667% { transform: translate(-98.5px,-53.2px); } 100% { transform: translate(-98.5px,-53.2px); } }
@keyframes qjbvjshhc5bhtcq0urvn7a71_t { 0% { transform: translate(-17.6px,-66.2px); animation-timing-function: cubic-bezier(.4,0,1,1); } 16.667% { transform: translate(87.5px,183.8px); } 100% { transform: translate(87.5px,183.8px); } }
@keyframes s25oskbiqspx8smvit1o0dv6_t { 0% { transform: translate(-72.4px,-11.5px); animation-timing-function: cubic-bezier(.4,0,1,1); } 16.667% { transform: translate(-153.4px,-13.5px); } 100% { transform: translate(-153.4px,-13.5px); } }
@keyframes d7gfgjgbdjren97qyj7k0cfs_t { 0% { transform: translate(-45.6px,-65.6px); animation-timing-function: cubic-bezier(.4,0,1,1); } 16.667% { transform: translate(123.5px,-35.1px); } 100% { transform: translate(123.5px,-35.1px); } }
@keyframes bj1k63tv7ux7ah0pzxp0z3g6_t { 0% { transform: translate(167.9px,60px); } 64.167% { transform: translate(167.9px,60px); animation-timing-function: cubic-bezier(0,0,.6,1); } 75.833% { transform: translate(169.9px,1px); animation-timing-function: steps(1); } 82.5% { transform: translate(167.9px,60px); animation-timing-function: cubic-bezier(0,0,.6,1); } 91.667% { transform: translate(169.9px,1px); animation-timing-function: steps(1); } 100% { transform: translate(169.9px,1px); } }
@keyframes bj1k63tv7ux7ah0pzxp0z3g6_o { 0% { opacity: 1; } 64.167% { opacity: 1; animation-timing-function: cubic-bezier(.4,0,.6,1); } 75.833% { opacity: 0; animation-timing-function: steps(1); } 82.5% { opacity: 1; animation-timing-function: cubic-bezier(.4,0,.6,1); } 91.667% { opacity: 0; animation-timing-function: steps(1); } 100% { opacity: 0; } }
@keyframes cso0v08ovicro6mfkc7f9x7s_o { 0% { opacity: 0; } 24.167% { opacity: 0; animation-timing-function: cubic-bezier(.4,0,.6,1); } 29.167% { opacity: 1; } 58.333% { opacity: 1; animation-timing-function: cubic-bezier(.4,0,1,1); } 64.167% { opacity: 0; } 100% { opacity: 0; } }
@keyframes iwoonftszvfboa0bt8hh6r1n_t { 0% { transform: translate(-357px,-11.6px); } 28.333% { transform: translate(-357px,-11.6px); } 58.333% { transform: translate(-335px,-380.5px); } 100% { transform: translate(-335px,-380.5px); } }
@keyframes iwoonftszvfboa0bt8hh6r1n_o { 0% { opacity: 1; } 52.5% { opacity: 1; animation-timing-function: cubic-bezier(0,0,.6,1); } 54.167% { opacity: 0; } 100% { opacity: 0; } }
@keyframes uvw1iurhsygsols8eh225ugw_t { 0% { transform: translate(-211.2px,-37.4px); } 28.333% { transform: translate(-211.2px,-37.4px); } 58.333% { transform: translate(-189.2px,-406.4px); } 100% { transform: translate(-189.2px,-406.4px); } }
@keyframes uvw1iurhsygsols8eh225ugw_o { 0% { opacity: 1; } 46.667% { opacity: 1; animation-timing-function: cubic-bezier(0,0,.6,1); } 48.333% { opacity: 0; } 100% { opacity: 0; } }
@keyframes z854mcb1ji0ikrhjc9bu75ax_t { 0% { transform: translate(-211.2px,-37.4px); } 28.333% { transform: translate(-211.2px,-37.4px); } 58.333% { transform: translate(-189.2px,-406.4px); } 100% { transform: translate(-189.2px,-406.4px); } }
@keyframes z854mcb1ji0ikrhjc9bu75ax_o { 0% { opacity: 1; } 42.5% { opacity: 1; animation-timing-function: cubic-bezier(0,0,.6,1); } 44.167% { opacity: 0; } 100% { opacity: 0; } }
</style><title>iBact</title><g><path d="M191.6 316.7l-0.8 3.2l2.2 15.2l62.8 5.6l-1.4-14.7l-7.7-14.7l-8.8 1.5l-2.5 4.6l-11.5 1.3l-11.6-0.3l-20.7-1.7Z" fill="#bfbfbf" fill-rule="nonzero" stroke="#000" stroke-width="1px"/><path d="M212.7 318.7c0 1.2 .9 4.2 2.4 6.3c1.8 2.4 3.2 3.6 5.9 4.5c1.8 .5 3.9 .6 4.7 .4c.9-0.1 2.2-0.4 3.2-1.2c1-0.8 1.5-1.5 2-2.7c.6-1.4 .5-2.4 .5-3.9c-0.1-1.7-0.8-4.2-0.8-4.2l-6.6 .8l-11.3-0.3v.3Z" fill="#d9ecf1" fill-rule="nonzero" stroke="#000" stroke-width="1px"/><path d="M255 326l-7.9-14.7l-1 .2l7.9 14.8l1 14.2l1.2 .2l-1.2-14.7Z" fill="none" stroke="#000" stroke-width="1px"/><path d="M193 335.1l-40.5 12.3c-0.8 .3-2.1 1.2-0.8 2.2c1.4 1 3.2 1.4 4 1.5l39 4.6c6.7 .5 16.8 .8 24.1-1.5c3.4-1 26.2-9.3 37.4-13v-0.5l-63.2-5.6Z" fill="#d9d9d9" fill-rule="nonzero" stroke="#000" stroke-width="1px"/><path d="M151.2 349.1v1.5c1.4 .9 3.7 1.8 4.5 1.9l39 4.7c6.7 .5 16.8 .7 24.1-1.5c3.4-1 26.2-9.3 37.4-13v-2" fill="none" stroke="#000" stroke-width="1px"/><path d="M169.7 52.9l3.4-1.7v.7h.3l-12.4 262.3l-3.4-1.4l12.1-259.9Z" fill="#f5f5f5" fill-rule="nonzero"/><path d="M169.7 52.9l-0.2-0.5l-0.3 .2v.3h.5Zm3.4-1.7h.5l-0.7-0.5l.2 .5Zm0 .7h-0.5v.5h.5v-0.5Zm.3 0h.5v-0.5h-0.5v.5Zm-12.4 262.3l-0.2 .5c.1 .1 .3 .1 .4 0c.2-0.1 .3-0.3 .3-0.4l-0.5-0.1Zm-3.4-1.4l-0.5-0.1v.4l.3 .1l.2-0.4Zm12.3-259.5l3.5-1.7l-0.5-0.9l-3.4 1.7l.4 .9Zm2.7-2.1v.7h1v-0.7h-1Zm.5 1.2h.3v-1h-0.3v1Zm-0.2-0.5l-12.4 262.3l1 .1l12.4-262.4h-1Zm-11.7 261.9l-3.4-1.5l-0.4 .9l3.4 1.5l.4-0.9Zm-3-1l12-259.9h-1l-12.1 259.8l1.1 .1Z" fill-rule="nonzero"/><path d="M223.7 49.9v-0.9l-50.3 2.2l-12.3 263l51.3 4.2l11.3-268.5Z" fill="url(#glkfwwlw0og9t50n04dn39ul)" fill-rule="nonzero" stroke="#000" stroke-width="1px"/><path d="M224.7 49.2v1h-1l-11.3 268.2l11.6 .3l12.3-268.5l-11.6-1Z" fill="url(#u8cyonuuhbkzm0s7feigu2f5)" fill-rule="nonzero" stroke="#000" stroke-width="1px"/><path d="M236.3 50.4l11 4.4l1.8 4.9l10 4l-11 247.4l-10.3 1.7l-2.3 4.6l-11.5 1.3l12.3-268.3Z" fill="url(#hd36h2hf5m5uddr2vl5w9sv4)" fill-rule="nonzero" stroke="#000" stroke-width="1px"/><path d="M227.7 310.8c0 .5-0.3 .7-0.5 .7c0 0 0-0.1 0-0.2c0-0.1 0-0.2 0-0.3c0-0.1 0-0.1 0-0.2c0-0.1 0-0.1 0-0.2c0-0.1 0-0.2 0-0.3c0-0.1 0-0.1 0-0.2c.2 0 .5 .2 .5 .7Zm-0.5 .8c0 0 0 0 0 0Zm0-1.6c0 0 0 0 0 0Z" fill="#c4c4c4" fill-rule="nonzero" stroke="#000" stroke-width="1px"/><path d="M246.8 294.1c0 .5-0.2 .7-0.4 .7c0 0 0-0.1 0-0.2c0-0.1 0-0.2 0-0.3c0-0.1 0-0.1 0-0.2c0 0 0-0.1 0-0.2c0-0.1 0-0.2 0-0.2c0-0.2 0-0.2 0-0.3c.2 0 .4 .3 .4 .7Zm-0.4 .8Zm0-1.6Z" fill="#c4c4c4" fill-rule="nonzero" stroke="#000" stroke-width="1px"/><path d="M251.2 186.1c.1 .5-0.2 .7-0.4 .7c0 0 0-0.1 0-0.2c0-0.1 0-0.2 0-0.3c0 0 0-0.1 0-0.2c0 0 0-0.1 0-0.1c0-0.1 0-0.2 0-0.3c0-0.1 0-0.2 0-0.3c.2 .1 .5 .3 .5 .7Zm-0.4 .8Zm0-1.5c0 0 0 0 0 0Z" fill="#c4c4c4" fill-rule="nonzero" stroke="#000" stroke-width="1px"/><path d="M256.2 79.6c0 .5-0.3 .7-0.5 .7c0 0 0-0.1 0-0.2c0-0.1 0-0.2 0-0.3c0-0.1 0-0.1 0-0.2c0 0 0-0.1 0-0.1c0-0.2 0-0.2 0-0.3c0-0.1 0-0.2 0-0.3c.2 .1 .5 .3 .5 .7Zm-0.4 .8c0 0 0 0 0 0Zm0-1.5c0 0 0 0 0 0Z" fill="#c4c4c4" fill-rule="nonzero" stroke="#000" stroke-width="1px"/><path d="M256.7 68.8c0 .5-0.3 .7-0.5 .7c0 0 0-0.1 0-0.2c0-0.1 0-0.2 0-0.3c0 0 0-0.1 0-0.2c0 0 0-0.1 0-0.1c0-0.2 0-0.2 0-0.3c0-0.1 0-0.2 0-0.3c.2 .1 .5 .3 .5 .7Zm-0.5 .8c0 0 0 0 0 0Zm0-1.5c0 0 0 0 0 0Z" fill="#c4c4c4" fill-rule="nonzero" stroke="#000" stroke-width="1px"/><path d="M239.5 62c0 .4-0.3 .6-0.5 .7c0-0.1 0-0.2 0-0.3c0-0.1 0-0.2 0-0.3c0 0 0-0.1 0-0.1c0-0.1 0-0.2 0-0.2c0-0.1 0-0.2 0-0.3c0-0.1 0-0.2 0-0.3c.2 .1 .5 .3 .5 .8Zm-0.5 .7c0 0 0 0 0 0Zm0-1.5c0 0 0 0 0 0Z" fill="#c4c4c4" fill-rule="nonzero" stroke="#000" stroke-width="1px"/></g><path d="M195.8 114l.1-2.8c1.2-0.1 2.1-0.6 2.8-1.6c.7-1.1 1.2-2.8 1.2-5l3.1 .1c0 1.9-0.4 3.6-1 5c-0.7 1.5-1.6 2.5-2.7 3.3c-0.5 .3-1 .5-1.5 .7l-0.1 2.5h-0.9v-2.3c-0.3 .1-0.6 .1-1 .1Zm-7.6-9.7c0 1.9 .2 3.6 .8 5c.6 1.5 1.4 2.6 2.5 3.5c.5 .3 .9 .5 1.4 .7l-0.1 2.6h1l.1-2.3c.3 .1 .6 .2 .9 .2l.1-2.8c-1.1-0.2-1.9-0.8-2.6-1.8c-0.7-1.2-1-2.9-1-5l-3.1-0.1Zm9.3-13h1l-0.1 3.1c.5 .2 .9 .4 1.4 .7c1.1 .8 1.9 2 2.5 3.4c.6 1.5 .8 3.2 .8 5.1l-3.1-0.1c0-2.1-0.3-3.8-1-5c-0.6-1-1.5-1.6-2.6-1.8v-2.8c.4 0 .7 .1 1 .2l.1-2.8Zm-5.5 3.6c.5-0.3 1-0.5 1.5-0.7l.1-3.1l1 .1l-0.1 2.8c.3-0.1 .6-0.1 1-0.1l-0.1 2.8c-1.1 .1-2 .7-2.7 1.6c-0.8 1.2-1.3 2.8-1.3 4.9v.1l-3.1-0.1c0-1.9 .4-3.6 1-5c.7-1.4 1.6-2.5 2.7-3.3Z" fill="#5c5f75" fill-rule="nonzero" transform="translate(0,0)" style="animation: 12s linear infinite both rx401a6ccv7d5km0j2jkg11s_o;"/><ellipse rx="9.9" ry="16.2" fill="url(#u2et7no0pgr4y23z9md0g1us)" opacity="0" transform="translate(196.1,104) rotate(2) scale(1.022,.968)" style="animation: 12s linear infinite both iazt9xpfygitqtw5cgolftm6_o;"/><path d="M195.7 113.7l.1-2.8c1.1 0 2-0.6 2.7-1.5c.7-1.1 1.1-2.8 1.2-4.9l3 .1c0 1.8-0.4 3.5-1 4.9c-0.6 1.4-1.5 2.4-2.7 3.2c-0.4 .3-0.9 .5-1.4 .7v2.4h-1l.1-2.2c-0.4 .1-0.7 .1-1 .1Zm-7.5-9.6v.1c0 1.9 .2 3.5 .8 4.9c.6 1.4 1.4 2.6 2.5 3.3c.4 .4 .8 .6 1.3 .8l-0.1 2.5h1l.1-2.2c.3 .1 .6 .1 .9 .2l.1-2.8c-1.1-0.2-1.9-0.7-2.6-1.8c-0.7-1.1-1-2.8-0.9-4.9l-3.1-0.1Zm9.1-12.7h1l-0.1 3.1c.5 .2 .9 .4 1.3 .7c1.1 .8 1.9 1.9 2.5 3.3c.6 1.5 .8 3.1 .8 5l-3.1-0.1c.1-2.1-0.2-3.7-0.9-4.9c-0.6-1-1.5-1.6-2.6-1.7l.1-2.8c.3 0 .6 .1 .9 .2l.1-2.8Zm-5.3 3.6c.4-0.3 .9-0.5 1.4-0.7l.1-3h.9l-0.1 2.8c.4-0.1 .7-0.1 1-0.1l-0.1 2.7c-1.1 .1-1.9 .7-2.6 1.6c-0.8 1.1-1.2 2.7-1.3 4.8v.1l-3-0.1c0-1.9 .4-3.5 1-4.9c.7-1.4 1.6-2.5 2.7-3.2Z" fill="#1890ff" fill-rule="nonzero" opacity="0" style="animation: 12s linear infinite both x501e0r3o2f9a2egp8iwwscs_o;"/><g opacity="0" transform="translate(17.6,66.2)" style="animation: 12s linear infinite both pxcfrphm197awel4y9jcoi3n_o;"><path d="M119.9 348.9c.2 .3 .5 .5 .8 .6c.4 .1 .8 .1 1.1 0c.3-0.1 .6-0.3 .8-0.6c.2-0.3 .4-0.6 .4-1c0-0.4-0.2-0.7-0.4-1c-0.2-0.3-0.5-0.5-0.8-0.6c-0.3-0.1-0.7-0.1-1 0c-0.4 .1-0.7 .3-0.9 .6l-1.3-0.1c-0.1-0.7-0.3-1.5-0.6-2.2l1.1-0.7c.3 .2 .7 .2 1 .1c.4-0.1 .7-0.2 .9-0.5c.3-0.3 .4-0.6 .5-1c0-0.3-0.1-0.7-0.3-1c-0.1-0.3-0.4-0.6-0.7-0.7c-0.4-0.1-0.7-0.2-1.1-0.1c-0.3 .1-0.6 .2-0.9 .5c-0.2 .3-0.4 .6-0.4 .9l-1.2 .6c-0.4-0.6-1-1.1-1.6-1.6l.6-1.1c.4-0.1 .7-0.2 1-0.5c.2-0.2 .4-0.5 .5-0.9c0-0.3 0-0.7-0.1-1c-0.2-0.3-0.4-0.6-0.7-0.8c-0.4-0.2-0.7-0.2-1.1-0.2c-0.3 0-0.7 .2-0.9 .4c-0.3 .3-0.5 .6-0.6 .9c0 .4 0 .7 .1 1.1l-0.7 1c-0.7-0.3-1.4-0.5-2.1-0.5l-0.1-1.3c.3-0.2 .5-0.5 .6-0.9c.1-0.3 .1-0.7 0-1c-0.1-0.4-0.4-0.7-0.6-0.9c-0.3-0.2-0.7-0.3-1-0.3c-0.4 0-0.7 .1-1 .3c-0.3 .2-0.5 .5-0.7 .9c-0.1 .3-0.1 .7 0 1c.1 .4 .3 .7 .6 .9v1.3c-0.8 0-1.5 .2-2.2 .5l-0.7-1c.1-0.4 .2-0.7 .1-1.1c-0.1-0.3-0.3-0.6-0.6-0.9c-0.2-0.2-0.6-0.4-0.9-0.4c-0.4 0-0.7 0-1 .2c-0.3 .2-0.6 .5-0.7 .8c-0.2 .3-0.2 .7-0.2 1c.1 .4 .3 .7 .5 .9c.3 .3 .6 .4 1 .5l.6 1.1c-0.6 .5-1.2 1-1.6 1.6l-1.2-0.6c0-0.3-0.2-0.6-0.4-0.9c-0.2-0.3-0.6-0.4-0.9-0.5c-0.4-0.1-0.7 0-1.1 .1c-0.3 .1-0.5 .4-0.7 .7c-0.2 .3-0.3 .7-0.2 1c0 .4 .1 .7 .4 1c.2 .3 .5 .4 .9 .5c.3 .1 .7 .1 1-0.1l1.1 .7c-0.3 .7-0.5 1.5-0.6 2.2l-1.3 .1c-0.2-0.3-0.5-0.5-0.8-0.6c-0.4-0.1-0.7-0.1-1.1 0c-0.3 .1-0.6 .3-0.8 .6c-0.2 .3-0.3 .6-0.3 1c0 .4 .1 .7 .3 1c.2 .3 .5 .5 .8 .6c.4 .1 .7 .1 1.1 0c.3-0.1 .6-0.3 .8-0.6l1.3 .1c.1 .8 .3 1.5 .6 2.2l-1.1 .7c-0.2-0.1-0.5-0.2-0.7-0.2c-0.3 .1-0.5 .1-0.7 .2c-0.3 .2-0.5 .3-0.6 .5c-0.2 .2-0.3 .5-0.3 .7c-0.1 .3-0.1 .5 0 .8c.1 .2 .2 .4 .3 .6c.2 .2 .4 .4 .6 .5c.3 .1 .5 .2 .8 .2c.3 0 .5-0.1 .8-0.3c.2-0.1 .4-0.3 .6-0.5c.1-0.2 .2-0.5 .2-0.7l1.2-0.6c.4 .6 1 1.1 1.6 1.6l-0.6 1.1c-0.4 .1-0.7 .2-1 .5c-0.2 .2-0.4 .5-0.5 .9c0 .3 0 .7 .2 1c.1 .3 .4 .6 .7 .8c.3 .2 .6 .2 1 .2c.3 0 .7-0.2 .9-0.4c.3-0.2 .5-0.6 .6-0.9c.1-0.4 0-0.7-0.1-1.1l.7-1c.7 .3 1.4 .5 2.2 .6v1.2c-0.3 .2-0.5 .6-0.6 .9c-0.1 .3-0.1 .7 0 1c.2 .4 .4 .7 .7 .9c.3 .2 .6 .3 1 .3c.3 0 .7-0.1 1-0.3c.2-0.2 .5-0.5 .6-0.9c.1-0.3 .1-0.7 0-1c-0.1-0.3-0.3-0.6-0.6-0.9l.1-1.2c.7-0.1 1.4-0.3 2.1-0.6l.7 1c-0.1 .4-0.1 .7-0.1 1.1c.1 .3 .3 .7 .6 .9c.2 .2 .6 .4 .9 .4c.4 0 .7 0 1.1-0.2c.3-0.2 .5-0.5 .7-0.8c.1-0.3 .1-0.7 .1-1c-0.1-0.4-0.3-0.7-0.5-0.9c-0.3-0.3-0.6-0.4-1-0.5l-0.6-1.1c.6-0.5 1.2-1 1.6-1.6l1.2 .6c0 .2 .1 .5 .2 .7c.2 .2 .4 .4 .6 .5c.3 .2 .6 .3 .9 .3c.2 0 .5-0.1 .7-0.2c.2-0.1 .4-0.3 .6-0.5c.1-0.2 .3-0.4 .3-0.6c.1-0.3 .1-0.5 0-0.8c0-0.2-0.1-0.5-0.3-0.7c-0.1-0.2-0.3-0.3-0.5-0.5c-0.3-0.1-0.5-0.1-0.8-0.2c-0.2 0-0.5 .1-0.7 .2l-1.1-0.7c.3-0.7 .5-1.4 .6-2.2l1.3-0.1Zm-2.5 .2h.3c0 .5-0.2 1.1-0.4 1.6l-0.3-0.2c0 0-0.1-0.1-0.1-0.1c-0.1 0-0.1 0-0.2 0c-0.1 0-0.1 .1-0.2 .1c0 0 0 .1-0.1 .1c0 .1-0.1 .2 0 .3c0 .2 .1 .2 .2 .3l2.2 1.5c.1 .1 .2 .1 .3 .1c.1 0 .1 0 .2-0.1c.1-0.1 .3-0.1 .5-0.1c.1 0 .3 0 .4 .1c.2 .1 .3 .3 .4 .5c0 .2 0 .5-0.1 .7c-0.1 .1-0.1 .2-0.2 .2c-0.1 .1-0.2 .1-0.3 .2c-0.1 0-0.3 0-0.4 0c-0.1 0-0.3-0.1-0.4-0.2c-0.1-0.1-0.2-0.2-0.2-0.3c-0.1-0.1-0.1-0.3-0.1-0.4c0-0.1 0-0.1 0-0.2c-0.1-0.1-0.1-0.1-0.2-0.2l-2.5-1.2c0 0-0.1-0.1-0.1-0.1c-0.1 0-0.2 0-0.2 .1c-0.1 0-0.1 0-0.1 0c-0.1 .1-0.1 .1-0.2 .2c0 0 0 .1 0 .1c0 .1 0 .1 0 .2c0 0 .1 .1 .1 .1c0 .1 .1 .1 .1 .1l.3 .2c-0.3 .4-0.7 .8-1.1 1.2l-0.2-0.3c0-0.1-0.1-0.2-0.2-0.2c-0.2-0.1-0.3-0.1-0.4 0c-0.1 0-0.2 .1-0.2 .2c0 .1 0 .3 0 .4l1.3 2.4c0 .1 .1 .2 .1 .2c.1 0 .2 .1 .3 .1c.2-0.1 .4 0 .5 .1c.2 .1 .3 .3 .3 .5c.1 .2 .1 .4 0 .5c-0.1 .2-0.2 .4-0.4 .4c-0.2 .2-0.4 .2-0.6 .1c-0.2 0-0.4-0.2-0.5-0.4c-0.1-0.1-0.2-0.3-0.1-0.4c0-0.2 0-0.3 .1-0.4c0-0.1 .1-0.2 .1-0.3c0-0.1-0.1-0.1-0.1-0.2l-1.5-2.3c-0.1-0.1-0.2-0.2-0.3-0.2c-0.1 0-0.2 0-0.3 .1c-0.1 0-0.1 0-0.1 .1c-0.1 0-0.1 .1-0.1 .1c0 .1 0 .2 0 .2c0 .1 0 .1 .1 .2l.1 .2c-0.5 .3-1 .4-1.6 .5v-0.4c0 0 0-0.1 0-0.1c0-0.1 0-0.1-0.1-0.2c0 0 0 0-0.1-0.1c0 0-0.1 0-0.2 0c0 0-0.1 0-0.1 0c-0.1 0-0.1 .1-0.2 .1c0 0 0 .1-0.1 .1c0 .1 0 .1 0 .2l-0.2 2.7c0 .1 0 .2 .1 .3c0 0 .1 .1 .2 .1c.1 .1 .2 .2 .3 .4c.1 .1 .1 .2 .1 .4c0 .2-0.1 .4-0.2 .6c-0.2 .2-0.4 .2-0.6 .2c-0.3 0-0.5 0-0.6-0.2c-0.2-0.2-0.3-0.4-0.3-0.6c0-0.2 0-0.3 .1-0.4c.1-0.2 .2-0.3 .4-0.4c0 0 .1-0.1 .1-0.1c.1-0.1 .1-0.2 .1-0.3l-0.2-2.7c0-0.1 0-0.1 0-0.2c0 0-0.1-0.1-0.1-0.1c-0.1 0-0.1-0.1-0.2-0.1c0 0-0.1 0-0.1 0c-0.1 0-0.1 0-0.2 0c0 .1-0.1 .1-0.1 .1c-0.1 .1-0.1 .1-0.1 .2c0 0 0 .1 0 .1v.4c-0.6-0.1-1.1-0.2-1.6-0.5l.2-0.2c0-0.1 0-0.1 0-0.2c0 0 0-0.1 0-0.2c0 0 0-0.1 0-0.1c-0.1-0.1-0.1-0.1-0.2-0.1c-0.1-0.1-0.2-0.1-0.3-0.1c-0.1 0-0.2 .1-0.3 .2l-1.5 2.3c0 .1 0 .1 0 .2c0 .1 0 .2 0 .3c.1 .1 .2 .2 .2 .4c0 .1-0.1 .3-0.1 .4c-0.2 .2-0.3 .4-0.6 .4c-0.2 .1-0.4 .1-0.6-0.1c-0.1 0-0.2-0.1-0.3-0.2c0-0.1-0.1-0.2-0.1-0.3c0-0.1 0-0.2 0-0.4c0-0.1 .1-0.2 .1-0.3c.1-0.1 .2-0.2 .4-0.3c.1 0 .2 0 .3 0c.1 0 .2-0.1 .3-0.1c.1 0 .1-0.1 .1-0.2l1.3-2.4c0-0.1 0-0.1 0-0.2c0-0.1 0-0.1 0-0.2c0 0 0-0.1-0.1-0.1c0 0-0.1-0.1-0.1-0.1c-0.1 0-0.1-0.1-0.2-0.1c0 0-0.1 0-0.1 .1c-0.1 0-0.1 0-0.2 0c0 .1-0.1 .1-0.1 .2l-0.1 .3c-0.5-0.4-0.9-0.8-1.2-1.2l.3-0.2c0 0 .1 0 .1-0.1c0 0 .1-0.1 .1-0.1c0-0.1 0-0.1 0-0.2c0 0 0-0.1 0-0.1c-0.1-0.1-0.1-0.1-0.1-0.2c-0.1 0-0.1 0-0.2 0c0-0.1-0.1-0.1-0.1-0.1c-0.1 0-0.2 .1-0.2 .1l-2.5 1.2c0 .1-0.1 .1-0.1 .2c-0.1 .1-0.1 .1-0.1 .2c0 .2 0 .4-0.2 .5c-0.1 .2-0.2 .3-0.4 .4c-0.2 0-0.4 0-0.6-0.1c-0.1 0-0.3-0.2-0.4-0.3c-0.1-0.2-0.1-0.5-0.1-0.7c.1-0.2 .2-0.4 .4-0.5c.2-0.1 .3-0.1 .5-0.1c.1 0 .3 0 .4 .1c.1 .1 .2 .1 .2 .1c.1 0 .2 0 .3-0.1l2.3-1.5c.1 0 .1-0.1 .2-0.3c0-0.1 0-0.2-0.1-0.3c0 0-0.1-0.1-0.1-0.1c-0.1 0-0.1-0.1-0.2-0.1c0 0-0.1 0-0.1 0c-0.1 0-0.2 .1-0.2 .1l-0.3 .2c-0.2-0.5-0.3-1.1-0.4-1.6h.3c.1 0 .2 0 .3-0.1c.1-0.1 .2-0.2 .2-0.3c0-0.1-0.1-0.2-0.1-0.3c-0.1-0.1-0.2-0.2-0.3-0.2l-2.8-0.1c-0.1 0-0.1 0-0.2 0c-0.1 .1-0.1 .1-0.2 .2c-0.1 .1-0.2 .3-0.3 .3c-0.1 .1-0.3 .2-0.4 .2c-0.3 0-0.5-0.1-0.6-0.3c-0.2-0.2-0.3-0.4-0.3-0.6c0-0.2 .1-0.4 .3-0.6c.1-0.2 .3-0.3 .6-0.3c.1 0 .3 .1 .4 .2c.1 .1 .2 .2 .3 .3c.1 .1 .1 .1 .2 .2c.1 0 .1 0 .2 0l2.8-0.1c0 0 .1 0 .1-0.1c.1 0 .1 0 .2-0.1c0 0 0-0.1 0-0.1c.1-0.1 .1-0.1 .1-0.2c0 0 0-0.1-0.1-0.1c0-0.1 0-0.1-0.1-0.2c0 0-0.1 0-0.1-0.1c-0.1 0-0.1 0-0.2 0h-0.3c.1-0.5 .2-1.1 .4-1.6l.3 .2c.1 0 .1 .1 .2 .1c.1 0 .2 0 .2-0.1c.1 0 .2-0.1 .2-0.1c.1-0.1 .1-0.2 .1-0.3c-0.1-0.1-0.1-0.2-0.2-0.3l-2.3-1.5c-0.1-0.1-0.2-0.1-0.3-0.1c0 0-0.1 0-0.2 .1c-0.1 .1-0.3 .1-0.4 .1c-0.2 0-0.3 0-0.5-0.1c-0.2-0.1-0.3-0.3-0.4-0.5c0-0.2 0-0.5 .1-0.7c.1-0.1 .1-0.2 .2-0.2c.1-0.1 .2-0.1 .3-0.2c.2 0 .3 0 .4 0c.2 0 .3 .1 .4 .2c.1 .1 .2 .2 .2 .3c.1 .1 .1 .3 .1 .4c0 .1 0 .2 .1 .2c0 .1 .1 .2 .1 .2l2.5 1.2c.1 .1 .2 .1 .3 0c.1 0 .2-0.1 .3-0.2c0-0.1 0-0.2 0-0.3c0-0.1-0.1-0.2-0.2-0.2l-0.3-0.2c.3-0.4 .7-0.8 1.2-1.2l.1 .3c.1 .1 .1 .2 .2 .2c0 0 .1 .1 .2 .1c.1 0 .1-0.1 .2-0.1c.1 0 .2-0.1 .2-0.2c0-0.1 0-0.3 0-0.4l-1.3-2.4c0-0.1 0-0.2-0.1-0.2c-0.1 0-0.2-0.1-0.3-0.1c-0.1 .1-0.3 0-0.5-0.1c-0.1-0.1-0.3-0.3-0.3-0.5c-0.1-0.2-0.1-0.3 0-0.5c.1-0.2 .2-0.3 .4-0.4c.2-0.2 .4-0.2 .6-0.1c.3 0 .4 .2 .6 .4c0 .1 .1 .3 .1 .4c0 .2-0.1 .3-0.2 .4c0 .1 0 .2 0 .3c0 .1 0 .1 0 .2l1.5 2.3c.1 .1 .2 .2 .3 .2c.1 0 .2 0 .3-0.1c.1 0 .1 0 .2-0.1c0 0 0-0.1 0-0.1c0-0.1 0-0.1 0-0.2c0-0.1 0-0.1 0-0.2l-0.2-0.2c.5-0.3 1-0.4 1.6-0.5v.4c0 .1 0 .2 .1 .3c.1 .1 .2 .1 .3 .1c.1 0 .2 0 .3-0.1c.1-0.1 .1-0.2 .1-0.3l.2-2.7c0-0.1 0-0.2-0.1-0.3c0 0-0.1-0.1-0.1-0.1c-0.2-0.1-0.3-0.2-0.4-0.3c-0.1-0.2-0.1-0.3-0.1-0.5c0-0.2 .1-0.4 .3-0.6c.1-0.2 .3-0.2 .6-0.2c.2 0 .4 0 .6 .2c.1 .2 .2 .4 .2 .6c0 .2 0 .3-0.1 .5c-0.1 .1-0.2 .2-0.3 .3c-0.1 0-0.2 .1-0.2 .1c-0.1 .1-0.1 .2-0.1 .3l.2 2.7c0 .1 0 .2 .1 .3c.1 .1 .2 .1 .3 .1c.1 0 .2 0 .2 0c.1-0.1 .1-0.1 .1-0.1c.1-0.1 .1-0.1 .1-0.2c0 0 0-0.1 0-0.1v-0.4c.6 .1 1.1 .2 1.6 .5l-0.1 .2c-0.1 .1-0.1 .1-0.1 .2c0 .1 0 .1 0 .2c0 0 0 .1 .1 .1c0 .1 0 .1 .1 .1c.1 .1 .2 .1 .3 .1c.1 0 .2-0.1 .3-0.2l1.5-2.3c0-0.1 .1-0.1 .1-0.2c0-0.1-0.1-0.2-0.1-0.3c-0.1-0.1-0.1-0.2-0.1-0.4c-0.1-0.1 0-0.3 .1-0.4c.1-0.2 .3-0.4 .5-0.4c.2-0.1 .4-0.1 .6 .1c.1 0 .2 .1 .3 .2c.1 .1 .1 .2 .1 .3c.1 .1 .1 .2 0 .4c0 .1 0 .2-0.1 .3c-0.1 .1-0.2 .2-0.3 .3c-0.2 0-0.3 .1-0.4 0c-0.1 0-0.2 .1-0.3 .1c0 0-0.1 .1-0.1 .2l-1.3 2.4c0 .1 0 .3 0 .4c.1 .1 .1 .2 .2 .2c.1 0 .2 .1 .2 .1c.1 0 .2-0.1 .2-0.1c.1 0 .2-0.1 .2-0.2l.2-0.3c.4 .4 .8 .8 1.1 1.2l-0.3 .2c0 0-0.1 0-0.1 .1c0 0-0.1 .1-0.1 .1c0 .1 0 .1 0 .2c0 0 0 .1 0 .1c.1 .1 .1 .1 .2 .2c0 0 0 0 .1 0c0 .1 .1 .1 .2 .1c0 0 .1-0.1 .1-0.1l2.5-1.2c.1 0 .1-0.1 .2-0.2c0 0 0-0.1 0-0.2c0-0.2 .1-0.4 .2-0.5c.1-0.2 .2-0.3 .4-0.4c.2 0 .4 0 .6 .1c.2 0 .3 .2 .4 .3c.1 .2 .1 .5 .1 .7c-0.1 .2-0.2 .4-0.4 .5c-0.1 .1-0.3 .1-0.4 .1c-0.2 0-0.4 0-0.5-0.1c-0.1-0.1-0.1-0.1-0.2-0.1c-0.1 0-0.2 0-0.3 .1l-2.2 1.5c-0.1 .1-0.2 .2-0.2 .3c-0.1 .1 0 .2 0 .3c.1 0 .1 .1 .2 .1c0 .1 .1 .1 .2 .1c.1 0 .2-0.1 .2-0.1l.3-0.2c.2 .5 .4 1.1 .4 1.6h-0.3c-0.1 0-0.2 .1-0.3 .1c-0.1 .1-0.1 .2-0.2 .3c0 .1 .1 .2 .2 .3c0 .1 .1 .2 .2 .2l2.8 .1c.1 0 .2 0 .2 0c.1-0.1 .2-0.1 .2-0.2c.1-0.1 .2-0.2 .3-0.3c.1-0.1 .3-0.2 .5-0.2c.2 0 .4 .1 .6 .3c.1 .2 .2 .4 .2 .6c0 .2-0.1 .4-0.2 .6c-0.2 .2-0.4 .3-0.6 .3c-0.2 0-0.4-0.1-0.5-0.2c-0.1 0-0.2-0.2-0.3-0.3c0-0.1-0.1-0.1-0.2-0.2c0 0-0.1 0-0.2 0l-2.8 .1c0 0-0.1 0-0.1 .1c-0.1 0-0.1 0-0.1 .1c-0.1 0-0.1 .1-0.1 .1c0 .1-0.1 .1-0.1 .2c.1 0 .1 .1 .1 .1c0 .1 0 .1 .1 .2c0 0 .1 0 .1 .1c.1 0 .1 0 .2 0Zm-6.8 2.2c-0.3 0-0.5 .1-0.7 .2c-0.2 .2-0.4 .4-0.5 .6c-0.1 .2-0.1 .5-0.1 .7c.1 .3 .2 .5 .4 .7c.2 .2 .4 .3 .6 .4c.3 0 .5 0 .8-0.1c.2-0.1 .4-0.3 .5-0.5c.2-0.2 .3-0.5 .3-0.7c0-0.3-0.2-0.7-0.4-0.9c-0.2-0.2-0.6-0.4-0.9-0.4Zm0 1.7c-0.1 0-0.2 0-0.3 0c0-0.1-0.1-0.2-0.1-0.2c0-0.1 0-0.2 0-0.3c0-0.1 0-0.1 .1-0.2c0-0.1 .1-0.1 .2-0.1c.1 0 .2 0 .2 0c.1 0 .2 .1 .2 .2c.1 0 .1 .1 .1 .2c0 .1 0 .2-0.1 .3c-0.1 .1-0.2 .1-0.3 .1Zm3.4-4.7c-0.3 0-0.5 .1-0.8 .2c-0.2 .2-0.4 .3-0.6 .6c-0.2 .2-0.3 .4-0.3 .7c0 .3 0 .6 .1 .8c0 .1 0 .1 .1 .2c0 0 .1 .1 .1 .1c.1 0 .1 0 .2 0c0 0 .1 0 .2 0c0 0 .1-0.1 .1-0.1c0 0 .1-0.1 .1-0.1c0-0.1 0-0.1 0-0.2c0-0.1 0-0.1 0-0.2c0-0.1-0.1-0.2-0.1-0.3c0-0.1 .1-0.3 .2-0.4c.1-0.2 .2-0.3 .4-0.4c.1 0 .3 0 .5 0c.1 0 .3 .1 .4 .2c.1 .2 .2 .3 .2 .5c.1 .1 .1 .3 0 .5c-0.1 .1-0.2 .3-0.3 .3c-0.2 .1-0.3 .2-0.5 .2c-0.1 0-0.2 0-0.3 .1c-0.1 .1-0.1 .2-0.1 .3c0 .1 0 .2 .1 .3c.1 .1 .2 .1 .3 .1c.5 0 .9-0.1 1.2-0.5c.3-0.3 .5-0.7 .5-1.2c0-0.4-0.2-0.9-0.5-1.2c-0.3-0.3-0.7-0.5-1.2-0.5Zm-6.2 .9c-0.1 0-0.2 .1-0.2 .2c-0.1 .1-0.1 .2 0 .3c0 .2 0 .4 0 .6c-0.1 .2-0.2 .3-0.3 .4c-0.2 .1-0.4 .2-0.5 .2c-0.2 0-0.4-0.1-0.5-0.2c-0.2-0.1-0.3-0.2-0.4-0.4c0-0.2 0-0.3 0-0.5c.1-0.2 .2-0.3 .3-0.5c.2-0.1 .4-0.1 .5-0.1c.2 0 .3-0.1 .3-0.1c.1-0.1 .2-0.2 .2-0.3c0-0.2-0.1-0.3-0.2-0.3c0-0.1-0.1-0.2-0.3-0.2c-0.3 0-0.7 .1-1 .4c-0.3 .2-0.5 .5-0.6 .8c-0.1 .4-0.1 .7 0 1.1c.1 .3 .4 .6 .7 .8c.3 .2 .6 .3 1 .3c.3 0 .7-0.1 1-0.3c.3-0.2 .5-0.5 .6-0.9c.1-0.3 .1-0.7 0-1c-0.1-0.1-0.1-0.1-0.1-0.2c-0.1 0-0.1-0.1-0.2-0.1c0 0-0.1 0-0.1 0c-0.1 0-0.1 0-0.2 0Zm3.6-1.3c0-0.3 0-0.5-0.2-0.7c-0.1-0.2-0.3-0.4-0.6-0.5c-0.2-0.1-0.4-0.1-0.7-0.1c-0.2 .1-0.5 .2-0.6 .4c-0.2 .2-0.3 .4-0.4 .7c0 .2 0 .5 .1 .7c.1 .2 .2 .4 .4 .6c.3 .1 .5 .2 .8 .2c.3 0 .6-0.2 .9-0.4c.2-0.2 .3-0.6 .3-0.9Zm-1.7 0c0-0.1 .1-0.2 .1-0.2c.1-0.1 .1-0.2 .2-0.2c.1 0 .2 0 .2 0c.1 0 .2 0 .3 .1c0 .1 .1 .1 .1 .2c0 .1 0 .2 0 .3c-0.1 0-0.1 .1-0.2 .2c-0.1 0-0.2 0-0.2 0c-0.2 0-0.3 0-0.3-0.1c-0.1-0.1-0.2-0.2-0.2-0.3Zm-3.4-0.9c.3 0 .5 0 .7-0.2c.2-0.1 .4-0.3 .5-0.5c.1-0.3 .1-0.5 .1-0.8c-0.1-0.2-0.2-0.5-0.4-0.6c-0.2-0.2-0.4-0.3-0.6-0.4c-0.3 0-0.5 0-0.8 .1c-0.2 .1-0.4 .2-0.5 .5c-0.2 .2-0.3 .4-0.3 .7c0 .3 .2 .6 .4 .9c.3 .2 .6 .3 .9 .3Zm7.7-0.4c.3 0 .5-0.1 .7-0.2c.2-0.1 .4-0.3 .5-0.6c.1-0.2 .1-0.5 .1-0.7c-0.1-0.3-0.2-0.5-0.4-0.7c-0.2-0.1-0.4-0.3-0.7-0.3c-0.2-0.1-0.5 0-0.7 .1c-0.2 .1-0.4 .2-0.6 .4c-0.1 .2-0.2 .5-0.2 .7c0 .4 .2 .7 .4 .9c.2 .3 .6 .4 .9 .4Zm-7.7-1.3c.1 0 .2 .1 .3 .1c0 .1 .1 .1 .1 .2c0 .1 .1 .2 0 .3c0 0 0 .1-0.1 .2c0 0-0.1 .1-0.2 .1c-0.1 0-0.2 0-0.2 0c-0.1-0.1-0.2-0.1-0.2-0.2c-0.1-0.1-0.1-0.1-0.1-0.2c0-0.1 0-0.3 .1-0.3c.1-0.1 .2-0.2 .3-0.2Zm7.7-0.4c.1 0 .2 0 .2 .1c.1 0 .2 .1 .2 .2c0 .1 0 .1 0 .2c0 .1 0 .2-0.1 .2c-0.1 .1-0.1 .1-0.2 .2c-0.1 0-0.2 0-0.3-0.1c0 0-0.1-0.1-0.2-0.1c0-0.1 0-0.2 0-0.3c0-0.1 0-0.2 .1-0.3c.1 0 .2-0.1 .3-0.1Zm-3.8-3c-0.5 0-0.9 .2-1.2 .5c-0.4 .3-0.5 .8-0.5 1.2c0 .5 .1 .9 .5 1.2c.3 .4 .7 .5 1.2 .5c.1 0 .2 0 .3-0.1c0-0.1 .1-0.2 .1-0.3c0-0.1-0.1-0.2-0.1-0.3c-0.1-0.1-0.2-0.1-0.3-0.1c-0.2 0-0.4-0.1-0.5-0.2c-0.2-0.1-0.3-0.2-0.4-0.4c0-0.2 0-0.4 .1-0.5c0-0.2 .1-0.4 .3-0.5c.1-0.1 .3-0.1 .5-0.1c.2 0 .3 0 .5 .2c.1 .1 .2 .2 .3 .4c0 .2 0 .4 0 .5c-0.1 .1-0.1 .2 0 .3c0 .1 .1 .2 .2 .3c.1 0 .2 0 .3-0.1c.2 0 .2-0.1 .3-0.2c.1-0.3 .1-0.5 .1-0.8c-0.1-0.3-0.2-0.5-0.3-0.7c-0.2-0.3-0.4-0.5-0.7-0.6c-0.2-0.1-0.5-0.2-0.7-0.2Z" fill="#f9593a" fill-rule="nonzero" transform="translate(92.6,281.7) translate(-110.2,-347.9)" style="animation: 12s linear infinite both oj00e4lpyq2q57kpfx2kwrq9_t;"/><path d="M36.3 218l.7-2c.1-0.2 .3-0.4 .6-0.3c.2 .1 .4 .4 .3 .6l-0.7 1.9c1.1 .3 2 .9 2.6 1.7l2-1.8c.2-0.1 .5-0.1 .6 .1c.2 .2 .2 .5 0 .6l-2.1 1.8c.6 1 .8 2.1 .6 3.2l2 .3c.3 0 .5 .2 .4 .5c0 .2-0.2 .4-0.4 .4c-0.1 0-0.1 0-0.1 0l-2-0.3c-0.2 .7-0.3 2.3 0 3.9l1.9-0.8c.2-0.1 .5 0 .6 .3c.1 .2 0 .5-0.3 .6l-2 .8c.5 1.4 1.3 2.8 2.9 3.8l1.5-1.6c.2-0.2 .5-0.2 .7 0c.2 .1 .2 .4 0 .6l-1.3 1.4c0 0 0 0 0 0c1.1 .5 1.9 1.4 2.4 2.5l2.2-0.7c.2-0.1 .5 .1 .5 .3c.1 .2 0 .5-0.3 .6l-2.1 .7c.3 1.1 .2 2.3-0.3 3.3l1.8 1c.3 .1 .3 .4 .2 .6c-0.1 .2-0.2 .3-0.4 .3c-0.1 0-0.1 0-0.2-0.1l-1.8-1c-0.6 .9-1.5 1.6-2.5 1.9l.5 1.6c.1 .2-0.1 .5-0.3 .5c-0.1 .1-0.1 .1-0.2 .1c-0.2 0-0.3-0.2-0.4-0.4l-0.5-1.6c-0.2 .1-0.3 .1-0.5 .1c-0.3 0-0.7 0-1.1-0.1c-0.3 0-0.6-0.1-0.9-0.2c-0.1 0-0.2-0.1-0.3-0.1c-0.1 0-0.2-0.1-0.2-0.1c-0.1 0-0.1-0.1-0.2-0.1c-0.2-0.1-0.4-0.2-0.6-0.3h-0.1l-0.9 2c-0.1 .1-0.3 .2-0.4 .2c-0.1 0-0.2 0-0.2 0c-0.3-0.1-0.4-0.4-0.2-0.6l.9-2.1c-0.1-0.1-0.3-0.2-0.4-0.3c-0.3-0.2-0.6-0.3-0.8-0.5c-0.3-0.2-0.6-0.5-0.9-0.7c-0.1-0.1-0.2-0.2-0.4-0.3l-1.5 1.4c-0.1 .1-0.2 .1-0.3 .1c-0.1 0-0.3 0-0.3-0.1c-0.2-0.2-0.2-0.5 0-0.6l1.4-1.5c-0.9-0.9-1.7-1.9-2.3-2.9l-1.8 .6c-0.1 0-0.1 0-0.1 0c-0.2 0-0.4-0.1-0.5-0.3c-0.1-0.2 .1-0.5 .3-0.6l1.6-0.5c-0.1-0.2-0.2-0.3-0.3-0.5c-0.1-0.3-0.3-0.7-0.4-1c-0.2-0.5-0.5-1.1-0.6-1.7l-1.9 .9c-0.1 .1-0.2 .1-0.2 .1c-0.2 0-0.4-0.1-0.4-0.3c-0.2-0.2-0.1-0.5 .2-0.6l2-1c-0.3-1.2-0.5-2.4-0.6-3.5l-2.1 .4c-0.1 0-0.1 0-0.1 0c-0.2 0-0.4-0.1-0.5-0.4c0-0.2 .1-0.4 .4-0.5l2.2-0.5c0-1.3 .1-2.5 .2-3.6l-2.1-0.4c-0.3-0.1-0.4-0.3-0.4-0.6c.1-0.2 .3-0.4 .6-0.3l2.1 .4c0-0.3 .1-0.6 .2-0.8c.2-0.9 .7-1.7 1.3-2.4l-1.4-1.8c-0.2-0.2-0.1-0.5 .1-0.7c.2-0.1 .5-0.1 .6 .1l1.4 1.8c.8-0.5 1.8-0.9 2.9-0.9c.1 0 .3 0 .4 0Zm10 22.3c0 0 0-0.1 .1-0.2c.4-1 .5-2.1 .1-3.2c-0.3-1-1.1-1.9-2.1-2.3c-6-2.9-4.6-9.7-4.5-10.5c.6-2.2-0.8-4.5-3-5c-0.3-0.1-0.7-0.2-1-0.2c-1 0-2 .4-2.7 1c0 0 0 0 0 0c-0.7 .6-1.1 1.3-1.4 2.2c-0.5 2.4-0.8 6 .3 9.7c0 .1 0 .1 0 .1c.4 1.3 .9 2.7 1.7 3.9v.1c.1 .2 .3 .4 .4 .6c.3 .4 .6 .8 .8 1.1c.3 .4 .6 .7 1 1c.1 .2 .3 .4 .5 .6c0 0 0 0 0 0c0 0 0 0 0 0c.9 .8 1.9 1.6 3 2.2c0 0 0 0 0 0c.1 0 .1 0 .1 .1c.3 .1 .6 .3 .9 .4c.1 .1 .2 .1 .3 .2c0 0 .1 0 .1 0c.2 .1 .3 .1 .4 .2c.2 0 .4 .1 .6 .1c.3 .1 .6 .1 .9 .1c.2 0 .5-0.1 .7-0.1c0 0 0 0 .1 0c0 0 0 0 .1 0c1-0.3 1.9-1 2.5-1.9c0 0 0-0.1 0-0.1c0 0 0-0.1 .1-0.1Zm-3.8 .5c-1.2 0-2.2-1-2.2-2.2c0-1.3 1-2.3 2.2-2.3c1.3 0 2.3 1 2.3 2.3c0 1.2-1 2.2-2.3 2.2Zm0-3.6c-0.7 0-1.3 .6-1.3 1.4c0 .7 .6 1.3 1.3 1.3c.8 0 1.4-0.6 1.4-1.3c0-0.8-0.6-1.4-1.4-1.4Zm-4.9 .1c-0.8 0-1.4-0.6-1.4-1.4c0-0.7 .6-1.3 1.4-1.3c.7 0 1.3 .6 1.3 1.3c0 .8-0.6 1.4-1.3 1.4Zm0-1.8c-0.3 0-0.5 .2-0.5 .4c0 .3 .2 .5 .5 .5c.2 0 .4-0.2 .4-0.5c0-0.2-0.2-0.4-0.4-0.4Zm10.2-13v-1.8c0-0.2 .2-0.4 .4-0.4c.3 0 .5 .2 .5 .4v1.7c.3 .1 .7 .1 1 .2c.7 .3 1.6 .8 2.5 1.6l1.1-0.8c.2-0.1 .5 0 .6 .2c.2 .2 .1 .5-0.1 .6l-1 .6c.7 .7 1.2 1.6 1.5 2.6l1.8-0.6c.2-0.1 .5 .1 .5 .3c.1 .2 0 .5-0.3 .6l-1.8 .5c.1 .8 .2 1.5 0 2.4c-0.1 .6-0.3 1.1-0.7 1.6l1.7 1.5c.2 .1 .2 .4 0 .6c-0.1 .1-0.2 .2-0.3 .2c-0.1 0-0.2-0.1-0.3-0.2l-1.8-1.5c-0.5 .3-1.1 .5-1.8 .5c-0.1 0-0.3 0-0.5 0c-0.4-0.1-0.9-0.3-1.2-0.5l-1 1c-0.1 .1-0.2 .1-0.4 .1c-0.1 0-0.2 0-0.3-0.1c-0.2-0.2-0.2-0.5 0-0.7l1-0.9c-0.6-0.7-0.9-1.6-0.8-2.6c.1-0.4-0.3-0.7-0.5-0.8l-2.6 .9c0 0-0.1 0-0.1 0c-0.2 0-0.4-0.1-0.4-0.3c-0.1-0.2 0-0.5 .2-0.6l1.8-0.6c-1-0.9-1.4-2.3-1-3.6c.4-1 1.3-1.8 2.3-2.1Zm-9.6 10.7c-0.7 0-1.2-0.6-1.2-1.2c0-0.7 .5-1.2 1.2-1.2c.6 0 1.2 .5 1.2 1.2c0 .6-0.6 1.2-1.2 1.2Zm13.6-8.2c-0.8-0.7-1.7-1.2-2.4-1.5c-0.3-0.1-0.5-0.1-0.8-0.1c-0.1 0-0.2 0-0.2 0c-0.1 0-0.1 0-0.2 0c0 0 0 0 0 0c-0.8 .1-1.5 .7-1.8 1.5c-0.4 1.2 .2 2.5 1.4 3c.5 .1 1.4 .8 1.2 1.8c-0.2 1.3 .7 2.5 2 2.7c.7 .1 1.3-0.1 1.8-0.5c0-0.1 .1-0.1 .1-0.1c.4-0.3 .6-0.8 .7-1.4c.4-2.3-0.6-4.1-1.7-5.3c-0.1 0-0.1-0.1-0.1-0.1Zm-13.6 6.7c-0.2 0-0.3 .1-0.3 .3c0 .1 .1 .3 .3 .3c.1 0 .2-0.2 .2-0.3c0-0.2-0.1-0.3-0.2-0.3Zm-3.4-1.6c-1 0-1.9-0.8-1.9-1.9c0-1 .9-1.8 1.9-1.8c1 0 1.9 .8 1.9 1.8c0 1.1-0.9 1.9-1.9 1.9Zm0-2.8c-0.5 0-0.9 .4-0.9 .9c0 .6 .4 1 .9 1c.5 0 .9-0.4 .9-1c0-0.5-0.4-0.9-0.9-0.9Zm13.9 .3c-1 0-1.8-0.9-1.8-1.9c0-1 .8-1.8 1.8-1.8c1 0 1.9 .8 1.9 1.8c0 1-0.9 1.9-1.9 1.9Zm0-2.8c-0.5 0-0.9 .4-0.9 .9c0 .5 .4 1 .9 1c.5 0 1-0.5 1-1c0-0.5-0.5-0.9-1-0.9Zm-12.9 .8c-1.3 0-2.3-1.1-2.3-2.3c0-1.3 1-2.3 2.3-2.3c1.2 0 2.2 1 2.2 2.3c0 1.2-1 2.3-2.2 2.3Zm0-3.7c-0.8 0-1.4 .6-1.4 1.4c0 .7 .6 1.3 1.4 1.3c.7 0 1.3-0.6 1.3-1.3c0-0.8-0.6-1.4-1.3-1.4Z" fill="#f9593a" fill-rule="nonzero" transform="translate(24.7,164.3) translate(-42.2,-230.5)" style="animation: 12s linear infinite both jvmdqotah1je17q8nbx8f6bk_t;"/><path d="M320.3 251.6l-0.1-1.4c0-0.1 .1-0.3 .2-0.3c.1-0.1 .2-0.2 .3-0.2c.3 0 .5 .2 .5 .5v1.3c.9 .1 1.7 .6 2.3 1.4c.3 .3 .7 .2 1 .2l1.1-2.5c0 0 .1-0.1 .1-0.1c.1-0.2 .4-0.2 .5-0.1c.3 .1 .4 .4 .3 .6l-0.9 1.7c1.4-0.1 2.7 .6 3.3 1.9c.4 1 .4 2.1-0.2 3l1.3 1.3c.2 .2 .2 .4 0 .6c-0.1 .2-0.4 .2-0.6 0l-1.2-1.2c-0.3 .2-0.6 .4-0.9 .6c-0.7 .3-1.7 .6-2.8 .7l-0.3 1.3c0 .2-0.3 .4-0.5 .3c-0.3 0-0.4-0.3-0.4-0.5l.3-1.1c-1-0.1-1.9-0.3-2.9-0.8l-0.8 1.6c-0.1 .2-0.4 .3-0.6 .2c-0.3-0.1-0.3-0.4-0.2-0.6l.8-1.7c-0.5-0.4-1.1-0.9-1.6-1.6c-0.4-0.5-0.6-1.1-0.6-1.6l-2.3 .1c-0.2 0-0.4-0.2-0.4-0.5c-0.1-0.1 0-0.2 .1-0.3c.1-0.1 .2-0.1 .3-0.1l2.3-0.2c.1-0.6 .4-1.1 .9-1.6c.1-0.1 .3-0.2 .4-0.3c.4-0.3 .8-0.5 1.3-0.6Zm7.5 5.7c.5-0.7 .6-1.6 .3-2.3c-0.6-1.2-1.9-1.7-3.1-1.2c-0.5 .3-1.6 .5-2.2-0.4c-0.8-1-2.2-1.3-3.3-0.5c-0.5 .4-0.9 1-0.9 1.7c0 0 0 0 0 .1c0 .5 .1 1 .4 1.4c1.5 2 3.4 2.6 5.1 2.6c0-0.1 0-0.1 .1 0c1.1-0.1 2.1-0.4 2.7-0.7c.3-0.1 .5-0.2 .7-0.4c.1-0.1 .1-0.1 .1-0.2c.1 0 .1-0.1 .1-0.1c0 0 0 0 0 0Zm-3.3-2.6c.7-0.7 1.9-0.7 2.6 0c.8 .7 .8 1.9 0 2.6c-0.7 .7-1.9 .7-2.6 0c-0.7-0.7-0.7-1.9 0-2.6Zm2 2c.4-0.4 .4-1 0-1.4c-0.4-0.3-1-0.3-1.3 0c-0.4 .4-0.4 1 0 1.4c.3 .3 .9 .3 1.3 0Zm-2-19.7v-2.1c0-0.2 .1-0.3 .1-0.4c.1 0 .2-0.1 .4-0.1c.2 0 .4 .2 .4 .5v2c1.3 0 2.5 .2 3.7 .4l.9-1.7c0 0 0 0 .1-0.1c.1-0.1 .3-0.2 .5-0.1c.2 .2 .3 .4 .2 .7l-0.8 1.5c.2 0 .4 .1 .6 .1c.3 .1 .7 .3 1 .4c.6 .2 1.1 .5 1.6 .7l.7-1.9c.1-0.1 .1-0.2 .1-0.2c.2-0.1 .3-0.2 .5-0.1c.3 .1 .4 .3 .3 .6l-0.8 2.1c1.1 .6 2.1 1.3 3 2.1l1.2-1.8c0 0 0-0.1 .1-0.1c.1-0.1 .3-0.2 .5-0.1c.2 .2 .3 .5 .2 .7l-1.3 1.9c.9 .9 1.7 1.8 2.4 2.7l1.8-1.2c.3-0.1 .5-0.1 .7 .1c.1 .2 .1 .5-0.2 .7l-1.8 1.1c.2 .3 .4 .5 .5 .8c.5 .8 .7 1.7 .7 2.6l2.3 .3c.3 0 .5 .3 .4 .5c0 .3-0.2 .4-0.5 .4l-2.2-0.3c-0.2 1-0.7 1.9-1.4 2.7c-0.1 .1-0.3 .2-0.4 .3l1 1.9c.1 .2 0 .5-0.2 .6c-0.2 .1-0.5 0-0.6-0.2l-0.9-1.8c-1 .5-2 .7-3 .6l-0.2 2.7c0 .2-0.2 .4-0.5 .4c-0.2 0-0.4-0.2-0.4-0.5l.2-2.7c-1.1-0.3-2-0.9-2.7-1.8l-1.6 1.2c-0.2 .1-0.5 .1-0.6-0.1c-0.2-0.2-0.2-0.5 0-0.6c0 0 0 0 0-0.1l1.7-1.2c-0.4-0.6-1.4-1.8-2.8-2.7l-0.8 1.9c-0.1 .2-0.3 .3-0.6 .2c-0.2-0.1-0.3-0.4-0.2-0.6l.8-2c-1.3-0.7-2.9-1-4.7-0.6v2.2c.1 .2-0.1 .4-0.4 .4c-0.2 0-0.5-0.2-0.5-0.4v-1.9c0 0 0 0 0 0c-1.2 .4-2.4 .4-3.5-0.1l-1 2c-0.2 .3-0.4 .4-0.7 .2c-0.2-0.1-0.3-0.3-0.2-0.6l1.1-1.9c-1-0.6-1.8-1.6-2.2-2.7l-2 .6c-0.2 .1-0.5 0-0.6-0.3c0-0.1 0-0.3 .2-0.4c0-0.1 .1-0.1 .1-0.2l2-0.6c-0.1-1 0-2.1 .5-3l-1.5-0.8c-0.2-0.1-0.3-0.4-0.2-0.6c.1 0 .1-0.1 .1-0.1c.2-0.1 .4-0.2 .6-0.1l1.4 .8c.1-0.2 .2-0.3 .3-0.4c.3-0.3 .6-0.5 .9-0.7c.2-0.2 .5-0.4 .7-0.5c.1-0.1 .3-0.1 .4-0.2c.1 0 .1 0 .2 0c0 0 .1-0.1 .2-0.1c.2-0.1 .4-0.1 .7-0.2l-0.8-2.1c0-0.2 0-0.4 .2-0.5c0 0 .1-0.1 .1-0.1c.3-0.1 .5 0 .6 .3l.8 2.1c.1 0 .3 0 .5-0.1c.3-0.1 .7-0.1 1-0.2c.3 0 .7-0.1 1-0.1c.2 0 .4 0 .6 0Zm4.7 1.3c-0.2-0.1-0.5-0.1-0.7-0.2c-0.5-0.1-1-0.1-1.4-0.2c-0.5 0-0.9-0.1-1.4-0.1c-0.2 0-0.5 0-0.7 0c0 .1-0.1 .1-0.1 .1c0 0 0 0 0 0c-1.2 0-2.4 .2-3.7 .5c0 0 0 0 0 0c0 0 0 0-0.1 0c-0.3 .1-0.6 .2-0.9 .3c-0.1 .1-0.2 .1-0.3 .1c0 0-0.1 .1-0.2 .1c-0.1 0-0.2 .1-0.3 .2c-0.2 .1-0.4 .2-0.6 .3c-0.2 .2-0.4 .3-0.6 .6c-0.2 .1-0.3 .3-0.5 .5c0 .1 0 .1 0 .1c0 0 0 0 0 .1c-0.6 .9-0.8 2-0.5 3.1c0 0 0 0 0 0c0 .1 .1 .1 .1 .1c0 .1 0 .2 0 .3c.4 1 1.2 1.9 2.2 2.3c1 .5 2.1 .6 3.1 .2c6.3-2.2 10.2 3.6 10.6 4.3c1.2 1.9 3.7 2.5 5.7 1.4c.3-0.2 .6-0.4 .8-0.7c.7-0.7 1.1-1.6 1.2-2.5c0-0.1 0-0.1 0-0.1c0 0 0 0 0 0c.1-0.8-0.1-1.7-0.6-2.5c-1.2-2-3.7-4.8-7-6.7c0 0-0.1 0-0.1 0c-0.2-0.1-0.4-0.3-0.6-0.4c-0.5-0.2-0.9-0.4-1.4-0.6c-0.4-0.1-0.8-0.3-1.3-0.4c-0.2-0.1-0.4-0.1-0.6-0.2h-0.1c0 0 0 0 0 0Zm5.9 8.7c.9-0.9 2.3-0.9 3.2 0c.9 .9 .9 2.3 0 3.2c-0.9 .9-2.3 .9-3.2 0c-0.9-0.9-0.9-2.3 0-3.2Zm2.6 2.5c.5-0.5 .5-1.4 0-1.9c-0.6-0.5-1.4-0.5-1.9 0c-0.6 .5-0.6 1.4 0 1.9c.5 .5 1.3 .5 1.9 0Zm-5.1-6.4c.7-0.8 1.9-0.8 2.6 0c.7 .7 .7 1.9 0 2.6c-0.7 .7-1.9 .7-2.6 0c-0.7-0.7-0.7-1.9 0-2.6Zm2 1.9c.3-0.3 .3-0.9 0-1.3c-0.4-0.4-1-0.4-1.4 0c-0.3 .4-0.3 1 0 1.3c.4 .4 1 .4 1.4 0Zm-6.6-1.7c.5-0.5 1.2-0.5 1.7 0c.5 .4 .5 1.2 0 1.6c-0.5 .5-1.2 .5-1.7 0c-0.4-0.4-0.4-1.2 0-1.6Zm-8.5-2.3c.9-0.9 2.3-0.9 3.2 0c.9 .8 .9 2.3 0 3.2c-0.9 .8-2.3 .8-3.2 0c-0.9-0.9-0.9-2.4 0-3.2Zm9.6 3.3c.1-0.1 .1-0.3 0-0.4c-0.2-0.1-0.3-0.1-0.4 0c-0.1 .1-0.1 .3 0 .4c.1 .1 .2 .1 .4 0Zm-7-0.8c.5-0.5 .5-1.4 0-1.9c-0.5-0.5-1.4-0.5-1.9 0c-0.5 .5-0.5 1.4 0 1.9c.5 .5 1.4 .5 1.9 0Zm3.4-3.6c.6-0.5 1.4-0.5 2 0c.5 .6 .5 1.4 0 2c-0.6 .5-1.4 .5-2 0c-0.5-0.6-0.5-1.4 0-2Zm1.3 1.3c.2-0.2 .2-0.4 0-0.6c-0.2-0.2-0.4-0.2-0.6 0c-0.2 .2-0.2 .4 0 .6c.2 .2 .4 .2 .6 0Z" fill="#f9593a" fill-rule="nonzero" transform="translate(311.7,181.6) translate(-329.2,-247.8)" style="animation: 12s linear infinite both x0tnu8t7yeh0xj36f4vuaahw_t;"/><path d="M34.8 156.8h-1.4c-0.2 0-0.3 0-0.4-0.1c-0.1-0.1-0.1-0.2-0.1-0.3c0-0.3 .2-0.5 .5-0.5h1.3c.1-0.9 .5-1.7 1.3-2.3c.4-0.3 .3-0.7 .2-1l-2.4-1.1c-0.1-0.1-0.1-0.1-0.2-0.1c-0.1-0.2-0.1-0.4-0.1-0.5c.2-0.3 .4-0.4 .7-0.3l1.7 .9c-0.1-1.4 .6-2.7 1.8-3.3c1-0.5 2.1-0.4 3.1 .1l1.2-1.3c.2-0.1 .5-0.1 .7 0c.2 .2 .2 .5 0 .7l-1.2 1.2c.2 .3 .4 .5 .5 .9c.4 .7 .7 1.7 .7 2.8l1.3 .3c.3 0 .4 .3 .4 .5c-0.1 .3-0.3 .4-0.6 .4l-1.1-0.3c0 1-0.2 1.9-0.7 2.9l1.6 .8c.2 .1 .3 .4 .2 .6c-0.1 .2-0.4 .3-0.6 .2l-1.7-0.9c-0.4 .6-1 1.2-1.7 1.7c-0.4 .4-1 .6-1.6 .6l.1 2.3c.1 .2-0.1 .4-0.4 .4c-0.1 0-0.3 0-0.3-0.1c-0.1-0.1-0.2-0.2-0.2-0.3l-0.1-2.3c-0.6-0.2-1.2-0.5-1.6-0.9c-0.2-0.1-0.3-0.3-0.4-0.4c-0.3-0.4-0.4-0.8-0.5-1.3Zm5.7-7.6c-0.7-0.4-1.6-0.5-2.4-0.2c-1.1 .6-1.6 1.9-1.1 3.1c.2 .5 .4 1.6-0.4 2.2c-1.1 .8-1.3 2.2-0.5 3.3c.4 .5 1 .8 1.6 .9c.1 0 .1 0 .1 0c.5 0 1.1-0.1 1.5-0.4c2-1.5 2.5-3.4 2.5-5.1c0 0 0-0.1 0-0.1c0-1.1-0.3-2.1-0.6-2.8c-0.1-0.2-0.3-0.4-0.5-0.6c0-0.1-0.1-0.1-0.1-0.2c0 0-0.1 0-0.1 0c0 0 0-0.1 0-0.1Zm-2.6 3.4c-0.8-0.8-0.8-1.9 0-2.7c.7-0.7 1.9-0.7 2.6 0c.7 .8 .7 1.9 0 2.7c-0.7 .7-1.9 .7-2.6 0Zm1.9-2c-0.3-0.4-0.9-0.4-1.3 0c-0.4 .4-0.4 1 0 1.3c.4 .4 1 .4 1.3 0c.4-0.3 .4-0.9 0-1.3Zm-19.7 2h-2.1c-0.1 0-0.2-0.1-0.3-0.2c-0.1 0-0.1-0.2-0.1-0.3c0-0.2 .2-0.4 .4-0.4h2.1c0-1.3 .1-2.5 .4-3.7l-1.7-0.9c0 0-0.1 0-0.1-0.1c-0.1-0.1-0.2-0.3-0.1-0.5c.1-0.2 .4-0.3 .6-0.2l1.5 .8v-0.1c.1-0.1 .1-0.3 .2-0.5c.1-0.3 .2-0.7 .4-1c.2-0.6 .4-1.1 .7-1.6l-2-0.7c0-0.1-0.1-0.1-0.1-0.2c-0.2-0.1-0.2-0.3-0.1-0.4c0-0.3 .3-0.4 .5-0.3l2.2 .8c.6-1.1 1.3-2.1 2.1-3l-1.9-1.2c0 0 0 0 0-0.1c-0.2-0.1-0.2-0.4-0.1-0.5c.2-0.3 .4-0.3 .7-0.2l1.9 1.3c.9-0.9 1.8-1.8 2.6-2.4l-1.1-1.9c-0.2-0.2-0.1-0.5 .1-0.6c.2-0.1 .5-0.1 .6 .1l1.2 1.8c.2-0.1 .5-0.3 .7-0.4c.8-0.5 1.7-0.8 2.6-0.8l.4-2.3c0-0.2 .2-0.4 .5-0.3c.2 0 .4 .2 .4 .5l-0.3 2.2c.9 .2 1.9 .7 2.6 1.4c.2 .1 .3 .2 .3 .4l2-1c.2-0.1 .5 0 .6 .2c.1 .2 0 .5-0.2 .6l-1.8 .9c.5 1 .7 2 .6 3l2.6 .2c.3 0 .5 .2 .5 .5c0 .2-0.3 .4-0.5 .4l-2.8-0.2c-0.3 1.1-0.9 2-1.8 2.7l1.2 1.6c.2 .2 .2 .5 0 .6c-0.2 .2-0.5 .1-0.6 0c-0.1 0-0.1 0-0.1-0.1l-1.2-1.6c-0.7 .4-1.9 1.4-2.8 2.8l1.9 .8c.3 .1 .4 .3 .3 .6c-0.1 .2-0.4 .3-0.6 .2l-2-0.8c-0.7 1.3-1 2.9-0.6 4.7l2.1-0.1c.3 0 .5 .2 .5 .5c0 .2-0.2 .4-0.4 .5h-2c0 0 0 0 0 0c.4 1.2 .4 2.4 0 3.5l2 1c.2 .1 .3 .4 .2 .6c-0.1 .3-0.4 .4-0.6 .2l-2-1c-0.6 1-1.5 1.8-2.6 2.2l.6 2c.1 .2-0.1 .5-0.3 .5c-0.2 .1-0.4 0-0.5-0.1c0 0-0.1-0.1-0.1-0.2l-0.6-2c-1 .2-2.1 .1-3.1-0.4l-0.7 1.5c-0.1 .2-0.4 .3-0.6 .2c-0.1-0.1-0.1-0.1-0.1-0.1c-0.2-0.2-0.2-0.4-0.1-0.6l.7-1.5c-0.1-0.1-0.2-0.1-0.3-0.2c-0.3-0.3-0.6-0.6-0.8-0.9c-0.2-0.2-0.3-0.5-0.4-0.7c-0.1-0.2-0.1-0.3-0.2-0.4c0-0.1 0-0.1-0.1-0.2c0-0.1 0-0.1 0-0.2c-0.1-0.2-0.2-0.4-0.2-0.7h-0.1l-2.1 .7c-0.1 .1-0.3 0-0.4-0.1c-0.1 0-0.1-0.1-0.1-0.1c-0.1-0.3 0-0.5 .2-0.6l2.2-0.8c0-0.2-0.1-0.3-0.1-0.5c-0.1-0.3-0.2-0.7-0.2-1c-0.1-0.3-0.1-0.7-0.1-1c-0.1-0.2-0.1-0.4-0.1-0.6Zm1.4-4.7c-0.1 .2-0.2 .5-0.2 .7c-0.1 .5-0.2 .9-0.2 1.4c-0.1 .4-0.1 .9-0.1 1.4c0 .2 0 .4 0 .7c0 0 0 0 0 .1c0 0 0 0 0 0c.1 1.2 .2 2.4 .6 3.6c0 0 0 .1 0 .1c0 0 0 0 0 0c.1 .4 .2 .7 .3 1c0 .1 .1 .2 .1 .3c0 0 0 .1 .1 .2c0 .1 .1 .2 .1 .3c.1 .2 .2 .4 .4 .6c.1 .2 .3 .4 .5 .6c.2 .2 .4 .3 .6 .5c0 0 0 0 .1 0c0 0 0 0 0 0c1 .6 2.1 .7 3.1 .5c0 0 .1 0 .1 0c0-0.1 .1-0.1 .1-0.1c.1 0 .2 0 .2 0c1.1-0.4 1.9-1.2 2.4-2.2c.5-1 .5-2.1 .2-3.2c-2.3-6.2 3.6-10.1 4.2-10.5c2-1.2 2.6-3.8 1.4-5.7c-0.1-0.3-0.4-0.6-0.6-0.8c-0.7-0.7-1.6-1.1-2.6-1.2c0 0 0 0 0 0c0 0 0 0 0 0c-0.9-0.1-1.7 .1-2.5 .6c-2.1 1.2-4.8 3.6-6.7 7c0 0 0 0 0 .1c-0.2 .2-0.3 .4-0.4 .6c-0.2 .5-0.4 .9-0.6 1.4c-0.2 .4-0.3 .8-0.4 1.2c-0.1 .3-0.2 .5-0.2 .7c0 0 0 .1 0 .1Zm8.6-5.9c-0.8-0.9-0.8-2.3 0-3.2c.9-0.9 2.4-0.9 3.2 0c.9 .9 .9 2.3 0 3.2c-0.8 .9-2.3 .9-3.2 0Zm2.6-2.6c-0.5-0.5-1.4-0.5-1.9 0c-0.5 .5-0.5 1.4 0 1.9c.5 .5 1.4 .5 1.9 0c.5-0.5 .5-1.4 0-1.9Zm-6.5 5.1c-0.7-0.7-0.7-1.9 0-2.6c.8-0.7 1.9-0.7 2.7 0c.7 .7 .7 1.9 0 2.6c-0.8 .7-1.9 .7-2.7 0Zm2-2c-0.4-0.3-0.9-0.3-1.3 0c-0.4 .4-0.4 1 0 1.4c.4 .3 .9 .3 1.3 0c.4-0.4 .4-1 0-1.4Zm-1.8 6.6c-0.4-0.5-0.4-1.3 0-1.7c.5-0.5 1.3-0.5 1.7 0c.5 .4 .5 1.2 0 1.7c-0.4 .4-1.2 .4-1.7 0Zm-2.3 8.5c-0.9-0.9-0.9-2.4 0-3.2c.9-0.9 2.3-0.9 3.2 0c.9 .8 .9 2.3 0 3.2c-0.9 .8-2.3 .8-3.2 0Zm3.4-9.6c-0.1-0.1-0.3-0.1-0.4 0c-0.1 .1-0.1 .3 0 .4c.1 .1 .3 .1 .4 0c.1-0.1 .1-0.3 0-0.4Zm-0.8 7c-0.6-0.5-1.4-0.5-1.9 0c-0.6 .5-0.6 1.4 0 1.9c.5 .5 1.3 .5 1.9 0c.5-0.5 .5-1.4 0-1.9Zm-3.6-3.4c-0.5-0.6-0.5-1.4 0-2c.5-0.5 1.4-0.5 1.9 0c.6 .6 .6 1.4 0 2c-0.5 .5-1.4 .5-1.9 0Zm1.3-1.3c-0.2-0.2-0.5-0.2-0.6 0c-0.2 .2-0.2 .4 0 .6c.1 .2 .4 .2 .6 0c.2-0.2 .2-0.4 0-0.6Z" fill="#f9593a" fill-rule="nonzero" transform="translate(13.4,81.6) translate(-31,-147.9)" style="animation: 12s linear infinite both rpemwtso864alcsrbz9pkxsu_t;"/><path d="M309.1 322c-0.4-0.1-0.8-0.4-1.1-0.8l-1.6 .1c-0.1 1-0.3 1.9-0.7 2.7l1.4 .9c.2-0.1 .6-0.2 .9-0.1c.3 0 .6 .1 .9 .2c.3 .2 .5 .4 .7 .6c.2 .3 .3 .6 .4 .9c0 .3 0 .6-0.1 .9c0 .3-0.2 .6-0.4 .8c-0.2 .3-0.4 .5-0.7 .6c-0.3 .2-0.6 .2-0.9 .2c-0.4 0-0.8-0.1-1.1-0.3c-0.3-0.1-0.5-0.4-0.7-0.6c-0.2-0.3-0.3-0.6-0.3-0.9l-1.5-0.8c-0.5 .8-1.2 1.4-2 2l.8 1.5c.4 0 .8 .2 1.2 .5c.3 .3 .5 .7 .6 1.1c.1 .5 0 .9-0.2 1.3c-0.1 .5-0.4 .8-0.8 1c-0.4 .2-0.9 .3-1.3 .3c-0.5-0.1-0.9-0.2-1.2-0.5c-0.3-0.3-0.6-0.7-0.7-1.2c-0.1-0.4 0-0.8 .1-1.3l-0.9-1.3c-0.8 .4-1.7 .6-2.6 .7l-0.1 1.6c.3 .3 .6 .7 .7 1.1c.1 .4 .1 .9 0 1.3c-0.2 .4-0.4 .8-0.8 1.1c-0.4 .2-0.8 .4-1.2 .4c-0.5 0-0.9-0.2-1.3-0.4c-0.3-0.3-0.6-0.7-0.8-1.1c-0.1-0.4-0.1-0.9 0-1.3c.2-0.4 .4-0.8 .8-1.1l-0.1-1.6c-0.9-0.1-1.9-0.3-2.7-0.7l-0.9 1.3c.2 .5 .2 .9 .1 1.3c-0.1 .5-0.3 .9-0.7 1.2c-0.3 .3-0.7 .4-1.2 .5c-0.4 0-0.8-0.1-1.2-0.3c-0.4-0.2-0.7-0.5-0.9-1c-0.2-0.4-0.2-0.8-0.2-1.3c.1-0.4 .4-0.8 .7-1.1c.3-0.3 .7-0.5 1.2-0.5l.7-1.5c-0.8-0.6-1.4-1.2-2-2l-1.4 .8c-0.1 .3-0.2 .6-0.4 .9c-0.2 .2-0.4 .5-0.7 .6c-0.3 .2-0.7 .3-1 .3c-0.4 0-0.7 0-1-0.2c-0.2-0.1-0.5-0.3-0.7-0.6c-0.2-0.2-0.3-0.5-0.4-0.8c-0.1-0.3-0.1-0.6 0-0.9c0-0.3 .2-0.6 .3-0.9c.2-0.2 .5-0.4 .8-0.6c.2-0.1 .5-0.2 .9-0.2c.3-0.1 .6 0 .9 .1l1.3-0.9c-0.3-0.8-0.6-1.7-0.7-2.7l-1.6-0.1c-0.3 .4-0.6 .7-1.1 .8c-0.4 .1-0.9 .1-1.3 0c-0.4-0.2-0.8-0.4-1-0.8c-0.3-0.4-0.4-0.8-0.4-1.2c0-0.5 .1-0.9 .4-1.3c.2-0.4 .6-0.6 1-0.8c.4-0.1 .9-0.1 1.3 0c.5 .1 .8 .4 1.1 .8l1.6-0.1c.1-1 .4-1.9 .7-2.7l-1.3-0.9c-0.4 .2-0.9 .2-1.3 .1c-0.5-0.1-0.8-0.3-1.1-0.7c-0.3-0.3-0.5-0.7-0.6-1.2c0-0.4 .1-0.9 .3-1.2c.2-0.4 .6-0.7 1-0.9c.4-0.2 .8-0.3 1.3-0.2c.4 .1 .8 .3 1.1 .7c.3 .3 .5 .7 .6 1.1l1.4 .8c.6-0.8 1.2-1.4 2-2l-0.7-1.4c-0.5-0.1-0.9-0.3-1.2-0.6c-0.3-0.3-0.6-0.7-0.7-1.1c0-0.5 0-0.9 .2-1.3c.2-0.4 .5-0.8 .9-1c.4-0.2 .8-0.3 1.2-0.3c.5 .1 .9 .2 1.2 .5c.4 .3 .6 .7 .7 1.2c.1 .4 .1 .9-0.1 1.3l.9 1.3c.8-0.3 1.8-0.6 2.7-0.7l.1-1.6c-0.4-0.3-0.6-0.7-0.8-1.1c-0.1-0.4-0.1-0.9 0-1.3c.2-0.4 .5-0.8 .8-1c.4-0.3 .8-0.4 1.3-0.4c.4 0 .8 .1 1.2 .4c.4 .2 .6 .6 .8 1c.1 .4 .1 .9 0 1.3c-0.1 .4-0.4 .8-0.7 1.1l.1 1.6c.9 .1 1.8 .4 2.6 .7l.9-1.3c-0.1-0.4-0.2-0.9-0.1-1.3c.1-0.5 .4-0.9 .7-1.2c.3-0.3 .7-0.4 1.2-0.5c.4 0 .9 .1 1.3 .3c.4 .2 .7 .6 .8 1c.2 .4 .3 .8 .2 1.3c-0.1 .4-0.3 .8-0.6 1.1c-0.4 .3-0.8 .5-1.2 .6l-0.8 1.4c.8 .6 1.5 1.2 2 2l1.5-0.8c0-0.4 .2-0.8 .5-1.1c.3-0.4 .7-0.6 1.2-0.7c.4-0.1 .9 0 1.3 .2c.4 .2 .7 .5 .9 .9c.3 .3 .3 .8 .3 1.2c0 .5-0.2 .9-0.5 1.2c-0.3 .4-0.7 .6-1.1 .7c-0.5 .1-0.9 .1-1.3-0.1l-1.4 .9c.4 .8 .6 1.7 .7 2.7l1.6 .1c.3-0.4 .7-0.7 1.1-0.8c.4-0.1 .9-0.1 1.3 0c.4 .2 .8 .4 1.1 .8c.2 .4 .4 .8 .4 1.3c0 .4-0.2 .8-0.4 1.2c-0.3 .4-0.7 .6-1.1 .8c-0.4 .1-0.9 .1-1.3 0Zm-3.8-0.6h-0.4c-0.1 0-0.1 0-0.2 0c-0.1 0-0.1-0.1-0.2-0.1c0 0-0.1-0.1-0.1-0.2c0 0 0-0.1 0-0.2c-0.1 0 0-0.1 0-0.2c0 0 0-0.1 .1-0.2c0 0 .1-0.1 .2-0.1c0 0 .1 0 .2 0l3.4-0.2c.1 0 .2 0 .3 0c.1 .1 .1 .2 .2 .3c.1 .1 .2 .3 .4 .4c.2 .1 .3 .1 .5 .1c.3 0 .6-0.1 .8-0.3c.2-0.2 .3-0.5 .3-0.7c0-0.3-0.1-0.6-0.3-0.8c-0.2-0.2-0.5-0.3-0.8-0.3c-0.2 0-0.3 0-0.5 .1c-0.2 .1-0.3 .3-0.4 .5c-0.1 .1-0.1 .1-0.2 .2c-0.1 0-0.2 .1-0.3 0l-3.4-0.2c-0.2 0-0.3 0-0.4-0.1c-0.1-0.1-0.2-0.3-0.1-0.4c0-0.2 0-0.3 .1-0.4c.1-0.1 .3-0.1 .4-0.1h.4c-0.1-0.7-0.2-1.4-0.5-2l-0.4 .2c0 .1-0.1 .1-0.2 .1c-0.1 0-0.2 0-0.3-0.1c-0.1 0-0.1-0.1-0.2-0.1c-0.1-0.2-0.1-0.3-0.1-0.4c.1-0.2 .1-0.3 .3-0.4l2.8-1.9c.1 0 .2-0.1 .3-0.1c.1 0 .2 .1 .3 .1c.2 .1 .4 .2 .6 .2c.2 0 .3-0.1 .5-0.2c.3-0.1 .4-0.3 .5-0.6c.1-0.3 0-0.6-0.1-0.8c-0.1-0.2-0.3-0.4-0.5-0.5c-0.2-0.1-0.5-0.1-0.7 0c-0.2 .1-0.4 .2-0.6 .4c-0.1 .2-0.2 .4-0.2 .7c0 .1 0 .2-0.1 .3c0 0-0.1 .1-0.2 .2l-3.1 1.5c0 0-0.1 .1-0.2 .1c0 0-0.1 0-0.2-0.1c0 0-0.1 0-0.1-0.1c-0.1 0-0.1-0.1-0.2-0.1c0-0.1 0-0.2 0-0.2c0-0.1 0-0.2 0-0.2c0-0.1 .1-0.2 .1-0.2c0-0.1 .1-0.1 .2-0.1l.4-0.2c-0.5-0.6-1-1.1-1.5-1.5l-0.2 .4c-0.1 0-0.1 .1-0.2 .2c-0.1 0-0.2 0-0.3 0c-0.1 .1-0.2 0-0.2 0c-0.2-0.1-0.3-0.2-0.3-0.3c-0.1-0.2 0-0.3 0-0.4l1.6-3.1c0-0.1 .1-0.2 .2-0.2c.1-0.1 .2-0.1 .3-0.1c.1 0 .3 0 .4-0.1c.2-0.1 .3-0.2 .4-0.3c.1-0.1 .2-0.3 .2-0.4c.1-0.2 .1-0.4 0-0.5c0-0.2-0.1-0.3-0.2-0.4c0-0.1-0.1-0.2-0.3-0.3c-0.2-0.1-0.5-0.2-0.8-0.1c-0.2 .1-0.5 .3-0.6 .5c-0.1 .2-0.2 .4-0.2 .6c0 .2 .1 .3 .2 .5c.1 .1 .1 .2 .1 .3c0 .1 0 .2-0.1 .3l-1.9 2.9c-0.1 .1-0.2 .2-0.3 .2c-0.2 0-0.3 0-0.4-0.1c-0.1 0-0.1-0.1-0.2-0.1c0-0.1-0.1-0.2-0.1-0.2c0-0.1 0-0.2 0-0.2c0-0.1 .1-0.2 .1-0.2l.2-0.4c-0.6-0.2-1.3-0.4-2-0.5v.4c0 .1 0 .1 0 .2c0 .1 0 .1-0.1 .2c0 0-0.1 .1-0.2 .1c0 0-0.1 .1-0.2 .1c-0.1 0-0.3-0.1-0.4-0.2c-0.1-0.1-0.1-0.2-0.1-0.3l-0.2-3.5c0-0.1 0-0.2 0-0.3c.1 0 .2-0.1 .3-0.2c.1-0.1 .3-0.2 .4-0.4c.1-0.1 .1-0.3 .1-0.5c0-0.3-0.1-0.6-0.3-0.8c-0.2-0.2-0.4-0.3-0.7-0.3c-0.3 0-0.6 .1-0.8 .3c-0.2 .2-0.3 .5-0.3 .8c0 .2 .1 .4 .2 .5c.1 .2 .2 .3 .4 .4c.1 .1 .1 .2 .2 .2c0 .1 .1 .2 .1 .3l-0.2 3.5c-0.1 .1-0.1 .2-0.2 .3c-0.1 .1-0.3 .2-0.4 .2c-0.2 0-0.3-0.1-0.4-0.2c-0.1-0.1-0.1-0.3-0.1-0.4v-0.4c-0.7 .1-1.4 .3-2 .5l.2 .4c.1 0 .1 .1 .1 .2c0 0 0 .1 0 .2c0 0 0 .1-0.1 .2c0 0-0.1 .1-0.1 .1c-0.1 .1-0.3 .1-0.4 .1c-0.2 0-0.3-0.1-0.4-0.2l-1.9-2.9c0-0.1 0-0.2-0.1-0.3c0-0.1 .1-0.2 .1-0.3c.1-0.2 .2-0.3 .2-0.5c0-0.2 0-0.4-0.1-0.6c-0.2-0.2-0.4-0.4-0.7-0.5c-0.3-0.1-0.6 0-0.8 .1c-0.2 .1-0.4 .3-0.5 .5c0 .3-0.1 .5 0 .7c.1 .3 .2 .5 .4 .6c.2 .1 .4 .2 .7 .2c.1 0 .2 0 .3 .1c.1 0 .1 .1 .2 .2l1.5 3.1c.1 .1 .1 .2 0 .4c0 .1-0.1 .2-0.2 .3c-0.1 0-0.2 .1-0.3 0c-0.1 0-0.2 0-0.2 0c-0.1-0.1-0.2-0.2-0.2-0.2l-0.2-0.4c-0.6 .4-1.1 .9-1.5 1.5l.4 .2c.1 0 .2 .1 .2 .3c.1 .1 .1 .2 0 .4c-0.1 .1-0.2 .2-0.3 .2c-0.1 .1-0.3 .1-0.4 0l-3.1-1.5c-0.1-0.1-0.2-0.2-0.2-0.2c-0.1-0.1-0.1-0.2-0.1-0.3c0-0.2 0-0.4-0.1-0.5c0-0.2-0.1-0.3-0.3-0.4c-0.1-0.1-0.3-0.2-0.4-0.2c-0.2-0.1-0.4-0.1-0.5 0c-0.2 0-0.3 .1-0.4 .2c-0.1 .1-0.2 .2-0.3 .3c-0.1 .2-0.1 .5-0.1 .8c.1 .3 .3 .5 .5 .6c.2 .1 .4 .2 .6 .2c.2 0 .4-0.1 .5-0.2c.1 0 .2-0.1 .3-0.1c.1 0 .2 .1 .3 .1l2.9 1.9c.1 .1 .2 .2 .2 .4c0 .1 0 .2-0.1 .4c0 0-0.1 .1-0.2 .1c0 .1-0.1 .1-0.2 .1c-0.1 0-0.2 0-0.3-0.1l-0.4-0.2c-0.2 .6-0.4 1.3-0.5 2h.4c.1 0 .2 0 .2 0c.1 0 .1 .1 .2 .1c.1 .1 .1 .1 .1 .2c.1 0 .1 .1 .1 .2c0 0 0 .1 0 .2c-0.1 .1-0.1 .1-0.2 .2c0 0-0.1 .1-0.1 .1c-0.1 0-0.2 0-0.2 0l-3.5 .2c-0.1 .1-0.2 0-0.2 0c-0.1-0.1-0.2-0.1-0.3-0.2c0-0.2-0.2-0.4-0.3-0.5c-0.2-0.1-0.4-0.1-0.6-0.1c-0.3 0-0.6 .1-0.8 .3c-0.2 .2-0.3 .5-0.3 .8c0 .2 .1 .5 .3 .7c.2 .2 .5 .3 .8 .3c.2 0 .4 0 .6-0.1c.1-0.1 .3-0.3 .3-0.4c.1-0.1 .2-0.2 .3-0.3c0 0 .1 0 .2 0l3.5 .2c.1 0 .3 0 .3 .1c.1 .2 .2 .3 .2 .4c0 .2-0.1 .3-0.2 .4c-0.1 .1-0.2 .1-0.4 .1h-0.4c.1 .7 .3 1.4 .5 2l.4-0.2c0 0 .1-0.1 .2-0.1c.1 0 .1 0 .2 0c.1 0 .1 .1 .2 .1c0 0 .1 .1 .1 .2c.1 .1 .1 .2 .1 .4c0 .1-0.1 .2-0.2 .3l-2.9 1.9c-0.1 0-0.2 .1-0.3 .1c-0.1 0-0.2-0.1-0.3-0.1c-0.1-0.1-0.3-0.2-0.5-0.2c-0.2 0-0.4 .1-0.6 .2c-0.2 .1-0.4 .3-0.5 .6c0 .3 0 .6 .1 .8c.2 .2 .3 .4 .6 .5c.2 .1 .4 .1 .7 0c.2-0.1 .4-0.2 .5-0.4c.2-0.2 .2-0.4 .2-0.7c0-0.1 0-0.2 .1-0.2c0-0.1 .1-0.2 .2-0.3l3.1-1.5c0 0 .1 0 .2-0.1c.1 0 .1 .1 .2 .1c.1 0 .1 0 .2 .1c0 0 .1 .1 .1 .1c0 .1 .1 .2 .1 .2c0 .1 0 .2-0.1 .2c0 .1 0 .2-0.1 .2c0 .1-0.1 .1-0.1 .2l-0.4 .2c.4 .5 .9 1 1.5 1.4l.2-0.3c0-0.1 0-0.2 .1-0.2c0-0.1 .1-0.1 .2-0.1c0 0 .1 0 .2 0c.1 0 .1 0 .2 0c0 0 .1 .1 .1 .1c.1 .1 .1 .2 .1 .2c.1 .1 .1 .2 .1 .2c0 .1-0.1 .2-0.1 .2l-1.5 3.1c-0.1 .1-0.1 .2-0.2 .2c-0.1 .1-0.2 .1-0.3 .1c-0.2 0-0.4 0-0.5 .1c-0.2 .1-0.3 .2-0.4 .3c-0.1 .1-0.2 .3-0.2 .4c0 .2 0 .4 0 .5c0 .2 .1 .3 .2 .4c.1 .1 .2 .2 .3 .3c.2 .1 .5 .2 .8 .1c.3-0.1 .5-0.3 .7-0.5c.1-0.2 .1-0.4 .1-0.6c0-0.1-0.1-0.3-0.2-0.5c0-0.1-0.1-0.2-0.1-0.3c.1-0.1 .1-0.2 .1-0.3l1.9-2.9c.1-0.1 .2-0.2 .4-0.2c.1 0 .2 0 .4 .1c0 0 .1 .1 .1 .1c.1 .1 .1 .2 .1 .2c0 .1 0 .2 0 .2c0 .1 0 .2-0.1 .2l-0.2 .4c.6 .3 1.3 .4 2 .5v-0.4c0-0.1 0-0.1 0-0.2c0-0.1 .1-0.1 .1-0.2c.1 0 .1-0.1 .2-0.1c.1 0 .1-0.1 .2-0.1c.1 0 .1 0 .2 .1c.1 0 .1 0 .2 .1c0 0 .1 .1 .1 .1c0 .1 .1 .2 .1 .2l.2 3.5c0 .1-0.1 .2-0.1 .3c-0.1 .1-0.1 .1-0.2 .2c-0.2 .1-0.3 .2-0.4 .4c-0.1 .1-0.2 .3-0.2 .5c0 .3 .1 .6 .3 .8c.2 .2 .5 .3 .8 .3c.2 0 .5-0.1 .7-0.3c.2-0.2 .3-0.5 .3-0.8c0-0.2 0-0.4-0.1-0.5c-0.1-0.2-0.3-0.3-0.4-0.4c-0.1-0.1-0.2-0.1-0.3-0.2c0-0.1 0-0.2 0-0.3l.2-3.5c0 0 0-0.1 0-0.2c.1 0 .1-0.1 .2-0.1c0-0.1 .1-0.1 .1-0.1c.1-0.1 .2-0.1 .2-0.1c.1 0 .2 .1 .2 .1c.1 0 .2 .1 .2 .1c.1 .1 .1 .1 .1 .2c0 .1 0 .1 0 .2v.4c.7-0.1 1.4-0.2 2-0.5l-0.2-0.4c0 0-0.1-0.1-0.1-0.2c0 0 0-0.1 0-0.2c0 0 .1-0.1 .1-0.2c.1 0 .1-0.1 .2-0.1c.1-0.1 .2-0.1 .4-0.1c.1 0 .2 .1 .3 .2l1.9 2.9c.1 .1 .1 .2 .1 .3c0 .1 0 .2-0.1 .3c-0.1 .2-0.2 .4-0.2 .5c0 .2 .1 .4 .2 .6c.1 .2 .4 .4 .6 .5c.3 .1 .6 0 .8-0.1c.2-0.1 .4-0.3 .5-0.5c.1-0.3 .1-0.5 0-0.7c0-0.3-0.2-0.5-0.4-0.6c-0.2-0.1-0.4-0.2-0.6-0.2c-0.1 0-0.2 0-0.3-0.1c-0.1 0-0.2-0.1-0.2-0.2l-1.6-3.1c0-0.1-0.1-0.2 0-0.4c0-0.1 .1-0.2 .3-0.3c.1 0 .2-0.1 .4 0c.1 0 .2 .1 .3 .3l.2 .3c.5-0.4 1-0.9 1.5-1.4l-0.4-0.2c-0.1-0.1-0.2-0.1-0.2-0.2c0 0-0.1-0.1-0.1-0.2c0 0 0-0.1 0-0.2c0 0 0-0.1 0-0.2c.1 0 .1-0.1 .2-0.1c0-0.1 .1-0.1 .1-0.1c.1 0 .2-0.1 .2-0.1c.1 .1 .2 .1 .2 .1l3.1 1.5c.1 .1 .2 .2 .2 .3c.1 0 .1 .1 .1 .2c0 .2 0 .4 .1 .5c.1 .2 .2 .3 .3 .4c.1 .1 .3 .2 .5 .2c.1 .1 .3 .1 .5 0c.1 0 .2-0.1 .3-0.2c.1 0 .2-0.2 .3-0.3c.1-0.2 .2-0.5 .1-0.8c-0.1-0.3-0.2-0.5-0.5-0.6c-0.2-0.1-0.3-0.2-0.5-0.2c-0.2 0-0.4 .1-0.6 .2c-0.1 0-0.2 .1-0.3 .1c-0.1 0-0.2-0.1-0.3-0.1l-2.8-1.9c-0.2-0.1-0.2-0.2-0.3-0.3c0-0.2 0-0.3 .1-0.4c0-0.1 .1-0.2 .1-0.2c.1 0 .2-0.1 .2-0.1c.1 0 .2 0 .3 0c0 0 .1 .1 .1 .1l.4 .2c.3-0.6 .4-1.3 .5-2Zm-10.9-8.3c.4-0.4 .9-0.6 1.5-0.6c.3 0 .6 .1 .9 .2c.4 .2 .6 .4 .8 .7c.2 .3 .3 .6 .4 .9c0 .4 0 .7-0.1 1c-0.1 .2-0.2 .3-0.3 .3c-0.1 .1-0.3 .1-0.4 .1c-0.1-0.1-0.2-0.2-0.3-0.3c-0.1-0.1-0.1-0.3 0-0.4c0-0.2 .1-0.5 0-0.7c-0.1-0.2-0.2-0.4-0.4-0.5c-0.2-0.2-0.4-0.2-0.6-0.2c-0.2 0-0.5 0-0.6 .1c-0.2 .2-0.4 .4-0.4 .6c-0.1 .2-0.1 .4 0 .6c0 .3 .2 .4 .3 .6c.2 .1 .4 .2 .7 .2c.1 0 .2 0 .3 .1c.1 .1 .2 .3 .2 .4c0 .2-0.1 .3-0.2 .4c-0.1 .1-0.2 .2-0.3 .2c-0.6 0-1.1-0.3-1.5-0.7c-0.4-0.4-0.7-0.9-0.7-1.5c0-0.5 .3-1.1 .7-1.5Zm-1.5 8.5c-0.1 0-0.2 .1-0.3 .3c0 .1 0 .2 0 .4c.1 .2 .1 .4 0 .6c0 .2-0.2 .4-0.4 .6c-0.1 .1-0.4 .2-0.6 .2c-0.2 0-0.4-0.1-0.6-0.2c-0.2-0.1-0.3-0.3-0.4-0.5c-0.1-0.2-0.1-0.5 0-0.7c.1-0.2 .2-0.4 .4-0.5c.2-0.2 .4-0.2 .6-0.2c.1 0 .3-0.1 .4-0.2c.1-0.1 .1-0.2 .1-0.4c0-0.1 0-0.3-0.1-0.4c-0.1-0.1-0.3-0.1-0.4-0.1c-0.5 0-0.9 .1-1.3 .4c-0.3 .3-0.6 .6-0.7 1.1c-0.2 .4-0.2 .9 0 1.3c.1 .4 .4 .8 .8 1.1c.3 .2 .8 .4 1.2 .3c.5 0 .9-0.1 1.3-0.4c.4-0.3 .6-0.6 .7-1.1c.2-0.4 .2-0.9 0-1.3c0-0.1-0.1-0.1-0.1-0.2c0 0-0.1-0.1-0.2-0.1c0 0-0.1 0-0.2-0.1c0 0-0.1 .1-0.2 .1Zm6.8-0.9c.3-0.1 .6-0.2 1-0.2c.5 0 1.1 .2 1.5 .6c.4 .4 .6 1 .6 1.5c0 .6-0.2 1.1-0.6 1.5c-0.4 .4-1 .7-1.5 .7c-0.2 0-0.3-0.1-0.4-0.2c-0.1-0.1-0.2-0.2-0.2-0.4c0-0.1 .1-0.3 .2-0.4c.1-0.1 .2-0.1 .4-0.1c.2 0 .4-0.1 .6-0.2c.1-0.1 .3-0.3 .4-0.5c0-0.2 .1-0.4 0-0.6c0-0.2-0.1-0.4-0.3-0.5c-0.1-0.2-0.3-0.3-0.5-0.3c-0.2-0.1-0.4 0-0.6 0c-0.2 .1-0.4 .3-0.5 .4c-0.1 .2-0.2 .4-0.2 .6c0 .1 0 .3 .1 .4c0 .1 0 .1 0 .2c0 .1 0 .1 0 .2c-0.1 .1-0.1 .1-0.2 .2c0 0-0.1 .1-0.1 .1c-0.1 0-0.2 0-0.2 0c-0.1 0-0.2 0-0.3 0c0-0.1-0.1-0.1-0.1-0.1c-0.1-0.1-0.1-0.2-0.1-0.2c-0.2-0.4-0.2-0.7-0.1-1c0-0.4 .1-0.7 .3-1c.2-0.3 .5-0.5 .8-0.7Zm-8.6-1.8c.3 0 .6-0.1 .9-0.3c.2-0.2 .4-0.4 .5-0.7c.2-0.3 .2-0.6 .1-0.9c0-0.3-0.2-0.6-0.4-0.8c-0.2-0.3-0.5-0.4-0.8-0.5c-0.3 0-0.7 0-0.9 .1c-0.3 .1-0.6 .3-0.8 .6c-0.1 .3-0.2 .6-0.2 .9c0 .4 .1 .8 .4 1.1c.3 .3 .7 .5 1.2 .5Zm0-2.1c.1 0 .2 0 .3 0c0 .1 .1 .2 .2 .3c0 .1 0 .2 0 .3c0 .1-0.1 .2-0.2 .3c0 0-0.1 .1-0.2 .1c-0.1 0-0.2 0-0.3 0c-0.1-0.1-0.2-0.1-0.3-0.2c0-0.1-0.1-0.2-0.1-0.3c0-0.2 .1-0.3 .2-0.4c.1-0.1 .2-0.1 .4-0.1Zm4.4 7.7c.3-0.2 .6-0.3 .9-0.3c.4 0 .8 .2 1.1 .5c.3 .3 .5 .7 .5 1.1c0 .3-0.1 .6-0.3 .9c-0.1 .3-0.4 .5-0.7 .6c-0.3 .1-0.6 .2-0.9 .1c-0.3-0.1-0.6-0.2-0.8-0.4c-0.3-0.3-0.4-0.6-0.5-0.9c0-0.3 0-0.6 .1-0.9c.1-0.3 .3-0.5 .6-0.7Zm.6 1.8c.1 0 .2 .1 .3 .1c.1 0 .3-0.1 .4-0.2c.1-0.1 .1-0.2 .1-0.4c0-0.1 0-0.2-0.1-0.3c0-0.1-0.1-0.1-0.2-0.2c-0.1 0-0.2 0-0.3 0c-0.1 0-0.2 .1-0.3 .1c-0.1 .1-0.1 .2-0.1 .3c0 .1 0 .2 0 .3c0 .1 .1 .2 .2 .3Zm4.6-7.9c.3 0 .6-0.1 .9-0.3c.2-0.2 .4-0.4 .5-0.7c.2-0.3 .2-0.6 .1-1c0-0.3-0.2-0.6-0.4-0.8c-0.2-0.2-0.5-0.4-0.8-0.4c-0.3-0.1-0.7 0-0.9 .1c-0.3 .1-0.6 .3-0.8 .6c-0.1 .2-0.2 .5-0.2 .9c0 .4 .1 .8 .4 1.1c.3 .3 .7 .5 1.2 .5Zm0-2.2c.1 0 .2 .1 .3 .1c.1 .1 .1 .2 .2 .2c0 .1 0 .3 0 .4c0 .1-0.1 .2-0.2 .2c0 .1-0.1 .2-0.2 .2c-0.1 0-0.2 0-0.3-0.1c-0.1 0-0.2-0.1-0.3-0.1c0-0.1-0.1-0.2-0.1-0.3c0-0.2 .1-0.3 .2-0.4c.1-0.1 .2-0.2 .4-0.2Zm-3.5 2.9c.2 .2 .3 .5 .3 .9c0 .4-0.2 .8-0.5 1.1c-0.3 .3-0.7 .5-1.1 .5c-0.4 0-0.7-0.1-0.9-0.3c-0.3-0.2-0.5-0.4-0.6-0.7c-0.1-0.3-0.2-0.6-0.1-1c.1-0.3 .2-0.6 .4-0.8c.3-0.2 .5-0.4 .9-0.4c.3-0.1 .6 0 .9 .1c.3 .1 .5 .3 .7 .6Zm-1.8 .6c0 0-0.1 .1-0.1 .3c0 .1 .1 .2 .2 .3c.1 .1 .2 .2 .4 .2c.1 0 .2 0 .3-0.1c.1-0.1 .1-0.1 .2-0.2c0-0.1 0-0.2 0-0.3c0-0.2-0.1-0.2-0.2-0.3c0-0.1-0.1-0.1-0.2-0.2c-0.1 0-0.2 0-0.3 .1c-0.1 0-0.2 .1-0.3 .2Z" fill="#f9593a" transform="translate(362.4,252.8) translate(-295.9,-320)" style="animation: 12s linear infinite both nbg0ht3cnnl47nxvx6iotbol_t;"/><path d="M75.5 84.9h-0.5h.5Zm0 .7h.5h-0.5Zm-4 5l-0.1-0.5l.1 .5Zm-5-4.1h.5h-0.5Zm0-0.8l-0.5 .1l.5-0.1Zm4-4.9v-0.5v.5Zm1.9-7.1l-0.5 .1l.5-0.1Zm.1 .8l.5-0.1l-0.5 .1Zm-4.1 4.9l.1 .5l-0.1-0.5Zm-4.9-4l.5-0.1l-0.5 .1Zm-0.1-0.8l-0.5 .1l.5-0.1Zm4.1-4.9v.5v-0.5Zm-6 4.4l-0.5 .1l.5-0.1Zm.1 .8l.5-0.1l-0.5 .1Zm-4.1 4.9v-0.4v.4Zm-4.9-4l.5-0.1l-0.5 .1Zm-0.1-0.8l-0.5 .1l.5-0.1Zm4.1-4.9l-0.1-0.5l.1 .5Zm13.6 17.2v.5v-0.5Zm-0.9-0.7h.4h-0.4Zm.7-0.9v.5v-0.5Zm.9 .8l.5-0.1l-0.5 .1Zm-3.8-10.3l.1 .5l-0.1-0.5Zm-0.9-0.7l.5-0.1l-0.5 .1Zm.8-0.9v.5v-0.5Zm.8 .7h.5h-0.5Zm-11.6 1.3v.5v-0.5Zm-0.9-0.7l.5-0.1l-0.5 .1Zm.7-0.9l.1 .5l-0.1-0.5Zm.9 .7h.5h-0.5Zm15.4-1.2c-0.1 .3 .1 .6 .4 .6c.3 0 .5-0.2 .5-0.5l-0.9-0.1Zm1.8-1.4l-0.2 .4l.2-0.4Zm2.7-0.4c.1-0.3 0-0.6-0.3-0.6c-0.3-0.1-0.5 0-0.6 .3l.9 .3Zm-25.4 18.3c-0.1 .2 .1 .5 .4 .6c.2 0 .5-0.2 .6-0.4l-1-0.2Zm2.1-1.2l.3-0.4l-0.3 .4Zm2.7 0c.1-0.3 0-0.6-0.2-0.7c-0.3-0.1-0.6 0-0.7 .2l.9 .5Zm15.7 .3c-0.3 .1-0.4 .3-0.4 .6c0 .3 .3 .4 .6 .4l-0.2-1Zm1.8 1.5l.5 .2l-0.5-0.2Zm1 2.6c.3 0 .6-0.2 .6-0.5c0-0.3-0.2-0.5-0.5-0.5l-0.1 1Zm-20.6-27.9c-0.3 0-0.4 .2-0.4 .5c0 .3 .3 .5 .5 .4l-0.1-0.9Zm1.8 1.5l.5 .1l-0.5-0.1Zm1 2.5c.3 0 .5-0.2 .6-0.5c0-0.2-0.2-0.5-0.5-0.5l-0.1 1Zm7.4 15.7v.7h1v-0.7h-1Zm0 .7c0 2.2-1.8 4.1-4.1 4.1v.9c2.8 0 5.1-2.2 5.1-5h-1Zm-4.1 4.1c-2.2 0-4-1.9-4-4.1h-1c0 2.8 2.3 5 5 5v-0.9Zm-4-4.1v-0.7h-1v.7h1Zm0-0.7c0-2.3 1.8-4.1 4-4.1v-0.9c-2.7 0-5 2.2-5 5h1Zm4-4.1c2.3 0 4.1 1.8 4.1 4.1h1c0-2.8-2.3-5-5.1-5v.9Zm14.8 3l.1 .8l.9-0.1v-0.8l-1 .1Zm.1 .8c.2 2.2-1.5 4.2-3.7 4.4l.1 1c2.8-0.3 4.8-2.8 4.5-5.5l-0.9 .1Zm-3.7 4.4c-2.2 .2-4.2-1.4-4.4-3.6h-1c.3 2.8 2.8 4.8 5.5 4.5l-0.1-0.9Zm-4.4-3.6l-0.1-0.8l-0.9 .1v.7h1Zm-0.1-0.8c-0.2-2.2 1.5-4.2 3.7-4.4l-0.1-1c-2.8 .3-4.8 2.7-4.5 5.5l.9-0.1Zm3.7-4.4c2.2-0.2 4.2 1.4 4.4 3.6l1-0.1c-0.3-2.7-2.8-4.8-5.5-4.5l.1 1Zm1.3-7.5l.1 .7l1-0.1l-0.1-0.7l-1 .1Zm.1 .7c.2 2.3-1.4 4.2-3.6 4.5l.1 .9c2.7-0.2 4.8-2.7 4.5-5.5l-1 .1Zm-3.6 4.5c-2.2 .2-4.2-1.5-4.4-3.7l-1 .1c.3 2.8 2.7 4.8 5.5 4.5l-0.1-0.9Zm-4.4-3.7l-0.1-0.7l-1 .1l.1 .7l1-0.1Zm-0.1-0.7c-0.2-2.2 1.4-4.2 3.6-4.4l-0.1-1c-2.7 .3-4.7 2.7-4.5 5.5l1-0.1Zm3.6-4.4c2.3-0.3 4.2 1.4 4.4 3.6l1-0.1c-0.3-2.8-2.7-4.8-5.5-4.5l.1 1Zm-6.5 4l.1 .7l1-0.1l-0.1-0.7l-1 .1Zm.1 .7c.2 2.3-1.4 4.2-3.6 4.5l.1 .9c2.7-0.2 4.7-2.7 4.5-5.5l-1 .1Zm-3.6 4.5c-2.3 .2-4.2-1.5-4.4-3.7l-1 .1c.3 2.8 2.7 4.8 5.5 4.5l-0.1-0.9Zm-4.4-3.7l-0.1-0.7l-1 .1l.1 .7l1-0.1Zm-0.1-0.7c-0.2-2.2 1.4-4.2 3.6-4.4l-0.1-1c-2.7 .3-4.8 2.7-4.5 5.5l1-0.1Zm3.6-4.4c2.2-0.3 4.2 1.4 4.4 3.6l1-0.1c-0.3-2.8-2.7-4.8-5.5-4.5l.1 1Zm2.6 16.8c-0.1 0-0.3-0.1-0.3-0.3h-1c0 .7 .6 1.3 1.3 1.3v-1Zm-0.3-0.3c0-0.2 .2-0.3 .3-0.3v-1c-0.7 0-1.3 .6-1.3 1.3h1Zm.3-0.3c.2 0 .4 .1 .4 .3h.9c0-0.7-0.5-1.3-1.3-1.3v1Zm.4 .3c0 .2-0.2 .3-0.4 .3v1c.8 0 1.3-0.6 1.3-1.3h-0.9Zm10.5-0.2c-0.2 0-0.3-0.2-0.4-0.3l-0.9 .1c0 .7 .7 1.2 1.4 1.1l-0.1-0.9Zm-0.4-0.3c0-0.2 .2-0.4 .3-0.4l-0.1-1c-0.7 .1-1.2 .7-1.1 1.5l.9-0.1Zm.3-0.4c.2 0 .4 .1 .4 .3l1-0.1c-0.1-0.7-0.7-1.2-1.5-1.2l.1 1Zm.4 .3c0 .2-0.1 .3-0.3 .4l.1 .9c.7 0 1.2-0.7 1.2-1.4l-1 .1Zm-3.3-10.8c-0.2 0-0.4-0.1-0.4-0.3l-1 .1c.1 .7 .8 1.3 1.5 1.2l-0.1-1Zm-0.4-0.3c0-0.1 .1-0.3 .3-0.3l-0.1-1c-0.7 .1-1.2 .7-1.2 1.4l1-0.1Zm.3-0.3c.2 0 .3 .1 .4 .3l.9-0.1c0-0.7-0.7-1.3-1.4-1.2l.1 1Zm.4 .3c0 .1-0.1 .3-0.3 .3l.1 1c.7-0.1 1.2-0.7 1.1-1.4l-0.9 .1Zm-11.3 .7c-0.1 0-0.3-0.1-0.3-0.3l-1 .1c.1 .7 .7 1.3 1.4 1.2l-0.1-1Zm-0.3-0.3c0-0.1 .1-0.3 .3-0.3l-0.1-1c-0.7 .1-1.3 .7-1.2 1.4l1-0.1Zm.3-0.3c.2 0 .3 .1 .3 .3l1-0.1c-0.1-0.7-0.7-1.3-1.4-1.2l.1 1Zm.3 .3c.1 .2-0.1 .3-0.3 .3l.1 1c.8-0.1 1.3-0.7 1.2-1.4l-1 .1Zm16.8-1.2c.1-0.3 .2-0.7 .3-1c.1-0.1 .1-0.1 .2-0.1c0 0 0-0.1 .2 0l.5-0.8c-0.3-0.2-0.7-0.3-1-0.2c-0.4 .1-0.6 .4-0.7 .6c-0.3 .4-0.4 1.1-0.4 1.4l.9 .1Zm.7-1.1c.7 .4 1.3 .5 1.9 .3c.5-0.2 .9-0.6 1-1.1l-0.9-0.3c-0.1 .2-0.3 .4-0.5 .5c-0.1 .1-0.5 .1-1-0.2l-0.5 .8Zm-21.5 17.7c0-0.3 .2-0.7 .4-1c.1-0.1 .1-0.1 .2-0.1c0 0 0 0 .2 .1l.6-0.8c-0.3-0.2-0.7-0.3-1-0.3c-0.3 .1-0.6 .3-0.8 .5c-0.3 .4-0.5 1-0.6 1.4l1 .2Zm.8-1c.6 .5 1.2 .7 1.8 .5c.6-0.1 1-0.5 1.2-0.9l-0.9-0.5c-0.1 .3-0.3 .4-0.5 .5c-0.2 0-0.5 0-1-0.4l-0.6 .8Zm18.9 .9c.3 0 .7 0 1 0c.1 .1 .2 .1 .2 .2c0 0 0 0 0 .2l.9 .3c.1-0.4 .1-0.7-0.1-1c-0.1-0.3-0.4-0.5-0.7-0.6c-0.5-0.1-1.1-0.1-1.5-0.1l.2 1Zm1.2 .4c-0.2 .8-0.2 1.4 .1 1.9c.3 .5 .9 .7 1.3 .8l.1-1c-0.2 0-0.5-0.2-0.6-0.3c-0.1-0.2-0.2-0.5 0-1.1l-0.9-0.3Zm-19.1-24.3c.4 0 .8 0 1.1 .1c.1 0 .2 .1 .2 .1c0 0 0 .1 0 .2l.9 .3c.1-0.4 .1-0.7-0.1-1c-0.1-0.3-0.4-0.5-0.7-0.5c-0.5-0.2-1.1-0.2-1.5-0.1l.1 .9Zm1.3 .4c-0.3 .8-0.2 1.4 .1 1.9c.3 .5 .8 .7 1.3 .8l.1-1c-0.3 0-0.5-0.1-0.6-0.3c-0.1-0.2-0.2-0.5 0-1.1l-0.9-0.3Z" fill="#f9593a" fill-rule="nonzero" transform="translate(46.5,14) translate(-64.1,-80.2)" style="animation: 12s linear infinite both qjbvjshhc5bhtcq0urvn7a71_t;"/><path d="M366.8 289.7l-0.4-0.4l.4 .4Zm-0.5 .5l.3 .4l-0.3-0.4Zm-6.4 .1l.3-0.4l-0.3 .4Zm-0.1-6.4l.3 .3l-0.3-0.3Zm.5-0.6l-0.3-0.3l.3 .3Zm6.4 0l.4-0.4l-0.4 .4Zm6.7-3.1l-0.4-0.3l.4 .3Zm-0.6 .5l.4 .4l-0.4-0.4Zm-6.4 .1l-0.3 .4l.3-0.4Zm0-6.4l.3 .3l-0.3-0.3Zm.5-0.5l-0.3-0.4l.3 .4Zm6.4-0.1l-0.3 .4l.3-0.4Zm-7.3-1.7l-0.3-0.4l.3 .4Zm-0.5 .5l.4 .4l-0.4-0.4Zm-6.4 .1l.3-0.4l-0.3 .4Zm-0.1-6.4l.4 .3l-0.4-0.3Zm.6-0.5l-0.4-0.4l.4 .4Zm6.4-0.1l.3-0.4l-0.3 .4Zm-4.5 21.5l-0.4 .3l.4-0.3Zm0-1.2l.3 .4l-0.3-0.4Zm1.1 0l-0.3 .4l.3-0.4Zm0 1.2l.4 .3l-0.4-0.3Zm5.5-9.5l-0.4 .4l.4-0.4Zm-0.1-1.1l.4 .3l-0.4-0.3Zm1.2 0l-0.3 .3l.3-0.3Zm0 1.1l.4 .3l-0.4-0.3Zm-8.5-8.1l-0.3 .4l.3-0.4Zm0-1.1l.4 .3l-0.4-0.3Zm1.2-0.1l-0.4 .4l.4-0.4Zm0 1.2l.3 .3l-0.3-0.3Zm10.7 11c-0.2 .1-0.2 .5-0.1 .7c.2 .2 .5 .2 .7 .1l-0.6-0.8Zm2.4 .5l-0.5 .1l.5-0.1Zm2 1.8c.2-0.1 .4-0.4 .3-0.7c-0.1-0.2-0.4-0.3-0.7-0.2l.4 .9Zm-30.3-7.7c-0.3 .1-0.4 .4-0.3 .6c.2 .3 .5 .4 .7 .2l-0.4-0.8Zm2.2 .8h.5h-0.5Zm1.7 2c.3 0 .5-0.3 .4-0.6c-0.1-0.2-0.3-0.4-0.6-0.3l.2 .9Zm9.9 12.3c-0.2-0.1-0.5-0.1-0.7 .1c-0.2 .2-0.2 .5 0 .7l.7-0.8Zm0 2.4l.2 .5l-0.2-0.5Zm-1.3 2.4c.2 .2 .5 .3 .7 .1c.2-0.1 .3-0.4 .1-0.7l-0.8 .6Zm8.1-33.7c-0.2-0.2-0.5-0.2-0.7 0c-0.1 .2-0.1 .5 .1 .7l.6-0.7Zm0 2.3l.2 .5l-0.2-0.5Zm-1.2 2.4c.1 .2 .4 .3 .6 .1c.3-0.1 .3-0.4 .2-0.6l-0.8 .5Zm-7.3 15.7l-0.6 .5l.6 .7l.6-0.4l-0.6-0.8Zm-0.6 .5c-1.7 1.4-4.3 1.2-5.7-0.5l-0.8 .6c1.8 2.1 5 2.4 7.1 .6l-0.6-0.7Zm-5.7-0.5c-1.4-1.7-1.2-4.3 .5-5.7l-0.6-0.7c-2.2 1.7-2.4 4.9-0.7 7l.8-0.6Zm.5-5.7l.6-0.5l-0.7-0.7l-0.5 .5l.6 .7Zm.6-0.5c1.7-1.4 4.2-1.2 5.7 .5l.7-0.6c-1.8-2.1-4.9-2.4-7.1-0.6l.7 .7Zm5.7 .5c1.4 1.7 1.2 4.3-0.5 5.7l.6 .8c2.1-1.8 2.4-5 .6-7.1l-0.7 .6Zm7.1 13.2l-0.5 .6l.7 .7l.5-0.6l-0.7-0.7Zm-0.5 .6c-1.6 1.6-4.1 1.6-5.7 0l-0.7 .7c2 2 5.2 1.9 7.1 0l-0.7-0.7Zm-5.7 0c-1.6-1.5-1.6-4.1-0.1-5.7l-0.7-0.7c-1.9 2-1.9 5.2 .1 7.1l.7-0.7Zm-0.1-5.7l.6-0.5l-0.7-0.7l-0.6 .5l.7 .7Zm.6-0.5c1.5-1.6 4.1-1.6 5.7-0.1l.7-0.7c-2-1.9-5.2-1.9-7.1 .1l.7 .7Zm5.7-0.1c1.6 1.6 1.6 4.1 0 5.7l.7 .7c2-2 1.9-5.1 0-7.1l-0.7 .7Zm6.6-3.7l-0.5 .5l.7 .7l.5-0.6l-0.7-0.6Zm-0.5 .5c-1.6 1.6-4.1 1.6-5.7 .1l-0.7 .7c2 1.9 5.1 1.9 7.1-0.1l-0.7-0.7Zm-5.7 .1c-1.6-1.6-1.6-4.2-0.1-5.8l-0.7-0.6c-1.9 1.9-1.9 5.1 .1 7.1l.7-0.7Zm-0.1-5.8l.5-0.5l-0.6-0.7l-0.6 .6l.7 .6Zm.5-0.5c1.6-1.6 4.2-1.6 5.8 0l.6-0.7c-1.9-2-5.1-2-7 0l.6 .7Zm5.8 0c1.6 1.5 1.6 4.1 0 5.7l.7 .6c2-1.9 1.9-5.1-0.1-7l-0.6 .7Zm-7.3-2.4l-0.5 .5l.7 .7l.5-0.6l-0.7-0.6Zm-0.5 .5c-1.6 1.6-4.2 1.6-5.8 0l-0.6 .7c1.9 2 5.1 1.9 7.1 0l-0.7-0.7Zm-5.8 0c-1.5-1.5-1.6-4.1 0-5.7l-0.7-0.7c-1.9 2-1.9 5.2 .1 7.1l.6-0.7Zm0-5.7l.5-0.5l-0.7-0.7l-0.5 .5l.7 .7Zm.5-0.5c1.6-1.6 4.1-1.6 5.7-0.1l.7-0.7c-2-1.9-5.1-1.9-7.1 .1l.7 .7Zm5.7-0.1c1.6 1.6 1.6 4.2 .1 5.8l.7 .6c1.9-1.9 1.9-5.1-0.1-7.1l-0.7 .7Zm-11.2 12.9c-0.1-0.2-0.1-0.4 0-0.5l-0.6-0.7c-0.5 .4-0.6 1.3-0.1 1.8l.7-0.6Zm0-0.5c.2-0.1 .4-0.1 .5 .1l.8-0.7c-0.5-0.5-1.3-0.6-1.9-0.1l.6 .7Zm.5 .1c.1 .1 .1 .3 0 .4l.6 .8c.5-0.5 .6-1.3 .2-1.9l-0.8 .7Zm0 .4c-0.2 .1-0.4 .1-0.5 0l-0.7 .6c.4 .6 1.2 .6 1.8 .2l-0.6-0.8Zm6.9 7.9c-0.1-0.1-0.1-0.3 0-0.4l-0.7-0.7c-0.5 .5-0.5 1.3 0 1.8l.7-0.7Zm0-0.4c.1-0.1 .3-0.1 .5 0l.7-0.7c-0.6-0.5-1.4-0.5-1.9 0l.7 .7Zm.5 0c.1 .1 .1 .3 0 .4l.7 .7c.5-0.5 .5-1.3 0-1.8l-0.7 .7Zm0 .4c-0.1 .2-0.4 .2-0.5 0l-0.7 .7c.5 .5 1.4 .5 1.9 0l-0.7-0.7Zm6.1-9.4c-0.1-0.2-0.1-0.4 0-0.5l-0.7-0.7c-0.5 .5-0.5 1.4 0 1.9l.7-0.7Zm0-0.5c.1-0.1 .3-0.1 .5 0l.6-0.7c-0.5-0.5-1.3-0.5-1.8 0l.7 .7Zm.5 0c.1 .1 .1 .3 0 .5l.7 .7c.5-0.6 .5-1.4-0.1-1.9l-0.6 .7Zm0 .5c-0.2 .1-0.4 .1-0.5 0l-0.7 .7c.5 .5 1.4 .5 1.9 0l-0.7-0.7Zm-7.8-8.1c-0.2-0.2-0.2-0.4 0-0.5l-0.7-0.7c-0.5 .5-0.5 1.4 0 1.9l.7-0.7Zm0-0.5c.1-0.1 .3-0.1 .4 0l.7-0.7c-0.5-0.5-1.3-0.5-1.8 0l.7 .7Zm.4 0c.2 .1 .2 .3 0 .5l.7 .6c.5-0.5 .5-1.3 0-1.8l-0.7 .7Zm0 .5c-0.1 .1-0.3 .1-0.4 0l-0.7 .7c.5 .5 1.3 .5 1.8-0.1l-0.7-0.6Zm11.7 12.1c.3-0.2 .7-0.4 1-0.4c.1-0.1 .2 0 .2 0c0 0 0 0 .1 .2l.9-0.2c0-0.4-0.2-0.7-0.5-0.9c-0.3-0.1-0.6-0.2-0.9-0.1c-0.5 .1-1 .4-1.4 .6l.6 .8Zm1.3-0.2c.1 .8 .5 1.3 1 1.6c.5 .3 1 .3 1.5 .1l-0.4-0.9c-0.2 .1-0.5 .1-0.6 0c-0.2-0.1-0.5-0.4-0.6-1l-0.9 .2Zm-27.4-5.2c.3-0.1 .7-0.3 1-0.3c.2 0 .2 .1 .2 .1c0 0 .1 0 .1 .2h1c0-0.4-0.2-0.7-0.4-1c-0.3-0.2-0.6-0.2-0.9-0.2c-0.5 0-1.1 .2-1.4 .4l.4 .8Zm1.3 0c0 .8 .3 1.4 .7 1.8c.5 .3 1.1 .4 1.5 .2l-0.2-0.9c-0.3 .1-0.5 0-0.7-0.1c-0.1-0.1-0.3-0.4-0.3-1h-1Zm11.4 15.1c.3 .2 .5 .5 .7 .8c0 .1 0 .2 0 .2c0 0 0 .1-0.2 .2l.4 .9c.3-0.2 .6-0.4 .7-0.8c.1-0.3 .1-0.6 0-0.8c-0.2-0.5-0.6-1-0.9-1.3l-0.7 .8Zm.5 1.2c-0.7 .3-1.2 .7-1.4 1.3c-0.1 .5 0 1.1 .3 1.5l.8-0.6c-0.2-0.2-0.2-0.4-0.1-0.6c0-0.2 .2-0.5 .8-0.7l-0.4-0.9Zm6.4-30.2c.2 .2 .5 .5 .6 .8c.1 .1 .1 .2 0 .2c0 .1 0 .1-0.1 .2l.3 .9c.4-0.2 .7-0.4 .8-0.7c.1-0.4 0-0.7-0.1-0.9c-0.2-0.5-0.6-1-0.9-1.2l-0.6 .7Zm.5 1.2c-0.8 .3-1.2 .8-1.4 1.3c-0.2 .6 0 1.1 .3 1.5l.8-0.6c-0.2-0.2-0.2-0.4-0.2-0.6c.1-0.2 .3-0.5 .8-0.7l-0.3-0.9Z" fill="#f9593a" fill-rule="nonzero" transform="translate(289.4,266.8) translate(-361.8,-278.3)" style="animation: 12s linear infinite both s25oskbiqspx8smvit1o0dv6_t;"/><path d="M57.3 303.5l-0.5 .1l.5-0.1Zm.1 .8l.4-0.1l-0.4 .1Zm-4.1 4.9l-0.1-0.4l.1 .4Zm-5-4l.5-0.1l-0.5 .1Zm0-0.8l-0.5 .1l.5-0.1Zm4-4.9v-0.5v.5Zm2-7.1l-0.5 .1l.5-0.1Zm0 .8l.5-0.1l-0.5 .1Zm-4 4.9v.5v-0.5Zm-5-4.1h.5h-0.5Zm-0.1-0.7h-0.4h.4Zm4.1-4.9l.1 .4l-0.1-0.4Zm-6 4.4l-0.5 .1l.5-0.1Zm.1 .8l.5-0.1l-0.5 .1Zm-4.1 4.9v-0.5v.5Zm-4.9-4l.5-0.1l-0.5 .1Zm-0.1-0.8l-0.5 .1l.5-0.1Zm4.1-4.9l-0.1-0.5l.1 .5Zm13.6 17.2v.5v-0.5Zm-0.9-0.7l.5-0.1l-0.5 .1Zm.7-0.9l.1 .5l-0.1-0.5Zm.9 .7h.5h-0.5Zm-3.8-10.2l.1 .5l-0.1-0.5Zm-0.9-0.7l.5-0.1l-0.5 .1Zm.8-0.9v.5v-0.5Zm.9 .7h.5h-0.5Zm-11.7 1.3l.1 .5l-0.1-0.5Zm-0.9-0.7l.5-0.1l-0.5 .1Zm.8-0.9v.5v-0.5Zm.8 .7h.5h-0.5Zm15.4-1.2c0 .3 .2 .5 .4 .6c.3 0 .5-0.2 .6-0.5l-1-0.1Zm1.9-1.4l-0.3 .4l.3-0.4Zm2.6-0.4c.1-0.3 0-0.6-0.3-0.7c-0.2 0-0.5 .1-0.6 .4l.9 .3Zm-25.4 18.2c0 .3 .1 .6 .4 .6c.3 .1 .5-0.1 .6-0.3l-1-0.3Zm2.1-1.1l.3-0.4l-0.3 .4Zm2.7-0.1c.1-0.2 0-0.5-0.2-0.6c-0.3-0.1-0.6 0-0.7 .2l.9 .4Zm15.7 .4c-0.2 .1-0.4 .3-0.4 .6c.1 .2 .3 .4 .6 .4l-0.2-1Zm1.9 1.5l.4 .2l-0.4-0.2Zm1 2.5c.2 .1 .5-0.1 .5-0.4c0-0.3-0.2-0.5-0.4-0.5l-0.1 .9Zm-20.7-27.9c-0.2 .1-0.4 .3-0.4 .6c.1 .3 .3 .4 .6 .4l-0.2-1Zm1.9 1.5l.4 .2l-0.4-0.2Zm1 2.6c.2 0 .5-0.2 .5-0.5c0-0.3-0.2-0.5-0.5-0.5v1Zm7.3 15.6v.8h1v-0.8h-1Zm0 .8c0 2.2-1.8 4-4 4v1c2.7 0 5-2.2 5-5h-1Zm-4 4c-2.3 0-4.1-1.8-4.1-4h-1c0 2.8 2.3 5 5.1 5v-1Zm-4.1-4v-0.8h-1v.8h1Zm0-0.8c0-2.2 1.8-4 4.1-4v-1c-2.8 0-5.1 2.3-5.1 5h1Zm4.1-4c2.2 0 4 1.8 4 4h1c0-2.7-2.3-5-5-5v1Zm14.7 3l.1 .7l.9-0.1v-0.7l-1 .1Zm.1 .7c.2 2.3-1.4 4.2-3.7 4.5l.1 .9c2.8-0.2 4.8-2.7 4.5-5.5l-0.9 .1Zm-3.7 4.5c-2.2 .2-4.1-1.5-4.4-3.7l-0.9 .1c.2 2.8 2.7 4.8 5.4 4.5l-0.1-0.9Zm-4.4-3.7v-0.7l-1 .1l.1 .7l.9-0.1Zm0-0.7c-0.3-2.2 1.4-4.2 3.6-4.4l-0.1-1c-2.8 .3-4.8 2.7-4.5 5.5l1-0.1Zm3.6-4.4c2.2-0.2 4.2 1.4 4.4 3.6l1-0.1c-0.3-2.8-2.7-4.8-5.5-4.5l.1 1Zm1.4-7.5v.7l1-0.1l-0.1-0.7l-0.9 .1Zm0 .7c.3 2.2-1.4 4.2-3.6 4.4l.1 1c2.8-0.3 4.8-2.7 4.5-5.5l-1 .1Zm-3.6 4.4c-2.2 .2-4.2-1.4-4.4-3.6l-1 .1c.3 2.8 2.8 4.8 5.5 4.5l-0.1-1Zm-4.4-3.6l-0.1-0.7h-0.9v.8l1-0.1Zm-0.1-0.7c-0.2-2.3 1.4-4.2 3.7-4.5l-0.1-0.9c-2.8 .2-4.8 2.7-4.5 5.4h.9Zm3.7-4.5c2.2-0.2 4.2 1.4 4.4 3.7l.9-0.1c-0.2-2.8-2.7-4.8-5.4-4.5l.1 .9Zm-6.6 4.1l.1 .7l1-0.1l-0.1-0.7l-1 .1Zm.1 .7c.2 2.2-1.4 4.2-3.6 4.4l.1 1c2.7-0.3 4.8-2.7 4.5-5.5l-1 .1Zm-3.6 4.4c-2.2 .2-4.2-1.4-4.4-3.6l-1 .1c.3 2.8 2.7 4.8 5.5 4.5l-0.1-1Zm-4.4-3.6l-0.1-0.7l-1 .1l.1 .7l1-0.1Zm-0.1-0.7c-0.2-2.3 1.4-4.2 3.6-4.5l-0.1-0.9c-2.7 .2-4.7 2.7-4.5 5.5l1-0.1Zm3.6-4.5c2.2-0.2 4.2 1.5 4.4 3.7l1-0.1c-0.3-2.8-2.7-4.8-5.5-4.5l.1 .9Zm2.7 16.9c-0.2 0-0.4-0.1-0.4-0.3h-0.9c0 .7 .5 1.3 1.3 1.3v-1Zm-0.4-0.3c0-0.2 .2-0.4 .4-0.4v-0.9c-0.8 0-1.3 .6-1.3 1.3h.9Zm.4-0.4c.1 0 .3 .2 .3 .4h1c0-0.7-0.6-1.3-1.3-1.3v.9Zm.3 .4c0 .2-0.2 .3-0.3 .3v1c.7 0 1.3-0.6 1.3-1.3h-1Zm10.5-0.3c-0.2 .1-0.3-0.1-0.3-0.3l-1 .1c.1 .8 .7 1.3 1.4 1.2l-0.1-1Zm-0.3-0.3c0-0.1 .1-0.3 .3-0.3l-0.1-1c-0.7 .1-1.3 .7-1.2 1.4l1-0.1Zm.3-0.3c.1 0 .3 .1 .3 .3l1-0.1c-0.1-0.7-0.7-1.3-1.4-1.2l.1 1Zm.3 .3c0 .2-0.1 .3-0.3 .3l.1 1c.7-0.1 1.3-0.7 1.2-1.4l-1 .1Zm-3.3-10.8c-0.2 0-0.3-0.1-0.4-0.3l-0.9 .1c0 .7 .7 1.2 1.4 1.2l-0.1-1Zm-0.4-0.3c0-0.2 .1-0.3 .3-0.3l-0.1-1c-0.7 .1-1.2 .7-1.1 1.4l.9-0.1Zm.3-0.3c.2-0.1 .4 .1 .4 .2h1c-0.1-0.8-0.8-1.3-1.5-1.2l.1 1Zm.4 .2c0 .2-0.1 .4-0.3 .4l.1 1c.7-0.1 1.2-0.7 1.2-1.4h-1Zm-11.2 .8c-0.2 0-0.4-0.1-0.4-0.3l-1 .1c.1 .7 .7 1.3 1.5 1.2l-0.1-1Zm-0.4-0.3c0-0.2 .1-0.3 .3-0.3l-0.1-1c-0.7 .1-1.2 .7-1.2 1.4l1-0.1Zm.3-0.3c.2-0.1 .3 .1 .4 .3l.9-0.1c0-0.8-0.7-1.3-1.4-1.2l.1 1Zm.4 .3c0 .1-0.2 .3-0.3 .3l.1 1c.7-0.1 1.2-0.7 1.1-1.4l-0.9 .1Zm16.8-1.2c0-0.3 .1-0.7 .2-1c.1-0.1 .2-0.2 .2-0.2c0 0 .1 0 .2 .1l.5-0.9c-0.3-0.1-0.7-0.2-1-0.1c-0.3 .1-0.6 .4-0.7 .6c-0.3 .4-0.4 1-0.4 1.4l1 .1Zm.6-1.1c.7 .4 1.4 .5 1.9 .3c.5-0.2 .9-0.7 1-1.1l-0.9-0.3c-0.1 .2-0.2 .4-0.4 .5c-0.2 0-0.6 .1-1.1-0.3l-0.5 .9Zm-21.5 17.7c.1-0.4 .2-0.8 .4-1c.1-0.1 .2-0.1 .2-0.1c0 0 .1-0.1 .2 .1l.6-0.8c-0.3-0.2-0.6-0.4-1-0.3c-0.3 .1-0.6 .3-0.7 .5c-0.4 .4-0.6 1-0.7 1.3l1 .3Zm.8-1c.6 .4 1.3 .6 1.8 .5c.6-0.1 1-0.5 1.2-1l-0.9-0.4c-0.1 .3-0.3 .4-0.5 .5c-0.2 0-0.5 0-1-0.4l-0.6 .8Zm18.9 .9c.3-0.1 .7-0.1 1 0c.2 .1 .2 .1 .2 .1c0 .1 .1 .1 0 .3l.9 .3c.1-0.4 .1-0.8 0-1.1c-0.2-0.2-0.5-0.4-0.8-0.5c-0.5-0.2-1.1-0.1-1.5-0.1l.2 1Zm1.2 .4c-0.2 .7-0.2 1.4 .1 1.9c.4 .5 .9 .7 1.4 .7l.1-0.9c-0.3-0.1-0.5-0.2-0.6-0.3c-0.2-0.2-0.2-0.5-0.1-1.1l-0.9-0.3Zm-19-24.3c.3 0 .7 0 1 .1c.2 0 .2 0 .2 .1c0 0 0 0 0 .2l.9 .3c.1-0.4 .1-0.7-0.1-1c-0.1-0.3-0.4-0.5-0.7-0.6c-0.5-0.1-1.1-0.1-1.5-0.1l.2 1Zm1.2 .4c-0.2 .8-0.2 1.4 .1 1.9c.3 .5 .9 .7 1.4 .8v-1c-0.2 0-0.4-0.2-0.5-0.3c-0.2-0.2-0.2-0.5-0.1-1.1l-0.9-0.3Z" fill="#f9593a" fill-rule="nonzero" transform="translate(.3,233.3) translate(-45.9,-298.9)" style="animation: 12s linear infinite both d7gfgjgbdjren97qyj7k0cfs_t;"/></g><g clip-path="url(#ClipPath-1)"><g transform="translate(211.8,80.4) translate(-43.9,-20.4)" style="animation: 12s linear infinite both bj1k63tv7ux7ah0pzxp0z3g6_t, 12s linear infinite both bj1k63tv7ux7ah0pzxp0z3g6_o;"><path d="M177.6 14.1l-6.3 9.3l11.3 .8l-5-10.1Zm-1.4 34.4l1.8-25.6l-1.9-0.1l-1.9 25.6l2 .1Z" fill="url(#n8b2786onjz5gc7pe3h2caj0)" fill-rule="nonzero" transform="translate(-171.3,-14.1)"/><path d="M200.1 14.1l-6.3 9.3l11.2 .8l-4.9-10.1Zm-1.5 34.4l1.8-25.6l-1.9-0.1l-1.8 25.6l1.9 .1Z" fill="url(#xqlshhzt44tmoedfmf49eb0i)" fill-rule="nonzero" transform="translate(-171.3,-14.1)"/><path d="M187.9 20.4l-6.3 9.4l11.2 .7l-4.9-10.1Zm-1.5 34.5l1.8-25.7l-1.9-0.1l-1.8 25.6l1.9 .2Z" fill="url(#bow2c7di4hzt24ot8ojv1mfc)" fill-rule="nonzero" transform="translate(-171.3,-14.1)"/><path d="M210.3 20.4l-6.3 9.4l11.2 .7l-4.9-10.1Zm-1.4 34.5l1.8-25.7l-2-0.1l-1.8 25.6l2 .2Z" fill="url(#bfjctdi5vjuugqtu2uc2xqrt)" fill-rule="nonzero" transform="translate(-171.3,-14.1)"/><path d="M221.5 14.1l-6.3 9.3l11.3 .8l-5-10.1Zm-1.4 34.4l1.8-25.6l-2-0.1l-1.8 25.6l2 .1Z" fill="url(#fjc1eqxk9kr6nqm8daks539n)" fill-rule="nonzero" transform="translate(-171.3,-14.1)"/><path d="M244 14.1l-6.3 9.3l11.2 .8l-4.9-10.1Zm-1.5 34.4l1.8-25.6l-1.9-0.1l-1.8 25.6l1.9 .1Z" fill="url(#jm19o2xz12g8acq441f9sqpa)" fill-rule="nonzero" transform="translate(-171.3,-14.1)"/><path d="M231.8 20.4l-6.3 9.4l11.2 .7l-4.9-10.1Zm-1.5 34.5l1.8-25.7l-1.9-0.1l-1.8 25.6l1.9 .2Z" fill="url(#no1uu66j6fwxrgg4hm0uumi6)" fill-rule="nonzero" transform="translate(-171.3,-14.1)"/><path d="M254.2 20.4l-6.3 9.4l11.2 .7l-4.9-10.1Zm-1.5 34.5l1.9-25.7l-2-0.1l-1.8 25.6l1.9 .2Z" fill="url(#uprd7b65j2b8ctkeeh3g2a64)" fill-rule="nonzero" transform="translate(-171.3,-14.1)"/></g></g><g opacity="0" style="animation: 12s linear infinite both cso0v08ovicro6mfkc7f9x7s_o;"><path d="M213.9 274.7h-0.1c-4.7 1.6-16.6 4.5-26.3 3.3c-5.3-0.7-10.2-2-14.2-3.1c-0.6-0.1-1.3-0.3-1.9-0.5c-2.1-0.5-4-1-5.5-1.1c-0.8-0.1-1.4-0.1-2 0c-0.6 .1-1.1 .4-1.4 .8c-0.8 .9-1.5 1.3-2.1 1.5c-0.3 .1-0.6 .1-0.8 0c0 0 0 0 0 0l8.9-189l4.2-3.9c1.1-1 3.2-2.1 5.7-2.4c2.5-0.3 5.3 .1 7.9 2.4c1.8 1.5 4.8 2.8 8.3 3.8c3.5 .9 7.5 1.7 11.3 2.1c3.8 .4 7.5 .5 10.4 .2c1.5-0.2 2.7-0.4 3.7-0.7c.9-0.3 1.7-0.8 2.1-1.5c.4-0.8 1.3-1.4 2.5-1.7c1.2-0.2 2.6-0.2 4 .1c1.4 .2 2.7 .7 3.7 1.3c1 .7 1.6 1.3 1.6 1.9c0 .3 .1 .5 .3 .8c.1 .2 .4 .5 .6 .7c.5 .5 1.2 1 2 1.6c1.6 1.1 3.9 2.4 6.3 3.7c4.7 2.5 10.3 5.1 14 6.8l-7.6 170.1c-1.1 .7-3.1 1.8-5.3 2.6c-2.4 .8-5.1 1.3-7.4 1c-4.9-0.9-9.2-1.4-10.8-1.6h-0.1l-12 .8Z" fill="#fff" fill-opacity=".9" fill-rule="nonzero" stroke="url(#dkbe2duj5ggjehq1sxmp3b6h)" stroke-width="1px"/><g><path d="M186 99.7l-6-0.3l-0.3 7l6 .3l.3-7Z" fill="#9e9e9e"/><path d="M182.4 177.4l-6-0.3l-0.3 7l6 .3l.3-7Z" fill="#9e9e9e"/><path d="M178.3 255l-6-0.3l-0.3 7l6 .3l.3-7Z" fill="#9e9e9e"/><path d="M184.8 93.9c0-0.4 .2-0.8 .5-1c.9-0.4 3.1-1 8.2-0.6c5.1 .4 7.1 1.4 7.9 1.9c.3 .3 .4 .6 .4 1l-9.3 174.8c-0.1 .6-0.3 1.1-0.8 1.4c-1.2 .6-3.8 1.6-8.1 1.2c-4.6-0.7-6.7-2.1-7.5-2.9c-0.3-0.3-0.4-0.7-0.4-1.1l9.1-174.7Z" fill="url(#vmeqjtq091z720cpgx1ku063)" fill-rule="nonzero"/><path d="M184.7 93.2c-0.2 .8-0.5 9.9-0.5 9.9c0 0 1.7-0.9 8.4-0.6c6.2 .3 8.9 2.4 8.9 2.4c0 0 .5-9.6 .5-10.2c0-0.6-1.1-2.8-8.5-3.4c-7.4-0.6-8.6 1.1-8.8 1.9Z" fill="url(#hk41l89a3dh28d5ykudxuqpe)" fill-rule="nonzero"/><path d="M192.4 270.4c.2-0.8 .6-9.4 .6-9.4c0 0-1.7 .9-8.3 .6c-6.3-0.3-8.6-2.7-8.6-2.7c0 0-0.6 9.4-0.6 10c0 .6 .9 3.3 8.3 3.9c7.4 .6 8.4-1.6 8.6-2.4Z" fill="url(#yrpt35kz9ss2rvhfwz4rb37h)" fill-rule="nonzero"/></g></g><g clip-path="url(#ClipPath-2)" transform="translate(203.2,167.3)"><path d="M366.8 289.7l-0.4-0.4l.4 .4Zm-0.5 .5l.3 .4l-0.3-0.4Zm-6.4 .1l.3-0.4l-0.3 .4Zm-0.1-6.4l.3 .3l-0.3-0.3Zm.5-0.6l-0.3-0.3l.3 .3Zm6.4 0l.4-0.4l-0.4 .4Zm6.7-3.1l-0.4-0.3l.4 .3Zm-0.6 .5l.4 .4l-0.4-0.4Zm-6.4 .1l-0.3 .4l.3-0.4Zm0-6.4l.3 .3l-0.3-0.3Zm.5-0.5l-0.3-0.4l.3 .4Zm6.4-0.1l-0.3 .4l.3-0.4Zm-7.3-1.7l-0.3-0.4l.3 .4Zm-0.5 .5l.4 .4l-0.4-0.4Zm-6.4 .1l.3-0.4l-0.3 .4Zm-0.1-6.4l.4 .3l-0.4-0.3Zm.6-0.5l-0.4-0.4l.4 .4Zm6.4-0.1l.3-0.4l-0.3 .4Zm-4.5 21.5l-0.4 .3l.4-0.3Zm0-1.2l.3 .4l-0.3-0.4Zm1.1 0l-0.3 .4l.3-0.4Zm0 1.2l.4 .3l-0.4-0.3Zm5.5-9.5l-0.4 .4l.4-0.4Zm-0.1-1.1l.4 .3l-0.4-0.3Zm1.2 0l-0.3 .3l.3-0.3Zm0 1.1l.4 .3l-0.4-0.3Zm-8.5-8.1l-0.3 .4l.3-0.4Zm0-1.1l.4 .3l-0.4-0.3Zm1.2-0.1l-0.4 .4l.4-0.4Zm0 1.2l.3 .3l-0.3-0.3Zm10.7 11c-0.2 .1-0.2 .5-0.1 .7c.2 .2 .5 .2 .7 .1l-0.6-0.8Zm2.4 .5l-0.5 .1l.5-0.1Zm2 1.8c.2-0.1 .4-0.4 .3-0.7c-0.1-0.2-0.4-0.3-0.7-0.2l.4 .9Zm-30.3-7.7c-0.3 .1-0.4 .4-0.3 .6c.2 .3 .5 .4 .7 .2l-0.4-0.8Zm2.2 .8h.5h-0.5Zm1.7 2c.3 0 .5-0.3 .4-0.6c-0.1-0.2-0.3-0.4-0.6-0.3l.2 .9Zm9.9 12.3c-0.2-0.1-0.5-0.1-0.7 .1c-0.2 .2-0.2 .5 0 .7l.7-0.8Zm0 2.4l.2 .5l-0.2-0.5Zm-1.3 2.4c.2 .2 .5 .3 .7 .1c.2-0.1 .3-0.4 .1-0.7l-0.8 .6Zm8.1-33.7c-0.2-0.2-0.5-0.2-0.7 0c-0.1 .2-0.1 .5 .1 .7l.6-0.7Zm0 2.3l.2 .5l-0.2-0.5Zm-1.2 2.4c.1 .2 .4 .3 .6 .1c.3-0.1 .3-0.4 .2-0.6l-0.8 .5Zm-7.3 15.7l-0.6 .5l.6 .7l.6-0.4l-0.6-0.8Zm-0.6 .5c-1.7 1.4-4.3 1.2-5.7-0.5l-0.8 .6c1.8 2.1 5 2.4 7.1 .6l-0.6-0.7Zm-5.7-0.5c-1.4-1.7-1.2-4.3 .5-5.7l-0.6-0.7c-2.2 1.7-2.4 4.9-0.7 7l.8-0.6Zm.5-5.7l.6-0.5l-0.7-0.7l-0.5 .5l.6 .7Zm.6-0.5c1.7-1.4 4.2-1.2 5.7 .5l.7-0.6c-1.8-2.1-4.9-2.4-7.1-0.6l.7 .7Zm5.7 .5c1.4 1.7 1.2 4.3-0.5 5.7l.6 .8c2.1-1.8 2.4-5 .6-7.1l-0.7 .6Zm7.1 13.2l-0.5 .6l.7 .7l.5-0.6l-0.7-0.7Zm-0.5 .6c-1.6 1.6-4.1 1.6-5.7 0l-0.7 .7c2 2 5.2 1.9 7.1 0l-0.7-0.7Zm-5.7 0c-1.6-1.5-1.6-4.1-0.1-5.7l-0.7-0.7c-1.9 2-1.9 5.2 .1 7.1l.7-0.7Zm-0.1-5.7l.6-0.5l-0.7-0.7l-0.6 .5l.7 .7Zm.6-0.5c1.5-1.6 4.1-1.6 5.7-0.1l.7-0.7c-2-1.9-5.2-1.9-7.1 .1l.7 .7Zm5.7-0.1c1.6 1.6 1.6 4.1 0 5.7l.7 .7c2-2 1.9-5.1 0-7.1l-0.7 .7Zm6.6-3.7l-0.5 .5l.7 .7l.5-0.6l-0.7-0.6Zm-0.5 .5c-1.6 1.6-4.1 1.6-5.7 .1l-0.7 .7c2 1.9 5.1 1.9 7.1-0.1l-0.7-0.7Zm-5.7 .1c-1.6-1.6-1.6-4.2-0.1-5.8l-0.7-0.6c-1.9 1.9-1.9 5.1 .1 7.1l.7-0.7Zm-0.1-5.8l.5-0.5l-0.6-0.7l-0.6 .6l.7 .6Zm.5-0.5c1.6-1.6 4.2-1.6 5.8 0l.6-0.7c-1.9-2-5.1-2-7 0l.6 .7Zm5.8 0c1.6 1.5 1.6 4.1 0 5.7l.7 .6c2-1.9 1.9-5.1-0.1-7l-0.6 .7Zm-7.3-2.4l-0.5 .5l.7 .7l.5-0.6l-0.7-0.6Zm-0.5 .5c-1.6 1.6-4.2 1.6-5.8 0l-0.6 .7c1.9 2 5.1 1.9 7.1 0l-0.7-0.7Zm-5.8 0c-1.5-1.5-1.6-4.1 0-5.7l-0.7-0.7c-1.9 2-1.9 5.2 .1 7.1l.6-0.7Zm0-5.7l.5-0.5l-0.7-0.7l-0.5 .5l.7 .7Zm.5-0.5c1.6-1.6 4.1-1.6 5.7-0.1l.7-0.7c-2-1.9-5.1-1.9-7.1 .1l.7 .7Zm5.7-0.1c1.6 1.6 1.6 4.2 .1 5.8l.7 .6c1.9-1.9 1.9-5.1-0.1-7.1l-0.7 .7Zm-11.2 12.9c-0.1-0.2-0.1-0.4 0-0.5l-0.6-0.7c-0.5 .4-0.6 1.3-0.1 1.8l.7-0.6Zm0-0.5c.2-0.1 .4-0.1 .5 .1l.8-0.7c-0.5-0.5-1.3-0.6-1.9-0.1l.6 .7Zm.5 .1c.1 .1 .1 .3 0 .4l.6 .8c.5-0.5 .6-1.3 .2-1.9l-0.8 .7Zm0 .4c-0.2 .1-0.4 .1-0.5 0l-0.7 .6c.4 .6 1.2 .6 1.8 .2l-0.6-0.8Zm6.9 7.9c-0.1-0.1-0.1-0.3 0-0.4l-0.7-0.7c-0.5 .5-0.5 1.3 0 1.8l.7-0.7Zm0-0.4c.1-0.1 .3-0.1 .5 0l.7-0.7c-0.6-0.5-1.4-0.5-1.9 0l.7 .7Zm.5 0c.1 .1 .1 .3 0 .4l.7 .7c.5-0.5 .5-1.3 0-1.8l-0.7 .7Zm0 .4c-0.1 .2-0.4 .2-0.5 0l-0.7 .7c.5 .5 1.4 .5 1.9 0l-0.7-0.7Zm6.1-9.4c-0.1-0.2-0.1-0.4 0-0.5l-0.7-0.7c-0.5 .5-0.5 1.4 0 1.9l.7-0.7Zm0-0.5c.1-0.1 .3-0.1 .5 0l.6-0.7c-0.5-0.5-1.3-0.5-1.8 0l.7 .7Zm.5 0c.1 .1 .1 .3 0 .5l.7 .7c.5-0.6 .5-1.4-0.1-1.9l-0.6 .7Zm0 .5c-0.2 .1-0.4 .1-0.5 0l-0.7 .7c.5 .5 1.4 .5 1.9 0l-0.7-0.7Zm-7.8-8.1c-0.2-0.2-0.2-0.4 0-0.5l-0.7-0.7c-0.5 .5-0.5 1.4 0 1.9l.7-0.7Zm0-0.5c.1-0.1 .3-0.1 .4 0l.7-0.7c-0.5-0.5-1.3-0.5-1.8 0l.7 .7Zm.4 0c.2 .1 .2 .3 0 .5l.7 .6c.5-0.5 .5-1.3 0-1.8l-0.7 .7Zm0 .5c-0.1 .1-0.3 .1-0.4 0l-0.7 .7c.5 .5 1.3 .5 1.8-0.1l-0.7-0.6Zm11.7 12.1c.3-0.2 .7-0.4 1-0.4c.1-0.1 .2 0 .2 0c0 0 0 0 .1 .2l.9-0.2c0-0.4-0.2-0.7-0.5-0.9c-0.3-0.1-0.6-0.2-0.9-0.1c-0.5 .1-1 .4-1.4 .6l.6 .8Zm1.3-0.2c.1 .8 .5 1.3 1 1.6c.5 .3 1 .3 1.5 .1l-0.4-0.9c-0.2 .1-0.5 .1-0.6 0c-0.2-0.1-0.5-0.4-0.6-1l-0.9 .2Zm-27.4-5.2c.3-0.1 .7-0.3 1-0.3c.2 0 .2 .1 .2 .1c0 0 .1 0 .1 .2h1c0-0.4-0.2-0.7-0.4-1c-0.3-0.2-0.6-0.2-0.9-0.2c-0.5 0-1.1 .2-1.4 .4l.4 .8Zm1.3 0c0 .8 .3 1.4 .7 1.8c.5 .3 1.1 .4 1.5 .2l-0.2-0.9c-0.3 .1-0.5 0-0.7-0.1c-0.1-0.1-0.3-0.4-0.3-1h-1Zm11.4 15.1c.3 .2 .5 .5 .7 .8c0 .1 0 .2 0 .2c0 0 0 .1-0.2 .2l.4 .9c.3-0.2 .6-0.4 .7-0.8c.1-0.3 .1-0.6 0-0.8c-0.2-0.5-0.6-1-0.9-1.3l-0.7 .8Zm.5 1.2c-0.7 .3-1.2 .7-1.4 1.3c-0.1 .5 0 1.1 .3 1.5l.8-0.6c-0.2-0.2-0.2-0.4-0.1-0.6c0-0.2 .2-0.5 .8-0.7l-0.4-0.9Zm6.4-30.2c.2 .2 .5 .5 .6 .8c.1 .1 .1 .2 0 .2c0 .1 0 .1-0.1 .2l.3 .9c.4-0.2 .7-0.4 .8-0.7c.1-0.4 0-0.7-0.1-0.9c-0.2-0.5-0.6-1-0.9-1.2l-0.6 .7Zm.5 1.2c-0.8 .3-1.2 .8-1.4 1.3c-0.2 .6 0 1.1 .3 1.5l.8-0.6c-0.2-0.2-0.2-0.4-0.2-0.6c.1-0.2 .3-0.5 .8-0.7l-0.3-0.9Z" fill="#f9593a" fill-rule="nonzero" transform="translate(4.8,266.7) translate(-361.8,-278.3)" style="animation: 12s linear infinite both iwoonftszvfboa0bt8hh6r1n_t, 12s linear infinite both iwoonftszvfboa0bt8hh6r1n_o;"/><path d="M235 241.9l1.1 2.3c.2 .3 .1 .6-0.2 .7c-0.3 .2-0.6 .1-0.8-0.2l-1-2.2c-1.2 .7-2.5 .9-3.7 .8l-0.2 3.2c0 .3-0.3 .5-0.6 .5c-0.3 0-0.5-0.3-0.5-0.6l.2-3.3c-1.3-0.4-2.4-1.1-3.2-2.2l-2 1.4c-0.2 .2-0.6 .2-0.8-0.1c-0.1-0.2-0.1-0.5 .1-0.7c0 0 0 0 0 0l2-1.6c-0.5-0.7-1.7-2.2-3.4-3.3l-0.9 2.3c-0.1 .3-0.5 .4-0.7 .3c-0.3-0.1-0.5-0.4-0.3-0.7l1-2.5c-1.6-0.8-3.5-1.2-5.8-0.7l.1 2.7c0 .3-0.2 .5-0.5 .5c-0.3 0-0.6-0.2-0.6-0.5l-0.1-2.4c-1.4 .5-2.9 .5-4.2 0l-1.3 2.4c-0.1 .3-0.5 .4-0.7 .3c-0.3-0.1-0.4-0.5-0.3-0.8l1.3-2.4c-1.3-0.7-2.2-1.8-2.7-3.2l-2.4 .8c-0.3 .1-0.6-0.1-0.7-0.4c-0.1-0.2 0-0.4 .1-0.6c.1 0 .2-0.1 .3-0.1l2.4-0.7c-0.2-1.3 0-2.6 .5-3.8l-1.7-0.9c-0.3-0.1-0.4-0.5-0.3-0.8c.1 0 .1 0 .1-0.1c.2-0.2 .5-0.2 .7-0.1l1.8 .9c.2-0.2 .4-0.5 .6-0.7c.7-0.6 1.5-1.1 2.3-1.4c.4-0.2 .8-0.3 1.2-0.4l-0.9-2.6c-0.1-0.2 0-0.4 .1-0.5c.1-0.1 .2-0.1 .2-0.2c.3-0.1 .6 .1 .7 .4l1 2.6c1.3-0.3 2.5-0.5 3.7-0.6l.1-2.5c0-0.2 0-0.3 .1-0.4c.1-0.1 .3-0.2 .4-0.2c.4 0 .6 .3 .6 .6v2.5c1.5 0 3.1 .1 4.5 .5l1-2.1c.1 0 .1-0.1 .1-0.1c.2-0.2 .5-0.2 .7-0.1c.3 .1 .4 .4 .2 .7l-0.9 1.9c1.4 .4 2.7 .9 3.9 1.5l.9-2.4c0-0.1 0-0.1 .1-0.2c.1-0.2 .4-0.2 .6-0.1c.3 .1 .4 .4 .3 .7l-0.9 2.6c1.3 .7 2.5 1.6 3.6 2.5l1.5-2.2c0 0 0-0.1 0-0.1c.2-0.2 .5-0.2 .7-0.1c.3 .2 .4 .6 .2 .8l-1.6 2.4c1.2 1 2.2 2.2 3 3.2l2.2-1.4c.3-0.2 .6-0.1 .8 .1c.2 .3 .1 .6-0.2 .8l-2.2 1.4c.2 .3 .4 .6 .6 .9c.6 1 .9 2.1 .9 3.2l2.8 .4c.3 0 .5 .3 .5 .6c-0.1 .3-0.4 .5-0.7 .5l-2.7-0.4c-0.2 1.2-0.8 2.4-1.7 3.3c-0.1 .1-0.3 .2-0.4 .4Zm-5 .2c-1.4-0.3-2.6-1.1-3.3-2.3c-0.5-0.9-5.2-7.9-12.9-5.2c-1.3 .4-2.6 .4-3.9-0.2c-1.2-0.6-2.1-1.6-2.6-2.9c0-0.1 0-0.2-0.1-0.3c0 0 0-0.1 0-0.1c0 0 0-0.1 0-0.1c-0.3-1.3-0.1-2.6 .5-3.8c.1 0 .1 0 .1-0.1c0 0 0 0 0 0c.2-0.3 .5-0.6 .7-0.9c.6-0.5 1.2-0.9 1.9-1.2c.5-0.2 1.1-0.3 1.6-0.5c0 0 .1 0 .1 0c0 0 0 0 0 0c1.6-0.4 3-0.6 4.5-0.7c0 0 0 0 .1 0c1.8-0.1 3.5 .1 5.1 .6h.1c1.7 .4 3.3 1.1 4.8 1.9c0 0 0 0 .1 0c4.1 2.3 7 5.7 8.6 8.2c.5 .9 .7 2 .7 3c0 0 0 .1 0 .1c-0.1 1.1-0.6 2.2-1.5 3.1c-0.3 .3-0.6 .6-1 .8c-1.1 .6-2.4 .8-3.6 .6Zm-21.1-0.5c.1-0.1 .3-0.3 .5-0.4c.4-0.3 1-0.5 1.5-0.7v-1.7c0-0.1 .1-0.3 .2-0.4c.1-0.1 .2-0.1 .3-0.1c.4 0 .6 .2 .6 .5v1.7c1.1 .1 2.2 .6 2.9 1.6c.3 .4 .8 .3 1.1 .2l1.4-3c.1 0 .1-0.1 .2-0.1c.1-0.2 .4-0.2 .6-0.1c.3 .1 .4 .4 .3 .7l-1 2.1c1.6-0.1 3.2 .7 3.9 2.3c.6 1.2 .5 2.5-0.2 3.6l1.6 1.6c.2 .2 .2 .6 0 .8c-0.2 .2-0.5 .2-0.8 0l-1.5-1.5c-0.3 .3-0.6 .5-1 .7c-0.8 .4-2 .8-3.4 .8l-0.4 1.6c0 .3-0.3 .5-0.6 .5c-0.3-0.1-0.5-0.4-0.5-0.7l.3-1.4c-1.1 0-2.3-0.3-3.4-0.9l-1 2c-0.2 .3-0.5 .4-0.8 .2c-0.3-0.1-0.4-0.4-0.2-0.7l1-2.1c-0.7-0.5-1.4-1.1-2-2c-0.4-0.6-0.7-1.3-0.7-1.9l-2.8 .1c-0.3 0-0.5-0.2-0.6-0.5c0-0.2 .1-0.3 .2-0.5c.1 0 .2-0.1 .4-0.1l2.8-0.2c.2-0.7 .5-1.4 1.1-2Zm0 2.5c0-0.7 .4-1.5 1.1-2c1.3-0.9 3-0.6 4 .6c.7 1.1 2.1 .8 2.7 .6c1.4-0.7 3.1-0.1 3.7 1.3c.4 1 .3 2.1-0.2 2.9c-0.1 0-0.1 0-0.1 0c0 0-0.1 .1-0.1 .1c0 .1-0.1 .2-0.1 .2c-0.3 .3-0.6 .5-0.9 .6c-0.8 .4-2 .7-3.3 .7c-0.1 0-0.1 0-0.2 0c-2 .1-4.3-0.7-6.1-3c-0.4-0.6-0.6-1.2-0.5-1.8c0-0.1 0-0.1 0-0.2Zm7.2 .2c.9-0.9 2.3-0.9 3.2 0c.9 .9 .9 2.3 0 3.2c-0.9 .9-2.3 .9-3.2 0c-0.9-0.9-0.9-2.3 0-3.2Zm2.4 2.4c.5-0.4 .5-1.1 0-1.6c-0.4-0.4-1.2-0.4-1.6 0c-0.5 .5-0.5 1.2 0 1.6c.4 .5 1.2 .5 1.6 0Zm10.5-11.8c1.1-1.1 2.8-1.1 3.9 0c1.1 1.1 1.1 2.8 0 3.9c-1.1 1.1-2.8 1.1-3.9 0c-1.1-1.1-1.1-2.8 0-3.9Zm3.1 3.1c.6-0.6 .6-1.7 0-2.3c-0.6-0.6-1.7-0.6-2.3 0c-0.6 .6-0.6 1.7 0 2.3c.6 .7 1.7 .7 2.3 0Zm-18.2-10.4c-1.1-1.1-2.8-1.1-3.9 0c-1.1 1.1-1.1 2.8 0 3.9c1.1 1.1 2.8 1.1 3.9 0c1.1-1.1 1.1-2.8 0-3.9Zm-0.8 .8c.7 .6 .7 1.6 0 2.3c-0.6 .6-1.6 .6-2.3 0c-0.6-0.7-0.6-1.7 0-2.3c.7-0.7 1.7-0.7 2.3 0Zm4.2-2.1c.7-0.6 1.7-0.6 2.4 0c.6 .7 .6 1.7 0 2.4c-0.7 .6-1.7 .6-2.4 0c-0.6-0.7-0.6-1.7 0-2.4Zm1.6 1.6c.2-0.2 .2-0.6 0-0.8c-0.2-0.2-0.6-0.2-0.8 0c-0.2 .2-0.2 .6 0 .8c.2 .2 .6 .2 .8 0Zm3.5 2.5c-0.6-0.6-1.5-0.6-2 0c-0.6 .6-0.6 1.5 0 2c.5 .6 1.4 .6 2 0c.6-0.5 .6-1.4 0-2Zm-0.8 .8c.1 .1 .1 .3 0 .5c-0.1 .1-0.3 .1-0.4 0c-0.2-0.2-0.2-0.4 0-0.5c.1-0.1 .3-0.1 .4 0Zm4.3-1c.9-0.9 2.3-0.9 3.2 0c.9 .8 .9 2.3 0 3.2c-0.9 .8-2.3 .8-3.2 0c-0.9-0.9-0.9-2.4 0-3.2Zm2.4 2.4c.5-0.5 .5-1.2 0-1.7c-0.4-0.4-1.2-0.4-1.6 0c-0.4 .5-0.4 1.2 0 1.7c.4 .4 1.2 .4 1.6 0Z" fill="#f9593a" transform="translate(10.6,198.5) translate(-221.8,-235.9)" style="animation: 12s linear infinite both uvw1iurhsygsols8eh225ugw_t, 12s linear infinite both uvw1iurhsygsols8eh225ugw_o;"/><path d="M232.1 174.8c.4 .1 .9 0 1.2-0.2c.4-0.2 .7-0.5 .9-0.9c.2-0.3 .3-0.8 .2-1.2c-0.1-0.4-0.3-0.8-0.6-1.1c-0.3-0.3-0.6-0.5-1.1-0.6c-0.4 0-0.8 0-1.2 .2c-0.4 .2-0.7 .5-0.9 .9c-0.2 .3-0.2 .8-0.2 1.2l-1.1 1c-0.7-0.6-1.5-1-2.3-1.4l.3-1.5c.4-0.1 .7-0.4 1-0.7c.2-0.4 .3-0.8 .3-1.2c0-0.5-0.2-0.9-0.5-1.2c-0.2-0.3-0.6-0.6-1-0.7c-0.4-0.1-0.8-0.1-1.2 .1c-0.4 .1-0.8 .4-1 .7c-0.2 .4-0.4 .8-0.4 1.2c.1 .4 .2 .8 .5 1.2l-0.5 1.4c-0.9-0.1-1.8-0.1-2.7 0l-0.4-1.4c.2-0.4 .4-0.8 .4-1.2c0-0.4-0.1-0.8-0.3-1.2c-0.3-0.3-0.6-0.6-1-0.8c-0.4-0.1-0.8-0.1-1.2 0c-0.4 .1-0.8 .3-1.1 .6c-0.2 .3-0.4 .7-0.4 1.2c-0.1 .4 0 .8 .3 1.2c.2 .3 .5 .6 .9 .8l.3 1.5c-0.8 .3-1.6 .7-2.3 1.3l-1.1-1.1c0-0.4 0-0.8-0.2-1.2c-0.2-0.4-0.5-0.7-0.9-0.8c-0.4-0.2-0.8-0.3-1.2-0.2c-0.5 0-0.8 .2-1.1 .5c-0.3 .3-0.5 .7-0.6 1.1c-0.1 .4 0 .9 .2 1.2c.1 .4 .4 .7 .8 .9c.4 .2 .8 .3 1.2 .3l1 1.1c-0.5 .7-1 1.5-1.3 2.3l-1.5-0.4c-0.2-0.3-0.4-0.7-0.8-0.9c-0.3-0.2-0.8-0.3-1.2-0.3c-0.4 0-0.8 .2-1.1 .4c-0.4 .3-0.6 .6-0.7 1.1c-0.1 .4-0.1 .8 0 1.2c.2 .4 .4 .7 .8 1c.3 .2 .8 .3 1.2 .3c.4 0 .8-0.1 1.1-0.4l1.5 .5c-0.1 .9-0.2 1.8 0 2.6l-1.5 .5c-0.3-0.3-0.7-0.4-1.1-0.4c-0.5-0.1-0.9 .1-1.2 .3c-0.4 .2-0.7 .6-0.8 1c-0.2 .3-0.2 .8-0.1 1.2c.1 .4 .3 .8 .7 1c.3 .3 .7 .5 1.1 .5c.4 0 .9-0.1 1.2-0.3c.4-0.2 .7-0.5 .8-0.9l1.5-0.3c.3 .8 .8 1.6 1.3 2.3l-1 1.1c-0.4-0.1-0.8 0-1.2 .2c-0.4 .2-0.7 .5-0.9 .9c-0.2 .4-0.3 .8-0.2 1.2c.1 .4 .3 .8 .6 1.1c.3 .3 .6 .5 1.1 .6c.4 0 .8 0 1.2-0.2c.4-0.2 .7-0.5 .9-0.9c.2-0.3 .3-0.8 .2-1.2l1.2-1c.6 .6 1.4 1 2.2 1.4l-0.3 1.5c-0.3 .1-0.5 .2-0.7 .5c-0.2 .2-0.4 .4-0.5 .7c-0.1 .3-0.1 .6 0 .9c0 .3 .1 .6 .3 .8c.1 .3 .3 .5 .6 .7c.3 .1 .5 .2 .8 .2c.3 .1 .6 0 .9-0.1c.3-0.1 .6-0.2 .8-0.4c.2-0.3 .4-0.6 .5-0.9c.1-0.3 .1-0.6 0-0.9c0-0.4-0.2-0.6-0.3-0.9l.4-1.4c.9 .1 1.8 .1 2.7 0l.5 1.4c-0.3 .4-0.5 .8-0.5 1.2c0 .4 .1 .8 .3 1.2c.3 .3 .6 .6 1 .8c.4 .1 .8 .1 1.2 0c.5-0.1 .8-0.3 1.1-0.6c.3-0.3 .4-0.7 .4-1.2c.1-0.4 0-0.8-0.2-1.2c-0.3-0.3-0.6-0.6-1-0.8l-0.3-1.5c.8-0.3 1.6-0.7 2.3-1.3l1.1 1.1c0 .4 .1 .8 .2 1.2c.2 .4 .6 .7 .9 .8c.4 .2 .8 .3 1.2 .2c.5 0 .9-0.2 1.2-0.5c.3-0.3 .5-0.7 .5-1.1c.1-0.4 0-0.9-0.1-1.2c-0.2-0.4-0.5-0.7-0.9-0.9c-0.4-0.2-0.8-0.3-1.2-0.3l-1-1.1c.5-0.7 1-1.5 1.3-2.3l1.5 .4c.2 .3 .4 .7 .8 .9c.4 .2 .8 .3 1.2 .3c.4 0 .8-0.2 1.1-0.4c.4-0.3 .6-0.6 .7-1.1c.1-0.4 .1-0.8 0-1.2c-0.2-0.4-0.4-0.7-0.8-1c-0.3-0.2-0.7-0.3-1.2-0.3c-0.4 0-0.8 .1-1.1 .4l-1.5-0.5c.2-0.9 .2-1.8 0-2.6l1.5-0.5c.2 .2 .5 .3 .8 .4c.3 .1 .7 0 1 0c.3-0.1 .6-0.3 .9-0.5c.2-0.2 .3-0.5 .4-0.8c.1-0.3 .2-0.6 .2-0.9c-0.1-0.3-0.2-0.5-0.3-0.8c-0.2-0.3-0.4-0.5-0.6-0.6c-0.3-0.2-0.6-0.3-0.8-0.4c-0.3 0-0.6 0-0.9 .1c-0.3 .1-0.6 .2-0.8 .4c-0.2 .2-0.4 .5-0.5 .7l-1.5 .3c-0.3-0.8-0.8-1.6-1.3-2.3l1-1.1Zm-2 2.2l.3-0.3c.4 .5 .7 1.1 1 1.7l-0.4 .1c-0.1 0-0.1 0-0.2 .1c0 0-0.1 .1-0.1 .1c-0.1 .1-0.1 .1-0.1 .2c0 .1 0 .1 0 .2c0 .1 .1 .2 .2 .3c.1 .1 .3 .1 .4 .1l3.2-0.6c.1 0 .2-0.1 .2-0.2c.1 0 .1-0.1 .2-0.2c0-0.2 .1-0.4 .2-0.5c.2-0.1 .3-0.2 .5-0.3c.3 0 .5 0 .8 .2c.2 .1 .4 .3 .4 .6c.1 .1 .1 .2 0 .4c0 .1 0 .2-0.1 .3c-0.1 .2-0.2 .3-0.3 .4c-0.1 .1-0.3 .1-0.5 .1c-0.1 0-0.3 0-0.4 0c-0.2-0.1-0.3-0.2-0.4-0.3c-0.1-0.1-0.1-0.1-0.2-0.2c-0.1 0-0.2 0-0.3 .1l-3.1 .9c-0.1 .1-0.1 .1-0.2 .1c0 .1-0.1 .1-0.1 .2c0 .1-0.1 .1-0.1 .2c0 .1 0 .1 .1 .2c0 0 0 .1 0 .2c.1 0 .1 0 .2 .1c.1 0 .1 0 .2 0c.1 0 .1 0 .2 0l.4-0.1c0 .6 0 1.3 0 2l-0.4-0.2c-0.2 0-0.3 0-0.4 .1c-0.1 0-0.2 .1-0.3 .3c0 .1 0 .2 .1 .3c0 .2 .1 .3 .2 .3l3.1 1c.1 .1 .2 .1 .3 .1c.1-0.1 .2-0.1 .3-0.2c.1-0.1 .3-0.3 .5-0.3c.3 0 .5 0 .7 .1c.2 .1 .3 .3 .4 .5c.1 .2 .1 .5 .1 .7c-0.1 .2-0.3 .5-0.5 .6c-0.2 .1-0.5 .1-0.8 .1c-0.2-0.1-0.3-0.2-0.4-0.3c-0.2-0.1-0.3-0.3-0.3-0.5c0-0.1-0.1-0.2-0.1-0.2c-0.1-0.1-0.2-0.1-0.3-0.2l-3.2-0.7c-0.1 0-0.2 0-0.3 .1c-0.2 .1-0.2 .2-0.3 .3c0 .1 0 .2 0 .2c0 .1 .1 .2 .1 .2c0 .1 .1 .1 .1 .2c.1 0 .2 0 .2 0l.4 .1c-0.2 .6-0.6 1.2-1 1.7l-0.3-0.3c0 0 0-0.1-0.1-0.1c-0.1 0-0.1 0-0.2 0c-0.1-0.1-0.1 0-0.2 0c-0.1 0-0.1 0-0.2 .1c0 0-0.1 .1-0.1 .1c0 .1 0 .2 0 .2c0 .1 0 .2 0 .2c0 .1 0 .1 .1 .2l2.1 2.4c.1 .1 .2 .2 .3 .2c.1 0 .2 0 .3 0c.1-0.1 .3-0.1 .5 0c.2 0 .3 .1 .5 .2c.1 .2 .3 .5 .3 .8c-0.1 .2-0.2 .5-0.4 .7c-0.1 .2-0.4 .3-0.7 .3c-0.2 0-0.5-0.2-0.7-0.3c-0.1-0.2-0.2-0.3-0.2-0.5c-0.1-0.2-0.1-0.4 0-0.6c0 0 0-0.1 0-0.2c0-0.1-0.1-0.2-0.2-0.3l-2.4-2.2c0 0-0.1 0-0.1-0.1c-0.1 0-0.2 0-0.2 0c-0.1 0-0.2 0-0.2 .1c-0.1 0-0.1 0-0.2 .1c0 0-0.1 .1-0.1 .1c0 .1 0 .2 0 .2c0 .1 0 .2 0 .2c.1 .1 .1 .1 .2 .2l.3 .3c-0.6 .3-1.2 .7-1.8 .9l-0.1-0.4c0 0 0-0.1 0-0.1c-0.1-0.1-0.1-0.2-0.2-0.2c0 0-0.1-0.1-0.1-0.1c-0.1 0-0.2 0-0.2 0c-0.2 .1-0.3 .1-0.4 .3c0 .1-0.1 .2 0 .3l.6 3.2c0 .1 0 .2 .1 .3c.1 0 .2 .1 .3 .1c.1 .1 .3 .1 .4 .3c.2 .1 .3 .3 .3 .4c.1 .3 0 .6-0.1 .8c-0.1 .2-0.4 .4-0.6 .5c-0.1 0-0.3 0-0.4 0c-0.1 0-0.3-0.1-0.4-0.1c-0.1-0.1-0.2-0.2-0.3-0.4c-0.1-0.1-0.2-0.2-0.2-0.4c0-0.2 0-0.3 .1-0.5c.1-0.1 .1-0.2 .3-0.4c0 0 .1-0.1 .1-0.2c0-0.1 0-0.2 0-0.3l-1-3.1c0 0 0-0.1-0.1-0.1c0-0.1-0.1-0.1-0.1-0.2c-0.1 0-0.2 0-0.2 0c-0.1 0-0.2 0-0.2 0c-0.1 0-0.2 0-0.2 .1c-0.1 0-0.1 .1-0.1 .1c-0.1 .1-0.1 .2-0.1 .2c0 .1 0 .2 0 .2l.2 .4c-0.7 .1-1.4 .1-2 0l.1-0.4c0 0 0-0.1 0-0.2c0 0 0-0.1 0-0.2c0 0-0.1-0.1-0.1-0.1c-0.1-0.1-0.1-0.1-0.2-0.1c-0.1 0-0.1-0.1-0.2-0.1c-0.1 .1-0.1 .1-0.2 .1c0 0-0.1 .1-0.1 .1c-0.1 .1-0.1 .1-0.1 .2l-1.1 3.1c0 .1 0 .2 0 .3c0 0 .1 .1 .1 .2c.2 .2 .3 .4 .3 .6c.1 .2 0 .4-0.1 .6c-0.1 .2-0.3 .4-0.5 .5c-0.2 .1-0.4 .1-0.6 0c-0.3-0.1-0.5-0.2-0.6-0.5c-0.2-0.2-0.2-0.5-0.1-0.7c0-0.2 .1-0.4 .3-0.5c.1-0.1 .3-0.2 .4-0.3c.1 0 .2 0 .3-0.1c.1-0.1 .1-0.1 .1-0.2l.7-3.2c0-0.1 0-0.3-0.1-0.4c0-0.1-0.1-0.2-0.3-0.2c0 0-0.1 0-0.2 0c0 0-0.1 0-0.2 .1c0 0-0.1 0-0.1 .1c0 0-0.1 .1-0.1 .2l-0.1 .4c-0.6-0.3-1.1-0.6-1.7-1l.3-0.3c.1-0.1 .2-0.2 .2-0.4c0-0.1 0-0.2-0.1-0.3c-0.1-0.1-0.2-0.2-0.4-0.2c-0.1 0-0.2 0-0.3 .1l-2.5 2.2c-0.1 0-0.1 .1-0.1 .2c-0.1 .1-0.1 .2 0 .3c0 .2 0 .4 0 .5c-0.1 .2-0.2 .4-0.3 .5c-0.2 .2-0.4 .3-0.7 .3c-0.3 0-0.5-0.1-0.7-0.3c-0.2-0.2-0.3-0.5-0.3-0.7c0-0.3 .1-0.5 .3-0.7c.1-0.2 .3-0.3 .5-0.3c.1 0 .3 0 .5 0c.1 .1 .2 .1 .3 0c.1 0 .2 0 .2-0.1l2.2-2.4c.1-0.1 .1-0.1 .1-0.2c0-0.1 .1-0.1 .1-0.2c-0.1-0.1-0.1-0.1-0.1-0.2c0 0-0.1-0.1-0.1-0.1c-0.1-0.1-0.1-0.1-0.2-0.1c0-0.1-0.1-0.1-0.2-0.1c0 0-0.1 .1-0.2 .1c0 0-0.1 .1-0.1 .1l-0.3 .3c-0.4-0.5-0.7-1.1-1-1.7l.4-0.1c.1 0 .2-0.1 .3-0.1c0-0.1 .1-0.2 .1-0.3c0 0 0-0.1 0-0.2c0-0.1-0.1-0.2-0.2-0.3c-0.1-0.1-0.2-0.1-0.4-0.1l-3.2 .6c-0.1 0-0.1 .1-0.2 .2c-0.1 0-0.1 .1-0.2 .2c0 .2-0.1 .4-0.2 .5c-0.1 .1-0.3 .2-0.5 .3c-0.2 0-0.5 0-0.8-0.1c-0.2-0.2-0.3-0.4-0.4-0.7c0-0.1-0.1-0.2 0-0.4c0-0.1 0-0.2 .1-0.3c.1-0.2 .2-0.3 .3-0.4c.2-0.1 .3-0.1 .5-0.1c.1 0 .3 0 .4 0c.2 .1 .3 .2 .4 .3c.1 .1 .2 .1 .3 .2c0 0 .1 0 .2-0.1l3.1-0.9c.2-0.1 .3-0.2 .3-0.3c.1-0.1 .1-0.3 .1-0.4c-0.1-0.1-0.2-0.2-0.3-0.3c-0.1 0-0.2-0.1-0.4 0l-0.4 .1c0-0.6 0-1.3 .1-2l.3 .2c.1 0 .2 0 .3 0c.1 0 .2-0.1 .3-0.2c0 0 .1-0.1 .1-0.2c0-0.1 0-0.2 0-0.3c-0.1-0.2-0.2-0.3-0.3-0.3l-3.1-1c-0.1-0.1-0.2-0.1-0.3-0.1c-0.1 .1-0.2 .1-0.2 .2c-0.2 .2-0.4 .3-0.6 .3c-0.2 0-0.5 0-0.7-0.1c-0.2-0.1-0.3-0.3-0.4-0.5c-0.1-0.2-0.1-0.5 0-0.7c0-0.2 .2-0.4 .4-0.6c.3-0.1 .5-0.1 .8-0.1c.2 .1 .3 .2 .5 .3c.1 .1 .2 .3 .2 .5c0 .1 .1 .2 .1 .2c.1 .1 .2 .2 .3 .2l3.2 .7c.1 0 .2 0 .4-0.1c.1-0.1 .1-0.2 .2-0.3c0-0.1 0-0.2 0-0.2c0-0.1-0.1-0.2-0.1-0.2c0-0.1-0.1-0.1-0.1-0.2c-0.1 0-0.2 0-0.2 0l-0.4-0.1c.3-0.6 .6-1.2 1-1.7l.3 .3c0 .1 .2 .1 .3 .1c.1 .1 .3 0 .4-0.1c.1-0.1 .1-0.2 .1-0.3c.1-0.2 0-0.3-0.1-0.4l-2.1-2.4c-0.1-0.1-0.2-0.2-0.3-0.2c0 0-0.1 0-0.2 0c-0.2 .1-0.4 .1-0.6 0c-0.2 0-0.3-0.1-0.5-0.2c-0.1-0.2-0.2-0.5-0.2-0.8c0-0.2 .1-0.5 .3-0.7c.2-0.2 .4-0.3 .7-0.3c.2 0 .5 .2 .7 .3c.1 .2 .2 .3 .2 .5c.1 .2 .1 .4 0 .6c0 .1 0 .2 0 .2c0 .1 .1 .2 .2 .3l2.4 2.2c.1 .1 .2 .1 .3 .1c.2 0 .3-0.1 .4-0.1v-0.1c0 0 .1-0.1 .1-0.1c0-0.1 0-0.2 0-0.2c0-0.1 0-0.2 0-0.2c-0.1-0.1-0.1-0.1-0.1-0.2l-0.3-0.3c.5-0.3 1.1-0.7 1.7-0.9l.1 .4c0 0 0 .1 0 .1c.1 .1 .1 .2 .2 .2c0 0 .1 .1 .2 .1c0 0 .1 0 .2 0c.1-0.1 .2-0.1 .3-0.2c0-0.2 .1-0.3 .1-0.4l-0.7-3.2c0-0.1 0-0.2-0.1-0.3c-0.1 0-0.2-0.1-0.3-0.1c-0.1-0.1-0.3-0.1-0.4-0.3c-0.2-0.1-0.3-0.3-0.3-0.4c-0.1-0.3 0-0.6 .1-0.8c.1-0.2 .4-0.4 .6-0.5c.1 0 .3 0 .4 0c.1 0 .3 .1 .4 .1c.1 .1 .2 .2 .3 .4c.1 .1 .2 .3 .2 .4c0 .2 0 .3-0.1 .5c0 .1-0.1 .2-0.3 .4c0 0-0.1 .1-0.1 .2c0 .1 0 .2 0 .3l1 3.1c0 .1 .1 .2 .3 .3c.1 0 .2 0 .3 0c.1 0 .2-0.1 .2-0.1c.1-0.1 .2-0.2 .2-0.3c0 0 0-0.1 0-0.2l-0.2-0.4c.7-0.1 1.4-0.1 2 0l-0.1 .4c0 0 0 .1 0 .2c0 0 0 .1 0 .2c.1 0 .1 .1 .1 .1c.1 .1 .1 .1 .2 .1c.1 0 .1 .1 .2 .1c.1-0.1 .1-0.1 .2-0.1c.1 0 .1-0.1 .2-0.1c0-0.1 0-0.1 .1-0.2l1-3.1c0-0.1 0-0.2 0-0.3c0 0-0.1-0.1-0.1-0.2c-0.2-0.2-0.3-0.4-0.3-0.6c-0.1-0.2 0-0.4 .1-0.6c.1-0.2 .3-0.4 .5-0.5c.2 0 .4-0.1 .6 0c.3 .1 .5 .2 .6 .5c.2 .2 .2 .5 .1 .7c0 .2-0.1 .4-0.2 .5c-0.2 .1-0.3 .2-0.5 .3c-0.1 0-0.2 0-0.3 .1c0 .1-0.1 .1-0.1 .2l-0.7 3.2c0 .1 0 .3 .1 .4c0 .1 .2 .2 .3 .2c.1 0 .2 0 .2 0c.1 0 .2-0.1 .2-0.1c.1-0.1 .2-0.2 .2-0.3l.1-0.4c.6 .3 1.2 .6 1.7 1l-0.3 .3c-0.1 .1-0.2 .2-0.2 .4c0 .1 0 .2 .1 .3c.1 .1 .2 .2 .4 .2c.1 0 .2 0 .3-0.1l2.5-2.2c.1 0 .1-0.1 .1-0.2c.1-0.1 .1-0.2 0-0.3c0-0.2 0-0.4 0-0.5c.1-0.2 .2-0.4 .3-0.5c.2-0.2 .4-0.3 .7-0.3c.3 0 .5 .1 .7 .3c.2 .2 .3 .5 .3 .7c0 .3-0.1 .5-0.3 .7c-0.1 .2-0.3 .3-0.5 .3c-0.1 0-0.3 0-0.5 0c-0.1-0.1-0.2-0.1-0.3 0c-0.1 0-0.2 0-0.2 .1l-2.2 2.4c-0.1 .1-0.1 .1-0.1 .2c0 .1 0 .1 0 .2c0 .1 0 .1 0 .2c0 0 .1 .1 .1 .1c.1 .1 .1 .1 .2 .1c.1 .1 .1 .1 .2 .1c.1 0 .1-0.1 .2-0.1c0 0 .1-0.1 .1-0.1Zm-3.9 7.5c-0.2 .2-0.3 .5-0.4 .8c0 .3 0 .6 .1 .9c.1 .2 .3 .5 .6 .7c.2 .1 .5 .2 .8 .2c.3 0 .6-0.1 .8-0.2c.3-0.2 .5-0.4 .6-0.7c.1-0.3 .1-0.6 .1-0.9c-0.1-0.3-0.2-0.5-0.4-0.8c-0.3-0.2-0.7-0.4-1.1-0.4c-0.4 0-0.8 .1-1.1 .4Zm1.5 1.5c-0.1 0-0.2 .1-0.3 .1c-0.1 0-0.2 0-0.3 0c-0.1-0.1-0.2-0.1-0.2-0.2c-0.1-0.1-0.1-0.2-0.1-0.3c0-0.1 0-0.2 .1-0.3c0-0.1 .1-0.1 .2-0.2c.1 0 .2 0 .3 0c.1 0 .2 .1 .3 .1c.1 .1 .1 .3 .1 .4c0 .1 0 .3-0.1 .4Zm-1.1-6.8c-0.2 .2-0.4 .5-0.5 .8c-0.1 .3-0.1 .6 0 1c0 .3 .2 .6 .4 .8c.2 .3 .4 .5 .7 .6c.1 .1 .1 .1 .2 .1c.1 0 .1 0 .2 0c.1-0.1 .1-0.1 .2-0.1c0-0.1 .1-0.1 .1-0.2c0-0.1 0-0.1 0-0.2c0-0.1 0-0.1 0-0.2c0 0-0.1-0.1-0.1-0.2c-0.1 0-0.1 0-0.2-0.1c-0.1 0-0.2-0.1-0.3-0.2c-0.1-0.1-0.2-0.3-0.2-0.5c-0.1-0.2 0-0.4 0-0.6c.1-0.2 .2-0.3 .4-0.4c.2-0.1 .4-0.2 .6-0.2c.2 0 .4 .1 .5 .2c.2 .1 .3 .3 .4 .4c.1 .2 .1 .4 0 .6c0 .2-0.1 .4-0.2 .5c-0.1 .1-0.2 .3-0.2 .4c0 .1 .1 .3 .2 .3c.1 .1 .2 .2 .3 .2c.1 0 .3-0.1 .4-0.1c.4-0.4 .6-0.9 .6-1.5c0-0.5-0.2-1-0.6-1.4c-0.4-0.4-0.9-0.6-1.4-0.6c-0.6 0-1.1 .2-1.5 .6Zm-4.5 5.8c0 .2 0 .3 0 .4c.1 .2 .2 .3 .3 .3c.2 .1 .3 .3 .4 .4c.1 .2 .2 .5 .1 .7c0 .2-0.1 .4-0.2 .5c-0.2 .2-0.4 .3-0.6 .3c-0.2 .1-0.4 0-0.6-0.1c-0.2-0.1-0.4-0.2-0.5-0.4c-0.1-0.2-0.1-0.4-0.1-0.6c.1-0.2 .2-0.4 .3-0.6c.1-0.1 .2-0.2 .2-0.4c0-0.1-0.1-0.2-0.2-0.3c-0.1-0.1-0.2-0.2-0.3-0.2c-0.1 0-0.3 .1-0.4 .2c-0.3 .3-0.5 .7-0.5 1.1c-0.1 .4 0 .9 .1 1.2c.2 .4 .6 .7 .9 .9c.4 .2 .9 .3 1.3 .2c.4-0.1 .8-0.3 1.1-0.6c.3-0.3 .5-0.7 .5-1.1c.1-0.4 0-0.8-0.2-1.2c-0.2-0.4-0.5-0.7-0.9-0.9c0 0-0.1 0-0.2 0c0 0-0.1 0-0.2 0c0 0-0.1 0-0.1 .1c-0.1 0-0.1 .1-0.2 .1Zm2-4.1c-0.2-0.2-0.4-0.3-0.7-0.4c-0.3 0-0.6 0-0.9 .1c-0.3 .1-0.5 .3-0.7 .5c-0.2 .3-0.3 .6-0.3 .9c0 .3 .1 .6 .3 .8c.2 .3 .4 .5 .7 .6c.2 .1 .5 .1 .8 .1c.3-0.1 .6-0.2 .8-0.4c.3-0.3 .5-0.7 .5-1.1c0-0.4-0.2-0.8-0.5-1.1Zm-1.4 1.5c-0.1-0.1-0.1-0.2-0.1-0.3c-0.1-0.1 0-0.2 0-0.3c0-0.1 .1-0.2 .2-0.2c.1-0.1 .2-0.1 .3-0.1c.1 0 .2 0 .2 .1c.1 0 .2 .1 .2 .2c.1 .1 .1 .2 0 .3c0 .1 0 .2-0.1 .3c-0.1 .1-0.2 .1-0.3 .1c-0.2 0-0.3-0.1-0.4-0.1Zm-3.6 2.1c.2-0.2 .4-0.5 .4-0.8c.1-0.3 .1-0.6 0-0.9c-0.2-0.3-0.3-0.5-0.6-0.7c-0.2-0.1-0.5-0.2-0.8-0.2c-0.3 0-0.6 .1-0.9 .2c-0.2 .2-0.4 .4-0.5 .7c-0.2 .3-0.2 .6-0.1 .9c0 .3 .2 .5 .4 .7c.3 .3 .6 .5 1 .5c.4 0 .8-0.2 1.1-0.4Zm6.1-6.8c.2-0.2 .4-0.4 .5-0.7c0-0.3 0-0.6-0.1-0.9c-0.1-0.3-0.3-0.5-0.6-0.7c-0.2-0.2-0.5-0.2-0.8-0.2c-0.3-0.1-0.6 0-0.9 .2c-0.2 .2-0.4 .4-0.5 .7c-0.1 .2-0.2 .6-0.1 .8c0 .3 .2 .6 .4 .8c.3 .3 .7 .5 1.1 .5c.4 0 .7-0.2 1-0.5Zm-7.5 5.3c.1 0 .2-0.1 .3-0.1c.1 0 .2 0 .2 0c.1 .1 .2 .1 .3 .2c0 .1 .1 .2 .1 .3c0 .1-0.1 .2-0.1 .3c-0.1 0-0.2 .1-0.3 .1c-0.1 .1-0.2 .1-0.3 .1c0 0-0.1-0.1-0.2-0.2c-0.1-0.1-0.2-0.2-0.2-0.3c0-0.2 .1-0.3 .2-0.4Zm6.1-6.7c.1-0.1 .2-0.1 .3-0.1c.1-0.1 .2 0 .3 0c.1 0 .1 .1 .2 .2c0 .1 .1 .2 .1 .3c0 .1-0.1 .2-0.1 .2c-0.1 .1-0.1 .2-0.2 .2c-0.1 .1-0.2 .1-0.3 .1c-0.1-0.1-0.2-0.1-0.3-0.2c-0.1-0.1-0.1-0.2-0.1-0.3c0-0.2 0-0.3 .1-0.4Zm-5.7 .7c-0.4 .3-0.6 .9-0.6 1.4c0 .5 .2 1 .6 1.4c.4 .4 .9 .6 1.4 .6c.5 0 1.1-0.2 1.4-0.6c.1-0.1 .2-0.2 .2-0.3c0-0.1-0.1-0.3-0.2-0.4c-0.1-0.1-0.2-0.1-0.3-0.1c-0.1 0-0.3 0-0.4 .1c-0.1 .2-0.3 .3-0.5 .3c-0.2 0-0.5 0-0.7-0.1c-0.1-0.1-0.3-0.3-0.4-0.5c-0.1-0.1-0.1-0.4-0.1-0.6c.1-0.2 .2-0.4 .3-0.5c.2-0.2 .4-0.3 .6-0.3c.2 0 .4 0 .6 .1c.2 .1 .3 .3 .4 .5c.1 .1 .2 .2 .3 .2c.1 .1 .3 .1 .4 0c.1 0 .2-0.1 .3-0.3c0-0.1 0-0.2 0-0.3c-0.2-0.3-0.4-0.6-0.6-0.8c-0.3-0.2-0.6-0.3-0.9-0.4c-0.3 0-0.7 0-1 .1c-0.3 .1-0.6 .2-0.8 .5Z" fill="#f9593a" fill-rule="nonzero" transform="translate(11.9,144.6) translate(-223.1,-182)" style="animation: 12s linear infinite both z854mcb1ji0ikrhjc9bu75ax_t, 12s linear infinite both z854mcb1ji0ikrhjc9bu75ax_o;"/></g></svg>