<svg width="18" height="18" viewBox="0 0 18 18" fill="none" xmlns="http://www.w3.org/2000/svg">
<rect width="17.8691" height="18" rx="8.93455" fill="#096DD9"/>
<path fill-rule="evenodd" clip-rule="evenodd" d="M10.6135 12.2928L10.5005 12.7728C10.1616 12.9115 9.89122 13.0172 9.68925 13.0901C9.48728 13.163 9.25279 13.1995 8.98578 13.1995C8.57499 13.1995 8.25578 13.0955 8.02814 12.8875C7.8005 12.6795 7.68668 12.4155 7.68668 12.0955C7.68668 11.971 7.69523 11.8439 7.71235 11.7141C7.72947 11.5844 7.75685 11.4377 7.79451 11.2741L8.21556 9.7168C8.25321 9.56747 8.28488 9.42614 8.31055 9.2928C8.33623 9.15947 8.34906 9.03769 8.34906 8.92747C8.34906 8.72836 8.3097 8.58969 8.23096 8.51147C8.15223 8.43325 8.00161 8.39414 7.7791 8.39414C7.66956 8.39414 7.55745 8.41191 7.44277 8.44747C7.3281 8.48302 7.22968 8.5168 7.14752 8.5488L7.26049 8.0688C7.53777 7.95147 7.80306 7.85102 8.05638 7.76747C8.3097 7.68391 8.54932 7.64214 8.77525 7.64214C9.18261 7.64214 9.49669 7.74436 9.71749 7.9488C9.93828 8.15325 10.0487 8.41902 10.0487 8.74614C10.0487 8.81369 10.041 8.9328 10.0256 9.10347C10.0102 9.27414 9.98193 9.43058 9.94085 9.5728L9.5198 11.1248C9.48557 11.2492 9.45476 11.3915 9.42737 11.5515C9.39999 11.7115 9.38629 11.8324 9.38629 11.9141C9.38629 12.1204 9.43079 12.2608 9.5198 12.3355C9.6088 12.4101 9.76284 12.4475 9.98193 12.4475C10.0846 12.4475 10.201 12.4288 10.3311 12.3915C10.4612 12.3541 10.5553 12.3212 10.6135 12.2928ZM10.7215 5.78126C10.7215 6.05148 10.6231 6.2817 10.4263 6.47193C10.2295 6.66215 9.99241 6.75726 9.71513 6.75726C9.43785 6.75726 9.19994 6.66215 9.00139 6.47193C8.80285 6.2817 8.70358 6.05148 8.70358 5.78126C8.70358 5.51104 8.80285 5.27993 9.00139 5.08793C9.19994 4.89593 9.43785 4.79993 9.71513 4.79993C9.99241 4.79993 10.2295 4.89593 10.4263 5.08793C10.6231 5.27993 10.7215 5.51104 10.7215 5.78126Z" fill="white"/>
</svg>
