<svg width="32" height="32" viewBox="0 0 32 32" fill="none" xmlns="http://www.w3.org/2000/svg">
<path d="M15.9998 9.58999C12.453 9.58999 9.59047 12.4525 9.59047 15.9994C9.59047 19.5462 12.453 22.4087 15.9998 22.4087C19.5467 22.4087 22.4092 19.5462 22.4092 15.9994C22.4092 12.4525 19.5467 9.58999 15.9998 9.58999ZM15.9998 20.165C13.7061 20.165 11.8342 18.2931 11.8342 15.9994C11.8342 13.7056 13.7061 11.8337 15.9998 11.8337C18.2936 11.8337 20.1655 13.7056 20.1655 15.9994C20.1655 18.2931 18.2936 20.165 15.9998 20.165ZM22.6717 7.83374C21.8436 7.83374 21.1748 8.50249 21.1748 9.33062C21.1748 10.1587 21.8436 10.8275 22.6717 10.8275C23.4998 10.8275 24.1686 10.1619 24.1686 9.33062C24.1688 9.13398 24.1303 8.93922 24.0552 8.7575C23.98 8.57578 23.8698 8.41066 23.7307 8.27162C23.5917 8.13257 23.4266 8.02232 23.2448 7.94718C23.0631 7.87204 22.8684 7.83349 22.6717 7.83374V7.83374ZM28.4936 15.9994C28.4936 14.2744 28.5092 12.565 28.4123 10.8431C28.3155 8.84312 27.8592 7.06812 26.3967 5.60562C24.9311 4.13999 23.1592 3.68687 21.1592 3.58999C19.4342 3.49312 17.7248 3.50874 16.003 3.50874C14.278 3.50874 12.5686 3.49312 10.8467 3.58999C8.84672 3.68687 7.07172 4.14312 5.60922 5.60562C4.14359 7.07124 3.69047 8.84312 3.59359 10.8431C3.49672 12.5681 3.51234 14.2775 3.51234 15.9994C3.51234 17.7212 3.49672 19.4337 3.59359 21.1556C3.69047 23.1556 4.14672 24.9306 5.60922 26.3931C7.07484 27.8587 8.84672 28.3119 10.8467 28.4087C12.5717 28.5056 14.2811 28.49 16.003 28.49C17.728 28.49 19.4373 28.5056 21.1592 28.4087C23.1592 28.3119 24.9342 27.8556 26.3967 26.3931C27.8623 24.9275 28.3155 23.1556 28.4123 21.1556C28.5123 19.4337 28.4936 17.7244 28.4936 15.9994V15.9994ZM25.7436 23.3681C25.5155 23.9369 25.2405 24.3619 24.7998 24.7994C24.3592 25.24 23.9373 25.515 23.3686 25.7431C21.7248 26.3962 17.8217 26.2494 15.9998 26.2494C14.178 26.2494 10.2717 26.3962 8.62797 25.7462C8.05922 25.5181 7.63422 25.2431 7.19672 24.8025C6.75609 24.3619 6.48109 23.94 6.25297 23.3712C5.60297 21.7244 5.74984 17.8212 5.74984 15.9994C5.74984 14.1775 5.60297 10.2712 6.25297 8.62749C6.48109 8.05874 6.75609 7.63374 7.19672 7.19624C7.63734 6.75874 8.05922 6.48062 8.62797 6.25249C10.2717 5.60249 14.178 5.74937 15.9998 5.74937C17.8217 5.74937 21.728 5.60249 23.3717 6.25249C23.9405 6.48062 24.3655 6.75562 24.803 7.19624C25.2436 7.63687 25.5186 8.05874 25.7467 8.62749C26.3967 10.2712 26.2498 14.1775 26.2498 15.9994C26.2498 17.8212 26.3967 21.7244 25.7436 23.3681Z" fill="#F9593A"/>
</svg>
