<svg width="144" height="56" viewBox="0 0 144 56" fill="none" xmlns="http://www.w3.org/2000/svg">
<path d="M21.238 3.79661C21.238 3.79661 9.78439 11.4245 0 11.4245C0 11.4245 0.000121698 18.0989 0 34.5466C-0.000121695 50.9942 21.238 56 21.238 56C21.238 56 42.2373 50.0407 42.2373 34.5466V11.4245C31.9763 11.4245 21.238 3.79661 21.238 3.79661Z" fill="#F9593A"/>
<path opacity="0.3" d="M21.238 3.79661C21.238 3.79661 9.78439 11.4245 0 11.4245C0 11.4245 0.000121698 18.0989 0 34.5466C-0.000121695 50.9942 21.238 56 21.238 56C21.238 56 42.2373 50.0407 42.2373 34.5466V11.4245C31.9763 11.4245 21.238 3.79661 21.238 3.79661Z" fill="black"/>
<path d="M26.9329 0C26.9329 0 15.4794 7.62789 5.69498 7.62789C5.69498 7.62789 5.6951 14.3023 5.69498 30.7499C5.69486 47.1976 26.9329 52.2034 26.9329 52.2034C26.9329 52.2034 47.9323 46.2441 47.9323 30.7499V7.62789C37.6712 7.62789 26.9329 0 26.9329 0Z" fill="#F9593A"/>
<path fill-rule="evenodd" clip-rule="evenodd" d="M26.8136 33.9127L19.041 37.9661L20.5255 29.3809L14.2373 23.3009L22.9273 22.0483L26.8136 14.2373L30.6999 22.0483L39.3899 23.3009L33.1017 29.3809L34.5862 37.9661L26.8136 33.9127Z" fill="white"/>
<path d="M66.633 18.257H60.7776V12.4444H66.633V18.257ZM66.633 46.6417H60.7776V21.8414H66.633V46.6417Z" fill="#F9593A"/>
<path d="M71.2202 12.4444H82.4431C84.948 12.4444 86.7696 12.9773 87.9082 14.0429C89.0793 15.1085 89.6648 16.9007 89.6648 19.4195V22.4711C89.6648 24.2795 89.3721 25.6357 88.7865 26.5399C88.201 27.4118 87.1437 27.9769 85.6148 28.2352C87.469 28.5582 88.6564 29.1717 89.1769 30.0759C89.7299 30.9801 90.0064 32.4494 90.0064 34.4837V39.4244C90.0064 42.137 89.4371 44.026 88.2986 45.0917C87.1925 46.125 85.1919 46.6417 82.2967 46.6417H71.2202V12.4444ZM77.5636 17.3367V25.9587H80.0034C81.272 25.9587 82.1504 25.781 82.6383 25.4258C83.1263 25.0383 83.3702 24.1664 83.3702 22.8102V20.3398C83.3702 19.1773 83.11 18.3862 82.5895 17.9664C82.1016 17.5466 81.272 17.3367 80.1009 17.3367H77.5636ZM77.5636 30.8993V41.701H80.2961C81.5973 41.701 82.5082 41.5073 83.0287 41.1198C83.5492 40.7 83.8094 39.7473 83.8094 38.2619V34.2416C83.8094 32.9499 83.5817 32.078 83.1263 31.6259C82.6708 31.1415 81.825 30.8993 80.5889 30.8993H77.5636Z" fill="#F9593A"/>
<path d="M110.428 46.6417H104.329C103.906 46.125 103.678 45.3985 103.645 44.462C103.58 44.5266 103.402 44.7203 103.109 45.0432C102.848 45.3339 102.653 45.5438 102.523 45.6729C102.393 45.7698 102.165 45.9474 101.84 46.2058C101.547 46.4318 101.255 46.5933 100.962 46.6901C100.701 46.8193 100.36 46.9323 99.937 47.0292C99.5141 47.1261 99.075 47.1745 98.6196 47.1745C97.5786 47.1745 96.7165 46.9969 96.0334 46.6417C95.3503 46.2865 94.846 45.786 94.5207 45.1401C94.1954 44.462 93.9677 43.7677 93.8376 43.0573C93.74 42.3469 93.6912 41.5234 93.6912 40.5869V38.8916C93.6912 37.0833 93.9515 35.7916 94.4719 35.0166C94.9924 34.2093 96.0009 33.4343 97.4973 32.6915L103.548 29.6884V27.7993C103.548 26.8305 103.385 26.1686 103.06 25.8133C102.767 25.4581 102.247 25.2805 101.498 25.2805C100.653 25.2805 100.1 25.5227 99.8394 26.0071C99.6117 26.4592 99.4979 27.3149 99.4979 28.5743V29.4946H94.1792V26.6852C94.1792 26.33 94.1954 25.9909 94.228 25.668C94.293 25.3451 94.4719 24.893 94.7647 24.3118C95.0575 23.7305 95.4479 23.2461 95.9358 22.8586C96.4238 22.4388 97.1882 22.0836 98.2292 21.793C99.2702 21.4701 100.49 21.3086 101.889 21.3086C102.214 21.3086 102.556 21.3247 102.914 21.357C103.271 21.357 103.857 21.4701 104.67 21.6961C105.516 21.8899 106.248 22.1643 106.866 22.5196C107.484 22.8425 108.037 23.3753 108.525 24.118C109.046 24.8607 109.306 25.7488 109.306 26.7821V41.8463C109.306 44.4943 109.68 46.0927 110.428 46.6417ZM103.499 41.4104V34.1447L100.669 35.9853C100.116 36.3728 99.7581 36.8411 99.5955 37.39C99.4328 37.9067 99.3515 38.8109 99.3515 40.1026C99.3515 41.0713 99.4491 41.7656 99.6443 42.1854C99.8394 42.6052 100.197 42.8151 100.718 42.8151C101.466 42.8151 102.393 42.3469 103.499 41.4104Z" fill="#F9593A"/>
<path d="M123.626 36.8088H129.384V39.6182C129.384 42.0078 128.717 43.8646 127.384 45.1886C126.082 46.4802 124.114 47.1261 121.479 47.1261C116.047 47.1261 113.331 44.7526 113.331 40.0057V28.6227C113.331 26.2977 114.079 24.5055 115.575 23.2461C117.104 21.9867 119.072 21.357 121.479 21.357C122.358 21.357 123.204 21.4539 124.017 21.6477C124.83 21.8091 125.66 22.1159 126.505 22.568C127.384 22.9878 128.083 23.6659 128.604 24.6024C129.124 25.5066 129.384 26.6045 129.384 27.8962V31.2384H123.626V28.2352C123.626 26.3946 122.911 25.4743 121.479 25.4743C120.601 25.4743 119.983 25.7488 119.625 26.2977C119.267 26.8467 119.088 27.6863 119.088 28.8165V39.6182C119.088 41.7817 119.853 42.8635 121.382 42.8635C122.878 42.8635 123.626 41.7979 123.626 39.6666V36.8088Z" fill="#F9593A"/>
<path d="M140.045 25.668V39.9088C140.045 40.8453 140.24 41.5234 140.631 41.9432C141.021 42.3307 141.704 42.5245 142.68 42.5245C142.875 42.5245 143.201 42.4922 143.656 42.4276V46.5933C142.81 46.787 141.818 46.8839 140.68 46.8839C138.305 46.8839 136.646 46.5125 135.703 45.7698C134.792 44.9948 134.336 43.6547 134.336 41.7495V25.668H131.165V21.8414H134.287V12.8319H140.045V21.8414H143.51V25.668H140.045Z" fill="#F9593A"/>
</svg>
