<svg width="30" height="29" viewBox="0 0 30 29" fill="none" xmlns="http://www.w3.org/2000/svg">
<path d="M29.3169 26.1016H28.2108V13.7632C28.2108 13.5425 28.0317 13.3634 27.8111 13.3634H22.6041V3.13531C22.6041 2.91463 22.425 2.73553 22.2043 2.73553H19.2636V0.399776C19.2636 0.1791 19.0845 0 18.8638 0H10.5018C10.2812 0 10.1021 0.1791 10.1021 0.399776V2.73553H7.51232C7.29164 2.73553 7.11254 2.91463 7.11254 3.13531V13.3634H1.90586C1.68519 13.3634 1.50609 13.5425 1.50609 13.7632V26.1016H0.399776C0.1791 26.1016 0 26.2807 0 26.5014V28.6002C0 28.8209 0.1791 29 0.399776 29H29.3169C29.5376 29 29.7167 28.8209 29.7167 28.6002V26.5014C29.7167 26.2807 29.5376 26.1016 29.3169 26.1016ZM22.6038 14.163H27.411V26.1016H22.6038V14.163ZM10.9016 0.799818H18.464V2.7358H10.9016V0.799818ZM7.91236 3.53508H10.5021H18.8641H21.8046V26.1016H7.91236V3.53508ZM2.30564 14.163H7.11254V26.1016H2.30564V14.163ZM28.9171 28.2004H0.799551V26.9012H1.90586H7.51232H14.8583H22.2041H27.8108H28.9168V28.2004H28.9171Z" fill="#5C5F75"/>
<path d="M17.5498 8.54807H20.4106V6.14941H17.5498V8.54807ZM18.3494 6.94897H19.611V7.74852H18.3494V6.94897Z" fill="#5C5F75"/>
<path d="M9.306 8.54807H12.1665V6.14941H9.306V8.54807ZM10.1056 6.94897H11.367V7.74852H10.1056V6.94897Z" fill="#5C5F75"/>
<path d="M13.4283 8.54807H16.2888V6.14941H13.4283V8.54807ZM14.2279 6.94897H15.4893V7.74852H14.2279V6.94897Z" fill="#5C5F75"/>
<path d="M13.4283 13.2121H16.2888V10.8135H13.4283V13.2121ZM14.2279 11.613H15.4893V12.4126H14.2279V11.613Z" fill="#5C5F75"/>
<path d="M17.5498 13.2121H20.4106V10.8135H17.5498V13.2121ZM18.3494 11.613H19.611V12.4126H18.3494V11.613Z" fill="#5C5F75"/>
<path d="M9.306 13.2121H12.1665V10.8135H9.306V13.2121ZM10.1056 11.613H11.367V12.4126H10.1056V11.613Z" fill="#5C5F75"/>
<path d="M9.306 17.8762H12.1665V15.4775H9.306V17.8762ZM10.1056 16.2771H11.367V17.0766H10.1056V16.2771Z" fill="#5C5F75"/>
<path d="M17.5498 17.8762H20.4106V15.4775H17.5498V17.8762ZM18.3494 16.2771H19.611V17.0766H18.3494V16.2771Z" fill="#5C5F75"/>
<path d="M13.4283 17.8762H16.2888V15.4775H13.4283V17.8762ZM14.2279 16.2771H15.4893V17.0766H14.2279V16.2771Z" fill="#5C5F75"/>
<path d="M17.5498 22.5403H20.4106V20.1416H17.5498V22.5403ZM18.3494 20.9412H19.611V21.7407H18.3494V20.9412Z" fill="#5C5F75"/>
<path d="M9.306 22.5403H12.1665V20.1416H9.306V22.5403ZM10.1056 20.9412H11.367V21.7407H10.1056V20.9412Z" fill="#5C5F75"/>
<path d="M13.4283 22.5403H16.2888V20.1416H13.4283V22.5403ZM14.2279 20.9412H15.4893V21.7407H14.2279V20.9412Z" fill="#5C5F75"/>
</svg>
