<svg width="32" height="32" viewBox="0 0 32 32" fill="none" xmlns="http://www.w3.org/2000/svg">
<path d="M30.6 4.7H24.8V0.5C24.8 0.25 24.6 0 24.3 0H6.8C6.55 0 6.3 0.2 6.3 0.5V4.75H0.5C0.25 4.75 0 4.95 0 5.25V31.5C0 31.75 0.2 32 0.5 32C7.4 32 23.55 32 30.55 32C30.8 32 31.05 31.8 31.05 31.5V5.2C31.05 4.95 30.85 4.7 30.6 4.7ZM1 5.7H6.3V31.05H1V5.7ZM7.25 0.95H23.85C23.85 8.3 23.85 23.65 23.85 31H21.05V23.7C21.05 23.45 20.85 23.2 20.55 23.2H10.5C10.25 23.2 10 23.4 10 23.7V31.05H7.25C7.25 23.7 7.25 8.3 7.25 0.95ZM11 24.15H15.05V28.55H14.85C14.6 28.55 14.35 28.75 14.35 29.05C14.35 29.3 14.55 29.55 14.85 29.55H15.05V31.05H11V24.15ZM16.05 31.05V29.55H16.25C16.5 29.55 16.75 29.35 16.75 29.05C16.75 28.8 16.55 28.55 16.25 28.55H16.05V24.15H20.1V31H16.05V31.05ZM30.1 31.05H24.8V5.7H30.1V31.05Z" fill="#5C5F75"/>
<path d="M13.2 4.09961H14.3C14.55 4.09961 14.8 3.89961 14.8 3.59961C14.8 3.34961 14.6 3.09961 14.3 3.09961H13.2C12.95 3.09961 12.7 3.29961 12.7 3.59961C12.7 3.84961 12.95 4.09961 13.2 4.09961Z" fill="#5C5F75"/>
<path d="M16.8 4.09961H17.9C18.15 4.09961 18.4 3.89961 18.4 3.59961C18.4 3.34961 18.2 3.09961 17.9 3.09961H16.8C16.55 3.09961 16.3 3.29961 16.3 3.59961C16.3 3.84961 16.5 4.09961 16.8 4.09961Z" fill="#5C5F75"/>
<path d="M20.35 4.09961H21.45C21.7 4.09961 21.95 3.89961 21.95 3.59961C21.95 3.34961 21.75 3.09961 21.45 3.09961H20.35C20.1 3.09961 19.85 3.29961 19.85 3.59961C19.85 3.84961 20.1 4.09961 20.35 4.09961Z" fill="#5C5F75"/>
<path d="M13.2 7.34961H14.3C14.55 7.34961 14.8 7.14961 14.8 6.84961C14.8 6.59961 14.6 6.34961 14.3 6.34961H13.2C12.95 6.34961 12.7 6.54961 12.7 6.84961C12.7 7.09961 12.95 7.34961 13.2 7.34961Z" fill="#5C5F75"/>
<path d="M16.8 7.34961H17.9C18.15 7.34961 18.4 7.14961 18.4 6.84961C18.4 6.59961 18.2 6.34961 17.9 6.34961H16.8C16.55 6.34961 16.3 6.54961 16.3 6.84961C16.3 7.09961 16.5 7.34961 16.8 7.34961Z" fill="#5C5F75"/>
<path d="M20.35 7.34961H21.45C21.7 7.34961 21.95 7.14961 21.95 6.84961C21.95 6.59961 21.75 6.34961 21.45 6.34961H20.35C20.1 6.34961 19.85 6.54961 19.85 6.84961C19.85 7.09961 20.1 7.34961 20.35 7.34961Z" fill="#5C5F75"/>
<path d="M13.2 10.5996H14.3C14.55 10.5996 14.8 10.3996 14.8 10.0996C14.8 9.84961 14.6 9.59961 14.3 9.59961H13.2C12.95 9.59961 12.7 9.79961 12.7 10.0996C12.7 10.3496 12.95 10.5996 13.2 10.5996Z" fill="#5C5F75"/>
<path d="M16.8 10.5996H17.9C18.15 10.5996 18.4 10.3996 18.4 10.0996C18.4 9.84961 18.2 9.59961 17.9 9.59961H16.8C16.55 9.59961 16.3 9.79961 16.3 10.0996C16.3 10.3496 16.5 10.5996 16.8 10.5996Z" fill="#5C5F75"/>
<path d="M20.35 10.5996H21.45C21.7 10.5996 21.95 10.3996 21.95 10.0996C21.95 9.84961 21.75 9.59961 21.45 9.59961H20.35C20.1 9.59961 19.85 9.79961 19.85 10.0996C19.85 10.3496 20.1 10.5996 20.35 10.5996Z" fill="#5C5F75"/>
<path d="M13.2 13.8506H14.3C14.55 13.8506 14.8 13.6506 14.8 13.3506C14.8 13.1006 14.6 12.8506 14.3 12.8506H13.2C12.95 12.8506 12.7 13.0506 12.7 13.3506C12.7 13.6006 12.95 13.8506 13.2 13.8506Z" fill="#5C5F75"/>
<path d="M16.8 13.8506H17.9C18.15 13.8506 18.4 13.6506 18.4 13.3506C18.4 13.1006 18.2 12.8506 17.9 12.8506H16.8C16.55 12.8506 16.3 13.0506 16.3 13.3506C16.3 13.6006 16.5 13.8506 16.8 13.8506Z" fill="#5C5F75"/>
<path d="M20.35 13.8506H21.45C21.7 13.8506 21.95 13.6506 21.95 13.3506C21.95 13.1006 21.75 12.8506 21.45 12.8506H20.35C20.1 12.8506 19.85 13.0506 19.85 13.3506C19.85 13.6006 20.1 13.8506 20.35 13.8506Z" fill="#5C5F75"/>
<path d="M13.2 17.0996H14.3C14.55 17.0996 14.8 16.8996 14.8 16.5996C14.8 16.3496 14.6 16.0996 14.3 16.0996H13.2C12.95 16.0996 12.7 16.2996 12.7 16.5996C12.7 16.8496 12.95 17.0996 13.2 17.0996Z" fill="#5C5F75"/>
<path d="M16.8 17.0996H17.9C18.15 17.0996 18.4 16.8996 18.4 16.5996C18.4 16.3496 18.2 16.0996 17.9 16.0996H16.8C16.55 16.0996 16.3 16.2996 16.3 16.5996C16.3 16.8496 16.5 17.0996 16.8 17.0996Z" fill="#5C5F75"/>
<path d="M20.35 17.0996H21.45C21.7 17.0996 21.95 16.8996 21.95 16.5996C21.95 16.3496 21.75 16.0996 21.45 16.0996H20.35C20.1 16.0996 19.85 16.2996 19.85 16.5996C19.85 16.8496 20.1 17.0996 20.35 17.0996Z" fill="#5C5F75"/>
<path d="M9.64999 4.09961H10.75C11 4.09961 11.25 3.89961 11.25 3.59961C11.25 3.34961 11.05 3.09961 10.75 3.09961H9.64999C9.39999 3.09961 9.14999 3.29961 9.14999 3.59961C9.14999 3.84961 9.34999 4.09961 9.64999 4.09961Z" fill="#5C5F75"/>
<path d="M9.64999 7.34961H10.75C11 7.34961 11.25 7.14961 11.25 6.84961C11.25 6.59961 11.05 6.34961 10.75 6.34961H9.64999C9.39999 6.34961 9.14999 6.54961 9.14999 6.84961C9.14999 7.09961 9.34999 7.34961 9.64999 7.34961Z" fill="#5C5F75"/>
<path d="M9.64999 10.5996H10.75C11 10.5996 11.25 10.3996 11.25 10.0996C11.25 9.84961 11.05 9.59961 10.75 9.59961H9.64999C9.39999 9.59961 9.14999 9.79961 9.14999 10.0996C9.14999 10.3496 9.34999 10.5996 9.64999 10.5996Z" fill="#5C5F75"/>
<path d="M9.64999 13.8506H10.75C11 13.8506 11.25 13.6506 11.25 13.3506C11.25 13.1006 11.05 12.8506 10.75 12.8506H9.64999C9.39999 12.8506 9.14999 13.0506 9.14999 13.3506C9.14999 13.6006 9.34999 13.8506 9.64999 13.8506Z" fill="#5C5F75"/>
<path d="M9.64999 17.0996H10.75C11 17.0996 11.25 16.8996 11.25 16.5996C11.25 16.3496 11.05 16.0996 10.75 16.0996H9.64999C9.39999 16.0996 9.14999 16.2996 9.14999 16.5996C9.14999 16.8496 9.34999 17.0996 9.64999 17.0996Z" fill="#5C5F75"/>
<path d="M10.75 20.3506C11 20.3506 11.25 20.1506 11.25 19.8506C11.25 19.6006 11.05 19.3506 10.75 19.3506H9.64999C9.39999 19.3506 9.14999 19.5506 9.14999 19.8506C9.14999 20.1006 9.34999 20.3506 9.64999 20.3506H10.75Z" fill="#5C5F75"/>
<path d="M4.5 7.60059H2.8C2.55 7.60059 2.3 7.80059 2.3 8.10059C2.3 8.35059 2.5 8.60059 2.8 8.60059H4.45C4.7 8.60059 4.95 8.40059 4.95 8.10059C4.95 7.80059 4.75 7.60059 4.5 7.60059Z" fill="#5C5F75"/>
<path d="M4.5 11.7002H2.8C2.55 11.7002 2.3 11.9002 2.3 12.2002C2.3 12.4502 2.5 12.7002 2.8 12.7002H4.45C4.7 12.7002 4.95 12.5002 4.95 12.2002C4.95 11.9002 4.75 11.7002 4.5 11.7002Z" fill="#5C5F75"/>
<path d="M4.5 15.7998H2.8C2.55 15.7998 2.3 15.9998 2.3 16.2998C2.3 16.5498 2.5 16.7998 2.8 16.7998H4.45C4.7 16.7998 4.95 16.5998 4.95 16.2998C4.95 16.0498 4.75 15.7998 4.5 15.7998Z" fill="#5C5F75"/>
<path d="M4.5 19.9502H2.8C2.55 19.9502 2.3 20.1502 2.3 20.4502C2.3 20.7002 2.5 20.9502 2.8 20.9502H4.45C4.7 20.9502 4.95 20.7502 4.95 20.4502C4.95 20.1502 4.75 19.9502 4.5 19.9502Z" fill="#5C5F75"/>
<path d="M4.5 24.0498H2.8C2.55 24.0498 2.3 24.2498 2.3 24.5498C2.3 24.7998 2.5 25.0498 2.8 25.0498H4.45C4.7 25.0498 4.95 24.8498 4.95 24.5498C4.95 24.2498 4.75 24.0498 4.5 24.0498Z" fill="#5C5F75"/>
<path d="M4.5 28.1504H2.8C2.55 28.1504 2.3 28.3504 2.3 28.6504C2.3 28.9004 2.5 29.1504 2.8 29.1504H4.45C4.7 29.1504 4.95 28.9504 4.95 28.6504C4.95 28.4004 4.75 28.1504 4.5 28.1504Z" fill="#5C5F75"/>
<path d="M26.6 8.5498H28.25C28.5 8.5498 28.75 8.3498 28.75 8.0498C28.75 7.7998 28.55 7.5498 28.25 7.5498H26.6C26.35 7.5498 26.1 7.7498 26.1 8.0498C26.15 8.3498 26.35 8.5498 26.6 8.5498Z" fill="#5C5F75"/>
<path d="M26.6 12.6504H28.25C28.5 12.6504 28.75 12.4504 28.75 12.1504C28.75 11.9004 28.55 11.6504 28.25 11.6504H26.6C26.35 11.6504 26.1 11.8504 26.1 12.1504C26.15 12.4504 26.35 12.6504 26.6 12.6504Z" fill="#5C5F75"/>
<path d="M26.6 16.7998H28.25C28.5 16.7998 28.75 16.5998 28.75 16.2998C28.75 16.0498 28.55 15.7998 28.25 15.7998H26.6C26.35 15.7998 26.1 15.9998 26.1 16.2998C26.15 16.5498 26.35 16.7998 26.6 16.7998Z" fill="#5C5F75"/>
<path d="M26.6 20.9004H28.25C28.5 20.9004 28.75 20.7004 28.75 20.4004C28.75 20.1504 28.55 19.9004 28.25 19.9004H26.6C26.35 19.9004 26.1 20.1004 26.1 20.4004C26.15 20.7004 26.35 20.9004 26.6 20.9004Z" fill="#5C5F75"/>
<path d="M26.6 25H28.25C28.5 25 28.75 24.8 28.75 24.5C28.75 24.25 28.55 24 28.25 24H26.6C26.35 24 26.1 24.2 26.1 24.5C26.15 24.8 26.35 25 26.6 25Z" fill="#5C5F75"/>
<path d="M26.6 29.1504H28.25C28.5 29.1504 28.75 28.9504 28.75 28.6504C28.75 28.4004 28.55 28.1504 28.25 28.1504H26.6C26.35 28.1504 26.1 28.3504 26.1 28.6504C26.15 28.9004 26.35 29.1504 26.6 29.1504Z" fill="#5C5F75"/>
<path d="M13.2 20.3506H14.3C14.55 20.3506 14.8 20.1506 14.8 19.8506C14.8 19.6006 14.6 19.3506 14.3 19.3506H13.2C12.95 19.3506 12.7 19.5506 12.7 19.8506C12.7 20.1506 12.95 20.3506 13.2 20.3506Z" fill="#5C5F75"/>
<path d="M16.8 20.3506H17.9C18.15 20.3506 18.4 20.1506 18.4 19.8506C18.4 19.6006 18.2 19.3506 17.9 19.3506H16.8C16.55 19.3506 16.3 19.5506 16.3 19.8506C16.3 20.1506 16.5 20.3506 16.8 20.3506Z" fill="#5C5F75"/>
<path d="M20.35 20.3506H21.45C21.7 20.3506 21.95 20.1506 21.95 19.8506C21.95 19.6006 21.75 19.3506 21.45 19.3506H20.35C20.1 19.3506 19.85 19.5506 19.85 19.8506C19.85 20.1506 20.1 20.3506 20.35 20.3506Z" fill="#5C5F75"/>
</svg>
