<svg width="26" height="28" viewBox="0 0 26 28" fill="none" xmlns="http://www.w3.org/2000/svg">
<path d="M25.1158 11.7785L22.8455 4.00579C22.7964 3.83856 22.6435 3.72386 22.4695 3.72386H9.78951V0.39193C9.78951 0.175585 9.61392 0 9.39758 0H5.67424C5.4579 0 5.28231 0.175585 5.28231 0.39193V3.72386H2.66239C2.48837 3.72386 2.335 3.83856 2.2864 4.00579L0.0158169 11.7785C-0.0189342 11.8972 0.00432042 12.0247 0.0782645 12.1234C0.152209 12.2222 0.268481 12.2805 0.391809 12.2805H1.5224V27.6081C1.5224 27.8244 1.69798 28 1.91433 28H23.2168C23.4331 28 23.6087 27.8244 23.6087 27.6081V12.2805H24.7395C24.8631 12.2805 24.9789 12.2222 25.0528 12.1234C25.1268 12.0247 25.1506 11.8972 25.1158 11.7785ZM6.06617 0.78386H9.00565V3.72386H6.06617V0.78386ZM2.95634 4.50772H22.1753L22.6581 6.1614H2.47322L2.95634 4.50772ZM2.24407 6.94526H22.887L23.4402 8.83959H1.69093L2.24407 6.94526ZM22.8248 27.2161H2.30626V12.2805H22.8248V27.2161ZM0.914643 11.4966L1.46178 9.62345H23.6696L24.2167 11.4966H0.914643Z" fill="#5C5F75"/>
<path d="M4.32703 18.6936H8.13215C8.3485 18.6936 8.52408 18.518 8.52408 18.3017V14.513C8.52408 14.2967 8.3485 14.1211 8.13215 14.1211H4.32703C4.11069 14.1211 3.9351 14.2967 3.9351 14.513V18.3017C3.9351 18.518 4.11069 18.6936 4.32703 18.6936ZM4.71896 14.905H7.74022V17.9098H4.71896V14.905Z" fill="#5C5F75"/>
<path d="M10.6632 18.6936H14.4684C14.6847 18.6936 14.8603 18.518 14.8603 18.3017V14.513C14.8603 14.2967 14.6847 14.1211 14.4684 14.1211H10.6632C10.4469 14.1211 10.2713 14.2967 10.2713 14.513V18.3017C10.2713 18.518 10.4469 18.6936 10.6632 18.6936ZM11.0552 14.905H14.0764V17.9098H11.0552V14.905Z" fill="#5C5F75"/>
<path d="M16.9994 18.6936H20.8046C21.0209 18.6936 21.1965 18.518 21.1965 18.3017V14.513C21.1965 14.2967 21.0209 14.1211 20.8046 14.1211H16.9994C16.7831 14.1211 16.6075 14.2967 16.6075 14.513V18.3017C16.6075 18.518 16.7831 18.6936 16.9994 18.6936ZM17.3914 14.905H20.4126V17.9098H17.3914V14.905Z" fill="#5C5F75"/>
<path d="M4.32703 25.3762H8.13215C8.3485 25.3762 8.52408 25.2006 8.52408 24.9843V21.1956C8.52408 20.9793 8.3485 20.8037 8.13215 20.8037H4.32703C4.11069 20.8037 3.9351 20.9793 3.9351 21.1956V24.9843C3.9351 25.2006 4.11069 25.3762 4.32703 25.3762ZM4.71896 21.5876H7.74022V24.5924H4.71896V21.5876Z" fill="#5C5F75"/>
<path d="M10.6632 25.3762H14.4684C14.6847 25.3762 14.8603 25.2006 14.8603 24.9843V21.1956C14.8603 20.9793 14.6847 20.8037 14.4684 20.8037H10.6632C10.4469 20.8037 10.2713 20.9793 10.2713 21.1956V24.9843C10.2713 25.2006 10.4469 25.3762 10.6632 25.3762ZM11.0552 21.5876H14.0764V24.5924H11.0552V21.5876Z" fill="#5C5F75"/>
<path d="M16.9994 25.3762H20.8046C21.0209 25.3762 21.1965 25.2006 21.1965 24.9843V21.1956C21.1965 20.9793 21.0209 20.8037 20.8046 20.8037H16.9994C16.7831 20.8037 16.6075 20.9793 16.6075 21.1956V24.9843C16.6075 25.2006 16.7831 25.3762 16.9994 25.3762ZM17.3914 21.5876H20.4126V24.5924H17.3914V21.5876Z" fill="#5C5F75"/>
</svg>
