<svg width="177" height="75" viewBox="0 0 177 75" fill="none" xmlns="http://www.w3.org/2000/svg">
<path fill-rule="evenodd" clip-rule="evenodd" d="M1.20166 0.102217L1.20155 0.102064C1.20161 0.102138 1.20166 0.102217 0 0.999993L1.20166 0.102217ZM12.4309 12.3917C11.8371 11.8139 10.8875 11.8268 10.3097 12.4205C9.73197 13.0142 9.7449 13.9639 10.3386 14.5417C12.7608 16.8988 15.5644 19.4869 18.7492 22.2171C19.3781 22.7563 20.325 22.6835 20.8642 22.0546C21.4034 21.4257 21.3307 20.4787 20.7017 19.9395C17.5676 17.2527 14.8105 14.7074 12.4309 12.3917ZM29.4315 26.9839C28.7718 26.4828 27.8308 26.6114 27.3297 27.2711C26.8286 27.9308 26.9572 28.8718 27.6169 29.3729C30.4853 31.5516 33.5678 33.7683 36.8643 35.9856C37.5517 36.448 38.4838 36.2655 38.9462 35.5781C39.4085 34.8907 39.2261 33.9587 38.5387 33.4963C35.2918 31.3124 32.256 29.1293 29.4315 26.9839ZM47.9884 39.469C47.2758 39.0464 46.3556 39.2816 45.9331 39.9941C45.5105 40.7067 45.7457 41.6269 46.4582 42.0494C49.6134 43.9203 52.9252 45.7667 56.3936 47.5651C57.129 47.9464 58.0344 47.6593 58.4157 46.9239C58.797 46.1884 58.51 45.2831 57.7745 44.9018C54.3583 43.1304 51.0962 41.3118 47.9884 39.469ZM67.8868 49.7838C67.1308 49.4451 66.2433 49.7834 65.9046 50.5394C65.5659 51.2954 65.9042 52.1829 66.6602 52.5216C70.0271 54.03 73.5191 55.4823 77.1363 56.8616C77.9103 57.1568 78.7771 56.7686 79.0723 55.9946C79.3675 55.2205 78.9793 54.3537 78.2052 54.0586C74.6425 52.6999 71.203 51.2695 67.8868 49.7838ZM88.7991 57.756C88.0095 57.5054 87.1663 57.9424 86.9157 58.732C86.6651 59.5216 87.102 60.3649 87.8916 60.6154C91.4245 61.7366 95.0621 62.7832 98.8044 63.7421C99.6069 63.9477 100.424 63.4639 100.63 62.6614C100.835 61.8589 100.352 61.0416 99.5491 60.836C95.8624 59.8913 92.279 58.8604 88.7991 57.756ZM110.468 63.3101C109.655 63.1496 108.866 63.6784 108.705 64.4911C108.545 65.3039 109.074 66.0928 109.886 66.2533C113.538 66.9744 117.28 67.6098 121.111 68.1492C121.931 68.2648 122.69 67.6934 122.805 66.8731C122.921 66.0527 122.349 65.2941 121.529 65.1786C117.753 64.6468 114.066 64.0207 110.468 63.3101ZM132.666 66.4412C131.841 66.3699 131.114 66.9813 131.043 67.8066C130.971 68.632 131.583 69.3588 132.408 69.4301C136.107 69.7494 139.881 69.9784 143.732 70.1091C144.56 70.1372 145.254 69.4887 145.282 68.6608C145.31 67.8328 144.662 67.1389 143.834 67.1108C140.035 66.9819 136.313 66.756 132.666 66.4412ZM166.426 69.7397C167.253 69.6857 167.879 68.9718 167.825 68.1451C167.771 67.3184 167.057 66.6921 166.231 66.7461C162.432 66.9941 158.7 67.1454 155.033 67.2062C154.205 67.2199 153.544 67.9025 153.558 68.7309C153.572 69.5592 154.254 70.2195 155.083 70.2058C158.798 70.1441 162.579 69.9909 166.426 69.7397ZM168 73.1718L169.984 75L176.589 68.9141C177.137 68.4092 177.137 67.5908 176.589 67.0859L169.984 61L168 62.8282L173.613 68L168 73.1718Z" fill="white"/>
</svg>
