<svg width="202" height="58" viewBox="0 0 202 58" fill="none" xmlns="http://www.w3.org/2000/svg">
<path fill-rule="evenodd" clip-rule="evenodd" d="M2.54716 14.2086C1.77583 14.5106 0.905668 14.1302 0.603543 13.3589C0.301399 12.5876 0.681777 11.7173 1.45314 11.4152L2.00022 12.8118C1.45314 11.4152 1.45323 11.4151 1.45332 11.4151L1.45354 11.415L1.45412 11.4148L1.45577 11.4141L1.4611 11.4121L1.47984 11.4048L1.54943 11.378C1.61003 11.3548 1.69892 11.321 1.81554 11.2773C2.04877 11.19 2.39291 11.0632 2.84333 10.9026C3.74414 10.5815 5.07018 10.1253 6.78436 9.57994C7.57379 9.32878 8.41737 9.76513 8.66854 10.5546C8.9197 11.344 8.48335 12.1876 7.69391 12.4387C6.01426 12.9731 4.72084 13.4182 3.85065 13.7284C3.41557 13.8835 3.08632 14.0049 2.86754 14.0868C2.75816 14.1278 2.67639 14.1589 2.62282 14.1794L2.56369 14.2021L2.55013 14.2074L2.54737 14.2085L2.5473 14.2085L2.54716 14.2086ZM18.2944 9.44368C17.4909 9.64527 16.6761 9.15731 16.4745 8.35379C16.2729 7.55027 16.7608 6.73546 17.5644 6.53386C20.803 5.72132 24.4714 4.88601 28.5145 4.09598C29.3275 3.93711 30.1154 4.46743 30.2743 5.28048C30.4331 6.09353 29.9028 6.88143 29.0898 7.0403C25.1019 7.81953 21.4852 8.64312 18.2944 9.44368ZM39.9973 5.19547C39.1772 5.31291 38.4172 4.74333 38.2998 3.92327C38.1823 3.10321 38.7519 2.34321 39.572 2.22577C43.1017 1.72028 46.8218 1.27435 50.708 0.918025C51.5329 0.842383 52.263 1.44983 52.3387 2.2748C52.4143 3.09977 51.8069 3.82985 50.9819 3.90549C47.1489 4.25694 43.4794 4.69681 39.9973 5.19547ZM62.0403 3.17975C61.2126 3.21237 60.5151 2.56776 60.4825 1.73997C60.4498 0.91219 61.0944 0.214696 61.9222 0.182081C65.5502 0.0391361 69.287 -0.0150599 73.1166 0.0392817C73.9449 0.051037 74.6069 0.732072 74.5951 1.56041C74.5834 2.38876 73.9024 3.05073 73.074 3.03898C69.3003 2.98543 65.6172 3.03882 62.0403 3.17975ZM84.1317 3.50274C83.3053 3.44479 82.6824 2.72788 82.7403 1.90148C82.7982 1.07509 83.5152 0.452137 84.3416 0.510087C87.9973 0.766437 91.7182 1.12966 95.492 1.61497C96.3136 1.72064 96.8941 2.47238 96.7884 3.29404C96.6827 4.11571 95.931 4.69613 95.1093 4.59047C91.3951 4.11282 87.7319 3.7552 84.1317 3.50274ZM106.03 6.32894C105.217 6.17396 104.683 5.38859 104.838 4.57479C104.993 3.76099 105.778 3.22692 106.592 3.3819C110.209 4.07087 113.863 4.87976 117.543 5.82104C118.345 6.02635 118.83 6.84341 118.624 7.64599C118.419 8.44858 117.602 8.93276 116.799 8.72745C113.182 7.80207 109.589 7.00662 106.03 6.32894ZM127.392 11.8C126.604 11.5437 126.173 10.6973 126.429 9.90954C126.685 9.12174 127.532 8.69083 128.319 8.94707C131.831 10.0891 135.356 11.3597 138.887 12.7696C139.656 13.0768 140.031 13.9495 139.723 14.7189C139.416 15.4883 138.543 15.8629 137.774 15.5557C134.305 14.1707 130.842 12.9222 127.392 11.8ZM147.896 19.991C147.149 19.6335 146.832 18.7379 147.19 17.9906C147.547 17.2432 148.443 16.9272 149.19 17.2847C152.513 18.8742 155.834 20.5957 159.145 22.4578C159.867 22.8639 160.123 23.7785 159.717 24.5005C159.311 25.2226 158.396 25.4787 157.674 25.0726C154.422 23.2433 151.16 21.5523 147.896 19.991ZM167.098 30.7885C166.404 30.336 166.209 29.4066 166.661 28.7127C167.114 28.0188 168.043 27.8232 168.737 28.2758C171.819 30.2859 174.887 32.4271 177.933 34.7064C178.597 35.2026 178.732 36.1427 178.236 36.806C177.74 37.4694 176.8 37.6048 176.136 37.1086C173.141 34.868 170.127 32.7637 167.098 30.7885ZM195.025 49.2314C195.623 49.805 195.643 50.7546 195.069 51.3522C194.495 51.9499 193.546 51.9693 192.948 51.3957C190.243 48.7995 187.512 46.3338 184.76 43.9927C184.129 43.456 184.052 42.5093 184.589 41.8783C185.126 41.2472 186.072 41.1707 186.703 41.7074C189.502 44.0876 192.277 46.5937 195.025 49.2314ZM191.191 54.9299L191.543 57.6049L200.513 57.166C201.258 57.1296 201.782 56.5013 201.685 55.7625L200.515 46.8578L197.82 46.9897L198.815 54.5569L191.191 54.9299Z" fill="white"/>
</svg>
