<svg width="54" height="54" viewBox="0 0 54 54" fill="none" xmlns="http://www.w3.org/2000/svg">
<path d="M52.3636 36.409H50.3181C50.3181 36.3272 50.3181 36.1635 50.3181 36.0817V25.2817C50.3181 24.2181 49.4181 23.3181 48.3545 23.3181H36.8181C36.7363 23.3181 36.5727 23.3181 36.4908 23.3181V13.2544C36.4908 12.8454 36.0818 12.4363 35.6727 12.4363C35.2636 12.4363 34.8545 12.8454 34.8545 13.2544V30.8454H33.2999V29.6181C33.2999 28.5544 32.4818 27.7363 31.4181 27.7363H27.9818L22.0908 11.6999C21.7636 10.7999 20.8636 10.2272 19.9636 10.2272H5.97266C4.74539 10.2272 3.68175 11.209 3.68175 12.5181V27.6544H2.69993C1.6363 27.6544 0.818115 28.4726 0.818115 29.5363V37.309C0.818115 38.3726 1.6363 39.2726 2.69993 39.2726H3.76357C4.17266 41.809 6.38175 43.7726 8.99993 43.7726C11.6181 43.7726 13.8272 41.809 14.2363 39.2726H20.209C20.6181 41.809 22.8272 43.7726 25.4454 43.7726C28.0636 43.7726 30.2727 41.809 30.6818 39.2726H31.4999C32.5636 39.2726 33.3818 38.3726 33.3818 37.3908V35.9999H34.9363V37.2272C34.9363 37.6363 35.3454 38.0454 35.7545 38.0454C41.4818 38.0454 46.7181 38.0454 52.4454 38.0454C52.8545 38.0454 53.2636 37.6363 53.2636 37.2272C53.2636 36.8181 52.7727 36.409 52.3636 36.409ZM5.31812 12.5181C5.31812 12.1908 5.56357 11.8635 5.97266 11.8635H20.0454C20.2908 11.8635 20.5363 12.0272 20.6181 12.2726L26.4272 28.1454L24.8727 29.6181L22.5818 25.5272L23.3181 24.9544C23.6454 24.709 23.809 24.1363 23.4818 23.809C23.2363 23.4817 22.6636 23.3999 22.3363 23.6454L19.6363 25.6908C19.309 25.9363 19.1454 26.4272 19.4727 26.8363C19.6363 27.0817 19.8818 27.1635 20.1272 27.1635C20.2908 27.1635 20.4545 27.0817 20.6181 26.9999L21.2727 26.5908L23.3999 30.5181H22.009C21.7636 28.8817 20.3727 27.6544 18.7363 27.6544H12.4363V19.5544C12.4363 17.6726 10.9636 16.1999 9.08175 16.1999C8.34539 16.1999 7.77266 16.7726 7.77266 17.509V27.6544H5.31812V12.5181ZM20.2908 30.5181H16.0363C15.9545 30.5181 15.8727 30.5181 15.8727 30.4363L14.7272 29.2908H18.7363C19.4727 29.2908 20.0454 29.7817 20.2908 30.5181ZM10.7999 19.5544V27.6544H9.40903V17.8363C10.1454 17.9999 10.7999 18.6544 10.7999 19.5544ZM8.99993 42.0545C6.95448 42.0545 5.31812 40.4181 5.31812 38.3726C5.31812 36.409 6.95448 34.6908 8.99993 34.6908C11.0454 34.6908 12.6818 36.3272 12.6818 38.3726C12.5999 40.4181 11.0454 42.0545 8.99993 42.0545ZM25.3636 42.0545C23.3181 42.0545 21.6818 40.4181 21.6818 38.3726C21.6818 36.409 23.3181 34.6908 25.3636 34.6908C27.409 34.6908 29.0454 36.3272 29.0454 38.3726C28.9636 40.4181 27.409 42.0545 25.3636 42.0545ZM31.6636 37.309C31.6636 37.4726 31.4999 37.5545 31.4181 37.5545H30.5999C30.1908 34.7726 27.5727 32.809 24.9545 33.1363C22.4999 33.3817 20.4545 35.1817 20.1272 37.6363H14.1545C13.7454 35.0999 11.5363 33.1363 8.91812 33.1363C6.29993 33.1363 4.09084 35.0181 3.68175 37.6363H2.69993C2.61812 37.6363 2.45448 37.4726 2.45448 37.309V29.5363C2.45448 29.3726 2.61812 29.2908 2.69993 29.2908H12.1908C12.2727 29.2908 12.3545 29.2908 12.3545 29.3726C14.3181 31.0908 14.7272 32.1544 16.0363 32.1544H23.8908C24.3818 32.1544 24.8727 31.909 25.1999 31.6635C25.2818 31.5817 26.9181 30.0272 27.5727 29.4544C27.6545 29.3726 27.6545 29.3726 27.7363 29.3726H31.4181C31.5818 29.3726 31.6636 29.4544 31.6636 29.6181C31.6636 29.8635 31.6636 37.4726 31.6636 37.309ZM34.8545 34.3635H33.2999V32.4817H34.8545V34.3635ZM41.4818 24.9544H43.6908V26.7544L42.9545 26.3454C42.709 26.1817 42.3818 26.1817 42.1363 26.3454L41.3999 26.7544V24.9544H41.4818ZM48.7636 36.0817C48.7636 36.2454 48.5999 36.409 48.4363 36.409H36.8181C36.6545 36.409 36.4908 36.2454 36.4908 36.0817V25.2817C36.4908 25.1181 36.6545 24.9544 36.8181 24.9544H39.8454V28.1454C39.8454 28.4726 40.009 28.7181 40.2545 28.8817C40.4999 29.0454 40.8272 29.0454 41.0727 28.8817L42.6272 27.9817L44.1818 28.8817C44.3454 28.9635 44.4272 28.9635 44.5908 28.9635C44.7545 28.9635 44.9181 28.9635 44.9999 28.8817C45.2454 28.7181 45.409 28.4726 45.409 28.1454V24.9544H48.4363C48.5999 24.9544 48.7636 25.1181 48.7636 25.2817V36.0817Z" fill="#5C5F75"/>
</svg>
