<svg width="48" height="48" viewBox="0 0 48 48" fill="none" xmlns="http://www.w3.org/2000/svg">
<path d="M26.2159 30.0165C26.924 30.0165 27.6162 30.2265 28.205 30.6199C28.7937 31.0133 29.2526 31.5724 29.5236 32.2266C29.7946 32.8808 29.8655 33.6007 29.7273 34.2952C29.5892 34.9897 29.2482 35.6276 28.7475 36.1283C28.2468 36.629 27.6089 36.97 26.9144 37.1081C26.2199 37.2463 25.5 37.1754 24.8458 36.9044C24.1916 36.6334 23.6325 36.1745 23.2391 35.5858C22.8457 34.997 22.6357 34.3048 22.6357 33.5967C22.6368 32.6475 23.0143 31.7375 23.6855 31.0663C24.3567 30.3951 25.2667 30.0175 26.2159 30.0165ZM26.2159 35.6768C26.6274 35.6768 27.0295 35.5548 27.3716 35.3262C27.7137 35.0977 27.9804 34.7728 28.1378 34.3927C28.2952 34.0125 28.3364 33.5943 28.2562 33.1907C28.1759 32.7872 27.9778 32.4166 27.6868 32.1256C27.3959 31.8347 27.0252 31.6366 26.6217 31.5563C26.2182 31.4761 25.7999 31.5173 25.4198 31.6748C25.0397 31.8322 24.7148 32.0989 24.4862 32.441C24.2577 32.7831 24.1357 33.1853 24.1357 33.5967C24.1363 34.1482 24.3557 34.677 24.7457 35.0669C25.1357 35.4569 25.6644 35.6762 26.2159 35.6768Z" fill="#5C5F75"/>
<path d="M2.89032 18.6858V8.40056C2.89032 7.98638 3.27037 7.6875 3.68456 7.6875H14.1479C15.1746 7.68686 16.1877 7.92223 17.109 8.37543C18.0302 8.82863 18.835 9.48754 19.4611 10.3013L25.2139 17.846L38.8065 8.76356C38.9287 8.6776 39.0735 8.62942 39.2228 8.625H43.125C43.6471 8.625 44.1479 8.83242 44.5171 9.20163C44.8863 9.57085 45.0938 10.0716 45.0938 10.5938C45.0938 11.1159 44.8863 11.6167 44.5171 11.9859C44.1479 12.3551 43.6471 12.5625 43.125 12.5625H42.3304L40.4963 22.3225C41.3812 23.1653 42.0858 24.1791 42.5672 25.3024C43.0485 26.4257 43.2967 27.6351 43.2966 28.8572V34.1156C43.2987 34.2136 43.2815 34.3111 43.2458 34.4024C43.2101 34.4938 43.1568 34.5771 43.0887 34.6477C43.0207 34.7183 42.9394 34.7747 42.8494 34.8137C42.7595 34.8527 42.6627 34.8736 42.5647 34.875H32.8314C32.2359 37.9688 29.4897 40.3594 26.2 40.3594C22.9103 40.3594 20.1642 37.9688 19.5684 34.875H3.68438C3.27019 34.875 2.89013 34.5297 2.89013 34.1156V19.1892C2.89013 19.1105 2.84588 19.0259 2.84588 18.9375C2.84588 18.8491 2.89032 18.7645 2.89032 18.6858ZM18.2678 11.2101C17.7821 10.5797 17.1579 10.0694 16.4435 9.71866C15.7292 9.36795 14.9437 9.18622 14.1479 9.1875H4.39032V18.1875H23.5955L18.2678 11.2101ZM43.5717 10.5938C43.5724 10.473 43.5262 10.3567 43.4429 10.2693C43.3596 10.1819 43.2456 10.1302 43.125 10.125H39.45L27.0521 18.4056L28.2803 18.6279L39.5319 11.1715C39.6563 11.0948 39.8008 11.0568 39.9469 11.0625H43.125C43.2456 11.0573 43.3596 11.0056 43.4429 10.9182C43.5262 10.8308 43.5724 10.7145 43.5717 10.5938ZM40.8045 12.5625H40.1732L30.4185 19.0266L36.581 20.1158C36.6033 20.1198 36.6254 20.1212 36.6473 20.1271C37.5441 20.3767 38.3969 20.7636 39.1755 21.2738L40.8045 12.5625ZM26.2 38.8494C27.4952 38.8478 28.7442 38.3684 29.7077 37.503C30.6713 36.6376 31.2817 35.4471 31.4219 34.1596C31.4211 34.145 31.4197 34.1304 31.4197 34.1155C31.4199 34.0587 31.4266 34.0021 31.4395 33.9468C31.4471 33.831 31.4525 33.7147 31.4525 33.5971C31.4525 32.5582 31.1444 31.5427 30.5672 30.6789C29.9901 29.8151 29.1697 29.1419 28.2099 28.7443C27.2501 28.3467 26.194 28.2427 25.1751 28.4454C24.1562 28.6481 23.2203 29.1483 22.4857 29.8829C21.7511 30.6175 21.2508 31.5534 21.0481 32.5724C20.8455 33.5913 20.9495 34.6474 21.3471 35.6072C21.7446 36.567 22.4179 37.3873 23.2816 37.9645C24.1454 38.5417 25.161 38.8497 26.1998 38.8497L26.2 38.8494ZM19.4533 33.375C19.5138 31.626 20.2511 29.9689 21.5097 28.7531C22.7683 27.5372 24.4499 26.8576 26.1999 26.8576C27.9499 26.8576 29.6315 27.5372 30.8902 28.7531C32.1488 29.9689 32.8861 31.626 32.9466 33.375H41.7966V28.8572C41.7956 27.2079 41.2556 25.6042 40.2587 24.2903C39.2618 22.9764 37.8628 22.0244 36.2747 21.5794L25.3059 19.627C25.2143 19.667 25.1153 19.6876 25.0153 19.6875H4.39032V33.375H19.4533Z" fill="#5C5F75"/>
<path d="M7.96875 23.25H11.5312C11.7302 23.25 11.9209 23.329 12.0616 23.4697C12.2022 23.6103 12.2812 23.8011 12.2812 24C12.2812 24.1989 12.2022 24.3897 12.0616 24.5303C11.9209 24.671 11.7302 24.75 11.5312 24.75H7.96875C7.76984 24.75 7.57907 24.671 7.43842 24.5303C7.29777 24.3897 7.21875 24.1989 7.21875 24C7.21875 23.8011 7.29777 23.6103 7.43842 23.4697C7.57907 23.329 7.76984 23.25 7.96875 23.25Z" fill="#5C5F75"/>
</svg>
