<svg width="48" height="48" viewBox="0 0 48 48" fill="none" xmlns="http://www.w3.org/2000/svg">
<path d="M23.086 1.90012C19.4835 2.14441 16.0984 3.7114 13.5811 6.29999C11.6777 8.23462 10.3544 10.6639 9.76134 13.3123C9.1683 15.9608 9.32924 18.7224 10.2259 21.2841C11.0021 23.5044 12.3002 25.5058 14.011 27.12C15.0071 28.078 15.7609 29.2594 16.2099 30.5665C16.6589 31.8736 16.7903 33.2688 16.5931 34.6368L16.4421 35.7943C16.4172 35.9027 16.4161 36.0151 16.4387 36.124C16.4614 36.2328 16.5073 36.3355 16.5734 36.425C16.6465 36.5267 16.7414 36.6109 16.851 36.6714C16.9607 36.732 17.0825 36.7674 17.2076 36.7751V42.7125C17.2085 43.6173 17.5683 44.4847 18.2081 45.1245C18.8479 45.7642 19.7153 46.1241 20.6201 46.125H27.3826C28.2874 46.124 29.1548 45.7642 29.7946 45.1245C30.4344 44.4847 30.7942 43.6173 30.7951 42.7125V36.7585C31.0055 36.7149 31.1938 36.599 31.3276 36.4309C31.4613 36.2627 31.5319 36.0531 31.527 35.8384C31.527 35.8331 31.527 35.8278 31.5264 35.8224L31.4226 33.8492V33.8463C31.2736 31.2624 32.2129 28.8111 33.9987 27.1221C34.2034 26.9293 34.4047 26.7283 34.5969 26.5256C37.2587 23.7087 38.6929 19.95 38.5839 16.0759C38.475 12.2018 36.832 8.5296 34.0161 5.86668C31.0586 3.07424 27.1783 1.66603 23.086 1.90012ZM29.6699 36.7781V40.1478H18.3322V36.7781H29.6699ZM27.3826 45H20.6193C20.0128 44.9994 19.4313 44.7582 19.0025 44.3293C18.5736 43.9005 18.3324 43.319 18.3318 42.7125V41.2727H29.6699V42.7125C29.6693 43.3189 29.4281 43.9004 28.9993 44.3292C28.5705 44.7581 27.9891 44.9993 27.3826 45ZM33.2432 6.68437C34.5309 7.90087 35.5663 9.35918 36.2901 10.976C37.014 12.5927 37.4122 14.3363 37.462 16.107C37.5118 17.8778 37.2122 19.641 36.5803 21.2959C35.9484 22.9508 34.9967 24.465 33.7794 25.7519C33.602 25.9394 33.4162 26.1246 33.2263 26.3033C31.1983 28.2219 30.1314 30.9937 30.2989 33.9094L30.3907 35.6536H24.7558C25.3923 33.3413 25.6304 30.9374 25.4598 28.5452C25.3741 27.3752 25.1725 26.2165 24.8582 25.0863C24.9756 24.5043 25.1587 23.9376 25.404 23.397C26.0638 23.9858 26.8677 24.3895 27.734 24.5671C28.0559 24.6339 28.3838 24.6678 28.7126 24.6682C29.349 24.6754 29.9789 24.5383 30.5549 24.2674C31.1308 23.9966 31.638 23.5988 32.0385 23.104C32.3122 22.7555 32.5387 22.3723 32.7119 21.9643C32.8234 21.7146 32.9229 21.4597 33.0191 21.2134C33.1478 20.8837 33.2694 20.5724 33.4155 20.2777C33.973 19.1692 34.891 18.2832 36.0185 17.7652C36.1139 17.7221 36.1954 17.6531 36.2538 17.5662C36.3121 17.4792 36.3451 17.3777 36.3488 17.273C36.3526 17.1684 36.3271 17.0647 36.2752 16.9738C36.2232 16.8828 36.147 16.8082 36.0549 16.7583C34.3655 15.8454 32.5047 15.2937 30.5908 15.1381C28.4727 14.9693 26.7251 15.4127 25.5359 16.4197C24.8571 17.006 24.3578 17.7722 24.0956 18.63C23.8334 19.4878 23.819 20.4022 24.054 21.2678C24.175 21.6926 24.36 22.0965 24.6027 22.4656C24.4582 22.7474 24.3361 23.0187 24.2339 23.2718C23.6078 21.7481 22.7424 20.334 21.6704 19.0832C21.9289 18.5112 22.0396 17.8834 21.9923 17.2575C21.9449 16.6316 21.7411 16.0276 21.3994 15.501C20.7269 14.4885 19.5202 13.7782 17.9098 13.4479C16.4676 13.1543 14.9801 13.1637 13.5418 13.4753C13.4394 13.4977 13.3454 13.5482 13.2702 13.6211C13.195 13.694 13.1417 13.7864 13.1162 13.888C13.0907 13.9896 13.0941 14.0963 13.126 14.196C13.1579 14.2958 13.217 14.3847 13.2966 14.4527C13.9829 15.0457 14.4472 15.8543 14.6134 16.746C14.6564 16.985 14.679 17.2335 14.7029 17.4975C14.721 17.6983 14.7404 17.906 14.7685 18.1141C14.8101 18.4588 14.8971 18.7964 15.0273 19.1182C15.5242 20.2971 16.6211 21.0642 17.9625 21.1706C18.0665 21.1789 18.1703 21.183 18.2737 21.1829C18.7825 21.1856 19.2868 21.0869 19.7571 20.8925C20.2273 20.6981 20.6542 20.412 21.0126 20.0509C21.5386 20.6931 22.0087 21.3792 22.4176 22.1017C22.9718 23.0868 23.411 24.1323 23.7264 25.2177C23.733 25.2574 23.7439 25.2962 23.7589 25.3335C24.0587 26.3968 24.2516 27.4875 24.3347 28.5891C24.5046 30.97 24.2496 33.362 23.5815 35.6535H17.5951L17.7076 34.7882C17.9288 33.2433 17.779 31.668 17.2707 30.1925C16.7624 28.717 15.9102 27.3837 14.7845 26.3029C13.3771 24.9781 12.2705 23.3667 11.5394 21.5775C10.8084 19.7883 10.4699 17.863 10.547 15.9317C10.6789 12.608 12.0479 9.45344 14.3854 7.08693C16.8387 4.54351 20.1984 3.07371 23.7313 2.99829C27.2643 2.92288 30.6837 4.24796 33.2432 6.68437ZM25.1368 20.9625C24.9639 20.3044 24.9777 19.6111 25.1766 18.9604C25.3754 18.3097 25.7516 17.7272 26.2628 17.2781C27.243 16.4481 28.5861 16.2281 29.7339 16.2281C30.0028 16.2281 30.2611 16.2401 30.5014 16.2592C31.9084 16.3736 33.2865 16.721 34.5795 17.2873C33.6541 17.9172 32.9063 18.7746 32.408 19.7771C32.2399 20.1163 32.1035 20.4656 31.9716 20.8035C31.876 21.0484 31.7858 21.2796 31.6851 21.5047C31.5513 21.8231 31.3763 22.1226 31.1645 22.3954C30.4025 23.3366 29.235 23.7266 27.9611 23.4641C27.1956 23.3084 26.4953 22.9245 25.9524 22.3629C25.9654 22.3418 25.9782 22.3208 25.9916 22.2997C27.2619 20.2957 29.2176 19.0025 31.8041 18.4559C31.9501 18.4251 32.0778 18.3375 32.1592 18.2125C32.2406 18.0875 32.2691 17.9352 32.2382 17.7892C32.2074 17.6433 32.1198 17.5155 31.9948 17.4341C31.8698 17.3527 31.7176 17.3243 31.5716 17.3551C28.2378 18.0594 26.3302 19.8384 25.2752 21.3468C25.2208 21.2218 25.1745 21.0935 25.1368 20.9625ZM16.8485 15.1157C16.7196 15.0405 16.5662 15.0196 16.4219 15.0576C16.2776 15.0956 16.1544 15.1893 16.0792 15.3182C16.004 15.4471 15.9831 15.6005 16.0211 15.7448C16.0591 15.8891 16.1528 16.0123 16.2817 16.0875C17.7513 16.9309 19.093 17.9796 20.2665 19.2019C19.9864 19.5026 19.6411 19.7353 19.2572 19.8821C18.8733 20.0289 18.4609 20.086 18.0515 20.049C17.1234 19.9754 16.3994 19.4771 16.064 18.6815C15.9723 18.4498 15.9113 18.2071 15.8826 17.9596C15.8574 17.7781 15.8406 17.5926 15.8228 17.3963C15.7978 17.1201 15.7719 16.8345 15.7197 16.5468C15.5794 15.7727 15.261 15.042 14.7897 14.4122C15.7554 14.3099 16.7311 14.3565 17.6827 14.5503C18.5984 14.7383 19.8238 15.164 20.4615 16.1241C20.6509 16.4207 20.7789 16.7524 20.838 17.0994C20.897 17.4464 20.8858 17.8017 20.805 18.1444C19.6239 16.9666 18.2938 15.9483 16.8485 15.1156V15.1157Z" fill="#F9593A"/>
</svg>
