<svg width="38" height="46" viewBox="0 0 38 46" fill="none" xmlns="http://www.w3.org/2000/svg">
<path d="M0.670119 0.920083C0.585822 0.935335 0.507142 0.972868 0.442243 1.02879C0.377344 1.0847 0.328591 1.15697 0.301042 1.23809C0.273494 1.3192 0.268154 1.40621 0.285575 1.49009C0.302997 1.57396 0.342546 1.65165 0.400119 1.71508C2.9962 4.6464 3.7759 7.71772 3.71512 11.0301C3.65434 14.3424 2.72032 17.8825 1.88512 21.5601C1.04991 25.2376 0.311393 29.0621 0.685119 32.9901C1.05884 36.918 2.56598 40.9358 6.16012 44.9151C6.20494 44.9666 6.26023 45.008 6.32231 45.0364C6.38439 45.0649 6.45183 45.0798 6.52012 45.0801H36.1001C36.1936 45.0794 36.2849 45.0514 36.3627 44.9995C36.4405 44.9476 36.5015 44.8742 36.5381 44.7882C36.5748 44.7021 36.5855 44.6073 36.569 44.5152C36.5524 44.4232 36.5094 44.338 36.4451 44.2701C33.6624 41.1892 32.2226 38.1525 31.5701 35.1351L34.6301 37.8801C34.6995 37.9404 34.7847 37.9795 34.8756 37.9928C34.9665 38.0061 35.0594 37.993 35.1431 37.9551C35.2268 37.9172 35.2979 37.856 35.3479 37.7789C35.3979 37.7018 35.4247 37.612 35.4251 37.5201V28.7601C36.8295 27.5555 37.7201 25.774 37.7201 23.7801C37.7201 20.9244 35.8837 18.5008 33.3401 17.6001C33.9561 14.7451 34.4249 11.9451 34.1951 9.21508C33.9572 6.38904 32.9672 3.6299 30.7001 1.07008C30.654 1.02128 30.5981 0.982715 30.536 0.956877C30.474 0.931038 30.4073 0.918503 30.3401 0.920083H0.760119C0.730185 0.917264 0.700052 0.917264 0.670119 0.920083ZM1.70512 1.88008H30.1001C32.1336 4.2409 33.0162 6.6897 33.2351 9.29008C33.4497 11.8394 33.0255 14.531 32.4251 17.3301C32.0183 17.2504 31.6097 17.2101 31.1801 17.2101C27.5732 17.2101 24.6401 20.1602 24.6401 23.7801C24.6401 25.7695 25.5234 27.5406 26.9201 28.7451V37.5201C26.9206 37.612 26.9474 37.7018 26.9974 37.7789C27.0473 37.856 27.1184 37.9172 27.2021 37.9551C27.2859 37.993 27.3787 38.0061 27.4696 37.9928C27.5606 37.9795 27.6458 37.9404 27.7151 37.8801L30.6251 35.2851C31.2591 38.2143 32.6517 41.1721 35.1101 44.1201H6.74512C3.37553 40.3314 1.99713 36.5998 1.64512 32.9001C1.28838 29.1507 1.99977 25.4262 2.83012 21.7701C3.66047 18.1139 4.61131 14.5372 4.67512 11.0601C4.73351 7.87803 3.93965 4.77054 1.70512 1.88008ZM7.03012 6.54508C6.96707 6.55196 6.906 6.57119 6.85038 6.60168C6.79477 6.63216 6.74571 6.67331 6.706 6.72276C6.66628 6.77221 6.63671 6.829 6.61895 6.88988C6.60119 6.95077 6.59559 7.01455 6.60249 7.0776C6.60938 7.14064 6.62863 7.20171 6.65913 7.25732C6.68963 7.31292 6.73079 7.36198 6.78025 7.40167C6.82971 7.44137 6.88651 7.47093 6.9474 7.48868C7.00829 7.50642 7.07208 7.512 7.13512 7.50508H22.3451C22.4087 7.50598 22.4719 7.49423 22.5309 7.47051C22.5899 7.44679 22.6437 7.41158 22.6889 7.36692C22.7342 7.32226 22.7702 7.26904 22.7948 7.21036C22.8193 7.15167 22.832 7.08869 22.832 7.02508C22.832 6.96147 22.8193 6.89849 22.7948 6.83981C22.7702 6.78113 22.7342 6.72791 22.6889 6.68325C22.6437 6.63858 22.5899 6.60337 22.5309 6.57965C22.4719 6.55593 22.4087 6.54418 22.3451 6.54508H7.13512C7.10022 6.54124 7.06501 6.54124 7.03012 6.54508ZM7.03012 11.0151C6.96707 11.022 6.906 11.0412 6.85038 11.0717C6.79477 11.1022 6.74571 11.1433 6.706 11.1928C6.66628 11.2422 6.63671 11.299 6.61895 11.3599C6.60119 11.4208 6.59559 11.4846 6.60249 11.5476C6.60938 11.6106 6.62863 11.6717 6.65913 11.7273C6.68963 11.7829 6.73079 11.832 6.78025 11.8717C6.82971 11.9114 6.88651 11.9409 6.9474 11.9587C7.00829 11.9764 7.07208 11.982 7.13512 11.9751H17.6051C17.6687 11.976 17.7319 11.9642 17.7909 11.9405C17.8499 11.9168 17.9036 11.8816 17.9489 11.8369C17.9942 11.7923 18.0302 11.739 18.0548 11.6804C18.0793 11.6217 18.092 11.5587 18.092 11.4951C18.092 11.4315 18.0793 11.3685 18.0548 11.3098C18.0302 11.2511 17.9942 11.1979 17.9489 11.1532C17.9036 11.1086 17.8499 11.0734 17.7909 11.0497C17.7319 11.0259 17.6687 11.0142 17.6051 11.0151H7.13512C7.10022 11.0112 7.06501 11.0112 7.03012 11.0151ZM7.03012 15.4851C6.96707 15.492 6.906 15.5112 6.85038 15.5417C6.79477 15.5722 6.74571 15.6133 6.706 15.6628C6.66628 15.7122 6.63671 15.769 6.61895 15.8299C6.60119 15.8908 6.59559 15.9546 6.60249 16.0176C6.60938 16.0806 6.62863 16.1417 6.65913 16.1973C6.68963 16.2529 6.73079 16.302 6.78025 16.3417C6.82971 16.3814 6.88651 16.4109 6.9474 16.4287C7.00829 16.4464 7.07208 16.452 7.13512 16.4451H22.3451C22.4087 16.446 22.4719 16.4342 22.5309 16.4105C22.5899 16.3868 22.6437 16.3516 22.6889 16.3069C22.7342 16.2623 22.7702 16.209 22.7948 16.1504C22.8193 16.0917 22.832 16.0287 22.832 15.9651C22.832 15.9015 22.8193 15.8385 22.7948 15.7798C22.7702 15.7211 22.7342 15.6679 22.6889 15.6232C22.6437 15.5786 22.5899 15.5434 22.5309 15.5197C22.4719 15.4959 22.4087 15.4842 22.3451 15.4851H7.13512C7.10022 15.4812 7.06501 15.4812 7.03012 15.4851ZM31.1801 18.1851C34.2691 18.1851 36.7601 20.6799 36.7601 23.7801C36.7601 26.8802 34.2691 29.3901 31.1801 29.3901C28.0911 29.3901 25.6001 26.8802 25.6001 23.7801C25.6001 20.6799 28.0911 18.1851 31.1801 18.1851ZM7.03012 19.9551C6.96707 19.962 6.906 19.9812 6.85038 20.0117C6.79477 20.0422 6.74571 20.0833 6.706 20.1328C6.66628 20.1822 6.63671 20.239 6.61895 20.2999C6.60119 20.3608 6.59559 20.4246 6.60249 20.4876C6.60938 20.5506 6.62863 20.6117 6.65913 20.6673C6.68963 20.7229 6.73079 20.772 6.78025 20.8117C6.82971 20.8514 6.88651 20.8809 6.9474 20.8987C7.00829 20.9164 7.07208 20.922 7.13512 20.9151H17.6051C17.6687 20.916 17.7319 20.9042 17.7909 20.8805C17.8499 20.8568 17.9036 20.8216 17.9489 20.7769C17.9942 20.7323 18.0302 20.679 18.0548 20.6204C18.0793 20.5617 18.092 20.4987 18.092 20.4351C18.092 20.3715 18.0793 20.3085 18.0548 20.2498C18.0302 20.1911 17.9942 20.1379 17.9489 20.0932C17.9036 20.0486 17.8499 20.0134 17.7909 19.9897C17.7319 19.9659 17.6687 19.9542 17.6051 19.9551H7.13512C7.10022 19.9512 7.06501 19.9512 7.03012 19.9551ZM7.03012 24.4251C6.96707 24.432 6.906 24.4512 6.85038 24.4817C6.79477 24.5122 6.74571 24.5533 6.706 24.6028C6.66628 24.6522 6.63671 24.709 6.61895 24.7699C6.60119 24.8308 6.59559 24.8946 6.60249 24.9576C6.60938 25.0206 6.62863 25.0817 6.65913 25.1373C6.68963 25.1929 6.73079 25.242 6.78025 25.2817C6.82971 25.3214 6.88651 25.3509 6.9474 25.3687C7.00829 25.3864 7.07208 25.392 7.13512 25.3851H22.3451C22.4087 25.386 22.4719 25.3742 22.5309 25.3505C22.5899 25.3268 22.6437 25.2916 22.6889 25.2469C22.7342 25.2023 22.7702 25.149 22.7948 25.0904C22.8193 25.0317 22.832 24.9687 22.832 24.9051C22.832 24.8415 22.8193 24.7785 22.7948 24.7198C22.7702 24.6611 22.7342 24.6079 22.6889 24.5632C22.6437 24.5186 22.5899 24.4834 22.5309 24.4597C22.4719 24.4359 22.4087 24.4242 22.3451 24.4251H7.13512C7.10022 24.4212 7.06501 24.4212 7.03012 24.4251ZM7.03012 28.8951C6.96707 28.902 6.906 28.9212 6.85038 28.9517C6.79477 28.9822 6.74571 29.0233 6.706 29.0728C6.66628 29.1222 6.63671 29.179 6.61895 29.2399C6.60119 29.3008 6.59559 29.3645 6.60249 29.4276C6.60938 29.4906 6.62863 29.5517 6.65913 29.6073C6.68963 29.6629 6.73079 29.712 6.78025 29.7517C6.82971 29.7914 6.88651 29.8209 6.9474 29.8387C7.00829 29.8564 7.07208 29.862 7.13512 29.8551H17.6051C17.6687 29.856 17.7319 29.8442 17.7909 29.8205C17.8499 29.7968 17.9036 29.7616 17.9489 29.7169C17.9942 29.6723 18.0302 29.619 18.0548 29.5604C18.0793 29.5017 18.092 29.4387 18.092 29.3751C18.092 29.3115 18.0793 29.2485 18.0548 29.1898C18.0302 29.1311 17.9942 29.0779 17.9489 29.0332C17.9036 28.9886 17.8499 28.9534 17.7909 28.9297C17.7319 28.9059 17.6687 28.8942 17.6051 28.8951H7.13512C7.10022 28.8912 7.06501 28.8912 7.03012 28.8951ZM27.8801 29.4501C28.8485 30.0194 29.9788 30.3351 31.1801 30.3351C32.3815 30.3351 33.4956 30.0194 34.4651 29.4501V36.4401L31.4951 33.7851C31.4068 33.705 31.2918 33.6606 31.1726 33.6606C31.0534 33.6606 30.9384 33.705 30.8501 33.7851L27.8801 36.4401V29.4501Z" fill="#F9593A"/>
</svg>
