<svg width="143" height="40" viewBox="0 0 143 40" fill="none" xmlns="http://www.w3.org/2000/svg">
<path fill-rule="evenodd" clip-rule="evenodd" d="M29.0755 0.0650338C30.1188 -0.249597 31.0235 0.659594 31.9398 1.03669C25.618 4.648 19.2777 8.22231 12.9743 11.8637C9.9946 10.2281 7.06334 8.50455 4.09976 6.84117C4.60985 6.24661 5.00684 5.52018 5.63925 5.05055C8.08582 6.39236 10.4955 7.80125 12.9236 9.17545C18.3152 6.15176 23.6792 3.07948 29.0755 0.0650338ZM66.9419 3.79202C69.0399 2.78104 71.3711 2.42014 73.633 1.95513C73.7507 2.5682 73.8685 3.18127 73.9816 3.79665C72.2782 4.08121 70.561 4.338 68.8991 4.82383C68.3752 5.00196 67.7682 5.15928 67.4451 5.64742C66.9534 6.3831 66.8173 7.2761 66.6372 8.12514C68.4145 7.31311 70.5079 6.79953 72.3913 7.56528C73.5407 8.01178 74.2539 9.17545 74.4316 10.3599C74.6994 12.0742 74.5516 13.9944 73.483 15.4264C72.0843 17.2541 69.3931 17.6497 67.3227 16.8909C65.6286 16.2546 64.8115 14.4224 64.6223 12.7312C64.3822 10.5381 64.5761 8.29171 65.1762 6.17026C65.4647 5.20555 65.9864 4.22695 66.9419 3.79202ZM66.5588 9.66591C66.4687 11.1974 66.4087 12.8446 67.1427 14.2419C68.0336 16.014 70.9118 15.9655 71.8927 14.3067C72.5044 13.2795 72.6059 12.0094 72.4144 10.8504C72.2782 9.95278 71.6573 9.09911 70.7502 8.87239C69.31 8.50686 67.8397 9.02508 66.5588 9.66591ZM101.365 3.78971C103.458 2.77641 105.787 2.42708 108.042 1.94819C108.164 2.56589 108.284 3.18358 108.384 3.8059C106.671 4.07427 104.954 4.34725 103.287 4.83308C102.756 5.00659 102.154 5.17779 101.838 5.6775C101.365 6.40624 101.226 7.28304 101.053 8.1182C102.779 7.34088 104.781 6.83423 106.629 7.49588C107.783 7.8776 108.577 8.96493 108.801 10.1332C109.106 11.7133 109.014 13.4415 108.252 14.8828C107.546 16.2107 106.122 17.0273 104.656 17.1893C102.867 17.4715 100.76 16.9256 99.8344 15.2414C98.6065 12.9765 98.865 10.2651 99.2089 7.80588C99.4882 6.3137 99.8575 4.5092 101.365 3.78971ZM100.968 9.67747C100.882 11.1511 100.831 12.7081 101.468 14.0777C102.244 15.9377 105.136 16.0349 106.237 14.4501C106.89 13.4762 106.985 12.2362 106.872 11.1003C106.775 10.161 106.23 9.19627 105.284 8.91172C103.814 8.47679 102.277 9.00194 100.968 9.67747ZM12.9584 14.4872C9.5563 12.6086 6.2142 10.6237 2.80054 8.76366C2.45664 9.44613 2.10812 10.124 1.76883 10.8064C5.46638 12.9071 9.16392 15.0054 12.8615 17.106C20.5428 12.7498 28.2056 8.36111 35.8961 4.02106C35.3237 3.44963 34.7005 2.93835 34.0612 2.44559C27.0282 6.46407 19.9794 10.4525 12.9584 14.4872ZM57.3497 3.06328C59.2816 2.79723 61.3035 2.96612 63.1107 3.72956C62.8938 4.26628 62.6791 4.80532 62.4668 5.34436C60.4795 4.67114 58.176 4.34263 56.2303 5.3166C54.7116 6.08235 53.9823 7.81976 53.9361 9.45307C53.7976 11.3247 54.3285 13.4669 56.0041 14.5265C57.9775 15.7966 60.4518 15.4542 62.6145 14.973C62.806 15.4935 62.9515 16.0302 63.1015 16.5623C60.9965 17.335 58.6561 17.4576 56.4704 16.9718C54.4323 16.5068 52.7059 14.9244 52.1219 12.9048C51.4711 10.6445 51.5657 8.06036 52.7567 5.99213C53.7051 4.34031 55.5007 3.32933 57.3497 3.06328ZM12.8892 19.7272C8.93312 17.4368 4.96091 15.1743 0.972542 12.9418C0.769431 13.7122 0.582476 14.4848 0.416294 15.2645C4.58007 17.6265 8.75539 19.9701 12.9122 22.3483C21.5976 17.4553 30.2644 12.5277 38.9405 7.61386C38.4973 6.97766 38.0265 6.36459 37.5279 5.77235C29.3109 10.4155 21.1242 15.1164 12.8892 19.7272ZM79.5579 6.2975C81.1943 5.85101 83.26 5.93892 84.4441 7.31543C85.5427 8.65724 85.6004 10.5034 85.5612 12.1575C83.1769 12.1483 80.7904 12.1413 78.4061 12.1621C78.4638 13.2818 78.7362 14.6075 79.851 15.1396C81.4574 15.8544 83.3131 15.5444 84.9449 15.0725C85.0603 15.5907 85.1757 16.1089 85.2935 16.6271C83.6709 17.1407 81.9444 17.2726 80.2549 17.1407C78.9047 17.0389 77.5291 16.3402 76.9382 15.0702C76.195 13.4646 76.2065 11.6023 76.5112 9.89031C76.793 8.26163 77.9191 6.73475 79.5579 6.2975ZM79.3663 8.37731C78.7685 9.0112 78.6139 9.90188 78.48 10.7301C80.1234 10.7394 81.7667 10.737 83.4101 10.7301C83.3316 9.90188 83.2854 8.99732 82.7338 8.3241C81.9098 7.31311 80.1928 7.42416 79.3663 8.37731ZM89.6721 7.17431C91.0524 6.13093 92.9542 5.68675 94.5791 6.4178C96.1278 7.06557 96.8987 8.77291 97.0395 10.3646C97.238 12.3565 96.9357 14.6653 95.3246 16.0349C93.7505 17.3697 91.5417 17.3674 89.6029 17.1222C89.6006 18.5357 89.6098 19.9493 89.596 21.3628C88.9151 21.3581 88.2342 21.3581 87.5556 21.3581C87.5533 16.3518 87.5533 11.3478 87.5533 6.34377C88.2596 6.34146 88.9682 6.34146 89.6744 6.34609C89.6742 6.5543 89.6721 6.96841 89.6721 7.17431ZM89.746 8.59015C89.7414 10.8689 89.7414 13.1477 89.746 15.4287C91.0293 15.637 92.4949 15.8429 93.6328 15.054C94.863 14.1725 95.103 12.5138 95.0315 11.1049C94.9807 9.91807 94.5514 8.51843 93.3581 8.03029C92.1487 7.54215 90.8375 8.03029 89.746 8.59015ZM111.31 6.73012C113.069 6.04534 115.049 5.8672 116.898 6.26974C118.068 6.51266 119.029 7.54446 119.042 8.76828C119.126 10.7648 119.019 12.7659 119.086 14.7625C119.063 15.357 119.756 15.4449 120.18 15.5861C120.09 16.0881 120.243 16.715 119.945 17.1338C118.92 17.2841 117.653 17.0042 117.201 15.9585C116.335 16.5323 115.419 17.0967 114.366 17.2078C113.113 17.3721 111.64 17.1037 110.86 16.0164C109.923 14.656 110.145 12.4421 111.638 11.5629C113.263 10.6075 115.227 10.9406 117.023 10.8088C116.984 9.88569 117.251 8.5647 116.231 8.07424C114.745 7.56066 113.125 7.92618 111.647 8.31716C111.541 7.79431 111.25 7.2599 111.31 6.73012ZM113.288 12.523C112.136 12.9418 112.007 14.8157 113.136 15.3362C114.447 15.8845 115.896 15.3478 117.03 14.6283C117.016 13.8024 117.018 12.9788 117.018 12.1552C115.779 12.2454 114.466 12.0465 113.288 12.523ZM140.284 6.26974C141.052 6.27668 141.821 6.27437 142.59 6.27206C141.128 7.99559 139.601 9.66128 138.153 11.3964C139.718 12.8492 140.909 14.8712 143 15.63C142.901 16.1667 142.781 16.6988 142.65 17.2263C141.452 17.1476 140.325 16.5947 139.524 15.7017C138.301 14.3368 137.154 12.9048 135.961 11.5144C137.399 9.76307 138.832 8.00715 140.284 6.26974ZM121.967 6.34377C122.673 6.34146 123.377 6.34146 124.085 6.34377C124.085 7.85446 124.083 9.36516 124.085 10.8758C125.782 10.8758 127.476 10.8758 129.172 10.8758C129.175 9.36516 129.172 7.85446 129.175 6.34377C129.879 6.34146 130.585 6.34146 131.294 6.34377C131.284 9.91113 131.314 13.4808 131.277 17.0482C130.576 17.0366 129.874 17.0366 129.175 17.0389C129.17 15.5282 129.175 14.0175 129.172 12.5068C127.476 12.5045 125.782 12.5068 124.085 12.5045C124.081 14.0152 124.09 15.5282 124.081 17.0389C123.377 17.0389 122.673 17.0389 121.971 17.0389C121.962 13.4739 121.969 9.90882 121.967 6.34377ZM133.835 17.0991C133.849 13.5109 133.819 9.9227 133.849 6.33452C134.55 6.34146 135.252 6.34377 135.956 6.34377C135.958 9.93195 135.958 13.5201 135.956 17.1083C135.247 17.1083 134.541 17.1083 133.835 17.0991ZM12.8638 24.9695C8.58921 22.5403 4.32849 20.0904 0.0493092 17.6705C-0.287671 22.4894 1.12949 27.4032 4.00075 31.2829C7.91756 36.7126 14.5048 40.007 21.1798 40H21.3044C25.5582 39.9515 29.8051 38.6744 33.3134 36.243C37.8857 33.1314 41.1609 28.1389 42.0864 22.6653C42.8873 18.2118 42.1349 13.5155 40.0045 9.5271C30.9566 14.6746 21.9089 19.822 12.8638 24.9695Z" fill="#299E30"/>
<path fill-rule="evenodd" clip-rule="evenodd" d="M104.132 22.3878C104.441 22.0524 104.753 21.7169 105.069 21.3861C105.694 22.0408 106.507 22.6238 107.46 22.5613C108.402 22.5868 109.196 22.02 109.833 21.3838C110.117 21.7216 110.4 22.0616 110.684 22.4017C110.077 23.149 109.332 23.8407 108.372 24.0674C106.777 24.5023 105.073 23.6949 104.132 22.3878ZM57.243 22.7626C59.2349 22.4595 61.4322 22.6423 63.1171 23.8407C64.6658 24.9303 65.4852 26.8019 65.6537 28.6481C65.8891 30.8065 65.5059 33.1894 63.9965 34.8412C62.6878 36.2987 60.682 36.9118 58.771 36.9349C56.9937 36.995 55.108 36.5416 53.7855 35.2923C52.4722 34.0708 51.8652 32.2663 51.7567 30.5104C51.6136 28.6203 51.9529 26.6006 53.1415 25.0761C54.125 23.7852 55.6643 23.0217 57.243 22.7626ZM57.7141 24.4214C56.4169 24.6111 55.2213 25.4162 54.6143 26.5891C53.848 28.0581 53.7765 29.8117 54.0904 31.415C54.3789 32.9419 55.3552 34.4225 56.867 34.9479C58.3396 35.4337 60.0499 35.3458 61.407 34.5638C62.7272 33.7819 63.3989 32.2573 63.542 30.779C63.7289 29.0069 63.4704 27.0219 62.2125 25.6686C61.086 24.4491 59.2859 24.1576 57.7141 24.4214ZM68.1097 25.983C68.7998 25.9598 69.4899 25.9575 70.18 25.9806C70.1547 27.4821 70.1823 28.9812 70.1593 30.4803C71.8811 30.515 73.6052 30.4919 75.3294 30.4942C75.3432 28.9812 75.2948 27.4659 75.3594 25.9506C76.031 25.9621 76.705 25.9668 77.3766 25.9668C77.379 29.5526 77.3743 33.1385 77.379 36.7244C76.6958 36.729 76.0126 36.729 75.3294 36.729C75.3271 35.1975 75.3248 33.666 75.3317 32.1368C73.6075 32.1183 71.8834 32.1067 70.1616 32.1437C70.1731 33.6729 70.1731 35.2021 70.1616 36.7313C69.483 36.729 68.8044 36.729 68.1258 36.729C68.1071 33.1477 68.1395 29.5665 68.1097 25.983ZM81.9028 25.9644C84.234 25.9668 86.5651 25.9598 88.894 25.9668C88.8986 29.5526 88.8917 33.1385 88.8986 36.722C88.2154 36.729 87.5322 36.729 86.8513 36.7313C86.8398 33.6822 86.8513 30.6353 86.8444 27.5885C85.8104 27.5908 84.7764 27.5908 83.7423 27.5862C83.5185 29.8881 83.3869 32.2501 82.5652 34.434C82.0482 35.8476 80.6657 36.6804 79.2901 37.0899C79.1008 36.5046 78.9115 35.9193 78.7269 35.334C79.4355 34.9916 80.1994 34.6515 80.6772 33.9945C81.0096 33.5133 81.155 32.9349 81.2842 32.3727C81.7318 30.2675 81.8359 28.109 81.9028 25.9644ZM91.7814 26.4734C93.5194 25.7447 95.4882 25.5688 97.3346 25.9274C98.4448 26.1356 99.4627 27.0055 99.5758 28.1761C99.7466 30.3346 99.5412 32.5092 99.675 34.6677C99.7627 35.1743 100.377 35.1952 100.76 35.3617C100.716 35.8753 100.67 36.3866 100.628 36.9002C99.5527 37.0228 98.2533 36.8076 97.7432 35.7203C96.3145 36.8447 94.3203 37.4346 92.5985 36.6341C90.4496 35.8105 90.265 32.3727 92.2245 31.2438C93.8494 30.2976 95.8021 30.6353 97.5908 30.4965C97.5516 29.5734 97.8193 28.2571 96.7992 27.7643C95.3151 27.2461 93.6948 27.6232 92.2199 28.0003C92.0745 27.4913 91.9289 26.9824 91.7814 26.4734ZM93.7017 32.2524C92.6008 32.729 92.5408 34.5705 93.674 35.0448C94.9619 35.5584 96.3329 34.9638 97.4916 34.3831C97.5239 33.5364 97.5216 32.6897 97.5147 31.843C96.2473 31.9494 94.8948 31.718 93.7017 32.2524ZM102.521 25.9899C103.229 25.9621 103.94 25.9575 104.651 25.9621C104.623 28.6296 104.73 31.2993 104.577 33.9644C106.271 31.1952 108.314 28.6643 110.135 25.983C110.851 25.9621 111.566 25.9598 112.282 25.9598C112.291 29.5503 112.284 33.1385 112.284 36.7267C111.58 36.7267 110.878 36.729 110.174 36.7336C110.167 34.0801 110.13 31.4263 110.214 28.7753C108.506 31.526 106.5 34.0731 104.653 36.729C103.949 36.7267 103.245 36.729 102.544 36.7336C102.514 33.1524 102.558 29.5711 102.521 25.9899ZM115.067 25.9529C115.741 25.9621 116.415 25.9668 117.089 25.9668C117.092 27.4775 117.089 28.9858 117.089 30.4965C118.809 30.4965 120.528 30.4988 122.248 30.4965C122.255 28.9835 122.239 27.4705 122.257 25.9575C122.933 25.9644 123.612 25.9644 124.291 25.9598C124.307 29.5503 124.295 33.1408 124.297 36.7313C123.614 36.729 122.931 36.729 122.25 36.729C122.248 35.1952 122.25 33.659 122.248 32.1252C120.528 32.1229 118.811 32.1229 117.092 32.1252C117.089 33.6588 117.089 35.1929 117.092 36.7267C116.408 36.729 115.728 36.729 115.044 36.729C115.054 33.1385 115.01 29.5457 115.067 25.9529Z" fill="#F59624"/>
</svg>
