<svg width="64" height="64" viewBox="0 0 64 64" fill="none" xmlns="http://www.w3.org/2000/svg">
<g clip-path="url(#clip0)">
<path fill-rule="evenodd" clip-rule="evenodd" d="M10.7047 40.6815C12.1802 39.9705 13.8197 39.7167 15.4105 39.3896C15.4933 39.8208 15.5761 40.252 15.6556 40.6848C14.4577 40.8849 13.25 41.0655 12.0812 41.4072C11.7127 41.5325 11.2858 41.6431 11.0585 41.9864C10.7128 42.5038 10.617 43.1319 10.4904 43.729C11.7403 43.1579 13.2126 42.7967 14.5372 43.3352C15.3456 43.6493 15.8472 44.4677 15.9722 45.3007C16.1605 46.5064 16.0566 47.8568 15.305 48.864C14.3213 50.1493 12.4286 50.4276 10.9725 49.8939C9.78104 49.4465 9.2064 48.1578 9.07329 46.9685C8.90448 45.426 9.04083 43.8461 9.46288 42.3541C9.66579 41.6757 10.0326 40.9874 10.7047 40.6815ZM10.4352 44.8126C10.3719 45.8897 10.3297 47.0482 10.8459 48.0309C11.4725 49.2772 13.4967 49.2431 14.1866 48.0765C14.6167 47.3541 14.6882 46.4608 14.5534 45.6457C14.4577 45.0144 14.021 44.414 13.3831 44.2545C12.3702 43.9975 11.3361 44.3619 10.4352 44.8126ZM34.9141 40.6799C36.3864 39.9673 38.0243 39.7216 39.6102 39.3848C39.6962 39.8192 39.7806 40.2536 39.8504 40.6913C38.646 40.88 37.4382 41.072 36.2663 41.4137C35.8929 41.5357 35.4692 41.6561 35.2468 42.0076C34.9141 42.5201 34.8167 43.1367 34.6949 43.7241C35.9091 43.1774 37.3165 42.8211 38.6167 43.2864C39.4284 43.5549 39.9868 44.3196 40.1442 45.1413C40.3585 46.2525 40.2936 47.468 39.7579 48.4816C39.2612 49.4155 38.2596 49.9899 37.2288 50.1038C35.9708 50.3023 34.4888 49.9183 33.8378 48.7338C32.9743 47.1409 33.1561 45.234 33.3979 43.5045C33.5944 42.455 33.8541 41.1859 34.9141 40.6799ZM34.6349 44.8207C34.5748 45.8572 34.5391 46.9522 34.9871 47.9154C35.5325 49.2235 37.5665 49.2919 38.3408 48.1774C38.8002 47.4924 38.8667 46.6203 38.7872 45.8214C38.719 45.1608 38.3359 44.4823 37.6704 44.2822C36.6365 43.9763 35.5554 44.3456 34.6349 44.8207ZM3.95855 40.169C5.31722 39.9819 6.7392 40.1007 8.01022 40.6376C7.85763 41.0151 7.70667 41.3942 7.55733 41.7733C6.15969 41.2998 4.53968 41.0688 3.17126 41.7538C2.10315 42.2923 1.59021 43.5142 1.55774 44.6629C1.46034 45.9792 1.83369 47.4859 3.01219 48.231C4.40008 49.1243 6.14022 48.8835 7.66122 48.5451C7.79595 48.9111 7.89821 49.2886 8.00373 49.6628C6.52331 50.2063 4.87732 50.2925 3.34008 49.9508C1.90674 49.6238 0.69254 48.5109 0.281853 47.0905C-0.175908 45.5009 -0.109356 43.6834 0.72825 42.2289C1.39525 41.0671 2.65815 40.3561 3.95855 40.169ZM19.5775 42.4436C20.7283 42.1296 22.1812 42.1914 23.0139 43.1595C23.7866 44.1032 23.8272 45.4016 23.7996 46.5649C22.1227 46.5584 20.4443 46.5536 18.7674 46.5682C18.808 47.3557 18.9996 48.288 19.7836 48.6622C20.9134 49.165 22.2185 48.9469 23.3662 48.615C23.4473 48.9795 23.5285 49.3439 23.6113 49.7084C22.4701 50.0696 21.2559 50.1624 20.0677 50.0696C19.1181 49.998 18.1506 49.5066 17.735 48.6134C17.2124 47.4842 17.2205 46.1744 17.4347 44.9704C17.6329 43.825 18.4249 42.7511 19.5775 42.4436ZM19.4427 43.9063C19.0223 44.3522 18.9135 44.9786 18.8194 45.5611C19.9751 45.5676 21.1309 45.5659 22.2867 45.5611C22.2315 44.9786 22.199 44.3424 21.8111 43.8689C21.2316 43.1579 20.024 43.236 19.4427 43.9063ZM26.6908 43.0603C27.6615 42.3265 28.9991 42.0141 30.1418 42.5282C31.231 42.9838 31.7732 44.1846 31.8722 45.304C32.0118 46.7049 31.7992 48.3287 30.6661 49.2919C29.5591 50.2307 28.0056 50.2291 26.6421 50.0566C26.6404 51.0507 26.6469 52.0449 26.6372 53.039C26.1583 53.0357 25.6795 53.0357 25.2022 53.0357C25.2006 49.5148 25.2006 45.9955 25.2006 42.4762C25.6973 42.4745 26.1957 42.4745 26.6924 42.4778C26.6922 42.6242 26.6908 42.9155 26.6908 43.0603ZM26.7427 44.056C26.7395 45.6587 26.7395 47.2613 26.7427 48.8656C27.6452 49.012 28.676 49.1568 29.4763 48.602C30.3415 47.9821 30.5103 46.8155 30.46 45.8246C30.4243 44.99 30.1223 44.0056 29.2831 43.6623C28.4325 43.319 27.5104 43.6623 26.7427 44.056ZM41.9089 42.7479C43.1458 42.2663 44.5386 42.141 45.8388 42.4241C46.6618 42.5949 47.3371 43.3206 47.3468 44.1813C47.4053 45.5855 47.3306 46.9929 47.3777 48.397C47.3614 48.8152 47.8484 48.877 48.1471 48.9762C48.0838 49.3293 48.1909 49.7702 47.9815 50.0647C47.2608 50.1705 46.3696 49.9736 46.0515 49.2382C45.4427 49.6417 44.7983 50.0387 44.0581 50.1168C43.1767 50.2323 42.141 50.0436 41.5924 49.2789C40.9333 48.3222 41.0891 46.7651 42.1394 46.1468C43.2822 45.4748 44.6636 45.7091 45.9265 45.6164C45.8989 44.9672 46.0872 44.0381 45.3697 43.6932C44.3243 43.332 43.1848 43.5891 42.1459 43.864C42.0712 43.4963 41.8667 43.1205 41.9089 42.7479ZM43.2999 46.822C42.4899 47.1165 42.3989 48.4344 43.1927 48.8005C44.1147 49.1861 45.1342 48.8086 45.9312 48.3026C45.9214 47.7218 45.9231 47.1425 45.9231 46.5633C45.0515 46.6268 44.1279 46.4868 43.2999 46.822ZM62.2857 42.4241C62.8263 42.429 63.3668 42.4274 63.9074 42.4257C62.8799 43.6379 61.8053 44.8094 60.7875 46.0296C61.8881 47.0514 62.7257 48.4735 64.1963 49.0071C64.1265 49.3846 64.0421 49.7588 63.9496 50.1298C63.1071 50.0745 62.315 49.6856 61.7517 49.0576C60.8914 48.0976 60.0846 47.0905 59.2454 46.1126C60.2567 44.8809 61.2646 43.646 62.2857 42.4241ZM49.4034 42.4762C49.9001 42.4745 50.3952 42.4745 50.8935 42.4762C50.8935 43.5386 50.8919 44.6011 50.8935 45.6636C52.0866 45.6636 53.2781 45.6636 54.4712 45.6636C54.4728 44.6011 54.4712 43.5386 54.4728 42.4762C54.9679 42.4745 55.4646 42.4745 55.963 42.4762C55.9565 44.9851 55.9776 47.4956 55.9516 50.0045C55.4581 49.9964 54.9647 49.9964 54.4728 49.998C54.4696 48.9356 54.4728 47.8731 54.4712 46.8106C53.2781 46.809 52.0866 46.8106 50.8935 46.809C50.8903 47.8715 50.8968 48.9356 50.8903 49.998C50.3952 49.998 49.9001 49.998 49.4066 49.998C49.4003 47.4907 49.4051 44.9834 49.4034 42.4762ZM57.7503 50.0403C57.7601 47.5168 57.739 44.9932 57.7601 42.4697C58.2536 42.4745 58.747 42.4762 59.2421 42.4762C59.2437 44.9997 59.2437 47.5233 59.2421 50.0468C58.7438 50.0468 58.2471 50.0468 57.7503 50.0403Z" fill="#299E30"/>
<path fill-rule="evenodd" clip-rule="evenodd" d="M43.1865 53.7599C43.404 53.5239 43.6231 53.288 43.8455 53.0553C44.2854 53.5158 44.8568 53.9258 45.5272 53.8819C46.1895 53.8998 46.7479 53.5012 47.1959 53.0537C47.3956 53.2913 47.5953 53.5304 47.7949 53.7696C47.368 54.2952 46.8437 54.7816 46.1684 54.9411C45.0467 55.247 43.8488 54.6791 43.1865 53.7599ZM10.2098 54.0234C11.6107 53.8103 13.156 53.9388 14.341 54.7816C15.4302 55.548 16.0065 56.8643 16.125 58.1627C16.2906 59.6807 16.0211 61.3566 14.9595 62.5183C14.0391 63.5433 12.6285 63.9745 11.2844 63.9908C10.0345 64.0331 8.70827 63.7142 7.77814 62.8355C6.8545 61.9765 6.42758 60.7074 6.35129 59.4724C6.25064 58.1431 6.48927 56.7227 7.32525 55.6505C8.01692 54.7426 9.09948 54.2057 10.2098 54.0234ZM10.5411 55.19C9.62883 55.3234 8.78797 55.8897 8.36105 56.7146C7.82213 57.7478 7.77181 58.9811 7.99257 60.1086C8.19548 61.1825 8.88213 62.2238 9.94537 62.5933C10.981 62.935 12.1839 62.8731 13.1383 62.3232C14.0668 61.7732 14.5392 60.701 14.6399 59.6613C14.7713 58.415 14.5895 57.019 13.7049 56.0672C12.9125 55.2096 11.6465 55.0045 10.5411 55.19ZM17.8523 56.2883C18.3377 56.272 18.823 56.2704 19.3084 56.2867C19.2905 57.3426 19.31 58.397 19.2938 59.4513C20.5047 59.4757 21.7173 59.4594 22.9299 59.461C22.9396 58.3969 22.9055 57.3312 22.951 56.2655C23.4234 56.2736 23.8974 56.2769 24.3697 56.2769C24.3713 58.7988 24.3681 61.3208 24.3713 63.8427C23.8909 63.8459 23.4104 63.8459 22.9299 63.8459C22.9283 62.7688 22.9266 61.6917 22.9315 60.6162C21.7189 60.6032 20.5063 60.5951 19.2954 60.6211C19.3035 61.6966 19.3035 62.7721 19.2954 63.8476C18.8181 63.8459 18.3409 63.8459 17.8637 63.8459C17.8505 61.3273 17.8732 58.8086 17.8523 56.2883ZM27.5529 56.2753C29.1924 56.2769 30.8319 56.272 32.4698 56.2769C32.4731 58.7988 32.4682 61.3208 32.4731 63.8411C31.9926 63.8459 31.5121 63.8459 31.0332 63.8476C31.0251 61.7031 31.0332 59.5603 31.0284 57.4175C30.3011 57.4191 29.5739 57.4191 28.8467 57.4158C28.6892 59.0348 28.5967 60.696 28.0188 62.2319C27.6552 63.226 26.6829 63.8118 25.7154 64.0998C25.5823 63.6881 25.4492 63.2765 25.3193 62.8648C25.8177 62.624 26.355 62.3849 26.691 61.9228C26.9247 61.5843 27.027 61.1776 27.1179 60.7822C27.4327 59.3016 27.5059 57.7836 27.5529 56.2753ZM34.5005 56.6332C35.7229 56.1207 37.1075 55.997 38.4061 56.2492C39.1869 56.3957 39.9028 57.0074 39.9823 57.8307C40.1024 59.3488 39.958 60.8782 40.0521 62.3962C40.1138 62.7526 40.5456 62.7672 40.815 62.8844C40.7842 63.2456 40.7517 63.6051 40.7225 63.9663C39.9661 64.0526 39.0522 63.9013 38.6934 63.1366C37.6886 63.9273 36.2861 64.3422 35.0752 63.7792C33.5639 63.2 33.434 60.7822 34.8122 59.9882C35.955 59.3227 37.3283 59.5603 38.5863 59.4627C38.5587 58.8135 38.747 57.8877 38.0295 57.5411C36.9858 57.1767 35.8462 57.4419 34.809 57.7071C34.7067 57.3491 34.6043 56.9912 34.5005 56.6332ZM35.8511 60.6976C35.0768 61.0328 35.0346 62.3279 35.8316 62.6615C36.7374 63.0227 37.7016 62.6045 38.5165 62.1961C38.5392 61.6006 38.5376 61.0051 38.5327 60.4096C37.6414 60.4845 36.6902 60.3218 35.8511 60.6976ZM42.0534 56.2932C42.5518 56.2736 43.0518 56.2704 43.5517 56.2736C43.5322 58.1496 43.6069 60.0273 43.4998 61.9016C44.6912 59.954 46.1278 58.174 47.4086 56.2883C47.9118 56.2736 48.415 56.272 48.9182 56.272C48.9247 58.7972 48.9199 61.3208 48.9199 63.8443C48.4248 63.8443 47.9313 63.8459 47.4362 63.8492C47.4313 61.983 47.4053 60.1166 47.4638 58.2521C46.2626 60.1867 44.8519 61.9781 43.5533 63.8459C43.0582 63.8443 42.5631 63.8459 42.0697 63.8492C42.0486 61.3305 42.0794 58.8118 42.0534 56.2932ZM50.8775 56.2671C51.3515 56.2736 51.8255 56.2769 52.2995 56.2769C52.3011 57.3394 52.2995 58.4002 52.2995 59.4627C53.5088 59.4627 54.7182 59.4643 55.9275 59.4627C55.9324 58.3986 55.921 57.3345 55.934 56.2704C56.4096 56.2753 56.8869 56.2753 57.3641 56.272C57.3755 58.7972 57.3673 61.3224 57.369 63.8476C56.8885 63.8459 56.408 63.8459 55.9291 63.8459C55.9275 62.7672 55.9291 61.6868 55.9275 60.6081C54.7182 60.6065 53.5105 60.6065 52.3011 60.6081C52.2995 61.6867 52.2995 62.7656 52.3011 63.8443C51.8206 63.8459 51.3418 63.8459 50.8613 63.8459C50.8678 61.3208 50.8369 58.7939 50.8775 56.2671Z" fill="#F59624"/>
<path fill-rule="evenodd" clip-rule="evenodd" d="M39.1046 0.0525987C39.9526 -0.201872 40.688 0.533473 41.4327 0.838463C36.2944 3.75926 31.141 6.65012 26.0176 9.59524C23.5957 8.27237 21.2132 6.87839 18.8044 5.53307C19.219 5.0522 19.5417 4.46467 20.0557 4.08483C22.0443 5.17007 24.0028 6.30958 25.9764 7.42102C30.3587 4.97548 34.7185 2.49065 39.1046 0.0525987ZM26.0047 11.7171C23.2395 10.1977 20.523 8.59233 17.7484 7.08796C17.4689 7.63994 17.1856 8.18817 16.9098 8.74015C19.9152 10.4391 22.9205 12.1362 25.9259 13.8352C32.1692 10.3119 38.3976 6.76239 44.6484 3.25219C44.1832 2.79003 43.6766 2.37651 43.157 1.97797C37.4406 5.22808 31.7113 8.45387 26.0047 11.7171ZM25.9484 15.9551C22.7329 14.1027 19.5043 12.2728 16.2626 10.4672C16.0975 11.0903 15.9456 11.7152 15.8105 12.3458C19.1948 14.2562 22.5885 16.1516 25.9672 18.0751C33.0266 14.1177 40.071 10.1322 47.1228 6.15802C46.7627 5.64346 46.3799 5.14762 45.9747 4.66862C39.296 8.42393 32.6418 12.226 25.9484 15.9551ZM25.9278 20.1951C22.4534 18.2304 18.9903 16.2489 15.5122 14.2917C15.2383 18.1892 16.3902 22.1635 18.7239 25.3013C21.9075 29.6928 27.2616 32.3573 32.687 32.3516H32.7883C36.2458 32.3123 39.6976 31.2795 42.5492 29.313C46.2655 26.7963 48.9276 22.7585 49.6798 18.3314C50.3308 14.7296 49.7192 10.9312 47.9877 7.70542C40.6336 11.8686 33.2796 16.0318 25.9278 20.1951Z" fill="#299E30"/>
</g>
<defs>
<clipPath id="clip0">
<rect width="64" height="64" fill="white"/>
</clipPath>
</defs>
</svg>
