<svg width="247" height="443" viewBox="0 0 247 443" fill="none" xmlns="http://www.w3.org/2000/svg">
<g opacity="0.1" clip-path="url(#clip0)">
<path d="M231.901 397.958C204.631 397.958 182.524 420.065 182.524 447.335C182.524 474.606 204.631 496.713 231.901 496.713C259.171 496.713 281.278 474.606 281.278 447.335C281.278 420.065 259.171 397.958 231.901 397.958Z" stroke="#F9593A" stroke-width="6" stroke-miterlimit="10" stroke-linecap="round" stroke-linejoin="round"/>
<path d="M133.146 428.819C122.92 428.819 114.63 437.109 114.63 447.336C114.63 457.562 122.92 465.852 133.146 465.852C143.372 465.852 151.663 457.562 151.663 447.336C151.663 437.109 143.372 428.819 133.146 428.819Z" stroke="#F9593A" stroke-width="6" stroke-miterlimit="10" stroke-linecap="round" stroke-linejoin="round"/>
<path d="M34.3914 413.389C15.643 413.389 0.444443 428.587 0.444443 447.336C0.444443 466.084 15.643 481.283 34.3914 481.283C53.1398 481.283 68.3384 466.084 68.3384 447.336C68.3384 428.587 53.1398 413.389 34.3914 413.389Z" stroke="#F9593A" stroke-width="6" stroke-miterlimit="10" stroke-linecap="round" stroke-linejoin="round"/>
<path d="M99.1991 348.568C99.1991 329.836 114.401 314.634 133.152 314.634C151.891 314.634 167.093 329.836 167.093 348.568C167.093 367.332 151.891 382.528 133.152 382.528C114.395 382.528 99.1991 367.332 99.1991 348.568Z" stroke="#F9593A" stroke-width="6" stroke-miterlimit="10" stroke-linecap="round" stroke-linejoin="round"/>
<path d="M34.3913 330.071C24.1683 330.071 15.8809 338.358 15.8809 348.581C15.8809 358.804 24.1683 367.092 34.3913 367.092C44.6142 367.092 52.9016 358.804 52.9016 348.581C52.9016 338.358 44.6142 330.071 34.3913 330.071Z" stroke="#F9593A" stroke-width="6" stroke-miterlimit="10" stroke-linecap="round" stroke-linejoin="round"/>
<path d="M182.524 52.3167C182.524 25.0604 204.638 2.95166 231.907 2.95166C259.188 2.95166 281.278 25.0604 281.278 52.3167C281.278 79.6101 259.188 101.682 231.907 101.682C204.632 101.682 182.524 79.6101 182.524 52.3167Z" stroke="#5C5F75" stroke-width="6" stroke-miterlimit="10" stroke-linecap="round" stroke-linejoin="round"/>
<path d="M231.907 132.555C221.68 132.555 213.39 140.845 213.39 151.071C213.39 161.298 221.68 169.588 231.907 169.588C242.133 169.588 250.423 161.298 250.423 151.071C250.423 140.845 242.133 132.555 231.907 132.555Z" stroke="#F9593A" stroke-width="6" stroke-miterlimit="10" stroke-linecap="round" stroke-linejoin="round"/>
<path d="M231.907 283.767C213.15 283.767 197.96 268.583 197.96 249.82C197.96 231.081 213.156 215.879 231.907 215.879C250.652 215.879 265.842 231.081 265.842 249.82C265.842 268.583 250.652 283.767 231.907 283.767Z" stroke="#5C5F75" stroke-width="6" stroke-miterlimit="10" stroke-linecap="round" stroke-linejoin="round"/>
<path d="M231.907 330.058C221.68 330.058 213.39 338.349 213.39 348.575C213.39 358.801 221.68 367.092 231.907 367.092C242.133 367.092 250.423 358.801 250.423 348.575C250.423 338.349 242.133 330.058 231.907 330.058Z" stroke="#F9593A" stroke-width="6" stroke-miterlimit="10" stroke-linecap="round" stroke-linejoin="round"/>
</g>
<defs>
<clipPath id="clip0">
<rect width="247" height="443" fill="white" transform="translate(247 443) rotate(-180)"/>
</clipPath>
</defs>
</svg>
