<svg width="247" height="456" viewBox="0 0 247 456" fill="none" xmlns="http://www.w3.org/2000/svg">
<g opacity="0.1" clip-path="url(#clip0)">
<path d="M15.0991 58.042C42.3694 58.042 64.4764 35.935 64.4764 8.66462C64.4764 -18.6058 42.3694 -40.7128 15.0991 -40.7128C-12.1713 -40.7128 -34.2783 -18.6058 -34.2783 8.66462C-34.2783 35.935 -12.1713 58.042 15.0991 58.042Z" stroke="#F9593A" stroke-width="6" stroke-miterlimit="10" stroke-linecap="round" stroke-linejoin="round"/>
<path d="M113.854 27.1806C124.08 27.1806 132.37 18.8905 132.37 8.66411C132.37 -1.56229 124.08 -9.85242 113.854 -9.85242C103.628 -9.85242 95.3374 -1.56229 95.3374 8.66411C95.3374 18.8905 103.628 27.1806 113.854 27.1806Z" stroke="#F9593A" stroke-width="6" stroke-miterlimit="10" stroke-linecap="round" stroke-linejoin="round"/>
<path d="M212.609 42.6113C231.357 42.6113 246.556 27.4127 246.556 8.66436C246.556 -10.084 231.357 -25.2826 212.609 -25.2826C193.86 -25.2826 178.662 -10.084 178.662 8.66436C178.662 27.4127 193.86 42.6113 212.609 42.6113Z" stroke="#F9593A" stroke-width="6" stroke-miterlimit="10" stroke-linecap="round" stroke-linejoin="round"/>
<path d="M147.801 107.432C147.801 126.164 132.599 141.366 113.848 141.366C95.1091 141.366 79.907 126.164 79.907 107.432C79.907 88.6682 95.1091 73.4724 113.848 73.4724C132.605 73.4724 147.801 88.6682 147.801 107.432Z" stroke="#F9593A" stroke-width="6" stroke-miterlimit="10" stroke-linecap="round" stroke-linejoin="round"/>
<path d="M212.609 125.929C222.832 125.929 231.119 117.642 231.119 107.419C231.119 97.1958 222.832 88.9084 212.609 88.9084C202.386 88.9084 194.098 97.1958 194.098 107.419C194.098 117.642 202.386 125.929 212.609 125.929Z" stroke="#F9593A" stroke-width="6" stroke-miterlimit="10" stroke-linecap="round" stroke-linejoin="round"/>
<path d="M113.854 224.696C124.08 224.696 132.37 216.406 132.37 206.18C132.37 195.954 124.08 187.663 113.854 187.663C103.628 187.663 95.3374 195.954 95.3374 206.18C95.3374 216.406 103.628 224.696 113.854 224.696Z" stroke="#F9593A" stroke-width="6" stroke-miterlimit="10" stroke-linecap="round" stroke-linejoin="round"/>
<path d="M64.4764 403.683C64.4764 430.94 42.3616 453.048 15.0929 453.048C-12.1881 453.048 -34.2783 430.94 -34.2783 403.683C-34.2783 376.39 -12.1881 354.318 15.0929 354.318C42.3677 354.318 64.4764 376.39 64.4764 403.683Z" stroke="#5C5F75" stroke-width="6" stroke-miterlimit="10" stroke-linecap="round" stroke-linejoin="round"/>
<path d="M15.0932 323.445C25.3196 323.445 33.6097 315.155 33.6097 304.929C33.6097 294.702 25.3196 286.412 15.0932 286.412C4.8668 286.412 -3.42334 294.702 -3.42334 304.929C-3.42334 315.155 4.8668 323.445 15.0932 323.445Z" stroke="#F9593A" stroke-width="6" stroke-miterlimit="10" stroke-linecap="round" stroke-linejoin="round"/>
<path d="M15.0928 172.233C33.8501 172.233 49.0398 187.417 49.0398 206.18C49.0398 224.919 33.8439 240.121 15.0928 240.121C-3.65207 240.121 -18.8418 224.919 -18.8418 206.18C-18.8418 187.417 -3.65207 172.233 15.0928 172.233Z" stroke="#5C5F75" stroke-width="6" stroke-miterlimit="10" stroke-linecap="round" stroke-linejoin="round"/>
<path d="M15.0932 125.942C25.3196 125.942 33.6097 117.651 33.6097 107.425C33.6097 97.1986 25.3196 88.9084 15.0932 88.9084C4.8668 88.9084 -3.42334 97.1986 -3.42334 107.425C-3.42334 117.651 4.8668 125.942 15.0932 125.942Z" stroke="#F9593A" stroke-width="6" stroke-miterlimit="10" stroke-linecap="round" stroke-linejoin="round"/>
</g>
<defs>
<clipPath id="clip0">
<rect width="247" height="456" fill="white"/>
</clipPath>
</defs>
</svg>
