<svg width="50" height="50" viewBox="0 0 50 50" fill="none" xmlns="http://www.w3.org/2000/svg">
<g clip-path="url(#clip0)">
<path d="M44.5661 4.3457H31.5222C30.9222 4.3457 30.4352 4.83271 30.4352 5.43273C30.4352 6.03275 30.9222 6.51975 31.5222 6.51975H44.5661C45.1661 6.51975 45.6531 6.03275 45.6531 5.43273C45.6531 4.83271 45.1661 4.3457 44.5661 4.3457Z" fill="#F9593A"/>
<path d="M45.3357 4.66594L40.9877 0.317945C40.5638 -0.105982 39.8746 -0.105982 39.4506 0.317945C39.0267 0.741871 39.0267 1.43106 39.4506 1.85498L43.0291 5.43339L39.4485 9.01394C39.0246 9.43787 39.0246 10.1271 39.4485 10.551C39.6616 10.7618 39.9398 10.8684 40.2181 10.8684C40.4964 10.8684 40.7746 10.7619 40.9877 10.551L45.3357 6.20298C45.7596 5.77895 45.7596 5.08987 45.3357 4.66594Z" fill="#F9593A"/>
<path d="M16.3044 4.3457H3.26049C2.66047 4.3457 2.17346 4.83271 2.17346 5.43273C2.17346 6.03275 2.66047 6.51975 3.26049 6.51975H16.3044C16.9044 6.51975 17.3914 6.03275 17.3914 5.43273C17.3914 4.83271 16.9044 4.3457 16.3044 4.3457Z" fill="#F9593A"/>
<path d="M4.79738 5.43339L8.37579 1.85498C8.79972 1.43106 8.79972 0.741871 8.37579 0.317945C7.95187 -0.105982 7.26268 -0.105982 6.83875 0.317945L2.49086 4.66605C2.06693 5.08997 2.06693 5.77916 2.49086 6.20308L6.83886 10.5511C7.05194 10.7619 7.33014 10.8685 7.60845 10.8685C7.88675 10.8685 8.16495 10.762 8.3759 10.5489C8.79982 10.125 8.79982 9.43583 8.3759 9.0119L4.79738 5.43339Z" fill="#F9593A"/>
<path d="M43.479 21.7374C42.5855 21.7374 41.7529 22.0092 41.0615 22.4722C40.4659 20.7809 38.8506 19.5634 36.9571 19.5634C36.0636 19.5634 35.2309 19.8352 34.5396 20.2983C33.9439 18.6069 32.3286 17.3895 30.4351 17.3895C29.6438 17.3895 28.9003 17.6026 28.2612 17.9743V10.8675C28.2612 8.46959 26.3111 6.51953 23.9132 6.51953C21.5153 6.51953 19.5652 8.46959 19.5652 10.8675V29.3464L15.7868 26.5137C13.5477 24.8332 10.3606 25.0572 8.37577 27.0398C7.10399 28.3116 7.10399 30.3791 8.37577 31.6508L23.8567 47.134C25.7046 48.9818 28.1634 49.9992 30.7765 49.9992H35.8702C42.4617 49.9992 47.827 44.6361 47.827 38.0424V26.0854C47.827 23.6874 45.877 21.7374 43.479 21.7374ZM45.6531 38.0423C45.6531 43.4359 41.2638 47.8252 35.8702 47.8252H30.7765C28.7417 47.8252 26.8307 47.0339 25.3938 45.5968L9.91281 30.1138C9.48888 29.6899 9.48888 29.0007 9.91281 28.5768C10.5867 27.905 11.4867 27.5593 12.3912 27.5593C13.126 27.5593 13.8651 27.7876 14.4847 28.2528L20.0001 32.3899C20.3306 32.6377 20.7741 32.6747 21.1393 32.4921C21.5067 32.3073 21.7393 31.9312 21.7393 31.5203V10.8675C21.7393 9.66963 22.7133 8.69358 23.9133 8.69358C25.1133 8.69358 26.0872 9.66974 26.0872 10.8675V27.1724C26.0872 27.7724 26.5742 28.2594 27.1743 28.2594C27.7743 28.2594 28.2613 27.7724 28.2613 27.1724V21.7375C28.2613 20.5396 29.2352 19.5635 30.4352 19.5635C31.6353 19.5635 32.6092 20.5397 32.6092 21.7375V27.1724C32.6092 27.7724 33.0962 28.2594 33.6962 28.2594C34.2962 28.2594 34.7832 27.7724 34.7832 27.1724V23.9114C34.7832 22.7135 35.7571 21.7375 36.9572 21.7375C38.1572 21.7375 39.1311 22.7136 39.1311 23.9114V27.1724C39.1311 27.7724 39.6181 28.2594 40.2182 28.2594C40.8182 28.2594 41.3052 27.7724 41.3052 27.1724V26.0854C41.3052 24.8875 42.2791 23.9114 43.4791 23.9114C44.6792 23.9114 45.6531 24.8876 45.6531 26.0854V38.0423Z" fill="#212121"/>
</g>
<defs>
<clipPath id="clip0">
<rect width="50" height="50" fill="white"/>
</clipPath>
</defs>
</svg>
