<svg width="32" height="32" viewBox="0 0 32 32" fill="none" xmlns="http://www.w3.org/2000/svg">
<path d="M16 15.8C19 15.8 21.4 13.4 21.4 10.4C21.4 7.4 19 5 16 5C13 5 10.6 7.4 10.6 10.4C10.6 13.4 13 15.8 16 15.8ZM16 7C17.9 7 19.4 8.5 19.4 10.4C19.4 12.3 17.9 13.8 16 13.8C14.1 13.8 12.6 12.3 12.6 10.4C12.6 8.5 14.1 7 16 7Z" fill="#F9593A"/>
<path d="M18.2 17.4004H13.8C8.9 17.4004 5 21.4004 5 26.2004C5 26.8004 5.4 27.2004 6 27.2004C6.6 27.2004 7 26.8004 7 26.2004C7 22.4004 10.1 19.4004 13.8 19.4004H18.2C22 19.4004 25 22.5004 25 26.2004C25 26.8004 25.4 27.2004 26 27.2004C26.6 27.2004 27 26.8004 27 26.2004C27 21.4004 23 17.4004 18.2 17.4004Z" fill="#F9593A"/>
</svg>
