<svg id="Слой_1" data-name="Слой 1" xmlns="http://www.w3.org/2000/svg" width="136.01" height="988.07" viewBox="0 0 136.01 988.07"><title>Преимущества</title><path d="M18.68,969.08v-21h101V929.26H1.85v58.31H119.68V969.08Z" style="fill:none;stroke:#fff;stroke-miterlimit:10"/><path d="M1.85,903.22H119.68V884.74H75.41V876q0-13.94-7.41-20.75t-21.72-6.81H31q-14.31,0-21.72,6.81T1.85,876ZM18.68,876A9.09,9.09,0,0,1,21,869.28q2.36-2.35,8.75-2.35H47.47q6.4,0,8.75,2.35T58.58,876v8.74H18.68Z" style="fill:none;stroke:#fff;stroke-miterlimit:10"/><path d="M18.68,808.79V776.86H1.85v50.41H119.68V776.86H102.85v31.92H68.34V783.42H51.51v25.37Z" style="fill:none;stroke:#fff;stroke-miterlimit:10"/><path d="M65.65,718.39l-29-7.56h83V694.19H1.85v20.33L50.5,729.65l25.92,6.72H1.85v16.47H119.68v-19Z" style="fill:none;stroke:#fff;stroke-miterlimit:10"/><path d="M1.85,642.95v25.71H119.68V652.52H36.36l83.33-13.78V621.27L35.18,608.5h84.51V591H1.85v25.71l83.66,12.6Z" style="fill:none;stroke:#fff;stroke-miterlimit:10"/><path d="M1.85,504.16v19.32l40.4,8.4,27.44,4.37L42.08,542,1.85,552v18.31l90.9-25.54,1,.17q6.4,1.18,8.25,5.21t1.35,11.09h16.5a50.74,50.74,0,0,0-1-16,24.39,24.39,0,0,0-5.47-10.59,26.75,26.75,0,0,0-9.76-6.55A82.38,82.38,0,0,0,89.72,524Z" style="fill:none;stroke:#fff;stroke-miterlimit:10"/><path d="M1.85,396.45v18.48h101v16H1.85v18.48h101v16H1.85v18.48H119.68V406.2h15.82v-18H103.19v8.23Z" style="fill:none;stroke:#fff;stroke-miterlimit:10"/><path d="M18.68,347.05V315.13H1.85v50.41H119.68V315.13H102.85v31.92H68.34V321.68H51.51v25.37Z" style="fill:none;stroke:#fff;stroke-miterlimit:10"/><path d="M75.75,255H92.58q6.4,0,8.92,2.6a10.89,10.89,0,0,1,0,13.95q-2.52,2.61-8.92,2.6H28.95q-6.4,0-9-2.6a10.62,10.62,0,0,1,0-13.95q2.61-2.6,9-2.6H41.57V237.5H30.13q-14.31,0-22,7T.5,265.06q0,13.61,7.66,20.58t22,7H91.4q14.31,0,22-7T121,265.06q0-13.61-7.66-20.58t-22-7H75.75Z" style="fill:none;stroke:#fff;stroke-miterlimit:10"/><path d="M18.68,219V199.7h101V181.21h-101V161.89H1.85V219Z" style="fill:none;stroke:#fff;stroke-miterlimit:10"/><path d="M1.85,141.22H119.68V112.16q0-13.95-7.15-21T91.74,84.09h-9.6q-9.43,0-15.91,3.11a18.49,18.49,0,0,0-9.34,10.67,18.18,18.18,0,0,0-8.75-9.07q-5.89-2.85-15-2.86H28.95q-13.64,0-20.37,6.47T1.85,113.33Zm64.81-26.72q0-6.38,3-9.16T81,102.58H91.23q6.57,0,9.09,2.44t2.53,7.14v10.59H66.66Zm-48-.67q0-4.87,2.86-7.14t9.26-2.27h6.57q7.07,0,9.76,2.94t2.69,8.15v7.23H18.68Z" style="fill:none;stroke:#fff;stroke-miterlimit:10"/><path d="M1.85,19.41V46.46L119.68,65.28v-17L98.3,45.11V22.43l21.38-3.19V.59ZM22.72,33.86,82.31,25V42.76Z" style="fill:none;stroke:#fff;stroke-miterlimit:10"/></svg>