<svg id="Objects" xmlns="http://www.w3.org/2000/svg" width="239.21" height="158.52" viewBox="0 0 239.21 158.52"><title>Cam</title><path d="M85.89,101.62c1.25,9.36,3.41,13.79,5.56,16.33a13,13,0,0,0,1.48,1.49h0c.59.51,1.15.92,1.68,1.31l.92.7c.4.32,1.61,1.29,21.81,7.31l.43.13a17.56,17.56,0,0,1-1.49-1.46l0,0c-16.2-4.85-19.54-6.29-20.07-6.71q-.45-.36-1-.72c-2.74-2-6.49-4.77-8.33-18.47-2-14.9,2.85-23.85,8.45-32.44,4.89-7.51,14.89-9.44,15.87-9.61l5.14.89-.1,0,.28-1-5.32-.92-.08,0c-.39.06-8.42,1.37-14.08,7-.27.26-.54.54-.79.83a19.16,19.16,0,0,0-1.76,2.28C88.78,77.27,83.83,86.38,85.89,101.62Zm0,0c1.25,9.36,3.41,13.79,5.56,16.33a13,13,0,0,0,1.48,1.49h0c.59.51,1.15.92,1.68,1.31l.92.7c.4.32,1.61,1.29,21.81,7.31l.43.13a17.56,17.56,0,0,1-1.49-1.46l0,0c-16.2-4.85-19.54-6.29-20.07-6.71q-.45-.36-1-.72c-2.74-2-6.49-4.77-8.33-18.47-2-14.9,2.85-23.85,8.45-32.44,4.89-7.51,14.89-9.44,15.87-9.61l5.14.89-.1,0,.28-1-5.32-.92-.08,0c-.39.06-8.42,1.37-14.08,7-.27.26-.54.54-.79.83a19.16,19.16,0,0,0-1.76,2.28C88.78,77.27,83.83,86.38,85.89,101.62Zm0,0c1.25,9.36,3.41,13.79,5.56,16.33a13,13,0,0,0,1.48,1.49h0c.59.51,1.15.92,1.68,1.31l.92.7c.4.32,1.61,1.29,21.81,7.31l.43.13a17.56,17.56,0,0,1-1.49-1.46l0,0c-16.2-4.85-19.54-6.29-20.07-6.71q-.45-.36-1-.72c-2.74-2-6.49-4.77-8.33-18.47-2-14.9,2.85-23.85,8.45-32.44,4.89-7.51,14.89-9.44,15.87-9.61l5.14.89-.1,0,.28-1-5.32-.92-.08,0c-.39.06-8.42,1.37-14.08,7-.27.26-.54.54-.79.83a19.16,19.16,0,0,0-1.76,2.28C88.78,77.27,83.83,86.38,85.89,101.62Zm0,0c1.25,9.36,3.41,13.79,5.56,16.33a13,13,0,0,0,1.48,1.49h0c.59.51,1.15.92,1.68,1.31l.92.7c.4.32,1.61,1.29,21.81,7.31l.43.13,1.09.33c3.51,1,7.12,2.09,10.57,3.08h0l1.89.56h0l5.44,1.56,5.68,1.62h0l.08,0,6.87,1.93.08,0,.53.15.49.14-.42-1s-.08-.18-.2-.48h0l-.18-.45c-1.48-3.84-6.64-18.9-3.19-34,4.85-21.23,12.44-27.13,19.76-29.17q1.2-.33,2.4-.54h.18c1.51-.28,3-.44,4.4-.6,1.17-.12,2.27-.24,3.33-.42l2.66-.44L178.11,71h0l-1.43-.29h0l-21-4.3h0l-8.87-1.82L145,64.27l-1-.17-11.33-2h0L130,61.66l-2-.35H128l-11.41-2h0l-5.32-.92-.08,0c-.39.06-8.42,1.37-14.08,7-.27.26-.54.54-.79.83a19.16,19.16,0,0,0-1.76,2.28C88.78,77.27,83.83,86.38,85.89,101.62Zm9.44-32.57c4.89-7.51,14.89-9.44,15.87-9.61l5.14.89h0l11.37,2h0l7.49,1.3,2.35.41,3.72.64,2.41.42h0l2.79.48L153.4,67l2.22.46h0l4.27.87,2.26.46h0l11.3,2.32-.3,0a42.11,42.11,0,0,0-6.93,1.15h-.09c-7.5,2.08-15.62,8.18-20.59,29.92-3.51,15.37,1.74,30.68,3.25,34.6L143,135.16h0l-2.13-.61-3.57-1h0l-2.15-.61c-3.27-.94-6.84-2-10.45-3h0l-2.24-.66L118.27,128h0l-.62-.19-1.39-.42h0c-16.2-4.85-19.54-6.29-20.07-6.71q-.45-.36-1-.72c-2.74-2-6.49-4.77-8.33-18.47C84.87,86.6,89.73,77.64,95.32,69.06Zm-9.44,32.57c1.25,9.36,3.41,13.79,5.56,16.33a13,13,0,0,0,1.48,1.49h0c.59.51,1.15.92,1.68,1.31l.92.7c.4.32,1.61,1.29,21.81,7.31l.43.13a17.56,17.56,0,0,1-1.49-1.46l0,0c-16.2-4.85-19.54-6.29-20.07-6.71q-.45-.36-1-.72c-2.74-2-6.49-4.77-8.33-18.47-2-14.9,2.85-23.85,8.45-32.44,4.89-7.51,14.89-9.44,15.87-9.61l5.14.89-.1,0,.28-1-5.32-.92-.08,0c-.39.06-8.42,1.37-14.08,7-.27.26-.54.54-.79.83a19.16,19.16,0,0,0-1.76,2.28C88.78,77.27,83.83,86.38,85.89,101.62Zm0,0c1.25,9.36,3.41,13.79,5.56,16.33a13,13,0,0,0,1.48,1.49h0c.59.51,1.15.92,1.68,1.31l.92.7c.4.32,1.61,1.29,21.81,7.31l.43.13a17.56,17.56,0,0,1-1.49-1.46l0,0c-16.2-4.85-19.54-6.29-20.07-6.71q-.45-.36-1-.72c-2.74-2-6.49-4.77-8.33-18.47-2-14.9,2.85-23.85,8.45-32.44,4.89-7.51,14.89-9.44,15.87-9.61l5.14.89-.1,0,.28-1-5.32-.92-.08,0c-.39.06-8.42,1.37-14.08,7-.27.26-.54.54-.79.83a19.16,19.16,0,0,0-1.76,2.28C88.78,77.27,83.83,86.38,85.89,101.62Zm0,0c1.25,9.36,3.41,13.79,5.56,16.33a13,13,0,0,0,1.48,1.49h0c.59.51,1.15.92,1.68,1.31l.92.7c.4.32,1.61,1.29,21.81,7.31l.43.13a17.56,17.56,0,0,1-1.49-1.46l0,0c-16.2-4.85-19.54-6.29-20.07-6.71q-.45-.36-1-.72c-2.74-2-6.49-4.77-8.33-18.47-2-14.9,2.85-23.85,8.45-32.44,4.89-7.51,14.89-9.44,15.87-9.61l5.14.89-.1,0,.28-1-5.32-.92-.08,0c-.39.06-8.42,1.37-14.08,7-.27.26-.54.54-.79.83a19.16,19.16,0,0,0-1.76,2.28C88.78,77.27,83.83,86.38,85.89,101.62Zm28,2.93c0-.34,0-.67.07-1a45.72,45.72,0,0,1,.68-5.15c0-.26.1-.52.15-.79,0-.06,0-.13,0-.19.34-1.66.74-3.24,1.17-4.73q.15-.5.3-1a50.56,50.56,0,0,1,1.92-5.2c.13-.32.27-.63.41-.93a42.88,42.88,0,0,1,2.49-4.68c.18-.31.37-.61.56-.9a40.47,40.47,0,0,1,2.45-3.42l.73-.87a38.47,38.47,0,0,1,2.89-3l.91-.83c1-.84,1.92-1.59,2.87-2.27.38-.28.76-.54,1.14-.79a34.94,34.94,0,0,1,3.26-1.9c.51-.26,1-.5,1.48-.71a31.47,31.47,0,0,1,4-1.52,21.65,21.65,0,0,1,2.35-.58l.18,1-.11,0h0A26.58,26.58,0,0,0,139,66.53c-.5.21-1,.44-1.59.69A34.26,34.26,0,0,0,134,69.1c-.4.24-.8.5-1.21.77q-1.45,1-3,2.25c-.31.26-.62.53-.94.82a35.69,35.69,0,0,0-3,3c-.24.28-.49.57-.73.87a38.69,38.69,0,0,0-2.51,3.4q-.3.45-.57.9a42.62,42.62,0,0,0-2.52,4.67q-.21.45-.42.93a49.1,49.1,0,0,0-1.94,5.2c-.1.31-.2.63-.29,1-.44,1.49-.84,3.07-1.18,4.73,0,.06,0,.12,0,.18-.06.27-.11.54-.15.8a46,46,0,0,0-.68,5.15c0,.34,0,.68-.07,1a38.51,38.51,0,0,0,.11,5.21c0,.35.06.69.1,1a33,33,0,0,0,.92,4.81c.1.37.21.73.31,1.08h0a30.14,30.14,0,0,0,1.68,4.25c.19.4.39.78.59,1.14h0a27.34,27.34,0,0,0,2.25,3.52q.51.68,1,1.23a20.05,20.05,0,0,0,2.87,2.83h0l.06.05-.58.82a15.17,15.17,0,0,1-1.73-1.53,25.65,25.65,0,0,1-2.19-2.5c-.29-.38-.58-.78-.88-1.21a30.62,30.62,0,0,1-2.07-3.48c-.18-.37-.37-.75-.54-1.14a30.23,30.23,0,0,1-1.56-4.23q-.16-.52-.3-1.08a33.13,33.13,0,0,1-.86-4.8c0-.34-.07-.68-.1-1A38.7,38.7,0,0,1,113.85,104.56Zm12.7,2.67c0-.33,0-.67.07-1a47.79,47.79,0,0,1,.7-5.14c0-.18.06-.36.1-.54l.09-.45c.34-1.66.73-3.23,1.16-4.73.09-.33.19-.65.28-1,.57-1.86,1.19-3.59,1.87-5.21.13-.32.27-.63.41-.94a44.85,44.85,0,0,1,2.38-4.7c.18-.31.37-.61.55-.91.76-1.23,1.55-2.38,2.35-3.43l.69-.88A38,38,0,0,1,140,75.27c.29-.29.59-.58.88-.84a30.85,30.85,0,0,1,2.74-2.3c.36-.28.72-.55,1.08-.8a32.78,32.78,0,0,1,3.11-1.93c.48-.27,1-.51,1.4-.73A30.74,30.74,0,0,1,153.4,67c1.06-.32,1.83-.49,2.2-.56h0v0l.18,1-.2,0h0A24.33,24.33,0,0,0,150.81,69c-.48.21-1,.44-1.5.71a30.8,30.8,0,0,0-3.29,1.9q-.56.36-1.14.78A34.63,34.63,0,0,0,142,74.67c-.31.26-.61.54-.91.83a36.72,36.72,0,0,0-2.84,3.05c-.23.29-.47.58-.7.88a38.76,38.76,0,0,0-2.4,3.42c-.19.3-.37.6-.55.91a42.67,42.67,0,0,0-2.42,4.69c-.14.31-.28.62-.41.94a51.13,51.13,0,0,0-1.89,5.2c-.09.32-.19.64-.28,1-.43,1.5-.82,3.07-1.16,4.73l-.09.44c0,.18-.07.36-.1.54a48.11,48.11,0,0,0-.7,5.14h0c0,.34-.05.67-.07,1a38.91,38.91,0,0,0,0,5.2c0,.35,0,.69.09,1a33.3,33.3,0,0,0,.8,4.78q.12.56.27,1.08a31.31,31.31,0,0,0,1.49,4.21c.17.39.34.78.52,1.14a28.09,28.09,0,0,0,2,3.46q.42.64.84,1.2a22.23,22.23,0,0,0,3.72,4h0l.12.09-.59.81a16.1,16.1,0,0,1-1.69-1.52,27.37,27.37,0,0,1-3-3.69c-.26-.38-.51-.76-.76-1.18h0a28,28,0,0,1-1.83-3.43c-.17-.37-.34-.74-.49-1.13a31.23,31.23,0,0,1-1.39-4.19c-.1-.35-.18-.71-.27-1.08a36.76,36.76,0,0,1-.74-4.77c0-.34-.06-.68-.08-1A41,41,0,0,1,126.54,107.23Zm5.76,1.21c0-.33,0-.67.08-1a51.07,51.07,0,0,1,.74-5.13c0-.06,0-.13,0-.19.05-.27.11-.53.16-.79.35-1.66.75-3.23,1.19-4.73.1-.33.19-.64.29-1a52.38,52.38,0,0,1,1.92-5.2l.41-.94a47.27,47.27,0,0,1,2.46-4.68c.18-.31.37-.61.56-.9a40.55,40.55,0,0,1,2.42-3.43l.71-.87a40.54,40.54,0,0,1,2.84-3c.3-.29.6-.57.9-.83a33,33,0,0,1,2.8-2.29c.37-.28.74-.54,1.11-.79a35.34,35.34,0,0,1,3.18-1.92c.49-.26,1-.5,1.42-.72h0a31.26,31.26,0,0,1,4.36-1.71,21.66,21.66,0,0,1,2.16-.54l.18,1h-.08a26.82,26.82,0,0,0-5.76,1.94l-.74.35h0a34.12,34.12,0,0,0-4,2.3l-.54.37h0a33.48,33.48,0,0,0-3.21,2.54l-.61.55a39.87,39.87,0,0,0-3.42,3.62h0l-.23.28a41.09,41.09,0,0,0-3,4.3h0a48,48,0,0,0-4.85,10.81c-.1.32-.19.64-.29,1q-.76,2.6-1.35,5.5c-4.27,21.45,7.28,31.62,8.82,32.87h0l.16.13-.57.79,0,0-.06,0h0a17.72,17.72,0,0,1-1.64-1.5,27.45,27.45,0,0,1-3.34-4.2q-.36-.56-.72-1.17h0a30.2,30.2,0,0,1-1.73-3.42c-.16-.36-.31-.74-.47-1.12a33.43,33.43,0,0,1-1.3-4.17h0q-.12-.53-.24-1.08a37.1,37.1,0,0,1-.69-4.76c0-.34,0-.68-.06-1A42.92,42.92,0,0,1,132.31,108.43Zm-24-5c0-.33,0-.67.06-1a46.1,46.1,0,0,1,.69-5.15c0-.26.1-.52.15-.79,0-.06,0-.13,0-.19a56.67,56.67,0,0,1,3.36-10.89c.13-.31.27-.63.41-.94a44.72,44.72,0,0,1,2.79-5.26v0l.2-.31a38.59,38.59,0,0,1,3-4.16.62.62,0,0,1,.11-.13,35.65,35.65,0,0,1,7.65-6.88.24.24,0,0,1,.09-.06h0A32.64,32.64,0,0,1,131.56,65l.09,0h0a29.26,29.26,0,0,1,3.62-1.37,19.71,19.71,0,0,1,2.18-.54l.17,1v0a23.34,23.34,0,0,0-4.28,1.29h0c-.5.19-1,.42-1.6.68a34.48,34.48,0,0,0-3.45,1.86h0c-.39.25-.78.5-1.18.78a34.69,34.69,0,0,0-3,2.25c-.31.26-.62.54-.93.83a34,34,0,0,0-2.94,3c-.25.28-.49.57-.73.87a37.32,37.32,0,0,0-2.48,3.41q-.28.44-.57.9A43.65,43.65,0,0,0,114,84.63c-.15.31-.29.62-.42.94a51.2,51.2,0,0,0-1.92,5.19c-.1.32-.19.64-.29,1-.43,1.49-.83,3.07-1.17,4.73,0,.06,0,.13,0,.19,0,.26-.11.53-.15.79a45.69,45.69,0,0,0-.68,5.15c0,.34,0,.68-.07,1a40.42,40.42,0,0,0,.1,5.2c0,.35.07.7.11,1a32.71,32.71,0,0,0,.92,4.81c.1.37.2.73.31,1.08A30.14,30.14,0,0,0,112.4,120c.19.4.39.78.59,1.15a28.68,28.68,0,0,0,2.25,3.53h0c.33.45.66.86,1,1.23h0a23.93,23.93,0,0,0,2,2.11h0a10.65,10.65,0,0,0,.92.77l-.32.46-1.09-.33a17.56,17.56,0,0,1-1.49-1.46l0,0h0c-.48-.52-1-1.13-1.55-1.83-.29-.38-.58-.78-.87-1.21h0a28.28,28.28,0,0,1-2.06-3.48h0c-.18-.37-.37-.75-.54-1.14a31.44,31.44,0,0,1-1.57-4.23c-.1-.35-.2-.71-.29-1.08a33.09,33.09,0,0,1-.86-4.8c0-.34-.07-.68-.1-1A38.87,38.87,0,0,1,108.31,103.39Zm59.11,43.26a49.37,49.37,0,0,0,3.63,6.57,29.81,29.81,0,0,0,1.88,2.6q.25.31.51.6c.2.23.38.43.59.64h0a4,4,0,0,0,2.47,1.44c2.61,0,51.72-8.9,54.33-10.9s6.58-11,7.75-15c1.06-3.72.52-47.1,0-48.78-.13-.47-3.18-11.13-8.21-12.83a3.74,3.74,0,0,0-.93-.21,13.66,13.66,0,0,0-1.47-.06h-1c-.75,0-1.64.06-2.66.12h0c-2.72.14-6.33.41-10.36.77h-.12c-14.74,1.35-35,4-37.69,6.88-3.7,3.91-8.13,12.17-8.78,16.37C166.77,98.88,166.12,143.6,167.43,146.65Zm.32-31.38c0-1.19,0-2.36,0-3.51,0-.61,0-1.21,0-1.8,0-1.91.07-3.73.11-5.4.13-4.94.28-8.59.43-9.56A20.72,20.72,0,0,1,170,90.18c.35-.79.74-1.61,1.16-2.43a40.57,40.57,0,0,1,5.78-8.58c3.23-3.42,40.67-7.48,51.1-7.48.6,0,1.06,0,1.36,0,4.91.53,8.25,12.21,8.29,12.33.39,1.74,1.12,44.3,0,48.23-1.22,4.26-5.18,12.81-7.4,14.51s-50.61,10.7-53.72,10.7a1.5,1.5,0,0,1-.82-.32,3.44,3.44,0,0,1-.56-.44,7.14,7.14,0,0,1-.63-.62c-.21-.22-.42-.46-.64-.73h0a44.73,44.73,0,0,1-5.52-9.13C167.64,144.62,167.57,128.91,167.74,115.27Zm2-13.94c0,.58,0,1.17,0,1.76a.13.13,0,0,0,0,.09c0,.78,0,1.57,0,2.37,0,4,.06,8,.12,11.51,0,.15,0,.29,0,.43s0,.48,0,.72,0,.7,0,1v.16c.46,27.2,1.3,27.66,1.65,27.86a1.27,1.27,0,0,0,.64.11c5.34,0,51-8.36,53.37-9.37.64-.27,2-.84,1.87-29.86-.05-14.19-.42-28.42-.43-28.56v-.36l-.34-.11a4,4,0,0,0-1.09-.09c-5.25,0-47.49,5.75-54.51,8.72-.56.24-.9.46-1,.66a9,9,0,0,0-.19,1.77C169.83,92.46,169.79,96.62,169.79,101.33Zm.94,2.24c0-.62,0-1.23,0-1.83v-2.2c0-.34,0-.67,0-1a77.91,77.91,0,0,1,.34-9.73c2.41-2,46.91-8.78,54.55-8.78h.45c.56,21.31.81,55.3-.9,57.09-2.27,1-47.62,9.25-52.92,9.25h-.07c-.35-1.23-.7-8.14-1-16.78,0-.33,0-.67,0-1-.07-2.44-.14-5-.2-7.61,0-.19,0-.38,0-.57,0-.44,0-.87,0-1.31v-.22C170.83,113.6,170.76,108.27,170.73,103.57ZM137.79,56.89l1,.29a19.23,19.23,0,0,1,3.39,1.32c3.88,2.37,3.17,4.65,2.82,5.75,0,0,0,0,0,0a3.46,3.46,0,0,0-.11.45h-1a1.86,1.86,0,0,1,.13-.62.78.78,0,0,1,0-.15c.33-1,.82-2.64-2.39-4.59a18.62,18.62,0,0,0-3.32-1.27l-1-.3C137.49,57.5,137.64,57.2,137.79,56.89ZM84.45,35.77c0-.25,0-.56.06-.9l1,.25.52.12c2,.47,3.56,4.11,5,7.8.25.67.48,1.26.63,1.59,1.08.77,12.28,3.55,22.17,6,3.32.82,6.68,1.65,9.87,2.46h0q.48.1,1,.24c-.07.35-.15.67-.24,1l-1-.24c-3.24-.82-6.62-1.66-9.88-2.47C96,47.25,91.16,46,90.77,45.13c-.18-.35-.41-1-.71-1.73-.9-2.38-2.59-6.8-4.25-7.18-.1,0-.25.45-.4.4-.31-.07-.7-.67-1.21-.8ZM71.73,31.7l1,.23c0,.34-.06.68-.09,1l-1-.24Zm-44,27,.73-.67a49.4,49.4,0,0,1,9.2-6.23h0l.8-.4h0l.76-.35c3.11-1.35,3.27-9.6,3.35-13.56v-.74c0-1.36,0-2.44.13-3.11.49-3.88,12-4.36,16.43-4.23a44.11,44.11,0,0,1,6.3.9l.41.08.58.11c0,.14,0,.29,0,.43l-.06.58c-.33-.08-.66-.14-1-.2a44.19,44.19,0,0,0-6.23-.9c-5.21-.16-10.95.51-13.72,1.78a4.13,4.13,0,0,0-1.21.77h0a1.41,1.41,0,0,0-.46.81c-.08.61-.1,1.72-.13,3v.74c-.13,6.67-.7,13.05-3.95,14.46-4.76,2.07-13.91,8.37-13.91,11.56v4.79l-1,.16v-5C24.69,62.15,25.9,60.45,27.68,58.74Zm-2,11.31-1,.14v-1l1-.14Zm29,51.19,1.91.58h0c6.92,2.1,14.63,4.5,21.86,6.77,13.93,4.35,27.09,8.46,28.51,8.46,2.42,0,17.19-3.48,22.41-4.74h0l1.82-.44.23,1-.14,0h0c-2.09.52-21.35,5.18-24.31,5.18-1.5,0-11.92-3.23-28.81-8.51-7.85-2.45-16.26-5.08-23.62-7.29l-1.94-.59Zm-24.09-6.8c.67.21,1.42.44,2.28.69l-2.34.33h0c-.82-.26-1.52-.5-2.13-.71Zm-5-31.72v1l-1,.13v-1ZM43.31,36.35c4.73.6,21,3.14,22,4.46A22.58,22.58,0,0,1,67,43.65c1.18,2.29,3.15,6.11,4.24,6.47.48.16,2.14.57,4.24,1.09,12.41,3.07,16.3,4.3,16.65,5.28.47,1.27.71,6.31.78,7.83L97,65.4l.28.07-.25,1-.82-.21-3.76-1-.59-.15,0-.38c0-.08,0-.17,0-.26a53.25,53.25,0,0,0-.69-7.59c-.78-.94-11.43-3.58-16-4.7-2.21-.55-3.8-.94-4.32-1.11-1.37-.46-2.92-3.3-4.81-7a25.19,25.19,0,0,0-1.47-2.66c-.86-.76-12-2.93-21.4-4.12ZM37.85,32c2.84-5.4,7.33-9,12.2-9.82h0q.62-.1,1.23-.15a19.38,19.38,0,0,1,3.15,0,15.33,15.33,0,0,1,11.2,6.25c.35.47.63.9.85,1.26l-.09.94c0,.14,0,.29,0,.43l-.22.09a6.81,6.81,0,0,0-.31-.63c-.09-.17-.21-.36-.35-.58h0c-1.48-2.38-5.66-7.42-14.11-6.77-5,.37-9.71,3.9-12.63,9.44-3.29,6.25-3.38,13.49-.23,18.89l-.07,0h0l-.78.45s0,0,0,0h0C34.31,46.15,34.41,38.56,37.85,32Zm-1-12.2,0-1c.29,0,12,2.17,18.45,3.35l-1.11.8C47.54,21.75,37.36,19.89,36.89,19.84ZM20.33,35.11c.67-7.25,4.12-11.19,6.89-13.23,3.7-2.71,8-3.42,9.82-3l-.21,1c-1.39-.3-5.45.24-9,2.86-3.79,2.78-6,7-6.49,12.51-1.39,15,7.31,23.11,7.4,23.19l-.67.74C28,59,18.89,50.58,20.33,35.11Zm5.61,21.29-.07.49c-.08,0-.9-.05-8.53-.12C8.76,56.71,4,46.71,3.85,37.35s4.3-17.43,11-20.3,26.62-3,30.91-1.66a4.07,4.07,0,0,1,2.7,2.17,4.75,4.75,0,0,1-.12,3.58l-.91-.42A3.76,3.76,0,0,0,47.58,18a3.13,3.13,0,0,0-2.09-1.62C41.42,15.07,21.77,15.21,15.28,18S4.72,28.46,4.85,37.33,9.41,55.71,17.36,55.78c5.53,0,7.69.07,8.53.19v0c.54.08.54.2.56.4L26,56.9Zm18-23.46.24,0h0c2,.43,16.28,3.39,20.53,4.2,1.5.29,4.59,2.09,8.39,10.89l.16.35c.67,1.49,32.27,9.07,32.58,9.12a1.82,1.82,0,0,0,.34,0,17.08,17.08,0,0,0,4.8-1.35c1.31.29,9.75,2,12.5-.13a3.61,3.61,0,0,0,.93-1.79c.09-.3.17-.62.24-1,.75-3.64.79-9.71.75-12.75-.07-5-.55-14.84-1.93-15.88a23.06,23.06,0,0,0-3.48-1l-1.06-.26c-3.2-.77-7.62-1.73-11.66-2.5A102.3,102.3,0,0,0,92,18.9C84.37,17.77,77.89,17.17,76.2,18c-2.87,1.47-4,8.33-4.48,13.66l-.09,1c-.11,1.63-.17,3-.19,4,0,.65,0,1.11,0,1.35v.29l.25.14c.18.11.73.42,13.35-1.84l.39-.07,0-.39a.42.42,0,0,1,0-.11c0-.33,0-.66.07-1,.52-7,1.66-14.27,2.8-14.82a8.46,8.46,0,0,1,3.52-.41c10.69,1.59,24.19,4.23,31.1,5.69.89,1.08,1.78,12.51,1.35,21.61a40.59,40.59,0,0,1-.61,5.9h0c-.08.39-.15.71-.23,1a2.56,2.56,0,0,1-.6,1.25c-2.11,1.66-9.24.49-11.81-.1l-.16,0-.15.06c-1.38.58-3.89,1.47-4.74,1.32-1.77-.29-30-7.45-31.87-8.63L74,47.69c-3-7-6.11-10.9-9.12-11.48-3.8-.73-15.62-3.18-19.51-4L44.1,32ZM88,19.35l-.1,0c-2,1-3,11.3-3.35,15.47,0,.34,0,.65-.06.9l-.26,0h0c-5,.88-10.27,1.73-11.76,1.81,0-1.24.08-2.88.22-4.69,0-.33,0-.67.09-1,.47-5.41,1.58-11.8,3.93-13C77.85,18.32,82.23,18.61,88,19.35ZM65,34.32c0-.47.13-1.53.28-3,0-.31.07-.65.1-1l.06-.5h0c0-.48.11-1,.17-1.5,1-8.7,3.29-23.51,7.22-24.81a17.62,17.62,0,0,1,4.64-.23l1.22.05h0C91.29,4,119,7.92,127.65,9.18l1,.15,1.57.23L150,12.38c.34,0,2,.06,4.55.21l1.08.07c12.49.82,41.26,3.82,42.42,14.18.65,5.71.91,10.35-1.93,13.71-2.65,3.16-7.77,4.87-16.09,5.36-15.18.91-29.69-2.8-35.54-4.41l-.3-.08-.69-.19-1.11-.3c-.12.51-.28,1.61-.43,2.69-.53,3.72-1.35,9.5-3.23,13.56-.14.32-.29.62-.45.91a6.85,6.85,0,0,1-3.72,3.59,14.09,14.09,0,0,1-1.94.44h0a21.2,21.2,0,0,1-3.24.23c-.53,0-1.06,0-1.59,0h0a56.87,56.87,0,0,1-11.37-2h0l-.1,0,.28-1h0a57.92,57.92,0,0,0,11.41,2H128a18.54,18.54,0,0,0,6.24-.58,5.72,5.72,0,0,0,3-2.94c.16-.29.31-.59.46-.9,1.86-4,2.71-10,3.2-13.41a20.8,20.8,0,0,1,.54-3.09c.14-.43.31-.53.6-.53a1.15,1.15,0,0,1,.27,0h0c.19,0,.48.12,1,.27l.4.1,1,.28h0c5.84,1.6,20.19,5.26,35.17,4.37,8-.48,12.92-2.08,15.39-5s2.34-7.31,1.7-13a5.09,5.09,0,0,0-.68-2,5.75,5.75,0,0,0-.63-.92c-6-7.5-31.23-9.79-41.48-10.43l-2.62-.15L150,13.37h-.08l-2.26-.32-17.61-2.51-2-.29-2.46-.36c-18.72-2.71-48.8-6.64-52.45-5.43-3.06,1-5.48,14.21-6.69,25.13l-.09.94c0,.14,0,.29,0,.43l-.06.58c-.08.82-.15,1.62-.22,2.39a9.58,9.58,0,0,1,5.37,2.82,9.3,9.3,0,0,1,.88,1.06l-.81.58a1.14,1.14,0,0,0-.1-.13,8.7,8.7,0,0,0-5.91-3.4l-.51,0Zm66,97.48M4,127.74c.37.3,1.24.7,4.49.7.93,0,2,0,3.18-.1h.06c10.5-.57,30-3.47,42.84-6.09l2-.43h0c5.82-1.24,9.86-2.38,10.36-3.13a6.37,6.37,0,0,0,1.19-4.32,2.49,2.49,0,0,1,.06-1c.4-1,0-29.62-.14-38.35a17.27,17.27,0,0,0-.39-6.77,5.08,5.08,0,0,0-.92-1.69l-.13-.13a3.06,3.06,0,0,0-2.34-1h-.15l-2.86.18h0c-6.43.45-22.43,1.66-35.64,3.39l-1,.14A126.66,126.66,0,0,0,11,71.6h0c-2.66.69-4.48,1.41-5.08,2.18a.37.37,0,0,0-.05.08C2,79.2,2.26,126.31,4,127.74ZM6.64,74.39c.55-.7,2.47-1.38,5.3-2h0c.5-.12,1-.24,1.59-.35,3.07-.64,6.93-1.25,11.15-1.81l1-.14c15.37-2,35-3.47,38.55-3.6h.11a2.15,2.15,0,0,1,1.72.77c1.84,2.13,1.07,7.69,1.06,7.74.22,14.72.46,36.92.19,38.1a3.34,3.34,0,0,0-.11,1.36,5.4,5.4,0,0,1-1,3.72c-.55.65-5.08,1.82-11.45,3.1l-2.08.42h0c-12.57,2.43-30.8,5.15-41,5.68-.38,0-.74,0-1.09,0-.75,0-1.44,0-2.08,0-3,0-3.68-.33-3.86-.47C3.31,124.88,3.48,78.41,6.64,74.39Zm14.13,42.46,9.81-1.39h0l2.34-.33,25.6-3.61V78.44L25.69,82.73l-1,.13-3.4.44Zm1-1.16.49-31.52,2.41-.31,1-.13,31.84-4.15v31.07l-26.88,3.79-2.2.31Zm118.13-94c2.49-5.46,5.42-7.74,7.76-8.64a7.12,7.12,0,0,1,4.22-.41l0,.18-.17.62-.05.17a5.28,5.28,0,0,0-2.09,0h0c-2.21.37-5.76,2-8.7,8.5a17.61,17.61,0,0,0,1.58,17.8h0l.11.14-.77.64-.22-.29A18.62,18.62,0,0,1,139.91,21.69Zm2.61.44c5-11.17,11.7-9.37,12-9.29l-.28,1c-.06,0-6.19-1.65-10.79,8.73A18.47,18.47,0,0,0,145.14,41l-.77.63A19.48,19.48,0,0,1,142.52,22.13Zm23.71,50.64s34-5.14,37.17-5.12,23.81,3.22,23.81,3.22Zm0-.5h0c.79-.12,5-.76,10.42-1.55h0c10.26-1.52,24.59-3.57,26.71-3.57h0c3.19,0,26.16,3.72,27.14,3.87l-.15-.05,0,.23-.07.5-2.84-.43h0l-3-.44h0c-7.26-1-18.82-2.67-20.94-2.68h0c-2.55,0-24.18,3.19-33.18,4.53h-.09l-3.81.59h0l-.07-.48-.08-.49h0Zm-16.87,63.64v.51l.06.06h0l.33-.06.07,0a3,3,0,0,0,.21.55c1.27,3,8.06,15.32,11,16.23,2.46.76,8.32,2,11.88,2.65l1.58.31-.31-.06a.69.69,0,0,1,.57.67l-.14.44h1.07l0,.18-1.62-.3h0c-3.24-.63-10.4-2-13.27-2.93-3.24-1-9.36-11.87-11.33-16.12a6.49,6.49,0,0,1-.62-1.65ZM9.52,87.48c.08-3.05.14-5.46.14-6.69a14.27,14.27,0,0,1,2.28-8.43h0a5.67,5.67,0,0,1,1-1.19l.63.78-.07.06c-.44.42-2.88,3-2.88,8.78,0,1.24-.06,3.66-.14,6.71-.27,10.6-1,38.74,1.17,39.85l.07,1h-.06a1,1,0,0,1-.69-.29,1.92,1.92,0,0,1-.41-.66C8.77,123.24,9.07,104.74,9.52,87.48ZM5.85,73.78c1.29-2.42,7.61-4.51,18.84-6.26.33-.06.66-.11,1-.15q6.7-1,15.62-1.86l1-.09q6-.55,12.89-1l2.15-.16c2.49-.27,6.16,1,6.91,1.23l.13,0-.34.93a26.42,26.42,0,0,0-2.71-.79h0a12.61,12.61,0,0,0-3.88-.42l-2.18.17c-12.89.9-22.48,1.92-29.58,3l-1,.16A76,76,0,0,0,11,71.6h0c-2.62,1-3.83,1.88-4.23,2.7l-.9-.44A.37.37,0,0,1,5.85,73.78ZM1.87,46c-4.5-10,.5-22.54,1-23.64.14-.86,1.83-7.54,19-8.76,17.92-1.27,23.69,1.5,24.67,2.08l-.5.86c-.57-.33-6.09-3.22-24.09-1.94-17.07,1.21-18.13,7.89-18.14,8l0,.14c-.05.13-5.42,13-1,22.89,2,4.51,5.82,7.72,11.26,9.55l-.32.95C8,54.17,4,50.77,1.87,46ZM190.51,97l-1.78.23-1.93.25-1.84.23-10.4,1.33h0l-1.2.16-.57.07-1.29.17-.76.09-.36.05-.13-1,.5-.06,2.24-.29,1.18-.15,1.43-.18h0l.82-.1,6.08-.78,2.59-.33,1.54-.2,2.26-.29,20.44-2.61v29.79l-38.11,6.21-.45.07-.16-1,.58-.1,9.53-1.55,9.36-1.53,18.25-3V94.73ZM154.43,12.87c.28-.47,1-2,.71-2.79a.65.65,0,0,0-.44-.41C152.53,9,84.81,1,81,1H81a16.9,16.9,0,0,0-2.79,3.12l-.8-.59C77.58,3.2,79.54.56,80.57,0c1.49-.75,73.92,8.5,74.46,8.69a1.66,1.66,0,0,1,1,1c.5,1.36-.65,3.41-.78,3.64ZM130.76,5.53l.08.07c.29.27.13.18-.13.07l0-.08ZM121,12.1c.38-.76,2.67-1.6,4.66-2.21.74-.22,1.44-.41,2-.56a.85.85,0,0,1,0-.15,7.19,7.19,0,0,1,1.24-2.88,2.21,2.21,0,0,1,.71-.63,1.27,1.27,0,0,1,.45-.16h0a.68.68,0,0,1,.33,0l.29.12-.28.8h-.09a.46.46,0,0,0-.3.11c-.32.2-.91.83-1.39,2.75,0,.16-.08.34-.12.52l-.06.3-.3.08-.07,0c-2.77.71-5.91,1.8-6.22,2.3-.55,1.09-2.68,7.9-1.91,11.17,0,.18.1.34.16.5l-.94.36a5.27,5.27,0,0,1-.28-1.12C118.32,19.61,120.52,13,121,12.1ZM82.1,80.39c2.77-10.06,8.56-15,9.76-15.92l.22-.16.58.81-.18.14c-1.08.87-6.75,5.73-9.41,15.4C79.94,92,81.27,107,86.26,116.36L91.44,118l1.89.58-.29,1-.11,0h0l-7.35-2.25-.1-.18C80.31,107.48,78.89,92.07,82.1,80.39ZM42.73,55.93c.71-.21,4,.6,13,3,4.46,1.19,9.08,2.42,9.83,2.42a1.33,1.33,0,0,1,1,.43c1.27,1.3,1.26,5.68,1.25,6.49v.08l-1,0c0-.54,0-1.2,0-1.88-.1-1.64-.37-3.41-.91-4a.35.35,0,0,0-.24-.13c-.83,0-4.36-.93-10.09-2.46-4.91-1.31-11.64-3.12-12.38-3-.54.47-.82,4.7-.76,8.56,0,.17,0,.35,0,.52l-1,0v-.45C41.23,61.25,41.43,56.32,42.73,55.93Zm127.08,47.25c0,.78,0,1.57,0,2.37a13.64,13.64,0,0,1,.92-2c0-.62,0-1.23,0-1.83v-.06c-.12.18-.24.35-.35.54l-.06.09C170.14,102.6,170,102.88,169.81,103.18Zm3-3.9.57-.07,1.2-.16h0a15.47,15.47,0,0,1,1.86-1.24l-.82.1h0l-1.43.18A15.4,15.4,0,0,0,172.77,99.28Zm-3.14,19.55.33.58a15,15,0,0,0,1,1.57,15.22,15.22,0,0,0,9.73,6.06,13.84,13.84,0,0,0,2.43.21,14.58,14.58,0,0,0,6.93-1.74,16.47,16.47,0,0,0,.43-28.5,17.59,17.59,0,0,0-1.62-.8l-2.26.29a13.8,13.8,0,0,1,2.1.74,15.13,15.13,0,0,1,8.78,13.91c0,8.33-6.44,15.1-14.36,15.1a13.85,13.85,0,0,1-9.23-3.55,14.6,14.6,0,0,1-3-3.6,6.77,6.77,0,0,1-.41-.75h0a11.54,11.54,0,0,1-.59-1.28c0,.15,0,.29,0,.43s0,.48,0,.72,0,.7,0,1C169.85,119.12,169.74,119,169.64,118.83Zm-1.85-7.68c0,.2,0,.41,0,.61,0-.61,0-1.21,0-1.8A11.7,11.7,0,0,0,167.78,111.15Zm2-9.82c0,.58,0,1.17,0,1.76q.24-.41.51-.78l.06-.09c.11-.17.23-.33.35-.48v-1.53A12.7,12.7,0,0,0,169.79,101.33Zm1.69-1.88,1.29-.17.57-.07a12.18,12.18,0,0,1,2.24-1.29l-1.43.18-1.18.15A13.09,13.09,0,0,0,171.48,99.45Zm-1.55,18c0,.24,0,.48,0,.72s0,.7,0,1a11,11,0,0,0,1,1.16,13.28,13.28,0,0,0,2.94,2.29,12.91,12.91,0,0,0,6.59,1.79c7.53,0,13.66-6.42,13.66-14.31a14.39,14.39,0,0,0-7.37-12.69,12,12,0,0,0-1.71-.79l-2.59.33a12.06,12.06,0,0,1,2.46.69,13.33,13.33,0,0,1,8.21,12.46c0,7.34-5.68,13.31-12.66,13.31a12.35,12.35,0,0,1-9.56-4.61c-.15-.17-.28-.35-.41-.53h0C170.31,118.07,170.12,117.78,169.94,117.49Zm-3.08-7.31a15,15,0,0,0,.89,5.09c0-1.19,0-2.36,0-3.51,0-.61,0-1.21,0-1.8,0-1.91.07-3.73.11-5.4A15,15,0,0,0,166.85,110.18ZM178.69,26.3a3.15,3.15,0,0,1-.88-.6c-1.17-1-3.61-3.19-32.54-7.09l.13-1c29.23,3.94,31.73,6.14,33.07,7.33a2.21,2.21,0,0,0,.62.44c1.38.6,11.46-.59,17.49-1.48l.15,1c-1.34.2-11.24,1.64-15.89,1.64A6.47,6.47,0,0,1,178.69,26.3Zm19.6,6s-13.52,2.75-19.6,2.55c-13.17-.43-37.4-5.34-37.4-5.34m-50.89-10c-.25-14.5,7.13-12.56,7.38-14s2.75-3,2.75-3M12.86,83.29c-.08-6.74.48-7.8,2-9,2.28-1.77,48.33-6,48.33-6m86,.32,1.63.34,4.73,1h0l1,.2-.11.49-.74.35h0l-1.54-.32-4.81-1-1.53-.32C148.26,69.12,148.73,68.88,149.18,68.66ZM131.56,65V65l.08,0h0l1.69.36h0l4,.84,1.68.35c-.5.21-1,.44-1.59.69l-1.57-.33L131.74,66l-.39-.08Zm13.11,6.3,1.35.29,4.92,1,.86.18-.11.52-.54.37h0l-1.31-.28-5-1-1.29-.27C143.94,71.85,144.31,71.57,144.66,71.32Zm-17.84-3.66,0-.08.07,0h0l1.36.28h0l4.33.91,1.4.3c-.4.24-.8.5-1.21.77l-1.33-.28-4.38-.92-.46-.1Zm14,6.76,1.2.25,5,1.05,1,.2-.07.33-.61.55-1.19-.25-5-1.05L140,75.27C140.26,75,140.56,74.68,140.85,74.42ZM123,70.68l1.11.23,4.46.94,1.23.26c-.31.26-.62.53-.94.82l-1.2-.25-4.48-.94-.38-.08Zm14.15,7.64,1.1.23,5,1,.75.16-.14.66h0l-.23.28-1.09-.24-5-1-1.09-.23Zm-18.13-3.65,0-.15.08,0,1.11.23,4.53,1,1.11.24c-.24.28-.49.57-.73.87l-1.11-.24-4.53-1-.67-.14Zm15.09,8,1,.22,5,1,.69.14-.21,1h0l-1-.22-5-1-1-.22C133.78,83.23,134,82.93,134.15,82.63Zm-18.34-3.47v0l.07-.34.13,0,1,.22,4.56,1,1,.22q-.3.45-.57.9l-1-.22-4.57-1-.81-.17Zm15.41,9.08,1,.21,4.91,1,.6.13-.2,1-.81-.17-4.91-1-1-.21C130.94,88.86,131.08,88.56,131.23,88.24ZM113,84.42l1,.21,4.55,1,1,.21q-.21.45-.42.93l-1-.21-4.56-1-1-.21C112.74,85.06,112.89,84.73,113,84.42Zm15.92,10,1,.2,4.88,1,1,.21c-.1.32-.19.64-.29,1l-1-.21-4.87-1-1-.21C128.76,95,128.85,94.7,128.94,94.39Zm-18-3.79.78.16,4.56,1,1,.21c-.1.31-.2.63-.29,1l-1-.21-4.55-1-.7-.15Zm16.5,9.93.09-.45,1,.21,4.84,1,.69.14-.21,1-.68-.14-4.83-1-1-.2C127.35,100.89,127.37,100.71,127.41,100.53Zm-18.2-4.09c0-.06,0-.13,0-.19l1,.21,4.55,1,1,.21c0,.06,0,.12,0,.18-.06.27-.11.54-.15.8l-1-.21-4.55-1-1-.21C109.1,97,109.16,96.71,109.22,96.44Zm18.38,10h0l4.79,1,.66.14-.21,1-.53-.11-4.78-1-1-.2c0-.33,0-.67.07-1Zm-19.22-4,1,.21,4.55.95,1,.21c0,.34,0,.68-.07,1l-1-.21-4.55-1-1-.21C108.32,103.06,108.35,102.73,108.37,102.38Zm23.89,11.23.78.16-.21,1-.51-.11-4.68-1-1-.22c0-.34-.06-.68-.08-1l1,.22Zm-22.87-4.81,4.51.95,1,.22c0,.35.06.69.1,1l-1-.22-4.5-.94-1-.22c0-.34-.07-.68-.1-1ZM133,119.39l1,.21-.21,1-.55-.11-4.54-1-1.09-.23c-.1-.35-.18-.71-.27-1.08l1.09.23Zm-22.59-4.74,4.44.93,1.09.23c.1.37.21.73.31,1.08l-1.1-.23-4.43-.93-1.11-.23c-.1-.35-.2-.71-.29-1.08Zm24.14,10,1,.2-.21,1-.28-.06-4.31-.9-1.22-.26c-.17-.37-.34-.74-.49-1.13l1.19.25ZM112.4,120l4.32.91,1.22.26c.19.4.39.78.59,1.14l-1.27-.26-4.27-.9-1.25-.26h0c-.18-.37-.37-.75-.54-1.14Zm24.36,9.2,1,.2-.2,1h0l-4-.83-1.44-.3c-.26-.38-.51-.76-.76-1.18l1.36.28Zm-21.52-4.52h0l4.08.85,1.45.31q.51.68,1,1.23l-1.56-.33-4-.83h0l-1.54-.33c-.29-.38-.58-.78-.87-1.21Zm-9.47-16.88a49.16,49.16,0,0,1,11.92-35.26m24.21,57.16c-7.06-8.32-6-20.75-6-20.75M104.8,78.5c1.05.34,1.41,2.16.8,4.07s-2,3.18-3,2.84-1.41-2.16-.8-4.07S103.75,78.16,104.8,78.5ZM100.69,94c1.11.06,1.92,1.72,1.82,3.73s-1.08,3.58-2.19,3.52-1.92-1.73-1.82-3.73S99.58,94,100.69,94ZM60.34,45.27c-1.78.08-15.25-1.37-14-4.41.27-.64,14,2.47,14,2.47C61,43.47,61.43,45.22,60.34,45.27ZM55.09,84.8l.37,23.81L29.9,112.24M76.71,47.49l10.44-2.22M12.85,86.93,12.5,104.3m0,4.75L12.85,123M32.93,85.46,52.65,98.37m0,5.93-14-9.44m-4.67-2.95-8.76-5.8m45.76-23s1.33,51,.92,53.37m44.92-104L96.36,9.7m27.17,3.68L134.77,15M90.39,8.7,78.11,7.78M44.94,28.45c2.75-4.25,10-4.08,10-4.08M163.59,108.6s.06-6.62.41-13.85,9.36-17.92,9.36-17.92m-9.77,36.38v16" style="fill:#ffbba5"/></svg>