<svg id="Слой_1" data-name="Слой 1" xmlns="http://www.w3.org/2000/svg" width="215.77" height="45" viewBox="0 0 215.77 45"><title>logo</title><path d="M164.69,17.22c-2.06,9-9.73,12.78-16.13,12a14.62,14.62,0,0,1-.19-29c6.21-.91,14.13,2.66,16.35,12a15,15,0,0,1,7.84-10.51A14.13,14.13,0,0,1,182.33.34a14.68,14.68,0,0,1,11.51,15.29c-.26,6.79-5.66,12.55-12.84,13.54C174.62,30,166.8,26.29,164.69,17.22ZM150.16,27.86A13.21,13.21,0,1,0,137,14.58,13.23,13.23,0,0,0,150.16,27.86Zm29.14,0a13.21,13.21,0,1,0-13.22-13.18A13.23,13.23,0,0,0,179.3,27.86Z" style="fill:#000"/><path d="M39.28,27.14,51,.58l.19.06v32.9l-1.46.08V8.11L49.38,8,39.27,30.93,29.17,8.06l-.27,0V33.56H27.36V.61l.14-.06Z" style="fill:#000"/><path d="M198.88,33.69V44.82h-1.35V.17c6.74-1,16.43,3.69,18,14.07C217.21,25,208.89,33.5,198.88,33.69ZM199,1.54V32.1a15.11,15.11,0,0,0,15.19-15.34C214.15,6.73,205.51,1.16,199,1.54Z" style="fill:#000"/><path d="M83.94,14.69A14.64,14.64,0,1,1,69.34,0,14.58,14.58,0,0,1,83.94,14.69ZM69.34,27.86A13.21,13.21,0,1,0,56.16,14.64,13.23,13.23,0,0,0,69.34,27.86Z" style="fill:#000"/><path d="M131.1,24.13c.19.16.35.28.49.42s.32.35.48.53a14.36,14.36,0,0,1-20.13.2,14.27,14.27,0,0,1-.39-20.86c5.72-5.75,15.15-5.89,20.54-.22l-1,1A13.17,13.17,0,0,0,120.58,1.5,12.72,12.72,0,0,0,112.08,6a13,13,0,0,0,.46,17.93C117.37,28.86,125.3,29.4,131.1,24.13Z" style="fill:#000"/><path d="M100.6,4.09l-1.7.31a4,4,0,0,0-4-2.95,3.75,3.75,0,0,0-3.45,2.36,3.27,3.27,0,0,0,1,3.92c1.48,1.14,3.14,2,4.66,3.12a30.72,30.72,0,0,1,4.63,3.55,8.49,8.49,0,0,1,1.19,9.83,8.85,8.85,0,0,1-8.83,5,8.59,8.59,0,0,1-7.78-5.81c-.14-.4-.24-.83-.39-1.36l1.46-.28a7.59,7.59,0,0,0,13.94,2.35,7.07,7.07,0,0,0-.65-8.47,28.86,28.86,0,0,0-4.54-3.45,53.84,53.84,0,0,1-4.67-3.11,5,5,0,0,1-.23-7.45A5.47,5.47,0,0,1,99,1.59,16.91,16.91,0,0,1,100.6,4.09Z" style="fill:#000"/><path d="M1.47,44.83H0V.12H12.1v1.3H1.54v7.2H8.25L8.32,10H1.47Z" style="fill:#000"/><path d="M21.29.08h1.58c0,.53,0,1,0,1.47,0,8.79,0,17.59,0,26.38A15.22,15.22,0,0,0,34.74,43.09c1,.24,2.12.32,3.27.49L38.09,45a42.34,42.34,0,0,1-4.38-.73A16.79,16.79,0,0,1,21.3,28.08c0-9,0-18,0-27C21.29.79,21.29.48,21.29.08Z" style="fill:#000"/><path d="M15.86,8.51h1.3v25l-1.3.07Z" style="fill:#000"/><path d="M15.87.07h1.32V3.74H15.87Z" style="fill:#000"/><path d="M162.14,14.74A12,12,0,1,1,150.25,2.68,12,12,0,0,1,162.14,14.74ZM153,6.79a3,3,0,0,0-3.09-3,3,3,0,0,0,.08,6A3,3,0,0,0,153,6.79Zm7.57,5.65a3,3,0,1,0-3,3A3,3,0,0,0,160.61,12.45Zm-18-2.86a3,3,0,1,0,3,3A3,3,0,0,0,142.59,9.59ZM148.71,21a3,3,0,0,0-3.1-3,3,3,0,0,0,.09,6A3,3,0,0,0,148.71,21Zm6,3.28a3.08,3.08,0,0,0,3.1-3,3,3,0,0,0-2.92-3,3,3,0,0,0-3.13,2.92A3,3,0,0,0,154.69,24.24Zm-4.54-11.15a1.57,1.57,0,0,0-1.56,1.63,1.55,1.55,0,0,0,1.55,1.53,1.58,1.58,0,1,0,0-3.16Z" style="fill:#000"/><path d="M191.18,14.7a12,12,0,1,1-11.93-12A12,12,0,0,1,191.18,14.7Zm-9.11-7.83a3,3,0,0,0-3-3.05,3,3,0,0,0-.08,6A3,3,0,0,0,182.07,6.87Zm7.57,5.61a3,3,0,1,0-3.06,3A3,3,0,0,0,189.65,12.49Zm-15,.07a3,3,0,1,0-3,3.06A3,3,0,0,0,174.65,12.56Zm3.1,8.5a3,3,0,0,0-3-3.06,3,3,0,0,0-.09,6A3,3,0,0,0,177.75,21.05Zm6,3.19a3.08,3.08,0,0,0,3-3.06,3,3,0,0,0-3.1-3,3,3,0,0,0-2.94,3A3,3,0,0,0,183.8,24.24Zm-4.68-8a1.63,1.63,0,0,0,1.69-1.52,1.53,1.53,0,0,0-1.43-1.63,1.57,1.57,0,0,0-1.74,1.43A1.64,1.64,0,0,0,179.11,16.26Z" style="fill:#000"/></svg>