<svg width="48" height="48" viewBox="0 0 48 48" fill="none" xmlns="http://www.w3.org/2000/svg">
<path d="M25.5 1.5H22.5C15.0442 1.5 9 7.54416 9 15V33C9 40.4558 15.0442 46.5 22.5 46.5H25.5C32.9558 46.5 39 40.4558 39 33V15C39 7.54416 32.9558 1.5 25.5 1.5Z" stroke="white" stroke-linecap="round" stroke-linejoin="round"/>
<path d="M27 15C27 15.7956 26.6839 16.5587 26.1213 17.1213C25.5587 17.6839 24.7956 18 24 18C23.2044 18 22.4413 17.6839 21.8787 17.1213C21.3161 16.5587 21 15.7956 21 15V12C21 11.2044 21.3161 10.4413 21.8787 9.87868C22.4413 9.31607 23.2044 9 24 9C24.7956 9 25.5587 9.31607 26.1213 9.87868C26.6839 10.4413 27 11.2044 27 12V15Z" stroke="white" stroke-linecap="round" stroke-linejoin="round"/>
</svg>
