<svg id="Objects" xmlns="http://www.w3.org/2000/svg" width="217.83" height="196.53" viewBox="0 0 217.83 196.53"><title>132074-OS5MM9-4</title><path d="M56.47,196c-14.64,0-28.5-6.19-39-17.44a65.44,65.44,0,0,1-2-85.55c10.19-11.94,24-18.76,39-19.19l1.51,0c14.64,0,28.5,6.19,39,17.44a65.44,65.44,0,0,1,2,85.55c-10.19,11.94-24,18.76-39,19.19ZM54.53,78c-28.45.83-50.77,27-49.85,58.43s24.73,56.25,53.17,55.42,49.87-22.06,49.85-58.43C107.68,102,83,77.18,54.53,78ZM96.07,33.9s-47.1-1.39-51.81,0-23,20.5-21.61,25.77S24,84.87,24,84.87M180,28.72a95.35,95.35,0,0,1-7.83-11l-.64-1-.17-.27c-1.61-2.54-3-4.73-4.23-6.36-4-5.29-8.86-5.37-24.94-5.63-1.83,0-3.8-.06-5.93-.11-21.08-.42-27.19,6.36-32.1,11.8-5.14,5.69-19,44-19.55,45.6l.94.34c.14-.39,14.35-39.72,19.35-45.27S115.62,4.89,136.23,5.31c2.13.05,4.1.08,5.93.11,11.54.19,17.16.29,20.8,2.28,0,0,0,0,0,0a8.75,8.75,0,0,1,1.52,1,11.68,11.68,0,0,1,1.82,1.94c1.21,1.59,2.59,3.77,4.19,6.29A111.63,111.63,0,0,0,178.95,29c.24.28.47.55.71.81a10.61,10.61,0,0,1,1.08-.29Q180.36,29.15,180,28.72Zm20.15,10.51c-.68.12-1.44.2-2.24.26.72.25,1.43.51,2.13.77a13.89,13.89,0,0,0,1.78-.38C201.27,39.65,200.71,39.44,200.14,39.23Zm11.23,8.05c-1.11-2.52-3.41-4.38-6.29-5.9l0,0c-.29-.15-.58-.3-.89-.44l-.17-.08a3.65,3.65,0,0,1,0,.87l0,.25h0c.32.15.62.31.92.47,2.56,1.38,4.59,3.06,5.54,5.25a24.87,24.87,0,0,1,1.16,4.47c.07.37.15.75.21,1.16.27,1.42.53,3,.79,4.85.05.36.1.73.16,1.11h0c.22,1.56.43,3.23.65,5l.12,1c2.48,21.3,4.38,55.86.69,73.84a24.05,24.05,0,0,1-.93,3.29c-.16.46-.34.9-.54,1.34h0a20.46,20.46,0,0,1-4.59,6.57h0a19.82,19.82,0,0,1-2,1.68h0c-8.17,6.27-22,8.41-40.49,6.07l-.36,0c-6.59-.82-28.28-2.27-28.5-2.29l-.07,1c.22,0,21.88,1.46,28.44,2.28l.36,0a111,111,0,0,0,13.79.93c13.29,0,23.26-3,29.37-8.82h0a22.12,22.12,0,0,0,6.47-11.87C220.37,114.16,214.93,55.45,211.37,47.28ZM57.87,90.21c-24.76,0-38.2,19.82-38.2,44.26s17.1,44.26,38.2,44.26c29.89,0,39.66-23.06,39.66-43.8C97.52,110.49,79,90.21,57.87,90.21Zm8.28,13.37c-18.29,0-26,14.08-26,29.23S52,160.24,66.77,160.24,93.43,148,93.43,132.81,80.87,103.58,66.14,103.58Zm23.23,29.27c0-13.23-11.09-25.28-23.26-25.28-20.38,0-22,19.35-22,25.28,0,12.91,10.14,23.4,22.61,23.4S89.38,145.75,89.38,132.85ZM69.54,116.33A14.55,14.55,0,1,0,83.6,130.87,14.31,14.31,0,0,0,69.54,116.33ZM82,189.26c.82-.45,66-41.49,66-41.49,21.4-15.17,10.81-50.08,10.81-50.08C142.2,47,106.25,55.93,104.59,55.93c-1.09,0-27.28,8.41-45.27,14.23L42.6,75.58M111,171.07s29.8-42.08-4.12-79.82C84.71,66.59,57.34,70.79,57.34,70.79m-16.24-25s-9,6.84-4.16,9.91S49.82,52.19,47.44,47C45.78,43.36,41.11,45.75,41.11,45.75ZM22.93,61.12s20.25,5.09,30.75,3.22,17-6.29,32.51-5.54m122.54,92.41-.36-.93c-9.18,3.58-28.95,3.57-36.55,3-2.32-.17-3.87-.44-4.43-1.27-.85-1.27.15-4.3,2.16-10.33,1-3.09,2.3-6.93,3.74-11.79,5.35-18,1.57-42.21,0-52.54-.33-2.09-.56-3.61-.63-4.44,0-.54-.11-1-.17-1.52-.2-1.55-.35-2.67.37-3.52,1.33-1.57,5.89-2.39,15.25-2.73,18.8-.69,25.2-6.21,25.46-6.45l-.67-.75c-.06.06-6.45,5.52-24.83,6.2-11.45.42-14.67,1.54-16,3.08-1,1.19-.82,2.63-.6,4.29.06.47.12,1,.17,1.48.07.87.31,2.4.64,4.51,1.6,10.27,5.35,34.31.07,52.1-1.44,4.85-2.71,8.68-3.73,11.76-2.17,6.54-3.16,9.53-2,11.2.78,1.17,2.43,1.51,5.18,1.71,2.17.16,5.31.27,8.92.27C189.84,154.57,202,153.83,208.74,151.22Zm-80.53,9s20.22-20.09,4.43-59S78.14,64.09,78.14,64.09m61.35,89s22-16,9.63-53.16C135.05,57.61,96.7,58.43,96.7,58.43m87.93,74.87a7.91,7.91,0,1,0,7.51,7.9A7.71,7.71,0,0,0,184.62,133.3Zm.59-2.29c-9.16,0-16.76,13-14.2,17.38s20.43,5.68,23-4.09C195.85,137.29,192.48,131,185.21,131ZM173.47,82.18m-26.42,66.19c20.38-2.45,21.6-28.19,19.54-52.41-1.44-16.87-13.18-46.68-18-50-2-1.39-10.3-2.22-19.53-2.73-12.84-.71-27.53-.79-29.79-.87-3.88-.14-9.87,18.16-9.87,18.16m123.17-7.9-.73-.68c-7.55,8.11-39.94,7-42.85,5.92-2-.72-6.59-8.64-12.18-21.19a41,41,0,0,1-3.41-12.58c-.64-5.87.38-10.15,3-12.73,3.33-3.24,8.19-2.62,8.24-2.62l.14-1c-.22,0-5.38-.7-9.06,2.88-2.88,2.8-4,7.36-3.33,13.56a42.54,42.54,0,0,0,3.49,12.88C160,46.4,165.6,57.74,168.63,58.8c1.07.38,5.82.79,11.88.79C191.7,59.59,207.36,58.19,212.55,52.62ZM130.28,4.79a3.6,3.6,0,0,1,0-1c.08-.36,7.14-2.13,7.66-2.7S136.22.5,135.6.5s-10,1.71-11.12,2.6a9.13,9.13,0,0,0-1.94,2.7m.59-.47s-.36,1.14-.59,1.71,25.58,1.09,26.83,1.19,7.77-2.69,7.8-2.69,1.66-1.41,1.4-1.78a3,3,0,0,0-1.82-.62c-.52,0-.31-.52-.52-1.09s-3.17-.78-3.53-.78-7,1.92-7.53,2.18S144.43,5,144.43,5M63.26,35.68c-.42-.67-1.85-.52-3.18.33S58,38.08,58.44,38.74s1.85.52,3.18-.33S63.68,36.34,63.26,35.68Zm12.07-.32c-.42-.67-1.85-.52-3.18.33s-2.07,2.07-1.64,2.74,1.85.52,3.18-.33S75.75,36,75.32,35.36Zm11.23.32c-.42-.67-1.85-.52-3.18.33s-2.07,2.07-1.64,2.74,1.85.52,3.18-.33S87,36.34,86.55,35.68Zm-45.7,5.19s14.44,1,14.75.52-2.8-4.87-8.78-4.49S39.9,40.8,40.85,40.86ZM22.93,57.27s24.72,8,34.41,1.06c9.84-7,2.79-17.77-23-16.42M175.5,111.33s16.15.28,19-.82,1-16.48-1.33-18.89-18.51,0-18.51,0M186,96.52a5.4,5.4,0,1,0,5.33,5.4A5.37,5.37,0,0,0,186,96.52Zm27.89,46.73-.44-.9c-2.87,1.41-10.93,4.56-13.71,2.33-1.05-.85-1.29-2.47-.72-4.82,2.88-11.76,2.29-32.08.43-47-.24-2-.66-4-1.1-6.22-1.59-8-3.24-16.25,3.62-18.07,7.31-1.93,12.12-3.44,12.16-3.46l-.3-1S209,65.68,201.76,67.6c-7.78,2.05-6,11.18-4.35,19.23.43,2.18.85,4.24,1.08,6.15,1.85,14.83,2.45,35-.4,46.64-.68,2.76-.32,4.72,1.06,5.84a5.58,5.58,0,0,0,3.54,1C207.33,146.45,213.59,143.41,213.93,143.25ZM204,41.7a3.65,3.65,0,0,0,0-.87l.17.08Zm-25.78-7.23a5.5,5.5,0,0,0-.81.57,6.39,6.39,0,0,1-.68-.73,7.82,7.82,0,0,1,.78-.57A6.83,6.83,0,0,0,178.24,34.47ZM205,41.35a3.09,3.09,0,0,1,0,.43l0,.31v0a3.09,3.09,0,0,1-.07.32c-.78,3-5.24,5.08-11.27,5.08a29.39,29.39,0,0,1-4.89-.42c-8.4-1.41-14.43-5.8-13.72-10a4.41,4.41,0,0,1,1.39-2.48L176,37.25c-.59,3.53,5.32,7.58,12.9,8.85a28.53,28.53,0,0,0,4.73.41c5.63,0,9.88-1.87,10.35-4.55h0l0-.25a3.65,3.65,0,0,0,0-.87l.17.08.25-1.77A4.74,4.74,0,0,1,205,41.35Zm-1.68-2a6.12,6.12,0,0,0-.6-.82,5.17,5.17,0,0,0,.91-.47,7.89,7.89,0,0,1,.56.81A6,6,0,0,1,203.35,39.33ZM204,41.7a3.65,3.65,0,0,0,0-.87l.17.08Zm-.67-2.37a8.9,8.9,0,0,1-1.54.55c-.54-.23-1.1-.44-1.67-.65a11.75,11.75,0,0,0,2.61-.72A6.12,6.12,0,0,1,203.35,39.33Zm-3.32.93a24.47,24.47,0,0,1-3.92.28,37.93,37.93,0,0,1-6.24-.54c-5.58-.93-10.17-2.85-12.44-5a5.5,5.5,0,0,1,.81-.57c2,1.78,6.2,3.61,11.79,4.54a37.11,37.11,0,0,0,6.08.53c.62,0,1.22,0,1.79,0C198.62,39.74,199.33,40,200,40.26Zm3.32-.93a8.9,8.9,0,0,1-1.54.55,13.89,13.89,0,0,1-1.78.38,24.47,24.47,0,0,1-3.92.28,37.93,37.93,0,0,1-6.24-.54c-5.58-.93-10.17-2.85-12.44-5a5.5,5.5,0,0,1,.81-.57c2,1.78,6.2,3.61,11.79,4.54a37.11,37.11,0,0,0,6.08.53c.62,0,1.22,0,1.79,0,.8-.06,1.56-.14,2.24-.26a11.75,11.75,0,0,0,2.61-.72A6.12,6.12,0,0,1,203.35,39.33Zm2.38-2.52v.05a3,3,0,0,1-1.27,1.83,1.87,1.87,0,0,1-.23.16,6,6,0,0,1-.87.48,8.9,8.9,0,0,1-1.54.55,13.89,13.89,0,0,1-1.78.38,24.47,24.47,0,0,1-3.92.28,37.93,37.93,0,0,1-6.24-.54c-5.58-.93-10.17-2.85-12.44-5a6.39,6.39,0,0,1-.68-.73,3.24,3.24,0,0,1-.24-.31,3,3,0,0,1-.6-2.18.76.76,0,0,1,.07-.26c.29-1.07,1.34-1.93,3-2.52a9,9,0,0,1,1-.32,21.53,21.53,0,0,1,5.54-.62h.71l1.17,0a39.6,39.6,0,0,1,4.36.49,32.4,32.4,0,0,1,10.1,3.28C204.62,33.47,206,35.2,205.73,36.81Zm-1-.14v0c.19-1.14-1-2.55-3.36-3.85a31,31,0,0,0-9.78-3.17,37.05,37.05,0,0,0-6.07-.53,22.31,22.31,0,0,0-4.79.46,10.61,10.61,0,0,0-1.08.29c-1.61.5-2.61,1.24-2.76,2.14a2.27,2.27,0,0,0,.63,1.75,6.83,6.83,0,0,0,.71.73c2,1.78,6.2,3.61,11.79,4.54a37.11,37.11,0,0,0,6.08.53c.62,0,1.22,0,1.79,0,.8-.06,1.56-.14,2.24-.26a11.75,11.75,0,0,0,2.61-.72,5.17,5.17,0,0,0,.91-.47A2.23,2.23,0,0,0,204.74,36.67Zm-1.39,2.66a8.9,8.9,0,0,1-1.54.55,13.89,13.89,0,0,1-1.78.38,24.47,24.47,0,0,1-3.92.28,37.93,37.93,0,0,1-6.24-.54c-5.58-.93-10.17-2.85-12.44-5a5.5,5.5,0,0,1,.81-.57c2,1.78,6.2,3.61,11.79,4.54a37.11,37.11,0,0,0,6.08.53c.62,0,1.22,0,1.79,0,.8-.06,1.56-.14,2.24-.26a11.75,11.75,0,0,0,2.61-.72A6.12,6.12,0,0,1,203.35,39.33Zm-3.32.93a24.47,24.47,0,0,1-3.92.28,37.93,37.93,0,0,1-6.24-.54c-5.58-.93-10.17-2.85-12.44-5a5.5,5.5,0,0,1,.81-.57c2,1.78,6.2,3.61,11.79,4.54a37.11,37.11,0,0,0,6.08.53c.62,0,1.22,0,1.79,0C198.62,39.74,199.33,40,200,40.26Zm3.32-.93a8.9,8.9,0,0,1-1.54.55c-.54-.23-1.1-.44-1.67-.65a11.75,11.75,0,0,0,2.61-.72A6.12,6.12,0,0,1,203.35,39.33Zm-15.83-11c-.19-.35-4.59-8.68-8.24-10.29a20.29,20.29,0,0,0-8.06-1.39l0,1A19.63,19.63,0,0,1,178.88,19c3.33,1.47,7.71,9.76,7.76,9.84ZM107.7,92.2l15.76-6.8m-.73,39.91,15-7.32M176,31.56l-.1,0L175,37.09l1,.16.41-2.64.09-.61.36-2.31Zm28.76,5.11-.29,2-.06.45-.25,1.77-.12.79,0,.25,1,.14,0-.31.06-.4.64-4.52v-.05ZM91.43,45S77,43,74.87,46.23,73.51,56.4,70.38,60M23.52,67s13.91,5.4,35.07,3.48m10.27,37.25v-4m-5.28,0,.28,3.83m-3.71.64L59,104.4M54.49,106l2.08,3.41m-5.88-1.17L53,111.42m-2.55,2.3-3.29-2.3m-2.4,3.23,3.16,1.67M43,118l3.34,1.87M41.55,122l4,1m-4.77,2.56,4,.56m-4.67,3.09,4.06.69m-4,3.68,4-.35m-3.65,4.39,4-.53m-3,5,4-1.32M44,147.12l3.49-2m-.78,5.81L50,148.54m.66,6.13,2.56-3.1m3.45,2.08s-1.77,3.72-1.73,3.75m5.82-2-1.29,3.78m5.09.95.5-3.89M70,160.15l-.62-3.89m6.06,2.5-1.66-3.84m7.14,1.34-2.78-3.18m7.22-.6-3.17-2.52m6.46-1.45-3.8-1.89m-11.7-37.7,1.41-3.77m4.86,2.43-2.19,3m5.71-.38-2.49,2.87m6.18,1-3.52,2.28m2.81,3.86,3.13-1.92m-.93,5.82,3.3-1.79m-2.57,5.52,4-.9m-3.45,5,4.08-.4m0,4.47-4.08-.26m-.71,3.84,3.54,1.57M87.49,143l3.33,1.67M84.14,64.39,66.35,70.52m23.37-5.27L72.91,71.6m6.5,1.66L95,66.56m-9.56,9,15-7.1m-9.24,10,14.71-7.49M96.7,81.86l14.83-7.54m-10.6,11.07,15.51-7.3M120,81.74,104.55,88.8m18.54,40.28,15.19-6.34m-15.2,10,15.58-5.8m.2,4.1-16,5.9m-.52,4.46,16-6.23m-17,11.46,16.52-7.74m-17.74,12.35,16.74-7.77m-18,11.74,16.75-7.63m-19.16,13.06L133.67,152m-19.33,13.38,17.22-9.61M120.79,101A44.93,44.93,0,0,1,125.15,111l.08.33c1,4.68,4.92,2.38,4.57,0S126.06,99.36,125,99s-.62-.35-1-.35S120.17,97.85,120.79,101ZM103.33,59l11.33-3.62M108.21,60l13.34-3.6m-7.42,5.44,12.08-4M113.52,12.29c-7.48,4.88-12.16,19.89-12.16,19.89m16.21-19.89A21.29,21.29,0,0,0,110.4,21M122,12.29A21.29,21.29,0,0,0,114.81,21m11.57-8.73A21.29,21.29,0,0,0,119.21,21m11.57-8.73A21.29,21.29,0,0,0,123.61,21m11.57-8.73A21.29,21.29,0,0,0,128,21m11.57-8.73A16.43,16.43,0,0,0,133.23,21M144,12.29A14.66,14.66,0,0,0,138,21m9.85-8.93A10.75,10.75,0,0,0,143.17,21m8.59-8.73a11,11,0,0,0-3.84,9.25M118.8,63.86l11.62-4.19m-8.07,6,11.76-3.94m3.58,2.32-11.49,4m15.1-.66L130,70.94m3.26,2.89,10.45-3.92m-7.83,6.63,10.63-3.28m-8,6.37,10.2-3.36m-7.91,6.49,10.2-3.62M142.81,86l9.88-3m-7.91,6.56,9.7-2.94m1.69,3.27-9.7,2.94m1.69,3.27,9.7-2.94m-8.95,6.55,9.7-2.94m-8.55,6.39,9.7-2.94m-8.81,7,9.7-2.94m-8.89,6.37,9.32-2.94m.35,3.62-8.94,2.94m.41,3.68,8.48-2.94m-8.62,7.24,8.94-2.94m-9.21,6.79,8.94-2.94m-9.25,7.34,8.22-2.94m-9.12,7,8.22-2.94m-10.13,7.6,8.22-2.94m-10,6.32,8.22-2.94M120.17,69.2s-6.25,1.06-4.58,2.78,5.57,4.49,7.88,7.15c0,0,2.47,1.4,5.58-1.19S121.62,69.22,120.17,69.2Zm27.39,44.08s-6,0-5.68,2.34.33,4.7.85,8.19c.16,1,.45,2.52,4.5,2.34S148.7,114.16,147.56,113.27ZM7.85,126.16S3.66,146.95,17.1,168m11,10.74s14,11.76,31.47,10.53" style="fill:none;stroke:#5efff8;stroke-miterlimit:10"/></svg>