<svg id="Layer_1" data-name="Layer 1" xmlns="http://www.w3.org/2000/svg" width="45.2" height="37.92" viewBox="0 0 45.2 37.92"><title>telegram</title><path d="M24.08,29.71c-1.73,1.69-3.45,3.35-5.15,5a2.69,2.69,0,0,1-2.12.86,1.08,1.08,0,0,1-1.09-.84c-1.3-4-2.63-8.08-3.92-12.14a1,1,0,0,0-.71-.71Q6.47,20.51,1.88,19a5.23,5.23,0,0,1-1.35-.62A1,1,0,0,1,.37,16.8a6.23,6.23,0,0,1,1.79-1.12c3.76-1.49,7.53-2.93,11.3-4.38L42.16.23c1.82-.7,3.22.29,3,2.25a33.89,33.89,0,0,1-.71,3.74q-3.12,14.71-6.24,29.42c-.5,2.33-2.13,2.94-4,1.52l-9.62-7.11Zm-7.2,3,.11,0a2.25,2.25,0,0,0,.06-.27c.21-2.22.42-4.44.6-6.67a1.63,1.63,0,0,1,.58-1.18q4.44-4,8.84-8Q32,12.16,36.84,7.74A2.75,2.75,0,0,0,37.26,7a2.76,2.76,0,0,0-.91-.08,4,4,0,0,0-1.08.53Q24.48,14.24,13.68,21a.65.65,0,0,0-.33.92c.53,1.53,1,3.06,1.51,4.6Z" style="fill:#fff"/></svg>