<svg width="507" height="143" xmlns="http://www.w3.org/2000/svg"><g fill="none" fill-rule="evenodd"><path d="M293.288 39.257c-10.803 0-18.061 7.439-18.061 18.507 0 10.566 7.188 17.954 17.471 17.954 9.031 0 18.135-5.725 18.135-18.51 0-10.737-7.055-17.951-17.545-17.951Zm-.293 30.73c-5.885 0-10.162-5.227-10.162-12.431 0-6.26 3.189-12.575 10.307-12.575 6.883 0 10.01 6.447 10.01 12.435-.001 7.286-4.27 12.571-10.155 12.571Zm-74.885-30.73c-3.854 0-8.019 1.014-11.13 2.721a.558.558 0 0 0-.265.676l1.391 3.979.302.331h.454c1.782-.791 4.576-1.841 8.227-1.841 6.515 0 10.655 3.444 11.509 9.428h-17.122a.557.557 0 0 0-.562.561v4.189a.56.56 0 0 0 .562.563h17.058c-.794 6.075-5.218 9.845-11.734 9.845-3.901 0-6.779-1.015-8.609-1.771l-.457.01-.295.352-1.236 4.396a.554.554 0 0 0 .284.66c3.103 1.521 6.842 2.362 10.532 2.362 11.549 0 19.299-7.271 19.299-18.09 0-5.416-1.769-10.16-4.974-13.39-3.209-3.212-7.906-4.981-13.234-4.981Zm129.563.765h-6.342a.56.56 0 0 0-.561.561v13.059h-15.645V40.583a.557.557 0 0 0-.564-.561h-6.344a.56.56 0 0 0-.559.561v33.805c0 .313.25.566.559.566h6.344a.561.561 0 0 0 .564-.566V59.655h15.645v14.733c0 .313.252.566.561.566h6.342a.564.564 0 0 0 .564-.566V40.583a.56.56 0 0 0-.564-.561Zm-77.281 27.301-.584-1.398c-2.879-6.324-6.383-9.556-11.223-10.414l14.607-14.529a.567.567 0 0 0 .125-.614.578.578 0 0 0-.523-.346h-7.801l-.416.186-13.102 14.476h-.722V40.583a.561.561 0 0 0-.563-.561h-6.335a.563.563 0 0 0-.567.561v33.805c0 .313.253.566.567.566h6.335c.31 0 .563-.254.563-.566V60.07h.68c5.532 0 8.767 2.213 11.149 7.633 1.148 2.938 2.396 5.55 3.324 6.994a.576.576 0 0 0 .471.258h6.713a.554.554 0 0 0 .484-.29.538.538 0 0 0-.004-.558c-1.278-2.17-2.329-4.723-3.178-6.784Zm235.414-1.033V53.642c0-6.564-2.426-14.384-13.984-14.384-4.398 0-8.74 1.125-11.889 3.085a.566.566 0 0 0-.227.668l1.457 4.048.346.343.482-.054c2.449-1.525 5.771-2.432 8.887-2.432 2.959 0 5.057.882 6.252 2.618.803 1.166 1.207 2.728 1.207 4.641v.152c-8.381.042-14.631 1.845-18.061 5.26-2.096 2.077-3.16 4.73-3.16 7.858 0 5.105 3.902 10.272 11.355 10.272 4.219 0 8.08-1.671 10.576-4.472l.387 3.213a.566.566 0 0 0 .557.494h5.834c.172 0 .326-.08.43-.211l.121-.453c-.383-2.033-.57-4.641-.57-7.998Zm-7.327-3.293c0 .525-.111 1.157-.328 1.781-.873 2.43-3.484 5.278-7.998 5.278-2.656 0-5.494-1.396-5.494-5.306 0-1.662.527-2.988 1.621-4.06 2.094-2.044 6.205-3.046 12.199-2.989v5.296Zm-125.355-23.74c-10.801 0-18.059 7.439-18.059 18.507 0 10.566 7.184 17.954 17.475 17.954 9.025 0 18.137-5.725 18.137-18.51 0-10.737-7.059-17.951-17.553-17.951Zm-.291 30.73c-5.891 0-10.154-5.227-10.154-12.431 0-6.26 3.182-12.575 10.305-12.575 6.875 0 10.008 6.447 10.008 12.435-.001 7.286-4.274 12.571-10.159 12.571Zm98.496-2.687-.568-1.375c-2.885-6.324-6.395-9.556-11.232-10.414l14.613-14.529a.573.573 0 0 0 .119-.614.556.556 0 0 0-.518-.346h-7.803l-.412.186-13.107 14.476h-.719V40.583a.562.562 0 0 0-.563-.561h-6.342a.56.56 0 0 0-.561.561v33.805c0 .313.25.566.561.566h6.342a.566.566 0 0 0 .563-.566V60.07h.676c5.531 0 8.762 2.213 11.158 7.633 1.139 2.925 2.389 5.545 3.324 6.987a.541.541 0 0 0 .467.265h6.705a.55.55 0 0 0 .486-.29.517.517 0 0 0 0-.558c-1.281-2.183-2.339-4.75-3.189-6.807Zm-37.324-27.278h-7.945a.554.554 0 0 0-.521.36l-5.689 14.736c-1.195 3.199-2.752 7.447-3.697 10.21-.549-1.687-1.248-3.648-1.889-5.431l-.875-2.455-6.416-17.06a.556.556 0 0 0-.521-.36h-7.877a.558.558 0 0 0-.561.519l-2.625 33.806.145.418.412.189h5.906a.569.569 0 0 0 .563-.539l.871-15.988c.184-3.048.352-6.421.486-9.596a252.447 252.447 0 0 0 2.801 8.838l6.277 16.709a.562.562 0 0 0 .527.365h4.662a.56.56 0 0 0 .521-.355l6.779-17.044c1.422-3.733 2.326-6.225 3.111-8.59.119 2.542.279 5.096.42 7.42l.125 2.111.807 16.126a.566.566 0 0 0 .563.543h6.121l.412-.189.15-.418-2.484-33.806a.555.555 0 0 0-.559-.519Z" fill="#ED3827"/><g fill="#8A8C8F"><path d="M294.011 88.135v6.893c0 2.572-.051 4.732-.197 6.916l.076.023c.801-1.699 1.82-3.471 3.01-5.41l5.289-8.422h2.109v16.355h-1.988v-6.963c0-2.646.023-4.588.193-6.65l-.074-.023c-.799 1.797-1.914 3.688-3.031 5.484l-5.121 8.152h-2.254V88.135h1.988ZM316.288 104.078c-.557.268-1.797.68-3.373.68-3.543 0-5.848-2.402-5.848-5.994 0-3.615 2.473-6.262 6.309-6.262 1.262 0 2.379.316 2.959.633l-.486 1.625c-.506-.266-1.309-.559-2.473-.559-2.693 0-4.15 2.016-4.15 4.441 0 2.717 1.748 4.393 4.078 4.393a6.107 6.107 0 0 0 2.621-.559l.363 1.602ZM320.899 92.746v5.096h.512l4.391-5.096h2.596l-5.096 5.289c1.895.219 3.033 1.48 3.955 3.592.316.777.707 1.918 1.238 2.863h-2.23c-.318-.508-.705-1.43-1.094-2.4-.799-1.895-1.893-2.768-3.857-2.768h-.414v5.168h-2.109V92.746h2.108ZM331.36 92.746l2.547 6.941c.291.775.58 1.695.777 2.402h.047c.219-.707.461-1.604.752-2.453l2.328-6.891h2.26l-3.201 8.373c-1.531 4.027-2.574 6.064-4.031 7.352-1.066.896-2.086 1.262-2.621 1.359l-.531-1.771a5.698 5.698 0 0 0 1.865-1.043c.584-.463 1.287-1.287 1.795-2.379.102-.219.17-.389.17-.51s-.045-.291-.17-.561l-4.316-10.82h2.329v.001ZM350.167 104.078c-.559.268-1.797.68-3.373.68-3.543 0-5.848-2.402-5.848-5.994 0-3.615 2.475-6.262 6.309-6.262 1.264 0 2.381.316 2.959.633l-.484 1.625c-.508-.266-1.309-.559-2.475-.559-2.693 0-4.15 2.016-4.15 4.441 0 2.717 1.75 4.393 4.078 4.393a6.074 6.074 0 0 0 2.619-.559l.365 1.602ZM360.894 104.078c-.559.268-1.795.68-3.373.68-3.541 0-5.848-2.402-5.848-5.994 0-3.615 2.475-6.262 6.311-6.262 1.262 0 2.375.316 2.961.633l-.486 1.625c-.51-.266-1.311-.559-2.475-.559-2.695 0-4.15 2.016-4.15 4.441 0 2.717 1.746 4.393 4.076 4.393a6.11 6.11 0 0 0 2.623-.559l.361 1.602ZM371.718 92.746v1.676h-3.664v10.068h-2.135V94.422h-3.666v-1.676h9.465ZM373.515 92.893c.85-.146 2.379-.268 3.74-.268 1.986 0 5.24.34 5.24 2.936 0 1.455-1.115 2.379-2.451 2.668v.051c1.723.242 2.982 1.188 2.982 2.887 0 3.082-3.881 3.471-6.186 3.471-1.311 0-2.695-.098-3.326-.146V92.893h.001Zm2.039 10.214c.604.049 1.043.074 1.701.074 1.453 0 3.588-.316 3.588-2.039 0-1.699-1.721-2.063-3.736-2.063h-1.553v4.028Zm.023-5.412h1.602c1.578 0 3.205-.461 3.205-1.867 0-1.166-1.02-1.723-3.154-1.723-.729 0-1.168.047-1.652.096v3.494h-.001ZM396.353 98.521c0 4.344-3.035 6.236-5.85 6.236-3.152 0-5.629-2.33-5.629-6.043 0-3.906 2.594-6.213 5.824-6.213 3.373.001 5.655 2.452 5.655 6.02 0 0 0-3.568 0 0Zm-9.295.122c0 2.572 1.457 4.514 3.543 4.514 2.039 0 3.566-1.916 3.566-4.563 0-1.99-.994-4.488-3.518-4.488-2.5-.001-3.591 2.328-3.591 4.537 0 0 0-2.209 0 0ZM404.702 97.77h5.896c-.197-1.99-1.432-3.617-4.053-3.617a6.449 6.449 0 0 0-2.793.656l-.461-1.408c1.021-.582 2.355-.898 3.617-.898 1.695 0 3.203.561 4.244 1.65 1.021 1.07 1.604 2.598 1.604 4.514 0 3.398-2.256 6.068-6.211 6.068-1.289 0-2.5-.293-3.445-.803l.436-1.504a7.086 7.086 0 0 0 2.912.633c2.377 0 3.953-1.482 4.125-3.811h-5.871v-1.48ZM417.562 92.746v5.096h.512l4.393-5.096h2.598l-5.1 5.289c1.895.219 3.037 1.48 3.955 3.592.316.777.705 1.918 1.24 2.863h-2.236c-.313-.508-.701-1.43-1.092-2.4-.797-1.895-1.891-2.768-3.855-2.768h-.414v5.168h-2.109V92.746h2.108ZM437.562 98.521c0 4.344-3.035 6.236-5.85 6.236-3.156 0-5.631-2.33-5.631-6.043 0-3.906 2.596-6.213 5.824-6.213 3.373.001 5.657 2.452 5.657 6.02 0 0 0-3.568 0 0Zm-9.295.122c0 2.572 1.453 4.514 3.541 4.514 2.035 0 3.566-1.916 3.566-4.563 0-1.99-.996-4.488-3.516-4.488-2.5-.001-3.591 2.328-3.591 4.537 0 0 0-2.209 0 0ZM442.315 92.746v4.732h5.559v-4.732h2.137v11.744h-2.137v-5.314h-5.559v5.314h-2.135V92.746h2.135ZM464.132 98.521c0 4.344-3.031 6.236-5.848 6.236-3.154 0-5.629-2.33-5.629-6.043 0-3.906 2.598-6.213 5.826-6.213 3.372.001 5.651 2.452 5.651 6.02 0 0 0-3.568 0 0Zm-9.293.122c0 2.572 1.455 4.514 3.541 4.514 2.041 0 3.57-1.916 3.57-4.563 0-1.99-.996-4.488-3.518-4.488-2.501-.001-3.593 2.328-3.593 4.537 0 0 0-2.209 0 0ZM466.974 92.746h2.623l2.107 5.92a64.95 64.95 0 0 1 1.072 3.229h.047c.266-.898.922-2.742 1.408-4.027l1.869-5.121h2.643l.824 11.744h-2.037l-.268-5.605c-.047-1.285-.148-2.766-.195-4.199h-.07c-.318 1.068-.658 1.99-1.311 3.811l-2.258 5.922h-1.527l-2.088-5.824c-.391-1.092-.898-2.791-1.191-3.881h-.096c-.047 1.381-.098 2.934-.17 4.221l-.316 5.557h-1.963l.897-11.747ZM484.302 92.746v4.949c0 1.846-.049 3.035-.146 4.709l.072.023c.729-1.432 1.115-2.256 1.918-3.615l3.666-6.066h2.498v11.744h-2.037v-4.975c0-1.916.047-2.912.145-4.83h-.051c-.773 1.531-1.26 2.477-1.965 3.666-1.117 1.82-2.426 4.076-3.664 6.139h-2.475V92.746h2.039ZM497.745 92.746v4.949a73.04 73.04 0 0 1-.145 4.709l.074.023c.727-1.432 1.113-2.256 1.916-3.615l3.664-6.066h2.5v11.744h-2.039v-4.975c0-1.916.049-2.912.145-4.83h-.047c-.775 1.531-1.264 2.477-1.967 3.666-1.115 1.82-2.426 4.076-3.664 6.139h-2.475V92.746h2.038Z"/></g><g fill="#ED3827"><path d="M44.524 78.061c2.375 0 4.389-2.088 4.389-5.537 0-2.522-1.29-5.427-4.338-5.427-3.044 0-4.439 2.744-4.439 5.537 0 3.038 1.698 5.427 4.388 5.427 0 0-2.69 0 0 0ZM125.365 75.648c0 1.629 1.24 2.467 2.688 2.467 2.115 0 4.104-1.49 4.104-3.118v-2.498c-3.641-.055-6.792.842-6.792 3.149 0 0 0-2.307 0 0ZM73.184 72.634c0 3.038 1.704 5.427 4.39 5.427 2.376 0 4.389-2.088 4.389-5.537 0-2.522-1.289-5.427-4.34-5.427-3.044 0-4.439 2.744-4.439 5.537 0 0 0-2.793 0 0Z"/><path d="M71.854.872C32.667.872.904 32.638.904 71.824c0 39.183 31.764 70.95 70.95 70.95 39.184 0 70.951-31.768 70.951-70.95C142.806 32.638 111.038.872 71.854.872ZM12.636 80.396c-1.656 0-3.176-.379-4.283-.949l.484-2.146c.805.275 1.99.707 3.641.707 2.973 0 5.066-1.873 5.298-4.503h-7.517v-2.064h7.539c-.229-2.361-1.805-4.341-5.084-4.341a8.489 8.489 0 0 0-3.591.786l-.565-2.033c1.214-.654 2.971-1.089 4.595-1.089 5.062 0 7.644 3.53 7.644 7.845-.001 4.532-3.128 7.787-8.161 7.787Zm67.929-58.747c3.952-3.74 12.877-.584 15.544.752 0 0 7.75 3.694 10.521 5.617 2.779 1.926 6.894 4.496 7.691 4.979.803.48 2.456 1.013 2.993.696.534-.325.372-1.767-.266-2.297-.643-.537-1.12-.645-1.389-.537-.269.104-.428.534-.428.534l-15.329-9.197s3.794-1.497 8.333 1.072c4.542 2.568 6.196 4.438 7.054 5.397.854.963 2.72 3.263 3.198 4.276.482 1.02 2.405 4.228.534 7.483-1.875 3.259-6.791 2.028-8.66 1.062 0 0-18.749-8.292-22.219-9.679-3.473-1.391-4.199-1.333-4.808-1.18-1.07.266-1.229 1.118-1.229 1.118l-4.062-1.391c.004.001-1.436-4.969 2.522-8.705 0 0-3.958 3.736 0 0ZM68.444 33.637c4.038-3.557 8.969-1.647 10.587-1.136 1.621.509 12.583 5.66 15.6 7.761 3.022 2.099 12.074 6.873 13.19 7.48 1.107.603 6.926 3.496 7.875 3.436.957-.061 1.621-.762 1.308-1.557-.318-.796-1.211-1.494-1.779-1.083-.574.416-.574.507-.574.507s-5.246-2.606-8.198-4.138c-2.956-1.526-4.065-2.227-4.065-2.227l-1.621-3.272s7.089 3.058 9.217 3.881c2.129.833 4.258 1.213 4.644 1.217h.665s1.521 1.872 2.348 3.652c.824 1.784 1.838 4.673 1.902 6.643.063 1.971-.287 2.61-.287 2.61l-17.035.182s-11.479-6.767-17.536-10.271c-6.057-3.502-10.664-5.211-12.541-5.215-1.879 0-1.879.599-1.967 1.024-.085.429.458 1.41.458 1.41l-3.654-1.272c-.002-.001-2.576-6.077 1.463-9.632 0 0-4.039 3.555 0 0ZM55.796 47.764c.816-2.071 3.414-3.694 6.459-3.689 3.045 0 2.666.161 10.394 3.456 7.915 3.377 18.775 10.245 18.775 10.245l-20.489.188s-5.133-2.583-8.498-3.371c-3.368-.788-3.029 1.782-3.029 1.782l-3.777-1.949s-.363-1.018-.445-1.869c-.082-.853-.203-2.724.61-4.793 0 0-.813 2.069 0 0ZM85.01 72.416c0 5.592-3.901 7.982-7.515 7.982-4.34 0-7.36-3.152-7.36-7.655 0-4.965 3.282-7.979 7.569-7.979 4.416 0 7.306 3.284 7.306 7.652 0 0 0-4.368 0 0Zm-30.493-7.462h2.918v6.104h7.199v-6.104h2.947v15.249h-2.947v-6.674h-7.199v6.674h-2.918V64.954Zm-9.866-.19c4.416 0 7.308 3.288 7.308 7.652 0 5.592-3.896 7.982-7.513 7.982-4.339 0-7.357-3.152-7.357-7.655 0-4.965 3.279-7.979 7.562-7.979 0 0-4.283 0 0 0Zm-21.274.19h2.89v6.514h.672l5.941-6.514h3.717l-6.996 6.842c2.506.321 4.005 1.949 5.164 4.476.463 1.006 1.211 2.793 1.961 3.932h-3.15c-.541-.676-1.217-2.033-1.811-3.336-1.574-3.255-3.973-3.255-5.498-3.255v6.591h-2.89v-15.25Zm4.876 52.81c-2.631-2.023-3.238-4.934-2.373-6.055l9.678 6.348c-.858 1.16-5.065 1.664-7.305-.293 0 0 2.24 1.957 0 0Zm15.258.3c-.045.068-.09.137-.146.188a1.497 1.497 0 0 1-1.936.256L23.73 107.053c-.068-.041-.131-.094-.192-.143a1.51 1.51 0 0 1-.252-1.938c.045-.068.096-.129.147-.191a1.508 1.508 0 0 1 1.935-.254l17.701 11.455c.702.461.894 1.385.442 2.082 0 0 .452-.697 0 0Zm3.81-3.476c-.048.064-.09.125-.139.18a1.5 1.5 0 0 1-1.944.246L25.88 102.209a1.503 1.503 0 1 1 1.66-2.51l19.357 12.805c.694.455.879 1.391.424 2.084 0 0 .455-.693 0 0Zm3.209-3.846c-.047.063-.091.123-.141.182a1.513 1.513 0 0 1-1.945.242L29.09 98.363a1.457 1.457 0 0 1-.178-.135 1.513 1.513 0 0 1-.249-1.953 1.504 1.504 0 0 1 2.087-.416l19.354 12.797c.697.461.881 1.395.426 2.086 0 0 .455-.691 0 0Zm37.816-21.537c-1.153 1.799-2.695 3.592-4.363 5.52l-.002.061h-.065c-1.795 1.986-3.534 3.721-5.267 5.197-1.798 1.479-3.599 2.691-5.394 3.785-6.854 4.021-14.539 4.291-20.012 3.994L31.534 93.483l-.059-.162c-1.025-2.248-1.285-4.148-1.542-6.396h2.059l57.641.037a20.504 20.504 0 0 1-1.287 2.243s.513-.769 0 0Zm13.265-9.002-.388-6.892c-.078-1.547-.182-3.445-.231-5.588h-.077c-.361 1.3-.984 3.147-1.759 5.457l-2.604 6.89h-2.147l-2.453-6.812a176.62 176.62 0 0 1-1.647-5.535h-.104c-.055 1.816-.103 3.691-.179 5.617l-.415 6.862h-2.712l1.189-15.224h3.615l2.579 7.031c.388 1.139.955 2.793 1.32 4.183h.075c.385-1.335 1.16-3.397 1.703-4.94l2.297-6.273h3.643l1.081 15.224h-2.786Zm16.136 0c-.542-.676-1.213-2.033-1.807-3.336-1.574-3.255-3.976-3.255-5.497-3.255v6.591h-2.895V64.954h2.895v6.514h.668l5.939-6.514h3.717l-6.995 6.842c2.504.321 4 1.949 5.164 4.476.465 1.006 1.213 2.793 1.96 3.932h-3.149v-.001Zm14.586-2.14h-.044c-.933 1.221-2.714 2.334-5.09 2.334-3.304 0-4.776-2.307-4.776-4.316 0-3.636 3.303-5.724 9.628-5.644 0-1.603-.591-3.418-3.561-3.418a7.847 7.847 0 0 0-4.363 1.33l-.67-2.116c1.443-.896 3.46-1.469 5.524-1.469 5.291 0 6.093 3.772 6.093 6.704v4.94c0 1.324.075 2.822.282 3.795h-2.737l-.286-2.14ZM149.203 14.123c0 3.465-2.788 6.213-6.329 6.213-3.536 0-6.362-2.748-6.362-6.213 0-3.464 2.826-6.174 6.402-6.174 3.501 0 6.289 2.71 6.289 6.174Zm-11.11 0c0 2.749 2.072 4.933 4.821 4.933 2.67.036 4.709-2.184 4.709-4.892 0-2.75-2.039-4.972-4.787-4.972-2.671 0-4.743 2.222-4.743 4.931Zm3.803 3.202h-1.433V11.15c.568-.075 1.359-.188 2.372-.188 1.17 0 1.698.188 2.11.485.378.266.638.72.638 1.32 0 .756-.562 1.241-1.275 1.47v.076c.602.187.901.673 1.093 1.505.183.943.338 1.281.45 1.507h-1.507c-.188-.226-.3-.758-.491-1.507-.112-.642-.487-.94-1.28-.94h-.677v2.447Zm.037-3.466h.682c.79 0 1.431-.263 1.431-.902 0-.568-.418-.938-1.32-.938-.376 0-.642.032-.792.075v1.765h-.001Z"/></g><path d="M180.734 38.826v65.971" stroke="#ED3827" stroke-width="1.26"/></g></svg>