<svg width="42" height="42" viewBox="0 0 42 42" fill="none" xmlns="http://www.w3.org/2000/svg">
<path d="M28.0751 11.1406C25.156 8.92709 21.5055 7.90431 17.8614 8.27897C14.2172 8.65363 10.8512 10.3978 8.44364 13.1589C6.03607 15.9201 4.76653 19.4923 4.89162 23.1535C5.0167 26.8147 6.52707 30.2919 9.11746 32.8823C11.7079 35.4727 15.1851 36.9831 18.8463 37.1082C22.5075 37.2333 26.0797 35.9637 28.8409 33.5562C31.602 31.1486 33.3462 27.7826 33.7208 24.1384C34.0955 20.4942 33.0727 16.8437 30.8592 13.9247L29.9263 14.8576C31.8897 17.5232 32.7735 20.8323 32.4005 24.1219C32.0275 27.4114 30.4253 30.4386 27.9149 32.5969C25.4045 34.7553 22.1713 35.8853 18.863 35.7608C15.5547 35.6362 12.4156 34.2662 10.0746 31.9252C7.7336 29.5842 6.36359 26.4451 6.23903 23.1368C6.11446 19.8285 7.24454 16.5953 9.40287 14.0849C11.5612 11.5745 14.5884 9.9723 17.878 9.59931C21.1675 9.22631 24.4766 10.1101 27.1422 12.0735L28.0751 11.1406Z" fill="#DA1119"/>
<path d="M19.3593 42.0002C22.9301 42.0028 26.432 41.0171 29.4771 39.1521C32.5222 37.2872 34.9918 34.6157 36.6121 31.4337C38.2325 28.2517 38.9406 24.6833 38.6578 21.1237C38.3751 17.564 37.1126 14.1521 35.0103 11.2658L34.6884 11.3302C34.2926 11.4096 33.8837 11.3958 33.4941 11.29L33.4336 11.3505C36.3235 14.9525 37.7234 19.5248 37.3455 24.1273C36.9676 28.7297 34.8405 33.0124 31.4017 36.0947C27.9629 39.1769 23.4738 40.8244 18.8576 40.6983C14.2414 40.5722 9.84893 38.6821 6.58353 35.4167C3.31814 32.1514 1.42803 27.7589 1.3019 23.1427C1.17577 18.5265 2.82321 14.0374 5.90543 10.5986C8.98764 7.15977 13.2703 5.03266 17.8728 4.65468C22.4752 4.2767 27.0476 5.67658 30.6495 8.56645L30.71 8.50601C30.6051 8.11587 30.5916 7.70681 30.6704 7.31059L30.7346 6.99006C28.2636 5.19395 25.4027 4.00822 22.3856 3.52983C19.3686 3.05144 16.2811 3.29398 13.3758 4.23762C10.4704 5.18125 7.82972 6.79919 5.66957 8.9591C3.50942 11.119 1.8912 13.7596 0.947252 16.6648C0.00329946 19.57 -0.239577 22.6574 0.238485 25.6746C0.716547 28.6917 1.90197 31.5528 3.69781 34.0239C5.49365 36.495 7.8489 38.5059 10.571 39.8923C13.293 41.2786 16.3045 42.0009 19.3593 42.0002Z" fill="#DA1119"/>
<path d="M38.5136 0.155011C38.2653 0.0222544 37.9808 -0.0271114 37.7023 0.0142067C37.4238 0.0555247 37.1659 0.185335 36.9669 0.384461L32.78 4.57132C32.5964 4.75489 32.4714 4.98877 32.4208 5.24338L31.9581 7.56978C31.9164 7.78142 31.9275 8.00009 31.9905 8.20641C32.0535 8.41272 32.1664 8.60029 32.3193 8.75248L20.2059 20.8659C19.7853 20.6643 19.307 20.618 18.8555 20.7351C18.4041 20.8523 18.0086 21.1253 17.7391 21.5059C17.4695 21.8866 17.3433 22.3502 17.3827 22.815C17.4222 23.2797 17.6247 23.7155 17.9545 24.0453C18.2843 24.3751 18.7201 24.5776 19.1848 24.617C19.6495 24.6565 20.1132 24.5302 20.4939 24.2607C20.8745 23.9912 21.1475 23.5957 21.2646 23.1442C21.3818 22.6928 21.3355 22.2145 21.1339 21.7939L33.2466 9.68117C33.3988 9.83426 33.5865 9.9473 33.793 10.0102C33.9995 10.0731 34.2183 10.0839 34.43 10.0417L36.7564 9.57901C37.011 9.52838 37.2449 9.40337 37.4285 9.2198L41.6153 5.03296C41.8146 4.83391 41.9445 4.57604 41.9859 4.29747C42.0272 4.01889 41.9779 3.7344 41.8452 3.48602C41.7124 3.23764 41.5033 3.03855 41.2487 2.91819C40.9941 2.79782 40.7075 2.76256 40.4313 2.81761L38.8721 3.12767L39.1822 1.56856C39.2371 1.29239 39.2018 1.00588 39.0814 0.751342C38.961 0.496803 38.7619 0.287732 38.5136 0.155011ZM19.3592 23.2968C19.2294 23.2968 19.1026 23.2583 18.9946 23.1862C18.8867 23.1141 18.8026 23.0116 18.7529 22.8917C18.7033 22.7718 18.6903 22.6398 18.7156 22.5125C18.7409 22.3852 18.8034 22.2683 18.8952 22.1765C18.987 22.0847 19.1039 22.0222 19.2312 21.9969C19.3585 21.9716 19.4905 21.9846 19.6104 22.0343C19.7303 22.0839 19.8328 22.168 19.9049 22.276C19.977 22.3839 20.0155 22.5108 20.0155 22.6406C20.0155 22.8146 19.9463 22.9815 19.8233 23.1046C19.7002 23.2277 19.5333 23.2968 19.3592 23.2968ZM33.2454 7.82578L33.7081 5.49939L37.8949 1.31254L37.4323 3.63893L33.2454 7.82578ZM40.6873 4.10487L36.5004 8.29172L34.174 8.75437L38.3609 4.56752L40.6873 4.10487Z" fill="#DA1119"/>
<path d="M19.3594 18.7041C19.7027 18.7053 20.0443 18.7514 20.3756 18.8413L21.4085 17.8084C20.2865 17.3326 19.034 17.2618 17.8656 17.6082C16.6971 17.9546 15.6856 18.6966 15.0042 19.707C14.3229 20.7175 14.0142 21.9334 14.1311 23.1465C14.248 24.3596 14.7832 25.4943 15.6449 26.356C16.5066 27.2178 17.6413 27.753 18.8544 27.8699C20.0674 27.9868 21.2834 27.6781 22.2939 26.9968C23.3043 26.3155 24.0464 25.304 24.3928 24.1355C24.7392 22.9671 24.6684 21.7146 24.1926 20.5926L23.1597 21.6255C23.3715 22.4199 23.3292 23.2607 23.0387 24.0298C22.7482 24.7989 22.2242 25.4578 21.5401 25.9138C20.856 26.3698 20.0463 26.6002 19.2246 26.5724C18.403 26.5447 17.6106 26.2604 16.9588 25.7593C16.307 25.2583 15.8285 24.5656 15.5905 23.7787C15.3524 22.9918 15.3669 22.15 15.6317 21.3717C15.8965 20.5934 16.3985 19.9176 17.0671 19.4391C17.7356 18.9607 18.5373 18.7036 19.3594 18.7041Z" fill="#DA1119"/>
<path d="M24.5454 14.6705C22.5704 13.3839 20.1889 12.8746 17.8605 13.2408C15.532 13.607 13.4218 14.8228 11.9372 16.6535C10.4525 18.4842 9.69867 20.8 9.82118 23.1539C9.9437 25.5077 10.9339 27.7328 12.6005 29.3994C14.2672 31.0661 16.4923 32.0563 18.8461 32.1788C21.2 32.3013 23.5158 31.5475 25.3465 30.0628C27.1772 28.5782 28.393 26.468 28.7592 24.1395C29.1254 21.8111 28.6161 19.4296 27.3295 17.4546L26.3806 18.4035C27.4173 20.1204 27.7897 22.1574 27.4274 24.13C27.0652 26.1026 25.9934 27.8743 24.4143 29.1108C22.8352 30.3473 20.8581 30.963 18.8562 30.8417C16.8543 30.7203 14.966 29.8703 13.5479 28.4522C12.1297 27.034 11.2797 25.1457 11.1584 23.1438C11.037 21.1419 11.6527 19.1648 12.8892 17.5857C14.1257 16.0067 15.8974 14.9348 17.87 14.5726C19.8426 14.2103 21.8796 14.5827 23.5965 15.6194L24.5454 14.6705Z" fill="#DA1119"/>
</svg>
