<svg width="44" height="32" viewBox="0 0 44 32" fill="none" xmlns="http://www.w3.org/2000/svg">
<path d="M16.4168 9.4797C16.7975 9.06916 17.2588 8.74159 17.7719 8.51749C18.2849 8.29339 18.8387 8.17758 19.3986 8.17731H24.1632C24.7231 8.17758 25.2768 8.29339 25.7899 8.51749C26.303 8.74159 26.7643 9.06916 27.145 9.4797C27.3378 9.05207 27.5744 8.64554 27.851 8.26661C27.0039 7.48146 25.9284 6.98689 24.781 6.85477C25.3197 6.27155 25.6766 5.54396 25.8083 4.76104C25.9399 3.97811 25.8405 3.17379 25.5222 2.44648C25.2039 1.71917 24.6804 1.10041 24.016 0.665911C23.3515 0.231408 22.5748 0 21.7809 0C20.987 0 20.2103 0.231408 19.5458 0.665911C18.8814 1.10041 18.3579 1.71917 18.0396 2.44648C17.7213 3.17379 17.6219 3.97811 17.7535 4.76104C17.8852 5.54396 18.2421 6.27155 18.7808 6.85477C17.6334 6.98689 16.5579 7.48146 15.7108 8.26661C15.9874 8.64554 16.224 9.05207 16.4168 9.4797ZM21.7809 1.37081C22.3194 1.37081 22.8458 1.53048 23.2935 1.82965C23.7412 2.12881 24.0902 2.55402 24.2963 3.05151C24.5023 3.549 24.5562 4.09643 24.4512 4.62456C24.3461 5.1527 24.0868 5.63782 23.7061 6.01858C23.3253 6.39934 22.8402 6.65865 22.3121 6.7637C21.7839 6.86875 21.2365 6.81483 20.739 6.60877C20.2415 6.4027 19.8163 6.05373 19.5171 5.60601C19.218 5.15828 19.0583 4.63189 19.0583 4.09341C19.0591 3.37158 19.3462 2.67956 19.8566 2.16915C20.367 1.65874 21.0591 1.37163 21.7809 1.37081Z" fill="#DA1119"/>
<path d="M38.7353 6.85378C39.2737 6.27043 39.6304 5.54281 39.7618 4.75991C39.8932 3.97702 39.7936 3.1728 39.4752 2.44563C39.1567 1.71846 38.6332 1.09986 37.9687 0.665517C37.3043 0.23117 36.5276 -9.9007e-05 35.7337 3.1796e-08C34.9399 9.90706e-05 34.1633 0.231562 33.4989 0.666075C32.8345 1.10059 32.3112 1.71931 31.9929 2.44656C31.6747 3.17381 31.5753 3.97806 31.7069 4.76092C31.8385 5.54378 32.1954 6.27131 32.7339 6.85453C31.4877 6.9987 30.3293 7.56838 29.4542 8.46744C28.5792 9.3665 28.0411 10.5399 27.9307 11.7896C28.4387 11.0911 29.1047 10.5227 29.8744 10.1308C30.2385 9.53484 30.7494 9.04228 31.3583 8.70024C31.9671 8.35821 32.6536 8.17816 33.352 8.1773H38.1165C39.1993 8.17851 40.2373 8.60917 41.003 9.37479C41.7686 10.1404 42.1992 11.1785 42.2004 12.2612L42.2013 18.3871H40.1585V16.3451C40.1585 16.1646 40.0868 15.9915 39.9591 15.8638C39.8315 15.7362 39.6584 15.6645 39.4778 15.6645C39.2973 15.6645 39.1242 15.7362 38.9965 15.8638C38.8689 15.9915 38.7972 16.1646 38.7972 16.3451V17.7171C39.1524 17.9857 39.4807 18.2882 39.7773 18.6204C39.8181 18.6658 39.8588 18.7113 39.8985 18.7578C39.9836 18.858 40.0671 18.9597 40.1464 19.0648C40.3125 19.2831 40.4651 19.5114 40.6033 19.7484H42.2004C42.5614 19.748 42.9074 19.6044 43.1626 19.3492C43.4178 19.094 43.5614 18.748 43.5617 18.3871V12.2612C43.5598 10.925 43.0671 9.63604 42.1774 8.63916C41.2876 7.64229 40.0627 7.00693 38.7353 6.85378ZM35.7343 1.3708C36.2727 1.3708 36.7991 1.53048 37.2469 1.82964C37.6946 2.1288 38.0435 2.55401 38.2496 3.05151C38.4557 3.549 38.5096 4.09642 38.4045 4.62455C38.2995 5.15269 38.0402 5.63781 37.6594 6.01857C37.2787 6.39933 36.7935 6.65864 36.2654 6.76369C35.7373 6.86874 35.1899 6.81482 34.6924 6.60876C34.1949 6.40269 33.7697 6.05373 33.4705 5.606C33.1713 5.15827 33.0117 4.63188 33.0117 4.0934C33.0125 3.37157 33.2996 2.67955 33.81 2.16914C34.3204 1.65873 35.0124 1.37162 35.7343 1.3708Z" fill="#DA1119"/>
<path d="M3.66326 18.7578C3.7029 18.7113 3.74358 18.6658 3.78442 18.6204C4.08106 18.2882 4.40931 17.9857 4.76455 17.7171V16.3451C4.76455 16.1646 4.69284 15.9915 4.5652 15.8638C4.43755 15.7362 4.26442 15.6644 4.0839 15.6644C3.90338 15.6644 3.73026 15.7362 3.60261 15.8638C3.47496 15.9915 3.40325 16.1646 3.40325 16.3451V18.387H1.3613V12.2612C1.36251 11.1785 1.79317 10.1404 2.55879 9.37478C3.3244 8.60916 4.36246 8.1785 5.4452 8.17729H10.2098C10.9081 8.17815 11.5946 8.35821 12.2035 8.70024C12.8123 9.04227 13.3233 9.53483 13.6873 10.1308C14.457 10.5227 15.1231 11.0911 15.6311 11.7896C15.5207 10.5399 14.9826 9.36649 14.1075 8.46743C13.2325 7.56838 12.0741 6.9987 10.8278 6.85453C11.3664 6.27131 11.7233 5.54378 11.8549 4.76092C11.9865 3.97806 11.887 3.17381 11.5688 2.44656C11.2505 1.71931 10.7272 1.10059 10.0628 0.666074C9.39843 0.231562 8.62182 9.90706e-05 7.82798 3.1796e-08C7.03413 -9.9007e-05 6.25747 0.23117 5.59299 0.665517C4.92851 1.09986 4.40503 1.71846 4.08657 2.44563C3.76812 3.1728 3.6685 3.97702 3.79991 4.75991C3.93131 5.54281 4.28804 6.27043 4.82646 6.85378C3.49906 7.00693 2.27414 7.64229 1.38437 8.63916C0.494594 9.63604 0.00194731 10.925 0 12.2612L0 18.387C0.000384668 18.748 0.143931 19.094 0.399141 19.3492C0.654351 19.6044 1.00038 19.748 1.3613 19.7484H2.95846C3.09662 19.5114 3.24919 19.2831 3.4153 19.0648C3.49465 18.9597 3.57813 18.858 3.66326 18.7578ZM7.82748 1.37079C8.36596 1.37079 8.89235 1.53047 9.34008 1.82963C9.78781 2.1288 10.1368 2.55401 10.3428 3.0515C10.5489 3.54899 10.6028 4.09641 10.4978 4.62455C10.3927 5.15268 10.1334 5.6378 9.75265 6.01856C9.37189 6.39932 8.88677 6.65863 8.35863 6.76368C7.8305 6.86873 7.28308 6.81482 6.78559 6.60875C6.28809 6.40268 5.86288 6.05372 5.56372 5.60599C5.26456 5.15826 5.10488 4.63187 5.10488 4.09339C5.1057 3.37157 5.39281 2.67954 5.90322 2.16914C6.41363 1.65873 7.10566 1.37162 7.82748 1.37079Z" fill="#DA1119"/>
<path d="M35.3318 17.7454C35.8702 17.1621 36.2269 16.4345 36.3583 15.6516C36.4897 14.8687 36.3902 14.0645 36.0717 13.3374C35.7533 12.6102 35.2299 11.9916 34.5654 11.5572C33.901 11.1229 33.1244 10.8916 32.3306 10.8916C31.5367 10.8916 30.7601 11.123 30.0958 11.5575C29.4314 11.9919 28.908 12.6106 28.5896 13.3378C28.2713 14.065 28.1718 14.8692 28.3033 15.652C28.4348 16.4349 28.7916 17.1624 29.3301 17.7457C28.5886 17.8311 27.8728 18.0687 27.2274 18.4435C27.7015 18.6832 28.146 18.9774 28.5519 19.3201C28.9991 19.155 29.4718 19.0699 29.9485 19.0689H34.7131C35.7958 19.0701 36.8339 19.5008 37.5995 20.2664C38.3651 21.032 38.7957 22.0701 38.797 23.1528L38.7978 29.2787H36.755V27.2367C36.755 27.0562 36.6833 26.8831 36.5556 26.7554C36.428 26.6278 36.2549 26.5561 36.0744 26.5561C35.8938 26.5561 35.7207 26.6278 35.5931 26.7554C35.4654 26.8831 35.3937 27.0562 35.3937 27.2367V29.2787H30.9695V30.64H38.797C39.1579 30.6396 39.5039 30.496 39.7591 30.2408C40.0143 29.9856 40.1579 29.6396 40.1583 29.2787V23.1528C40.1563 21.8166 39.6637 20.5276 38.7739 19.5308C37.8841 18.5339 36.6592 17.8985 35.3318 17.7454ZM32.3308 12.2624C32.8693 12.2624 33.3956 12.4221 33.8434 12.7212C34.2911 13.0204 34.6401 13.4456 34.8461 13.9431C35.0522 14.4406 35.1061 14.988 35.0011 15.5162C34.896 16.0443 34.6367 16.5294 34.2559 16.9102C33.8752 17.2909 33.3901 17.5502 32.8619 17.6553C32.3338 17.7603 31.7864 17.7064 31.2889 17.5004C30.7914 17.2943 30.3662 16.9453 30.067 16.4976C29.7679 16.0499 29.6082 15.5235 29.6082 14.985C29.609 14.2632 29.8961 13.5712 30.4065 13.0607C30.9169 12.5503 31.609 12.2632 32.3308 12.2624Z" fill="#DA1119"/>
<path d="M8.84846 19.0689H13.613C14.0897 19.0699 14.5625 19.1549 15.0096 19.3201C15.4156 18.9774 15.8601 18.6832 16.3341 18.4435C15.6887 18.0687 14.9729 17.8311 14.2315 17.7457C14.7699 17.1624 15.1267 16.4349 15.2582 15.652C15.3897 14.8692 15.2902 14.065 14.9719 13.3378C14.6535 12.6106 14.1302 11.9919 13.4658 11.5575C12.8014 11.123 12.0248 10.8916 11.231 10.8916C10.4371 10.8916 9.66051 11.1229 8.99608 11.5572C8.33164 11.9916 7.8082 12.6102 7.48979 13.3374C7.17137 14.0645 7.07178 14.8687 7.20319 15.6516C7.33461 16.4345 7.69133 17.1621 8.22973 17.7454C6.90233 17.8985 5.67741 18.5339 4.78763 19.5308C3.89785 20.5276 3.40521 21.8166 3.40326 23.1528V29.2787C3.40364 29.6396 3.54719 29.9856 3.8024 30.2408C4.05761 30.496 4.40364 30.6396 4.76456 30.64H12.592V29.2787H8.16781V27.2367C8.16781 27.0562 8.0961 26.8831 7.96845 26.7554C7.84081 26.6278 7.66768 26.5561 7.48716 26.5561C7.30664 26.5561 7.13352 26.6278 7.00587 26.7554C6.87822 26.8831 6.80651 27.0562 6.80651 27.2367V29.2787H4.76456V23.1528C4.76577 22.0701 5.19643 21.032 5.96204 20.2664C6.72766 19.5008 7.76572 19.0701 8.84846 19.0689ZM11.2307 12.2624C11.7692 12.2624 12.2956 12.4221 12.7433 12.7212C13.1911 13.0204 13.54 13.4456 13.7461 13.9431C13.9522 14.4406 14.0061 14.988 13.901 15.5162C13.796 16.0443 13.5367 16.5294 13.1559 16.9102C12.7751 17.2909 12.29 17.5502 11.7619 17.6553C11.2338 17.7603 10.6863 17.7064 10.1888 17.5004C9.69135 17.2943 9.26614 16.9453 8.96698 16.4976C8.66782 16.0499 8.50814 15.5235 8.50814 14.985C8.50896 14.2632 8.79607 13.5712 9.30648 13.0607C9.81689 12.5503 10.5089 12.2632 11.2307 12.2624Z" fill="#DA1119"/>
<path d="M24.7817 19.1057C25.3201 18.5224 25.6768 17.7948 25.8083 17.012C25.9397 16.2291 25.8401 15.425 25.5217 14.6978C25.2033 13.9707 24.6799 13.3521 24.0155 12.9177C23.3511 12.4833 22.5745 12.252 21.7807 12.252C20.9869 12.252 20.2103 12.4833 19.5459 12.9177C18.8815 13.3521 18.3581 13.9707 18.0397 14.6978C17.7213 15.425 17.6218 16.2291 17.7532 17.012C17.8846 17.7948 18.2413 18.5224 18.7797 19.1057C17.4523 19.2589 16.2274 19.8942 15.3376 20.8911C14.4478 21.888 13.9552 23.1769 13.9532 24.5132V30.639C13.9536 30.9999 14.0972 31.346 14.3524 31.6012C14.6076 31.8564 14.9536 31.9999 15.3145 32.0003H28.2469C28.6078 31.9999 28.9539 31.8564 29.2091 31.6012C29.4643 31.346 29.6078 30.9999 29.6082 30.639V24.5132C29.6063 23.1769 29.1136 21.888 28.2238 20.8911C27.3341 19.8942 26.1091 19.2589 24.7817 19.1057ZM21.7807 13.6228C22.3192 13.6228 22.8456 13.7824 23.2933 14.0816C23.7411 14.3808 24.09 14.806 24.2961 15.3035C24.5022 15.801 24.5561 16.3484 24.451 16.8765C24.346 17.4046 24.0867 17.8898 23.7059 18.2705C23.3251 18.6513 22.84 18.9106 22.3119 19.0156C21.7837 19.1207 21.2363 19.0668 20.7388 18.8607C20.2413 18.6546 19.8161 18.3057 19.517 17.858C19.2178 17.4102 19.0581 16.8838 19.0581 16.3454C19.059 15.6235 19.3461 14.9315 19.8565 14.4211C20.3669 13.9107 21.0589 13.6236 21.7807 13.6228ZM28.2477 30.639H26.205V28.5971C26.205 28.4165 26.1332 28.2434 26.0056 28.1158C25.878 27.9881 25.7048 27.9164 25.5243 27.9164C25.3438 27.9164 25.1707 27.9881 25.043 28.1158C24.9154 28.2434 24.8437 28.4165 24.8437 28.5971V30.639H18.7178V28.5971C18.7178 28.4165 18.6461 28.2434 18.5184 28.1158C18.3908 27.9881 18.2177 27.9164 18.0371 27.9164C17.8566 27.9164 17.6835 27.9881 17.5559 28.1158C17.4282 28.2434 17.3565 28.4165 17.3565 28.5971V30.639H15.3145V24.5132C15.3158 23.4304 15.7464 22.3924 16.512 21.6267C17.2776 20.8611 18.3157 20.4305 19.3985 20.4293H24.163C25.2457 20.4305 26.2838 20.8611 27.0494 21.6267C27.815 22.3924 28.2457 23.4304 28.2469 24.5132L28.2477 30.639Z" fill="#DA1119"/>
</svg>
