<svg width="35" height="38" viewBox="0 0 35 38" fill="none" xmlns="http://www.w3.org/2000/svg">
<path d="M21.3582 2.05665C21.7737 2.05665 22.1106 1.71977 22.1106 1.3042C22.1106 0.888639 21.7737 0.551758 21.3582 0.551758C20.9426 0.551758 20.6057 0.888639 20.6057 1.3042C20.6057 1.71977 20.9426 2.05665 21.3582 2.05665Z" fill="#DA1119"/>
<path d="M31.3713 21.9681C32.1238 21.7365 32.9341 21.505 33.6287 20.9841C34.0917 20.5789 34.2654 20.058 34.0917 19.4792L34.0338 19.3634C33.9181 18.9583 33.7444 18.5531 33.5708 18.2058L33.1656 17.4534C32.4711 16.2379 31.7765 14.9645 31.024 13.8069C30.6768 13.286 30.6768 13.1123 30.9662 12.7072C31.545 11.7811 31.7765 10.7392 31.6607 9.63948C31.545 8.71339 31.1977 7.03485 31.1977 6.8612C31.1398 6.5718 31.024 6.34028 30.7925 6.22452C30.7346 6.16664 30.6768 6.16664 30.6189 6.10875C28.4194 4.48809 18.927 4.31445 15.8014 4.31445C12.5022 4.31445 2.37311 4.4881 0.694568 6.34028C0.694568 6.39816 0.636687 6.39816 0.636687 6.45604C0.636687 6.51392 0.578806 6.51392 0.578806 6.5718C0.578806 6.5718 0.578807 6.62968 0.520927 6.62968C0.520927 6.68756 0.520926 6.68756 0.463046 6.74544V6.80332C1.72498e-07 8.30822 -0.115761 9.98676 0.115761 11.7232C0.463045 14.2699 1.15761 16.4115 2.25735 18.3795C2.72039 19.1898 3.76224 20.8105 4.74622 22.3732C5.73019 23.936 6.82992 25.6146 7.00356 26.0197C8.3927 28.9138 7.75601 32.5024 5.15138 36.3804C4.91986 36.6698 4.91986 37.1328 5.0935 37.4222C5.26714 37.7695 5.61443 38.001 6.01959 38.001H22.5156C22.9208 38.001 23.3259 37.7695 23.4417 37.3643C23.5574 36.9592 23.4417 36.554 23.0944 36.2646C21.4737 34.9912 20.9528 33.3127 21.5316 31.5763C23.1523 31.7499 27.3776 31.692 28.4773 31.2869C29.4613 30.9396 30.7925 30.4187 30.3295 28.6244C30.2716 28.4507 30.2716 28.2771 30.2137 28.0455C30.2137 27.814 30.1558 27.6404 30.098 27.4667C30.0401 27.2931 30.098 27.1773 30.1558 27.1195C30.4452 26.8301 30.6768 26.4828 30.8504 26.1355C31.545 25.0936 31.7186 23.9939 31.2556 22.952C31.1398 22.7205 31.1398 22.4311 31.1398 22.0838L31.3713 21.9681ZM15.6857 5.52995C23.3259 5.52995 28.3615 6.2824 29.577 6.8612C28.3615 7.49789 23.3259 8.19246 15.6857 8.19246C8.04542 8.19246 3.0098 7.44001 1.7943 6.8612C3.0098 6.22452 8.04542 5.52995 15.6857 5.52995ZM31.024 20.8105H30.9662C30.3295 20.9841 29.9822 21.2156 30.098 22.0838C30.098 22.4311 30.1558 22.8942 30.3295 23.2993C30.6189 23.9939 30.5031 24.6885 30.0401 25.383C29.8664 25.6724 29.6349 25.9618 29.4034 26.2512C29.0561 26.6564 28.9403 27.1195 29.0561 27.6983C29.114 27.8719 29.114 28.0455 29.114 28.1613C29.114 28.3928 29.1719 28.6822 29.2297 28.9138C29.4034 29.4926 29.4034 29.6662 28.13 30.1293C27.2618 30.4765 22.9208 30.5344 21.5895 30.3029C21.5895 30.3029 20.6055 30.1871 18.7533 29.0874C18.6955 29.0874 14.4702 26.8301 14.4702 23.936V22.489H13.2547V23.936C13.2547 27.5825 18.0009 30.0714 18.1745 30.1293C19.1585 30.7081 19.911 30.9975 20.4319 31.1711C19.7952 33.1969 20.3161 35.1649 21.9368 36.7277H6.36688C9.78184 31.4605 9.26091 27.6983 8.1033 25.4409C7.87177 24.9779 6.8878 23.4151 5.78807 21.6787C4.8041 20.1738 3.82013 18.5531 3.35708 17.7428C2.31523 15.9485 1.67854 13.9227 1.33126 11.5495C1.15761 10.2762 1.15761 9.06067 1.38914 7.90306C4.28317 9.23431 12.7338 9.40796 15.6857 9.40796C18.6955 9.40796 27.3197 9.2922 30.098 7.90306C30.2137 8.48187 30.3295 9.29219 30.3874 9.81312C30.5031 10.5656 30.3295 11.3759 29.8664 12.0126C29.2297 12.9966 29.5192 13.749 29.9243 14.3857C30.6768 15.5433 31.3713 16.7588 32.008 17.9743L32.4132 18.7268C32.5868 19.0162 32.7026 19.3634 32.8184 19.7107L32.8762 19.8265C32.8762 19.8844 32.9341 19.9422 32.8184 20.0001C32.3553 20.4632 31.7186 20.6368 31.024 20.8105Z" fill="#DA1119"/>
</svg>
