<svg width="31" height="42" viewBox="0 0 31 42" fill="none" xmlns="http://www.w3.org/2000/svg">
<path d="M18.2103 13.4424V10.6983C18.2103 10.5122 18.0243 10.3262 17.8382 10.3262H12.908C12.7219 10.3262 12.5359 10.5122 12.5359 10.6983V13.4424C12.5359 13.6285 12.7219 13.8145 12.908 13.8145H17.8847C18.0708 13.8145 18.2103 13.675 18.2103 13.4424Z" fill="#DA1119"/>
<path d="M30.6287 5.86047C30.4427 4.69767 28.8147 3.86047 25.6985 3.30233C25.7915 3.11628 25.7915 2.88372 25.7915 2.69767V1.76744C25.7915 0.790698 25.0008 0 24.024 0H20.7217C19.745 0 18.9543 0.790698 18.9543 1.76744V2.65116C17.2334 2.60465 15.8845 2.60465 15.3729 2.60465C14.8613 2.60465 13.5124 2.60465 11.7915 2.65116V1.81395C11.7915 0.837209 11.0008 0.0465116 10.0241 0.0465116H6.72172C5.74498 0.0465116 4.95428 0.837209 4.95428 1.81395V2.74419C4.95428 2.93023 5.00079 3.16279 5.04731 3.34884C1.93103 3.90698 0.256608 4.74419 0.117073 5.90698C-0.25502 8.65116 0.256607 10.8372 1.69847 12.6047C1.55893 16.4186 1.18684 29.1163 2.76824 36.0465V36.093C3.4194 38.9302 4.30312 40.4186 5.46591 40.7442C7.65196 41.3023 11.1403 42 15.3729 42C19.6054 42 23.0938 41.3023 25.2799 40.7442C27.2334 40.2326 28.4892 36 29.0008 28.186C29.3729 22 29.1868 15.3023 29.0938 12.6512C30.5357 10.8372 31.0473 8.60465 30.6287 5.86047ZM23.4194 4.51163C23.5589 6.83721 23.6985 9.11628 23.745 11.2558V11.907C23.7915 12.8837 23.7915 13.907 23.838 14.8837V15.5349C23.8845 17.2558 23.8845 18.9302 23.838 20.7442H21.931C21.931 19.1628 21.931 17.5814 21.931 16.093V15.4419C21.931 14.2791 21.8845 13.1163 21.838 11.907V11.2558C21.745 9.11628 21.652 6.83721 21.5124 4.51163H23.4194ZM21.4194 33.3023C21.652 30.0465 21.838 26.8372 21.8845 23.5349H23.7915C23.6985 26.7907 23.5589 29.9535 23.3264 33.2093V33.4419C23.2334 33.907 22.8613 34.2326 22.3961 34.2326C21.8845 34.2326 21.4659 33.814 21.4194 33.3023ZM9.838 11.907V11.2558C9.93103 9.11628 10.024 6.93023 10.1636 4.51163C10.6752 4.46512 11.1868 4.18605 11.4659 3.72093C12.8147 3.67442 14.1636 3.62791 15.3729 3.67442C16.5822 3.67442 17.931 3.67442 19.2334 3.72093C19.5124 4.13953 19.9775 4.46512 20.4892 4.51163C20.6287 6.93023 20.7682 9.16279 20.8147 11.3023V11.9535C20.9078 13.0698 20.9543 14.2326 20.9543 15.3953C19.3264 15.6744 17.4194 15.814 15.3729 15.814C13.2799 15.814 11.4194 15.6744 9.74498 15.3953C9.74498 14.2326 9.79149 13.0698 9.838 11.907ZM9.27987 33.3488C9.23335 33.8605 8.81475 34.2326 8.30312 34.2326C7.838 34.2326 7.4194 33.907 7.37289 33.4884V33.2558C7.14033 30 6.95428 26.8372 6.90777 23.5814H8.81475C8.90777 26.8372 9.04731 30.0465 9.27987 33.3488ZM6.86126 15.5349V14.8837C6.86126 13.907 6.90777 12.9302 6.95428 11.9535V11.3023C7.04731 9.16279 7.14033 6.88372 7.27986 4.55814H9.18684C9.04731 6.88372 8.95428 9.16279 8.86126 11.3023V11.9535C8.81475 13.1628 8.81475 14.3721 8.76824 15.4884V16.1395C8.76824 17.6744 8.76824 19.2093 8.76824 20.7907H6.86126C6.81475 18.9302 6.81475 17.2093 6.86126 15.5349ZM1.04731 6C1.09382 5.5814 1.79149 4.74419 5.69847 4.18605C5.88451 4.32558 6.07056 4.4186 6.30312 4.46512C6.16358 6.83721 6.02405 9.06977 5.97754 11.2558V11.907C5.93103 12.7442 5.93103 13.5814 5.93103 14.3721C4.53568 13.814 3.4194 13.0698 2.6287 12.186L2.58219 12.1395L2.53568 12.093C2.34963 11.907 2.16358 11.6744 2.02405 11.4419C1.0473 9.95349 0.768235 8.18605 1.04731 6ZM25.0008 39.7674C22.9078 40.3256 19.5124 40.9767 15.3729 40.9767C11.2334 40.9767 7.838 40.3256 5.74498 39.7674C5.00079 39.5814 4.34963 38.4651 3.838 36.4651C5.55893 36.9302 9.65196 37.814 15.0938 37.814C19.0938 37.814 23.0473 37.3488 26.9078 36.3721C26.2101 39.0233 25.4194 39.6279 25.0008 39.7674ZM28.1171 25.3953C27.9775 29.5349 27.652 32.8372 27.1403 35.2558C15.2799 38.3256 5.65196 35.9535 3.60545 35.3488C2.25661 28.5581 2.53568 16.6512 2.6287 13.5349C3.51242 14.2791 4.6287 14.9302 5.93103 15.3953C5.88451 17.1163 5.88451 18.8837 5.93103 20.7442H5.51242C5.09382 20.7442 4.76824 21.0698 4.76824 21.4884V22.7907C4.76824 23.2093 5.09382 23.5349 5.51242 23.5349H5.97754C6.07056 26.7907 6.2101 29.9535 6.44265 33.2093C6.44265 34.2791 7.32638 35.1628 8.39614 35.1628C9.37289 35.1628 10.1636 34.4186 10.3031 33.4884H10.3496V33.3023V33.2558V33.1628C10.1171 29.9535 9.97754 26.7907 9.88452 23.5349H10.2566C10.6752 23.5349 11.0008 23.2093 11.0008 22.7907V21.4884C11.0008 21.0698 10.6752 20.7442 10.2566 20.7442H9.838C9.838 19.2558 9.838 17.814 9.838 16.4186C11.4194 16.6512 13.3264 16.7907 15.3729 16.7907C17.4194 16.7907 19.3264 16.6512 20.9543 16.3721C20.9543 17.7674 20.9543 19.2558 20.9543 20.6977H20.5357C20.1171 20.6977 19.7915 21.0233 19.7915 21.4419V22.7442C19.7915 23.1628 20.1171 23.4884 20.5357 23.4884H20.9078C20.8147 26.7442 20.6752 29.907 20.4427 33.1163V33.2093V33.2558V33.4884H20.4892C20.6287 34.4186 21.4194 35.1163 22.3961 35.1163C23.4659 35.1163 24.3496 34.2326 24.3496 33.1628C24.5822 29.907 24.7682 26.7442 24.8148 23.4884H25.2799C25.6985 23.4884 26.0241 23.1628 26.0241 22.7442V21.4419C26.0241 21.0233 25.6985 20.6977 25.2799 20.6977H24.8613C24.8613 18.8837 24.8613 17.1163 24.8613 15.3953C26.1636 14.8837 27.2799 14.2791 28.1636 13.4884C28.2101 16.093 28.3031 20.7442 28.1171 25.3953ZM28.7217 11.3953C28.5822 11.6279 28.3961 11.8605 28.2101 12.0465L28.1636 12.093L28.1171 12.1395C27.3264 13.0233 26.1636 13.7674 24.7682 14.3721C24.7682 13.5349 24.7217 12.6977 24.7217 11.8605V11.2093C24.6287 9.02326 24.5357 6.83721 24.3961 4.4186C24.6287 4.37209 24.8613 4.27907 25.0473 4.13953C28.9543 4.74419 29.652 5.53488 29.6985 5.95349C29.9775 8.18605 29.6985 9.95349 28.7217 11.3953Z" fill="#DA1119"/>
</svg>
