<svg width="37" height="42" viewBox="0 0 37 42" fill="none" xmlns="http://www.w3.org/2000/svg">
<path d="M36.6897 2.35781C36.6807 2.34157 36.6698 2.32713 36.6608 2.31089C33.6457 3.44045 30.6323 4.57 27.5269 5.73384C28.6475 3.90779 29.7175 2.16473 30.7875 0.421681C30.7712 0.409051 30.7568 0.39642 30.7406 0.383789C28.9939 1.87062 27.2454 3.35925 25.4501 4.88577C25.5295 3.61547 25.6034 2.42998 25.6756 1.24449C25.6504 1.23908 25.6251 1.23186 25.5998 1.22644C24.9954 2.44261 24.3909 3.66058 23.7593 4.93449C23.5284 4.44009 23.3245 4.00522 23.1116 3.54871C22.7362 5.05539 22.3465 6.51876 22.0145 7.99656C21.9459 8.30151 22 8.73276 22.1408 9.1586L21.9297 9.38776C21.0744 10.3026 20.5818 10.9197 20.4068 12.9388C20.3725 13.3286 20.2841 13.7147 20.1469 14.0972C20.0351 14.0521 19.934 13.998 19.8185 13.9565C17.4024 13.0633 14.344 12.6447 13.689 14.4094C13.6781 14.4401 13.6836 14.4726 13.6745 14.5032C13.6727 14.5105 13.6655 14.5141 13.6637 14.5195L13.4616 14.9634C8.16028 14.9742 3.40929 18.0146 1.21874 22.8125C-0.280717 26.0947 -0.399807 29.7703 0.879514 33.1608C2.15884 36.5476 4.685 39.2452 7.99247 40.7555C9.8077 41.5837 11.7402 42.0005 13.6763 42.0005C15.266 42.0005 16.8575 41.719 18.3894 41.1543C21.7889 39.902 24.4865 37.4047 25.986 34.1207C28.2234 29.2181 27.2418 23.3773 23.5987 19.3968L23.9217 18.6858C23.929 18.6696 23.9271 18.6534 23.9326 18.6371C23.9398 18.6191 23.9542 18.6065 23.9614 18.5884C23.9614 18.5884 23.9614 18.5884 23.9614 18.5866C24.4107 17.3704 23.3371 15.8421 21.4299 14.727C21.641 14.1821 21.7943 13.6281 21.8431 13.0615C21.982 11.4556 22.2924 11.111 22.9654 10.3892C23.0538 10.4487 23.144 10.5011 23.2397 10.5317C23.6763 10.6761 24.1148 10.8331 24.5641 10.9143C25.2263 11.0334 25.8976 11.1254 26.5688 11.1633C27.7254 11.2301 28.8838 11.2463 30.0423 11.2842C30.0459 11.2553 30.0513 11.2282 30.0549 11.1994C29.1112 10.779 28.1657 10.3585 27.222 9.9381C27.2256 9.91825 27.231 9.90021 27.2346 9.88036C28.8441 9.72157 30.4537 9.56279 32.0632 9.404C32.065 9.37693 32.0668 9.34806 32.0668 9.321C30.5854 8.95109 29.1022 8.58299 27.5738 8.20227C30.6504 6.23366 33.6709 4.29573 36.6897 2.35781ZM16.1357 14.6277C16.8557 14.6277 17.9239 14.7937 19.3169 15.3098C19.371 15.3297 19.4143 15.3531 19.4667 15.373C19.0336 16.0045 18.44 16.618 17.7128 17.2189C15.7532 16.3185 14.9286 15.2178 15.0423 14.9092C15.0946 14.7721 15.4645 14.6277 16.1357 14.6277ZM21.096 21.4141C20.5114 21.6613 18.9957 21.6649 16.9928 20.9215C14.4396 19.9742 13.3912 18.684 13.4833 18.3989L14.3169 16.5657C15.1235 17.5004 16.502 18.3484 17.9961 18.9024C19.5226 19.4672 20.7947 19.7486 21.7745 19.7486C21.8052 19.7486 21.8268 19.7414 21.8557 19.7414L21.096 21.4141ZM24.6724 33.5234C23.3353 36.4538 20.9264 38.684 17.8896 39.8028C14.851 40.9197 11.5489 40.7934 8.59153 39.4419C5.63231 38.0922 3.3732 35.6797 2.22921 32.6501C1.08522 29.6223 1.19348 26.3419 2.53054 23.4116C4.39269 19.3354 8.36237 16.701 12.7922 16.434L12.1498 17.845C12.1462 17.854 12.148 17.863 12.1444 17.8721C12.1408 17.8793 12.1336 17.8847 12.1318 17.8937C12.1191 17.9262 12.1264 17.9605 12.1173 17.993C12.1047 18.0489 12.0921 18.103 12.0921 18.159C11.8034 19.7486 14.0913 21.3852 16.4912 22.2748C17.8012 22.7602 19.0589 23.0056 20.0946 23.0056C20.8867 23.0056 21.5381 22.854 21.9946 22.5617C22.0109 22.5527 22.0289 22.5509 22.0434 22.54C22.047 22.5364 22.0542 22.5364 22.0596 22.5328C22.1624 22.4625 22.231 22.3668 22.2833 22.264C22.2887 22.2531 22.3014 22.2477 22.3068 22.2369L22.9401 20.8439C25.8561 24.3841 26.585 29.3354 24.6724 33.5234ZM22.6081 18.0868C22.5305 18.2889 21.5399 18.5397 19.2249 17.7945C19.842 17.2171 20.3851 16.627 20.7821 16.0135C22.1642 16.8454 22.7218 17.7818 22.6081 18.0868ZM27.7597 9.04131C27.7597 9.05936 27.7579 9.0756 27.7579 9.09364C26.65 9.20371 25.5421 9.31197 24.4342 9.42204C24.4288 9.44369 24.4234 9.46715 24.4179 9.4888C25.0747 9.78292 25.7297 10.077 26.3866 10.3694C26.3829 10.3928 26.3793 10.4163 26.3757 10.4379C25.8344 10.3657 25.2913 10.3008 24.7518 10.2196C24.519 10.1835 24.2934 10.0987 24.0607 10.059C23.0286 9.88577 22.6677 8.94929 22.7453 8.2167C22.8319 7.39209 23.1224 6.58913 23.3281 5.76813C23.4508 6.02074 23.5807 6.28599 23.7377 6.60898C24.0643 5.9612 24.3656 5.36214 24.6688 4.76307C24.6868 4.77029 24.7066 4.77751 24.7247 4.78653C24.6904 5.35131 24.6561 5.91609 24.6182 6.55304C25.672 5.65625 26.6825 4.79736 27.6911 3.93846C27.7074 3.9547 27.7236 3.96914 27.7417 3.98538C27.1119 5.01389 26.4804 6.0424 25.7983 7.15571C27.4115 6.55304 28.9344 5.98285 30.4591 5.41266C30.4681 5.4307 30.4771 5.44875 30.4862 5.46679C28.9217 6.47184 27.3591 7.47509 25.7153 8.53067C26.4605 8.71832 27.1101 8.88072 27.7597 9.04131Z" fill="#DA1119"/>
<path d="M29.6525 4.03506C30.3255 3.66877 30.995 3.29526 31.6716 2.93618C32.3465 2.5771 33.0303 2.23968 33.6998 1.87519C33.8044 1.81745 33.8604 1.66769 33.938 1.56123C33.8062 1.50348 33.6673 1.3862 33.5464 1.40063C33.3425 1.4259 33.1296 1.50529 32.9546 1.61716C32.5107 1.90045 32.0812 2.2072 31.6518 2.51395C30.9715 3.00114 30.2985 3.49374 29.6218 3.98454C29.6327 4.00078 29.6435 4.01702 29.6525 4.03506Z" fill="#DA1119"/>
<path d="M27.6117 12.4157C27.0524 12.2569 26.4822 12.1306 26.0942 12.0332C27.2888 12.5132 28.6583 13.0707 30.0351 13.6084C30.1812 13.6662 30.3743 13.6048 30.5457 13.5976C30.5583 13.5471 30.5692 13.4966 30.5818 13.4479C30.441 13.3576 30.3129 13.2331 30.1596 13.1862C29.3151 12.9174 28.4652 12.6575 27.6117 12.4157Z" fill="#DA1119"/>
<path d="M24.4881 0C24.4069 0.0451101 24.286 0.0721761 24.2554 0.140743C24.176 0.310357 24.1092 0.496211 24.0876 0.682064C23.9847 1.5572 23.8999 2.43414 23.8169 3.24792C24.0587 2.27896 24.3131 1.2685 24.5567 0.256225C24.5711 0.182245 24.5116 0.0866113 24.4881 0Z" fill="#DA1119"/>
<path d="M4.73197 28.1055H3.28845C3.28845 34.1845 8.23432 39.1304 14.3134 39.1304V37.685C9.03006 37.685 4.73197 33.387 4.73197 28.1055Z" fill="#DA1119"/>
</svg>
