<svg width="51" height="42" viewBox="0 0 51 42" fill="none" xmlns="http://www.w3.org/2000/svg">
<path d="M14.2098 32.8943L13.1787 32.1337C13.1448 32.5293 13.0277 32.9134 12.835 33.2606C12.7899 33.3357 12.7448 33.4033 12.6997 33.4634L13.6238 34.1508L13.7928 34.2748C13.8604 34.179 13.9224 34.0832 13.9844 33.9874C14.167 33.6883 14.3037 33.3635 14.3901 33.0239L14.2098 32.8943ZM21.1065 38.0161L20.2951 37.3963C20.0072 37.7564 19.6673 38.0717 19.2865 38.3317L20.3796 39.143L20.419 39.1768C20.7692 38.8811 21.0866 38.5487 21.3657 38.1852L21.1065 38.0161ZM40.6527 33.6212C40.6527 33.593 40.6527 33.5254 40.6527 33.4352C40.6527 33.3451 40.6527 33.1591 40.6527 33.0465C40.6671 32.7142 40.6213 32.382 40.5175 32.066L40.3315 31.6829C39.7557 30.6705 38.9769 29.7881 38.0439 29.091L37.3452 28.5726L39.2722 32.5788C39.2722 32.7816 39.3173 33.3 39.3229 33.4803C39.3286 33.6606 39.3229 33.6663 39.3229 33.7282C39.3398 33.8906 39.3236 34.0548 39.2752 34.2107C39.2267 34.3667 39.1471 34.5111 39.0412 34.6354C38.9412 34.7564 38.832 34.8694 38.7144 34.9735L38.6468 35.0185C38.4288 35.1713 38.1692 35.2532 37.903 35.2532C37.6369 35.2532 37.3772 35.1713 37.1593 35.0185L28.1834 27.8627C28.0421 27.7585 27.8661 27.7128 27.692 27.7352C27.5178 27.7575 27.359 27.8462 27.2486 27.9828C27.1383 28.1193 27.0848 28.2931 27.0994 28.4681C27.114 28.643 27.1955 28.8056 27.327 28.922L34.0434 34.3311C34.7151 34.8702 35.2226 35.5865 35.5083 36.399L35.5872 36.6244C35.62 36.7203 35.6263 36.8232 35.6055 36.9224C35.5846 37.0215 35.5375 37.1132 35.4689 37.1878L35.4182 37.2386C35.2461 37.3966 35.043 37.5173 34.8219 37.593C34.6008 37.6686 34.3664 37.6976 34.1335 37.678C33.7412 37.6173 33.3719 37.454 33.063 37.2047L25.3662 30.325C25.2317 30.2039 25.0546 30.1413 24.8739 30.1508C24.6932 30.1603 24.5237 30.2412 24.4027 30.3757C24.2816 30.5102 24.219 30.6872 24.2285 30.8679C24.238 31.0486 24.3189 31.2181 24.4534 31.3392L30.8035 37.0977C30.8896 37.1735 30.9506 37.2737 30.9782 37.3851V37.4527L31.305 38.3824C31.3305 38.6536 31.3153 38.927 31.2599 39.1937L31.1641 39.3966C31.1296 39.4703 31.0794 39.5358 31.0172 39.5883C30.9549 39.6408 30.882 39.6792 30.8035 39.7008C30.4417 39.8001 30.0598 39.8002 29.698 39.7011C29.3361 39.6019 29.0076 39.4072 28.7469 39.1374L24.2731 34.6298C24.1451 34.5068 23.9744 34.4382 23.797 34.4382C23.6195 34.4382 23.4489 34.5068 23.3208 34.6298C23.1915 34.7509 23.115 34.918 23.1076 35.095C23.1002 35.272 23.1626 35.4449 23.2814 35.5764L26.972 39.7234C27.0298 39.7826 27.0739 39.8538 27.101 39.932C27.1282 40.0101 27.1378 40.0933 27.1292 40.1756C27.1206 40.2579 27.094 40.3373 27.0512 40.4081C27.0085 40.4789 26.9507 40.5395 26.8819 40.5855L26.8086 40.6362C25.9244 40.6111 25.0528 40.42 24.2393 40.0727C23.8144 39.8964 23.4085 39.6774 23.0278 39.4191C23.0028 39.4961 22.9688 39.5699 22.9264 39.6389C22.7219 39.972 22.4321 40.2443 22.0869 40.4277C23.5276 41.4458 25.2473 41.9947 27.0115 41.9997C27.1478 41.9976 27.2808 41.9566 27.3946 41.8814L27.62 41.7124C28 41.45 28.2769 41.0635 28.4032 40.6193C28.8121 40.8726 29.2695 41.0375 29.7459 41.1035C30.2224 41.1695 30.7074 41.135 31.1698 41.0024C31.4318 40.9266 31.675 40.7967 31.8837 40.621C32.0923 40.4454 32.2618 40.2279 32.3812 39.9826L32.477 39.7797C32.6232 39.4065 32.6959 39.0086 32.6911 38.6077C33.0616 38.8183 33.4657 38.9632 33.8856 39.036C34.3411 39.0915 34.8032 39.0433 35.2374 38.895C35.6716 38.7467 36.0667 38.5021 36.393 38.1795L36.4437 38.1232C36.6475 37.9059 36.7975 37.6439 36.8817 37.3582C36.9658 37.0724 36.9818 36.7709 36.9282 36.4779C37.3366 36.6271 37.7752 36.6748 38.2061 36.6169C38.637 36.559 39.0473 36.3972 39.4018 36.1455L39.4525 36.0778C39.6619 35.9129 39.851 35.7238 40.016 35.5144C40.2439 35.2578 40.4178 34.9579 40.5272 34.6326C40.6366 34.3074 40.6793 33.9633 40.6527 33.6212ZM26.217 16.6274V16.6612H27.6425C27.721 16.6505 27.8007 16.6505 27.8792 16.6612L27.1354 15.5681C27.0786 15.4849 27.0043 15.415 26.9177 15.3634C26.831 15.3119 26.7342 15.2798 26.6339 15.2695L22.1263 14.8694C21.8346 14.83 21.539 14.83 21.2473 14.8694L12.5532 16.1259L11.9898 16.2048L9.97261 16.2781L11.2967 16.9767C11.2629 17.1852 11.2235 17.3881 11.184 17.5965H12.0743H12.1475L12.587 17.5346L21.422 16.2499C21.5974 16.2221 21.7762 16.2221 21.9516 16.2499L23.0504 16.3457L26.217 16.6274ZM10.3163 31.0068L9.18941 30.6292C8.70502 30.4646 8.20113 30.3642 7.69062 30.3306C7.56869 30.322 7.44631 30.322 7.32438 30.3306H6.39468L6.68767 29.3896C6.42848 29.8216 6.15803 30.2498 5.8763 30.6743L4.94097 30.387L4.82264 30.7588C4.79152 30.86 4.78397 30.9669 4.80058 31.0714C4.81718 31.1759 4.85749 31.2752 4.91843 31.3617C4.98173 31.4516 5.06634 31.5244 5.16467 31.5736C5.263 31.6227 5.37199 31.6467 5.48188 31.6435H6.85107H7.32438C7.82075 31.6498 8.31311 31.7334 8.78372 31.8914L9.57256 32.1562L10.8741 32.5901C10.9474 32.4492 11.0319 32.2971 11.1333 32.1393C11.3305 31.8945 11.5712 31.6882 11.8433 31.5308L10.3163 31.0068ZM17.3764 35.2383L16.7791 34.7932C16.5181 35.1678 16.2115 35.5085 15.8663 35.8074L16.9932 36.6244C17.3194 36.3072 17.6173 35.9622 17.8835 35.5933L17.3764 35.2383Z" fill="#DA1119"/>
<path d="M44.3658 30.6462C44.1967 30.3926 44.0277 30.1334 43.8699 29.8743L43.1769 30.156C43.0691 30.2014 42.9744 30.2732 42.9016 30.3648C42.8287 30.4563 42.78 30.5647 42.7599 30.68C42.7599 30.7138 42.7599 30.7532 42.7599 30.787C42.7599 31.0237 42.6663 31.2507 42.4995 31.4186C42.3327 31.5864 42.1063 31.6815 41.8697 31.6829H40.292C39.7162 30.6706 38.9374 29.7882 38.0044 29.0911L37.3057 28.5727L28.8877 22.3127C27.9239 21.595 26.7736 21.1705 25.5746 21.09L23.98 20.9773C23.8866 20.9692 23.7926 20.9811 23.7042 21.0122C23.6158 21.0433 23.535 21.0928 23.4673 21.1576C23.3984 21.2206 23.3433 21.2972 23.3055 21.3825C23.2677 21.4679 23.248 21.5601 23.2475 21.6535C23.2478 22.6831 22.8455 23.6721 22.1264 24.4091C21.4073 25.1461 20.4285 25.5726 19.3991 25.5976H19.1681C18.4413 25.1976 18.3737 24.9215 18.368 24.8877C18.3597 24.8601 18.3597 24.8307 18.368 24.8032C18.4149 24.763 18.4549 24.7154 18.4863 24.6623L19.0498 23.8059C19.4823 22.9049 19.7677 21.9404 19.895 20.9491C19.975 20.5857 20.1263 20.2418 20.34 19.9371C20.5537 19.6325 20.8257 19.3732 21.1402 19.1743L24.8703 16.8021C25.0393 16.6976 25.2351 16.6447 25.4337 16.65H27.6875C27.7661 16.6393 27.8457 16.6393 27.9242 16.65C27.9901 16.6638 28.0543 16.6846 28.1158 16.712L31.8458 18.0474C32.9146 18.4125 34.0352 18.6027 35.1646 18.6108C36.0502 18.6225 36.9344 18.5375 37.8015 18.3573C38.2484 18.279 38.6905 18.1755 39.1257 18.0474C39.0524 17.698 38.9904 17.343 38.9285 16.9937L40.523 16.1541C40.4218 16.1418 40.319 16.1554 40.2244 16.1936L39.3905 16.5148C38.7974 16.7548 38.1847 16.9433 37.5593 17.0782C36.7757 17.2426 35.9764 17.3201 35.1758 17.3092C34.1912 17.2928 33.2155 17.1197 32.2853 16.7965L28.5722 15.5231C28.2846 15.4039 27.9763 15.3426 27.665 15.3428H25.4112C24.9624 15.3422 24.5227 15.4692 24.1434 15.709L23.0672 16.357L20.4134 18.0474C19.9446 18.3423 19.5389 18.7272 19.2198 19.1798C18.9006 19.6324 18.6743 20.1437 18.554 20.6843C18.5513 20.7011 18.5513 20.7182 18.554 20.735C18.4541 21.55 18.2338 22.3456 17.9004 23.0959L17.3989 23.896C17.2591 24.0557 17.1547 24.2433 17.0925 24.4462C17.0304 24.6492 17.0119 24.863 17.0383 25.0736C17.1284 25.7554 17.6862 26.3696 18.6892 26.8879C18.7662 26.9285 18.8504 26.9534 18.9371 26.9612C18.9371 26.9612 19.123 26.9612 19.4273 26.9612C20.6895 26.9342 21.9007 26.4582 22.8435 25.6186C23.7863 24.779 24.3991 23.6309 24.5716 22.3803L25.4901 22.4479C26.43 22.5107 27.3319 22.8433 28.0876 23.4058L37.1987 30.1842C38.0529 30.8227 38.7505 31.6474 39.2384 32.5957C39.2537 32.6189 39.2669 32.6434 39.2778 32.669C39.3337 32.7826 39.4204 32.8782 39.528 32.9449C39.6356 33.0117 39.7597 33.0469 39.8863 33.0465H41.8753C42.249 33.0458 42.6166 32.9523 42.9451 32.7742C43.2736 32.5962 43.5527 32.3393 43.7573 32.0266C43.913 31.7965 44.0222 31.5381 44.0784 31.266L45.6505 30.6124C45.7462 30.5744 45.832 30.5151 45.9014 30.4389C45.9707 30.3628 46.0217 30.2718 46.0505 30.1729L44.3658 30.6462Z" fill="#DA1119"/>
<path d="M12.5533 16.1271C12.5032 16.0779 12.4463 16.0361 12.3842 16.0032L7.33568 13.3549C7.25175 13.3093 7.15903 13.2821 7.06374 13.2752C6.96845 13.2683 6.87278 13.2818 6.78315 13.3149C6.69351 13.348 6.61198 13.3998 6.54402 13.467C6.47606 13.5341 6.42323 13.615 6.38908 13.7043L0.0614891 29.6613C0.0209733 29.7497 0 29.8458 0 29.943C0 30.0403 0.0209733 30.1364 0.0614891 30.2248C0.10448 30.3103 0.164725 30.386 0.238428 30.4471C0.31213 30.5082 0.39769 30.5533 0.489714 30.5797L5.96085 32.1067C6.09763 32.1421 6.24194 32.1352 6.37472 32.0869C6.5075 32.0386 6.62253 31.9512 6.70461 31.8362L6.80604 31.6841C7.10467 31.2502 7.36949 30.8051 7.66812 30.3543C10.1102 26.4142 11.785 22.0477 12.604 17.4851C12.6547 17.2202 12.6998 16.961 12.7392 16.6962C12.7523 16.5935 12.7424 16.4892 12.7103 16.3907C12.6781 16.2923 12.6245 16.2023 12.5533 16.1271ZM6.68771 29.3627C6.42852 29.7946 6.15806 30.2229 5.87634 30.6473L4.941 30.3882L1.60535 29.4585L7.39766 14.9101L9.98955 16.2793L11.3137 16.9779C11.2799 17.1864 11.2404 17.3893 11.201 17.5977C10.4121 21.7577 8.88347 25.7424 6.68771 29.3627Z" fill="#DA1119"/>
<path d="M50.1584 29.6613L43.8308 13.7043C43.7966 13.615 43.7438 13.5341 43.6759 13.467C43.6079 13.3998 43.5264 13.348 43.4367 13.3149C43.3471 13.2818 43.2514 13.2683 43.1561 13.2752C43.0608 13.2821 42.9681 13.3093 42.8842 13.3549L37.8582 16.0032C37.7323 16.0696 37.6304 16.1738 37.5667 16.3012C37.5031 16.4285 37.4809 16.5725 37.5032 16.7131C37.5032 16.8202 37.537 16.9272 37.5596 17.0343C37.6272 17.4851 37.7117 17.9302 37.8018 18.3753C38.6977 22.7431 40.3777 26.9124 42.7602 30.6811C43.0025 31.0699 43.2561 31.4474 43.5153 31.8081C43.5736 31.8943 43.6532 31.9642 43.7463 32.0109C43.8465 32.0715 43.9617 32.1027 44.0787 32.101C44.1386 32.109 44.1992 32.109 44.259 32.101L49.7302 30.5741C49.8222 30.5477 49.9077 30.5025 49.9814 30.4415C50.0551 30.3804 50.1154 30.3047 50.1584 30.2191C50.1981 30.1315 50.2186 30.0364 50.2186 29.9402C50.2186 29.844 50.1981 29.7489 50.1584 29.6613ZM46.0395 30.174L44.3492 30.6473C44.1801 30.3938 44.0111 30.1346 43.8533 29.8754C41.5679 26.2513 39.9604 22.242 39.1091 18.0429C39.0358 17.6935 38.9738 17.3386 38.9118 16.9892L40.5064 16.1497L42.8335 14.9101L48.6371 29.4585L46.0395 30.174Z" fill="#DA1119"/>
<path d="M23.4504 36.4847C23.1676 36.3052 22.8438 36.2005 22.5094 36.1804C22.0199 36.1526 21.5314 36.2496 21.0895 36.4622L20.8191 36.5974C20.7853 36.6594 20.7571 36.7157 20.7233 36.7664C20.5849 36.985 20.4344 37.1957 20.2725 37.3975C19.9915 37.756 19.6593 38.0711 19.2865 38.3328L19.2301 38.3723C18.976 38.8837 18.8613 39.4532 18.8977 40.0232C18.9295 40.3421 19.0352 40.6492 19.2063 40.9201C19.3775 41.191 19.6094 41.4183 19.8837 41.584C20.306 41.8479 20.7944 41.9866 21.2924 41.984C21.8331 41.979 22.3632 41.8334 22.8306 41.5614C23.0315 41.4519 23.2204 41.3216 23.3941 41.1726C23.6673 40.9397 23.9029 40.666 24.0928 40.3613C24.1475 40.2706 24.1964 40.1765 24.2392 40.0795C24.4263 39.6128 24.5108 39.1112 24.4872 38.6089C24.5085 38.196 24.4246 37.7845 24.2432 37.4129C24.0619 37.0413 23.7891 36.7219 23.4504 36.4847ZM22.9264 39.6457C22.7219 39.9788 22.432 40.2511 22.0869 40.4345C21.8636 40.5675 21.6086 40.6377 21.3487 40.6377C21.0889 40.6377 20.8339 40.5675 20.6106 40.4345C20.25 40.2035 20.1598 39.8091 20.3458 39.2513L20.3796 39.1555C20.5 38.8681 20.6471 38.5927 20.8191 38.3328C20.8972 38.2177 20.9944 38.1167 21.1064 38.0342C21.2832 37.9105 21.472 37.8048 21.6699 37.7187L21.7826 37.6736C21.9602 37.595 22.1518 37.5529 22.346 37.5496C22.4853 37.5445 22.6229 37.5818 22.7405 37.6567C22.8764 37.7772 22.9812 37.9287 23.046 38.0985C23.1108 38.2682 23.1335 38.451 23.1123 38.6315V38.7103C23.1191 38.9525 23.0867 39.1941 23.0166 39.4259C22.9951 39.5024 22.9649 39.5762 22.9264 39.6457Z" fill="#DA1119"/>
<path d="M21.422 32.2131C21.0174 31.97 20.5612 31.8254 20.0904 31.7911C19.6196 31.7569 19.1473 31.8339 18.7118 32.0159C18.4687 32.1113 18.2364 32.2322 18.0187 32.3765C17.8513 32.4916 17.6948 32.6217 17.5511 32.7653C17.6011 32.8886 17.6371 33.0171 17.6581 33.1485C17.7032 33.4076 17.5511 33.6499 17.2524 34.0894L17.0271 34.4331C16.9491 34.5614 16.8644 34.6855 16.7735 34.805C16.5125 35.1796 16.2059 35.5203 15.8607 35.8192C15.8072 35.8677 15.7507 35.9129 15.6917 35.9545C15.6003 36.3647 15.5662 36.7857 15.5903 37.2053C15.595 37.3244 15.6082 37.4431 15.6297 37.5603C15.6688 37.9963 15.8044 38.4181 16.0265 38.7952C16.2487 39.1724 16.552 39.4954 16.9144 39.7409C17.3028 39.9902 17.7544 40.1232 18.2159 40.124C18.4467 40.1203 18.6759 40.0862 18.8977 40.0226C19.173 39.9488 19.438 39.8409 19.6866 39.7014C19.9195 39.5714 20.1401 39.4205 20.3458 39.2507C20.3727 39.2331 20.3973 39.2123 20.4191 39.1887C20.7692 38.893 21.0866 38.5605 21.3657 38.197C21.5084 38.0242 21.6436 37.8364 21.7713 37.6336L21.8784 37.4702C22.1247 37.0508 22.3358 36.6116 22.5095 36.1573C22.6164 35.8939 22.6957 35.6201 22.7461 35.3403C22.8508 34.7469 22.7815 34.1358 22.5465 33.5809C22.3116 33.026 21.921 32.5509 21.422 32.2131ZM19.2245 38.4111C19.1595 38.4583 19.0918 38.5016 19.0217 38.5407C18.8275 38.6857 18.5943 38.7691 18.3522 38.7801C18.1102 38.7912 17.8703 38.7294 17.6638 38.6027C17.4359 38.4358 17.2515 38.2167 17.126 37.9637C17.0005 37.7108 16.9376 37.4313 16.9425 37.149C16.9314 36.9971 16.9314 36.8445 16.9425 36.6926C16.9401 36.6777 16.9401 36.6624 16.9425 36.6475C16.9957 36.1646 17.135 35.6951 17.3539 35.2614C17.4288 35.1089 17.5116 34.9603 17.6018 34.8163C17.913 34.3339 18.2926 33.8993 18.7287 33.526C18.8088 33.473 18.8916 33.4241 18.9766 33.3795C19.2494 33.2352 19.5527 33.1579 19.8612 33.1541C20.1423 33.1505 20.4184 33.2288 20.6557 33.3795C20.9459 33.5693 21.1735 33.8406 21.3099 34.1595C21.4462 34.4783 21.4852 34.8303 21.422 35.1713C21.3628 35.4394 21.2739 35.7002 21.1572 35.9488C21.0667 36.1717 20.9613 36.3881 20.8416 36.5968C20.8078 36.6588 20.7797 36.7151 20.7459 36.7658C20.6075 36.9844 20.457 37.1951 20.2951 37.3969C20.0072 37.757 19.6673 38.0723 19.2865 38.3322L19.2245 38.4111Z" fill="#DA1119"/>
<path d="M14.4181 31.1479C14.3512 30.9704 14.2561 30.8049 14.1364 30.6577C13.9126 30.3634 13.6108 30.1376 13.2652 30.0062C12.9196 29.8747 12.5441 29.8428 12.1812 29.914C11.4729 30.1227 10.8305 30.5109 10.3162 31.0409C10.1799 31.1692 10.0589 31.3129 9.95559 31.4691C9.80226 31.7087 9.66667 31.9591 9.5499 32.2185C9.34424 32.6307 9.21808 33.078 9.17802 33.537C9.14694 33.916 9.22159 34.2963 9.39368 34.6355C9.56576 34.9747 9.82854 35.2595 10.1528 35.4583C10.4396 35.646 10.7668 35.7633 11.1075 35.8005C11.4483 35.8377 11.793 35.7938 12.1136 35.6725L12.3559 35.5654C12.7902 35.3368 13.1735 35.0224 13.4828 34.6413C13.5847 34.5261 13.6806 34.4058 13.7702 34.2807C13.8378 34.1849 13.8998 34.0892 13.9617 33.9934C14.2534 33.4963 14.4448 32.9469 14.5252 32.3763C14.588 31.9641 14.5512 31.543 14.4181 31.1479ZM13.1898 31.9537C13.1898 32.01 13.1898 32.072 13.1898 32.134C13.1559 32.5296 13.0388 32.9137 12.8461 33.2609C12.801 33.336 12.756 33.4036 12.7109 33.4637C12.5798 33.6507 12.4307 33.8243 12.2657 33.9821C12.1231 34.1257 11.9597 34.2473 11.7812 34.3427C11.6464 34.4182 11.4932 34.4546 11.3389 34.4476C11.1845 34.4406 11.0352 34.3906 10.9078 34.3033C10.7836 34.2349 10.6831 34.1304 10.6197 34.0036C10.5563 33.8768 10.533 33.7337 10.5528 33.5933C10.5925 33.2533 10.6978 32.9242 10.8627 32.6242C10.936 32.4833 11.0205 32.3312 11.1219 32.1734C11.3193 31.9154 11.5641 31.6973 11.8432 31.5311C12.0164 31.4119 12.2063 31.3189 12.4066 31.255C12.4478 31.2497 12.4894 31.2497 12.5306 31.255C12.6529 31.2577 12.7718 31.2967 12.872 31.3669C12.9723 31.4371 13.0495 31.5354 13.094 31.6494C13.1266 31.7494 13.1418 31.8542 13.1391 31.9593L13.1898 31.9537Z" fill="#DA1119"/>
<path d="M15.8382 12.3067C15.727 12.3066 15.6176 12.2793 15.5194 12.2273C15.4212 12.1752 15.3372 12.1 15.2747 12.008L11.7813 6.90314C11.6869 6.75364 11.6543 6.57333 11.6903 6.40024C11.7264 6.22716 11.8282 6.07484 11.9744 5.97542C12.1206 5.87601 12.2997 5.83727 12.4739 5.86739C12.6482 5.89751 12.8039 5.99412 12.9082 6.13684L16.4016 11.2417C16.4712 11.3442 16.5116 11.4637 16.5184 11.5874C16.5252 11.711 16.4982 11.8342 16.4403 11.9437C16.3824 12.0532 16.2957 12.1449 16.1896 12.2088C16.0835 12.2727 15.962 12.3066 15.8382 12.3067Z" fill="#DA1119"/>
<path d="M21.7262 11.1684C21.5661 11.1682 21.4111 11.1116 21.2885 11.0086C21.1659 10.9056 21.0835 10.7627 21.0557 10.605L19.4893 0.8065C19.4745 0.716598 19.4776 0.624661 19.4983 0.535939C19.519 0.447216 19.557 0.363446 19.6101 0.289411C19.6633 0.215376 19.7304 0.152526 19.8078 0.10445C19.8852 0.0563732 19.9713 0.0240117 20.0612 0.00921298C20.1511 -0.00558579 20.2431 -0.00253203 20.3318 0.0181999C20.4205 0.0389318 20.5043 0.0769359 20.5783 0.130042C20.6523 0.183149 20.7152 0.250317 20.7633 0.327713C20.8114 0.405109 20.8437 0.491216 20.8585 0.581119L22.4249 10.374C22.4394 10.4624 22.4363 10.5528 22.4158 10.64C22.3954 10.7273 22.3579 10.8096 22.3055 10.8824C22.2532 10.9551 22.1871 11.0168 22.1109 11.064C22.0347 11.1111 21.9499 11.1428 21.8615 11.1572L21.7262 11.1684Z" fill="#DA1119"/>
<path d="M33.7221 12.3058C33.5982 12.3057 33.4767 12.2719 33.3706 12.2079C33.2645 12.144 33.1779 12.0524 33.1199 11.9429C33.062 11.8334 33.035 11.7102 33.0418 11.5865C33.0486 11.4628 33.089 11.3433 33.1586 11.2409L36.6351 6.13034C36.684 6.05298 36.7479 5.98624 36.823 5.93409C36.8982 5.88194 36.9831 5.84546 37.0727 5.82681C37.1622 5.80816 37.2547 5.80773 37.3444 5.82555C37.4341 5.84336 37.5194 5.87905 37.595 5.9305C37.6707 5.98194 37.7352 6.04809 37.7847 6.12499C37.8343 6.2019 37.8679 6.28799 37.8835 6.37814C37.899 6.46829 37.8963 6.56066 37.8755 6.64974C37.8546 6.73881 37.816 6.82278 37.762 6.89664L34.2686 12.0015C34.2084 12.0922 34.1274 12.1671 34.0323 12.22C33.9372 12.273 33.8308 12.3024 33.7221 12.3058Z" fill="#DA1119"/>
<path d="M27.8285 11.1679H27.7215C27.633 11.1535 27.5483 11.1219 27.4721 11.0747C27.3959 11.0275 27.3297 10.9658 27.2774 10.8931C27.2251 10.8204 27.1876 10.738 27.1671 10.6508C27.1466 10.5635 27.1435 10.4731 27.158 10.3847L28.747 0.580591C28.7754 0.402014 28.8735 0.242029 29.0199 0.135833C29.1662 0.0296363 29.3488 -0.0140732 29.5273 0.0143199C29.7059 0.042713 29.8659 0.140883 29.9721 0.287233C30.0783 0.433584 30.122 0.616126 30.0936 0.794704L28.5047 10.5988C28.4779 10.7585 28.3952 10.9035 28.2713 11.0077C28.1474 11.112 27.9905 11.1688 27.8285 11.1679Z" fill="#DA1119"/>
</svg>
