<svg width="133" height="60" viewBox="0 0 133 60" fill="none" xmlns="http://www.w3.org/2000/svg">
<g clip-path="url(#clip0)">
<path d="M71.5127 41.0916L70.0463 36.8431H70.8449L71.8531 39.9708L72.8874 36.8301H73.5159L74.5502 39.9708L75.5583 36.8431H76.3439L74.8644 41.0916H74.236L73.2016 38.0681L72.1673 41.0916H71.5127Z" fill="#999999"/>
<path d="M77.1165 41.0639V36.8545H80.2587V37.5191H77.8627V38.6138H79.9838V39.2785H77.8627V40.4123H80.2849V41.0769H77.1165V41.0639Z" fill="#999999"/>
<path d="M81.1621 41.0639V36.8545H83.0606C83.545 36.8545 83.9116 36.9848 84.1734 37.2324C84.3567 37.4149 84.4615 37.6625 84.4615 37.9492C84.4615 38.3662 84.2651 38.679 83.8592 38.8875C84.4222 39.07 84.6972 39.4218 84.6972 39.917C84.6972 40.2819 84.5531 40.5687 84.2782 40.7772C83.9901 40.9726 83.6105 41.0769 83.1391 41.0769H81.1621V41.0639ZM81.8953 38.6269H82.9165C83.1653 38.6269 83.3617 38.5747 83.5057 38.4835C83.6497 38.3793 83.7152 38.2359 83.7152 38.0535C83.7152 37.884 83.6497 37.7537 83.5188 37.6625C83.3879 37.5713 83.2046 37.5191 82.9689 37.5191H81.8953V38.6269ZM81.8953 40.3992H83.126C83.3879 40.3992 83.5843 40.3471 83.7283 40.2428C83.8723 40.1386 83.9378 39.9952 83.9378 39.7998C83.9378 39.4218 83.6497 39.2394 83.0606 39.2394H81.8822V40.3992H81.8953Z" fill="#999999"/>
<path d="M85.3256 39.5654V38.8486H87.1193V39.5654H85.3256Z" fill="#999999"/>
<path d="M89.4759 41.1161C88.8082 41.1161 88.219 40.8945 87.7084 40.4384L88.1535 39.9041C88.5725 40.269 89.0176 40.4514 89.489 40.4514C89.7246 40.4514 89.8949 40.3993 90.0389 40.3081C90.1698 40.2038 90.2353 40.0735 90.2353 39.9171C90.2353 39.7607 90.1698 39.6304 90.0389 39.5392C89.9079 39.448 89.6592 39.3567 89.2795 39.2655C88.782 39.1482 88.4285 39.0049 88.2059 38.8224C87.9833 38.64 87.8655 38.3663 87.8655 38.0014C87.8655 37.6365 87.9964 37.3498 88.2714 37.1152C88.5463 36.8937 88.8867 36.7764 89.3057 36.7764C89.8818 36.7764 90.3924 36.9588 90.8375 37.3107L90.4447 37.8711C90.052 37.5844 89.6723 37.441 89.2926 37.441C89.0831 37.441 88.9129 37.4931 88.782 37.5844C88.651 37.6756 88.5987 37.8059 88.5987 37.9493C88.5987 38.1187 88.6641 38.236 88.7951 38.3272C88.926 38.4184 89.2009 38.5096 89.5937 38.6009C90.0651 38.7182 90.4055 38.8615 90.628 39.057C90.8506 39.2394 90.9554 39.5131 90.9554 39.852C90.9554 40.2429 90.8113 40.5427 90.5364 40.7772C90.3007 41.0118 89.9341 41.1161 89.4759 41.1161Z" fill="#999999"/>
<path d="M92.9063 41.0642V37.5325H91.5577V36.8418H94.988V37.5325H93.6395V41.0642H92.9063Z" fill="#999999"/>
<path d="M97.528 41.129C96.965 41.129 96.5329 40.9727 96.2056 40.6599C95.8914 40.3471 95.7212 39.878 95.7212 39.2785V36.8545H96.4675V39.2524C96.4675 39.6434 96.5591 39.9301 96.7555 40.1386C96.9388 40.3471 97.2007 40.4514 97.5411 40.4514C97.8815 40.4514 98.1303 40.3471 98.3267 40.1516C98.51 39.9561 98.6016 39.6564 98.6016 39.2785V36.8545H99.3479V39.2394C99.3479 39.8519 99.1908 40.321 98.8635 40.6469C98.5361 40.9596 98.091 41.129 97.528 41.129Z" fill="#999999"/>
<path d="M100.369 41.0639V36.8545H101.953C102.608 36.8545 103.158 37.05 103.577 37.454C103.996 37.858 104.205 38.3532 104.205 38.9657C104.205 39.5652 103.996 40.0734 103.577 40.4644C103.158 40.8684 102.621 41.0639 101.953 41.0639H100.369ZM101.115 40.3862H101.953C102.399 40.3862 102.752 40.2559 103.014 39.9822C103.289 39.7216 103.42 39.3697 103.42 38.9527C103.42 38.5356 103.289 38.1968 103.014 37.9231C102.739 37.6495 102.385 37.5191 101.953 37.5191H101.115V40.3862Z" fill="#999999"/>
<path d="M105.135 41.0639V36.8545H105.881V41.0639H105.135Z" fill="#999999"/>
<path d="M110.621 40.4905C110.202 40.9206 109.665 41.1291 109.037 41.1291C108.408 41.1291 107.871 40.9206 107.452 40.5036C107.033 40.0865 106.824 39.5652 106.824 38.9527C106.824 38.3533 107.033 37.832 107.452 37.4149C107.871 36.9849 108.408 36.7764 109.037 36.7764C109.665 36.7764 110.202 36.9849 110.621 37.4019C111.04 37.8189 111.249 38.3402 111.249 38.9527C111.249 39.5522 111.04 40.0735 110.621 40.4905ZM108.015 40.0083C108.29 40.295 108.631 40.4384 109.05 40.4384C109.469 40.4384 109.809 40.295 110.071 40.0083C110.333 39.7216 110.477 39.3698 110.477 38.9397C110.477 38.5227 110.346 38.1708 110.071 37.8711C109.796 37.5844 109.455 37.441 109.037 37.441C108.618 37.441 108.277 37.5844 108.015 37.8711C107.753 38.1578 107.609 38.5096 107.609 38.9397C107.609 39.3698 107.74 39.7216 108.015 40.0083Z" fill="#999999"/>
<path d="M113.711 41.0642V40.4778L115.164 39.2397C115.465 38.9921 115.675 38.7836 115.779 38.6272C115.897 38.4708 115.95 38.2884 115.95 38.1059C115.95 37.9105 115.884 37.741 115.753 37.6238C115.622 37.5065 115.465 37.4413 115.269 37.4413C115.085 37.4413 114.915 37.4934 114.771 37.5977C114.627 37.702 114.47 37.8583 114.287 38.0799L113.763 37.6759C113.986 37.3761 114.208 37.1416 114.431 37.0112C114.653 36.8809 114.955 36.8027 115.321 36.8027C115.74 36.8027 116.067 36.92 116.329 37.1546C116.591 37.3892 116.722 37.6889 116.722 38.0799C116.722 38.2493 116.696 38.3927 116.657 38.523C116.617 38.6533 116.539 38.7836 116.447 38.9139C116.342 39.0443 116.238 39.1746 116.12 39.2788C116.002 39.3831 115.832 39.5265 115.622 39.7089L114.745 40.4257H116.761V41.0773H113.711V41.0642Z" fill="#999999"/>
<path d="M117.534 41.0642V40.2432H118.332V41.0642H117.534Z" fill="#999999"/>
<path d="M120.938 41.1291C120.388 41.1291 119.943 40.9206 119.602 40.5036C119.262 40.0865 119.092 39.5652 119.092 38.9527C119.092 38.3402 119.262 37.8189 119.602 37.4019C119.943 36.9849 120.388 36.7764 120.938 36.7764C121.488 36.7764 121.92 36.9849 122.26 37.4019C122.601 37.8189 122.771 38.3402 122.771 38.9527C122.771 39.5652 122.601 40.0865 122.26 40.5036C121.92 40.9206 121.475 41.1291 120.938 41.1291ZM120.165 40.0214C120.362 40.3081 120.624 40.4514 120.951 40.4514C121.278 40.4514 121.527 40.3081 121.723 40.0214C121.92 39.7347 122.012 39.3698 122.012 38.9397C122.012 38.5096 121.907 38.1578 121.71 37.8711C121.514 37.5844 121.252 37.441 120.925 37.441C120.597 37.441 120.349 37.5844 120.152 37.8711C119.956 38.1578 119.864 38.5227 119.864 38.9527C119.864 39.3828 119.969 39.7347 120.165 40.0214Z" fill="#999999"/>
<path d="M66.2102 31.1079C64.351 31.1079 62.8191 30.5345 61.6015 29.3877C60.3839 28.2409 59.7816 26.7813 59.7816 24.9959C59.7816 23.2756 60.3839 21.816 61.6015 20.6431C62.806 19.4702 64.3248 18.8838 66.1447 18.8838C68.017 18.8838 69.6143 19.4572 70.9367 20.591L69.012 22.8977C68.1217 22.1549 67.1659 21.79 66.1578 21.79C65.3068 21.79 64.5867 22.1027 64.0106 22.7283C63.4345 23.3538 63.1465 24.1227 63.1465 25.048C63.1465 25.9993 63.4476 26.7813 64.0499 27.3938C64.6521 28.0063 65.4246 28.306 66.3542 28.306C67.1136 28.306 67.7551 28.1496 68.2396 27.8238V26.3903H65.909V24.0054H71.3425V29.2965C69.8762 30.4954 68.161 31.1079 66.2102 31.1079Z" fill="#22201C"/>
<path d="M73.1755 30.8722V19.1172H82.6809V21.893H76.4225V23.6784H82.0917V26.2458H76.4225V28.1094H82.7726V30.8852H73.1755V30.8722Z" fill="#22201C"/>
<path d="M84.4222 30.8722V19.1172H87.6954V23.887L91.7673 19.1172H95.6558L91.1781 24.1737L95.7999 30.8722H91.872L88.9 26.4934L87.6954 27.8227V30.8591H84.4222V30.8722Z" fill="#22201C"/>
<path d="M99.636 30.8722V21.9712H96.0879V19.1172H106.457V21.9712H102.909V30.8722H99.636Z" fill="#22201C"/>
<path d="M118.372 29.3219C117.154 30.5078 115.635 31.1073 113.829 31.1073C112.022 31.1073 110.503 30.5209 109.298 29.3349C108.094 28.149 107.479 26.7024 107.479 24.9952C107.479 23.288 108.094 21.8545 109.312 20.6555C110.529 19.4696 112.048 18.8701 113.855 18.8701C115.661 18.8701 117.18 19.4566 118.385 20.6425C119.589 21.8284 120.205 23.275 120.205 24.9822C120.205 26.6894 119.602 28.136 118.372 29.3219ZM113.868 28.162C114.758 28.162 115.478 27.8493 116.041 27.2368C116.604 26.6242 116.879 25.8684 116.879 24.9822C116.879 24.109 116.591 23.3662 116.015 22.7407C115.439 22.1151 114.719 21.8023 113.842 21.8023C112.964 21.8023 112.244 22.1151 111.694 22.7276C111.131 23.3401 110.856 24.096 110.856 24.9822C110.856 25.8553 111.144 26.5982 111.707 27.2237C112.257 27.8493 112.991 28.162 113.868 28.162Z" fill="#22201C"/>
<path d="M121.92 30.8722V19.1172H127.511C129.226 19.1172 130.509 19.5342 131.36 20.3813C132.054 21.072 132.407 22.0103 132.407 23.1702C132.407 24.8904 131.595 26.1024 129.972 26.7801L132.787 30.8852H129.003L126.62 27.3274H125.18V30.8852H121.92V30.8722ZM125.193 24.7471H127.353C127.903 24.7471 128.335 24.6168 128.65 24.3691C128.964 24.1215 129.108 23.7697 129.108 23.3135C129.108 22.8574 128.951 22.5055 128.65 22.271C128.335 22.0364 127.903 21.9191 127.34 21.9191H125.193V24.7471Z" fill="#22201C"/>
<path d="M37.1966 17.0329C37.2097 16.7723 37.1966 16.5116 37.1704 16.264C37.1049 15.7949 37.0264 15.3257 36.9478 14.8566C36.9347 14.7653 36.8823 14.6871 36.8038 14.648C35.5338 13.8922 34.2507 13.1363 32.9807 12.3804C32.9283 12.3413 32.8367 12.3023 32.876 12.2371C32.9152 12.1719 32.9938 12.2241 33.0462 12.2371L36.6598 13.0842C36.7121 13.1102 36.7645 13.1102 36.8169 13.0972C36.7907 13.0451 36.7383 13.019 36.686 12.993C34.7613 11.781 32.8367 10.569 30.912 9.35699C30.8204 9.29183 30.7157 9.27879 30.6109 9.31789C28.791 9.91737 26.9711 10.5168 25.1512 11.1294C25.0203 11.1685 24.8894 11.1685 24.7715 11.1294C22.9516 10.5299 21.1317 9.9304 19.3118 9.31789C19.2071 9.27879 19.1024 9.29183 19.0107 9.35699C17.0861 10.569 15.1614 11.781 13.2368 12.993C13.1844 13.019 13.1321 13.0581 13.0928 13.0972C13.1321 13.1102 13.1844 13.0972 13.2237 13.0842L15.8423 12.4717L16.9159 12.211C16.9551 12.198 17.0075 12.185 17.0206 12.2241C17.0337 12.2632 17.0075 12.3153 16.9682 12.3283L16.9028 12.3674C15.6721 13.0972 14.4282 13.84 13.1844 14.5698C13.0404 14.635 12.9357 14.7784 12.9095 14.9478C12.8047 15.6385 12.6607 16.3292 12.6738 17.046C12.6869 17.6845 12.6607 18.3231 12.7916 18.9617C12.8702 19.3266 12.8964 19.7045 12.988 20.0824C13.1321 20.6168 13.3154 21.125 13.551 21.6202C13.7343 22.0242 13.9307 22.4022 14.1664 22.7801C14.1926 22.8192 14.2057 22.8713 14.2711 22.8974C14.3235 22.8583 14.3628 22.8062 14.389 22.754L15.6851 20.9295C15.7244 20.8774 15.7506 20.8122 15.8292 20.8253C15.9077 20.8513 15.9077 20.9295 15.9077 20.9947V21.0598C15.8946 21.4769 15.8684 21.8939 15.8554 22.3109C15.8292 23.1711 15.7899 24.0442 15.7637 24.9043C15.7637 24.9825 15.7899 25.0477 15.8423 25.0998C16.8504 26.1163 17.8585 27.1328 18.8798 28.1493C18.906 28.1754 18.9191 28.2145 18.9845 28.2015C19.1024 28.006 19.2202 27.7975 19.3511 27.602C19.469 27.4065 19.5868 27.198 19.7177 27.0155L19.757 27.0286V28.9313C19.7439 29.0486 19.7963 29.1658 19.8879 29.244C21.5376 30.7818 23.1742 32.3327 24.8239 33.8704C24.8501 33.9095 24.9025 33.9486 24.9417 33.9617L25.0203 33.8965C26.6831 32.3327 28.3459 30.7688 30.0217 29.2049C30.0872 29.1398 30.1265 29.0616 30.1265 28.9704V27.1459C30.1265 27.1068 30.1003 27.0546 30.1658 27.0155L30.899 28.2275C30.9513 28.2015 30.9906 28.1754 31.0168 28.1363C32.0249 27.1328 33.02 26.1163 34.0281 25.1128C34.0936 25.0607 34.1198 24.9825 34.1067 24.9043C34.0805 24.357 34.0674 23.7966 34.0412 23.2492C34.015 22.5064 33.9888 21.7766 33.9627 21.0338C33.9627 20.9556 33.9496 20.8644 34.0412 20.8253C34.1329 20.7862 34.159 20.8904 34.2114 20.9426C34.6435 21.542 35.0755 22.1415 35.5076 22.754C35.5469 22.8062 35.5862 22.8453 35.6123 22.8974C35.6516 22.8713 35.6909 22.8322 35.704 22.7801C35.9397 22.4152 36.1361 22.0242 36.3194 21.6333C36.555 21.138 36.7383 20.6168 36.8824 20.0824C36.974 19.7045 37.0133 19.3266 37.0787 18.9486C37.118 18.7271 37.1573 18.4925 37.1704 18.271C37.2097 17.8539 37.1966 17.4499 37.1966 17.0329ZM26.4212 26.6637C26.395 26.6637 26.3819 26.6376 26.3427 26.5985C26.251 26.4812 26.1725 26.3639 26.0808 26.2336C25.963 26.3379 25.8582 26.4552 25.7535 26.5855C25.5833 26.781 25.4131 26.9895 25.2429 27.185C25.2429 27.198 25.2298 27.198 25.2167 27.211C25.2036 27.2241 25.2036 27.2241 25.1905 27.2371C25.1774 27.2501 25.1643 27.2501 25.1512 27.2631C25.1381 27.2631 25.125 27.2762 25.0989 27.2762C25.0858 27.2762 25.0858 27.2762 25.0727 27.2762H25.0596C24.9156 27.2762 24.7715 27.2631 24.6275 27.2762C24.549 27.2762 24.4704 27.2501 24.418 27.185C24.1824 26.8982 23.9336 26.6115 23.6979 26.3379C23.6717 26.3118 23.6456 26.2727 23.6194 26.2466C23.4753 26.39 23.3837 26.5594 23.2659 26.7158C23.1087 26.5594 22.9385 26.403 22.7945 26.2336C22.7552 26.1945 22.7422 26.1424 22.7422 26.0903V25.4647C22.7422 25.4126 22.7683 25.3605 22.8076 25.3474C22.8076 25.3474 22.8207 25.3474 22.8207 25.3344C23.4492 24.9825 24.0907 24.6437 24.7192 24.2918C24.7453 24.2788 24.7715 24.2658 24.7977 24.2527C24.8239 24.2527 24.837 24.2527 24.8632 24.2527C24.8894 24.2527 24.9286 24.2658 24.9548 24.2918C25.5833 24.6437 26.1986 24.9825 26.8271 25.3214C26.8926 25.3474 26.9318 25.4126 26.9187 25.4777V26.0642C26.9187 26.1424 26.8926 26.2206 26.8271 26.2727C26.7093 26.39 26.6045 26.4943 26.4867 26.6115C26.4736 26.6246 26.4474 26.6506 26.4212 26.6637C26.4343 26.6637 26.4212 26.6637 26.4212 26.6637ZM31.0168 18.2449C30.8989 18.4534 30.7942 18.6619 30.6895 18.8705C30.6502 18.9356 30.5978 18.9877 30.5454 19.0399C30.0217 19.4569 29.5111 19.8739 28.9874 20.291C28.9088 20.3431 28.8696 20.4343 28.8696 20.5255C28.8696 20.8644 28.935 21.1902 28.9612 21.529C28.9743 21.7636 29.0398 21.9982 29.1052 22.2197C29.1052 22.2197 29.1052 22.2197 29.1052 22.2327C29.1314 22.324 29.1576 22.4152 29.1838 22.5064C29.1969 22.5585 29.21 22.6107 29.2231 22.6498C29.2493 22.7801 29.2624 22.7801 29.1314 22.8062L27.8614 23.0798C27.7698 23.0929 27.7567 23.132 27.7698 23.2232C27.7698 23.2362 27.7698 23.2492 27.7829 23.2623C27.796 23.2753 27.8091 23.2883 27.8352 23.2883H27.9269L29.066 23.3014C29.1052 23.3014 29.1314 23.3014 29.1707 23.3144C29.21 23.3274 29.2493 23.3535 29.2624 23.3926L29.2754 23.4056C29.2754 23.4187 29.2885 23.4187 29.2885 23.4317C29.3016 23.4838 29.3016 23.536 29.2885 23.5751C29.2493 23.7705 29.1576 23.953 29.0267 24.0963C28.9743 24.1485 28.9088 24.1876 28.8303 24.1876C28.4506 24.1876 28.084 24.1094 27.7436 23.953L27.6912 23.9269C27.6388 23.9009 27.5734 23.8748 27.5603 23.9269C27.5341 23.966 27.5341 24.0051 27.5472 24.0442C27.5472 24.0442 27.5472 24.0572 27.5603 24.0572C27.5603 24.0703 27.5734 24.0833 27.5865 24.0833C27.6912 24.1745 27.7829 24.2918 27.9531 24.2918C27.9793 24.2918 28.0316 24.3309 28.0709 24.37C28.0971 24.3961 28.1102 24.4221 28.1364 24.4482C28.1364 24.4482 28.1364 24.4482 28.1364 24.4612C28.1495 24.4743 28.1495 24.5003 28.1495 24.5134C28.1233 24.6176 28.0316 24.7088 27.9269 24.7349H27.1937C27.1282 24.7349 27.0628 24.7088 27.0235 24.6437C26.958 24.5525 26.8533 24.5003 26.7354 24.5134C26.6569 24.5134 26.5914 24.5003 26.526 24.4482C26.3558 24.3439 26.1856 24.2267 26.0153 24.1224C25.8713 24.0181 25.7273 23.9009 25.5964 23.7705C25.5047 23.6923 25.4262 23.6142 25.3476 23.536C25.3214 23.5229 25.3083 23.4969 25.2952 23.4838C25.2691 23.4447 25.2691 23.4056 25.2952 23.3535C25.3476 23.2232 25.4 23.0798 25.4393 22.9495C25.4654 22.8974 25.4916 22.8453 25.5309 22.8062C25.6357 22.6889 25.7273 22.5846 25.819 22.4673C25.8713 22.4022 25.9368 22.35 26.0023 22.3109C26.4998 22.0373 26.9973 21.7506 27.4948 21.4769C27.521 21.4508 27.5472 21.4378 27.5865 21.4247C27.6388 21.4117 27.665 21.3596 27.6519 21.3075C27.6519 21.2944 27.6519 21.2814 27.6519 21.2814V21.2684C27.6388 21.2423 27.5996 21.2423 27.5734 21.2293C27.4163 21.1771 27.2461 21.138 27.089 21.138C26.8009 21.125 26.4998 21.1771 26.251 21.3205C25.8451 21.529 25.4262 21.7245 25.0072 21.92C24.9156 21.9721 24.8108 21.9721 24.7323 21.92C24.2085 21.6724 23.6979 21.4247 23.1742 21.1771C23.148 21.1511 23.1087 21.1511 23.0826 21.138C22.7814 21.1511 22.4672 21.0859 22.1661 21.2162C22.1268 21.2293 22.0744 21.2293 22.0744 21.2944C22.0744 21.3205 22.0744 21.3335 22.0875 21.3596C22.0875 21.3596 22.0875 21.3596 22.0875 21.3726C22.1006 21.3987 22.1268 21.4117 22.153 21.4247C22.5065 21.6202 22.8469 21.8157 23.2004 22.0112C23.3575 22.1024 23.5146 22.1936 23.6717 22.2718C23.8289 22.35 23.9074 22.4804 24.0252 22.5846C24.0907 22.6498 24.1562 22.728 24.1954 22.7931C24.2609 22.8974 24.3133 23.0147 24.3526 23.132C24.3787 23.1971 24.4049 23.2753 24.4311 23.3405C24.4573 23.3926 24.4442 23.4578 24.3918 23.4969C24.1169 23.7445 23.8681 24.0181 23.5277 24.2136C23.4361 24.2658 23.3444 24.3179 23.2659 24.383C23.1611 24.4743 23.0302 24.5134 22.8993 24.5003C22.8207 24.4873 22.7683 24.5394 22.7291 24.5916C22.6636 24.6698 22.5589 24.7219 22.4541 24.7088H21.7995C21.7078 24.6958 21.6424 24.6437 21.6031 24.5655C21.6031 24.5525 21.59 24.5394 21.59 24.5264C21.59 24.5134 21.5769 24.5003 21.5769 24.4873C21.6031 24.383 21.6816 24.2918 21.7864 24.2658C21.9435 24.2658 22.0351 24.1354 22.1399 24.0442C22.1661 24.0181 22.1792 23.979 22.1661 23.94C22.1661 23.94 22.1661 23.9269 22.153 23.9269V23.9139L22.1399 23.9009C22.1006 23.8618 22.0482 23.8748 22.009 23.9009C21.7995 24.0312 21.5638 24.0442 21.3412 24.1094C21.171 24.1485 21.0008 24.1615 20.8306 24.1485C20.7913 24.1485 20.752 24.1354 20.7259 24.1094C20.6735 24.0572 20.6211 23.9921 20.5818 23.94C20.5426 23.8878 20.5164 23.8227 20.4902 23.7575C20.4902 23.7445 20.4771 23.7184 20.4771 23.7054V23.6923C20.464 23.6663 20.464 23.6402 20.4509 23.6141C20.4509 23.6141 20.4509 23.6142 20.4509 23.6011C20.4509 23.5881 20.4378 23.5751 20.4378 23.562C20.4247 23.5229 20.4116 23.4838 20.4247 23.4447C20.4378 23.3274 20.5426 23.2492 20.6604 23.2753C21.0532 23.2623 21.446 23.2623 21.8387 23.2623C21.9173 23.2623 21.9435 23.2362 21.9435 23.158C21.9435 23.145 21.9435 23.1189 21.9304 23.1189V23.1059C21.9173 23.0798 21.8911 23.0668 21.8518 23.0668C21.4591 22.9886 21.0794 22.9104 20.6866 22.8192L20.5688 22.7931C20.5033 22.7801 20.4771 22.7671 20.4771 22.741C20.4771 22.728 20.4771 22.7019 20.4902 22.6498C20.5295 22.5064 20.5557 22.3631 20.608 22.2327C20.6997 21.92 20.7651 21.5942 20.7913 21.2553C20.8306 21.0077 20.8568 20.7601 20.8568 20.4995C20.8568 20.4734 20.8568 20.4604 20.8568 20.4343C20.8568 20.4213 20.8568 20.4082 20.8437 20.3952C20.8437 20.3822 20.8306 20.3691 20.8175 20.3561C20.8044 20.33 20.7782 20.317 20.752 20.291C20.2283 19.8739 19.7046 19.4569 19.1809 19.0268C19.1285 18.9877 19.0762 18.9356 19.0369 18.8835C19.0369 18.8835 19.0369 18.8835 19.0369 18.8705C18.9845 18.7662 18.9322 18.6619 18.8798 18.5577C18.8274 18.4534 18.775 18.3492 18.7096 18.2319C18.7096 18.2188 18.6965 18.2188 18.6965 18.2058V18.1928C18.6834 18.1406 18.6965 18.0885 18.7489 18.0494C19.0238 17.7627 19.2988 17.476 19.5737 17.2023C19.7177 17.085 19.8748 16.9678 20.0319 16.8765C20.0712 16.8635 20.1105 16.8505 20.1498 16.8505C20.3724 16.8374 20.5949 16.8765 20.8044 16.9678C20.8437 16.9808 20.883 17.0069 20.9092 17.046C20.9092 17.059 20.9223 17.072 20.9223 17.085C20.9223 17.0981 20.9353 17.1111 20.9353 17.1241C20.9746 17.2936 21.0139 17.463 21.0532 17.6194C21.0532 17.6454 21.0663 17.6585 21.0663 17.6715C21.0663 17.6845 21.0794 17.6976 21.0925 17.7236C21.1186 17.7627 21.1317 17.7888 21.171 17.8148C21.3543 17.9843 21.5245 18.1537 21.6947 18.3361C21.7471 18.4013 21.8387 18.4404 21.9173 18.4274H22.4148C22.4803 18.4274 22.5065 18.4274 22.5327 18.4404C22.5589 18.4534 22.5589 18.4925 22.5589 18.5577V19.3526C22.5589 19.4178 22.5719 19.4699 22.5981 19.5221C22.5981 19.5351 22.6112 19.5481 22.6243 19.5612C22.7291 19.7436 22.8207 19.9261 22.9124 20.1085C22.9124 20.1085 22.9124 20.1085 22.9124 20.1215C22.9647 20.1997 23.0695 20.2388 23.1611 20.1997C23.2004 20.1737 23.1873 20.1346 23.1873 20.1085V19.7306C23.1873 19.4308 23.2004 19.1311 23.1873 18.8314C23.1742 18.7141 23.2266 18.5968 23.3182 18.5186C23.4884 18.3752 23.6586 18.2188 23.8027 18.0625C23.986 17.867 24.13 17.6324 24.1169 17.3457V17.072L24.0776 17.059C23.9729 17.1763 23.8812 17.3066 23.8027 17.4369C23.6979 17.5672 23.5932 17.6845 23.5015 17.8279C23.4492 17.9061 23.3575 17.9452 23.2659 17.9321C23.1087 17.9191 23.0564 17.9061 23.0302 17.8279C23.0171 17.7888 23.004 17.7497 22.9909 17.6845C22.9516 17.5151 22.9124 17.3457 22.8731 17.1893C22.8731 17.1632 22.86 17.1372 22.8469 17.1241C22.8338 17.0981 22.8076 17.072 22.7814 17.059C22.2053 16.7592 21.6424 16.4595 21.0663 16.1598C20.8044 16.0294 20.5426 15.8861 20.2807 15.7558C20.2414 15.7427 20.2152 15.7167 20.2022 15.6776C20.1891 15.6515 20.1891 15.6385 20.1891 15.6124V14.3744C20.1891 14.3092 20.2152 14.2571 20.2676 14.218C20.9353 13.6967 21.6031 13.1884 22.2708 12.6672C22.3363 12.602 22.4279 12.602 22.5065 12.6411C23.0171 12.9148 23.5277 13.1884 24.0514 13.4621C24.3002 13.5924 24.5359 13.7228 24.7846 13.8531C24.8501 13.8922 24.9548 13.8922 25.0203 13.8531C25.3607 13.6706 25.7142 13.4882 26.0546 13.3057C26.4736 13.0842 26.8926 12.8626 27.2984 12.6411C27.3639 12.602 27.4556 12.602 27.5079 12.6672C28.1757 13.1884 28.8434 13.7097 29.5111 14.218C29.5373 14.231 29.5504 14.2571 29.5635 14.2701C29.5766 14.2831 29.5766 14.2962 29.5897 14.3092C29.6028 14.3483 29.6159 14.3744 29.6028 14.4135C29.6028 14.8044 29.6028 15.1824 29.6028 15.5733C29.6159 15.6645 29.5635 15.7427 29.4718 15.7818C28.6601 16.1989 27.8352 16.6289 27.0235 17.059C26.9711 17.085 26.9318 17.1372 26.9187 17.2023C26.8664 17.4108 26.814 17.6194 26.7747 17.8409C26.7747 17.893 26.7224 17.9321 26.67 17.9321C26.3688 17.9712 26.3688 17.9712 26.1856 17.7236C26.0415 17.5412 25.8975 17.3457 25.7535 17.1632C25.7404 17.1372 25.7273 17.0981 25.6618 17.1111C25.6618 17.3457 25.6357 17.5672 25.7404 17.7888C25.7535 17.8279 25.7797 17.8539 25.8059 17.893C25.819 17.9191 25.8451 17.9582 25.8713 17.9843C26.0153 18.1797 26.1986 18.3361 26.3819 18.5055L26.395 18.5186C26.4474 18.5446 26.4867 18.5837 26.526 18.6359C26.5391 18.6489 26.5521 18.675 26.5521 18.688C26.5652 18.701 26.5652 18.7141 26.5783 18.7401C26.6045 18.8183 26.6176 18.8965 26.6176 18.9747C26.6045 19.3657 26.6176 19.7566 26.6176 20.1476C26.6176 20.1737 26.6045 20.2128 26.6176 20.2388C26.6176 20.2519 26.6438 20.2649 26.67 20.2649C26.7485 20.2649 26.8271 20.304 26.8795 20.1997C26.9842 19.9912 27.102 19.7697 27.2199 19.5612C27.2461 19.509 27.2461 19.4569 27.2461 19.4048V18.6098C27.2461 18.4665 27.2461 18.4665 27.3901 18.4665H27.9138C27.9662 18.4665 28.0316 18.4534 28.0709 18.4143C28.2804 18.2058 28.4768 17.9843 28.6994 17.8018C28.7386 17.7758 28.7386 17.7367 28.7386 17.6976C28.7779 17.5151 28.8303 17.3327 28.8696 17.1502C28.8827 17.1111 28.8827 17.059 28.935 17.046C29.0921 16.9808 29.2493 16.9417 29.4064 16.9026C29.7337 16.8505 29.9694 17.0459 30.1919 17.2284C30.4931 17.5021 30.768 17.8148 31.0561 18.1146C31.0561 18.1146 31.0692 18.1276 31.0692 18.1406L31.0822 18.1537C31.043 18.1667 31.043 18.2058 31.0168 18.2449Z" fill="#22201C"/>
<path d="M23.9598 43.8792L19.7963 51.0599H19.7701H19.757C19.7439 51.0338 19.7178 51.0078 19.7047 50.9817L15.5804 43.9052C15.7114 43.8531 23.5932 43.8401 23.9598 43.8792ZM29.1446 51.6463L25.0072 44.5308C24.9941 44.5178 24.9811 44.4917 24.968 44.4787H24.9549H24.9287L20.7652 51.6594C21.1972 51.6985 29.0136 51.6854 29.1446 51.6463ZM30.1396 51.099L34.3293 43.8661H25.9368L30.1396 51.099ZM29.1446 52.7801H20.7652L24.968 59.9999L29.1446 52.7801Z" fill="#FFAE01"/>
<path d="M36.2801 24.8526L40.4567 17.6328L44.6464 24.8396C44.5154 24.8787 36.699 24.8917 36.2801 24.8526ZM4.20278 42.1854L8.39247 34.9525H0L4.20278 42.1854ZM45.6676 42.1854L49.8573 34.9525H41.4648L45.6676 42.1854ZM13.5641 42.7197L9.37442 35.5129L5.19783 42.7327C5.62989 42.7718 13.4332 42.7588 13.5641 42.7197ZM9.36133 17.6719C9.20422 17.8804 5.23711 24.7484 5.21092 24.8657H13.5379C13.4856 24.7093 9.46607 17.7892 9.36133 17.6719ZM18.7488 34.9525H10.3695L14.5723 42.1854L18.7488 34.9525ZM31.0953 34.9525L35.2981 42.1854L39.4878 34.9525H31.0953ZM36.2932 42.7458H44.6856L40.4828 35.5129L36.2932 42.7458ZM13.5641 25.9864H5.18474L9.38752 33.2062L13.5641 25.9864ZM44.6594 25.9864H36.2801L40.4828 33.2062L44.6594 25.9864ZM4.18969 26.5338L0 33.7666H8.37937L4.18969 26.5338ZM18.7488 33.7536L14.5461 26.5338L10.3695 33.7536H18.7488ZM31.0953 33.7536H39.4747L35.2719 26.5338L31.0953 33.7536ZM49.8442 33.7536L45.6414 26.5338L41.4648 33.7536H49.8442ZM20.752 34.9004L24.9548 42.1202L29.1314 34.9004H20.752ZM23.9336 42.6806C23.855 42.4851 19.8355 35.565 19.7439 35.4869L15.5804 42.6806H23.9336ZM30.1265 35.4608L25.9499 42.6806H34.3292L30.1265 35.4608Z" fill="#22201C"/>
<path d="M15.5804 3.41415C15.8815 3.45325 16.1172 3.50538 16.3136 3.53144C16.8635 3.60963 17.2694 3.70086 17.3872 3.72692C17.5836 3.76602 17.7407 3.80512 17.9633 3.85724C18.7488 4.06576 18.9976 4.22214 18.9976 4.22214C19.0369 4.23518 19.0762 4.24821 19.1154 4.28731C19.1416 4.31337 19.1678 4.35247 19.1678 4.39156C19.1678 4.41763 19.1547 4.44369 19.1416 4.46976C19.1023 4.50885 19.0631 4.53492 19.0107 4.53492C18.9452 4.56098 18.8798 4.60008 18.8274 4.63917C18.6441 4.78253 18.5786 5.03014 18.6703 5.23865C18.775 5.43413 18.906 5.62962 19.0631 5.786C19.2333 5.98148 19.4166 6.09877 19.6915 6.04665C19.8093 6.02058 19.9403 6.07271 20.0581 5.98148C20.2414 5.83813 20.4116 5.70781 20.4902 5.48626C20.5556 5.29078 20.5949 5.08227 20.5949 4.86072C20.5818 4.17002 20.5949 3.46628 20.608 2.77558C20.6735 2.99712 20.752 3.20564 20.7913 3.42718C20.8568 3.70086 20.9615 3.9615 21.0924 4.20911C21.1972 4.40459 21.3019 4.60008 21.4329 4.79556C21.5245 4.92588 21.6292 5.04317 21.7471 5.16046C22.0613 5.47323 22.5196 5.59052 22.9516 5.4602C23.0171 5.44717 23.0825 5.40807 23.1349 5.36897C23.3968 5.16046 23.567 4.86072 23.6063 4.52188C23.6455 4.31337 23.5408 4.11789 23.3575 4.01363C23.2658 3.9615 23.1611 3.92241 23.0564 3.89634C22.9909 3.88331 22.9254 3.87028 22.86 3.84421C22.8207 3.83118 22.7683 3.81815 22.7552 3.76602C22.7421 3.71389 22.7945 3.67479 22.8338 3.64873C23.4753 3.25777 23.8943 2.67132 24.274 2.04578C24.4442 1.78513 24.5751 1.49843 24.693 1.21172C24.7846 0.97714 24.8632 0.729529 24.9024 0.49495C24.9024 0.429789 24.9155 0.364629 24.9417 0.3125C24.981 0.3125 24.9941 0.338564 24.9941 0.364629C25.0596 0.781657 25.1905 1.19869 25.3738 1.57662C25.6749 2.18913 26.0677 2.76254 26.539 3.24473C26.67 3.37506 26.8271 3.49234 26.9842 3.5966C27.0104 3.60963 27.0366 3.62267 27.0627 3.64873C27.1151 3.67479 27.1675 3.70086 27.1544 3.76602C27.1413 3.83118 27.0758 3.84421 27.0235 3.85724C26.8794 3.89634 26.7485 3.93544 26.6176 3.98757C26.4212 4.05273 26.2772 4.23518 26.2903 4.44369C26.2903 4.62614 26.3426 4.82162 26.4343 4.97801C26.5259 5.12136 26.6307 5.25168 26.7616 5.35594C26.9187 5.4602 27.102 5.51233 27.2853 5.4993C27.5603 5.51233 27.8221 5.4211 28.0447 5.25168C28.2673 5.06923 28.4637 4.84769 28.5946 4.60008C28.7648 4.3264 28.9088 4.03969 29.0136 3.73996C29.0921 3.49234 29.1576 3.24473 29.2231 2.99712C29.2361 2.94499 29.2623 2.89287 29.2754 2.81467C29.3016 2.89287 29.3016 2.97106 29.2885 3.04925C29.2885 3.72692 29.2754 4.40459 29.3016 5.08227C29.3016 5.4211 29.4718 5.74691 29.7468 5.95542C29.8384 6.03361 29.9563 6.07271 30.061 6.05968C30.205 6.05968 30.3359 6.05968 30.48 6.05968C30.5585 6.05968 30.624 6.03361 30.6764 5.98148C30.8597 5.79903 31.0168 5.61658 31.1739 5.40807C31.3441 5.14743 31.2786 4.79556 31.0299 4.62614C31.0168 4.61311 31.0037 4.61311 30.9906 4.60008C30.9251 4.56098 30.8597 4.53492 30.7942 4.49582C30.6894 4.43066 30.6894 4.3655 30.7811 4.28731C30.8466 4.23518 30.9251 4.19608 31.0168 4.17002C31.5274 3.97453 32.0511 3.81815 32.5879 3.71389C33.1378 3.5966 33.6877 3.53144 34.2376 3.44022C34.2769 3.44022 34.3161 3.44022 34.3554 3.44022C34.2114 3.50538 34.0674 3.58357 33.9365 3.67479C33.5306 3.94847 33.2294 4.31337 32.9283 4.67827C32.5879 5.10833 32.2737 5.55142 32.0118 6.03361C31.7892 6.41155 31.5928 6.80251 31.4095 7.21954C31.2262 7.6496 31.0429 8.09269 30.8335 8.50972C30.7942 8.58791 30.7287 8.64004 30.6502 8.66611C28.8041 9.25255 26.958 9.82597 25.1119 10.4124C25.0072 10.4515 24.8893 10.4385 24.7715 10.3994C22.9385 9.81294 21.1055 9.23952 19.2725 8.66611C19.1809 8.64004 19.1154 8.57488 19.0762 8.49669C18.8667 8.07966 18.6834 7.6496 18.5001 7.20651C18.3168 6.76341 18.1073 6.39851 17.8978 6.00755C17.8192 5.87723 17.7407 5.74691 17.6621 5.60355C17.3348 5.06923 16.9551 4.57401 16.5231 4.11789C16.2481 3.85724 15.947 3.62267 15.6197 3.45325C15.6197 3.45325 15.5411 3.41415 15.5411 3.40112C15.5149 3.40112 15.5542 3.40112 15.5804 3.41415Z" fill="#FEAD00"/>
<path d="M29.5112 3.8707C29.5112 4.26166 29.4981 4.6396 29.5112 5.03056C29.5112 5.27817 29.6159 5.51275 29.7992 5.66914C29.8647 5.7343 29.9563 5.77339 30.048 5.77339C30.1134 5.76036 30.192 5.76036 30.2575 5.77339C30.3884 5.78642 30.5193 5.7343 30.5848 5.63004C30.6895 5.49972 30.7943 5.3694 30.8859 5.23907C30.9906 5.12179 30.9645 4.93934 30.8466 4.83508C30.8204 4.82205 30.7943 4.79598 30.7681 4.79598C30.6895 4.75689 30.624 4.71779 30.5586 4.67869C30.3884 4.57444 30.3491 4.36592 30.4407 4.1965C30.4669 4.15741 30.4931 4.13134 30.5193 4.10528C30.624 4.01405 30.7419 3.94889 30.8859 3.9098C31.3703 3.72735 31.881 3.57096 32.3916 3.4667C33.0069 3.33638 33.6223 3.24516 34.2376 3.16696C34.3031 3.16696 34.3686 3.16696 34.4209 3.18C34.5257 3.20606 34.5912 3.28425 34.6042 3.38851C34.6173 3.49277 34.5781 3.58399 34.4864 3.63612C34.4733 3.64915 34.4471 3.66218 34.4209 3.66218C34.0413 3.81857 33.7008 4.07921 33.4259 4.39199C32.9284 4.93934 32.5094 5.53881 32.1428 6.17739C31.8679 6.67261 31.606 7.1939 31.3965 7.72821C31.2656 8.02795 31.1478 8.34072 30.9906 8.64046C30.9383 8.77079 30.8204 8.86201 30.6895 8.90111C28.8565 9.47452 27.0104 10.061 25.1775 10.6474C25.0073 10.6995 24.824 10.6995 24.6537 10.6474C22.8208 10.061 20.9878 9.47452 19.1417 8.90111C18.9977 8.86201 18.8929 8.77078 18.8275 8.62743C18.6049 8.19737 18.4216 7.74125 18.2383 7.29815C18.0681 6.88112 17.8455 6.50319 17.636 6.12526C17.5706 6.00797 17.5051 5.90371 17.4265 5.78643C17.0599 5.17391 16.6148 4.61353 16.1042 4.11831C15.9078 3.93586 15.6852 3.77947 15.4233 3.68825C15.3972 3.67522 15.371 3.66218 15.3448 3.64915C15.2531 3.59702 15.2008 3.49277 15.227 3.38851C15.24 3.28425 15.3186 3.20606 15.4103 3.19303C15.5412 3.16696 15.6721 3.16696 15.803 3.20606C16.5362 3.32335 17.2694 3.42761 17.9895 3.61006C18.3692 3.71431 18.7489 3.84464 19.1155 4.00102C19.2072 4.02708 19.2988 4.07921 19.3774 4.15741C19.4952 4.28773 19.4821 4.48321 19.3643 4.61353C19.2988 4.67869 19.2202 4.73082 19.1417 4.76992C18.8929 4.88721 18.8667 5.0045 18.9977 5.23907C19.1155 5.43456 19.2595 5.60397 19.4297 5.74733C19.4559 5.77339 19.4952 5.78643 19.5345 5.78643C19.5868 5.78643 19.6261 5.78643 19.6785 5.78643C19.7832 5.77339 19.8749 5.81249 19.9796 5.7343C20.1106 5.64307 20.2153 5.51275 20.2808 5.35636C20.3331 5.19998 20.3593 5.01753 20.3724 4.84811C20.3593 4.30076 20.3724 3.75341 20.3724 3.20606C20.3724 3.06271 20.3724 2.93238 20.3593 2.78903C20.3462 2.71084 20.3593 2.63265 20.3855 2.55445C20.4117 2.43716 20.5033 2.34594 20.6212 2.34594C20.739 2.34594 20.8307 2.42413 20.8568 2.54142C20.9223 2.78903 21.0009 3.02361 21.0532 3.27122C21.1056 3.53186 21.1973 3.77947 21.3282 4.01405C21.4722 4.33986 21.6686 4.65263 21.9174 4.91327C22.1399 5.14785 22.4673 5.25211 22.7815 5.19998C22.8862 5.18695 22.9779 5.14785 23.0564 5.06966C23.2266 4.91327 23.3314 4.71779 23.3576 4.48321C23.3707 4.32682 23.3576 4.26166 23.2135 4.18347C23.0957 4.11831 22.9648 4.07921 22.8339 4.05315C22.7684 4.04012 22.7029 4.01405 22.6375 3.97496C22.4803 3.88373 22.4411 3.67522 22.5327 3.53186C22.5458 3.51883 22.5589 3.5058 22.572 3.47973C22.6113 3.44064 22.6506 3.40154 22.7029 3.37548C22.9386 3.23212 23.1481 3.06271 23.3314 2.86722C23.8158 2.33291 24.2086 1.70736 24.4704 1.02969C24.5752 0.795113 24.6407 0.547502 24.6668 0.299892C24.6668 0.208667 24.7061 0.117442 24.7847 0.0653132C24.9025 -0.038944 25.0858 -0.0128797 25.1905 0.10441C25.2167 0.143506 25.2429 0.195635 25.256 0.234731C25.4131 1.25124 25.9237 2.07226 26.5784 2.84116C26.7617 3.06271 26.9843 3.24516 27.233 3.40154C27.2592 3.41457 27.2723 3.42761 27.2854 3.44064C27.3901 3.51883 27.4425 3.64915 27.4294 3.77947C27.4032 3.9098 27.3116 4.00102 27.1937 4.04012C27.1152 4.06618 27.0366 4.07921 26.9581 4.10528C26.8795 4.13134 26.7879 4.15741 26.7224 4.1965C26.6046 4.2356 26.526 4.36592 26.5653 4.48321C26.6046 4.73082 26.7355 4.9654 26.9319 5.12179C26.9843 5.16088 27.0366 5.18695 27.1021 5.18695C27.4163 5.25211 27.7436 5.16088 27.9793 4.93934C28.1233 4.80901 28.2412 4.66566 28.3328 4.49624C28.5685 4.11831 28.7518 3.70128 28.8696 3.27122C28.922 3.03664 29.0005 2.78903 29.066 2.55445C29.0922 2.42413 29.1969 2.33291 29.3279 2.34594C29.4457 2.35897 29.5373 2.43716 29.5635 2.55445C29.5766 2.60658 29.5766 2.67174 29.5766 2.72387C29.5243 3.11483 29.5243 3.8707 29.5112 3.8707ZM15.5543 3.41457C15.5674 3.42761 16.2613 3.84464 16.51 4.11831C16.9421 4.57444 17.3218 5.06966 17.6491 5.60397C17.7277 5.7343 17.8193 5.86462 17.8848 6.00797C18.0943 6.39894 18.3168 6.7899 18.4871 7.20693C18.6573 7.62396 18.8537 8.08008 19.0631 8.49711C19.1024 8.5753 19.1679 8.64046 19.2595 8.66653C21.0925 9.23994 22.9124 9.82639 24.7454 10.3998C24.8501 10.4389 24.968 10.4389 25.0858 10.4128C26.9188 9.82639 28.7649 9.23994 30.5979 8.66653C30.6764 8.64046 30.755 8.58834 30.7812 8.51014C30.9906 8.09311 31.1739 7.66305 31.3572 7.21996C31.5274 6.81596 31.7369 6.425 31.9595 6.03404C32.2214 5.55185 32.5225 5.09572 32.8629 4.67869C33.164 4.31379 33.4652 3.94889 33.8711 3.67522C34.002 3.58399 34.146 3.5058 34.29 3.44064C34.2507 3.44064 34.2115 3.44064 34.1722 3.44064C33.6223 3.53186 33.0724 3.59702 32.5225 3.71431C31.9857 3.81857 31.462 3.97496 30.9514 4.17044C30.8728 4.1965 30.7943 4.2356 30.7157 4.28773C30.624 4.36592 30.624 4.43108 30.7288 4.49624C30.7943 4.53534 30.8597 4.5614 30.9252 4.6005C31.2001 4.75689 31.2918 5.09572 31.1347 5.3694C31.1347 5.38243 31.1216 5.39546 31.1085 5.39546C30.9645 5.60397 30.7943 5.79946 30.624 5.96887C30.5717 6.021 30.5062 6.04707 30.4277 6.04707C30.2836 6.04707 30.1527 6.04707 30.0087 6.04707C29.8909 6.04707 29.773 6.00797 29.6945 5.94281C29.4195 5.7343 29.2624 5.40849 29.2493 5.06966C29.2231 4.39199 29.2493 3.71431 29.2362 3.03664C29.2493 2.95845 29.2493 2.88026 29.2231 2.80206C29.1969 2.88026 29.1838 2.93238 29.1708 2.98451C29.1053 3.23212 29.0529 3.49277 28.9613 3.72735C28.8434 4.02708 28.7125 4.31379 28.5423 4.58747C28.3983 4.83508 28.215 5.05662 27.9924 5.23907C27.7829 5.40849 27.5211 5.49972 27.2461 5.48669C27.0628 5.49972 26.8795 5.44759 26.7224 5.34333C26.5915 5.23907 26.4867 5.10875 26.3951 4.9654C26.3034 4.79598 26.2511 4.61353 26.2511 4.41805C26.238 4.20954 26.382 4.02708 26.5784 3.96192C26.7093 3.9098 26.8533 3.8707 26.9843 3.8316C27.0366 3.81857 27.1021 3.80554 27.1152 3.74038C27.1283 3.67522 27.0628 3.64915 27.0235 3.62309C26.9973 3.61006 26.9712 3.59702 26.945 3.57096C26.7879 3.4667 26.6308 3.34941 26.4998 3.21909C26.0285 2.72387 25.6357 2.16349 25.3346 1.55098C25.1382 1.17305 25.0073 0.769049 24.9549 0.338988C24.9549 0.312924 24.9418 0.28686 24.9025 0.28686C24.8763 0.338988 24.8632 0.404149 24.8632 0.46931C24.8109 0.71692 24.7454 0.964531 24.6537 1.19911C24.549 1.48582 24.405 1.77252 24.2348 2.03317C23.8551 2.64568 23.4361 3.24516 22.7946 3.63612C22.7553 3.66218 22.7029 3.68825 22.716 3.75341C22.7291 3.81857 22.7815 3.81857 22.8208 3.8316C22.8862 3.84464 22.9517 3.8707 23.0172 3.88373C23.1219 3.9098 23.2266 3.94889 23.3183 4.00102C23.5016 4.09225 23.6063 4.30076 23.567 4.50927C23.5278 4.84811 23.3576 5.14785 23.0957 5.35636C23.0433 5.39546 22.9779 5.43456 22.9124 5.44759C22.4934 5.57791 22.0221 5.46062 21.721 5.14785C21.6031 5.04359 21.4984 4.91327 21.4067 4.78295C21.2758 4.6005 21.1711 4.40502 21.0663 4.1965C20.9354 3.94889 20.8307 3.68825 20.7652 3.41457C20.7259 3.19303 20.6474 2.98451 20.5819 2.76297C20.5688 3.4667 20.5688 4.15741 20.5688 4.84811C20.5688 5.05662 20.5295 5.26514 20.4641 5.47365C20.3855 5.6952 20.2153 5.83855 20.032 5.96887C19.9142 6.0601 19.7963 6.021 19.6654 6.03404C19.4035 6.08616 19.2072 5.96887 19.0369 5.77339C18.8798 5.61701 18.7489 5.43456 18.6442 5.22604C18.5394 5.01753 18.6049 4.76992 18.8013 4.62656C18.8537 4.58747 18.9191 4.54837 18.9846 4.52231C19.0631 4.48321 19.1548 4.45715 19.1548 4.36592C19.1548 4.2747 19.05 4.2356 18.9715 4.1965C18.6049 4.04012 18.2383 3.9098 17.8455 3.81857C17.3349 3.68825 16.8243 3.59702 16.3006 3.51883C16.1173 3.49277 15.5543 3.38851 15.5543 3.41457Z" fill="#22201C"/>
</g>
<defs>
<clipPath id="clip0">
<rect width="132.787" height="60" fill="white"/>
</clipPath>
</defs>
</svg>
