<svg width="20" height="20" viewBox="0 0 20 20" fill="none" xmlns="http://www.w3.org/2000/svg">
<path d="M18.0938 15L14.8438 12.875C14.5179 12.6685 14.125 12.5956 13.7467 12.6712C13.3685 12.7469 13.0339 12.9653 12.8125 13.2813C12.0938 14.1875 11.1562 15.6875 7.75 12.2813C4.34375 8.87501 5.8125 7.93751 6.71875 7.18751C7.03467 6.96613 7.25315 6.63155 7.32881 6.25327C7.40446 5.875 7.33147 5.48212 7.125 5.15626L5 1.90626C4.71875 1.50001 4.34375 0.843761 3.46875 0.968761C2.59375 1.09376 0.3125 2.37501 0.3125 5.18751C0.3125 8.00001 2.53125 11.4375 5.5625 14.4688C8.59375 17.5 12.0313 19.6875 14.8125 19.6875C17.5938 19.6875 18.9375 17.1875 19.0312 16.5625C19.125 15.9375 18.5 15.2813 18.0938 15Z" fill="#121212"/>
<path d="M19.5 0.499996C19.3832 0.385479 19.2261 0.321335 19.0625 0.321335C18.8989 0.321335 18.7418 0.385479 18.625 0.499996L12.1875 6.9375V2.1875C12.1875 2.02174 12.1217 1.86276 12.0044 1.74555C11.8872 1.62834 11.7283 1.5625 11.5625 1.5625C11.3967 1.5625 11.2378 1.62834 11.1206 1.74555C11.0033 1.86276 10.9375 2.02174 10.9375 2.1875V9.0625H17.8125C17.9783 9.0625 18.1372 8.99665 18.2544 8.87944C18.3717 8.76223 18.4375 8.60326 18.4375 8.4375C18.4375 8.27174 18.3717 8.11276 18.2544 7.99555C18.1372 7.87834 17.9783 7.8125 17.8125 7.8125H13.0625L19.5 1.375C19.6145 1.25817 19.6787 1.10109 19.6787 0.937496C19.6787 0.7739 19.6145 0.616826 19.5 0.499996Z" fill="#121212"/>
</svg>
