<svg width="32" height="32" viewBox="0 0 32 32" fill="none" xmlns="http://www.w3.org/2000/svg">
<path d="M17 1H15C10.0294 1 6 5.02944 6 10V22C6 26.9706 10.0294 31 15 31H17C21.9706 31 26 26.9706 26 22V10C26 5.02944 21.9706 1 17 1Z" stroke="#DA1119" stroke-linecap="round" stroke-linejoin="round"/>
<path d="M18 10C18 10.5304 17.7893 11.0391 17.4142 11.4142C17.0391 11.7893 16.5304 12 16 12C15.4696 12 14.9609 11.7893 14.5858 11.4142C14.2107 11.0391 14 10.5304 14 10V8C14 7.46957 14.2107 6.96086 14.5858 6.58579C14.9609 6.21071 15.4696 6 16 6C16.5304 6 17.0391 6.21071 17.4142 6.58579C17.7893 6.96086 18 7.46957 18 8V10Z" stroke="#DA1119" stroke-linecap="round" stroke-linejoin="round"/>
</svg>
