<svg width="48" height="48" viewBox="0 0 48 48" fill="none" xmlns="http://www.w3.org/2000/svg">
<path fill-rule="evenodd" clip-rule="evenodd" d="M44.2115 19.3759H12.2267L42.9485 10.4762C43.1872 10.407 43.3887 10.2455 43.5088 10.028C43.6289 9.81006 43.6575 9.55371 43.5882 9.31494L41.9806 3.76501C41.3382 1.54834 39.2743 0 36.9613 0C36.4739 0 35.9883 0.0692138 35.5173 0.205444L6.67271 8.56128C5.33861 8.94763 4.23302 9.83459 3.55882 11.0581C2.88499 12.2816 2.72679 13.6904 3.11314 15.0242L4.68382 20.4463V42.7826C4.68382 45.6595 7.02428 48 9.90086 48H21.1662C21.6841 48 22.1037 47.5803 22.1037 47.0625C22.1037 46.5447 21.6841 46.125 21.1662 46.125H9.90123C8.05809 46.125 6.55882 44.6257 6.55882 42.7826V30.0245H11.3617H11.3639H11.3657H18.7075H18.7097H18.7119H26.0537H26.0559H26.0581H33.3999H33.4021H33.4039H43.274V42.7826C43.274 44.6257 41.7748 46.125 39.9316 46.125H28.6662C28.1488 46.125 27.7287 46.5447 27.7287 47.0625C27.7287 47.5803 28.1488 48 28.6662 48H39.9316C42.8086 48 45.149 45.6595 45.149 42.7826V20.3134C45.149 19.7955 44.7294 19.3759 44.2115 19.3759ZM27.6804 28.1495L31.6637 21.2509H36.8445L32.8616 28.1495H27.6804ZM20.3342 28.1495L24.3175 21.2509H29.4983L25.5154 28.1495H20.3342ZM12.9884 28.1495L16.9713 21.2509H22.1525L18.1692 28.1495H12.9884ZM16.474 16.0129L9.80382 9.60645L14.8015 8.15881C14.8367 8.21008 14.8777 8.25842 14.9245 8.30347L21.5947 14.71L16.597 16.1576C16.5619 16.1063 16.5205 16.0576 16.474 16.0129ZM29.0365 4.21545L35.7066 10.6219L30.709 12.0696C30.6738 12.0183 30.6328 11.9696 30.5859 11.9249L23.9158 5.51843L28.9134 4.0708C28.9486 4.12207 28.9896 4.17041 29.0365 4.21545ZM21.9803 6.25964L28.6505 12.6658L23.6528 14.1138C23.6177 14.0625 23.5766 14.0138 23.5298 13.9691L16.8596 7.56262L21.8573 6.11499C21.8928 6.16589 21.9338 6.2146 21.9803 6.25964ZM36.0392 2.00647C36.3402 1.91931 36.6504 1.875 36.9613 1.875C38.4448 1.875 39.7679 2.8667 40.1796 4.28687L41.5265 8.93591L37.7651 10.0254C37.7296 9.97412 37.6886 9.92578 37.6417 9.88074L30.9719 3.47461L36.0392 2.00647ZM5.20128 11.9626C5.63341 11.1779 6.34129 10.6095 7.19456 10.3623L7.74535 10.2026C7.78087 10.2539 7.82188 10.3026 7.86839 10.3473L14.5386 16.7538L6.26109 19.1517L4.91417 14.5027C4.66698 13.6498 4.76915 12.7478 5.20128 11.9626ZM6.55882 21.2509H14.8063L10.8233 28.1495H6.55882V21.2509ZM35.0266 28.1495L39.0095 21.2509H43.274V28.1495H35.0266Z" fill="white"/>
<path fill-rule="evenodd" clip-rule="evenodd" d="M31.3986 37.9793C31.3986 37.6442 31.2198 37.3347 30.9298 37.1674L22.6934 32.4121C22.4033 32.2448 22.0459 32.2448 21.7559 32.4121C21.4658 32.5795 21.2871 32.8889 21.2871 33.224V42.7345C21.2871 43.0692 21.4658 43.3787 21.7559 43.5461C21.9009 43.6299 22.0627 43.672 22.2246 43.672C22.3865 43.672 22.5483 43.6299 22.6934 43.5461L30.9298 38.7912C31.2198 38.6238 31.3986 38.3144 31.3986 37.9793ZM23.1621 41.1107V34.8478L28.5861 37.9793L23.1621 41.1107Z" fill="white"/>
<path fill-rule="evenodd" clip-rule="evenodd" d="M24.917 46.125C24.4006 46.125 23.9795 46.5461 23.9795 47.0625C23.9795 47.5789 24.4006 48 24.917 48C25.4337 48 25.8545 47.5789 25.8545 47.0625C25.8545 46.5461 25.4337 46.125 24.917 46.125Z" fill="white"/>
</svg>
