<svg width="108" height="34" viewBox="0 0 108 34" fill="none" xmlns="http://www.w3.org/2000/svg">
<path fill-rule="evenodd" clip-rule="evenodd" d="M0 0H108V34H0V0Z" fill="#CC1626"/>
<path fill-rule="evenodd" clip-rule="evenodd" d="M37.684 15.842C38.0796 15.842 38.4678 15.7374 38.8038 15.5284C39.4682 15.1253 39.834 14.4235 39.834 13.6471C39.834 12.8483 39.4458 12.1166 38.7441 11.721C38.4231 11.5343 38.0572 11.4373 37.684 11.4373C37.3032 11.4373 36.9374 11.5343 36.6089 11.7284C35.9221 12.1316 35.5414 12.8557 35.5414 13.6471C35.5414 14.416 35.8997 15.1178 36.5567 15.5209C36.8926 15.7374 37.2808 15.842 37.684 15.842ZM27.9937 12.8035V9.2648H29.8974C30.3827 9.2648 30.8007 9.44397 31.1441 9.78739V9.79485C31.5025 10.1308 31.6667 10.5414 31.6667 11.0267C31.6667 11.5194 31.4876 11.93 31.1441 12.2809C30.8007 12.6243 30.3827 12.8035 29.8974 12.8035H29.554H27.9937ZM27.9937 14.5728H29.554H29.8974C30.3677 14.5728 30.8306 14.4758 31.2711 14.2891C31.6891 14.1025 32.0699 13.8561 32.3984 13.5276C32.7194 13.2066 32.9732 12.8259 33.1524 12.4078C33.3465 11.9673 33.4361 11.5045 33.4361 11.0267C33.4361 10.5563 33.3465 10.0935 33.1524 9.66047C32.9732 9.2424 32.7194 8.86166 32.3984 8.54064C32.0699 8.21962 31.6891 7.96579 31.2711 7.77916C30.8306 7.59252 30.3677 7.50293 29.8974 7.50293H26.2318V17.2977H27.9937V14.5728ZM39.946 16.4616C39.3339 17.1111 38.4604 17.462 37.5496 17.462C35.4219 17.462 33.8691 15.7449 33.8691 13.6471C33.8691 11.5567 35.4144 9.81725 37.5496 9.81725C38.4604 9.81725 39.3339 10.1756 39.946 10.8326V9.89937H41.6108V17.3724H39.946V16.4616ZM48.6957 16.3421C48.1656 16.9842 47.3369 17.2903 46.5008 17.2903C44.3208 17.2903 43.2309 15.7822 43.2309 13.7068V9.90684H44.9106V13.6172C44.9106 14.8565 45.4108 15.6702 46.7173 15.6702C48.1208 15.6702 48.7106 14.6549 48.7106 13.341V9.90684H50.3679V16.3347C50.3679 18.5743 48.9793 20.1197 46.7024 20.1197C45.5153 20.1197 44.388 19.739 43.4772 18.9775L43.3802 18.9028L44.3507 17.8651L44.4328 17.9099C45.1495 18.3429 45.8513 18.5743 46.7024 18.5743C47.9491 18.5743 48.6957 17.9024 48.6957 16.6408V16.3421Z" fill="white"/>
<path fill-rule="evenodd" clip-rule="evenodd" d="M77.1768 11.9228L77.2291 11.8183C77.2365 11.8108 77.2365 11.7959 77.244 11.7884V11.781L77.2962 11.6839H77.3037L77.3186 11.6541L77.3336 11.6391L77.3485 11.6018H77.356C77.3709 11.5719 77.3858 11.5495 77.4008 11.5271L77.4082 11.5122C77.4157 11.5047 77.4232 11.4898 77.4306 11.4749L77.4381 11.4674L77.468 11.4301V11.4226C77.4978 11.3778 77.5277 11.3405 77.5575 11.3032V11.2957C77.5725 11.2808 77.5799 11.2733 77.5874 11.2584H77.5949C78.2966 10.3401 79.3791 9.8026 80.5363 9.8026H80.6931C82.7834 9.8474 84.2915 11.5495 84.2915 13.6175C84.2915 15.7153 82.7461 17.4473 80.6109 17.4473C79.7897 17.4473 78.9835 17.0964 78.4459 16.4768V20.0005H76.7811V13.4533H76.7886C76.8035 12.9904 76.908 12.535 77.0947 12.102L77.1021 12.0871L77.1096 12.0572L77.1245 12.0348L77.1395 11.9975L77.1544 11.9601L77.1768 11.9228ZM52.0403 7.48828H53.8096V17.2831H52.0403V7.48828ZM56.221 12.4006L60.3046 17.3129H57.9754L54.0411 12.4006L57.9754 7.48828H60.3046L56.221 12.4006ZM61.8052 14.1102C61.8649 15.2823 62.8056 15.887 63.9404 15.887C64.7317 15.887 65.5231 15.6705 66.2099 15.2674L66.2846 15.2226L67.2177 16.2155L67.1132 16.2976C66.195 16.9994 65.1125 17.4324 63.9404 17.4324C61.7007 17.4324 60.0807 15.8646 60.0807 13.6175C60.0807 11.4226 61.6335 9.78767 63.8508 9.78767C65.3588 9.78767 66.5682 10.5118 67.1655 11.893C67.4193 12.4902 67.494 13.4085 67.2999 14.0281L67.27 14.1102H61.8052ZM70.0397 14.1102C70.0995 15.2823 71.0401 15.887 72.1749 15.887C72.9737 15.887 73.765 15.6705 74.4444 15.2674L74.5265 15.2226L75.4523 16.2155L75.3552 16.2976C74.4295 16.9994 73.347 17.4324 72.1749 17.4324C69.9352 17.4324 68.3227 15.8646 68.3227 13.6175C68.3227 11.4226 69.868 9.78767 72.0928 9.78767C73.5933 9.78767 74.8027 10.5118 75.4 11.893C75.6613 12.4902 75.7285 13.4085 75.5344 14.0281L75.512 14.1102H70.0397ZM87.0015 14.1102C87.0612 15.2823 88.0018 15.887 89.1366 15.887C89.928 15.887 90.7268 15.6705 91.4061 15.2674L91.4883 15.2151L92.414 16.2155L92.3095 16.2976C91.3912 16.9994 90.3087 17.4324 89.1366 17.4324C86.8969 17.4324 85.2844 15.8646 85.2844 13.6175C85.2844 11.4226 86.8298 9.78767 89.0545 9.78767C90.5551 9.78767 91.7645 10.5118 92.3617 11.893C92.623 12.4902 92.6902 13.4085 92.4961 14.0281L92.4737 14.1102H87.0015ZM78.431 13.6175C78.431 16.656 82.6192 16.4022 82.6192 13.6175C82.6192 10.8328 78.431 10.579 78.431 13.6175ZM61.9023 12.7814H65.7396C65.7172 12.6544 65.6649 12.5275 65.6127 12.4081C65.2842 11.7138 64.6347 11.333 63.8657 11.333C63.0296 11.333 62.2382 11.7884 61.9545 12.6097C61.9321 12.6619 61.9172 12.7216 61.9023 12.7814ZM70.1368 12.7814H73.9815C73.9517 12.6544 73.9069 12.5275 73.8472 12.4081C73.5187 11.7138 72.8692 11.333 72.1077 11.333C71.2641 11.333 70.4727 11.7884 70.189 12.6097C70.1741 12.6619 70.1517 12.7216 70.1368 12.7814ZM87.0985 12.7814H90.9433C90.9134 12.6544 90.8686 12.5275 90.8089 12.4081C90.4804 11.7138 89.8309 11.333 89.0694 11.333C88.2258 11.333 87.4345 11.7884 87.1508 12.6022C87.1284 12.6619 87.1134 12.7216 87.0985 12.7814ZM95.5047 10.8776C96.1692 10.1386 97.1023 9.81007 98.1102 9.81007H98.4984L98.5059 11.4749H97.7817C96.1841 11.4749 95.5197 12.5649 95.5197 14.058V17.3428H93.7951V9.89219H95.5047V10.8776Z" fill="#FFCC00"/>
<path fill-rule="evenodd" clip-rule="evenodd" d="M28.6208 23.5838H26.7096V26.5551H26.2318V23.1358H29.106V26.5551H28.6208V23.5838ZM32.5103 23.5838H31.077C31.077 24.2631 31.0695 25.1515 30.8978 25.8085C30.8157 26.1146 30.6738 26.4431 30.3528 26.5551C30.2333 26.5998 30.1139 26.6073 29.9944 26.6073C29.8825 26.6073 29.7182 26.5849 29.6137 26.5551L29.5391 26.5327L29.6286 26.0773L29.7182 26.0997C29.7705 26.1146 29.8825 26.1444 29.9422 26.1444C29.9944 26.1444 30.0542 26.137 30.1064 26.1221C30.3304 26.0623 30.4125 25.7786 30.4573 25.5845C30.6141 24.9425 30.6141 24.0541 30.6141 23.3897V23.1358H32.9956V26.5551H32.5103V23.5838ZM36.2431 24.4871V24.4572C36.2431 23.8301 35.8624 23.5464 35.2577 23.5464C34.8993 23.5464 34.5858 23.636 34.2722 23.7928L34.1901 23.8376L34.0109 23.4046L34.0856 23.3673C34.4738 23.1881 34.8396 23.0836 35.2726 23.0836C35.6683 23.0836 36.0789 23.1732 36.3626 23.4643C36.6239 23.7256 36.7209 24.0765 36.7209 24.4423V26.5551H36.2431V26.1594C35.9445 26.4729 35.5339 26.6297 35.086 26.6297C34.3991 26.6297 33.7422 26.2714 33.7422 25.5099C33.7422 24.6812 34.526 24.3676 35.2502 24.3676C35.6011 24.3676 35.9146 24.405 36.2431 24.4871ZM38.4902 23.5838H37.2734V23.1358H40.1924V23.5838H38.968V26.5551H38.4902V23.5838ZM41.0883 25.0545C41.1704 25.6816 41.6183 26.1668 42.2753 26.1668C42.7083 26.1668 43.0368 25.9951 43.3279 25.6816L43.3876 25.6219L43.7311 25.9279L43.6713 25.9951C43.2757 26.4132 42.8501 26.6297 42.2603 26.6297C41.26 26.6297 40.5806 25.801 40.5806 24.838C40.5806 23.9048 41.2376 23.0537 42.2081 23.0537C43.2234 23.0537 43.7908 23.8973 43.7908 24.8454C43.7908 24.8902 43.7833 24.935 43.7833 24.9798L43.7684 25.0545H41.0883ZM41.3645 22.7626V22.0832H41.9767V22.7626H41.3645ZM42.4097 22.7626V22.0832H43.0144V22.7626H42.4097ZM45.4556 24.6289L44.0745 23.1358H44.7016L46.4411 25.0694V23.1358H46.9263V25.0694L48.6658 23.1358H49.2929L47.9118 24.6289L49.3526 26.5551H48.7554L47.5908 24.9798L46.9263 25.704V26.5551H46.4411V25.704L45.7766 24.9798L44.612 26.5551H44.0222L45.4556 24.6289ZM50.3381 24.5767H52.3314V23.1358H52.8166V26.5551H52.3314V25.0321H50.3381V26.5551H49.8603V23.1358H50.3381V24.5767ZM56.0642 24.4871V24.4572C56.0642 23.8301 55.6759 23.5464 55.0787 23.5464C54.7204 23.5464 54.4068 23.636 54.0932 23.7928L54.0111 23.8376L53.832 23.4046L53.9066 23.3673C54.2948 23.1881 54.6606 23.0836 55.0936 23.0836C55.4893 23.0836 55.8924 23.1732 56.1836 23.4643C56.4449 23.7256 56.5419 24.0765 56.5419 24.4423V26.5551H56.0642V26.1594C55.7581 26.4729 55.3549 26.6297 54.907 26.6297C54.2127 26.6297 53.5632 26.2714 53.5632 25.5099C53.5632 24.6812 54.3471 24.3676 55.0712 24.3676C55.4221 24.3676 55.7282 24.405 56.0642 24.4871ZM58.1918 25.2262C57.7066 25.0918 57.3184 24.726 57.3184 24.1885C57.3184 23.4643 57.938 23.1358 58.595 23.1358H60.1403V26.5551H59.6551V25.3008H58.707L57.7439 26.5551H57.1392L58.1918 25.2262ZM65.4633 23.5838H63.5521V26.5551H63.0668V23.1358H65.9411V26.5551H65.4633V23.5838ZM69.3528 23.5838H67.9194C67.9194 24.2631 67.912 25.1515 67.7328 25.8085C67.6507 26.1146 67.5163 26.4431 67.1878 26.5551C67.0758 26.5998 66.9564 26.6073 66.8369 26.6073C66.725 26.6073 66.5607 26.5849 66.4562 26.5551L66.3815 26.5327L66.4711 26.0773L66.5607 26.0997C66.613 26.1146 66.725 26.1444 66.7847 26.1444C66.8369 26.1444 66.8967 26.137 66.9489 26.1221C67.1654 26.0623 67.2476 25.7786 67.2998 25.5845C67.4491 24.9425 67.4491 24.0541 67.4491 23.3897V23.1358H69.8306V26.5551H69.3528V23.5838ZM73.0856 24.4871V24.4572C73.0856 23.8301 72.6974 23.5464 72.1002 23.5464C71.7418 23.5464 71.4283 23.636 71.1147 23.7928L71.0326 23.8376L70.8534 23.4046L70.9281 23.3673C71.3163 23.1881 71.6821 23.0836 72.1151 23.0836C72.5108 23.0836 72.9139 23.1732 73.2051 23.4643C73.4664 23.7256 73.5559 24.0765 73.5559 24.4423V26.5551H73.0856V26.1594C72.7795 26.4729 72.3689 26.6297 71.921 26.6297C71.2342 26.6297 70.5847 26.2714 70.5847 25.5099C70.5847 24.6812 71.3685 24.3676 72.0927 24.3676C72.4436 24.3676 72.7497 24.405 73.0856 24.4871ZM75.3327 23.5838H74.1084V23.1358H77.0274V23.5838H75.8105V26.5551H75.3327V23.5838ZM79.6254 26.3535C79.394 26.5252 79.1626 26.6297 78.849 26.6297C77.8486 26.6297 77.438 25.7189 77.438 24.8305C77.438 23.9496 77.8486 23.0537 78.849 23.0537C79.17 23.0537 79.394 23.1582 79.6254 23.3374V21.9189H80.1032V23.3374C80.3272 23.1582 80.5586 23.0537 80.8796 23.0537C81.88 23.0537 82.2906 23.957 82.2906 24.8454C82.2906 25.7264 81.8726 26.6297 80.8796 26.6297C80.5362 26.6297 80.3347 26.5401 80.1032 26.3609V27.5778H79.6254V26.3535ZM84.6274 26.6297C83.627 26.6297 82.8729 25.8309 82.8729 24.8454C82.8729 23.86 83.6419 23.0537 84.6348 23.0537C85.6352 23.0537 86.3892 23.86 86.3892 24.8454C86.3892 25.8234 85.6203 26.6297 84.6274 26.6297ZM87.6658 23.6883C87.9794 23.3001 88.3825 23.0537 88.92 23.0537C89.9055 23.0537 90.5849 23.8899 90.5849 24.8454C90.5849 25.7936 89.898 26.6297 88.92 26.6297C88.3975 26.6297 87.9794 26.4057 87.6658 26.025V27.5778H87.1806V23.1358H87.6658V23.6883ZM93.0858 24.9425L94.3699 23.1358H94.773V26.5551H94.2952V24.0168L93.0709 25.704L91.8615 24.0242V26.5551H91.3911V23.1358H91.8018L93.0858 24.9425ZM98.028 24.4871V24.4572C98.028 23.8301 97.6398 23.5464 97.0426 23.5464C96.6842 23.5464 96.3707 23.636 96.0571 23.7928L95.975 23.8376L95.7958 23.4046L95.8705 23.3673C96.2587 23.1881 96.6245 23.0836 97.0575 23.0836C97.4532 23.0836 97.8563 23.1732 98.1475 23.4643C98.4088 23.7256 98.5058 24.0765 98.5058 24.4423V26.5551H98.028V26.1594C97.7219 26.4729 97.3188 26.6297 96.8709 26.6297C96.1766 26.6297 95.5271 26.2714 95.5271 25.5099C95.5271 24.6812 96.3109 24.3676 97.0351 24.3676C97.386 24.3676 97.6921 24.405 98.028 24.4871ZM36.2506 24.95C35.9146 24.8678 35.5861 24.823 35.2278 24.823C34.7799 24.823 34.2498 24.9724 34.2498 25.5099C34.2498 25.9877 34.6754 26.1668 35.1009 26.1668C35.6384 26.1668 36.2506 25.8533 36.2506 25.2486V24.95ZM41.0957 24.6065H43.2757C43.201 24.0168 42.8501 23.5091 42.2006 23.5091C41.5735 23.5091 41.1704 24.0317 41.0957 24.6065ZM56.0716 24.95C55.7282 24.8678 55.3997 24.823 55.0488 24.823C54.6009 24.823 54.0709 24.9724 54.0709 25.5099C54.0709 25.9877 54.4964 26.1668 54.9219 26.1668C55.4594 26.1668 56.0716 25.8533 56.0716 25.2486V24.95ZM59.6551 24.8529V23.5838H58.6398C58.2366 23.5838 57.826 23.748 57.826 24.2034C57.826 24.6588 58.2516 24.8529 58.6547 24.8529H59.6551ZM73.0931 24.95C72.7497 24.8678 72.4212 24.823 72.0703 24.823C71.6224 24.823 71.0923 24.9724 71.0923 25.5099C71.0923 25.9877 71.5178 26.1668 71.9434 26.1668C72.4809 26.1668 73.0931 25.8533 73.0931 25.2486V24.95ZM79.6254 25.8234V23.86C79.4164 23.651 79.185 23.524 78.8789 23.524C78.1323 23.524 77.9382 24.2258 77.9382 24.8529C77.9382 25.5099 78.1099 26.1594 78.8789 26.1594C79.185 26.1594 79.4164 26.0399 79.6254 25.8234ZM80.1032 23.86V25.8234C80.3123 26.0399 80.5437 26.1594 80.8498 26.1594C81.6187 26.1594 81.783 25.4949 81.783 24.8454C81.783 24.2183 81.5889 23.524 80.8498 23.524C80.5437 23.524 80.3123 23.651 80.1032 23.86ZM84.6348 26.1668C85.3515 26.1668 85.8816 25.5323 85.8816 24.8454C85.8816 24.1437 85.344 23.5166 84.6274 23.5166C83.9107 23.5166 83.3806 24.1437 83.3806 24.8454C83.3806 25.5547 83.9107 26.1668 84.6348 26.1668ZM88.8902 26.1594C89.6442 26.1594 90.0772 25.5696 90.0772 24.8454C90.0772 24.1437 89.6143 23.524 88.8902 23.524C88.166 23.524 87.6434 24.1511 87.6434 24.8529C87.6434 25.5472 88.1735 26.1594 88.8902 26.1594ZM98.0355 24.95C97.6921 24.8678 97.3636 24.823 97.0127 24.823C96.5648 24.823 96.0347 24.9724 96.0347 25.5099C96.0347 25.9877 96.4603 26.1668 96.8858 26.1668C97.4233 26.1668 98.0355 25.8533 98.0355 25.2486V24.95Z" fill="white"/>
<path fill-rule="evenodd" clip-rule="evenodd" d="M14.4288 17.3351L19.3486 12.4153L14.4288 7.50293C15.6532 7.50293 16.8775 7.50293 18.1019 7.50293L23.0217 12.4153L18.1019 17.3351C16.8775 17.3351 15.6532 17.3351 14.4288 17.3351ZM7.95618 17.3351L12.876 12.4153L7.95618 7.50293C9.18053 7.50293 10.4049 7.50293 11.6292 7.50293L16.549 12.4153L11.6292 17.3351C10.4049 17.3351 9.18053 17.3351 7.95618 17.3351Z" fill="white"/>
</svg>
