<svg width="65" height="39" viewBox="0 0 65 39" fill="none" xmlns="http://www.w3.org/2000/svg">
<path d="M65 19.5C65 30.2 56.3 39 45.5 39C34.8 39 26 30.2 26 19.5C26 8.8 34.7 0 45.4 0C56.3 0 65 8.8 65 19.5Z" fill="#F9B50B"/>
<path d="M38.9 19.6C38.9 18.2 38.7 16.8 38.5 15.5H26.5C26.6 14.8 26.8 14.2 27 13.4H37.7C37.5 12.7 37.2 12 36.9 11.3H27.8C28.1 10.6 28.5 10 28.9 9.2H35.8C35.4 8.5 34.9 7.8 34.3 7.1H30.5C31.1 6.4 31.7 5.8 32.5 5.1C29.1 1.9 24.5 0 19.4 0C8.8 0.3 0 8.8 0 19.5C0 30.2 8.7 39 19.5 39C24.6 39 29.1 37 32.6 33.9C33.3 33.3 33.9 32.6 34.6 31.8H30.6C30.1 31.2 29.6 30.5 29.2 29.8H36C36.4 29.2 36.8 28.5 37.1 27.7H28C27.7 27.1 27.4 26.4 27.2 25.6H37.9C38.5 23.8 38.9 21.8 38.9 19.6Z" fill="#C8191C"/>
<path d="M26.4 24.5004L26.7 22.7004C26.6 22.7004 26.4 22.8004 26.2 22.8004C25.5 22.8004 25.4 22.4004 25.5 22.2004L26.1 18.6004H27.2L27.5 16.6004H26.5L26.7 15.4004H24.6C24.6 15.4004 23.4 22.2004 23.4 23.0004C23.4 24.2004 24.1 24.8004 25.1 24.8004C25.7 24.8004 26.2 24.6004 26.4 24.5004Z" fill="white"/>
<path d="M27.1 21.1996C27.1 24.0996 29.1 24.7996 30.7 24.7996C32.2 24.7996 32.9 24.4996 32.9 24.4996L33.3 22.4996C33.3 22.4996 32.2 22.9996 31.1 22.9996C28.8 22.9996 29.2 21.2996 29.2 21.2996H33.4C33.4 21.2996 33.7 19.9996 33.7 19.3996C33.7 18.0996 33 16.3996 30.7 16.3996C28.7 16.2996 27.1 18.5996 27.1 21.1996ZM30.7 18.1996C31.8 18.1996 31.6 19.4996 31.6 19.5996H29.3C29.4 19.4996 29.6 18.1996 30.7 18.1996Z" fill="white"/>
<path d="M43.8 24.5004L44.2 22.2004C44.2 22.2004 43.2 22.7004 42.4 22.7004C41 22.7004 40.3 21.6004 40.3 20.3004C40.3 17.8004 41.5 16.5004 43 16.5004C44 16.5004 44.9 17.1004 44.9 17.1004L45.2 14.9004C45.2 14.9004 44 14.4004 42.8 14.4004C40.4 14.4004 38.1 16.5004 38.1 20.4004C38.1 23.0004 39.3 24.7004 41.8 24.7004C42.7 24.8004 43.8 24.5004 43.8 24.5004Z" fill="white"/>
<path d="M15.1 16.2998C13.7 16.2998 12.6 16.6998 12.6 16.6998L12.3 18.4998C12.3 18.4998 13.2 18.0998 14.6 18.0998C15.3 18.0998 15.9 18.1998 15.9 18.7998C15.9 19.1998 15.8 19.2998 15.8 19.2998H14.9C13.1 19.2998 11.2 19.9998 11.2 22.3998C11.2 24.2998 12.4 24.6998 13.2 24.6998C14.6 24.6998 15.3 23.7998 15.4 23.7998L15.3 24.5998H17L17.8 18.8998C17.8 16.3998 15.8 16.2998 15.1 16.2998ZM15.5 20.8998C15.5 21.1998 15.3 22.8998 14.1 22.8998C13.5 22.8998 13.3 22.3998 13.3 22.0998C13.3 21.5998 13.6 20.8998 15.2 20.8998C15.4 20.8998 15.5 20.8998 15.5 20.8998Z" fill="white"/>
<path d="M19.8 24.7002C20.3 24.7002 22.9 24.8002 22.9 22.0002C22.9 19.4002 20.4 19.9002 20.4 18.9002C20.4 18.4002 20.8 18.2002 21.5 18.2002C21.8 18.2002 22.9 18.3002 22.9 18.3002L23.2001 16.4002C23.2001 16.4002 22.5001 16.2002 21.2001 16.2002C19.7001 16.2002 18.1 16.8002 18.1 18.9002C18.1 21.3002 20.7001 21.1002 20.7001 22.0002C20.7001 22.6002 20 22.7002 19.5 22.7002C18.6 22.7002 17.6 22.4002 17.6 22.4002L17.3 24.3002C17.5 24.5002 18.1 24.7002 19.8 24.7002Z" fill="white"/>
<path d="M61 14.7002L60.6 17.5002C60.6 17.5002 59.8 16.5002 58.6 16.5002C56.7 16.5002 55.1 18.8002 55.1 21.5002C55.1 23.2002 55.9 24.9002 57.7 24.9002C58.9 24.9002 59.7 24.1002 59.7 24.1002L59.6 24.8002H61.7L63.2 14.9002L61 14.7002ZM60 20.1002C60 21.2002 59.5 22.7002 58.3 22.7002C57.6 22.7002 57.2 22.1002 57.2 21.0002C57.2 19.3002 57.9 18.3002 58.9 18.3002C59.6 18.4002 60 18.9002 60 20.1002Z" fill="white"/>
<path d="M3.80005 24.6002L5.00005 17.2002L5.20005 24.6002H6.60005L9.30005 17.2002L8.20005 24.6002H10.4L12.1 14.7002H8.70005L6.60005 20.8002L6.50005 14.7002H3.50005L1.80005 24.6002H3.80005Z" fill="white"/>
<path d="M35.8 24.6C36.4 21.2 36.5 18.4 38 18.9C38.2 17.6 38.5 17 38.7 16.5H38.3C37.4 16.5 36.6 17.7 36.6 17.7L36.8 16.6H34.8L33.5 24.6H35.8Z" fill="white"/>
<path d="M48.5999 16.2998C47.1999 16.2998 46.0999 16.6998 46.0999 16.6998L45.7999 18.4998C45.7999 18.4998 46.6999 18.0998 48.0999 18.0998C48.7999 18.0998 49.4 18.1998 49.4 18.7998C49.4 19.1998 49.2999 19.2998 49.2999 19.2998H48.4C46.6 19.2998 44.7 19.9998 44.7 22.3998C44.7 24.2998 45.9 24.6998 46.7 24.6998C48.1 24.6998 48.8 23.7998 48.9 23.7998L48.7999 24.5998H50.7L51.5 18.8998C51.5 16.3998 49.2999 16.2998 48.5999 16.2998ZM49.0999 20.8998C49.0999 21.1998 48.9 22.8998 47.7 22.8998C47.1 22.8998 46.9 22.3998 46.9 22.0998C46.9 21.5998 47.1999 20.8998 48.7999 20.8998C48.9999 20.8998 48.9999 20.8998 49.0999 20.8998Z" fill="white"/>
<path d="M53.1 24.6C53.7 21.2 53.8 18.4 55.3 18.9C55.5 17.6 55.8 17 56 16.5H55.6C54.7 16.5 53.9001 17.7 53.9001 17.7L54.1 16.6H52.1L50.8 24.6H53.1Z" fill="white"/>
</svg>
