<svg width="18" height="18" viewBox="0 0 18 18" fill="none" xmlns="http://www.w3.org/2000/svg">
<path d="M15.5671 4.04648L13.6951 2.17617C13.563 2.04353 13.406 1.93829 13.2332 1.8665C13.0603 1.7947 12.875 1.75777 12.6878 1.75781C12.3064 1.75781 11.9478 1.90723 11.6788 2.17617L9.66439 4.19062C9.53175 4.32268 9.42652 4.47965 9.35472 4.6525C9.28292 4.82535 9.24599 5.01068 9.24603 5.19785C9.24603 5.5793 9.39545 5.93789 9.66439 6.20684L11.1374 7.67988C10.7926 8.43989 10.3132 9.13129 9.7224 9.7207C9.13304 10.313 8.44171 10.7941 7.68158 11.141L6.20853 9.66797C6.07648 9.53533 5.91951 9.43009 5.74666 9.3583C5.57381 9.2865 5.38848 9.24956 5.20131 9.24961C4.81986 9.24961 4.46127 9.39902 4.19232 9.66797L2.17611 11.6807C2.04331 11.813 1.93798 11.9702 1.86618 12.1434C1.79438 12.3165 1.75753 12.5022 1.75775 12.6896C1.75775 13.0711 1.90717 13.4297 2.17611 13.6986L4.04467 15.5672C4.47357 15.9979 5.06596 16.2422 5.67416 16.2422C5.80248 16.2422 5.92553 16.2316 6.04681 16.2105C8.41635 15.8203 10.7665 14.56 12.6632 12.665C14.5581 10.7719 15.8167 8.42344 16.2122 6.04688C16.3318 5.3209 16.091 4.57383 15.5671 4.04648Z" fill="#5E5E5E"/>
</svg>
