<svg width="67" height="72" viewBox="0 0 67 72" fill="none" xmlns="http://www.w3.org/2000/svg">
<path d="M62.5059 59.2941C57.7706 64.6843 51.5049 68.5032 44.5441 70.242C37.5832 71.9808 30.2577 71.5568 23.5439 69.0266C16.8301 66.4963 11.0469 61.98 6.96505 56.0796C2.88318 50.1791 0.696533 43.1748 0.696533 36C0.696533 28.8252 2.88318 21.8209 6.96505 15.9204C11.0469 10.02 16.8301 5.50367 23.5439 2.97344C30.2577 0.443207 37.5832 0.0192291 44.5441 1.75801C51.5049 3.49679 57.7706 7.31573 62.5059 12.7059" stroke="url(#paint0_linear)" stroke-width="2" stroke-miterlimit="10" stroke-linecap="round"/>
<path d="M66.0988 36.0918C66.0988 42.095 64.3187 47.9634 60.9835 52.955C57.6482 57.9465 52.9077 61.8369 47.3615 64.1342C41.8152 66.4316 35.7122 67.0327 29.8243 65.8615C23.9364 64.6903 18.5281 61.7995 14.2831 57.5545C10.0382 53.3096 7.14736 47.9012 5.97618 42.0133C4.80501 36.1254 5.4061 30.0225 7.70344 24.4762C10.0008 18.9299 13.8912 14.1894 18.8827 10.8542C23.8742 7.519 29.7427 5.73883 35.7459 5.73883C43.796 5.73883 51.5164 8.93672 57.2087 14.629C62.901 20.3213 66.0988 28.0417 66.0988 36.0918Z" fill="url(#paint1_linear)"/>
<path d="M44.0753 36.0918L28.8212 44.8941V27.2471L44.0753 36.0918Z" fill="white"/>
<defs>
<linearGradient id="paint0_linear" x1="31.6024" y1="72" x2="31.6024" y2="-4.37736e-06" gradientUnits="userSpaceOnUse">
<stop stop-color="#AA0400"/>
<stop offset="1" stop-color="#E90D00"/>
</linearGradient>
<linearGradient id="paint1_linear" x1="35.7459" y1="66.4447" x2="35.7459" y2="5.73883" gradientUnits="userSpaceOnUse">
<stop stop-color="#AA0400"/>
<stop offset="0.5" stop-color="#E90D00"/>
</linearGradient>
</defs>
</svg>
