<svg width="32" height="27" viewBox="0 0 32 27" fill="none" xmlns="http://www.w3.org/2000/svg">
<path fill-rule="evenodd" clip-rule="evenodd" d="M12.3077 4.90909C13.6665 4.90909 14.7692 3.80945 14.7692 2.45455C14.7692 1.09964 13.6665 0 12.3077 0C5.51138 0 0 5.49573 0 12.2727V22.0909C0 24.8032 2.20554 27 4.92308 27H9.84615C12.5662 27 14.7692 24.8032 14.7692 22.0909V17.1818C14.7692 14.4695 12.5662 12.2727 9.84615 12.2727H4.92308C4.92308 8.20555 8.22892 4.90909 12.3077 4.90909ZM27.0769 12.2727H22.1538C22.1538 8.20555 25.4597 4.90909 29.5385 4.90909C30.8972 4.90909 32 3.80945 32 2.45455C32 1.09964 30.8972 0 29.5385 0C22.7422 0 17.2308 5.49573 17.2308 12.2727V22.0909C17.2308 24.8032 19.4363 27 22.1538 27H27.0769C29.7969 27 32 24.8032 32 22.0909V17.1818C32 14.4695 29.7969 12.2727 27.0769 12.2727Z" fill="white"/>
</svg>
