<svg width="111" height="48" viewBox="0 0 111 48" fill="none" xmlns="http://www.w3.org/2000/svg">
<path d="M104.684 21.0788V21.3918L104.998 21.0788H104.684Z" fill="#231300"/>
<path d="M105.938 20.1394V19.8264H105.311L105.416 20.1394L105.834 20.2437L105.938 20.1394Z" fill="#231300"/>
<path d="M105.52 27.9657L105.625 27.8613H105.311C105.52 27.9657 105.52 27.9657 105.52 27.9657Z" fill="#231300"/>
<path d="M53.0735 22.2262H50.8795C50.8795 22.6436 50.5661 22.8523 50.2527 22.8523C49.8348 22.8523 49.6258 22.6436 49.6258 22.2262H47.4319C47.4319 24.0001 48.79 24.9392 50.2527 24.9392C51.7154 24.9392 53.0735 24.0001 53.0735 22.2262Z" fill="white"/>
<path d="M65.1927 14.5041C65.4016 14.3997 65.5061 14.2954 65.715 14.191C65.924 14.0867 66.0285 13.878 66.2374 13.878C66.9688 13.6693 67.4911 13.1476 68.118 12.8345C68.3269 12.7302 68.6404 12.5215 68.8493 12.4171C68.8493 12.2084 68.8493 12.2084 68.8493 12.2084V4.06941H64.4613V14.6084C64.5658 14.6084 64.6703 14.5041 64.7748 14.5041C64.8792 14.6084 64.9837 14.5041 65.1927 14.5041Z" fill="white"/>
<path d="M69.9986 11.5824C70.2076 11.3737 70.521 11.165 70.73 10.9563C70.8344 10.8519 70.8344 10.8519 70.9389 10.7476C71.0434 10.7476 71.1479 10.7476 71.2523 10.7476C71.5658 10.6432 71.8792 10.4346 72.1926 10.2259C72.6105 10.0172 72.9239 9.80847 73.3418 9.70413C73.4463 9.70413 73.5508 9.70413 73.6553 9.70413C73.6553 9.70413 73.6553 9.70413 73.6553 9.80848C73.5508 9.91283 73.5508 9.91282 73.4463 10.0172C72.9239 10.3302 72.4016 10.7476 71.8792 11.0606C71.6702 11.165 71.5658 11.3737 71.4613 11.6867C71.3568 11.9998 71.1479 12.3128 70.9389 12.5215C70.521 12.9389 69.9986 13.3563 69.6852 13.7736C69.3718 14.0867 69.0583 14.3997 68.6404 14.6084L68.536 14.8171H68.4315C68.4315 14.8171 68.4315 14.8171 68.4315 14.7128C68.327 14.8171 68.1181 14.8171 68.0136 14.9215C67.7002 15.0258 67.4912 15.1302 67.3867 15.4432C67.0733 15.6519 66.7599 15.7562 66.4465 15.9649C66.5509 15.9649 66.6554 15.9649 66.7599 16.0693C66.6554 16.1736 66.5509 16.1736 66.342 16.278C66.342 16.278 66.342 16.278 66.342 16.3823C66.9688 16.4867 67.3867 16.1736 67.9091 16.1736C67.7002 16.278 67.4912 16.3823 67.2823 16.4867C66.9688 16.6954 66.6554 16.7997 66.4465 17.0084C66.342 17.1127 66.133 17.1127 66.0286 17.2171C65.4017 17.5301 64.8793 17.8432 64.2525 18.1562V22.017H68.536L72.8195 14.9215L74.4911 11.478H74.5956L74.1776 14.8171V20.4518C74.4911 20.3475 74.909 20.1388 75.2224 19.9301C75.2224 19.9301 75.3269 19.9301 75.4314 19.9301C75.4314 20.0344 75.3269 20.0344 75.3269 20.1388C74.909 20.4518 74.5955 20.7649 74.1776 21.0779V22.017H75.9537C76.0582 21.9127 76.0582 21.704 76.1627 21.5996L76.5806 21.1823L77.2074 20.7649C77.5209 20.8692 77.7298 20.8692 77.8343 20.9736L77.9388 21.391L76.9985 21.2866L76.894 21.4953L76.4761 21.9127H78.5656V13.2519V13.1476L78.4611 13.0432L78.5656 12.6258V4.06941H74.3866L69.9986 11.5824ZM77.5209 16.278H78.1477L78.0432 16.904C77.6253 16.904 77.5209 16.6954 77.5209 16.278ZM78.0432 17.7388V17.4258L78.4611 17.6345L78.0432 17.7388ZM78.0432 12.8345V13.2519L78.2522 14.6084L78.1477 14.8171L77.7298 14.9215L77.5209 14.7128L76.9985 13.3563L76.7895 12.6258L77.6253 12.7302L78.0432 12.8345ZM76.7895 9.49544H77.103L77.2074 10.0172L76.894 10.1215V9.49544H76.7895ZM77.2074 11.2693C77.3119 11.6867 77.3119 11.9998 77.3119 12.1041C77.2074 12.1041 76.9985 11.9998 76.6851 11.7911L76.4761 10.9563L77.2074 11.2693ZM76.2672 19.5127C76.2672 19.6171 76.1627 19.6171 75.9537 19.7214L75.8493 19.5127H76.2672Z" fill="white"/>
<path d="M83.0581 7.72195C83.1625 7.8263 83.1625 7.8263 83.1625 7.93064H85.5655V21.4957H89.9535V7.93064H94.6548V7.72195C94.6548 7.72195 94.6548 7.72195 94.7593 7.72195V3.5481H80.7596V7.93064H83.1625C83.0581 7.8263 83.0581 7.72195 83.0581 7.72195ZM87.1326 11.7915V11.4784H87.446L87.1326 11.7915ZM89.849 17.8436C89.849 17.8436 89.7445 17.8436 89.64 17.7392L89.849 17.8436ZM89.2221 13.148L88.8042 13.2523V12.9393C88.9087 12.8349 89.0132 12.8349 89.2221 12.7306L89.64 12.9393C89.5356 13.0436 89.3266 13.148 89.2221 13.148ZM88.9087 11.1654C89.0132 11.2697 89.1177 11.3741 89.1177 11.4784L88.9087 11.1654ZM87.0281 6.67849L88.9087 7.09587L89.4311 7.30457L88.8042 7.40891L87.5505 7.20022L86.9237 7.40891L86.1923 7.30457L85.5655 7.51326C85.461 7.72195 85.3565 7.8263 85.2521 7.8263C85.1476 7.72195 85.0431 7.51326 84.9386 7.30457L84.8342 6.57414L87.0281 6.67849Z" fill="white"/>
<path d="M101.968 22.2262C101.968 23.4783 102.7 24.3131 103.535 24.7305L103.64 24.5218L103.849 24.1044L103.744 23.374L103.431 22.4349H101.968V22.2262Z" fill="white"/>
<path d="M107.61 22.2262H105.416C105.416 22.6436 105.102 22.8523 104.789 22.8523C104.58 22.8523 104.475 22.7479 104.371 22.6436V23.4783L104.475 24.1044C104.58 24.3131 104.684 24.4175 104.789 24.5218L105.102 24.8348C106.46 24.8348 107.61 23.8957 107.61 22.2262Z" fill="white"/>
<path d="M103.849 30.5737L102.908 32.5563H102.804L103.013 30.8867V25.8781H100.297V37.0432H102.908L105.52 32.6606L106.565 30.4694H106.67C106.67 30.4694 106.461 32.5563 106.356 32.5563V37.0432H109.177V25.8781H106.565L103.849 30.5737ZM106.252 29.0085L105.52 29.1128L105.311 28.6955L105.416 28.4868L106.147 28.5911L106.356 28.6955L106.252 29.0085Z" fill="white"/>
<path d="M110.222 15.6524C110.222 12.2089 108.655 9.91331 103.64 9.91331H100.714V4.69598V4.59163C100.714 4.48728 100.714 4.38294 100.61 4.27859L100.714 3.96555H97.5801C97.5801 4.06989 97.4757 4.17424 97.4757 4.17424L96.4309 4.69598V7.2003C96.5354 7.30464 96.6398 7.40898 96.7443 7.61768C96.6398 7.51333 96.5354 7.40899 96.4309 7.2003V12.0002H96.6398L96.7443 12.1046L96.6398 12.522C96.5354 12.522 96.5354 12.522 96.3264 12.4176V21.7045H103.744C107.819 21.9132 110.222 19.2002 110.222 15.6524ZM97.1622 4.69598H97.5801L97.4757 5.4264L97.3712 5.53074L97.1622 5.4264L97.0577 5.00901L97.1622 4.69598ZM97.8935 6.57421L97.6846 7.30464C97.5801 7.30464 97.3712 7.20029 97.1622 6.9916C97.2667 6.67856 97.2667 6.36552 97.3712 6.26118C97.4756 6.26118 97.4757 6.36552 97.5801 6.36552C97.7891 6.36552 97.7891 6.46986 97.8935 6.57421ZM97.5801 8.76549C97.3712 8.86984 97.2667 8.97418 97.1622 9.07853L96.7443 9.49592C96.6398 9.49592 96.5354 9.39157 96.5354 9.18287L96.7443 8.5568L97.8935 8.13941C97.998 8.24376 98.1025 8.3481 98.207 8.5568L97.5801 8.76549ZM99.9831 5.94813H99.4607C99.4607 5.84379 99.5652 5.63509 99.6696 5.53074L100.088 5.73944L99.9831 5.94813ZM105.102 18.8871V18.5741C105.416 18.5741 105.729 18.7828 105.938 18.9915L105.102 18.8871ZM105.311 17.8436L104.998 17.7393L105.52 17.5306C105.729 17.6349 105.938 17.635 105.938 17.7393L105.311 17.8436ZM106.147 18.0523L106.461 18.1567C106.356 18.1567 106.252 18.1567 106.147 18.0523ZM104.789 11.1655L104.998 11.2698L104.893 11.6872L104.58 11.4785L104.789 11.1655ZM104.789 11.8959H104.998C104.998 12.1046 104.998 12.3133 104.893 12.3133H104.58C104.684 12.3133 104.684 12.1046 104.789 11.8959ZM103.117 19.5132H102.908L103.117 18.8871C103.117 18.8871 103.222 18.8871 103.326 18.9915L103.117 19.5132ZM103.535 18.4697L103.222 18.5741L103.117 17.8436H101.237V13.4611H103.535C103.535 13.3567 103.535 13.2524 103.535 13.2524C103.64 13.3567 103.64 13.3567 103.64 13.4611V13.5654H104.058C104.58 13.5654 104.998 13.6698 105.311 13.8785V13.4611C104.998 13.4611 104.893 13.2524 104.893 12.9394C105.102 13.0437 105.311 13.148 105.52 13.3567L105.625 14.0872C105.938 14.4002 106.147 14.9219 106.147 15.6524C106.147 15.7567 106.147 15.8611 106.147 16.0698H106.356L106.461 16.2784L106.356 16.8002C106.252 16.8002 106.043 16.8002 105.938 16.6958C105.729 17.4263 105.102 17.948 104.058 17.948H103.431H103.849C103.744 18.1567 103.64 18.3654 103.535 18.4697Z" fill="white"/>
<path d="M97.0577 3.96555H96.3264V4.38293L96.8488 4.0699C96.9533 4.0699 97.0577 3.96555 97.0577 3.96555Z" fill="white"/>
<path d="M77.6254 26.5042C77.4164 26.5042 77.2075 26.2955 76.9985 25.9825L77.103 25.8781H70.3121V37.0432H77.5209V36.8345C77.6254 36.7301 77.7298 36.7301 77.9388 36.6258V34.2258H73.1329V32.6606H77.5209V31.3041L76.5806 31.0954L75.9537 31.3041L75.2224 31.1998L74.5956 31.4085C74.4911 31.6172 74.3866 31.7215 74.2821 31.7215C74.1777 31.6172 74.0732 31.4085 73.9687 31.1998L73.8642 30.4694L76.0582 30.5737L77.5209 30.8867V30.2607H73.1329V28.6955H77.9388V27.1303H77.5209C77.6254 26.9216 77.7298 26.8172 77.8343 26.8172L77.9388 26.9216V26.6085H77.7298L77.6254 26.5042ZM76.3716 35.3736H76.6851L76.3716 35.6867V35.3736ZM72.1926 31.7215C72.0882 31.6172 72.0882 31.6172 72.0882 31.5128C72.1926 31.6172 72.1926 31.7215 72.1926 31.7215ZM71.1479 32.3476C71.0434 32.2432 70.9389 32.1389 70.9389 31.9302L71.1479 32.3476ZM71.2523 34.5389L70.8345 34.6432L70.6255 34.2258H71.2523V34.5389ZM71.9837 34.2258L72.1926 34.3302L71.9837 34.5389V34.2258ZM72.4016 35.478L72.1926 35.0606H72.715L72.6105 35.3736L72.4016 35.478ZM72.924 36.7302C72.8195 36.7302 72.715 36.6258 72.6105 36.4171L72.924 36.5215V36.7302Z" fill="white"/>
<path d="M85.5655 28.0688L85.9834 27.8601C86.0879 27.7557 86.2968 27.6514 86.6103 27.547C86.6103 27.6514 86.5058 27.8601 86.4013 27.9644L85.5655 28.3818V30.1557H82.3268V26.1905H79.5059V36.9382H82.3268V32.9731H84.4163L84.3118 32.7644C84.4163 32.8687 84.4163 32.8687 84.4163 32.9731H85.461L85.67 32.4513L86.8192 32.034C86.9237 32.1383 87.0282 32.2426 87.1326 32.4513L86.5058 32.66C86.2968 32.7644 86.1923 32.8687 86.0879 32.9731L85.67 33.3904C85.67 33.3904 85.5655 33.3905 85.5655 33.2861V35.8948L85.67 35.9991L85.5655 36.4165H85.461V36.9382H88.2819V27.234C88.1774 27.234 88.1774 27.3384 88.0729 27.3384L87.1326 27.547C87.2371 27.3384 87.3416 27.234 87.5505 27.1297L88.1774 26.921V26.1905H85.3565V28.0688H85.5655ZM84.1028 32.347L83.6849 32.4513L83.476 32.2426L83.6849 31.6166C83.8939 31.6166 84.1028 31.7209 84.3118 31.8252L84.1028 32.347ZM84.4163 30.6774L84.3118 30.4688L84.9386 30.5731L84.4163 30.6774ZM85.3565 31.0948C85.461 31.1992 85.5655 31.3035 85.67 31.5122C85.5655 31.4079 85.461 31.3035 85.3565 31.0948ZM86.8192 31.0948C86.7147 31.0948 86.5058 30.9905 86.2968 30.7818C86.4013 30.4687 86.4013 30.1557 86.5058 30.0514C86.6103 30.0514 86.6102 30.1557 86.7147 30.1557C86.8192 30.1557 86.8192 30.2601 86.9237 30.3644L86.8192 31.0948ZM86.6103 29.3209L86.5058 29.4253L86.2968 29.3209L86.1923 28.9036L86.2968 28.6948H86.7147L86.6103 29.3209Z" fill="white"/>
<path d="M94.5504 25.7742C93.9235 25.7742 93.2967 25.8786 92.6698 26.0873H92.7743L93.0877 26.296L92.9833 26.7134L92.3564 26.922L92.1474 26.8177C92.043 26.7133 92.043 26.5047 91.9385 26.4003C91.6251 26.609 91.2072 26.8177 90.9982 27.1307L91.1027 27.6525V28.4872L90.9982 29.2177C90.7893 29.1133 90.5803 29.1133 90.5803 29.009L90.4758 27.7568C90.1624 28.2785 89.9535 28.9046 89.9535 29.5307V33.2872C89.9535 35.6872 91.9385 36.9393 94.1325 37.0436C94.028 36.9393 93.9235 36.835 93.9235 36.6263C94.1325 36.7306 94.3414 36.835 94.5504 37.0436C96.8488 37.0436 99.1473 35.7915 99.1473 33.2872V29.5307C99.1473 27.0264 96.8488 25.7742 94.5504 25.7742ZM93.9235 36.2089H93.6101C93.7146 36.2089 93.7146 36.0002 93.8191 35.7915H94.028C94.028 36.0002 94.028 36.1045 93.9235 36.2089ZM93.9235 35.4784L93.6101 35.2698L93.8191 34.9567L94.028 35.0611L93.9235 35.4784ZM96.3265 33.3915C96.3265 34.2263 95.3862 34.6437 94.5504 34.6437C93.7146 34.6437 92.7743 34.2263 92.7743 33.3915V29.6351C92.7743 29.2177 92.9833 28.9046 93.2967 28.6959L92.9833 28.4872L92.6698 27.9655L93.4012 28.0699L93.5056 28.5916C93.8191 28.3829 94.237 28.3829 94.5504 28.3829C95.4907 28.3829 96.4309 28.8003 96.4309 29.6351V33.3915H96.3265Z" fill="white"/>
<path d="M3.76112 25.8781L0 37.0432H3.02979L3.23874 36.2084C3.23874 36.3128 3.13427 36.3128 3.13427 36.4171C3.13427 36.5215 3.02979 36.5215 2.92531 36.6258L2.29846 36.4171C2.29846 36.2084 2.29846 35.9997 2.19399 35.791L2.40294 35.165L3.13427 35.2693L3.55217 35.478L4.49245 32.2432L5.01482 29.5302L5.1193 29.0085H5.22378L5.5372 30.8867L6.47748 30.5737C6.58196 30.678 6.68643 30.7824 6.79091 30.9911L6.16406 31.1998C5.9551 31.3041 5.85063 31.4085 5.74615 31.5128L5.64168 31.6172L5.85063 32.4519L7.20881 37.1475H10.2386L6.37301 25.9825H3.76112V25.8781ZM2.19399 32.6606C2.08951 32.5563 2.08951 32.3476 2.08951 32.3476L2.50741 32.5563L2.19399 32.6606ZM3.23874 30.8867L3.02979 30.678L3.23874 30.052C3.44769 30.052 3.65664 30.1563 3.8656 30.2607L3.65664 30.7824L3.23874 30.8867ZM3.8656 31.3041C3.97007 31.4085 4.07454 31.5128 4.07454 31.6172L3.8656 31.3041ZM3.97007 29.1128L3.8656 28.9042L4.49245 29.0085L3.97007 29.1128ZM4.17902 27.4433L3.97007 27.339L4.2835 27.0259C4.38797 26.9216 4.59692 26.7129 4.91035 26.7129L5.5372 26.3998C5.64168 26.2955 5.85063 26.1911 6.16406 26.0868C6.16406 26.1911 6.05958 26.3998 5.95511 26.5042L4.17902 27.4433ZM5.85063 27.0259H6.26853L6.16406 27.7563L6.05958 27.8607L5.85063 27.7563L5.74615 27.339L5.85063 27.0259ZM6.37301 29.5302C6.26853 29.5302 6.05958 29.4259 5.85063 29.2172C5.95511 28.9041 5.9551 28.5911 6.05958 28.4868C6.16405 28.4868 6.16406 28.5911 6.26853 28.5911C6.37301 28.5911 6.37301 28.6955 6.47748 28.7998L6.37301 29.5302Z" fill="white"/>
<path d="M5.11934 21.3914L5.64171 21.4958L5.53724 21.8088L5.22381 21.9132H8.6715C12.6416 21.9132 14.6266 20.1393 15.0445 17.3219C15.2535 15.9654 14.94 13.6698 12.5371 12.4176C13.7908 11.7915 14.3132 10.3307 14.4177 9.49592C14.5221 6.67856 12.746 4.80032 10.2386 4.17424C10.1342 4.38294 10.0297 4.48728 9.92521 4.48728C9.82073 4.38293 9.71626 4.27859 9.71626 4.0699C9.40283 4.0699 8.98493 3.96555 8.6715 3.96555H4.91039L5.01486 4.0699C5.11933 4.38294 5.11934 4.59163 5.11934 4.69598L5.01486 5.4264C4.91038 5.32205 4.80591 5.21771 4.70143 5.00901L4.28353 3.96555H1.35822V5.94813H1.67164L1.77612 6.46987L1.46269 6.57421V7.72203L1.98507 7.93072C2.08954 8.34811 2.08954 8.66115 2.08954 8.7655C1.98507 8.7655 1.77612 8.66115 1.46269 8.45245V8.24376V9.28723L2.2985 9.39157L2.61192 9.49592V9.91331L2.82087 11.2698L2.7164 11.4785L2.2985 11.5829L2.08954 11.3742L1.56717 10.0177L1.46269 9.39157V17.635L1.56717 17.5306L2.19402 17.1132C2.50745 17.2176 2.7164 17.2176 2.82087 17.3219L2.92535 17.7393L1.98507 17.635L1.88059 17.8436L1.46269 18.261V21.6001H5.22381L5.11934 21.3914ZM14.5221 14.4002C14.5221 14.4002 14.4177 14.4002 14.3132 14.2959L14.5221 14.4002ZM13.7908 8.03507L13.5819 7.72203C13.7908 7.82638 13.7908 7.93072 13.7908 8.03507ZM13.3729 9.60026C13.4774 9.49592 13.5819 9.49592 13.7908 9.39157L14.2087 9.60026C14.1042 9.70461 13.8953 9.80896 13.7908 9.91331L13.3729 10.0177V9.60026ZM6.47752 21.7045L6.37304 21.4958C6.58199 21.4958 6.79095 21.4958 6.9999 21.6001L6.47752 21.7045ZM6.58199 17.8436H6.37304L6.58199 17.5306L6.79094 17.7393L6.58199 17.8436ZM7.4178 18.9915L6.68647 19.2002C6.79094 18.9915 6.79095 18.7828 6.89542 18.7828L7.62675 18.4697L7.4178 18.9915ZM11.8058 7.93072H12.1192L11.8058 8.24376V7.93072ZM8.77598 17.5306H6.26857V13.9828H8.88046C11.3879 13.8785 11.4923 17.5306 8.77598 17.5306ZM7.8357 4.48728C7.73122 4.38293 7.73122 4.38294 7.73122 4.27859C7.8357 4.38294 7.8357 4.48728 7.8357 4.48728ZM8.04465 7.09594L7.8357 7.30464V7.09594H8.04465ZM6.79094 5.11336C6.68647 5.00902 6.58199 4.90467 6.58199 4.69598L6.79094 5.11336ZM6.58199 7.09594V7.40899H6.26857H8.88046C11.1789 7.40899 11.0744 10.6437 8.88046 10.6437H6.26857V7.51333L6.05962 7.09594H6.58199ZM6.47752 20.661H5.74619C5.64171 20.5567 5.43276 20.4523 5.32829 20.2436L5.95514 20.348C6.05962 20.4523 6.26857 20.5567 6.47752 20.661ZM5.64171 8.86984L5.53724 9.39157L5.22381 9.49592L5.11934 9.28723L4.91039 8.5568C5.11934 8.5568 5.32829 8.66115 5.43276 8.86984H5.64171ZM5.53724 12.522C5.43276 12.522 5.22381 12.4176 5.11934 12.3133L5.53724 12.522ZM5.01486 5.94813H5.32829L5.22381 6.36552L5.01486 6.46987V5.94813ZM5.11934 7.40899C5.01486 7.40899 5.01486 7.30464 4.91039 7.09594L5.11934 7.40899ZM5.11934 17.635L5.32829 17.948L5.01486 18.1567C4.91038 18.1567 4.91039 18.0523 4.80591 17.8436L5.11934 17.635ZM3.44773 9.39157L3.76115 9.18288H4.17906L4.28353 10.7481H3.9701C3.76115 10.5394 3.5522 10.3307 3.44773 9.91331L3.34325 9.80896L3.44773 9.39157ZM2.19402 13.1481H2.82087L2.7164 13.7741C2.40297 13.6698 2.19402 13.4611 2.19402 13.1481ZM2.61192 14.4002V14.0872L3.02982 14.2959L2.61192 14.4002ZM3.65668 21.7045L3.23878 21.8088L3.34325 21.0784L3.86563 21.2871C3.86563 21.2871 3.76115 21.4958 3.65668 21.7045ZM3.9701 20.1393L3.86563 20.2436V20.0349L3.9701 19.7219C3.9701 19.6175 4.07458 19.4088 4.28353 19.2002L4.70143 18.9915L5.32829 18.7828C5.43276 18.7828 5.43276 18.7828 5.43276 18.8871C5.43276 19.0958 5.43276 19.2002 5.32829 19.3045L4.91039 19.5132L3.9701 20.1393Z" fill="white"/>
<path d="M30.9247 17.8431C30.6113 17.9475 30.2979 18.0518 30.0889 18.1562C30.0889 18.1562 29.9845 18.2605 29.9845 18.3649C29.9845 18.7823 29.9845 19.1996 29.9845 19.617C30.4024 19.0953 30.7158 18.4692 30.9247 17.8431Z" fill="white"/>
<path d="M28.6263 20.5559C28.5218 20.4515 28.3129 20.4515 28.2084 20.4515C27.895 20.4515 27.686 20.4515 27.3726 20.4515C27.0592 20.4515 26.7457 20.4515 26.4323 20.5559C26.3278 20.5559 26.2234 20.5559 26.0144 20.5559C25.9099 20.5559 25.701 20.4515 25.5965 20.4515C24.9696 20.6602 24.4473 20.9733 23.8204 21.2863C23.6115 21.3906 23.507 21.495 23.4025 21.7037C23.4025 21.808 23.298 21.808 23.298 21.9124H24.7607C26.1189 21.9124 27.3726 21.5993 28.3129 20.9733L28.6263 20.5559Z" fill="white"/>
<path d="M18.4922 21.5996C19.2236 21.1823 20.0594 20.7649 20.7907 20.3475C20.8952 20.2431 21.1041 20.2431 21.2086 20.1388C21.3131 20.0344 21.522 19.9301 21.4175 19.7214C21.4175 19.7214 21.4175 19.6171 21.522 19.5127C21.6265 19.4084 21.731 19.4084 21.9399 19.4084C22.2534 19.304 22.4623 19.1997 22.6713 18.991C22.7757 18.8866 22.9847 18.7823 23.0892 18.7823C23.716 18.7823 24.2384 18.5736 24.6563 18.2606C24.7608 18.1562 24.9697 18.0519 25.0742 17.9475C24.8652 17.9475 24.7608 17.9475 24.5518 17.9475H21.8355V13.565H24.5518C25.8055 13.565 26.6413 14.2954 26.6413 15.6519C26.6413 15.9649 26.6413 16.3823 26.5368 16.6954C26.6413 16.591 26.7458 16.4867 26.8503 16.3823L26.9547 16.278C26.9547 15.9649 27.1637 15.8606 27.3727 15.7562C27.4771 15.7562 27.6861 15.6519 27.7906 15.6519V15.5475C27.7906 15.5475 27.7906 15.5475 27.895 15.5475C28.104 15.4432 28.3129 15.4432 28.5219 15.3388C29.0443 15.1302 29.4622 14.9215 29.9845 14.7128C30.089 14.6084 30.298 14.6084 30.5069 14.6084C30.7159 14.6084 30.9248 14.6084 31.1338 14.5041C31.0293 14.0867 31.0293 13.6693 30.9248 13.3563C30.7159 13.3563 30.5069 13.2519 30.4024 13.1476L30.089 12.5215L30.6114 12.6258C30.089 11.6867 29.3577 10.9563 28.2085 10.5389V10.7476C28.2085 10.6432 28.2085 10.6432 28.2085 10.5389C27.2682 10.2259 26.2234 10.0172 24.7608 10.0172H21.8355V5.8433L21.4175 6.26069C21.3131 6.26069 21.2086 6.15634 21.2086 5.94765L21.4175 5.32157L21.8355 5.21722V4.06941H21.2086C21.3131 4.17376 21.3131 4.2781 21.4175 4.38245C21.3131 4.2781 21.2086 4.17376 21.2086 4.06941H17.552V22.017H18.1788C18.1788 21.8083 18.2833 21.704 18.4922 21.5996ZM30.1935 14.0867C30.4024 14.191 30.6114 14.191 30.6114 14.2954L29.9845 14.3997L29.6711 14.2954L30.1935 14.0867ZM29.1487 12.5215L29.7756 12.7302L29.4622 13.3563L28.9398 13.4606L28.8353 13.2519L28.7308 12.7302L29.1487 12.5215ZM28.4174 14.5041C28.4174 14.7128 28.3129 14.9215 28.2085 15.0258L27.895 15.1302L27.7906 14.3997L28.4174 14.5041ZM19.1191 14.2954H18.9101L19.0146 14.191L19.1191 13.6693C19.1191 13.6693 19.2236 13.7736 19.328 13.878L19.1191 14.2954ZM21.2086 8.66066L21.3131 8.76501L21.2086 9.18239C21.1041 9.18239 20.9996 9.18239 20.7907 9.07805C20.6862 8.9737 20.6862 8.76501 20.5817 8.55631L21.2086 8.66066ZM19.9549 5.63461C20.0594 5.73896 20.1638 5.8433 20.1638 5.94765L19.9549 5.63461ZM19.4325 4.38245C19.6415 4.38245 19.8504 4.4868 20.0594 4.59115L19.8504 5.11288L19.4325 5.21722L19.2236 5.00853L19.4325 4.38245ZM19.6415 9.91282L19.8504 10.2259L19.2236 10.5389C19.2236 10.6432 19.1191 10.6432 19.1191 10.7476C19.1191 10.8519 19.0146 10.8519 18.9101 10.9563L18.2833 10.7476C18.2833 10.5389 18.2833 10.3302 18.1788 10.1215L18.3878 9.49544L19.1191 9.59978L19.6415 9.91282ZM18.5967 6.78242L18.2833 6.88677C18.1788 6.78242 18.1788 6.57373 18.1788 6.57373L18.5967 6.78242ZM18.0743 12.2084C17.9699 12.3128 17.8654 12.4171 17.6564 12.4171L18.0743 12.2084ZM18.4922 17.2171L18.0743 17.3214L17.7609 17.0084C17.9699 17.0084 18.1788 17.1127 18.4922 17.2171Z" fill="white"/>
<path d="M34.4769 12.9394C34.8948 12.522 35.2083 12.2089 35.6262 11.7915C35.5217 11.7915 35.4172 11.6872 35.3127 11.5828L35.7306 11.7915C36.0441 11.4785 36.3575 11.1655 36.6709 10.8524C36.7754 10.7481 36.7754 10.7481 36.8799 10.6437C36.8799 10.6437 36.8799 10.6437 36.8799 10.5394C36.6709 10.5394 36.462 10.5394 36.253 10.5394C36.253 10.5394 36.253 10.5394 36.253 10.435C36.5664 10.2263 36.7754 10.122 37.0888 9.91331C36.9843 9.70461 36.8799 9.60027 36.6709 9.39157V9.28723C36.9843 9.18288 37.1933 9.07853 37.5067 8.97418C37.5067 8.97418 37.6112 8.86984 37.7157 8.86984C37.4022 8.76549 37.1933 8.66114 36.8799 8.66114C37.2978 8.45245 37.4023 8.3481 37.8202 8.13941V6.46987V6.26118V3.96555H36.7754L36.9843 4.38293C36.8799 4.27859 36.7754 4.17424 36.7754 3.96555H35.1038L34.9993 4.69598C34.8948 4.59163 34.7904 4.48728 34.6859 4.27859L34.5814 3.96555H33.3277V13.4611C33.6411 13.3567 33.9546 13.1481 34.268 13.0437C34.3725 12.9394 34.3725 12.9394 34.4769 12.9394ZM36.8799 6.36552V6.67856L36.462 6.78291L36.253 6.36552H36.8799ZM35.7306 8.13941L35.6262 8.66114L35.3127 8.76549L35.2083 8.5568L34.9993 7.82637C35.2083 7.82637 35.4172 7.93072 35.5217 8.13941H35.7306ZM34.8948 5.11336H35.2083L35.1038 5.53074L34.8948 5.6351V5.11336ZM35.2083 6.67856C35.1038 6.67856 35.1038 6.57421 34.9993 6.36552L35.2083 6.67856ZM33.5367 9.07853L33.4322 8.97418L33.5367 8.5568L33.8501 8.34811H34.268L34.3725 9.91331H34.059C33.7456 9.70461 33.5367 9.49592 33.5367 9.07853Z" fill="white"/>
<path d="M37.7157 17.6348L37.5067 18.1565L36.7754 18.3652C36.8799 18.1565 36.8799 17.9478 36.9843 17.9478L37.7157 17.6348V13.774C37.4022 14.087 36.9843 14.2957 36.5664 14.5044C35.9396 14.8174 35.5217 15.2348 35.1038 15.7566C34.9993 15.8609 34.8948 16.0696 34.6859 16.1739C34.5814 16.2783 34.3725 16.3826 34.1635 16.3826C33.8501 16.3826 33.5367 16.487 33.3277 16.5913V20.3478L33.8501 20.5565C33.8501 20.7652 33.7456 20.9739 33.6411 21.0782H33.3277V22.0174H37.7157V17.6348ZM37.6112 16.1739L36.9843 16.2783L36.8799 16.0696L37.6112 16.1739ZM35.2083 16.9044L35.4172 17.2174L35.1038 17.4261C34.9993 17.4261 34.9993 17.3218 34.8948 17.1131L35.2083 16.9044ZM34.268 19.4087L34.1635 19.513V19.3043L34.268 18.9913C34.268 18.887 34.3725 18.6783 34.5814 18.4696L34.9993 18.2609L35.6262 18.0522C35.7306 18.0522 35.7306 18.0522 35.7306 18.1565C35.7306 18.3652 35.7306 18.4696 35.6262 18.5739L35.2083 18.7826L34.268 19.4087ZM35.7306 19.8261C35.6262 19.7217 35.4172 19.6174 35.3127 19.4087L35.9396 19.513C36.0441 19.513 36.253 19.6174 36.462 19.8261H35.7306ZM36.6709 17.1131H36.462L36.6709 16.8L36.8799 17.0087L36.6709 17.1131Z" fill="white"/>
<path d="M53.2826 15.2347C53.1781 15.2347 52.9691 15.339 52.7602 15.339C52.6557 15.4434 52.4467 15.4434 52.2378 15.4434C52.0288 15.5477 51.9244 15.5477 51.8199 15.6521C51.402 15.8608 50.9841 16.1738 50.5662 16.3825C50.1483 16.6955 49.6259 16.7999 49.208 16.9042C49.1035 16.9042 48.9991 16.9042 48.8946 17.0086V17.8434C48.8946 17.8434 48.9991 17.8434 48.9991 17.739C48.9991 17.739 48.9991 17.739 48.9991 17.8434C48.8946 17.8434 48.8946 17.9477 48.7901 17.9477V21.8085H53.2826V15.2347Z" fill="white"/>
<path d="M52.3423 3.96555C52.4468 4.06991 52.5513 3.96555 52.6557 3.96555H52.3423Z" fill="white"/>
<path d="M44.5066 9.70413C44.5066 9.80847 44.2976 9.91282 44.1932 9.91282C43.9842 10.0172 43.7753 10.1215 43.6708 10.2259L45.1334 12.3128H46.1782L46.9095 12.5215L45.3424 12.7302L45.4469 12.8345L41.7902 18.2606C41.8947 18.1562 42.1037 18.0519 42.2081 17.8432C42.7305 17.3214 43.2529 17.0084 43.9842 16.904C44.1932 16.904 44.2976 16.6954 44.5066 16.591C44.6111 16.4867 44.82 16.3823 44.9245 16.278C45.5513 15.9649 46.0737 15.6519 46.5961 15.2345C46.805 15.0258 47.014 14.9215 47.2229 14.8171C47.1185 14.8171 47.1185 14.7128 46.9095 14.7128C47.3274 14.6084 47.6409 14.5041 47.9543 14.5041C48.1632 14.5041 48.3722 14.5041 48.5811 14.2954C48.8946 13.9823 49.3125 13.6693 49.6259 13.3563C49.9393 13.0432 50.3572 12.7302 50.6706 12.4171C50.8796 12.2085 51.193 12.1041 51.6109 12.1041C52.0288 12.1041 52.3423 11.9998 52.6557 11.6867C52.9691 11.478 53.1781 11.165 53.4915 10.9563C53.596 10.8519 53.7004 10.7476 53.4915 10.6432C53.4915 10.6432 53.4915 10.6432 53.4915 10.5389L53.387 10.7476V4.06941H52.9691C52.8646 4.17376 52.8646 4.17376 52.7602 4.2781C52.8646 4.38245 52.8646 4.4868 52.9691 4.59115L52.3423 4.79984C52.1333 4.90418 52.0288 5.00853 51.9243 5.11288C51.9243 5.11288 51.9243 5.11288 51.8199 5.21722L51.402 5.53026C51.0885 5.73895 50.8796 5.94765 50.6706 6.15635C50.2527 6.57373 49.8348 6.78242 49.3125 6.99111C49.4169 7.09546 49.4169 7.09546 49.5214 7.09546C49.6259 7.09546 49.6259 7.19981 49.7304 7.19981C49.7304 7.30416 49.6259 7.30416 49.6259 7.4085C49.5214 7.51285 49.4169 7.51285 49.3125 7.61719C49.208 7.72154 49.208 7.72154 49.1035 7.82589C49.208 7.93024 49.208 7.93023 49.3125 8.03458C49.4169 8.13893 49.5214 8.13893 49.6259 8.24328C49.5214 8.34763 49.4169 8.34762 49.4169 8.34762C49.3125 8.34762 49.1035 8.45197 48.999 8.45197V9.07805L49.3125 9.18239L49.8348 9.49544L50.0438 9.80848L49.4169 10.1215C49.4169 10.2259 49.3125 10.2259 49.3125 10.3302C49.3125 10.4346 49.208 10.4346 49.1035 10.5389L48.8946 10.4346V10.8519L48.5811 10.3302H48.4767V10.2259L47.6409 8.86936C47.2229 8.9737 46.805 9.07805 46.4916 9.39109C46.2827 9.49544 46.0737 9.59978 45.8648 9.59978C45.5513 9.59978 45.2379 9.70413 45.029 9.70413C44.7155 9.39109 44.5066 9.49543 44.5066 9.70413ZM51.2975 7.93024L51.402 8.03458L51.2975 8.45197C51.193 8.45197 51.0885 8.45197 50.8796 8.34762C50.7751 8.24328 50.7751 8.03458 50.6706 7.82589L51.2975 7.93024ZM49.1035 13.3563L49.208 12.8345C49.208 12.8345 49.3125 12.9389 49.4169 13.0432L49.3125 13.4606H49.1035V13.3563ZM48.1632 11.478C48.0588 11.5824 47.9543 11.6867 47.7453 11.6867L48.1632 11.478Z" fill="white"/>
<path d="M43.2529 21.6003C43.0439 21.7046 42.7305 21.809 42.5216 21.9133H44.7156L45.7603 20.2438C45.5514 20.3482 45.3424 20.3481 45.2379 20.4525C44.6111 20.7655 43.8797 21.1829 43.2529 21.6003Z" fill="white"/>
<path d="M61.8495 20.4515C61.6405 20.6602 61.5361 20.7646 61.4316 20.8689C61.2226 20.9733 61.1181 21.182 61.3271 21.3906V21.495C61.2226 21.5993 61.2226 21.7037 61.2226 21.808H62.8942L61.8495 20.4515Z" fill="white"/>
<path d="M43.044 6.67906C43.2529 6.67906 43.2529 6.57471 43.3574 6.36602C43.3574 6.15732 43.4619 5.94863 43.5664 5.84428C43.8798 5.63559 44.1932 5.4269 44.5066 5.32255C44.7156 5.2182 45.029 5.11385 45.238 5.00951L44.5066 3.86169H39.2829L41.4769 6.99209C41.9992 6.99209 42.5216 6.88775 43.044 6.67906Z" fill="white"/>
<path d="M45.4469 19.6171C45.5513 19.7214 45.6558 19.8258 45.8648 19.9301L46.4916 18.8866C46.0737 19.0953 45.7603 19.304 45.4469 19.6171Z" fill="white"/>
<path d="M58.8197 18.7827C59.1331 18.6783 59.3421 18.574 59.4465 18.574C59.76 18.4696 59.9689 18.3653 60.2823 18.261L60.1779 18.0523C60.0734 18.0523 59.8644 18.1566 59.76 18.1566V18.0523C59.8644 17.9479 59.9689 17.9479 60.0734 17.8436L59.4465 16.8001L59.2376 17.0088V16.6958H59.3421L56.7302 12.7306L57.9839 10.9567C57.7749 11.061 57.566 11.1654 57.357 11.2697C56.9391 11.4784 56.6257 11.7915 56.2078 12.1045C55.9989 12.2089 56.1033 12.3132 56.4168 12.4175C56.4168 12.5219 56.3123 12.6262 56.3123 12.6262C56.1033 12.9393 55.8944 13.148 55.7899 13.461C55.4765 13.8784 55.0586 14.2958 54.6407 14.6088C54.3272 14.8175 54.0138 15.0262 53.7004 15.1306L56.7302 20.3479C56.9391 20.2435 57.2526 20.1392 57.4615 20.0348C57.566 19.9305 57.6705 19.8262 57.7749 19.7218C57.9839 19.4088 58.1928 19.2001 58.5063 19.2001C58.6107 19.2001 58.7152 19.0957 58.7152 19.0957L58.1928 17.4262C58.0884 17.3218 57.9839 17.1131 57.8794 17.0088L57.9839 16.4871L58.2973 16.0697C58.4018 16.0697 58.6107 16.174 58.6107 16.3827V17.2175L58.8197 17.8436L59.2376 18.1566L59.0286 18.7827H58.8197ZM57.8794 15.4436H57.6705L57.8794 14.8175C57.8794 14.8175 57.9839 14.8175 58.0884 14.9219L57.8794 15.4436Z" fill="white"/>
<path d="M55.0587 9.70461C55.1631 9.60026 55.1631 9.49592 55.2676 9.28723C55.2676 9.18288 55.3721 9.18287 55.4766 9.18287C56.2079 9.07853 56.6258 8.55679 57.0437 8.13941V8.03506C56.7303 8.13941 56.4168 8.3481 56.1034 8.45245C56.1034 8.45245 56.1034 8.45245 55.9989 8.34811C56.7303 7.82637 57.4616 7.30464 58.0884 6.78291C58.0884 6.78291 58.0884 6.78291 58.0884 6.67856C57.984 6.67856 57.8795 6.67856 57.775 6.67856L57.8795 6.57421C58.1929 6.36552 58.5063 6.15683 58.9242 5.94813C59.2377 5.73944 59.5511 5.53075 60.0735 5.4264C60.5959 5.32205 61.0138 5.00902 61.4317 4.69598C61.6406 4.48728 61.954 4.27859 62.163 4.0699C61.954 4.0699 61.8496 4.0699 61.7451 4.0699C61.8496 4.0699 61.8496 3.96555 61.954 3.96555H61.0138V4.27859C60.8048 4.38294 60.5959 4.38293 60.4914 4.38293V3.96555H57.6705L53.596 10.3307C53.7005 10.3307 53.9094 10.2263 54.0139 10.2263C54.3273 10.122 54.7452 10.0176 55.0587 9.70461Z" fill="white"/>
<path d="M23.4025 32.348C23.4025 32.4524 23.1935 32.348 23.089 32.348C22.9846 32.348 22.8801 32.348 22.7756 32.348C22.4622 32.4524 22.0443 32.5567 21.7309 32.6611V33.1828C21.7309 34.0176 20.7906 34.4349 19.9548 34.4349C19.4324 34.4349 18.91 34.3306 18.5966 34.0176C18.2832 34.2263 17.8653 34.3306 17.3429 34.1219C17.4474 34.435 17.2384 34.4349 17.1339 34.4349C16.716 34.5393 16.4026 34.6436 16.0892 34.8523C16.925 36.0002 18.4921 36.5219 20.0592 36.5219C22.3577 36.5219 24.6562 35.3741 24.6562 32.9741V31.5133C24.5517 31.5133 24.5517 31.6176 24.4472 31.6176C23.9248 31.9306 23.6114 32.1393 23.4025 32.348Z" fill="white"/>
<path d="M16.0892 32.452C16.1937 32.452 16.4027 32.452 16.5071 32.452C17.0295 32.2433 17.4474 32.0346 17.9698 31.8259C18.0743 31.8259 18.0743 31.8259 18.1787 31.8259V29.8433C18.1787 29.0086 19.119 28.5912 19.9548 28.5912C20.8951 28.5912 21.7309 29.0086 21.7309 29.8433V30.1564C21.8354 30.1564 21.9399 30.052 21.8354 29.8433C22.0443 29.739 22.2533 29.739 22.3578 29.6346C22.5667 29.5303 22.7757 29.4259 22.8801 29.2173C23.0891 29.0086 23.298 28.7999 23.507 28.5912C23.6115 28.4868 23.6115 28.3825 23.7159 28.2781C23.8204 28.1738 23.8204 28.0694 23.9249 28.0694C23.0891 26.9216 21.522 26.2955 19.8503 26.2955C17.5519 26.2955 15.2534 27.4434 15.2534 29.8433V30.3651H14.731V30.7825C14.5221 30.8868 14.3131 30.8868 14.1042 30.8868V30.4694L14.3131 30.3651H13.6863V26.3999H10.8654V27.1303V35.4781C11.2834 35.2694 11.7013 35.0607 12.1192 34.852C12.5371 34.6433 12.8505 34.4346 13.1639 34.1216H13.0594L13.2684 33.8085H13.4773C13.4773 33.8085 13.5818 33.8085 13.5818 33.7042V32.7651H15.1489V32.8694C15.2534 32.765 15.3579 32.765 15.4624 32.6607C15.8803 32.452 15.9848 32.3477 16.0892 32.452ZM12.5371 27.026L12.2236 26.5042L12.955 26.6086L13.0594 27.339L12.5371 27.026Z" fill="white"/>
<path d="M12.6415 36.4167C12.537 36.4167 12.4325 36.5211 12.3281 36.6254C11.9102 36.7298 11.3878 36.7298 10.9699 36.8341V37.0428H13.7907V36.1037C13.6862 36.1037 13.5818 36.1037 13.4773 36.1037C13.1639 36.208 12.9549 36.3124 12.6415 36.4167Z" fill="white"/>
<path d="M21.7309 30.5739C21.8354 30.5739 21.8354 30.4695 21.9399 30.3652C21.8354 30.3652 21.8354 30.2608 21.7309 30.2608V30.5739Z" fill="white"/>
<path d="M28.7308 26.2955C28.8353 26.3998 29.0442 26.3998 29.0442 26.3998C29.4621 26.1911 29.7755 26.0868 30.1934 25.8781H26.1189V26.3998C26.3278 26.1911 26.6413 26.1911 26.9547 26.2955C27.1637 26.3998 27.3726 26.2955 27.5816 26.1911C27.9995 26.0868 28.3129 25.9824 28.7308 25.8781H28.8353L28.7308 25.9825C28.7308 26.0868 28.6263 26.1911 28.7308 26.2955Z" fill="white"/>
<path d="M33.7457 27.8613C33.5367 28.07 33.3278 28.1744 33.0144 28.2787H33.7457V27.8613Z" fill="white"/>
<path d="M31.5516 29.8434C31.2382 29.8434 31.0292 29.8434 30.7158 29.8434H29.2532C29.0442 29.8434 28.9397 29.9477 28.8353 29.9477C28.8353 30.1564 28.9397 30.2607 28.9397 30.3651L28.8353 31.0955C28.7308 30.9912 28.6263 30.8868 28.5218 30.6781L28.3129 30.2607C28.2084 30.2607 28.2084 30.3651 28.1039 30.3651C27.7905 30.5738 27.3726 30.6781 27.0592 30.7825L27.1637 30.8868C27.0592 30.9912 26.9547 30.9912 26.8502 31.0955C26.6413 31.1999 26.4323 31.3042 26.1189 31.4086V34.9563V35.3737L26.3278 36.7302L26.2234 36.9389H26.1189V37.0433H30.7158C33.2232 37.0433 34.7904 35.5824 34.7904 33.3911C34.8948 31.3042 34.059 30.052 31.5516 29.8434ZM27.5816 35.7911C27.3726 35.5824 27.1637 35.3737 27.0592 34.9563L26.9547 34.852L27.0592 34.4346L27.3726 34.2259H27.7905L27.895 35.7911H27.5816ZM30.5069 30.3651C30.4024 30.2607 30.2979 30.1564 30.2979 29.9477L30.5069 30.3651ZM28.5218 31.4086H28.8353L28.7308 31.8259L28.5218 31.9303V31.4086ZM28.5218 32.5564L28.7308 32.8694C28.7308 32.7651 28.6263 32.6607 28.5218 32.5564ZM31.7606 33.9129C31.6561 34.3303 31.2382 34.6433 30.5069 34.6433H29.2532V34.852L28.9397 34.9563L28.8353 34.7476L28.6263 34.0172C28.7308 34.0172 28.8353 34.1216 28.9397 34.1216V32.3477H29.9845H30.5069H30.6113C30.9248 32.3477 31.2382 32.452 31.4471 32.5564V32.452L31.6561 32.5564L31.4471 32.6607C31.6561 32.8694 31.7606 33.1824 31.7606 33.4955H32.074L31.9695 33.8085L31.7606 33.9129ZM32.283 34.7476C32.1785 34.7476 32.074 34.6433 31.9695 34.4346L32.3874 34.539L32.283 34.7476Z" fill="white"/>
<path d="M38.1336 33.4959C38.1336 33.3915 38.1336 33.3915 38.1336 33.4959V29.6351C38.1336 28.8003 38.9694 28.3829 39.9096 28.3829C40.8499 28.3829 41.7902 28.8003 41.7902 29.6351V30.7829C41.8947 30.5742 42.1036 30.3655 42.2081 30.1568L42.3126 30.2611C42.417 30.2611 42.5215 30.2611 42.5215 30.2611C42.7305 30.1568 42.9394 29.9481 43.0439 29.8437V29.6351H43.1484C43.2529 29.5307 43.4618 29.4264 43.5663 29.2177C43.7752 29.009 44.0887 28.8003 44.2976 28.4872C43.7752 26.609 41.7902 25.7742 39.8052 25.7742C37.8201 25.7742 35.8351 26.7134 35.3127 28.5916L37.1933 29.009L37.7156 29.2177L36.9843 29.322L35.7306 29.1133L35.1038 29.322C35.1038 29.4264 35.1038 29.5307 35.1038 29.5307V33.2872C35.1038 33.7046 35.2082 34.122 35.3127 34.435C35.3127 34.435 35.3127 34.435 35.4172 34.3307C35.6261 34.6437 35.7306 34.6437 35.8351 34.435C36.1485 33.9133 36.6709 33.7046 37.2977 33.6002C37.7157 33.6002 37.9246 33.6002 38.1336 33.4959ZM44.1931 28.6959L43.6708 28.8003L43.5663 28.5916L44.1931 28.6959ZM35.7306 33.7046V33.3915H36.044L35.7306 33.7046ZM37.2977 33.0785C37.4022 33.1828 37.5067 33.2872 37.5067 33.3915L37.2977 33.0785Z" fill="white"/>
<path d="M44.1931 32.7649C44.0887 32.7649 43.8797 32.8692 43.7752 32.8692C43.2529 32.9736 42.7305 33.1823 42.2081 33.391C41.9991 33.4953 41.7902 33.5997 41.5812 33.704C41.3723 34.1214 40.8499 34.4344 40.2231 34.5388C40.1186 34.6431 40.1186 34.7475 40.1186 34.8518C40.1186 34.9562 39.8052 34.9562 39.7007 34.9562C39.4917 34.8518 39.3872 34.9562 39.2828 34.9562C38.8649 35.1649 38.3425 35.4779 37.9246 35.6866C37.6112 35.8953 37.1933 35.9996 36.7754 36.104C36.8798 36.2083 36.8798 36.3127 36.9843 36.3127C37.8201 36.8344 38.8649 37.1475 39.9096 37.1475C42.2081 37.1475 44.5066 35.8953 44.5066 33.391V32.2432C44.4021 32.2432 44.2976 32.3475 44.2976 32.3475C44.0887 32.4518 43.9842 32.5562 44.1931 32.7649ZM43.0439 35.8953C43.0439 35.9996 42.9394 35.9996 42.9394 36.104C42.9394 36.2083 42.835 36.2083 42.7305 36.3127L42.1036 36.104C42.1036 35.8953 42.1036 35.6866 41.9991 35.4779L42.2081 34.8518L42.9394 34.9562L43.4618 35.2692L43.6708 35.5823L43.0439 35.8953Z" fill="white"/>
<path d="M48.7901 25.8781H46.0738V27.8607C46.3872 27.7563 46.7006 27.652 46.9096 27.4433C47.432 27.1303 47.9543 26.9216 48.3722 26.6085C48.4767 26.5042 48.4767 26.3998 48.2678 26.3998C48.0588 26.3998 47.8499 26.2955 47.6409 26.2955C47.7454 26.1911 47.9543 26.1911 48.1633 26.0868C48.4767 26.0868 48.5812 25.9824 48.7901 25.8781Z" fill="white"/>
<path d="M62.0584 31.3044C61.9539 31.4087 61.9539 31.5131 61.8494 31.6174C61.9539 31.6174 61.9539 31.6174 62.0584 31.6174V31.3044Z" fill="white"/>
<path d="M68.0135 27.7563C67.5956 28.1737 67.1777 28.4867 66.8643 28.9041C66.7598 29.0084 66.5509 29.2171 66.3419 29.3215C66.3419 29.2171 66.3419 29.1128 66.3419 29.0084C66.3419 28.7997 66.2374 28.7997 66.0285 28.9041C65.8195 29.0084 65.6106 29.2171 65.4016 29.4258C65.4016 29.4258 65.2972 29.4258 65.2972 29.5302V34.2258H62.0584V31.7214C61.9539 31.7214 61.8495 31.8258 61.745 31.8258C61.3271 31.9301 61.0137 32.0345 60.5958 32.0345C60.4913 32.0345 60.2823 32.0345 60.0734 32.0345C59.9689 32.0345 59.8644 32.0345 59.76 32.0345C59.551 32.1388 59.551 32.2432 59.76 32.3475C59.6555 32.3475 59.4465 32.3475 59.3421 32.4519V32.9736C59.3421 32.9736 59.3421 32.9736 59.4465 32.9736C59.4465 32.9736 59.4465 32.9736 59.3421 32.9736V36.9388H65.8195L65.7151 36.5214L66.5509 36.6257L66.8643 36.7301V37.1475L67.0733 38.504L66.9688 38.7127L66.5509 38.817V39.3388H69.3717V34.1214H68.2225V27.7563H68.0135ZM65.6106 33.391H65.924L66.0285 33.9127L65.7151 34.0171V33.391H65.6106ZM65.8195 35.6866L65.6106 34.8518L66.2375 35.0605C66.3419 35.4779 66.3419 35.791 66.3419 35.8953C66.2374 35.8953 66.0285 35.8953 65.8195 35.6866ZM68.118 36.2084H68.5359L68.6404 37.7736H68.327C68.118 37.5649 67.9091 37.3562 67.8046 36.9388L67.7001 36.8344L67.8046 36.417L68.118 36.2084Z" fill="white"/>
<path d="M65.1926 25.8781V26.0868C65.2971 25.9825 65.2971 25.9825 65.4016 25.8781H65.1926Z" fill="white"/>
<path d="M62.0585 25.8781H59.2376V30.052C59.3421 30.052 59.3421 29.9476 59.4466 29.9476C59.969 29.5302 60.5958 29.1128 61.2227 28.6955C61.3271 28.5911 61.4316 28.4868 61.4316 28.3824C61.5361 28.1737 61.745 27.8607 62.0585 27.8607V25.8781Z" fill="white"/>
<path d="M54.1183 26.0866C54.1183 26.0866 54.0138 26.1909 53.9093 26.1909C53.5959 26.1909 53.387 26.3996 53.178 26.6083C53.2825 26.6083 53.387 26.6083 53.4914 26.6083C53.387 26.817 53.0735 26.9214 52.8646 27.0257C52.9691 27.0257 53.0735 27.0257 53.178 27.1301C52.8646 27.3388 52.5512 27.5474 52.2377 27.6518C51.9243 27.8605 51.5064 28.0692 51.193 28.1735C51.0885 28.2779 50.984 28.2779 50.8795 28.3822L49.6258 30.4692L48.6856 32.4517H48.5811L48.79 30.7822V29.3213C48.6856 29.4257 48.5811 29.53 48.4766 29.53C48.2677 29.7387 47.9542 29.8431 47.7453 30.0518L47.6408 30.1561C47.7453 30.1561 47.7453 30.2605 47.8498 30.3648C47.6408 30.4691 47.4318 30.6778 47.2229 30.7822C47.0139 30.8865 46.7005 30.9909 46.4916 31.1996C46.3871 31.3039 46.2826 31.3039 46.1781 31.4083C46.1781 31.5126 46.0737 31.5126 45.9692 31.5126V36.9386H48.2677C48.3721 36.8343 48.4766 36.7299 48.5811 36.6256C48.5811 36.7299 48.5811 36.8343 48.4766 36.8343L51.0885 32.4517L52.1332 30.2604H52.2377C52.2377 30.2604 52.0288 32.3474 51.9243 32.3474V34.8517C52.1332 34.643 52.3422 34.4343 52.5512 34.2256C52.6556 34.1213 52.7601 34.0169 52.8646 33.9126C52.8646 33.8082 52.969 33.8082 52.969 33.7039H53.2825C53.2825 33.8082 53.2825 34.0169 53.178 34.2256C53.178 34.2256 53.2825 34.2256 53.387 34.2256C53.8049 34.2256 54.0138 34.0169 54.1183 33.7039C54.2228 33.2865 54.5362 32.8691 54.8496 32.6604V25.6692H54.3272C54.2228 25.8779 54.2228 25.9822 54.1183 26.0866ZM53.2825 33.5996L52.969 33.3908L53.178 33.0778L53.387 33.1822L53.2825 33.5996ZM54.6407 29.3213L54.7451 29.53L54.6407 30.2604C54.4317 30.3648 54.2228 30.3648 54.1183 30.3648V29.9474L53.7004 29.7387V28.7996C54.3272 28.7996 54.5362 29.0083 54.6407 29.3213Z" fill="white"/>
<path d="M54.8496 37.0433V36.6259C54.7451 36.7303 54.6406 36.8346 54.5362 36.939H54.8496V37.0433Z" fill="white"/>
<path d="M29.5665 28.9043C29.671 28.9043 29.8799 28.9043 29.9844 28.9043C29.9844 29.113 29.8799 29.113 29.7755 29.113C29.2531 29.2174 28.9397 29.3217 28.5218 29.5304C28.2083 29.7391 27.8949 29.8435 27.477 29.9478L27.5815 30.0521C27.477 30.1565 27.3725 30.1565 27.2681 30.2608C26.4323 30.5739 25.7009 30.8869 24.8651 31.2C24.5517 31.3043 24.2383 31.513 23.9248 31.7217C23.9248 31.826 23.7159 31.7217 23.6114 31.7217C23.5069 31.7217 23.4025 31.7217 23.298 31.7217C22.7756 31.826 22.2532 32.0347 21.8353 32.1391C21.6264 32.2434 21.5219 32.2434 21.313 32.3478C21.2085 32.3478 21.2085 32.4521 21.104 32.4521C20.6861 32.4521 20.2682 32.6608 19.9548 32.8695C19.9548 32.8695 19.9548 32.8695 19.8503 32.8695C19.2234 33.1825 18.7011 33.5999 17.8653 33.3912C17.9697 33.7043 17.7608 33.7043 17.6563 33.7043C17.0295 33.8086 16.5071 34.1217 16.0892 34.5391C15.9847 34.6434 15.8802 34.6434 15.6713 34.6434C15.5668 34.6434 15.5668 34.6434 15.5668 34.7477C15.4623 34.8521 15.3579 34.8521 15.2534 34.9564C15.0444 35.0608 14.731 35.0608 14.522 35.1651C14.4176 35.1651 14.3131 35.1651 14.2086 35.1651C13.8952 35.2695 13.6862 35.3738 13.3728 35.5825C13.2683 35.5825 13.1639 35.6869 13.0594 35.6869C12.3281 35.7912 11.5967 35.8956 10.9699 35.8956C10.7609 35.8956 10.552 35.9999 10.343 35.9999C9.92512 36.2086 9.40275 36.4173 8.98485 36.626C8.88037 36.626 8.77589 36.7303 8.77589 36.7303C8.77589 36.7303 8.77589 36.7303 8.77589 36.626C8.88037 36.5216 8.98485 36.5216 9.08932 36.4173C9.71617 36.2086 10.0296 35.7912 10.2386 35.3738C10.343 35.1651 10.552 34.9564 10.6565 34.7477C10.7609 34.6434 10.9699 34.5391 11.1788 34.5391C11.3878 34.5391 11.7012 34.4347 11.9102 34.3304C12.3281 34.1217 12.746 33.913 13.1639 33.7043C13.5818 33.4956 13.9997 33.1825 14.3131 32.8695C14.522 32.6608 14.8355 32.4521 15.1489 32.3478C15.4623 32.1391 15.7758 32.1391 16.0892 31.9304C16.2981 31.826 16.4026 31.7217 16.5071 31.6173C16.6116 31.513 16.716 31.513 16.925 31.513C17.0295 31.513 17.2384 31.513 17.3429 31.513C17.8653 31.3043 18.2832 31.0956 18.7011 30.8869C18.8055 30.8869 18.91 30.8869 19.0145 30.8869C19.119 30.8869 19.2234 30.8869 19.3279 30.8869C20.0592 30.4695 20.8951 30.3652 21.7309 30.1565C21.9398 30.0522 22.2532 30.0522 22.4622 29.9478C22.5667 29.9478 22.5667 29.8435 22.6711 29.7391C22.5667 29.6348 22.4622 29.6348 22.3577 29.5304C22.3577 29.5304 22.3577 29.5304 22.2532 29.5304C22.3577 29.4261 22.6711 29.4261 22.4622 29.113C22.6711 29.0087 22.8801 29.0087 22.9846 28.9043C23.1935 28.8 23.298 28.6956 23.5069 28.4869C23.7159 28.2783 23.9248 28.0696 24.1338 27.8609C24.2383 27.7565 24.2383 27.6522 24.3427 27.5478C24.4472 27.3391 24.6562 27.1304 24.7606 27.0261C24.9696 26.8174 25.0741 26.7131 25.283 26.5044C25.283 26.5044 25.3875 26.4 25.492 26.4C25.8054 26.1913 26.2233 25.9826 26.5367 25.7739C26.7457 25.5652 27.0591 25.5652 27.3725 25.6696C27.5815 25.7739 27.7904 25.6696 27.9994 25.5652C28.4173 25.4609 28.7307 25.3565 29.1486 25.2522H29.2531L29.1486 25.3565C29.0441 25.4609 28.9397 25.5652 29.0441 25.6696C29.1486 25.7739 29.2531 25.7739 29.3576 25.7739C30.0889 25.4609 30.8202 25.1479 31.5516 24.7305C31.865 24.5218 32.1784 24.3131 32.5963 24.2087C33.0142 24 33.3276 23.687 33.5366 23.374C33.7455 23.0609 33.9545 22.8522 34.3724 22.8522C34.6858 22.7479 34.8948 22.6435 35.1037 22.5392C35.4171 22.4348 35.7306 22.2261 36.044 22.1218C36.253 22.0175 36.3574 22.0175 36.5664 21.9131C36.7753 21.8088 37.0888 21.7044 37.2977 21.6001H37.4022C37.8201 21.287 38.3425 21.1827 38.8648 21.0783C39.0738 20.974 39.1783 20.8696 39.3872 20.7653C39.4917 20.661 39.4917 20.5566 39.2827 20.4523C39.4917 20.3479 39.5962 20.2436 39.7006 20.1392C39.9096 20.0349 40.1185 19.9305 40.432 19.8262C40.7454 19.6175 41.0588 19.4088 41.1633 19.2001C41.2678 19.0958 41.3723 18.9914 41.4767 18.7827C41.8946 18.4697 42.2081 18.1566 42.626 17.7392C43.0439 17.2175 43.6707 17.0088 44.2976 16.8001C44.5065 16.8001 44.611 16.5914 44.8199 16.4871C44.9244 16.3827 45.1334 16.2784 45.2379 16.174C45.8647 15.861 46.3871 15.548 46.9095 15.1306C47.1184 15.0262 47.3274 14.8175 47.5363 14.7132C47.4318 14.7132 47.4318 14.6088 47.2229 14.6088C47.6408 14.5045 47.9542 14.4001 48.2676 14.4001C48.4766 14.4001 48.6855 14.4001 48.8945 14.1915C49.2079 13.8784 49.6258 13.5654 49.9392 13.2523C50.2527 12.9393 50.5661 12.6263 50.984 12.3132C51.193 12.1045 51.5064 12.0002 51.9243 12.0002C52.3422 12.0002 52.6556 11.8958 52.969 11.5828C53.2825 11.3741 53.4914 11.0611 53.8048 10.8524C53.9093 10.748 54.0138 10.6437 53.8048 10.5393C53.8048 10.5393 53.8048 10.5393 53.7004 10.435C53.9093 10.3306 54.0138 10.3306 54.2227 10.3306C54.6406 10.2263 55.0585 10.1219 55.372 9.8089C55.4764 9.70455 55.4764 9.6002 55.5809 9.39151C55.5809 9.28716 55.6854 9.28717 55.7899 9.28717C56.5212 9.18282 56.9391 8.66109 57.357 8.2437V8.13935C57.0436 8.24369 56.7302 8.45239 56.4167 8.55673C56.4167 8.55673 56.4167 8.55674 56.3123 8.45239C57.0436 7.93066 57.6704 7.40892 58.4018 6.99153C58.4018 6.99153 58.4018 6.99154 58.4018 6.88719C58.2973 6.88719 58.1928 6.88719 58.0883 6.88719L58.1928 6.78284C58.5062 6.57415 58.8197 6.36546 59.1331 6.15677C59.4465 5.94807 59.7599 5.73938 60.1778 5.63503C60.7002 5.53069 61.1181 5.32199 61.536 4.9046C61.745 4.69591 61.9539 4.48722 62.2674 4.27852C62.0584 4.27852 61.9539 4.27852 61.8494 4.27852C61.9539 4.27852 61.9539 4.17418 62.0584 4.17418C62.4763 3.96548 62.8942 3.86114 63.2076 3.65244C63.2076 3.65244 63.2076 3.65244 63.3121 3.65244C63.939 3.5481 64.4613 3.33941 64.8792 3.02637C64.8792 3.02637 64.9837 3.02636 64.9837 2.92201C64.9837 2.92201 64.9837 2.92202 65.0882 3.02637C64.8792 3.23506 64.7748 3.44375 64.5658 3.75679C64.7748 3.65244 64.9837 3.54809 65.2971 3.44375C65.0882 3.75679 64.9837 4.06983 64.7748 4.27852C64.5658 4.38287 64.4613 4.59156 64.2524 4.69591C63.73 5.21764 63.2076 5.63503 62.6853 6.15677C62.5808 6.26111 62.4763 6.36545 62.2674 6.4698C62.1629 6.57415 62.0584 6.6785 62.0584 6.88719C62.0584 6.99154 61.9539 7.09589 61.9539 7.20023C61.6405 7.61762 61.2226 7.93066 60.8047 8.34804C60.7002 8.45239 60.7002 8.55673 60.5957 8.55673C60.5957 8.55673 60.5957 8.55673 60.5957 8.66108C60.8047 8.66108 60.9092 8.66108 61.2226 8.66108C60.9092 8.97412 60.7002 9.28716 60.4913 9.49586C59.9689 10.1219 59.2376 10.435 58.5062 10.748C58.0883 10.8524 57.6704 11.0611 57.357 11.2697C56.9391 11.4784 56.6257 11.7915 56.2078 12.0002C56.1033 12.1045 56.1033 12.2089 56.4167 12.3132C56.4167 12.4176 56.3123 12.5219 56.3123 12.5219C56.1033 12.835 55.9988 13.0436 55.7899 13.3567C55.4764 13.7741 55.0585 14.0871 54.6406 14.4001C54.1183 14.7132 53.5959 15.0262 53.0735 15.2349C52.969 15.3393 52.7601 15.3393 52.5511 15.3393C52.4467 15.4436 52.2377 15.4436 52.1332 15.548C51.8198 15.7567 51.5064 15.861 51.193 16.0697C50.5661 16.4871 49.8348 16.5914 49.2079 16.8001C48.8945 16.9045 48.6855 17.1132 48.4766 17.2175C48.3721 17.3219 48.3721 17.4262 48.5811 17.5305C48.79 17.6349 48.999 17.6349 49.1034 17.5305C49.2079 17.5305 49.2079 17.4262 49.3124 17.4262C49.3124 17.4262 49.3124 17.4262 49.3124 17.5305C49.1034 17.6349 48.8945 17.7392 48.6855 17.9479C48.4766 18.0523 48.1632 18.1566 47.9542 18.261C47.6408 18.3653 47.4318 18.4697 47.1184 18.4697C46.596 18.574 46.1781 18.8871 45.8647 19.2001C46.0737 19.3044 46.1781 19.5131 46.3871 19.6175C46.0737 19.7218 45.8647 19.8262 45.6557 19.9305C45.0289 20.3479 44.2976 20.7653 43.6707 21.0783C43.4618 21.1827 43.1483 21.287 42.9394 21.3914C42.7304 21.4957 42.626 21.6001 42.5215 21.7044C42.417 21.7044 42.417 21.8088 42.3125 21.8088C41.6857 22.1218 41.0588 22.5392 40.5364 22.9566C40.223 23.2696 39.7006 23.4783 39.2827 23.687C38.9693 23.8957 38.6559 23.8957 38.3425 24.2087C38.238 24.3131 38.1335 24.3131 37.9246 24.3131C37.7156 24.3131 37.5067 24.4174 37.2977 24.4174V24.5218C37.6111 24.6261 37.9246 24.6261 38.238 24.7305V24.8348C38.1335 24.8348 38.1335 24.9392 38.029 24.9392C37.9246 25.0435 37.9246 25.0435 37.8201 25.1479C37.7156 25.3566 37.7156 25.4609 38.029 25.6696C37.7156 25.6696 37.4022 25.7739 37.0888 25.7739C36.6709 25.6696 36.3574 25.7739 36.044 25.8783C35.4172 26.087 34.8948 26.4 34.3724 26.8174C33.6411 27.4435 32.8053 27.8609 31.7605 28.0696C30.9247 28.1739 30.2978 28.4869 29.5665 28.6956C29.671 28.8 29.671 28.9043 29.5665 28.9043Z" fill="#DA1119"/>
<path d="M42.417 29.9473C42.5215 29.9473 42.5215 29.9473 42.626 29.9473C43.0439 29.6343 43.4618 29.3212 43.7752 29.0082C44.1931 28.5908 44.611 28.1734 45.0289 27.756C45.1334 27.6517 45.2379 27.6517 45.2379 27.5473C45.3423 27.756 45.4468 27.8604 45.6557 27.756C46.0736 27.5473 46.4916 27.3386 46.9095 27.13C47.4318 26.9213 47.8497 26.6082 48.3721 26.2952C48.4766 26.1908 48.4766 26.0865 48.2676 26.0865C48.0587 26.0865 47.8497 25.9821 47.6408 25.9821C47.7453 25.8778 47.9542 25.8778 48.0587 25.7734C48.3721 25.6691 48.5811 25.4604 48.79 25.1474C48.8945 24.8343 49.1034 24.6256 49.5213 24.5213C49.9392 24.4169 50.2527 24.2083 50.5661 23.9996C50.6706 23.9996 50.775 23.8952 50.8795 23.8952C50.775 23.9996 50.775 24.1039 50.6706 24.2082C51.0885 24.3126 52.3422 23.7909 52.5511 23.3735C52.4467 23.3735 52.2377 23.4778 52.1332 23.4778C52.1332 23.4778 52.1332 23.4778 52.0288 23.4778C52.1332 23.3735 52.2377 23.1648 52.4467 23.0604C52.6556 22.8517 52.7601 22.7474 52.969 22.5387C53.178 22.33 53.3869 22.2257 53.7004 22.1213C53.8048 22.1213 53.9093 22.1213 53.9093 22.1213C54.0138 21.9126 54.2227 21.8083 54.4317 21.5996C54.6406 21.4952 54.7451 21.2865 54.9541 21.1822C55.163 20.9735 55.4764 20.8692 55.4764 20.5561L55.5809 20.4518C55.9988 20.2431 56.4167 20.1387 56.8346 19.93C56.9391 19.8257 57.0436 19.7213 57.1481 19.617C57.357 19.304 57.566 19.0953 57.8794 19.0953C57.9839 19.0953 58.0883 18.9909 58.1928 18.8866C58.4018 18.6779 58.7152 18.5735 59.0286 18.4692C59.4465 18.3648 59.7599 18.1561 60.0734 18.0518C60.1778 18.0518 60.1778 17.9475 60.2823 17.8431C59.9689 17.9475 59.6555 17.9475 59.342 18.0518V17.9475C59.4465 17.8431 59.551 17.8431 59.6555 17.7388C60.0734 17.4257 60.4913 17.217 60.9092 16.904L61.0137 16.7996C61.4316 16.6953 61.745 16.4866 61.9539 16.1736C62.0584 16.0692 62.1629 16.0692 62.2674 15.9649C62.4763 15.8605 62.5808 15.7562 62.7897 15.6518C62.8942 15.5475 62.8942 15.5475 62.7897 15.4431C62.5808 15.3388 62.5808 15.2344 62.7897 15.1301C62.9987 15.0258 63.3121 14.8171 63.6255 14.7127C63.8345 14.6084 64.0434 14.504 64.3569 14.3997C64.4613 14.6084 64.6703 14.6084 64.7748 14.504C64.9837 14.3997 65.0882 14.2953 65.2971 14.191C65.5061 14.0866 65.6106 13.8779 65.715 13.8779C66.4464 13.6692 66.9688 13.2519 67.4911 12.8345C67.8046 12.6258 68.118 12.5214 68.4314 12.3127C68.6404 12.2084 68.8493 12.104 68.9538 11.9997C69.3717 11.6867 69.7896 11.3736 70.103 11.0606C70.2075 10.9562 70.2075 10.9562 70.312 10.8519C70.4165 10.8519 70.5209 10.8519 70.6254 10.8519C70.9388 10.7475 71.2523 10.5389 71.5657 10.3302C71.9836 10.1215 72.297 10.0171 72.7149 9.80843C72.8194 9.80843 72.9239 9.80843 73.0283 9.80843C73.0283 9.80843 73.0283 9.80842 73.0283 9.91277C72.9239 10.0171 72.9239 10.0171 72.8194 10.1215C72.297 10.4345 71.7746 10.8519 71.2522 11.1649C71.0433 11.2693 70.9388 11.478 70.8344 11.791C70.7299 12.104 70.5209 12.3127 70.312 12.6258C69.8941 13.0432 69.4762 13.3562 69.0583 13.8779C68.7448 14.2953 68.3269 14.6084 67.8046 14.8171C67.7001 14.9214 67.4911 14.9214 67.3867 15.0258C67.0732 15.1301 66.8643 15.2344 66.7598 15.5475C66.4464 15.7562 66.1329 15.8605 65.8195 16.0692C65.924 16.0692 66.0285 16.0692 66.133 16.1736C66.0285 16.2779 65.924 16.2779 65.715 16.3823C65.715 16.3823 65.715 16.3823 65.715 16.4866C66.2374 16.5909 66.7598 16.2779 67.2822 16.2779C67.0732 16.3823 66.8643 16.4866 66.6553 16.591C66.3419 16.6953 66.0285 16.7996 65.8195 17.1127C65.715 17.217 65.5061 17.217 65.4016 17.3214C64.7748 17.6344 64.0434 17.9475 63.4166 18.3648C62.8942 18.6779 62.3718 18.8866 61.8494 19.1996C61.745 19.1996 61.745 19.304 61.6405 19.4083C61.745 19.4083 61.8495 19.5127 61.9539 19.5127C61.8495 19.617 61.745 19.8257 61.6405 19.93C61.4316 20.1387 61.3271 20.4518 61.1181 20.6605C61.0136 20.7648 60.9092 20.8692 60.7002 20.9735C60.4913 21.0779 60.4913 21.2865 60.5957 21.4952V21.5996C60.4913 21.7039 60.4913 21.9126 60.4913 22.017C60.4913 22.2257 60.0734 22.4344 59.8644 22.4344C59.7599 22.4344 59.6555 22.4344 59.551 22.5387C59.4465 22.6431 59.342 22.7474 59.2376 22.7474C58.9241 22.8517 58.6107 22.9561 58.4018 23.0604C58.0883 23.2691 57.8794 23.5822 57.7749 23.7909C57.566 24.1039 57.4615 24.4169 57.2525 24.73C57.0436 24.5213 56.9391 24.73 56.8346 24.8343C56.8346 24.9387 56.7302 24.9387 56.6257 24.9387C56.6257 24.8343 56.5212 24.73 56.5212 24.73C56.5212 24.6256 56.6257 24.4169 56.5212 24.3126C56.4167 24.2082 56.2078 24.3126 56.1033 24.3126C55.4764 24.6256 54.8496 24.9387 54.3272 25.2517C54.1183 25.4604 53.8048 25.5648 53.7004 25.7734C53.7004 25.7734 53.5959 25.8778 53.4914 25.8778C53.178 25.8778 52.969 26.0865 52.7601 26.2952C52.8646 26.2952 52.969 26.2952 53.0735 26.2952C52.969 26.5039 52.6556 26.6082 52.4467 26.7126C52.5511 26.7126 52.6556 26.7126 52.7601 26.8169C52.4467 27.0256 52.1332 27.2343 51.8198 27.3387C51.5064 27.5473 51.1929 27.6517 50.775 27.8604C50.4616 27.9647 50.2527 28.1734 49.9392 28.2778C49.8348 28.3821 49.6258 28.2778 49.4169 28.2778C49.3124 28.2778 49.1034 28.2778 48.999 28.3821C48.6855 28.5908 48.4766 28.7995 48.1632 29.0082C47.9542 29.2169 47.6408 29.3212 47.4318 29.5299L47.3274 29.6343C47.4318 29.6343 47.4318 29.7386 47.5363 29.843C47.3274 29.9473 47.1184 30.156 46.9095 30.2603C46.7005 30.3647 46.4915 30.469 46.1781 30.5734C46.0736 30.6777 45.9692 30.6777 45.8647 30.7821C45.5513 31.0951 45.1334 31.3038 44.7155 31.4082C44.402 31.5125 44.1931 31.6168 43.8797 31.8255C43.7752 31.9299 43.5662 32.0342 43.8797 32.2429C43.7752 32.2429 43.6707 32.3473 43.4618 32.3473C42.9394 32.4516 42.417 32.6603 41.8946 32.869C41.3722 33.182 40.8499 33.3907 40.223 33.7038C40.0141 33.8081 39.8051 33.9125 39.7006 34.2255C39.7006 34.3299 39.3872 34.3299 39.2827 34.3299C39.0738 34.2255 39.0738 34.3299 38.9693 34.3299C38.5514 34.5386 38.1335 34.8516 37.6111 35.0603C37.2977 35.269 36.8798 35.3733 36.4619 35.4777C36.5664 35.582 36.5664 35.6864 36.5664 35.6864C36.7753 35.8951 36.6709 35.9994 36.6709 36.2081C36.4619 36.6255 36.1485 37.0429 35.9395 37.3559C35.7306 37.669 35.5216 37.982 35.3127 38.3994C35.2082 38.6081 35.1037 38.7124 34.7903 38.7124C34.7903 38.5037 34.8948 38.1907 34.8948 37.982C34.5813 38.0863 34.3724 38.295 34.2679 38.5037C34.2679 38.6081 34.1634 38.6081 34.059 38.6081C33.6411 38.6081 33.2232 38.6081 32.9097 38.8168C32.9097 38.8168 32.9097 38.8168 32.8053 38.8168C32.8053 38.7124 32.9097 38.6081 32.9097 38.5037C32.8053 38.5037 32.7008 38.5037 32.5963 38.5037C32.2829 38.6081 31.9695 38.7124 31.5516 38.6081C31.4471 38.6081 31.2381 38.7124 31.1336 38.8168C31.0292 38.9211 31.0292 39.0255 30.9247 39.1298C31.0292 39.1298 31.0292 39.2342 31.2381 39.2342C31.1337 39.3385 31.0292 39.4428 30.9247 39.4428C30.4023 39.5472 30.0889 39.8602 29.671 40.1733C29.462 40.382 29.1486 40.5907 28.7307 40.4863C28.6262 40.4863 28.5218 40.5907 28.5218 40.5907C28.3128 41.0081 27.9994 41.2167 27.5815 41.4254C27.477 41.5298 27.2681 41.4254 27.0591 41.5298C26.9546 41.5298 26.8502 41.5298 26.7457 41.6341C26.4323 41.8428 26.2233 42.0515 26.0144 42.2602C25.8054 42.3645 25.7009 42.5732 25.492 42.6776C25.283 42.7819 25.1785 42.8863 24.9696 42.7819C24.8651 42.7819 24.6562 42.7819 24.5517 42.8863C24.1338 43.095 23.7159 43.3037 23.1935 43.3037C23.089 43.3037 22.8801 43.3037 22.6711 43.3037C22.2532 43.3037 21.9398 43.408 21.6264 43.5124C21.5219 43.5124 21.4174 43.6167 21.313 43.6167C21.2085 43.6167 21.2085 43.7211 21.104 43.7211C20.9995 43.7211 20.9995 43.7211 20.895 43.7211C20.895 43.6167 20.895 43.5124 20.895 43.5124V43.408C20.1637 43.3037 19.4324 43.1993 18.7011 43.095C19.0145 42.9906 19.3279 42.8863 19.5369 42.7819C19.7458 42.6776 19.9548 42.5732 19.9548 42.2602C19.9548 42.1559 20.0592 42.1559 20.1637 42.1559C20.3727 42.1559 20.5816 42.0515 20.7906 41.9472C20.9995 41.7385 21.313 41.7385 21.6264 41.6341C21.9398 41.5298 22.1488 41.4254 22.3577 41.1124C22.3577 41.0081 22.5667 41.0081 22.6711 40.9037C22.7756 40.7994 22.9846 40.7993 23.089 40.695C23.4025 40.4863 23.7159 40.382 24.0293 40.1733C24.1338 40.0689 24.3427 40.0689 24.5517 39.9646C24.8651 39.8602 25.0741 39.7559 25.1785 39.5472C25.283 39.4429 25.283 39.4429 25.3875 39.3385C25.283 39.4429 25.1785 39.6515 25.0741 39.7559C25.1785 39.6515 25.3875 39.6515 25.492 39.5472C25.7009 39.3385 26.0143 39.3385 26.2233 39.2342C26.6412 39.1298 27.0591 39.0255 27.3725 38.8168C27.7904 38.5037 28.2083 38.295 28.4173 37.7733C28.5218 37.5646 28.6262 37.4603 28.7307 37.2516C28.8352 37.0429 29.0441 36.9385 29.2531 36.8342C29.3576 36.8342 29.5665 36.6255 29.671 36.5211C29.7755 36.4168 29.7755 36.4168 29.8799 36.3124C29.8799 36.4168 29.8799 36.4168 29.7755 36.5211C29.7755 36.7298 29.8799 36.8342 30.0889 36.8342C30.1934 36.8342 30.2978 36.7298 30.4023 36.7298C30.5068 36.6255 30.7157 36.5211 30.8202 36.5211C31.1337 36.4168 31.5516 36.2081 31.865 36.1038C31.9695 36.1038 32.0739 35.9994 32.2829 35.8951C32.2829 35.9994 32.2829 36.1038 32.1784 36.2081C32.3874 36.1038 32.5963 35.8951 32.9097 35.7907C32.9097 35.8951 32.8053 35.8951 32.8053 36.1038C32.9097 35.9994 33.0142 35.9994 33.1187 35.9994C33.4321 35.6864 33.7455 35.3733 33.9545 35.0603C34.3724 34.6429 34.7903 34.1212 35.2082 33.7038C35.4171 34.0168 35.5216 34.0168 35.6261 33.8081C35.9395 33.2864 36.4619 33.0777 37.0888 32.9734C37.6111 32.869 38.029 32.556 38.3425 32.1386C38.3425 32.0342 38.5514 32.0342 38.6559 32.0342C38.7604 32.0342 38.9693 32.0342 39.0738 31.9299C39.4917 31.7212 39.9096 31.4082 40.223 31.0951C40.3275 30.9908 40.432 30.9908 40.5364 30.8864C40.6409 30.7821 40.7454 30.6777 40.7454 30.6777C41.7902 30.5734 42.1036 30.2604 42.417 29.9473C42.417 29.843 42.417 29.9473 42.417 29.9473Z" fill="#DA1119"/>
<path d="M37.0888 10.7477C36.8799 10.7477 36.6709 10.7477 36.462 10.7477C36.462 10.7477 36.462 10.7477 36.462 10.6434C36.7754 10.4347 36.9843 10.3303 37.2978 10.1216C37.1933 10.0173 37.0888 9.91293 36.9843 9.80858C36.8799 9.70424 36.8799 9.59988 37.0888 9.59988C37.2978 9.49554 37.5067 9.49554 37.8202 9.3912C37.8202 9.3912 37.9246 9.28685 38.0291 9.28685C37.8202 9.1825 37.5067 9.07815 37.2978 9.07815C37.5067 8.97381 37.6112 8.86946 37.8202 8.76512C38.2381 8.55642 38.656 8.34773 39.0739 8.03469C39.3873 7.82599 39.8052 7.72165 40.2231 7.72165C40.7455 7.72165 41.2678 7.6173 41.6857 7.51295C42.3126 7.40861 42.9395 7.19991 43.4618 7.09556C43.6708 7.09556 43.6708 6.99122 43.7753 6.78253C43.7753 6.57384 43.8797 6.36514 43.9842 6.2608C44.2976 6.0521 44.6111 5.84341 44.9245 5.73906C45.2379 5.53037 45.6558 5.42602 46.0737 5.32168C46.1782 5.21733 46.2827 5.11298 46.3871 5.00863C46.4916 4.90429 46.4916 4.90429 46.5961 4.79994C46.805 4.6956 46.9095 4.59125 47.1185 4.4869C47.3274 4.38255 47.4319 4.17386 47.7453 4.27821C47.7453 4.27821 47.7453 4.27821 47.8498 4.27821C48.0588 4.17386 48.2677 4.06951 48.4767 3.96517C48.5811 3.96517 48.5811 3.86082 48.6856 3.86082C49.208 3.75647 49.6259 3.44344 50.1483 3.23474C50.3572 3.1304 50.5662 3.1304 50.7751 3.02605C50.8796 3.02605 50.8796 3.02605 50.9841 3.02605C51.2975 3.1304 51.402 2.9217 51.6109 2.81736C52.6557 2.29562 53.4915 1.5652 54.5362 1.04347C54.9541 0.834773 55.2676 0.52173 55.6855 0.20869C55.79 0.104343 55.8944 0.104347 55.9989 0C55.9989 0 55.9989 -1.59376e-06 56.1034 0.104345C55.9989 0.208692 55.8944 0.313041 55.7899 0.417388C55.581 0.521735 55.581 0.730428 55.4765 0.939121C55.4765 1.14781 55.372 1.35651 55.1631 1.5652C54.8497 1.98259 54.5362 2.29562 54.2228 2.71301C54.1183 2.81736 54.0139 3.02605 53.9094 3.23474C53.9094 3.33909 53.8049 3.33909 53.7004 3.44343C53.387 3.75647 52.9691 4.17386 52.6557 4.4869C52.6557 4.4869 52.5512 4.59125 52.6557 4.6956C52.8646 4.59125 53.0736 4.59125 53.1781 4.4869C53.1781 4.4869 53.1781 4.48691 53.1781 4.59125C52.7602 4.90429 52.4467 5.32168 52.0288 5.63472C51.6109 5.94776 51.193 6.26079 50.7751 6.57383C50.4617 6.99122 49.9393 7.09557 49.4169 7.40861C49.5214 7.51295 49.5214 7.51295 49.6259 7.51295C49.7304 7.51295 49.7304 7.6173 49.8348 7.6173C49.8348 7.72164 49.7304 7.72165 49.7304 7.826C49.6259 7.93034 49.5214 7.93034 49.4169 8.03469C49.3125 8.13903 49.3125 8.13904 49.208 8.24338C49.3125 8.34773 49.3125 8.34773 49.4169 8.45207C49.5214 8.55642 49.6259 8.55642 49.7304 8.66076C49.6259 8.76511 49.5214 8.76512 49.5214 8.76512C48.999 8.97381 48.3722 9.07816 47.8498 9.28685C47.4319 9.3912 47.014 9.49554 46.7006 9.80858C46.4916 9.91293 46.2827 10.0173 46.0737 10.0173C45.7603 10.0173 45.5513 10.1216 45.2379 10.1216C45.1334 10.1216 44.9245 10.226 44.9245 10.4347C44.9245 10.539 44.7155 10.6434 44.6111 10.6434C43.9842 10.9564 43.4618 11.1651 42.835 11.4781C42.626 11.5825 42.4171 11.6868 42.4171 11.8955L42.3126 11.9999C41.9992 12.1042 41.7902 12.3129 41.4768 12.4172C41.1634 12.5216 40.7455 12.6259 40.432 12.8346C40.2231 12.939 40.0141 13.0433 40.0141 13.3564C40.0141 13.6694 39.8052 13.7738 39.4918 13.6694C39.3873 13.6694 39.2828 13.6694 39.1783 13.6694C39.0739 13.7738 38.9694 13.7737 38.8649 13.8781C38.447 14.3998 37.8201 14.8172 37.1933 15.1303C36.5664 15.4433 36.1485 15.8607 35.7306 16.2781C35.6262 16.3824 35.5217 16.5911 35.3127 16.5911C35.2083 16.6955 34.9993 16.7998 34.7904 16.7998C34.059 16.7998 33.5367 17.1128 33.0143 17.5302C32.7008 17.8433 32.2829 17.9476 31.865 18.052C31.6561 18.1563 31.3427 18.1563 31.1337 18.2607C30.8203 18.365 30.6113 18.5737 30.6113 18.8867C30.6113 19.1998 30.6113 19.5128 30.6113 19.9302C30.6113 20.1389 30.7158 20.3476 30.7158 20.6606C30.7158 20.765 30.7158 20.765 30.7158 20.9737C30.6113 20.8693 30.5069 20.765 30.4024 20.765C30.2979 20.6606 30.1934 20.6606 29.9845 20.765C29.7755 20.8693 29.6711 20.8693 29.3576 20.8693C29.1487 20.8693 29.0442 20.8693 28.8353 20.8693C28.5218 20.8693 28.3129 20.8693 27.9994 20.8693C27.686 20.8693 27.3726 20.8693 27.0592 20.9737C26.9547 20.9737 26.8502 20.9737 26.6413 20.9737C26.5368 20.9737 26.3278 20.8693 26.3278 20.9737C25.701 21.1824 25.1786 21.4954 24.6562 21.7041C24.4473 21.8084 24.3428 21.9128 24.2383 22.1215C24.1339 22.3302 24.0294 22.5389 23.9249 22.6432C23.8204 22.7476 23.716 22.8519 23.507 22.8519C23.298 22.8519 23.0891 22.9563 22.8801 23.0606C22.4622 23.2693 21.9399 23.478 21.4175 23.5823C21.1041 23.5823 20.7906 23.791 20.5817 23.8954C20.1638 23.9997 19.7459 24.2084 19.2235 24.2084C18.5966 24.3128 17.8653 24.4171 17.2385 24.5215C16.925 24.5215 16.5071 24.5215 16.1937 24.5215C16.4027 24.4171 16.5071 24.3128 16.7161 24.2084C16.925 24.1041 17.134 23.8954 17.3429 23.6867C17.4474 23.5823 17.6564 23.478 17.7608 23.3736C18.3877 23.0606 18.9101 22.7476 19.328 22.2258L19.4325 22.1215C19.2235 22.1215 19.0146 22.2258 18.8056 22.2258C18.8056 22.2258 18.8056 22.2258 18.8056 22.1215C19.0146 22.0171 19.2235 21.9128 19.328 21.7041C20.0593 21.2867 20.7906 20.8693 21.522 20.5563C21.6264 20.4519 21.8354 20.4519 21.9399 20.3476C22.0443 20.2432 22.2533 20.1389 22.1488 19.9302C22.1488 19.9302 22.1488 19.8259 22.2533 19.7215C22.3578 19.6172 22.4622 19.6172 22.6712 19.6172C22.9846 19.5128 23.1936 19.4085 23.4025 19.1998C23.507 19.0954 23.7159 18.9911 23.8204 18.9911C24.4473 18.9911 24.9697 18.7824 25.3876 18.4693C25.701 18.2607 26.0144 18.052 26.3278 17.8433C26.6413 17.6346 26.8502 17.3215 27.1636 17.1128C27.2681 17.0085 27.3726 16.9042 27.5815 16.7998L27.686 16.6955C27.686 16.3824 27.895 16.2781 28.1039 16.2781C28.5218 16.1737 28.9397 16.0694 29.3576 15.965C29.88 15.7563 30.2979 15.5476 30.8203 15.3389C30.9248 15.2346 31.1337 15.2346 31.3427 15.2346C31.7606 15.2346 32.2829 15.1303 32.5964 14.9216C32.7008 14.8172 32.8053 14.8172 32.9098 14.7129C33.1188 14.6085 33.4322 14.6085 33.5367 14.3998C33.5367 14.3998 33.6411 14.2955 33.7456 14.2955C34.1635 14.0868 34.4769 13.9824 34.8948 13.7737C35.1038 13.6694 35.2083 13.5651 35.3127 13.3564C35.9396 12.7303 36.462 12.2086 37.0888 11.5825C36.8799 10.9564 36.9843 10.852 37.0888 10.7477Z" fill="#DA1119"/>
<path d="M38.9693 42.4697C38.8649 42.3653 38.7604 42.1566 38.6559 42.0523C38.5514 42.0523 38.447 42.0523 38.447 42.0523C38.447 42.0523 38.447 42.0523 38.447 41.9479L38.5514 41.8436C38.7604 41.7392 38.8649 41.6349 39.0738 41.5305C39.3872 41.3218 39.7007 41.1132 40.0141 40.9045C40.432 40.5914 40.9544 40.2784 41.0588 39.7566C41.0588 39.6523 41.1633 39.6523 41.2678 39.6523C41.4767 39.7566 41.6857 39.6523 41.7902 39.5479C41.9991 39.2349 42.3126 39.0262 42.5215 38.7132C42.7305 38.5045 42.8349 38.2958 43.0439 38.0871C43.2528 37.8784 43.5663 37.6697 43.8797 37.6697C43.7752 37.8784 43.6707 37.9827 43.5663 38.1914C43.4618 38.4001 43.3573 38.7132 43.4618 39.0262C43.4618 39.2349 43.4618 39.3393 43.3573 39.5479C43.3573 39.6523 43.2528 39.7566 43.2528 39.861C43.3573 39.861 43.3573 39.861 43.4618 39.7566C43.6707 39.5479 43.8797 39.3393 43.9842 39.0262C44.0886 38.6088 44.4021 38.2958 44.611 37.9828C44.611 37.9828 44.611 37.9828 44.7155 37.9828C44.7155 38.2958 44.7155 38.6088 44.7155 38.8175C44.7155 38.8175 44.7155 38.8175 44.82 38.9219C44.9244 38.8175 45.1334 38.8175 45.2379 38.7132C45.7602 38.2958 46.2826 37.8784 46.805 37.5654C47.2229 37.2523 47.6408 36.8349 47.8498 36.4176C47.8498 36.6262 47.7453 36.7306 47.7453 36.9393C48.3721 36.8349 48.5811 36.3132 48.999 36.0002C48.999 36.1045 48.8945 36.2089 48.8945 36.3132C48.999 36.3132 49.1035 36.2089 49.1035 36.2089C49.6258 35.7915 50.1482 35.3741 50.5661 34.8524C50.6706 34.6437 50.8795 34.435 51.0885 34.3306C51.193 34.2263 51.2974 34.2263 51.4019 34.435C51.5064 34.748 51.6109 34.748 51.8198 34.6437C52.2377 34.435 52.6556 34.1219 52.8646 33.7045C52.9691 33.6002 53.0735 33.4958 53.178 33.3915C53.178 33.7045 53.178 33.7045 53.4914 33.7045C53.9093 33.7045 54.1183 33.4958 54.2228 33.1828C54.4317 32.4524 55.0586 32.035 55.6854 31.5133C55.7899 31.4089 55.8944 31.4089 56.1033 31.4089C56.2078 31.4089 56.3123 31.4089 56.4167 31.3046C56.6257 31.2002 56.7302 30.9915 56.9391 30.8872C57.357 30.4698 57.7749 30.0524 58.1928 29.7394C58.1928 29.7394 58.1928 29.7394 58.2973 29.7394C58.1928 29.9481 58.0884 30.0524 57.9839 30.2611C57.9839 30.2611 57.9839 30.2611 57.9839 30.3654C58.0884 30.3654 58.1928 30.2611 58.2973 30.2611C58.7152 29.9481 59.1331 29.635 59.551 29.322C60.0734 28.9046 60.7002 28.4872 61.2226 28.0698C61.3271 27.9655 61.4316 27.8611 61.4316 27.7568C61.536 27.4437 61.8495 27.2351 62.1629 27.2351C62.8942 27.2351 63.4166 26.922 63.73 26.2959C63.8345 26.0872 64.0435 25.8785 64.2524 25.6699C64.2524 25.5655 64.3569 25.5655 64.4614 25.5655C64.4614 25.5655 64.4614 25.5655 64.5658 25.5655C64.5658 25.6699 64.4614 25.8786 64.4614 25.9829C64.5658 25.8786 64.6703 25.8785 64.7748 25.7742C65.2972 25.3568 65.7151 24.9394 65.924 24.4177C65.924 24.3134 66.133 24.209 66.133 24.1047H66.2374C66.2374 24.1047 66.2374 24.209 66.2374 24.3133C66.7598 23.896 67.2822 23.4786 67.7001 23.0612C67.7001 23.0612 67.7001 23.0612 67.8046 23.0612C67.8046 23.1655 67.7001 23.2699 67.7001 23.3742C67.7001 23.3742 67.7001 23.3742 67.7001 23.4786C67.9091 23.3742 68.118 23.3742 68.4314 23.2699C68.6404 23.4786 68.7449 23.4786 68.9538 23.3742C69.1628 23.2699 69.2672 23.0612 69.4762 22.8525C69.8941 22.4351 70.2075 22.0177 70.5209 21.6003C70.6254 21.496 70.7299 21.496 70.8344 21.3916C70.7299 21.496 70.7299 21.6003 70.5209 21.809C70.6254 21.809 70.7299 21.809 70.8344 21.809C71.2523 21.6003 71.6702 21.3916 72.0881 21.0786C72.506 20.6612 73.0284 20.4525 73.5507 20.2438C74.0731 20.0351 74.491 19.8264 75.0134 19.6178C75.0134 19.6178 75.1179 19.6178 75.2223 19.6178L75.1179 19.7221C74.5955 20.1395 74.0731 20.6612 73.4463 21.0786C72.9239 21.3916 72.6105 21.809 72.506 22.4351C72.4015 22.7482 72.297 22.9568 72.0881 23.0612C71.9836 23.1655 71.7746 23.2699 71.8791 23.3742C71.8791 23.4786 72.0881 23.4786 72.1925 23.5829C71.9836 24.0003 71.6702 24.3133 71.4612 24.7307C71.3567 25.0438 71.1478 25.1481 70.7299 25.2525C70.4165 25.2525 70.2075 25.4612 70.2075 25.7742C70.2075 25.8785 70.2075 25.9829 70.312 26.0872C70.312 26.0872 70.312 26.0872 70.4165 26.0872C70.103 26.2959 69.7896 26.5046 69.5807 26.8177C69.2672 27.0264 68.9538 27.2351 68.4314 27.1307C68.327 27.1307 68.118 27.2351 68.0135 27.3394C67.5956 27.7568 67.2822 28.0698 66.8643 28.4872C66.7598 28.5916 66.5509 28.8003 66.3419 28.9046C66.3419 28.8003 66.3419 28.6959 66.3419 28.5916C66.3419 28.3829 66.2374 28.3829 66.0285 28.4872C65.8195 28.5916 65.6106 28.8002 65.4016 29.0089C65.1927 29.1133 65.0882 29.2176 64.8793 29.1133C64.5658 28.9046 63.939 29.1133 63.6256 29.322C63.1032 29.8437 62.6853 30.2611 62.1629 30.7828C62.0584 30.8872 61.954 30.9915 61.954 31.0959C62.2674 31.0959 62.4763 30.9915 62.7897 30.9915C62.7897 30.9915 62.7897 30.9915 62.7897 31.0959C62.4763 31.2002 62.1629 31.3046 61.8495 31.4089C61.536 31.5133 61.1181 31.6176 60.8047 31.6176C60.7002 31.6176 60.4913 31.6176 60.2823 31.6176C60.1779 31.6176 60.0734 31.6176 59.9689 31.6176C59.76 31.722 59.76 31.722 59.9689 31.9306C59.76 31.9306 59.551 31.9307 59.4465 32.035C59.3421 32.1393 59.2376 32.348 59.1331 32.4524C59.1331 32.4524 59.1331 32.4524 59.1331 32.5567C59.2376 32.5567 59.4465 32.5567 59.551 32.5567C59.1331 32.7654 58.8197 32.8698 58.4018 33.0785C58.4018 33.0785 58.4018 32.9741 58.4018 32.8698C58.2973 32.9741 58.0884 32.9741 58.0884 33.0785C57.566 33.6002 56.9391 34.0176 56.4167 34.5393C56.3123 34.6437 56.3123 34.748 56.3123 34.8524C56.2078 35.061 56.1033 35.2697 55.9988 35.3741C55.7899 35.5828 55.5809 35.6871 55.4765 35.8958C55.2675 36.1045 55.0586 36.3132 54.7451 36.6262C54.5362 36.8349 54.2228 37.0436 54.0138 37.3567C53.8049 37.6697 53.5959 37.9827 53.387 38.1914C53.178 38.5045 52.9691 38.7132 52.6556 38.8175C52.4467 38.9219 52.3422 38.9219 52.2377 39.0262C51.9243 39.3393 51.6109 39.5479 51.193 39.6523C51.0885 39.6523 50.8795 39.7566 50.8795 39.9653L50.7751 40.0697C50.2527 40.0697 49.9393 40.3827 49.7303 40.6958C49.6258 40.8001 49.5214 41.0088 49.3124 41.1131C49.3124 40.9045 49.2079 40.6958 49.2079 40.4871C48.8945 40.6958 48.6856 40.9045 48.4766 41.1131C48.4766 41.1131 48.4766 41.1131 48.3721 41.0088C48.4766 40.6958 48.6856 40.4871 48.6856 40.174C48.3721 40.0697 48.0587 40.0697 47.8498 40.2784C47.6408 40.4871 47.4319 40.5914 47.3274 40.9045C47.3274 41.0088 47.2229 41.1131 47.1184 41.1131C47.0139 41.2175 46.805 41.3218 46.7005 41.4262C46.3871 41.6349 46.3871 41.6349 46.1781 41.3218C45.9692 41.1131 45.7602 41.1131 45.4468 41.1131C45.3423 41.1131 45.1334 41.1131 45.0289 41.1131C44.9244 41.1131 44.82 41.1131 44.82 41.2175C44.7155 41.3218 44.611 41.4262 44.5065 41.5305C44.1931 41.9479 43.8797 42.1566 43.4618 42.3653C43.1484 42.574 42.9394 42.6783 42.8349 43.0957C42.8349 43.2001 42.7305 43.3044 42.626 43.4088C42.417 43.6175 42.3126 43.6175 41.9991 43.5131C41.7902 43.4088 41.6857 43.4088 41.5812 43.6175C41.4767 43.8262 41.2678 43.9305 41.1633 44.1392C40.9544 44.4522 40.7454 44.6609 40.5365 44.974C40.432 45.1827 40.223 45.4957 40.0141 45.6001V45.4957C40.0141 45.3914 40.0141 45.287 40.0141 45.1827C39.9096 45.1827 39.8051 45.287 39.7007 45.287C39.4917 45.4957 39.2828 45.7044 39.0738 45.9131C38.9693 46.0174 38.7604 46.0174 38.5514 46.1218C38.238 46.2261 38.0291 46.3305 37.7156 46.4348C37.5067 46.5392 37.2977 46.5392 37.0888 46.5392C36.8798 46.5392 36.7753 46.6435 36.5664 46.7479C36.3574 46.8522 36.253 46.9566 36.044 47.0609C35.8351 47.1652 35.7306 47.2696 35.6261 47.4783L35.5216 47.5826C35.5216 47.4783 35.4172 47.3739 35.4172 47.3739C35.1037 47.4783 34.6858 47.687 34.2679 47.7913C34.3724 47.687 34.3724 47.687 34.3724 47.5826C34.3724 47.4783 34.3724 47.4783 34.3724 47.3739C34.2679 47.3739 34.1635 47.2696 34.1635 47.3739C33.9545 47.3739 33.85 47.4783 33.6411 47.4783C33.5366 47.4783 33.4321 47.4783 33.2232 47.3739C33.1187 47.3739 32.9098 47.3739 32.8053 47.3739C32.4919 47.4783 32.2829 47.687 31.9695 47.7913C31.865 47.8957 31.6561 47.8957 31.5516 48V47.8957C31.9695 47.5826 32.2829 47.2696 32.8053 47.1653C33.0142 47.0609 33.2232 47.0609 33.4321 46.9565C33.5366 46.8522 33.7456 46.7479 33.85 46.6435C33.9545 46.5392 34.059 46.3305 34.2679 46.3305C35.2082 45.9131 35.9395 45.287 36.6709 44.6609C36.7753 44.5566 36.8798 44.4522 36.9843 44.3479C37.2977 43.9305 37.6112 43.6175 38.0291 43.3044C38.1335 43.3044 38.238 43.2001 38.3425 43.2001C38.3425 43.0957 38.7604 42.887 38.9693 42.4697Z" fill="#DA1119"/>
<path d="M51.0885 34.2253C51.0885 33.9123 51.0885 33.7036 51.2974 33.4949C51.2974 33.4949 51.4019 33.4949 51.5064 33.3905C51.5064 33.4949 51.5064 33.4949 51.5064 33.5993C51.5064 33.8079 51.4019 34.0166 51.0885 34.2253Z" fill="#DA1119"/>
<path d="M36.9843 46.9565C37.2978 46.7479 37.6112 46.5392 37.9246 46.3305C37.9246 46.3305 37.9246 46.3305 38.0291 46.4348C37.7157 46.6435 37.4022 46.8522 36.9843 46.9565C37.0888 47.0609 37.0888 47.0609 36.9843 46.9565Z" fill="#DA1119"/>
</svg>
