<svg width="250" height="152" viewBox="0 0 250 152" fill="none" xmlns="http://www.w3.org/2000/svg">
<mask id="path-1-inside-1" fill="white">
<path stroke="#5E5E5E" stroke-width="1" fill-rule="evenodd" clip-rule="evenodd" d="M8 0C3.58172 0 0 3.58172 0 8V126C0 130.418 3.58172 134 8 134H113.294L124.607 152L135.92 134H242C246.418 134 250 130.418 250 126V8C250 3.58172 246.418 0 242 0H8Z"/>
</mask>
<path stroke="#5E5E5E" stroke-width="1" fill-rule="evenodd" clip-rule="evenodd" d="M8 0C3.58172 0 0 3.58172 0 8V126C0 130.418 3.58172 134 8 134H113.294L124.607 152L135.92 134H242C246.418 134 250 130.418 250 126V8C250 3.58172 246.418 0 242 0H8Z" fill="#121212"/>
<path stroke="#5E5E5E" stroke-width="1" d="M113.294 134L114.141 133.468L113.847 133H113.294V134ZM124.607 152L123.76 152.532L124.607 153.879L125.454 152.532L124.607 152ZM135.92 134V133H135.367L135.073 133.468L135.92 134ZM1 8C1 4.13401 4.13401 1 8 1V-1C3.02944 -1 -1 3.02944 -1 8H1ZM1 126V8H-1V126H1ZM8 133C4.13401 133 1 129.866 1 126H-1C-1 130.971 3.02944 135 8 135V133ZM113.294 133H8V135H113.294V133ZM125.454 151.468L114.141 133.468L112.448 134.532L123.76 152.532L125.454 151.468ZM135.073 133.468L123.76 151.468L125.454 152.532L136.766 134.532L135.073 133.468ZM242 133H135.92V135H242V133ZM249 126C249 129.866 245.866 133 242 133V135C246.971 135 251 130.971 251 126H249ZM249 8V126H251V8H249ZM242 1C245.866 1 249 4.13401 249 8H251C251 3.02944 246.971 -1 242 -1V1ZM8 1H242V-1H8V1Z" fill="#5E5E5E" mask="url(#path-1-inside-1)"/>
</svg>
