<svg width="13" height="16" viewBox="0 0 13 16" fill="none" xmlns="http://www.w3.org/2000/svg">
<path fill-rule="evenodd" clip-rule="evenodd" d="M3.00043 3.527C3.00043 5.473 4.21443 8.333 6.50043 8.333C8.74643 8.333 10.0004 5.473 10.0004 3.527C10.0004 1.579 8.43343 0 6.50043 0C4.56743 0 3.00043 1.579 3.00043 3.527ZM12.5634 11.53C11.8634 10.615 11.0174 10.025 9.80343 9.686L8.66743 13.668C8.66743 14.034 8.36643 14.332 8.00043 14.332C7.63443 14.332 7.33343 14.034 7.33343 13.668V10.5C7.33343 10.04 6.96043 9.666 6.50043 9.666C6.04043 9.666 5.66743 10.04 5.66743 10.5V13.668C5.66743 14.034 5.36743 14.332 5.00043 14.332C4.63343 14.332 4.33343 14.034 4.33343 13.668L3.19743 9.686C1.98443 10.026 1.13743 10.615 0.437427 11.53C0.160427 11.889 0.0104272 12.612 0.000427246 13.001C0.00342725 13.098 0.000427246 13.217 0.000427246 13.333V13.999V14.667C0.000427246 15.404 0.597427 15.999 1.33343 15.999H11.6674C12.4034 15.999 13.0004 15.404 13.0004 14.667V13.999V13.333C13.0004 13.217 12.9974 13.098 13.0004 13.001C12.9904 12.612 12.8404 11.889 12.5634 11.53Z" fill="#5E5E5E"/>
</svg>
