<svg width="40" height="40" viewBox="0 0 40 40" fill="none" xmlns="http://www.w3.org/2000/svg">
<path d="M27.2005 21.6C28.7505 23.04 29.0705 23.73 29.1205 23.82C29.7605 24.88 28.4205 24.96 28.4205 24.96L25.8405 25C25.8405 25 25.2805 25.11 24.5605 24.61C23.5905 23.95 22.6605 22.22 21.9705 22.45C21.2605 22.68 21.2805 24.23 21.2805 24.23C21.2805 24.23 21.2805 24.45 21.1205 24.62C20.9405 24.81 20.5905 24.74 20.5905 24.74H19.4405C19.4405 24.74 16.8905 25 14.6605 22.67C12.2105 20.13 10.0505 15.13 10.0505 15.13C10.0505 15.13 9.93049 14.83 10.0605 14.66C10.2105 14.5 10.6305 14.5 10.6305 14.5H13.3905C13.3905 14.5 13.6605 14.5 13.8305 14.66C13.9805 14.77 14.0705 15 14.0705 15C14.0705 15 14.5105 16.11 15.1105 17.13C16.2605 19.12 16.7905 19.55 17.1605 19.34C17.7605 19.03 17.5905 16.53 17.5905 16.53C17.5905 16.53 17.6005 15.62 17.3005 15.22C17.0705 14.91 16.6305 14.81 16.4405 14.79C16.2805 14.77 16.5405 14.41 16.8705 14.24C17.3705 14 18.2405 14 19.2805 14C20.0905 14 20.3205 14.06 20.6305 14.13C21.5905 14.36 21.2605 15.25 21.2605 17.37C21.2605 18.06 21.1605 19 21.6305 19.33C21.8405 19.47 22.3605 19.35 23.6605 17.16C24.2605 16.12 24.7205 14.89 24.7205 14.89C24.7205 14.89 24.8205 14.68 24.9705 14.58C25.1305 14.5 25.3505 14.5 25.3505 14.5H28.2505C28.2505 14.5 29.1305 14.4 29.2705 14.79C29.4205 15.2 28.9405 16.17 27.7505 17.74C25.8105 20.34 25.5905 20.1 27.2005 21.6Z" fill="#5E5E5E"/>
</svg>
