<svg width="28" height="28" viewBox="0 0 28 28" fill="none" xmlns="http://www.w3.org/2000/svg">
<path d="M25.7387 8.09648C25.5992 7.57706 25.3258 7.10337 24.9457 6.72283C24.5656 6.34229 24.0923 6.06825 23.573 5.92813C21.6617 5.41406 14 5.41406 14 5.41406C14 5.41406 6.33828 5.41406 4.42695 5.92539C3.90748 6.06506 3.4339 6.33895 3.05377 6.71956C2.67364 7.10017 2.40034 7.5741 2.26133 8.09375C1.75 10.0078 1.75 14 1.75 14C1.75 14 1.75 17.9922 2.26133 19.9035C2.54297 20.959 3.37422 21.7902 4.42695 22.0719C6.33828 22.5859 14 22.5859 14 22.5859C14 22.5859 21.6617 22.5859 23.573 22.0719C24.6285 21.7902 25.457 20.959 25.7387 19.9035C26.25 17.9922 26.25 14 26.25 14C26.25 14 26.25 10.0078 25.7387 8.09648ZM11.5664 17.6641V10.3359L17.9102 13.9727L11.5664 17.6641Z" fill="#B6B6B6"/>
</svg>
