<?xml version="1.0" encoding="iso-8859-1"?>
<!-- Generator: Adobe Illustrator 19.0.0, SVG Export Plug-In . SVG Version: 6.00 Build 0)  -->
<svg fill="#f65a82" version="1.1" id="Capa_1" xmlns="http://www.w3.org/2000/svg" xmlns:xlink="http://www.w3.org/1999/xlink" x="0px" y="0px"
	 viewBox="0 0 512.001 512.001" style="enable-background:new 0 0 512.001 512.001;" xml:space="preserve">
<g>
	<g>
		<path d="M444.512,143.813c-3.494-1.654-6.857-3.317-10.104-4.987c-22.727-11.691-39.763-23.734-56.308-35.428
			c-26.998-19.084-50.314-35.565-89.444-44.066c-4.729-1.026-9.67-1.927-14.691-2.676c-0.464-0.09-0.938-0.136-1.416-0.136
			c-0.045-0.001-0.09,0-0.134,0.001c-0.172-0.004-0.344-0.005-0.523-0.005c-1.19,0-2.373,0.053-3.552,0.135
			c-15.149,1.048-29.306,8.739-38.396,21.042c-0.711,0.963-1.723,1.106-2.262,1.106c-0.404,0-1.073-0.081-1.684-0.527
			c-0.203-0.149-0.399-0.338-0.577-0.579c-0.773-1.046-1.596-2.045-2.44-3.023c-10.145-11.76-25.562-18.956-42.422-18.07
			c-1.517,0.076-9.016,1.449-11.267,1.895c-0.003,0-0.005,0.001-0.008,0.002c-12.516,2.468-23.976,5.847-35.034,10.33
			c-3.839,1.556-5.689,5.93-4.133,9.769c1.556,3.838,5.931,5.687,9.769,4.132c10.168-4.122,20.738-7.235,32.319-9.518
			c2.617-0.518,8.589-1.692,11.261-1.692c10.2,0,19.653,4.052,26.617,11.245c3.717,3.841,7.172,11.042,17.603,11.042
			c5.727,0,10.948-2.622,14.328-7.195c6.979-9.45,18.148-15.092,29.878-15.092h0.022c4.642,0.696,9.202,1.528,13.559,2.474
			c33.887,7.363,55.483,21.591,79.194,38.287c21.32,15.008,37.105,26.424,61.135,38.979
			c-37.824,12.822-84.753,19.046-124.059,16.035c-20.414-1.565-38.298-5.584-52.799-11.796c-6.591-2.823-12.483-6.1-17.595-9.804
			c-2.626-1.902-6.176-1.902-8.802,0c-2.045,1.482-4.214,2.895-6.504,4.238c-18.408,10.803-42.438,15.718-63.887,17.362
			c-39.312,3.008-86.237-3.211-124.061-16.035c22.934-11.981,40.545-24.431,56.357-35.608c9.658-6.827,18.78-13.275,28.298-19.082
			c3.536-2.156,4.654-6.771,2.497-10.308c-2.157-3.537-6.772-4.654-10.309-2.497c-9.951,6.07-19.274,12.66-29.146,19.638
			c-18.906,13.365-38.456,27.185-66.399,40.412c-0.001,0-0.002,0-0.003,0.001c-0.008,0.004-0.015,0.008-0.022,0.012
			c-0.501,0.237-0.984,0.503-1.454,0.785c-0.148,0.088-0.288,0.186-0.432,0.278c-0.323,0.208-0.64,0.423-0.946,0.651
			c-0.164,0.123-0.324,0.248-0.483,0.376c-0.268,0.216-0.528,0.441-0.782,0.673c-0.163,0.148-0.326,0.295-0.483,0.45
			c-0.053,0.052-0.111,0.099-0.163,0.152c-0.098,0.1-0.181,0.209-0.272,0.314c-1.82,1.945-3.163,4.3-3.844,6.918
			c-1.18,4.536-0.285,9.338,2.448,13.164c21.861,30.72,46.889,62.564,81.69,87.357c40.663,28.969,87.209,43.051,142.3,43.051
			c32.622,0,62.973-5.152,90.211-15.313c3.881-1.448,5.853-5.768,4.405-9.648c-1.445-3.884-5.766-5.857-9.645-4.409
			c-25.555,9.534-54.143,14.368-84.968,14.368c-110.757,0-165.939-60.562-208.196-119.121
			c39.523,14.165,89.475,21.308,131.624,18.572c17.015,12.671,45.303,20.172,76.572,20.172c31.271,0,59.562-7.502,76.576-20.176
			c5.951,0.386,12.045,0.587,18.258,0.587c37.777-0.001,79.42-6.993,113.363-19.159c-19.924,27.625-42.72,55.782-73.207,77.855
			c-3.355,2.43-4.105,7.118-1.676,10.474c1.467,2.026,3.757,3.103,6.081,3.103c1.524-0.001,3.063-0.464,4.392-1.426
			c34.076-24.672,58.685-56.053,80.194-86.277C456.82,159.354,453.565,148.086,444.512,143.813z M226.95,187.617
			c-18.812,0-36.623-3.006-50.594-8.258c17.697-3.172,35.593-8.872,50.594-18.519c15.062,9.686,33.107,15.383,50.594,18.519
			C263.573,184.611,245.762,187.617,226.95,187.617z"/>
	</g>
</g>
<g>
	<g>
		<path d="M510.247,393.15l-75.167-89.604c-2.576-3.067-6.191-4.948-10.182-5.295c-7.164-0.628-11.607,4.114-12.006,4.348
			c-6.272-6.676-9.853-14.375-20.523-18.668l-8.811-3.547l-9.983-11.898c-4.109-4.896-11.436-5.539-16.335-1.429l-2.098,1.761
			l-29.84-35.562c-2.663-3.172-7.394-3.588-10.566-0.924c-3.173,2.662-3.587,7.393-0.924,10.566l29.84,35.562l-2.099,1.761
			c-4.897,4.11-5.538,11.438-1.428,16.335l9.982,11.896l1.963,9.294c2.396,11.338,9.304,16.073,14.824,23.456
			c-0.409,0.48-5.718,3.689-6.369,11.054c-0.353,3.995,0.873,7.888,3.451,10.959l75.177,89.59c2.65,3.157,7.378,3.599,10.566,0.924
			c3.173-2.662,3.587-7.394,0.924-10.566l-20.062-23.901l14.656-12.298c3.173-2.662,3.587-7.394,0.924-10.566
			c-2.662-3.173-7.394-3.586-10.566-0.924l-14.658,12.3l-17.799-21.205l14.661-12.303c3.173-2.662,3.586-7.394,0.924-10.566
			s-7.393-3.586-10.566-0.924l-14.663,12.304l-18.034-21.485l6.81-5.717c0.003-0.003,0.006-0.004,0.01-0.007l34.51-28.957
			c0.066-0.055,0.124-0.117,0.188-0.174l6.611-5.55l75.165,89.603c2.662,3.174,7.393,3.589,10.566,0.926
			C512.494,401.054,512.909,396.324,510.247,393.15z M378.384,331.558c-6.391-8.224-10.297-10.569-11.639-16.913l-2.35-11.128
			c-0.255-1.204-0.802-2.328-1.593-3.271l-9-10.725c12.736-10.687,9.656-8.103,10.47-8.786l9,10.726
			c2.005,2.39,3.925,2.285,13.496,6.385c6,2.413,7.603,6.628,14.634,14.396C400.954,312.617,395.554,317.149,378.384,331.558z"/>
	</g>
</g>
<g>
</g>
<g>
</g>
<g>
</g>
<g>
</g>
<g>
</g>
<g>
</g>
<g>
</g>
<g>
</g>
<g>
</g>
<g>
</g>
<g>
</g>
<g>
</g>
<g>
</g>
<g>
</g>
<g>
</g>
</svg>
