<?xml version="1.0" encoding="iso-8859-1"?>
<!-- Generator: Adobe Illustrator 17.1.0, SVG Export Plug-In . SVG Version: 6.00 Build 0)  -->
<!DOCTYPE svg PUBLIC "-//W3C//DTD SVG 1.1//EN" "http://www.w3.org/Graphics/SVG/1.1/DTD/svg11.dtd">
<svg fill="#fff" version="1.1" id="Capa_1" xmlns="http://www.w3.org/2000/svg" xmlns:xlink="http://www.w3.org/1999/xlink" x="0px" y="0px"
	 viewBox="0 0 465 465" style="enable-background:new 0 0 465 465;" xml:space="preserve">
<g>
	<path d="M357.347,450h-2.5V343.274c0-47.903-28.084-90.906-70.354-110.774c42.27-19.868,70.354-62.871,70.354-110.774V15h2.5
		c4.142,0,7.5-3.357,7.5-7.5s-3.358-7.5-7.5-7.5H107.653c-4.142,0-7.5,3.357-7.5,7.5s3.358,7.5,7.5,7.5h2.5v106.726
		c0,47.903,28.084,90.906,70.354,110.774c-42.27,19.868-70.354,62.871-70.354,110.774V450h-2.5c-4.142,0-7.5,3.357-7.5,7.5
		s3.358,7.5,7.5,7.5h249.693c4.142,0,7.5-3.357,7.5-7.5S361.489,450,357.347,450z M125.153,343.274
		c0-48.241,32.46-90.819,78.937-103.54c3.26-0.893,5.52-3.854,5.52-7.234s-2.26-6.342-5.52-7.234
		c-46.477-12.721-78.937-55.299-78.937-103.54V15h214.693v106.726c0,48.241-32.46,90.819-78.936,103.54
		c-3.26,0.893-5.52,3.854-5.52,7.234s2.26,6.342,5.52,7.234c46.476,12.721,78.936,55.299,78.936,103.54V450H125.153V343.274z"/>
	<path d="M256.95,308.201c-3.996-1.09-8.121,1.26-9.214,5.254c-1.094,3.996,1.259,8.121,5.254,9.215
		c33.477,9.163,56.857,39.842,56.857,74.604V420H155.153v-22.726c0-34.764,23.38-65.441,56.856-74.604
		c3.995-1.094,6.348-5.219,5.254-9.215c-1.093-3.994-5.218-6.341-9.214-5.254c-39.977,10.942-67.896,47.571-67.896,89.073V427.5
		c0,4.143,3.358,7.5,7.5,7.5h169.693c4.142,0,7.5-3.357,7.5-7.5v-30.226C324.847,355.772,296.926,319.144,256.95,308.201z"/>
	<path d="M225,271.417c0,4.143,3.358,7.5,7.5,7.5s7.5-3.357,7.5-7.5v-57.509c6.685-0.56,11.974-1.811,16.862-3.085
		c30.147-7.858,54.643-31.602,63.928-61.965c0.696-2.273,0.271-4.743-1.143-6.654c-1.415-1.911-3.651-3.039-6.029-3.039
		l-67.118-0.001c-4.142,0-7.5,3.358-7.5,7.5s3.358,7.5,7.5,7.5l56.253,0.001c-9.523,20.705-27.827,36.448-49.675,42.144
		c-4.706,1.227-11.151,2.907-20.578,2.907c-9.426,0-15.871-1.681-20.578-2.908c-21.849-5.694-40.152-21.438-49.675-42.145
		l56.253,0.001c4.142,0,7.5-3.358,7.5-7.5s-3.358-7.5-7.5-7.5l-67.118-0.001c-2.377,0-4.615,1.128-6.029,3.039
		c-1.415,1.911-1.839,4.38-1.144,6.654c9.285,30.364,33.781,54.108,63.928,61.967c4.889,1.274,10.178,2.525,16.862,3.085V271.417z"
		/>
	<path d="M232.5,293.917c-4.142,0-7.5,3.357-7.5,7.5v2.42c0,4.143,3.358,7.5,7.5,7.5s7.5-3.357,7.5-7.5v-2.42
		C240,297.274,236.642,293.917,232.5,293.917z"/>
</g>
<g>
</g>
<g>
</g>
<g>
</g>
<g>
</g>
<g>
</g>
<g>
</g>
<g>
</g>
<g>
</g>
<g>
</g>
<g>
</g>
<g>
</g>
<g>
</g>
<g>
</g>
<g>
</g>
<g>
</g>
</svg>
