<?xml version="1.0" encoding="iso-8859-1"?>
<!-- Generator: Adobe Illustrator 16.0.0, SVG Export Plug-In . SVG Version: 6.00 Build 0)  -->
<!DOCTYPE svg PUBLIC "-//W3C//DTD SVG 1.1//EN" "http://www.w3.org/Graphics/SVG/1.1/DTD/svg11.dtd">
<svg fill="#f8537e"  version="1.1" id="Capa_1" xmlns="http://www.w3.org/2000/svg" xmlns:xlink="http://www.w3.org/1999/xlink" x="0px" y="0px"
	 width="35px" height="35px" viewBox="0 0 35 35" style="enable-background:new 0 0 35 35;" xml:space="preserve">
<g>
	<path d="M24.245,0H10.754C9.63,0,8.711,0.919,8.711,2.043v26.176c0,1.125,0.919,2.045,2.043,2.045h1.104V35l4.735-4.736h7.65
		c1.125,0,2.046-0.92,2.046-2.045V2.043C26.291,0.919,25.37,0,24.245,0z M15.342,1.473h4.314c0.14,0,0.248,0.111,0.248,0.25
		c0,0.135-0.108,0.245-0.248,0.245h-4.314c-0.136,0-0.247-0.11-0.247-0.245C15.095,1.584,15.206,1.473,15.342,1.473z M24.869,26.48
		l-6.479,0.017l-5.157,5.159v-5.159l-3.102-0.017V3.241h14.736L24.869,26.48L24.869,26.48z"/>
</g>
<g>
</g>
<g>
</g>
<g>
</g>
<g>
</g>
<g>
</g>
<g>
</g>
<g>
</g>
<g>
</g>
<g>
</g>
<g>
</g>
<g>
</g>
<g>
</g>
<g>
</g>
<g>
</g>
<g>
</g>
</svg>
