<?xml version="1.0" encoding="iso-8859-1"?>
<!-- Generator: Adobe Illustrator 19.0.0, SVG Export Plug-In . SVG Version: 6.00 Build 0)  -->
<svg fill="#fff" version="1.1" id="Capa_1" xmlns="http://www.w3.org/2000/svg" xmlns:xlink="http://www.w3.org/1999/xlink" x="0px" y="0px"
	 viewBox="0 0 512 512" style="enable-background:new 0 0 512 512;" xml:space="preserve">
<g>
	<g>
		<path d="M208.541,50.453c8.476,0,15.373-6.896,15.373-15.373V15.372C223.915,6.896,217.02,0,208.543,0h-97.982
			c-8.476,0-15.373,6.896-15.373,15.372V35.08c0,8.476,6.896,15.373,15.373,15.373h25.197v54.913h-25.331
			c-8.403,0-15.239,6.836-15.239,15.238V379.5c0,8.403,6.836,15.238,15.239,15.238h19.256v16.406
			c0,8.823,7.179,16.002,16.002,16.002h6.364v77.351c0,4.143,3.359,7.502,7.502,7.502s7.502-3.359,7.502-7.502v-77.351h6.364
			c8.823,0,16.002-7.179,16.002-16.002v-16.406h19.256c8.403,0,15.239-6.836,15.239-15.238V173.307c0-4.143-3.359-7.502-7.502-7.502
			s-7.502,3.359-7.502,7.502v15.253h-98.718v-11.001h24.096c4.143,0,7.502-3.359,7.502-7.502s-3.359-7.502-7.502-7.502h-24.096
			v-41.95c0-0.129,0.105-0.233,0.234-0.233h98.25c0.129,0,0.234,0.105,0.234,0.233v16.858c0,4.143,3.359,7.502,7.502,7.502
			s7.502-3.359,7.502-7.502v-16.858c0-8.403-6.836-15.238-15.239-15.238h-25.331V50.453H208.541z M174.415,411.145
			c0,0.549-0.447,0.997-0.997,0.997h-27.734c-0.55,0-0.997-0.447-0.997-0.997v-16.406h29.728V411.145z M208.91,203.567V379.5
			c0,0.129-0.105,0.233-0.234,0.233h-98.25c-0.129,0-0.234-0.105-0.234-0.233v-41.223h14.093c4.143,0,7.502-3.359,7.502-7.502
			s-3.359-7.502-7.502-7.502h-14.093v-38.568h24.096c4.143,0,7.502-3.359,7.502-7.502s-3.359-7.502-7.502-7.502h-24.096v-38.568
			h14.093c4.143,0,7.502-3.359,7.502-7.502s-3.359-7.502-7.502-7.502h-14.093v-12.562H208.91z M168.341,105.366h-17.578V50.453
			h17.578V105.366z M110.56,35.448c-0.203,0-0.368-0.165-0.368-0.368V15.372c0-0.203,0.165-0.367,0.368-0.367h97.982
			c0.203,0,0.368,0.165,0.368,0.367V35.08c0,0.203-0.165,0.368-0.368,0.368H110.56z"/>
	</g>
</g>
<g>
	<g>
		<path d="M406.124,308.908l-15.268-13.744v-12.081c7.269-0.596,13.005-6.69,13.005-14.11v-38.767
			c0-7.813-6.357-14.169-14.17-14.169H285.108c-7.813,0-14.169,6.356-14.169,14.169v38.767c0,7.42,5.736,13.515,13.005,14.11v12.081
			l-15.268,13.744c-6.791,6.114-10.686,14.861-10.686,23.999v157.568c0,11.869,9.656,21.525,21.525,21.525h115.771
			c11.869,0,21.526-9.656,21.526-21.525V332.907C416.811,323.77,412.915,315.022,406.124,308.908z M285.942,231.042h102.914v37.096
			H285.942V231.042z M375.851,283.142v7.86h-76.904v-7.86H375.851z M395.285,496.995H279.514c-3.595,0-6.52-2.925-6.52-6.52v-19.011
			h66.181c7.337,0,13.307-5.969,13.307-13.307v-17.456c0-4.143-3.359-7.502-7.502-7.502s-7.502,3.359-7.502,7.502v15.758h-64.483
			v-91.701h64.483v40.432c0,4.143,3.359,7.502,7.502,7.502s7.502-3.359,7.502-7.502v-42.13c0-7.337-5.969-13.307-13.307-13.307
			h-66.181v-16.846c0-4.892,2.085-9.574,5.721-12.847l15.61-14.053h86.15l15.61,14.053c3.636,3.273,5.721,7.955,5.721,12.847
			v157.568h0.001C401.806,494.07,398.882,496.995,395.285,496.995z"/>
	</g>
</g>
<g>
</g>
<g>
</g>
<g>
</g>
<g>
</g>
<g>
</g>
<g>
</g>
<g>
</g>
<g>
</g>
<g>
</g>
<g>
</g>
<g>
</g>
<g>
</g>
<g>
</g>
<g>
</g>
<g>
</g>
</svg>
