<svg width="24" height="24" viewBox="0 0 24 24" fill="none" xmlns="http://www.w3.org/2000/svg">
<path d="M21.7125 18L17.8125 15.45C17.4215 15.2022 16.95 15.1146 16.4961 15.2054C16.0422 15.2962 15.6407 15.5584 15.375 15.9375C14.5125 17.025 13.3875 18.825 9.3 14.7375C5.2125 10.65 6.975 9.525 8.0625 8.625C8.4416 8.35934 8.70378 7.95784 8.79457 7.50391C8.88535 7.04998 8.79776 6.57853 8.55 6.1875L6 2.2875C5.6625 1.8 5.2125 1.0125 4.1625 1.1625C3.1125 1.3125 0.375 2.85 0.375 6.225C0.375 9.6 3.0375 13.725 6.675 17.3625C10.3125 21 14.4375 23.625 17.775 23.625C21.1125 23.625 22.725 20.625 22.8375 19.875C22.95 19.125 22.2 18.3375 21.7125 18Z" fill="#8C8C8C"/>
<path d="M23.4 0.599975C23.2598 0.462555 23.0713 0.385582 22.875 0.385582C22.6787 0.385582 22.4902 0.462555 22.35 0.599975L14.625 8.32498V2.62497C14.625 2.42606 14.546 2.2353 14.4053 2.09464C14.2647 1.95399 14.0739 1.87497 13.875 1.87497C13.6761 1.87497 13.4853 1.95399 13.3447 2.09464C13.204 2.2353 13.125 2.42606 13.125 2.62497V10.875H21.375C21.5739 10.875 21.7647 10.796 21.9053 10.6553C22.046 10.5147 22.125 10.3239 22.125 10.125C22.125 9.92606 22.046 9.7353 21.9053 9.59465C21.7647 9.45399 21.5739 9.37498 21.375 9.37498H15.675L23.4 1.64997C23.5374 1.50978 23.6144 1.32129 23.6144 1.12497C23.6144 0.92866 23.5374 0.740171 23.4 0.599975Z" fill="#8C8C8C"/>
</svg>
