<svg width="24" height="24" viewBox="0 0 24 24" fill="none" xmlns="http://www.w3.org/2000/svg">
<path d="M22.0875 17.625L18.1875 15.075C17.7965 14.8272 17.325 14.7396 16.8711 14.8304C16.4172 14.9212 16.0157 15.1834 15.75 15.5625C14.8875 16.65 13.7625 18.45 9.675 14.3625C5.5875 10.275 7.35 9.14999 8.4375 8.24999C8.8166 7.98434 9.07878 7.58283 9.16957 7.12891C9.26035 6.67498 9.17276 6.20352 8.925 5.81249L6.375 1.91249C6.0375 1.42499 5.5875 0.637492 4.5375 0.787492C3.4875 0.937492 0.75 2.47499 0.75 5.84999C0.75 9.22499 3.4125 13.35 7.05 16.9875C10.6875 20.625 14.8125 23.25 18.15 23.25C21.4875 23.25 23.1 20.25 23.2125 19.5C23.325 18.75 22.575 17.9625 22.0875 17.625Z" stroke="#8C8C8C" stroke-miterlimit="10" stroke-linecap="round" stroke-linejoin="round"/>
<path d="M13.5 3.375V10.875H21M22.5 1.875L13.5 10.875L22.5 1.875Z" stroke="#8C8C8C" stroke-miterlimit="10" stroke-linecap="round" stroke-linejoin="round"/>
</svg>
