<svg width="16" height="16" viewBox="0 0 16 16" fill="none" xmlns="http://www.w3.org/2000/svg">
<path fill-rule="evenodd" clip-rule="evenodd" d="M1.81056 10.9535C1.4261 11.379 1.22939 11.9413 1.22939 12.4841C1.22939 13.0416 1.4261 13.599 1.81056 14.0196C2.20844 14.4499 2.71808 14.6504 3.20984 14.6504C3.71948 14.6504 4.22911 14.4401 4.61358 14.0196L8.114 10.1907L11.8916 6.06357C12.0615 5.88264 12.1375 5.63814 12.1375 5.38875C12.1375 5.14425 12.0615 4.89976 11.8916 4.71883C11.7128 4.53301 11.4937 4.4401 11.2702 4.4401C11.0467 4.4401 10.8187 4.53301 10.6533 4.71883L5.23945 10.6357C4.99804 10.9095 4.61358 10.9095 4.3677 10.6357C4.13076 10.3716 4.13076 9.94621 4.3677 9.68704L9.7815 3.76528C10.1928 3.3154 10.7337 3.09535 11.2702 3.09535C11.8067 3.09535 12.3476 3.3154 12.7544 3.76528C13.1657 4.21516 13.3713 4.80196 13.3713 5.38875C13.3713 5.98044 13.1657 6.57213 12.7544 7.02201L8.99469 11.1394L5.48533 14.9731C4.85499 15.6577 4.03688 16 3.20984 16C2.40961 16 1.60045 15.6675 0.979044 15.0073L0.94328 14.9731C0.317407 14.2885 0 13.3888 0 12.4841C0 11.5941 0.317407 10.6895 0.94328 10.0098L4.43923 6.17604L8.86058 1.34474C9.67421 0.449878 10.7471 0 11.8201 0C12.8885 0 13.9614 0.449878 14.7751 1.34474C15.5887 2.22983 16 3.40831 16 4.57702C16 5.75061 15.5887 6.92421 14.7751 7.81418L8.71752 14.4352C8.48058 14.6993 8.08718 14.6993 7.85024 14.4352C7.60436 14.176 7.60436 13.7457 7.85024 13.4866L13.9033 6.86064C14.48 6.23961 14.7661 5.40831 14.7661 4.57702C14.7661 3.75061 14.48 2.91932 13.9033 2.2934C13.3356 1.66748 12.5756 1.35452 11.8201 1.35452C11.0601 1.35452 10.3046 1.66748 9.72786 2.2934L4.92652 7.55012L1.81056 10.9535Z" fill="#595959"/>
</svg>
