<svg width="8" height="18" viewBox="0 0 8 18" fill="none" xmlns="http://www.w3.org/2000/svg">
<path fill-rule="evenodd" clip-rule="evenodd" d="M1.72917 3.48632C1.72917 3.93994 1.72917 5.96458 1.72917 5.96458H2.09808e-05V8.99478H1.72917V17.9999H5.28126V8.99478H7.66479C7.66479 8.99478 7.88803 7.54162 7.99626 5.95332C7.68598 5.95332 5.29465 5.95332 5.29465 5.95332C5.29465 5.95332 5.29465 4.19022 5.29465 3.88126C5.29465 3.5715 5.68193 3.15484 6.06473 3.15484C6.44676 3.15484 7.25314 3.15484 8.00004 3.15484C8.00004 2.74198 8.00004 1.3164 8.00004 0.000120044C7.00294 0.000120044 5.86869 0.000120044 5.36864 0.000120044C1.64135 0.000120044 1.72917 3.03334 1.72917 3.48632Z" fill="white"/>
</svg>
