<svg width="18" height="18" viewBox="0 0 18 18" fill="none" xmlns="http://www.w3.org/2000/svg">
<path fill-rule="evenodd" clip-rule="evenodd" d="M4.9672 0.000106812H13.0325C15.7716 0.000106812 18.0001 2.22839 18 4.96739V13.0324C18 15.7714 15.7716 17.9997 13.0325 17.9997H4.9672C2.22827 17.9997 0 15.7714 0 13.0324V4.96739C0 2.22839 2.22827 0.000106812 4.9672 0.000106812ZM13.0326 16.403C14.891 16.403 16.403 14.8908 16.403 13.0324H16.4029V4.96739C16.4029 3.10899 14.8909 1.59681 13.0325 1.59681H4.9672C3.10889 1.59681 1.59707 3.10899 1.59707 4.96739V13.0324C1.59707 14.8908 3.10889 16.403 4.9672 16.403H13.0326ZM4.36183 9.00015C4.36183 6.44261 6.44246 4.36183 8.99996 4.36183C11.5575 4.36183 13.6381 6.44261 13.6381 9.00015C13.6381 11.5577 11.5575 13.638 8.99996 13.638C6.44246 13.638 4.36183 11.5577 4.36183 9.00015ZM5.9589 9.00015C5.9589 10.6766 7.32316 12.0407 8.99996 12.0407C10.6768 12.0407 12.041 10.6766 12.041 9.00015C12.041 7.32319 10.6768 5.95917 8.99996 5.95917C7.32307 5.95917 5.9589 7.32319 5.9589 9.00015ZM13.0053 3.35055C13.2227 3.13213 13.525 3.00763 13.8327 3.00763C14.1414 3.00763 14.4438 3.13213 14.6609 3.35055C14.8792 3.56799 15.0038 3.86999 15.0038 4.17895C15.0038 4.48681 14.8792 4.78879 14.6609 5.00721C14.4427 5.22465 14.1414 5.35011 13.8327 5.35011C13.525 5.35011 13.2226 5.22465 13.0053 5.00721C12.7871 4.78879 12.6615 4.48681 12.6615 4.17895C12.6615 3.86999 12.787 3.56799 13.0053 3.35055Z" fill="white"/>
</svg>
