<svg width="24" height="24" viewBox="0 0 24 24" fill="none" xmlns="http://www.w3.org/2000/svg">
<path d="M0 24L2.064 17.8084C1.01669 16.0469 0.413793 13.9912 0.413793 11.7931C0.413793 5.28 5.69379 0 12.2069 0C18.72 0 24 5.28 24 11.7931C24 18.3062 18.72 23.5862 12.2069 23.5862C10.2252 23.5862 8.35903 23.095 6.72 22.2319L0 24Z" fill="#8C8C8C"/>
<path d="M19.7309 15.718C19.1863 14.6889 17.1782 13.512 17.1782 13.512C16.7239 13.253 16.1756 13.224 15.9165 13.6858C15.9165 13.6858 15.264 14.4683 15.0981 14.5809C14.34 15.0944 13.6378 15.0745 12.929 14.3657L11.2817 12.7184L9.63434 11.0711C8.92552 10.3622 8.90565 9.66003 9.41917 8.90196C9.53172 8.73603 10.3142 8.08348 10.3142 8.08348C10.776 7.82403 10.747 7.27617 10.488 6.82182C10.488 6.82182 9.31117 4.81368 8.28207 4.26913C7.84427 4.03741 7.30676 4.11851 6.95669 4.46858L6.22924 5.19603C3.92152 7.50375 5.05779 10.109 7.36551 12.4167L9.47462 14.5258L11.5837 16.6349C13.8914 18.9426 16.4967 20.0789 18.8044 17.7712L19.5319 17.0438C19.8819 16.6929 19.9626 16.1553 19.7309 15.718Z" fill="#262626"/>
</svg>
