<svg width="492" height="706" viewBox="0 0 492 706" fill="none" xmlns="http://www.w3.org/2000/svg">
<path d="M7.5 122C11.0899 122 14 119.09 14 115.5C14 111.91 11.0899 109 7.5 109C3.91015 109 1 111.91 1 115.5C1 119.09 3.91015 122 7.5 122Z" fill="white" stroke="#D386FF" stroke-width="2"/>
<path d="M212.63 705C216.22 705 219.13 702.09 219.13 698.5C219.13 694.91 216.22 692 212.63 692C209.04 692 206.13 694.91 206.13 698.5C206.13 702.09 209.04 705 212.63 705Z" fill="white" stroke="#E8E8E8" stroke-width="2"/>
<path d="M440.164 148.821C440.503 148.482 440.8 148.291 441.055 148.249C441.31 148.206 441.543 148.291 441.755 148.503L447.451 154.199L453.083 148.567C453.295 148.355 453.528 148.27 453.783 148.312C454.037 148.355 454.334 148.546 454.674 148.885L454.897 149.108C455.236 149.447 455.427 149.744 455.469 149.999C455.512 150.253 455.427 150.487 455.215 150.699L449.583 156.331L455.278 162.027C455.512 162.26 455.597 162.493 455.533 162.727C455.491 162.981 455.3 163.278 454.96 163.618L454.737 163.84C454.398 164.18 454.101 164.371 453.847 164.413C453.592 164.456 453.359 164.371 453.147 164.159L447.451 158.463L441.85 164.063C441.617 164.297 441.384 164.381 441.15 164.318C440.896 164.275 440.599 164.084 440.259 163.745L440.037 163.522C439.697 163.183 439.506 162.886 439.464 162.631C439.4 162.398 439.485 162.165 439.719 161.931L445.319 156.331L439.623 150.635C439.411 150.423 439.326 150.19 439.369 149.935C439.411 149.681 439.602 149.384 439.941 149.044L440.164 148.821Z" fill="#97D8F0"/>
<rect x="15.4142" y="536.607" width="13" height="13" rx="3" transform="rotate(-45 15.4142 536.607)" fill="white" stroke="#80F3DA" stroke-width="2"/>
<path d="M473.619 555.253C472.037 555.548 471.433 557.496 472.571 558.634L481.272 567.335C482.41 568.473 484.358 567.869 484.653 566.287L486.643 555.595C486.9 554.215 485.691 553.006 484.311 553.263L473.619 555.253Z" fill="white" stroke="#DC8CFF" stroke-width="2" stroke-linecap="round" stroke-linejoin="round"/>
<path d="M257.49 7.25336C255.907 7.54793 255.303 9.49571 256.441 10.6338L265.142 19.3347C266.28 20.4728 268.228 19.8688 268.523 18.2865L270.513 7.59535C270.77 6.21471 269.561 5.00608 268.181 5.26309L257.49 7.25336Z" fill="white" stroke="#E4E4E4" stroke-width="2" stroke-linecap="round" stroke-linejoin="round"/>
</svg>
