<svg width="96" height="96" viewBox="0 0 96 96" fill="none" xmlns="http://www.w3.org/2000/svg">
<circle opacity="0.1" cx="48" cy="48" r="48" fill="#FA8C16"/>
<path d="M32.2664 26.7811H27.8028L26.418 52.5585H33.6516L32.2664 26.7811Z" fill="#FA8C16"/>
<path d="M43.7571 26.7811H39.2936L37.9087 52.5585H45.1422L43.7571 26.7811Z" fill="#FA8C16"/>
<path d="M47.0529 44.4796V55.395H24V69.2187H72V40.0574L47.0529 44.4796ZM34.711 64.8671H26.8167V59.7464H34.711V64.8671ZM46.2018 64.8671H38.3075V59.7464H46.2018V64.8671ZM57.6925 64.8671H49.7982V59.7464H57.6925V64.8671ZM57.6925 55.9944H49.7982V50.8739H57.6925V55.9944ZM69.1831 64.8671H61.2888V59.7464H69.1831V64.8671ZM69.1831 55.9944H61.2888V50.8739H69.1831V55.9944Z" fill="#FA8C16"/>
</svg>
