<svg width="96" height="96" viewBox="0 0 96 96" fill="none" xmlns="http://www.w3.org/2000/svg">
<circle opacity="0.1" cx="48" cy="48" r="48" fill="#309D6B"/>
<path d="M69.9448 35.3848C69.8823 34.0167 69.8823 32.7109 69.8823 31.4051C69.8823 30.348 69.0696 29.5396 68.0068 29.5396C60.192 29.5396 54.2528 27.301 49.3139 22.513C48.5637 21.829 47.4384 21.829 46.6881 22.513C41.7492 27.301 35.81 29.5396 27.9953 29.5396C26.9325 29.5396 26.1197 30.348 26.1197 31.4051C26.1197 32.7109 26.1197 34.0167 26.0572 35.3848C25.8071 48.443 25.432 66.3516 47.3758 73.8756L48.001 74L48.6262 73.8756C70.5075 66.3516 70.1949 48.5052 69.9448 35.3848ZM46.5006 53.4798C46.1255 53.7907 45.6878 53.9773 45.1877 53.9773H45.1252C44.625 53.9773 44.1249 53.7285 43.8123 53.3555L37.9981 46.9507L40.8114 44.4634L45.3753 49.5002L55.5032 39.9241L58.0664 42.6601L46.5006 53.4798Z" fill="#309D6B"/>
</svg>
