<svg width="96" height="96" viewBox="0 0 96 96" fill="none" xmlns="http://www.w3.org/2000/svg">
<circle opacity="0.1" cx="48" cy="48" r="48" fill="#E12B1B"/>
<g clip-path="url(#clip0)">
<path d="M48.0002 31.3753C38.7855 31.3753 31.2991 38.8742 31.2991 48.0765C31.2991 57.2783 38.7979 64.7771 48.0002 64.7771C57.202 64.7771 64.7009 57.2783 64.7009 48.0765C64.7009 38.8742 57.2149 31.3753 48.0002 31.3753ZM56.3759 44.0728L46.2968 53.5795C46.1106 53.7622 45.8589 53.863 45.5978 53.8595C45.3247 53.862 45.0625 53.7518 44.8734 53.5542L39.5988 48.14C39.2125 47.7389 39.2209 47.1009 39.6186 46.7106C40.0158 46.3204 40.6533 46.3229 41.048 46.7161L45.6236 51.4188L54.9778 42.5983C55.3849 42.212 56.0279 42.2294 56.4141 42.6365C56.8004 43.0436 56.783 43.6866 56.3759 44.0728Z" fill="#E12B1B"/>
<path d="M71.9836 54.1643L76.0002 48.0765L71.9836 41.9881C71.866 41.8074 71.8079 41.5939 71.8183 41.3779L72.2249 34.0826L65.7304 30.7909C65.5383 30.6941 65.3824 30.5382 65.2856 30.3461L62.0063 23.8511L54.711 24.2577C54.4951 24.2682 54.2816 24.2106 54.1008 24.0924L48.0001 20.0764L41.9117 24.0924C41.731 24.2106 41.5175 24.2682 41.302 24.2577L34.0062 23.8511L30.7146 30.3461C30.6178 30.5382 30.4619 30.6941 30.2697 30.7909L23.7748 34.0697L24.1814 41.3655C24.1918 41.581 24.1342 41.7945 24.0165 41.9757L20 48.0765L24.0165 54.1643C24.1342 54.3455 24.1918 54.5585 24.1814 54.7745L23.7748 62.0698L30.2697 65.3491C30.4619 65.4459 30.6178 65.6018 30.7146 65.7939L33.9938 72.2889L41.2891 71.8818H41.3398C41.5379 71.8843 41.732 71.9414 41.8993 72.0471L47.9872 76.0636L54.0755 72.0471C54.2562 71.9294 54.4697 71.8718 54.6852 71.8818L61.981 72.2889L65.2603 65.7939C65.3571 65.6018 65.513 65.4459 65.7051 65.3491L72.1996 62.0698L71.793 54.7745C71.8039 54.558 71.8694 54.348 71.9836 54.1643ZM48.0001 66.8107C37.6668 66.8107 29.2653 58.4092 29.2653 48.0765C29.2653 37.7432 37.6668 29.3417 48.0001 29.3417C58.3334 29.3417 66.7343 37.7432 66.7343 48.0765C66.7343 58.4092 58.3334 66.8107 48.0001 66.8107Z" fill="#E12B1B"/>
</g>
<defs>
<clipPath id="clip0">
<rect width="56" height="56" fill="white" transform="translate(20 20)"/>
</clipPath>
</defs>
</svg>
