<svg width="96" height="96" viewBox="0 0 96 96" fill="none" xmlns="http://www.w3.org/2000/svg">
<circle opacity="0.1" cx="48" cy="48" r="48" fill="#00A2D2"/>
<path d="M33.5333 36.2333C31.6666 34.3666 23.7333 33.9 21.1666 33.6666C20.9333 33.6666 20.6999 33.6666 20.4666 33.8999C20.2333 34.1333 20 34.6 20 34.8333V55.8333C20 56.5333 20.4667 57 21.1667 57H28.1667C28.6334 57 29.1 56.7667 29.3334 56.3C29.3334 55.6 33.5334 43.2333 34.0001 37.1667C34 36.9333 34 36.4667 33.5333 36.2333Z" fill="#00A2D2"/>
<path d="M58.4999 41.8333C56.1666 41.1333 54.0666 40.2 52.1999 39.5C47.9999 37.6333 46.1332 38.5667 42.3999 42.3C40.7666 43.9333 39.5999 46.2667 39.8332 47.2C39.8332 47.4333 39.8332 47.4333 40.2999 47.6667C41.4666 48.1334 43.0999 48.3667 44.7332 45.8C44.9665 45.5667 45.1999 45.3333 45.6665 45.3333C46.3665 45.3333 46.5998 45.1 47.2998 44.8666C47.7665 44.6333 48.2331 44.3999 48.9331 44.1666C49.1664 44.1666 49.1664 44.1666 49.3998 44.1666C49.6331 44.1666 50.0998 44.3999 50.3331 44.3999C51.4999 45.5667 53.5999 47.2 55.6999 49.0667C58.9666 51.6334 62.2332 54.4334 63.8666 56.5334H64.0999C62.4666 51.8667 59.6666 43.9333 58.4999 41.8333Z" fill="#00A2D2"/>
<path d="M74.8332 36C65.7332 36 60.5999 38.3333 60.3665 38.3333C60.1332 38.5666 59.8998 38.8 59.6665 39.0333C59.6665 39.2666 59.6665 39.7333 59.8998 39.9666C61.2998 42.2999 65.9665 55.1333 66.6665 58.3999C66.8998 58.8666 67.3665 59.3332 67.8332 59.3332H74.8332C75.5332 59.3332 75.9999 58.8665 75.9999 58.1665V37.1665C75.9999 36.4667 75.5332 36 74.8332 36Z" fill="#00A2D2"/>
<path d="M62.2332 58.8668C61.2999 56.7668 57.3332 53.7335 53.8332 50.9335C51.9666 49.3 50.0999 47.9 48.6999 46.7333C48.4666 46.9666 47.9999 46.9666 47.9999 47.2C47.2999 47.4333 47.0666 47.6668 46.1332 47.6668C44.2666 50 41.9332 50.9333 39.3666 50C38.1999 49.7668 37.4999 48.8333 37.2666 47.9C36.7999 45.5668 38.8999 42.3 40.5333 40.6667H35.8666C34.9333 45.3335 33.2999 51.4 32.1333 54.6668C33.0666 55.6001 34 56.7668 34.7 57.2335C39.1333 60.9668 44.2667 64.7002 45.2 65.4002C45.9 65.8669 47.3 66.3335 48 66.3335C48.2333 66.3335 48.4667 66.3335 48.7 66.3335L44.9666 62.6001C44.4999 62.1334 44.4999 61.4334 44.9666 60.9668C45.4333 60.5002 46.1333 60.5001 46.5999 60.9668L51.2666 65.6335C51.7333 66.1002 52.1999 65.8668 52.6666 65.8668C53.3666 65.6335 53.5999 65.1668 53.8333 64.4668L48.4666 59.1001C47.9999 58.6334 47.9999 57.9333 48.4666 57.4668C48.9333 57.0002 49.6333 57.0001 50.0999 57.4668L55.9332 63.3001C56.1665 63.5334 57.0999 63.5334 57.7999 63.3001C58.0332 63.0668 58.4999 62.8334 58.7332 62.3668L52.1999 55.8334C51.7332 55.3666 51.7332 54.6666 52.1999 54.2001C52.6666 53.7335 53.3666 53.7333 53.8332 54.2001L60.5999 60.9668C61.0666 61.2001 61.5332 60.9668 61.9999 60.7335C62.2332 60.5001 62.6999 59.8001 62.2332 58.8668Z" fill="#00A2D2"/>
</svg>
