<svg width="114" height="36" viewBox="0 0 114 36" fill="none" xmlns="http://www.w3.org/2000/svg">
<path d="M3.07553e-08 10.7794V19.1623C3.07553e-08 24.905 5.17911 29.6132 11.6805 29.925V34.9217C11.6805 35.483 12.2057 35.9391 12.8502 35.9391C13.1584 35.9391 13.4503 35.8329 13.6712 35.6411L14.9601 34.5171C18.3456 31.5665 22.8468 29.9422 27.6343 29.9422H28.8574C35.677 29.9422 41.2253 25.1068 41.2253 19.1628V10.7794C41.2258 4.8358 35.6775 0 28.8579 0H12.367C5.54833 0 -0.000476998 4.8358 3.07553e-08 10.7794Z" fill="#F9E027"/>
<path d="M40.246 6.80322L39.7671 9.48105C38.2893 17.7821 35.1843 21.8081 27.7393 22.7764L26.4041 22.9502C21.1768 23.6304 16.4857 26.0088 13.1932 29.6478L11.9396 31.0341C11.858 31.1241 11.7607 31.1979 11.6567 31.2621V35.0954C11.6567 35.5943 12.1824 35.9994 12.8274 35.9994C13.136 35.9994 13.4275 35.9056 13.6493 35.7342L14.9392 34.7345C18.3275 32.11 20.3873 30.4747 25.1605 30.1415L29.2181 29.9363C36.2333 29.3312 41.5789 25.4733 41.2259 17.9687V10.7793C41.2259 9.11544 41.2125 8.16808 40.246 6.80322Z" fill="#FCD22E"/>
<path d="M16.0912 15.6931C16.4833 16.1882 16.6794 16.7981 16.6794 17.5236C16.6794 18.5942 16.2729 19.4288 15.4596 20.0272C14.6463 20.6261 13.4842 20.925 11.973 20.925H6.00439V8.83838H11.6448C13.052 8.83838 14.1478 9.10878 14.932 9.65006C15.7162 10.1913 16.1083 10.9621 16.1083 11.9637C16.1083 12.5626 15.9586 13.0891 15.6585 13.5437C15.3585 13.9988 14.9377 14.3583 14.3953 14.623C15.1338 14.8415 15.6991 15.1985 16.0912 15.6931ZM8.78977 13.8456H11.4025C12.0135 13.8456 12.4753 13.7218 12.7863 13.4742C13.0978 13.2267 13.2533 12.8611 13.2533 12.3779C13.2533 11.9061 13.0945 11.5433 12.7773 11.2901C12.4596 11.0373 12.0016 10.9102 11.402 10.9102H8.78929V13.8456H8.78977ZM13.842 17.2994C13.842 16.2977 13.1846 15.7969 11.8695 15.7969H8.78977V18.8532H11.8695C13.1846 18.8537 13.842 18.3353 13.842 17.2994Z" fill="#231F20"/>
<path d="M20.4426 20.4503C19.6521 20.0419 19.0349 19.4744 18.5912 18.7498C18.1471 18.0243 17.9253 17.2017 17.9253 16.2805C17.9253 15.3598 18.1471 14.5362 18.5912 13.8112C19.0353 13.0862 19.6526 12.5192 20.4426 12.1107C21.2325 11.7023 22.1236 11.4976 23.1158 11.4976C24.0961 11.4976 24.9524 11.7018 25.6851 12.1107C26.4174 12.5192 26.9507 13.1033 27.2856 13.8631L25.1919 14.9852C24.7072 14.1335 24.0093 13.7074 23.0982 13.7074C22.3941 13.7074 21.8116 13.9378 21.3504 14.3982C20.8891 14.8585 20.6582 15.486 20.6582 16.2805C20.6582 17.0751 20.8886 17.702 21.3504 18.1624C21.8116 18.6227 22.3941 18.8536 23.0982 18.8536C24.0208 18.8536 24.7187 18.4275 25.1919 17.5754L27.2856 18.7151C26.9507 19.452 26.4174 20.0276 25.6851 20.4422C24.9524 20.8564 24.0961 21.0635 23.1158 21.0635C22.1236 21.063 21.2325 20.8588 20.4426 20.4503Z" fill="#231F20"/>
<path d="M37.8055 17.0398H30.7636C30.8905 17.6154 31.1905 18.0705 31.6632 18.4037C32.136 18.7379 32.7246 18.9045 33.4282 18.9045C33.9129 18.9045 34.3422 18.8327 34.7172 18.6889C35.0916 18.5446 35.4408 18.3171 35.7638 18.0067L37.1996 19.5605C36.3229 20.5622 35.0425 21.0625 33.3586 21.0625C32.3091 21.0625 31.3804 20.8583 30.5732 20.4498C29.7656 20.0414 29.1426 19.4739 28.7047 18.7493C28.2663 18.0238 28.0474 17.2012 28.0474 16.28C28.0474 15.3708 28.2639 14.5505 28.6961 13.8198C29.1283 13.089 29.7227 12.5192 30.4783 12.1102C31.2334 11.7018 32.0787 11.4971 33.0128 11.4971C33.9239 11.4971 34.7487 11.6927 35.4871 12.0841C36.2251 12.4754 36.8047 13.0366 37.2259 13.7679C37.6471 14.4991 37.8575 15.3479 37.8575 16.3148C37.8575 16.3495 37.8398 16.5914 37.8055 17.0398ZM31.4901 14.053C31.0746 14.3986 30.8213 14.8704 30.7287 15.4688H35.3135C35.2209 14.8818 34.9676 14.4129 34.5521 14.0616C34.1366 13.7107 33.6291 13.5351 33.0295 13.5351C32.4184 13.5351 31.9056 13.7074 31.4901 14.053Z" fill="#231F20"/>
<path d="M47.6099 20.4508C46.8314 20.0423 46.2227 19.4749 45.7843 18.7503C45.3459 18.0248 45.127 17.2022 45.127 16.281C45.127 15.3603 45.3459 14.5367 45.7843 13.8117C46.2222 13.0867 46.8309 12.5197 47.6099 12.1112C48.3889 11.7028 49.268 11.498 50.2483 11.498C51.2286 11.498 52.1054 11.7023 52.8782 12.1112C53.651 12.5197 54.2563 13.0867 54.6947 13.8117C55.1326 14.5367 55.3521 15.3603 55.3521 16.281C55.3521 17.2022 55.1326 18.0248 54.6947 18.7503C54.2563 19.4749 53.651 20.0423 52.8782 20.4508C52.1049 20.8593 51.2286 21.0635 50.2483 21.0635C49.2676 21.0635 48.3884 20.8593 47.6099 20.4508ZM51.9528 18.1543C52.3964 17.6882 52.6187 17.0636 52.6187 16.281C52.6187 15.4984 52.3964 14.8738 51.9528 14.4072C51.5086 13.9412 50.9405 13.7079 50.2483 13.7079C49.5562 13.7079 48.9852 13.9412 48.5353 14.4072C48.0855 14.8733 47.8603 15.4979 47.8603 16.281C47.8603 17.0641 48.0855 17.6882 48.5353 18.1543C48.9852 18.6204 49.5562 18.8541 50.2483 18.8541C50.9405 18.8541 51.5086 18.6204 51.9528 18.1543Z" fill="#231F20"/>
<path d="M64.6785 13.8456H61.5292V20.9251H58.8473V13.8456H55.698V11.6353H64.6781V13.8456H64.6785Z" fill="#231F20"/>
<path d="M73.3204 16.8847C73.6267 17.2418 73.7793 17.6678 73.7793 18.1625C73.7793 18.7499 73.5771 19.265 73.1735 19.7082C72.7694 20.1514 72.2156 20.4937 71.5125 20.7355C70.8093 20.9774 70.0127 21.0983 69.1249 21.0983C68.3984 21.0983 67.6834 21.0231 66.9793 20.8736C66.2757 20.7241 65.624 20.4999 65.0244 20.2L65.7509 18.3177C66.7312 18.7899 67.8155 19.026 69.0033 19.026C69.6373 19.026 70.1362 18.9308 70.5002 18.7409C70.8632 18.5514 71.0455 18.2834 71.0455 17.9378C71.0455 17.6388 70.9181 17.4112 70.6648 17.2556C70.411 17.1004 70.0413 17.0228 69.5571 17.0228H67.6543V15.348H69.3148C69.7875 15.348 70.151 15.2733 70.4053 15.1233C70.6586 14.9738 70.786 14.7548 70.786 14.4673C70.786 14.1683 70.6271 13.9379 70.3099 13.7765C69.9922 13.6156 69.5404 13.5347 68.9513 13.5347C68.0516 13.5347 67.0713 13.748 66.0104 14.1736L65.3531 12.3088C66.6449 11.7447 67.9023 11.4629 69.1249 11.4629C69.9669 11.4629 70.7192 11.5667 71.3822 11.7738C72.0458 11.9813 72.5677 12.2831 72.9483 12.6802C73.329 13.0772 73.5193 13.5409 73.5193 14.0703C73.5193 14.5078 73.3867 14.9019 73.1215 15.2528C72.8558 15.6041 72.4923 15.8831 72.031 16.0902C72.5853 16.263 73.0151 16.5281 73.3204 16.8847Z" fill="#231F20"/>
<path d="M83.3819 15.4171C84.0049 15.9469 84.3159 16.7062 84.3159 17.6964C84.3159 18.7323 83.9638 19.5326 83.2607 20.0967C82.5566 20.6608 81.5591 20.9422 80.2673 20.9422L75.7341 20.9251V11.6357H78.416V14.6054H80.6308C81.8415 14.6173 82.7584 14.8877 83.3819 15.4171ZM81.219 18.6976C81.4957 18.4677 81.634 18.1225 81.634 17.6617C81.634 17.2128 81.4986 16.8848 81.2276 16.6777C80.9562 16.4706 80.5555 16.3611 80.025 16.3497L78.4155 16.3325V19.0261H80.025C80.5445 19.0375 80.9423 18.928 81.219 18.6976ZM85.3196 11.6357H88.0009V20.9251H85.3196V11.6357Z" fill="#231F20"/>
<path d="M99.3514 18.2834C99.3514 19.1237 99.0341 19.7744 98.4002 20.2348C97.7652 20.6951 96.8202 20.9251 95.5628 20.9251H90.5969V11.6357H95.3553C96.5202 11.6357 97.4318 11.8457 98.0887 12.266C98.746 12.6864 99.0747 13.2762 99.0747 14.036C99.0747 14.4964 98.9564 14.9025 98.7203 15.2533C98.4836 15.6046 98.1464 15.8779 97.708 16.0736C98.8037 16.442 99.3514 17.178 99.3514 18.2834ZM93.0703 15.4518H95.112C96.0575 15.4518 96.5312 15.1181 96.5312 14.4502C96.5312 13.7942 96.058 13.4662 95.112 13.4662H93.0703V15.4518ZM96.8255 18.0763C96.8255 17.7198 96.7101 17.4579 96.4792 17.2908C96.2483 17.1242 95.8853 17.0404 95.3892 17.0404H93.0708V19.0951H95.3376C96.3294 19.0946 96.8255 18.7552 96.8255 18.0763Z" fill="#231F20"/>
<path d="M109.006 15.4171C109.629 15.9469 109.94 16.7062 109.94 17.6964C109.94 18.7323 109.588 19.5326 108.885 20.0967C108.181 20.6608 107.183 20.9422 105.892 20.9422L101.358 20.9251V11.6357H104.04V14.6054H106.255C107.466 14.6173 108.383 14.8877 109.006 15.4171ZM106.843 18.6976C107.12 18.4677 107.258 18.1225 107.258 17.6617C107.258 17.2128 107.123 16.8848 106.852 16.6777C106.581 16.4706 106.179 16.3611 105.649 16.3497L104.04 16.3325V19.0261H105.649C106.169 19.0375 106.566 18.928 106.843 18.6976ZM110.944 11.6357H113.625V20.9251H110.944V11.6357Z" fill="#231F20"/>
</svg>
