<svg width="462" height="308" viewBox="0 0 462 308" fill="none" xmlns="http://www.w3.org/2000/svg">
<g clip-path="url(#clip0)">
<mask id="mask0" mask-type="alpha" maskUnits="userSpaceOnUse" x="0" y="0" width="511" height="308">
<path d="M322.961 195.851C240.627 264.948 3.7183 208.608 0 308H511V19.3903C506.042 10.1775 487.203 -6.12218 451.507 2.38198C406.888 13.0122 405.294 126.755 322.961 195.851Z" fill="#BF0147"/>
</mask>
<g mask="url(#mask0)">
<path fill-rule="evenodd" clip-rule="evenodd" d="M41.0835 338.793L80.5585 248.38L99.5576 324.284L41.1068 338.885L41.0835 338.793Z" fill="#C9DA0F"/>
<path fill-rule="evenodd" clip-rule="evenodd" d="M80.5579 248.379L41.0829 338.791L22.1356 263.092L80.5579 248.379Z" fill="#FFD912"/>
<path fill-rule="evenodd" clip-rule="evenodd" d="M22.117 263.098L41.0643 338.797L41.0166 338.918L-35.6743 277.651L22.117 263.098Z" fill="#9CD013"/>
<path fill-rule="evenodd" clip-rule="evenodd" d="M-35.6587 277.647L41.0402 338.902L-16.8217 353.353L-35.7638 277.674L-35.6587 277.647Z" fill="#71B73A"/>
<path fill-rule="evenodd" clip-rule="evenodd" d="M3.05895 186.979L80.5608 248.444L61.4736 172.191L3.03564 186.886L3.05895 186.979Z" fill="#FBAF03"/>
<path fill-rule="evenodd" clip-rule="evenodd" d="M80.5649 248.444L3.06305 186.979L22.1089 263.024L80.5649 248.444Z" fill="#F9C903"/>
<path fill-rule="evenodd" clip-rule="evenodd" d="M22.0953 263.014L3.05993 186.967L2.95249 186.896L-35.7402 277.437L22.0953 263.014Z" fill="#F38202"/>
<path fill-rule="evenodd" clip-rule="evenodd" d="M-35.7364 277.448L2.95629 186.906L-54.8717 201.447L-35.8415 277.474L-35.7364 277.448Z" fill="#F45600"/>
<path fill-rule="evenodd" clip-rule="evenodd" d="M3.05758 186.925L42.4393 96.1442L61.5317 172.417L3.08088 187.017L3.05758 186.925Z" fill="#CE640C"/>
<path fill-rule="evenodd" clip-rule="evenodd" d="M42.4417 96.1538L3.05992 186.935L-15.9806 110.867L42.4417 96.1538Z" fill="#DE3D0F"/>
<path fill-rule="evenodd" clip-rule="evenodd" d="M-15.9897 110.871L3.04829 186.929L3.00058 187.05L-73.7915 125.427L-15.9897 110.871Z" fill="#D70000"/>
<path fill-rule="evenodd" clip-rule="evenodd" d="M-73.7854 125.425L3.0067 187.048L-54.8447 201.497L-73.8906 125.452L-73.7854 125.425Z" fill="#B40019"/>
<path fill-rule="evenodd" clip-rule="evenodd" d="M-35.0047 34.8722L42.4972 96.3374L23.3995 20.0876L-35.0254 34.7903L-35.0047 34.8722Z" fill="#ED2349"/>
<path fill-rule="evenodd" clip-rule="evenodd" d="M42.4991 96.3288L-35.0002 34.8739L-15.9674 110.911L42.4991 96.3288Z" fill="#FD274B"/>
<path fill-rule="evenodd" clip-rule="evenodd" d="M157.596 309.962L235.098 371.428L216.011 295.175L157.573 309.87L157.596 309.962Z" fill="#79C200"/>
<path fill-rule="evenodd" clip-rule="evenodd" d="M235.09 371.43L157.588 309.965L176.623 386.013L235.09 371.43Z" fill="#59B401"/>
<path fill-rule="evenodd" clip-rule="evenodd" d="M157.515 309.733L196.99 219.321L215.999 295.222L157.538 309.825L157.515 309.733Z" fill="#C9DA0F"/>
<path fill-rule="evenodd" clip-rule="evenodd" d="M197 219.316L157.525 309.729L138.567 234.032L197 219.316Z" fill="#FFD912"/>
<path fill-rule="evenodd" clip-rule="evenodd" d="M138.569 234.033L157.516 309.733L157.468 309.854L80.7773 248.586L138.569 234.033Z" fill="#9CD013"/>
<path fill-rule="evenodd" clip-rule="evenodd" d="M80.7774 248.587L157.479 309.851L99.6169 324.303L80.6722 248.613L80.7774 248.587Z" fill="#71B73A"/>
<path fill-rule="evenodd" clip-rule="evenodd" d="M119.506 157.915L197.008 219.38L177.91 143.131L119.483 157.823L119.506 157.915Z" fill="#FBAF03"/>
<path fill-rule="evenodd" clip-rule="evenodd" d="M197.006 219.381L119.504 157.916L138.54 233.964L197.006 219.381Z" fill="#F9C903"/>
<path fill-rule="evenodd" clip-rule="evenodd" d="M138.538 233.952L119.502 157.904L119.405 157.831L80.7022 248.375L138.538 233.952Z" fill="#F38202"/>
<path fill-rule="evenodd" clip-rule="evenodd" d="M80.7163 248.383L119.409 157.842L61.5809 172.382L80.6111 248.41L80.7163 248.383Z" fill="#F45600"/>
<path fill-rule="evenodd" clip-rule="evenodd" d="M119.507 157.873L158.889 67.0917L177.992 143.362L119.531 157.965L119.507 157.873Z" fill="#CE640C"/>
<path fill-rule="evenodd" clip-rule="evenodd" d="M158.889 67.0902L119.507 157.871L100.456 81.8059L158.889 67.0902Z" fill="#DE3D0F"/>
<path fill-rule="evenodd" clip-rule="evenodd" d="M100.463 81.8051L119.504 157.873L119.454 157.984L42.6616 96.3611L100.463 81.8051Z" fill="#D70000"/>
<path fill-rule="evenodd" clip-rule="evenodd" d="M42.6614 96.3612L119.453 157.984L61.6021 172.433L42.5562 96.3878L42.6614 96.3612Z" fill="#B40019"/>
<path fill-rule="evenodd" clip-rule="evenodd" d="M81.4442 5.81601L158.943 67.2709L139.848 -8.96862L81.4209 5.72388L81.4442 5.81601Z" fill="#ED2349"/>
<path fill-rule="evenodd" clip-rule="evenodd" d="M158.94 67.2636L81.441 5.80866L100.484 81.8435L158.94 67.2636Z" fill="#FD274B"/>
<path fill-rule="evenodd" clip-rule="evenodd" d="M100.476 81.8538L81.4428 5.81634L81.3458 5.74282L42.64 96.2767L100.476 81.8538Z" fill="#BE0048"/>
<path fill-rule="evenodd" clip-rule="evenodd" d="M273.701 280.832L351.192 342.3L332.105 266.048L273.677 280.74L273.701 280.832Z" fill="#79C200"/>
<path fill-rule="evenodd" clip-rule="evenodd" d="M351.2 342.298L273.709 280.83L292.733 356.88L351.2 342.298Z" fill="#59B401"/>
<path fill-rule="evenodd" clip-rule="evenodd" d="M292.734 356.88L273.699 280.833L273.602 280.759L234.909 371.301L292.734 356.88Z" fill="#008668"/>
<path fill-rule="evenodd" clip-rule="evenodd" d="M234.91 371.3L273.603 280.759L215.775 295.3L234.805 371.327L234.91 371.3Z" fill="#008D91"/>
<path fill-rule="evenodd" clip-rule="evenodd" d="M273.63 280.599L313.102 190.176L332.114 266.088L273.653 280.691L273.63 280.599Z" fill="#C9DA0F"/>
<path fill-rule="evenodd" clip-rule="evenodd" d="M313.102 190.177L273.63 280.6L254.68 204.89L313.102 190.177Z" fill="#FFD912"/>
<path fill-rule="evenodd" clip-rule="evenodd" d="M254.676 204.89L273.623 280.589L273.573 280.7L196.874 219.446L254.676 204.89Z" fill="#9CD013"/>
<path fill-rule="evenodd" clip-rule="evenodd" d="M196.879 219.444L273.578 280.699L215.729 295.158L196.774 219.471L196.879 219.444Z" fill="#71B73A"/>
<path fill-rule="evenodd" clip-rule="evenodd" d="M235.615 128.775L313.116 190.24L294.027 113.977L235.591 128.682L235.615 128.775Z" fill="#FBAF03"/>
<path fill-rule="evenodd" clip-rule="evenodd" d="M313.108 190.24L235.606 128.775L254.641 204.822L313.108 190.24Z" fill="#F9C903"/>
<path fill-rule="evenodd" clip-rule="evenodd" d="M254.648 204.823L235.613 128.775L235.516 128.702L196.823 219.243L254.648 204.823Z" fill="#F38202"/>
<path fill-rule="evenodd" clip-rule="evenodd" d="M196.813 219.245L235.517 128.701L177.678 143.245L196.708 219.272L196.813 219.245Z" fill="#F45600"/>
<path fill-rule="evenodd" clip-rule="evenodd" d="M235.603 128.732L274.996 37.9483L294.078 114.224L235.627 128.824L235.603 128.732Z" fill="#CE640C"/>
<path fill-rule="evenodd" clip-rule="evenodd" d="M274.997 37.9496L235.604 128.733L216.564 52.6653L274.997 37.9496Z" fill="#DE3D0F"/>
<path fill-rule="evenodd" clip-rule="evenodd" d="M216.565 52.6633L235.606 128.731L235.556 128.842L158.774 67.2167L216.565 52.6633Z" fill="#D70000"/>
<path fill-rule="evenodd" clip-rule="evenodd" d="M158.773 67.2168L235.566 128.84L177.704 143.291L158.668 67.2434L158.773 67.2168Z" fill="#B40019"/>
<path fill-rule="evenodd" clip-rule="evenodd" d="M197.548 -23.3233L275.047 38.1317L255.952 -38.1079L197.524 -23.4154L197.548 -23.3233Z" fill="#ED2349"/>
<path fill-rule="evenodd" clip-rule="evenodd" d="M275.043 38.1217L197.544 -23.3332L216.589 52.7118L275.043 38.1217Z" fill="#FD274B"/>
<path fill-rule="evenodd" clip-rule="evenodd" d="M216.586 52.7032L197.554 -23.3343L197.457 -23.4078L158.751 67.1261L216.586 52.7032Z" fill="#BE0048"/>
<path fill-rule="evenodd" clip-rule="evenodd" d="M390.103 251.66L467.605 313.125L448.507 236.875L390.08 251.568L390.103 251.66Z" fill="#79C200"/>
<path fill-rule="evenodd" clip-rule="evenodd" d="M467.608 313.124L390.107 251.659L409.152 327.704L467.608 313.124Z" fill="#59B401"/>
<path fill-rule="evenodd" clip-rule="evenodd" d="M409.142 327.707L390.106 251.659L390.009 251.585L351.306 342.129L409.142 327.707Z" fill="#008668"/>
<path fill-rule="evenodd" clip-rule="evenodd" d="M351.302 342.13L390.005 251.586L332.166 266.13L351.197 342.157L351.302 342.13Z" fill="#008D91"/>
<path fill-rule="evenodd" clip-rule="evenodd" d="M390.032 251.428L429.507 161.015L448.506 236.92L390.056 251.52L390.032 251.428Z" fill="#C9DA0F"/>
<path fill-rule="evenodd" clip-rule="evenodd" d="M429.507 161.014L390.032 251.426L371.085 175.727L429.507 161.014Z" fill="#FFD912"/>
<path fill-rule="evenodd" clip-rule="evenodd" d="M371.087 175.728L390.034 251.427L389.987 251.548L313.285 190.284L371.087 175.728Z" fill="#9CD013"/>
<path fill-rule="evenodd" clip-rule="evenodd" d="M313.284 190.284L389.986 251.548L332.124 266L313.179 190.31L313.284 190.284Z" fill="#71B73A"/>
<path fill-rule="evenodd" clip-rule="evenodd" d="M352.022 99.5986L429.524 161.064L410.426 84.814L351.999 99.5065L352.022 99.5986Z" fill="#FBAF03"/>
<path fill-rule="evenodd" clip-rule="evenodd" d="M429.514 161.079L352.012 99.6138L371.058 175.659L429.514 161.079Z" fill="#F9C903"/>
<path fill-rule="evenodd" clip-rule="evenodd" d="M371.056 175.647L352.02 99.5989L351.923 99.5254L313.22 190.07L371.056 175.647Z" fill="#F38202"/>
<path fill-rule="evenodd" clip-rule="evenodd" d="M313.22 190.069L351.913 99.5278L294.085 114.069L313.115 190.096L313.22 190.069Z" fill="#F45600"/>
<path fill-rule="evenodd" clip-rule="evenodd" d="M352.012 99.5592L391.393 8.77807L410.486 85.051L352.035 99.6514L352.012 99.5592Z" fill="#CE640C"/>
<path fill-rule="evenodd" clip-rule="evenodd" d="M391.404 8.7737L352.022 99.5548L332.982 23.4867L391.404 8.7737Z" fill="#DE3D0F"/>
<path fill-rule="evenodd" clip-rule="evenodd" d="M332.97 23.5028L352.008 99.5608L351.961 99.6818L275.168 38.0588L332.97 23.5028Z" fill="#D70000"/>
<path fill-rule="evenodd" clip-rule="evenodd" d="M275.168 38.059L351.96 99.682L294.109 114.131L275.063 38.0856L275.168 38.059Z" fill="#B40019"/>
<path fill-rule="evenodd" clip-rule="evenodd" d="M313.96 -52.4976L391.449 8.96001L372.364 -67.2822L313.937 -52.5897L313.96 -52.4976Z" fill="#ED2349"/>
<path fill-rule="evenodd" clip-rule="evenodd" d="M391.447 8.96084L313.958 -52.4967L332.991 23.5407L391.447 8.96084Z" fill="#FD274B"/>
<path fill-rule="evenodd" clip-rule="evenodd" d="M332.981 23.5429L313.948 -52.4946L313.851 -52.5681L275.156 37.9631L332.981 23.5429Z" fill="#BE0048"/>
<path fill-rule="evenodd" clip-rule="evenodd" d="M525.584 298.644L506.549 222.596L506.452 222.523L467.749 313.067L525.584 298.644Z" fill="#008668"/>
<path fill-rule="evenodd" clip-rule="evenodd" d="M467.749 313.067L506.452 222.523L448.614 237.066L467.644 313.094L467.749 313.067Z" fill="#008D91"/>
<path fill-rule="evenodd" clip-rule="evenodd" d="M487.528 146.666L506.468 222.378L506.428 222.486L429.716 161.224L487.528 146.666Z" fill="#9CD013"/>
<path fill-rule="evenodd" clip-rule="evenodd" d="M429.727 161.222L506.429 222.486L448.577 236.935L429.622 161.248L429.727 161.222Z" fill="#71B73A"/>
<path fill-rule="evenodd" clip-rule="evenodd" d="M487.497 146.585L468.461 70.537L468.364 70.4635L429.661 161.008L487.497 146.585Z" fill="#F38202"/>
<path fill-rule="evenodd" clip-rule="evenodd" d="M429.665 161.018L468.369 70.4741L410.53 85.0177L429.56 161.045L429.665 161.018Z" fill="#F45600"/>
<path fill-rule="evenodd" clip-rule="evenodd" d="M468.454 70.4968L507.836 -20.2843L526.939 55.986L468.477 70.589L468.454 70.4968Z" fill="#CE640C"/>
<path fill-rule="evenodd" clip-rule="evenodd" d="M507.849 -20.2776L468.467 70.5036L449.416 -5.56195L507.849 -20.2776Z" fill="#DE3D0F"/>
<path fill-rule="evenodd" clip-rule="evenodd" d="M449.418 -5.56102L468.458 70.5072L468.408 70.6179L391.616 8.995L449.418 -5.56102Z" fill="#D70000"/>
<path fill-rule="evenodd" clip-rule="evenodd" d="M391.615 8.9951L468.407 70.618L410.545 85.0694L391.51 9.02169L391.615 8.9951Z" fill="#B40019"/>
<path fill-rule="evenodd" clip-rule="evenodd" d="M449.428 -5.52075L430.395 -81.5582L430.298 -81.6317L391.603 8.89954L449.428 -5.52075Z" fill="#BE0048"/>
</g>
</g>
<defs>
<clipPath id="clip0">
<rect width="462" height="308" fill="white"/>
</clipPath>
</defs>
</svg>
