<svg width="20" height="20" viewBox="0 0 20 20" fill="none" xmlns="http://www.w3.org/2000/svg">
<path fill-rule="evenodd" clip-rule="evenodd" d="M1.6665 4.99992C1.6665 4.53968 2.0396 4.16658 2.49984 4.16658H17.4998C17.9601 4.16658 18.3332 4.53968 18.3332 4.99992C18.3332 5.46016 17.9601 5.83325 17.4998 5.83325H2.49984C2.0396 5.83325 1.6665 5.46016 1.6665 4.99992Z" fill="#E12B1B"/>
<path fill-rule="evenodd" clip-rule="evenodd" d="M8.33317 2.49992C8.11216 2.49992 7.9002 2.58772 7.74392 2.744C7.58763 2.90028 7.49984 3.11224 7.49984 3.33325V4.16658H12.4998V3.33325C12.4998 3.11224 12.412 2.90028 12.2558 2.744C12.0995 2.58772 11.8875 2.49992 11.6665 2.49992H8.33317ZM14.1665 4.16658V3.33325C14.1665 2.67021 13.9031 2.03433 13.4343 1.56548C12.9654 1.09664 12.3295 0.833252 11.6665 0.833252H8.33317C7.67013 0.833252 7.03425 1.09664 6.5654 1.56548C6.09656 2.03433 5.83317 2.67021 5.83317 3.33325V4.16658H4.1665C3.70627 4.16658 3.33317 4.53968 3.33317 4.99992V16.6666C3.33317 17.3296 3.59656 17.9655 4.0654 18.4344C4.53424 18.9032 5.17013 19.1666 5.83317 19.1666H14.1665C14.8295 19.1666 15.4654 18.9032 15.9343 18.4344C16.4031 17.9655 16.6665 17.3296 16.6665 16.6666V4.99992C16.6665 4.53968 16.2934 4.16658 15.8332 4.16658H14.1665ZM4.99984 5.83325V16.6666C4.99984 16.8876 5.08763 17.0996 5.24392 17.2558C5.4002 17.4121 5.61216 17.4999 5.83317 17.4999H14.1665C14.3875 17.4999 14.5995 17.4121 14.7558 17.2558C14.912 17.0996 14.9998 16.8876 14.9998 16.6666V5.83325H4.99984Z" fill="#E12B1B"/>
<path fill-rule="evenodd" clip-rule="evenodd" d="M8.33317 8.33325C8.79341 8.33325 9.1665 8.70635 9.1665 9.16658V14.1666C9.1665 14.6268 8.79341 14.9999 8.33317 14.9999C7.87293 14.9999 7.49984 14.6268 7.49984 14.1666V9.16658C7.49984 8.70635 7.87293 8.33325 8.33317 8.33325Z" fill="#E12B1B"/>
<path fill-rule="evenodd" clip-rule="evenodd" d="M11.6665 8.33325C12.1267 8.33325 12.4998 8.70635 12.4998 9.16658V14.1666C12.4998 14.6268 12.1267 14.9999 11.6665 14.9999C11.2063 14.9999 10.8332 14.6268 10.8332 14.1666V9.16658C10.8332 8.70635 11.2063 8.33325 11.6665 8.33325Z" fill="#E12B1B"/>
</svg>
