<svg width="18" height="18" viewBox="0 0 18 18" fill="none" xmlns="http://www.w3.org/2000/svg">
<path fill-rule="evenodd" clip-rule="evenodd" d="M4.9672 0H13.0325C15.7716 0 18.0001 2.22828 18 4.96728V13.0323C18 15.7713 15.7716 17.9996 13.0325 17.9996H4.9672C2.22827 17.9996 0 15.7713 0 13.0323V4.96728C0 2.22828 2.22827 0 4.9672 0ZM13.0326 16.4029C14.891 16.4029 16.403 14.8907 16.403 13.0323H16.4029V4.96728C16.4029 3.10888 14.8909 1.5967 13.0325 1.5967H4.9672C3.10889 1.5967 1.59707 3.10888 1.59707 4.96728V13.0323C1.59707 14.8907 3.10889 16.4029 4.9672 16.4029H13.0326ZM4.36183 9.00004C4.36183 6.4425 6.44246 4.36172 8.99996 4.36172C11.5575 4.36172 13.6381 6.4425 13.6381 9.00004C13.6381 11.5576 11.5575 13.6379 8.99996 13.6379C6.44246 13.6379 4.36183 11.5576 4.36183 9.00004ZM5.9589 9.00004C5.9589 10.6765 7.32316 12.0406 8.99996 12.0406C10.6768 12.0406 12.041 10.6765 12.041 9.00004C12.041 7.32308 10.6768 5.95906 8.99996 5.95906C7.32307 5.95906 5.9589 7.32308 5.9589 9.00004ZM13.0053 3.35044C13.2227 3.13202 13.525 3.00752 13.8327 3.00752C14.1414 3.00752 14.4438 3.13202 14.6609 3.35044C14.8792 3.56788 15.0038 3.86988 15.0038 4.17884C15.0038 4.4867 14.8792 4.78868 14.6609 5.0071C14.4427 5.22454 14.1414 5.35 13.8327 5.35C13.525 5.35 13.2226 5.22454 13.0053 5.0071C12.7871 4.78868 12.6615 4.4867 12.6615 4.17884C12.6615 3.86988 12.787 3.56788 13.0053 3.35044Z" fill="white"/>
</svg>
