<svg width="86" height="42" viewBox="0 0 86 42" fill="none" xmlns="http://www.w3.org/2000/svg">
<mask id="mask0" mask-type="alpha" maskUnits="userSpaceOnUse" x="0" y="0" width="86" height="42">
<path fill-rule="evenodd" clip-rule="evenodd" d="M19.4995 38.5756L13.3365 17.9201L0.870117 14.4995L19.4995 38.5756ZM12.5038 7.51226L23.3521 41.9949L28.6759 36.7967L24.6135 20.6542L44.2788 31.6383L63.1141 20.6593L59.1134 36.8019L64.3585 42L73.8797 7.66465L44.0113 23.6637L12.5038 7.51226ZM43.5393 0L34.9779 13.9526L44.2225 17.03L53.1169 13.2688L43.5393 0ZM73.7683 17.7164L67.7849 38.3719L85.8701 14.2958L73.7683 17.7164Z" fill="#6BB42E"/>
</mask>
<g mask="url(#mask0)">
<path fill-rule="evenodd" clip-rule="evenodd" d="M7.08105 30.4358L14.3416 39.9677L14.3639 30.4346L7.08105 30.4243V30.4358Z" fill="#79C200"/>
<path fill-rule="evenodd" clip-rule="evenodd" d="M14.3415 39.9674L7.08089 30.4355L7.05859 39.943L14.3415 39.9674Z" fill="#59B401"/>
<path fill-rule="evenodd" clip-rule="evenodd" d="M7.05868 39.9433L7.08229 30.4358L7.07311 30.4243L-0.145508 39.919L7.05868 39.9433Z" fill="#008668"/>
<path fill-rule="evenodd" clip-rule="evenodd" d="M-0.147043 39.919L7.07288 30.4243L-0.136553 30.4141L-0.160156 39.919H-0.147043Z" fill="#008D91"/>
<path fill-rule="evenodd" clip-rule="evenodd" d="M7.08008 30.4065L14.3865 20.9502L14.3629 30.4398L7.08008 30.418V30.4065Z" fill="#C9DA0F"/>
<path fill-rule="evenodd" clip-rule="evenodd" d="M14.3865 20.9501L7.08008 30.4063L7.10368 20.9424L14.3865 20.9501Z" fill="#FFD912"/>
<path fill-rule="evenodd" clip-rule="evenodd" d="M7.10165 20.9425L7.07805 30.4065L7.06887 30.4193L-0.102539 20.9348L7.10165 20.9425Z" fill="#9CD013"/>
<path fill-rule="evenodd" clip-rule="evenodd" d="M-0.101956 20.9348L7.07077 30.418L-0.138672 30.3962L-0.115069 20.9348H-0.101956Z" fill="#71B73A"/>
<path fill-rule="evenodd" clip-rule="evenodd" d="M7.125 11.4258L14.3856 20.9577L14.4092 11.4246L7.125 11.4143V11.4258Z" fill="#FBAF03"/>
<path fill-rule="evenodd" clip-rule="evenodd" d="M14.3844 20.9579L7.12385 11.426L7.10156 20.9335L14.3844 20.9579Z" fill="#F9C903"/>
<path fill-rule="evenodd" clip-rule="evenodd" d="M7.10101 20.9321L7.12461 11.4246L7.11412 11.4131L-0.104492 20.9078L7.10101 20.9321Z" fill="#F38202"/>
<path fill-rule="evenodd" clip-rule="evenodd" d="M-0.103098 20.909L7.11552 11.4143L-0.0926078 11.4041L-0.116211 20.909H-0.103098Z" fill="#F45600"/>
<path fill-rule="evenodd" clip-rule="evenodd" d="M7.12598 11.4196L14.4324 1.91724L14.4088 11.4529L7.12598 11.4311V11.4196Z" fill="#CE640C"/>
<path fill-rule="evenodd" clip-rule="evenodd" d="M14.4324 1.91833L7.12598 11.4207L7.14958 1.91064L14.4324 1.91833Z" fill="#DE3D0F"/>
<path fill-rule="evenodd" clip-rule="evenodd" d="M7.14788 1.91076L7.12428 11.4195L7.1151 11.4323L-0.0576172 1.90308L7.14788 1.91076Z" fill="#D70000"/>
<path fill-rule="evenodd" clip-rule="evenodd" d="M-0.0563922 1.90308L7.11633 11.4323L-0.0917969 11.4106L-0.0695051 1.90308H-0.0563922Z" fill="#B40019"/>
<path fill-rule="evenodd" clip-rule="evenodd" d="M7.17285 -7.5901L14.4334 1.94174L14.4557 -7.59138L7.17285 -7.60034V-7.5901Z" fill="#ED2349"/>
<path fill-rule="evenodd" clip-rule="evenodd" d="M14.4336 1.94071L7.17302 -7.58984L7.14941 1.91638L14.4336 1.94071Z" fill="#FD274B"/>
<path fill-rule="evenodd" clip-rule="evenodd" d="M7.14886 1.91594L7.17246 -7.589L7.16328 -7.60181L-0.0566406 1.89161L7.14886 1.91594Z" fill="#BE0048"/>
<path fill-rule="evenodd" clip-rule="evenodd" d="M14.3446 39.9215L7.03809 49.4098L7.06169 39.9138L14.3446 39.9215Z" fill="#01A2D0"/>
<path fill-rule="evenodd" clip-rule="evenodd" d="M7.06195 39.9139L7.03835 49.4099L7.02917 49.4214L-0.143555 39.9062L7.06195 39.9139Z" fill="#078AB6"/>
<path fill-rule="evenodd" clip-rule="evenodd" d="M-0.143948 39.9062L7.02877 49.4214L-0.180664 49.3997L-0.157061 39.9062H-0.143948Z" fill="#0B62A5"/>
<path fill-rule="evenodd" clip-rule="evenodd" d="M21.5889 30.4822L28.8494 40.0141L28.873 30.4809L21.5889 30.4707V30.4822Z" fill="#79C200"/>
<path fill-rule="evenodd" clip-rule="evenodd" d="M28.8486 40.0138L21.5881 30.4819L21.5645 39.9894L28.8486 40.0138Z" fill="#59B401"/>
<path fill-rule="evenodd" clip-rule="evenodd" d="M21.5649 39.9897L21.5885 30.4822L21.5793 30.4707L14.3594 39.9654L21.5649 39.9897Z" fill="#008668"/>
<path fill-rule="evenodd" clip-rule="evenodd" d="M14.3608 39.9654L21.5807 30.4707L14.3713 30.4604L14.3477 39.9654H14.3608Z" fill="#008D91"/>
<path fill-rule="evenodd" clip-rule="evenodd" d="M21.5859 30.4526L28.8924 20.9963L28.8701 30.4859L21.5859 30.4641V30.4526Z" fill="#C9DA0F"/>
<path fill-rule="evenodd" clip-rule="evenodd" d="M28.8944 20.9962L21.5879 30.4525L21.6102 20.9885L28.8944 20.9962Z" fill="#FFD912"/>
<path fill-rule="evenodd" clip-rule="evenodd" d="M21.6104 20.9884L21.5868 30.4524L21.5777 30.4652L14.4062 20.9807L21.6104 20.9884Z" fill="#9CD013"/>
<path fill-rule="evenodd" clip-rule="evenodd" d="M14.4059 20.9807L21.5786 30.4652L14.3691 30.4434L14.3927 20.9807H14.4059Z" fill="#71B73A"/>
<path fill-rule="evenodd" clip-rule="evenodd" d="M21.6328 11.4722L28.8934 21.0041L28.9157 11.4709L21.6328 11.4607V11.4722Z" fill="#FBAF03"/>
<path fill-rule="evenodd" clip-rule="evenodd" d="M28.8936 21.004L21.633 11.4722L21.6094 20.9797L28.8936 21.004Z" fill="#F9C903"/>
<path fill-rule="evenodd" clip-rule="evenodd" d="M21.6088 20.9783L21.6324 11.4708L21.6232 11.4592L14.4033 20.9539L21.6088 20.9783Z" fill="#F38202"/>
<path fill-rule="evenodd" clip-rule="evenodd" d="M14.4047 20.9554L21.6233 11.4607L14.4152 11.4504L14.3916 20.9554H14.4047Z" fill="#F45600"/>
<path fill-rule="evenodd" clip-rule="evenodd" d="M21.6338 11.467L28.9403 1.9646L28.918 11.5003L21.6338 11.4785V11.467Z" fill="#CE640C"/>
<path fill-rule="evenodd" clip-rule="evenodd" d="M28.9403 1.96447L21.6338 11.4669L21.6561 1.95679L28.9403 1.96447Z" fill="#DE3D0F"/>
<path fill-rule="evenodd" clip-rule="evenodd" d="M21.6576 1.9569L21.634 11.467L21.6249 11.4785L14.4521 1.94922L21.6576 1.9569Z" fill="#D70000"/>
<path fill-rule="evenodd" clip-rule="evenodd" d="M14.4524 1.94922L21.6251 11.4785L14.417 11.4567L14.4393 1.94922H14.4524Z" fill="#B40019"/>
<path fill-rule="evenodd" clip-rule="evenodd" d="M21.6807 -7.54316L28.9412 1.98739L28.9635 -7.54444L21.6807 -7.55469V-7.54316Z" fill="#ED2349"/>
<path fill-rule="evenodd" clip-rule="evenodd" d="M28.9411 1.98636L21.6805 -7.54419L21.6582 1.96203L28.9411 1.98636Z" fill="#FD274B"/>
<path fill-rule="evenodd" clip-rule="evenodd" d="M21.6576 1.96306L21.6813 -7.54316L21.6721 -7.55469L14.4521 1.93873L21.6576 1.96306Z" fill="#BE0048"/>
<path fill-rule="evenodd" clip-rule="evenodd" d="M28.8524 39.9674L21.5459 49.4557L21.5695 39.9597L28.8524 39.9674Z" fill="#01A2D0"/>
<path fill-rule="evenodd" clip-rule="evenodd" d="M21.5698 39.9601L21.5462 49.4561L21.537 49.4676L14.3643 39.9524L21.5698 39.9601Z" fill="#078AB6"/>
<path fill-rule="evenodd" clip-rule="evenodd" d="M14.3635 39.9524L21.5363 49.4676L14.3281 49.4458L14.3504 39.9524H14.3635Z" fill="#0B62A5"/>
<path fill-rule="evenodd" clip-rule="evenodd" d="M36.0586 30.5101L43.3179 40.0419L43.3415 30.5088L36.0586 30.4985V30.5101Z" fill="#79C200"/>
<path fill-rule="evenodd" clip-rule="evenodd" d="M43.3193 40.0418L36.0601 30.51L36.0352 40.0175L43.3193 40.0418Z" fill="#59B401"/>
<path fill-rule="evenodd" clip-rule="evenodd" d="M36.0362 40.0176L36.0598 30.5101L36.0506 30.4985L28.832 39.9932L36.0362 40.0176Z" fill="#008668"/>
<path fill-rule="evenodd" clip-rule="evenodd" d="M28.8315 39.9932L36.0501 30.4985L28.842 30.4883L28.8184 39.9932H28.8315Z" fill="#008D91"/>
<path fill-rule="evenodd" clip-rule="evenodd" d="M36.0576 30.4805L43.3641 21.0229L43.3418 30.5138L36.0576 30.492V30.4805Z" fill="#C9DA0F"/>
<path fill-rule="evenodd" clip-rule="evenodd" d="M43.3641 21.0231L36.0576 30.4806L36.0812 21.0154L43.3641 21.0231Z" fill="#FFD912"/>
<path fill-rule="evenodd" clip-rule="evenodd" d="M36.0815 21.0153L36.0579 30.4792L36.0487 30.4907L28.876 21.0076L36.0815 21.0153Z" fill="#9CD013"/>
<path fill-rule="evenodd" clip-rule="evenodd" d="M28.8752 21.0076L36.048 30.4907L28.8398 30.4702L28.8621 21.0076H28.8752Z" fill="#71B73A"/>
<path fill-rule="evenodd" clip-rule="evenodd" d="M36.1035 11.4991L43.3641 21.0309L43.3877 11.4965L36.1035 11.4875V11.4991Z" fill="#FBAF03"/>
<path fill-rule="evenodd" clip-rule="evenodd" d="M43.3633 21.0306L36.1027 11.4988L36.0791 21.0063L43.3633 21.0306Z" fill="#F9C903"/>
<path fill-rule="evenodd" clip-rule="evenodd" d="M36.0802 21.0066L36.1038 11.4991L36.0946 11.4875L28.876 20.9822L36.0802 21.0066Z" fill="#F38202"/>
<path fill-rule="evenodd" clip-rule="evenodd" d="M28.8754 20.9822L36.0953 11.4875L28.8859 11.4773L28.8623 20.9822H28.8754Z" fill="#F45600"/>
<path fill-rule="evenodd" clip-rule="evenodd" d="M36.1035 11.4938L43.4113 1.99146L43.3864 11.5271L36.1035 11.5054V11.4938Z" fill="#CE640C"/>
<path fill-rule="evenodd" clip-rule="evenodd" d="M43.4113 1.99133L36.1035 11.4937L36.1271 1.98364L43.4113 1.99133Z" fill="#DE3D0F"/>
<path fill-rule="evenodd" clip-rule="evenodd" d="M36.128 1.98351L36.1044 11.4936L36.0952 11.5051L28.9238 1.97583L36.128 1.98351Z" fill="#D70000"/>
<path fill-rule="evenodd" clip-rule="evenodd" d="M28.9234 1.97583L36.0962 11.5051L28.8867 11.4833L28.9103 1.97583H28.9234Z" fill="#B40019"/>
<path fill-rule="evenodd" clip-rule="evenodd" d="M36.1514 -7.51631L43.4119 2.01425L43.4342 -7.51759L36.1514 -7.52783V-7.51631Z" fill="#ED2349"/>
<path fill-rule="evenodd" clip-rule="evenodd" d="M43.4108 2.01297L36.1502 -7.51758L36.1279 1.98992L43.4108 2.01297Z" fill="#FD274B"/>
<path fill-rule="evenodd" clip-rule="evenodd" d="M36.1293 1.98894L36.1529 -7.51728L36.1438 -7.52881L28.9238 1.96461L36.1293 1.98894Z" fill="#BE0048"/>
<path fill-rule="evenodd" clip-rule="evenodd" d="M43.3231 39.9947L36.0166 49.483L36.0389 39.9871L43.3231 39.9947Z" fill="#01A2D0"/>
<path fill-rule="evenodd" clip-rule="evenodd" d="M36.0385 39.9869L36.0149 49.4829L36.0057 49.4944L28.833 39.9792L36.0385 39.9869Z" fill="#078AB6"/>
<path fill-rule="evenodd" clip-rule="evenodd" d="M28.8333 39.9792L36.006 49.4944L28.7979 49.4727L28.8201 39.9792H28.8333Z" fill="#0B62A5"/>
<path fill-rule="evenodd" clip-rule="evenodd" d="M50.5664 30.5423L57.827 40.0741L57.8493 30.541L50.5664 30.5308V30.5423Z" fill="#79C200"/>
<path fill-rule="evenodd" clip-rule="evenodd" d="M57.8258 40.0738L50.5653 30.542L50.543 40.0495L57.8258 40.0738Z" fill="#59B401"/>
<path fill-rule="evenodd" clip-rule="evenodd" d="M50.5424 40.0498L50.566 30.5423L50.5568 30.5308L43.3369 40.0255L50.5424 40.0498Z" fill="#008668"/>
<path fill-rule="evenodd" clip-rule="evenodd" d="M43.3364 40.0254L50.5563 30.5308L43.3468 30.5205L43.3232 40.0254H43.3364Z" fill="#008D91"/>
<path fill-rule="evenodd" clip-rule="evenodd" d="M50.5654 30.5127L57.8719 21.0564L57.8483 30.546L50.5654 30.5242V30.5127Z" fill="#C9DA0F"/>
<path fill-rule="evenodd" clip-rule="evenodd" d="M57.8719 21.0563L50.5654 30.5125L50.589 21.0486L57.8719 21.0563Z" fill="#FFD912"/>
<path fill-rule="evenodd" clip-rule="evenodd" d="M50.5893 21.0487L50.5657 30.5127L50.5565 30.5255L43.3838 21.041L50.5893 21.0487Z" fill="#9CD013"/>
<path fill-rule="evenodd" clip-rule="evenodd" d="M43.3834 21.041L50.5561 30.5255L43.3467 30.5037L43.3703 21.041H43.3834Z" fill="#71B73A"/>
<path fill-rule="evenodd" clip-rule="evenodd" d="M50.6104 11.5308L57.8709 21.0626L57.8932 11.5295L50.6104 11.5193V11.5308Z" fill="#FBAF03"/>
<path fill-rule="evenodd" clip-rule="evenodd" d="M57.8698 21.0643L50.6092 11.5325L50.5869 21.04L57.8698 21.0643Z" fill="#F9C903"/>
<path fill-rule="evenodd" clip-rule="evenodd" d="M50.5873 21.0383L50.6109 11.5308L50.6018 11.5193L43.3818 21.014L50.5873 21.0383Z" fill="#F38202"/>
<path fill-rule="evenodd" clip-rule="evenodd" d="M43.3813 21.014L50.5999 11.5193L43.3918 11.509L43.3682 21.014H43.3813Z" fill="#F45600"/>
<path fill-rule="evenodd" clip-rule="evenodd" d="M50.6104 11.5258L57.9168 2.02344L57.8932 11.5591L50.6104 11.5373V11.5258Z" fill="#CE640C"/>
<path fill-rule="evenodd" clip-rule="evenodd" d="M57.9178 2.02331L50.6113 11.5257L50.6349 2.01562L57.9178 2.02331Z" fill="#DE3D0F"/>
<path fill-rule="evenodd" clip-rule="evenodd" d="M50.6342 2.01721L50.6106 11.526L50.6014 11.5388L43.4287 2.00952L50.6342 2.01721Z" fill="#D70000"/>
<path fill-rule="evenodd" clip-rule="evenodd" d="M43.428 2.00952L50.6007 11.5388L43.3926 11.517L43.4149 2.00952H43.428Z" fill="#B40019"/>
<path fill-rule="evenodd" clip-rule="evenodd" d="M50.6592 -7.48432L57.9184 2.04623L57.942 -7.4856L50.6592 -7.49585V-7.48432Z" fill="#ED2349"/>
<path fill-rule="evenodd" clip-rule="evenodd" d="M57.9186 2.04618L50.6593 -7.48438L50.6357 2.02184L57.9186 2.04618Z" fill="#FD274B"/>
<path fill-rule="evenodd" clip-rule="evenodd" d="M50.6339 2.0219L50.6575 -7.48432L50.6483 -7.49585L43.4297 1.99757L50.6339 2.0219Z" fill="#BE0048"/>
<path fill-rule="evenodd" clip-rule="evenodd" d="M57.829 40.0267L50.5225 49.515L50.5461 40.019L57.829 40.0267Z" fill="#01A2D0"/>
<path fill-rule="evenodd" clip-rule="evenodd" d="M50.5463 40.0189L50.5227 49.5148L50.5135 49.5264L43.3408 40.0125L50.5463 40.0189Z" fill="#078AB6"/>
<path fill-rule="evenodd" clip-rule="evenodd" d="M43.3411 40.0125L50.5138 49.5276L43.3057 49.5059L43.328 40.0125H43.3411Z" fill="#0B62A5"/>
<path fill-rule="evenodd" clip-rule="evenodd" d="M65.0742 30.5884L72.3348 40.1203L72.3584 30.5871L65.0742 30.5769V30.5884Z" fill="#79C200"/>
<path fill-rule="evenodd" clip-rule="evenodd" d="M72.3336 40.12L65.0731 30.5881L65.0508 40.0956L72.3336 40.12Z" fill="#59B401"/>
<path fill-rule="evenodd" clip-rule="evenodd" d="M65.0502 40.0959L65.0738 30.5884L65.0647 30.5769L57.8447 40.0716L65.0502 40.0959Z" fill="#008668"/>
<path fill-rule="evenodd" clip-rule="evenodd" d="M57.8442 40.0716L65.0641 30.5769L57.8547 30.5667L57.8311 40.0716H57.8442Z" fill="#008D91"/>
<path fill-rule="evenodd" clip-rule="evenodd" d="M65.0732 30.5589L72.3797 21.1013L72.3574 30.5922L65.0732 30.5704V30.5589Z" fill="#C9DA0F"/>
<path fill-rule="evenodd" clip-rule="evenodd" d="M72.3797 21.1024L65.0732 30.56L65.0955 21.0947L72.3797 21.1024Z" fill="#FFD912"/>
<path fill-rule="evenodd" clip-rule="evenodd" d="M65.0965 21.0948L65.0716 30.5601L65.0637 30.5716L57.8896 21.0872L65.0965 21.0948Z" fill="#9CD013"/>
<path fill-rule="evenodd" clip-rule="evenodd" d="M57.8909 21.0872L65.0636 30.5716L57.8555 30.5498L57.8778 21.0872H57.8909Z" fill="#71B73A"/>
<path fill-rule="evenodd" clip-rule="evenodd" d="M65.1191 11.5784L72.3784 21.1103L72.402 11.5771L65.1191 11.5669V11.5784Z" fill="#FBAF03"/>
<path fill-rule="evenodd" clip-rule="evenodd" d="M72.3779 21.1102L65.1174 11.5784L65.0938 21.0859L72.3779 21.1102Z" fill="#F9C903"/>
<path fill-rule="evenodd" clip-rule="evenodd" d="M65.0951 21.0845L65.1188 11.577L65.1096 11.5654L57.8896 21.0601L65.0951 21.0845Z" fill="#F38202"/>
<path fill-rule="evenodd" clip-rule="evenodd" d="M57.8891 21.0616L65.109 11.5669L57.8996 11.5566L57.876 21.0616H57.8891Z" fill="#F45600"/>
<path fill-rule="evenodd" clip-rule="evenodd" d="M65.1191 11.5722L72.4256 2.06982L72.4033 11.6055L65.1191 11.5837V11.5722Z" fill="#CE640C"/>
<path fill-rule="evenodd" clip-rule="evenodd" d="M72.4266 2.07067L65.1201 11.5731L65.1424 2.06299L72.4266 2.07067Z" fill="#DE3D0F"/>
<path fill-rule="evenodd" clip-rule="evenodd" d="M65.142 2.0631L65.1184 11.5732L65.1092 11.5847L57.9365 2.05542L65.142 2.0631Z" fill="#D70000"/>
<path fill-rule="evenodd" clip-rule="evenodd" d="M57.9361 2.05542L65.1089 11.5847L57.8994 11.5629L57.923 2.05542H57.9361Z" fill="#B40019"/>
<path fill-rule="evenodd" clip-rule="evenodd" d="M65.166 -7.43843L72.4266 2.09213L72.4502 -7.43971L65.166 -7.44995V-7.43843Z" fill="#ED2349"/>
<path fill-rule="evenodd" clip-rule="evenodd" d="M72.4264 2.09232L65.1658 -7.43823L65.1436 2.06799L72.4264 2.09232Z" fill="#FD274B"/>
<path fill-rule="evenodd" clip-rule="evenodd" d="M65.1417 2.0678L65.1653 -7.43843L65.1561 -7.44995L57.9375 2.04346L65.1417 2.0678Z" fill="#BE0048"/>
<path fill-rule="evenodd" clip-rule="evenodd" d="M72.3371 40.0738L65.0293 49.5621L65.0529 40.0662L72.3371 40.0738Z" fill="#01A2D0"/>
<path fill-rule="evenodd" clip-rule="evenodd" d="M65.0548 40.0665L65.0299 49.5625L65.022 49.574L57.8506 40.0588L65.0548 40.0665Z" fill="#078AB6"/>
<path fill-rule="evenodd" clip-rule="evenodd" d="M57.8492 40.0588L65.0219 49.574L57.8125 49.5523L57.8361 40.0588H57.8492Z" fill="#0B62A5"/>
<path fill-rule="evenodd" clip-rule="evenodd" d="M79.5439 30.615L86.8045 40.1469L86.8281 30.6138L79.5439 30.6035V30.615Z" fill="#79C200"/>
<path fill-rule="evenodd" clip-rule="evenodd" d="M86.8053 40.1471L79.5448 30.6152L79.5225 40.1227L86.8053 40.1471Z" fill="#59B401"/>
<path fill-rule="evenodd" clip-rule="evenodd" d="M79.5196 40.1225L79.5432 30.615L79.534 30.6035L72.3154 40.0982L79.5196 40.1225Z" fill="#008668"/>
<path fill-rule="evenodd" clip-rule="evenodd" d="M72.3168 40.098L79.5367 30.6033L72.3273 30.593L72.3037 40.098H72.3168Z" fill="#008D91"/>
<path fill-rule="evenodd" clip-rule="evenodd" d="M79.542 30.5854L86.8485 21.1292L86.8262 30.6187L79.542 30.597V30.5854Z" fill="#C9DA0F"/>
<path fill-rule="evenodd" clip-rule="evenodd" d="M86.8504 21.1293L79.5439 30.5855L79.5662 21.1216L86.8504 21.1293Z" fill="#FFD912"/>
<path fill-rule="evenodd" clip-rule="evenodd" d="M79.5665 21.1215L79.5429 30.5867L79.5337 30.5982L72.3623 21.1138L79.5665 21.1215Z" fill="#9CD013"/>
<path fill-rule="evenodd" clip-rule="evenodd" d="M72.3606 21.1138L79.5333 30.5982L72.3252 30.5765L72.3475 21.1138H72.3606Z" fill="#71B73A"/>
<path fill-rule="evenodd" clip-rule="evenodd" d="M79.5889 11.6053L86.8495 21.1371L86.8731 11.604L79.5889 11.5938V11.6053Z" fill="#FBAF03"/>
<path fill-rule="evenodd" clip-rule="evenodd" d="M86.8483 21.1371L79.5877 11.6052L79.5654 21.1127L86.8483 21.1371Z" fill="#F9C903"/>
<path fill-rule="evenodd" clip-rule="evenodd" d="M79.5649 21.1128L79.5885 11.6053L79.5793 11.5938L72.3594 21.0884L79.5649 21.1128Z" fill="#F38202"/>
<path fill-rule="evenodd" clip-rule="evenodd" d="M72.3588 21.0884L79.5787 11.5937L72.3693 11.5835L72.3457 21.0884H72.3588Z" fill="#F45600"/>
<path fill-rule="evenodd" clip-rule="evenodd" d="M79.5889 11.6L86.8953 2.09766L86.8717 11.6333L79.5889 11.6116V11.6Z" fill="#CE640C"/>
<path fill-rule="evenodd" clip-rule="evenodd" d="M86.8963 2.09777L79.5898 11.6002L79.6134 2.09009L86.8963 2.09777Z" fill="#DE3D0F"/>
<path fill-rule="evenodd" clip-rule="evenodd" d="M79.6124 2.08996L79.5888 11.6L79.5796 11.6115L72.4082 2.08228L79.6124 2.08996Z" fill="#D70000"/>
<path fill-rule="evenodd" clip-rule="evenodd" d="M72.4088 2.08228L79.5802 11.6115L72.3721 11.5898L72.3957 2.08228H72.4088Z" fill="#B40019"/>
<path fill-rule="evenodd" clip-rule="evenodd" d="M79.6367 -7.41163L86.8973 2.11892L86.9196 -7.41291L79.6367 -7.42188V-7.41163Z" fill="#ED2349"/>
<path fill-rule="evenodd" clip-rule="evenodd" d="M86.8961 2.11893L79.6356 -7.41162L79.6133 2.0946L86.8961 2.11893Z" fill="#FD274B"/>
<path fill-rule="evenodd" clip-rule="evenodd" d="M79.6137 2.0949L79.6373 -7.41133L79.6281 -7.42285L72.4082 2.07056L79.6137 2.0949Z" fill="#BE0048"/>
<path fill-rule="evenodd" clip-rule="evenodd" d="M86.8084 40.1009L79.502 49.5892L79.5242 40.0933L86.8084 40.1009Z" fill="#01A2D0"/>
<path fill-rule="evenodd" clip-rule="evenodd" d="M79.5239 40.0934L79.5003 49.5894L79.4911 49.6009L72.3184 40.0857L79.5239 40.0934Z" fill="#078AB6"/>
<path fill-rule="evenodd" clip-rule="evenodd" d="M72.3189 40.0857L79.4917 49.6009L72.2822 49.5791L72.3058 40.0857H72.3189Z" fill="#0B62A5"/>
</g>
</svg>
