<svg width="386" height="350" viewBox="0 0 386 350" fill="none" xmlns="http://www.w3.org/2000/svg">
<g clip-path="url(#clip0)">
<mask id="mask0" mask-type="alpha" maskUnits="userSpaceOnUse" x="-206" y="-244" width="592" height="593">
<path d="M326 52.5538C326 182.686 220.431 288.243 90.1252 288.243C-40.1804 288.243 -145.75 182.686 -145.75 52.5538C-145.75 -77.578 -40.1804 -183.135 90.1252 -183.135C220.431 -183.135 326 -77.578 326 52.5538Z" stroke="url(#paint0_linear)" stroke-width="120"/>
</mask>
<g mask="url(#mask0)">
<path fill-rule="evenodd" clip-rule="evenodd" d="M10.3447 293.071L89.6519 355.943L70.1011 277.959L10.3208 292.977L10.3447 293.071Z" fill="#79C200"/>
<path fill-rule="evenodd" clip-rule="evenodd" d="M89.6391 355.947L10.3318 293.075L29.8296 370.85L89.6391 355.947Z" fill="#59B401"/>
<path fill-rule="evenodd" clip-rule="evenodd" d="M29.8278 370.855L10.3408 293.078L10.2416 293.002L-29.3361 385.595L29.8278 370.855Z" fill="#008668"/>
<path fill-rule="evenodd" clip-rule="evenodd" d="M-29.3523 385.599L10.2362 293.004L-48.9416 307.87L-29.4599 385.626L-29.3523 385.599Z" fill="#008D91"/>
<path fill-rule="evenodd" clip-rule="evenodd" d="M10.2805 292.841L50.6587 200.38L70.1086 278.011L10.3043 292.935L10.2805 292.841Z" fill="#C9DA0F"/>
<path fill-rule="evenodd" clip-rule="evenodd" d="M50.6585 200.379L10.2803 292.839L-9.11663 215.418L50.6585 200.379Z" fill="#FFD912"/>
<path fill-rule="evenodd" clip-rule="evenodd" d="M-9.14402 215.432L10.2528 292.853L10.204 292.977L-68.2734 230.308L-9.14402 215.432Z" fill="#9CD013"/>
<path fill-rule="evenodd" clip-rule="evenodd" d="M-68.2573 230.304L10.2283 292.959L-48.9733 307.731L-68.3649 230.331L-68.2573 230.304Z" fill="#71B73A"/>
<path fill-rule="evenodd" clip-rule="evenodd" d="M-28.6378 137.581L50.6695 200.453L31.1295 122.466L-28.6616 137.487L-28.6378 137.581Z" fill="#FBAF03"/>
<path fill-rule="evenodd" clip-rule="evenodd" d="M50.6736 200.453L-28.6337 137.581L-9.13596 215.356L50.6736 200.453Z" fill="#F9C903"/>
<path fill-rule="evenodd" clip-rule="evenodd" d="M-28.6309 137.534L11.6518 44.6962L31.1972 122.704L-28.6071 137.628L-28.6309 137.534Z" fill="#CE640C"/>
<path fill-rule="evenodd" clip-rule="evenodd" d="M11.6541 44.706L-28.6287 137.543L-48.121 59.7452L11.6541 44.706Z" fill="#DE3D0F"/>
<path fill-rule="evenodd" clip-rule="evenodd" d="M-67.5882 -17.9709L11.7191 44.9005L-7.83169 -33.0835L-67.6094 -18.0547L-67.5882 -17.9709Z" fill="#ED2349"/>
<path fill-rule="evenodd" clip-rule="evenodd" d="M11.7215 44.8921L-67.5832 -17.9689L-48.0988 59.798L11.7215 44.8921Z" fill="#FD274B"/>
<path fill-rule="evenodd" clip-rule="evenodd" d="M129.499 263.351L208.806 326.222L189.266 248.236L129.475 263.257L129.499 263.351Z" fill="#79C200"/>
<path fill-rule="evenodd" clip-rule="evenodd" d="M208.798 326.225L129.491 263.354L148.978 341.131L208.798 326.225Z" fill="#59B401"/>
<path fill-rule="evenodd" clip-rule="evenodd" d="M148.982 341.134L129.495 263.357L129.395 263.282L89.807 355.877L148.982 341.134Z" fill="#008668"/>
<path fill-rule="evenodd" clip-rule="evenodd" d="M89.8023 355.878L129.391 263.283L70.213 278.149L89.6947 355.905L89.8023 355.878Z" fill="#008D91"/>
<path fill-rule="evenodd" clip-rule="evenodd" d="M129.424 263.123L169.802 170.663L189.263 248.291L129.448 263.218L129.424 263.123Z" fill="#C9DA0F"/>
<path fill-rule="evenodd" clip-rule="evenodd" d="M169.813 170.659L129.435 263.119L110.027 185.701L169.813 170.659Z" fill="#FFD912"/>
<path fill-rule="evenodd" clip-rule="evenodd" d="M110.021 185.709L129.417 263.13L129.369 263.254L50.8911 200.585L110.021 185.709Z" fill="#9CD013"/>
<path fill-rule="evenodd" clip-rule="evenodd" d="M50.8906 200.585L129.379 263.251L70.1773 278.023L50.783 200.612L50.8906 200.585Z" fill="#71B73A"/>
<path fill-rule="evenodd" clip-rule="evenodd" d="M90.5221 107.859L169.829 170.731L150.279 92.7468L90.4983 107.765L90.5221 107.859Z" fill="#FBAF03"/>
<path fill-rule="evenodd" clip-rule="evenodd" d="M169.827 170.732L90.5201 107.86L110.007 185.638L169.827 170.732Z" fill="#F9C903"/>
<path fill-rule="evenodd" clip-rule="evenodd" d="M109.997 185.633L90.5095 107.855L90.4103 107.78L50.8219 200.375L109.997 185.633Z" fill="#F38202"/>
<path fill-rule="evenodd" clip-rule="evenodd" d="M50.8367 200.384L90.4144 107.791L31.2474 122.654L50.7291 200.411L50.8367 200.384Z" fill="#F45600"/>
<path fill-rule="evenodd" clip-rule="evenodd" d="M90.5312 107.823L130.814 14.9859L150.37 92.9909L90.555 107.918L90.5312 107.823Z" fill="#CE640C"/>
<path fill-rule="evenodd" clip-rule="evenodd" d="M130.814 14.9843L90.5312 107.822L71.0281 30.0263L130.814 14.9843Z" fill="#DE3D0F"/>
<path fill-rule="evenodd" clip-rule="evenodd" d="M71.0273 30.0323L90.5197 107.831L90.4682 107.944L11.8872 44.9111L71.0273 30.0323Z" fill="#D70000"/>
<path fill-rule="evenodd" clip-rule="evenodd" d="M11.8872 44.9112L90.4682 107.944L31.2774 122.713L11.7796 44.9384L11.8872 44.9112Z" fill="#B40019"/>
<path fill-rule="evenodd" clip-rule="evenodd" d="M51.5734 -47.6851L130.878 15.1759L111.33 -62.7976L51.5496 -47.7793L51.5734 -47.6851Z" fill="#ED2349"/>
<path fill-rule="evenodd" clip-rule="evenodd" d="M130.875 15.1685L51.5699 -47.6925L71.065 30.0716L130.875 15.1685Z" fill="#FD274B"/>
<path fill-rule="evenodd" clip-rule="evenodd" d="M71.0481 30.0892L51.5638 -47.6776L51.4646 -47.7528L11.8734 44.8319L71.0481 30.0892Z" fill="#BE0048"/>
<path fill-rule="evenodd" clip-rule="evenodd" d="M208.727 325.833L168.415 418.555L148.952 340.872L208.727 325.833Z" fill="#01A2D0"/>
<path fill-rule="evenodd" clip-rule="evenodd" d="M148.94 340.88L168.404 418.563L168.352 418.676L89.8003 355.759L148.94 340.88Z" fill="#078AB6"/>
<path fill-rule="evenodd" clip-rule="evenodd" d="M89.8003 355.759L168.352 418.676L109.161 433.445L89.6927 355.786L89.8003 355.759Z" fill="#0B62A5"/>
<path fill-rule="evenodd" clip-rule="evenodd" d="M248.309 233.561L327.605 296.435L308.065 218.448L248.285 233.467L248.309 233.561Z" fill="#79C200"/>
<path fill-rule="evenodd" clip-rule="evenodd" d="M327.613 296.433L248.317 233.558L267.793 311.338L327.613 296.433Z" fill="#59B401"/>
<path fill-rule="evenodd" clip-rule="evenodd" d="M267.785 311.346L248.298 233.569L248.199 233.493L208.621 326.086L267.785 311.346Z" fill="#008668"/>
<path fill-rule="evenodd" clip-rule="evenodd" d="M208.623 326.085L248.2 233.493L189.033 248.356L208.515 326.113L208.623 326.085Z" fill="#008D91"/>
<path fill-rule="evenodd" clip-rule="evenodd" d="M248.244 233.329L288.62 140.858L308.083 218.496L248.268 233.423L248.244 233.329Z" fill="#C9DA0F"/>
<path fill-rule="evenodd" clip-rule="evenodd" d="M288.62 140.859L248.244 233.33L228.845 155.899L288.62 140.859Z" fill="#FFD912"/>
<path fill-rule="evenodd" clip-rule="evenodd" d="M228.833 155.905L248.229 233.326L248.178 233.439L169.692 170.784L228.833 155.905Z" fill="#9CD013"/>
<path fill-rule="evenodd" clip-rule="evenodd" d="M169.697 170.783L248.183 233.438L188.995 248.218L169.59 170.81L169.697 170.783Z" fill="#71B73A"/>
<path fill-rule="evenodd" clip-rule="evenodd" d="M209.335 78.0588L288.643 140.93L269.1 62.9331L209.312 77.9646L209.335 78.0588Z" fill="#FBAF03"/>
<path fill-rule="evenodd" clip-rule="evenodd" d="M288.634 140.93L209.326 78.059L228.814 155.836L288.634 140.93Z" fill="#F9C903"/>
<path fill-rule="evenodd" clip-rule="evenodd" d="M228.812 155.844L209.325 78.0663L209.226 77.9911L169.648 170.584L228.812 155.844Z" fill="#F38202"/>
<path fill-rule="evenodd" clip-rule="evenodd" d="M169.638 170.586L209.227 77.9905L150.049 92.8566L169.531 170.613L169.638 170.586Z" fill="#F45600"/>
<path fill-rule="evenodd" clip-rule="evenodd" d="M209.332 78.0222L249.626 -14.818L269.161 63.1923L209.356 78.1164L209.332 78.0222Z" fill="#CE640C"/>
<path fill-rule="evenodd" clip-rule="evenodd" d="M249.626 -14.8165L209.333 78.0237L189.841 0.225471L249.626 -14.8165Z" fill="#DE3D0F"/>
<path fill-rule="evenodd" clip-rule="evenodd" d="M189.834 0.230353L209.326 78.0285L209.275 78.1418L130.705 15.1064L189.834 0.230353Z" fill="#D70000"/>
<path fill-rule="evenodd" clip-rule="evenodd" d="M130.704 15.1065L209.285 78.1391L150.084 92.9109L130.597 15.1337L130.704 15.1065Z" fill="#B40019"/>
<path fill-rule="evenodd" clip-rule="evenodd" d="M170.381 -77.4844L249.686 -14.6234L230.138 -92.5969L170.357 -77.5786L170.381 -77.4844Z" fill="#ED2349"/>
<path fill-rule="evenodd" clip-rule="evenodd" d="M249.682 -14.6335L170.377 -77.4945L189.875 0.280096L249.682 -14.6335Z" fill="#FD274B"/>
<path fill-rule="evenodd" clip-rule="evenodd" d="M189.864 0.278167L170.38 -77.4886L170.28 -77.5638L130.689 15.0209L189.864 0.278167Z" fill="#BE0048"/>
<path fill-rule="evenodd" clip-rule="evenodd" d="M327.528 296.033L287.216 388.756L267.742 311.075L327.528 296.033Z" fill="#01A2D0"/>
<path fill-rule="evenodd" clip-rule="evenodd" d="M267.747 311.079L287.21 388.762L287.159 388.876L208.607 325.958L267.747 311.079Z" fill="#078AB6"/>
<path fill-rule="evenodd" clip-rule="evenodd" d="M208.607 325.958L287.159 388.875L227.968 403.644L208.499 325.985L208.607 325.958Z" fill="#0B62A5"/>
<path fill-rule="evenodd" clip-rule="evenodd" d="M367.423 203.728L446.73 266.599L427.179 188.615L367.399 203.634L367.423 203.728Z" fill="#79C200"/>
<path fill-rule="evenodd" clip-rule="evenodd" d="M446.733 266.599L367.426 203.727L386.924 281.502L446.733 266.599Z" fill="#59B401"/>
<path fill-rule="evenodd" clip-rule="evenodd" d="M386.905 281.511L367.418 203.734L367.319 203.658L327.73 296.253L386.905 281.511Z" fill="#008668"/>
<path fill-rule="evenodd" clip-rule="evenodd" d="M327.725 296.255L367.314 203.659L308.136 218.526L327.618 296.282L327.725 296.255Z" fill="#008D91"/>
<path fill-rule="evenodd" clip-rule="evenodd" d="M367.358 203.497L407.736 111.036L427.186 188.667L367.382 203.591L367.358 203.497Z" fill="#C9DA0F"/>
<path fill-rule="evenodd" clip-rule="evenodd" d="M407.736 111.035L367.358 203.496L347.961 126.074L407.736 111.035Z" fill="#FFD912"/>
<path fill-rule="evenodd" clip-rule="evenodd" d="M347.955 126.083L367.352 203.504L367.304 203.628L288.815 140.961L347.955 126.083Z" fill="#9CD013"/>
<path fill-rule="evenodd" clip-rule="evenodd" d="M288.814 140.962L367.302 203.628L308.101 218.4L288.706 140.989L288.814 140.962Z" fill="#71B73A"/>
<path fill-rule="evenodd" clip-rule="evenodd" d="M328.454 48.2222L407.761 111.094L388.21 33.1096L328.43 48.1279L328.454 48.2222Z" fill="#FBAF03"/>
<path fill-rule="evenodd" clip-rule="evenodd" d="M407.751 111.109L328.444 48.2375L347.942 126.012L407.751 111.109Z" fill="#F9C903"/>
<path fill-rule="evenodd" clip-rule="evenodd" d="M347.931 126.006L328.444 48.2291L328.345 48.154L288.757 140.749L347.931 126.006Z" fill="#F38202"/>
<path fill-rule="evenodd" clip-rule="evenodd" d="M288.757 140.749L328.335 48.1563L269.168 63.0197L288.649 140.776L288.757 140.749Z" fill="#F45600"/>
<path fill-rule="evenodd" clip-rule="evenodd" d="M328.452 48.1887L368.735 -44.6488L388.28 33.3588L328.476 48.2829L328.452 48.1887Z" fill="#CE640C"/>
<path fill-rule="evenodd" clip-rule="evenodd" d="M368.745 -44.6531L328.463 48.1844L308.97 -29.6139L368.745 -44.6531Z" fill="#DE3D0F"/>
<path fill-rule="evenodd" clip-rule="evenodd" d="M308.951 -29.5907L328.44 48.197L328.392 48.3207L249.811 -14.7119L308.951 -29.5907Z" fill="#D70000"/>
<path fill-rule="evenodd" clip-rule="evenodd" d="M249.81 -14.7116L328.391 48.321L269.2 63.0901L249.703 -14.6844L249.81 -14.7116Z" fill="#B40019"/>
<path fill-rule="evenodd" clip-rule="evenodd" d="M386.861 281.246L406.324 358.929L406.273 359.043L327.724 296.135L386.861 281.246Z" fill="#078AB6"/>
<path fill-rule="evenodd" clip-rule="evenodd" d="M327.723 296.135L406.275 359.053L347.084 373.822L327.616 296.163L327.723 296.135Z" fill="#0B62A5"/>
<path fill-rule="evenodd" clip-rule="evenodd" d="M428.111 -59.3129L447.603 18.4853L447.551 18.5986L368.97 -44.4341L428.111 -59.3129Z" fill="#D70000"/>
<path fill-rule="evenodd" clip-rule="evenodd" d="M368.97 -44.4338L447.551 18.5988L388.349 33.3706L368.862 -44.4066L368.97 -44.4338Z" fill="#B40019"/>
</g>
</g>
<defs>
<linearGradient id="paint0_linear" x1="90.5151" y1="-254.822" x2="90.1257" y2="348.243" gradientUnits="userSpaceOnUse">
<stop stop-color="#21C0F2"/>
<stop offset="1" stop-color="#FFB900"/>
</linearGradient>
<clipPath id="clip0">
<rect width="386" height="350" fill="white"/>
</clipPath>
</defs>
</svg>
