<svg width="326" height="300" viewBox="0 0 326 300" fill="none" xmlns="http://www.w3.org/2000/svg">
<path d="M175.995 0C140.451 0 105.968 12.7321 78.7798 35.6764L83.9522 41.7772C109.549 20.0265 142.308 7.95756 175.995 7.95756C254.377 7.95756 318.037 71.7507 318.037 150C318.037 228.382 254.244 292.042 175.995 292.042C136.472 292.042 98.0106 275.066 71.2202 245.889H7.95756V212.467H48.8064V106.101H12.7321V81.565C31.9629 77.5862 45.4907 72.4138 59.6817 63.6605H92.4403V212.467H130.637V204.509H100.398V55.7029H57.4271L56.4987 56.366C42.0424 65.3846 28.382 70.4244 7.95756 74.4032L4.77454 75.0663V114.058H40.8488V204.509H0V253.846H67.7719C96.0212 283.156 135.279 300 175.995 300C258.753 300 325.995 232.759 325.995 150C325.995 67.2414 258.753 0 175.995 0Z" fill="#D9D9D9"/>
</svg>
