<svg width="335" height="300" viewBox="0 0 335 300" fill="none" xmlns="http://www.w3.org/2000/svg">
<path d="M184.335 0C151.061 0 119.51 10.738 93.129 30.8882L98.034 37.2514C122.957 18.0292 152.784 7.95404 184.335 7.95404C262.683 7.95404 326.315 71.7189 326.315 149.934C326.315 228.281 262.55 291.913 184.335 291.913C145.095 291.913 106.253 274.414 79.4745 245.78H12.9257V222.05C59.3243 179.364 92.7313 148.608 92.7313 121.299C92.7313 103.005 82.5236 92.1343 65.2898 92.1343C52.1656 92.1343 41.8254 100.884 34.1365 108.44L12.1303 86.5665C31.22 67.2117 47.9235 60.053 72.581 60.053C109.302 60.053 133.96 83.5175 133.96 118.515C133.96 147.813 105.325 180.822 80.5351 206.275L72.581 214.361L83.8492 212.903C92.9964 211.71 106.651 210.517 115.135 210.517H142.974V249.757H150.928V202.563H115.135C109.302 202.563 101.348 203.093 93.7918 203.756C117.654 178.436 141.914 147.415 141.914 118.25C141.914 98.7627 135.153 82.0592 122.426 69.9956C109.832 58.3296 92.5987 52.099 72.581 52.099C44.6093 52.099 25.2545 60.981 3.64598 83.9152L0.994629 86.6991L34.1365 119.841L36.9204 117.057C46.0675 107.91 54.6844 100.221 65.2898 100.221C78.0163 100.221 84.7772 107.512 84.7772 121.432C84.7772 145.294 50.5748 176.712 7.35786 216.483L4.97165 218.736V253.867H76.1603C104.397 283.164 143.637 300 184.335 300C267.057 300 334.269 232.788 334.269 150.066C334.269 67.2117 267.057 0 184.335 0Z" fill="#D9D9D9"/>
</svg>
