<svg width="329" height="300" viewBox="0 0 329 300" fill="none" xmlns="http://www.w3.org/2000/svg">
<path d="M178.572 0C145.298 0 113.747 10.738 87.3658 30.8882L92.2708 37.2514C117.193 18.0292 147.021 7.95404 178.572 7.95404C256.919 7.95404 320.552 71.7189 320.552 149.934C320.552 228.281 256.787 291.913 178.572 291.913C141.056 291.913 104.202 275.74 77.4232 249.359H73.0485C46.4025 249.359 24.794 241.273 10.3442 226.027L29.3013 199.779C41.7626 210.252 55.1519 215.82 67.6133 215.82C87.3658 215.82 99.1643 207.601 99.1643 193.814C99.1643 174.989 86.1727 167.565 51.7052 167.035V139.196C70.6623 138.798 93.1988 135.086 93.1988 113.61C93.1988 100.088 84.5819 92.2669 69.4692 92.2669C56.7427 92.2669 47.3305 97.3045 36.3274 106.186L15.6469 81.1312C33.8086 66.6814 51.8377 59.9205 71.8554 59.9205C112.554 59.9205 136.946 78.4799 136.946 109.633C136.946 126.469 127.666 138.665 108.709 147.15L106.323 148.21V154.971L109.107 155.767C130.848 162.395 142.912 177.243 142.912 197.525H150.866C150.866 175.917 139.597 159.611 118.917 150.862C136.151 141.184 144.767 127.397 144.767 109.633C144.767 91.6041 137.741 76.7565 124.485 66.6814C111.758 57.004 93.5965 51.9664 71.8554 51.9664C49.0538 51.9664 27.9756 60.3182 7.56025 77.5519L4.5112 80.0707L35.3994 117.455L38.4484 114.803C49.5841 105.258 57.9358 100.088 69.4692 100.088C76.2301 100.088 85.2447 101.414 85.2447 113.478C85.2447 122.36 80.87 131.242 47.8607 131.242H43.8837V175.254H47.8607C91.3428 175.254 91.3428 185.727 91.3428 194.079C91.3428 206.275 76.4953 208.131 67.7458 208.131C56.2125 208.131 43.2209 202.165 31.4224 191.162L28.1082 188.113L0.269043 226.69L2.25755 229.076C18.1656 247.636 42.6906 257.446 73.0485 257.446H73.9765C102.081 284.887 139.2 300 178.572 300C261.294 300 328.506 232.788 328.506 150.066C328.638 67.2117 261.294 0 178.572 0Z" fill="#D9D9D9"/>
</svg>
