<svg width="341" height="300" viewBox="0 0 341 300" fill="none" xmlns="http://www.w3.org/2000/svg">
<path d="M66.4429 134.693L45.9394 172.873H88.9777V147.29C88.9777 137.56 89.6619 124.299 90.2665 112.598C90.4535 108.975 90.6312 105.539 90.7744 102.461L90.968 98.2979H82.9578L81.9341 100.732C77.166 112.056 71.7162 123.563 66.4429 134.693ZM81.0219 147.29V164.917H59.2442L73.4997 138.369L73.5898 138.19C76.3505 132.363 79.1589 126.435 81.901 120.471C81.4329 129.921 81.0219 139.628 81.0219 147.29ZM340.767 149.999C340.767 232.71 273.477 300 190.767 300C151.074 300 113.657 284.645 85.4055 256.767C84.2639 255.638 82.1264 253.067 81.0219 251.905V211.884H0V170.824L0.537017 169.897L66.5039 56.2886H136.99V164.917H157.395V211.883H133.012V203.927H149.439V172.873H129.034V64.2444H71.0851L7.9558 172.966V203.927H88.9777V249.05C89.6473 249.738 90.3116 250.43 90.9945 251.104C117.747 277.504 153.18 292.044 190.767 292.044C269.09 292.044 332.811 228.322 332.811 149.999C332.811 71.6765 269.09 7.9558 190.767 7.9558C159.221 7.9558 129.353 18.0769 104.389 37.2265L99.547 30.9136C125.912 10.6899 157.455 0 190.767 0C273.477 0 340.767 67.2902 340.767 149.999Z" fill="#D9D9D9"/>
</svg>
