<svg width="130" height="32" viewBox="0 0 130 32" fill="none" xmlns="http://www.w3.org/2000/svg">
<path d="M0 15.4839C0 24.0516 7.03461 30.9677 15.7491 30.9677C24.4636 30.9677 31.4983 24.0516 31.4983 15.4839C31.4983 6.91613 24.4636 0 15.7491 0C7.03461 0 0 6.91613 0 15.4839ZM5.4597 15.4839C5.4597 10.1161 9.65947 5.78064 15.0142 5.36774V10.7355C12.7043 11.0452 10.9194 13.0064 10.9194 15.3806C10.9194 17.9613 13.0193 20.129 15.7491 20.129C18.479 20.129 20.5789 18.0645 20.5789 15.3806C20.5789 13.0064 18.794 11.0452 16.4841 10.7355V5.36774C21.8388 5.67742 26.0386 10.1161 26.0386 15.4839C26.0386 21.0581 21.4188 25.6 15.7491 25.6C10.0794 25.6 5.4597 21.0581 5.4597 15.4839ZM13.6492 2.68387C13.6492 1.54839 14.5942 0.619355 15.7491 0.619355C16.9041 0.619355 17.849 1.54839 17.849 2.68387C17.849 3.81935 16.9041 4.74839 15.7491 4.74839C14.5942 4.74839 13.6492 3.81935 13.6492 2.68387Z" fill="#B74746"/>
<path d="M41.9977 18.8903H37.4829C36.748 18.8903 36.328 18.4774 36.328 17.7548V13.3161C36.328 12.4903 36.748 12.1807 37.4829 12.1807H41.9977C42.7326 12.1807 43.1526 12.5936 43.1526 13.3161V17.7548C43.1526 18.4774 42.7326 18.8903 41.9977 18.8903ZM45.8825 13.1097C45.8825 10.6323 44.6225 9.39355 42.2077 9.39355H37.2729C34.7531 9.39355 33.5981 10.6323 33.5981 13.1097V17.7548C33.5981 20.2323 34.8581 21.471 37.2729 21.471H42.2077C44.6225 21.471 45.8825 20.2323 45.8825 17.7548V13.1097Z" fill="#B74746"/>
<path d="M59.5316 9.39355H47.2473V12.0774H52.077V21.5742H54.8069V12.0774H59.5316V9.39355Z" fill="#B74746"/>
<path d="M73.2858 13.1095C73.2858 10.7353 72.1309 9.49658 69.821 9.49658H60.8965V12.1805H69.296C70.136 12.1805 70.5559 12.4901 70.5559 13.2127C70.5559 13.9353 70.136 14.245 69.296 14.245H65.7262V16.9288H69.296C70.136 16.9288 70.5559 17.2385 70.5559 17.9611C70.5559 18.6837 70.136 18.9934 69.296 18.9934H60.8965V21.6772H69.296C71.9209 21.6772 73.2858 20.645 73.2858 18.4772C73.2858 17.445 73.0758 16.4127 72.5508 15.6901C73.0758 14.6579 73.2858 13.8321 73.2858 13.1095Z" fill="#B74746"/>
<path d="M83.0504 18.8903H78.5357C77.8007 18.8903 77.3807 18.4774 77.3807 17.7548V13.3161C77.3807 12.4903 77.8007 12.1807 78.5357 12.1807H83.0504C83.7854 12.1807 84.2053 12.5936 84.2053 13.3161V17.7548C84.2053 18.4774 83.7854 18.8903 83.0504 18.8903ZM86.9352 13.1097C86.9352 10.6323 85.6753 9.39355 83.2604 9.39355H78.3257C75.8058 9.39355 74.6509 10.6323 74.6509 13.1097V17.7548C74.6509 20.2323 75.9108 21.471 78.3257 21.471H83.2604C85.6753 21.471 86.9352 20.2323 86.9352 17.7548V13.1097Z" fill="#B74746"/>
<path d="M97.9597 17.8581C97.9597 17.1355 97.5398 16.8258 96.8048 16.8258H91.1351V18.8903H96.8048C97.5398 18.8903 97.9597 18.4774 97.9597 17.8581ZM97.9597 13.1097C97.9597 12.3871 97.5398 12.0774 96.8048 12.0774H91.1351V14.1419H96.8048C97.5398 14.1419 97.9597 13.8323 97.9597 13.1097ZM100.69 17.8581C100.69 20.3355 99.4297 21.471 97.0148 21.471H88.4053V9.39355H97.0148C99.4297 9.39355 100.69 10.6323 100.69 13.0065C100.69 14.1419 100.375 14.9677 99.9546 15.3806C100.375 16 100.69 16.8258 100.69 17.8581Z" fill="#B74746"/>
<path d="M114.339 21.5742H111.609V13.1097L104.784 21.5742H102.054V9.39355H104.784V17.8581L111.609 9.39355H114.339V21.5742Z" fill="#B74746"/>
<path d="M123.368 15.4839L128.303 9.39355H125.153L121.268 14.1419H118.433V9.39355H115.704V21.5742H118.433V16.8258H121.268L125.153 21.5742H128.303L123.368 15.4839Z" fill="#B74746"/>
</svg>
