<svg width="121" height="124" viewBox="0 0 121 124" fill="none" xmlns="http://www.w3.org/2000/svg">
<g filter="url(#filter0_d)">
<path fill-rule="evenodd" clip-rule="evenodd" d="M82.7103 106.342C104.413 102.89 121 84.1072 121 61.4545C121 36.3507 100.629 16 75.5 16C50.371 16 30 36.3507 30 61.4545C30 83.9333 46.3335 102.601 67.7908 106.259H67.5756L75.175 116L82.7103 106.342Z" fill="white"/>
</g>
<mask id="mask0" mask-type="alpha" maskUnits="userSpaceOnUse" x="45" y="47" width="61" height="30">
<path fill-rule="evenodd" clip-rule="evenodd" d="M58.3501 74.554L53.9336 59.8L45 57.3568L58.3501 74.554ZM53.3369 52.3659L61.1109 76.9963L64.926 73.2834L62.0149 61.753L76.1074 69.5988L89.605 61.7567L86.738 73.287L90.4968 77L97.3199 52.4748L75.9157 63.9027L53.3369 52.3659ZM75.5774 47L69.4422 56.9662L76.067 59.1643L82.4409 56.4777L75.5774 47ZM97.24 59.6546L92.9522 74.4085L105.912 57.2113L97.24 59.6546Z" fill="#6BB42E"/>
</mask>
<g mask="url(#mask0)">
<path fill-rule="evenodd" clip-rule="evenodd" d="M49.4514 68.7397L54.6545 75.5481L54.6704 68.7388L49.4514 68.7314V68.7397Z" fill="#79C200"/>
<path fill-rule="evenodd" clip-rule="evenodd" d="M54.6533 75.5487L49.4503 68.7402L49.4343 75.5313L54.6533 75.5487Z" fill="#59B401"/>
<path fill-rule="evenodd" clip-rule="evenodd" d="M49.4349 75.5308L49.4518 68.7397L49.4452 68.7314L44.2722 75.5134L49.4349 75.5308Z" fill="#008668"/>
<path fill-rule="evenodd" clip-rule="evenodd" d="M44.2711 75.5139L49.445 68.7319L44.2786 68.7246L44.2617 75.5139H44.2711Z" fill="#008D91"/>
<path fill-rule="evenodd" clip-rule="evenodd" d="M49.4504 68.7193L54.6864 61.9648L54.6695 68.7431L49.4504 68.7276V68.7193Z" fill="#C9DA0F"/>
<path fill-rule="evenodd" clip-rule="evenodd" d="M54.6864 61.9645L49.4504 68.719L49.4674 61.959L54.6864 61.9645Z" fill="#FFD912"/>
<path fill-rule="evenodd" clip-rule="evenodd" d="M49.4656 61.9586L49.4487 68.7186L49.4421 68.7277L44.303 61.9531L49.4656 61.9586Z" fill="#9CD013"/>
<path fill-rule="evenodd" clip-rule="evenodd" d="M44.3044 61.9531L49.4445 68.7268L44.2781 68.7113L44.295 61.9531H44.3044Z" fill="#71B73A"/>
<path fill-rule="evenodd" clip-rule="evenodd" d="M49.4824 55.1616L54.6855 61.97L54.7024 55.1606L49.4824 55.1533V55.1616Z" fill="#FBAF03"/>
<path fill-rule="evenodd" clip-rule="evenodd" d="M54.6853 61.9696L49.4823 55.1611L49.4663 61.9522L54.6853 61.9696Z" fill="#F9C903"/>
<path fill-rule="evenodd" clip-rule="evenodd" d="M49.4656 61.9516L49.4825 55.1606L49.475 55.1523L44.302 61.9343L49.4656 61.9516Z" fill="#F38202"/>
<path fill-rule="evenodd" clip-rule="evenodd" d="M44.3021 61.9357L49.4751 55.1538L44.3096 55.1465L44.2927 61.9357H44.3021Z" fill="#F45600"/>
<path fill-rule="evenodd" clip-rule="evenodd" d="M49.4832 55.1566L54.7191 48.3691L54.7022 55.1803L49.4832 55.1648V55.1566Z" fill="#CE640C"/>
<path fill-rule="evenodd" clip-rule="evenodd" d="M54.7191 48.3707L49.4832 55.1581L49.5001 48.3652L54.7191 48.3707Z" fill="#DE3D0F"/>
<path fill-rule="evenodd" clip-rule="evenodd" d="M49.499 48.3649L49.4821 55.1568L49.4755 55.166L44.3354 48.3594L49.499 48.3649Z" fill="#D70000"/>
<path fill-rule="evenodd" clip-rule="evenodd" d="M44.3364 48.3594L49.4765 55.166L44.311 55.1504L44.327 48.3594H44.3364Z" fill="#B40019"/>
<path fill-rule="evenodd" clip-rule="evenodd" d="M49.5171 41.5786L54.7201 48.3871L54.7361 41.5777L49.5171 41.5713V41.5786Z" fill="#ED2349"/>
<path fill-rule="evenodd" clip-rule="evenodd" d="M54.7202 48.3866L49.5172 41.5791L49.5002 48.3693L54.7202 48.3866Z" fill="#FD274B"/>
<path fill-rule="evenodd" clip-rule="evenodd" d="M49.4998 48.3687L49.5167 41.5795L49.5101 41.5703L44.3362 48.3513L49.4998 48.3687Z" fill="#BE0048"/>
<path fill-rule="evenodd" clip-rule="evenodd" d="M54.6563 75.5153L49.4204 82.2926L49.4373 75.5098L54.6563 75.5153Z" fill="#01A2D0"/>
<path fill-rule="evenodd" clip-rule="evenodd" d="M49.4377 75.5104L49.4208 82.2932L49.4143 82.3014L44.2742 75.5049L49.4377 75.5104Z" fill="#078AB6"/>
<path fill-rule="evenodd" clip-rule="evenodd" d="M44.2736 75.5049L49.4137 82.3014L44.2473 82.2859L44.2642 75.5049H44.2736Z" fill="#0B62A5"/>
<path fill-rule="evenodd" clip-rule="evenodd" d="M59.8479 68.7729L65.0509 75.5813L65.0679 68.772L59.8479 68.7646V68.7729Z" fill="#79C200"/>
<path fill-rule="evenodd" clip-rule="evenodd" d="M65.05 75.5819L59.847 68.7734L59.8301 75.5645L65.05 75.5819Z" fill="#59B401"/>
<path fill-rule="evenodd" clip-rule="evenodd" d="M59.8311 75.564L59.848 68.7729L59.8414 68.7646L54.6675 75.5466L59.8311 75.564Z" fill="#008668"/>
<path fill-rule="evenodd" clip-rule="evenodd" d="M54.6676 75.5471L59.8415 68.7651L54.6751 68.7578L54.6582 75.5471H54.6676Z" fill="#008D91"/>
<path fill-rule="evenodd" clip-rule="evenodd" d="M59.8462 68.7516L65.0821 61.9971L65.0661 68.7753L59.8462 68.7598V68.7516Z" fill="#C9DA0F"/>
<path fill-rule="evenodd" clip-rule="evenodd" d="M65.0829 61.9977L59.8469 68.7522L59.8629 61.9922L65.0829 61.9977Z" fill="#FFD912"/>
<path fill-rule="evenodd" clip-rule="evenodd" d="M59.8631 61.9918L59.8462 68.7518L59.8396 68.7609L54.7004 61.9863L59.8631 61.9918Z" fill="#9CD013"/>
<path fill-rule="evenodd" clip-rule="evenodd" d="M54.7004 61.9863L59.8405 68.7609L54.6741 68.7454L54.691 61.9863H54.7004Z" fill="#71B73A"/>
<path fill-rule="evenodd" clip-rule="evenodd" d="M59.8789 55.1948L65.0819 62.0032L65.0979 55.1938L59.8789 55.1865V55.1948Z" fill="#FBAF03"/>
<path fill-rule="evenodd" clip-rule="evenodd" d="M65.082 62.0028L59.879 55.1943L59.8621 61.9854L65.082 62.0028Z" fill="#F9C903"/>
<path fill-rule="evenodd" clip-rule="evenodd" d="M59.8621 61.9849L59.879 55.1938L59.8724 55.1855L54.6985 61.9675L59.8621 61.9849Z" fill="#F38202"/>
<path fill-rule="evenodd" clip-rule="evenodd" d="M54.6993 61.968L59.8723 55.186L54.7069 55.1787L54.6899 61.968H54.6993Z" fill="#F45600"/>
<path fill-rule="evenodd" clip-rule="evenodd" d="M59.8799 55.1907L65.1158 48.4033L65.0998 55.2145L59.8799 55.199V55.1907Z" fill="#CE640C"/>
<path fill-rule="evenodd" clip-rule="evenodd" d="M65.1158 48.4039L59.8799 55.1913L59.8959 48.3984L65.1158 48.4039Z" fill="#DE3D0F"/>
<path fill-rule="evenodd" clip-rule="evenodd" d="M59.897 48.3981L59.8801 55.191L59.8735 55.1992L54.7334 48.3926L59.897 48.3981Z" fill="#D70000"/>
<path fill-rule="evenodd" clip-rule="evenodd" d="M54.7334 48.3926L59.8735 55.1992L54.708 55.1837L54.724 48.3926H54.7334Z" fill="#B40019"/>
<path fill-rule="evenodd" clip-rule="evenodd" d="M59.9138 41.6127L65.1169 48.4203L65.1328 41.6118L59.9138 41.6045V41.6127Z" fill="#ED2349"/>
<path fill-rule="evenodd" clip-rule="evenodd" d="M65.1167 48.4189L59.9137 41.6113L59.8977 48.4015L65.1167 48.4189Z" fill="#FD274B"/>
<path fill-rule="evenodd" clip-rule="evenodd" d="M59.897 48.4029L59.9139 41.6127L59.9073 41.6045L54.7334 48.3855L59.897 48.4029Z" fill="#BE0048"/>
<path fill-rule="evenodd" clip-rule="evenodd" d="M65.0528 75.5485L59.8169 82.3258L59.8338 75.543L65.0528 75.5485Z" fill="#01A2D0"/>
<path fill-rule="evenodd" clip-rule="evenodd" d="M59.834 75.5426L59.8171 82.3254L59.8105 82.3337L54.6704 75.5371L59.834 75.5426Z" fill="#078AB6"/>
<path fill-rule="evenodd" clip-rule="evenodd" d="M54.6704 75.5371L59.8105 82.3337L54.645 82.3181L54.661 75.5371H54.6704Z" fill="#0B62A5"/>
<path fill-rule="evenodd" clip-rule="evenodd" d="M70.2175 68.7934L75.4196 75.6018L75.4366 68.7925L70.2175 68.7852V68.7934Z" fill="#79C200"/>
<path fill-rule="evenodd" clip-rule="evenodd" d="M75.4204 75.6014L70.2183 68.793L70.2004 75.584L75.4204 75.6014Z" fill="#59B401"/>
<path fill-rule="evenodd" clip-rule="evenodd" d="M70.2005 75.5845L70.2174 68.7934L70.2108 68.7852L65.0378 75.5671L70.2005 75.5845Z" fill="#008668"/>
<path fill-rule="evenodd" clip-rule="evenodd" d="M65.038 75.5666L70.2109 68.7847L65.0455 68.7773L65.0286 75.5666H65.038Z" fill="#008D91"/>
<path fill-rule="evenodd" clip-rule="evenodd" d="M70.2166 68.772L75.4525 62.0166L75.4365 68.7958L70.2166 68.7802V68.772Z" fill="#C9DA0F"/>
<path fill-rule="evenodd" clip-rule="evenodd" d="M75.4525 62.0162L70.2166 68.7716L70.2335 62.0107L75.4525 62.0162Z" fill="#FFD912"/>
<path fill-rule="evenodd" clip-rule="evenodd" d="M70.2334 62.0113L70.2165 68.7713L70.2099 68.7795L65.0698 62.0059L70.2334 62.0113Z" fill="#9CD013"/>
<path fill-rule="evenodd" clip-rule="evenodd" d="M65.0698 62.0059L70.2099 68.7795L65.0444 68.7649L65.0604 62.0059H65.0698Z" fill="#71B73A"/>
<path fill-rule="evenodd" clip-rule="evenodd" d="M70.2493 55.2133L75.4523 62.0218L75.4692 55.2115L70.2493 55.2051V55.2133Z" fill="#FBAF03"/>
<path fill-rule="evenodd" clip-rule="evenodd" d="M75.4514 62.0223L70.2484 55.2139L70.2314 62.0049L75.4514 62.0223Z" fill="#F9C903"/>
<path fill-rule="evenodd" clip-rule="evenodd" d="M70.2325 62.0044L70.2494 55.2133L70.2428 55.2051L65.0698 61.987L70.2325 62.0044Z" fill="#F38202"/>
<path fill-rule="evenodd" clip-rule="evenodd" d="M65.069 61.9875L70.2429 55.2056L65.0765 55.1982L65.0596 61.9875H65.069Z" fill="#F45600"/>
<path fill-rule="evenodd" clip-rule="evenodd" d="M70.2493 55.2103L75.4861 48.4229L75.4683 55.234L70.2493 55.2185V55.2103Z" fill="#CE640C"/>
<path fill-rule="evenodd" clip-rule="evenodd" d="M75.4861 48.4225L70.2493 55.2099L70.2662 48.417L75.4861 48.4225Z" fill="#DE3D0F"/>
<path fill-rule="evenodd" clip-rule="evenodd" d="M70.2662 48.4176L70.2492 55.2105L70.2427 55.2187L65.1035 48.4121L70.2662 48.4176Z" fill="#D70000"/>
<path fill-rule="evenodd" clip-rule="evenodd" d="M65.1037 48.4121L70.2438 55.2187L65.0774 55.2032L65.0943 48.4121H65.1037Z" fill="#B40019"/>
<path fill-rule="evenodd" clip-rule="evenodd" d="M70.2832 41.6313L75.4862 48.4388L75.5022 41.6304L70.2832 41.623V41.6313Z" fill="#ED2349"/>
<path fill-rule="evenodd" clip-rule="evenodd" d="M75.4864 48.4384L70.2833 41.6309L70.2673 48.4219L75.4864 48.4384Z" fill="#FD274B"/>
<path fill-rule="evenodd" clip-rule="evenodd" d="M70.2671 48.4205L70.284 41.6303L70.2774 41.6221L65.1035 48.4031L70.2671 48.4205Z" fill="#BE0048"/>
<path fill-rule="evenodd" clip-rule="evenodd" d="M75.4225 75.568L70.1865 82.3453L70.2025 75.5625L75.4225 75.568Z" fill="#01A2D0"/>
<path fill-rule="evenodd" clip-rule="evenodd" d="M70.2034 75.5621L70.1865 82.345L70.1799 82.3532L65.0398 75.5566L70.2034 75.5621Z" fill="#078AB6"/>
<path fill-rule="evenodd" clip-rule="evenodd" d="M65.0398 75.5566L70.1799 82.3532L65.0144 82.3377L65.0304 75.5566H65.0398Z" fill="#0B62A5"/>
<path fill-rule="evenodd" clip-rule="evenodd" d="M80.6133 68.8159L85.8163 75.6243L85.8323 68.8149L80.6133 68.8076V68.8159Z" fill="#79C200"/>
<path fill-rule="evenodd" clip-rule="evenodd" d="M85.8162 75.6249L80.6131 68.8164L80.5972 75.6075L85.8162 75.6249Z" fill="#59B401"/>
<path fill-rule="evenodd" clip-rule="evenodd" d="M80.5962 75.6069L80.6131 68.8159L80.6065 68.8076L75.4326 75.5895L80.5962 75.6069Z" fill="#008668"/>
<path fill-rule="evenodd" clip-rule="evenodd" d="M75.4327 75.59L80.6067 68.8081L75.4403 68.8008L75.4233 75.59H75.4327Z" fill="#008D91"/>
<path fill-rule="evenodd" clip-rule="evenodd" d="M80.6123 68.7945L85.8482 62.04L85.8313 68.8183L80.6123 68.8028V68.7945Z" fill="#C9DA0F"/>
<path fill-rule="evenodd" clip-rule="evenodd" d="M85.8482 62.0406L80.6123 68.7951L80.6292 62.0352L85.8482 62.0406Z" fill="#FFD912"/>
<path fill-rule="evenodd" clip-rule="evenodd" d="M80.6292 62.0348L80.6122 68.7948L80.6057 68.8039L75.4656 62.0293L80.6292 62.0348Z" fill="#9CD013"/>
<path fill-rule="evenodd" clip-rule="evenodd" d="M75.4655 62.0293L80.6056 68.8039L75.4392 68.7884L75.4561 62.0293H75.4655Z" fill="#71B73A"/>
<path fill-rule="evenodd" clip-rule="evenodd" d="M80.645 55.2367L85.8481 62.0452L85.864 55.2358L80.645 55.2285V55.2367Z" fill="#FBAF03"/>
<path fill-rule="evenodd" clip-rule="evenodd" d="M85.8472 62.0458L80.6442 55.2373L80.6282 62.0284L85.8472 62.0458Z" fill="#F9C903"/>
<path fill-rule="evenodd" clip-rule="evenodd" d="M80.6282 62.0278L80.6451 55.2367L80.6385 55.2285L75.4646 62.0104L80.6282 62.0278Z" fill="#F38202"/>
<path fill-rule="evenodd" clip-rule="evenodd" d="M75.4647 62.0099L80.6377 55.228L75.4722 55.2207L75.4553 62.0099H75.4647Z" fill="#F45600"/>
<path fill-rule="evenodd" clip-rule="evenodd" d="M80.645 55.2327L85.881 48.4453L85.864 55.2565L80.645 55.241V55.2327Z" fill="#CE640C"/>
<path fill-rule="evenodd" clip-rule="evenodd" d="M85.8819 48.4459L80.646 55.2333L80.6629 48.4404L85.8819 48.4459Z" fill="#DE3D0F"/>
<path fill-rule="evenodd" clip-rule="evenodd" d="M80.6621 48.441L80.6452 55.233L80.6386 55.2422L75.4985 48.4355L80.6621 48.441Z" fill="#D70000"/>
<path fill-rule="evenodd" clip-rule="evenodd" d="M75.4985 48.4355L80.6386 55.2422L75.4731 55.2266L75.4891 48.4355H75.4985Z" fill="#B40019"/>
<path fill-rule="evenodd" clip-rule="evenodd" d="M80.6799 41.6547L85.882 48.4623L85.8989 41.6538L80.6799 41.6465V41.6547Z" fill="#ED2349"/>
<path fill-rule="evenodd" clip-rule="evenodd" d="M85.8821 48.4618L80.68 41.6543L80.6631 48.4445L85.8821 48.4618Z" fill="#FD274B"/>
<path fill-rule="evenodd" clip-rule="evenodd" d="M80.6622 48.4449L80.6791 41.6547L80.6725 41.6465L75.4995 48.4275L80.6622 48.4449Z" fill="#BE0048"/>
<path fill-rule="evenodd" clip-rule="evenodd" d="M85.8182 75.5904L80.5823 82.3678L80.5992 75.585L85.8182 75.5904Z" fill="#01A2D0"/>
<path fill-rule="evenodd" clip-rule="evenodd" d="M80.5991 75.5847L80.5822 82.3675L80.5756 82.3757L75.4355 75.5801L80.5991 75.5847Z" fill="#078AB6"/>
<path fill-rule="evenodd" clip-rule="evenodd" d="M75.4355 75.5801L80.5756 82.3766L75.4102 82.3611L75.4261 75.5801H75.4355Z" fill="#0B62A5"/>
<path fill-rule="evenodd" clip-rule="evenodd" d="M91.0098 68.8491L96.2128 75.6575L96.2297 68.8481L91.0098 68.8408V68.8491Z" fill="#79C200"/>
<path fill-rule="evenodd" clip-rule="evenodd" d="M96.2119 75.6571L91.0089 68.8486L90.9929 75.6397L96.2119 75.6571Z" fill="#59B401"/>
<path fill-rule="evenodd" clip-rule="evenodd" d="M90.9929 75.6401L91.0098 68.8491L91.0033 68.8408L85.8293 75.6227L90.9929 75.6401Z" fill="#008668"/>
<path fill-rule="evenodd" clip-rule="evenodd" d="M85.8295 75.6223L91.0034 68.8403L85.837 68.833L85.8201 75.6223H85.8295Z" fill="#008D91"/>
<path fill-rule="evenodd" clip-rule="evenodd" d="M91.009 68.8277L96.245 62.0723L96.229 68.8514L91.009 68.8359V68.8277Z" fill="#C9DA0F"/>
<path fill-rule="evenodd" clip-rule="evenodd" d="M96.245 62.0738L91.009 68.8292L91.025 62.0684L96.245 62.0738Z" fill="#FFD912"/>
<path fill-rule="evenodd" clip-rule="evenodd" d="M91.0258 62.068L91.008 68.8289L91.0024 68.8371L85.8613 62.0625L91.0258 62.068Z" fill="#9CD013"/>
<path fill-rule="evenodd" clip-rule="evenodd" d="M85.8623 62.0625L91.0024 68.8371L85.8369 68.8216L85.8529 62.0625H85.8623Z" fill="#71B73A"/>
<path fill-rule="evenodd" clip-rule="evenodd" d="M91.0417 55.2709L96.2438 62.0794L96.2608 55.27L91.0417 55.2627V55.2709Z" fill="#FBAF03"/>
<path fill-rule="evenodd" clip-rule="evenodd" d="M96.2439 62.079L91.0408 55.2705L91.0239 62.0616L96.2439 62.079Z" fill="#F9C903"/>
<path fill-rule="evenodd" clip-rule="evenodd" d="M91.0249 62.061L91.0418 55.27L91.0352 55.2617L85.8613 62.0436L91.0249 62.061Z" fill="#F38202"/>
<path fill-rule="evenodd" clip-rule="evenodd" d="M85.8614 62.0441L91.0354 55.2622L85.869 55.2549L85.8521 62.0441H85.8614Z" fill="#F45600"/>
<path fill-rule="evenodd" clip-rule="evenodd" d="M91.0417 55.2659L96.2777 48.4785L96.2617 55.2897L91.0417 55.2742V55.2659Z" fill="#CE640C"/>
<path fill-rule="evenodd" clip-rule="evenodd" d="M96.2787 48.4791L91.0427 55.2665L91.0587 48.4736L96.2787 48.4791Z" fill="#DE3D0F"/>
<path fill-rule="evenodd" clip-rule="evenodd" d="M91.0586 48.4742L91.0417 55.2671L91.0351 55.2754L85.895 48.4688L91.0586 48.4742Z" fill="#D70000"/>
<path fill-rule="evenodd" clip-rule="evenodd" d="M85.8952 48.4688L91.0353 55.2754L85.8689 55.2598L85.8858 48.4688H85.8952Z" fill="#B40019"/>
<path fill-rule="evenodd" clip-rule="evenodd" d="M91.0757 41.6869L96.2787 48.4945L96.2956 41.686L91.0757 41.6787V41.6869Z" fill="#ED2349"/>
<path fill-rule="evenodd" clip-rule="evenodd" d="M96.2788 48.495L91.0758 41.6875L91.0598 48.4777L96.2788 48.495Z" fill="#FD274B"/>
<path fill-rule="evenodd" clip-rule="evenodd" d="M91.0586 48.4771L91.0756 41.6869L91.069 41.6787L85.896 48.4597L91.0586 48.4771Z" fill="#BE0048"/>
<path fill-rule="evenodd" clip-rule="evenodd" d="M96.2149 75.6246L90.978 82.402L90.9949 75.6191L96.2149 75.6246Z" fill="#01A2D0"/>
<path fill-rule="evenodd" clip-rule="evenodd" d="M90.9959 75.6188L90.978 82.4016L90.9724 82.4098L85.8333 75.6133L90.9959 75.6188Z" fill="#078AB6"/>
<path fill-rule="evenodd" clip-rule="evenodd" d="M85.8322 75.6133L90.9723 82.4098L85.8059 82.3943L85.8228 75.6133H85.8322Z" fill="#0B62A5"/>
<path fill-rule="evenodd" clip-rule="evenodd" d="M101.379 68.8686L106.582 75.677L106.599 68.8677L101.379 68.8604V68.8686Z" fill="#79C200"/>
<path fill-rule="evenodd" clip-rule="evenodd" d="M106.582 75.6766L101.379 68.8682L101.363 75.6592L106.582 75.6766Z" fill="#59B401"/>
<path fill-rule="evenodd" clip-rule="evenodd" d="M101.362 75.6597L101.379 68.8686L101.373 68.8604L96.1997 75.6423L101.362 75.6597Z" fill="#008668"/>
<path fill-rule="evenodd" clip-rule="evenodd" d="M96.1998 75.6418L101.374 68.8599L96.2073 68.8525L96.1904 75.6418H96.1998Z" fill="#008D91"/>
<path fill-rule="evenodd" clip-rule="evenodd" d="M101.378 68.8473L106.614 62.0928L106.598 68.871L101.378 68.8555V68.8473Z" fill="#C9DA0F"/>
<path fill-rule="evenodd" clip-rule="evenodd" d="M106.615 62.0924L101.379 68.8469L101.395 62.0869L106.615 62.0924Z" fill="#FFD912"/>
<path fill-rule="evenodd" clip-rule="evenodd" d="M101.395 62.0875L101.378 68.8484L101.372 68.8566L96.2327 62.082L101.395 62.0875Z" fill="#9CD013"/>
<path fill-rule="evenodd" clip-rule="evenodd" d="M96.2317 62.082L101.372 68.8566L96.2063 68.8411L96.2223 62.082H96.2317Z" fill="#71B73A"/>
<path fill-rule="evenodd" clip-rule="evenodd" d="M101.411 55.2895L106.614 62.0979L106.631 55.2886L101.411 55.2812V55.2895Z" fill="#FBAF03"/>
<path fill-rule="evenodd" clip-rule="evenodd" d="M106.613 62.0985L101.41 55.29L101.394 62.0811L106.613 62.0985Z" fill="#F9C903"/>
<path fill-rule="evenodd" clip-rule="evenodd" d="M101.394 62.0806L101.411 55.2895L101.405 55.2812L96.2307 62.0632L101.394 62.0806Z" fill="#F38202"/>
<path fill-rule="evenodd" clip-rule="evenodd" d="M96.2308 62.0637L101.405 55.2817L96.2383 55.2744L96.2214 62.0637H96.2308Z" fill="#F45600"/>
<path fill-rule="evenodd" clip-rule="evenodd" d="M101.411 55.2864L106.647 48.499L106.63 55.3102L101.411 55.2947V55.2864Z" fill="#CE640C"/>
<path fill-rule="evenodd" clip-rule="evenodd" d="M106.648 48.4987L101.412 55.2861L101.429 48.4932L106.648 48.4987Z" fill="#DE3D0F"/>
<path fill-rule="evenodd" clip-rule="evenodd" d="M101.428 48.4928L101.411 55.2857L101.405 55.2939L96.2656 48.4873L101.428 48.4928Z" fill="#D70000"/>
<path fill-rule="evenodd" clip-rule="evenodd" d="M96.2656 48.4873L101.405 55.2939L96.2393 55.2784L96.2562 48.4873H96.2656Z" fill="#B40019"/>
<path fill-rule="evenodd" clip-rule="evenodd" d="M101.446 41.7065L106.649 48.5141L106.665 41.7056L101.446 41.6992V41.7065Z" fill="#ED2349"/>
<path fill-rule="evenodd" clip-rule="evenodd" d="M106.648 48.5146L101.445 41.707L101.429 48.4972L106.648 48.5146Z" fill="#FD274B"/>
<path fill-rule="evenodd" clip-rule="evenodd" d="M101.429 48.4966L101.446 41.7065L101.44 41.6982L96.2656 48.4793L101.429 48.4966Z" fill="#BE0048"/>
<path fill-rule="evenodd" clip-rule="evenodd" d="M106.585 75.6442L101.349 82.4215L101.365 75.6387L106.585 75.6442Z" fill="#01A2D0"/>
<path fill-rule="evenodd" clip-rule="evenodd" d="M101.365 75.6383L101.348 82.4211L101.342 82.4294L96.2017 75.6328L101.365 75.6383Z" fill="#078AB6"/>
<path fill-rule="evenodd" clip-rule="evenodd" d="M96.2016 75.6328L101.342 82.4294L96.1753 82.4138L96.1922 75.6328H96.2016Z" fill="#0B62A5"/>
</g>
<defs>
<filter id="filter0_d" x="0" y="0" width="121" height="124" filterUnits="userSpaceOnUse" color-interpolation-filters="sRGB">
<feFlood flood-opacity="0" result="BackgroundImageFix"/>
<feColorMatrix in="SourceAlpha" type="matrix" values="0 0 0 0 0 0 0 0 0 0 0 0 0 0 0 0 0 0 127 0"/>
<feOffset dx="-18" dy="-4"/>
<feGaussianBlur stdDeviation="6"/>
<feColorMatrix type="matrix" values="0 0 0 0 0 0 0 0 0 0 0 0 0 0 0 0 0 0 0.18 0"/>
<feBlend mode="normal" in2="BackgroundImageFix" result="effect1_dropShadow"/>
<feBlend mode="normal" in="SourceGraphic" in2="effect1_dropShadow" result="shape"/>
</filter>
</defs>
</svg>
