<svg width="600" height="20" viewBox="0 0 600 20" fill="none" xmlns="http://www.w3.org/2000/svg">
<g clip-path="url(#clip0)">
<path fill-rule="evenodd" clip-rule="evenodd" d="M313.214 35.8825L376.278 20.8824L328.587 0.0255127L313.154 35.8567L313.214 35.8825Z" fill="#E50D3F"/>
<path fill-rule="evenodd" clip-rule="evenodd" d="M580.872 36.5243L597.596 32.5837L549.523 11.7233L538.841 36.525L580.872 36.5243Z" fill="#82BB24"/>
<path fill-rule="evenodd" clip-rule="evenodd" d="M527.789 36.5242L502.163 -8.8512L549.549 11.7432L538.829 36.5242H527.789Z" fill="#CAD400"/>
<path fill-rule="evenodd" clip-rule="evenodd" d="M502.163 -8.8512L527.789 36.5242H508.851L486.646 26.8136L502.163 -8.8512Z" fill="#FFDC00"/>
<path fill-rule="evenodd" clip-rule="evenodd" d="M439.028 5.99615L502.162 -8.8512H445.488L438.968 5.96962L439.028 5.99615Z" fill="#F9AE00"/>
<path fill-rule="evenodd" clip-rule="evenodd" d="M502.162 -8.8512L439.028 5.99615L486.596 26.7992L502.162 -8.8512Z" fill="#FDCB00"/>
<path fill-rule="evenodd" clip-rule="evenodd" d="M486.596 26.7994L439.028 5.99634L438.949 6.01498L456.49 36.525L482.467 36.5243L486.596 26.7994Z" fill="#F08300"/>
<path fill-rule="evenodd" clip-rule="evenodd" d="M456.491 36.525L438.949 6.01489L425.859 36.525H456.491Z" fill="#EB5C05"/>
<path fill-rule="evenodd" clip-rule="evenodd" d="M439.002 5.98038L430.581 -8.8512H445.488L439.061 6.0062L439.002 5.98038Z" fill="#D06701"/>
<path fill-rule="evenodd" clip-rule="evenodd" d="M430.58 -8.8512L439.001 5.98038L405.087 -8.8512H430.58Z" fill="#E8450B"/>
<path fill-rule="evenodd" clip-rule="evenodd" d="M405.087 -8.85101L439.001 5.98056L439.042 6.05156L376.168 20.6228L388.854 -8.85962L405.087 -8.85101Z" fill="#E1270E"/>
<path fill-rule="evenodd" clip-rule="evenodd" d="M376.169 20.6228L439.042 6.05151L425.859 36.525L412.359 36.5243L376.142 20.6859L376.169 20.6228Z" fill="#B90C0A"/>
<path fill-rule="evenodd" clip-rule="evenodd" d="M388.85 -8.8512L359.187 -8.85048L376.113 20.5954L388.85 -8.8512Z" fill="#BF0147"/>
<path fill-rule="evenodd" clip-rule="evenodd" d="M359.187 -8.85048L376.044 20.5065L328.587 0.0253744L332.38 -8.8512L359.187 -8.85048Z" fill="#E50D3F"/>
<path fill-rule="evenodd" clip-rule="evenodd" d="M599.942 -8.8512H573.4L597.058 32.471L600 25.6454L599.942 -8.8512Z" fill="#008363"/>
<path fill-rule="evenodd" clip-rule="evenodd" d="M597.057 32.2969L573.4 -8.85103L558.271 -8.86609L549.473 11.5605L597.031 32.3593L597.057 32.2969Z" fill="#008C8F"/>
<path fill-rule="evenodd" clip-rule="evenodd" d="M558.264 -8.85097L549.384 11.5304L502.162 -8.85168L558.264 -8.85097Z" fill="#6FB62F"/>
<path fill-rule="evenodd" clip-rule="evenodd" d="M91.8688 25.0853L72.3945 -8.8512H106.41L91.928 25.1111L91.8688 25.0853Z" fill="#82BB24"/>
<path fill-rule="evenodd" clip-rule="evenodd" d="M50.0933 -8.8512H72.3945L91.8688 25.0853L44.2007 4.51314L50.0933 -8.8512Z" fill="#6BB52B"/>
<path fill-rule="evenodd" clip-rule="evenodd" d="M44.2007 4.51331L91.8689 25.0855L91.9088 25.1565L43.915 36.5243H30.6846L44.2007 4.51331Z" fill="#008363"/>
<path fill-rule="evenodd" clip-rule="evenodd" d="M92.013 25.1565L154.809 9.76631L111.996 -8.85168L106.409 -8.85097L91.9531 25.1314L92.013 25.1565Z" fill="#CAD400"/>
<path fill-rule="evenodd" clip-rule="evenodd" d="M154.81 9.76624L92.0137 25.1565L118.395 36.5422L143.393 36.5243L154.81 9.76624Z" fill="#FFDC00"/>
<path fill-rule="evenodd" clip-rule="evenodd" d="M170.129 36.5252L154.769 9.75635L202.568 30.3859L199.945 36.5252H170.129Z" fill="#F9AE00"/>
<path fill-rule="evenodd" clip-rule="evenodd" d="M154.768 9.75635L170.128 36.5252L143.393 36.5245L154.768 9.75635Z" fill="#FDCB00"/>
<path fill-rule="evenodd" clip-rule="evenodd" d="M50.0939 -8.8512H13.2817L44.3567 4.56047L50.0939 -8.8512Z" fill="#00A2D2"/>
<path fill-rule="evenodd" clip-rule="evenodd" d="M44.3564 4.56047L13.2815 -8.8512H0.799316L27.1368 36.5249L30.6842 36.5242L44.3564 4.56047Z" fill="#0088B5"/>
<path fill-rule="evenodd" clip-rule="evenodd" d="M27.137 36.5265L0.799553 -8.84961H0L0.000712614 27.5265L20.8539 36.5265H27.137Z" fill="#005EA5"/>
<path fill-rule="evenodd" clip-rule="evenodd" d="M162.965 -8.85168L144.281 -8.85097L154.962 9.61786L162.965 -8.85168Z" fill="#9FC515"/>
<path fill-rule="evenodd" clip-rule="evenodd" d="M154.962 9.61763L144.281 -8.8512L112.138 -8.79024L154.935 9.68002L154.962 9.61763Z" fill="#6FB62F"/>
<path fill-rule="evenodd" clip-rule="evenodd" d="M162.965 -8.85168L209.545 -8.85097L217.852 -5.26606L217.892 -5.19507L155.09 9.68025L162.965 -8.85168Z" fill="#F08300"/>
<path fill-rule="evenodd" clip-rule="evenodd" d="M155.09 9.68025L217.893 -5.19507L202.72 30.3112L155.063 9.74336L155.09 9.68025Z" fill="#EB5C05"/>
<path fill-rule="evenodd" clip-rule="evenodd" d="M275.799 -8.8512H232.688L217.881 -5.2584L265.56 15.3188L275.799 -8.8512Z" fill="#E8450B"/>
<path fill-rule="evenodd" clip-rule="evenodd" d="M265.56 15.3189L217.881 -5.2583L217.802 -5.23894L242.08 36.525L256.449 36.6175L265.56 15.3189Z" fill="#E1270E"/>
<path fill-rule="evenodd" clip-rule="evenodd" d="M242.081 36.525L217.802 -5.23889L202.687 30.2925L217.217 36.563L242.081 36.525Z" fill="#B90C0A"/>
<path fill-rule="evenodd" clip-rule="evenodd" d="M313.193 35.8739L287.534 -8.85097L308.289 -8.85168L328.583 0.0234499L313.253 35.8998L313.193 35.8739Z" fill="#E50D3F"/>
<path fill-rule="evenodd" clip-rule="evenodd" d="M275.799 -8.8512H287.534L313.194 35.8737L265.534 15.3044L275.799 -8.8512Z" fill="#E51A3C"/>
<path fill-rule="evenodd" clip-rule="evenodd" d="M265.534 15.3046L314.682 36.5243L256.517 36.525L265.534 15.3046Z" fill="#BF0147"/>
<path fill-rule="evenodd" clip-rule="evenodd" d="M308.29 -8.85168L328.583 0.0234499L332.38 -8.85097L308.29 -8.85168Z" fill="#E50D3F"/>
</g>
<defs>
<clipPath id="clip0">
<rect width="600" height="20" fill="white"/>
</clipPath>
</defs>
</svg>
