<?xml version="1.0" encoding="utf-8"?><svg viewBox="0 0 475 475" xmlns="http://www.w3.org/2000/svg" xmlns:xlink="http://www.w3.org/1999/xlink"><style>:root>svg{display:none}:root>svg:target{display:block}</style><svg viewBox="0 0 24 24" id="arrow-bot" xmlns="http://www.w3.org/2000/svg"><path fill-rule="evenodd" clip-rule="evenodd" d="M21 8a.997.997 0 01-.293.707l-8 8a.999.999 0 01-1.414 0l-8-8a.999.999 0 111.414-1.414L12 14.586l7.293-7.293A.999.999 0 0121 8z"/></svg><svg viewBox="0 0 11 20" id="attach_file" xmlns="http://www.w3.org/2000/svg"><path d="M11 14.5a5.5 5.5 0 01-11 0V4a4 4 0 118 0v8.5a2.5 2.5 0 01-5 0V5h1.5v7.5a1 1 0 102 0V4a2.5 2.5 0 00-5 0v10.5a4 4 0 108 0V5H11v9.5z"/></svg><svg viewBox="0 0 32 32" id="calls" xmlns="http://www.w3.org/2000/svg"><path d="M29.45 23.5l-5.2-3.4a2.4 2.4 0 00-3.25.65c-1.2 1.45-2.65 3.85-8.1-1.6C7.45 13.7 9.8 12.2 11.25 11a2.4 2.4 0 00.65-3.25l-3.4-5.2c-.45-.65-1.05-1.7-2.45-1.5C4.65 1.25 1 3.3 1 7.8s3.55 10 8.4 14.85C14.25 27.5 19.75 31 24.2 31c4.45 0 6.6-4 6.75-5 .15-1-.85-2.05-1.5-2.5z"/></svg><svg viewBox="0 0 24 24" id="close" xmlns="http://www.w3.org/2000/svg"><path d="M22.999 23.002L1 1m21.999.002l-22 22 22-22z"/></svg><svg viewBox="0 0 8 16" id="i" xmlns="http://www.w3.org/2000/svg"><path fill-rule="evenodd" clip-rule="evenodd" d="M7.007 13.854l-.203.853c-.607.247-1.09.435-1.452.564a3.73 3.73 0 01-1.26.195c-.736 0-1.308-.185-1.715-.555-.408-.37-.612-.84-.612-1.408 0-.221.016-.447.046-.678.031-.23.08-.491.147-.782l.754-2.769c.068-.265.125-.517.17-.754.047-.237.07-.453.07-.649 0-.354-.071-.6-.212-.74-.141-.139-.41-.208-.81-.208-.195 0-.396.031-.601.095a8.08 8.08 0 00-.53.18l.203-.854a18.79 18.79 0 011.425-.535 4.142 4.142 0 011.288-.223c.73 0 1.292.182 1.687.545.396.364.593.836.593 1.418 0 .12-.014.331-.041.635a4.42 4.42 0 01-.152.834l-.754 2.76a7.878 7.878 0 00-.165.758c-.05.284-.074.5-.074.645 0 .366.08.616.24.749.158.132.434.199.827.199.184 0 .392-.033.625-.1a3.47 3.47 0 00.506-.175zM7.2 2.278c0 .48-.176.89-.529 1.228a1.774 1.774 0 01-1.273.507 1.79 1.79 0 01-1.278-.507 1.632 1.632 0 01-.534-1.228c0-.48.178-.891.534-1.233A1.78 1.78 0 015.398.533c.496 0 .92.17 1.273.512.353.342.53.752.53 1.233z"/></svg><svg viewBox="0 0 7 12" id="link" xmlns="http://www.w3.org/2000/svg"><path fill-rule="evenodd" clip-rule="evenodd" d="M1.32 0L0 1.415l4.358 4.587L0 10.585 1.32 12 7 6.002 1.32 0z"/></svg><svg viewBox="0 0 41 40" id="location" xmlns="http://www.w3.org/2000/svg"><path d="M20.77 19.5a2.5 2.5 0 110-5 2.5 2.5 0 010 5zm0-9.5a7 7 0 00-7 7c0 5.25 7 13 7 13s7-7.75 7-13a7 7 0 00-7-7z"/></svg><svg viewBox="0 0 32 32" id="location2" xmlns="http://www.w3.org/2000/svg"><path d="M16 1A10 10 0 006 11c0 9 10 19.5 10 19.5S26 20 26 11A10 10 0 0016 1z"/><path d="M16 15a4 4 0 100-8 4 4 0 000 8z"/></svg><svg viewBox="0 0 10 2" id="minus" xmlns="http://www.w3.org/2000/svg"><rect width="10" height="2" rx="1"/></svg><svg viewBox="0 0 34 42" id="pdf" xmlns="http://www.w3.org/2000/svg"><path d="M20.255 26.88c-.623-.53-1.246-1.194-1.958-1.901-.49-.53-1.024-1.282-1.47-2.078.846-2.874 1.247-5.615.357-6.941-.4-.619-1.024-.928-1.826-.928-.89 0-1.558.398-1.87 1.15-.711 1.59.357 4.509 1.648 6.896a56.39 56.39 0 01-1.336 3.758 33.567 33.567 0 01-1.024 2.21c-3.65 1.415-5.876 3.007-6.187 4.51-.134.707.089 1.326.712 1.813.356.265.757.442 1.202.442.178 0 .356-.045.534-.089 1.692-.442 3.517-2.918 4.852-5.438a25.43 25.43 0 012.76-.884 33.798 33.798 0 013.206-.796c1.736 1.37 3.205 2.122 4.496 2.122.98.045 1.692-.31 2.36-.972.979-.973.578-1.813.445-2.034-.802-1.238-3.25-1.503-6.9-.84zM8.592 34.175a.444.444 0 01-.356-.044c-.178-.133-.178-.221-.134-.31.09-.53 1.113-1.503 3.339-2.564-1.069 1.591-2.137 2.74-2.85 2.918zM14.913 16.8c.045-.088.09-.221.445-.221a.67.67 0 01.535.221c.4.575.356 2.034-.134 3.979-.757-1.68-1.157-3.272-.846-3.979zm1.247 11.053l-1.336.398c.134-.31.267-.62.4-.885.313-.84.669-1.68.98-2.564.357.486.668.929.98 1.238.4.442.801.84 1.202 1.238-.713.177-1.47.354-2.226.575zm9.393.795c-.312.354-.712.487-1.202.487-.668 0-1.469-.31-2.404-.929 2.582-.353 4.051-.088 3.606.442z"/><path d="M32.854 10.655L23.104.973A3.322 3.322 0 0020.79 0H3.294C2.404 0 1.603.354.98.973.356 1.592 0 2.387 0 3.272v35.456A3.276 3.276 0 003.294 42H30.54a3.276 3.276 0 003.294-3.272V12.954c0-.84-.356-1.68-.98-2.3zm-1.87.796h-7.212c-.8 0-1.469-.664-1.469-1.46V2.875l8.681 8.576zm-.445 28.648H3.294c-.756 0-1.38-.619-1.38-1.37V3.271c0-.354.134-.708.4-.973a1.39 1.39 0 01.98-.398H20.39v8.09c0 1.857 1.514 3.36 3.383 3.36h8.147v25.377c0 .752-.623 1.37-1.38 1.37z"/></svg><svg viewBox="0 0 17 22" id="play" xmlns="http://www.w3.org/2000/svg"><path d="M.167.792v20.416L16.208 11 .167.792z"/></svg><svg viewBox="0 0 10 10" id="plus" xmlns="http://www.w3.org/2000/svg"><path fill-rule="evenodd" clip-rule="evenodd" d="M6 1a1 1 0 00-2 0v3H1a1 1 0 000 2h3v3a1 1 0 102 0V6h3a1 1 0 100-2H6V1z"/></svg><svg viewBox="0 0 32 32" id="shopping-cart" xmlns="http://www.w3.org/2000/svg"><path d="M24.251 23.778a3.734 3.734 0 00-3.736 3.737 3.734 3.734 0 003.736 3.736 3.734 3.734 0 003.737-3.736c-.036-2.048-1.689-3.737-3.737-3.737zm6.575-17.82c-.072 0-.18-.036-.288-.036H7.904l-.36-2.407C7.33 1.935 5.965.75 4.348.75h-2.91A1.44 1.44 0 000 2.186c0 .79.647 1.437 1.437 1.437h2.91c.18 0 .324.144.36.323l2.227 15.162a3.94 3.94 0 003.88 3.341H25.76c1.868 0 3.485-1.33 3.88-3.162l2.335-11.676a1.42 1.42 0 00-1.15-1.653zM15.09 27.335c-.072-1.976-1.725-3.557-3.7-3.557-2.085.108-3.666 1.833-3.594 3.88.072 1.976 1.689 3.557 3.665 3.557h.072c2.048-.107 3.664-1.832 3.557-3.88z"/></svg><svg viewBox="0 0 22 20" id="star" xmlns="http://www.w3.org/2000/svg"><path fill-rule="evenodd" clip-rule="evenodd" d="M11.056 16.584L4.557 20l1.241-7.236L.541 7.639l7.266-1.055L11.056 0l3.249 6.584 7.265 1.055-5.257 5.125L17.554 20l-6.498-3.416z"/></svg><svg viewBox="0 0 32 78" id="swiper-next" xmlns="http://www.w3.org/2000/svg"><path d="M3 3l26 36L3 75"/></svg><svg viewBox="0 0 32 78" id="swiper-prev" xmlns="http://www.w3.org/2000/svg"><path opacity=".5" d="M29 3L3 39l26 36"/></svg><svg viewBox="-59 0 475 475.57" id="tap" xmlns="http://www.w3.org/2000/svg"><path d="M318.918 187.566h-.668a36.676 36.676 0 00-24.719 9.399c-5.492-15.2-19.449-26.125-35.797-26.125a37.139 37.139 0 00-26.53 11.414c-6.384-12.922-19.188-21.688-33.911-21.688h-.711a34.815 34.815 0 00-21.832 7.274V75.719c0-22.262-17.332-40.371-38.414-40.371-21.059 0-38.3 18.097-38.313 40.343l-.175 182.774-10.344-12.563a52.171 52.171 0 00-36.867-19.363 51.334 51.334 0 00-38.457 13.61l-9 7.456a8 8 0 00-1.993 9.852l87.504 168.2c16 30.738 46.442 49.913 79.446 49.913h98.613v-.086c50 0 90.54-43.386 90.59-96.66.02-23.836-.07-41.601-.055-56 .05-38.523.012-52.738-.086-95.18-.05-22.21-17.258-40.078-38.281-40.078zm22.25 135.204c-.016 14.402-.04 32.238-.063 56.074-.042 44.465-33.609 80.722-74.824 80.722h-98.14c-27.016 0-52.02-15.878-65.25-41.3L18.363 255.84l4.172-3.48c.106-.087.207-.188.309-.278a35.512 35.512 0 0126.664-9.578 36.303 36.303 0 0125.61 13.562l24.487 29.797a7.998 7.998 0 0014.18-5.07l.145-205.094c.007-13.43 10.164-24.355 22.414-24.355S158.75 62.28 158.75 75.719v123.66c0 .43-.02.863-.02 1.3 0 .188.02.38.02.563v52.871a8 8 0 0016 0v-54.465c0-12.957 9.898-23.082 21.832-23.082h.711c12.258 0 22.457 10.684 22.457 24.122v48.378a8 8 0 0016 0V211.11c0-13.441 9.71-24.375 22.035-24.375 12.254 0 21.965 10.93 21.965 24.375v35.809a8 8 0 0016 0v-19.39c0-13.442 10.242-23.962 22.5-23.962h.668c12.227 0 22.191 10.7 22.223 24.098.097 42.41.078 56.61.027 95.106zm0 0"/><path d="M72.61 79.172a8 8 0 008-8c.128-30.527 24.913-55.203 55.437-55.203 30.527 0 55.308 24.676 55.437 55.203a8 8 0 0016 0C207.336 31.82 175.398 0 136.047 0c-39.348 0-71.29 31.82-71.438 71.172a8 8 0 008 8zm0 0"/></svg><svg viewBox="0 0 32 32" id="user" xmlns="http://www.w3.org/2000/svg"><path d="M16 15.8c3 0 5.4-2.4 5.4-5.4C21.4 7.4 19 5 16 5c-3 0-5.4 2.4-5.4 5.4 0 3 2.4 5.4 5.4 5.4zM16 7c1.9 0 3.4 1.5 3.4 3.4s-1.5 3.4-3.4 3.4-3.4-1.5-3.4-3.4S14.1 7 16 7zm2.2 10.4h-4.4c-4.9 0-8.8 4-8.8 8.8 0 .6.4 1 1 1s1-.4 1-1c0-3.8 3.1-6.8 6.8-6.8h4.4c3.8 0 6.8 3.1 6.8 6.8 0 .6.4 1 1 1s1-.4 1-1c0-4.8-4-8.8-8.8-8.8z"/></svg></svg>