<svg width="32" height="32" viewBox="0 0 32 32" fill="none" xmlns="http://www.w3.org/2000/svg">
<g clip-path="url(#clip0)">
<path d="M15.9998 32.0006C24.8363 32.0006 31.9996 24.8372 31.9996 16.0007C31.9996 7.16429 24.8363 0.000930786 15.9998 0.000930786C7.16336 0.000930786 0 7.16429 0 16.0007C0 24.8372 7.16336 32.0006 15.9998 32.0006Z" fill="#41B4E6"/>
<path d="M32.0001 16.0002C32.0001 15.6103 31.9854 15.224 31.958 14.8411L25.3268 8.20999L6.67334 15.5474L13.8103 22.6844L13.9039 23.0214L14.0251 22.8992L14.0256 22.8997L13.9039 23.0214L21.7987 30.9162C27.7687 28.5937 32.0001 22.7914 32.0001 16.0002Z" fill="#0091C8"/>
<path d="M14.4461 18.3312L21.6768 23.7904L25.3267 8.20999L6.67316 15.5474L12.3492 17.4275L22.7082 10.479L14.4461 18.3312Z" fill="white"/>
<path d="M12.3494 17.4275L13.904 23.0215L14.4463 18.3313L22.7084 10.479L12.3494 17.4275Z" fill="#D2D2D7"/>
<path d="M16.7962 20.1055L13.9039 23.0215L14.4462 18.3312L16.7962 20.1055Z" fill="#B9B9BE"/>
</g>
<defs>
<clipPath id="clip0">
<rect width="32" height="32" fill="white"/>
</clipPath>
</defs>
</svg>
