<svg width="23" height="13" viewBox="0 0 23 13" fill="none" xmlns="http://www.w3.org/2000/svg">
<path d="M22.7864 11.6644C22.7864 11.5753 22.6948 11.5753 22.6948 11.4863C22.3288 10.774 21.5052 9.88357 20.4071 8.90411C19.858 8.45891 19.5835 8.10274 19.4004 7.92466C19.1259 7.56849 19.1259 7.30138 19.2174 6.94521C19.3089 6.67809 19.675 6.23287 20.3155 5.4315C20.6816 4.9863 20.8646 4.71918 21.1391 4.45206C22.5118 2.67123 23.1524 1.51369 22.9694 0.979445L22.8779 0.890411C22.7864 0.80137 22.6948 0.712332 22.5118 0.712332C22.3288 0.623291 22.0543 0.623291 21.7797 0.712332H18.3023C18.2108 0.712332 18.2108 0.712332 18.0278 0.712332C17.9362 0.712332 17.8447 0.712332 17.8447 0.712332H17.7532H17.6617L17.5702 0.801365C17.4787 0.890406 17.4787 0.890403 17.4787 0.979445C17.1126 1.9589 16.6551 2.76027 16.1975 3.65068C15.923 4.09588 15.6485 4.5411 15.3739 4.89726C15.0994 5.25343 14.9164 5.52055 14.7333 5.69863C14.5503 5.87671 14.3673 5.96575 14.2758 6.14383C14.1843 6.23287 14.0013 6.32192 14.0013 6.23288C13.9097 6.23288 13.8182 6.23287 13.8182 6.14383C13.7267 6.05479 13.6352 5.96575 13.5437 5.87671C13.4522 5.78767 13.4522 5.60958 13.3607 5.4315C13.3607 5.25342 13.3607 5.07534 13.3607 4.9863C13.3607 4.89725 13.3607 4.63014 13.3607 4.45206C13.3607 4.18493 13.3607 4.00685 13.3607 3.91781C13.3607 3.65068 13.3607 3.29453 13.3607 2.93836C13.3607 2.5822 13.3607 2.31506 13.3607 2.13698C13.3607 1.9589 13.3607 1.69178 13.3607 1.5137C13.3607 1.24657 13.3607 1.06849 13.3607 0.979445C13.3607 0.890403 13.2692 0.712326 13.2692 0.623285C13.1777 0.534244 13.0861 0.4452 12.9946 0.356159C12.9031 0.267118 12.7201 0.267121 12.6286 0.17808C12.171 0.0890384 11.622 0 10.9814 0C9.51721 0 8.51057 0.0890439 8.14453 0.267126C7.96151 0.356167 7.77848 0.445203 7.68697 0.623285C7.50395 0.801368 7.50394 0.890411 7.59545 0.890411C8.05301 0.979453 8.41906 1.15753 8.60209 1.42465L8.6936 1.60274C8.78511 1.69178 8.7851 1.86986 8.87661 2.13698C8.96812 2.40411 8.96813 2.67123 8.96813 3.02739C8.96813 3.56164 8.96813 4.09589 8.96813 4.45206C8.96813 4.89726 8.87661 5.16438 8.87661 5.4315C8.87661 5.69863 8.78511 5.87671 8.6936 5.96575C8.60209 6.14384 8.60208 6.23288 8.51057 6.23288C8.51057 6.23288 8.51056 6.32191 8.41905 6.32191C8.32754 6.32191 8.23603 6.41096 8.05301 6.41096C7.9615 6.41096 7.77848 6.32192 7.68697 6.23288C7.50395 6.14384 7.32093 5.96576 7.22941 5.78767C7.04639 5.60959 6.86336 5.34246 6.68034 4.9863C6.49732 4.63013 6.22277 4.27397 6.03975 3.73973L5.85674 3.38357C5.76523 3.20548 5.58221 2.84931 5.39918 2.40411C5.21616 1.9589 5.03313 1.60274 4.85011 1.15754C4.7586 0.979455 4.6671 0.890406 4.57559 0.801365H4.48407C4.48407 0.801365 4.39255 0.712332 4.30104 0.712332C4.20952 0.712332 4.11802 0.623285 4.02651 0.623285H0.732095C0.366049 0.623285 0.183029 0.712324 0.091517 0.801365L0 0.890411C0 0.890411 0 0.97945 0 1.06849C0 1.15753 5.58405e-06 1.24657 0.091517 1.42465C0.549074 2.49314 1.09814 3.56164 1.64721 4.63014C2.19628 5.60959 2.74535 6.5 3.1114 7.12329C3.56896 7.74658 3.935 8.36987 4.39255 8.90411C4.85011 9.43836 5.12464 9.79452 5.21615 9.97261C5.39917 10.1507 5.49068 10.2397 5.58219 10.3288L5.85674 10.5959C6.03976 10.774 6.31429 11.0411 6.68034 11.3082C7.04639 11.5753 7.50394 11.8425 7.96149 12.1096C8.41905 12.3767 8.96813 12.5548 9.5172 12.7329C10.1578 12.911 10.7068 13 11.2559 12.911H12.6286C12.9031 12.911 13.0862 12.8219 13.2692 12.6438L13.3607 12.5548C13.3607 12.4658 13.4522 12.4658 13.4522 12.3767C13.4522 12.2877 13.4522 12.1986 13.4522 12.0206C13.4522 11.6644 13.4522 11.3973 13.5437 11.1301C13.6352 10.863 13.6352 10.6849 13.7267 10.5069C13.8182 10.3288 13.9097 10.2397 14.0013 10.1507C14.0928 10.0616 14.1843 9.97261 14.1843 9.97261H14.2758C14.4588 9.88356 14.7333 9.9726 14.9164 10.1507C15.1909 10.3288 15.4654 10.5959 15.6485 10.863C15.8315 11.1301 16.106 11.3973 16.4721 11.7534C16.8381 12.1096 17.1127 12.3767 17.2957 12.4658L17.5702 12.6438C17.7532 12.7329 17.9363 12.8219 18.2108 12.911C18.4853 13 18.6683 13 18.8514 13L21.9628 12.911C22.2373 12.911 22.5118 12.8219 22.6948 12.7329C22.8779 12.6438 22.9694 12.5548 22.9694 12.3767C22.9694 12.2877 22.9694 12.1096 22.9694 12.0206C22.7863 11.8425 22.7864 11.7534 22.7864 11.6644Z" fill="white"/>
</svg>
