<svg width="32" height="32" viewBox="0 0 32 32" fill="none" xmlns="http://www.w3.org/2000/svg">
<path d="M32 16C32 7.16344 24.8366 0 16 0C7.16344 0 0 7.16344 0 16C0 24.8366 7.16344 32 16 32C24.8366 32 32 24.8366 32 16Z" fill="#1BD741"/>
<path d="M4.80908 27.2028L6.37633 21.636C5.36678 19.9199 4.83554 17.9646 4.83787 15.9737C4.83787 9.81141 9.85137 4.79721 16.0143 4.79721C22.1773 4.79721 27.1908 9.81071 27.1908 15.9737C27.1908 22.1366 22.1773 27.1501 16.0143 27.1501C14.1011 27.1512 12.2198 26.6606 10.5507 25.7254L4.80908 27.2028ZM10.8435 23.6919L11.1855 23.9026C12.6398 24.7889 14.3104 25.2571 16.0136 25.2556C21.131 25.2556 25.2942 21.0925 25.2942 15.9751C25.2942 10.8576 21.1317 6.69307 16.0143 6.69307C10.8969 6.69307 6.73373 10.8562 6.73373 15.9737C6.73147 17.7488 7.2402 19.487 8.19916 20.9808L8.42947 21.3396L7.52718 24.5457L10.8435 23.6919Z" fill="white"/>
<path d="M12.8751 10.772L12.1476 10.732C11.9203 10.7186 11.6967 10.7941 11.5241 10.9426C11.173 11.2481 10.6113 11.8379 10.4378 12.6075C10.1802 13.7541 10.5783 15.1585 11.6084 16.5628C12.6385 17.9671 14.5575 20.2141 17.9511 21.1739C19.0472 21.4864 19.9073 21.2758 20.5737 20.8545C20.8333 20.6863 21.057 20.4683 21.2319 20.2132C21.4067 19.958 21.5293 19.6708 21.5925 19.368L21.7084 18.8273C21.7266 18.7436 21.7156 18.6562 21.6773 18.5795C21.639 18.5029 21.5756 18.4417 21.4977 18.406L19.0443 17.2734C18.9671 17.2377 18.88 17.2293 18.7973 17.2496C18.7146 17.2699 18.6413 17.3176 18.5893 17.385L17.6246 18.6349C17.5892 18.6809 17.5403 18.7146 17.4846 18.7311C17.429 18.7476 17.3696 18.7461 17.3149 18.7269C16.6563 18.4952 14.4486 17.5711 13.2374 15.2378C13.2119 15.1884 13.2016 15.1325 13.2078 15.0773C13.2141 15.022 13.2366 14.9699 13.2725 14.9274L14.1924 13.8637C14.2383 13.8104 14.2684 13.7453 14.2792 13.6758C14.29 13.6063 14.2811 13.5351 14.2534 13.4704L13.2002 10.9988C13.1725 10.9344 13.1274 10.8791 13.07 10.839C13.0125 10.7989 12.945 10.7757 12.8751 10.772Z" fill="white"/>
</svg>
