<svg width="22" height="16" viewBox="0 0 22 16" fill="none" xmlns="http://www.w3.org/2000/svg">
<path fill-rule="evenodd" clip-rule="evenodd" d="M21.1426 1.37374C20.3484 0.398246 18.8822 0 16.0821 0H5.91777C3.05352 0 1.5625 0.423954 0.771407 1.4624C-1.24886e-07 2.47512 0 3.96731 0 6.03217V9.9685C0 13.9688 0.915199 16 5.91777 16H16.0822C18.5104 16 19.8559 15.6489 20.7264 14.788C21.6191 13.9054 22 12.4639 22 9.9685V6.03217C22 3.85445 21.9403 2.3533 21.1426 1.37374ZM14.1241 8.54383L9.50854 11.0362C9.4053 11.0924 9.29246 11.1196 9.1798 11.1196C9.0522 11.1196 8.92487 11.0846 8.81203 11.0137C8.59975 10.8809 8.47009 10.6432 8.47009 10.3867V5.4165C8.47009 5.16053 8.59937 4.92283 8.8113 4.79003C9.02326 4.65687 9.28698 4.64791 9.50683 4.76601L14.1225 7.24265C14.3573 7.36852 14.5047 7.61925 14.5051 7.89264C14.5055 8.16605 14.3585 8.41694 14.1241 8.54383Z" fill="white"/>
</svg>
